<svg xmlns="http://www.w3.org/2000/svg" viewBox="0 0 500 500"><path d="M386.1 160.34c-37.64 0-37.7 53.52 0 53.52s37.7-53.52 0-53.52Z" style="fill:#ebebeb"/><path d="M409 192.12c-2 9.21-9.65 17.19-22.9 17.19-31.28 0-31.23-44.42 0-44.42h.62c-29.4.54-29.26 42.61.57 42.61 12.16.01 19.41-7.03 21.71-15.38Z" style="fill:#dbdbdb"/><path d="M386.32 170.75a1 1 0 0 1 1 .89v1.49a14 14 0 0 1 7.25 2.61c.36.26.57.48.57.86a1 1 0 0 1-1.06.93 1.06 1.06 0 0 1-.73-.26 12.09 12.09 0 0 0-6.11-2.42v10.43c6.19 1.19 8.79 3.31 8.79 7 0 3.95-3.62 6.74-8.71 6.89V202a1 1 0 0 1-1.95 0v-2.9a16 16 0 0 1-9.17-3.61 1 1 0 0 1-.45-.79 1 1 0 0 1 1-.93 1.12 1.12 0 0 1 .74.26 13.63 13.63 0 0 0 7.94 3.39v-10.61c-6.11-1.23-8.64-3.28-8.64-7s3.59-6.63 8.56-6.74v-1.42a.94.94 0 0 1 .97-.9Zm-.89 14.16v-10.18c-3.95.08-6.56 2.24-6.56 4.92s1.3 4.1 6.56 5.26Zm1.79 2.27v10.28c4.07-.07 6.72-2.23 6.72-5.07 0-2.57-1.43-4.13-6.72-5.21Z" style="fill:#dbdbdb"/><path d="M169.3 43c-37.64 0-37.7 53.52 0 53.52S207 43 169.3 43Z" style="fill:#ebebeb"/><path d="M192.19 74.81c-2 9.2-9.65 17.19-22.9 17.19-31.28 0-31.23-44.42 0-44.42h.62c-29.4.54-29.26 42.61.57 42.61 12.17.01 19.42-7.03 21.71-15.38Z" style="fill:#dbdbdb"/><path d="M169.52 53.43a1 1 0 0 1 1 .9v1.49a14 14 0 0 1 7.25 2.61c.36.26.57.48.57.85a1 1 0 0 1-1.06.93 1 1 0 0 1-.74-.26 12.21 12.21 0 0 0-6.1-2.42V68c6.19 1.2 8.79 3.32 8.79 7 0 3.95-3.62 6.75-8.71 6.9v2.9a1 1 0 0 1-2 0v-3.01a16 16 0 0 1-9.16-3.62 1 1 0 0 1-.45-.78 1 1 0 0 1 1-.93 1.07 1.07 0 0 1 .73.26 13.72 13.72 0 0 0 7.95 3.39V69.49c-6.11-1.23-8.64-3.28-8.64-7s3.59-6.63 8.55-6.75v-1.41a1 1 0 0 1 1.02-.9Zm-.89 14.16V57.42c-3.95.07-6.56 2.24-6.56 4.92 0 2.53 1.3 4.1 6.56 5.25Zm1.79 2.27v10.29c4.07-.08 6.72-2.24 6.72-5.07 0-2.57-1.43-4.08-6.72-5.22ZM98.52 131.33c-33.9 6.08-24.94 56.29 9 50.2s24.94-56.29-9-50.2Z" style="fill:#dbdbdb"/><path d="M101.7 130.76c-32.3 5.8-23.35 56 9 50.2s23.35-55.96-9-50.2Z" style="fill:#ebebeb"/><path d="M126.69 157c-.18 9-5.38 17.61-16.75 19.65-26.85 4.82-34.29-36.85-7.48-41.66l.53-.09c-25.14 5-17.93 44.47 7.66 39.88 10.45-1.84 15.48-9.56 16.04-17.78Z" style="fill:#dbdbdb"/><path d="M103.64 140.49a.85.85 0 0 1 1 .68l.25 1.4a11.58 11.58 0 0 1 6.66 1.33c.36.19.57.37.63.72a.9.9 0 0 1-.75 1 .83.83 0 0 1-.67-.13 10.19 10.19 0 0 0-5.65-1.33l1.76 9.79c5.51.16 8.1 1.75 8.72 5.18.66 3.7-2 6.88-6.32 7.8l.49 2.73a.85.85 0 0 1-1.68.3l-.5-2.76a13.34 13.34 0 0 1-8.47-2 .89.89 0 0 1 .2-1.69.88.88 0 0 1 .68.13 11.49 11.49 0 0 0 7.38 1.95l-1.78-10c-5.45-.21-8-1.74-8.59-5.23s2-6.78 6.2-7.65l-.24-1.32a.87.87 0 0 1 .68-.9Zm1.62 13.41-1.72-9.54c-3.37.68-5.25 3.11-4.79 5.63.42 2.37 1.8 3.64 6.51 3.91Zm1.92 1.86 1.73 9.64c3.48-.69 5.39-3.13 4.91-5.78-.43-2.41-1.92-3.62-6.64-3.86ZM321.25 220.72c-29 5.21-21.37 48.23 7.71 43s21.37-48.22-7.71-43Z" style="fill:#dbdbdb"/><path d="M324 220.23c-27.67 5-20 48 7.72 43s19.97-47.97-7.72-43Z" style="fill:#ebebeb"/><path d="M345.38 242.75c-.15 7.66-4.61 15.09-14.35 16.83-23 4.13-29.37-31.57-6.41-35.69l.46-.07c-21.54 4.31-15.37 38.09 6.56 34.16 8.95-1.61 13.26-8.22 13.74-15.23Z" style="fill:#dbdbdb"/><path d="M329.49 228.55a.73.73 0 0 1 .64.81l-.14 1.21a9.84 9.84 0 0 1 5.13 2.74.84.84 0 0 1 .34.75.78.78 0 0 1-.87.66.74.74 0 0 1-.52-.28 8.67 8.67 0 0 0-4.3-2.49l-1 8.46c4.48 1.5 6.21 3.45 5.86 6.41-.37 3.2-3.33 5.15-7.12 4.83l-.28 2.36a.74.74 0 0 1-.81.64.75.75 0 0 1-.64-.81l.29-2.39a11.43 11.43 0 0 1-6.46-3.73.76.76 0 0 1-.25-.67.77.77 0 0 1 1.36-.39 9.84 9.84 0 0 0 5.57 3.44l1-8.61c-4.42-1.53-6.09-3.41-5.74-6.43s3.29-5.07 7-4.72l.13-1.15a.74.74 0 0 1 .81-.64Zm-2 11.4 1-8.25c-2.94-.28-5.08 1.24-5.33 3.42s.53 3.43 4.32 4.88Zm1.11 2-1 8.33c3 .3 5.2-1.22 5.47-3.52.25-2.08-.65-3.48-4.48-4.76Z" style="fill:#dbdbdb"/><path d="M223.37 363.64c-5.41 7.64-4.31 31-7.58 34.24s-36.83 2.93-39.09 1-1.19-10.16-3.73-11.52c-.97-.53 50.4-23.72 50.4-23.72ZM80.09 364c6.76 9.75 3.11 30.59 6.38 33.86s36.83 2.93 39.09 1 1.22-10.61 2.56-12.26c.71-.86-48.03-22.6-48.03-22.6Z" style="fill:#ebebeb"/><path d="M173 387.36a3.7 3.7 0 0 1 1.44 2.49 159.34 159.34 0 0 0 44.94-12.09c.77-5.68 1.89-11.11 4-14.11-.02 0-51.38 23.18-50.38 23.71ZM80.09 364c2.52 3.64 3.6 8.83 4.12 14.06A152.44 152.44 0 0 0 127.37 390a7.43 7.43 0 0 1 .75-3.38c.71-.88-48.03-22.62-48.03-22.62Z" style="fill:#dbdbdb"/><path d="M154 222.61c67.5 0 93.33 52.83 93.33 83.75 0 30.51-19.62 82.36-93.33 82.36s-98.17-43.93-98.17-83.06 29.96-83.05 98.17-83.05Z" style="fill:#ebebeb"/><path d="M134.93 226.42s-30.82-23.64-64.21-20.82c-11.5 1 7.59 25.88 7.94 45.34Z" style="fill:#ebebeb"/><path d="M91.53 241.41c.2 1.23-10.44 5.79-11.54 5.09s-2.21-16-10.89-32.36c-1.28-2.4 20.38 14.1 22.43 27.27Z" style="fill:#dbdbdb"/><path d="M229.58 272.53c-.4-2.08-.65-3.95-.85-5.94a56.15 56.15 0 0 1-.3-6 34.23 34.23 0 0 1 .54-6.21 15 15 0 0 1 2.77-6.54 8.59 8.59 0 0 1 3.38-2.56 8.1 8.1 0 0 1 2-.56 9.94 9.94 0 0 1 2-.09 11.78 11.78 0 0 1 6.61 2.66 18.28 18.28 0 0 1 4.23 4.84 16.93 16.93 0 0 1 2.32 6A7.31 7.31 0 0 1 252 262a4.19 4.19 0 0 1-1.53 1.94 4.46 4.46 0 0 1-2.22.73 4.09 4.09 0 0 1-2.33-.56 4.88 4.88 0 0 1-1.51-1.49 8.72 8.72 0 0 1-1.18-3.19 17.59 17.59 0 0 1 .06-6.06 14.22 14.22 0 0 1 2.14-5.62 6.69 6.69 0 0 1 2.33-2.18 4.94 4.94 0 0 1 3.18-.53 9.61 9.61 0 0 1 5.07 3 32.13 32.13 0 0 1 6 9.52 31.69 31.69 0 0 0-6.6-8.86 8.32 8.32 0 0 0-4.61-2.27 3.93 3.93 0 0 0-3.74 2.37 12.2 12.2 0 0 0-1.33 4.92 14.76 14.76 0 0 0 .43 5.08 5.5 5.5 0 0 0 .92 2 1.53 1.53 0 0 0 .51.42.58.58 0 0 0 .37 0c.17 0 .37-.13.38-.19a.58.58 0 0 0 .11-.28 3.84 3.84 0 0 0-.12-1.72 14 14 0 0 0-5.57-7.46 6.37 6.37 0 0 0-3.73-1.16 3.69 3.69 0 0 0-.82.13 2.51 2.51 0 0 0-.64.25 2.74 2.74 0 0 0-.94.92 9.21 9.21 0 0 0-1.11 3.83 27.38 27.38 0 0 0 0 5 51.67 51.67 0 0 0 .7 5.17c.32 1.71.73 3.51 1.17 5.07Z" style="fill:#ebebeb"/><path d="M81 288c.1-.21.4.38.34.62-1.48 5.78-2.2 12.65 2.64 15.75.15.09.07.38-.12.31-6.2-2.31-5.15-11.42-2.86-16.68Z" style="fill:#dbdbdb"/><path d="M87.58 283.1c9.52 1.36 6.09 20.3-2.73 19s-5.25-20.1 2.73-19Z" style="fill:#dbdbdb"/><path d="M62.13 275.15c-1.47 4.43-14.86.84-18.23 3.64-5.31 4.41-3.84 59.09 1 63.49 2.73 2.47 17.91-.13 22.17 2.87s-4.94-70-4.94-70Z" style="fill:#ebebeb"/><ellipse cx="45.67" cy="309.21" rx="2.49" ry="24.12" style="fill:#dbdbdb"/><path d="M180.14 240.13c-.22-.08-23-7.48-44.15-1.69l-2.11-7.71c23.56-6.45 47.77 1.47 48.79 1.81l-2.53 7.59 1.27-3.8Z" style="fill:#dbdbdb"/><path d="M211.73 356.23c30.41-34.94 11.81-75.51 11-77.25a5 5 0 0 1 9-4.4 84.56 84.56 0 0 1 7.17 29.13c1.46 22.21-5.89 42.62-23.28 56.51-5.31 4.18-7.79.5-3.89-3.99ZM225 263.48a5.44 5.44 0 1 1-5.44-5.44 5.44 5.44 0 0 1 5.44 5.44Z" style="fill:#fff"/><ellipse cx="260.27" cy="456.17" rx="129" ry="18.56" style="fill:#ebebeb"/><path d="M184.62 439.26c0 7.28-30.84 13.19-68.88 13.19s-68.88-5.91-68.88-13.19 30.84-13.19 68.88-13.19 68.88 5.93 68.88 13.19Z" style="fill:#ebebeb"/><path d="M350.26 303.1h29.98v97.7h-29.98z" style="fill:#407bff"/><path d="M373.37 303.1h6.86v97.7h-6.86z" style="opacity:.1"/><path d="M389.75 271.31h29.98v129.48h-29.98z" style="fill:#407bff"/><path d="M412.87 271.31h6.86v129.48h-6.86z" style="opacity:.1"/><path d="M310.85 322.04h29.98v78.76h-29.98z" style="fill:#407bff"/><path d="M333.96 322.04h6.86v78.76h-6.86z" style="opacity:.1"/><path d="M429.25 228.99h29.98v171.8h-29.98z" style="fill:#407bff"/><path d="M452.36 228.99h6.86v171.8h-6.86z" style="opacity:.1"/><path d="M310.85 349.93v-15.15s102-8.69 143.24-121.71h4.37S430.81 330 310.85 349.93Z" style="fill:#c7c7c7"/><path d="m462.01 217.93-12.89-4.27 10.68-10.64 2.21 14.91z" style="fill:#c7c7c7"/><path d="m23.61 400.79 56.6-.24 56.6-.09L250 400.3l113.19.16 56.6.09 56.6.24-56.6.25-56.6.09-113.19.16-113.19-.16-56.6-.09-56.6-.25z" style="fill:#263238"/><path d="M286.87 442.69h62.98v13.92h-62.98z" style="fill:#407bff"/><g style="opacity:.1"><path d="M289.47 444a31.22 31.22 0 0 1 0 11.13 31.22 31.22 0 0 1 0-11.13ZM294.16 444a31.22 31.22 0 0 1 0 11.13 31.22 31.22 0 0 1 0-11.13ZM296.45 444a31.22 31.22 0 0 1 0 11.13 26.91 26.91 0 0 1-.5-5.57 27.52 27.52 0 0 1 .5-5.56ZM309 444a31.22 31.22 0 0 1 0 11.13 31.22 31.22 0 0 1 0-11.13ZM312.43 444a28.26 28.26 0 0 1 .5 5.56 27.61 27.61 0 0 1-.5 5.57 26.91 26.91 0 0 1-.5-5.57 27.52 27.52 0 0 1 .5-5.56ZM326.5 444a28.26 28.26 0 0 1 .5 5.56 27.61 27.61 0 0 1-.5 5.57 26.91 26.91 0 0 1-.5-5.57 28.26 28.26 0 0 1 .5-5.56ZM329.75 444a28.26 28.26 0 0 1 .5 5.56 26.91 26.91 0 0 1-.5 5.57 27.61 27.61 0 0 1-.5-5.57 28.26 28.26 0 0 1 .5-5.56ZM335.72 444a28.26 28.26 0 0 1 .5 5.56 27.61 27.61 0 0 1-.5 5.57 26.91 26.91 0 0 1-.5-5.57 28.26 28.26 0 0 1 .5-5.56ZM323.78 444a27.52 27.52 0 0 1 .5 5.56 26.91 26.91 0 0 1-.5 5.57 27.61 27.61 0 0 1-.5-5.57 28.26 28.26 0 0 1 .5-5.56ZM300.61 444a31.85 31.85 0 0 1 0 11.13 31.22 31.22 0 0 1 0-11.13ZM316.91 444a31.22 31.22 0 0 1 0 11.13 31.22 31.22 0 0 1 0-11.13ZM319.25 444a27.52 27.52 0 0 1 .5 5.56 26.91 26.91 0 0 1-.5 5.57 27.61 27.61 0 0 1-.5-5.57 28.26 28.26 0 0 1 .5-5.56ZM343.5 444a27.52 27.52 0 0 1 .5 5.56 26.91 26.91 0 0 1-.5 5.57 27.61 27.61 0 0 1-.5-5.57 28.26 28.26 0 0 1 .5-5.56ZM347 444a28.26 28.26 0 0 1 .5 5.56 27.61 27.61 0 0 1-.5 5.57 26.91 26.91 0 0 1-.5-5.57 27.52 27.52 0 0 1 .5-5.56ZM338.49 444a27.52 27.52 0 0 1 .5 5.56 26.91 26.91 0 0 1-.5 5.57 27.61 27.61 0 0 1-.5-5.57 28.26 28.26 0 0 1 .5-5.56ZM306.31 444a31.22 31.22 0 0 1 0 11.13 26.91 26.91 0 0 1-.5-5.57 27.52 27.52 0 0 1 .5-5.56Z"/></g><path d="M349.85 442.69v2.96l-62.98 1.98v-4.94h62.98z" style="opacity:.1"/><path d="M281.62 428.78h62.98v13.92h-62.98z" style="fill:#407bff"/><g style="opacity:.1"><path d="M341.76 441.19a31.27 31.27 0 0 1 0-11.14 31.27 31.27 0 0 1 0 11.14ZM337.07 441.19a31.27 31.27 0 0 1 0-11.14 31.27 31.27 0 0 1 0 11.14ZM334.78 441.19a28.43 28.43 0 0 1-.5-5.57 27.61 27.61 0 0 1 .5-5.57 26.91 26.91 0 0 1 .5 5.57 27.68 27.68 0 0 1-.5 5.57ZM322.2 441.19a31.27 31.27 0 0 1 0-11.14 31.27 31.27 0 0 1 0 11.14ZM318.8 441.19a28.43 28.43 0 0 1-.5-5.57 27.61 27.61 0 0 1 .5-5.57 26.91 26.91 0 0 1 .5 5.57 28.43 28.43 0 0 1-.5 5.57ZM304.73 441.19a28.43 28.43 0 0 1-.5-5.57 26.91 26.91 0 0 1 .5-5.57 26.91 26.91 0 0 1 .5 5.57 28.43 28.43 0 0 1-.5 5.57ZM301.48 441.19a27.68 27.68 0 0 1-.5-5.57 26.91 26.91 0 0 1 .5-5.57 27.61 27.61 0 0 1 .5 5.57 28.43 28.43 0 0 1-.5 5.57ZM295.51 441.19a28.43 28.43 0 0 1-.5-5.57 26.91 26.91 0 0 1 .5-5.57 27.61 27.61 0 0 1 .5 5.57 28.43 28.43 0 0 1-.5 5.57ZM307.45 441.19a27.68 27.68 0 0 1-.5-5.57 26.91 26.91 0 0 1 .5-5.57 31.27 31.27 0 0 1 0 11.14ZM330.62 441.19a31.27 31.27 0 0 1 0-11.14 31.27 31.27 0 0 1 0 11.14ZM314.32 441.19a31.27 31.27 0 0 1 0-11.14 31.27 31.27 0 0 1 0 11.14ZM312 441.19a27.68 27.68 0 0 1-.5-5.57 26.91 26.91 0 0 1 .5-5.57 31.27 31.27 0 0 1 0 11.14ZM287.73 441.19a27.68 27.68 0 0 1-.5-5.57 26.91 26.91 0 0 1 .5-5.57 31.27 31.27 0 0 1 0 11.14ZM284.21 441.19a28.43 28.43 0 0 1-.5-5.57 27.61 27.61 0 0 1 .5-5.57 26.91 26.91 0 0 1 .5 5.57 27.68 27.68 0 0 1-.5 5.57ZM292.74 441.19a27.68 27.68 0 0 1-.5-5.57 26.91 26.91 0 0 1 .5-5.57 31.27 31.27 0 0 1 0 11.14ZM324.92 441.19a28.43 28.43 0 0 1-.5-5.57 27.61 27.61 0 0 1 .5-5.57 26.91 26.91 0 0 1 .5 5.57 27.68 27.68 0 0 1-.5 5.57Z"/></g><path d="M344.59 428.78v2.95l-62.98 1.99v-4.94h62.98z" style="opacity:.1"/><path d="M286.47 414.97h62.98v13.92h-62.98z" style="fill:#407bff"/><g style="opacity:.1"><path d="M289.06 416.25a31.22 31.22 0 0 1 0 11.13 31.22 31.22 0 0 1 0-11.13ZM293.75 416.25a31.22 31.22 0 0 1 0 11.13 31.22 31.22 0 0 1 0-11.13ZM296.05 416.25a31.85 31.85 0 0 1 0 11.13 31.22 31.22 0 0 1 0-11.13ZM308.62 416.25a31.22 31.22 0 0 1 0 11.13 31.22 31.22 0 0 1 0-11.13ZM312 416.25a31.22 31.22 0 0 1 0 11.13 31.22 31.22 0 0 1 0-11.13ZM326.1 416.25a31.22 31.22 0 0 1 0 11.13 31.22 31.22 0 0 1 0-11.13ZM329.35 416.25a31.22 31.22 0 0 1 0 11.13 31.22 31.22 0 0 1 0-11.13ZM335.32 416.25a31.22 31.22 0 0 1 0 11.13 31.22 31.22 0 0 1 0-11.13ZM323.38 416.25a31.22 31.22 0 0 1 0 11.13 26.82 26.82 0 0 1-.5-5.56 27.55 27.55 0 0 1 .5-5.57ZM300.2 416.25a27.55 27.55 0 0 1 .5 5.57 26.82 26.82 0 0 1-.5 5.56 31.22 31.22 0 0 1 0-11.13ZM316.5 416.25a31.22 31.22 0 0 1 0 11.13 31.22 31.22 0 0 1 0-11.13ZM318.85 416.25a31.22 31.22 0 0 1 0 11.13 26.82 26.82 0 0 1-.5-5.56 27.55 27.55 0 0 1 .5-5.57ZM343.1 416.25a31.22 31.22 0 0 1 0 11.13 31.22 31.22 0 0 1 0-11.13ZM346.62 416.25a31.22 31.22 0 0 1 0 11.13 31.22 31.22 0 0 1 0-11.13ZM338.09 416.25a31.22 31.22 0 0 1 0 11.13 26.82 26.82 0 0 1-.5-5.56 27.55 27.55 0 0 1 .5-5.57ZM305.9 416.25a31.22 31.22 0 0 1 0 11.13 31.85 31.85 0 0 1 0-11.13Z"/></g><path d="M349.44 414.97v2.96l-62.97 1.99v-4.95h62.97z" style="opacity:.1"/><path d="M99.22 425.61h62.98v13.92H99.22z" style="fill:#407bff"/><g style="opacity:.1"><path d="M101.82 426.88a31.27 31.27 0 0 1 0 11.14 31.27 31.27 0 0 1 0-11.14ZM106.51 426.88a31.27 31.27 0 0 1 0 11.14 31.27 31.27 0 0 1 0-11.14ZM108.8 426.88a31.27 31.27 0 0 1 0 11.14 31.27 31.27 0 0 1 0-11.14ZM121.38 426.88a31.9 31.9 0 0 1 0 11.14 31.27 31.27 0 0 1 0-11.14ZM124.78 426.88a31.27 31.27 0 0 1 0 11.14 26.91 26.91 0 0 1-.5-5.57 27.68 27.68 0 0 1 .5-5.57ZM138.85 426.88a31.27 31.27 0 0 1 0 11.14 26.91 26.91 0 0 1-.5-5.57 27.68 27.68 0 0 1 .5-5.57ZM142.1 426.88a28.43 28.43 0 0 1 .5 5.57 27.61 27.61 0 0 1-.5 5.57 26.91 26.91 0 0 1-.5-5.57 28.43 28.43 0 0 1 .5-5.57ZM148.07 426.88a28.43 28.43 0 0 1 .5 5.57 27.61 27.61 0 0 1-.5 5.57 26.91 26.91 0 0 1-.5-5.57 27.68 27.68 0 0 1 .5-5.57ZM136.13 426.88a28.43 28.43 0 0 1 .5 5.57 26.91 26.91 0 0 1-.5 5.57 27.61 27.61 0 0 1-.5-5.57 28.43 28.43 0 0 1 .5-5.57ZM113 426.88a31.27 31.27 0 0 1 0 11.12 31.27 31.27 0 0 1 0-11.14ZM129.26 426.88a31.9 31.9 0 0 1 0 11.14 31.27 31.27 0 0 1 0-11.14ZM131.6 426.88a28.43 28.43 0 0 1 .5 5.57 26.91 26.91 0 0 1-.5 5.57 27.61 27.61 0 0 1-.5-5.57 28.43 28.43 0 0 1 .5-5.57ZM155.85 426.88a28.43 28.43 0 0 1 .5 5.57 26.91 26.91 0 0 1-.5 5.57 26.91 26.91 0 0 1-.5-5.57 28.43 28.43 0 0 1 .5-5.57ZM159.37 426.88a31.27 31.27 0 0 1 0 11.14 31.27 31.27 0 0 1 0-11.14ZM150.84 426.88a28.43 28.43 0 0 1 .5 5.57 26.91 26.91 0 0 1-.5 5.57 27.61 27.61 0 0 1-.5-5.57 28.43 28.43 0 0 1 .5-5.57ZM118.66 426.88a31.27 31.27 0 0 1 0 11.14 31.27 31.27 0 0 1 0-11.14Z"/></g><path d="M162.19 425.61v2.96l-62.97 1.98v-4.94h62.97z" style="opacity:.1"/><path d="M94.91 411.69h62.98v13.92H94.91z" style="fill:#407bff"/><g style="opacity:.1"><path d="M97.51 413a31.22 31.22 0 0 1 0 11.13 26.82 26.82 0 0 1-.5-5.56 27.55 27.55 0 0 1 .5-5.57ZM102.2 413a31.22 31.22 0 0 1 0 11.13 26.82 26.82 0 0 1-.5-5.56 27.55 27.55 0 0 1 .5-5.57ZM104.49 413a28.29 28.29 0 0 1 .5 5.57 26.82 26.82 0 0 1-.5 5.56 26.82 26.82 0 0 1-.5-5.56 28.29 28.29 0 0 1 .5-5.57ZM117.07 413a31.22 31.22 0 0 1 0 11.13 31.22 31.22 0 0 1 0-11.13ZM120.47 413a27.55 27.55 0 0 1 .5 5.57 26.82 26.82 0 0 1-.5 5.56 27.52 27.52 0 0 1-.5-5.56 28.29 28.29 0 0 1 .5-5.57ZM134.54 413a27.55 27.55 0 0 1 .5 5.57 26.82 26.82 0 0 1-.5 5.56 27.52 27.52 0 0 1-.5-5.56 28.29 28.29 0 0 1 .5-5.57ZM137.79 413a31.22 31.22 0 0 1 0 11.13 31.22 31.22 0 0 1 0-11.13ZM143.76 413a27.55 27.55 0 0 1 .5 5.57 26.82 26.82 0 0 1-.5 5.56 31.22 31.22 0 0 1 0-11.13ZM131.82 413a31.22 31.22 0 0 1 0 11.13 31.22 31.22 0 0 1 0-11.13ZM108.65 413a31.22 31.22 0 0 1 0 11.13 31.22 31.22 0 0 1 0-11.13ZM125 413a31.22 31.22 0 0 1 0 11.13 26.82 26.82 0 0 1-.5-5.56 27.55 27.55 0 0 1 .5-5.57ZM127.29 413a31.22 31.22 0 0 1 0 11.13 31.22 31.22 0 0 1 0-11.13ZM151.54 413a31.22 31.22 0 0 1 0 11.13 31.22 31.22 0 0 1 0-11.13ZM155.06 413a28.29 28.29 0 0 1 .5 5.57 26.82 26.82 0 0 1-.5 5.56 27.52 27.52 0 0 1-.5-5.56 28.29 28.29 0 0 1 .5-5.57ZM146.53 413a31.22 31.22 0 0 1 0 11.13 31.22 31.22 0 0 1 0-11.13ZM114.35 413a28.29 28.29 0 0 1 .5 5.57 27.52 27.52 0 0 1-.5 5.56 26.82 26.82 0 0 1-.5-5.56 28.29 28.29 0 0 1 .5-5.57Z"/></g><path d="M157.89 411.69v2.96l-62.98 1.99v-4.95h62.98z" style="opacity:.1"/><path d="M104.64 383.98h62.98v13.92h-62.98z" style="fill:#407bff"/><g style="opacity:.1"><path d="M107.24 385.25a31.22 31.22 0 0 1 0 11.13 31.22 31.22 0 0 1 0-11.13ZM111.93 385.25a31.22 31.22 0 0 1 0 11.13 31.22 31.22 0 0 1 0-11.13ZM114.22 385.25a28.36 28.36 0 0 1 .5 5.57 27.52 27.52 0 0 1-.5 5.56 26.82 26.82 0 0 1-.5-5.56 28.36 28.36 0 0 1 .5-5.57ZM126.8 385.25a31.22 31.22 0 0 1 0 11.13 31.22 31.22 0 0 1 0-11.13ZM130.2 385.25a28.36 28.36 0 0 1 .5 5.57 26.82 26.82 0 0 1-.5 5.56 27.52 27.52 0 0 1-.5-5.56 28.36 28.36 0 0 1 .5-5.57ZM144.27 385.25a27.61 27.61 0 0 1 .5 5.57 26.82 26.82 0 0 1-.5 5.56 27.52 27.52 0 0 1-.5-5.56 28.36 28.36 0 0 1 .5-5.57ZM147.52 385.25a27.61 27.61 0 0 1 .5 5.57 26.82 26.82 0 0 1-.5 5.56 31.22 31.22 0 0 1 0-11.13ZM153.49 385.25a27.61 27.61 0 0 1 .5 5.57 26.82 26.82 0 0 1-.5 5.56 27.52 27.52 0 0 1-.5-5.56 28.36 28.36 0 0 1 .5-5.57ZM141.55 385.25a31.22 31.22 0 0 1 0 11.13 31.22 31.22 0 0 1 0-11.13ZM118.38 385.25a31.22 31.22 0 0 1 0 11.13 31.22 31.22 0 0 1 0-11.13ZM134.68 385.25a31.22 31.22 0 0 1 0 11.13 31.22 31.22 0 0 1 0-11.13ZM137 385.25a31.22 31.22 0 0 1 0 11.13 31.22 31.22 0 0 1 0-11.13ZM161.27 385.25a31.22 31.22 0 0 1 0 11.13 31.22 31.22 0 0 1 0-11.13ZM164.79 385.25a28.36 28.36 0 0 1 .5 5.57 26.82 26.82 0 0 1-.5 5.56 26.82 26.82 0 0 1-.5-5.56 28.36 28.36 0 0 1 .5-5.57ZM156.26 385.25a31.22 31.22 0 0 1 0 11.13 31.22 31.22 0 0 1 0-11.13ZM124.08 385.25a28.36 28.36 0 0 1 .5 5.57 27.52 27.52 0 0 1-.5 5.56 26.82 26.82 0 0 1-.5-5.56 27.61 27.61 0 0 1 .5-5.57Z"/></g><path d="M167.62 383.98v2.95l-62.98 1.99v-4.94h62.98z" style="opacity:.1"/><path d="M103.05 370.06h62.98v13.92h-62.98z" style="fill:#407bff"/><g style="opacity:.1"><path d="M163.2 382.47a28.36 28.36 0 0 1-.5-5.57 27 27 0 0 1 .5-5.57 27 27 0 0 1 .5 5.57 28.36 28.36 0 0 1-.5 5.57ZM158.51 382.47a28.36 28.36 0 0 1-.5-5.57 27 27 0 0 1 .5-5.57 27 27 0 0 1 .5 5.57 28.36 28.36 0 0 1-.5 5.57ZM156.22 382.47a27.61 27.61 0 0 1-.5-5.57 27 27 0 0 1 .5-5.57 31.27 31.27 0 0 1 0 11.14ZM143.64 382.47a28.36 28.36 0 0 1-.5-5.57 27.68 27.68 0 0 1 .5-5.57 27 27 0 0 1 .5 5.57 28.36 28.36 0 0 1-.5 5.57ZM140.24 382.47a31.27 31.27 0 0 1 0-11.14 31.27 31.27 0 0 1 0 11.14ZM126.17 382.47a31.27 31.27 0 0 1 0-11.14 31.27 31.27 0 0 1 0 11.14ZM122.92 382.47a31.27 31.27 0 0 1 0-11.14 31.27 31.27 0 0 1 0 11.14ZM117 382.47a31.27 31.27 0 0 1 0-11.14 31.27 31.27 0 0 1 0 11.14ZM128.89 382.47a31.27 31.27 0 0 1 0-11.14 31.9 31.9 0 0 1 0 11.14ZM152.06 382.47a28.36 28.36 0 0 1-.5-5.57 27.68 27.68 0 0 1 .5-5.57 27 27 0 0 1 .5 5.57 27.61 27.61 0 0 1-.5 5.57ZM135.76 382.47a28.36 28.36 0 0 1-.5-5.57 27.68 27.68 0 0 1 .5-5.57 27 27 0 0 1 .5 5.57 28.36 28.36 0 0 1-.5 5.57ZM133.42 382.47a31.27 31.27 0 0 1 0-11.14 31.9 31.9 0 0 1 0 11.14ZM109.17 382.47a31.27 31.27 0 0 1 0-11.14 31.27 31.27 0 0 1 0 11.14ZM105.65 382.47a31.27 31.27 0 0 1 0-11.14 31.27 31.27 0 0 1 0 11.14ZM114.18 382.47a31.27 31.27 0 0 1 0-11.14 31.9 31.9 0 0 1 0 11.14ZM146.36 382.47a27.61 27.61 0 0 1-.5-5.57 27 27 0 0 1 .5-5.57 31.27 31.27 0 0 1 0 11.14Z"/></g><path d="M166.03 370.06v2.96L103.05 375v-4.94h62.98z" style="opacity:.1"/><path d="M99.22 356.14h62.98v13.92H99.22z" style="fill:#407bff"/><g style="opacity:.1"><path d="M101.82 357.42a31.22 31.22 0 0 1 0 11.13 31.22 31.22 0 0 1 0-11.13ZM106.51 357.42a31.22 31.22 0 0 1 0 11.13 31.22 31.22 0 0 1 0-11.13ZM108.8 357.42a28.29 28.29 0 0 1 .5 5.57 27.52 27.52 0 0 1-.5 5.56 26.82 26.82 0 0 1-.5-5.56 27.55 27.55 0 0 1 .5-5.57ZM121.38 357.42a31.22 31.22 0 0 1 0 11.13 31.22 31.22 0 0 1 0-11.13ZM124.78 357.42a28.29 28.29 0 0 1 .5 5.57 27.52 27.52 0 0 1-.5 5.56 26.82 26.82 0 0 1-.5-5.56 28.29 28.29 0 0 1 .5-5.57ZM138.85 357.42a28.29 28.29 0 0 1 .5 5.57 27.52 27.52 0 0 1-.5 5.56 26.82 26.82 0 0 1-.5-5.56 28.29 28.29 0 0 1 .5-5.57ZM142.1 357.42a27.55 27.55 0 0 1 .5 5.57 26.82 26.82 0 0 1-.5 5.56 27.52 27.52 0 0 1-.5-5.56 28.29 28.29 0 0 1 .5-5.57ZM148.07 357.42a28.29 28.29 0 0 1 .5 5.57 26.82 26.82 0 0 1-.5 5.56 27.52 27.52 0 0 1-.5-5.56 28.29 28.29 0 0 1 .5-5.57ZM136.13 357.42a27.55 27.55 0 0 1 .5 5.57 26.82 26.82 0 0 1-.5 5.56 31.22 31.22 0 0 1 0-11.13ZM113 357.42a31.22 31.22 0 0 1 0 11.13 31.22 31.22 0 0 1 0-11.13ZM129.26 357.42a31.22 31.22 0 0 1 0 11.13 31.22 31.22 0 0 1 0-11.13ZM131.6 357.42a27.55 27.55 0 0 1 .5 5.57 26.82 26.82 0 0 1-.5 5.56 31.22 31.22 0 0 1 0-11.13ZM155.85 357.42a27.55 27.55 0 0 1 .5 5.57 26.82 26.82 0 0 1-.5 5.56 27.52 27.52 0 0 1-.5-5.56 28.29 28.29 0 0 1 .5-5.57ZM159.37 357.42a28.29 28.29 0 0 1 .5 5.57 27.52 27.52 0 0 1-.5 5.56 26.82 26.82 0 0 1-.5-5.56 27.55 27.55 0 0 1 .5-5.57ZM150.84 357.42a27.55 27.55 0 0 1 .5 5.57 26.82 26.82 0 0 1-.5 5.56 31.22 31.22 0 0 1 0-11.13ZM118.66 357.42a31.22 31.22 0 0 1 0 11.13 26.82 26.82 0 0 1-.5-5.56 27.55 27.55 0 0 1 .5-5.57Z"/></g><path d="M162.2 356.14v2.96l-62.98 1.99v-4.95h62.98z" style="opacity:.1"/><path d="M99.22 397.89h62.98v13.92H99.22z" style="fill:#407bff"/><g style="opacity:.1"><path d="M159.37 410.3a27.55 27.55 0 0 1-.5-5.57 26.82 26.82 0 0 1 .5-5.56 31.22 31.22 0 0 1 0 11.13ZM154.68 410.3a27.55 27.55 0 0 1-.5-5.57 26.82 26.82 0 0 1 .5-5.56 31.22 31.22 0 0 1 0 11.13ZM152.39 410.3a31.22 31.22 0 0 1 0-11.13 31.22 31.22 0 0 1 0 11.13ZM139.81 410.3a27.55 27.55 0 0 1-.5-5.57 26.82 26.82 0 0 1 .5-5.56 27.52 27.52 0 0 1 .5 5.56 28.29 28.29 0 0 1-.5 5.57ZM136.41 410.3a31.22 31.22 0 0 1 0-11.13 31.22 31.22 0 0 1 0 11.13ZM122.34 410.3a31.22 31.22 0 0 1 0-11.13 31.85 31.85 0 0 1 0 11.13ZM119.08 410.3a31.22 31.22 0 0 1 0-11.13 31.22 31.22 0 0 1 0 11.13ZM113.11 410.3a31.85 31.85 0 0 1 0-11.13 31.22 31.22 0 0 1 0 11.13ZM125.05 410.3a31.22 31.22 0 0 1 0-11.13 31.22 31.22 0 0 1 0 11.13ZM148.23 410.3a27.55 27.55 0 0 1-.5-5.57 26.82 26.82 0 0 1 .5-5.56 27.52 27.52 0 0 1 .5 5.56 28.29 28.29 0 0 1-.5 5.57ZM131.93 410.3a27.55 27.55 0 0 1-.5-5.57 26.82 26.82 0 0 1 .5-5.56 27.52 27.52 0 0 1 .5 5.56 28.29 28.29 0 0 1-.5 5.57ZM129.58 410.3a31.22 31.22 0 0 1 0-11.13 31.22 31.22 0 0 1 0 11.13ZM105.33 410.3a31.22 31.22 0 0 1 0-11.13 31.22 31.22 0 0 1 0 11.13ZM101.82 410.3a31.22 31.22 0 0 1 0-11.13 31.22 31.22 0 0 1 0 11.13ZM110.34 410.3a31.22 31.22 0 0 1 0-11.13 31.22 31.22 0 0 1 0 11.13ZM142.53 410.3a31.22 31.22 0 0 1 0-11.13 31.22 31.22 0 0 1 0 11.13Z"/></g><path d="M162.2 397.89v2.96l-62.98 1.99v-4.95h62.98z" style="opacity:.1"/><path d="M94.92 386c41.45 7.44 30.51 68.85-11 61.4s-30.53-68.88 11-61.4Z" style="fill:#407bff"/><path d="M94.92 386c41.45 7.44 30.51 68.85-11 61.4s-30.53-68.88 11-61.4Z" style="opacity:.1"/><path d="M91 385.27c39.51 7.09 28.55 68.5-11 61.4s-28.55-68.5 11-61.4Z" style="fill:#407bff"/><path d="M60.46 417.41C60.67 428.36 67 439 81 441.45c32.84 5.89 41.93-45.08 9.14-51-.21 0-.43-.08-.64-.1 30.74 6.15 21.93 54.39-9.38 48.77-12.82-2.25-18.98-11.7-19.66-21.71Z" style="opacity:.1"/><path d="M88.93 396.86a1 1 0 0 1 .76 1.26l-.42 1.69a14.16 14.16 0 0 1 6.73 4.82 1.19 1.19 0 0 1 .34 1.11 1.11 1.11 0 0 1-1.36.78 1 1 0 0 1-.68-.48 12.36 12.36 0 0 0-5.64-4.32l-2.94 11.8c6.07 3 8.17 6 7.13 10.15-1.11 4.47-5.65 6.69-11 5.55l-.82 3.28a1 1 0 1 1-2-.5l.83-3.33a16.3 16.3 0 0 1-8.46-6.45 1.09 1.09 0 0 1 1.07-1.79 1.1 1.1 0 0 1 .69.48 14.05 14.05 0 0 0 7.26 5.89l3-12c-6-3-8-5.94-7-10.15s5.58-6.58 10.75-5.42l.4-1.6a1 1 0 0 1 1.36-.77ZM84 412.64l2.87-11.51c-4.11-.93-7.41.84-8.17 3.87-.7 2.87.2 5 5.3 7.64Zm1.21 3-2.9 11.63c4.24 1 7.59-.79 8.38-4 .74-2.87-.29-5.01-5.47-7.6Z" style="opacity:.1"/><path d="M331.06 415.15c-2.29.74-67.66-.11-70.13-1.73-.95-.59-1.38-10.12-1.57-21.66v-.36c-.05-2.38-.08-4.82-.08-7.3v-1l3.17-33.91 43.73.44-4.32 33.59-.05 1.33-.26 7v.71s24.88 11.52 27.41 13.58 4.4 8.58 2.1 9.31Z" style="fill:#f7a9a0"/><path d="M331.06 415.15c-2.29.74-67.66-.11-70.13-1.73-.95-.59-1.38-10.12-1.57-21.66v-.36c-.05-2.38-.08-4.82-.08-7.3v-1l42.58.12-.05 1.33-.26 7v.71s24.88 11.52 27.41 13.58 4.4 8.58 2.1 9.31Z" style="fill:#ebebeb"/><path d="M331.07 415.14c-1.18.38-18.94.34-36.3 0-3.49-.07-7-.15-10.27-.24-12.38-.34-22.61-.85-23.56-1.47s-1.37-9.86-1.56-21.18v-.85h.05l42.13.08v.72s24.88 11.51 27.4 13.57 4.4 8.64 2.11 9.37Z" style="fill:#37474f"/><path d="M330.36 412.6c-11-.41-55.49-1-66.41-.61-.09 0-.09.06 0 .07 10.91.65 55.38.91 66.4.72.24 0 .24-.17.01-.18ZM306.23 391.66c-4.32-.87-9.64-.27-13 2.78-.13.11 0 .3.18.25a61 61 0 0 1 12.79-2.48.28.28 0 0 0 .03-.55ZM309.34 393.58c-4.33-.86-9.64-.26-13 2.78-.13.12 0 .3.18.26a61 61 0 0 1 12.78-2.49.28.28 0 0 0 .04-.55ZM312.44 395.51c-4.32-.86-9.64-.27-13 2.78-.13.12 0 .3.18.26a61.06 61.06 0 0 1 12.79-2.49.28.28 0 0 0 .03-.55Z" style="fill:#263238"/><path d="M304.41 391.63h-51.3s11.14-101.26 10.77-103.18c-.19-1-9.41-14.92-20.37-31.21-6.13-9.12-12.8-19-18.73-27.72-9.8-14.44-17.59-25.84-17.59-25.84h50.23s6.76 8.16 15.62 19.71c12.54 16.36 29.29 39.51 37 55.89 5.96 12.72-5.63 112.35-5.63 112.35Z" style="fill:#455a64"/><path d="M297.23 286.05c-1-5.64-3.77-10.58-6.56-15.48-5.77-10.14-31.78-48.79-39-57.9l-2.77-3.46c-.06-.08-.19 0-.13.08 7.07 9.13 32.84 47.43 38.62 57.39 2.85 4.9 6 9.85 7.87 15.26 1.93 5.7 1.66 11.76 1.36 17.69q-.93 18.35-2.22 36.68-1.31 18.53-3 37c-.14 1.51-.28 3-.41 4.54-.05.48.43.53.48 0 1.18-12.29 2.48-24.46 3.4-36.77s1.73-24.78 2.4-37.18c.33-5.9.96-11.96-.04-17.85ZM302.32 383.59c-7.19-.15-5.12-.21-12.31-.28-3.52 0-26.65-.23-29.94.31-.07 0-.07.14 0 .15 3.29.54 26.42.34 29.94.31 7.19-.07 5.12-.13 12.31-.28a.1.1 0 1 0 0-.21ZM259.66 281.54c-13.14-20.28-52.47-77.86-52.47-77.86h26.32Z" style="fill:#263238"/><path d="M152.93 458.13c2.3.72 67.66-.8 70.11-2.44.94-.61 1.27-10.14 1.35-21.68v-.36c0-2.37 5.48-42.32 5.48-42.32l-42.72.87-4.94 42v.72s-24.73 11.73-27.21 13.81-4.37 8.69-2.07 9.4Z" style="fill:#f7a9a0"/><path d="M152.93 458.13c2.3.72 67.66-.8 70.11-2.44.94-.61 1.27-10.14 1.35-21.68v-.36s1-8 1-8.34l-42.18.75-.95 8.1v.72s-24.78 11.77-27.26 13.85-4.37 8.69-2.07 9.4Z" style="fill:#ebebeb"/><path d="M152.93 458.13c2.3.72 67.66-.8 70.11-2.44.94-.61 1.27-10.14 1.35-21.68v-.36l-42.18.51v.72s-24.73 11.77-27.21 13.85-4.37 8.69-2.07 9.4Z" style="fill:#37474f"/><path d="M153.61 455.58c11-.53 55.47-1.61 66.4-1.29.09 0 .09.06 0 .07-10.9.76-55.37 1.48-66.4 1.4-.23 0-.23-.17 0-.18ZM177.52 434.39c4.32-.91 9.63-.37 13 2.64.13.12 0 .31-.18.26a61.13 61.13 0 0 0-12.81-2.35.28.28 0 0 1-.01-.55ZM174.43 436.35c4.32-.91 9.64-.37 13 2.64.13.12 0 .3-.18.26a60.38 60.38 0 0 0-12.81-2.35.28.28 0 0 1-.01-.55ZM171.35 438.31c4.31-.91 9.63-.37 13 2.64.13.12 0 .3-.18.26a61.15 61.15 0 0 0-12.81-2.36.27.27 0 0 1-.01-.54Z" style="fill:#263238"/><path d="M257.42 203.68s-6 36.69-6.43 37.87c0 0-2.24 1.06-6.28 2.92l-17.83 190.26-47.07.19 26.24-231.24Z" style="fill:#455a64"/><path d="M225.27 426.36c-7.19-.12-5.12-.19-12.32-.23-3.51 0-26.64-.12-29.93.44-.07 0-.07.13 0 .15 3.3.53 26.42.23 29.94.18 7.19-.1 5.12-.15 12.31-.33a.11.11 0 1 0 0-.21ZM217.8 210.78c-1.83 26.21-3.72 52.42-5.86 78.61s-4.7 52.53-7.87 78.71c-1.77 14.62-3.7 35.22-5.82 49.79 0 .1.14.14.15 0 4.39-25.9 7.48-58 10.13-84.16s4.76-52.32 6.62-78.52l3-44.47c-.01-.18-.34-.17-.35.04ZM253 240.41a86.63 86.63 0 0 0-13.46 7.05.15.15 0 0 0 .14.27c4.54-2.2 9.18-4.33 13.59-6.78a.3.3 0 0 0-.27-.54ZM251.21 219.39c-.74 4.39-1.15 8.85-1.64 13.27-.12 1.06-.25 2.13-.36 3.19a6.17 6.17 0 0 1-.77 2.79c-.95 1.48-2.66 2.17-4.21 2.85-.18.08-.11.36.09.3a10.23 10.23 0 0 0 4.48-2.37c1.41-1.49 1.36-3.75 1.58-5.67a120.84 120.84 0 0 0 1-14.34c.03-.11-.15-.14-.17-.02Z" style="fill:#263238"/><path d="M245.88 220.74c-.16 3.16-.51 6.32-.78 9.48-.13 1.55-.24 3.12-.33 4.68s-.28 3.21-.23 4.79a.1.1 0 0 0 .19 0c.26-1.5.3-3.06.42-4.58s.24-3.2.33-4.8c.18-3.19.26-6.41.55-9.6-.03-.08-.15-.07-.15.03Z" style="fill:#263238"/><path d="m273 223.39-19.29 2.45-29 3.68-22 2.79 3.25-28.63h51.37s6.85 8.16 15.67 19.71Z" style="fill:#263238"/><path d="M248.86 153.21c8.84 18.18 27.51 37.25 38.15 37.25 10 0 35.14-19.7 46.9-31.28 2.68-2.64-21.77-23.51-24.4-20.45-6.14 7.15-20.5 22.67-25.1 22.67-4.1 0-17-9.3-28.29-18.52-13.68-11.19-10.78 3.12-7.26 10.33Z" style="fill:#f7a9a0"/><path d="M333.91 159.18c3.13-1.76 12.58-9.79 18.46-17.23 2.85-3.62 9.94-14.86 7.34-17.26s-5 .7-5 .7 2.28-5.2-.56-7.38-6.36 2.77-6.36 2.77 2-5.51-1-7.48-5.7 3.6-5.7 3.6 2-5-1.12-5.54c-3.79-.71-6.49 8.85-9.84 12.68-.77.88-16.7 16.56-16.7 16.56Z" style="fill:#f7a9a0"/><path d="M341 117c-2 7-4.09 9.74-9.45 14.53-.1.1 0 .28.13.19 5.68-4.22 8.79-7.26 9.67-14.65.03-.41-.26-.46-.35-.07ZM348 120.53c-2.72 7.11-5 10.09-10.2 15.52-.08.07 0 .21.13.14 5.59-4.9 8.63-8 10.41-15.47.07-.34-.23-.52-.34-.19ZM354.48 126c-3.12 6.7-5.44 10.07-11.21 14.69a.14.14 0 0 0 .16.22c6.34-4.14 9.26-8.32 11.25-14.79.13-.48 0-.58-.2-.12Z" style="fill:#263238"/><path d="M324.08 92.11h73.82v53.25h-73.82z" style="fill:#ebebeb" transform="rotate(-.58 363.922 119.4)"/><path d="M337.52 103.28h5.38v29.5h-5.38z" style="fill:#407bff" transform="rotate(-.58 342.189 119.29)"/><path d="m351.87 132.66-5.38.06-.19-21.37 5.37-.05.2 21.36z" style="fill:#407bff"/><path d="M355.23 116.14h5.38v16.46h-5.38z" style="fill:#407bff" transform="rotate(-.58 359.94 125.306)"/><path d="M364.06 119.32h5.38v13.19h-5.38z" style="fill:#407bff" transform="rotate(-.58 368.826 126.34)"/><path d="M372.84 111.05h5.38v21.37h-5.38z" style="fill:#407bff" transform="rotate(-.58 377.736 122.433)"/><path d="M381.64 106.89h5.38v25.44h-5.38z" style="fill:#407bff" transform="rotate(-.59 382.016 118.503)"/><path d="M333.7 100.06c.19 5.46.36 10.92.47 16.39s.25 10.93.31 16.39l-.45-.45 14.19-.18 14.18-.09h14.2c4.74 0 9.46.06 14.19.14q-7.1.25-14.19.42c-4.73.1-9.46.24-14.19.3l-14.18.2-14.23.12h-.46v-.45c-.05-5.47 0-10.93 0-16.4s.07-10.93.16-16.39Z" style="fill:#c7c7c7"/><path d="M332 103a12.92 12.92 0 0 1 1.76-.14 11.43 11.43 0 0 1 1.75.11 12.38 12.38 0 0 1-3.51 0ZM332 106a13 13 0 0 1 1.76-.14 11.43 11.43 0 0 1 1.75.11 12.38 12.38 0 0 1-3.51 0ZM332 109.06a11.6 11.6 0 0 1 1.76-.14 11.43 11.43 0 0 1 1.75.11 12.38 12.38 0 0 1-3.51 0ZM332.06 112.08a12.45 12.45 0 0 1 3.52 0 12.45 12.45 0 0 1-3.52 0ZM332.09 115.1a12.45 12.45 0 0 1 3.52 0 12.45 12.45 0 0 1-3.52 0ZM332.12 118.12a12.45 12.45 0 0 1 3.52 0 12.45 12.45 0 0 1-3.52 0ZM332.16 121.14a11.37 11.37 0 0 1 1.75-.14 11.56 11.56 0 0 1 1.76.11 11.6 11.6 0 0 1-1.76.14 11.43 11.43 0 0 1-1.75-.11ZM332.19 124.16a12.38 12.38 0 0 1 3.51 0 11.6 11.6 0 0 1-1.76.14 11.43 11.43 0 0 1-1.75-.14ZM332.22 127.18a12.38 12.38 0 0 1 3.51 0 11.6 11.6 0 0 1-1.76.14 11.43 11.43 0 0 1-1.75-.14ZM332.25 130.2a12.38 12.38 0 0 1 3.51 0 12.9 12.9 0 0 1-1.75.14 11.48 11.48 0 0 1-1.76-.14ZM349.24 99.14c1.93-.18 3.85-.27 5.77-.35s3.85-.12 5.78-.15 3.85 0 5.77 0 3.85.09 5.78.23c-1.93.18-3.85.27-5.77.35s-3.85.11-5.78.14-3.85 0-5.77 0-3.85-.09-5.78-.22ZM353.6 101.77a69.6 69.6 0 0 1 14.43-.15 60 60 0 0 1-7.21.45 62.27 62.27 0 0 1-7.22-.3ZM333.84 138.82v-3.45h3.45v3.46Zm.47-3v2.46h2.45v-2.45ZM339.78 135.56c2.93-.13 5.86-.22 8.8-.29l8.79-.14h8.79c2.94 0 5.87 0 8.8.11-2.93.12-5.86.22-8.79.28l-8.8.15h-8.79q-4.4-.02-8.8-.11ZM339.8 137c3.31-.24 6.62-.28 9.93-.35s6.63 0 9.94.15c-3.31.24-6.62.29-9.93.35s-6.63.06-9.94-.15ZM339.81 138.51c4.06-.24 8.13-.3 12.19-.37s8.12 0 12.19.12c-4.06.25-8.12.31-12.19.38s-8.12.04-12.19-.13Z" style="fill:#c7c7c7"/><path d="M333.94 104.5a13.71 13.71 0 0 1 3.94-.92 8.33 8.33 0 0 1 4.06.52 11.67 11.67 0 0 1 3.25 2.52c.95 1 1.82 2 2.66 3.08 1.7 2.09 3.28 4.27 5.1 6.2a14.92 14.92 0 0 0 6.35 4.39 8.08 8.08 0 0 0 3.75.23 12.61 12.61 0 0 0 3.63-1.37 44.54 44.54 0 0 0 6.47-4.64c2.08-1.7 4.09-3.5 6.24-5.14a25.41 25.41 0 0 1 3.39-2.23 11.47 11.47 0 0 1 1.86-.83 6.78 6.78 0 0 1 2-.3 8.18 8.18 0 0 0-3.73 1.36 25.73 25.73 0 0 0-3.22 2.38c-2.06 1.71-4 3.56-6 5.34a38.81 38.81 0 0 1-6.54 4.86 13.33 13.33 0 0 1-3.88 1.51 9.13 9.13 0 0 1-4.22-.21 15.82 15.82 0 0 1-6.73-4.73 79.11 79.11 0 0 1-5-6.35c-.81-1.07-1.63-2.13-2.52-3.12a11.29 11.29 0 0 0-3-2.51 8 8 0 0 0-3.82-.69 15.32 15.32 0 0 0-4.04.65Z" style="fill:#263238"/><path d="M307.71 140.8s5.58-7.22 8.79-9.79 18.72-7.76 20-4.47c1.69 4.24-6.67 9-11.07 10.79 0 0 3.92 9.8-1.34 14.51s-16.38-11.04-16.38-11.04Z" style="fill:#f7a9a0"/><path d="M336.61 127.86c-1.25 5-7.18 7-11.31 9a.42.42 0 0 0-.13.68c1.36 4.22 2.07 10.57-.76 14.3a.1.1 0 1 0 .15.14c3.58-3.59 3.4-9.88 1.61-14.41 4.27-2 10.13-4.29 10.49-9.72l-.05.01Z" style="fill:#263238"/><path d="M253.87 140.89c7.39 4.94 25.44 20.68 30.37 19.42S305 142.2 305 142.2l24.94 23.59s-28.27 26.88-43.9 25.89-31.84-25-37-35.34-7.48-23.66 4.83-15.45Z" style="fill:#407bff"/><path d="M285.4 173.54a4.19 4.19 0 0 1 0-2.85 4.19 4.19 0 0 1 0 2.85Zm23.6-17.45a3.74 3.74 0 0 0-.25-1.42 3.74 3.74 0 0 0-.25 1.42 3.94 3.94 0 0 0 .25 1.42 3.94 3.94 0 0 0 .25-1.42Zm3 22.24a3.94 3.94 0 0 0-.25-1.42 4.16 4.16 0 0 0 0 2.84 3.94 3.94 0 0 0 .25-1.42Zm-51.68-10.43a3.52 3.52 0 0 0-.25-1.42 4.16 4.16 0 0 0 0 2.84 3.74 3.74 0 0 0 .25-1.42Zm44.25 7.17a3.74 3.74 0 0 0-.25-1.42 4.16 4.16 0 0 0 0 2.84 3.74 3.74 0 0 0 .25-1.42Zm-28-16.16a4 4 0 0 0 1.42-.25 3.58 3.58 0 0 0-1.42-.25 3.7 3.7 0 0 0-1.42.25 3.9 3.9 0 0 0 1.44.25Zm1.8 20.65a3.94 3.94 0 0 0 1.42-.25 4.16 4.16 0 0 0-2.84 0 3.9 3.9 0 0 0 1.44.25Zm17.88-10a3.77 3.77 0 0 0 1.42-.25 3.77 3.77 0 0 0-1.42-.25 4 4 0 0 0-1.43.25 4 4 0 0 0 1.45.26Zm21.51 2.11a3.74 3.74 0 0 0 1.42-.25 4.16 4.16 0 0 0-2.84 0 3.7 3.7 0 0 0 1.44.26Zm-12-24a3.9 3.9 0 0 0 1.42-.25 3.52 3.52 0 0 0-1.42-.25 3.77 3.77 0 0 0-1.42.25 4 4 0 0 0 1.4.28Zm-46.24 4.06a3.91 3.91 0 0 0-1.19-.83 3.75 3.75 0 0 0 .83 1.18 3.7 3.7 0 0 0 1.18.83 3.84 3.84 0 0 0-.84-1.15Zm10.3 22.13a3.86 3.86 0 0 0-1.18-.83 4.2 4.2 0 0 0 2 2 3.86 3.86 0 0 0-.84-1.14Zm24.57 5a3.79 3.79 0 0 0-1.19-.83 4.06 4.06 0 0 0 2 2 4 4 0 0 0-.83-1.15Zm13.5-12.86a3.7 3.7 0 0 0-1.18-.83 4.2 4.2 0 0 0 2 2 3.86 3.86 0 0 0-.82-1.17Zm-18.34-4.89a3.84 3.84 0 0 0-1.18-.82 4.2 4.2 0 0 0 2 2 3.91 3.91 0 0 0-.82-1.15ZM286 185.92a3.86 3.86 0 0 0-.83 1.18 3.75 3.75 0 0 0 1.18-.83 3.7 3.7 0 0 0 .83-1.18 3.86 3.86 0 0 0-1.18.83Zm15.23-1.85a3.72 3.72 0 0 0-.82 1.18 4.2 4.2 0 0 0 2-2 3.91 3.91 0 0 0-1.2.82Zm-25.8-17a3.7 3.7 0 0 0-.83 1.18 3.7 3.7 0 0 0 1.18-.83 3.75 3.75 0 0 0 .83-1.18 3.75 3.75 0 0 0-1.2.76Zm43.57-6.43a3.67 3.67 0 0 0-.82 1.18 3.86 3.86 0 0 0 1.18-.83 4 4 0 0 0 .83-1.18 3.91 3.91 0 0 0-1.19.83Zm-52.7 0a3.86 3.86 0 0 0-.83 1.18 4.2 4.2 0 0 0 2-2 3.86 3.86 0 0 0-1.15.82Zm31.75-3.72a3.86 3.86 0 0 0-.83 1.18 3.79 3.79 0 0 0 1.19-.83 4 4 0 0 0 .83-1.18 3.91 3.91 0 0 0-1.17.83Zm-45.18-11.38a3.94 3.94 0 0 0-.25-1.42 3.55 3.55 0 0 0-.25 1.42 3.7 3.7 0 0 0 .25 1.42 3.9 3.9 0 0 0 .27-1.42Zm.49 15.28a4 4 0 0 0 1.43-.25 3.6 3.6 0 0 0-1.43-.25 3.77 3.77 0 0 0-1.42.25 4 4 0 0 0 1.44.25Z" style="fill:#fff"/><path d="M322.7 168.45c-.76-1-1.71-1.77-2.56-2.65s-1.74-1.73-2.63-2.57c-1.72-1.63-3.46-3.24-5.2-4.83l-5.26-4.77c-1.81-1.64-3.58-3.4-5.52-4.89a.08.08 0 1 0-.11.12c1.62 1.82 3.5 3.46 5.27 5.15l5.23 5q2.61 2.49 5.28 4.94c.88.8 1.76 1.58 2.66 2.35s1.77 1.62 2.75 2.29c.08.05.15-.07.09-.14ZM284 191.41c-15-2.81-30-25.18-35-35.06-3.32-6.61-5.42-14.43-3.29-17.08 6.07 8.24 27.29 37.18 38.29 52.14Z" style="fill:#263238"/><path d="M270.72 220.19c-1 1.13-68.46 1.23-68.8.82-.93-1.12 15.05-70.1 30-82.1 3.21-2.58 15.53-2.19 17.21-1.53 1.92.73 7.34 9.9 9.81 17.37 4.92 14.95 12.66 64.45 11.78 65.44Z" style="fill:#407bff"/><path d="M244.6 178.33a3.94 3.94 0 0 1-.25-1.42 3.7 3.7 0 0 1 .25-1.42 3.7 3.7 0 0 1 .25 1.42 3.94 3.94 0 0 1-.25 1.42Zm8.54 14.8a4 4 0 0 0-.25-1.43 3.6 3.6 0 0 0-.25 1.43 3.77 3.77 0 0 0 .25 1.42 4 4 0 0 0 .25-1.42Zm-.25-47.59a3.94 3.94 0 0 0-.25-1.42 3.55 3.55 0 0 0-.25 1.42 3.7 3.7 0 0 0 .25 1.42 3.9 3.9 0 0 0 .25-1.42Zm-20.62 48.13a3.9 3.9 0 0 0-.25-1.42 3.52 3.52 0 0 0-.25 1.42 3.74 3.74 0 0 0 .25 1.42 3.94 3.94 0 0 0 .25-1.42Zm35.23 6.73a3.79 3.79 0 0 0-.25-1.43 3.79 3.79 0 0 0-.25 1.43 4 4 0 0 0 .25 1.42 3.77 3.77 0 0 0 .25-1.42Zm-24.33 9.72a3.74 3.74 0 0 0-.25-1.42 3.74 3.74 0 0 0-.25 1.42 3.9 3.9 0 0 0 .25 1.42 3.7 3.7 0 0 0 .25-1.42Zm-19.8 6.69a3.94 3.94 0 0 0-.25-1.42 4.16 4.16 0 0 0 0 2.84 3.94 3.94 0 0 0 .25-1.42Zm16.24-58.43a3.77 3.77 0 0 0-.25-1.42 4.19 4.19 0 0 0 0 2.85 3.79 3.79 0 0 0 .25-1.43Zm-12.81-8.08a3.9 3.9 0 0 0-.25-1.42 4.16 4.16 0 0 0 0 2.84 3.94 3.94 0 0 0 .25-1.42Zm-.25 24.15a4 4 0 0 0-.25-1.42 4.19 4.19 0 0 0 0 2.85 4 4 0 0 0 .25-1.43Zm-13.48 26a3.52 3.52 0 0 0-.25-1.42 3.9 3.9 0 0 0-.25 1.42 4 4 0 0 0 .25 1.42 3.77 3.77 0 0 0 .25-1.47Zm47.25-32.5a3.52 3.52 0 0 0-.25-1.42 4.16 4.16 0 0 0 0 2.84 3.74 3.74 0 0 0 .25-1.47Zm-24.59 4.37a4 4 0 0 0 1.42-.25 4.19 4.19 0 0 0-2.85 0 4 4 0 0 0 1.43.2Zm-1.43 31.66a4 4 0 0 0 1.43-.25 4.19 4.19 0 0 0-2.85 0 4 4 0 0 0 1.42.2ZM242 220a3.7 3.7 0 0 0 1.42-.25 3.9 3.9 0 0 0-1.42-.25 4 4 0 0 0-1.42.25 3.77 3.77 0 0 0 1.42.25Zm17.69-42.23a3.94 3.94 0 0 0 1.42-.25 4.16 4.16 0 0 0-2.84 0 3.9 3.9 0 0 0 1.39.27Zm-35-17.31a3.74 3.74 0 0 0 1.42-.25 3.74 3.74 0 0 0-1.42-.25 3.94 3.94 0 0 0-1.42.25 3.74 3.74 0 0 0 1.37.27Zm17.58-13a3.94 3.94 0 0 0 1.42-.25 3.55 3.55 0 0 0-1.42-.25 3.7 3.7 0 0 0-1.42.25 3.9 3.9 0 0 0 1.37.24ZM224.54 185a3.94 3.94 0 0 0 1.42-.25 3.55 3.55 0 0 0-1.42-.25 3.7 3.7 0 0 0-1.42.25 3.9 3.9 0 0 0 1.42.25Zm-9.92 25.11a3.77 3.77 0 0 0 1.42-.25 4.19 4.19 0 0 0-2.85 0 3.79 3.79 0 0 0 1.43.26Zm38.76-49.3a4 4 0 0 0 1.43-.25 3.6 3.6 0 0 0-1.43-.25 3.77 3.77 0 0 0-1.42.25 4 4 0 0 0 1.42.26Zm-9.29 26.48a3.7 3.7 0 0 0 1.42-.25 4.16 4.16 0 0 0-2.84 0 3.74 3.74 0 0 0 1.42.26Zm20.3 30.71a3.7 3.7 0 0 0 1.42-.25 4.16 4.16 0 0 0-2.84 0 3.74 3.74 0 0 0 1.42.25Zm-11.75-13.78a4 4 0 0 0 1.42-.25 4.19 4.19 0 0 0-2.85 0 4 4 0 0 0 1.43.21Zm.17 11.29a3.86 3.86 0 0 0-1.18-.83 3.75 3.75 0 0 0 .83 1.18 3.7 3.7 0 0 0 1.18.83 3.86 3.86 0 0 0-.83-1.22Zm-38-25.19a3.86 3.86 0 0 0-1.18-.83 3.75 3.75 0 0 0 .83 1.18 3.86 3.86 0 0 0 1.18.83 3.86 3.86 0 0 0-.85-1.22Zm20.7-8.22a3.64 3.64 0 0 0-1.19-.83 3.86 3.86 0 0 0 .83 1.18 3.91 3.91 0 0 0 1.19.83 4 4 0 0 0-.85-1.22Zm-11.38 21.69a3.86 3.86 0 0 0-1.18-.83 4.2 4.2 0 0 0 2 2 3.86 3.86 0 0 0-.84-1.21Zm-18.26 11.79a3.77 3.77 0 0 0-1.19-.82 3.86 3.86 0 0 0 .83 1.18 3.91 3.91 0 0 0 1.19.83 4.09 4.09 0 0 0-.85-1.23Zm15.24-47.82a3.75 3.75 0 0 0-1.18-.83 3.91 3.91 0 0 0 .83 1.19 3.84 3.84 0 0 0 1.18.82 3.7 3.7 0 0 0-.85-1.22Zm23.67-1.76a3.64 3.64 0 0 0-1.19-.83 3.86 3.86 0 0 0 .83 1.18 3.91 3.91 0 0 0 1.19.83 4 4 0 0 0-.83-1.18Zm15.72 32.8a3.86 3.86 0 0 0-1.18-.83 3.75 3.75 0 0 0 .83 1.18 3.7 3.7 0 0 0 1.18.83 3.86 3.86 0 0 0-.83-1.18Zm-26-46a3.7 3.7 0 0 0-1.18-.83 4.2 4.2 0 0 0 2 2 3.86 3.86 0 0 0-.84-1.2Zm18.74 29.83a3.86 3.86 0 0 0-1.18-.83 3.79 3.79 0 0 0 .83 1.19 4 4 0 0 0 1.18.83 3.91 3.91 0 0 0-.85-1.22Zm-.35-11.34a3.75 3.75 0 0 0-.83 1.18 4.2 4.2 0 0 0 2-2 3.7 3.7 0 0 0-1.19.79Zm-31.12 23.65a3.7 3.7 0 0 0-.83 1.18 3.84 3.84 0 0 0 1.18-.82 3.91 3.91 0 0 0 .83-1.19 3.86 3.86 0 0 0-1.2.8Zm39.15-5.63a3.75 3.75 0 0 0-.83 1.18 3.91 3.91 0 0 0 1.19-.83 3.84 3.84 0 0 0 .82-1.18 3.81 3.81 0 0 0-1.2.8ZM233.6 214a3.86 3.86 0 0 0-.83 1.18 3.77 3.77 0 0 0 1.19-.82 4.09 4.09 0 0 0 .83-1.19 3.91 3.91 0 0 0-1.19.83Zm-1.76-48.49a3.75 3.75 0 0 0-.83 1.18 4.2 4.2 0 0 0 2-2 3.86 3.86 0 0 0-1.17.77Zm10.65 33.34a3.84 3.84 0 0 0-.82 1.18 3.7 3.7 0 0 0 1.18-.83 3.75 3.75 0 0 0 .83-1.18 3.91 3.91 0 0 0-1.19.78Zm18 10.73a3.7 3.7 0 0 0-.83 1.18 4.2 4.2 0 0 0 2-2 3.86 3.86 0 0 0-1.17.77Zm-43.41-30.26a3.86 3.86 0 0 0-.83 1.18 3.91 3.91 0 0 0 1.19-.83 3.84 3.84 0 0 0 .82-1.18 3.86 3.86 0 0 0-1.18.78Zm30.09-24.49a3.86 3.86 0 0 0-.83 1.18 4.2 4.2 0 0 0 2-2 3.86 3.86 0 0 0-1.17.77Zm-14.88-12.13a3.72 3.72 0 0 0-.82 1.19 3.86 3.86 0 0 0 1.18-.83 4 4 0 0 0 .83-1.18 3.88 3.88 0 0 0-1.19.77Z" style="fill:#fff"/><path d="m249.9 156.47.98-4.32-3.98-4.34-3.08 5.45 2.16 3.72-1.88 44.14 8.27 14.6 4.3-16.43-6.77-42.82zM236.91 137.28l-30.56 63.12c5.65-21.67 15.82-53.67 25.54-61.49a11.17 11.17 0 0 1 5.02-1.63Z" style="fill:#263238"/><path d="M231.27 152c-4.25 7.62-29.44 36-30.08 38.81s4.9 10.25 4.94 11.37c.14 4.56-4.93 34.73-9.21 32.15-5.63-3.41-29.82-28.79-28.24-41.65s50.46-47.29 58.22-50.87 8.57 2.63 4.37 10.19Z" style="fill:#f7a9a0"/><path d="M214.58 239.41c2.36-2.71-2.19-3.94-2.19-3.94s7 .19 8.33-3.55-4.26-4.9-4.66-5c.37 0 6.79 0 7.76-3.88s-4.79-4.39-5.16-4.41c.35-.1 5-1.54 5-4.67.11-5.38-13.44-2.39-17.15-4.67 0 0-.45-6.94-.4-7.15a7.88 7.88 0 0 1-2.95 4.25c-2.68 1.59-5.16 2.76-6 4.46a3.93 3.93 0 0 0 .78 4.64s-3.78.55-4.64 3.6c-.44 1.56 1.67 3.65 1.67 3.65s-3 .57-3.6 3.32c-.48 2.2 1.71 4 1.71 4s-2.63 1.88-2.39 4.29c.51 4.81 18.83 10.87 23.89 5.06Z" style="fill:#f7a9a0"/><path d="M193.44 230.35a.05.05 0 1 0-.05.09 33.46 33.46 0 0 0 19.24 5.12c.21 0 .28-.37 0-.4a68.37 68.37 0 0 1-19.19-4.81ZM194.92 222.75c-.07 0-.12.08 0 .13 5.73 3.53 13.84 5.68 21.34 4.28.25 0 .44-.35.14-.32-5.11.56-15.75-1.63-21.48-4.09ZM219.15 218.35c-7.24 1.07-14.1-.29-20.94-2.7-.09 0-.12.1-.05.15 3 2.09 7.54 3.17 11.13 3.71a19.23 19.23 0 0 0 9.89-.91c.13-.04.12-.27-.03-.25Z" style="fill:#263238"/><path d="M192.94 230.05c-1.38-1-2.53-2.48-2.26-4.3a3.46 3.46 0 0 1 1.2-2.12 6 6 0 0 1 2.67-1 4.56 4.56 0 0 1-1.39-5A3.41 3.41 0 0 1 195 216a10.86 10.86 0 0 1 2.9-.65 4 4 0 0 1-1.74-3.17 4.37 4.37 0 0 1 1.83-3.53 20.44 20.44 0 0 1 4.26-2.26 10.42 10.42 0 0 0 2.14-1.25 4.52 4.52 0 0 0 1.37-2.17c0-.16.22-.11.18 0a4.93 4.93 0 0 1-.81 1.69 7.35 7.35 0 0 1-1.3 1.43 32.11 32.11 0 0 1-4 2.42 6.25 6.25 0 0 0-2.68 3 3.73 3.73 0 0 0 .89 3.82c.06.05 0 .15-.07.16a11 11 0 0 0-2.47 1 3.71 3.71 0 0 0-1.49 1.58 4.78 4.78 0 0 0 1 4.67 8.22 8.22 0 0 0-2.49 1.41 3.52 3.52 0 0 0-.9 1.74 4.14 4.14 0 0 0 1.53 4.06.05.05 0 0 1 0 .05.14.14 0 0 1 0 .06s-.83.63-.88.65 0 0 0-.05a6.6 6.6 0 0 1 .67-.61Z" style="fill:#263238"/><path d="m184.92 226.7 20-28.71s-3.31-5.6-3-7.42 25.85-29.78 30.48-39.41 5.71-15.53-5.16-10.43-56.37 40.19-59 49.45 8.2 23.94 16.68 36.52Z" style="fill:#407bff"/><path d="M214.62 165.34a4.19 4.19 0 0 1 0-2.85 4.19 4.19 0 0 1 0 2.85Zm12.18-15a3.9 3.9 0 0 0-.25-1.42 4.16 4.16 0 0 0 0 2.84 3.94 3.94 0 0 0 .25-1.46Zm-28.27 24.15a3.77 3.77 0 0 0-.25-1.42 4.19 4.19 0 0 0 0 2.85 3.79 3.79 0 0 0 .25-1.47Zm-19.82 9.75a3.74 3.74 0 0 0-.25-1.42 4.16 4.16 0 0 0 0 2.84 3.7 3.7 0 0 0 .25-1.46Zm16.63 7.05a3.94 3.94 0 0 0-.25-1.42 4.16 4.16 0 0 0 0 2.84 3.94 3.94 0 0 0 .25-1.46Zm-16.13 9.82a3.79 3.79 0 0 0-.25-1.43 4.19 4.19 0 0 0 0 2.85 3.77 3.77 0 0 0 .25-1.46Zm16.13 4.86a3.94 3.94 0 0 0-.25-1.42 4.16 4.16 0 0 0 0 2.84 3.94 3.94 0 0 0 .25-1.46Zm27.53-61a3.77 3.77 0 0 0 1.42-.25 4 4 0 0 0-1.42-.25 3.9 3.9 0 0 0-1.42.25 3.7 3.7 0 0 0 1.42.28Zm1.77 15.53a3.74 3.74 0 0 0 1.42-.25 3.74 3.74 0 0 0-1.42-.25 3.94 3.94 0 0 0-1.42.25 3.74 3.74 0 0 0 1.42.23Zm-18.29-1.23a3.74 3.74 0 0 0 1.42-.25 3.74 3.74 0 0 0-1.42-.25 3.9 3.9 0 0 0-1.42.25 3.7 3.7 0 0 0 1.42.23Zm6.72 12.73a4 4 0 0 0 1.43-.25 4.19 4.19 0 0 0-2.85 0 4 4 0 0 0 1.42.25Zm-21.61-1.09a3.94 3.94 0 0 0 1.42-.25 4.16 4.16 0 0 0-2.84 0 3.9 3.9 0 0 0 1.42.27Zm-3.58 16.62a3.74 3.74 0 0 0 1.42-.25 4.16 4.16 0 0 0-2.84 0 3.7 3.7 0 0 0 1.42.27Zm-4.88 32a3.52 3.52 0 0 0 1.42-.25 4.16 4.16 0 0 0-2.84 0 3.74 3.74 0 0 0 1.42.28Zm3.46-15.38a4 4 0 0 0 1.42-.25 3.77 3.77 0 0 0-1.42-.25 3.7 3.7 0 0 0-1.42.25 3.9 3.9 0 0 0 1.42.28Zm-14.92-5.71a3.79 3.79 0 0 0 1.43-.25 4.19 4.19 0 0 0-2.85 0 3.77 3.77 0 0 0 1.42.28Zm26.67-34.21a3.86 3.86 0 0 0-1.18-.83 3.74 3.74 0 0 0 .83 1.19 3.84 3.84 0 0 0 1.18.82 3.86 3.86 0 0 0-.83-1.15Zm-6.57 15.63a3.91 3.91 0 0 0-1.19-.83 4.2 4.2 0 0 0 2 2 3.84 3.84 0 0 0-.81-1.14Zm-14.26 30.05a3.72 3.72 0 0 0-1.18-.82 4.2 4.2 0 0 0 2 2 3.74 3.74 0 0 0-.82-1.15Zm14.52 2.43a3.75 3.75 0 0 0-1.18-.83 3.75 3.75 0 0 0 .83 1.18 3.7 3.7 0 0 0 1.18.83 3.86 3.86 0 0 0-.83-1.15Zm-19.17-21.55a3.79 3.79 0 0 0-1.19-.83 3.75 3.75 0 0 0 .83 1.18 3.81 3.81 0 0 0 1.18.83 3.84 3.84 0 0 0-.82-1.15Zm16.75 4.82a3.84 3.84 0 0 0-1.18-.82 3.67 3.67 0 0 0 .82 1.18 3.91 3.91 0 0 0 1.19.83 4.09 4.09 0 0 0-.83-1.16Zm22.89-41.87a3.91 3.91 0 0 0-1.19-.83 3.91 3.91 0 0 0 .83 1.19 3.84 3.84 0 0 0 1.18.82 3.84 3.84 0 0 0-.82-1.15Zm-5 25.11a3.75 3.75 0 0 0-1.18-.83 3.91 3.91 0 0 0 .83 1.19 3.84 3.84 0 0 0 1.18.82 3.7 3.7 0 0 0-.84-1.15Zm12.09-24.1a3.7 3.7 0 0 0-.83 1.18 4.2 4.2 0 0 0 2-2 3.75 3.75 0 0 0-1.18.85Zm-13.7 12.94a3.7 3.7 0 0 0-.83 1.18 3.84 3.84 0 0 0 1.18-.82 3.91 3.91 0 0 0 .83-1.19 3.86 3.86 0 0 0-1.19.86Zm-22.93 9.89a3.84 3.84 0 0 0-.82 1.18 3.84 3.84 0 0 0 1.18-.82 3.91 3.91 0 0 0 .83-1.19 3.91 3.91 0 0 0-1.2.86Zm-2.18 15.51a3.79 3.79 0 0 0-.83 1.19 4.06 4.06 0 0 0 2-2 4.18 4.18 0 0 0-1.18.84Zm17.22 5.68A3.7 3.7 0 0 0 197 200a3.7 3.7 0 0 0 1.18-.83A3.75 3.75 0 0 0 199 198a3.86 3.86 0 0 0-1.14.8Zm-13.61 12.57a3.59 3.59 0 0 0-.83 1.18 4.2 4.2 0 0 0 2-2 3.86 3.86 0 0 0-1.18.85Zm15.49-27a3.86 3.86 0 0 0-.83 1.18 4.2 4.2 0 0 0 2-2 3.86 3.86 0 0 0-1.18.81Zm32.55-41.68a3.72 3.72 0 0 0-.82 1.19 3.86 3.86 0 0 0 1.18-.83 4 4 0 0 0 .83-1.18 3.88 3.88 0 0 0-1.2.81Z" style="fill:#fff"/><path d="M183.15 219.59c.85-.88 1.53-1.93 2.29-2.88s1.49-2 2.21-3c1.38-1.92 2.74-3.86 4.09-5.8s2.7-3.89 4-5.84 2.9-4 4.12-6.11a.09.09 0 1 0-.14-.1c-1.59 1.85-3 3.93-4.4 5.9s-2.85 3.89-4.26 5.84-2.82 3.92-4.2 5.89c-.68 1-1.34 2-2 3s-1.37 2-1.91 3c.05.12.14.16.2.1Z" style="fill:#263238"/><path d="M247.77 146.37c-3.54 1.27-10.41-3.58-13.39-7.8-.2-.29-.09-3.6-.16-7.63-.05-2.44-.16-5.16-.44-7.63-.06-.51 1.78.22 1.78.22l3.29.41 10.88 1.37a39.5 39.5 0 0 0-.42 9.67 5.15 5.15 0 0 0 .22 1s0 .1 0 .16c.57 1.91 1.66 9-1.76 10.23Z" style="fill:#f7a9a0"/><path d="M249.53 136v.16a8.91 8.91 0 0 1-1.59.27c-10.47 1-13.28-12.19-13.28-12.19l4.15-.29 10.88 1.37a39.5 39.5 0 0 0-.42 9.67 5.15 5.15 0 0 0 .26 1.01Z" style="fill:#263238"/><path d="M230.2 104.22c-1.46 5.6 2.14 21.46 6.23 24.85 5.92 4.93 15.28 5 19.38-2 4-6.83-1.08-27.41-5.62-30.46-6.67-4.52-17.85-.67-19.99 7.61Z" style="fill:#f7a9a0"/><path d="M243.81 113.7s-.08.07-.06.11c.27 1.06.4 2.32-.49 2.89v.06c1.17-.43.97-2.1.55-3.06Z" style="fill:#263238"/><path d="M242.6 112.79c-1.74.25-1.11 3.73.51 3.5s.96-3.71-.51-3.5ZM250.32 112.32s.09 0 .1.08c.16 1.08.53 2.3 1.56 2.48v.06c-1.21.06-1.68-1.57-1.66-2.62Z" style="fill:#263238"/><path d="M251.08 111c1.7-.45 2.47 3 .89 3.42s-2.33-3.03-.89-3.42ZM240.94 111.45a12.05 12.05 0 0 0 1.26-.72c.48-.28.9-.45 1.15-1a.73.73 0 0 0-.28-.86 1.85 1.85 0 0 0-1.87.14 2.73 2.73 0 0 0-1.34 1.44.8.8 0 0 0 1.08 1ZM252.1 109a13.93 13.93 0 0 1-1.44-.1 2.33 2.33 0 0 1-1.46-.4.74.74 0 0 1-.12-.9 1.85 1.85 0 0 1 1.75-.67 2.75 2.75 0 0 1 1.83.72.8.8 0 0 1-.56 1.35ZM244.91 123.68c.31.21.63.51 1 .47a2.78 2.78 0 0 0 1.1-.48s.08 0 .06 0a1.46 1.46 0 0 1-1.26.83 1.17 1.17 0 0 1-1-.8c-.02-.01.06-.05.1-.02Z" style="fill:#263238"/><path d="M245.46 120.25a3.7 3.7 0 0 0 2.75 1.19 4.68 4.68 0 0 0 1.33-.18l.25-.07.22-.08a.27.27 0 0 0 .18-.28v-.2c-.12-.84-.43-2.08-.43-2.08.33.09 2 .51 1.9.08a56.53 56.53 0 0 0-3.44-10.85.1.1 0 0 0-.19.06c.69 3.45 2 6.75 2.75 10.2a6.39 6.39 0 0 0-1.83-.21c-.11 0 .64 2.4.67 2.78a5.17 5.17 0 0 1-4-.49c-.17-.03-.24.06-.16.13Z" style="fill:#263238"/><path d="M249 121.07a4.32 4.32 0 0 1-1.57 1.59 1.92 1.92 0 0 1-1.19.24c-.89-.11-1-.9-1-1.6a5.18 5.18 0 0 1 .25-1.1 5.71 5.71 0 0 0 3.51.87Z" style="fill:#263238"/><path d="M247.4 122.66a1.92 1.92 0 0 1-1.19.24c-.89-.11-1-.9-1-1.6a2.06 2.06 0 0 1 2.19 1.36Z" style="fill:#ff9abb"/><path d="M231.66 116.29c3.67-.72 3.11-7.51 3.11-7.51s6.1-2.23 6.11-7.15c0 0 6.7 2.68 11.08.08s2.6-8.32 1.85-9.35c-1.71-2.36-5 1.72-5 1.72s-6.61-2.46-13.2-.51c-5.37 1.59-7.13 7.26-7.13 7.26s-2.82 1.19-3.38 3.43 4.23 12.48 6.56 12.03Z" style="fill:#263238"/><path d="M233.3 109.11c5-.28 7.6-4.14 7.42-8.94h.09c.69 4.38-2.44 10-7.52 9.18a.12.12 0 0 1 .01-.24ZM228.62 100.72s.09.06 0 .09c-1.25.89-2.72 1.66-3.44 3.09-.87 1.72-.24 3.64.51 5.27 1.18 2.51 3.19 5.68 5.85 6.78.16.07 0 .29-.1.24-3.15-1.13-5.65-5.27-6.64-8.31-1.05-3.4.74-5.79 3.82-7.16ZM246.46 101.88a6.82 6.82 0 0 0 7.4-1.61c2.2-2.46 1.06-5.57-.54-8-.08-.12.07-.3.18-.19 1.95 2.06 2.73 5.62 1 8.07s-5.54 3.2-8.19 2.12c-.21-.12-.07-.48.15-.39Z" style="fill:#263238"/><path d="M234.17 117.1s-3.94-4.94-6.2-3.51.92 8.75 3.74 9.6a2.8 2.8 0 0 0 3.65-1.74Z" style="fill:#f7a9a0"/><path d="M228.93 115.67v.07c2 .66 3.11 2.39 3.94 4.2a1.55 1.55 0 0 0-2.34-.28c-.05 0 0 .11.06.1a1.72 1.72 0 0 1 1.93.48 7.78 7.78 0 0 1 1 1.47c.1.17.41.06.33-.13-.13-2.51-2.26-5.83-4.92-5.91Z" style="fill:#263238"/><path d="m249.7 136.57-3.38 9.6-12.23-11.43-3.16 4s12.28 18.46 12.32 17.6l3.53-8.29 5.86 5.41-1.07-14.17Z" style="fill:#407bff"/><path d="M252.51 146.4c-.26-2.34-.45-4.7-.81-7 0-.08-.15-.11-.16 0-.37 2.28.65 11.2.73 13.35-.24-.23-5.41-4.75-5.46-4.67-.78 1.33-3.38 7.37-3.55 7.91-1.95-2.93-9.36-13.58-11.63-16.33a.08.08 0 0 0-.14.09c1.74 3.11 11.57 17.45 11.7 17.41a91 91 0 0 0 3.7-8.77c.88 1 6.13 6.12 6.13 5.77a76 76 0 0 0-.51-7.76Z" style="fill:#263238"/><path d="M319.4 67.77A20.27 20.27 0 0 1 287 84.05l-9.94 2.54 4.14-9.25a20.28 20.28 0 1 1 38.16-9.57Z" style="fill:#fff"/><path d="M319.4 67.77a20.39 20.39 0 0 1-3 10.65 23.09 23.09 0 0 1-1.61 2.3 21.92 21.92 0 0 1-1.94 2 20.47 20.47 0 0 1-9.88 5.1 19 19 0 0 1-2.8.35 17.83 17.83 0 0 1-2.83 0 20.46 20.46 0 0 1-10.53-3.87l.3.06-9.9 2.64-.88.24.37-.84 4.1-9.27v.43a20.53 20.53 0 1 1 38.59-9.8Zm0 0a20 20 0 0 0-25.14-19.39 20 20 0 0 0-8 4.17 20.92 20.92 0 0 0-5.26 7.19 20 20 0 0 0-1.66 8.77 20.37 20.37 0 0 0 2.33 8.6l.11.21-.09.21-4.18 9.24-.51-.61 10-2.45h.17l.13.11a20 20 0 0 0 10.14 4 17.09 17.09 0 0 0 2.77.05 19.58 19.58 0 0 0 2.75-.29 19.92 19.92 0 0 0 5.26-1.73 18.89 18.89 0 0 0 4.59-3.12 24.52 24.52 0 0 0 1.95-2 22.91 22.91 0 0 0 1.62-2.28 20.4 20.4 0 0 0 3.02-10.68Z" style="fill:#263238"/><path d="M299.85 66.82v-7.49a9.43 9.43 0 0 1 4.15 1.79 1.36 1.36 0 0 0 .91.32 1.32 1.32 0 0 0 1.36-1.26 1.33 1.33 0 0 0-.69-1.11 12 12 0 0 0-5.66-2.16v-.75a1.3 1.3 0 0 0-2.59 0v.67c-4.05.27-6.93 2.72-6.93 6s2.1 5 7 6.09v7.65a10.57 10.57 0 0 1-5.62-2.57 1.38 1.38 0 0 0-.93-.34 1.33 1.33 0 0 0-1.32 1.26 1.24 1.24 0 0 0 .55 1 13.46 13.46 0 0 0 7.24 3v1.93a1.3 1.3 0 0 0 2.59 0V79c4.19-.29 7.07-2.74 7.07-6.07.02-3.21-2.2-5.09-7.13-6.11Zm-2.46-.52c-3.61-.89-4.32-2-4.32-3.64 0-1.85 1.79-3.25 4.32-3.46Zm6.91 6.7c0 2-1.81 3.38-4.45 3.59v-7.2c3.7.85 4.45 1.98 4.45 3.61Z" style="fill:#407bff"/></svg>