<svg xmlns="http://www.w3.org/2000/svg" xml:space="preserve" style="enable-background:new 0 0 512 512" viewBox="0 0 512 512"><path d="M332.242 81.127c16.308-19.711 27.769-46.482 27.194-73.75-.097-4.579-4.274-7.979-8.802-7.288-23.927 3.656-50.674 18.641-67.23 38.024-15.259 17.643-28.801 45.061-27.783 72.23.153 4.094 3.612 7.357 7.707 7.241 26.409-.747 52.482-16.561 68.914-36.457" style="fill:#d6d6d8"/><path d="M276.227 110.343c-1.579-42.121 30.2-91.319 81.782-107.18a7.684 7.684 0 0 0-7.374-3.074c-23.927 3.656-50.674 18.641-67.23 38.024-15.259 17.643-28.802 45.062-27.783 72.23.153 4.094 3.612 7.357 7.707 7.241 5.121-.145 10.228-.862 15.255-2.06a7.516 7.516 0 0 1-2.357-5.181z" style="fill:#c2c2c4"/><path d="M459.704 372.704c-16.579-8.347-62.333-37.152-62.899-101.034-.484-52.293 34.216-82.7 48.977-93.317 3.504-2.521 4.274-7.454 1.61-10.851-12.265-15.635-26.606-25.664-40.382-32.165l.026-.004a137.735 137.735 0 0 0-7.284-3.144c-69.32-27.287-113.006 14.538-139.469 14.538-20.261 0-51.526-22.893-84.652-22.268-43.529.632-83.623 25.322-106.07 64.282-34.438 59.774-23.081 141.486 3.75 205.168l-.001.002a379.445 379.445 0 0 0 2.693 6.211l.002-.005c7.773 17.456 16.672 33.408 26.047 46.968 21.527 31.115 47.208 66.167 80.951 64.879 32.477-1.288 44.755-20.998 84.003-20.998 39.223 0 50.287 20.998 84.627 20.373 34.957-.663 57.093-31.753 78.473-63.016 18.817-27.47 29.198-54.282 33.358-66.353a7.593 7.593 0 0 0-3.76-9.266z" style="fill:#d6d6d8"/><path d="M122.657 447.086c-9.375-13.56-18.274-29.512-26.047-46.968l-.002.005a388.681 388.681 0 0 1-2.693-6.211l.001-.002c-26.666-63.288-38.311-145.183-3.75-205.168 20.731-35.98 56.515-59.773 96.154-63.702-3.534-.425-7.099-.647-10.688-.58-43.529.632-83.623 25.322-106.07 64.282-34.438 59.774-23.081 141.486 3.75 205.168l-.001.002a379.445 379.445 0 0 0 2.693 6.211l.002-.005c7.773 17.456 16.672 33.408 26.046 46.968 21.527 31.115 47.208 66.167 80.951 64.879 3.32-.132 6.42-.464 9.368-.94-28.308-5.741-50.644-36.375-69.714-63.939z" style="fill:#c2c2c4"/></svg>