<svg xmlns="http://www.w3.org/2000/svg" width="512" height="512"><linearGradient id="a" x1="0" x2="512" y1="256" y2="256" gradientUnits="userSpaceOnUse"><stop offset="0" stop-color="#ffdbed" stop-opacity="0"/><stop offset="1" stop-color="#ffdbed"/></linearGradient><path fill="url(#a)" d="M418.32 2.5c-55.666-9.521-178.298 12.183-200.004 105.017-14.431 61.722-14.007 112.075-50.427 113.02-21.67.562-32.97-44.31-62.889-48.001-39.047-4.817-66.145 27.695-83.057 57.138-37.205 64.772-25.571 174.918 23.354 228.632 118.488 130.086 259.197-5.952 319.358-112.309 38.585-68.213 125.637-123.352 143.767-200.248C523.599 81.373 489.919 14.746 418.32 2.5z"/><path fill="#2626bc" d="M455.47 452.133H56.53c-8.284 0-15-6.716-15-15V122.867c0-8.284 6.716-15 15-15h398.94c8.284 0 15 6.716 15 15v314.266c0 8.285-6.715 15-15 15z" opacity=".1"/><path fill="#fff" d="M470.47 98.87v314.26c0 8.29-6.72 15-15 15H56.53c-8.28 0-15-6.71-15-15V98.87c0-8.29 6.72-15 15-15h398.94c8.28 0 15 6.71 15 15z"/><path fill="#ffa8cf" d="M470.47 351.51v61.62c0 8.29-6.72 15-15 15H56.53c-8.28 0-15-6.71-15-15v-20.02c23.98-1.18 56.21-7.32 78.89-29.06 40.53-38.86 78.11-30.67 138.3 14.65s62.72-103.35 131.99-65.34c33.71 18.5 60.81 30.6 79.76 38.15z"/><path fill="#9fb0fe" d="M470.47 280.53v132.6c0 8.29-6.72 15-15 15H56.53c-8.28 0-15-6.71-15-15v-52.35c25.7-3.02 63.37-1.84 102.79 18.81 70.97 37.16 100.32-57.44 175.18-28.72 63.4 24.32 86.03-62.72 150.97-70.34z"/><path fill="#6583fe" d="M470.47 153.18V98.867c0-8.284-6.716-15-15-15H56.53c-8.284 0-15 6.716-15 15v54.313z"/><path fill="#2626bc" d="M455.47 433.133H56.53c-11.028 0-20-8.972-20-20V98.867c0-11.028 8.972-20 20-20h398.94c11.028 0 20 8.972 20 20v314.266c0 11.028-8.972 20-20 20zM56.53 88.867c-5.514 0-10 4.486-10 10v314.266c0 5.514 4.486 10 10 10h398.94c5.514 0 10-4.486 10-10V98.867c0-5.514-4.486-10-10-10z"/><circle cx="85.623" cy="120.768" r="10.901" fill="#ff5ba8"/><circle cx="120.424" cy="120.768" r="10.901" fill="#fff"/><circle cx="155.224" cy="120.768" r="10.901" fill="#02ffb3"/><path fill="#d2deff" d="M432.277 133.015H296.119V108.52h136.159a5 5 0 0 1 5 5v14.496a5 5 0 0 1-5.001 4.999z"/><path fill="#fff" d="M296.789 108.831c-5.286-5.286-13.887-5.286-19.173 0s-5.286 13.887 0 19.173c4.037 4.037 10.003 4.98 14.953 2.852l4.348 4.348a5.001 5.001 0 0 0 7.071-7.071l-4.348-4.348c2.129-4.951 1.186-10.917-2.851-14.954zm-12.102 7.071c1.387-1.387 3.644-1.387 5.031 0s1.387 3.644 0 5.031-3.644 1.387-5.031 0-1.387-3.644 0-5.031z"/><path fill="#ffa8cf" d="M281.578 205.134h-97.757c-6.022 0-10.904-4.882-10.904-10.904s4.882-10.904 10.904-10.904h97.757c6.022 0 10.904 4.882 10.904 10.904s-4.882 10.904-10.904 10.904z"/><path fill="#9fb0fe" d="M397.696 205.134h-46.757c-6.022 0-10.904-4.882-10.904-10.904s4.882-10.904 10.904-10.904h46.757c6.022 0 10.904 4.882 10.904 10.904-.001 6.022-4.883 10.904-10.904 10.904z"/><path fill="#ff7eb8" d="M308.011 212.699a4.998 4.998 0 0 1-4.388-7.388l14.078-25.897a4.995 4.995 0 0 1 6.78-2.005 4.998 4.998 0 0 1 2.005 6.78l-14.078 25.897a4.997 4.997 0 0 1-4.397 2.613z"/><g fill="#6583fe"><path d="M186.011 234.84h-5.332c-6.508 0-11.803 5.295-11.803 11.803V263.1c0 6.508 5.295 11.802 11.803 11.802h5.332c6.508 0 11.803-5.294 11.803-11.802v-16.457c-.001-6.508-5.296-11.803-11.803-11.803zm1.802 28.26c0 .993-.809 1.802-1.803 1.802h-5.332a1.805 1.805 0 0 1-1.803-1.802v-16.457c0-.994.809-1.803 1.803-1.803h5.332c.994 0 1.803.809 1.803 1.803zM227.491 264.462h-5.184c3.195-3.311 6.24-7.032 7.593-10.307 1.887-4.564 1.447-9.632-1.176-13.555-2.448-3.66-6.42-5.76-10.899-5.76-7.412 0-13.442 6.03-13.442 13.442a5 5 0 1 0 10 0 3.446 3.446 0 0 1 3.442-3.442c1.131 0 2.002.443 2.587 1.318.752 1.125.847 2.725.247 4.176-1.561 3.776-9.363 11.178-14.406 15.228a5 5 0 0 0 3.13 8.9h18.108a5 5 0 1 0 0-10z"/></g><path fill="#6583fe" d="M125.491 262.563H104.81a5 5 0 0 0 0 10h20.681a5 5 0 0 0 0-10z"/><path fill="#9fb0fe" d="M227.491 282.836H104.81a5 5 0 0 0 0 10h122.681a5 5 0 0 0 0-10z"/><g fill="#ff7eb8"><path d="M366.96 234.62h-5.332c-6.508 0-11.803 5.295-11.803 11.803v16.457c0 6.508 5.295 11.803 11.803 11.803h5.332c6.508 0 11.802-5.295 11.802-11.803v-16.457c0-6.508-5.295-11.803-11.802-11.803zm1.802 28.26c0 .994-.809 1.803-1.802 1.803h-5.332a1.805 1.805 0 0 1-1.803-1.803v-16.457c0-.994.809-1.803 1.803-1.803h5.332c.994 0 1.802.809 1.802 1.803zM412.19 247.135c0-6.9-5.614-12.515-12.515-12.515h-9.395a5 5 0 1 0 0 10h9.395c1.387 0 2.515 1.128 2.515 2.515s-1.128 2.516-2.515 2.516h-9.395a5 5 0 1 0 0 10h9.395c1.387 0 2.515 1.129 2.515 2.516s-1.128 2.516-2.515 2.516h-9.395a5 5 0 1 0 0 10h9.395c6.901 0 12.515-5.614 12.515-12.516 0-2.822-.95-5.42-2.531-7.516a12.44 12.44 0 0 0 2.531-7.516z"/></g><path fill="#ff7eb8" d="M305.19 262.563h-20.681a5 5 0 0 0 0 10h20.681a5 5 0 0 0 0-10z"/><path fill="#9fb0fe" d="M407.19 282.836H284.509a5 5 0 0 0 0 10H407.19a5 5 0 0 0 0-10z"/><path fill="#fff" d="M256.228 367.198h-32.681a5 5 0 0 0 0 10h32.681a5 5 0 0 0 0-10z"/><circle cx="223.549" cy="356.497" r="5.002" fill="#ff5ba8"/><path fill="#fff" d="M422.961 341.496H390.28a5 5 0 0 0 0 10h32.681a5 5 0 0 0 0-10z"/><circle cx="390.282" cy="330.796" r="5.002" fill="#ff5ba8"/><path fill="#01eca5" d="M204.383 51.827c-7.88 0-14.292-6.411-14.292-14.291 0-7.881 6.411-14.292 14.292-14.292 7.88 0 14.291 6.411 14.291 14.292 0 7.88-6.411 14.291-14.291 14.291zm0-18.583c-2.366 0-4.292 1.926-4.292 4.292s1.925 4.291 4.292 4.291 4.291-1.925 4.291-4.291-1.925-4.292-4.291-4.292z"/><path fill="#ff5ba8" d="M159.876 64.119c-7.88 0-14.292-6.411-14.292-14.292 0-7.88 6.411-14.291 14.292-14.291 7.88 0 14.291 6.411 14.291 14.291 0 7.881-6.411 14.292-14.291 14.292zm0-18.583c-2.366 0-4.292 1.925-4.292 4.291s1.925 4.292 4.292 4.292 4.291-1.926 4.291-4.292-1.924-4.291-4.291-4.291z"/><path fill="#01eca5" d="M374.317 482.421a5 5 0 0 1-5-5c0-3.309-2.691-6-6-6a5 5 0 1 1 0-10c3.309 0 6-2.691 6-6a5 5 0 1 1 10 0c0 3.309 2.691 6 6 6a5 5 0 1 1 0 10c-3.309 0-6 2.691-6 6a5 5 0 0 1-5 5z"/><path fill="#ff5ba8" d="M439.765 53.827a5 5 0 0 1-5-5c0-3.309-2.691-6-6-6a5 5 0 1 1 0-10c3.309 0 6-2.691 6-6a5 5 0 1 1 10 0c0 3.309 2.691 6 6 6a5 5 0 1 1 0 10c-3.309 0-6 2.691-6 6a5 5 0 0 1-5 5z"/><path fill="#6583fe" d="M310.19 493.421a5 5 0 0 1-5-5c0-3.309-2.692-6-6-6a5 5 0 1 1 0-10c3.309 0 6-2.691 6-6a5 5 0 1 1 10 0c0 3.309 2.691 6 6 6a5 5 0 1 1 0 10c-3.308 0-6 2.691-6 6a5 5 0 0 1-5 5z"/></svg>