<svg xmlns="http://www.w3.org/2000/svg" id="Capa_1" data-name="Capa 1" viewBox="0 0 511.13 499.1"><defs><style>.cls-1{fill:#004999}.cls-2{fill:#e43c5c}</style></defs><path d="M0 320.62c5.52-3 11.13-6 16.53-9.1q33.93-19.5 67.79-39.1c1.57-.91 3.17-1.78 5.08-2.84l7.44 12.8c-3.65 2.15-7 4.18-10.49 6.16q-33.89 19.58-67.81 39.08c-2.63 1.5-3.65 3.13-3.63 6.21q.18 46.9 0 93.81a5.8 5.8 0 0 0 3.41 5.85q40.88 23.4 81.58 47.1c2.53 1.47 4.29 1.27 6.7-.13q39.44-22.92 79-45.64c1.57-.9 3.17-1.73 5.28-2.88l7.45 12.83-22.74 13.13c-22.88 13.2-45.79 26.36-68.59 39.69-2.83 1.66-4.82 1.63-7.64 0q-46.34-26.97-92.81-53.67c-2.15-1.24-4.36-2.37-6.55-3.55Z" class="cls-1"/><path d="M362.04 394.21v15c-8.93 0-17.69.15-26.44-.08-3.27-.08-4.84.86-6.26 4-4.66 10.24-12.85 15.81-24.19 16.39-4 .2-8-.11-12 .14-15.45.95-26.32-5.32-31.86-19.91-4.1-1.18-6.18.08-8 4.08-4.2 9.28-11.73 14.88-22 15.7a139.12 139.12 0 0 1-21.41.1c-10.87-.81-18.58-6.77-23-16.67-1.22-2.77-2.63-3.59-5.49-3.53-8.94.16-17.89.06-27.15.06v-15c8.47 0 16.89-.26 25.28.12 4.24.19 6.26-1 8.12-5 4.33-9.23 12-14.58 22.28-15.3a161.63 161.63 0 0 1 19.93-.13c11.33.62 19.11 6.64 24.1 16.72a6.62 6.62 0 0 0 4.39 3.26c1.23.13 3.3-1.61 4-3 4.56-9.86 12-16 22.82-17a116 116 0 0 1 21.41-.16c10.76.95 18.63 6.73 22.95 16.72 1.2 2.75 2.57 3.65 5.52 3.58 8.8-.23 17.61-.09 27-.09Zm-48-.17c-7.49-8-30.86-7.5-35.17.17l7.26.41v14.54l-7.85.54c7.42 7.33 30 7 35.24-.14l-7.68-.49v-14.45Zm-111.27.28 7.59.33v14.64l-7.69.4c6.36 7.7 29.42 7.56 35.21 0l-7.8-.5v-14.57l7.82-.39c-5.84-7.54-29.01-7.53-35.09.09ZM297.13 149.62l13-7.34c4.45 7.73 8.88 15.12 13 22.7 1.61 3 3.26 4.21 6.92 3.87 11.67-1.07 20.66 3.73 26.76 13.75q4.14 6.81 7.9 13.84c5.63 10.56 4.78 20.79-2.1 30.47-1.33 1.88-2.88 3.59-.75 5.49 1.25 1.12 3.23 2.19 4.78 2.07 12.59-1 21.95 3.93 28.31 14.71 2.61 4.44 5.26 8.87 7.6 13.45 5.23 10.23 4.61 20.28-2.09 29.59-2 2.79-2 4.6-.3 7.41 4.56 7.5 8.76 15.21 13.34 23.24l-12.95 7.46c-4.66-8.14-9.16-15.86-13.49-23.67-1.34-2.41-2.65-3.44-5.77-3.15-12.47 1.17-21.92-3.91-28.17-14.83-1.73-3-3.48-6-5.21-9.07-8.17-14.28-7.7-23.54 1.92-36.93-.59-4.29-3.05-5.23-7.25-4.9-11.81.84-20.67-4.16-26.73-14.16-2-3.27-3.67-6.71-5.72-9.94-8.09-12.77-7.62-25 2.33-37.09Zm23.75 42c-3.4 9.42 8.07 29.21 17.6 30.78l-3.52-7.15 12.54-7.15c1.59 2.4 2.94 4.41 4.37 6.57 3.82-9-8.3-29.87-17.48-30.32l3.65 7.09-12.68 7.18c-1.54-2.38-2.85-4.43-4.52-7Zm51.61 89.43 12.64-7.22 4.38 6.73c3.2-9.56-8.13-29.34-17.43-30.56 1.16 2.46 2.24 4.73 3.42 7.24l-12.58 7.11-4.5-6.84c-3.19 9.71 8.16 29.11 17.71 30.68-1.2-2.33-2.31-4.49-3.68-7.17ZM111.06 330.21l-13-7.41c4.58-8 8.92-15.79 13.5-23.44 1.55-2.59 1.62-4.31-.32-7-6.76-9.26-7.52-19.33-2.35-29.59 2.62-5.18 5.56-10.21 8.66-15.12 6.14-9.75 15.12-14.1 26.59-13.21 2.36.18 5 .9 5.59-2.25a8.3 8.3 0 0 0-1.07-5.52c-6.57-9.94-7.23-20.11-1.67-30.61 2.4-4.55 5-9 7.67-13.4 6.06-10 15-14.93 26.67-13.93 3.81.33 5.59-.86 7.29-4.06 3.95-7.46 8.31-14.7 12.82-22.56l12.94 7.51c-4.58 8-8.81 15.71-13.33 23.22-1.57 2.61-1.65 4.32.26 7 6.87 9.46 7.45 19.66 2.16 30.05-2.4 4.73-5.14 9.31-7.89 13.85-6.18 10.18-15.26 14.76-27.17 14.22a7.32 7.32 0 0 0-5.52 2.3c-.74 1 .08 3.86 1.05 5.33 6.29 9.57 7.3 19.44 2.06 29.7-2.5 4.87-5.28 9.61-8.12 14.29-6.18 10.19-15.34 15-27.18 13.93-3.51-.32-5 .89-6.47 3.65-4.1 7.52-8.52 14.94-13.17 23.05Zm28.53-80.32c-9.66 1.4-21.31 21.79-17.51 30.42l4.26-6.5 12.67 7.22c-1.31 2.59-2.45 4.82-3.83 7.56 10.54-3 21.37-22.45 17.63-30.88l-4.38 6.68-12.59-7.27ZM163.98 208l12.61 7.27c-1.24 2.48-2.39 4.75-3.62 7.2 9.6-1.67 20.92-21.12 17.63-30.59l-4.55 6.74-12.59-7.26c1.36-2.68 2.48-4.9 3.82-7.56-10 2.41-20.74 21.32-17.7 30.92Z" class="cls-2"/><path d="m314.43 446.01 7.42-12.78 62.92 36.25c6.77 3.9 13.45 8 20.35 11.61a7 7 0 0 0 5.75 0q41.33-23.61 82.41-47.66a6.81 6.81 0 0 0 2.69-5c.15-31.44.05-62.88.17-94.31 0-3.16-1.22-4.66-3.79-6.14q-36.56-20.91-73-42.05c-1.42-.83-2.82-1.7-4.69-2.82 2.49-4.3 4.86-8.38 7.43-12.83 10 5.74 19.62 11.26 29.23 16.8 18.71 10.79 37.38 21.65 56.15 32.33a6.22 6.22 0 0 1 3.66 6.21q-.15 55.39 0 110.77c0 3-.8 4.74-3.51 6.3-32.14 18.44-64.18 37-96.32 55.48-1.53.87-4.29 1.26-5.67.47q-45-25.65-89.88-51.67a15.58 15.58 0 0 1-1.32-.96ZM358.44 160.53h-14.57v-6.09c0-27.1-.09-54.21.09-81.31 0-4.14-1.09-6.52-4.83-8.65q-39.64-22.51-79-45.56c-3.11-1.81-5.35-2-8.54-.11q-40 23.36-80.29 46.32c-2.85 1.62-3.75 3.44-3.74 6.66.14 27.6.08 55.21.08 82.81v5.79h-14.72c-.09-1.6-.25-3.05-.25-4.51 0-30.93 0-61.86-.09-92.79 0-3.23.92-5 3.79-6.62q48-27.48 95.81-55.31c2.62-1.52 4.5-1.57 7.16 0 31.88 18.54 63.86 36.9 95.71 55.49 1.75 1 3.65 3.64 3.66 5.52.23 31.59.17 63.19.14 94.79a32.16 32.16 0 0 1-.41 3.57ZM182.49 343.47c-22.47 13-44.27 25.67-66.24 38.08-4.08 2.3-5.76 4.68-5.7 9.58.32 23.61.15 47.22.15 70.84v5.65H95.97c-.09-1.8-.25-3.55-.25-5.3 0-24.28-.09-48.56.08-72.84 0-3.48-1.16-5.3-4.1-7-21.07-12-42-24.17-63-36.3-1.56-.9-3.07-1.89-4.81-3 2.54-4.38 4.92-8.51 7.43-12.83 22.63 13.06 45 25.86 67.16 38.88 3.4 2 5.9 2.15 9.41.08 20.75-12.24 41.66-24.19 62.52-36.23 1.42-.82 2.86-1.61 4.71-2.65Z" class="cls-1"/><path d="M183.84 68.08c22.5 13 44.57 25.6 66.47 38.49 3.88 2.29 6.72 2.53 10.75.14 20.59-12.2 41.38-24 62.11-36 1.28-.74 2.58-1.45 4.43-2.48l7.47 12.73c-1.82 1.12-3.31 2.08-4.85 3-20.71 12-41.37 24-62.21 35.8-3.76 2.11-4.83 4.45-4.79 8.58.2 23.78.09 47.57.09 71.36v5.68h-15v-5.8c0-24-.1-47.91.11-71.86 0-3.91-1.3-5.9-4.58-7.77-22.37-12.73-44.63-25.66-67.43-38.82ZM328.57 343.86l7.44-12.78c1.88 1.05 3.46 1.91 5 2.8 21 12.13 42.06 24.19 63 36.46 3 1.76 5.15 1.57 8.05-.13 20.78-12.19 41.67-24.19 62.53-36.25 1.57-.91 3.17-1.76 5.23-2.89 2.48 4.26 4.86 8.36 7.47 12.83-10.33 6-20.35 11.8-30.39 17.6-12.65 7.32-25.27 14.71-38 21.88a6.18 6.18 0 0 0-3.61 6.25c.13 24.29.08 48.57.09 72.86v5.63h-15v-5.29c0-24.28-.09-48.57.06-72.85 0-3.47-1.12-5.28-4.1-7-21.09-12-42.06-24.18-63.07-36.31-1.42-.8-2.81-1.68-4.7-2.81Z" class="cls-1"/><path d="m289.63 200.52 7.5 12.92c-13.48 7.79-26.52 15.38-39.65 22.82a4.36 4.36 0 0 1-3.63-.15c-13.13-7.45-26.18-15-39.49-22.7 2.58-4.47 5-8.59 7.48-13 10.48 6 20.59 11.75 30.56 17.7a5.69 5.69 0 0 0 6.74 0c9.99-5.89 20.05-11.58 30.49-17.59ZM158.57 310.79c2.55-4.41 4.85-8.39 7.45-12.92 5.34 3.06 10.45 6 15.56 8.91 7.18 4.14 14.42 8.19 21.48 12.53 1.43.88 3.09 2.86 3.12 4.35.22 12.78.09 25.56 0 38.34a5.56 5.56 0 0 1-.56 1.57h-14.28c0-10-.15-19.74.08-29.47.07-3.27-1-5-3.84-6.62-9.57-5.29-18.97-10.86-29.01-16.69ZM345.94 298.55c2.36 4.12 4.64 8.12 7.13 12.48-10 5.77-19.52 11.45-29.23 16.81-3.19 1.75-4.38 3.78-4.26 7.43.28 8.76.09 17.54.09 26.61h-15v-20.95c0-6.3-1.92-13.79.81-18.58s10.16-6.9 15.59-10.09c7.73-4.53 15.52-9 23.29-13.44a6.87 6.87 0 0 1 1.58-.27ZM24.97 410.31h15.16c-2.35 6.91 3 8.52 7.17 10.93 13.07 7.53 26.15 15 39.81 22.89l-7.39 12.91c-2.47-1.37-4.74-2.6-7-3.88-14.38-8.26-28.7-16.64-43.18-24.72-3.48-1.93-5.1-4.1-4.65-8.12a94.08 94.08 0 0 0 .08-10.01ZM244.65 34.9a8.17 8.17 0 0 1 1-.9c9.68-6.31 9.67-6.28 19.55-.56 11.49 6.65 23 13.25 34.5 19.9 1.71 1 3.35 2.08 5.33 3.33l-7.28 12.78c-2.42-1.36-4.68-2.6-6.92-3.89-10.36-6-20.65-12-31.1-17.82-2.11-1.16-4.83-1.21-7.27-1.77l-.68 1.26ZM436.7 454.74l-7.47-12.93c12.85-7.45 25.5-14.67 38-22.13 2-1.17 3.31-3.39 5.93-6.18h12.97c0 3.83.12 7.44-.08 11a3.86 3.86 0 0 1-1.7 2.66c-15.77 9.21-31.55 18.29-47.65 27.58ZM230.33 60.05l-7.5-12.91 12.91-7.52 7.53 12.91ZM221.63 65.06l-12.92 7.56c-2.56-4.42-4.93-8.49-7.48-12.9l12.9-7.56ZM39.59 374.9H25.26v-14.56h14.33ZM485.67 377.96H471.4v-14.44h14.27ZM39.81 385.53v14.21H25.26v-14.21ZM485.73 402.97H471.4v-14.35h14.33Z" class="cls-1"/></svg>