<svg xmlns="http://www.w3.org/2000/svg" xml:space="preserve" viewBox="0 0 62 62"><switch><g><path fill="none" stroke="#1D1D1B" stroke-miterlimit="10" stroke-width=".001" d="M0 0h62v62H0z"/><g fill="#3F3F3F"><path d="M52.222 44.265c-.256.127-.518.24-.765.383-2.486 1.433-4.97 2.87-7.454 4.309-.191.111-.344.202-.593.056-2.455-1.432-4.92-2.846-7.383-4.267-.034-.02-.063-.05-.125-.101l.597-1.045c.136.071.256.13.37.196 2.153 1.24 4.307 2.475 6.453 3.726.244.142.418.156.672.007a766.932 766.932 0 0 1 6.666-3.85c.252-.144.325-.308.324-.587-.011-2.555-.014-5.11 0-7.666.002-.31-.11-.461-.366-.607-2.001-1.141-3.995-2.297-5.99-3.448-.13-.075-.256-.154-.407-.245l.613-1.071 7.388 4.264v9.946z"/><path d="M39.847 40.349v1.249c-.734 0-1.448.006-2.162-.004-.267-.004-.429.036-.56.333-.378.853-1.067 1.315-2.01 1.355-.468.02-.938.016-1.408.006-.997-.02-1.697-.508-2.112-1.402-.083-.18-.157-.343-.374-.268-.128.044-.276.148-.333.265-.413.856-1.07 1.358-2.027 1.417-.482.03-.967.037-1.449.016-1.118-.049-1.842-.648-2.24-1.705h-2.577v-1.235c.753 0 1.494-.01 2.234.005.252.006.374-.06.486-.31.374-.833 1.029-1.322 1.955-1.378a13.683 13.683 0 0 1 1.613-.005c.941.055 1.585.558 1.998 1.394.061.125.236.253.367.264.103.009.27-.14.324-.257.381-.817 1.003-1.327 1.9-1.406a9.977 9.977 0 0 1 1.9.012c.83.087 1.425.574 1.762 1.333.115.26.246.337.521.328.716-.022 1.434-.007 2.192-.007zm-6.943 1.27c.564.633 2.562.603 2.889-.001l-.62-.04v-1.194c.224-.02.432-.036.664-.056-.532-.646-2.461-.629-2.912.02l.623.03v1.214l-.644.028zm-3.377-1.24c-.37-.66-2.427-.67-2.887-.02l.612.028v1.21l-.645.043c.577.64 2.498.613 2.923-.011l-.648-.038v-1.212h.645zM44.114 34.42l-1.077.62c-.356-.62-.721-1.215-1.04-1.834-.161-.31-.333-.416-.696-.389-.935.07-1.655-.342-2.146-1.138a18.994 18.994 0 0 1-.657-1.15c-.458-.874-.395-1.718.154-2.54.079-.12.128-.345.067-.445-.065-.108-.28-.183-.425-.175-1.043.058-1.816-.36-2.33-1.265-.19-.336-.388-.668-.573-1.007-.492-.903-.432-1.777.18-2.597.132-.176.132-.29.026-.468-.385-.65-.753-1.31-1.142-1.992l1.071-.617c.35.606.705 1.189 1.025 1.79.165.312.33.455.726.418.865-.08 1.565.288 2.042 1.015.294.449.565.917.8 1.4.42.861.293 1.681-.255 2.457-.068.096-.101.295-.046.378.07.107.25.212.373.202 1.101-.097 1.896.347 2.427 1.302.18.325.38.64.554.97.47.888.422 1.754-.172 2.566-.137.188-.148.315-.032.51.381.638.744 1.288 1.146 1.989zm-7.315-10.308-.378-.592c-.269.82.705 2.47 1.463 2.549l-.293-.578 1.049-.601.367.562c.294-.792-.727-2.534-1.458-2.518l.308.57-1.058.608zm5.35 6.828c.22-.902-.755-2.545-1.465-2.543l.29.573-1.05.598-.364-.56c-.31.76.705 2.486 1.448 2.512l-.297-.567 1.051-.603c.129.196.24.364.387.59zM19.006 35.036l-1.079-.617c.384-.668.744-1.316 1.125-1.951.131-.219.123-.362-.034-.578-.56-.77-.619-1.607-.189-2.457.218-.43.462-.849.72-1.256.512-.809 1.258-1.156 2.211-1.102a.689.689 0 0 0 .444-.152c.199-.17.045-.33-.069-.494-.554-.798-.607-1.638-.16-2.499.202-.391.426-.773.655-1.15.505-.829 1.248-1.234 2.219-1.15.293.025.444-.054.58-.308.338-.629.704-1.243 1.082-1.903l1.077.615c-.328.576-.63 1.143-.97 1.686-.22.35-.284.61-.008 1.008.49.709.479 1.508.085 2.28-.2.392-.429.771-.653 1.15-.512.868-1.274 1.27-2.279 1.2-.197-.014-.419-.06-.463.197a.693.693 0 0 0 .101.454c.514.78.599 1.59.185 2.43-.194.396-.425.774-.649 1.154-.526.896-1.31 1.32-2.347 1.22-.234-.022-.344.04-.452.237-.357.652-.734 1.293-1.132 1.986zm1.996-3.447c.901-.283 1.794-1.904 1.465-2.568l-.355.549-1.045-.603.303-.607c-.812.142-1.777 1.85-1.442 2.522l.35-.533 1.048.606-.324.634zm3.143-5.504c.79-.124 1.73-1.73 1.47-2.545l-.38.569-1.044-.602.31-.623c-.843.187-1.788 1.883-1.436 2.533l.334-.533 1.051.613-.305.588z"/><path d="m25.638 43.482.6 1.043c-.128.086-.235.164-.35.23-2.4 1.387-4.805 2.77-7.202 4.165-.247.144-.422.144-.67 0a1278.432 1278.432 0 0 0-7.923-4.573c-.235-.134-.315-.28-.315-.55.011-3.052.008-6.105.006-9.157 0-.21 0-.373.237-.507 2.337-1.333 4.663-2.685 6.993-4.03.058-.033.12-.057.2-.093l.608 1.046c-.132.082-.253.163-.379.236-2.03 1.174-4.06 2.35-6.097 3.513-.23.133-.326.267-.325.544.013 2.583.011 5.166.002 7.75 0 .252.077.39.299.518a934.708 934.708 0 0 1 6.738 3.892c.224.13.378.118.594-.008 2.182-1.27 4.37-2.53 6.557-3.792.129-.074.263-.14.427-.227zM23.705 20.95h-1.224c-.007-.135-.02-.266-.02-.397 0-2.568.005-5.137-.007-7.705-.001-.273.087-.412.32-.546 2.645-1.515 5.285-3.04 7.92-4.573.246-.144.427-.136.667.004 2.624 1.525 5.252 3.04 7.883 4.554.217.125.35.248.348.537-.013 2.582-.008 5.164-.009 7.746 0 .121-.016.242-.026.377h-1.19c-.01-.157-.028-.315-.028-.472-.002-2.279-.007-4.557.006-6.835.002-.316-.09-.49-.37-.65a782.701 782.701 0 0 1-6.63-3.828c-.233-.136-.403-.139-.638-.002a884.098 884.098 0 0 1-6.704 3.865c-.24.138-.305.295-.304.558.01 2.292.006 4.584.006 6.876v.491z"/><path d="m24.317 35.057.62 1.068c-.15.09-.287.177-.427.258-1.72.993-3.437 1.992-5.165 2.972-.273.155-.38.316-.377.64.017 1.988.009 3.976.009 5.965v.483h-1.245v-.461c0-1.989-.01-3.977.01-5.965.002-.34-.117-.509-.401-.67-1.715-.974-3.42-1.967-5.127-2.954l-.454-.265.62-1.074 2.844 1.641c.944.544 1.892 1.082 2.83 1.639.218.13.377.127.597-.001 1.87-1.09 3.747-2.168 5.666-3.276zM24.434 14.334l.62-1.062 4.251 2.453c.454.262.918.509 1.359.791.253.163.445.16.71.005 1.737-1.02 3.485-2.02 5.23-3.025.118-.068.239-.13.391-.213l.608 1.05c-.137.087-.257.17-.383.244-1.732 1-3.462 2.007-5.201 2.994-.272.155-.382.316-.379.64.018 1.99.009 3.978.009 5.967v.483h-1.245v-.46c0-1.947-.015-3.895.012-5.842.006-.436-.143-.656-.511-.863-1.696-.952-3.375-1.935-5.06-2.908-.128-.075-.253-.156-.41-.254zM44.275 46.486h-1.244v-.467c0-1.975-.014-3.95.01-5.925.004-.378-.131-.557-.44-.732-1.836-1.04-3.66-2.102-5.534-3.184l.612-1.07c.153.083.284.151.411.225 1.745 1.006 3.492 2.009 5.231 3.026.242.141.423.148.668.004 1.725-1.012 3.46-2.009 5.192-3.01.13-.075.263-.148.44-.247l.62 1.05c-.131.084-.241.16-.356.226-1.755 1.016-3.507 2.038-5.27 3.04-.266.15-.351.317-.349.616.015 1.989.009 3.978.01 5.967v.481z"/><path d="m33.837 24.263.615 1.077c-.868.503-1.747.944-2.548 1.497-.635.438-1.13.436-1.764-.003-.802-.554-1.683-.994-2.555-1.498l.62-1.076c.828.478 1.637.92 2.419 1.406.305.19.521.17.815-.01.773-.476 1.57-.915 2.398-1.393zM22.952 33.422l.618-1.07c.455.26.893.507 1.329.758.585.336 1.172.668 1.748 1.018.113.07.256.212.257.322.02 1.1.012 2.201.012 3.34h-1.244c0-.816-.012-1.625.007-2.433.007-.273-.082-.419-.32-.55-.794-.439-1.574-.903-2.407-1.385zM38.507 32.405l.599 1.032c-.738.428-1.431.877-2.166 1.24-.492.243-.671.547-.623 1.09.054.615.012 1.238.012 1.89h-1.244v-.553c0-.829-.01-1.657.008-2.485.003-.136.088-.33.196-.395 1.017-.61 2.047-1.197 3.075-1.788.033-.02.078-.018.143-.03zM16.399 45.572c-1.475-.847-2.898-1.658-4.312-2.487-.112-.066-.205-.245-.218-.38-.032-.326-.01-.656-.01-1.01h1.262c-.177.525.194.675.534.868 1.113.63 2.218 1.274 3.36 1.931l-.616 1.078zM30.1 10.518c.545-.505 1.04-.6 1.707-.15 1.048.706 2.18 1.287 3.315 1.944l-.622 1.072c-1.067-.614-2.1-1.218-3.144-1.8-.176-.098-.403-.106-.606-.155l-.059.111-.591-1.022zM48.955 41.945h1.192c0 .314.013.614-.008.911-.006.087-.088.2-.168.246-1.293.756-2.591 1.504-3.92 2.271l-.628-1.07c1.04-.603 2.067-1.186 3.08-1.791.197-.117.345-.316.515-.477l-.063-.09zM28.912 12.604l-.622-1.07 1.068-.626.626 1.07-1.072.626zM26.492 12.567l1.074-.616.626 1.068-1.074.623-.626-1.075zM11.875 38.744v-1.199h1.204v1.2h-1.204zM50.117 39h-1.194v-1.189h1.194v1.19zM11.884 39.614h1.194v1.192h-1.194v-1.192zM50.11 41.084h-1.176v-1.206h1.177v1.206z"/></g></g></switch></svg>