<svg xmlns="http://www.w3.org/2000/svg" width="512" height="512"><linearGradient id="a" x1="23.821" x2="459.531" y1="345.893" y2="94.336" gradientUnits="userSpaceOnUse"><stop offset="0" stop-color="#dcfdee" stop-opacity="0"/><stop offset=".629" stop-color="#d2f3e4"/></linearGradient><path fill="url(#a)" d="M16.074 305.505c18.727 64.003 72.707 194.564 163.922 182.845 91.486-11.755 55.759-129.725 139.508-145.894 36.867-7.118 61.857 56.689 98.806 54.704 47.588-2.557 71.81-49.663 85.108-89.264 28.197-83.968-14.029-226.352-112.859-251.012-86.244-21.519-96.332 83.855-171.322 53.248-42.149-17.203-37.938-68.576-89.272-78.942C-25.333-.169-8.845 220.34 16.074 305.505z"/><path fill="#2626bc" d="M455.47 454.758H56.53c-8.284 0-15-6.716-15-15V125.491c0-8.284 6.716-15 15-15h398.94c8.284 0 15 6.716 15 15v314.266c0 8.285-6.715 15.001-15 15.001z" opacity=".1"/><path fill="#fff" d="M455.47 430.758H56.53c-8.284 0-15-6.716-15-15V101.491c0-8.284 6.716-15 15-15h398.94c8.284 0 15 6.716 15 15v314.266c0 8.285-6.715 15.001-15 15.001z"/><path fill="#9fb0fe" d="M455.47 86.491H208.819v344.266H455.47c8.284 0 15-6.716 15-15V101.491c0-8.284-6.715-15-15-15z"/><ellipse cx="336.908" cy="385.322" fill="#8399fe" rx="114.032" ry="10.847"/><path fill="#6583fe" d="M470.47 155.804v-54.313c0-8.284-6.716-15-15-15H56.53c-8.284 0-15 6.716-15 15v54.313z"/><path fill="#2626bc" d="M455.471 435.757H56.529c-11.028 0-20-8.972-20-20V101.492c0-11.028 8.972-20 20-20H455.47c11.028 0 20 8.972 20 20v314.266c.001 11.028-8.971 19.999-19.999 19.999zM56.529 91.492c-5.514 0-10 4.486-10 10v314.266c0 5.514 4.486 10 10 10H455.47c5.514 0 10-4.486 10-10V101.492c0-5.514-4.486-10-10-10z"/><circle cx="85.623" cy="123.392" r="10.901" fill="#ff5ba8"/><circle cx="120.424" cy="123.392" r="10.901" fill="#fff"/><circle cx="155.224" cy="123.392" r="10.901" fill="#02ffb3"/><path fill="#d2deff" d="M432.277 135.64H296.119v-24.496h136.159a5 5 0 0 1 5 5v14.496a5.001 5.001 0 0 1-5.001 5z"/><path fill="#fff" d="M296.789 111.456c-5.286-5.286-13.887-5.286-19.173 0s-5.286 13.887 0 19.173c4.037 4.037 10.003 4.98 14.953 2.852l4.348 4.348a5.001 5.001 0 0 0 7.071-7.071l-4.348-4.348c2.129-4.951 1.186-10.917-2.851-14.954zm-12.102 7.071c1.387-1.387 3.644-1.387 5.031 0s1.387 3.644 0 5.031-3.644 1.387-5.031 0a3.562 3.562 0 0 1 0-5.031z"/><path fill="#ff7eb8" d="M107.94 215.177H78.259a5 5 0 0 1 0-10h29.681a5 5 0 0 1 0 10z"/><path fill="#02ffb3" d="M146.94 232.634H78.259a5 5 0 0 1 0-10h68.681a5 5 0 0 1 0 10z"/><path fill="#8399fe" d="M176.94 287.997H78.259a5 5 0 0 1 0-10h98.681a5 5 0 0 1 0 10zM176.94 270.541H78.259a5 5 0 0 1 0-10h98.681a5 5 0 0 1 0 10zM176.94 305.454H78.259a5 5 0 0 1 0-10h98.681a5 5 0 0 1 0 10zM155.94 322.911H78.259a5 5 0 0 1 0-10h77.681a5 5 0 0 1 0 10z"/><path fill="#ff7eb8" d="M134.096 374.201H82.363a9.104 9.104 0 0 1 0-18.208h51.733a9.104 9.104 0 0 1 0 18.208z"/><path fill="#6583fe" d="M280.099 186.685h-14.681a5 5 0 0 1 0-10h14.681a5 5 0 0 1 0 10zM331.908 186.685h-14.681a5 5 0 0 1 0-10h14.681a5 5 0 0 1 0 10zM383.717 186.685h-14.681a5 5 0 0 1 0-10h14.681a5 5 0 0 1 0 10zM435.526 186.685h-14.681a5 5 0 0 1 0-10h14.681a5 5 0 0 1 0 10z"/><path fill="#4369fd" d="M371.766 378.496h-3.496v-42.801h-13.29v18.93a8.1 8.1 0 0 1-16.2 0v-18.93h-13.3v42.801h-3.49a4.764 4.764 0 0 0 0 9.528h49.776a4.764 4.764 0 0 0 0-9.528z"/><path fill="#6583fe" d="M428.698 344.949h-163.64a5 5 0 0 1-5-5v-98.215a5 5 0 0 1 5-5h163.64a5 5 0 0 1 5 5v98.215a5 5 0 0 1-5 5z"/><path fill="#97ffd2" d="M433.698 327.815v-86.081a5 5 0 0 0-5-5h-163.64a5 5 0 0 0-5 5v86.081z"/><path fill="#02ffb3" d="M331.373 262.638h-39.14c-5.468 0-9.9-4.432-9.9-9.9v-6.103c0-5.468 4.432-9.9 9.9-9.9h39.14c5.468 0 9.9 4.432 9.9 9.9v6.103c0 5.467-4.432 9.9-9.9 9.9z"/><path fill="#4369fd" d="M281.267 389.087h-34.15a7 7 0 0 1-7-7v-66.789a7 7 0 0 1 7-7h34.15a7 7 0 0 1 7 7v66.789a7 7 0 0 1-7 7z"/><path fill="#97ffd2" d="M240.118 322.911h48.15v51.564h-48.15z"/><path fill="#ff5ba8" d="M331.373 251.418h-39.14c-5.468 0-9.9-4.432-9.9-9.9v-6.103c0-5.468 4.432-9.9 9.9-9.9h39.14c5.468 0 9.9 4.432 9.9 9.9v6.103c0 5.468-4.432 9.9-9.9 9.9z"/><path fill="#fff" d="M412.628 284.125h-26.895a4.999 4.999 0 0 1-3.535-8.535l13.447-13.448a5 5 0 0 1 7.07 7.071l-4.912 4.912h14.824a5 5 0 0 1 .001 10zM399.181 314.211a5 5 0 0 1-3.535-8.535l4.912-4.912h-14.824a5 5 0 1 1 0-10h26.895a4.999 4.999 0 0 1 3.535 8.535l-13.447 13.448a4.988 4.988 0 0 1-3.536 1.464z"/><path fill="#01eca5" d="M222.876 51.495c-7.88 0-14.291-6.411-14.291-14.291 0-7.881 6.411-14.292 14.291-14.292 7.881 0 14.292 6.411 14.292 14.292 0 7.879-6.411 14.291-14.292 14.291zm0-18.583c-2.366 0-4.291 1.926-4.291 4.292s1.925 4.291 4.291 4.291 4.292-1.925 4.292-4.291-1.926-4.292-4.292-4.292z"/><path fill="#6583fe" d="M73.622 485.045a5 5 0 0 1-5-5c0-3.309-2.691-6-6-6-2.762 0-5-2.238-5-5s2.238-5 5-5c3.309 0 6-2.691 6-6 0-2.762 2.238-5 5-5s5 2.238 5 5c0 3.309 2.691 6 6 6 2.762 0 5 2.238 5 5s-2.238 5-5 5c-3.309 0-6 2.691-6 6a5 5 0 0 1-5 5zM450.939 62.495a5 5 0 0 1-5-5c0-3.309-2.691-6-6-6-2.762 0-5-2.238-5-5s2.238-5 5-5c3.309 0 6-2.691 6-6 0-2.762 2.238-5 5-5s5 2.238 5 5c0 3.309 2.691 6 6 6 2.762 0 5 2.238 5 5s-2.238 5-5 5c-3.309 0-6 2.691-6 6a5 5 0 0 1-5 5z"/><g fill="#ff5ba8"><path d="M122.761 478.754a5 5 0 0 1-5-5c0-3.309-2.691-6-6-6-2.762 0-5-2.238-5-5s2.238-5 5-5c3.309 0 6-2.691 6-6 0-2.762 2.238-5 5-5s5 2.238 5 5c0 3.309 2.691 6 6 6 2.762 0 5 2.238 5 5s-2.238 5-5 5c-3.309 0-6 2.691-6 6a5 5 0 0 1-5 5zM272.8 65.452c-7.88 0-14.291-6.411-14.291-14.291 0-7.881 6.411-14.292 14.291-14.292 7.881 0 14.292 6.411 14.292 14.292 0 7.879-6.411 14.291-14.292 14.291zm0-18.583c-2.366 0-4.291 1.926-4.291 4.292s1.925 4.291 4.291 4.291 4.292-1.925 4.292-4.291-1.926-4.292-4.292-4.292z"/></g></svg>