<svg xmlns="http://www.w3.org/2000/svg" xml:space="preserve" style="enable-background:new 0 0 512 512" viewBox="0 0 512 512"><path d="m197.989 101.7-63.604-63.602C117.588 21 87.588 21 70.489 38.099L60.287 48.6c-.363.363-11.096 10.932-11.096 11.4-5.402 5.7-5.105 15 .597 20.4l105.901 105.899c5.401 6.006 15.597 6.002 21.002 0L197.989 165c17.113-16.522 18.156-45.774 0-63.3z" style="fill:#1689fc"/><path d="m473.688 377.978-63.6-63.6c-16.798-17.098-46.498-17.098-63.3 0l-10.499 10.801-10.8 10.499c-5.999 5.7-5.999 15.3 0 21L431.69 462.877c5.184 5.772 15.059 6.236 21.299 0l10.199-10.499 10.499-10.8c17.703-17.398 17.703-46.199.001-63.6z" style="fill:#136ef1"/><path d="m463.188 452.38-10.199 10.499c-81.899 73.801-177.601 56.1-231.599 1.8L47.689 290.4c-63.303-63.001-63.303-165.901 0-229.2.3 0 2.699-2.401 2.699-2.699l9.899-9.901 126.899 126.899-5.999 6.301-4.497 4.499c-9.602 10.501-17.402 17.1-17.402 31.8 0 9.3 3.6 17.701 9.902 24.3l50.098 50.101 50.098 50.679c12.902 12.9 35.402 12.9 48.303 0l7.8-7.5 10.8-10.499 126.899 127.2z" style="fill:#17ace8"/><path d="M511.788 255c0 19.799-30 19.799-30 0 0-62.1-25.203-118.2-65.999-159-40.803-40.801-96.899-66-159.001-66-19.797 0-19.797-30 0-30 70.203 0 134.099 28.5 180.3 74.7s74.7 110.099 74.7 180.3z" style="fill:#1de8f1"/><path d="M451.788 255c0 19.799-30 19.799-30 0 0-45.601-18.6-86.7-48.3-116.7-30-29.7-71.1-48.3-116.7-48.3-19.797 0-19.797-30 0-30 53.701 0 102.598 21.899 137.703 57.299 35.398 35.1 57.297 84 57.297 137.701z" style="fill:#1de8f1"/><path d="M391.788 255c0 19.799-30 19.799-30 0 0-28.801-11.7-55.201-30.901-74.101C311.991 161.7 285.587 150 256.788 150c-19.797 0-19.797-30 0-30 37.2 0 70.8 15 95.398 39.6 24.602 24.6 39.602 58.2 39.602 95.4z" style="fill:#1de8f1"/><path d="M331.788 255c0 19.799-30 19.799-30 0 0-12.601-5.098-23.701-13.198-31.8-8.101-8.101-19.204-13.2-31.802-13.2-19.797 0-19.797-30 0-30 20.698 0 39.602 8.399 53.101 21.899S331.788 234.3 331.788 255z" style="fill:#1de8f1"/><path d="M301.788 255c0-12.601-5.098-23.701-13.198-31.8l21.299-21.301c13.499 13.5 21.899 32.401 21.899 53.101 0 19.799-30 19.799-30 0zM361.788 255c0-28.801-11.7-55.201-30.901-74.101l21.299-21.299c24.602 24.6 39.602 58.2 39.602 95.4 0 19.799-30 19.799-30 0zM421.788 255c0-45.601-18.6-86.7-48.3-116.7l21.002-21c35.398 35.099 57.297 84 57.297 137.701.001 19.798-29.999 19.798-29.999-.001z" style="fill:#1bd9de"/><path d="m336.289 325.18 126.899 127.2-10.199 10.499c-81.899 73.801-177.601 56.1-231.599 1.8l-86.704-87.28v-.298l84.602-84.6 50.098 50.679c12.902 12.9 35.402 12.9 48.303 0l7.8-7.5 10.8-10.5z" style="fill:#1689fc"/><path d="M511.788 255c0 19.799-30 19.799-30 0 0-62.1-25.203-118.2-65.999-159l21.3-21.3c46.201 46.199 74.699 110.099 74.699 180.3z" style="fill:#1bd9de"/></svg>