<?xml version="1.0" encoding="utf-8"?>
<!-- Generator: Adobe Illustrator 26.0.1, SVG Export Plug-In . SVG Version: 6.00 Build 0)  -->
<svg version="1.1" id="Layer_1" xmlns="http://www.w3.org/2000/svg" xmlns:xlink="http://www.w3.org/1999/xlink" x="0px" y="0px"
	 viewBox="0 0 512 512" style="enable-background:new 0 0 512 512;" xml:space="preserve">
<style type="text/css">
	.st0{fill:#004999;}
	.st1{fill:#FFFFFF;}
</style>
<path class="st0" d="M256,512L256,512C114.6,512,0,397.4,0,256v0C0,114.6,114.6,0,256,0h0c141.4,0,256,114.6,256,256v0
	C512,397.4,397.4,512,256,512z"/>
<path class="st1" d="M130.8,359.5c0-1.1,0-1.8,0-2.5c0-17,0-34.1,0-51.1c0-1.4-0.4-2.3-1.5-3.3c-22-19.3-34.2-43.7-37.4-72.7
	c-1.7-15.4-0.6-30.6,4.5-45.3c8-23.2,22.6-41.3,42.6-55.3c21.5-15.1,45.6-22.6,71.7-24.5c46.6-3.5,91.6,23.4,113.3,60.3
	c12.7,21.7,17,44.9,12.8,69.6c-8.1,48-43.5,84-91.3,93.1c-15.4,2.9-30.8,2.7-46.3,1.3c-3.7-0.3-7.3-0.9-11-1.2
	c-1.1-0.1-2.3,0.2-3.2,0.7c-17.3,9.9-34.5,19.8-51.8,29.7C132.5,358.6,131.8,358.9,130.8,359.5z M150.6,330c0.9-0.6,1.4-0.9,2-1.2
	c10.1-6.7,20.1-13.3,30.2-19.9c0.7-0.5,1.6-0.9,2.4-0.9c6.3,0.6,12.7,1.4,19,1.9c13.8,1,27.6,1,41.1-2.1
	c30.2-7.1,52.9-23.8,65.4-52.5c10.6-24.5,11.2-49.5-0.6-73.9c-10.5-21.7-27.3-37.1-48.9-47.5c-17.2-8.3-35.3-11-54.2-9.1
	c-21.3,2.2-41,8.8-58.3,21.6c-37.8,27.9-46.1,71.2-29.7,109.1c6.7,15.6,17.4,28.1,30.3,38.9c1,0.8,1.4,1.6,1.4,2.9
	c0,10.1,0,20.3,0,30.4C150.6,328.3,150.6,329,150.6,330z"/>
<path class="st1" d="M348.2,418.4c-2-1.2-3.6-2.1-5.2-3.1c-16.1-9.8-32.1-19.6-48.1-29.5c-1.5-0.9-2.8-1.1-4.5-0.9
	c-20.6,2.9-40.8,2.3-60.6-4.8c-14.4-5.1-26.9-13.4-38.3-23.4c-2.5-2.2-5-4.6-7.4-6.9c-0.1-0.1-0.1-0.2-0.1-0.5c1,0,1.9,0.1,2.8,0.1
	c7.3-0.1,14.7-0.1,22-0.3c1.8,0,3.3,0.3,4.8,1.3c7.8,5.3,15.8,10.3,24.7,13.7c11.7,4.5,23.9,5.8,36.3,5c6.3-0.4,12.6-1.5,19-2.2
	c0.8-0.1,1.9,0.2,2.6,0.7c10.1,6.6,20.2,13.3,30.3,20c0.5,0.3,1.1,0.7,2,1.2c0-1,0-1.6,0-2.3c0-10.1,0-20.2,0-30.2
	c0-1.5,0.4-2.4,1.8-3.2c17.7-10.4,31.8-24.2,40.2-43.1c13-29.7,9.3-57.8-9.7-83.8c-2.8-3.8-4-7.1-3.4-11.9
	c0.9-6.5,0.7-13.1,0.9-19.6c0,0,0.4,0.2,0.7,0.4c18.3,15.8,31.2,35,36.3,58.8c6.1,28.1,0.3,54.1-15.7,77.8
	c-8,11.8-18.1,21.6-29.7,29.8c-1.2,0.8-1.6,1.6-1.6,3.1c0.1,17,0,34.1,0,51.1C348.2,416.5,348.2,417.2,348.2,418.4z"/>
<path class="st1" d="M229.6,217.3c0,8.2-6.7,14.7-15,14.7c-8.1-0.1-14.7-6.7-14.6-14.8c0.1-8.1,6.7-14.7,14.9-14.6
	C223,202.6,229.6,209.2,229.6,217.3z"/>
<path class="st1" d="M274,231.9c-8.2,0-14.8-6.6-14.8-14.7c0-8.1,6.6-14.7,14.8-14.7c8.2,0,14.9,6.6,14.9,14.8
	C288.8,225.5,282.2,232,274,231.9z"/>
<path class="st1" d="M155.4,231.9c-8.2,0-14.8-6.6-14.8-14.7c0-8.1,6.6-14.7,14.8-14.7c8.2,0,14.9,6.7,14.9,14.8
	C170.3,225.5,163.7,232,155.4,231.9z"/>
</svg>
