<svg xmlns="http://www.w3.org/2000/svg" xml:space="preserve" id="Layer_1" x="0" y="0" style="enable-background:new 0 0 512 512" version="1.1" viewBox="0 0 512 512"><style>.st1{fill:#fff}</style><path d="M256 512C114.6 512 0 397.4 0 256S114.6 0 256 0s256 114.6 256 256-114.6 256-256 256z" style="fill:#004999"/><path d="M130.8 359.5v-53.6c0-1.4-.4-2.3-1.5-3.3-22-19.3-34.2-43.7-37.4-72.7-1.7-15.4-.6-30.6 4.5-45.3 8-23.2 22.6-41.3 42.6-55.3 21.5-15.1 45.6-22.6 71.7-24.5 46.6-3.5 91.6 23.4 113.3 60.3 12.7 21.7 17 44.9 12.8 69.6-8.1 48-43.5 84-91.3 93.1-15.4 2.9-30.8 2.7-46.3 1.3-3.7-.3-7.3-.9-11-1.2-1.1-.1-2.3.2-3.2.7-17.3 9.9-34.5 19.8-51.8 29.7-.7.3-1.4.6-2.4 1.2zm19.8-29.5c.9-.6 1.4-.9 2-1.2 10.1-6.7 20.1-13.3 30.2-19.9.7-.5 1.6-.9 2.4-.9 6.3.6 12.7 1.4 19 1.9 13.8 1 27.6 1 41.1-2.1 30.2-7.1 52.9-23.8 65.4-52.5 10.6-24.5 11.2-49.5-.6-73.9-10.5-21.7-27.3-37.1-48.9-47.5-17.2-8.3-35.3-11-54.2-9.1-21.3 2.2-41 8.8-58.3 21.6-37.8 27.9-46.1 71.2-29.7 109.1 6.7 15.6 17.4 28.1 30.3 38.9 1 .8 1.4 1.6 1.4 2.9v30.4c-.1.6-.1 1.3-.1 2.3z" class="st1"/><path d="M348.2 418.4c-2-1.2-3.6-2.1-5.2-3.1-16.1-9.8-32.1-19.6-48.1-29.5-1.5-.9-2.8-1.1-4.5-.9-20.6 2.9-40.8 2.3-60.6-4.8-14.4-5.1-26.9-13.4-38.3-23.4-2.5-2.2-5-4.6-7.4-6.9-.1-.1-.1-.2-.1-.5 1 0 1.9.1 2.8.1 7.3-.1 14.7-.1 22-.3 1.8 0 3.3.3 4.8 1.3 7.8 5.3 15.8 10.3 24.7 13.7 11.7 4.5 23.9 5.8 36.3 5 6.3-.4 12.6-1.5 19-2.2.8-.1 1.9.2 2.6.7 10.1 6.6 20.2 13.3 30.3 20 .5.3 1.1.7 2 1.2v-32.5c0-1.5.4-2.4 1.8-3.2 17.7-10.4 31.8-24.2 40.2-43.1 13-29.7 9.3-57.8-9.7-83.8-2.8-3.8-4-7.1-3.4-11.9.9-6.5.7-13.1.9-19.6 0 0 .4.2.7.4 18.3 15.8 31.2 35 36.3 58.8 6.1 28.1.3 54.1-15.7 77.8-8 11.8-18.1 21.6-29.7 29.8-1.2.8-1.6 1.6-1.6 3.1.1 17 0 34.1 0 51.1-.1.8-.1 1.5-.1 2.7zM229.6 217.3c0 8.2-6.7 14.7-15 14.7-8.1-.1-14.7-6.7-14.6-14.8.1-8.1 6.7-14.7 14.9-14.6 8.1 0 14.7 6.6 14.7 14.7zM274 231.9c-8.2 0-14.8-6.6-14.8-14.7s6.6-14.7 14.8-14.7c8.2 0 14.9 6.6 14.9 14.8-.1 8.2-6.7 14.7-14.9 14.6zM155.4 231.9c-8.2 0-14.8-6.6-14.8-14.7s6.6-14.7 14.8-14.7c8.2 0 14.9 6.7 14.9 14.8 0 8.2-6.6 14.7-14.9 14.6z" class="st1"/></svg>