<svg xmlns="http://www.w3.org/2000/svg" xml:space="preserve" id="Capa_1" x="0" y="0" style="enable-background:new 0 0 512 512" version="1.1" viewBox="0 0 512 512"><style>.st0{fill:#004999}.st1{fill:#e43c5c}</style><path d="M77.7 511.7c-.7-.4-1.4-.8-2.1-1.1-12.1-4.3-18.8-13.5-18.8-26.4V162.5c0-1.7-.1-3.3.1-5 .4-4.2 3.6-7.2 7.5-7.2 3.9.1 7 3.1 7.3 7.4.1 1.6.1 3.3.1 5v318.2c0 12.2 3.5 15.8 15.6 15.8h337.7c11.7 0 15.4-3.7 15.4-15.5v-48.3c0-6.1 2.9-9.6 7.7-9.5 4.6.2 7.2 3.5 7.2 9.4v49.8c0 14.7-6 23.1-19.8 28.1-.4.1-.7.6-1.1.9-119 .1-237.9.1-356.8.1zM392.4 74.3c0 4.2.1 7.8 0 11.4-.4 15.4-11.9 27-26.8 27s-26.4-11.6-26.7-27.1c-.1-3.6 0-7.2 0-11.1h-56.1c0 3.8.1 7.5 0 11.1-.4 15.4-11.8 27-26.7 27.1-14.9 0-26.4-11.6-26.8-27-.1-3.6 0-7.2 0-11.1h-56.1c0 3.8.1 7.4 0 11-.4 15.5-11.8 27.1-26.7 27.1-15.1.1-26.6-11.7-26.9-27.4-.1-3.4 0-6.9 0-10.8-13.1 0-25.9-.3-38.6.1-5.5.2-9.3 5.4-9.3 11.7-.1 12 0 23.9 0 35.9 0 4.1-1.7 7.1-5.9 8-3.7.8-6.6-.6-8.2-4.1-.6-1.3-.8-2.9-.8-4.3-.1-12.1-.2-24.2 0-36.4.2-14.6 11.4-25.8 26-26 12.1-.2 24.2 0 36.9 0 0-9.6-.1-18.6.1-27.7.1-3.9.4-8 1.5-11.7C125.2 7.8 137.6.2 150 2c13.2 1.9 22.8 12.7 23.1 26.5.2 10.1 0 20.2 0 30.6h56.1V29.8c0-8.2 2.6-15.4 8.8-20.9 8.3-7.4 18-9.3 28.2-5 10.7 4.5 16.1 13 16.5 24.5.3 10.1.1 20.2.1 30.6h56.1V29.7c0-8.2 2.5-15.4 8.7-20.9 8.3-7.4 17.9-9.3 28.2-5 10.7 4.5 16.1 13 16.5 24.5.3 10.1.1 20.2.1 31h5.2c10.1 0 20.3-.1 30.4 0 16.1.1 27.2 11.2 27.3 27.2.1 17.6 0 35.2 0 52.8v252.5c0 8.1-2.3 11.6-7.6 11.5-5.2-.1-7.4-3.5-7.4-11.7V89.8c0-12.1-3.5-15.6-15.7-15.6-10.5.1-20.9.1-32.2.1zM134.6 57c0 9.1-.1 18.2 0 27.3.1 8.1 4.6 13.2 11.5 13.4 7.2.1 12-5.1 12.1-13.4.1-18.1.1-36.1 0-54.2 0-8.2-5-13.6-12-13.5-6.9.1-11.5 5.4-11.6 13.4-.1 9.1 0 18 0 27zm133.2 0c0-8.9.1-17.9 0-26.8-.1-8.2-5-13.6-12-13.5-6.9.1-11.5 5.4-11.6 13.4-.1 18.1-.1 36.1 0 54.2 0 8.1 4.6 13.2 11.5 13.4 7.2.1 12-5 12.1-13.4.1-9.1 0-18.2 0-27.3zm109.6.4c0-9.1.1-18.2 0-27.3-.1-8-4.7-13.3-11.6-13.4-7.1-.1-12 5.3-12 13.5-.1 18.1-.1 36.1 0 54.2 0 8.1 4.6 13.2 11.6 13.3 7.2.1 12-5.1 12-13.4.1-9 0-17.9 0-26.9z" class="st0"/><path d="M300.9 324.8c-25.9 0-51.8.1-77.6 0-13.1 0-22.2-7.5-24.4-19.6-2.2-11.9 6-24.1 17.9-26.5 2.1-.4 4.3-.7 6.4-.7 51.6 0 103.2-.1 154.8 0 14.2 0 24.4 9.6 24.7 22.6.3 13.4-9.4 23.8-23.1 24.1-15.4.3-30.9.1-46.3.1h-32.4zm-.5-15h74.7c1.8 0 3.7.1 5.5-.2 4.3-.7 6.8-3.4 7-7.8.2-4.4-2-7.3-6.2-8.4-1.7-.5-3.6-.5-5.4-.5H225.1c-2 0-4 .1-5.9.7-4 1.3-5.9 4.4-5.6 8.4.3 4 2.6 6.8 6.7 7.6 1.9.3 4 .3 6 .3 24.6-.1 49.4-.1 74.1-.1zM300.3 376.9c26 0 52.1-.1 78.1.1 17.3.1 28.5 15.7 22.8 31.3-3.5 9.6-12.2 15.4-23.8 15.4-18.1.1-36.2 0-54.2 0h-99.5c-13.2 0-22.4-7.3-24.8-19.2-2.6-13.4 7.1-26.6 20.8-27.3 10.3-.6 20.6-.2 30.8-.3h49.8zm.4 31.9h76.7c6.5 0 10.1-3.2 10.2-8.4.1-5.4-3.4-8.4-10-8.5H226.7c-1.7 0-3.3 0-5 .1-4.9.4-8.3 3.8-8.3 8.2-.1 4.2 3.1 7.8 7.6 8.4 1.6.2 3.3.2 5 .2h74.7zM300.3 225.9c-26.4 0-52.8.1-79.1 0-9.9-.1-18.3-6.5-21.4-15.7-3.1-9.1-.5-18.9 6.9-25.3 4.4-3.8 9.7-5.7 15.5-5.7 52.3 0 104.5-.1 156.8 0 13.6 0 23.7 10.4 23.6 23.7-.1 13-10.1 23-23.6 23.1-26.2 0-52.5-.1-78.7-.1zm0-14.9h75.1c1.7 0 3.3.1 5-.1 4.1-.6 6.6-3 7.1-7.1.5-4.3-1.3-7.5-5.5-8.9-2-.7-4.2-.7-6.4-.7H225.3c-2.1 0-4.4.1-6.4.7-4 1.2-5.9 4.4-5.6 8.4.3 4.2 2.9 7 7.2 7.7 1.6.2 3.3.1 5 .1 25.1-.1 49.9-.1 74.8-.1z" class="st0"/><path d="m138.8 202.2 37.7-45.3c.8-1 1.6-2.1 2.6-3 3.1-2.8 6.5-3.2 9.9-.7 3.2 2.4 3.8 6.6 1.3 10.2-2 2.8-4.3 5.4-6.6 8.1-12.8 15.4-25.6 30.9-38.5 46.3-5.6 6.7-10.6 6.3-15.2-1.2-3.9-6.3-7.8-12.7-11.7-19.1-3.1-5.1-2.6-9.3 1.3-11.8 4-2.6 8.2-1.1 11.5 4.1 2.6 4 5 8 7.7 12.4zM138.8 300.8c12.8-15.4 25.2-30.3 37.6-45.2.7-.9 1.4-1.8 2.2-2.7 3.2-3.3 7.5-3.7 10.7-.9 3 2.6 3.5 6.7.8 10.3-3.5 4.6-7.3 9-11 13.4-11.3 13.6-22.6 27.3-34 40.9-5.2 6.3-10.4 5.9-14.6-.9-4.1-6.6-8.2-13.2-12.2-19.9-2.9-4.8-2.3-8.9 1.3-11.4 3.9-2.6 8.2-1.3 11.3 3.5 2.5 4.1 5 8.2 7.9 12.9zM138.8 400.1c12.4-15 24.4-29.4 36.4-43.7 1.5-1.8 2.9-3.7 4.7-5.2 2.9-2.5 6.1-2.5 9.1-.1 2.9 2.3 3.7 5.4 2.2 8.9-.6 1.3-1.6 2.5-2.6 3.6L146 414.9c-6.6 7.9-11 7.5-16.4-1.2-3.8-6.2-7.7-12.4-11.4-18.6-2.8-4.7-2.2-9 1.6-11.4 3.9-2.5 8.1-1.2 11.2 3.7 2.5 4 4.9 8.1 7.8 12.7z" class="st1"/></svg>