<?xml version="1.0" encoding="utf-8"?>
<!-- Generator: Adobe Illustrator 26.0.1, SVG Export Plug-In . SVG Version: 6.00 Build 0)  -->
<svg version="1.1" id="Capa_1" xmlns="http://www.w3.org/2000/svg" xmlns:xlink="http://www.w3.org/1999/xlink" x="0px" y="0px"
	 viewBox="0 0 512 512" style="enable-background:new 0 0 512 512;" xml:space="preserve">
<style type="text/css">
	.st0{fill:#004999;}
	.st1{fill:#E43C5C;}
</style>
<path class="st0" d="M77.7,511.7c-0.7-0.4-1.4-0.8-2.1-1.1c-12.1-4.3-18.8-13.5-18.8-26.4c0-31.2,0-62.4,0-93.6c0-76,0-152,0-228.1
	c0-1.7-0.1-3.3,0.1-5c0.4-4.2,3.6-7.2,7.5-7.2c3.9,0.1,7,3.1,7.3,7.4c0.1,1.6,0.1,3.3,0.1,5c0,106.1,0,212.1,0,318.2
	c0,12.2,3.5,15.8,15.6,15.8c112.6,0,225.1,0,337.7,0c11.7,0,15.4-3.7,15.4-15.5c0-16.1,0-32.2,0-48.3c0-6.1,2.9-9.6,7.7-9.5
	c4.6,0.2,7.2,3.5,7.2,9.4c0,16.6,0,33.2,0,49.8c0,14.7-6,23.1-19.8,28.1c-0.4,0.1-0.7,0.6-1.1,0.9
	C315.5,511.7,196.6,511.7,77.7,511.7z"/>
<path class="st0" d="M392.4,74.3c0,4.2,0.1,7.8,0,11.4c-0.4,15.4-11.9,27-26.8,27c-14.9,0-26.4-11.6-26.7-27.1
	c-0.1-3.6,0-7.2,0-11.1c-18.9,0-37.2,0-56.1,0c0,3.8,0.1,7.5,0,11.1c-0.4,15.4-11.8,27-26.7,27.1c-14.9,0-26.4-11.6-26.8-27
	c-0.1-3.6,0-7.2,0-11.1c-18.8,0-37.1,0-56.1,0c0,3.8,0.1,7.4,0,11c-0.4,15.5-11.8,27.1-26.7,27.1c-15.1,0.1-26.6-11.7-26.9-27.4
	c-0.1-3.4,0-6.9,0-10.8c-13.1,0-25.9-0.3-38.6,0.1c-5.5,0.2-9.3,5.4-9.3,11.7c-0.1,12,0,23.9,0,35.9c0,4.1-1.7,7.1-5.9,8
	c-3.7,0.8-6.6-0.6-8.2-4.1c-0.6-1.3-0.8-2.9-0.8-4.3c-0.1-12.1-0.2-24.2,0-36.4c0.2-14.6,11.4-25.8,26-26c12.1-0.2,24.2,0,36.9,0
	c0-9.6-0.1-18.6,0.1-27.7c0.1-3.9,0.4-8,1.5-11.7c3.9-12.2,16.3-19.8,28.7-18c13.2,1.9,22.8,12.7,23.1,26.5c0.2,10.1,0,20.2,0,30.6
	c18.8,0,37.1,0,56.1,0c0-9.8,0-19.6,0-29.3c0-8.2,2.6-15.4,8.8-20.9c8.3-7.4,18-9.3,28.2-5c10.7,4.5,16.1,13,16.5,24.5
	c0.3,10.1,0.1,20.2,0.1,30.6c18.7,0,37.1,0,56.1,0c0-9.8,0-19.5,0-29.3c0-8.2,2.5-15.4,8.7-20.9c8.3-7.4,17.9-9.3,28.2-5
	c10.7,4.5,16.1,13,16.5,24.5c0.3,10.1,0.1,20.2,0.1,31c2,0,3.6,0,5.2,0c10.1,0,20.3-0.1,30.4,0c16.1,0.1,27.2,11.2,27.3,27.2
	c0.1,17.6,0,35.2,0,52.8c0,84.2,0,168.3,0,252.5c0,8.1-2.3,11.6-7.6,11.5c-5.2-0.1-7.4-3.5-7.4-11.7c0-100.6,0-201.2,0-301.8
	c0-12.1-3.5-15.6-15.7-15.6C414.1,74.3,403.7,74.3,392.4,74.3z M134.6,57c0,9.1-0.1,18.2,0,27.3c0.1,8.1,4.6,13.2,11.5,13.4
	c7.2,0.1,12-5.1,12.1-13.4c0.1-18.1,0.1-36.1,0-54.2c0-8.2-5-13.6-12-13.5c-6.9,0.1-11.5,5.4-11.6,13.4
	C134.5,39.1,134.6,48,134.6,57z M267.8,57c0-8.9,0.1-17.9,0-26.8c-0.1-8.2-5-13.6-12-13.5c-6.9,0.1-11.5,5.4-11.6,13.4
	c-0.1,18.1-0.1,36.1,0,54.2c0,8.1,4.6,13.2,11.5,13.4c7.2,0.1,12-5,12.1-13.4C267.9,75.2,267.8,66.1,267.8,57z M377.4,57.4
	c0-9.1,0.1-18.2,0-27.3c-0.1-8-4.7-13.3-11.6-13.4c-7.1-0.1-12,5.3-12,13.5c-0.1,18.1-0.1,36.1,0,54.2c0,8.1,4.6,13.2,11.6,13.3
	c7.2,0.1,12-5.1,12-13.4C377.5,75.3,377.4,66.4,377.4,57.4z"/>
<path class="st0" d="M300.9,324.8c-25.9,0-51.8,0.1-77.6,0c-13.1,0-22.2-7.5-24.4-19.6c-2.2-11.9,6-24.1,17.9-26.5
	c2.1-0.4,4.3-0.7,6.4-0.7c51.6,0,103.2-0.1,154.8,0c14.2,0,24.4,9.6,24.7,22.6c0.3,13.4-9.4,23.8-23.1,24.1
	c-15.4,0.3-30.9,0.1-46.3,0.1C322.5,324.8,311.7,324.8,300.9,324.8z M300.4,309.8c24.9,0,49.8,0,74.7,0c1.8,0,3.7,0.1,5.5-0.2
	c4.3-0.7,6.8-3.4,7-7.8c0.2-4.4-2-7.3-6.2-8.4c-1.7-0.5-3.6-0.5-5.4-0.5c-50.3,0-100.6,0-150.9,0c-2,0-4,0.1-5.9,0.7
	c-4,1.3-5.9,4.4-5.6,8.4c0.3,4,2.6,6.8,6.7,7.6c1.9,0.3,4,0.3,6,0.3C250.9,309.8,275.7,309.8,300.4,309.8z"/>
<path class="st0" d="M300.3,376.9c26,0,52.1-0.1,78.1,0.1c17.3,0.1,28.5,15.7,22.8,31.3c-3.5,9.6-12.2,15.4-23.8,15.4
	c-18.1,0.1-36.2,0-54.2,0c-33.2,0-66.4,0-99.5,0c-13.2,0-22.4-7.3-24.8-19.2c-2.6-13.4,7.1-26.6,20.8-27.3
	c10.3-0.6,20.6-0.2,30.8-0.3C267.1,376.9,283.7,376.9,300.3,376.9z M300.7,408.8c25.6,0,51.1,0,76.7,0c6.5,0,10.1-3.2,10.2-8.4
	c0.1-5.4-3.4-8.4-10-8.5c-1,0-2,0-3,0c-49.3,0-98.6,0-147.9,0c-1.7,0-3.3,0-5,0.1c-4.9,0.4-8.3,3.8-8.3,8.2
	c-0.1,4.2,3.1,7.8,7.6,8.4c1.6,0.2,3.3,0.2,5,0.2C250.9,408.8,275.8,408.8,300.7,408.8z"/>
<path class="st0" d="M300.3,225.9c-26.4,0-52.8,0.1-79.1,0c-9.9-0.1-18.3-6.5-21.4-15.7c-3.1-9.1-0.5-18.9,6.9-25.3
	c4.4-3.8,9.7-5.7,15.5-5.7c52.3,0,104.5-0.1,156.8,0c13.6,0,23.7,10.4,23.6,23.7c-0.1,13-10.1,23-23.6,23.1
	C352.8,226,326.5,225.9,300.3,225.9C300.3,225.9,300.3,225.9,300.3,225.9z M300.3,211c25,0,50.1,0,75.1,0c1.7,0,3.3,0.1,5-0.1
	c4.1-0.6,6.6-3,7.1-7.1c0.5-4.3-1.3-7.5-5.5-8.9c-2-0.7-4.2-0.7-6.4-0.7c-50.1,0-100.2,0-150.3,0c-2.1,0-4.4,0.1-6.4,0.7
	c-4,1.2-5.9,4.4-5.6,8.4c0.3,4.2,2.9,7,7.2,7.7c1.6,0.2,3.3,0.1,5,0.1C250.6,211,275.4,211,300.3,211z"/>
<path class="st1" d="M138.8,202.2c12.9-15.5,25.3-30.4,37.7-45.3c0.8-1,1.6-2.1,2.6-3c3.1-2.8,6.5-3.2,9.9-0.7
	c3.2,2.4,3.8,6.6,1.3,10.2c-2,2.8-4.3,5.4-6.6,8.1c-12.8,15.4-25.6,30.9-38.5,46.3c-5.6,6.7-10.6,6.3-15.2-1.2
	c-3.9-6.3-7.8-12.7-11.7-19.1c-3.1-5.1-2.6-9.3,1.3-11.8c4-2.6,8.2-1.1,11.5,4.1C133.7,193.8,136.1,197.8,138.8,202.2z"/>
<path class="st1" d="M138.8,300.8c12.8-15.4,25.2-30.3,37.6-45.2c0.7-0.9,1.4-1.8,2.2-2.7c3.2-3.3,7.5-3.7,10.7-0.9
	c3,2.6,3.5,6.7,0.8,10.3c-3.5,4.6-7.3,9-11,13.4c-11.3,13.6-22.6,27.3-34,40.9c-5.2,6.3-10.4,5.9-14.6-0.9
	c-4.1-6.6-8.2-13.2-12.2-19.9c-2.9-4.8-2.3-8.9,1.3-11.4c3.9-2.6,8.2-1.3,11.3,3.5C133.4,292,135.9,296.1,138.8,300.8z"/>
<path class="st1" d="M138.8,400.1c12.4-15,24.4-29.4,36.4-43.7c1.5-1.8,2.9-3.7,4.7-5.2c2.9-2.5,6.1-2.5,9.1-0.1
	c2.9,2.3,3.7,5.4,2.2,8.9c-0.6,1.3-1.6,2.5-2.6,3.6c-14.2,17.1-28.4,34.2-42.6,51.3c-6.6,7.9-11,7.5-16.4-1.2
	c-3.8-6.2-7.7-12.4-11.4-18.6c-2.8-4.7-2.2-9,1.6-11.4c3.9-2.5,8.1-1.2,11.2,3.7C133.5,391.4,135.9,395.5,138.8,400.1z"/>
</svg>
