<svg xmlns="http://www.w3.org/2000/svg" xml:space="preserve" id="Capa_1" x="0" y="0" style="enable-background:new 0 0 496 496" version="1.1" viewBox="0 0 496 496"><style>.st1{fill:#e43c5c}</style><path d="M296.5 496c-.7-.3-1.4-.7-2.2-.9-14.6-3.8-22.7-15.5-21.2-30.8 1.3-13.5 12.1-23.9 26.3-24.4 14-.4 28.1-.6 42.1.1 11 .5 19.1 6.6 23.5 16.8 1.3 2.9 2.8 3.9 5.7 3.7 6.1-.3 12.3.1 18.4-.8 20.3-3 36.4-20 38.3-40.5.6-6.4.1-12.9.1-19.5-2.3.7-5 1.7-7.7 2.2-16.9 2.9-32.2-9.7-32.3-26.9-.1-50.9-.1-101.7 0-152.6 0-17.4 15.7-30 32.8-26.7 1.5.3 3.1.7 6.1 1.4-3.3-11.9-6.3-23-9.5-34.9-10.4 9.5-21.3 16.2-33.7 20.3-22.1 7.3-44 7.3-65.9-1.1-2-.8-4.7-.6-6.8.1-4.4 1.5-8.6 3.7-12.9 5.4-6.6 2.5-11.8-.5-11-7.3 1.5-12.6-4-21.6-10.9-31.7-20.7-30.1-23-62.5-7.4-95.9.4-.9.8-1.7 1.2-2.6.1-.1 0-.3 0-1.1-50.9-5.5-96.2 7.9-135.6 40.2-34.4 27.8-55.6 63.9-63.5 108.5 10.6-3.4 19.7-2.3 27.8 4.1 6.7 5.3 10.5 12.2 10.5 20.9 0 51 .1 102.1 0 153.1 0 13.5-8.7 23.7-21.7 26.6-12.3 2.7-24.4-3.1-30.1-14.8-1.3-2.6-2.7-3.3-5.4-3.5-19.5-1.2-36.1-8.1-45.5-26.2-3.4-6.5-5.2-14.4-5.4-21.7-.7-23.6-.4-47.1-.2-70.7.1-14.9 6-27.3 17.4-36.8 2.9-2.4 3.6-4.8 3.7-8.2 1.8-51.5 18.5-97.3 51.5-137 .5-.6 1-1.2 1.6-1.8 4.1-4.7 7.9-5.4 11.6-2.1 3.4 3.1 3.3 7-.6 11.5-21 24.4-35.6 52.2-43 83.5-3.2 13.4-4.5 27.3-6.6 41-.1.9.1 1.9.2 2.8 5.8-.5 11.3-1.1 17-1.6 1.3-9.1 2.1-18.2 4-27.2C68.5 134.7 98 93 144.2 63.1c36.7-23.7 77.2-34.2 120.7-29.8 10.4 1.1 18.2.3 24.3-8.6 1.1-1.7 3.1-2.8 5.5-4.9-6.2-1.1-11.6-2.4-17-3.1-56.4-7.1-107.9 5.5-154.3 38.7-.8.6-1.6 1.1-2.3 1.7-5.2 3.8-8.8 3.7-11.8-.1-3-3.9-2.2-8 3.4-11.6 13.1-8.2 25.8-17.3 39.8-23.8 49.5-23.2 101-27.1 153.8-13 3.3.9 6 .6 9.2-.8C373-18.2 442.3 24 445.8 87.2c.4 7.2-.7 14.5-.9 21.7 0 2.4.2 5.2 1.3 7.3 17.6 31.9 27.4 66 28.8 102.4.1 1.8.9 4.2 2.2 5.4 9.7 8.1 16 18 18.1 30.6.1.4.5.8.8 1.2v82.4c-.3.7-.7 1.5-.8 2.2-4 20.7-16.8 33.2-36.6 38.8-5 1.4-10.4 1.6-15.9 2.4 0 11.2.1 22.5 0 33.8-.4 28.4-21.8 53.7-49.9 58.4-8.5 1.4-17.3 1.3-26.4 1.9-3.1 10.7-11.2 16.8-21.5 20.4-16.2-.1-32.4-.1-48.5-.1zm3.6-326.4c2.5-.8 3.5-1 4.3-1.5 6.5-4.1 12.5-3 19.6-.4 29.4 10.9 56.8 5.8 80.7-14.1 26.3-22 33.9-61 19.6-93.4-13.6-30.7-46.7-49.2-81-45.1-31 3.8-52.5 20.7-64 49.4-11.3 28-7.8 54.9 11.3 78.8 5.9 7.7 13.4 14.1 9.5 26.3zM442.3 229v62.7c0 4.2.1 8.4-.1 12.6-.3 5-3.8 7.6-8.6 6.7-5.2-.9-5.8-4.8-5.8-9.1v-74.1c0-2.6 0-5.2-.4-7.7-1-5.9-5.3-9.7-11.2-10.3-8.4-.8-14.1 4.9-14.1 14.4v149.2c0 1 0 1.9.1 2.9.7 6.4 5.9 11.2 12.4 11.3 6.6.1 12-4.2 12.9-10.7.3-2.1.3-4.2.3-6.3 0-9-.1-18.1.1-27.1.1-5.5 3.8-8.5 8.9-7.4 4.3.9 5.6 3.9 5.6 7.9v21.9c21.1 1.7 38.6-12.6 39-31.9.5-24.4.5-48.8 0-73.1-.4-19.5-18.9-34.4-39.1-31.9zM53.1 368.3V231.6c-17.9-3.7-37.8 12.3-38.3 31.4-.5 24.5-.5 49.1 0 73.6.4 19.2 19.7 34.9 38.3 31.7zm41-69.5v-29.5c0-15.5.1-31-.1-46.5-.1-9.7-9.3-15.8-17.8-12.1-6.2 2.7-7.9 7.9-7.9 14.2.1 49.2 0 98.5 0 147.7 0 1.3.1 2.6.2 3.9 1.2 8.1 8.5 12.9 16.3 10.7 5.8-1.6 9.1-6.5 9.1-13.8.2-24.9.2-49.7.2-74.6zM320 481.5c6.3 0 12.6.1 18.9 0 8.3-.2 13.9-5.7 13.9-13.6 0-7.9-5.6-13.4-13.9-13.5-12.4-.1-24.9-.1-37.3 0-8.3.1-14.1 5.6-14.3 13.3-.2 7.8 5.9 13.7 14.3 13.8H320zm118.3-349c-3.2 5.3-5.7 10.1-8.9 14.5-1.9 2.6-1.6 4.6-.7 7.4 3.6 11.3 7.3 22.6 10.2 34.2 2 8.2 2.7 16.7 4 24.9 5.8.5 11.4 1 17.4 1.5-1.8-28.9-8.9-56.1-22-82.5z" style="fill:#004999"/><path d="M138.7 301.6c-.5-65.6 57.9-117.5 123-109.1 49.1 6.3 87.3 44.3 94.1 93.5 4.7 34.7-5 64.7-28.9 90.3-1.4 1.5-2.3 3.8-2.4 5.9-.3 6.1 0 12.3-.2 18.4-.2 7.8-4.7 10.8-11.9 7.9-6.1-2.5-12.1-6.8-18.3-7.2-6.1-.3-12.4 3.5-18.7 5.2-60.2 16.4-125.6-26.2-135-88-.8-5.6-1.2-11.3-1.7-16.9zm171.1 89.8c0-4 .3-7.1-.1-10.1-.7-6.1 1.6-10.5 6-14.9 15-14.8 23.9-32.9 26.1-53.8 6.4-60.5-42.6-114.2-107.1-105.6-53.4 7.1-90.9 61-79.3 113.7 12.5 56.9 77.6 91.9 132.5 65.9 2.6-1.3 6.5-.8 9.6-.1 3.9 1 7.7 3 12.3 4.9zM359.5 100v16.5c-.1 5.6-2.8 8.9-7.4 8.8-4.5-.1-7.1-3.4-7.1-9.1V95.4c0-6.7 1.7-8.5 8.7-9.5 8.5-1.2 14.6-7.6 14.9-15.8.4-7.9-5.4-15.2-13.2-16.8-7.7-1.6-15.8 2.9-18.6 10.5-.8 2.1-.9 4.4-1.4 6.6-.8 4.2-3.7 6.4-7.9 6-4.1-.4-6.3-3.1-6.3-7.7-.1-15.2 13.2-29.3 28.5-30.1 15.8-.9 29.6 9.4 32.8 24.3 3.2 15.1-5.1 30-19.8 35.7-1 .5-2 .9-3.2 1.4zM359.2 143.1c0 4.1-3 7.1-6.9 7.1-4.2 0-7.3-3.2-7.1-7.4.2-4 3.3-7.1 7.2-7 3.8.1 6.9 3.3 6.8 7.3z" class="st1"/><path d="M248.6 293.5h38.2c5.4 0 8.4 2.5 8.6 7 .1 4.6-3 7.5-8.6 7.5h-77.4c-5.6 0-8.7-2.9-8.6-7.6.2-4.5 3.2-6.9 8.6-6.9 13.1-.1 26.1 0 39.2 0zM248.3 334.2c6.1 0 12.2-.1 18.4 0 5.1.1 7.7 2.7 7.7 7.2s-2.7 7.2-7.8 7.2c-12.4.1-24.8.1-37.2 0-5.1 0-7.7-2.7-7.7-7.3s2.7-7.1 7.8-7.2c6.3 0 12.5.1 18.8.1zM248.4 252.7h17.9c5.5.1 8.2 2.5 8.2 7.3 0 4.5-2.7 7.2-7.8 7.2-12.4.1-24.8.1-37.2 0-5 0-7.7-2.8-7.7-7.3 0-4.6 2.6-7 7.8-7.1 6.2-.1 12.5-.1 18.8-.1z" class="st1"/></svg>