<?xml version="1.0" encoding="utf-8"?>
<!-- Generator: Adobe Illustrator 26.0.1, SVG Export Plug-In . SVG Version: 6.00 Build 0)  -->
<svg version="1.1" id="Capa_1" xmlns="http://www.w3.org/2000/svg" xmlns:xlink="http://www.w3.org/1999/xlink" x="0px" y="0px"
	 viewBox="0 0 496 496" style="enable-background:new 0 0 496 496;" xml:space="preserve">
<style type="text/css">
	.st0{fill:#FFFFFF;}
</style>
<g>
	<path class="st0" d="M296.5,496c-0.7-0.3-1.4-0.7-2.2-0.9c-14.6-3.8-22.7-15.5-21.2-30.8c1.3-13.5,12.1-23.9,26.3-24.4
		c14-0.4,28.1-0.6,42.1,0.1c11,0.5,19.1,6.6,23.5,16.8c1.3,2.9,2.8,3.9,5.7,3.7c6.1-0.3,12.3,0.1,18.4-0.8c20.3-3,36.4-20,38.3-40.5
		c0.6-6.4,0.1-12.9,0.1-19.5c-2.3,0.7-5,1.7-7.7,2.2c-16.9,2.9-32.2-9.7-32.3-26.9c-0.1-50.9-0.1-101.7,0-152.6
		c0-17.4,15.7-30,32.8-26.7c1.5,0.3,3.1,0.7,6.1,1.4c-3.3-11.9-6.3-23-9.5-34.9c-10.4,9.5-21.3,16.2-33.7,20.3
		c-22.1,7.3-44,7.3-65.9-1.1c-2-0.8-4.7-0.6-6.8,0.1c-4.4,1.5-8.6,3.7-12.9,5.4c-6.6,2.5-11.8-0.5-11-7.3c1.5-12.6-4-21.6-10.9-31.7
		c-20.7-30.1-23-62.5-7.4-95.9c0.4-0.9,0.8-1.7,1.2-2.6c0.1-0.1,0-0.3,0-1.1c-50.9-5.5-96.2,7.9-135.6,40.2
		C99.5,116.3,78.3,152.4,70.4,197c10.6-3.4,19.7-2.3,27.8,4.1c6.7,5.3,10.5,12.2,10.5,20.9c0,51,0.1,102.1,0,153.1
		c0,13.5-8.7,23.7-21.7,26.6c-12.3,2.7-24.4-3.1-30.1-14.8c-1.3-2.6-2.7-3.3-5.4-3.5c-19.5-1.2-36.1-8.1-45.5-26.2
		c-3.4-6.5-5.2-14.4-5.4-21.7c-0.7-23.6-0.4-47.1-0.2-70.7c0.1-14.9,6-27.3,17.4-36.8c2.9-2.4,3.6-4.8,3.7-8.2
		C23.3,168.3,40,122.5,73,82.8c0.5-0.6,1-1.2,1.6-1.8c4.1-4.7,7.9-5.4,11.6-2.1c3.4,3.1,3.3,7-0.6,11.5c-21,24.4-35.6,52.2-43,83.5
		c-3.2,13.4-4.5,27.3-6.6,41c-0.1,0.9,0.1,1.9,0.2,2.8c5.8-0.5,11.3-1.1,17-1.6c1.3-9.1,2.1-18.2,4-27.2
		c11.3-54.2,40.8-95.9,87-125.8c36.7-23.7,77.2-34.2,120.7-29.8c10.4,1.1,18.2,0.3,24.3-8.6c1.1-1.7,3.1-2.8,5.5-4.9
		c-6.2-1.1-11.6-2.4-17-3.1c-56.4-7.1-107.9,5.5-154.3,38.7c-0.8,0.6-1.6,1.1-2.3,1.7c-5.2,3.8-8.8,3.7-11.8-0.1
		c-3-3.9-2.2-8,3.4-11.6c13.1-8.2,25.8-17.3,39.8-23.8c49.5-23.2,101-27.1,153.8-13c3.3,0.9,6,0.6,9.2-0.8
		c57.7-25.9,127,16.3,130.4,79.5c0.4,7.2-0.7,14.5-0.9,21.7c0,2.4,0.2,5.2,1.3,7.3c17.6,31.9,27.4,66,28.8,102.4
		c0.1,1.8,0.9,4.2,2.2,5.4c9.7,8.1,16,18,18.1,30.6c0.1,0.4,0.5,0.8,0.8,1.2c0,27.5,0,54.9,0,82.4c-0.3,0.7-0.7,1.5-0.8,2.2
		c-4,20.7-16.8,33.2-36.6,38.8c-5,1.4-10.4,1.6-15.9,2.4c0,11.2,0.1,22.5,0,33.8c-0.4,28.4-21.8,53.7-49.9,58.4
		c-8.5,1.4-17.3,1.3-26.4,1.9c-3.1,10.7-11.2,16.8-21.5,20.4C328.8,496,312.6,496,296.5,496z M300.1,169.6c2.5-0.8,3.5-1,4.3-1.5
		c6.5-4.1,12.5-3,19.6-0.4c29.4,10.9,56.8,5.8,80.7-14.1c26.3-22,33.9-61,19.6-93.4c-13.6-30.7-46.7-49.2-81-45.1
		c-31,3.8-52.5,20.7-64,49.4c-11.3,28-7.8,54.9,11.3,78.8C296.5,151,304,157.4,300.1,169.6z M442.3,229c0,21,0,41.9,0,62.7
		c0,4.2,0.1,8.4-0.1,12.6c-0.3,5-3.8,7.6-8.6,6.7c-5.2-0.9-5.8-4.8-5.8-9.1c0-24.7,0-49.4,0-74.1c0-2.6,0-5.2-0.4-7.7
		c-1-5.9-5.3-9.7-11.2-10.3c-8.4-0.8-14.1,4.9-14.1,14.4c0,49.7,0,99.5,0,149.2c0,1,0,1.9,0.1,2.9c0.7,6.4,5.9,11.2,12.4,11.3
		c6.6,0.1,12-4.2,12.9-10.7c0.3-2.1,0.3-4.2,0.3-6.3c0-9-0.1-18.1,0.1-27.1c0.1-5.5,3.8-8.5,8.9-7.4c4.3,0.9,5.6,3.9,5.6,7.9
		c0,7.3,0,14.7,0,21.9c21.1,1.7,38.6-12.6,39-31.9c0.5-24.4,0.5-48.8,0-73.1C481,241.5,462.5,226.5,442.3,229z M53.1,368.4
		c0-45.6,0-91.1,0-136.7c-17.9-3.7-37.8,12.3-38.3,31.4c-0.5,24.5-0.5,49.1,0,73.6C15.2,355.9,34.5,371.5,53.1,368.4z M94.1,298.8
		c0-9.8,0-19.7,0-29.5c0-15.5,0.1-31-0.1-46.5c-0.1-9.7-9.3-15.8-17.8-12.1c-6.2,2.7-7.9,7.9-7.9,14.2c0.1,49.2,0,98.5,0,147.7
		c0,1.3,0.1,2.6,0.2,3.9c1.2,8.1,8.5,12.9,16.3,10.7c5.8-1.6,9.1-6.5,9.1-13.8C94.1,348.6,94.1,323.7,94.1,298.8z M320,481.5
		c6.3,0,12.6,0.1,18.9,0c8.3-0.2,13.9-5.7,13.9-13.6c0-7.9-5.6-13.4-13.9-13.5c-12.4-0.1-24.9-0.1-37.3,0
		c-8.3,0.1-14.1,5.6-14.3,13.3c-0.2,7.8,5.9,13.7,14.3,13.8C307.7,481.6,313.8,481.5,320,481.5z M438.3,132.5
		c-3.2,5.3-5.7,10.1-8.9,14.5c-1.9,2.6-1.6,4.6-0.7,7.4c3.6,11.3,7.3,22.6,10.2,34.2c2,8.2,2.7,16.7,4,24.9c5.8,0.5,11.4,1,17.4,1.5
		C458.5,186.2,451.4,158.9,438.3,132.5z"/>
	<path class="st0" d="M138.7,301.6c-0.5-65.6,57.9-117.5,123-109.1c49.1,6.3,87.3,44.3,94.1,93.5c4.7,34.7-5,64.7-28.9,90.3
		c-1.4,1.5-2.3,3.8-2.4,5.9c-0.3,6.1,0,12.3-0.2,18.4c-0.2,7.8-4.7,10.8-11.9,7.9c-6.1-2.5-12.1-6.8-18.3-7.2
		c-6.1-0.3-12.4,3.5-18.7,5.2c-60.2,16.4-125.6-26.2-135-88C139.6,312.9,139.2,307.2,138.7,301.6z M309.8,391.4
		c0-4,0.3-7.1-0.1-10.1c-0.7-6.1,1.6-10.5,6-14.9c15-14.8,23.9-32.9,26.1-53.8c6.4-60.5-42.6-114.2-107.1-105.6
		c-53.4,7.1-90.9,61-79.3,113.7c12.5,56.9,77.6,91.9,132.5,65.9c2.6-1.3,6.5-0.8,9.6-0.1C301.4,387.5,305.2,389.5,309.8,391.4z"/>
	<path class="st0" d="M359.5,100c0,5.5,0,11,0,16.5c-0.1,5.6-2.8,8.9-7.4,8.8c-4.5-0.1-7.1-3.4-7.1-9.1c0-6.9,0-13.9,0-20.8
		c0-6.7,1.7-8.5,8.7-9.5c8.5-1.2,14.6-7.6,14.9-15.8c0.4-7.9-5.4-15.2-13.2-16.8c-7.7-1.6-15.8,2.9-18.6,10.5
		c-0.8,2.1-0.9,4.4-1.4,6.6c-0.8,4.2-3.7,6.4-7.9,6c-4.1-0.4-6.3-3.1-6.3-7.7c-0.1-15.2,13.2-29.3,28.5-30.1
		c15.8-0.9,29.6,9.4,32.8,24.3c3.2,15.1-5.1,30-19.8,35.7C361.7,99.1,360.7,99.5,359.5,100z"/>
	<path class="st0" d="M359.2,143.1c0,4.1-3,7.1-6.9,7.1c-4.2,0-7.3-3.2-7.1-7.4c0.2-4,3.3-7.1,7.2-7
		C356.2,135.9,359.3,139.1,359.2,143.1z"/>
	<path class="st0" d="M248.6,293.5c12.7,0,25.5,0,38.2,0c5.4,0,8.4,2.5,8.6,7c0.1,4.6-3,7.5-8.6,7.5c-25.8,0-51.6,0-77.4,0
		c-5.6,0-8.7-2.9-8.6-7.6c0.2-4.5,3.2-6.9,8.6-6.9C222.5,293.4,235.5,293.5,248.6,293.5z"/>
	<path class="st0" d="M248.3,334.2c6.1,0,12.2-0.1,18.4,0c5.1,0.1,7.7,2.7,7.7,7.2c0,4.5-2.7,7.2-7.8,7.2c-12.4,0.1-24.8,0.1-37.2,0
		c-5.1,0-7.7-2.7-7.7-7.3c0-4.6,2.7-7.1,7.8-7.2C235.8,334.1,242,334.2,248.3,334.2z"/>
	<path class="st0" d="M248.4,252.7c6,0,11.9,0,17.9,0c5.5,0.1,8.2,2.5,8.2,7.3c0,4.5-2.7,7.2-7.8,7.2c-12.4,0.1-24.8,0.1-37.2,0
		c-5,0-7.7-2.8-7.7-7.3c0-4.6,2.6-7,7.8-7.1C235.8,252.7,242.1,252.7,248.4,252.7z"/>
</g>
</svg>
