<svg id="Capa_1" data-name="Capa 1" xmlns="http://www.w3.org/2000/svg" viewBox="0 0 461.05 507.95"><defs><style>.cls-1{fill:#004999;}.cls-2{fill:#e43c5c;}</style></defs><path class="cls-1" d="M252.08,510c-67.76-31.68-125.34-75.71-167.57-138.32A340.6,340.6,0,0,1,34.32,257.09c-.66-2.86-.26-6.92,1.39-9.15,3.51-4.75,10.29-2.11,12.15,4.28,3.71,12.66,6.79,25.56,11.32,37.93C85,360.74,130,416.56,191.7,458.81c19.27,13.2,40.37,23.75,60.78,35.26a8.58,8.58,0,0,0,6.88.15C322.18,464,375.62,422.56,415.07,364.33a329.78,329.78,0,0,0,48.35-108.94c.31-1.28.58-2.58,1-3.84,1.31-4,4.06-6,8.29-5.37,3.92.58,6.46,4.09,5.58,8.49-1.25,6.3-2.87,12.55-4.69,18.72-25,84.6-75.64,150.46-148.21,199.5-20.69,14-43.52,24.81-65.37,37.08Z" transform="translate(-25.48 -2.03)"/><path class="cls-1" d="M451.18,170.48c1.48,62.77-16.35,123.81-53.44,179.08-33.39,49.75-77.54,87.56-130.31,115.56-7.57,4-15.2,4.06-22.75,0-72-38.73-126.9-93.67-159.49-169.47-16.32-38-24.1-77.76-24.27-119.06-.05-13.39.12-26.78-.05-40.17-.15-12.13,5.09-20.33,16.41-25,30-12.44,52.65-33,67.24-62.17,4.58-9.16,11.95-13.67,22.26-13.67q89.25.07,178.51,0c10.31,0,17.69,4.47,22.27,13.65,14.49,29,37,49.54,66.79,62,11.72,4.88,17.15,13.19,16.87,25.73C451,146.81,451.18,156.73,451.18,170.48ZM256.15,49.9q-43.89,0-87.79,0c-4.82,0-8.6,1.07-11,5.84C141.16,88.34,115.75,111.11,82.25,125c-4.72,2-6.9,5-6.84,10.23.16,15-.06,30.09.1,45.13.54,49.24,13,95.38,36.92,138.32C144.86,377,191.87,420.34,250.32,451.79c4.54,2.45,8.36,1.71,12.57-.57,45.14-24.39,83.8-56.4,114.41-97.75,31.9-43.12,52.12-91.14,57.25-144.68,2.26-23.62,1.54-47.53,2.05-71.32.19-8.76-.8-9.88-8.83-13.34-32-13.77-56.45-35.75-72.25-66.93-2.69-5.31-6.24-7.41-12.07-7.38C314.35,50,285.25,49.9,256.15,49.9Z" transform="translate(-25.48 -2.03)"/><path class="cls-1" d="M256.16,2H373.71c13.22,0,19.73,6,22.34,19,6.12,30.38,25.34,49.25,53.84,59.35,5.86,2.08,12.14,3.11,18.31,4.1,11.81,1.89,18.33,8.85,18.32,20.78q0,45.89-.34,91.76c0,5.61-.6,11.22-1.11,16.82-.49,5.34-3.79,8.21-8.38,7.62-4.23-.55-6.24-4-6.15-9.2q.94-53.53,1.68-107.07c.06-4.11-2.16-5.73-6.08-6.24-20.47-2.66-38.91-10.18-54.6-23.79-15.89-13.78-26.24-30.87-29.68-51.78-.82-5-3.11-6.85-8.26-6.84q-117.55.18-235.11,0c-4.74,0-7.42,1.31-8.16,6.33-5.06,34-33,65.32-74.62,74.39A91.82,91.82,0,0,1,45.46,99c-4.18.43-5.63,2.76-5.61,6.66,0,11.07-.16,22.16,0,33.23.46,24.78,1.09,49.55,1.7,74.33.12,4.94-2.52,8.47-6.79,8.75-4,.27-7.38-2.67-7.68-7.42-.71-11.21-1.42-22.44-1.52-33.67-.23-24.8-.1-49.6-.07-74.4,0-13.55,6.17-20.43,19.58-22.08,33.47-4.1,61.11-26.71,69.47-56.87a77.66,77.66,0,0,0,1.64-7.74C118.17,8.46,125.61,2.05,137.12,2Q196.64,2,256.16,2Z" transform="translate(-25.48 -2.03)"/><path class="cls-2" d="M326.94,182.51h10.14c15.27.08,24.71,9.4,24.8,24.76.11,18.68,0,37.36,0,56,0,14.39,0,28.77,0,43.15-.06,16.18-9.37,25.47-25.66,25.48q-79.85.06-159.7,0c-16.64,0-25.68-9.16-25.69-25.84q0-49.11,0-98.21c0-16.29,9.16-25.36,25.56-25.39h9.24c0-1.93,0-3.66,0-5.38.26-13-.46-26.2,1-39.11,3.73-33,33.06-59.5,65.84-60.59,35.61-1.19,66.39,22.33,72.85,56a115.82,115.82,0,0,1,1.53,18.73C327.12,162,326.94,171.93,326.94,182.51ZM256,317.51q40.14,0,80.29,0c8.15,0,11-2.9,11-11q0-49.32,0-98.64c0-8.1-2.83-10.9-11.13-10.91q-79.8,0-159.6,0c-8.58,0-11.31,2.71-11.32,11.27q0,49.07,0,98.13c0,8.44,2.87,11.18,11.41,11.19Zm56.52-135.24c0-11.87.13-23.4,0-34.92-.37-27.75-21.59-51.81-48.36-55-29.15-3.47-56.18,13.81-61.87,42-3.11,15.43-2,31.72-2.79,47.91Z" transform="translate(-25.48 -2.03)"/><path class="cls-2" d="M249.1,275.94c0-1.49-.11-3,0-4.46.35-4.11-.51-7.07-4.23-10-7.35-5.84-7.28-17-.75-23.8a16.91,16.91,0,0,1,24.35,0c6.47,6.71,6.54,18-.75,23.83-3.7,3-4.35,6-4.18,10.1.18,4.28.16,8.59,0,12.87-.21,5-3.38,8.24-7.54,8s-6.75-3.31-6.89-8.13C249,281.55,249.1,278.74,249.1,275.94Z" transform="translate(-25.48 -2.03)"/></svg>