<svg xmlns="http://www.w3.org/2000/svg" xml:space="preserve" viewBox="0 0 62 62"><switch><g><path fill="none" stroke="#1D1D1B" stroke-miterlimit="10" stroke-width=".001" d="M0 0h62v62H0z"/><g fill="#3F3F3F"><path d="m28.296 7.088-.009 4.625c0 .39.014.78-.005 1.169-.011.218.055.328.263.414.682.283 1.193.775 1.58 1.394.486.775.567 2.095-.267 3.144-1.106 1.394-3.306 1.844-4.774-.18-.757-1.045-.653-2.488.24-3.473.354-.39.76-.709 1.25-.905.155-.062.218-.142.217-.32-.008-1.956-.005-3.912-.006-5.868h1.51zm-.772 10.446c.948.027 1.462-.487 1.485-1.488.02-.867-.509-1.427-1.373-1.455-1.004-.032-1.544.467-1.574 1.456-.029.937.484 1.459 1.462 1.487zM37.261 7.088c-.002 1.98-.003 3.96-.011 5.94 0 .17.112.196.219.242.72.309 1.285.804 1.653 1.486.472.874.477 1.789-.019 2.65-.432.75-1.048 1.338-1.925 1.535-2.235.503-4.115-1.658-3.52-3.653.267-.9.885-1.523 1.712-1.922.3-.144.395-.302.392-.63-.019-1.883-.01-3.766-.011-5.649h1.51zm-.728 10.447c.93.007 1.433-.517 1.443-1.507.01-.884-.535-1.428-1.44-1.437-.974-.01-1.498.51-1.509 1.499-.01.925.523 1.437 1.506 1.445zM55.875 31.546c-.168.694-.556 1.248-1.09 1.711-1.093.95-2.618.945-3.704-.014-.395-.349-.722-.75-.915-1.243-.078-.2-.193-.253-.401-.252-1.82.01-3.639.005-5.458.005h-.31v-1.486h.29c1.82 0 3.639-.005 5.458.007.245.001.342-.082.44-.297.465-1.024 1.24-1.692 2.36-1.91.517-.1 1.026 0 1.492.23.94.464 1.626 1.147 1.803 2.234.005.03.023.06.035.09v.925zm-4.4-.543c-.023.928.48 1.45 1.419 1.473.968.023 1.494-.472 1.518-1.425.023-.952-.475-1.487-1.406-1.511-.992-.026-1.506.465-1.53 1.463zM32.025 41.508c-1.851-.04-3.702-.074-5.552-.126a1.237 1.237 0 0 1-.572-.168c-.453-.268-.806-.648-1.102-1.084-.19-.282-.192-.603-.194-.915-.017-2.63-.025-5.262-.029-7.892 0-.462.022-.926.061-1.386.016-.187.073-.387.167-.548.274-.466.618-.871 1.101-1.145.073-.042.132-.174.134-.266.024-.836.008-1.674.054-2.508.094-1.717.987-2.984 2.332-3.972.828-.609 1.761-.93 2.795-.915.819.013 1.658-.06 2.452.093 1.89.365 3.174 1.535 3.934 3.292.269.622.358 1.28.376 1.947.017.682.015 1.365.009 2.047-.001.149.052.23.17.313.23.163.468.326.663.528.35.363.595.78.6 1.315.01.982.066 1.964.067 2.946 0 1.892-.022 3.784-.04 5.676-.003.308-.03.616-.047.924l-.004.049c-.085.646-1.19 1.655-1.846 1.675-.925.03-1.85.059-2.776.071-.918.012-1.835.003-2.753.003v.046zm-.009-1.578v.045c.699 0 1.397.006 2.095-.001 1.08-.011 2.159-.025 3.238-.049.45-.01.576-.142.595-.588.021-.478.043-.957.044-1.436.005-2.005.005-4.01.002-6.015 0-.503-.007-1.006-.035-1.508-.043-.761-.102-.822-.87-.827a1737.13 1737.13 0 0 0-8.571-.03c-.657-.001-1.315.025-1.97.065-.32.02-.42.147-.442.471a17.48 17.48 0 0 0-.047 1.119c-.004 2.378-.003 4.756 0 7.135 0 .324.014.649.036.973.036.534.133.64.666.643 1.753.008 3.506.003 5.26.003zm4.51-11.919c-.026-.92-.048-1.82-.079-2.718-.03-.866-.412-1.595-1.02-2.166-.386-.364-.889-.61-1.36-.874-.186-.104-.425-.145-.643-.156-.567-.027-1.135-.022-1.703-.03-.86-.01-1.702.043-2.458.53-.947.613-1.555 1.456-1.656 2.585-.081.91-.062 1.831-.087 2.747 0 .023.01.046.02.082h8.986zM40.995 26.524V25.03h.29c.998-.017 1.996-.041 2.994-.047.894-.005 1.885-.897 1.895-1.965.013-1.3.028-2.598.05-3.897.004-.18-.114-.213-.23-.262a3.23 3.23 0 0 1-1.797-1.823c-.45-1.113-.155-2.096.631-2.936.736-.787 1.636-1.215 2.736-.915 1.097.299 1.897.976 2.228 2.08.408 1.362-.206 2.577-1.314 3.296-.048.031-.095.067-.148.083-.503.15-.634.476-.623.994.028 1.233-.016 2.468-.042 3.701a1.171 1.171 0 0 1-.122.485 10.65 10.65 0 0 1-.613 1.103c-.51.773-1.304 1.172-2.12 1.532a.38.38 0 0 1-.142.02c-1.177.021-2.354.04-3.532.06-.04 0-.079-.008-.141-.015zm7.448-10.442c-.016-.17-.016-.31-.045-.444-.195-.917-1.321-1.368-2.205-.888-.674.366-.939 1.446-.51 2.16.376.625.996.667 1.63.6.536-.056.892-.364 1.041-.885.053-.185.064-.382.089-.543zM41 36.99v-1.48c.657 0 1.297-.002 1.937.001.325.002.65.025.974.02 1.563-.03 2.584.811 3.345 2.072.087.145.148.306.231.455.14.246.188.506.19.79.01 1.332.037 2.663.049 3.994.001.17.052.259.212.322.517.205.926.557 1.292.968 1.14 1.283.797 3.146-.523 4.16-1.83 1.406-4.1.223-4.58-1.593-.392-1.48.22-2.653 1.697-3.441.302-.162.416-.308.405-.65a117.185 117.185 0 0 1-.047-3.457c-.001-.729-.298-1.296-.864-1.74a1.582 1.582 0 0 0-.94-.358c-1.014-.03-2.028-.043-3.042-.062-.104-.002-.208 0-.336 0zm7.441 8.952c-.015-.145-.016-.292-.048-.433-.204-.906-1.315-1.346-2.194-.874-.575.309-.828.963-.676 1.726.085.427.3.753.71.92.425.174.867.201 1.31.069.584-.175.875-.644.898-1.408zM23.038 25.03v1.494c-.074.005-.144.014-.213.013-1.137-.018-2.274-.037-3.41-.057-.064-.001-.133-.001-.19-.025-1.11-.45-2.024-1.11-2.554-2.235-.202-.428-.32-.844-.318-1.321.008-1.226-.032-2.452-.036-3.679-.001-.214-.07-.316-.263-.39a2.901 2.901 0 0 1-1.186-.867c-1.09-1.29-1.009-2.874.227-4.025.767-.714 1.659-1.059 2.704-.718 1.069.35 1.842 1.035 2.132 2.147.342 1.307-.243 2.417-1.248 3.133-.079.056-.16.12-.251.146-.532.153-.655.5-.626 1.032.06 1.093.063 2.191.053 3.287-.01 1.071.984 2.02 1.92 2.02.982.002 1.964.029 2.946.044.095.002.191 0 .313 0zm-7.432-8.993c-.042.93.456 1.453 1.422 1.495.932.04 1.47-.45 1.517-1.379.046-.937-.45-1.518-1.336-1.56-1.02-.05-1.557.435-1.603 1.444zM23.034 35.493v1.498c-.11 0-.204-.002-.3 0-1.005.017-2.011.04-3.017.05-.852.01-1.83.906-1.845 1.881a396.45 396.45 0 0 0-.044 3.992c0 .074.092.185.167.217.463.198.855.487 1.208.844 1.293 1.306.986 3.24-.355 4.293-1.948 1.53-4.313.081-4.656-1.743-.275-1.464.379-2.548 1.771-3.286.256-.136.358-.256.358-.553-.002-1.348.025-2.695.05-4.042.001-.125.036-.256.084-.372.352-.847.855-1.58 1.62-2.114.553-.385 1.15-.616 1.835-.619.958-.004 1.915-.03 2.873-.046h.251zm-7.43 10.474c-.017.738.314 1.243.963 1.384.294.064.613.067.913.032.541-.065.876-.405.997-.928.054-.234.076-.484.058-.723-.038-.508-.257-.927-.752-1.13a1.892 1.892 0 0 0-1.242-.058c-.617.172-.919.64-.937 1.423zM28.287 54.913h-1.5v-.285c0-1.785-.01-3.57.008-5.356.003-.32-.08-.478-.382-.611-.871-.385-1.444-1.067-1.723-1.97-.352-1.136.047-2.079.864-2.86.772-.74 1.691-1.07 2.746-.713 1.07.363 1.835 1.065 2.11 2.196.32 1.321-.337 2.424-1.274 3.08-.099.07-.203.146-.316.18-.452.135-.555.424-.546.884.032 1.711.013 3.424.013 5.136v.319zm-.624-7.485c.471-.008.96-.175 1.203-.747.169-.4.194-.822.082-1.241-.227-.853-1.333-1.258-2.176-.806-.61.328-.874 1.11-.637 1.89.18.589.667.897 1.528.904zM37.254 54.912h-1.5v-.296c0-1.835-.004-3.67.004-5.505 0-.198-.051-.304-.242-.378a3.05 3.05 0 0 1-1.288-.97c-1.017-1.286-.913-2.812.287-3.932.79-.736 1.708-1.074 2.772-.705 1.069.37 1.846 1.074 2.086 2.214.312 1.484-.371 2.612-1.784 3.345-.25.13-.345.25-.343.537.015 1.794.008 3.589.008 5.383v.307zm-.716-7.485c.63.002 1.091-.25 1.29-.733.17-.408.201-.837.084-1.264-.233-.848-1.344-1.247-2.181-.79-.6.327-.862 1.098-.633 1.871.176.599.67.913 1.44.916zM20.051 30.267v1.486h-.293c-1.835 0-3.67.003-5.503-.005-.19 0-.293.055-.374.226-.283.592-.636 1.126-1.208 1.492-1.275.814-2.728.623-3.734-.504-1.513-1.696-.727-4.286 1.49-4.833 1.172-.289 2.14.144 2.904 1.038.219.255.384.56.542.86.09.17.174.247.38.246 1.826-.01 3.652-.006 5.479-.006h.317zm-8.936-.728c-.954-.015-1.47.492-1.486 1.461-.015.945.486 1.459 1.44 1.477.972.018 1.48-.482 1.494-1.471.013-.94-.492-1.451-1.448-1.467zM42.467 30.279v1.458h-1.466v-1.458h1.466zM21.575 31.739v-1.458h1.455v1.458h-1.456z"/><path d="M32.77 37.725h-1.5v-.266c0-.893-.006-1.786.005-2.679a.572.572 0 0 0-.208-.482c-.386-.344-.595-.768-.488-1.3.144-.722.976-1.323 1.66-1.206.718.123 1.332.958 1.227 1.67-.05.338-.226.609-.48.822-.172.145-.223.307-.22.527.012.877.005 1.754.005 2.63v.284z"/></g></g></switch></svg>