<svg xmlns="http://www.w3.org/2000/svg" xml:space="preserve" id="Layer_1" x="0" y="0" style="enable-background:new 0 0 512 512" version="1.1" viewBox="0 0 512 512"><style>.st0{fill:#fff}</style><path d="M290 0c3.8 2.1 6.4 5.1 4.9 9.7-1.4 4.7-5.4 5.3-9.6 5.3-21.7 0-43.3-.3-65 .1-33.7.6-60.4 28.3-60.3 62 0 .8.1 1.6.1 1.4 9.1 4.6 17.7 8.9 26.3 13.2 4.4 2.2 8.6 4.9 13.2 6.4 26.5 9 40.3 28.2 44.2 55.2 1.5 10.3 1.5 20.7 5.2 30.8 3.1 8.4.7 17.1-2.7 25.1 21.5 16 16.7 55.6 3.2 69.6-6.1 6.3-13.2 8.5-21.7 7.8-1.2 5.9-2.3 11.6-3.5 17.9H308c8.8 0 10.7 1.6 12 10.4 1.7 11.9 1.1 23.6-4.9 34.5 10.6-.6 21.4-11 24-21.7 1-4.2 1.7-8.5 1.9-12.8.5-8.3 2.5-10.5 11.1-10.5 27 0 54-.1 81 0 19.6.1 36.1-6.7 49.1-21.6 9.5-10.9 14.8-23.8 14.8-38.3.2-56.5.4-113 0-169.5-.2-33.4-27.8-59.8-61.7-60-36.3-.2-72.4 0-108.6 0h-4c-4.3.2-8.2-.6-9.6-5.3-1.4-4.6 1.1-7.6 4.9-9.7h126c.7.3 1.4.8 2.2.9 32.7 5.2 57.2 28.3 64.2 60.4.5 2.2 1.1 4.4 1.6 6.7v183c-2.2 7.6-3.5 15.7-6.8 22.8-14.4 30.4-38.9 45.4-72.4 45.6-24 .2-48 .1-72 0-3.9 0-5.3 1-5.9 5.1-2.8 21.2-17.5 36.6-39.4 41-6.7 1.4-13.5 1.9-20.3 2.4-6.2.4-10-2.3-11-7.1-.9-4.4 1.6-8.4 6.8-10.9 12.2-5.8 17.3-16.9 13.6-30.5h-5.7c-25.5 0-51 .1-76.5-.1-3.3 0-5 .9-6.6 3.8-11.1 20.1-27.2 34.7-48.5 43.4-3.6 1.5-4.5 3.3-4.4 7 .3 8.8.1 8.8 8.3 11.5 4.9 1.6 10 2.8 14.6 5 17.4 8.3 34.7 16.7 46.9 32.5 3.1 4 3.2 8.3.1 11.2-3.3 3.1-7.7 2.8-11.4-1.4-6.4-7.3-13.3-14-22-18.5-1-.5-2-.9-3.6-1.6 0 9.2-.2 17.8.1 26.4.2 5.9-1.4 10.7-6.8 13.3-7 3.4-9.3 8.8-8.1 16.1 1.1 6.6-1.9 11-7.4 14.5-6.4 4.1-12.4 8.9-19.4 14h85.5c.8-11.4-.1-22.7-3.1-33.9-2.1-7.8-.9-11.9 4.1-13.3 4.8-1.4 8 1.7 10.3 9.5 4.4 14.9 4.3 30.3 3.7 45.6-.1 2.6-3.1 5.1-4.7 7.6H11c-3.9-2.5-5.3-6-5.1-10.6.3-6.3-.1-12.7.2-19 1.5-25.8 10.4-48.6 28.6-67.4 11.5-11.8 26.3-18.2 40.7-25.1 6-2.8 12.6-4.4 18.8-6.5 1.1-.4 2.9-.8 3-1.4.4-4.1.8-8.3.4-12.3-.1-1.2-2.7-2.4-4.4-3.1-24.7-10.6-42.6-28.1-52.8-53-3.5-8.5-5.3-17.7-7.9-26.7-14.9-.6-23.2-6.3-28.3-20-1.7-4.9-2.8-10-4.2-14.9v-14c.3-1.4.7-2.9.9-4.3 1.2-7.9 4-15.2 10-20.7 2.4-2.2 2.8-4 1.9-6.8-2.5-7.3-1.9-14.7-.6-22.2.9-4.7 1.7-9.5 1.6-14.2-.4-12.9 1.5-25.4 7.9-36.6 4.3-7.6 10.1-14.4 15.7-21.1 2.6-3.2 6.5-3.1 9.9-.4 3.2 2.6 3.5 6.6.8 10.3-1.1 1.5-2.4 2.7-3.6 4.1-12 13.4-16.8 29.1-15.4 47 .3 3.5 0 7.3-1.1 10.6-5.1 15 .3 28.8 15.1 36.5 2.5-3.5 4.9-7.3 7.8-10.7 3.3-3.9 6.6-8 10.6-11.1 13.2-10.1 28.6-13.5 44.9-14.3 10.3-.5 20.7-.5 30.8-2 10.7-1.5 20-6.3 25.8-16.1 1.9-3.2 4.4-5.5 8.5-4.9 4.1.6 5.7 3.6 6.8 7.1 2.9 9.3 8.1 17 15.5 23.4 6.9 6 11.3 13.8 14.5 22.4 3.2 8.7 5.7 9.1 12.9 3.3 12.1-9.8 16.7-22.2 11.8-34.2-2.4-5.9-3.5-11.6-3.2-17.9.1-2.8-.4-5.6-.7-8.5-2.2-24.2-16.8-40.5-40.6-45.7-2.2-.5-4.1-1.9-6.1-3-7-4-13.6-9.1-21.1-11.9-14.8-5.6-30.6-5.5-45.8-2.3-14.4 3-28.4 7.9-42.6 12.2-5.2 1.5-9.4.2-10.9-3.9s.3-7.9 5.1-10c17-7.2 34.6-12.4 52.9-14.1 8.2-.8 16.5-.9 24.8-1.3.1-1.1.2-2.1.2-3.1 1.9-35.9 26.6-64.8 61.7-72.1 2.1-.4 4.1-1 6.2-1.5H290zM167.1 184.2c-8.9 7.8-20 12.2-32.1 13.5-9.2 1-18.6.7-27.9 1.3-19.9 1.1-37.9 5.8-48.3 25.3-1.7 3.2-5.4 5.3-7.9 8.2-1.3 1.4-2.8 3.3-2.8 5-.2 13.5-.3 27-.1 40.5.6 41.7 33 76.2 73.2 80.4 39.6 4.2 78.4-21.6 88.8-59.9 5.5-20.5 1.8-41.4 3.2-62.4-10.7-1.3-15.5-8.4-19.2-17.2-2.1-5.1-5-10.1-8.5-14.5-5.6-6.9-11.9-13.2-18.4-20.2zM21.5 496.7H107c-5.2-3.8-9.6-7-14-10.2-15.2-11.2-12.7-7.3-13.1-25 0-1.9-1.5-4.1-2.8-5.7-1.4-1.6-3.3-2.8-5.2-3.9-5-2.9-6.9-7.1-6.7-12.9.3-8.8.1-17.5.1-26.5-27 9-48.2 49.8-43.8 84.2zm97-10.2c-7.2-30.2-14-59-21-88.2-5.1 1.7-9.4 3.3-13.9 4.6-2.7.8-3.6 2.2-3.5 5 .2 9.2.2 18.3 0 27.5-.1 3 .7 5.2 3.4 6.5 9.7 4.7 13.2 12.5 11.5 22.9-.2 1-.2 2 0 3 .2.9.5 2 1.2 2.5 7 5.1 14.1 10.3 22.3 16.2zm24 0c7.2-5.2 12.9-9.6 19-13.7 3.4-2.2 5.3-4.7 4.6-8.9-1.7-9.9 1.8-17.2 10.9-21.7.7-.4 1.5-.8 2-1.5.8-1.2 1.8-2.5 1.8-3.8.1-10.2.1-20.3 0-30.5 0-1-.9-2.6-1.8-3-4.9-1.9-10-3.4-15.4-5.2-7.1 29.4-13.9 58.1-21.1 88.3zm-27.7-80.3C120 427.9 125 449 130 470.1c.3 0 .6-.1.9-.1 5-21.2 10-42.4 15.1-63.8h-31.2zm123.6-184.6c-3 2.8-5.2 4.6-7.1 6.7-1.3 1.4-3.1 3-3.2 4.6-.3 12.6-.1 25.2-.1 37.8 6.7 1.6 10.8-.3 13.8-7 4.7-10.4 5.8-21.2 2.2-32.1-1.1-3.5-3.5-6.5-5.6-10zm-216.2 1.9c-10.4 7.3-8.9 37.3 1.1 45.4 2.3 1.8 6 2 9.7 3.1 0-13.6.1-25.5-.1-37.5 0-1.4-1-3.1-2-4.1-2.7-2.3-5.7-4.5-8.7-6.9zM147.7 391v-17.6h-34.3V391h34.3z" class="st0"/><path d="M287.7 198.3c-13.7-9.1-16.5-16.3-11.9-31.1-5.7-3.8-10.4-8.5-11.8-15.7-1.4-7.2.3-13.5 4.4-18.7-1.7-4.5-3.9-8.6-4.6-12.9-1.9-12.5 6.8-24 19.4-24.9 12.8-.9 25.6-.4 38.4-1.1 7.9-.4 15.8-1.8 24.2-2.9-2-8-3.8-15-5.5-22.1-2-8.1-2.4-16.1 1.2-24 4.5-9.7 21.2-15.9 30.6-10.7 2.6 1.4 4.8 4.6 6.1 7.4 3.7 8.2 7 16.5 10.1 25 5.2 14 13.9 25.1 25.4 34.6 8.9 7.4 17.2 15.7 25.1 24.2 5.9 6.4 8.2 14.7 8.1 23.6-.1 15.2 0 30.3 0 45.5-.1 21.2-13.4 34.8-34.6 34.9-34 .2-68 .1-102 0-18.3-.1-27.7-13-22.6-31.1zm74.3 16.1c16.8 0 33.7.1 50.5 0 12.6-.1 19.4-7 19.4-19.6 0-15.2-.1-30.3.1-45.5 0-5.6-1.1-10.8-4.9-14.8-7.1-7.4-14.3-15-22.2-21.4-13.6-10.9-23.9-24-30-40.3-2.5-6.7-5.2-13.3-8-19.9-1-2.4-1-5.7-5.4-4.9-4.1.8-7.1 2.6-7.2 6.9-.1 4.1.4 8.3 1.3 12.4 1.4 6.5 3.3 12.9 4.9 19.4 2.4 9.5-1.4 16.3-11 18.3-9.3 1.9-18.7 3.4-28.1 4-11.3.8-22.6.3-34 .6-5.5.2-8.8 3.3-8.7 7.6.1 4.5 3.2 7.1 8.9 7.3 5.2.1 10.3-.1 15.5.1 5.5.2 8.7 3.3 8.6 7.7-.1 4.3-3.2 7-8.5 7.2-5.7.2-11.3.1-17 .3-4.5.2-7.4 3.1-7.5 7.1-.1 4 2.7 7 7.2 7.4 2.5.3 5 .2 7.5.2 4.5.1 9-.2 13.5.2 4.9.4 7.6 3.4 7.3 7.7-.3 4.6-3.2 6.8-7.6 7-3.5.2-7-.1-10.5.3-4.7.5-7.3 3.5-7.2 7.9.1 4.1 2.7 6.5 7.6 6.8 3 .2 6 0 9 .3 4 .3 6.5 2.6 7.2 6.5.7 3.7-.9 6.5-4.1 8.3-1.6.9-3.7 1.5-4.6 2.8-1.3 1.9-2.9 4.6-2.4 6.5.6 2.1 3.1 4 5.2 5.2 1.4.8 3.6.4 5.4.4H362zM131.3 325.8c-17.5-.3-32.5-6.2-43.9-20-1.4-1.7-2.6-3.5-3.6-5.4-2.2-4.1-1.2-8.4 2.5-10.4 4-2.2 7.7-1.3 9.9 2.5 9.5 16.3 31 21.1 48 16.3 8.3-2.3 15-7 19.4-14.6 3.2-5.4 6.9-6.7 11-4.4 4.2 2.4 4.8 6.7 1.7 12.2-8 14.7-25.5 23.9-45 23.8zM92.5 237.4c5.6 1.4 11.3 2.5 16.7 4.4 4.9 1.7 6.5 5.7 4.9 9.8-1.6 4-5.1 5.8-9.8 4-7.6-2.8-15.1-3.2-22.9-1-5.1 1.4-9.2-1-10.2-5.3-.9-4 1.6-7.8 6.4-9.2 2.1-.6 4.2-1.1 6.3-1.4 2.8-.4 5.6-.7 8.4-1 .1.1.2-.1.2-.3zM168.3 237.5c5.8 1.1 10.6 1.7 15.2 2.9 4.8 1.2 7.2 5.2 6.1 9.3-1.1 4-4.8 6.5-9.4 5.2-8.3-2.3-16.3-1.8-24.4 1-4.4 1.6-7.8-.4-9.2-4.4-1.5-4.4.3-7.9 4.3-9.3 6-2.1 12.2-3.3 17.4-4.7z" class="st0"/></svg>