<svg xmlns="http://www.w3.org/2000/svg" viewBox="0 0 500 500"><ellipse cx="250" cy="416.24" rx="193.89" ry="11.32" style="fill:#f5f5f5"/><path d="M0 382.4h500v.25H0zM102.02 398.49h33.12v.25h-33.12zM171.14 390.92h43.55v.25h-43.55zM52.46 389.21h48.56v.25H52.46zM247.61 392.59h34.29v.25h-34.29zM290.8 392.59h48.57v.25H290.8zM326.62 396.81h93.68v.25h-93.68zM237 337.8H43.91a5.71 5.71 0 0 1-5.7-5.71V60.66a5.71 5.71 0 0 1 5.7-5.66H237a5.71 5.71 0 0 1 5.71 5.71v271.38a5.71 5.71 0 0 1-5.71 5.71ZM43.91 55.2a5.46 5.46 0 0 0-5.45 5.46v271.43a5.46 5.46 0 0 0 5.45 5.46H237a5.48 5.48 0 0 0 5.46-5.46V60.66A5.48 5.48 0 0 0 237 55.2ZM453.31 337.8h-193.1a5.73 5.73 0 0 1-5.71-5.71V60.66a5.72 5.72 0 0 1 5.71-5.66h193.1a5.71 5.71 0 0 1 5.69 5.66v271.43a5.7 5.7 0 0 1-5.69 5.71ZM260.21 55.2a5.48 5.48 0 0 0-5.46 5.46v271.43a5.48 5.48 0 0 0 5.46 5.46h193.1a5.48 5.48 0 0 0 5.46-5.46V60.66a5.48 5.48 0 0 0-5.46-5.46Z" style="fill:#ebebeb"/><path d="M122.25 154.24h97.77V382.4h-97.77z" style="fill:#e0e0e0"/><path d="M107.45 154.24h97.77V382.4h-97.77z" style="fill:#f0f0f0"/><path d="M116.93 327.95h79.55v41.3h-79.55zM116.93 273.78h79.55v41.31h-79.55zM116.93 219.62h79.55v41.31h-79.55zM116.93 165.46h79.55v41.31h-79.55z" style="fill:#e0e0e0"/><path d="M116.93 165.46h16.62v41.31h-16.62zM116.93 219.62h16.62v41.31h-16.62zM116.93 273.78h16.62v41.31h-16.62zM116.93 327.95h16.62v41.3h-16.62z" style="opacity:.05"/><path d="M60 78.77h69.85v69.85H60z" style="fill:#e0e0e0"/><path d="M56.34 78.77h69.85v69.85H56.34z" style="fill:#ebebeb"/><path d="M64.38 86.81h53.78v53.78H64.38z" style="fill:#f5f5f5"/><path d="M64.38 86.81h1.78v53.78h-1.78z" style="fill:#e0e0e0"/><circle cx="91.96" cy="113.69" r="10.66" style="fill:#fafafa" transform="rotate(-44.26 91.948 113.691)"/><path d="M56.16 365.49s-5.51-4.75-9.32-15.62-12.64-23.33-12.64-23.33 11.55 5.46 15.62 15.85c0 0-5-21.06-15.62-28.76 0 0 19 6.12 23.77 25.93 0 0 3.17-15.73-2-31.36 0 0 9.73 12.23 10.87 27.4 0 0 1.35-26.27 10-34 0 0-2.72 23.78 0 35.78 0 0 3.85-21.06 21.06-24 0 0-11.1 13.36-10.64 25.13a26 26 0 0 1 21.06-14.71S96 332.43 94.89 346.47s-1.14 18.34-8.61 20.38-30.12-1.36-30.12-1.36Z" style="fill:#f5f5f5"/><path d="M44.21 352.64V380s3.52 9.8 26.13 11.06 27.89-10.81 27.89-10.81v-27.61Z" style="fill:#e6e6e6"/><path d="M303.95 275.28H445.6v107.95H303.95z" style="fill:#e0e0e0"/><path d="M268.68 275.28h141.65v107.95H268.68z" style="fill:#ebebeb"/><path d="M273.74 285.27h129.54v39.99H273.74zM273.74 331.92h129.54v39.99H273.74z" style="fill:none;stroke:#e0e0e0;stroke-miterlimit:10"/><circle cx="338.51" cy="305.26" r="3.63" style="fill:#e0e0e0"/><circle cx="338.51" cy="354.96" r="3.63" style="fill:#e0e0e0"/><path d="M262.44 269.52h188.43v5.76H262.44z" style="fill:#e0e0e0"/><path d="M415.68 269.52h35.19v5.76h-35.19z" style="opacity:.05"/><path d="M291.95 108.52h156.88v88.7H291.95z" style="fill:#e0e0e0"/><path d="M287.85 108.52h156.88v88.7H287.85z" style="fill:#f0f0f0"/><path d="M293.97 115.22h144.16v75.73H293.97z" style="fill:#f5f5f5"/><path d="M293.97 115.22h1.57v75.73h-1.57z" style="fill:#e0e0e0"/><path d="M408.83 135.28h19.47v15.91h-19.47z" style="fill:#fafafa" transform="rotate(20.58 418.562 143.232)"/><circle cx="413.62" cy="135.41" r=".69" style="fill:#e6e6e6"/><path d="m342.8 158.73 38.78 3.9-2.37 15.42-37.34-4.47.93-14.85z" style="fill:#fafafa"/><path d="M379.55 165.46a.69.69 0 1 1-.69-.69.69.69 0 0 1 .69.69Z" style="fill:#e6e6e6"/><path d="m364 269.52 8.57-43.8h40.13l-8.34 43.8H364z" style="fill:#ebebeb"/><path d="m370.11 264.03 6.42-32.82h30.07l-6.25 32.82h-30.24z" style="fill:#fafafa"/><path d="m378.08 231.21-6.22 32.82h-1.75l6.42-32.82h1.55zM412.7 225.72h1.66l-7.76 43.8h-2.24l8.34-43.8z" style="fill:#e6e6e6"/><path d="m411.52 241.7 5.69 27.82H406.6l4.92-27.82z" style="fill:#e0e0e0"/><path d="M324.2 100.28v119.79a14.81 14.81 0 0 1-14.81 14.82H297.5V100.28Z" style="fill:#407bff"/><path d="M324.2 100.28v119.79a14.81 14.81 0 0 1-14.81 14.82H297.5V100.28Z" style="fill:#fff;opacity:.8"/><path d="M324.2 91.18v128.89a14.81 14.81 0 0 1-14.81 14.82H100.06a14.82 14.82 0 0 1-14.82-14.82V91.18a14.81 14.81 0 0 1 14.82-14.82h209.33a14.81 14.81 0 0 1 14.81 14.82Z" style="fill:#fff;stroke:#407bff;stroke-miterlimit:10"/><path d="M323.52 86.73H85.92a14.82 14.82 0 0 1 14.14-10.37h209.33a14.82 14.82 0 0 1 14.13 10.37Z" style="fill:#407bff"/><circle cx="115.44" cy="81.55" r="2.1" style="fill:#fff"/><circle cx="122.94" cy="81.55" r="2.1" style="fill:#fff"/><path d="M132.53 81.55a2.11 2.11 0 1 1-2.1-2.11 2.1 2.1 0 0 1 2.1 2.11Z" style="fill:#fff"/><path d="M324.2 91.18v9.1h-239v-9.1a14.89 14.89 0 0 1 .68-4.45h237.6a14.89 14.89 0 0 1 .72 4.45Z" style="fill:#407bff"/><path d="M324.2 91.18v9.1h-239v-9.1a14.89 14.89 0 0 1 .68-4.45h237.6a14.89 14.89 0 0 1 .72 4.45Z" style="fill:#fff;opacity:.5"/><path d="M113.35 100.28v134.61H99.73a15.13 15.13 0 0 1-14.49-10.38V100.28Z" style="fill:#407bff"/><path d="M113.35 100.28v134.61H99.73a15.13 15.13 0 0 1-14.49-10.38V100.28Z" style="opacity:.1"/><path d="M122.94 109.82h165.19v111.49H122.94z" style="fill:#407bff;opacity:.1"/><path d="M89.55 115.44h7.1v7.1h-7.1zM100.3 115.44h7.1v7.1h-7.1z" style="opacity:.2"/><path d="M222.06 165.12c6.05-7.84 10-18.13 9.18-28.18-.77-9.43-8.38-15.18-17.62-12.92-3.9 1-7.47 2.9-11.07 4.69-6 3-12.32 5.56-19 6.37s-13.29 0-19.8 2.55c-11.33 4.42-14.48 18.9-10.11 29.4 3.88 9.32 13.12 16.52 22.95 18.52" style="fill:none;stroke:#263238;stroke-linecap:round;stroke-linejoin:round"/><path d="M89.55 126.7h7.1v7.1h-7.1zM100.3 126.7h7.1v7.1h-7.1zM89.55 137.96h7.1v7.1h-7.1zM100.3 137.96h7.1v7.1h-7.1zM89.55 149.22h7.1v7.1h-7.1zM100.3 149.22h7.1v7.1h-7.1zM89.55 160.47h7.1v7.1h-7.1zM100.3 160.47h7.1v7.1h-7.1zM89.55 171.73h7.1v7.1h-7.1zM100.3 171.73h7.1v7.1h-7.1z" style="opacity:.2"/><path d="M96.42 182.67a.81.81 0 1 1-.8-.81.8.8 0 0 1 .8.81ZM99.33 182.67a.81.81 0 1 1-.81-.81.8.8 0 0 1 .81.81ZM102.23 182.67a.81.81 0 1 1-.8-.81.8.8 0 0 1 .8.81ZM201.1 175.08l-1.27.89-.76-5.55 4.63 2.82-1.15.78 1.79 2.64-1.41 1.16-1.83-2.74z" style="fill:#263238"/><path d="M298.1 236.09s-5.1 24.62-8.55 30.91-23.23 6-23.23 6l-22.9-1.14s-4.36-14.27 14.31-6.87c0 0 15.75-3 21.76-8l6.3-25.83Z" style="fill:#ff8b7b"/><path d="M366.25 419.63h-6.11l-16.58-90.19-.57-3.11 5.9-1.09.77 4.2 16.59 90.19z" style="fill:#407bff"/><path d="M366.25 419.63h-6.11l-16.58-90.19-.57-3.11 5.9-1.09.77 4.2 16.59 90.19z" style="fill:#fff;opacity:.5"/><path d="M339.9 419.63h-6.03l-8.28-90.19-.88-9.6-.2-2.13 5.97-.55.25 2.68.88 9.6 8.29 90.19z" style="fill:#407bff"/><path d="M339.9 419.63h-6.03l-8.28-90.19-.88-9.6-.2-2.13 5.97-.55.25 2.68.88 9.6 8.29 90.19z" style="fill:#fff;opacity:.5"/><path d="m278.24 320.98-.64 8.46-6.86 90.19h-6.02l6.85-90.19.68-8.91 5.99.45z" style="fill:#407bff"/><path d="m278.24 320.98-.64 8.46-6.86 90.19h-6.02l6.85-90.19.68-8.91 5.99.45z" style="fill:#fff;opacity:.5"/><path d="m260.85 321.25-1.35 8.19-14.87 90.19h-6.08l14.88-90.19 1.51-9.17 5.91.98z" style="fill:#407bff"/><path d="m260.85 321.25-1.35 8.19-14.87 90.19h-6.08l14.88-90.19 1.51-9.17 5.91.98z" style="fill:#fff;opacity:.5"/><path d="m358.92 318.43-.55 1.41-2.63 6.65a4.62 4.62 0 0 1-4.33 2.95h-99.06a4.67 4.67 0 0 1-4.4-3.08l-2.33-6.52-.55-1.55a4.65 4.65 0 0 1 4.39-6.22h105.13a4.65 4.65 0 0 1 4.33 6.36Z" style="fill:#407bff"/><path d="m358.37 319.84-2.63 6.65a4.62 4.62 0 0 1-4.33 2.95h-99.06a4.67 4.67 0 0 1-4.4-3.08l-2.33-6.52Z" style="opacity:.30000000000000004"/><path d="m258.05 377.34 4.68-10.63a2.79 2.79 0 0 1 3.33-1.56l7.4 2.1a2.81 2.81 0 0 1 1.79 3.85c-2 4.52-5.8 12.94-7 15.95-1.63 4.19-3 9.24-5.18 10.65a2.91 2.91 0 0 1-.42.23 2.77 2.77 0 0 1-3.78-3.05c.58-3.52 1.21-10.1-.91-15.41a2.72 2.72 0 0 1 .09-2.13ZM298.46 276.3s-50.55-6.9-65.82 7.46c0 0-9.46 12.91-4.91 38.18A105.28 105.28 0 0 0 246.64 365l13.27-11.28s-11.81-29.09-7.81-47.09l18.36-1.09 26.33-18 2.76-7.46Z" style="fill:#263238"/><path d="m247.86 370.08-4.95-6.01 18.14-14.92 3.43 3.57-16.62 17.36z" style="fill:#407bff"/><path d="M348.15 275.75s1.4 14.4-3.17 24.94-20.72 14.4-31.61 13.7-24.94-1.6-30.91.08c0 0-7.73 43.83-21.08 75.79l-16.16-1.4S254 327 255.41 312.63s.7-16.51 9.48-23.53 53.75-16.51 83.26-13.35Z" style="fill:#263238"/><path d="m257.27 396.05-1.53 6.69-12.83 4.49 3.73-14.25 10.63 3.07z" style="fill:#ff8b7b"/><path d="m242.74 406.81 10.9-4.05a2.8 2.8 0 0 1 3.44 1.31l3.64 6.77a2.8 2.8 0 0 1-1.52 4c-4.65 1.69-13.32 4.85-16.29 6.11-4.14 1.76-8.72 4.29-11.25 3.7a3.47 3.47 0 0 1-.46-.13 2.78 2.78 0 0 1-.44-4.85c2.93-2 8.09-6.16 10.42-11.38a2.73 2.73 0 0 1 1.56-1.48Z" style="fill:#263238"/><path d="M298.1 279.61s-6.58-43.52-8-54.11 0-16 4-19.47 22.34-10.88 34.65-8.88 18.32 12.31 20 24l-2.86 1.43s3.66 40.56 2.33 54.59Z" style="fill:#407bff"/><path d="M294.09 206s-9.73 8.59-9.73 25.19l15.17 5.81Z" style="fill:#407bff"/><path d="M346.12 222.42s5.51 19.48 4 27.53-15.22 18.85-34.28 22.45c0 0-8.47 1.48-13.35-2.54l-7.41-2.12 2.12-6.57a39.64 39.64 0 0 1 16.31 3.83s18.21-8.26 23.93-14.61c0 0-.64-12.92-3.81-22Z" style="fill:#ff8b7b"/><path d="m263.63 390.26-21.27-3.2-.77 6.69 19.3 3.94 2.74-7.43z" style="fill:#407bff"/><path d="M283.43 179.18a16.32 16.32 0 0 0 .46 11.77 15.69 15.69 0 0 1 .4-9c1-2.74 2.65-5.15 3.93-7.75s2.15-5.63 1.3-8.4c-.18-.55-.58-1.19-1.15-1.1s-.69.57-.85 1a17 17 0 0 0-1.26 3.57c-.14.95 0 1.89-.14 2.86-.47 2.44-1.86 4.66-2.69 7.05Z" style="fill:#263238"/><path d="M289.32 170.75a4.39 4.39 0 0 0-2.82 3.69 7.61 7.61 0 0 1-2.93-9.26c2.31-6 5.44-14.51 14.76-13.27s28.86 4 21.86 24.82-13.94-4.61-13.94-4.61Z" style="fill:#263238"/><path d="M309.71 209.66c-8.49-.53-4.89-7.85-4.5-10.56a5.86 5.86 0 0 0-.74-3.4 11.15 11.15 0 0 0-1.44-2.14c-3.72 0-7.84-.5-10.79-3-3.3-2.75-4.61-7.88-5.15-11.95a61.3 61.3 0 0 1-.22-11.34c0-.56.08-1.11.1-1.66.13-2.17.27-4.33.35-6.45 0 0 8.23-1.81 15.58-.13 5.44 1.24 9.26 5.76 10.91 12.87a37.52 37.52 0 0 1 .91 8.25c.15 11.82 4.78 13.89 6.59 17.36s-3.09 12.65-11.6 12.15Z" style="fill:#ff8b7b"/><path d="m294.54 181.17-2-7.61-1.37 8s1.11.91 3.37-.39Z" style="fill:#ff5652"/><path d="M300.42 182.47s-1.25 2.68-5.23 3.15" style="fill:none;stroke:#263238;stroke-linecap:round;stroke-linejoin:round;stroke-width:.5px"/><path d="M300 169.58a3.94 3.94 0 0 0-4.4-1" style="fill:none;stroke:#263238;stroke-linecap:round;stroke-linejoin:round;stroke-width:.75px"/><path d="M296.84 173.31c.07.77.52 1.36 1 1.32s.82-.7.76-1.47-.52-1.36-1-1.32-.82.7-.76 1.47ZM288 175.49c.07.77.52 1.36 1 1.32s.82-.7.76-1.47-.52-1.37-1-1.32-.76.7-.76 1.47ZM286.72 165.73a22.9 22.9 0 0 0 8.83-4.15c2.94 9.72 15.46 10.07 18.59 10.07-1.64-7.11-5.58-12.05-11-13.29-7.34-1.68-16 .26-16 .26-.08 2.13-.3 4.95-.42 7.11Z" style="fill:#263238"/><path d="m297.6 171.84-2.05-.39s.53 1.49 2.05.39ZM289.17 174.06l-2.05-.38s.53 1.48 2.05.38Z" style="fill:#263238"/><ellipse cx="308.19" cy="151.52" rx="7.87" ry="8.26" style="fill:#263238" transform="rotate(-76.43 308.2 151.515)"/><path d="m292.87 163-1.66 2.18s4.39-.76 5.36-3.76-2.69-.65-2.69-.65Z" style="fill:#263238"/><path d="M308.64 191.18a15.54 15.54 0 0 1-4.17 4.52 11.15 11.15 0 0 0-1.44-2.14 20.44 20.44 0 0 0 5.61-2.38Z" style="opacity:.1"/><path d="M286.12 172.07a3.17 3.17 0 0 1 3.46-2.17" style="fill:none;stroke:#263238;stroke-linecap:round;stroke-linejoin:round;stroke-width:.75px"/><path d="M311.58 172.87a7.85 7.85 0 0 1 .93-1.14c1.17-1.19 3.08-2.75 4.85-1.88 2.14 1 1.69 4.05 1.09 5.89a6.62 6.62 0 0 1-3.08 3.89c-2.11 1.09-5.25.51-5.23-2.33a8.06 8.06 0 0 1 1.44-4.43Z" style="fill:#ff8b7b"/><path d="M313.81 169.6s-3.5 5.9-2.07 11.12.64 7.68-.35 10.45c0 0 .39-7.93-1.25-10.79-2.5-4.37 1-10.8 1-10.8Z" style="fill:#263238"/><path d="M300.29 152s9.06 1.08 14.51 4.8c0-.05-4.73-6.34-14.51-4.8Z" style="fill:#407bff"/><path d="M188.44 269.52h57a3.81 3.81 0 0 0 3.7-4.73L239 224.38a3.81 3.81 0 0 0-3.7-2.89h-57a3.81 3.81 0 0 0-3.7 4.73l10.08 40.41a3.81 3.81 0 0 0 3.76 2.89Z" style="fill:#263238"/><path d="M243.47 266.33h38.74v3h-36.76a2 2 0 0 1-2-2v-1.06l.02.06Z" style="fill:#263238" transform="rotate(180 262.84 267.855)"/><path d="M188.44 269.52h57a3.81 3.81 0 0 0 3.7-4.73L239 224.38a3.81 3.81 0 0 0-3.7-2.89h-57a3.81 3.81 0 0 0-3.7 4.73l10.08 40.41a3.81 3.81 0 0 0 3.76 2.89Z" style="opacity:.30000000000000004"/><path d="M185.45 269.52h57a3.81 3.81 0 0 0 3.7-4.73L236 224.38a3.81 3.81 0 0 0-3.7-2.89h-57a3.81 3.81 0 0 0-3.7 4.73l10.08 40.41a3.82 3.82 0 0 0 3.77 2.89Z" style="fill:#263238"/><path d="M185.45 269.52h57a3.81 3.81 0 0 0 3.7-4.73L236 224.38a3.81 3.81 0 0 0-3.7-2.89h-57a3.81 3.81 0 0 0-3.7 4.73l10.08 40.41a3.82 3.82 0 0 0 3.77 2.89Z" style="fill:#fff;opacity:.2"/><path d="M211.41 244.32c.79 3.37-.8 6.64-3.56 7.29s-5.66-1.55-6.46-4.92.8-6.64 3.56-7.29 5.66 1.6 6.46 4.92Z" style="opacity:.30000000000000004"/><path d="m171.62 273.03-21.03 130.42h-4.66l21.15-131.16 4.54.74z" style="fill:#407bff"/><path d="m171.62 273.03-21.03 130.42h-4.66l21.15-131.16 4.54.74z" style="fill:#fff;opacity:.5"/><path d="M202.56 403.45h-4.67l-20.32-130.43 4.55-.71 20.44 131.14z" style="fill:#407bff"/><path d="M202.56 403.45h-4.67l-20.32-130.43 4.55-.71 20.44 131.14z" style="fill:#fff;opacity:.5"/><path d="m251.08 273.03-21.03 130.42h-4.67l21.15-131.16 4.55.74z" style="fill:#407bff"/><path d="m251.08 273.03-21.03 130.42h-4.67l21.15-131.16 4.55.74z" style="fill:#fff;opacity:.5"/><path d="M321.27 403.45h-4.66l-20.33-130.43 4.55-.71 20.44 131.14z" style="fill:#407bff"/><path d="M321.27 403.45h-4.66l-20.33-130.43 4.55-.71 20.44 131.14z" style="fill:#fff;opacity:.5"/><path d="M133.75 268.58H327v6.07H133.75z" style="fill:#407bff"/><path d="M249.2 268.58h77.89v6.07H249.2z" style="opacity:.30000000000000004"/><path d="M320.07 268.58h-31.92a1.78 1.78 0 0 1 1.78-1.78h28.35a1.79 1.79 0 0 1 1.79 1.78ZM308.48 251.57l-4.3 10.32c-.79-.16-1.5-.27-2-.34l4.48-10.75a1 1 0 0 1 1.85.77Z" style="fill:#263238"/><ellipse cx="311.52" cy="231.91" rx="10" ry="11.58" style="fill:#263238"/><path d="m333.63 228.35-.68-2.41 15.31-7.63.52 2.89-15.15 7.15z" style="fill:#263238"/><path d="m332.95 225.94-4.64-6.95 7.37 17.22-2.73-10.27z" style="opacity:.1"/><path d="m291.27 233.83-.42-2.61-6.49-2.47v2.47l6.91 2.61z" style="fill:#263238"/><path d="M291.27 233.83c-.13-.5-1.72-11.41-1.72-11.41v10.76Z" style="opacity:.1"/><path d="M304.2 200.94s-4.38 9.78 5.94 9.47 12.92-7.93 13.44-13.6l-3.22-1.11s-1.86 8-8.84 9.59-6.4-5.69-6.4-5.69Z" style="fill:#263238"/><path d="m245.56 397.09 10.89 2.56.62-2.73-10.88-2.23-.63 2.4z" style="opacity:.1"/></svg>