<svg xmlns="http://www.w3.org/2000/svg" id="Capa_1" data-name="Capa 1" viewBox="0 0 502.64 502.64"><defs><style>.cls-1{fill:#004999}.cls-2{fill:#e43c5c}</style></defs><path d="M16.75 318.08h469.13V79.24c0-10-2.21-12.21-12.32-12.22-4.36 0-8.73.12-13.09-.07-5.13-.22-8.15-3.44-8.16-8.3s3-8.16 8.14-8.31c6.27-.19 12.58-.31 18.84 0a25.12 25.12 0 0 1 23.28 23.48c.11 1.74.06 3.49.06 5.24V373.3c0 18.86-9.85 28.75-28.69 28.75h-445c-19.11 0-28.92-9.87-28.92-29.06V78.81C0 60.32 9.95 50.32 28.32 50.26c4.53 0 9.08-.11 13.61.06 5.19.19 8.25 3.31 8.34 8.13.1 5.08-3 8.34-8.5 8.52-4.7.16-9.42 0-14.13 0-8.27 0-10.92 2.68-10.92 11v240.1Zm0 17.2v37c0 11.07 1.95 13 13.12 13H476.33c6.54-.18 9.48-3.09 9.52-9.75.08-12.56 0-25.13 0-37.69a22.84 22.84 0 0 0-.34-2.59Z" class="cls-1"/><path d="M418.85 83.98H83.78v204.73c0 1.75.1 3.51-.07 5.24-.49 4.71-3.81 7.67-8.38 7.62s-7.78-3-8.23-7.79c-.15-1.56-.07-3.14-.07-4.71V28.39c0-18.44 10-28.35 28.52-28.35H407c18.79 0 28.6 9.87 28.6 28.81v260.68a26 26 0 0 1-.26 5.73c-1 4.31-3.91 6.49-8.33 6.39s-7.2-2.44-8-6.78a32.36 32.36 0 0 1-.16-5.75V90.73Zm0-17.15V29.19c0-10.34-2.13-12.44-12.62-12.44H94.32c-7.67.08-10.47 2.78-10.5 10.35v36.11c0 1.16.21 2.32.33 3.62Z" class="cls-2"/><path d="M197.84 452.13h107.48c-2.15-2.87-4.18-5.29-5.88-7.93-2.84-4.38-5.71-8.77-8.11-13.39s-.81-9.54 3.35-11.65 9-.67 11.4 4.12a82.86 82.86 0 0 0 20.24 25.75c2.14 1.83 5.38 2.81 8.25 3.22 4.8.69 9.84 0 14.54 1 11.5 2.46 19.21 12.35 19.46 24.09.1 5.06.06 10.12 0 15.18-.08 7.13-3 10.12-10.28 10.13q-38 .06-75.9 0H146.32c-9.91 0-12.25-2.37-12.26-12.37 0-4.54-.12-9.08.06-13.61a25.24 25.24 0 0 1 24.7-24.27 1.81 1.81 0 0 1 .52 0c11.8 2.54 19.51-3.67 25.91-12.33 3.72-5 7.29-10.21 10.51-15.57 3.35-5.59 7.69-7.7 12.29-5.27s5.75 7.39 2.45 13.09c-3.84 6.6-8.18 12.89-12.66 19.81Zm-47 33.39h200.72c1.11-14.44-.65-16.39-14.44-16.39H160.79c-7 0-9.84 2.93-10 9.83-.02 2.08.02 4.15.02 6.56Z" class="cls-1"/><path d="M285.32 124.25c-.76 2.89-1.11 4.59-1.66 6.23q-24.44 73.29-48.93 146.57c-2.16 6.47-6 9-11 7.36s-7-5.88-5-11.78q10.47-31.72 21.08-63.42 13.95-41.85 28-83.68c.75-2.24 1.72-5.19 3.48-6.13 2.45-1.31 6.14-2 8.58-1.14s3.89 4.17 5.45 5.99ZM147.14 201.06c14 11.64 27.39 22.75 40.71 34 1.82 1.53 3.78 3.34 4.65 5.45 1.56 3.79.15 7.25-3.19 9.61-3.65 2.59-7.2 1.9-10.51-.86l-32.93-27.44c-5.22-4.35-10.47-8.67-15.66-13.06-6.07-5.13-6.14-10.16-.15-15.18q23.64-19.82 47.35-39.54c5.07-4.22 10-4.27 13.32-.26s2.47 8.86-2.58 13.09c-13.46 11.24-26.97 22.45-41.01 34.19ZM355.52 201.07c-14.18-11.84-27.83-23.2-41.44-34.6-5.28-4.43-5.56-10.7-.63-14.1 3.63-2.5 7.27-2.14 10.6.63 16.48 13.72 33 27.4 49.35 41.25 5 4.23 4.85 9.57-.25 13.86q-24.39 20.55-49 40.85c-4.47 3.7-9.22 3.32-12.45-.6s-2.57-8.61 1.87-12.34c13.75-11.52 27.56-22.97 41.95-34.95Z" class="cls-2"/><path d="M251.5 368.56c-5.41 0-10.83.1-16.23 0s-8.86-3.52-8.83-8.32 3.58-8.24 8.91-8.31q16.5-.19 33 0c5.37.08 8.79 3.61 8.76 8.42s-3.37 8.11-8.85 8.21-11.18 0-16.76 0Z" class="cls-1"/><path d="M343.24 50.26H295.1c-6.94 0-10.31-2.74-10.36-8.23s3.43-8.49 10.2-8.5h96.8c6.64 0 10.32 3.18 10.2 8.54-.13 5.16-3.72 8.17-10 8.19-16.26.06-32.48 0-48.7 0ZM117.24 41.65a8.34 8.34 0 1 1-8.56-8.11 8.47 8.47 0 0 1 8.56 8.11ZM150.75 41.69a8.34 8.34 0 1 1-8.52-8.15 8.46 8.46 0 0 1 8.52 8.15ZM184.25 42.05a8.33 8.33 0 1 1-8.15-8.51 8.44 8.44 0 0 1 8.15 8.51Z" class="cls-2"/></svg>