<svg id="Capa_1" data-name="Capa 1" xmlns="http://www.w3.org/2000/svg" viewBox="0 0 502.64 502.64"><defs><style>.cls-1{fill:#004999;}.cls-2{fill:#e43c5c;}</style></defs><path class="cls-1" d="M21.43,322.76H490.56V83.92c0-10-2.21-12.21-12.32-12.22-4.36,0-8.73.12-13.09-.07-5.13-.22-8.15-3.44-8.16-8.3s3-8.16,8.14-8.31c6.27-.19,12.58-.31,18.84,0a25.12,25.12,0,0,1,23.28,23.48c.11,1.74.06,3.49.06,5.24q0,147.12,0,294.24c0,18.86-9.85,28.75-28.69,28.75q-222.51,0-445,0c-19.11,0-28.92-9.87-28.92-29.06V83.49C4.68,65,14.63,55,33,54.94c4.53,0,9.08-.11,13.61.06,5.19.19,8.25,3.31,8.34,8.13.1,5.08-3,8.34-8.5,8.52-4.7.16-9.42,0-14.13,0-8.27,0-10.92,2.68-10.92,11q0,84.54,0,169.1v71Zm0,17.2v37c0,11.07,1.95,13,13.12,13H477.34c1.22,0,2.45,0,3.67,0,6.54-.18,9.48-3.09,9.52-9.75.08-12.56,0-25.13,0-37.69a22.84,22.84,0,0,0-.34-2.59Z" transform="translate(-4.68 -4.68)"/><path class="cls-2" d="M423.53,88.66H88.46V95q0,99.2,0,198.39c0,1.75.1,3.51-.07,5.24-.49,4.71-3.81,7.67-8.38,7.62s-7.78-3-8.23-7.79c-.15-1.56-.07-3.14-.07-4.71q0-130.33,0-260.68c0-18.44,10-28.35,28.52-28.35H411.68c18.79,0,28.6,9.87,28.6,28.81q0,130.33,0,260.68a26,26,0,0,1-.26,5.73c-1,4.31-3.91,6.49-8.33,6.39s-7.2-2.44-8-6.78a32.36,32.36,0,0,1-.16-5.75q0-99.19,0-198.39Zm0-17.15c0-12.91,0-25.28,0-37.64,0-10.34-2.13-12.44-12.62-12.44H99c-7.67.08-10.47,2.78-10.5,10.35,0,12,0,24.07,0,36.11,0,1.16.21,2.32.33,3.62Z" transform="translate(-4.68 -4.68)"/><path class="cls-1" d="M202.52,456.81H310c-2.15-2.87-4.18-5.29-5.88-7.93-2.84-4.38-5.71-8.77-8.11-13.39s-.81-9.54,3.35-11.65,9-.67,11.4,4.12A82.86,82.86,0,0,0,331,453.71c2.14,1.83,5.38,2.81,8.25,3.22,4.8.69,9.84,0,14.54,1,11.5,2.46,19.21,12.35,19.46,24.09.1,5.06.06,10.12,0,15.18-.08,7.13-3,10.12-10.28,10.13q-38,.06-75.9,0H151c-9.91,0-12.25-2.37-12.26-12.37,0-4.54-.12-9.08.06-13.61a25.24,25.24,0,0,1,24.7-24.27,1.81,1.81,0,0,1,.52,0c11.8,2.54,19.51-3.67,25.91-12.33,3.72-5,7.29-10.21,10.51-15.57,3.35-5.59,7.69-7.7,12.29-5.27s5.75,7.39,2.45,13.09C211.34,443.6,207,449.89,202.52,456.81Zm-47,33.39H356.24c1.11-14.44-.65-16.39-14.44-16.39H249.19q-41.87,0-83.72,0c-7,0-9.84,2.93-10,9.83C155.45,485.72,155.49,487.79,155.49,490.2Z" transform="translate(-4.68 -4.68)"/><path class="cls-2" d="M290,128.93c-.76,2.89-1.11,4.59-1.66,6.23q-24.44,73.29-48.93,146.57c-2.16,6.47-6,9-11,7.36s-7-5.88-5-11.78q10.47-31.72,21.08-63.42,13.95-41.85,28-83.68c.75-2.24,1.72-5.19,3.48-6.13,2.45-1.31,6.14-2,8.58-1.14S288.44,127.11,290,128.93Z" transform="translate(-4.68 -4.68)"/><path class="cls-2" d="M151.82,205.74c14,11.64,27.39,22.75,40.71,34,1.82,1.53,3.78,3.34,4.65,5.45,1.56,3.79.15,7.25-3.19,9.61-3.65,2.59-7.2,1.9-10.51-.86l-32.93-27.44c-5.22-4.35-10.47-8.67-15.66-13.06-6.07-5.13-6.14-10.16-.15-15.18q23.64-19.82,47.35-39.54c5.07-4.22,10-4.27,13.32-.26s2.47,8.86-2.58,13.09C179.37,182.79,165.86,194,151.82,205.74Z" transform="translate(-4.68 -4.68)"/><path class="cls-2" d="M360.2,205.75c-14.18-11.84-27.83-23.2-41.44-34.6-5.28-4.43-5.56-10.7-.63-14.1,3.63-2.5,7.27-2.14,10.6.63,16.48,13.72,33,27.4,49.35,41.25,5,4.23,4.85,9.57-.25,13.86q-24.39,20.55-49,40.85c-4.47,3.7-9.22,3.32-12.45-.6s-2.57-8.61,1.87-12.34C332,229.18,345.81,217.73,360.2,205.75Z" transform="translate(-4.68 -4.68)"/><path class="cls-1" d="M256.18,373.24c-5.41,0-10.83.1-16.23,0s-8.86-3.52-8.83-8.32,3.58-8.24,8.91-8.31q16.5-.19,33,0c5.37.08,8.79,3.61,8.76,8.42s-3.37,8.11-8.85,8.21S261.76,373.24,256.18,373.24Z" transform="translate(-4.68 -4.68)"/><path class="cls-2" d="M347.92,54.94q-24.06,0-48.14,0c-6.94,0-10.31-2.74-10.36-8.23s3.43-8.49,10.2-8.5q48.4,0,96.8,0c6.64,0,10.32,3.18,10.2,8.54-.13,5.16-3.72,8.17-10,8.19C380.36,55,364.14,54.94,347.92,54.94Z" transform="translate(-4.68 -4.68)"/><path class="cls-2" d="M121.92,46.33a8.34,8.34,0,1,1-8.56-8.11A8.47,8.47,0,0,1,121.92,46.33Z" transform="translate(-4.68 -4.68)"/><path class="cls-2" d="M155.43,46.37a8.34,8.34,0,1,1-8.52-8.15A8.46,8.46,0,0,1,155.43,46.37Z" transform="translate(-4.68 -4.68)"/><path class="cls-2" d="M188.93,46.73a8.33,8.33,0,1,1-8.15-8.51A8.44,8.44,0,0,1,188.93,46.73Z" transform="translate(-4.68 -4.68)"/></svg>