<svg id="Capa_1" data-name="Capa 1" xmlns="http://www.w3.org/2000/svg" viewBox="0 0 512 511.96"><defs><style>.cls-1{fill:#004999;}.cls-2{fill:#e43c5c;}</style></defs><path class="cls-1" d="M118.29,479.71l-86.95-87c1.25-.77,3.21-1.52,4.58-2.88,16.3-16.17,32.46-32.48,48.8-48.61,2.27-2.24,2.85-4.06,1.2-6.84a52.57,52.57,0,0,1-3.07-6.79c-4.51-10.78-4.5-10.78-16.49-10.78H0V195.34H78.33l9-21.59L32.18,118.62,118.7,32.09c5.09,5.26,10.56,11.06,16.17,16.71,11.79,11.87,23.75,23.58,35.41,35.58,2.6,2.69,4.63,3.09,7.72,1.25a51.35,51.35,0,0,1,7.28-3.28c9.94-4,9.94-4,9.94-14.85V0H316.88V5.73c0,22.78.05,45.56-.06,68.35,0,3.22.6,5.17,4.13,6.2a74,74,0,0,1,12.8,5.23c3.34,1.71,5.45,1.36,8.17-1.41,15.83-16.13,31.89-32,47.88-48,1.37-1.37,2.8-2.68,3.73-3.57,28.7,28.7,57.21,57.2,86.08,86.08C465.24,132.87,451,148.09,435.52,162c-8.63,7.77-12,14.26-5.53,25.29,5.29,9,1.3,7.81,12.21,7.87,23.13.11,46.26,0,69.8,0V316.85h-6c-22.43,0-44.85.13-67.28-.12-4.35-.05-6.57,1.2-7.51,5.39a37.06,37.06,0,0,1-2.5,6.45c-4.23,9.84-4.24,9.83,3.52,17.59L476,390c1.24,1.24,2.43,2.54,3.15,3.3L392.48,480a26,26,0,0,0-3.12-4.53c-15.79-15.92-31.75-31.68-47.46-47.69-2.74-2.79-5-3.32-8.25-1.38a55.33,55.33,0,0,1-7.77,3.49c-9,3.57-9,3.55-9,13.43V512H195.49c-.08-1.77-.25-3.64-.25-5.52,0-22.78-.11-45.56.08-68.34,0-3.63-.94-5.59-4.45-6.58a65.73,65.73,0,0,1-8.44-3.28c-8.87-3.86-8.86-3.89-15.89,3.15ZM393.3,458l64.77-64.76-51.5-51.13c4.86-12.14,9.65-23.41,13.83-34.89,1.42-3.93,2.89-5.54,7.33-5.48,21.19.27,42.37.13,63.56.11,1.89,0,3.78-.18,5.69-.27V210.2h-6.26c-21.36,0-42.72-.06-64.08.06-3.12,0-4.57-.86-5.75-3.93q-6-15.65-12.84-31c-1.52-3.4-1.51-5.44,1.31-8.2,15.4-15.07,30.55-30.38,45.78-45.61,1.21-1.22,2.34-2.51,3.2-3.44L393.76,53.54c-1.11,1.05-2.54,2.34-3.91,3.7-15.11,15.1-30.29,30.14-45.25,45.38-2.6,2.65-4.35,2.7-7.66,1.18-9.83-4.52-19.83-8.75-30-12.4-4.19-1.49-5.22-3.43-5.18-7.58.2-21,.09-42,.09-63V15H210.23v6.12c0,21.37-.06,42.73.06,64.09,0,3.13-.87,4.48-4,5.66q-16.17,6.16-31.94,13.31c-3.1,1.41-4.64.87-6.78-1.29C153.08,88.24,138.42,73.69,123.89,59a59.62,59.62,0,0,1-4.91-6.3l-65.42,65.4c1,1.1,2.35,2.52,3.71,3.87C72.5,137.22,87.7,152.49,103,167.63c2.22,2.19,2.6,3.8,1.23,6.82-4.53,10-8.78,20.17-12.65,30.46-1.45,3.88-3,5.48-7.45,5.42C63,210,41.79,210.2,20.6,210.2H15.16v91.61h6.26c21,0,42,.08,63-.07,3.68,0,5.56.85,7,4.63,4,10.63,8.41,21.09,13,31.45,1.31,2.93.56,4.38-1.41,6.33-12.53,12.39-25,24.89-37.44,37.33-4.14,4.12-8.37,8.16-11.9,11.6l65.39,65.38a33.84,33.84,0,0,1,2.89-3.68c15.19-15.27,30.46-30.46,45.61-45.77,2.14-2.16,3.69-2.79,6.8-1.38,10.17,4.62,20.49,9,31,12.83,3.9,1.44,5,3.19,5,7.19-.2,21.18-.09,42.36-.09,63.55v5.74h91.61v-6.19c0-21.19-.06-42.37.11-63.56,0-1.87,1-4.85,2.37-5.43,12.24-5.19,24.65-10,37.64-15.11Z" transform="translate(0 0)"/><path class="cls-2" d="M295.07,247.23,284.45,236.1c12.82-12,23.41-26.78,41.92-32,31.49-8.94,64.07,12.72,68,45.22a53.63,53.63,0,0,1-59.11,60.12c-13.43-1.38-24.62-7.39-34.13-17-27.1-27.26-54.39-54.35-81.51-81.59-14.76-14.84-32.37-21.91-53.36-20.92-36,1.69-65.72,36.6-61.17,72.34,3.49,27.35,18,46.66,44,55.86,26.28,9.3,49.71,2.94,69.66-16.33,5.87-5.69,11.45-11.68,17.38-17.76l10.21,11c-18.09,20.34-37.58,38.73-67.35,41.85-42.33,4.45-83.32-27.41-88.35-69.68-5.51-46.25,24.42-85.7,70.64-91.71,26.91-3.5,50,5.68,69.15,24.95q40.47,40.69,81.15,81.19c12,12,26,16.25,42.4,10.94,15.83-5.12,27.61-22.9,25.87-38.89-2.14-19.63-15.57-33.94-33.4-36.1-13.57-1.64-24.82,2.69-34.29,12.19C306.48,235.4,301,241.18,295.07,247.23Z" transform="translate(0 0)"/><path class="cls-2" d="M217.77,264.63l7.82,8.5c.59.64,1.16,1.3,2.12,2.37-13.27,12.54-24,28-43.23,32.48-19.54,4.52-36.95.28-51.22-13.66s-19.12-31.2-14.64-50.43c5.88-25.2,26.32-41.59,51.9-41.81,15.59-.14,29,5.9,40.08,17.09q40.08,40.37,80.41,80.46,3,3,6.21,5.86a66.15,66.15,0,1,0,50.95-115.32c-19.56-2-37.09,3.42-51.62,16.89-7,6.52-13.32,13.84-20.44,21.31L266.2,216.5c20.9-25.21,45.93-44.61,82.64-41.45,41.45,3.55,74.62,40.34,73.14,82.29-1.24,35.06-18.3,60.52-50.69,73.6-33.11,13.36-63.37,6.12-88.83-18.79C255,285.27,228,257.89,200.84,230.64c-11.78-11.84-25.48-16.47-41.78-11.66-13.9,4.11-25.11,17.66-26.61,31.78-1.74,16.3,5.69,31.37,19.13,38.78,14.27,7.88,31.1,7,43-3C202.46,279.92,209.59,272.42,217.77,264.63Z" transform="translate(0 0)"/><path class="cls-1" d="M345.4,345.62l10.35,10.3c-52.45,54.35-144.42,56.41-199.63.1l10.48-10.26c25,23.88,54.62,36.71,89.32,36.7S320.33,369.73,345.4,345.62Z" transform="translate(0 0)"/><path class="cls-1" d="M205.09,139.49l-5.61-12.78c45-22.49,113.68-15.4,155.86,28.76l-10,10.18C304.3,128.7,257.69,119.82,205.09,139.49Z" transform="translate(0 0)"/><path class="cls-1" d="M103.54,359.2l9.25,9.23L78.5,402.62l-9.11-9.34Z" transform="translate(0 0)"/><path class="cls-1" d="M390.59,89.85l-9-9c4.56-4.45,9.05-8.84,13.89-13.55l9.06,10Z" transform="translate(0 0)"/><path class="cls-1" d="M167.61,145.2l9.23,11.7L166.7,166l-10.52-10.62Z" transform="translate(0 0)"/><path class="cls-1" d="M374.6,88.27l9.73,9.82L373,107.43l-8.71-9.88Z" transform="translate(0 0)"/><path class="cls-1" d="M176,138.91l13.53-8.17,7.08,13.1-12,7.38Z" transform="translate(0 0)"/><path class="cls-1" d="M365.85,116.5,356,125.78l-9.62-10.45,10.13-9.4Z" transform="translate(0 0)"/></svg>