<svg xmlns="http://www.w3.org/2000/svg" xml:space="preserve" viewBox="0 0 62 62"><switch><g><path fill="none" stroke="#1D1D1B" stroke-miterlimit="10" stroke-width=".001" d="M0 0h62v62H0z"/><path fill="#3F3F3F" d="M57.412 22.803a12.019 12.019 0 0 0-1.4-3.412h.003a8.092 8.092 0 0 0-2.237-2.742h-.002c-1.95-1.79-4.242-2.878-6.863-3.274-2.522-.382-4.964-.032-7.328.885-3.1 1.201-5.692 3.139-7.948 5.551-.14.149-.273.303-.413.458-.541-.52-1.056-1.026-1.581-1.522-2.112-1.993-4.456-3.633-7.206-4.623-3.712-1.337-7.381-1.314-10.972.44a12.358 12.358 0 0 0-3.053 2.13l-.005.001a7.982 7.982 0 0 0-1.888 2.256 4.629 4.629 0 0 0-.148.223c-1.582 2.58-2.203 5.38-1.645 8.351.876 4.671 3.658 7.827 8.053 9.521 3.288 1.267 6.601 1.041 9.86-.188 2.817-1.063 5.202-2.789 7.346-4.873.388-.378.792-.738 1.208-1.124.01.012.048.066.094.11.962.91 1.88 1.871 2.897 2.714 2.097 1.74 4.44 3.058 7.099 3.737 3.904.998 7.59.512 10.979-1.738 4.276-2.839 6.32-7.983 5.15-12.88zm-22.656-4.08c2.23-1.847 4.683-3.264 7.547-3.858 3.203-.664 6.216-.183 9.003 1.572.19.12.29.256.33.482.143.794.312 1.584.47 2.376.014.07.015.144.026.253-.497-.054-.97-.103-1.443-.156-.438-.048-.876-.104-1.315-.148a3.433 3.433 0 0 1-1.13-.3c-2.118-.986-4.276-.92-6.444-.168-1.562.542-2.942 1.406-4.23 2.427l-.24.185-.063-.034c.13-.584.281-1.165.382-1.754a1.274 1.274 0 0 0-.078-.697c-.12-.265-.404-.308-.683-.28l-2.02.193c-.044.005-.09.008-.165.014.025-.052.031-.09.053-.108zm16.434 6.703c.058 2.415-1.103 4.213-3.196 5.372-1.867 1.034-3.823.963-5.782.266-1.885-.67-3.478-1.809-4.913-3.171-.653-.62-1.24-1.308-1.854-1.968-.095-.102-.175-.218-.303-.38.658-.715 1.282-1.455 1.972-2.129 1.457-1.423 3.086-2.609 5.017-3.316 1.909-.7 3.828-.809 5.686.146 2.097 1.077 3.317 2.803 3.373 5.18zm-25.709-7.673c.653-.078 1.177.157 1.648.6.964.905 1.947 1.79 2.921 2.683.054.05.097.111.159.184l-2.237 2.988c-.98-.928-1.926-1.838-2.888-2.73a9.477 9.477 0 0 0-.994-.783.91.91 0 0 1-.387-.552c-.194-.754-.41-1.502-.615-2.253-.019-.07-.025-.143-.042-.245l2.07.09c.122.005.246.032.365.018zm1.707 7.711c-.439.523-.844 1.026-1.27 1.511-1.107 1.263-2.313 2.416-3.782 3.259-1.717.985-3.563 1.449-5.54 1.246-2.921-.298-5.449-2.667-5.523-5.85-.063-2.72 1.9-5.211 4.602-5.891 1.798-.453 3.502-.14 5.156.599 1.854.828 3.405 2.08 4.826 3.507.516.518 1.006 1.062 1.531 1.619zm-16.113-7.648c.136-.518.264-1.038.417-1.55a.561.561 0 0 1 .242-.306c2.485-1.335 5.12-1.702 7.886-1.206 1.425.256 2.771.738 4.064 1.38.067.034.132.07.197.109.012.007.015.029.041.081-.474-.021-.931-.017-1.382-.068-.994-.112-1.266.42-.977 1.228.191.538.31 1.101.46 1.654.022.077.034.157.049.23-.675-.259-1.32-.543-1.988-.755-2.014-.637-4.007-.616-5.97.236-.241.104-.53.104-.8.136-.764.09-1.53.172-2.295.255-.09.01-.183.001-.314.001l.37-1.425zM7.927 31.563a.446.446 0 0 1-.26-.182c-1.01-1.538-1.608-3.223-1.736-5.06-.184-2.667.54-5.072 2.132-7.219l1.27-1.42.466-.408c-.027.134-.035.189-.05.242-.196.753-.396 1.507-.592 2.26-.16.619.195 1.014.831.94.556-.065 1.112-.12 1.741-.189-.12.144-.195.236-.273.326-1.88 2.177-2.272 5.305-.987 7.863.042.082.078.171.096.261.088.432.167.866.253 1.3.117.594.237 1.19.356 1.79-.055.011-.082.025-.107.02-1.047-.171-2.095-.341-3.14-.524zm16.363 2.111c-.062.158-.15.309-.185.472-.123.558-.49.84-.997 1.063-2.026.885-4.123 1.4-6.344 1.288-2.899-.148-5.41-1.224-7.525-3.215-.019-.019-.032-.044-.099-.136.579.094 1.095.177 1.61.262.37.061.74.128 1.11.188.551.09.926-.272.835-.822-.088-.526-.203-1.047-.316-1.619.09.052.143.075.188.109 1.67 1.271 3.556 1.76 5.636 1.582a11.164 11.164 0 0 0 3.483-.862.64.64 0 0 1 .242-.06c.958 0 1.916.004 2.874.01.044 0 .087.012.168.025l-.68 1.715zm1.465.018c.166-.423.303-.776.443-1.129.131-.331.27-.66.396-.994.206-.546-.099-.985-.686-.99-.57-.004-1.14 0-1.746 0 .665-.617 1.322-1.167 1.908-1.784.723-.761 1.391-1.576 2.072-2.378.004-.005.007-.014.01-.021.257-.31.514-.628.773-.96.125-.16.243-.317.363-.476l.004.012.013-.034c.293-.386.578-.77.845-1.146.327-.427.637-.838.962-1.236a76.249 76.249 0 0 1 1.692-2 .681.681 0 0 1 .401-.205c.887-.102 1.775-.184 2.663-.27.082-.008.166-.001.288-.001l-.305 1.406c-.03.138-.077.274-.09.413-.078.86-.47 1.554-1.075 2.141a7.94 7.94 0 0 0-.717.777c-.182.227-.273.368-.767 1.067l-.131.185-.004-.006c-2.013 2.936-4.268 5.606-7.313 7.63zm10.244-1.854c.195.558.405 1.11.608 1.665.035.095.066.192.1.288-1.702-1.062-3.186-2.36-4.497-3.829.76-1.031 1.502-2.041 2.263-3.075a21.375 21.375 0 0 0 4.257 3.905l-1.452.06c-.207.007-.414.006-.62.015-.562.024-.846.435-.659.97zm15.653 2.621c-3.044 2.067-6.365 2.573-9.898 1.673-1.003-.256-1.96-.694-2.93-1.07-.133-.051-.263-.21-.317-.348-.294-.752-.564-1.513-.84-2.272-.026-.068-.044-.139-.091-.293.472 0 .901.008 1.33-.005.134-.003.266-.063.4-.093.09-.02.2-.077.268-.046.41.188.835.055 1.25.088.175.014.356.037.516.1 1.67.651 3.382.927 5.163.577a7.599 7.599 0 0 0 2.624-1.053l.363-.228c-.057.254-.099.45-.146.644-.095.392-.198.783-.29 1.176-.137.573.167.955.749.924.666-.036 1.33-.094 1.995-.14.09-.006.18 0 .36 0-.211.153-.355.264-.506.366zm2.222-2.05a.615.615 0 0 1-.368.195c-.428.053-.86.075-1.292.105-.531.037-1.063.07-1.636.108.027-.123.045-.211.067-.298.22-.904.44-1.807.667-2.709.043-.17.1-.344.19-.493 1.593-2.653 1.38-5.87-.556-8.278-.06-.075-.116-.153-.21-.278.76.083 1.45.166 2.14.233.548.052.879-.317.774-.854-.13-.672-.268-1.342-.393-1.968l.036-.027 1.227 1.428c2.695 4.019 2.46 9.067-.646 12.836z"/></g></switch></svg>