<svg xmlns="http://www.w3.org/2000/svg" width="512" height="512" viewBox="0 0 64 64"><path fill="#ded8d0" d="M51 8c2.21 0 4 1.79 4 4v39.642c0 2.21-1.79 4-4 4H7c-2.21 0-4-1.79-4-4V12c0-2.21 1.79-4 4-4z"/><path fill="#c9c4bd" d="M7 55.642h44c2.21 0 4-1.79 4-4V30C45.536 40.354 29.526 47.97 3 49.393v2.249c0 2.21 1.79 4 4 4z"/><circle cx="51" cy="51" r="11" fill="#f5a947"/><path fill="#f09d3a" d="M57.592 42.209A10.937 10.937 0 0 1 59.8 48.8c0 6.075-4.925 11-11 11-2.476 0-4.753-.828-6.591-2.209C44.215 60.264 47.4 62 51 62c6.075 0 11-4.925 11-11 0-3.6-1.736-6.785-4.408-8.791z"/><path fill="#e34e4b" d="M55 18H3v-6a4 4 0 0 1 4-4h44a4 4 0 0 1 4 4z"/><path fill="#f5a947" d="M12 13a2 2 0 0 1-2-2V5a2 2 0 1 1 4 0v6a2 2 0 0 1-2 2zM23 13a2 2 0 0 1-2-2V5a2 2 0 1 1 4 0v6a2 2 0 0 1-2 2zM35 13a2 2 0 0 1-2-2V5a2 2 0 1 1 4 0v6a2 2 0 0 1-2 2zM46 13a2 2 0 0 1-2-2V5a2 2 0 1 1 4 0v6a2 2 0 0 1-2 2z"/><path fill="#50b6cf" d="M9 23h6v6H9zM20 23h6v6h-6zM31 23h6v6h-6zM42 23h6v6h-6zM9 34h6v6H9zM20 34h6v6h-6zM31 34h6v6h-6zM42 34h6v6h-6zM9 45h6v6H9zM20 45h6v6h-6zM31 45h6v6h-6z"/><g fill="#0d0f23"><path d="M56 40.105V12c0-2.757-2.243-5-5-5h-2V5c0-1.654-1.346-3-3-3s-3 1.346-3 3v2h-5V5c0-1.654-1.346-3-3-3s-3 1.346-3 3v2h-6V5c0-1.654-1.346-3-3-3s-3 1.346-3 3v2h-5V5c0-1.654-1.346-3-3-3S9 3.346 9 5v2H7c-2.757 0-5 2.243-5 5v40c0 2.757 2.243 5 5 5h33.623c2.08 3.58 5.947 6 10.377 6 6.617 0 12-5.383 12-12 0-4.831-2.876-8.994-7-10.895zM45 5a1 1 0 0 1 2 0v6a1 1 0 0 1-2 0zM34 5a1 1 0 0 1 2 0v6a1 1 0 0 1-2 0zM22 5a1 1 0 0 1 2 0v6a1 1 0 0 1-2 0zM11 5a1 1 0 0 1 2 0v6a1 1 0 0 1-2 0zM7 9h2v2c0 1.654 1.346 3 3 3s3-1.346 3-3V9h5v2c0 1.654 1.346 3 3 3s3-1.346 3-3V9h6v2c0 1.654 1.346 3 3 3s3-1.346 3-3V9h5v2c0 1.654 1.346 3 3 3s3-1.346 3-3V9h2c1.654 0 3 1.346 3 3v5H4v-5c0-1.654 1.346-3 3-3zm0 46c-1.654 0-3-1.346-3-3V19h50v20.395A11.943 11.943 0 0 0 51 39c-.683 0-1.348.07-2 .18V34a1 1 0 0 0-1-1h-6a1 1 0 0 0-1 1v6a1 1 0 0 0 1 1h2.38C41.143 43.151 39 46.828 39 51c0 1.404.255 2.747.7 4zm40-16h-4v-4h4zm4 22c-5.514 0-10-4.486-10-10s4.486-10 10-10 10 4.486 10 10-4.486 10-10 10z"/><path d="M52 49.277V43h-2v6.277c-.595.347-1 .985-1 1.723 0 .101.015.198.03.296l-3.655 2.923 1.25 1.562 3.652-2.921c.225.088.467.14.723.14a2 2 0 0 0 2-2c0-.738-.405-1.376-1-1.723zM15 22H9a1 1 0 0 0-1 1v6a1 1 0 0 0 1 1h6a1 1 0 0 0 1-1v-6a1 1 0 0 0-1-1zm-1 6h-4v-4h4zM26 22h-6a1 1 0 0 0-1 1v6a1 1 0 0 0 1 1h6a1 1 0 0 0 1-1v-6a1 1 0 0 0-1-1zm-1 6h-4v-4h4zM37 22h-6a1 1 0 0 0-1 1v6a1 1 0 0 0 1 1h6a1 1 0 0 0 1-1v-6a1 1 0 0 0-1-1zm-1 6h-4v-4h4zM42 30h6a1 1 0 0 0 1-1v-6a1 1 0 0 0-1-1h-6a1 1 0 0 0-1 1v6a1 1 0 0 0 1 1zm1-6h4v4h-4zM15 33H9a1 1 0 0 0-1 1v6a1 1 0 0 0 1 1h6a1 1 0 0 0 1-1v-6a1 1 0 0 0-1-1zm-1 6h-4v-4h4zM26 33h-6a1 1 0 0 0-1 1v6a1 1 0 0 0 1 1h6a1 1 0 0 0 1-1v-6a1 1 0 0 0-1-1zm-1 6h-4v-4h4zM37 33h-6a1 1 0 0 0-1 1v6a1 1 0 0 0 1 1h6a1 1 0 0 0 1-1v-6a1 1 0 0 0-1-1zm-1 6h-4v-4h4zM15 44H9a1 1 0 0 0-1 1v6a1 1 0 0 0 1 1h6a1 1 0 0 0 1-1v-6a1 1 0 0 0-1-1zm-1 6h-4v-4h4zM26 44h-6a1 1 0 0 0-1 1v6a1 1 0 0 0 1 1h6a1 1 0 0 0 1-1v-6a1 1 0 0 0-1-1zm-1 6h-4v-4h4zM37 44h-6a1 1 0 0 0-1 1v6a1 1 0 0 0 1 1h6a1 1 0 0 0 1-1v-6a1 1 0 0 0-1-1zm-1 6h-4v-4h4z"/></g></svg>