<svg xmlns="http://www.w3.org/2000/svg" xml:space="preserve" viewBox="0 0 62 62"><switch><g><path fill="none" stroke="#1D1D1B" stroke-miterlimit="10" stroke-width=".001" d="M0 0h62v62H0z"/><path fill="#3F3F3F" d="M30.32 29.325c-.947 0-1.895.028-2.84-.007-1.168-.044-2.31-.958-2.536-2.094-.333-1.672-.098-2.735 1.343-3.745.48-.336 1.033-.435 1.608-.445 2.248-.04 4.496-.097 6.744-.104.463-.001.737-.187.982-.513a1.72 1.72 0 0 0 .063-1.925 1.216 1.216 0 0 0-1.045-.58c-1.129-.021-2.258-.04-3.387-.054-.493-.006-.844-.317-.86-.816-.021-.638-.013-1.278-.02-1.917-.008-.654.078-.517-.51-.66-1.295-.315-2.448-.89-3.348-1.884-1.688-1.864-2.205-4.03-1.35-6.403.885-2.45 2.68-3.939 5.284-4.239 2.653-.306 4.748.788 6.148 3.027 1.379 2.205 1.323 4.494-.06 6.7-.954 1.518-2.377 2.414-4.116 2.8-.355.08-.5.212-.46.59.04.377.01.762.01 1.167.152.01.266.02.381.023.767.023 1.534.033 2.3.068 1.448.067 2.57 1.04 2.81 2.465.207 1.237-.054 2.334-1.088 3.15-.474.374-1.008.59-1.619.597-1.822.021-3.644.041-5.465.068-.511.007-1.023.027-1.533.057a1.409 1.409 0 0 0-1.295 1.055c-.186.729.038 1.465.575 1.796.155.095.358.15.542.158 1.16.052 2.32.089 3.481.125.521.016.853.305.876.83.028.638.023 1.278.032 1.917.002.125 0 .25 0 .416h.48c4.049.011 8.099.084 12.147.02 5.692-.09 10.267 4.262 11.606 8.637.997 3.257.593 6.354-1.135 9.256-1.855 3.115-4.544 5.164-8.121 5.92-2.995.632-5.79-.007-8.347-1.628-2.078-1.317-3.67-3.098-4.664-5.373-.082-.187-.181-.25-.38-.248-1.588.009-3.176.015-4.763.003-.247-.002-.334.116-.417.303a11.754 11.754 0 0 1-4.286 5.089c-2.036 1.359-4.269 2.127-6.731 2.085-2.643-.044-4.973-.994-7.02-2.635-2.377-1.906-3.968-4.327-4.545-7.34-.636-3.324.22-6.322 2.197-9.012 1.686-2.294 3.899-3.872 6.651-4.666a9.868 9.868 0 0 1 2.714-.37c4.166-.016 8.332-.027 12.499-.042.6-.002.514.062.52-.535.002-.309-.005-.618-.01-.927 0-.02-.014-.038-.022-.058l-.02-.102zm24.778 13.652c.066-2.09-.645-3.927-1.795-5.606-1.617-2.361-3.845-3.887-6.599-4.645a3.416 3.416 0 0 0-.875-.13 802.636 802.636 0 0 0-6.265-.008c-7.66.014-15.32.032-22.981.053-.275.001-.556.025-.823.088-3.13.744-5.512 2.517-7.133 5.285-1.195 2.04-1.71 4.233-1.263 6.598.477 2.518 1.762 4.562 3.67 6.24 3.358 2.957 7.854 3.374 11.679 1.069 1.994-1.202 3.48-2.865 4.365-5.026.252-.615.628-.932 1.284-.935.415-.001.83-.02 1.246-.02 1.374-.001 2.749.013 4.123.003.774-.005 1.294.256 1.57 1.053.323.93.872 1.755 1.51 2.507 2.09 2.46 4.726 3.852 7.978 3.893 2.205.027 4.197-.724 5.92-2.081 2.69-2.12 4.316-4.832 4.39-8.338zM26.394 10.234c.005 2.643 2.175 4.827 4.789 4.82 2.588-.009 4.781-2.22 4.773-4.814-.008-2.593-2.214-4.777-4.815-4.767-2.571.01-4.751 2.196-4.747 4.76z"/><path fill="#3F3F3F" d="M17.784 43.747c0 .16.002.285 0 .41-.014 1.107-.024 2.214-.046 3.322a3.44 3.44 0 0 1-.09.695c-.08.348-.412.625-.72.632-.288.006-.652-.286-.713-.633a8.016 8.016 0 0 1-.123-1.205c-.02-.937-.012-1.874-.016-2.811v-.39c-.15 0-.273.001-.396-.001-1.267-.023-2.535-.037-3.801-.076-.607-.018-.913-.542-.605-1.064.107-.18.367-.358.574-.378.75-.076 1.507-.095 2.261-.114.638-.016 1.277-.004 1.965-.004v-.36c.019-1.3.037-2.599.057-3.898.006-.432.608-.831 1.011-.674.424.165.588.405.595.859l.054 3.738c.001.094.009.188.015.31.124.008.237.02.35.02 1.245.019 2.492.05 3.737.043.384-.002.511.253.67.493.15.225.125.463-.016.693-.17.278-.374.433-.743.423-1.224-.035-2.449-.024-3.674-.03h-.346zM47.058 42.994c-.006-1.586 1.154-2.776 2.713-2.782 1.566-.006 2.793 1.208 2.79 2.76-.002 1.596-1.174 2.767-2.766 2.766-1.595-.002-2.732-1.142-2.737-2.744zm3.882.02c-.008-.79-.4-1.178-1.182-1.17-.707.006-1.108.437-1.105 1.19.002.62.51 1.104 1.156 1.1.646-.002 1.138-.49 1.131-1.12zM42.657 42.984c-.008 1.617-1.157 2.761-2.764 2.753-1.607-.007-2.736-1.162-2.726-2.786.01-1.576 1.2-2.76 2.756-2.74 1.57.02 2.742 1.21 2.734 2.773zm-2.756 1.15c.627.003 1.152-.483 1.157-1.072.007-.77-.42-1.238-1.136-1.244-.72-.007-1.149.449-1.157 1.231-.007.592.507 1.083 1.136 1.086zM42.076 37.978c.007-1.525 1.257-2.777 2.767-2.771 1.51.006 2.82 1.306 2.811 2.788-.01 1.455-1.328 2.767-2.773 2.758-1.542-.008-2.81-1.264-2.805-2.775zm1.604.017c.006.69.48 1.15 1.182 1.146.688-.004 1.175-.485 1.173-1.16-.002-.702-.484-1.164-1.204-1.154-.712.01-1.157.462-1.15 1.169zM42.076 47.973c.005-1.527 1.249-2.775 2.763-2.772 1.512.004 2.822 1.297 2.815 2.781-.006 1.458-1.315 2.761-2.77 2.758-1.541-.003-2.812-1.255-2.808-2.767zm2.775-1.146c-.724-.001-1.167.43-1.171 1.14-.004.692.463 1.16 1.16 1.164.712.004 1.206-.48 1.196-1.168-.01-.7-.466-1.136-1.185-1.136zM28.524 41.384c-.234 0-.474-.031-.701.007-.425.071-.59-.216-.753-.502-.166-.289-.071-.55.127-.792.204-.25.423-.409.782-.371.518.054 1.042.04 1.563.072.447.027.803.386.807.79.005.388-.301.695-.773.73-.349.026-.701.005-1.052.005v.061zM33.451 41.35c-.309 0-.618.013-.925-.003-.389-.02-.759-.41-.752-.769.007-.369.37-.77.753-.78a28.667 28.667 0 0 1 1.882.01c.406.016.735.4.73.787-.005.395-.336.72-.762.747a1.943 1.943 0 0 1-.128.005h-.798v.003zM30.451 10.468c.687-.724 1.347-1.463 2.055-2.152.555-.54.403-.617 1.081.019.17.16.356.301.544.459-.1.125-.139.185-.188.235-1.1 1.126-2.208 2.246-3.3 3.382-.184.193-.304.168-.466.006a285.628 285.628 0 0 0-1.72-1.708c-.152-.15-.16-.294-.016-.443.222-.228.451-.45.677-.676.129-.129.254-.128.387-.003.285.268.573.533.947.88z"/></g></switch></svg>