<svg xmlns="http://www.w3.org/2000/svg" width="512" height="512"><linearGradient id="a" x1="0" x2="512" y1="256" y2="256" gradientUnits="userSpaceOnUse"><stop offset="0" stop-color="#ffdbed" stop-opacity="0"/><stop offset="1" stop-color="#ffdbed"/></linearGradient><path fill="url(#a)" d="M418.32 2.5c-55.666-9.521-178.298 12.183-200.004 105.017-14.431 61.722-14.007 112.075-50.427 113.02-21.67.562-32.97-44.31-62.889-48.001-39.047-4.817-66.145 27.695-83.057 57.138-37.205 64.772-25.571 174.918 23.354 228.632 118.488 130.086 259.197-5.952 319.358-112.309 38.585-68.213 125.637-123.352 143.767-200.248C523.599 81.373 489.919 14.746 418.32 2.5z"/><g fill="#6583fe" opacity=".2"><path d="M442.979 132.499c5.523 0 10-4.477 10-10V86.317c0-5.523-4.477-10-10-10H66.695a9.992 9.992 0 0 0-8.293 4.41 9.952 9.952 0 0 0-1.71 5.592v376.28c0 5.52 4.48 10 10 10h36.19c5.52 0 10-4.48 10-10v-330.1z"/><path d="M461.198 411.292h-8.219V389.99l3.658-.106c4.322-.125 6.459-5.306 3.481-8.441l-7.139-7.518V167.959c0-5.523-4.477-10-10-10H148.336c-5.523 0-10 4.477-10 10v294.642c0 5.523 4.477 10 10 10h294.642c5.523 0 10-4.477 10-10v-26.815h8.219a4.11 4.11 0 0 0 4.111-4.111v-16.271a4.11 4.11 0 0 0-4.11-4.112z"/></g><path fill="#00d890" d="M112.882 56.319v386.28c0 5.52-4.48 10-10 10h-36.19c-5.52 0-10-4.48-10-10V66.319c0-5.52 4.48-10 10-10z"/><path fill="#00b574" d="M112.882 56.319v74.18h-56.19v-64.18c0-5.52 4.48-10 10-10z"/><path fill="#02ffb3" d="M56.694 112.499V66.317c0-5.523 4.477-10 10-10h376.284c5.523 0 10 4.477 10 10v36.182c0 5.523-4.477 10-10 10z"/><path fill="#ffdbed" d="M442.978 452.601H148.336c-5.523 0-10-4.477-10-10V147.959c0-5.523 4.477-10 10-10h294.642c5.523 0 10 4.477 10 10v294.642c0 5.523-4.477 10-10 10z"/><path fill="#fff" d="M330.549 330.171H138.336V147.959c0-5.523 4.477-10 10-10h182.212v192.212z"/><path fill="#ff7eb8" d="m397.242 307.887 2.035 78.758c.112 4.322 5.286 6.475 8.43 3.507l20.055-18.929a1.99 1.99 0 0 1 1.309-.542l27.566-.796c4.322-.125 6.459-5.306 3.481-8.441l-54.252-57.129c-3.154-3.321-8.742-1.007-8.624 3.572zM461.197 415.786h-16.271a4.11 4.11 0 0 1-4.111-4.111v-16.271a4.11 4.11 0 0 1 4.111-4.111h16.271a4.11 4.11 0 0 1 4.111 4.111v16.271a4.11 4.11 0 0 1-4.111 4.111z"/><g fill="#2626bc"><path d="M117.877 112.451v-.769c-.024.011-.05.019-.074.03-.38-2.384-2.429-4.212-4.921-4.212H61.694V66.316c0-2.757 2.243-5 5-5h41.183v11.188a5 5 0 1 0 10 0V61.316h21.096v11.188a5 5 0 1 0 10 0V61.316h21.096v11.188a5 5 0 1 0 10 0V61.316h21.097v11.188a5 5 0 1 0 10 0V61.316h21.096v11.188a5 5 0 1 0 10 0V61.316h21.096v11.188a5 5 0 1 0 10 0V61.316h21.096v11.188a5 5 0 1 0 10 0V61.316h21.097v11.188a5 5 0 1 0 10 0V61.316h21.096v11.188a5 5 0 1 0 10 0V61.316h21.096v11.188a5 5 0 1 0 10 0V61.316h21.097v11.188a5 5 0 1 0 10 0V61.316h14.142c2.757 0 5 2.243 5 5v36.183c0 2.757-2.243 5-5 5h-296.1a5 5 0 1 0 0 10h296.097c8.271 0 15-6.729 15-15V66.316c0-8.271-6.729-15-15-15H66.694c-8.271 0-15 6.729-15 15V442.6c0 8.271 6.729 15 15 15h36.183c8.271 0 15-6.729 15-15V112.547c0-.016.005-.032.005-.048s-.005-.032-.005-.048zm-15 335.15H66.694c-2.757 0-5-2.243-5-5v-14.142h11.188a5 5 0 1 0 0-10H61.694v-21.096h11.188a5 5 0 1 0 0-10H61.694v-21.096h11.188a5 5 0 1 0 0-10H61.694v-21.096h11.188a5 5 0 1 0 0-10H61.694v-21.096h11.188a5 5 0 1 0 0-10H61.694v-21.096h11.188a5 5 0 1 0 0-10H61.694v-21.096h11.188a5 5 0 1 0 0-10H61.694v-21.096h11.188a5 5 0 1 0 0-10H61.694v-21.096h11.188a5 5 0 1 0 0-10H61.694v-21.096h11.188a5 5 0 1 0 0-10H61.694v-21.096h46.183v325.102c0 2.756-2.243 5-5 5z"/><path d="M175.068 325.171a5 5 0 1 0 0 10h11.5a5 5 0 1 0 0-10zM211.801 325.171a5 5 0 1 0 0 10h11.5a5 5 0 1 0 0-10zM248.533 325.171a5 5 0 1 0 0 10h11.5a5 5 0 1 0 0-10zM285.266 325.171a5 5 0 1 0 0 10h11.5a5 5 0 1 0 0-10zM335.549 174.691a5 5 0 1 0-10 0v11.5a5 5 0 1 0 10 0zM335.549 211.423a5 5 0 1 0-10 0v11.5a5 5 0 1 0 10 0zM335.549 248.155a5 5 0 1 0-10 0v11.5a5 5 0 1 0 10 0zM335.549 284.888a5 5 0 1 0-10 0v11.5a5 5 0 1 0 10 0zM330.549 316.62a5 5 0 0 0-5 5v3.551h-3.551a5 5 0 1 0 0 10h8.551a5 5 0 0 0 5-5v-8.551a5 5 0 0 0-5-5z"/><path d="M461.197 386.292h-3.219v-11.529c3.476-.507 6.389-2.742 7.759-6.064 1.525-3.698.762-7.798-1.993-10.698l-5.766-6.071v-69.263a5 5 0 1 0-10 0v58.732l-38.486-40.527a9.933 9.933 0 0 0-11.077-2.353 9.932 9.932 0 0 0-6.171 9.497l2.035 78.757c.103 3.999 2.461 7.438 6.155 8.975a10.11 10.11 0 0 0 3.884.785c2.485 0 4.91-.943 6.82-2.746l19.222-18.143 17.618-.509v11.155h-3.053c-5.023 0-9.11 4.087-9.11 9.111v16.271c0 5.024 4.087 9.111 9.11 9.111h3.053v21.815c0 2.757-2.243 5-5 5H148.336c-2.757 0-5-2.243-5-5v-107.43h6.501a5 5 0 1 0 0-10h-6.501V147.959c0-2.757 2.243-5 5-5h177.213v6.5a5 5 0 1 0 10 0v-6.5h107.43c2.757 0 5 2.243 5 5v100.708a5 5 0 1 0 10 0V147.959c0-8.271-6.729-15-15-15H148.336c-8.271 0-15 6.729-15 15v294.642c0 8.271 6.729 15 15 15h294.643c8.271 0 15-6.729 15-15v-21.815h3.219c5.024 0 9.111-4.087 9.111-9.111v-16.271c0-5.025-4.087-9.112-9.112-9.112zm-32.265-20.609a6.985 6.985 0 0 0-4.602 1.904l-20.055 18.929-2.035-78.758 54.252 57.129zm31.377 45.103h-14.493v-14.494h14.493z"/></g><path fill="#02ffb3" d="M189.498 179.933h-16.667a5 5 0 1 1 0-10h16.667a5 5 0 1 1 0 10z"/><path fill="#ff7eb8" d="M239.498 199.263h-66.667a5 5 0 1 1 0-10h66.667a5 5 0 1 1 0 10zM239.498 218.594h-66.667a5 5 0 1 1 0-10h66.667a5 5 0 1 1 0 10z"/><path fill="#00d890" d="M350.657 381.933h16.667a5 5 0 1 0 0-10h-16.667a5 5 0 1 0 0 10z"/><path fill="#ff7eb8" d="M300.657 401.263h66.667a5 5 0 1 0 0-10h-66.667a5 5 0 1 0 0 10zM300.657 420.594h66.667a5 5 0 1 0 0-10h-66.667a5 5 0 1 0 0 10z"/><path fill="#01eca5" d="M489.5 253.641a5 5 0 0 1-5-5c0-3.309-2.691-6-6-6a5 5 0 1 1 0-10c3.309 0 6-2.691 6-6a5 5 0 1 1 10 0c0 3.309 2.691 6 6 6a5 5 0 1 1 0 10c-3.309 0-6 2.691-6 6a5 5 0 0 1-5 5z"/><path fill="#6583fe" d="M22.5 417.276a5 5 0 0 1-5-5c0-3.309-2.691-6-6-6a5 5 0 1 1 0-10c3.309 0 6-2.691 6-6a5 5 0 1 1 10 0c0 3.309 2.691 6 6 6a5 5 0 1 1 0 10c-3.309 0-6 2.691-6 6a5 5 0 0 1-5 5z"/><path fill="#ff7eb8" d="M212.551 38.542a5 5 0 0 1-3.535-8.535l10-10a5 5 0 0 1 7.07 7.071l-10 10a4.989 4.989 0 0 1-3.535 1.464z"/><path fill="#6583fe" d="M280.266 493.458a5 5 0 0 1-3.535-8.535l10-10a5 5 0 0 1 7.07 7.071l-10 10a4.984 4.984 0 0 1-3.535 1.464zM473.5 173.587a5 5 0 0 1-3.535-8.535l10-10a5 5 0 0 1 7.07 7.071l-10 10a4.983 4.983 0 0 1-3.535 1.464z"/></svg>