<svg xmlns="http://www.w3.org/2000/svg" width="512" height="512" viewBox="0 0 511.981 511.981"><path fill="#95d6a4" d="M349.189 85.867c-12.83 12.83-36.25 57.339-36.25 57.339l-1.78-.8-74.199-33.48c-15.37-43.8-10.29-81.949 4.93-81.949 14.98 0 31.2 37.17 31.71 38.33-.21-1.41-8.54-56.379 16.5-56.379 11.45 0 17.73 8.6 21.18 18.04 4.19 11.48 4.19 24.2 4.19 24.2s18.98-43.13 41.85-36.79c22.859 6.34 4.709 58.659-8.131 71.489z"/><path fill="#78c2a4" d="M307.23 127.426c2.71 5.91 3.94 10.87 3.93 14.98l-74.199-33.48c-15.37-43.8-10.29-81.949 4.93-81.949 14.98 0 31.2 37.17 31.71 38.33-.21-1.41-8.54-56.379 16.5-56.379 11.45 0 17.73 8.6 21.18 18.04l-.01.01c-8.801-18.05-34.491 33.979-4.041 100.448z"/><ellipse cx="357.315" cy="187.378" fill="#e49542" rx="185.154" ry="94.97" transform="rotate(-45 357.308 187.457)"/><g fill="#e28424"><path d="M226.395 318.296c-37.087-37.087-8.535-125.772 63.766-198.073 72.308-72.308 160.993-100.861 198.08-63.773-15.613-15.613-86.888 30.349-159.197 102.657-72.3 72.301-118.262 143.577-102.649 159.189z"/><path d="m450.096 149.084-54.487-54.487c-6.276-6.276-16.451-6.276-22.727 0s-6.276 16.451 0 22.727l54.487 54.487c6.276 6.276 16.451 6.276 22.727 0s6.276-16.451 0-22.727z"/></g><path fill="#80b4fb" d="M228.721 135.936c-.68 10.95-2.45 33.33-6.37 54.189-1.54 8.15-7.08 14.93-14.73 18.12-6.87 2.86-14.27 7.61-14.27 14.75 0 2.28.45 4.32 1.25 6.14H89.282c.8-1.82 1.25-3.86 1.25-6.14 0-7.14-7.4-11.89-14.27-14.75-7.65-3.19-13.19-9.97-14.72-18.12-3.93-20.86-5.7-43.24-6.38-54.189-.3-4.75.77-9.49 3.14-13.62 17.64-30.66 53.329-50.03 53.329-50.03v-49.3h60.629v49.3s35.69 19.37 53.32 50.03c2.381 4.13 3.441 8.87 3.141 13.62z"/><path fill="#61a2f9" d="M128.612 44.157v28.12s-25.75 19.38-36.19 50.04c-1.41 4.12-2.04 8.87-1.86 13.62.41 10.94 1.45 33.32 3.78 54.189.9 8.14 4.18 14.93 8.72 18.12 4.06 2.86 8.44 7.61 8.44 14.75 0 2.28-.26 4.32-.74 6.14h-21.48c.8-1.82 1.25-3.86 1.25-6.14 0-7.14-7.4-11.89-14.27-14.75-7.65-3.19-13.19-9.98-14.72-18.12-3.94-20.86-5.7-43.25-6.38-54.189-.3-4.75.76-9.5 3.14-13.62 17.63-30.66 53.329-50.04 53.329-50.04v-28.12z"/><path fill="#db5b6f" d="M165.263 9.788h-46.638c-7.288 0-13.196 5.908-13.196 13.196V44.16h73.03V22.985c0-7.289-5.908-13.197-13.196-13.197z"/><path fill="#d54653" d="M144.784 9.792c-7.287 0-13.198 5.902-13.198 13.189V44.16h-26.157V22.981c0-7.287 5.911-13.189 13.198-13.189z"/><path fill="#db5b6f" d="M475.938 274.065s-.44 14.58-1.89 37.26c-2.1 32.75-6.3 82.389-14.32 129.409-6.13 35.96-37.19 62.319-73.669 62.319H125.922c-36.48 0-67.539-26.36-73.669-62.319-8.02-47.02-12.22-96.659-14.32-129.409-1.45-22.68-1.89-37.26-1.89-37.26z"/><path fill="#d54653" d="M475.938 274.065s-.44 14.58-1.89 37.26c-2.31.5-4.69.78-7.12.83-140.629 2.7-281.247 2.7-421.876 0-2.43-.05-4.81-.33-7.12-.83-1.45-22.68-1.89-37.26-1.89-37.26z"/><path fill="#d54653" d="M158.061 503.053h-32.14c-36.48 0-67.539-26.36-73.669-62.319-13.57-79.569-16.21-166.668-16.21-166.668h54.35s1.99 87.099 12.2 166.668c4.62 35.959 28 62.319 55.469 62.319z"/><path fill="#ececec" d="M323.232 116.453c-57.515-6.184-115.03-9.069-172.544-2.885-6.327 56.219-6.327 112.438 0 168.658 57.515 6.184 115.03 6.184 172.544 0 6.326-56.219 6.326-109.553 0-165.773z"/><path fill="#dadada" d="M170.917 284.147c-6.74-.55-13.49-1.19-20.23-1.92-6.33-56.219-6.33-112.439 0-168.658 6.74-.72 13.49-1.36 20.23-1.92-6.25 57.499-6.25 114.998 0 172.498z"/><path fill="#ffd064" d="M466.924 291.855a10974.732 10974.732 0 0 1-421.867 0c-17.485-.336-32.409-12.782-35.886-29.921-2.237-11.026-2.237-22.052 0-33.079 3.477-17.139 18.402-29.585 35.886-29.921a10974.732 10974.732 0 0 1 421.867 0c17.485.336 32.409 12.782 35.886 29.921 2.237 11.026 2.237 22.052 0 33.079-3.477 17.138-18.401 29.584-35.886 29.921z"/><path fill="#ffc250" d="M81 292.474c-11.98-.18-23.97-.39-35.95-.62-17.48-.34-32.41-12.78-35.88-29.92-2.24-11.03-2.24-22.05 0-33.08 3.47-17.14 18.4-29.59 35.88-29.92 11.98-.23 23.97-.44 35.95-.62-14.27 3.54-25.62 15.02-28.63 29.91-2.33 11.45-2.33 22.89 0 34.33 3.01 14.891 14.36 26.381 28.63 29.92z"/><g fill="#365e7d"><path d="M156.837 334.551h-.47c-13.043.031-23.685 10.552-24.076 23.588a1014.995 1014.995 0 0 0 0 60.843c.391 13.037 11.034 23.557 24.076 23.588h.47c13.043-.031 23.685-10.552 24.076-23.588.608-20.281.608-40.562 0-60.843-.391-13.037-11.034-23.557-24.076-23.588zM256.225 334.551h-.47c-13.043.031-23.685 10.552-24.076 23.588a1014.995 1014.995 0 0 0 0 60.843c.391 13.037 11.034 23.557 24.076 23.588h.47c13.043-.031 23.685-10.552 24.076-23.588.608-20.281.608-40.562 0-60.843-.391-13.037-11.033-23.557-24.076-23.588zM355.614 334.551h-.47c-13.043.031-23.685 10.552-24.076 23.588a1014.995 1014.995 0 0 0 0 60.843c.391 13.037 11.034 23.557 24.076 23.588h.47c13.043-.031 23.685-10.552 24.076-23.588.608-20.281.608-40.562 0-60.843-.391-13.037-11.034-23.557-24.076-23.588z"/></g><path fill="#407093" d="M130.463 232.167a73.882 73.882 0 0 0-16.532-6.017c-11.874-2.782-23.954 3.773-28.409 15.126a3673.62 3673.62 0 0 0-62.469 171.631c-3.885 11.56 1.155 24.347 12.04 29.849a73.882 73.882 0 0 0 16.532 6.017c11.874 2.782 23.954-3.773 28.409-15.126a3673.62 3673.62 0 0 0 62.469-171.631c3.884-11.561-1.156-24.348-12.04-29.849z"/><path fill="#365e7d" d="M41.953 445.797a72.185 72.185 0 0 1-6.864-3.041c-10.887-5.495-15.925-18.289-12.038-29.847A3683.259 3683.259 0 0 1 85.52 241.276c4.451-11.352 16.531-17.906 28.406-15.126a72.14 72.14 0 0 1 7.19 2.085c-7.718 2.054-14.319 7.707-17.407 15.576A3848.206 3848.206 0 0 0 38.616 422.66c-2.697 8.022-1.267 16.609 3.337 23.137z"/><path fill="#407093" d="M398.052 226.146a73.882 73.882 0 0 0-16.532 6.017c-10.885 5.501-15.925 18.288-12.04 29.849a3672.066 3672.066 0 0 0 62.469 171.631c4.455 11.353 16.535 17.909 28.409 15.126a73.882 73.882 0 0 0 16.532-6.017c10.885-5.501 15.925-18.288 12.04-29.849a3672.066 3672.066 0 0 0-62.469-171.631c-4.454-11.353-16.535-17.909-28.409-15.126z"/><path fill="#365e7d" d="M467.569 446.689a72.18 72.18 0 0 1-7.213 2.082c-11.872 2.789-23.955-3.774-28.406-15.126a3681.794 3681.794 0 0 1-62.469-171.633c-3.887-11.557 1.154-24.342 12.038-29.847a71.883 71.883 0 0 1 6.848-3.025c-4.592 6.535-6.015 15.108-3.323 23.12a3846.5 3846.5 0 0 0 65.096 178.85c3.091 7.878 9.705 13.537 17.429 15.579z"/><path d="M367.58 89.293c-4.452 4.452-6.904 10.371-6.904 16.667s2.452 12.215 6.903 16.667l54.487 54.487a23.415 23.415 0 0 0 16.666 6.903 23.416 23.416 0 0 0 16.666-6.903c4.452-4.452 6.904-10.371 6.904-16.667s-2.452-12.215-6.903-16.667l-54.487-54.488c-9.189-9.189-24.144-9.187-33.332.001zm77.213 65.094c1.618 1.618 2.51 3.771 2.51 6.06s-.892 4.441-2.511 6.06c-1.618 1.619-3.771 2.51-6.06 2.51s-4.441-.891-6.06-2.51l-54.487-54.488c-1.618-1.618-2.51-3.771-2.51-6.06s.892-4.441 2.511-6.06a8.539 8.539 0 0 1 6.06-2.506c2.194 0 4.39.835 6.06 2.506z"/><path d="M510.158 227.367c-3.136-15.493-14.321-27.92-28.629-33.195 35.481-59.195 40.401-114.629 12.015-143.016-12.452-12.451-30.486-18.826-52.191-18.426a7.5 7.5 0 0 0 .135 14.999l.141-.001c17.757-.329 31.672 4.397 41.309 14.034 14.903 14.903 15.305 37.546 13.019 53.917-3.234 23.152-13.708 49.261-30.322 75.731-43.257-.825-86.7-1.395-130.214-1.707a768.005 768.005 0 0 0-4.736-76.976 7.501 7.501 0 0 0-6.651-6.62c-2.237-.24-4.477-.454-6.715-.676 31.661-26.773 65.51-45.632 96.668-53.671a7.5 7.5 0 0 0 5.388-9.136 7.5 7.5 0 0 0-9.136-5.388c-11.94 3.081-24.22 7.625-36.599 13.482 2.411-10.483 3.56-23.05-1.042-32.427-2.772-5.651-7.362-9.504-13.272-11.143-8.757-2.426-22.36-1.152-37.473 18.703-.731.961-1.438 1.929-2.118 2.892a68.82 68.82 0 0 0-.251-.854c-2.97-9.882-10.734-26.461-29.384-26.461-6.477 0-12.124 2.582-16.334 7.466-5.495 6.377-7.899 16.282-8.762 26.154-6.563-8.632-14.514-15.57-23.114-15.57-5.587 0-10.682 2.846-14.345 8.014-9.65 13.614-9.79 43.118-.826 74.03-2.245.028-4.489.079-6.733.126-14.694-17.146-32.456-28.946-40.225-33.668V51.54c3.521-.617 6.198-3.682 6.198-7.38V22.985c0-11.412-9.284-20.696-20.696-20.696h-46.638c-11.412 0-20.696 9.284-20.696 20.696V44.16c0 3.698 2.679 6.763 6.2 7.38l-.006 16.437c-10.126 6.15-37.176 24.277-52.315 50.598-3.088 5.346-4.518 11.508-4.131 17.833.726 11.527 2.529 33.937 6.448 54.864-3.071.056-6.145.107-9.214.166-20.832.393-38.954 15.504-43.088 35.926a90.105 90.105 0 0 0-.001 36.058c3.034 15.01 13.667 27.398 27.711 32.867a1590.906 1590.906 0 0 0 4.545 61.655 3652.661 3652.661 0 0 0-18.137 52.581c-5.061 15.079 1.715 31.814 15.771 38.932a81.567 81.567 0 0 0 16.726 6.25c5.379 15.253 14.979 28.412 27.987 38.247 14.364 10.86 31.48 16.6 49.498 16.6H386.06c18.018 0 35.134-5.74 49.498-16.6 13.009-9.836 22.609-22.996 27.988-38.251a81.72 81.72 0 0 0 16.728-6.257c14.059-7.105 20.837-23.842 15.767-38.931a3673.36 3673.36 0 0 0-18.135-52.578 1592.516 1592.516 0 0 0 4.544-61.652c14.06-5.482 24.68-17.863 27.709-32.856a90.125 90.125 0 0 0-.001-36.062zM316.426 120.402c2.4 23.03 3.734 46.25 3.996 69.213-55.63-.323-111.351-.232-166.925.282a753.062 753.062 0 0 1 3.999-69.496 801.63 801.63 0 0 1 158.93.001zm-76.644-84.236c.546-.77 1.355-1.688 2.108-1.688 5.4 0 16.726 15.406 24.781 33.704a7.502 7.502 0 0 0 14.44-2.845c0-.456-.043-.913-.127-1.363-3.749-25.343.418-40.964 4.146-45.289 1.364-1.583 2.851-2.258 4.971-2.258 17.29 0 17.869 34.402 17.87 34.74a7.497 7.497 0 0 0 5.951 7.335 7.5 7.5 0 0 0 8.411-4.309c5.362-12.129 20.465-36.057 32.983-32.589 1.782.494 2.923 1.48 3.813 3.296 3.191 6.502 1.483 20.883-4.104 35.577-19.835 11.403-39.618 25.989-58.378 43.176a816.414 816.414 0 0 0-54.261-2.165c-10.45-32.762-8.002-57.706-2.604-65.322zm-75.021 28.617h-45.636l.005-13.123h45.632v13.123zm-46.136-47.495h46.638a5.702 5.702 0 0 1 5.696 5.696v13.673h-58.03V22.985a5.703 5.703 0 0 1 5.696-5.697zm-49.712 171.46c-3.803-20.195-5.558-42.052-6.265-53.269-.205-3.362.538-6.613 2.156-9.414 14.305-24.872 41.953-42.233 48.823-46.283h56.63c4.383 2.58 17.247 10.589 29.7 22.525a813.451 813.451 0 0 0-50.066 3.801 7.499 7.499 0 0 0-6.652 6.62 768.503 768.503 0 0 0-4.739 77.321c-23.028.245-46.029.555-68.981.944a17.077 17.077 0 0 1-.606-2.245zM44.725 299.345c.063.002.125.008.188.009l.24.004c3.363.063 6.726.118 10.09.178a3728.528 3728.528 0 0 0-8.941 24.27c-.661-9.137-1.177-17.38-1.577-24.461zm341.334 196.208H125.922c-26.485 0-50.468-15.897-61.228-39.613 9.853-2.457 18.397-9.549 22.319-19.551a3358.558 3358.558 0 0 0 12.006-31.028 7.5 7.5 0 0 0-14.017-5.341c-3.74 9.816-7.65 19.92-11.954 30.893-3.108 7.927-11.58 12.468-19.726 10.554a66.467 66.467 0 0 1-14.843-5.397c-7.451-3.773-11.027-12.704-8.319-20.77a3687.227 3687.227 0 0 1 62.341-171.278c3.113-7.929 11.591-12.473 19.715-10.57a66.548 66.548 0 0 1 14.863 5.413c7.453 3.764 11.026 12.691 8.312 20.766a3678.424 3678.424 0 0 1-39.818 112.38 7.5 7.5 0 0 0 14.055 5.239 3701.766 3701.766 0 0 0 27.554-76.522c39.436.428 79.118.649 118.808.649 39.693 0 79.38-.22 118.819-.649 15.833 45.521 32.637 91.004 50.158 135.654 3.923 10.002 12.468 17.094 22.322 19.552-10.758 23.719-34.744 39.619-61.23 39.619zm87.448-59.495a66.734 66.734 0 0 1-14.859 5.408c-8.127 1.905-16.605-2.636-19.717-10.564a3683.121 3683.121 0 0 1-62.341-171.28c-2.713-8.072.861-17 8.314-20.766a66.69 66.69 0 0 1 14.858-5.408 16.41 16.41 0 0 1 3.744-.433c6.859 0 13.339 4.285 15.973 10.997a3682.74 3682.74 0 0 1 62.341 171.281c2.713 8.072-.861 16.999-8.313 20.765zm-16.763-136.522c3.358-.06 6.717-.115 10.075-.178l.268-.005c.057-.001.114-.007.171-.008a1579.38 1579.38 0 0 1-1.577 24.451c-2.95-8.1-5.934-16.185-8.937-24.26zm38.712-39.086c-2.268 11.222-10.916 20.257-22.078 23.027a29.233 29.233 0 0 1-6.59.879l-.249.005c-5.126.096-10.251.185-15.377.272a3665.302 3665.302 0 0 0-17.72-46.1c-5.813-14.819-21.769-23.283-37.102-19.689a81.693 81.693 0 0 0-18.203 6.626c-14.059 7.105-20.837 23.842-15.767 38.931 2.394 7.123 4.814 14.25 7.259 21.378-75.472.784-151.813.784-227.285 0 2.446-7.13 4.874-14.257 7.263-21.368 5.075-15.094-1.704-31.832-15.759-38.931a81.612 81.612 0 0 0-18.209-6.632c-15.333-3.591-31.284 4.875-37.103 19.694a3668.653 3668.653 0 0 0-17.715 46.092c-5.13-.087-10.261-.177-15.391-.272l-.221-.004a29.397 29.397 0 0 1-6.651-.891c-11.118-2.759-19.768-11.794-22.037-23.023a75.232 75.232 0 0 1 .001-30.099c2.752-13.592 14.81-23.647 28.673-23.909a11033.79 11033.79 0 0 1 421.59 0c13.861.262 25.919 10.317 28.672 23.914a75.164 75.164 0 0 1-.001 30.1z"/><path d="M156.855 327.051h-.506c-17.176.041-31.037 13.598-31.555 30.864a1028.337 1028.337 0 0 0 0 61.292c.518 17.265 14.378 30.822 31.561 30.864h.5c17.176-.042 31.037-13.598 31.555-30.864.609-20.335.609-40.957 0-61.292-.519-17.267-14.379-30.823-31.555-30.864zm16.561 91.706c-.269 8.974-7.715 16.292-16.591 16.313h-.44c-8.883-.021-16.329-7.34-16.598-16.313a1011.683 1011.683 0 0 1 0-60.393c.269-8.974 7.715-16.292 16.603-16.313h.428c8.883.021 16.329 7.339 16.598 16.313.601 20.037.601 40.356 0 60.393zM256.243 327.051h-.506c-17.176.041-31.037 13.598-31.555 30.864a1028.337 1028.337 0 0 0 0 61.292c.518 17.265 14.378 30.822 31.561 30.864h.5c17.177-.042 31.037-13.599 31.555-30.864.609-20.335.609-40.957 0-61.292-.518-17.266-14.378-30.823-31.555-30.864zm16.561 91.706c-.269 8.974-7.714 16.292-16.59 16.313h-.44c-8.883-.021-16.329-7.34-16.598-16.313a1011.683 1011.683 0 0 1 0-60.393c.269-8.974 7.715-16.292 16.603-16.313h.428c8.883.021 16.328 7.339 16.597 16.313.601 20.037.601 40.356 0 60.393zM355.631 327.051h-.505c-17.177.041-31.037 13.598-31.555 30.864a1028.337 1028.337 0 0 0 0 61.292c.518 17.265 14.378 30.823 31.561 30.864h.5c17.177-.042 31.037-13.599 31.555-30.864.609-20.335.609-40.957 0-61.292-.518-17.266-14.378-30.823-31.556-30.864zm16.562 91.706c-.269 8.974-7.714 16.292-16.591 16.313h-.439c-8.883-.021-16.328-7.34-16.597-16.313a1010.003 1010.003 0 0 1 0-60.393c.269-8.974 7.714-16.292 16.602-16.313h.429c8.883.021 16.328 7.339 16.597 16.313.6 20.037.6 40.356-.001 60.393z"/></svg>