<svg xmlns="http://www.w3.org/2000/svg" viewBox="0 0 512 512" style="enable-background:new 0 0 512 512" xml:space="preserve"><path style="fill:#c97523" d="M134.902 346.198v103.709h-43.51V346.181"/><path style="fill:#a85613" d="M110.799 346.198v103.709H91.392V346.181"/><ellipse style="fill:#8cc928" cx="113.147" cy="203.01" rx="105.558" ry="165.946"/><path style="fill:#82b20b" d="M113.147 368.958c-58.304 0-105.558-74.301-105.558-165.946S54.843 37.067 113.147 37.067c-25.813 0-46.728 74.301-46.728 165.946s20.915 165.945 46.728 165.945z"/><path style="fill:#e9eaef" d="M462.392 263.647v211.284h-277.19V263.647l139.377-135.204z"/><path style="fill:#9eb1b7" d="M394.569 189.049v-39.028h69.298v105.023"/><path style="fill:#85c10d" d="M337.072 430.659h167.342v44.274H337.072zM7.589 430.659h189.552v44.274H7.589z"/><path style="fill:#d2d4d8" d="M462.392 271.941v39.492L323.797 179.104 185.202 311.433v-39.492l127.589-121.515 11.006-10.225 10.999 10.225z"/><path style="fill:#ea4756" d="m323.795 157.127-157.8 150.657-22.064-18.523 168.861-160.818 11.003-10.22 11.002 10.22 168.862 160.818-22.064 18.523z"/><path style="fill:#c97523" d="M219.109 316.632h91.412v158.296h-91.412z"/><path style="fill:#a0d9f2" d="M337.072 316.632h104.101v91.412H337.072z"/><path style="fill:#c97523" d="M337.072 316.632h104.101v27.778H337.072z"/><circle style="fill:#413740" cx="323.796" cy="245.994" r="25.428"/><path d="M337.067 415.633h104.099a7.589 7.589 0 0 0 7.589-7.589V316.63a7.589 7.589 0 0 0-7.589-7.589H337.067a7.589 7.589 0 0 0-7.589 7.589v91.414a7.589 7.589 0 0 0 7.589 7.589zm7.589-15.178v-48.458h88.921v48.458h-88.921zm88.921-76.236v12.601h-88.921v-12.601h88.921z"/><path d="M504.411 423.069h-34.429v-64.923a7.59 7.59 0 0 0-15.178 0v64.923H337.067a7.59 7.59 0 0 0-7.589 7.589v36.684h-11.362V316.63a7.59 7.59 0 0 0-7.589-7.589h-91.414a7.59 7.59 0 0 0-7.589 7.589v150.712h-6.792v-36.684a7.59 7.59 0 0 0-7.589-7.589h-4.353V292.692L323.794 167.62l131.009 125.078v30.031a7.59 7.59 0 0 0 15.178 0v-15.54l6.373 6.084a7.59 7.59 0 0 0 10.119.324l21.899-18.383c1.016-.853 1.862-1.914 2.344-3.15a7.599 7.599 0 0 0-1.823-8.298l-37.437-35.653v-98.091a7.59 7.59 0 0 0-7.589-7.589H394.57a7.59 7.59 0 0 0-7.589 7.589v17.64l-47.018-44.778-11.002-10.22a7.59 7.59 0 0 0-10.33 0L307.56 122.95l-81.294 77.421c-.571-57.699-19.797-111.241-50.902-142.572-3.083-3.105-8.171-2.905-11.056.387-2.637 3.007-2.471 7.527.348 10.365 28.804 28.978 46.461 79.654 46.461 134.463 0 4.044-.122 8.085-.312 12.081l-72.107 68.672a7.6 7.6 0 0 0-1.822 8.298c.482 1.236 1.328 2.297 2.343 3.15l21.898 18.383a7.567 7.567 0 0 0 4.878 1.777 7.57 7.57 0 0 0 5.241-2.1l6.379-6.089v14.719c-17.956 25.469-40.777 39.468-64.467 39.468-25.506 0-49.739-16.014-68.236-45.091-19.173-30.143-29.733-70.368-29.733-113.267s10.56-83.124 29.734-113.266c18.495-29.077 42.729-45.091 68.236-45.091 8.859 0 17.598 1.932 26.061 5.75 3.54 1.597 7.715.174 9.634-3.203v-.001c2.209-3.889.593-8.84-3.484-10.675-10.398-4.682-21.2-7.05-32.211-7.05-30.881 0-59.663 18.51-81.042 52.122C11.402 114.146 0 157.265 0 203.013s11.402 88.866 32.105 121.413c14.41 22.655 32.186 38.437 51.698 46.326v52.316H60.712v-11.292c0-4.156-3.203-7.779-7.356-7.904a7.59 7.59 0 0 0-7.822 7.586v11.611h-9.199v-11.292c0-4.156-3.203-7.779-7.356-7.904a7.59 7.59 0 0 0-7.822 7.586v11.611H7.589A7.59 7.59 0 0 0 0 430.659v44.274a7.59 7.59 0 0 0 7.589 7.589h189.555l.019-.001H337.047l.019.001H504.41a7.59 7.59 0 0 0 7.589-7.589v-44.274a7.587 7.587 0 0 0-7.588-7.59zM402.158 157.61h54.12v76.048l-54.12-51.541V157.61zM165.67 297.602l-10.36-8.697 162.648-154.9 5.838-5.423 5.769 5.358 162.718 154.965-10.361 8.698-152.886-145.965a7.564 7.564 0 0 0-5.24-2.1c-1.886 0-3.774.7-5.24 2.1L165.67 297.602zm11.943 48.299v77.168h-9.972v-11.611a7.589 7.589 0 1 0-15.178 0v11.611h-9.972v-52.343c12.56-5.096 24.424-13.472 35.122-24.825zm-78.632 29.327a76.719 76.719 0 0 0 14.166 1.319c4.773 0 9.501-.455 14.166-1.337v47.858H98.981v-47.84zm-83.803 63.019h76.126c.029 0 .059.004.088.004h43.51c.029 0 .059-.004.088-.004h54.566v29.095h-4.353v.001H15.178v-29.096zm211.525 29.095V324.219h76.236v143.123h-76.236zm270.119.001h-34.429v-.001H344.656v-29.095h152.166v29.096z"/><path d="M292.515 387.684h-13.269a7.589 7.589 0 1 0 0 15.178h13.269a7.589 7.589 0 1 0 0-15.178zM356.82 245.996c0-18.207-14.814-33.021-33.022-33.021-18.207 0-33.021 14.814-33.021 33.021 0 18.208 14.814 33.021 33.021 33.021 18.208 0 33.022-14.813 33.022-33.021zm-33.023 17.843c-9.839 0-17.843-8.005-17.843-17.843s8.004-17.843 17.843-17.843 17.844 8.005 17.844 17.843c.001 9.839-8.004 17.843-17.844 17.843z"/></svg>