<svg height="512" width="512" xmlns="http://www.w3.org/2000/svg"><linearGradient id="a" gradientUnits="userSpaceOnUse" x1="-21.409" x2="490.399" y1="373.272" y2="77.779"><stop offset="0" stop-color="#dcfdee" stop-opacity="0"/><stop offset=".629" stop-color="#d2f3e4"/></linearGradient><path d="M451.798 43.963c-160.556-97.869-410.51-8.611-439.594 61.949-38.908 94.394 26.578 110.528 38.743 187.874 9.761 62.061-51.182 121.495-16.394 176.282 37.883 59.663 163.465 44.681 211.198 16.447 87.376-51.683 43.309-112.012 84.684-187.299 39.407-71.707 116.244-42.625 160.961-99.99 42.5-54.521 14.31-122.402-39.598-155.263z" fill="url(#a)"/><g fill="#6583fe" opacity=".2"><path d="M439.75 85.511c-10.132 0-18.626 7.052-20.889 16.5H279.167v-8.167c0-5.514-4.486-10-10-10h-26.334c-5.514 0-10 4.486-10 10v8.167H93.139c-2.263-9.448-10.758-16.5-20.889-16.5-11.855 0-21.5 9.645-21.5 21.5s9.645 21.5 21.5 21.5c10.132 0 18.626-7.052 20.889-16.5h111.957c-48.594 19.914-83.048 67.442-83.741 122.961h-8.188c-5.514 0-10 4.486-10 10v26.333c0 5.514 4.486 10 10 10H139.5c5.514 0 10-4.486 10-10v-26.333c0-5.514-4.486-10-10-10h-8.145c.811-60.067 44.311-110.005 101.478-120.794v6c0 5.514 4.486 10 10 10h26.334c5.514 0 10-4.486 10-10v-6c57.167 10.788 100.667 60.727 101.478 120.794H372.5c-5.514 0-10 4.486-10 10v26.333c0 5.514 4.486 10 10 10h26.333c5.514 0 10-4.486 10-10v-26.333c0-5.514-4.486-10-10-10h-8.188c-.694-55.519-35.148-103.047-83.741-122.961h111.957c2.263 9.448 10.758 16.5 20.889 16.5 11.855 0 21.5-9.645 21.5-21.5s-9.645-21.5-21.5-21.5z"/><path d="M337.446 272.594 268.805 160.08c-2.745-4.501-7.532-7.188-12.804-7.188H256c-5.272 0-10.06 2.687-12.806 7.188l-68.641 112.515a15.003 15.003 0 0 0 2.029 18.246l21.599 22.309h-5.43c-8.284 0-15 6.716-15 15v22.875c0 8.284 6.716 15 15 15h4.591l6.681 68.109a10 10 0 0 0 9.952 9.024h84.045a10 10 0 0 0 9.952-9.024l6.681-68.109h4.591c8.284 0 15-6.716 15-15V328.15c0-8.284-6.716-15-15-15h-5.43l21.6-22.309a15 15 0 0 0 2.032-18.247z"/></g><path d="m310.88 334.097-9.17 87.37h-91.42l-9.17-87.37z" fill="#ff7eb8"/><g fill="#ff5ba8"><path d="m310.88 334.097-2.62 24.93H203.74l-2.62-24.93zM139.5 256.305h-26.333a5 5 0 0 1-5-5v-26.333a5 5 0 0 1 5-5H139.5a5 5 0 0 1 5 5v26.333a5 5 0 0 1-5 5zM398.833 256.305H372.5a5 5 0 0 1-5-5v-26.333a5 5 0 0 1 5-5h26.333a5 5 0 0 1 5 5v26.333a5 5 0 0 1-5 5z"/></g><circle cx="72.25" cy="87.011" fill="#8399fe" r="16.5"/><circle cx="439.75" cy="87.011" fill="#8399fe" r="16.5"/><path d="m282.774 318.023 49.051-50.661a10.001 10.001 0 0 0 1.353-12.164l-68.641-112.515c-3.898-6.389-13.176-6.389-17.074 0l-68.64 112.515a10 10 0 0 0 1.352 12.164l49.051 50.661z" fill="#d2deff"/><path d="M251 223.667h10v105.43h-10z" fill="#fff"/><path d="M319.247 341.023H192.753c-5.523 0-10-4.477-10-10v-22.874c0-5.523 4.477-10 10-10h126.494c5.523 0 10 4.477 10 10v22.874c0 5.523-4.477 10-10 10z" fill="#02ffb3"/><circle cx="256" cy="218.883" fill="#fff" r="14.5"/><path d="M269.167 105.178h-26.333a5 5 0 0 1-5-5V73.844a5 5 0 0 1 5-5h26.333a5 5 0 0 1 5 5v26.333a5 5 0 0 1-5 5.001z" fill="#ff5ba8"/><path d="M439.75 65.511c-10.131 0-18.626 7.052-20.889 16.5H279.167v-8.167c0-5.514-4.486-10-10-10h-26.333c-5.514 0-10 4.486-10 10v8.167H93.139c-2.263-9.448-10.758-16.5-20.889-16.5-11.855 0-21.5 9.645-21.5 21.5s9.645 21.5 21.5 21.5c10.131 0 18.626-7.052 20.889-16.5h111.96c-48.596 19.911-83.052 67.44-83.746 122.961h-8.187c-5.514 0-10 4.486-10 10v26.333c0 5.514 4.486 10 10 10H139.5c5.514 0 10-4.486 10-10v-26.333c0-5.514-4.486-10-10-10h-8.147c.811-60.067 44.313-110.002 101.48-120.791v5.997c0 5.514 4.486 10 10 10h26.333c5.514 0 10-4.486 10-10v-5.996c57.167 10.788 100.67 60.723 101.48 120.79H372.5c-5.514 0-10 4.486-10 10v26.333c0 5.514 4.486 10 10 10h26.333c5.514 0 10-4.486 10-10v-26.333c0-5.514-4.486-10-10-10h-8.187c-.694-55.522-35.153-103.049-83.75-122.961H418.86c2.263 9.448 10.758 16.5 20.889 16.5 11.855 0 21.5-9.645 21.5-21.5s-9.644-21.5-21.499-21.5zM139.506 251.304h-26.34v-26.333H139.5zM72.25 98.511c-6.341 0-11.5-5.159-11.5-11.5s5.159-11.5 11.5-11.5 11.5 5.159 11.5 11.5-5.159 11.5-11.5 11.5zm326.59 152.793H372.5v-26.333h26.333zM242.833 100.178V73.844h26.333l.006 26.333zm196.917-1.667c-6.341 0-11.5-5.159-11.5-11.5s5.159-11.5 11.5-11.5 11.5 5.159 11.5 11.5-5.159 11.5-11.5 11.5z" fill="#2626bc"/><path d="M326.582 234.786a5.002 5.002 0 0 0-8.538 5.208l10.865 17.808a5.003 5.003 0 0 1-.676 6.083l-28.335 29.265h-87.797l-28.334-29.265a5.001 5.001 0 0 1-.676-6.082l68.641-112.515c1.319-2.163 3.424-2.396 4.268-2.396s2.949.233 4.269 2.396l40.063 65.671a5.002 5.002 0 0 0 8.538-5.208l-40.063-65.671c-2.746-4.501-7.533-7.188-12.806-7.188-5.272 0-10.059 2.687-12.805 7.188l-68.641 112.515a15.001 15.001 0 0 0 2.029 18.246l21.599 22.309h-5.429c-8.271 0-15 6.729-15 15v22.875c0 8.271 6.729 15 15 15h4.591l7.969 75.965a4.994 4.994 0 0 0 5.494 4.451 5 5 0 0 0 4.451-5.494l-7.859-74.922H222a5 5 0 0 0 0-10h-29.247c-2.757 0-5-2.243-5-5V308.15c0-2.757 2.243-5 5-5h126.494c2.757 0 5 2.243 5 5v22.875c0 2.757-2.243 5-5 5H256a5 5 0 0 0-5 5v80.444a5 5 0 0 0 10 0v-75.444h43.601l-7.859 74.922a5 5 0 0 0 9.945 1.043l7.969-75.965h4.591c8.271 0 15-6.729 15-15V308.15c0-8.271-6.729-15-15-15h-5.429l21.6-22.309a15.003 15.003 0 0 0 2.029-18.246z" fill="#2626bc"/><path d="M108.167 339.096a5 5 0 0 1-5-5c0-3.309-2.691-6-6-6a5 5 0 0 1 0-10c3.309 0 6-2.691 6-6a5 5 0 0 1 10 0c0 3.309 2.691 6 6 6a5 5 0 0 1 0 10c-3.309 0-6 2.691-6 6a5 5 0 0 1-5 5z" fill="#6583fe"/><path d="M433 177.495a5 5 0 0 1-5-5c0-3.309-2.691-6-6-6a5 5 0 0 1 0-10c3.309 0 6-2.691 6-6a5 5 0 0 1 10 0c0 3.309 2.691 6 6 6a5 5 0 0 1 0 10c-3.309 0-6 2.691-6 6a5 5 0 0 1-5 5z" fill="#01eca5"/><path d="M363 416.167a5 5 0 0 1-5-5c0-3.309-2.691-6-6-6a5 5 0 0 1 0-10c3.309 0 6-2.691 6-6a5 5 0 0 1 10 0c0 3.309 2.691 6 6 6a5 5 0 0 1 0 10c-3.309 0-6 2.691-6 6a5 5 0 0 1-5 5zM72.75 187.575a5 5 0 0 1-3.536-8.535l10-10a5.001 5.001 0 0 1 7.071 7.071l-10 10a4.987 4.987 0 0 1-3.535 1.464z" fill="#ff7eb8"/><path d="M403.833 344.097a5 5 0 0 1-3.536-8.535l10-10a5.001 5.001 0 0 1 7.071 7.071l-10 10a4.985 4.985 0 0 1-3.535 1.464z" fill="#6583fe"/></svg>