<svg xmlns="http://www.w3.org/2000/svg" viewBox="0 0 512 512" style="enable-background:new 0 0 512 512" xml:space="preserve"><path style="fill:#fedb41" d="M46 212a14.95 14.95 0 0 1-10.606-4.393c-5.858-5.858-5.858-15.355 0-21.213l60-60c5.857-5.858 15.355-5.858 21.213 0s5.858 15.355 0 21.213l-60 60A14.953 14.953 0 0 1 46 212zM466 212a14.95 14.95 0 0 1-10.606-4.393l-60-60c-5.858-5.858-5.858-15.355 0-21.213 5.857-5.858 15.355-5.858 21.213 0l60 60c5.858 5.858 5.858 15.355 0 21.213A14.953 14.953 0 0 1 466 212z"/><path style="fill:#a4d9f5" d="M406 272c-8.284 0-15-6.716-15-15V30H121v227c0 8.284-6.716 15-15 15s-15-6.716-15-15V15c0-8.284 6.716-15 15-15h300c8.284 0 15 6.716 15 15v242c0 8.284-6.716 15-15 15z"/><path style="fill:#1689fc" d="M255.853 270.027c-19.842 0-39.18-5.55-56.365-16.56C169.126 234.015 151 200.943 151 165c0-57.897 47.103-105 105-105s105 47.103 105 105c0 24.813-20.187 45-45 45-23.191 0-42.341-17.635-44.746-40.199a15.006 15.006 0 0 1 .668-10.038l.312-.72A15 15 0 0 1 301 165l.002.228c.006.139.01.281.012.42C301.354 173.62 307.946 180 316 180c8.271 0 15-6.729 15-15 0-41.355-33.645-75-75-75s-75 33.645-75 75c0 25.669 12.961 49.298 34.671 63.207 22.249 14.255 49.843 15.608 75.703 3.709 7.527-3.462 16.435-.167 19.896 7.358 3.463 7.526.168 16.434-7.357 19.896-15.766 7.254-32.077 10.857-48.06 10.857z"/><path style="fill:#1689fc" d="M256 210c-24.813 0-45-20.187-45-45s20.187-45 45-45 45 20.187 45 45-20.187 45-45 45zm0-60c-8.271 0-15 6.729-15 15s6.729 15 15 15 15-6.729 15-15-6.729-15-15-15z"/><path style="fill:#fedb41" d="M196 362a14.946 14.946 0 0 1-10.606-4.394l-150-150c-5.858-5.858-5.858-15.355 0-21.213 5.857-5.858 15.355-5.858 21.213 0l150 150c5.858 5.858 5.858 15.355 0 21.213A14.95 14.95 0 0 1 196 362zM316 362a14.946 14.946 0 0 1-10.606-4.394c-5.858-5.858-5.858-15.355 0-21.213l150-150c5.857-5.858 15.355-5.858 21.213 0s5.858 15.355 0 21.213l-150 150A14.95 14.95 0 0 1 316 362z"/><path style="fill:#fea832" d="M54.787 503.213a14.946 14.946 0 0 1-10.606-4.394c-5.858-5.857-5.858-15.355 0-21.213l141.213-141.214c5.857-5.858 15.355-5.858 21.213 0s5.858 15.355 0 21.213L65.394 498.82a14.953 14.953 0 0 1-10.607 4.393zM457.213 503.213a14.946 14.946 0 0 1-10.606-4.394L305.394 357.606c-5.858-5.858-5.858-15.355 0-21.213s15.356-5.858 21.213 0L467.82 477.607c5.858 5.858 5.858 15.355 0 21.213a14.955 14.955 0 0 1-10.607 4.393z"/><path style="fill:#fea832" d="M316 362H196c-8.284 0-15-6.716-15-15s6.716-15 15-15h120c8.284 0 15 6.716 15 15s-6.716 15-15 15z"/><path style="fill:#fedb41" d="M436 512H76c-24.813 0-45-20.187-45-45V197c0-8.284 6.716-15 15-15s15 6.716 15 15v270c0 8.271 6.729 15 15 15h360c8.271 0 15-6.729 15-15V197c0-8.284 6.716-15 15-15s15 6.716 15 15v270c0 24.813-20.187 45-45 45z"/></svg>