<svg xmlns="http://www.w3.org/2000/svg" viewBox="0 0 62 62" xml:space="preserve"><switch><g><path fill="none" stroke="#1D1D1B" stroke-width=".001" stroke-miterlimit="10" d="M0 0h62v62H0z"/><g fill="#3F3F3F"><path d="M19.138 51.059C17.57 50.482 16.993 49.388 17 47.7c.048-12.148.024-24.297.024-36.446 0-1.814 1.056-2.92 2.857-2.923 6.52-.012 13.04-.01 19.56.002 1.825.003 2.89 1.085 2.892 2.891.006 4.936.003 9.871.003 14.807v.89h-1.28v-11.89h-22.7v29.357H42.32c0 1.555.077 3.006-.024 4.444-.085 1.218-1.04 1.796-2.069 2.226h-21.09zm21.88-5.287H18.31c0 .826-.018 1.608.005 2.388.032 1.087.504 1.552 1.583 1.566 1.107.014 2.215.003 3.322.003 5.378 0 10.756-.007 16.134.006.868.002 1.546-.272 1.645-1.186.096-.898.02-1.814.02-2.777zm-.048-32.16c.025-.169.058-.288.06-.408.007-.664.025-1.328.006-1.991-.03-1.073-.504-1.536-1.588-1.55-1.107-.015-2.214-.008-3.321-.008-5.377 0-10.754.008-16.13-.003-.87-.002-1.544.27-1.635 1.194-.089.897-.02 1.81-.02 2.766H40.97z"/><path d="M44.996 35.788c0 1.52.01 3.038-.003 4.557-.013 1.515-.984 2.645-2.494 2.673-3.228.06-6.458.049-9.687-.005-1.352-.022-2.439-1.182-2.453-2.549-.034-3.164-.031-6.33 0-9.493.014-1.474 1.135-2.547 2.617-2.558 3.07-.02 6.142-.027 9.212-.011 1.829.01 2.807 1.018 2.81 2.83.004 1.518.002 3.037.002 4.556h-.004zM31.68 35.65c0 1.486-.01 2.972.003 4.458.01 1.14.477 1.617 1.615 1.623 2.91.015 5.82.018 8.728.011 1.177-.002 1.679-.482 1.687-1.672.02-2.94.016-5.88-.002-8.82-.006-1.028-.477-1.57-1.486-1.582a378.214 378.214 0 0 0-9.108-.001c-.943.011-1.423.578-1.433 1.526-.017 1.485-.005 2.971-.004 4.457zM19.69 32.954c0-.696-.022-1.393.005-2.087.051-1.336 1.083-2.412 2.418-2.452a69.358 69.358 0 0 1 4.365.003c1.446.048 2.478 1.094 2.527 2.556.046 1.359.05 2.722 0 4.08-.056 1.514-1.082 2.554-2.59 2.614-1.39.055-2.785.056-4.175.002-1.525-.06-2.507-1.113-2.543-2.629-.016-.695-.003-1.391-.003-2.087h-.004zm7.995.135h.004c0-.6.01-1.2-.002-1.8-.023-1.069-.476-1.584-1.54-1.625a49.65 49.65 0 0 0-3.695-.007c-.956.035-1.435.558-1.455 1.51a87.834 87.834 0 0 0-.005 3.695c.022 1.007.51 1.51 1.525 1.541 1.23.038 2.465.033 3.696-.005.922-.029 1.441-.591 1.468-1.509.018-.6.004-1.2.004-1.8zM24.294 26.974c-.696 0-1.393.016-2.089-.003-1.398-.039-2.47-1.07-2.504-2.457a91.298 91.298 0 0 1-.004-4.271c.03-1.386 1.063-2.483 2.447-2.54 1.422-.06 2.85-.056 4.272-.004 1.48.055 2.544 1.143 2.592 2.623.042 1.328.04 2.659.002 3.986-.047 1.592-1.142 2.642-2.722 2.67-.665.013-1.33.003-1.994.003v-.007zm3.389-4.594h.005c0-.6.009-1.2-.002-1.8-.02-1.06-.515-1.58-1.562-1.599a95.258 95.258 0 0 0-3.602.002c-1.003.02-1.51.526-1.53 1.529a89.792 89.792 0 0 0 .003 3.695c.021.987.54 1.493 1.55 1.513 1.167.024 2.337.017 3.505-.011 1.17-.029 1.62-.52 1.632-1.718.006-.537 0-1.074 0-1.611zM35.008 26.974c-.664 0-1.329.01-1.993-.002-1.478-.025-2.608-1.069-2.656-2.53a67.06 67.06 0 0 1-.001-4.173c.042-1.425 1.098-2.507 2.538-2.567a47.657 47.657 0 0 1 4.174.002c1.638.076 2.577 1.122 2.594 2.78.013 1.264.018 2.529.003 3.794-.018 1.605-1.052 2.648-2.666 2.696-.664.02-1.329.003-1.993.003v-.003zm3.351-4.572c0-.663.024-1.327-.006-1.988-.04-.897-.532-1.4-1.428-1.421a79.005 79.005 0 0 0-3.79-.003c-.94.024-1.443.559-1.456 1.499-.016 1.2-.013 2.4.002 3.599.012 1.083.473 1.602 1.528 1.633 1.23.037 2.464.031 3.694-.007.936-.03 1.423-.564 1.454-1.512.02-.6.004-1.2.002-1.8zM29.677 47.065h3.032c.473.001.993.074.87.677-.053.264-.532.62-.826.628-2.051.055-4.106.055-6.157 0-.297-.009-.787-.37-.832-.628-.1-.575.385-.683.88-.677 1.011.013 2.022.004 3.033.004v-.004zM27.775 10.987c.79 0 1.588-.064 2.367.032.294.036.543.44.813.676-.26.208-.516.587-.783.596a75.16 75.16 0 0 1-5.025-.002c-.264-.01-.516-.4-.774-.615.249-.229.48-.63.75-.655.876-.084 1.766-.032 2.652-.032zM33.657 12.312c-.189 0-.418.068-.556-.015-.26-.155-.465-.397-.693-.604.234-.234.43-.565.714-.678a1.53 1.53 0 0 1 1.016-.004c.322.12.57.434.851.663-.287.215-.561.452-.868.634-.116.07-.308.012-.465.012v-.008z"/><path d="m34.895 39.46-.846-.794.257-.05c-.018-.592-.013-1.186-.071-1.775-.013-.135-.247-.36-.372-.355-1.024.039-.887-.628-.83-1.261 1.636-.744 1.748-1.019.892-2.401l.777-.816c1.467.8 2.088.552 2.381-.882h1.097c.656 1.471 1.106 1.652 2.346.84l.83.789c-.752 1.406-.55 1.924.93 2.386v.888c-.496.426-.96.705-1.233 1.112-.136.202.105.638.122.97.014.264.04.625-.108.774-.19.19-.615.364-.824.275-1.04-.443-1.589-.216-1.89.886-.024.087-.072.167-.121.278h-1.1c-.432-1.53-.962-1.756-2.237-.863zm.533-3.72c.01 1.206 1.041 2.214 2.251 2.202 1.249-.012 2.197-.974 2.198-2.232.002-1.289-1.019-2.306-2.272-2.266-1.195.039-2.187 1.086-2.177 2.297z"/></g></g></switch></svg>