<svg id="Capa_1" data-name="Capa 1" xmlns="http://www.w3.org/2000/svg" viewBox="0 0 335.96 508.36"><defs><style>.cls-1{fill:#004999;}.cls-2{fill:#e43c5c;}</style></defs><path class="cls-1" d="M77.28,511.68a14.6,14.6,0,0,0-2.23-.89c-16.72-3.66-27.56-16.82-27.63-34-.11-28.79,0-57.58,0-86.37q0-175.23,0-350.47C47.4,23.54,55,11.22,69.07,6a44.22,44.22,0,0,1,15-2.56q131.3-.23,262.6-.09C369,3.35,383.3,17.72,383.3,40q0,180.71,0,361.39,0,36,0,72c0,21.11-8.83,32.52-29.17,37.73-.28.08-.51.38-.77.58ZM369.17,105.59H61.62V409.46H369.17ZM61.27,424c0,17,0,33.49,0,50,0,15.84,7.85,23.59,23.87,23.59H345.68c1.33,0,2.65,0,4,0,11.22-.61,19.57-9,19.67-20.25.16-16.87.05-33.75,0-50.62a25.31,25.31,0,0,0-.3-2.71Zm308.11-333c0-17,0-33.56,0-50.1,0-16-7.77-23.71-23.74-23.71H85c-1.32,0-2.65,0-4,0-11.2.57-19.62,9-19.73,20.21-.15,16.88,0,33.76,0,50.63a23.21,23.21,0,0,0,.4,3Z" transform="translate(-47.36 -3.32)"/><path class="cls-2" d="M215.19,389.86c-10.09,0-20.19,0-30.28,0-12.15,0-17.66-5.49-17.73-17.5,0-5.79,0-11.58,0-17.38,0-6.58-6.35-10.36-12-7.14s-11.12,6.53-16.78,9.63c-8.65,4.74-16.65,2.66-21.63-5.87q-16.26-27.82-32.19-55.86c-4.84-8.5-2.55-16.55,5.9-21.62,5.67-3.4,11.46-6.61,17.16-10,4.6-2.71,4.53-10.56-.11-13.26-5.71-3.33-11.5-6.53-17.18-9.91-8.41-5-10.77-13.26-6-21.63q16.13-28.2,32.52-56.25c4.67-8,12.79-10.18,20.88-5.78,6.1,3.32,12.06,6.9,18.11,10.3,4.13,2.31,10.95-1.54,11-6.25.1-6.62,0-13.24.05-19.86.13-10.48,5.89-16.4,16.29-16.45q31.78-.15,63.56,0c10.55,0,16.22,5.86,16.29,16.33.05,6.45,0,12.91,0,19.36.05,5.36,6.8,9.34,11.4,6.72,5.75-3.28,11.4-6.71,17.18-9.93,8.85-4.93,16.9-2.85,22,5.9q16.14,27.63,32,55.42c5.07,8.88,2.87,16.64-6,21.94-5.53,3.32-11.17,6.46-16.72,9.73-5,2.95-5.1,10.52-.15,13.44,5.27,3.1,10.58,6.13,15.87,9.21,9.88,5.78,12.05,13.57,6.41,23.35q-15.63,27.06-31.35,54.07c-5.45,9.35-13.23,11.48-22.62,6.22-5.19-2.91-10.31-5.93-15.47-8.91-6.34-3.65-12.71.14-12.71,7.57,0,6.46.07,12.91,0,19.37-.12,8.76-5.76,14.73-14.54,14.91-11.08.23-22.18.06-33.27.06Zm119.7-162-34.2-59.14c-8.44,4.86-16.36,9.32-24.16,14-3.72,2.21-7,2.09-10.6-.32a102.08,102.08,0,0,0-11.18-6.39,8.83,8.83,0,0,1-5.37-8.69c.06-7.28,0-14.56,0-21.84v-6.11H181.14c0,9.41-.08,18.48,0,27.54a9.09,9.09,0,0,1-5.52,9.09c-4,2-7.78,4.35-11.56,6.73a8.25,8.25,0,0,1-9.31.24c-4.27-2.52-8.59-5-12.9-7.43l-12.07-6.91-34.2,59.3c8.11,4.71,15.71,9.33,23.52,13.57,4.33,2.35,6.25,5.46,5.72,10.42a41.06,41.06,0,0,0,0,10.39c.87,5.87-1.61,9.28-6.59,11.92-7.54,4-14.86,8.43-22.68,12.91,11.55,20,22.82,39.49,34.26,59.28,7.57-4.38,14.77-8.1,21.47-12.58,5.63-3.77,9.84-2.45,15.82.1,12.38,5.3,15.91,13.76,14.16,26.18-.73,5.11-.12,10.4-.12,15.57H249.4c0-8.57.27-16.82-.1-25-.27-6,1.56-10.2,7.43-12.44a22.34,22.34,0,0,0,6.86-3.92c5.47-4.9,10.5-3.83,16.14-.17,6.73,4.37,13.86,8.11,21.1,12.28L335,287.13c-8.28-4.78-16.05-9.42-24-13.78-4-2.18-5.67-5.14-5.36-9.65a77.63,77.63,0,0,0,0-11.91c-.41-4.92,1.45-8,5.8-10.4C319.27,237.16,326.85,232.51,334.89,227.82Z" transform="translate(-47.36 -3.32)"/><path class="cls-1" d="M215.32,453.78c5,0,9.9-.07,14.86,0,4.25.08,6.91,2.24,7.08,6.61s-2.49,7-6.59,7.13q-15.34.43-30.7,0c-4.11-.11-6.77-2.69-6.59-7.12s2.82-6.54,7.08-6.62C205.41,453.71,210.36,453.78,215.32,453.78Z" transform="translate(-47.36 -3.32)"/><path class="cls-1" d="M196.1,61.23c-6.77,0-13.53.09-20.3,0-5.1-.09-8-2.65-8.1-6.75s2.83-7,7.84-7q21-.21,42.08,0c5.11,0,7.88,2.81,7.82,7s-2.85,6.67-8.05,6.77C210.3,61.32,203.2,61.23,196.1,61.23Z" transform="translate(-47.36 -3.32)"/><path class="cls-1" d="M248.67,61.08c-2.8,0-5.62.21-8.39-.06-3.83-.37-5.95-2.83-6-6.59s2-6.52,5.82-6.74a137.58,137.58,0,0,1,17.23.05c3.58.24,5.54,2.95,5.56,6.47,0,3.74-2,6.31-5.84,6.77a70.77,70.77,0,0,1-8.37.06Z" transform="translate(-47.36 -3.32)"/><path class="cls-2" d="M290.25,257.29a75,75,0,0,1-150,.31c-.13-41.16,33.32-74.81,74.61-75.07A75,75,0,0,1,290.25,257.29Zm-14,.14c0-33.77-27.65-61.32-61.26-61.09a61.24,61.24,0,0,0-60.78,61.11c0,33.65,27.74,61.34,61.29,61.09A61.16,61.16,0,0,0,276.28,257.43Z" transform="translate(-47.36 -3.32)"/><path class="cls-1" d="M180.07,257.36c6.37,6.4,12.32,12.34,18.22,18.32,3.91,4,4.41,8.28,1.39,11.29-3.21,3.21-7.06,2.8-11.22-1.34q-11.09-11-22.07-22.09c-4.15-4.22-4.18-7.83-.07-12q11.15-11.29,22.43-22.43c3.93-3.88,7.73-4.22,10.87-1.18,3,2.91,2.69,7.21-1,10.9C192.64,244.93,186.52,250.94,180.07,257.36Z" transform="translate(-47.36 -3.32)"/><path class="cls-1" d="M250.32,256.94c-6.08-6-12.1-11.89-18-17.85-3.94-4-4.33-8.25-1.17-11.23s6.89-2.62,10.87,1.31q11.11,11,22.08,22.08c4.39,4.45,4.43,8,.14,12.37q-11,11.11-22.07,22.08c-4.16,4.11-8.08,4.46-11.25,1.19-2.94-3-2.38-7.3,1.57-11.28,5.71-5.74,11.46-11.44,17.18-17.17A7.12,7.12,0,0,0,250.32,256.94Z" transform="translate(-47.36 -3.32)"/><path class="cls-1" d="M228.15,227.14c-2,10.32-3.93,20.53-5.9,30.73s-3.91,20.42-5.95,30.61c-.94,4.69-4.44,7.28-8.36,6.41s-6-4.39-5.2-8.79q5.7-29.89,11.53-59.77c.81-4.18,3.29-6.57,7.57-6.16C225.85,220.55,227.79,223.31,228.15,227.14Z" transform="translate(-47.36 -3.32)"/></svg>