<svg xmlns="http://www.w3.org/2000/svg" viewBox="0 0 500 500"><defs><clipPath id="a"><path style="fill:none" d="M177.23 129.81h144.32v261.93H177.23z"/></clipPath></defs><path style="fill:#e6e6e6" d="M0 382.4h500v.25H0zM413.5 396.43h10.61v.25H413.5zM363.01 396.55h43.15v.25h-43.15zM236.85 394.17h72.82v.25h-72.82zM171.85 398.51h23.11v.25h-23.11zM86.13 394.29h31.82v.25H86.13zM123.5 394.29h29.74v.25H123.5zM65.29 389.92h30.37v.25H65.29zM237 337.8H43.91a5.71 5.71 0 0 1-5.7-5.71V60.66a5.71 5.71 0 0 1 5.7-5.66H237a5.71 5.71 0 0 1 5.71 5.71v271.38a5.71 5.71 0 0 1-5.71 5.71ZM43.91 55.2a5.46 5.46 0 0 0-5.45 5.46v271.43a5.46 5.46 0 0 0 5.45 5.46H237a5.47 5.47 0 0 0 5.46-5.46V60.66A5.47 5.47 0 0 0 237 55.2ZM453.31 337.8h-193.1a5.72 5.72 0 0 1-5.71-5.71V60.66a5.72 5.72 0 0 1 5.71-5.66h193.1a5.71 5.71 0 0 1 5.69 5.66v271.43a5.71 5.71 0 0 1-5.69 5.71ZM260.21 55.2a5.47 5.47 0 0 0-5.46 5.46v271.43a5.47 5.47 0 0 0 5.46 5.46h193.1a5.47 5.47 0 0 0 5.46-5.46V60.66a5.47 5.47 0 0 0-5.46-5.46Z"/><path style="fill:#e6e6e6" d="M54.09 76.47h155.75V212H54.09z"/><path style="fill:#f0f0f0" d="M57.07 76.47h159.15V212H57.07z"/><path style="fill:#e6e6e6" d="M54.09 212h155.75v5.44H54.09z"/><path style="fill:#f0f0f0" d="M67.69 212h159.15v5.44H67.69z"/><path transform="rotate(90 136.645 144.235)" style="fill:#fafafa" d="M77.8 73.58h117.69v141.3H77.8z"/><path style="fill:#fff" d="m88.88 203.08 27.26-117.69h37.41l-27.26 117.69H88.88z"/><path d="M71.14 183.41a.64.64 0 0 1-.64-.64V91.19a.64.64 0 0 1 1.28 0v91.58a.64.64 0 0 1-.64.64Z" style="fill:#e6e6e6"/><path style="fill:#fff" d="m133.96 203.08 27.26-117.69h12.94L146.9 203.08h-12.94z"/><path transform="rotate(90 206.73 144.23)" style="fill:#e6e6e6" d="M147.88 143.67h117.69v1.13H147.88z"/><path style="fill:#e0e0e0" d="M218.33 86.36H62.58l-.82-2.71h155.75l.82 2.71zM218.33 90.83H62.58l-.82-2.71h155.75l.82 2.71zM218.33 95.3H62.58l-.82-2.71h155.75l.82 2.71zM218.33 99.77H62.58l-.82-2.71h155.75l.82 2.71zM218.33 104.24H62.58l-.82-2.71h155.75l.82 2.71zM218.33 108.71H62.58l-.82-2.71h155.75l.82 2.71z"/><path style="fill:#e6e6e6" d="M337.7 85.29h65.49v116.75H337.7z"/><path d="M374.59 91.46a5 5 0 1 1 5.05-5 5.05 5.05 0 0 1-5.05 5Zm0-9.1a4 4 0 1 0 4.05 4 4 4 0 0 0-4.05-4Z" style="fill:#e0e0e0"/><path style="fill:#f0f0f0" d="M342.63 85.29h67.64v116.75h-67.64z"/><path transform="rotate(90 376.455 143.665)" style="fill:#fafafa" d="M323.74 115.51h105.42v56.31H323.74z"/><path transform="rotate(90 404.265 143.665)" style="fill:#e0e0e0" d="M351.55 143.32h105.42v.7H351.55z"/><path d="M354.76 243.56s.7 11.77 27.45 11.77 27.44-11.77 27.44-11.77ZM273.34 264.57h27.32v112.52h-27.32zM278.59 377.09h142.74v5.31H278.59z" style="fill:#e6e6e6"/><path transform="rotate(180 363.615 320.83)" style="fill:#f5f5f5" d="M300.66 264.57h125.91v112.52H300.66z"/><path transform="rotate(180 363.615 320.83)" style="fill:#e6e6e6" d="M311.4 307.09h104.43v27.48H311.4z"/><path transform="rotate(180 363.615 353.325)" style="fill:#e6e6e6" d="M311.4 339.58h104.43v27.48H311.4z"/><path d="M379.23 310.1H348a1.88 1.88 0 0 1-1.88-1.88 1.89 1.89 0 0 1 1.88-1.89h31.23a1.89 1.89 0 0 1 1.88 1.89 1.88 1.88 0 0 1-1.88 1.88Z" style="fill:#f5f5f5"/><path transform="rotate(180 363.615 288.335)" style="fill:#e6e6e6" d="M311.4 274.6h104.43v27.48H311.4z"/><path d="M379.23 277.61H348a1.89 1.89 0 0 1-1.88-1.89 1.88 1.88 0 0 1 1.88-1.88h31.23a1.88 1.88 0 0 1 1.88 1.88 1.89 1.89 0 0 1-1.88 1.89ZM379.23 342.6H348a1.89 1.89 0 0 1-1.88-1.89 1.88 1.88 0 0 1 1.88-1.88h31.23a1.88 1.88 0 0 1 1.88 1.88 1.89 1.89 0 0 1-1.88 1.89Z" style="fill:#f5f5f5"/><path style="fill:#ebebeb" d="M300.66 255.33h129.55v9.24H300.66z"/><path transform="rotate(180 285.09 259.955)" style="fill:#e0e0e0" d="M269.52 255.33h31.14v9.24h-31.14z"/><path transform="rotate(180 297.43 239.065)" style="fill:#e6e6e6" d="M283.85 222.8H311v32.54h-27.15z"/><path style="fill:#fafafa" d="M311.01 222.8h48.18v32.54h-48.18z"/><path d="M346.21 240c0 2.33-5 4.21-11.11 4.21S324 242.3 324 240s5-4.21 11.12-4.21 11.09 1.86 11.09 4.21Z" style="fill:#fff"/><path transform="rotate(180 321.66 228.075)" style="fill:#e0e0e0;opacity:.7000000000000001;mix-blend-mode:multiply" d="M283.85 226.96h75.61v2.23h-75.61z"/><path transform="rotate(180 296.68 224.675)" style="fill:#e6e6e6" d="M282.36 221.44h28.65v6.46h-28.65z"/><path style="fill:#fafafa" d="M311.01 221.44h49.67v6.46h-49.67z"/><path style="fill:#e6e6e6" d="M173.84 239.06H70.34L76.8 382.4h103.5l-6.46-143.34z"/><path style="fill:#fafafa" d="M175.34 239.06H71.84L78.3 382.4h103.5l-6.46-143.34z"/><path transform="rotate(180 108.24 366.13)" style="fill:#e0e0e0" d="M94.67 349.86h27.15v32.54H94.67z"/><path style="fill:#f0f0f0" d="M121.82 349.86h129.97v32.54H121.82z"/><path transform="rotate(180 173.37 355.145)" style="fill:#e0e0e0;opacity:.7000000000000001;mix-blend-mode:multiply" d="M94.67 354.03h157.41v2.23H94.67z"/><path transform="rotate(180 107.495 351.74)" style="fill:#e0e0e0" d="M93.17 348.51h28.65v6.46H93.17z"/><path style="fill:#f0f0f0" d="M121.82 348.51h131.47v6.46H121.82z"/><path transform="rotate(180 134.83 319.115)" style="fill:#e6e6e6" d="M117.16 289.72h35.33v58.79h-35.33z"/><path style="fill:#ebebeb" d="M152.49 289.72h88.28v58.79h-88.28z"/><path transform="rotate(180 179.15 296.59)" style="fill:#e0e0e0;opacity:.7000000000000001;mix-blend-mode:multiply" d="M117.16 295.14h123.98v2.9H117.16z"/><path transform="rotate(180 133.855 289.68)" style="fill:#e6e6e6" d="M115.21 283h37.28v13.36h-37.28z"/><path style="fill:#ebebeb" d="M152.49 283h90.23v13.36h-90.23z"/><circle cx="77.81" cy="357.43" r="24.97" style="fill:#f0f0f0"/><path d="M65.58 342.54c1.48-1.54 2.08-3.38 1.32-4.1s-2.57-.07-4.05 1.47-2.08 3.38-1.33 4.11 2.57.07 4.06-1.48ZM76 337.86c2.1-.4 3.65-1.56 3.45-2.59s-2.06-1.54-4.17-1.13-3.64 1.56-3.45 2.59 2.02 1.54 4.17 1.13ZM73.82 346.58c2-.71 3.31-2.29 2.87-3.53s-2.43-1.67-4.45-1-3.3 2.29-2.87 3.53 2.43 1.71 4.45 1Z" style="fill:#e0e0e0;opacity:.7000000000000001;mix-blend-mode:multiply"/><ellipse cx="250" cy="416.24" rx="193.89" ry="11.32" style="fill:#f5f5f5"/><rect x="177.54" y="111.44" width="144.32" height="304.79" rx="14.62" style="fill:#407bff"/><rect x="177.54" y="111.44" width="144.32" height="304.79" rx="14.62" style="fill:#fff;opacity:.7000000000000001"/><rect x="181.4" y="110.92" width="144.32" height="304.79" rx="14.62" style="fill:#407bff"/><rect x="181.4" y="110.92" width="144.32" height="304.79" rx="14.62" style="opacity:.2"/><path d="M259.19 402.28a6.51 6.51 0 1 1-6.5-6.5 6.5 6.5 0 0 1 6.5 6.5Z" style="fill:#407bff"/><path d="M259.19 402.28a6.51 6.51 0 1 1-6.5-6.5 6.5 6.5 0 0 1 6.5 6.5Z" style="opacity:.4"/><path style="fill:#407bff" d="M324.56 392.75h-143.6V130.83h144.6l-1 261.92z"/><path style="fill:#fff;opacity:.8" d="m325.83 392.61-144.95.17V130.85l144.82-.15.13 261.91z"/><path style="fill:#407bff;opacity:.33" d="M169.03 135.22h1v13.22h-1zM169.03 152.11h1v4.14h-1z"/><rect x="184.95" y="141.67" width="119.49" height="79.34" rx="9.94" style="fill:#fff"/><circle cx="203.26" cy="159.99" r="13.23" transform="rotate(-22.69 203.285 160.01)" style="fill:#407bff;opacity:.27"/><path d="M214.18 160a10.71 10.71 0 0 1-1.32 5.2 10.92 10.92 0 1 1 1.32-5.2Z" style="fill:#fff"/><path d="M212.86 165.19a10.92 10.92 0 0 1-19.2 0 17.29 17.29 0 0 1 19.2 0Z" style="fill:#407bff;opacity:.27"/><circle cx="203.26" cy="156.25" r="4.86" style="fill:#407bff;opacity:.27"/><rect x="184.95" y="228.34" width="119.49" height="27.77" rx="7.33" style="fill:#fff"/><path d="m324.75 258.8 14.13 38.94a4.1 4.1 0 0 1-2.45 5.23l-74.13 26.89a4.1 4.1 0 0 1-5.23-2.44l-14.13-38.95a4.08 4.08 0 0 1 2.45-5.22l74.13-26.9a4.1 4.1 0 0 1 5.23 2.45Z" style="fill:#407bff;opacity:.6000000000000001"/><path d="m322.51 256.44-21.19 34.87a16.59 16.59 0 0 1-19.55 7.09l-38.62-13.18a4.08 4.08 0 0 1 2.24-2l74.13-26.9a4.1 4.1 0 0 1 2.99.12Z" style="fill:#407bff"/><path d="m322.51 256.44-21.19 34.87a16.59 16.59 0 0 1-19.55 7.09l-38.62-13.18a4.08 4.08 0 0 1 2.24-2l74.13-26.9a4.1 4.1 0 0 1 2.99.12Z" style="fill:#fff;opacity:.5"/><path d="m301.5 325.73-.68 35.08a3.47 3.47 0 0 1-3.52 3.39l-66.79-1.3a3.45 3.45 0 0 1-3.38-3.52l.67-35.08a3.51 3.51 0 0 1 1.15-2.51 3.46 3.46 0 0 1 2.37-.88l66.79 1.29a3.47 3.47 0 0 1 3.39 3.53Z" style="fill:#407bff;opacity:.6000000000000001"/><path d="m300.45 323.18-27.36 21.12a14.08 14.08 0 0 1-17.62-.34L229 321.79a3.46 3.46 0 0 1 2.37-.88l66.79 1.29a3.46 3.46 0 0 1 2.29.98Z" style="fill:#407bff"/><path d="m300.45 323.18-27.36 21.12a14.08 14.08 0 0 1-17.62-.34L229 321.79a3.46 3.46 0 0 1 2.37-.88l66.79 1.29a3.46 3.46 0 0 1 2.29.98Z" style="fill:#fff;opacity:.5"/><path d="M234.13 119.17a2.3 2.3 0 1 1 2.3 2.31 2.3 2.3 0 0 1-2.3-2.31ZM244.38 116.87h19.11a2.31 2.31 0 0 1 2.3 2.3 2.31 2.31 0 0 1-2.3 2.31h-19.11a2.31 2.31 0 0 1-2.3-2.31 2.31 2.31 0 0 1 2.3-2.3Z" style="fill:#407bff"/><path d="M234.13 119.17a2.3 2.3 0 1 1 2.3 2.31 2.3 2.3 0 0 1-2.3-2.31ZM244.38 116.87h19.11a2.31 2.31 0 0 1 2.3 2.3 2.31 2.31 0 0 1-2.3 2.31h-19.11a2.31 2.31 0 0 1-2.3-2.31 2.31 2.31 0 0 1 2.3-2.3Z" style="opacity:.4"/><rect x="312.38" y="163.21" width="17.55" height="37.05" rx="4.01" style="fill:#407bff"/><rect x="312.38" y="163.21" width="17.55" height="37.05" rx="4.01" style="fill:#fff;opacity:.8"/><rect x="312.38" y="210.95" width="17.55" height="20.9" rx="3.01" style="fill:#407bff"/><rect x="312.38" y="210.95" width="17.55" height="20.9" rx="3.01" style="fill:#fff;opacity:.8"/><g style="clip-path:url(#a)"><path style="fill:none" d="M177.23 129.81h144.32v261.93H177.23z"/><path style="fill:#e4897b" d="m198.98 385.43 7.35.71 7.65-17.49-7.35-.72-7.65 17.5zM124.37 331.86l4.19 6.35 16.06-7.67-4.2-6.36-16.05 7.68z"/><path style="fill:#ce6f64" d="m213.98 368.65-3.94 9.02h-7.67l4.25-9.74 7.36.72zM140.42 324.19l4.19 6.35-8.27 3.95-4.2-6.35 8.28-3.95z"/><path d="m281.63 206.42.24.54.31.63c.2.42.43.85.66 1.28.47.85 1 1.71 1.5 2.53a46.66 46.66 0 0 0 3.47 4.82 52.2 52.2 0 0 0 4.09 4.32c.75.66 1.48 1.34 2.26 2l1.17.92.27.22a2 2 0 0 0-.39-.08 1.71 1.71 0 0 0-.85.13.88.88 0 0 0-.42.27c-.07.1.11-.06.26-.32a11 11 0 0 0 .93-2.3 49.92 49.92 0 0 0 1.29-5.91c.34-2.06.62-4.17.84-6.28s.45-4.26.65-6.36l3.86-.06c.24 2.23.34 4.4.43 6.62s.05 4.42 0 6.67a45.64 45.64 0 0 1-.79 6.89 17.05 17.05 0 0 1-1.21 3.8 8 8 0 0 1-1.62 2.31 5.5 5.5 0 0 1-1.8 1.13 5.26 5.26 0 0 1-2.44.3 5.87 5.87 0 0 1-1.92-.6 7.59 7.59 0 0 1-.7-.4l-.38-.25-1.46-1c-1-.66-1.88-1.39-2.79-2.12a48.47 48.47 0 0 1-5.05-4.88 50.63 50.63 0 0 1-4.27-5.59c-.64-1-1.23-2-1.8-3-.28-.53-.55-1.05-.81-1.6l-.38-.85c-.13-.3-.23-.54-.39-.95Z" style="fill:#e4897b"/><path style="fill:#f5f5f5" d="m285.01 211.59-6.72 9.27 2.78 2.73 7.15-8.6-3.21-3.4z"/><path d="M274.47 199.36c7.57 2 12.79 12.62 12.79 12.62l-8.74 12.25S268 211 268.27 206.82c.26-4.38 1.64-8.69 6.2-7.46Z" style="fill:#407bff"/><path d="M274.47 199.36c7.57 2 12.79 12.62 12.79 12.62l-8.74 12.25S268 211 268.27 206.82c.26-4.38 1.64-8.69 6.2-7.46Z" style="fill:#fff;opacity:.7000000000000001"/><path d="M281 203.27s2.49 2.94-26.33 37.82L228 225.47c6.8-10.59 10.73-17.28 18.58-42.6A90.92 90.92 0 0 1 258.8 188a112.16 112.16 0 0 1 12.12 7.09c4.92 3.52 10.08 8.18 10.08 8.18Z" style="fill:#407bff"/><path d="M281 203.27s2.49 2.94-26.33 37.82L228 225.47c6.8-10.59 10.73-17.28 18.58-42.6A90.92 90.92 0 0 1 258.8 188a112.16 112.16 0 0 1 12.12 7.09c4.92 3.52 10.08 8.18 10.08 8.18Z" style="fill:#fff;opacity:.7000000000000001"/><path d="M277.54 200.26c-1.88-1.56-4.29-3.49-6.62-5.17A99 99 0 0 0 258.8 188a75.953 75.953 0 0 0-6.84-3.13c-.33.55-.06 2.23.95 4.69 3.84 4.95 12.76 12.24 20.2 13.69 3.46-.5 4.54-1.6 4.43-2.99Z" style="fill:#f5f5f5"/><path d="M252.91 189.56a54.24 54.24 0 0 0 8.85 13.72 57.13 57.13 0 0 0 11.35 0c-7.44-1.48-16.36-8.77-20.2-13.72Z" style="fill:#f5f5f5"/><path d="M254.7 241.09s.43 68.52-11.72 88.3c-12.64 20.57-29.12 45.66-29.12 45.66l-14.27-.69s16.64-37.12 22.92-54.35c8.65-23.75 12.65-90.36 12.65-90.36Z" style="fill:#407bff"/><path d="M254.7 241.09s.43 68.52-11.72 88.3c-12.64 20.57-29.12 45.66-29.12 45.66l-14.27-.69s16.64-37.12 22.92-54.35c8.65-23.75 12.65-90.36 12.65-90.36Z" style="opacity:.4"/><path d="M239.52 243a28.87 28.87 0 0 0-5.89 6.85c-.45 5.1-1 10.83-1.63 16.83 4.35-5.91 7.79-16.28 7.52-23.68Z" style="opacity:.2"/><path d="M247.65 237s-30.19 42.86-49 66c-15.2 18.65-59.2 32-59.2 32l-5.37-9s35-19.54 45.44-32.16c33.42-40.4 33-61.35 48.52-68.26Z" style="fill:#407bff"/><path d="M247.65 237s-30.19 42.86-49 66c-15.2 18.65-59.2 32-59.2 32l-5.37-9s35-19.54 45.44-32.16c33.42-40.4 33-61.35 48.52-68.26Z" style="opacity:.4"/><path d="m298 203.77-2-8 7.63 2.22s-.21 5.38-2.85 7.13Z" style="fill:#e4897b"/><path style="fill:#e4897b" d="m298.43 189.35 5.36 2.71-.13 5.97-7.63-2.22 2.4-6.46zM202.58 192.29l-7-4.3 7-3.74s3.59 4 2.93 7.1Z"/><path style="fill:#e4897b" d="m192.81 181.68 5.73-1.8 4.08 4.37-7.03 3.74-2.78-6.31z"/><path d="m130.32 337.54-2.49-8.18a.61.61 0 0 0-.68-.42l-6.75 1a1.22 1.22 0 0 0-.94 1.56c.92 2.83 1.5 4.16 2.6 7.75.67 2.22 1.84 7.21 2.77 10.27s4 2.3 3.89.94c-.51-6.08.49-9.19 1.52-11.6a2 2 0 0 0 .08-1.32ZM207.31 383.87h-9a.74.74 0 0 0-.71.55l-2 7.15a1.11 1.11 0 0 0 1.1 1.42c3.16-.05 4.7-.23 8.67-.23 2.44 0 8.76.25 12.13.25s4-3.34 2.63-3.64c-6.13-1.35-9.65-3.22-11.54-5a1.87 1.87 0 0 0-1.28-.5ZM228.53 223.67l-2.6 1.69c-.2.13-.09.45.22.63l28 16.37c.24.14.51.14.61 0l1.64-2.25c.11-.16 0-.42-.28-.57l-27-15.81a.56.56 0 0 0-.59-.06Z" style="fill:#263238"/><path d="M244.39 194.34c-1.89 1.51-3.69 2.73-5.6 4s-3.85 2.36-5.85 3.44a68 68 0 0 1-12.61 5.33c-.54.19-1.12.32-1.67.47s-1.08.3-1.74.44a12.9 12.9 0 0 1-4.37.22 10.72 10.72 0 0 1-4.36-1.52 12.06 12.06 0 0 1-3.19-2.94 19.37 19.37 0 0 1-3.12-6.87 24.59 24.59 0 0 1-.64-3.47 25.18 25.18 0 0 1-.23-3.52l3.84-.33a36 36 0 0 0 1.87 5.71 14.82 14.82 0 0 0 2.91 4.58 4.94 4.94 0 0 0 3.54 1.66 7.06 7.06 0 0 0 2.08-.33c.87-.28 1.89-.6 2.82-.94A74.64 74.64 0 0 0 229.2 195c1.82-1 3.56-2.15 5.32-3.26s3.49-2.36 5-3.5Z" style="fill:#e4897b"/><path style="fill:#f5f5f5" d="m232.02 191.72 3.46 10.46 3.25-1.95-3.04-10.37-3.67 1.86z"/><path d="M131.09 341.83a1 1 0 0 1-.48-.13c-.83-.5-1.06-2.27-1.13-3.28a.19.19 0 0 1 .1-.17.21.21 0 0 1 .2 0c.24.2 2.34 2 2.21 2.94a.61.61 0 0 1-.38.49 1.14 1.14 0 0 1-.52.15Zm-1.21-3c.13 1.35.46 2.29.91 2.56a.72.72 0 0 0 .67 0c.14-.07.17-.15.17-.22.07-.51-.93-1.6-1.75-2.34Z" style="fill:#407bff"/><path d="M132.35 339.66a5.22 5.22 0 0 1-2.81-1.12.16.16 0 0 1 0-.17.18.18 0 0 1 .12-.13c.09 0 2.19-.66 3.13-.08a.94.94 0 0 1 .45.66.63.63 0 0 1-.3.73 1.24 1.24 0 0 1-.59.11Zm-2.3-1.17c.77.53 2.2 1 2.67.74.07 0 .16-.12.12-.35a.58.58 0 0 0-.29-.41 4.11 4.11 0 0 0-2.5.02ZM211.31 385.36a11.8 11.8 0 0 1-2.47-.31.19.19 0 0 1-.14-.16.2.2 0 0 1 .11-.18c.6-.29 3.68-1.68 4.5-1.13a.53.53 0 0 1 .22.5 1.1 1.1 0 0 1-.45.86 3 3 0 0 1-1.77.42Zm-1.84-.55c1 .18 2.68.38 3.39-.16a.73.73 0 0 0 .31-.6.18.18 0 0 0-.06-.17c-.45-.3-2.3.34-3.64.93Z" style="fill:#407bff"/><path d="M208.88 385.05a.15.15 0 0 1-.11 0 .16.16 0 0 1-.06-.18c0-.14.78-3.41 2.58-3.18.47.05.59.29.62.47.12.86-1.94 2.5-3 2.92Zm2.25-3.05c-1.08 0-1.73 1.75-2 2.54 1-.57 2.46-1.87 2.39-2.37 0-.08-.11-.14-.3-.16ZM230.39 228.82l-.72-.42c-.14-.09-.21-.23-.15-.31l2.16-2.91c.06-.08.23-.08.37 0l.73.43c.14.08.21.22.15.3l-2.16 2.91c-.06.08-.23.08-.38 0ZM251.94 241.43l-.72-.43c-.14-.08-.21-.22-.15-.3l2.16-2.91c.06-.08.23-.08.37 0l.73.42c.14.09.21.23.14.31l-2.15 2.91c-.06.08-.23.08-.38 0ZM241.17 235.12l-.73-.42c-.14-.08-.21-.22-.14-.31l2.15-2.9c.07-.09.23-.09.38 0l.72.42c.15.08.21.22.15.31l-2.16 2.9c-.06.09-.23.09-.37 0Z" style="fill:#407bff"/><path d="m230.39 228.82-.72-.42c-.14-.09-.21-.23-.15-.31l2.16-2.91c.06-.08.23-.08.37 0l.73.43c.14.08.21.22.15.3l-2.16 2.91c-.06.08-.23.08-.38 0ZM251.94 241.43l-.72-.43c-.14-.08-.21-.22-.15-.3l2.16-2.91c.06-.08.23-.08.37 0l.73.42c.14.09.21.23.14.31l-2.15 2.91c-.06.08-.23.08-.38 0ZM241.17 235.12l-.73-.42c-.14-.08-.21-.22-.14-.31l2.15-2.9c.07-.09.23-.09.38 0l.72.42c.15.08.21.22.15.31l-2.16 2.9c-.06.09-.23.09-.37 0Z" style="opacity:.4"/><path d="M261.18 190c0-6-2-29.61 7.84-31.61 3.11-3.28 18.52-3.62 20.88 4.72 3.12 10.95-1.5 37.67-1.5 37.67L261.18 190" style="fill:#263238"/><path d="M290.45 200.84a.25.25 0 0 1-.22-.28c0-.27 3.25-27-.34-37.58-1-2.9-3.78-4.93-7.9-5.73-5.36-1.05-11.16.26-12.77 2.12a.25.25 0 0 1-.35 0 .26.26 0 0 1 0-.36c1.88-2.18 8.19-3.27 13.25-2.28 4.3.83 7.24 3 8.28 6.06 3.62 10.71.39 37.53.36 37.8a.26.26 0 0 1-.31.25Z" style="fill:#263238"/><path d="M268 175.07c-1.51 4.34-4.93 11.93-9.18 12.93 0 0-1.25 4.58 6 8.82 8 4.66 6.12-1.73 6.12-1.73-3.74-3.58-1.75-6.74.78-9.32Z" style="fill:#e4897b"/><path d="m269.5 179.43 2.2 6.33a15.44 15.44 0 0 0-1.63 1.93c-1.52-1.21-3.15-4.16-2.31-6a8 8 0 0 1 1.74-2.26Z" style="fill:#ce6f64"/><path d="M268.06 166.42c-2.07 7.27-3.1 10.3-.79 15.21 3.47 7.4 12.84 8.35 17 1.85 3.78-5.85 6.52-16.75.56-22a10.3 10.3 0 0 0-16.77 4.94Z" style="fill:#e4897b"/><path d="M265.93 171c5.17 1.93 17.32-4.48 20.63-8.41.44-6.06-13.77-3.67-13.77-3.67s-7.58-2.33-6.86 12.08Z" style="fill:#263238"/><path d="M264.7 172.45a5.51 5.51 0 0 0 .67 4.16c1 1.64 2.84 1 3.64-.62.72-1.48 1.05-4.13-.5-5.2a2.48 2.48 0 0 0-3.81 1.66Z" style="fill:#e4897b"/><path d="M278.15 172.21c-.21.58-.07 1.16.31 1.29s.85-.23 1.06-.81.06-1.15-.32-1.29-.85.23-1.05.81ZM284.69 174.52c-.2.58-.06 1.15.32 1.29s.85-.23 1.05-.81.06-1.16-.31-1.29-.85.23-1.06.81Z" style="fill:#263238"/><path d="m285.57 173.68 1.53.09s-1.1.84-1.53-.09Z" style="fill:#263238"/><path d="M282.61 174.9a16.67 16.67 0 0 0 .76 4.42 2.62 2.62 0 0 1-2.2-.34Z" style="fill:#de5753"/><path d="M278.39 180.56h-.06a5.18 5.18 0 0 1-3.34-3.37.19.19 0 0 1 .14-.22.17.17 0 0 1 .21.14 4.93 4.93 0 0 0 3.11 3.11.18.18 0 0 1-.06.35ZM277.86 169.92a.36.36 0 0 1-.17-.68 3.59 3.59 0 0 1 3.28-.13.36.36 0 1 1-.34.63 2.87 2.87 0 0 0-2.6.14.35.35 0 0 1-.17.04ZM288.84 172.57a.35.35 0 0 1-.34-.27 2.88 2.88 0 0 0-1.66-2 .37.37 0 0 1-.23-.46.35.35 0 0 1 .46-.22 3.56 3.56 0 0 1 2.12 2.51.36.36 0 0 1-.26.44ZM279 171.38l1.53.09s-1.07.83-1.53-.09Z" style="fill:#263238"/><path d="M246.6 182.87c-3.15-.75-12.84 6.63-12.84 6.63l4.11 13.11s10.13-5.61 11.07-9.74c.93-4.28 1.25-9.14-2.34-10Z" style="fill:#407bff"/><path d="M246.6 182.87c-3.15-.75-12.84 6.63-12.84 6.63l4.11 13.11s10.13-5.61 11.07-9.74c.93-4.28 1.25-9.14-2.34-10Z" style="fill:#fff;opacity:.7000000000000001"/></g><path d="M362 99.44h-74.2a12 12 0 0 0-12 12v23a12 12 0 0 0 12 12h6.2v11.8l11.8-11.8H362a12 12 0 0 0 12-12v-23a12 12 0 0 0-12-12Z" style="fill:#407bff"/><path d="M362 99.44h-74.2a12 12 0 0 0-12 12v23a12 12 0 0 0 12 12h6.2v11.8l11.8-11.8H362a12 12 0 0 0 12-12v-23a12 12 0 0 0-12-12Z" style="opacity:.30000000000000004"/><g style="opacity:.54"><rect x="286.77" y="109" width="76.24" height="5.5" rx="2.75" style="fill:#f5f5f5"/></g><g style="opacity:.54"><path d="M360.25 125.43h-45.34a2.77 2.77 0 0 1-2.76-2.76 2.76 2.76 0 0 1 2.76-2.75h45.34a2.75 2.75 0 0 1 2.75 2.75 2.76 2.76 0 0 1-2.75 2.76Z" style="fill:#f5f5f5"/></g><g style="opacity:.54"><path d="M301.45 125.43h-11.93a2.76 2.76 0 0 1-2.75-2.76 2.75 2.75 0 0 1 2.75-2.75h11.93a2.75 2.75 0 0 1 2.75 2.75 2.76 2.76 0 0 1-2.75 2.76Z" style="fill:#f5f5f5"/></g><g style="opacity:.54"><path d="M342.59 136.35h-53.07a2.75 2.75 0 0 1-2.75-2.75 2.76 2.76 0 0 1 2.75-2.76h53.07a2.76 2.76 0 0 1 2.75 2.76 2.75 2.75 0 0 1-2.75 2.75Z" style="fill:#f5f5f5"/></g></svg>