<svg xmlns="http://www.w3.org/2000/svg" viewBox="0 0 512 512" style="enable-background:new 0 0 512 512" xml:space="preserve"><path d="M386 112.5H126a7.5 7.5 0 0 0-7.5 7.5v44a7.5 7.5 0 0 0 7.5 7.5h260a7.5 7.5 0 0 0 7.5-7.5v-44a7.5 7.5 0 0 0-7.5-7.5zm-7.5 44h-245v-29h245v29zM256 185.463H126a7.5 7.5 0 0 0-7.5 7.5v86.875a7.5 7.5 0 0 0 7.5 7.5h130a7.5 7.5 0 0 0 7.5-7.5v-86.875a7.5 7.5 0 0 0-7.5-7.5zm-7.5 86.875h-115v-71.875h115v71.875zM256 298.625H126a7.5 7.5 0 0 0-7.5 7.5V393a7.5 7.5 0 0 0 7.5 7.5h130a7.5 7.5 0 0 0 7.5-7.5v-86.875a7.5 7.5 0 0 0-7.5-7.5zm-7.5 86.875h-115v-71.875h115V385.5zM386 185.5h-96a7.5 7.5 0 0 0-7.5 7.5v200a7.5 7.5 0 0 0 7.5 7.5h96a7.5 7.5 0 0 0 7.5-7.5V193a7.5 7.5 0 0 0-7.5-7.5zm-7.5 200h-81v-185h81v185z"/><path d="M416 408.667a7.5 7.5 0 0 0-7.5 7.5v20.5h-305V127.75c0-4.142-3.357-7.5-7.5-7.5s-7.5 3.358-7.5 7.5V484.5c0 15.164 12.337 27.5 27.5 27.5h280c15.163 0 27.5-12.336 27.5-27.5v-68.333c0-4.143-3.357-7.5-7.5-7.5zm-7.5 75.5c0 6.893-5.607 12.5-12.5 12.5H116c-6.893 0-12.5-5.607-12.5-12.5v-32.5h305v32.5zM279 30h-46a7.5 7.5 0 0 0-7.5 7.5A7.5 7.5 0 0 0 233 45h46a7.5 7.5 0 0 0 7.5-7.5A7.5 7.5 0 0 0 279 30z"/><circle cx="206.55" cy="37.5" r="7.5"/><path d="M338 467H174a7.5 7.5 0 0 0-7.5 7.5 7.5 7.5 0 0 0 7.5 7.5h164a7.5 7.5 0 0 0 7.5-7.5 7.5 7.5 0 0 0-7.5-7.5zM396 0H116c-15.163 0-27.5 12.336-27.5 27.5v68.25c0 4.142 3.357 7.5 7.5 7.5s7.5-3.358 7.5-7.5V75h249a7.5 7.5 0 0 0 7.5-7.5 7.5 7.5 0 0 0-7.5-7.5h-249V27.5c0-6.893 5.607-12.5 12.5-12.5h280c6.893 0 12.5 5.607 12.5 12.5V60h-24.25a7.5 7.5 0 0 0-7.5 7.5 7.5 7.5 0 0 0 7.5 7.5h24.25v308.667c0 4.142 3.357 7.5 7.5 7.5s7.5-3.358 7.5-7.5V27.5C423.5 12.336 411.163 0 396 0z"/></svg>