<svg height="512" viewBox="0 0 64 64" width="512" xmlns="http://www.w3.org/2000/svg"><path d="m42.28 48.71 13.24-7.64a4 4 0 0 1 4 6.93L37.93 60.46a3.925 3.925 0 0 1-2 .54H23.56a4.109 4.109 0 0 1-1.1-.15L9 57V42h10.51a5.993 5.993 0 0 1 4.25 1.76L27 47h12a4.025 4.025 0 0 1 2.83 1.17 5.852 5.852 0 0 1 .45.54z" fill="#ffc477"/><path d="M38 3h6a6 6 0 0 1-6 6h-6a6 6 0 0 1 6-6zM38 13h6a6 6 0 0 1-6 6h-6a6 6 0 0 1 6-6z" fill="#9cdd05"/><circle cx="32" cy="33" fill="#ffcd00" r="10"/><path d="M32 9h-6a6 6 0 0 1-6-6h6a6 6 0 0 1 6 6zM32 19h-6a6 6 0 0 1-6-6h6a6 6 0 0 1 6 6z" fill="#9cdd05"/><path d="M9 57v4H3V39h6v3z" fill="#2488ff"/><path d="M42 33a10 10 0 0 1-10 10 9.049 9.049 0 0 1-1.48-.12 10 10 0 0 0 0-19.76A9.049 9.049 0 0 1 32 23a10 10 0 0 1 10 10z" fill="#ddb200"/><path d="M44 3a6 6 0 0 1-6 6h-4a6 6 0 0 0 6-6zM44 13a6 6 0 0 1-6 6h-4a6 6 0 0 0 6-6z" fill="#5eac24"/><path d="M60.98 46.54a4.007 4.007 0 0 0-5.46-1.47L46 50.56l-3.72 2.15a5.852 5.852 0 0 0-.45-.54A4.025 4.025 0 0 0 39 51H27l-3.24-3.24A5.993 5.993 0 0 0 19.51 46H9v-4h10.51a5.993 5.993 0 0 1 4.25 1.76L27 47h12a4.025 4.025 0 0 1 2.83 1.17 5.852 5.852 0 0 1 .45.54L46 46.56l9.52-5.49a4 4 0 0 1 5.46 5.47z" fill="#ffa733"/><path d="M31 27v1.184A2.993 2.993 0 0 0 32 34a1 1 0 1 1-1 1h-2a3 3 0 0 0 2 2.816V39h2v-1.184A2.993 2.993 0 0 0 32 32a1 1 0 1 1 1-1h2a3 3 0 0 0-2-2.816V27z"/><path d="M38 20a7.008 7.008 0 0 0 7-7 1 1 0 0 0-1-1h-6a6.97 6.97 0 0 0-5 2.11V10h5a7.008 7.008 0 0 0 7-7 1 1 0 0 0-1-1h-6a6.986 6.986 0 0 0-6 3.41A6.986 6.986 0 0 0 26 2h-6a1 1 0 0 0-1 1 7.008 7.008 0 0 0 7 7h5v4.11A6.97 6.97 0 0 0 26 12h-6a1 1 0 0 0-1 1 7.008 7.008 0 0 0 7 7h5v2.05a11 11 0 1 0 2 0V20zm0-6h4.9a5.009 5.009 0 0 1-4.9 4h-4.9a5.009 5.009 0 0 1 4.9-4zm0-10h4.9A5.009 5.009 0 0 1 38 8h-4.9A5.009 5.009 0 0 1 38 4zM26 8a5.009 5.009 0 0 1-4.9-4H26a5.009 5.009 0 0 1 4.9 4zm0 10a5.009 5.009 0 0 1-4.9-4H26a5.009 5.009 0 0 1 4.9 4zm15 15a9 9 0 1 1-9-9 9.014 9.014 0 0 1 9 9zM4 2h2v2H4zM4 6h2v2H4zM2 4h2v2H2zM6 4h2v2H6zM10 14h2v2h-2zM10 18h2v2h-2zM8 16h2v2H8zM12 16h2v2h-2zM4 26h2v2H4zM4 30h2v2H4zM2 28h2v2H2zM6 28h2v2H6zM58 2h2v2h-2zM58 6h2v2h-2zM60 4h2v2h-2zM56 4h2v2h-2zM52 14h2v2h-2zM52 18h2v2h-2zM54 16h2v2h-2zM50 16h2v2h-2zM58 26h2v2h-2zM58 30h2v2h-2zM60 28h2v2h-2zM56 28h2v2h-2z"/><path d="M61.85 42.04a5.02 5.02 0 0 0-6.83-1.84L42.5 47.43A5.009 5.009 0 0 0 39 46H27.41l-2.94-2.95A7 7 0 0 0 19.51 41H10v-2a1 1 0 0 0-1-1H3a1 1 0 0 0-1 1v22a1 1 0 0 0 1 1h6a1 1 0 0 0 1-1v-2.67l12.19 3.48a5.208 5.208 0 0 0 1.37.19h12.37a4.982 4.982 0 0 0 2.5-.67l21.59-12.46a5 5 0 0 0 1.83-6.83zM8 60H4V40h4zm52.42-14.69a2.986 2.986 0 0 1-1.4 1.82L37.43 59.6a3.062 3.062 0 0 1-1.5.4H23.56a2.805 2.805 0 0 1-.82-.12L10 56.25V43h9.51a4.945 4.945 0 0 1 3.54 1.47l3.24 3.24A1.033 1.033 0 0 0 27 48h12a2.956 2.956 0 0 1 2.1.86 4.479 4.479 0 0 1 .36.42A3.045 3.045 0 0 1 42 51a3.009 3.009 0 0 1-3 3H27v2h12a4.97 4.97 0 0 0 4.61-6.9l12.41-7.16a3 3 0 0 1 4.4 3.37z"/></svg>