<svg version="1.1" id="Layer_1" xmlns="http://www.w3.org/2000/svg" x="0" y="0" viewBox="0 0 512 512" style="enable-background:new 0 0 512 512" xml:space="preserve"><style>.st1{fill:#fff}</style><path d="M255.5 511.5c-141.4 0-256-114.6-256-256s114.6-256 256-256 256 114.6 256 256-114.6 256-256 256z" style="fill:#e43c5c"/><path class="st1" d="M210.3 388.9c-.2-3.5-.3-5.8-.4-8.8-6 0-11.7.5-17.2-.2-2.4-.3-4.4-3.1-6.6-4.8 2.1-2 4.1-5.4 6.4-5.7 5.5-.9 11.2-.3 17.5-.3.3-13.9-1.9-26.7-8.2-38.1-5.6-10.3-12.3-20.1-19.5-29.5-11.8-15.5-22.9-31.1-27-50.8-11.7-56.5 26.7-111.4 85-121 55.3-9.1 109.5 32.2 116.2 88.2 3.1 26.2-2.6 49.7-18.4 70.9-8.5 11.4-17.2 22.6-24.9 34.5-9.2 14.2-13.3 32-11.8 45.9 5.5 0 11.2-.6 16.6.3 2.5.4 4.5 3.5 6.8 5.4-2.3 1.8-4.4 4.8-6.9 5.2-5.3.8-10.8.2-16.7.2v8.8h16.2c4 0 7.4 1.1 7.3 5.7-.1 4.7-3.6 5.5-7.5 5.4-5.2-.1-10.4 0-16 0-.3 2.4 0 4.7-.9 6.3-2.4 4.2-4.8 10.8-8.1 11.4-9.1 1.6-12.2 8.3-17.1 14.4-12 14.8-35.4 11.4-43.5-6.2-1.8-3.9-3.7-5.5-8.1-6.1-8.5-1-12.4-7-13.8-19.8-5.4 0-11 .5-16.5-.2-2.6-.4-6.4-2.9-6.9-5-.9-4.4 2.8-5.9 6.8-5.9 5.6-.2 11-.2 17.2-.2zm79.4-20.5c.3-2.1.6-3.9.7-5.8.8-21.6 8.7-40.5 21.7-57.5 6.2-8.1 12.5-16.1 18.5-24.3 12.2-16.7 17.4-35.3 16.1-56.1-2.2-37.3-28.6-70.7-64.7-81.5-36.6-11-76.4 2.4-99.1 33.4-22.9 31.2-23.8 71.8-2.1 103.6 5.6 8.2 11.9 15.9 18 23.8 11.6 15.1 19.8 31.6 22.2 50.7.6 4.6.8 9.3 1.2 13.8h13.5v-97.1c-2.5.3-4.6.7-6.7.8-9.3.5-17.6-5.9-19.9-15-2.1-8.4 2.7-17.9 10.9-21.7 13-6 27 3.6 27.1 19 .1 34.6 0 69.1 0 103.7v10.1h17.7v-55.1c0-20.6-.2-41.2.2-61.8.2-11 9.7-18.8 20.5-18 10.2.7 18.5 10.2 17.8 20.3-.8 10.9-10.5 19-21.5 18-1.8-.2-3.6-.4-5.6-.7v97.5c4.9-.1 9.1-.1 13.5-.1zm-.5 32h-67.4c-1.3 6.5 1.3 9.1 7.5 9.1 17.4-.1 34.9-.1 52.3 0 5.9-.1 8.9-2.4 7.6-9.1zm-67.5-12h67.9c-.2-3-.3-5.4-.4-7.8h-67.5v7.8zm47.6 32.6h-27.7c7.5 12.4 20.2 12.4 27.7 0zm-43.6-158.8h3.3c2.2-3.1 5.7-6 6.3-9.3.8-4.7-2.8-7.9-7.8-8-5.1-.1-8.6 3.3-7.9 7.9.4 3.4 3.9 6.3 6.1 9.4zm59.3-18.6c-1.1 0-2.2.1-3.3.1-2.1 3.2-5.5 6.2-5.9 9.6-.6 4.7 3.1 7.8 8.1 7.7 5.1-.1 8.4-3.6 7.6-8.2-.6-3.4-4.3-6.2-6.5-9.2z"/><path class="st1" d="M333.3 125.4c-12 10.5-11.9 10.3-27.7 2.9-6.8-3.2-13.9-6.3-21.2-7.8-7.4-1.6-10.1-5.1-9.1-12.2.3-2.3 0-4.7 0-7.7h-38.8c-.2.3-.6.7-.7 1.1-1 15.5-1.1 15.2-15.9 20.6-7.7 2.8-15.4 6.3-22.3 10.7-5.8 3.6-9.9 3.6-13.9-1.8-1.7-2.3-3.3-4.6-4.4-6.3-10.4 10.3-19.3 19.3-29 28.9-.1-1.1-.2-.4 0-.2 11.3 7.9 10.7 16.5 3.2 27.1-4.1 5.8-6.3 13.3-7.8 20.4-1.6 7.5-5 10.7-12.6 9.7-2.3-.3-4.7 0-7.6 0v38.8c.5.2 1.3.7 2.2.8 14.8 1.1 14.5 1.2 19.6 15.3 2.8 7.7 6.2 15.4 10.4 22.4 3.5 5.8 3.3 10-1.9 14.1-2.2 1.7-4.4 3.6-6 4.9 9.9 9.8 19 18.9 28.6 28.5 2-2 4.5-5.6 7.9-7.9 2.1-1.4 5.6-.8 8.5-1.1-.2 2.7.6 6.3-.8 8.1-3.6 4.6-7.8 9-12.5 12.5-1.9 1.4-6.9 1.5-8.4 0-11.9-11.2-23.3-22.9-34.8-34.4-3.5-3.5-2.4-6.5.7-9.8 8.4-9 8.2-9 3.1-20.1-2.4-5.1-4.6-10.4-6.1-15.8-1.2-4.5-3.4-5.8-7.9-5.7-14.2.1-14.2-.1-14.2-14.4 0-12.8.2-25.6-.1-38.3-.1-6.4 2.4-9.3 8.8-8.7.9.1 1.9-.1 2.8.1 7.1 1.4 10.5-1.4 12.4-8.5 1.7-6.5 4.8-12.8 8.1-18.8 2.2-4 1.9-6.4-1.3-9.7-10.1-10.5-10-10.7.2-20.9l26.1-26.1c6.3-6.3 7.6-6.3 13.8-.1 2.3 2.3 4.5 4.9 6.2 6.8 11.2-4.4 21.5-8.2 31.6-12.6 1.6-.7 2.7-4.1 2.7-6.2 0-15.7-.1-14.6 14.9-14.6 12.8 0 25.6.2 38.3-.1 6-.1 8.6 2 8.5 8.2 0 11.8.3 11.6 11.2 16 7 2.8 13.8 6.1 23.4 10.3 1.9-2.5 4.4-6.3 7.2-9.7 3-3.6 6.4-3.5 9.7-.1 11.4 11.4 22.8 22.7 34.1 34.1 3.1 3.1 2.8 6.2-.1 9.3-3.1 3.2-6.2 6.5-8.7 9.2 4.2 10.6 8.1 20.8 12.4 30.7.6 1.5 3.6 2.8 5.4 2.7 17.6-.7 15.5 1.7 15.6 16.3 0 12.3-.2 24.6.1 36.9.2 6.7-2.4 10.2-9.1 9.1-8.9-1.5-13.1 2.1-15.2 10.7-1.4 6.1-4.7 11.8-7.8 17.4-2 3.6-1.7 6 1.6 8.3 1.7 1.2 3.2 2.8 4.8 4.2 4.3 4 4.4 7.7-.1 12-10.9 10.5-21.5 21.3-32.1 32.1-4 4.1-7.5 4.2-11.4-.1-3.5-3.8-7.8-7-10.8-11.2-1.4-2-.6-5.7-.8-8.6 2.7.3 6.1-.3 8 1 3.2 2.3 5.5 5.8 8 8.6 9.7-10.2 18.7-19.7 28-29.5-13.4-6.7-8.5-16.7-1.7-27.8 3.7-6.1 5.9-13.5 7.5-20.5 1.5-6.3 4.3-9 10.7-8.4 3 .3 6 .1 9.2.1v-38.8c-.8-.4-1.3-.7-1.7-.7-12.4 2.1-18.1-3.3-20.5-15.6-1.5-7.9-6-15.4-10.2-22.4-3.5-5.8-3.3-10 2-14 2.2-1.7 4.4-3.6 6-5-9.7-10.1-18.8-19.2-28.3-28.7z"/></svg>