<?xml version="1.0" encoding="utf-8"?>
<!-- Generator: Adobe Illustrator 26.0.1, SVG Export Plug-In . SVG Version: 6.00 Build 0)  -->
<svg version="1.1" id="Layer_1" xmlns="http://www.w3.org/2000/svg" xmlns:xlink="http://www.w3.org/1999/xlink" x="0px" y="0px"
	 viewBox="0 0 512 512" style="enable-background:new 0 0 512 512;" xml:space="preserve">
<style type="text/css">
	.st0{fill:#E43C5C;}
	.st1{fill:#FFFFFF;}
</style>
<path class="st0" d="M255.5,511.5L255.5,511.5c-141.4,0-256-114.6-256-256v0c0-141.4,114.6-256,256-256h0c141.4,0,256,114.6,256,256
	v0C511.5,396.9,396.9,511.5,255.5,511.5z"/>
<path class="st1" d="M210.3,388.9c-0.2-3.5-0.3-5.8-0.4-8.8c-6,0-11.7,0.5-17.2-0.2c-2.4-0.3-4.4-3.1-6.6-4.8c2.1-2,4.1-5.4,6.4-5.7
	c5.5-0.9,11.2-0.3,17.5-0.3c0.3-13.9-1.9-26.7-8.2-38.1c-5.6-10.3-12.3-20.1-19.5-29.5c-11.8-15.5-22.9-31.1-27-50.8
	c-11.7-56.5,26.7-111.4,85-121c55.3-9.1,109.5,32.2,116.2,88.2c3.1,26.2-2.6,49.7-18.4,70.9c-8.5,11.4-17.2,22.6-24.9,34.5
	c-9.2,14.2-13.3,32-11.8,45.9c5.5,0,11.2-0.6,16.6,0.3c2.5,0.4,4.5,3.5,6.8,5.4c-2.3,1.8-4.4,4.8-6.9,5.2
	c-5.3,0.8-10.8,0.2-16.7,0.2c0,3,0,5.4,0,8.8c5.4,0,10.8,0,16.2,0c4,0,7.4,1.1,7.3,5.7c-0.1,4.7-3.6,5.5-7.5,5.4
	c-5.2-0.1-10.4,0-16,0c-0.3,2.4,0,4.7-0.9,6.3c-2.4,4.2-4.8,10.8-8.1,11.4c-9.1,1.6-12.2,8.3-17.1,14.4c-12,14.8-35.4,11.4-43.5-6.2
	c-1.8-3.9-3.7-5.5-8.1-6.1c-8.5-1-12.4-7-13.8-19.8c-5.4,0-11,0.5-16.5-0.2c-2.6-0.4-6.4-2.9-6.9-5c-0.9-4.4,2.8-5.9,6.8-5.9
	C198.7,388.9,204.1,388.9,210.3,388.9z M289.7,368.4c0.3-2.1,0.6-3.9,0.7-5.8c0.8-21.6,8.7-40.5,21.7-57.5
	c6.2-8.1,12.5-16.1,18.5-24.3c12.2-16.7,17.4-35.3,16.1-56.1c-2.2-37.3-28.6-70.7-64.7-81.5c-36.6-11-76.4,2.4-99.1,33.4
	c-22.9,31.2-23.8,71.8-2.1,103.6c5.6,8.2,11.9,15.9,18,23.8c11.6,15.1,19.8,31.6,22.2,50.7c0.6,4.6,0.8,9.3,1.2,13.8
	c5,0,9.3,0,13.5,0c0-32.8,0-64.9,0-97.1c-2.5,0.3-4.6,0.7-6.7,0.8c-9.3,0.5-17.6-5.9-19.9-15c-2.1-8.4,2.7-17.9,10.9-21.7
	c13-6,27,3.6,27.1,19c0.1,34.6,0,69.1,0,103.7c0,3.4,0,6.8,0,10.1c6.6,0,11.9,0,17.7,0c0-18.7,0-36.9,0-55.1
	c0-20.6-0.2-41.2,0.2-61.8c0.2-11,9.7-18.8,20.5-18c10.2,0.7,18.5,10.2,17.8,20.3c-0.8,10.9-10.5,19-21.5,18
	c-1.8-0.2-3.6-0.4-5.6-0.7c0,32.7,0,65,0,97.5C281.1,368.4,285.3,368.4,289.7,368.4z M289.2,400.4c-22.9,0-45.2,0-67.4,0
	c-1.3,6.5,1.3,9.1,7.5,9.1c17.4-0.1,34.9-0.1,52.3,0C287.5,409.4,290.5,407.1,289.2,400.4z M221.7,388.4c22.9,0,45.2,0,67.9,0
	c-0.2-3-0.3-5.4-0.4-7.8c-22.9,0-45.1,0-67.5,0C221.7,383.3,221.7,385.5,221.7,388.4z M269.3,421c-9.6,0-18.4,0-27.7,0
	C249.1,433.4,261.8,433.4,269.3,421z M225.7,262.2c1.1,0,2.2,0,3.3,0c2.2-3.1,5.7-6,6.3-9.3c0.8-4.7-2.8-7.9-7.8-8
	c-5.1-0.1-8.6,3.3-7.9,7.9C220,256.2,223.5,259.1,225.7,262.2z M285,243.6c-1.1,0-2.2,0.1-3.3,0.1c-2.1,3.2-5.5,6.2-5.9,9.6
	c-0.6,4.7,3.1,7.8,8.1,7.7c5.1-0.1,8.4-3.6,7.6-8.2C290.9,249.4,287.2,246.6,285,243.6z"/>
<path class="st1" d="M333.3,125.4c-12,10.5-11.9,10.3-27.7,2.9c-6.8-3.2-13.9-6.3-21.2-7.8c-7.4-1.6-10.1-5.1-9.1-12.2
	c0.3-2.3,0-4.7,0-7.7c-13.1,0-25.9,0-38.8,0c-0.2,0.3-0.6,0.7-0.7,1.1c-1,15.5-1.1,15.2-15.9,20.6c-7.7,2.8-15.4,6.3-22.3,10.7
	c-5.8,3.6-9.9,3.6-13.9-1.8c-1.7-2.3-3.3-4.6-4.4-6.3c-10.4,10.3-19.3,19.3-29,28.9c-0.1-1.1-0.2-0.4,0-0.2
	c11.3,7.9,10.7,16.5,3.2,27.1c-4.1,5.8-6.3,13.3-7.8,20.4c-1.6,7.5-5,10.7-12.6,9.7c-2.3-0.3-4.7,0-7.6,0c0,13.1,0,25.7,0,38.8
	c0.5,0.2,1.3,0.7,2.2,0.8c14.8,1.1,14.5,1.2,19.6,15.3c2.8,7.7,6.2,15.4,10.4,22.4c3.5,5.8,3.3,10-1.9,14.1c-2.2,1.7-4.4,3.6-6,4.9
	c9.9,9.8,19,18.9,28.6,28.5c2-2,4.5-5.6,7.9-7.9c2.1-1.4,5.6-0.8,8.5-1.1c-0.2,2.7,0.6,6.3-0.8,8.1c-3.6,4.6-7.8,9-12.5,12.5
	c-1.9,1.4-6.9,1.5-8.4,0c-11.9-11.2-23.3-22.9-34.8-34.4c-3.5-3.5-2.4-6.5,0.7-9.8c8.4-9,8.2-9,3.1-20.1c-2.4-5.1-4.6-10.4-6.1-15.8
	c-1.2-4.5-3.4-5.8-7.9-5.7c-14.2,0.1-14.2-0.1-14.2-14.4c0-12.8,0.2-25.6-0.1-38.3c-0.1-6.4,2.4-9.3,8.8-8.7
	c0.9,0.1,1.9-0.1,2.8,0.1c7.1,1.4,10.5-1.4,12.4-8.5c1.7-6.5,4.8-12.8,8.1-18.8c2.2-4,1.9-6.4-1.3-9.7c-10.1-10.5-10-10.7,0.2-20.9
	c8.7-8.7,17.4-17.4,26.1-26.1c6.3-6.3,7.6-6.3,13.8-0.1c2.3,2.3,4.5,4.9,6.2,6.8c11.2-4.4,21.5-8.2,31.6-12.6
	c1.6-0.7,2.7-4.1,2.7-6.2c0-15.7-0.1-14.6,14.9-14.6c12.8,0,25.6,0.2,38.3-0.1c6-0.1,8.6,2,8.5,8.2c0,11.8,0.3,11.6,11.2,16
	c7,2.8,13.8,6.1,23.4,10.3c1.9-2.5,4.4-6.3,7.2-9.7c3-3.6,6.4-3.5,9.7-0.1c11.4,11.4,22.8,22.7,34.1,34.1c3.1,3.1,2.8,6.2-0.1,9.3
	c-3.1,3.2-6.2,6.5-8.7,9.2c4.2,10.6,8.1,20.8,12.4,30.7c0.6,1.5,3.6,2.8,5.4,2.7c17.6-0.7,15.5,1.7,15.6,16.3
	c0,12.3-0.2,24.6,0.1,36.9c0.2,6.7-2.4,10.2-9.1,9.1c-8.9-1.5-13.1,2.1-15.2,10.7c-1.4,6.1-4.7,11.8-7.8,17.4c-2,3.6-1.7,6,1.6,8.3
	c1.7,1.2,3.2,2.8,4.8,4.2c4.3,4,4.4,7.7-0.1,12c-10.9,10.5-21.5,21.3-32.1,32.1c-4,4.1-7.5,4.2-11.4-0.1c-3.5-3.8-7.8-7-10.8-11.2
	c-1.4-2-0.6-5.7-0.8-8.6c2.7,0.3,6.1-0.3,8,1c3.2,2.3,5.5,5.8,8,8.6c9.7-10.2,18.7-19.7,28-29.5c-13.4-6.7-8.5-16.7-1.7-27.8
	c3.7-6.1,5.9-13.5,7.5-20.5c1.5-6.3,4.3-9,10.7-8.4c3,0.3,6,0.1,9.2,0.1c0-13.6,0-26.3,0-38.8c-0.8-0.4-1.3-0.7-1.7-0.7
	c-12.4,2.1-18.1-3.3-20.5-15.6c-1.5-7.9-6-15.4-10.2-22.4c-3.5-5.8-3.3-10,2-14c2.2-1.7,4.4-3.6,6-5
	C351.9,144,342.8,134.9,333.3,125.4z"/>
</svg>
