<?xml version="1.0" encoding="utf-8"?>
<!-- Generator: Adobe Illustrator 26.0.1, SVG Export Plug-In . SVG Version: 6.00 Build 0)  -->
<svg version="1.1" id="flat" xmlns="http://www.w3.org/2000/svg" xmlns:xlink="http://www.w3.org/1999/xlink" x="0px" y="0px"
	 viewBox="0 0 512 512" style="enable-background:new 0 0 512 512;" xml:space="preserve">
<style type="text/css">
	.st0{fill:#E43C5C;}
	.st1{fill:#FFFFFF;}
</style>
<path class="st0" d="M256,512L256,512C114.6,512,0,397.4,0,256v0C0,114.6,114.6,0,256,0h0c141.4,0,256,114.6,256,256v0
	C512,397.4,397.4,512,256,512z"/>
<g>
	<path class="st1" d="M156.6,270.3c-4.7-2-9.3-3.7-13.6-5.8c-38.1-18.5-60.1-59.7-54-101c6.3-42.5,38.5-75.9,80.7-82.3
		c37.1-5.6,67.8,6.9,91.7,35.9c1.7,2.1,3.4,2.8,6,2.8c11.8-0.1,23.5,0,35.3-0.1c7.1,0,12.9,2.4,17.9,7.4
		c15.1,15.2,30.2,30.4,45.4,45.5c5.2,5.2,7.6,11.2,7.6,18.6c-0.1,42.7,0,85.3-0.1,128c0,2.8,0.7,4.8,2.8,6.9
		c15.1,15,30.2,30,45.2,45.2c15.8,16.1,10.3,42.2-10.5,49.7c-11.3,4.1-21.6,1.8-30.5-6.1c-2.7-2.3-4.9-5.2-7.7-8.2
		c-0.7,1.6-1.1,2.5-1.5,3.2c-4.3,8.3-11.2,13-20.6,13c-57.1,0.1-114.2,0.1-171.3,0c-13.1,0-22.8-10.2-22.8-23.7
		c0-41.6,0-83.2,0-124.8C156.6,273,156.6,271.6,156.6,270.3z M296,331.4c0.1-0.3,0.2-0.5,0.3-0.8c-4.3-4.3-9.1-8.1-12.9-12.9
		c-5.9-7.5-13-10.7-22.4-9.3c-4.3,0.6-8.7,0.1-12.9,0.1c0-4.1,0-7.6,0-11.6c4.7,0,9.2,0,14,0c-3.7-5-3.7-5.9,0.4-11.9
		c-2.4-2.3-5-4.5-7.4-7c-2.3-2.3-5.3-4.3-6.3-7.1c-2.1-5.7-7.1-8.3-10.5-12.7c-21.7,13.7-45,18.5-70.3,14.4c0,1.6,0,2.7,0,3.9
		c0,40.4,0,80.8,0,121.1c0,9.4,4.3,13.7,13.8,13.7c45.5,0,91.1,0,136.6,0c10.6,0,21.2,0,31.7,0c4.8,0,8.5-2.1,10.7-6.3
		c2.3-4.3,1.7-8.1-1.8-11.5c-3.4-3.5-7.2-6.7-10.3-10.4c-3.9-4.8-8.5-6.7-14.7-6.2c-7.6,0.6-15.4,0.1-23.1,0.1c0-4,0-7.6,0-11.5
		c6.6,0,12.9,0,20.1,0c-7.8-7.8-14.9-15-22.2-22.1c-0.7-0.7-2.2-0.7-3.3-0.7c-5.8-0.1-11.6,0-17.5,0c0-4,0-7.6,0-11.5
		C290.9,331.4,293.4,331.4,296,331.4z M293.4,217.1c-6,0-11.7-0.1-17.4,0.1c-1.1,0-2.7,0.8-3.3,1.8c-2.2,3.6-4.1,7.5-6.5,11.8
		c2.4,2.3,4.9,4.8,7.7,7c1.3,1.1,3.2,2,4.9,2.1c10.1,0.2,20.2,0.1,30.3,0.1c2.3,0,4.7,0,7,0c0,4.1,0,7.7,0,11.5c-4.8,0-9.4,0-12.8,0
		c19.4,19.4,39.1,39.3,58.8,58.9c0-0.2,0-0.7,0-1.3c0-39.4,0-78.9,0-118.3c0-4-1.4-7.1-4.2-9.9c-13.1-13-26.1-26.1-39.1-39.2
		c-0.6-0.6-1.3-1.1-2.4-2c0,8.2,0.1,15.8,0,23.4c-0.2,13.7,0,14.2,13.7,13.9c3-0.1,6.1,0,9,0c0,4.1,0,7.6,0,11.4
		c-5.5,0-10.9,0-16.2,0c-10.6-0.1-17.8-7.4-17.8-18.1c0-11.7,0-23.3,0-35c0-1.3,0-2.5,0-3.9c-11.5,0-22.6,0-34.1,0
		c12.1,23.9,14.4,48.5,7,74.2c5.4,0,10.4,0,15.5,0C293.4,209.5,293.4,213.1,293.4,217.1z M270.7,177.1c0-47.3-38.4-85.9-85.4-85.8
		c-47.6,0-85.9,38.5-85.9,86.1c0,47.1,38.6,85.5,85.8,85.5C232.4,262.8,270.7,224.3,270.7,177.1z M404.5,371.8
		c-35.2-35.3-70.4-70.6-105.3-105.5c-8.3,8.3-16.8,16.8-24.8,24.8c35,35.1,70.3,70.4,105.4,105.6C387.8,388.5,396.3,380,404.5,371.8
		z M414.1,380.5c-8.8,8.8-17.4,17.3-26,25.9c7.1,7,18.5,6.9,25.8-0.5C421,398.6,420.9,387.1,414.1,380.5z M270.3,276.9
		c5-5,9.7-9.7,13.9-13.9c-2.6-2.7-5.4-5.6-7.7-8c-4.5,4.5-9.2,9.3-13.9,14C265,271.5,267.8,274.4,270.3,276.9z M259.9,240.3
		c-3.9,4-7.7,7.8-11.2,11.4c1.9,2.1,4.2,4.6,5.9,6.4c4-4,7.8-7.8,11.5-11.6C264.1,244.6,261.9,242.4,259.9,240.3z"/>
	<path class="st1" d="M219.5,342.7c0-3.8,0-7.3,0-11c18.9,0,37.6,0,56.6,0c0,3.5,0,7.2,0,11C257.4,342.7,238.6,342.7,219.5,342.7z"
		/>
	<path class="st1" d="M247.7,366.1c0,3.8,0,7.3,0,11c-18.9,0-37.6,0-56.6,0c0-3.5,0-7.1,0-11C209.8,366.1,228.6,366.1,247.7,366.1z"
		/>
	<path class="st1" d="M191,308.3c0-3.7,0-7.2,0-11c15.2,0,30.2,0,45.3,0c0,3.7,0,7.2,0,11C221.3,308.3,206.3,308.3,191,308.3z"/>
	<path class="st1" d="M259.6,366c13.3,0,26.3,0,39.5,0c0,3.7,0,7.2,0,11c-13.1,0-26.2,0-39.5,0C259.6,373.4,259.6,369.8,259.6,366z"
		/>
	<path class="st1" d="M207.7,342.8c-5.6,0-11,0-16.7,0c0-3.6,0-7.2,0-11c5.5,0,11,0,16.7,0C207.7,335.3,207.7,338.8,207.7,342.8z"/>
	<path class="st1" d="M305.1,216.9c0-3.8,0-7.2,0-10.9c11.2,0,22.4,0,33.9,0c0,3.5,0,7.1,0,10.9
		C327.8,216.9,316.6,216.9,305.1,216.9z"/>
	<path class="st1" d="M339.2,240.2c0,3.8,0,7.2,0,10.9c-3.6,0-7.2,0-11.1,0c0-3.5,0-7.1,0-10.9C331.7,240.2,335.3,240.2,339.2,240.2
		z"/>
	<path class="st1" d="M110.9,177c0.2-41,33.4-74.4,73.9-74.3c41.9,0.1,74.8,33.5,74.5,75.5c-0.3,40.4-33.9,73.4-74.6,73.2
		C144.1,251.3,110.7,217.7,110.9,177z M247.6,182.8c0.8-9.1-0.4-17.5-2.9-25.7c-0.8-2.4-1.9-3-4.3-3c-25.6,0.1-51.1,0-76.7,0.1
		c-8.2,0-12.8,4.6-12.8,12.8c0,19.9,0.1,39.8-0.1,59.7c0,2.6,0.9,3.8,3,4.9c20.9,11.3,41.8,11.3,62.6-0.1c4-2.2,7.5-5.1,11.2-7.7
		c-0.1-0.3-0.3-0.6-0.4-1c-19.6,0-39.3,0-59,0c0-4,0-7.6,0-11.4c1.5,0,2.8,0,4.1,0c20.7,0,41.4,0,62.1,0c1.2,0,3.2,0,3.5-0.7
		c2.8-5.1,5.3-10.4,8.3-16.6c-11.8,0-22.2,0-32.4,0c0-3.9,0-7.5,0-11.2C225.1,182.8,236.1,182.8,247.6,182.8z M139.4,219.1
		c0-1.2,0-2.3,0-3.5c0-16.2,0-32.4,0-48.6c0-14.7,9.6-24.3,24.4-24.3c23.2,0,46.4,0,69.5,0c1.2,0,2.5,0,4.5,0
		c-14.5-20-33.3-30.1-57.1-28.3c-26.4,2-45.3,16.1-54.5,41.1C117.6,178.9,122.7,200.3,139.4,219.1z"/>
	<path class="st1" d="M202.1,183c0,3.7,0,7.2,0,10.9c-11.3,0-22.5,0-33.9,0c0-3.6,0-7.1,0-10.9C179.3,183,190.5,183,202.1,183z"/>
</g>
</svg>
