<svg version="1.1" id="flat" xmlns="http://www.w3.org/2000/svg" x="0" y="0" viewBox="0 0 512 512" style="enable-background:new 0 0 512 512" xml:space="preserve"><style>.st1{fill:#fff}</style><path d="M256 512C114.6 512 0 397.4 0 256S114.6 0 256 0s256 114.6 256 256-114.6 256-256 256z" style="fill:#e43c5c"/><path class="st1" d="M156.6 270.3c-4.7-2-9.3-3.7-13.6-5.8-38.1-18.5-60.1-59.7-54-101 6.3-42.5 38.5-75.9 80.7-82.3 37.1-5.6 67.8 6.9 91.7 35.9 1.7 2.1 3.4 2.8 6 2.8 11.8-.1 23.5 0 35.3-.1 7.1 0 12.9 2.4 17.9 7.4 15.1 15.2 30.2 30.4 45.4 45.5 5.2 5.2 7.6 11.2 7.6 18.6-.1 42.7 0 85.3-.1 128 0 2.8.7 4.8 2.8 6.9 15.1 15 30.2 30 45.2 45.2 15.8 16.1 10.3 42.2-10.5 49.7-11.3 4.1-21.6 1.8-30.5-6.1-2.7-2.3-4.9-5.2-7.7-8.2-.7 1.6-1.1 2.5-1.5 3.2-4.3 8.3-11.2 13-20.6 13-57.1.1-114.2.1-171.3 0-13.1 0-22.8-10.2-22.8-23.7v-129zM296 331.4c.1-.3.2-.5.3-.8-4.3-4.3-9.1-8.1-12.9-12.9-5.9-7.5-13-10.7-22.4-9.3-4.3.6-8.7.1-12.9.1v-11.6h14c-3.7-5-3.7-5.9.4-11.9-2.4-2.3-5-4.5-7.4-7-2.3-2.3-5.3-4.3-6.3-7.1-2.1-5.7-7.1-8.3-10.5-12.7-21.7 13.7-45 18.5-70.3 14.4v125c0 9.4 4.3 13.7 13.8 13.7H350.1c4.8 0 8.5-2.1 10.7-6.3 2.3-4.3 1.7-8.1-1.8-11.5-3.4-3.5-7.2-6.7-10.3-10.4-3.9-4.8-8.5-6.7-14.7-6.2-7.6.6-15.4.1-23.1.1v-11.5H331c-7.8-7.8-14.9-15-22.2-22.1-.7-.7-2.2-.7-3.3-.7-5.8-.1-11.6 0-17.5 0v-11.5c2.9.2 5.4.2 8 .2zm-2.6-114.3c-6 0-11.7-.1-17.4.1-1.1 0-2.7.8-3.3 1.8-2.2 3.6-4.1 7.5-6.5 11.8 2.4 2.3 4.9 4.8 7.7 7 1.3 1.1 3.2 2 4.9 2.1 10.1.2 20.2.1 30.3.1h7v11.5h-12.8c19.4 19.4 39.1 39.3 58.8 58.9V190.8c0-4-1.4-7.1-4.2-9.9-13.1-13-26.1-26.1-39.1-39.2-.6-.6-1.3-1.1-2.4-2 0 8.2.1 15.8 0 23.4-.2 13.7 0 14.2 13.7 13.9 3-.1 6.1 0 9 0v11.4h-16.2c-10.6-.1-17.8-7.4-17.8-18.1v-38.9H271c12.1 23.9 14.4 48.5 7 74.2h15.5c-.1 3.9-.1 7.5-.1 11.5zm-22.7-40c0-47.3-38.4-85.9-85.4-85.8-47.6 0-85.9 38.5-85.9 86.1 0 47.1 38.6 85.5 85.8 85.5 47.2-.1 85.5-38.6 85.5-85.8zm133.8 194.7c-35.2-35.3-70.4-70.6-105.3-105.5l-24.8 24.8c35 35.1 70.3 70.4 105.4 105.6 8-8.2 16.5-16.7 24.7-24.9zm9.6 8.7c-8.8 8.8-17.4 17.3-26 25.9 7.1 7 18.5 6.9 25.8-.5 7.1-7.3 7-18.8.2-25.4zM270.3 276.9l13.9-13.9c-2.6-2.7-5.4-5.6-7.7-8-4.5 4.5-9.2 9.3-13.9 14 2.4 2.5 5.2 5.4 7.7 7.9zm-10.4-36.6c-3.9 4-7.7 7.8-11.2 11.4 1.9 2.1 4.2 4.6 5.9 6.4 4-4 7.8-7.8 11.5-11.6-2-1.9-4.2-4.1-6.2-6.2z"/><path class="st1" d="M219.5 342.7v-11h56.6v11h-56.6zM247.7 366.1v11h-56.6v-11h56.6zM191 308.3v-11h45.3v11H191zM259.6 366h39.5v11h-39.5v-11zM207.7 342.8H191v-11h16.7v11zM305.1 216.9V206H339v10.9h-33.9zM339.2 240.2v10.9h-11.1v-10.9h11.1zM110.9 177c.2-41 33.4-74.4 73.9-74.3 41.9.1 74.8 33.5 74.5 75.5-.3 40.4-33.9 73.4-74.6 73.2-40.6-.1-74-33.7-73.8-74.4zm136.7 5.8c.8-9.1-.4-17.5-2.9-25.7-.8-2.4-1.9-3-4.3-3-25.6.1-51.1 0-76.7.1-8.2 0-12.8 4.6-12.8 12.8 0 19.9.1 39.8-.1 59.7 0 2.6.9 3.8 3 4.9 20.9 11.3 41.8 11.3 62.6-.1 4-2.2 7.5-5.1 11.2-7.7-.1-.3-.3-.6-.4-1h-59v-11.4h66.2c1.2 0 3.2 0 3.5-.7 2.8-5.1 5.3-10.4 8.3-16.6h-32.4v-11.2c11.3-.1 22.3-.1 33.8-.1zm-108.2 36.3V167c0-14.7 9.6-24.3 24.4-24.3h74c-14.5-20-33.3-30.1-57.1-28.3-26.4 2-45.3 16.1-54.5 41.1-8.6 23.4-3.5 44.8 13.2 63.6z"/><path class="st1" d="M202.1 183v10.9h-33.9V183h33.9z"/></svg>