<svg height="512" width="512" xmlns="http://www.w3.org/2000/svg"><linearGradient id="a" gradientUnits="userSpaceOnUse" x1="8.753" x2="524.202" y1="401.161" y2="103.566"><stop offset="0" stop-color="#dcfdee" stop-opacity="0"/><stop offset=".629" stop-color="#d2f3e4"/></linearGradient><path d="M418.32 2.5c-55.666-9.521-178.298 12.183-200.004 105.017-14.431 61.722-14.007 112.075-50.427 113.02-21.67.562-32.97-44.31-62.889-48.001-39.047-4.817-66.145 27.695-83.057 57.138-37.205 64.772-25.571 174.918 23.354 228.632 118.488 130.086 259.197-5.952 319.358-112.309 38.585-68.213 125.637-123.352 143.767-200.248C523.599 81.373 489.919 14.746 418.32 2.5z" fill="url(#a)"/><path d="M455.47 452.133H56.53c-8.284 0-15-6.716-15-15V122.867c0-8.284 6.716-15 15-15h398.94c8.284 0 15 6.716 15 15v314.266c0 8.285-6.715 15-15 15z" fill="#2626bc" opacity=".1"/><path d="M470.47 98.87v314.26c0 8.29-6.72 15-15 15H56.53c-8.28 0-15-6.71-15-15V98.87c0-8.29 6.72-15 15-15h398.94c8.28 0 15 6.71 15 15z" fill="#fff"/><path d="M315.474 258.633h-71.851a5.607 5.607 0 0 1-5.607-5.607v-71.851a5.607 5.607 0 0 1 5.607-5.607h71.851a5.607 5.607 0 0 1 5.607 5.607v71.851a5.607 5.607 0 0 1-5.607 5.607z" fill="#01eca5"/><path d="M425.67 258.633h-71.851a5.607 5.607 0 0 1-5.607-5.607v-71.851a5.607 5.607 0 0 1 5.607-5.607h71.851a5.607 5.607 0 0 1 5.607 5.607v71.851a5.607 5.607 0 0 1-5.607 5.607z" fill="#9fb0fe"/><path d="M315.474 364.404h-71.851a5.607 5.607 0 0 1-5.607-5.607v-71.851a5.607 5.607 0 0 1 5.607-5.607h71.851a5.607 5.607 0 0 1 5.607 5.607v71.851a5.607 5.607 0 0 1-5.607 5.607z" fill="#ffa8cf"/><path d="M425.67 364.404h-71.851a5.607 5.607 0 0 1-5.607-5.607v-71.851a5.607 5.607 0 0 1 5.607-5.607h71.851a5.607 5.607 0 0 1 5.607 5.607v71.851a5.607 5.607 0 0 1-5.607 5.607z" fill="#01eca5"/><path d="M321.08 392.72v35.41h-83.06v-35.41c0-3.1 2.51-5.61 5.6-5.61h71.85c3.1 0 5.61 2.51 5.61 5.61z" fill="#b7c5ff"/><path d="M431.28 392.72v35.41h-83.07v-35.41c0-3.1 2.51-5.61 5.61-5.61h71.85c3.1 0 5.61 2.51 5.61 5.61z" fill="#02ffb3"/><path d="M203.623 83.867H56.53c-8.284 0-15 6.716-15 15v314.266c0 8.284 6.716 15 15 15h147.094V83.867z" fill="#ff7eb8"/><path d="M41.53 281.442h162.094v79.963H41.53z" fill="#ffa8cf"/><path d="M470.47 153.18V98.867c0-8.284-6.716-15-15-15H56.53c-8.284 0-15 6.716-15 15v54.313z" fill="#8399fe"/><path d="M455.47 433.133H56.53c-11.028 0-20-8.972-20-20V98.867c0-11.028 8.972-20 20-20h398.94c11.028 0 20 8.972 20 20v314.266c0 11.028-8.972 20-20 20zM56.53 88.867c-5.514 0-10 4.486-10 10v314.266c0 5.514 4.486 10 10 10h398.94c5.514 0 10-4.486 10-10V98.867c0-5.514-4.486-10-10-10z" fill="#2626bc"/><circle cx="85.623" cy="120.768" fill="#ff5ba8" r="10.901"/><circle cx="120.424" cy="120.768" fill="#fff" r="10.901"/><circle cx="155.224" cy="120.768" fill="#02ffb3" r="10.901"/><path d="M432.277 133.015H296.119V108.52h136.159a5 5 0 0 1 5 5v14.496a5 5 0 0 1-5.001 4.999z" fill="#d2deff"/><path d="M296.789 108.831c-5.286-5.286-13.887-5.286-19.173 0s-5.286 13.887 0 19.173c4.037 4.037 10.003 4.98 14.953 2.852l4.348 4.348a5.001 5.001 0 0 0 7.071-7.071l-4.348-4.348c2.129-4.951 1.186-10.917-2.851-14.954zm-12.102 7.071c1.387-1.387 3.644-1.387 5.031 0s1.387 3.644 0 5.031-3.644 1.387-5.031 0-1.387-3.644 0-5.031zM129.578 334.786H73.397a5 5 0 0 0 0 10h56.181a5 5 0 0 0 0-10z" fill="#fff"/><circle cx="74.722" cy="177.569" fill="#fff" r="5.002"/><circle cx="74.722" cy="196.733" fill="#fff" r="5.002"/><path d="M197.071 58.223a5 5 0 0 1-5-5c0-3.309-2.691-6-6-6a5 5 0 1 1 0-10c3.309 0 6-2.691 6-6a5 5 0 1 1 10 0c0 3.309 2.691 6 6 6a5 5 0 1 1 0 10c-3.309 0-6 2.691-6 6a5 5 0 0 1-5 5z" fill="#01eca5"/><path d="M273.548 491.464a5 5 0 0 1-5-5c0-3.309-2.691-6-6-6a5 5 0 1 1 0-10c3.309 0 6-2.691 6-6a5 5 0 1 1 10 0c0 3.309 2.691 6 6 6a5 5 0 1 1 0 10c-3.309 0-6 2.691-6 6a5 5 0 0 1-5 5z" fill="#6583fe"/><path d="M144.66 61.98a5 5 0 0 1-5-5c0-3.309-2.691-6-6-6a5 5 0 1 1 0-10c3.309 0 6-2.691 6-6a5 5 0 1 1 10 0c0 3.309 2.691 6 6 6a5 5 0 1 1 0 10c-3.309 0-6 2.691-6 6a5 5 0 0 1-5 5zM321.08 489.756c-7.88 0-14.292-6.411-14.292-14.292 0-7.88 6.411-14.291 14.292-14.291s14.292 6.411 14.292 14.291c0 7.881-6.412 14.292-14.292 14.292zm0-18.583c-2.366 0-4.292 1.925-4.292 4.291s1.925 4.292 4.292 4.292 4.292-1.926 4.292-4.292-1.926-4.291-4.292-4.291z" fill="#ff5ba8"/><path d="M380.84 60.271c-7.88 0-14.292-6.411-14.292-14.291 0-7.881 6.411-14.292 14.292-14.292s14.292 6.411 14.292 14.292c0 7.88-6.411 14.291-14.292 14.291zm0-18.583c-2.366 0-4.292 1.926-4.292 4.292s1.925 4.291 4.292 4.291 4.292-1.925 4.292-4.291-1.925-4.292-4.292-4.292z" fill="#6583fe"/></svg>