<svg height="512" width="512" xmlns="http://www.w3.org/2000/svg"><linearGradient id="a" gradientUnits="userSpaceOnUse" x1="8.753" x2="524.202" y1="401.161" y2="103.566"><stop offset="0" stop-color="#dcfdee" stop-opacity="0"/><stop offset=".629" stop-color="#d2f3e4"/></linearGradient><path d="M418.32 2.5c-55.666-9.521-178.298 12.183-200.004 105.017-14.431 61.722-14.007 112.075-50.427 113.02-21.67.562-32.97-44.31-62.889-48.001-39.047-4.817-66.145 27.695-83.057 57.138-37.205 64.772-25.571 174.918 23.354 228.632 118.488 130.086 259.197-5.952 319.358-112.309 38.585-68.213 125.637-123.352 143.767-200.248C523.599 81.373 489.919 14.746 418.32 2.5z" fill="url(#a)"/><path d="M455.47 452.133H56.53c-8.284 0-15-6.716-15-15V122.867c0-8.284 6.716-15 15-15h398.94c8.284 0 15 6.716 15 15v314.266c0 8.285-6.715 15-15 15z" fill="#2626bc" opacity=".1"/><path d="M455.47 428.133H56.53c-8.284 0-15-6.716-15-15V98.867c0-8.284 6.716-15 15-15h398.94c8.284 0 15 6.716 15 15v314.266c0 8.285-6.715 15-15 15z" fill="#fff"/><path d="M150.499 83.867H56.53c-8.284 0-15 6.716-15 15v314.267c0 8.284 6.716 15 15 15h93.969z" fill="#d2deff"/><path d="M431.827 428.133H80.173v-33.036c0-8.284 6.716-15 15-15h321.654c8.284 0 15 6.716 15 15z" fill="#ff7eb8"/><path d="M470.47 153.18V98.867c0-8.284-6.716-15-15-15H56.53c-8.284 0-15 6.716-15 15v54.313z" fill="#8399fe"/><path d="M455.47 433.133H56.53c-11.028 0-20-8.972-20-20V98.867c0-11.028 8.972-20 20-20h398.94c11.028 0 20 8.972 20 20v314.266c0 11.028-8.972 20-20 20zM56.53 88.867c-5.514 0-10 4.486-10 10v314.266c0 5.514 4.486 10 10 10h398.94c5.514 0 10-4.486 10-10V98.867c0-5.514-4.486-10-10-10z" fill="#2626bc"/><circle cx="85.623" cy="120.768" fill="#ff5ba8" r="10.901"/><circle cx="120.424" cy="120.768" fill="#fff" r="10.901"/><circle cx="155.224" cy="120.768" fill="#02ffb3" r="10.901"/><path d="M432.277 133.015H296.119V108.52h136.159a5 5 0 0 1 5 5v14.496a5 5 0 0 1-5.001 4.999z" fill="#d2deff"/><path d="M296.789 108.831c-5.286-5.286-13.887-5.286-19.173 0s-5.286 13.887 0 19.173c4.037 4.037 10.003 4.98 14.953 2.852l4.348 4.348a5.001 5.001 0 0 0 7.071-7.071l-4.348-4.348c2.129-4.951 1.186-10.917-2.851-14.954zm-12.102 7.071c1.387-1.387 3.644-1.387 5.031 0s1.387 3.644 0 5.031-3.644 1.387-5.031 0-1.387-3.644 0-5.031z" fill="#fff"/><path d="M416.827 346.956h-84.162c-8.284 0-15-6.716-15-15V223.07c0-8.284 6.716-15 15-15h84.162c8.284 0 15 6.716 15 15v108.886c0 8.284-6.716 15-15 15z" fill="#ff7eb8"/><circle cx="374.746" cy="198.791" fill="#02ffb3" r="33.651"/><path d="M362.886 211.544c-2.93 3-4.75 7.1-4.75 11.61v4.91c3.07 1.74 6.43 3.02 10 3.73v-8.64c0-3.64 2.96-6.61 6.61-6.61s6.61 2.97 6.61 6.61v8.64c3.57-.71 6.94-1.99 10-3.73v-4.91c0-4.51-1.81-8.61-4.75-11.61 2.94-3 4.75-7.1 4.75-11.61 0-9.16-7.45-16.62-16.61-16.62s-16.61 7.46-16.61 16.62c0 4.51 1.82 8.61 4.75 11.61zm5.25-11.61c0-3.65 2.96-6.62 6.61-6.62s6.61 2.97 6.61 6.62c0 3.64-2.96 6.61-6.61 6.61s-6.61-2.97-6.61-6.61z" fill="#fff"/><g fill="#fff"><path d="M401.336 246.201h-53.181a5 5 0 0 0 0 10h53.181a5 5 0 0 0 0-10zM401.336 266.689h-53.181a5 5 0 0 0 0 10h53.181a5 5 0 0 0 0-10zM401.336 287.176h-53.181a5 5 0 0 0 0 10h53.181a5 5 0 0 0 0-10zM401.336 319.086h-14.181a5 5 0 0 0 0 10h14.181a5 5 0 0 0 0-10z"/></g><path d="M90.623 207.631V189.95a5 5 0 0 0-10 0v17.681a5 5 0 0 0 10 0z" fill="#ff7eb8"/><path d="M90.623 264.84v-17.68a5 5 0 0 0-10 0v17.681a5 5 0 0 0 10-.001zM90.623 322.05v-17.681a5 5 0 0 0-10 0v17.681a5 5 0 0 0 10 0z" fill="#8399fe"/><path d="M208.705 211.457h-72.381a5 5 0 0 1-5-5v-15.332a5 5 0 0 1 5-5h72.381a5 5 0 0 1 5 5v15.332a5 5 0 0 1-5 5z" fill="#ff7eb8"/><path d="M275.806 278.387H171.125a5 5 0 0 0 0 10h104.681a5 5 0 0 0 0-10zM251.806 258.959h-80.681a5 5 0 0 0 0 10h80.681a5 5 0 0 0 0-10z" fill="#8399fe"/><path d="M182.806 235.614h-11.681a5 5 0 0 0 0 10h11.681a5 5 0 0 0 0-10z" fill="#02ffb3"/><path d="M275.806 348.762H171.125a5 5 0 0 0 0 10h104.681a5 5 0 0 0 0-10zM275.806 329.335H171.125a5 5 0 0 0 0 10h104.681a5 5 0 0 0 0-10z" fill="#8399fe"/><circle cx="405.94" cy="399.113" fill="#fff" r="5.002"/><circle cx="386.776" cy="399.113" fill="#fff" r="5.002"/><path d="M204.414 486.713c-7.88 0-14.292-6.411-14.292-14.292 0-7.88 6.411-14.291 14.292-14.291s14.292 6.411 14.292 14.291c-.001 7.881-6.412 14.292-14.292 14.292zm0-18.583c-2.366 0-4.292 1.925-4.292 4.291s1.925 4.292 4.292 4.292 4.292-1.926 4.292-4.292-1.926-4.291-4.292-4.291zM176.965 59.229c-7.88 0-14.292-6.411-14.292-14.292 0-7.88 6.411-14.291 14.292-14.291s14.292 6.411 14.292 14.291-6.411 14.292-14.292 14.292zm0-18.583c-2.366 0-4.292 1.925-4.292 4.291s1.925 4.292 4.292 4.292 4.292-1.926 4.292-4.292-1.925-4.291-4.292-4.291z" fill="#6583fe"/><path d="M446.569 59.229c-7.88 0-14.292-6.411-14.292-14.292 0-7.88 6.411-14.291 14.292-14.291s14.292 6.411 14.292 14.291c-.001 7.88-6.412 14.292-14.292 14.292zm0-18.583c-2.366 0-4.292 1.925-4.292 4.291s1.925 4.292 4.292 4.292 4.292-1.926 4.292-4.292-1.926-4.291-4.292-4.291zM256 475.713c-7.88 0-14.292-6.411-14.292-14.292 0-7.88 6.411-14.291 14.292-14.291s14.292 6.411 14.292 14.291c0 7.881-6.412 14.292-14.292 14.292zm0-18.583c-2.366 0-4.292 1.925-4.292 4.291s1.925 4.292 4.292 4.292 4.292-1.926 4.292-4.292-1.926-4.291-4.292-4.291z" fill="#ff5ba8"/><path d="M131.325 52.287a5 5 0 0 1-5-5c0-3.309-2.691-6-6-6a5 5 0 1 1 0-10c3.309 0 6-2.691 6-6a5 5 0 1 1 10 0c0 3.309 2.691 6 6 6a5 5 0 1 1 0 10c-3.309 0-6 2.691-6 6a5 5 0 0 1-5 5z" fill="#01eca5"/></svg>