<?xml version="1.0" encoding="utf-8"?>
<!-- Generator: Adobe Illustrator 26.0.1, SVG Export Plug-In . SVG Version: 6.00 Build 0)  -->
<svg version="1.1" id="Capa_1" xmlns="http://www.w3.org/2000/svg" xmlns:xlink="http://www.w3.org/1999/xlink" x="0px" y="0px"
	 viewBox="0 0 508 508" style="enable-background:new 0 0 508 508;" xml:space="preserve">
<style type="text/css">
	.st0{fill:#004999;}
	.st1{fill:#E43C5C;}
</style>
<path class="st0" d="M131,40.8c30.2,0,59.9,0,90.1,0c0-9.8,0-19.5,0-29.2c0-9.1,2.4-11.6,11.4-11.6c14.5,0,29,0,43.5,0
	c7.7,0,10.5,2.8,10.6,10.4c0,10,0,20,0,30.3c30.1,0,59.8,0,90.1,0c0-8.1,0-16.2,0-24.4c0-2.7-0.1-5.5,0.1-8.2c0.3-4.9,3.3-8,8.2-8.1
	c16.4-0.1,32.8-0.2,49.2,0c5.2,0.1,8.1,3.5,8.1,9.2c0.1,10.4,0,20.8,0,31.7c2.2,0,4,0,5.9,0c16,0,32.1,0,48.1,0
	c9.1,0,11.6,2.4,11.6,11.5c0,86.2,0,172.4,0,258.6c0,61.6,0,123.2,0,184.8c0,9.8-2.3,12.1-12,12.1c-161.3,0-322.6,0-483.9,0
	C2.3,508,0,505.7,0,496C0,348.4,0,200.8,0,53.1C0,43.3,2.2,41,11.9,41c16,0,32.1,0,48.1,0c1.7,0,3.3,0,5.5,0c0-10.3,0-20.2,0-30
	c0-8.3,2.6-10.9,11.1-10.9c14.7,0,29.4,0,44,0c7.6,0,10.4,2.8,10.4,10.6C131.1,20.5,131,30.4,131,40.8z M16.7,131.3
	c0,120.3,0,240.1,0,359.9c158.5,0,316.6,0,474.5,0c0-120.2,0-239.9,0-359.9C333,131.3,175,131.3,16.7,131.3z M16.7,57.6
	c0,19.2,0,38,0,56.7c158.4,0,316.5,0,474.6,0c0-19.1,0-37.8,0-57c-8.2,0-16.2,0-24.2,0c-8.1,0-16.3,0-24.2,0c-0.3,1-0.5,1.3-0.5,1.6
	c0,9.7,0,19.5-0.1,29.2c0,7.3-2.9,10.2-10.3,10.2c-13,0-25.9,0-38.9,0c-15.7,0-16.4-0.7-16.4-16.4c0-8.1,0-16.2,0-24.3
	c-30.4,0-60,0-90.1,0c0,9.9,0,19.6,0,29.3c0,9-2.5,11.4-11.6,11.4c-14.2,0-28.3,0-42.5,0c-9,0-11.4-2.5-11.4-11.6c0-9.7,0-19.3,0-29
	c-30.4,0-60.1,0-90.1,0c0,10.2,0,20.1,0,30c0,7.7-2.8,10.6-10.4,10.6c-14.7,0-29.3,0-44,0c-8.4,0-11.1-2.6-11.1-10.9
	c0-9.8,0-19.7,0-29.8C49,57.6,33.1,57.6,16.7,57.6z M114.3,81.7c0-22,0-43.5,0-64.9c-11,0-21.6,0-32.1,0c0,21.8,0,43.3,0,64.9
	C92.9,81.7,103.5,81.7,114.3,81.7z M270,81.7c0-21.9,0-43.5,0-64.9c-11,0-21.6,0-32.2,0c0,21.8,0,43.2,0,64.9
	C248.6,81.7,259.1,81.7,270,81.7z M425.6,81.7c0-21.9,0-43.5,0-64.9c-11,0-21.6,0-32.2,0c0,21.8,0,43.2,0,64.9
	C404.2,81.7,414.7,81.7,425.6,81.7z"/>
<path class="st1" d="M245.6,434.7c-4.5,4.6-9.3,9.6-14.2,14.5c-4.9,4.9-8.9,4.9-13.7,0.2c-14.8-14.7-29.5-29.4-44.2-44.2
	c-5-5-4.9-9,0.2-14.1c4.8-4.8,9.7-9.6,14.3-14.2c-3.1-7.7-5.8-15-8.9-22.2c-0.5-1.2-2.7-2.3-4.2-2.4c-6-0.3-11.9,0-17.9-0.1
	c-6.4-0.1-9.4-3.1-9.4-9.5c-0.1-21-0.1-42,0-63c0-6.4,3.1-9.4,9.4-9.5c6-0.1,12,0.2,17.9-0.2c1.5-0.1,3.7-1.5,4.3-2.8
	c3.1-6.8,5.7-13.8,8.9-21.9c-4.2-4.1-9-8.6-13.7-13.2c-6.1-6.1-6.1-9.6-0.2-15.5c14.2-14.3,28.5-28.5,42.7-42.7
	c5.7-5.7,9.4-5.7,15.2,0.2c4.7,4.7,9.2,9.5,13.4,13.9c8-3.2,15.2-5.9,22.2-8.9c1.3-0.5,2.5-2.6,2.6-4c0.3-6.1,0-12.3,0.1-18.4
	c0.1-6.1,3.1-9.2,9.2-9.2c21.2-0.1,42.3-0.1,63.5,0c6.1,0,9.1,3.1,9.2,9.2c0.1,6.1-0.1,12.3,0.1,18.4c0.1,1.4,1.3,3.5,2.6,4
	c7,3.1,14.2,5.8,22.1,8.9c4.3-4.4,9-9.4,13.8-14.2c5.3-5.4,9.2-5.5,14.5-0.2c14.6,14.6,29.2,29.1,43.8,43.8c5,5,4.9,9-0.1,14.1
	c-4.8,4.9-9.7,9.6-14.3,14.2c3,7.7,5.8,15,8.9,22.1c0.5,1.2,2.7,2.3,4.2,2.4c6,0.3,11.9,0,17.9,0.1c6.4,0.1,9.4,3.1,9.5,9.4
	c0.1,21,0.1,42,0,63c0,6.4-3.1,9.4-9.4,9.5c-6,0.1-12-0.2-17.9,0.2c-1.5,0.1-3.7,1.5-4.3,2.8c-3.1,6.8-5.7,13.8-8.9,21.8
	c4.2,4.1,9,8.7,13.7,13.3c6.1,6,6.1,9.6,0.2,15.6c-14.2,14.3-28.4,28.5-42.7,42.7c-5.7,5.7-9.4,5.6-15.2-0.2
	c-4.5-4.4-9-8.9-13.5-13.3c-0.2-0.2-0.6-0.3-0.6-0.3c-7.3,2.9-14.5,5.6-21.5,8.7c-1.3,0.5-2.5,2.6-2.6,4c-0.3,6.1,0,12.3-0.2,18.4
	c-0.1,6-3.2,9.2-9.2,9.2c-21.2,0.1-42.3,0.1-63.5,0c-6.1,0-9.1-3.1-9.2-9.2c-0.1-6.1,0.1-12.3-0.1-18.4c-0.1-1.4-1.3-3.5-2.6-4
	C260.6,440.5,253.4,437.8,245.6,434.7z M458.6,286.8c-6.5,0-12.4,0-18.4,0c-6.4,0-8.2-1.7-10.4-7.6c-3.7-9.7-7.7-19.2-11.9-28.7
	c-2.6-5.9-2.7-8.2,2-12.7c4.4-4.3,9-8.3,12.8-11.8c-12.3-12.4-23.6-23.8-35.4-35.6c-4,4.1-8.3,8.5-12.5,12.9
	c-3.7,3.9-7.5,4.1-12.4,1.8c-9.5-4.4-19.3-8.5-29.2-12.2c-4.9-1.8-7.3-4.5-7.3-9.7c0.1-6.3,0-12.5,0-19c-16.6,0-32.7,0-49.2,0
	c0,6.4-0.1,12.5,0,18.7c0.1,5.4-2.4,8.2-7.5,10.1c-9.7,3.6-19.3,7.6-28.7,11.9c-6.1,2.7-8.3,2.7-13.1-2.2
	c-4.2-4.2-8.1-8.7-11.7-12.6c-12.2,12.2-23.6,23.6-35.5,35.5c4,3.9,8.4,8.1,12.9,12.3c3.9,3.7,4.2,7.5,1.9,12.4
	c-4.4,9.4-8.3,19-12,28.7c-2.4,6.1-4.1,7.8-10.8,7.8c-6.1,0-12.1,0-18.1,0c0,16.8,0,32.7,0,49.2c6,0,11.8,0,17.6,0
	c7.3,0,9,1.6,11.5,8.3c3.5,9.2,7.2,18.3,11.3,27.3c3,6.7,3.1,8.8-2.2,14c-4.2,4.1-8.7,7.9-12.5,11.4c12.4,12.4,23.7,23.8,35.7,35.8
	c3.8-4,7.7-8.4,11.9-12.7c4.8-4.9,7.1-4.9,13.1-2.2c9.3,4.2,18.7,8.1,28.2,11.7c6.3,2.4,7.9,4.1,7.9,10.7c0,6.1,0,12.1,0,18.1
	c16.8,0,32.9,0,49.2,0c0-6.4,0-12.3,0-18.3c0-6.3,1.8-8.1,7.7-10.3c9.5-3.7,19-7.6,28.2-11.8c6.3-2.9,8.5-2.9,13.6,2.2
	c4.1,4.2,8.1,8.6,11.2,12c12.4-12.1,23.9-23.3,35.8-34.9c-4.3-4.1-8.7-8.4-13.1-12.6c-3.7-3.5-4-7.2-1.9-12
	c4.5-9.7,8.6-19.6,12.3-29.7c1.8-4.9,4.7-7.2,9.8-7.1c6.3,0.1,12.5,0,18.9,0C458.6,319.4,458.6,303.4,458.6,286.8z"/>
<path class="st0" d="M65.5,147.5c7.7,0,15.4-0.1,23,0c6.7,0.1,9.6,3,9.7,9.8c0.1,15.4,0.1,30.7,0,46.1c0,6.7-3.1,9.6-9.8,9.7
	c-15.4,0.1-30.7,0.1-46.1,0c-6.7,0-9.6-3-9.7-9.8c-0.1-15.4-0.1-30.7,0-46.1c0-6.7,3-9.6,9.7-9.7C50.2,147.5,57.9,147.5,65.5,147.5z
	 M81.5,196.5c0-11.1,0-21.7,0-32.1c-11,0-21.6,0-32.1,0c0,10.9,0,21.4,0,32.1C60.2,196.5,70.7,196.5,81.5,196.5z"/>
<path class="st0" d="M65.7,229.4c7.7,0,15.4-0.1,23,0c6.4,0.1,9.5,3,9.5,9.4c0.1,15.5,0.1,31.1,0,46.6c0,6.4-3.1,9.5-9.4,9.5
	c-15.5,0.1-31.1,0.1-46.6,0c-6.4,0-9.5-3-9.5-9.4c-0.1-15.5-0.1-31.1,0-46.6c0-6.6,3.1-9.5,9.9-9.5C50.3,229.4,58,229.4,65.7,229.4z
	 M49.5,246.1c0,11,0,21.6,0,32.1c11,0,21.6,0,32.2,0c0-10.9,0-21.4,0-32.1C70.9,246.1,60.4,246.1,49.5,246.1z"/>
<path class="st0" d="M65.5,376.9c-7.7,0-15.4,0.1-23,0c-6.7-0.1-9.7-3-9.7-9.7c-0.1-15.4-0.1-30.7,0-46.1c0-6.7,3-9.6,9.7-9.7
	c15.4-0.1,30.7-0.1,46.1,0c6.7,0,9.7,3,9.7,9.7c0.1,15.4,0.1,30.7,0,46.1c0,6.7-3,9.6-9.7,9.7C80.8,377,73.1,376.9,65.5,376.9z
	 M49.5,328c0,11,0,21.7,0,32.1c11,0,21.6,0,32.1,0c0-10.9,0-21.4,0-32.1C70.8,328,60.3,328,49.5,328z"/>
<path class="st0" d="M65.3,458.8c-7.7,0-15.4,0.1-23,0c-6.4-0.1-9.5-3.1-9.5-9.4c-0.1-15.5-0.1-31.1,0-46.6c0-6.4,3-9.5,9.4-9.5
	c15.5-0.1,31.1-0.1,46.6,0c6.4,0,9.5,3.1,9.5,9.4c0.1,15.5,0.1,31.1,0,46.6c0,6.4-3.1,9.4-9.4,9.5C81,458.9,73.1,458.8,65.3,458.8z
	 M49.5,409.8c0,10.8,0,21.5,0,32.3c10.8,0,21.4,0,32,0c0-11,0-21.6,0-32.3C70.7,409.8,60.3,409.8,49.5,409.8z"/>
<path class="st1" d="M311.3,401.5c-50.1,0-90.2-40.4-90.2-90.7c0.1-49.5,40.8-89.7,90.8-89.5c49,0.1,89.5,40.8,89.4,89.9
	C401.3,361.1,361,401.5,311.3,401.5z M237.6,311.5c0,40.4,33,73.5,73.6,73.6c40.4,0.2,73.8-33,73.9-73.3c0.1-40.7-32.8-74-73.1-74.1
	C270.7,237.5,237.6,270.4,237.6,311.5z"/>
<path class="st1" d="M303.1,270.5c5.8,0,10.7,0,16.4,0c0,7.5-0.2,15,0.1,22.4c0.1,2.2,1.3,4.7,2.8,6.4c3.3,3.8,5.1,7.8,5.3,12.9
	c0.1,2.2,1.1,4.9,2.7,6.5c7.8,8.2,15.8,16,23.8,24c1.2,1.2,2.3,2.4,3.6,3.8c-3.9,3.7-7.6,7.2-12.6,12.1c-2-2.5-4-5.5-6.4-8
	c-5.1-5.3-10.3-10.4-15.5-15.6c-4-4-7.4-8-14.4-7.7c-6.4,0.3-11.1-4.6-13.1-11.1c-2-6.3-0.4-12,4.4-16.3c2.5-2.2,3.1-4.4,3.1-7.5
	C303,285.2,303.1,278,303.1,270.5z"/>
</svg>
