<svg version="1.1" id="Capa_1" xmlns="http://www.w3.org/2000/svg" x="0" y="0" viewBox="0 0 508 508" style="enable-background:new 0 0 508 508" xml:space="preserve"><style>.st0{fill:#004999}.st1{fill:#e43c5c}</style><path class="st0" d="M131 40.8h90.1V11.6c0-9.1 2.4-11.6 11.4-11.6H276c7.7 0 10.5 2.8 10.6 10.4v30.3h90.1V16.3c0-2.7-.1-5.5.1-8.2.3-4.9 3.3-8 8.2-8.1 16.4-.1 32.8-.2 49.2 0 5.2.1 8.1 3.5 8.1 9.2.1 10.4 0 20.8 0 31.7h54c9.1 0 11.6 2.4 11.6 11.5V495.8c0 9.8-2.3 12.1-12 12.1H12c-9.7.1-12-2.2-12-11.9V53.1C0 43.3 2.2 41 11.9 41h53.6V11C65.5 2.7 68.1.1 76.6.1h44c7.6 0 10.4 2.8 10.4 10.6.1 9.8 0 19.7 0 30.1zM16.7 131.3v359.9h474.5V131.3H16.7zm0-73.7v56.7h474.6v-57h-48.4c-.3 1-.5 1.3-.5 1.6 0 9.7 0 19.5-.1 29.2 0 7.3-2.9 10.2-10.3 10.2h-38.9c-15.7 0-16.4-.7-16.4-16.4V57.6h-90.1v29.3c0 9-2.5 11.4-11.6 11.4h-42.5c-9 0-11.4-2.5-11.4-11.6v-29H131v30c0 7.7-2.8 10.6-10.4 10.6h-44c-8.4 0-11.1-2.6-11.1-10.9V57.6H16.7zm97.6 24.1V16.8H82.2v64.9h32.1zm155.7 0V16.8h-32.2v64.9H270zm155.6 0V16.8h-32.2v64.9h32.2z"/><path class="st1" d="M245.6 434.7c-4.5 4.6-9.3 9.6-14.2 14.5-4.9 4.9-8.9 4.9-13.7.2-14.8-14.7-29.5-29.4-44.2-44.2-5-5-4.9-9 .2-14.1 4.8-4.8 9.7-9.6 14.3-14.2-3.1-7.7-5.8-15-8.9-22.2-.5-1.2-2.7-2.3-4.2-2.4-6-.3-11.9 0-17.9-.1-6.4-.1-9.4-3.1-9.4-9.5-.1-21-.1-42 0-63 0-6.4 3.1-9.4 9.4-9.5 6-.1 12 .2 17.9-.2 1.5-.1 3.7-1.5 4.3-2.8 3.1-6.8 5.7-13.8 8.9-21.9-4.2-4.1-9-8.6-13.7-13.2-6.1-6.1-6.1-9.6-.2-15.5 14.2-14.3 28.5-28.5 42.7-42.7 5.7-5.7 9.4-5.7 15.2.2 4.7 4.7 9.2 9.5 13.4 13.9 8-3.2 15.2-5.9 22.2-8.9 1.3-.5 2.5-2.6 2.6-4 .3-6.1 0-12.3.1-18.4.1-6.1 3.1-9.2 9.2-9.2 21.2-.1 42.3-.1 63.5 0 6.1 0 9.1 3.1 9.2 9.2.1 6.1-.1 12.3.1 18.4.1 1.4 1.3 3.5 2.6 4 7 3.1 14.2 5.8 22.1 8.9 4.3-4.4 9-9.4 13.8-14.2 5.3-5.4 9.2-5.5 14.5-.2 14.6 14.6 29.2 29.1 43.8 43.8 5 5 4.9 9-.1 14.1-4.8 4.9-9.7 9.6-14.3 14.2 3 7.7 5.8 15 8.9 22.1.5 1.2 2.7 2.3 4.2 2.4 6 .3 11.9 0 17.9.1 6.4.1 9.4 3.1 9.5 9.4.1 21 .1 42 0 63 0 6.4-3.1 9.4-9.4 9.5-6 .1-12-.2-17.9.2-1.5.1-3.7 1.5-4.3 2.8-3.1 6.8-5.7 13.8-8.9 21.8 4.2 4.1 9 8.7 13.7 13.3 6.1 6 6.1 9.6.2 15.6-14.2 14.3-28.4 28.5-42.7 42.7-5.7 5.7-9.4 5.6-15.2-.2-4.5-4.4-9-8.9-13.5-13.3-.2-.2-.6-.3-.6-.3-7.3 2.9-14.5 5.6-21.5 8.7-1.3.5-2.5 2.6-2.6 4-.3 6.1 0 12.3-.2 18.4-.1 6-3.2 9.2-9.2 9.2-21.2.1-42.3.1-63.5 0-6.1 0-9.1-3.1-9.2-9.2-.1-6.1.1-12.3-.1-18.4-.1-1.4-1.3-3.5-2.6-4-7.2-3-14.4-5.7-22.2-8.8zm213-147.9h-18.4c-6.4 0-8.2-1.7-10.4-7.6-3.7-9.7-7.7-19.2-11.9-28.7-2.6-5.9-2.7-8.2 2-12.7 4.4-4.3 9-8.3 12.8-11.8-12.3-12.4-23.6-23.8-35.4-35.6-4 4.1-8.3 8.5-12.5 12.9-3.7 3.9-7.5 4.1-12.4 1.8-9.5-4.4-19.3-8.5-29.2-12.2-4.9-1.8-7.3-4.5-7.3-9.7.1-6.3 0-12.5 0-19h-49.2c0 6.4-.1 12.5 0 18.7.1 5.4-2.4 8.2-7.5 10.1-9.7 3.6-19.3 7.6-28.7 11.9-6.1 2.7-8.3 2.7-13.1-2.2-4.2-4.2-8.1-8.7-11.7-12.6l-35.5 35.5c4 3.9 8.4 8.1 12.9 12.3 3.9 3.7 4.2 7.5 1.9 12.4-4.4 9.4-8.3 19-12 28.7-2.4 6.1-4.1 7.8-10.8 7.8h-18.1V336h17.6c7.3 0 9 1.6 11.5 8.3 3.5 9.2 7.2 18.3 11.3 27.3 3 6.7 3.1 8.8-2.2 14-4.2 4.1-8.7 7.9-12.5 11.4 12.4 12.4 23.7 23.8 35.7 35.8 3.8-4 7.7-8.4 11.9-12.7 4.8-4.9 7.1-4.9 13.1-2.2 9.3 4.2 18.7 8.1 28.2 11.7 6.3 2.4 7.9 4.1 7.9 10.7v18.1h49.2v-18.3c0-6.3 1.8-8.1 7.7-10.3 9.5-3.7 19-7.6 28.2-11.8 6.3-2.9 8.5-2.9 13.6 2.2 4.1 4.2 8.1 8.6 11.2 12 12.4-12.1 23.9-23.3 35.8-34.9-4.3-4.1-8.7-8.4-13.1-12.6-3.7-3.5-4-7.2-1.9-12 4.5-9.7 8.6-19.6 12.3-29.7 1.8-4.9 4.7-7.2 9.8-7.1 6.3.1 12.5 0 18.9 0 .3-16.5.3-32.5.3-49.1z"/><path class="st0" d="M65.5 147.5c7.7 0 15.4-.1 23 0 6.7.1 9.6 3 9.7 9.8.1 15.4.1 30.7 0 46.1 0 6.7-3.1 9.6-9.8 9.7-15.4.1-30.7.1-46.1 0-6.7 0-9.6-3-9.7-9.8-.1-15.4-.1-30.7 0-46.1 0-6.7 3-9.6 9.7-9.7h23.2zm16 49v-32.1H49.4v32.1h32.1zM65.7 229.4c7.7 0 15.4-.1 23 0 6.4.1 9.5 3 9.5 9.4.1 15.5.1 31.1 0 46.6 0 6.4-3.1 9.5-9.4 9.5-15.5.1-31.1.1-46.6 0-6.4 0-9.5-3-9.5-9.4-.1-15.5-.1-31.1 0-46.6 0-6.6 3.1-9.5 9.9-9.5h23.1zm-16.2 16.7v32.1h32.2v-32.1H49.5zM65.5 376.9c-7.7 0-15.4.1-23 0-6.7-.1-9.7-3-9.7-9.7-.1-15.4-.1-30.7 0-46.1 0-6.7 3-9.6 9.7-9.7 15.4-.1 30.7-.1 46.1 0 6.7 0 9.7 3 9.7 9.7.1 15.4.1 30.7 0 46.1 0 6.7-3 9.6-9.7 9.7-7.8.1-15.5 0-23.1 0zm-16-48.9v32.1h32.1V328H49.5zM65.3 458.8c-7.7 0-15.4.1-23 0-6.4-.1-9.5-3.1-9.5-9.4-.1-15.5-.1-31.1 0-46.6 0-6.4 3-9.5 9.4-9.5 15.5-.1 31.1-.1 46.6 0 6.4 0 9.5 3.1 9.5 9.4.1 15.5.1 31.1 0 46.6 0 6.4-3.1 9.4-9.4 9.5-7.9.1-15.8 0-23.6 0zm-15.8-49v32.3h32v-32.3h-32z"/><path class="st1" d="M311.3 401.5c-50.1 0-90.2-40.4-90.2-90.7.1-49.5 40.8-89.7 90.8-89.5 49 .1 89.5 40.8 89.4 89.9 0 49.9-40.3 90.3-90 90.3zm-73.7-90c0 40.4 33 73.5 73.6 73.6 40.4.2 73.8-33 73.9-73.3.1-40.7-32.8-74-73.1-74.1-41.3-.2-74.4 32.7-74.4 73.8z"/><path class="st1" d="M303.1 270.5h16.4c0 7.5-.2 15 .1 22.4.1 2.2 1.3 4.7 2.8 6.4 3.3 3.8 5.1 7.8 5.3 12.9.1 2.2 1.1 4.9 2.7 6.5 7.8 8.2 15.8 16 23.8 24 1.2 1.2 2.3 2.4 3.6 3.8-3.9 3.7-7.6 7.2-12.6 12.1-2-2.5-4-5.5-6.4-8-5.1-5.3-10.3-10.4-15.5-15.6-4-4-7.4-8-14.4-7.7-6.4.3-11.1-4.6-13.1-11.1-2-6.3-.4-12 4.4-16.3 2.5-2.2 3.1-4.4 3.1-7.5-.3-7.2-.2-14.4-.2-21.9z"/></svg>