<svg xmlns="http://www.w3.org/2000/svg" viewBox="0 0 512 512" style="enable-background:new 0 0 512 512" xml:space="preserve"><path style="fill:#f1f2f2" d="M384.245 336.153c8.817 0 16.03 7.214 16.03 16.03s-7.214 16.03-16.03 16.03c-8.817 0-16.03-7.214-16.03-16.03s7.213-16.03 16.03-16.03z"/><path style="fill:#768ba0" d="M384.245 304.091c26.531 0 48.092 21.562 48.092 48.092s-21.562 48.092-48.092 48.092c-26.53 0-48.092-21.562-48.092-48.092 0-26.53 21.561-48.092 48.092-48.092zm16.03 48.092c0-8.817-7.214-16.03-16.03-16.03-8.817 0-16.03 7.214-16.03 16.03s7.214 16.03 16.03 16.03c8.816.001 16.03-7.213 16.03-16.03zM127.755 304.091c26.53 0 48.092 21.562 48.092 48.092s-21.562 48.092-48.092 48.092-48.092-21.562-48.092-48.092c0-26.53 21.561-48.092 48.092-48.092zm16.03 48.092c0-8.817-7.214-16.03-16.03-16.03s-16.03 7.214-16.03 16.03 7.214 16.03 16.03 16.03c8.816.001 16.03-7.213 16.03-16.03z"/><path style="fill:#f1f2f2" d="M127.755 336.153c8.817 0 16.03 7.214 16.03 16.03s-7.214 16.03-16.03 16.03-16.03-7.214-16.03-16.03c-.001-8.816 7.213-16.03 16.03-16.03z"/><path style="fill:#a4b0c0" d="M312.107 111.723v40.076h-120.23l32.062-40.076z"/><path style="fill:#ffe451" d="M504.475 288.061v64.122h-72.138c0-26.531-21.562-48.092-48.092-48.092-26.53 0-48.092 21.562-48.092 48.092H175.847c0-26.531-21.562-48.092-48.092-48.092s-48.092 21.562-48.092 48.092H7.525V207.907h56.107l64.122-56.108h208.398l64.122 88.168h40.076c40.079.002 64.125 48.094 64.125 48.094z"/><path style="fill:#fcb64f" d="M7.525 207.911h56.108v144.28H7.525z"/><path style="fill:#768ba0" d="m223.939 111.723-32.062 40.076h48.092l32.062-40.076z"/><path style="fill:#31e8bb" d="m312.107 183.861 48.092 64.122h-120.23l-8.015-8.014v-56.108zM199.893 183.861v64.122h-96.184v-16.03l40.076-32.062v-16.03z"/><path style="fill:#31ccbb" d="M264.015 183.861h-32.061v56.108l8.015 8.014h32.062l-8.016-8.014z"/><path style="fill:#231f20" d="M15.05 215.432h51.409l64.122-56.107H332.32l21.063 28.961 12.171-8.851-25.57-35.16h-20.353v-40.076h-99.31l-32.061 40.076h-63.335l-64.122 56.107H0v39.587h15.05v-24.537zm212.505-96.183h77.027v25.026h-97.049l20.022-25.026zM512 286.284l-.795-1.589c-1.067-2.133-26.634-52.251-70.853-52.251h-36.245l-26.893-36.977-12.171 8.851 31.4 43.176h43.909c31.198 0 52.331 34.809 56.597 42.459v54.704h-57.611c-3.686-27.119-26.981-48.092-55.094-48.092-28.114 0-51.407 20.973-55.093 48.092h-81.167v15.05h81.167c3.686 27.119 26.98 48.093 55.093 48.093 28.114 0 51.408-20.974 55.094-48.093H512v-73.423zM384.245 392.75c-22.368 0-40.567-18.199-40.567-40.568 0-22.368 18.199-40.567 40.567-40.567 22.369 0 40.568 18.199 40.568 40.567-.001 22.37-18.199 40.568-40.568 40.568zM127.754 296.566c-28.115 0-51.407 20.973-55.093 48.092H15.05v-80.643H0v95.693h72.661c3.686 27.119 26.98 48.093 55.093 48.093s51.408-20.974 55.094-48.093h41.09v-15.05h-41.09c-3.686-27.119-26.98-48.092-55.094-48.092zm0 96.184c-22.368 0-40.567-18.199-40.567-40.568 0-22.368 18.199-40.567 40.567-40.567 22.369 0 40.568 18.199 40.568 40.567 0 22.37-18.199 40.568-40.568 40.568z"/><path style="fill:#231f20" d="M127.754 328.628c-12.988 0-23.555 10.566-23.555 23.555 0 12.989 10.566 23.556 23.555 23.556s23.556-10.567 23.556-23.556-10.568-23.555-23.556-23.555zm0 32.06c-4.69 0-8.505-3.816-8.505-8.506s3.816-8.505 8.505-8.505c4.691 0 8.506 3.816 8.506 8.505 0 4.692-3.815 8.506-8.506 8.506zM384.245 328.628c-12.988 0-23.556 10.566-23.556 23.555 0 12.989 10.567 23.556 23.556 23.556s23.556-10.567 23.556-23.556-10.568-23.555-23.556-23.555zm0 32.06c-4.691 0-8.506-3.816-8.506-8.506s3.816-8.505 8.506-8.505c4.691 0 8.506 3.816 8.506 8.505-.001 4.692-3.815 8.506-8.506 8.506z"/><path style="fill:#fff" d="M31.571 272.516h16.031v15.05H31.571z"/><path style="fill:#231f20" d="M63.632 272.516h16.031v15.05H63.632z"/><path style="fill:#fff" d="M464.395 296.566h16.031v15.05h-16.031z"/><path style="fill:#231f20" d="M315.87 176.336h-91.441v66.749l12.423 12.423h138.397l-59.379-79.172zm-76.39 60.515v-45.465h68.866l36.804 49.072H243.086l-3.606-3.607zM207.418 176.336H136.26v19.939l-40.076 32.062v27.171h111.234v-79.172zm-15.05 64.122h-81.134v-4.888l40.076-32.062v-12.122h41.058v49.072zM175.845 272.516h16.031v15.05h-16.031z"/><path style="fill:#fff" d="M191.878 288.549h16.03v15.05h-16.03z"/><path style="fill:#231f20" d="M207.912 272.516h16.031v15.05h-16.031z"/><path style="fill:#fff" d="M223.935 288.549h16.031v15.05h-16.031z"/><path style="fill:#231f20" d="M239.968 272.516h16.031v15.05h-16.031z"/><path style="fill:#fff" d="M256.001 288.549h16.031v15.05h-16.031z"/><path style="fill:#231f20" d="M272.035 272.516h16.03v15.05h-16.03z"/><path style="fill:#fff" d="M288.058 288.549h16.031v15.05h-16.031z"/><path style="fill:#231f20" d="M304.091 272.516h16.031v15.05h-16.031z"/></svg>