<svg version="1.1" id="Layer_1" xmlns="http://www.w3.org/2000/svg" x="0" y="0" viewBox="0 0 512 512" style="enable-background:new 0 0 512 512" xml:space="preserve"><style>.st0{fill:#004999}.st1{fill:#e43c5c}</style><path class="st0" d="M250 510.6c-3.7-1.3-7.6-2.3-11.1-4-17.2-8-26.3-26.9-21.9-45.5.3-1.3.5-2.5.9-4.1-9.2-5.3-18.3-10.6-27.5-15.9-28.6-16.5-57.1-32.9-85.6-49.5-2.9-1.7-4.6-1.7-7.2.7-12.6 11.8-30.1 14.3-45.2 6.8-14.8-7.3-23.4-22.7-22.2-39.6 1.2-16 12.7-30 29-34.9 3.1-.9 3.7-2.3 3.7-5.2-.1-42.5-.1-84.9 0-127.4 0-2.6-.3-4.1-3.3-5-16.9-5.2-28.2-18.9-29.4-35.1-1.2-17.3 7.8-32.8 23.2-40 15.4-7.1 32.4-4 45.4 8.3.6.6 1.2 1.1 2.1 1.9 39-22.5 78-45 116.9-67.5-4.8-19.3-.4-35.3 16-46.8 13.3-9.3 31-9.4 44.4 0 16.4 11.4 20.8 27.4 16 46.8C333 77 371.9 99.5 411.1 122.1c1.5-1.3 2.9-2.5 4.4-3.8 12.6-10.9 29.9-13.1 44.6-5.7 14.6 7.4 23.1 22.7 21.9 39.3-1.1 15.7-12.4 29.9-27.9 34.7-3.7 1.1-4.8 2.6-4.8 6.4.2 42 .1 83.9 0 125.9 0 3.3.7 4.8 4.2 5.8 15.9 4.7 27.3 18.9 28.5 34.7 1.3 17-7.5 32.5-22.7 39.8-15 7.2-32.3 4.6-44.8-6.9-2-1.8-3.3-3-6.3-1.3-37.5 21.8-75.1 43.5-112.7 65.2-.4.2-.7.6-1.3 1.2 2.3 8 2.9 16.3.3 24.4-4.6 14.3-14.3 23.6-28.8 27.6-1.2.3-2.5.8-3.7 1.2h-12zm38.1-442.2c-7.6 4.1-14 8.1-20.8 11.2-3 1.3-4 2.6-3.9 5.7.2 7.8.1 15.6 0 23.4 0 4.3-1.8 7.4-6.4 8.1-4.8.7-8.3-2.5-8.4-8.1-.2-8.1.1-16.3-.2-24.4 0-1.4-1.2-3.4-2.4-4-7-3.9-14.1-7.5-21.2-11.1.5-1.2.3-1.3.1-1.2-38 21.9-76.1 43.8-114.1 65.9-1.2.7-1.8 3.1-1.8 4.7-.1 6.4.7 12.9-.1 19.2-.4 3.5.3 5 3.1 6.6 7 3.8 14 7.6 20.6 12.1 2 1.4 3.7 4.9 3.6 7.3-.2 2.2-2.8 5-5 5.9-2 .8-5.2-.3-7.4-1.4-7.9-4.2-15.5-8.8-21.9-12.4-7.2 4.1-13 8.3-19.5 10.8-4.2 1.6-5 3.5-5 7.4.2 20.7.1 41.5.1 62.2 0 20.9.1 41.8-.1 62.7 0 3.4.7 4.9 4.3 6.3 5.8 2.4 11 6.5 16.6 9.6 1.4.8 3.7 1.2 4.9.6 6.6-3.5 13-7.3 19.4-11.1 6.2-3.6 10.4-3.1 12.9 1.3 2.4 4.3.7 8-5.3 11.5-6.2 3.6-12.3 7.2-18.5 10.6-2.7 1.5-3.3 2.9-2.9 6.2.7 6 .9 12.2.1 18.2-.5 3.6.1 5.2 3.2 7 25.5 14.5 50.8 29.2 76.2 43.9 12.3 7.1 24.6 14.2 37 21.3 5.7-6.3 12.4-10.4 20.2-12.8 1.2-.4 2.6-2.8 2.6-4.3.3-8 .1-15.9.1-23.9 0-3.8 1.3-6.9 5.2-8.1 5.1-1.6 9.4 1.7 9.6 7.6.2 8.1 0 16.3.2 24.4 0 1.4 1 3.5 2.2 4.2 7.1 4 14.4 7.6 22.6 11.8 36.7-21.2 74.9-43.2 112.9-65.4 1.1-.6 1.5-3.1 1.6-4.8.2-6.6-.3-13.1.2-19.7.2-2.8-.1-4.2-2.5-5.5-6.8-3.8-13.6-7.7-20.3-11.6-4.9-2.9-6.2-6.7-4-10.7 2.3-4.2 6.5-5 11.6-2.1 6.9 3.9 13.7 8.1 20.7 11.8 1.2.6 3.5.2 4.9-.6 5.9-3.2 11.5-7 17.5-10 2.3-1.1 3.4-1.9 3.3-4.5-.1-43 0-85.9-.1-128.9 0-1.2-.8-3.4-1.6-3.6-8.4-2.1-15.4-6.7-21.4-12.9-8.1 4.7-15.8 9.2-23.6 13.6-4.9 2.7-8.9 2-11.3-1.9-2.5-4-1-8.1 4-11.1 6.4-3.8 12.9-7.6 19.4-11.1 2.8-1.5 3.7-3 3.1-6.6-.9-6-.8-12.2-.1-18.2.4-3.4 0-4.9-3-6.6-20-11.4-39.9-23-59.9-34.5-17.1-10.3-34.9-20.6-51.3-30zm-6.9-27.3c0-14.1-11.3-25.3-25.4-25.2-13.8.1-24.9 11.3-25 25.1-.1 14 11.2 25.5 25.1 25.5 14 0 25.3-11.4 25.3-25.4zm160.7 347.2c14 0 25.2-11.3 25.1-25.4-.1-13.7-11.2-24.9-25-25-13.9-.1-25.4 11.3-25.5 25.2 0 13.8 11.5 25.2 25.4 25.2zm-160.7 82.2c0-14-11.2-25.4-25.2-25.4-13.7 0-25 11.2-25.1 25-.2 14.1 11 25.5 24.9 25.6 14 .1 25.3-11.1 25.4-25.2zm-211-82.2c14 0 25.4-11.5 25.2-25.4-.1-13.7-11.4-24.9-25.1-25-13.9-.1-25.4 11.2-25.4 25.2s11.2 25.2 25.3 25.2zm-.3-265c-14.1.1-25.1 11.3-25 25.5.1 13.8 11.3 24.9 25.1 24.9 13.9 0 25.4-11.4 25.3-25.3.1-14-11.3-25.2-25.4-25.1zm397.2 25.1c0-14.1-11.2-25.2-25.3-25.1-13.8 0-25 11.2-25.2 24.9-.2 13.8 11.3 25.4 25.2 25.5 13.9 0 25.3-11.3 25.3-25.3z"/><path class="st1" d="M170.9 213.5c-6.6-7.2-11.1-15.4-12.6-25.3-3.5-22.8 10-44.8 31.9-51.5 21.8-6.8 45.4 3.3 55.2 24 1.8 3.9 4.1 3.8 7.7 4.4 9.2 1.6 12.6-3.2 17-10.1 14.4-22.3 44.9-26.9 66-10.8 21.1 16.1 24.4 46.4 7.4 66.7-.7.9-1.5 1.7-2.6 3 1.4 1 2.8 1.9 4.1 2.8 18.1 12.8 27.8 30.3 29.2 52.3.4 5.8-2.2 9.4-6.8 9.8-4.7.4-7.7-2.8-8.1-9-1.5-19.9-10.7-34.9-28.6-44.1-2.2-1.1-5.3-.9-7.9-.7-6.4.5-12.8 1.6-19.2 1.9-2.8.1-4.3.5-5.7 3.3-2.3 4.7-5.4 9-8.5 14 1 .7 2.4 1.7 3.8 2.7 17.6 12.7 27.4 29.7 28.6 51.5.4 6.8-2.1 10.2-7.1 10.3-4.9.1-7.3-3.1-7.8-10-1.4-19.6-11-34-28.4-43.1-2.2-1.1-5.4-1.3-7.8-.7-10 2.9-19.9 2.8-29.9-.2-2-.6-4.7-.6-6.5.3-17.7 8.8-27.7 23.1-29.3 43-.1 1.3-.1 2.7-.3 4-.8 4.4-3.8 6.9-7.9 6.6-4.2-.3-6.8-3.3-6.8-8.2.2-19.1 7.6-35.1 21.5-48 3.4-3.1 7.3-5.7 10.8-8.4-3.1-5.2-6.2-10.6-9.5-15.8-.5-.8-2.1-1.1-3.3-1.3-7.3-1-14.7-2-22-2.7-2-.2-4.3.2-6.1 1.1-17.2 9-26.7 23.2-28.6 42.5-.1 1-.1 2-.2 3-.5 5-3.5 8-7.8 7.8-4.3-.3-7.7-3.7-6.9-8.6 1.3-8.3 2.6-16.7 5.4-24.6 4.5-12.3 13-21.8 23.9-29.2 1-.7 1.9-1.3 2.9-1.9.3 0 .5-.4.8-.8zm85.2 28.7c17.4-.1 31.3-14 31.3-31.3 0-17.2-14.1-31.3-31.3-31.5-17.3-.1-31.7 14.3-31.5 31.7.2 17.4 14.2 31.2 31.5 31.1zm-22.9-71.7c-5.2-15.9-22.6-24.5-38.6-19.5-16.6 5.2-25.8 22.6-20.7 39.1 4.8 15.5 21.4 25.4 35.6 21.1.6-17.6 8.4-31.2 23.7-40.7zm69.3 41.1c18.7 2.5 33.5-8.4 36.6-26.2 2.7-15.6-8.3-31.6-23.9-35.1-15.9-3.5-32.6 5.7-36.3 20.2 15.2 9.4 23 23.2 23.6 41.1zM256.5 362.2h59.7c6.4 0 9.6 2.5 9.6 7.4 0 4.8-3.4 7.5-9.6 7.5H195.8c-7.6 0-11.8-5.3-8.9-10.9 1.8-3.4 4.8-4.1 8.4-4.1 20.4.2 40.8.1 61.2.1z"/><path class="st0" d="M307.3 347.8c-3.6 0-7.3.2-10.9 0-4.5-.2-7.4-3.1-7.5-7.1-.2-4.1 2.8-7.5 7.4-7.6 7.4-.3 14.9-.3 22.3 0 4.6.2 7.2 3.1 7.2 7.3 0 4.4-2.7 7.1-7.6 7.4-3.6.1-7.2 0-10.9 0zM219.3 333.1c4.2 0 7.7 3.4 7.6 7.5-.1 3.9-3.4 7.1-7.4 7.2-4.3.1-7.5-3.2-7.5-7.5.1-4.2 3.1-7.2 7.3-7.2zM252.7 340.5c-.1 4.1-3.7 7.4-7.9 7.2-4.1-.2-7.1-3.3-7-7.5.1-4.3 3.4-7.4 7.7-7.2 4.1.3 7.3 3.6 7.2 7.5zM193.4 333.1c4.2-.1 7.7 3.4 7.6 7.5-.1 3.9-3.4 7.2-7.4 7.2-4.3.1-7.6-3.1-7.5-7.5.1-4.1 3.2-7.2 7.3-7.2z"/></svg>