<?xml version="1.0" encoding="utf-8"?>
<!-- Generator: Adobe Illustrator 26.0.1, SVG Export Plug-In . SVG Version: 6.00 Build 0)  -->
<svg version="1.1" id="Layer_1" xmlns="http://www.w3.org/2000/svg" xmlns:xlink="http://www.w3.org/1999/xlink" x="0px" y="0px"
	 viewBox="0 0 512 512" style="enable-background:new 0 0 512 512;" xml:space="preserve">
<style type="text/css">
	.st0{fill:#004999;}
	.st1{fill:#E43C5C;}
</style>
<g>
	<path class="st0" d="M250,510.6c-3.7-1.3-7.6-2.3-11.1-4c-17.2-8-26.3-26.9-21.9-45.5c0.3-1.3,0.5-2.5,0.9-4.1
		c-9.2-5.3-18.3-10.6-27.5-15.9c-28.6-16.5-57.1-32.9-85.6-49.5c-2.9-1.7-4.6-1.7-7.2,0.7c-12.6,11.8-30.1,14.3-45.2,6.8
		c-14.8-7.3-23.4-22.7-22.2-39.6c1.2-16,12.7-30,29-34.9c3.1-0.9,3.7-2.3,3.7-5.2c-0.1-42.5-0.1-84.9,0-127.4c0-2.6-0.3-4.1-3.3-5
		c-16.9-5.2-28.2-18.9-29.4-35.1c-1.2-17.3,7.8-32.8,23.2-40c15.4-7.1,32.4-4,45.4,8.3c0.6,0.6,1.2,1.1,2.1,1.9
		c39-22.5,78-45,116.9-67.5c-4.8-19.3-0.4-35.3,16-46.8c13.3-9.3,31-9.4,44.4,0c16.4,11.4,20.8,27.4,16,46.8
		C333,77,371.9,99.5,411.1,122.1c1.5-1.3,2.9-2.5,4.4-3.8c12.6-10.9,29.9-13.1,44.6-5.7c14.6,7.4,23.1,22.7,21.9,39.3
		c-1.1,15.7-12.4,29.9-27.9,34.7c-3.7,1.1-4.8,2.6-4.8,6.4c0.2,42,0.1,83.9,0,125.9c0,3.3,0.7,4.8,4.2,5.8
		c15.9,4.7,27.3,18.9,28.5,34.7c1.3,17-7.5,32.5-22.7,39.8c-15,7.2-32.3,4.6-44.8-6.9c-2-1.8-3.3-3-6.3-1.3
		c-37.5,21.8-75.1,43.5-112.7,65.2c-0.4,0.2-0.7,0.6-1.3,1.2c2.3,8,2.9,16.3,0.3,24.4c-4.6,14.3-14.3,23.6-28.8,27.6
		c-1.2,0.3-2.5,0.8-3.7,1.2C258,510.6,254,510.6,250,510.6z M288.1,68.4c-7.6,4.1-14,8.1-20.8,11.2c-3,1.3-4,2.6-3.9,5.7
		c0.2,7.8,0.1,15.6,0,23.4c0,4.3-1.8,7.4-6.4,8.1c-4.8,0.7-8.3-2.5-8.4-8.1c-0.2-8.1,0.1-16.3-0.2-24.4c0-1.4-1.2-3.4-2.4-4
		c-7-3.9-14.1-7.5-21.2-11.1c0.5-1.2,0.3-1.3,0.1-1.2c-38,21.9-76.1,43.8-114.1,65.9c-1.2,0.7-1.8,3.1-1.8,4.7
		c-0.1,6.4,0.7,12.9-0.1,19.2c-0.4,3.5,0.3,5,3.1,6.6c7,3.8,14,7.6,20.6,12.1c2,1.4,3.7,4.9,3.6,7.3c-0.2,2.2-2.8,5-5,5.9
		c-2,0.8-5.2-0.3-7.4-1.4c-7.9-4.2-15.5-8.8-21.9-12.4c-7.2,4.1-13,8.3-19.5,10.8c-4.2,1.6-5,3.5-5,7.4c0.2,20.7,0.1,41.5,0.1,62.2
		c0,20.9,0.1,41.8-0.1,62.7c0,3.4,0.7,4.9,4.3,6.3c5.8,2.4,11,6.5,16.6,9.6c1.4,0.8,3.7,1.2,4.9,0.6c6.6-3.5,13-7.3,19.4-11.1
		c6.2-3.6,10.4-3.1,12.9,1.3c2.4,4.3,0.7,8-5.3,11.5c-6.2,3.6-12.3,7.2-18.5,10.6c-2.7,1.5-3.3,2.9-2.9,6.2c0.7,6,0.9,12.2,0.1,18.2
		c-0.5,3.6,0.1,5.2,3.2,7c25.5,14.5,50.8,29.2,76.2,43.9c12.3,7.1,24.6,14.2,37,21.3c5.7-6.3,12.4-10.4,20.2-12.8
		c1.2-0.4,2.6-2.8,2.6-4.3c0.3-8,0.1-15.9,0.1-23.9c0-3.8,1.3-6.9,5.2-8.1c5.1-1.6,9.4,1.7,9.6,7.6c0.2,8.1,0,16.3,0.2,24.4
		c0,1.4,1,3.5,2.2,4.2c7.1,4,14.4,7.6,22.6,11.8c36.7-21.2,74.9-43.2,112.9-65.4c1.1-0.6,1.5-3.1,1.6-4.8c0.2-6.6-0.3-13.1,0.2-19.7
		c0.2-2.8-0.1-4.2-2.5-5.5c-6.8-3.8-13.6-7.7-20.3-11.6c-4.9-2.9-6.2-6.7-4-10.7c2.3-4.2,6.5-5,11.6-2.1c6.9,3.9,13.7,8.1,20.7,11.8
		c1.2,0.6,3.5,0.2,4.9-0.6c5.9-3.2,11.5-7,17.5-10c2.3-1.1,3.4-1.9,3.3-4.5c-0.1-43,0-85.9-0.1-128.9c0-1.2-0.8-3.4-1.6-3.6
		c-8.4-2.1-15.4-6.7-21.4-12.9c-8.1,4.7-15.8,9.2-23.6,13.6c-4.9,2.7-8.9,2-11.3-1.9c-2.5-4-1-8.1,4-11.1
		c6.4-3.8,12.9-7.6,19.4-11.1c2.8-1.5,3.7-3,3.1-6.6c-0.9-6-0.8-12.2-0.1-18.2c0.4-3.4,0-4.9-3-6.6c-20-11.4-39.9-23-59.9-34.5
		C322.3,88.1,304.5,77.8,288.1,68.4z M281.2,41.1c0-14.1-11.3-25.3-25.4-25.2C242,16,230.9,27.2,230.8,41
		c-0.1,14,11.2,25.5,25.1,25.5C269.9,66.5,281.2,55.1,281.2,41.1z M441.9,388.3c14,0,25.2-11.3,25.1-25.4c-0.1-13.7-11.2-24.9-25-25
		c-13.9-0.1-25.4,11.3-25.5,25.2C416.5,376.9,428,388.3,441.9,388.3z M281.2,470.5c0-14-11.2-25.4-25.2-25.4
		c-13.7,0-25,11.2-25.1,25c-0.2,14.1,11,25.5,24.9,25.6C269.8,495.8,281.1,484.6,281.2,470.5z M70.2,388.3c14,0,25.4-11.5,25.2-25.4
		C95.3,349.2,84,338,70.3,337.9c-13.9-0.1-25.4,11.2-25.4,25.2C44.9,377.1,56.1,388.3,70.2,388.3z M69.9,123.3
		c-14.1,0.1-25.1,11.3-25,25.5c0.1,13.8,11.3,24.9,25.1,24.9c13.9,0,25.4-11.4,25.3-25.3C95.4,134.4,84,123.2,69.9,123.3z
		 M467.1,148.4c0-14.1-11.2-25.2-25.3-25.1c-13.8,0-25,11.2-25.2,24.9c-0.2,13.8,11.3,25.4,25.2,25.5
		C455.7,173.7,467.1,162.4,467.1,148.4z"/>
	<path class="st1" d="M170.9,213.5c-6.6-7.2-11.1-15.4-12.6-25.3c-3.5-22.8,10-44.8,31.9-51.5c21.8-6.8,45.4,3.3,55.2,24
		c1.8,3.9,4.1,3.8,7.7,4.4c9.2,1.6,12.6-3.2,17-10.1c14.4-22.3,44.9-26.9,66-10.8c21.1,16.1,24.4,46.4,7.4,66.7
		c-0.7,0.9-1.5,1.7-2.6,3c1.4,1,2.8,1.9,4.1,2.8c18.1,12.8,27.8,30.3,29.2,52.3c0.4,5.8-2.2,9.4-6.8,9.8c-4.7,0.4-7.7-2.8-8.1-9
		c-1.5-19.9-10.7-34.9-28.6-44.1c-2.2-1.1-5.3-0.9-7.9-0.7c-6.4,0.5-12.8,1.6-19.2,1.9c-2.8,0.1-4.3,0.5-5.7,3.3
		c-2.3,4.7-5.4,9-8.5,14c1,0.7,2.4,1.7,3.8,2.7c17.6,12.7,27.4,29.7,28.6,51.5c0.4,6.8-2.1,10.2-7.1,10.3c-4.9,0.1-7.3-3.1-7.8-10
		c-1.4-19.6-11-34-28.4-43.1c-2.2-1.1-5.4-1.3-7.8-0.7c-10,2.9-19.9,2.8-29.9-0.2c-2-0.6-4.7-0.6-6.5,0.3
		c-17.7,8.8-27.7,23.1-29.3,43c-0.1,1.3-0.1,2.7-0.3,4c-0.8,4.4-3.8,6.9-7.9,6.6c-4.2-0.3-6.8-3.3-6.8-8.2
		c0.2-19.1,7.6-35.1,21.5-48c3.4-3.1,7.3-5.7,10.8-8.4c-3.1-5.2-6.2-10.6-9.5-15.8c-0.5-0.8-2.1-1.1-3.3-1.3c-7.3-1-14.7-2-22-2.7
		c-2-0.2-4.3,0.2-6.1,1.1c-17.2,9-26.7,23.2-28.6,42.5c-0.1,1-0.1,2-0.2,3c-0.5,5-3.5,8-7.8,7.8c-4.3-0.3-7.7-3.7-6.9-8.6
		c1.3-8.3,2.6-16.7,5.4-24.6c4.5-12.3,13-21.8,23.9-29.2c1-0.7,1.9-1.3,2.9-1.9C170.4,214.3,170.6,213.9,170.9,213.5z M256.1,242.2
		c17.4-0.1,31.3-14,31.3-31.3c0-17.2-14.1-31.3-31.3-31.5c-17.3-0.1-31.7,14.3-31.5,31.7C224.8,228.5,238.8,242.3,256.1,242.2z
		 M233.2,170.5c-5.2-15.9-22.6-24.5-38.6-19.5c-16.6,5.2-25.8,22.6-20.7,39.1c4.8,15.5,21.4,25.4,35.6,21.1
		C210.1,193.6,217.9,180,233.2,170.5z M302.5,211.6c18.7,2.5,33.5-8.4,36.6-26.2c2.7-15.6-8.3-31.6-23.9-35.1
		c-15.9-3.5-32.6,5.7-36.3,20.2C294.1,179.9,301.9,193.7,302.5,211.6z"/>
	<path class="st1" d="M256.5,362.2c19.9,0,39.8,0,59.7,0c6.4,0,9.6,2.5,9.6,7.4c0,4.8-3.4,7.5-9.6,7.5c-40.1,0-80.3,0-120.4,0
		c-7.6,0-11.8-5.3-8.9-10.9c1.8-3.4,4.8-4.1,8.4-4.1C215.7,362.3,236.1,362.2,256.5,362.2z"/>
	<path class="st0" d="M307.3,347.8c-3.6,0-7.3,0.2-10.9,0c-4.5-0.2-7.4-3.1-7.5-7.1c-0.2-4.1,2.8-7.5,7.4-7.6
		c7.4-0.3,14.9-0.3,22.3,0c4.6,0.2,7.2,3.1,7.2,7.3c0,4.4-2.7,7.1-7.6,7.4C314.6,347.9,311,347.8,307.3,347.8z"/>
	<path class="st0" d="M219.3,333.1c4.2,0,7.7,3.4,7.6,7.5c-0.1,3.9-3.4,7.1-7.4,7.2c-4.3,0.1-7.5-3.2-7.5-7.5
		C212.1,336.1,215.1,333.1,219.3,333.1z"/>
	<path class="st0" d="M252.7,340.5c-0.1,4.1-3.7,7.4-7.9,7.2c-4.1-0.2-7.1-3.3-7-7.5c0.1-4.3,3.4-7.4,7.7-7.2
		C249.6,333.3,252.8,336.6,252.7,340.5z"/>
	<path class="st0" d="M193.4,333.1c4.2-0.1,7.7,3.4,7.6,7.5c-0.1,3.9-3.4,7.2-7.4,7.2c-4.3,0.1-7.6-3.1-7.5-7.5
		C186.2,336.2,189.3,333.1,193.4,333.1z"/>
</g>
</svg>
