<svg height="512" width="512" xmlns="http://www.w3.org/2000/svg"><linearGradient id="a" gradientUnits="userSpaceOnUse" x1="53.976" x2="458.024" y1="256" y2="256"><stop offset="0" stop-color="#ffdbed"/><stop offset="1" stop-color="#dcfdee"/></linearGradient><path d="M170.091.39C102.031 4.825 35.873 61.517 58.5 135.463c18.265 59.691 84.702 87.73 134.671 115.676 47.928 26.805 98.6 60.229 112.037 117.192 9.247 39.199-2.084 84.916 22.012 117.187 42.331 56.693 124.077 13.634 130.314-47.258 5.176-50.542-31.51-94.701-65.828-132.165-33.267-36.317-70.462-71.374-99.992-110.843-27.345-36.55-41.639-81.985-5.379-118.188 8.145-8.132 17.848-16.505 14.872-29.734C291.437 3.936 203.39-1.779 170.091.39z" fill="url(#a)"/><g fill="#2626bc" opacity=".15"><path d="m401.684 133.747 21.286 4.92a4.998 4.998 0 0 0 5.678-2.804l1.396-3.075 20.944 4.264c2.708.553 5.346-1.196 5.897-3.902a5 5 0 0 0-3.902-5.897l-24.847-5.058a5 5 0 0 0-5.55 2.832l-1.352 2.976-17.299-3.999a5 5 0 0 0-2.251 9.743zM402.815 109.079c.904 0 1.82-.245 2.644-.759l18.53-11.572a5 5 0 0 0 2.033-5.998l-1.187-3.162 17.825-11.795a5 5 0 1 0-5.518-8.34l-21.146 13.993a5.001 5.001 0 0 0-1.922 5.927l1.148 3.06-15.06 9.404a5.002 5.002 0 0 0 2.653 9.242zM415.995 179.446l21.146 13.993a4.996 4.996 0 0 0 6.929-1.41 5 5 0 0 0-1.411-6.929l-17.825-11.795 1.187-3.162a5 5 0 0 0-2.033-5.998l-18.53-11.572a4.999 4.999 0 1 0-5.297 8.481l15.06 9.405-1.148 3.06a5.001 5.001 0 0 0 1.922 5.927zM114.451 414.252l-21.286-4.92a4.998 4.998 0 0 0-5.678 2.804l-1.396 3.075-20.944-4.264c-2.712-.554-5.346 1.196-5.897 3.902a5 5 0 0 0 3.902 5.897l24.847 5.058a4.998 4.998 0 0 0 5.55-2.832l1.352-2.976 17.299 3.999a5.003 5.003 0 0 0 5.998-3.746 5.001 5.001 0 0 0-3.747-5.997zM110.677 439.68l-18.53 11.572a5 5 0 0 0-2.033 5.998l1.187 3.162-17.825 11.795a5 5 0 1 0 5.518 8.339l21.146-13.993a5.001 5.001 0 0 0 1.922-5.927l-1.148-3.06 15.06-9.404a5 5 0 1 0-5.297-8.482zM100.14 368.554l-21.146-13.993a5 5 0 1 0-5.518 8.34l17.825 11.795-1.187 3.162a5 5 0 0 0 2.033 5.998l18.53 11.572a4.997 4.997 0 0 0 6.89-1.592 5 5 0 0 0-1.592-6.889l-15.06-9.405 1.148-3.06a5.003 5.003 0 0 0-1.923-5.928z"/><path d="M380.209 269h-20.762v-2c0-8.271-6.729-15-15-15H171.688c-8.271 0-15 6.729-15 15v2h-20.762c-36.821 0-66.777-29.956-66.777-66.777s29.956-66.777 66.777-66.777h24.56v1.378c0 8.271 6.729 15 15 15h11.544v12.945a15.16 15.16 0 0 0 11.782 14.831s158.065 36.876 159.432 36.876c19.998 0 25.281-56.274 25.281-86.03s-5.284-86.03-25.281-86.03h-.006l-.024.001c-1.356.004-159.402 36.874-159.402 36.874a15.16 15.16 0 0 0-11.782 14.831v12.946h-11.544c-8.271 0-15 6.729-15 15v1.378h-24.56c-42.335 0-76.777 34.442-76.777 76.777S93.592 279 135.927 279h20.762v2c0 8.271 6.729 15 15 15h172.759c8.271 0 15-6.729 15-15v-2h20.762c36.821 0 66.777 29.956 66.777 66.777s-29.956 66.777-66.777 66.777h-24.56v-1.378c0-8.271-6.729-15-15-15h-11.544V383.23a15.16 15.16 0 0 0-11.782-14.831s-158.023-36.865-159.365-36.873l-.066-.003h-.001c-19.998 0-25.281 56.274-25.281 86.03s5.284 86.03 25.281 86.03c1.367 0 159.433-36.875 159.433-36.875a15.16 15.16 0 0 0 11.782-14.831v-12.946h11.544c8.271 0 15-6.729 15-15v-1.378h24.56c42.335 0 76.777-34.442 76.777-76.777S422.544 269 380.209 269z"/></g><path d="M210.242 122.824h-34.756c-5.523 0-10-4.477-10-10v-12.756c0-5.523 4.477-10 10-10h34.756z" fill="#6583fe"/><path d="M192.03 72.122v68.648c0 4.756 3.28 8.884 7.913 9.96l158.302 36.746V25.416L199.943 62.162a10.226 10.226 0 0 0-7.913 9.96z" fill="#fff"/><g fill="#ff7eb8"><path d="M250.704 64.527c0 12.085-9.795 21.886-21.881 21.886s-21.886-9.8-21.886-21.886c0-1.396.128-2.756.383-4.08l39.007-9.054a21.812 21.812 0 0 1 4.377 13.134zM332.742 37.534c0 12.085-9.795 21.881-21.881 21.881-10.761 0-19.708-7.766-21.538-18l42.586-9.882c.541 1.906.833 3.92.833 6.001zM252.923 147.285a21.804 21.804 0 0 1-5.47 14.473l-37.524-8.711a21.854 21.854 0 0 1-.767-5.762c0-12.085 9.795-21.886 21.881-21.886 12.085 0 21.88 9.801 21.88 21.886z"/><circle cx="332.742" cy="143.579" r="21.883"/></g><ellipse cx="358.245" cy="106.446" fill="#6583fe" rx="20.281" ry="81.03"/><path d="M378.526 106.446c0 44.75-9.08 81.03-20.28 81.03-3.7 0-7.16-3.95-10.14-10.85-6.06-14.02-10.14-40.2-10.14-70.18s4.08-56.16 10.14-70.18c2.98-6.9 6.44-10.85 10.14-10.85 11.2 0 20.28 36.28 20.28 81.03z" fill="#6583fe"/><ellipse cx="348.106" cy="106.446" fill="#4369fd" rx="10.14" ry="70.18"/><circle cx="280.017" cy="103.517" fill="#ff7eb8" r="21.883"/><path d="M305.893 377.176h34.756c5.523 0 10 4.477 10 10v12.756c0 5.523-4.477 10-10 10h-34.756z" fill="#6583fe"/><path d="M324.105 427.878V359.23c0-4.756-3.28-8.884-7.913-9.96L157.89 312.524v162.06l158.302-36.746a10.226 10.226 0 0 0 7.913-9.96z" fill="#fff"/><g fill="#ff7eb8"><path d="M265.431 435.473c0-12.085 9.795-21.886 21.881-21.886s21.886 9.8 21.886 21.886c0 1.396-.128 2.756-.383 4.08l-39.007 9.054a21.812 21.812 0 0 1-4.377-13.134zM183.394 462.466c0-12.085 9.795-21.881 21.881-21.881 10.761 0 19.708 7.766 21.538 18l-42.586 9.882a21.915 21.915 0 0 1-.833-6.001zM263.212 352.715a21.804 21.804 0 0 1 5.47-14.473l37.524 8.711c.501 1.835.767 3.768.767 5.762 0 12.085-9.795 21.886-21.881 21.886-12.084 0-21.88-9.801-21.88-21.886z"/><circle cx="183.394" cy="356.421" r="21.883"/></g><ellipse cx="157.89" cy="393.554" fill="#6583fe" rx="20.281" ry="81.03"/><path d="M137.609 393.554c0-44.75 9.08-81.03 20.28-81.03 3.7 0 7.16 3.95 10.14 10.85 6.06 14.02 10.14 40.2 10.14 70.18s-4.08 56.16-10.14 70.18c-2.98 6.9-6.44 10.85-10.14 10.85-11.2 0-20.28-36.28-20.28-81.03z" fill="#6583fe"/><ellipse cx="168.029" cy="393.554" fill="#4369fd" rx="10.14" ry="70.18"/><circle cx="236.118" cy="396.483" fill="#ff7eb8" r="21.883"/><path d="M344.447 267H171.688c-5.523 0-10-4.477-10-10v-14c0-5.523 4.477-10 10-10h172.759c5.523 0 10 4.477 10 10v14c0 5.523-4.477 10-10 10z" fill="#ff7eb8"/><path d="M451.986 249a5 5 0 0 1-5-5c0-3.309-2.691-6-6-6a5 5 0 0 1 0-10c3.309 0 6-2.691 6-6a5 5 0 0 1 10 0c0 3.309 2.691 6 6 6a5 5 0 0 1 0 10c-3.309 0-6 2.691-6 6a5 5 0 0 1-5 5z" fill="#01eca5"/><path d="M129.327 63.624a5 5 0 0 1-5-5c0-3.309-2.691-6-6-6a5 5 0 0 1 0-10c3.309 0 6-2.691 6-6a5 5 0 0 1 10 0c0 3.309 2.691 6 6 6a5 5 0 0 1 0 10c-3.309 0-6 2.691-6 6a5 5 0 0 1-5 5z" fill="#6583fe"/><path d="M60.014 314.68a5 5 0 0 1-5-5c0-3.309-2.691-6-6-6a5 5 0 0 1 0-10c3.309 0 6-2.691 6-6a5 5 0 0 1 10 0c0 3.309 2.691 6 6 6a5 5 0 0 1 0 10c-3.309 0-6 2.691-6 6a5 5 0 0 1-5 5zM378.526 470.526a4.987 4.987 0 0 1-3.536-1.464l-11-11a5 5 0 0 1 0-7.071l11-11a5.001 5.001 0 0 1 7.071 0l11 11a5 5 0 0 1 0 7.071l-11 11a4.983 4.983 0 0 1-3.535 1.464zm-3.929-16 3.929 3.929 3.929-3.929-3.929-3.929z" fill="#ff7eb8"/><path d="M389.526 328.524a4.987 4.987 0 0 1-3.536-1.464l-11-11a5 5 0 0 1 0-7.071l11-11a5.001 5.001 0 0 1 7.071 0l11 11a5 5 0 0 1 0 7.071l-11 11a4.983 4.983 0 0 1-3.535 1.464zm-3.929-16 3.929 3.929 3.929-3.929-3.929-3.929z" fill="#6583fe"/><g fill="#2626bc"><path d="m401.684 109.748 21.286 4.92a4.998 4.998 0 0 0 5.678-2.804l1.396-3.075 20.944 4.264a5 5 0 1 0 1.995-9.799l-24.847-5.058a5 5 0 0 0-5.55 2.832l-1.352 2.976-17.299-3.999a5.002 5.002 0 0 0-5.998 3.746 5.003 5.003 0 0 0 3.747 5.997zM402.815 85.079c.904 0 1.82-.245 2.644-.759l18.53-11.572a5 5 0 0 0 2.033-5.998l-1.187-3.162 17.825-11.794a5 5 0 1 0-5.518-8.34l-21.146 13.993a5 5 0 0 0-1.922 5.927l1.148 3.06-15.06 9.404a5.002 5.002 0 0 0 2.653 9.241zM423.989 140.145l-18.53-11.572a5 5 0 1 0-5.297 8.481l15.06 9.405-1.148 3.06a5 5 0 0 0 1.922 5.927l21.146 13.993a4.996 4.996 0 0 0 6.929-1.41 5 5 0 0 0-1.411-6.929l-17.825-11.794 1.187-3.162a5 5 0 0 0-2.033-5.999z"/><path d="m158.539 469.3-.905.21c-1.094-.467-4.436-3.634-7.833-14.799-3.45-11.338-5.854-27.252-6.77-44.809-.144-2.758-2.5-4.887-5.253-4.733a5 5 0 0 0-4.733 5.253c.602 11.542 4.627 69.095 24.813 69.159l.029.002c.021 0 .042-.003.062-.004a10.262 10.262 0 0 0 3.838-.769l155.537-36.104a15.16 15.16 0 0 0 11.782-14.831v-12.946h11.544c8.271 0 15-6.729 15-15v-1.378h24.56c42.335 0 76.777-34.442 76.777-76.777S422.544 245 380.209 245h-20.762v-2c0-8.271-6.729-15-15-15H239.164a5 5 0 0 0 0 10h105.284c2.757 0 5 2.243 5 5v14c0 2.757-2.243 5-5 5h-172.76c-2.757 0-5-2.243-5-5v-14c0-2.757 2.243-5 5-5h33.815a5 5 0 0 0 0-10h-33.815c-8.271 0-15 6.729-15 15v2h-20.762c-36.821 0-66.777-29.956-66.777-66.777s29.956-66.777 66.777-66.777h24.56v1.378c0 8.271 6.729 15 15 15h11.544v12.945a15.159 15.159 0 0 0 11.782 14.831l155.537 36.105c1.215.492 2.492.761 3.838.769.021 0 .042.004.062.004l.028-.002c19.97-.062 25.248-56.289 25.248-86.029 0-29.756-5.284-86.03-25.281-86.03-.028 0-.055.003-.083.004l-.106.005a10.289 10.289 0 0 0-3.708.763L198.812 57.292a15.16 15.16 0 0 0-11.782 14.831v12.946h-11.544c-8.271 0-15 6.729-15 15v1.378h-24.56c-42.335 0-76.777 34.442-76.777 76.777S93.591 255 135.926 255h20.762v2c0 8.271 6.729 15 15 15h172.759c8.271 0 15-6.729 15-15v-2h20.762c36.821 0 66.777 29.956 66.777 66.777s-29.956 66.777-66.777 66.777h-24.56v-1.378c0-8.271-6.729-15-15-15h-11.544V359.23a15.16 15.16 0 0 0-11.782-14.831l-155.539-36.105a10.288 10.288 0 0 0-3.7-.762c-.039-.001-.078-.005-.117-.005-.026 0-.051-.003-.077-.003-20.117 0-24.205 57.237-24.82 68.711a5 5 0 1 0 9.985.535c.936-17.453 3.346-33.258 6.786-44.505 3.384-11.064 6.705-14.204 7.793-14.668l.903.21c1.609 1.102 5.366 5.77 8.843 19.664 3.734 14.919 5.791 34.836 5.791 56.083s-2.057 41.164-5.791 56.083c-3.476 13.89-7.231 18.56-8.841 19.663zM367.736 50.363c3.734 14.919 5.791 34.836 5.791 56.083s-2.057 41.164-5.791 56.083c-3.789 15.137-7.907 19.323-9.22 19.877l-.919-.213c-1.61-1.104-5.366-5.773-8.842-19.664-3.734-14.919-5.791-34.836-5.791-56.083s2.057-41.164 5.791-56.083c3.477-13.891 7.232-18.56 8.842-19.664l.919-.213c1.313.555 5.431 4.74 9.22 19.877zM197.03 72.122a5.201 5.201 0 0 1 4.043-5.089L343.725 33.92c-8.22 18.534-10.761 51.899-10.761 72.526s2.541 53.993 10.761 72.527l-142.651-33.114a5.201 5.201 0 0 1-4.043-5.089V72.122zm-26.544 27.946c0-2.757 2.243-5 5-5h11.544v22.756h-11.544c-2.757 0-5-2.243-5-5zm170.163 282.108c2.757 0 5 2.243 5 5v12.756c0 2.757-2.243 5-5 5h-11.544v-22.756zm-168.238-61.148 142.651 33.114a5.202 5.202 0 0 1 4.043 5.089v68.647a5.201 5.201 0 0 1-4.043 5.089L172.411 466.08c8.22-18.534 10.761-51.899 10.761-72.526-.001-20.627-2.542-53.993-10.761-72.526z"/><path d="m114.452 390.252-21.286-4.92a4.999 4.999 0 0 0-5.678 2.804l-1.397 3.075-20.944-4.264a4.997 4.997 0 0 0-5.897 3.902 5 5 0 0 0 3.902 5.897l24.847 5.058a5 5 0 0 0 5.55-2.832l1.352-2.976 17.299 3.999a5.001 5.001 0 0 0 5.998-3.746 5.002 5.002 0 0 0-3.746-5.997zM117.567 417.273a5.002 5.002 0 0 0-6.89-1.593l-18.53 11.572a5 5 0 0 0-2.033 5.998l1.187 3.162-17.825 11.795a5 5 0 1 0 5.518 8.339l21.146-13.993a5.001 5.001 0 0 0 1.922-5.927l-1.148-3.06 15.06-9.404a5 5 0 0 0 1.593-6.889zM100.141 344.555l-21.146-13.993a5 5 0 1 0-5.518 8.34l17.825 11.795-1.187 3.162a5 5 0 0 0 2.033 5.998l18.53 11.572a4.997 4.997 0 0 0 6.89-1.592 5 5 0 0 0-1.592-6.889l-15.06-9.405 1.148-3.06a5.005 5.005 0 0 0-1.923-5.928z"/></g></svg>