<svg version="1.1" id="Layer_1" xmlns="http://www.w3.org/2000/svg" x="0" y="0" viewBox="0 0 512 512" style="enable-background:new 0 0 512 512" xml:space="preserve"><style>.st1{fill:#fff}</style><path d="M256 512C114.6 512 0 397.4 0 256S114.6 0 256 0s256 114.6 256 256-114.6 256-256 256z" style="fill:#004999"/><path class="st1" d="M93.7 254.6h73.1c-18.6-31.7-23.2-63.7-12-97.5 7.8-23.5 22.3-42.2 42.6-56.1 40.6-27.7 94.6-24.9 132 6.7 42 35.5 49.6 83.9 22.5 146.1H387c.4-7 .8-14.3 1.2-22.7 2.5 1.5 4.1 2.4 5.6 3.5 19.3 14.5 38.5 29.1 58.9 44.6-21.6 16.3-42.3 31.9-64.9 49v-23.6H284.3v10.9c3.4.5 6.9.9 11.3 1.5v22.9c4.3.5 7.7.8 11.9 1.3.2 3.6.3 7.1.5 11.1-3.9.6-7.4 1.1-12.1 1.8v44.8c0 8.9.2 17.7 0 26.6-.5 22.3-16.7 38.9-37.3 38.6-20.4-.3-36.1-16.7-36.3-38.6-.3-23.6-.1-47.2-.1-71.5-4.1-.4-7.5-.8-11.5-1.3v-11.2c3.3-.5 6.8-1 11.2-1.6v-22.7c4.2-.6 7.6-1.1 12.1-1.7.2-3.3.3-6.7.5-11.3H69.8c-.2-4.4-.4-7.8-.7-12.6h136.5c-9.9-8.5-18.1-15.9-26.7-22.6-2.2-1.7-6-2-9.1-2.1-24.8-.2-49.5-.1-75.3-.1-.3-3.8-.5-7.2-.8-12.2zm206.6 0c10.5 0 18.5-.4 26.5.1 6.4.4 10.2-1.9 13.5-7.2 14-22.3 19.4-46.2 14.8-72.4-8.2-47.5-53-83.8-100.1-80.7-51.9 3.4-91.9 43-94 93.2-2.4 57.1 40.4 102.6 98.3 103.5 43.1.7 86.1.2 129.2.2h10.7c.4 4.3.7 7.4 1.1 11.9 11-8.3 21-15.8 31.9-24-11.1-8.4-21.1-15.9-31.9-24.1-.5 4.8-.8 8-1.1 11.3-1.7.2-2.9.6-4.2.6-46 0-92 0-138-.1-3.9 0-7.8-.8-11.6-1.4-40.1-7.3-66.7-46.8-58.6-87.2 8.2-41 48.7-66.8 89.6-57 39.4 9.4 63.8 50.9 53.4 90.5-4.3 16.9-14.3 30.1-29.5 42.8zm-102.4-62c-.1 34 26.8 61.5 60.6 61.9 33.4.4 61.2-27.2 61.4-61 .2-34.4-27.2-62.4-61.1-62.3-33.5 0-60.8 27.6-60.9 61.4zm37.2 161.2c0 26.3-.6 52.1.3 77.9.4 11.4 11.7 19.7 23.1 20 11.7.2 22.6-8.3 24.1-20.1 1.1-8.4.7-17 .8-25.5.1-17.3 0-34.5 0-52.2-16.8-.1-32.2-.1-48.3-.1zm.2-25.5v11.6h47.3v-11.6h-47.3zm12-12.8H271c-.2-4.2-.4-7.6-.5-10.8h-23.2v10.8z"/><path class="st1" d="M136.7 184.2c-.2 3.8-.4 6.3-.6 9.5-3.7.2-7.1.4-11.2.6V183c4.1.4 7.4.7 11.8 1.2zM381.8 193.6c-.2-3.2-.3-6-.4-9.4 4-.4 7.4-.8 11.6-1.2.3 3.8.6 6.9 1 10.6h-12.2zM68.9 255.4c2.6-.3 4.1-.7 5.6-.7 1.9 0 3.7.3 6.1.4v11.2H69.4c-.1-3.5-.2-6.7-.5-10.9zM125.9 170.9c.8-3.3 1.5-6.6 2.3-10.3 3.9.9 7 1.7 10 2.4.9 10.7.5 11.1-12.3 7.9zM378.6 164c1.1-.7 1.5-1.1 2.1-1.3 2.5-.7 5-1.3 8.8-2.2.8 3.4 1.6 6.6 2.3 9.8-11.3 4-11.6 3.9-13.2-6.3zM145.8 144.4c-.9 2.5-1.8 5.2-2.9 8.6-3.7-1.1-7-2.1-10.2-3 1.5-12.3 1.7-12.4 13.1-5.6zM386.6 149.3c-4.2 1.5-7.2 2.5-11.1 3.9-1.3-3-2.5-5.8-4-9.3 3.8-1.7 7-3.1 10.8-4.9 1.4 3.5 2.6 6.4 4.3 10.3zM233.1 151.3c2.2 3.5 4.1 6.5 5.9 9.4-20.2 20-22 34.5-6.6 59-2.4 2-5.1 4.2-7.8 6.3-22.7-17.2-18.7-55.8 8.5-74.7zM247.9 157c-1.2-4.2-2.1-7.2-3.3-11.4 4.7-.8 8.7-1.5 13.6-2.3v12.3c-3.1.4-6.3.9-10.3 1.4z"/></svg>