<?xml version="1.0" encoding="utf-8"?>
<!-- Generator: Adobe Illustrator 26.0.1, SVG Export Plug-In . SVG Version: 6.00 Build 0)  -->
<svg version="1.1" id="Layer_1" xmlns="http://www.w3.org/2000/svg" xmlns:xlink="http://www.w3.org/1999/xlink" x="0px" y="0px"
	 viewBox="0 0 512 512" style="enable-background:new 0 0 512 512;" xml:space="preserve">
<style type="text/css">
	.st0{fill:#004999;}
	.st1{fill:#FFFFFF;}
</style>
<path class="st0" d="M256,512L256,512C114.6,512,0,397.4,0,256l0,0C0,114.6,114.6,0,256,0l0,0c141.4,0,256,114.6,256,256l0,0
	C512,397.4,397.4,512,256,512z"/>
<path class="st1" d="M93.7,254.6c24.8,0,48.1,0,73.1,0c-18.6-31.7-23.2-63.7-12-97.5c7.8-23.5,22.3-42.2,42.6-56.1
	c40.6-27.7,94.6-24.9,132,6.7c42,35.5,49.6,83.9,22.5,146.1c11.5,0,22.7,0,35.1,0c0.4-7,0.8-14.3,1.2-22.7c2.5,1.5,4.1,2.4,5.6,3.5
	c19.3,14.5,38.5,29.1,58.9,44.6c-21.6,16.3-42.3,31.9-64.9,49c0-9.2,0-16.2,0-23.6c-35.2,0-69,0-103.5,0c0,3.6,0,6.9,0,10.9
	c3.4,0.5,6.9,0.9,11.3,1.5c0,7.4,0,14.8,0,22.9c4.3,0.5,7.7,0.8,11.9,1.3c0.2,3.6,0.3,7.1,0.5,11.1c-3.9,0.6-7.4,1.1-12.1,1.8
	c0,14.8,0,29.8,0,44.8c0,8.9,0.2,17.7,0,26.6c-0.5,22.3-16.7,38.9-37.3,38.6c-20.4-0.3-36.1-16.7-36.3-38.6
	c-0.3-23.6-0.1-47.2-0.1-71.5c-4.1-0.4-7.5-0.8-11.5-1.3c0-3.7,0-7.2,0-11.2c3.3-0.5,6.8-1,11.2-1.6c0-7.3,0-14.7,0-22.7
	c4.2-0.6,7.6-1.1,12.1-1.7c0.2-3.3,0.3-6.7,0.5-11.3c-55.1,0-109.4,0-164.7,0c-0.2-4.4-0.4-7.8-0.7-12.6c45.4,0,90.1,0,136.5,0
	c-9.9-8.5-18.1-15.9-26.7-22.6c-2.2-1.7-6-2-9.1-2.1c-24.8-0.2-49.5-0.1-75.3-0.1C94.2,263,94,259.6,93.7,254.6z M300.3,254.6
	c10.5,0,18.5-0.4,26.5,0.1c6.4,0.4,10.2-1.9,13.5-7.2c14-22.3,19.4-46.2,14.8-72.4c-8.2-47.5-53-83.8-100.1-80.7
	c-51.9,3.4-91.9,43-94,93.2c-2.4,57.1,40.4,102.6,98.3,103.5c43.1,0.7,86.1,0.2,129.2,0.2c3.5,0,7,0,10.7,0
	c0.4,4.3,0.7,7.4,1.1,11.9c11-8.3,21-15.8,31.9-24c-11.1-8.4-21.1-15.9-31.9-24.1c-0.5,4.8-0.8,8-1.1,11.3c-1.7,0.2-2.9,0.6-4.2,0.6
	c-46,0-92,0-138-0.1c-3.9,0-7.8-0.8-11.6-1.4c-40.1-7.3-66.7-46.8-58.6-87.2c8.2-41,48.7-66.8,89.6-57c39.4,9.4,63.8,50.9,53.4,90.5
	C325.5,228.7,315.5,241.9,300.3,254.6z M197.9,192.6c-0.1,34,26.8,61.5,60.6,61.9c33.4,0.4,61.2-27.2,61.4-61
	c0.2-34.4-27.2-62.4-61.1-62.3C225.3,131.2,198,158.8,197.9,192.6z M235.1,353.8c0,26.3-0.6,52.1,0.3,77.9
	c0.4,11.4,11.7,19.7,23.1,20c11.7,0.2,22.6-8.3,24.1-20.1c1.1-8.4,0.7-17,0.8-25.5c0.1-17.3,0-34.5,0-52.2
	C266.6,353.8,251.2,353.8,235.1,353.8z M235.3,328.3c0,4.7,0,8,0,11.6c16.2,0,31.7,0,47.3,0c0-4,0-7.4,0-11.6c-3.3,0-5.8,0-8.4,0
	C261.6,328.3,248.9,328.3,235.3,328.3z M247.3,315.5c8.5,0,15.8,0,23.7,0c-0.2-4.2-0.4-7.6-0.5-10.8c-8.4,0-15.8,0-23.2,0
	C247.3,308.6,247.3,311.8,247.3,315.5z"/>
<path class="st1" d="M136.7,184.2c-0.2,3.8-0.4,6.3-0.6,9.5c-3.7,0.2-7.1,0.4-11.2,0.6c0-3.7,0-7,0-11.3
	C129,183.4,132.3,183.7,136.7,184.2z"/>
<path class="st1" d="M381.8,193.6c-0.2-3.2-0.3-6-0.4-9.4c4-0.4,7.4-0.8,11.6-1.2c0.3,3.8,0.6,6.9,1,10.6
	C389.8,193.6,386.4,193.6,381.8,193.6z"/>
<path class="st1" d="M68.9,255.4c2.6-0.3,4.1-0.7,5.6-0.7c1.9,0,3.7,0.3,6.1,0.4c0,3.9,0,7.3,0,11.2c-3.9,0-7.2,0-11.2,0
	C69.3,262.8,69.2,259.6,68.9,255.4z"/>
<path class="st1" d="M125.9,170.9c0.8-3.3,1.5-6.6,2.3-10.3c3.9,0.9,7,1.7,10,2.4C139.1,173.7,138.7,174.1,125.9,170.9z"/>
<path class="st1" d="M378.6,164c1.1-0.7,1.5-1.1,2.1-1.3c2.5-0.7,5-1.3,8.8-2.2c0.8,3.4,1.6,6.6,2.3,9.8
	C380.5,174.3,380.2,174.2,378.6,164z"/>
<path class="st1" d="M145.8,144.4c-0.9,2.5-1.8,5.2-2.9,8.6c-3.7-1.1-7-2.1-10.2-3C134.2,137.7,134.4,137.6,145.8,144.4z"/>
<path class="st1" d="M386.6,149.3c-4.2,1.5-7.2,2.5-11.1,3.9c-1.3-3-2.5-5.8-4-9.3c3.8-1.7,7-3.1,10.8-4.9
	C383.7,142.5,384.9,145.4,386.6,149.3z"/>
<path class="st1" d="M233.1,151.3c2.2,3.5,4.1,6.5,5.9,9.4c-20.2,20-22,34.5-6.6,59c-2.4,2-5.1,4.2-7.8,6.3
	C201.9,208.8,205.9,170.2,233.1,151.3z"/>
<path class="st1" d="M247.9,157c-1.2-4.2-2.1-7.2-3.3-11.4c4.7-0.8,8.7-1.5,13.6-2.3c0,4.3,0,8,0,12.3
	C255.1,156,251.9,156.5,247.9,157z"/>
</svg>
