<svg height="512" width="512" xmlns="http://www.w3.org/2000/svg"><path clip-rule="evenodd" d="M262.86 398.169V146.883c0-9.127-7.483-16.611-16.61-16.611H29.125c-9.127 0-16.61 7.483-16.61 16.611V398.17H262.86zM190.324 215.99H85.05c-10.998 0-19.983-8.986-19.983-19.984s8.985-20.012 19.983-20.012h105.274c10.998 0 19.983 9.014 19.983 20.012s-8.985 19.984-19.983 19.984z" fill="#a0c8ff" fill-rule="evenodd"/><path clip-rule="evenodd" d="M210.308 196.006c0-10.998-8.985-20.012-19.983-20.012H85.05c-10.998 0-19.983 9.014-19.983 20.012s8.985 19.984 19.983 19.984h105.274c10.998 0 19.984-8.986 19.984-19.984z" fill="#fff" fill-rule="evenodd"/><path clip-rule="evenodd" d="M453.764 502V273.787H262.86V433.29c0 9.156-7.483 16.639-16.61 16.639h-12.358v29.196c0 12.586-10.289 22.875-22.875 22.875h3.203zM346.818 314.208l49.547 22.478-16.922 37.275-49.519-22.478zm-7.37 99.551c12.925 0 23.385 10.488 23.385 23.414 0 12.897-10.459 23.385-23.385 23.385-12.925 0-23.413-10.488-23.413-23.385 0-12.926 10.488-23.414 23.413-23.414z" fill="#ffcd69" fill-rule="evenodd"/><path clip-rule="evenodd" d="M262.86 433.289v-35.121H12.515v35.121c0 9.156 7.483 16.639 16.61 16.639h217.124c9.127.001 16.611-7.483 16.611-16.639z" fill="#dfedff" fill-rule="evenodd"/><path clip-rule="evenodd" d="M233.891 479.125v-29.196H188.17v29.196c0 12.586 10.289 22.875 22.846 22.875 12.586 0 22.875-10.29 22.875-22.875zM87.205 479.125v-29.196H41.484v29.196C41.484 491.71 51.773 502 64.358 502c12.557 0 22.847-10.29 22.847-22.875z" fill="#89a7bc" fill-rule="evenodd"/><path clip-rule="evenodd" d="M499.485 475.922V299.865c0-14.343-11.735-26.078-26.049-26.078h-19.672V502h19.672c14.314 0 26.049-11.735 26.049-26.078z" fill="#ffe6b4" fill-rule="evenodd"/><path clip-rule="evenodd" d="m396.365 336.687-49.547-22.479-16.894 37.275 49.519 22.479z" fill="#dfedff" fill-rule="evenodd"/><path clip-rule="evenodd" d="M362.833 437.173c0-12.926-10.459-23.414-23.385-23.414-12.925 0-23.413 10.488-23.413 23.414 0 12.897 10.488 23.385 23.413 23.385 12.926 0 23.385-10.488 23.385-23.385z" fill="#d5ea7a" fill-rule="evenodd"/><path d="M473.436 263.787h-38.641v-27.02c0-15.173-12.344-27.518-27.517-27.518H272.859v-62.367c0-14.673-11.938-26.611-26.61-26.611H216.68V36.985C216.68 16.592 200.089 0 179.695 0H95.68C75.286 0 58.695 16.592 58.695 36.985v83.286h-29.57c-14.673 0-26.609 11.938-26.609 26.611v99.891c0 5.523 4.478 10 10 10s10-4.477 10-10v-99.891c0-3.583 3.026-6.611 6.609-6.611h217.124c3.583 0 6.61 3.027 6.61 6.611v241.287H22.516v-51.567c0-5.523-4.478-10-10-10s-10 4.477-10 10v96.688c0 14.689 11.937 26.639 26.609 26.639h2.359v19.196c0 18.127 14.747 32.875 32.874 32.875 18.111 0 32.847-14.748 32.847-32.875v-19.196h80.965v19.196c0 18.127 14.735 32.875 32.847 32.875h262.419c19.877 0 36.049-16.185 36.049-36.078V299.865c-.001-19.893-16.173-36.078-36.049-36.078zM196.68 120.271H78.695V36.985C78.695 27.62 86.314 20 95.68 20h84.016c9.365 0 16.984 7.62 16.984 16.985zm76.179 108.979h134.419c4.145 0 7.517 3.373 7.517 7.518v27.02H272.859zM77.205 479.125c0 7.099-5.763 12.875-12.847 12.875-7.099 0-12.874-5.776-12.874-12.875v-19.196h25.721zm-48.08-39.196c-3.583 0-6.609-3.041-6.609-6.639v-25.121H252.86v25.121c0 3.599-3.027 6.639-6.61 6.639zm194.766 39.196c0 7.099-5.775 12.875-12.874 12.875-7.084 0-12.847-5.776-12.847-12.875v-19.196h25.721zM443.764 492H241.262a32.698 32.698 0 0 0 2.629-12.875v-19.196h2.358c14.673 0 26.61-11.95 26.61-26.639V283.787h170.904V492zm45.72-16.078c0 8.866-7.199 16.078-16.049 16.078h-9.672V283.787h9.672c8.85 0 16.049 7.212 16.049 16.078z"/><path d="M75.073 245.986c-5.522 0-10 4.477-10 10s4.478 10 10 10H200.33c5.522 0 10-4.477 10-10s-4.478-10-10-10zM220.308 196.006c0-16.549-13.45-30.012-29.983-30.012H85.051c-16.533 0-29.983 13.463-29.983 30.012 0 16.533 13.45 29.984 29.983 29.984h105.273c16.533 0 29.984-13.451 29.984-29.984zm-29.984 9.984H85.051c-5.505 0-9.983-4.479-9.983-9.984 0-5.521 4.479-10.012 9.983-10.012h105.273c5.505 0 9.983 4.492 9.983 10.012.001 5.505-4.478 9.984-9.983 9.984zM325.79 360.589l49.52 22.478a10 10 0 0 0 13.239-4.973l16.922-37.275a10.003 10.003 0 0 0-4.973-13.241L350.95 305.1a10.003 10.003 0 0 0-13.24 4.979l-16.894 37.275c-2.279 5.03-.052 10.953 4.974 13.235zm26.006-33.141 31.329 14.212-8.653 19.062-31.314-14.214zM339.448 470.558c18.408 0 33.385-14.977 33.385-33.385 0-18.424-14.977-33.414-33.385-33.414-18.424 0-33.413 14.989-33.413 33.414 0 18.409 14.989 33.385 33.413 33.385zm0-46.799c7.381 0 13.385 6.017 13.385 13.414 0 7.381-6.004 13.385-13.385 13.385-7.396 0-13.413-6.004-13.413-13.385 0-7.397 6.018-13.414 13.413-13.414zM12.516 301.702c5.522 0 10-4.505 10-10.028s-4.478-10-10-10-10 4.477-10 10v.057c0 5.522 4.477 9.971 10 9.971z"/></svg>