<svg xmlns="http://www.w3.org/2000/svg" viewBox="0 0 62 62" xml:space="preserve"><switch><g><path fill="none" stroke="#1D1D1B" stroke-width=".001" stroke-miterlimit="10" d="M0 0h62v62H0z"/><g fill="#3F3F3F"><path d="M52.93 44.467c-.617.862-1.197 1.753-1.867 2.57-.245.3-.7.607-1.06.607-12.65.031-25.301.03-37.952.004-.343 0-.701-.311-1.02-.524-.15-.1-.207-.33-.339-.469-1.67-1.764-1.816-3.897-1.467-6.225l1.743-.108v-27.22h40.095V40.38h1.866v4.088zm-3.725-4.138V14.938H12.833v25.391h36.372zm-38.15 1.913c-.506 1.252.268 2.064.828 2.958.283.452.587.666 1.156.665 11.994-.018 23.988-.013 35.982-.018.25 0 .63.022.728-.119.71-1.03 1.796-1.94 1.273-3.486H11.055z"/><path d="M46.484 22.234v1.653h-13.54v-1.653h13.54zM15.57 37.59v-1.65H29.12v1.65H15.57zM15.571 23.896v-1.671h9.867v1.671h-9.867zM33.672 26.8v1.663H22.908V26.8h10.764zM38.715 38.889l-1.66-.687 3.629-9.072 1.657.679-3.626 9.08zM31.786 33.908l3.68-3.632 1.048 1.348-2.506 2.357 2.67 2.462-1.194 1.204-3.698-3.74zM45.422 33.994l-2.775-2.463 1.25-1.198 3.655 3.678-3.661 3.718-1.183-1.35 2.715-2.385zM23.695 17.655v1.654h-8.093v-1.654h8.093zM15.576 32.976v-1.65h8.081v1.65h-8.08zM15.57 28.446V26.8h5.365v1.646h-5.364zM25.618 19.312v-1.646h4.446v1.646h-4.446zM25.648 32.959V31.31h4.42v1.649h-4.42zM30.939 23.918h-3.454v-1.685h3.454v1.685zM38.295 26.792v1.662h-2.639v-1.662h2.639zM28.164 44.868H26.51v-1.703h1.653v1.703zM31.843 44.877h-1.646V43.18h1.646v1.697zM33.846 44.852v-1.68h1.688v1.68h-1.688z"/></g></g></switch></svg>