<svg version="1.1" id="Capa_1" xmlns="http://www.w3.org/2000/svg" x="0" y="0" viewBox="0 0 512 512" style="enable-background:new 0 0 512 512" xml:space="preserve"><style>.st0{fill:#004999}.st1{fill:#e43c5c}</style><path class="st0" d="M111.4 512c-6.1-2.3-9.7-7-12.8-12.5-22.5-39.3-45.1-78.5-67.7-117.7-7-12.2-4.9-19.8 7.3-26.9 16.8-9.7 33.7-19.5 50.5-29.2 12.4-7.1 19.9-5.1 27.1 7.5 1.1 1.8 2.2 3.6 3.5 5.7 16-8.3 31.8-16.3 47.6-24.5 11.7-6.1 23.4-11.7 36.7-13.7 14.7-2.2 28.8.8 42.8 4.4 26.9 6.8 53.8 13.7 80.7 20.3 15.4 3.8 25 13.1 28.6 29.4 1.6-1.5 2.9-2.6 4.1-3.8 21.9-21.9 43.7-43.9 65.7-65.7 20.2-20 53-11.7 60.7 15.2 3.8 13.3.9 25.4-8.7 35.1-30.3 30.7-60.7 61.3-91.4 91.5-15.4 15.1-34.5 22.4-56 22.6-26.9.3-53.9.1-80.8.1-4.6 0-9.1-1.2-10.5-5.9-.9-3-.4-6.9.8-9.8 1.7-3.9 5.9-4.3 9.9-4.3 21.3.1 42.6.1 63.9 0 7.3 0 14.6 0 21.9-.5 15.2-1.2 28.2-7.6 38.9-18.3 29.4-29.3 58.6-58.6 87.9-88 7.5-7.5 7.8-17.3 1-24-6.8-6.7-16.5-6.5-24 1-26.9 26.8-53.8 53.6-80.4 80.7-9.1 9.3-19.5 13.7-32.5 13.5-24.8-.3-49.6-.1-74.4-.1h-4c-6.1-.3-10.3-4.4-10.4-9.9 0-5.8 4.3-10 10.7-10 20-.1 39.9 0 59.9 0 4.7 0 9.3.2 14-.1 7.3-.4 12.9-5.7 13.8-12.8.9-6.6-3.2-13.4-10.2-15.2-33.5-8.5-67-16.9-100.6-25-10.9-2.6-22.2-1.4-32.2 3.4-21.3 10.1-42.2 21.1-63.5 31.9 1.1 2 1.9 3.6 2.8 5.2 17.4 30.1 34.7 60.3 52.1 90.4 7 12.1 4.9 19.9-7.3 26.9-15.8 9.1-31.7 18.3-47.5 27.4-3.6 2.1-7.2 4-10.9 5.9-2.4-.2-4.7-.2-7.1-.2zm21.9-31.3c-8.1-14-15.9-27.5-23.7-41.1-3.9-6.7-2.8-12.5 2.7-15.6 5.3-3 10.7-1 14.5 5.4 3.8 6.5 7.5 13 11.2 19.4 4.1 7.2 8.3 14.4 12.6 21.8 5.5-3.2 10.6-6.2 15.9-9.3-22.8-39.6-45.4-78.8-68.1-118.2-17 9.8-33.4 19.4-50 29 22.8 39.6 45.4 78.8 68.1 118.2 5.7-3.2 11-6.3 16.8-9.6z"/><path class="st1" d="M267.1 0c10.7 2.2 21.7 3.4 32.1 6.6 62.4 19.4 104.2 80.2 99.4 144-5 67.3-53.2 120.7-118.9 131.5C199.5 295.4 124 237.2 116.2 156 108.8 79.6 162.5 11.7 238.8 1.2c2.8-.4 5.6-.8 8.3-1.2h20zm-10.3 264c67.2.1 122-54.4 122.1-121.7.1-67.1-54.3-121.9-121.2-122.2-67.1-.3-122.1 54.3-122.3 121.6-.2 67.2 54.3 122.2 121.4 122.3z"/><path class="st0" d="M465.7 0c5.5 3.1 7.6 7.8 7 14.1-.3 3.3.1 6.7-.1 10-.3 5.7-4.6 9.8-9.9 9.8-5.3 0-9.7-4.2-9.9-9.8-.2-4.7 0-9.3-.1-14 0-5 3.4-7.6 7-10.1h6zM512.6 53c-2.8 5.5-7.3 7.7-13.5 7.1-3.4-.3-7 .1-10.4-.1-5.6-.3-9.8-4.5-9.9-9.8 0-5.1 3.9-9.6 9.3-10 5.1-.3 10.5-.9 15.3.2 3.4.8 6.1 4.3 9.2 6.6v6zM472.7 83.4c0 2.3.1 4.7 0 7-.4 5.7-4.6 9.7-10 9.6-5.2-.1-9.5-3.9-9.7-9.4-.3-5-.3-10 0-14.9.3-5.3 4.7-9.4 9.8-9.4 5.1-.1 9.5 3.9 10 9.2.1 2.6-.1 5.3-.1 7.9zM66.1 290.8c0 2.7.2 5.3 0 8-.5 5.4-4.9 9.1-10.1 9-5-.1-9.3-3.8-9.6-9-.3-5.3-.3-10.6 0-15.9.4-5 4.9-8.8 9.8-8.8s9.3 3.8 9.8 8.8c.3 2.5.1 5.2.1 7.9zM429.7 60c-2.5 0-5 .1-7.5 0-5.2-.4-9-4.3-9.4-9.3-.3-5.1 3.3-10 8.6-10.4 5.4-.5 10.9-.4 16.4 0 5.1.4 8.8 5.1 8.7 9.9-.1 5.1-4.1 9.4-9.4 9.8-2.4.1-4.9 0-7.4 0zM41.6 222.7c0-2.5-.2-5 0-7.5.5-5.3 4.9-9.3 10-9.2 4.9.1 9.4 3.8 9.7 8.9.4 5.3.4 10.6 0 15.9-.3 5.1-4.8 8.9-9.7 8.9-5.1.1-9.5-3.9-10-9.2-.2-2.4 0-5.1 0-7.8zM18.2 266c-2.3 0-4.6.1-7 0-5.4-.3-9.4-4.4-9.6-9.6-.2-5.1 3.6-9.8 9-10.2 5.3-.4 10.6-.4 15.9 0 5.3.4 9.1 5.2 8.9 10.3-.3 5.1-4.3 9.2-9.7 9.5-2.5.1-5 0-7.5 0zM84.5 266c-2.5 0-5 .1-7.5 0-5.1-.4-9-4.4-9.3-9.3-.3-4.8 3.2-9.8 8.3-10.3 5.7-.5 11.6-.5 17.3 0 5.1.5 8.4 5.5 8.1 10.4-.4 5-4.2 8.8-9.4 9.2-2.5.1-5 0-7.5 0zM207.6 429.8c5.5.1 9.7 4.4 9.7 9.9 0 5.4-4.5 9.9-9.8 9.9-5.5 0-10.2-4.9-10-10.3.1-5.4 4.6-9.6 10.1-9.5zM87.4 398c0-5.5 4.2-9.9 9.7-10 5.5-.1 10.3 4.7 10.1 10.2-.2 5.3-4.8 9.8-10.1 9.7-5.4 0-9.7-4.4-9.7-9.9z"/><path class="st1" d="M257.2 129.4c2.8-3.5 4.5-5.9 6.4-7.9 17.6-17.7 35.2-35.4 52.9-53.1 1.2-1.2 2.3-2.4 3.6-3.4 4-3.1 9.2-2.8 12.8.6 3.7 3.4 4.2 8.9 1.2 13.2-1 1.3-2.2 2.5-3.3 3.7-21.3 21.3-42.6 42.7-63.9 64-7.5 7.5-11.9 7.6-19.3.1l-37.8-37.8-2.1-2.1c-4.4-4.8-4.7-10.6-.6-14.7 4.1-4.1 10-4.1 14.6.6 10.4 10.3 20.8 20.7 31.1 31.1 1.3 1.2 2.2 2.8 4.4 5.7zM267.1 48.1c0 1.7.1 3.3 0 5-.4 5.3-4.3 9-9.3 9.3-5.1.3-9.6-3.1-10.3-8.2-.5-3.8-.5-7.7-.1-11.5.5-5.1 5.1-8.8 10-8.7 5.2.1 9.3 4.1 9.7 9.5.1 1.6 0 3.1 0 4.6zM163.6 132c1.5 0 3-.1 4.5 0 5.5.4 9.4 4.3 9.5 9.6.1 5.5-3.7 9.8-9.4 10.2-2.8.2-5.7.2-8.5 0-6.1-.3-10.3-4.4-10.3-9.9 0-5.8 4.3-9.8 10.7-10 1.2.1 2.4.1 3.5.1zM247.1 235.7c0-1.5-.1-3 0-4.5.4-5.5 4.3-9.4 9.7-9.4 5.3-.1 9.6 3.5 10.1 9 .3 3.3.3 6.7 0 10-.5 5.7-5 9.5-10.4 9.3-5.2-.3-9-4.2-9.4-9.8v-4.6zM350.9 152.1c-1.7 0-3.3.1-5 0-5.1-.4-8.8-3.9-9.2-8.8-.5-5.2 2.5-9.8 7.7-10.6 4-.6 8.3-.6 12.4-.1 5.2.7 8.5 5.4 8.1 10.4-.4 5.1-4.2 8.8-9.5 9.2-1.5 0-3-.1-4.5-.1z"/></svg>