<?xml version="1.0" encoding="utf-8"?>
<!-- Generator: Adobe Illustrator 26.0.1, SVG Export Plug-In . SVG Version: 6.00 Build 0)  -->
<svg version="1.1" id="Capa_1" xmlns="http://www.w3.org/2000/svg" xmlns:xlink="http://www.w3.org/1999/xlink" x="0px" y="0px"
	 viewBox="0 0 512 512" style="enable-background:new 0 0 512 512;" xml:space="preserve">
<style type="text/css">
	.st0{fill:#FFFFFF;}
</style>
<path class="st0" d="M111.2,512c-6.1-2.3-9.7-7-12.8-12.5C75.9,460.2,53.2,421,30.6,381.8c-7-12.2-4.9-19.8,7.3-26.9
	c16.8-9.7,33.7-19.5,50.5-29.2c12.4-7.1,19.9-5.1,27.1,7.5c1.1,1.8,2.2,3.6,3.5,5.7c16-8.3,31.8-16.3,47.6-24.5
	c11.7-6.1,23.4-11.7,36.7-13.7c14.7-2.2,28.8,0.8,42.8,4.4c26.9,6.8,53.8,13.7,80.7,20.3c15.4,3.8,25,13.1,28.6,29.4
	c1.6-1.5,2.9-2.6,4.1-3.8c21.9-21.9,43.7-43.9,65.7-65.7c20.2-20,53-11.7,60.7,15.2c3.8,13.3,0.9,25.4-8.7,35.1
	c-30.3,30.7-60.7,61.3-91.4,91.5c-15.4,15.1-34.5,22.4-56,22.6c-26.9,0.3-53.9,0.1-80.8,0.1c-4.6,0-9.1-1.2-10.5-5.9
	c-0.9-3-0.4-6.9,0.8-9.8c1.7-3.9,5.9-4.3,9.9-4.3c21.3,0.1,42.6,0.1,63.9,0c7.3,0,14.6,0,21.9-0.5c15.2-1.2,28.2-7.6,38.9-18.3
	c29.4-29.3,58.6-58.6,87.9-88c7.5-7.5,7.8-17.3,1-24c-6.8-6.7-16.5-6.5-24,1c-26.9,26.8-53.8,53.6-80.4,80.7
	c-9.1,9.3-19.5,13.7-32.5,13.5c-24.8-0.3-49.6-0.1-74.4-0.1c-1.3,0-2.7,0-4,0c-6.1-0.3-10.3-4.4-10.4-9.9c0-5.8,4.3-10,10.7-10
	c20-0.1,39.9,0,59.9,0c4.7,0,9.3,0.2,14-0.1c7.3-0.4,12.9-5.7,13.8-12.8c0.9-6.6-3.2-13.4-10.2-15.2c-33.5-8.5-67-16.9-100.6-25
	c-10.9-2.6-22.2-1.4-32.2,3.4c-21.3,10.1-42.2,21.1-63.5,31.9c1.1,2,1.9,3.6,2.8,5.2c17.4,30.1,34.7,60.3,52.1,90.4
	c7,12.1,4.9,19.9-7.3,26.9c-15.8,9.1-31.7,18.3-47.5,27.4c-3.6,2.1-7.2,4-10.9,5.9C115.8,512,113.5,512,111.2,512z M133.1,480.7
	c-8.1-14-15.9-27.5-23.7-41.1c-3.9-6.7-2.8-12.5,2.7-15.6c5.3-3,10.7-1,14.5,5.4c3.8,6.5,7.5,13,11.2,19.4
	c4.1,7.2,8.3,14.4,12.6,21.8c5.5-3.2,10.6-6.2,15.9-9.3c-22.8-39.6-45.4-78.8-68.1-118.2c-17,9.8-33.4,19.4-50,29
	c22.8,39.6,45.4,78.8,68.1,118.2C122,487.1,127.3,484,133.1,480.7z"/>
<path class="st0" d="M266.9,0c10.7,2.2,21.7,3.4,32.1,6.6c62.4,19.4,104.2,80.2,99.4,144c-5,67.3-53.2,120.7-118.9,131.5
	c-80.2,13.3-155.7-44.9-163.5-126.1C108.6,79.6,162.3,11.7,238.6,1.2c2.8-0.4,5.6-0.8,8.3-1.2C253.6,0,260.2,0,266.9,0z M256.6,264
	c67.2,0.1,122-54.4,122.1-121.7c0.1-67.1-54.3-121.9-121.2-122.2c-67.1-0.3-122.1,54.3-122.3,121.6
	C134.9,208.9,189.4,263.9,256.6,264z"/>
<path class="st0" d="M465.5,0c5.5,3.1,7.6,7.8,7,14.1c-0.3,3.3,0.1,6.7-0.1,10c-0.3,5.7-4.6,9.8-9.9,9.8c-5.3,0-9.7-4.2-9.9-9.8
	c-0.2-4.7,0-9.3-0.1-14c0-5,3.4-7.6,7-10.1C461.5,0,463.5,0,465.5,0z"/>
<path class="st0" d="M512.4,53c-2.8,5.5-7.3,7.7-13.5,7.1c-3.4-0.3-7,0.1-10.4-0.1c-5.6-0.3-9.8-4.5-9.9-9.8c0-5.1,3.9-9.6,9.3-10
	c5.1-0.3,10.5-0.9,15.3,0.2c3.4,0.8,6.1,4.3,9.2,6.6C512.4,49,512.4,51,512.4,53z"/>
<path class="st0" d="M472.4,83.4c0,2.3,0.1,4.7,0,7c-0.4,5.7-4.6,9.7-10,9.6c-5.2-0.1-9.5-3.9-9.7-9.4c-0.3-5-0.3-10,0-14.9
	c0.3-5.3,4.7-9.4,9.8-9.4c5.1-0.1,9.5,3.9,10,9.2C472.6,78.1,472.4,80.8,472.4,83.4C472.4,83.4,472.4,83.4,472.4,83.4z"/>
<path class="st0" d="M65.9,290.8c0,2.7,0.2,5.3,0,8c-0.5,5.4-4.9,9.1-10.1,9c-5-0.1-9.3-3.8-9.6-9c-0.3-5.3-0.3-10.6,0-15.9
	c0.4-5,4.9-8.8,9.8-8.8c4.9,0,9.3,3.8,9.8,8.8C66.1,285.4,65.8,288.1,65.9,290.8C65.8,290.8,65.8,290.8,65.9,290.8z"/>
<path class="st0" d="M429.5,60c-2.5,0-5,0.1-7.5,0c-5.2-0.4-9-4.3-9.4-9.3c-0.3-5.1,3.3-10,8.6-10.4c5.4-0.5,10.9-0.4,16.4,0
	c5.1,0.4,8.8,5.1,8.7,9.9c-0.1,5.1-4.1,9.4-9.4,9.8C434.4,60.1,432,60,429.5,60z"/>
<path class="st0" d="M41.4,222.7c0-2.5-0.2-5,0-7.5c0.5-5.3,4.9-9.3,10-9.2c4.9,0.1,9.4,3.8,9.7,8.9c0.4,5.3,0.4,10.6,0,15.9
	c-0.3,5.1-4.8,8.9-9.7,8.9c-5.1,0.1-9.5-3.9-10-9.2C41.2,228.1,41.4,225.4,41.4,222.7z"/>
<path class="st0" d="M18,266c-2.3,0-4.6,0.1-7,0c-5.4-0.3-9.4-4.4-9.6-9.6c-0.2-5.1,3.6-9.8,9-10.2c5.3-0.4,10.6-0.4,15.9,0
	c5.3,0.4,9.1,5.2,8.9,10.3c-0.3,5.1-4.3,9.2-9.7,9.5C22.9,266.1,20.4,266,18,266z"/>
<path class="st0" d="M84.3,266c-2.5,0-5,0.1-7.5,0c-5.1-0.4-9-4.4-9.3-9.3c-0.3-4.8,3.2-9.8,8.3-10.3c5.7-0.5,11.6-0.5,17.3,0
	c5.1,0.5,8.4,5.5,8.1,10.4c-0.4,5-4.2,8.8-9.4,9.2C89.2,266.1,86.7,266,84.3,266z"/>
<path class="st0" d="M207.3,429.8c5.5,0.1,9.7,4.4,9.7,9.9c0,5.4-4.5,9.9-9.8,9.9c-5.5,0-10.2-4.9-10-10.3
	C197.4,433.9,201.8,429.7,207.3,429.8z"/>
<path class="st0" d="M87.1,398c0-5.5,4.2-9.9,9.7-10c5.5-0.1,10.3,4.7,10.1,10.2c-0.2,5.3-4.8,9.8-10.1,9.7
	C91.4,407.9,87.1,403.5,87.1,398z"/>
<path class="st0" d="M256.9,129.4c2.8-3.5,4.5-5.9,6.4-7.9c17.6-17.7,35.2-35.4,52.9-53.1c1.2-1.2,2.3-2.4,3.6-3.4
	c4-3.1,9.2-2.8,12.8,0.6c3.7,3.4,4.2,8.9,1.2,13.2c-1,1.3-2.2,2.5-3.3,3.7c-21.3,21.3-42.6,42.7-63.9,64c-7.5,7.5-11.9,7.6-19.3,0.1
	c-12.6-12.6-25.2-25.2-37.8-37.8c-0.7-0.7-1.4-1.4-2.1-2.1c-4.4-4.8-4.7-10.6-0.6-14.7c4.1-4.1,10-4.1,14.6,0.6
	c10.4,10.3,20.8,20.7,31.1,31.1C253.8,124.9,254.8,126.5,256.9,129.4z"/>
<path class="st0" d="M266.9,48.1c0,1.7,0.1,3.3,0,5c-0.4,5.3-4.3,9-9.3,9.3c-5.1,0.3-9.6-3.1-10.3-8.2c-0.5-3.8-0.5-7.7-0.1-11.5
	c0.5-5.1,5.1-8.8,10-8.7c5.2,0.1,9.3,4.1,9.7,9.5C267,45.1,266.9,46.6,266.9,48.1z"/>
<path class="st0" d="M163.4,132c1.5,0,3-0.1,4.5,0c5.5,0.4,9.4,4.3,9.5,9.6c0.1,5.5-3.7,9.8-9.4,10.2c-2.8,0.2-5.7,0.2-8.5,0
	c-6.1-0.3-10.3-4.4-10.3-9.9c0-5.8,4.3-9.8,10.7-10C161,132,162.2,132,163.4,132C163.4,132,163.4,132,163.4,132z"/>
<path class="st0" d="M246.9,235.7c0-1.5-0.1-3,0-4.5c0.4-5.5,4.3-9.4,9.7-9.4c5.3-0.1,9.6,3.5,10.1,9c0.3,3.3,0.3,6.7,0,10
	c-0.5,5.7-5,9.5-10.4,9.3c-5.2-0.3-9-4.2-9.4-9.8C246.8,238.7,246.9,237.2,246.9,235.7z"/>
<path class="st0" d="M350.7,152.1c-1.7,0-3.3,0.1-5,0c-5.1-0.4-8.8-3.9-9.2-8.8c-0.5-5.2,2.5-9.8,7.7-10.6c4-0.6,8.3-0.6,12.4-0.1
	c5.2,0.7,8.5,5.4,8.1,10.4c-0.4,5.1-4.2,8.8-9.5,9.2C353.7,152.2,352.2,152.1,350.7,152.1z"/>
</svg>
