<?xml version="1.0" encoding="utf-8"?>
<!-- Generator: Adobe Illustrator 26.0.1, SVG Export Plug-In . SVG Version: 6.00 Build 0)  -->
<svg version="1.1" id="Layer_1" xmlns="http://www.w3.org/2000/svg" xmlns:xlink="http://www.w3.org/1999/xlink" x="0px" y="0px"
	 viewBox="0 0 1920 830" style="enable-background:new 0 0 1920 830;" xml:space="preserve">
<style type="text/css">
	.st0{fill:#F1F1FC;}
</style>
<path class="st0" d="M3440,0H0v830c0,0,163.2-104.8,282-123.5C457.9,678.8,548.6,824.6,726,810c110.8-9.1,95.5-77.2,274-77.2
	c184.6,0,353.2,97.2,538.8,97.2c104.1-3.3,205.6-32,302-69.9c195.9-77,381.6-210.1,599.2-210.1s321.5,202.2,552,210.1
	c100.3,3.5,157.3-47.9,255.5-27.3C3329.9,750.1,1920,830,1920,830V0H3440z"/>
</svg>
