<svg width="156" height="64" viewBox="0 0 156 64" fill="none" xmlns="http://www.w3.org/2000/svg">
<path fill-rule="evenodd" clip-rule="evenodd" d="M25.6019 6.8632C24.9992 6.8632 24.4372 6.4165 24.3568 5.80717L23.6737 1.46159C23.647 1.28044 23.6592 1.09559 23.7095 0.919639C23.7598 0.743693 23.8471 0.580795 23.9654 0.442059C24.0837 0.303323 24.2302 0.192014 24.3949 0.115725C24.5596 0.0394366 24.7386 -3.61087e-05 24.9197 2.47851e-08H31.3456C32.1489 2.47851e-08 32.7079 0.690631 32.5907 1.50273L31.9076 5.80717C31.8521 6.10123 31.6979 6.36689 31.471 6.55929C31.2442 6.75169 30.9586 6.85904 30.6625 6.8632H25.6019ZM34.8813 28.6994C34.796 28.5935 28.1393 34.7628 28.1393 34.7628L21.3462 28.7028L24.3586 9.50233C24.3992 9.1979 24.5479 8.91878 24.777 8.71694C25.006 8.5151 25.2998 8.40429 25.6036 8.40515H30.6246C30.928 8.40574 31.221 8.51705 31.4498 8.71863C31.6785 8.9202 31.8276 9.19849 31.8696 9.50233L34.8813 28.6994ZM34.882 28.7038L34.8813 28.6994C34.8821 28.7004 34.8823 28.7018 34.882 28.7038Z" fill="#FB2F74"/>
<path fill-rule="evenodd" clip-rule="evenodd" d="M38.6081 32.6607C38.9608 32.9367 39.3332 33.1858 39.7223 33.4062C41.3065 34.3055 43.1252 34.761 45.1289 34.761C47.93 34.761 49.9783 33.8627 51.2263 32.0886L51.4385 34.4182H56.3848V21.6273H45.6657V26.401H50.2739V26.4294C50.2739 27.3718 49.9502 28.0614 49.2826 28.5405C48.6151 29.0195 47.6917 29.2674 46.5522 29.2674C45.002 29.2674 43.8393 28.7677 43.1068 27.7823C42.3743 26.7968 41.9828 25.1657 41.9828 22.9694C41.9828 18.8236 43.411 16.8076 46.3488 16.8076C48.1897 16.8076 49.2836 17.7794 49.7012 19.7788L49.7351 19.9404L56.4662 17.3934L56.4081 17.2563C55.4954 15.1129 54.2106 13.5455 52.5867 12.5972C50.9628 11.6489 48.7895 11.1777 46.1114 11.1777C43.7492 11.1777 41.6805 11.6499 39.9626 12.5825C38.3784 13.4366 37.0661 14.7274 36.178 16.3051L36.1528 16.3482L38.5635 32.6265L38.6081 32.6607ZM17.6237 31.9408L19.8425 16.9526C19.4386 16.0866 18.9005 15.2912 18.2486 14.5966C16.4077 12.6433 13.7477 11.6666 10.2686 11.6666H0V34.2752H10.2705C13.3737 34.2752 15.8247 33.4971 17.6237 31.9408ZM6.91324 29.1704V16.7684H9.4208C11.0473 16.7684 12.1997 17.2651 12.8779 18.2584C13.5561 19.2518 13.8949 20.8221 13.8943 22.9694C13.8943 25.1168 13.5555 26.6871 12.8779 27.6804C12.2003 28.6737 11.0479 29.1704 9.4208 29.1704H6.91324ZM60.7166 11.4559H67.7451V34.4456H60.7166V11.4559ZM77.9094 34.4456H84.9379V16.786H92.1728V11.4559H70.6057V16.786H77.9094V34.4456ZM89.7932 34.4456L97.4419 11.4559H105.883L113.566 34.4456H106.331L105.056 29.6739H98.1308L96.8218 34.4456H89.7932ZM100.646 20.4743L99.3691 25.0785L103.854 25.0765L102.614 20.5135L101.645 16.7517H101.576L100.646 20.4743ZM122.593 11.4559H115.565V34.4456H133.411V29.1165H122.593V11.4559ZM143.403 25.6099V29.2678H155.151V34.597H136.374V11.6073H154.703V16.9374H143.403V20.6638H152.429V25.6099H143.403Z" fill="white"/>
<path fill-rule="evenodd" clip-rule="evenodd" d="M15.5725 52.189V52.1527C17.1802 51.9202 18.3975 51.3396 19.2243 50.411C20.0511 49.4823 20.4646 48.3214 20.4646 46.9284C20.4646 42.8414 17.6741 40.7862 12.0931 40.7627H0V63.7534H12.8159C15.5489 63.7534 17.6046 63.2365 18.9831 62.2026C20.3615 61.1688 21.0504 59.6422 21.0498 57.6229C21.0498 56.1365 20.5905 54.9172 19.672 53.965C18.7534 53.0128 17.3869 52.4208 15.5725 52.189ZM6.75531 45.7793H10.6097C12.3783 45.7793 13.2626 46.4651 13.2626 47.8365C13.2626 49.208 12.3783 49.8924 10.6097 49.8898H6.7524L6.75531 45.7793ZM11.1968 58.9464H6.7524V54.7977H11.1968C12.9654 54.7977 13.8497 55.4834 13.8497 56.8549C13.8497 58.2499 12.9654 58.947 11.1968 58.9464ZM29.2816 40.7627L21.6329 63.7524H28.6615L29.9705 58.9797H36.8953L38.1704 63.7524H45.4054L37.7228 40.7627H29.2816ZM31.2107 54.3794L32.4858 49.7811L33.416 46.0585H33.4847L34.4537 49.8202L35.6939 54.3833L31.2107 54.3794ZM66.0451 40.7627V45.7431L53.986 58.5623H66.423V63.7524H46.3722V58.771L58.4653 45.9527H46.5447V40.7627H66.0451ZM76.3427 54.7653H85.3692V49.8193H76.3427V46.0918H87.6423V40.7627H69.3142V63.7524H88.0909V58.4223H76.3427V54.7653ZM106.353 55.2875L106.216 50.7244V40.7627H112.382V63.7524H104.665L98.4635 52.3614L97.0169 49.2266H96.9481L97.0857 53.7896V63.7524H90.9534V40.7627H98.636L104.837 52.1527L106.319 55.2875H106.353Z" fill="white"/>
</svg>
