<svg xmlns="http://www.w3.org/2000/svg" xmlns:xlink="http://www.w3.org/1999/xlink" version="1.0" height="34" width="288" contentScriptType="text/ecmascript"><defs><path d="M22.14-4.988H11.188c-.707 0-1.28-.067-1.753-.235a1.808 1.808 0 0 1-.977-.742c-.27-.37-.473-.875-.57-1.48-.137-.676-.172-1.52-.172-2.528v-16.613c0-1.078-.672-1.18-.942-1.18H3.672c-.3 0-.977.102-.977 1.18v16.04c0 1.886.168 3.503.473 4.816.305 1.351.773 2.46 1.45 3.304A5.522 5.522 0 0 0 7.245-.539c1.012.371 2.29.574 3.774.574h11.12c.301 0 .942-.137.942-1.18v-2.664c0-1.043-.64-1.18-.941-1.18zm0 0" id="a"/><path d="M25.645-25.309a6.056 6.056 0 0 0-2.63-1.886c-1.042-.371-2.324-.57-3.808-.57h-8.223c-1.48 0-2.726.199-3.773.57a6.056 6.056 0 0 0-2.629 1.886c-.64.844-1.144 1.957-1.45 3.305-.3 1.313-.437 2.899-.437 4.785v6.672c0 1.887.137 3.504.438 4.817.305 1.351.808 2.46 1.449 3.304A5.54 5.54 0 0 0 7.211-.539c1.012.371 2.293.574 3.773.574h8.223c1.484 0 2.766-.203 3.809-.574a5.72 5.72 0 0 0 2.629-1.852c.671-.879 1.144-1.988 1.449-3.34.27-1.312.437-2.93.437-4.816v-6.672c0-1.855-.168-3.472-.437-4.785-.305-1.348-.778-2.46-1.45-3.305zm-3.133 7.516v7.852c0 .976-.035 1.82-.172 2.496-.098.605-.3 1.144-.57 1.48-.239.371-.575.606-1.012.742-.438.168-1.012.235-1.719.235h-7.887c-.707 0-1.277-.067-1.718-.235-.438-.136-.774-.37-1.008-.742-.27-.336-.442-.875-.574-1.48a17.057 17.057 0 0 1-.168-2.496v-7.852c0-.977.066-1.82.168-2.492.132-.64.304-1.145.574-1.516.234-.34.57-.574 1.008-.742a5.806 5.806 0 0 1 1.718-.238h7.887c.707 0 1.281.101 1.719.238.437.168.773.402 1.012.742.27.371.472.875.57 1.516.137.672.172 1.515.172 2.492zm0 0" id="b"/><path d="M25.676-19.715v.203zm.64 18.266-5.894-10.11c1.648-.203 2.93-.91 3.773-2.054.942-1.383 1.45-3.371 1.48-6-.03-2.63-.538-4.614-1.48-5.996-1.011-1.45-2.695-2.157-4.988-2.157H3.672c-.3 0-.977.102-.977 1.18v2.66c0 1.047.676 1.145.977 1.145h14.66c.875 0 1.45.238 1.785.742.371.508.54 1.316.54 2.426 0 1.113-.169 1.922-.54 2.425-.336.508-.91.743-1.785.743H3.672c-.3 0-.977.101-.977 1.148v14.152c0 1.043.676 1.18.977 1.18h3.066c.305 0 .946-.137.946-1.18v-10.312h7.109L20.891-.641c.136.203.238.371.37.473.169.133.407.203.712.203h3.703c.406 0 .71-.27.777-.676.031-.336 0-.605-.137-.808zm0 0" id="c"/><path d="M20.758-24.633c-.067-.168-.137-.37-.203-.504-.54-1.754-2.157-3-4.008-3-.844 0-1.652.235-2.328.707-.2.102-.367.235-.504.336-.504.438-1.012 1.246-1.485 2.461L2.832-1.28c-.102.304-.137.605-.07.808.035.203.203.508.742.508H7.21c.437 0 .773-.27.945-.71l1.918-4.817h7.383c.367 0 .707-.168.875-.473.203-.27.234-.64.133-.976l-1.211-3a1.058 1.058 0 0 0-.977-.672h-4.18l4.313-10.918a.42.42 0 0 1 .067-.102h.136l.035.067L25.004-.707c.168.473.504.742.976.742h3.606c.539 0 .676-.34.742-.508.067-.203.035-.504-.101-.808zm0 0" id="d"/><path d="M29.55-28.137h-3.702c-.442 0-.778.235-.98.707L16.612-6.57c0 .066-.035.066-.035.066l-.133.035s0-.035-.035-.101L8.02-27.43c-.133-.472-.473-.707-.942-.707h-3.64c-.504 0-.676.336-.708.473-.07.234-.035.504.102.84l9.434 23.32c.101.203.168.371.234.504A4.194 4.194 0 0 0 16.512.035c.843 0 1.652-.27 2.324-.742.203-.102.371-.203.508-.336.504-.441.976-1.25 1.48-2.46l9.367-23.321c.137-.336.172-.606.102-.84-.066-.172-.234-.473-.742-.473zm0 0" id="e"/><path d="M6.738-27.766H3.641c-.27 0-.946.133-.946 1.18v25.441c0 1.043.676 1.18.946 1.18h3.097c.27 0 .946-.137.946-1.18v-25.44c0-1.048-.676-1.18-.946-1.18zm0 0" id="f"/><path d="M22.95-6.031H11.085a6.182 6.182 0 0 1-1.75-.239 2.25 2.25 0 0 1-1.012-.738c-.27-.37-.472-.879-.574-1.52-.035-.167-.035-.402-.066-.57 0 0 .03-2.425.066-2.425h15.063c.269 0 .945-.137.945-1.18v-2.664c0-1.043-.676-1.145-.945-1.145l-17.387.035c-.977.067-1.82.57-2.293 1.415a2.744 2.744 0 0 0-.371.843l-.067 4.246v.168c.035 1.582.203 2.93.438 4.043.305 1.348.808 2.461 1.449 3.301.676.879 1.55 1.484 2.629 1.856 1.047.402 2.293.57 3.773.57H22.95c.301 0 .977-.102.977-1.145v-3.707c0-1.043-.676-1.144-.977-1.144zm.03-21.805H3.605c-.27 0-.91.137-.91 1.215v2.629c0 1.043.64 1.144.91 1.144l19.375.036c.27 0 .946-.137.946-1.18v-2.664c0-1.043-.676-1.18-.946-1.18zm0 0" id="g"/><path d="M43.402-28.172h-3.707c-.437 0-.773.27-.976.742L32.348-7.21l-.032.065-.136.036s-.032-.036-.032-.067L26.25-27.43c-.168-.472-.504-.742-.941-.742H21.5c-.438 0-.777.27-.977.742l-6.37 20.22-.032.065-.137.036s-.035-.036-.035-.067L8.055-27.43c-.168-.472-.508-.742-.977-.742H3.473c-.54 0-.676.336-.711.508-.067.234-.067.504.07.809L9.805-3.504c.07.168.168.371.238.504.504 1.754 2.156 3 4.008 3 .844 0 1.652-.234 2.328-.707.2-.102.336-.238.504-.336.472-.441.976-1.25 1.48-2.496l4.989-15.5 4.652 15.535c.066.168.168.371.234.504.504 1.754 2.157 3 4.012 3 .84 0 1.648-.234 2.324-.707.203-.102.371-.238.504-.336.508-.441.977-1.25 1.484-2.496l7.516-23.316c.098-.305.133-.575.067-.81-.036-.202-.204-.507-.743-.507zm0 0" id="h"/><clipPath id="i"><path style="clip-rule:nonzero" d="M65.566 174.473h30v27.75h-30zm0 0"/></clipPath></defs><use x="40.417" y="202.675" xlink:href="#a" xlink:type="simple" xlink:actuate="onLoad" xlink:show="embed" width="100%" height="100%" transform="translate(-42.112 -172.04)" style="fill:#fff;fill-opacity:1"/><use x="66.359" y="202.675" xlink:href="#b" xlink:type="simple" xlink:actuate="onLoad" xlink:show="embed" width="100%" height="100%" transform="translate(-42.112 -172.04)" style="fill:#fff;fill-opacity:1"/><use x="96.749" y="202.675" xlink:href="#c" xlink:type="simple" xlink:actuate="onLoad" xlink:show="embed" width="100%" height="100%" transform="translate(-42.112 -172.04)" style="fill:#fff;fill-opacity:1"/><use x="126.093" y="202.675" xlink:href="#d" xlink:type="simple" xlink:actuate="onLoad" xlink:show="embed" width="100%" height="100%" transform="translate(-42.112 -172.04)" style="fill:#fff;fill-opacity:1"/><use x="159.347" y="202.675" xlink:href="#e" xlink:type="simple" xlink:actuate="onLoad" xlink:show="embed" width="100%" height="100%" transform="translate(-42.112 -172.04)" style="fill:#fff;fill-opacity:1"/><use x="192.532" y="202.675" xlink:href="#f" xlink:type="simple" xlink:actuate="onLoad" xlink:show="embed" width="100%" height="100%" transform="translate(-42.112 -172.04)" style="fill:#fff;fill-opacity:1"/><use x="203.077" y="202.675" xlink:href="#g" xlink:type="simple" xlink:actuate="onLoad" xlink:show="embed" width="100%" height="100%" transform="translate(-42.112 -172.04)" style="fill:#fff;fill-opacity:1"/><use x="229.862" y="202.675" xlink:href="#h" xlink:type="simple" xlink:actuate="onLoad" xlink:show="embed" width="100%" height="100%" transform="translate(-42.112 -172.04)" style="fill:#fff;fill-opacity:1"/><use x="276.928" y="202.675" xlink:href="#g" xlink:type="simple" xlink:actuate="onLoad" xlink:show="embed" width="100%" height="100%" transform="translate(-42.112 -172.04)" style="fill:#fff;fill-opacity:1"/><use x="303.713" y="202.675" xlink:href="#c" xlink:type="simple" xlink:actuate="onLoad" xlink:show="embed" width="100%" height="100%" transform="translate(-42.112 -172.04)" style="fill:#fff;fill-opacity:1"/><path d="M73.576 152.132c-9.32 0-16.875 7.555-16.875 16.875s7.555 16.875 16.875 16.875 16.875-7.555 16.875-16.875-7.554-16.875-16.875-16.875zm0 0" style="fill:#fff;fill-opacity:1;fill-rule:nonzero" transform="translate(-35.044 -151.882)"/><g clip-path="url(#i)" transform="translate(-42.112 -172.04)"><path d="M80.566 186.379a2.974 2.974 0 0 0 0 5.95 2.975 2.975 0 0 0 0-5.95zm8.914 2.973c0-4.93-3.988-8.926-8.914-8.926-4.925 0-8.918 3.996-8.918 8.926 0 3.304 1.793 6.175 4.454 7.722l1.5-2.586c-1.778-1.035-2.98-2.933-2.98-5.136a5.943 5.943 0 1 1 11.887 0c-.001 2.203-1.204 4.101-2.978 5.128l1.5 2.586a8.892 8.892 0 0 0 4.45-7.714zm-8.914-14.88c-8.21 0-14.859 6.66-14.859 14.88 0 5.5 2.984 10.289 7.422 12.863l1.484-2.574a11.878 11.878 0 0 1-5.933-10.29c0-6.574 5.316-11.902 11.886-11.902 6.567 0 11.887 5.328 11.887 11.903 0 4.398-2.39 8.238-5.937 10.296l1.488 2.575c4.433-2.582 7.422-7.371 7.422-12.871 0-8.22-6.656-14.88-14.86-14.88zm0 0" style="fill:#004aad;fill-opacity:1;fill-rule:nonzero"/></g><use height="100%" width="100%" xlink:show="embed" xlink:actuate="onLoad" xlink:type="simple" xlink:href="#j" y="260.831" x="116.032" transform="translate(0 -341)" style="fill:#ff1616;fill-opacity:1"/><use height="100%" width="100%" xlink:show="embed" xlink:actuate="onLoad" xlink:type="simple" xlink:href="#j" y="260.831" x="129.988" transform="translate(0 -341)" style="fill:#ff1616;fill-opacity:1"/><use height="100%" width="100%" xlink:show="embed" xlink:actuate="onLoad" xlink:type="simple" xlink:href="#j" y="260.831" x="229.192" transform="translate(0 -341)" style="fill:#ff1616;fill-opacity:1"/><use height="100%" width="100%" xlink:show="embed" xlink:actuate="onLoad" xlink:type="simple" xlink:href="#j" y="260.831" x="243.149" transform="translate(0 -341)" style="fill:#ff1616;fill-opacity:1"/></svg>