<svg xmlns="http://www.w3.org/2000/svg" xmlns:xlink="http://www.w3.org/1999/xlink" xml:space="preserve" style="enable-background:new 0 0 3710 3710" viewBox="0 0 3710 3710"><style>.st4{fill:#d8dee8}.st6{opacity:.5;fill:#fff}.st60{fill:#fcb048}</style><g id="Illustration"><g style="opacity:.3"><linearGradient id="SVGID_1_" x1="175.974" x2="1890.334" y1="1086.221" y2="1086.221" gradientUnits="userSpaceOnUse"><stop offset=".004" style="stop-color:#e38ddd"/><stop offset="1" style="stop-color:#9571f6"/></linearGradient><path d="m746.9 307.3 18.5 91.2c-39.6 16-77.4 35.2-112.9 57.5l-61.4-69.5c-16.8-19-45.7-20.5-64.8-3.5L407.2 489.4c-19.1 17.1-21 46.3-4.2 65.3l61.9 70.4c-26.2 33.4-49.5 69-69.7 106.4L306.1 702c-24-8-50.2 5.3-58.4 29.7l-51.4 152.7c-8.2 24.5 4.6 50.8 28.7 58.9l89.5 29.8c-6.3 41.7-9 84.4-8 127.5l-93.3 19.7c-25 5.3-41.3 30.1-36.4 55.5l30.8 158.9c4.9 25.5 29.3 41.8 54.4 36.5l93.5-19.8c15.4 40.4 34 78.9 55.7 115.2l-71.6 64.5c-19.3 17.4-21.2 47.3-4.3 66.9l105.9 122.3c17 19.6 46.4 21.3 65.7 3.8l71.5-64.7c33.2 26.9 68.7 50.8 106 71.5l-30.3 92.3c-8.2 25 4.9 52 29.4 60.3l153.1 51.8c24.5 8.3 51-5.3 59.1-30.4l29.8-91.6c41.9 6.4 84.8 8.8 128.1 7.6l19.2 94.5c5.2 25.9 30 42.5 55.4 37.1l158.4-33.5c25.3-5.4 41.5-30.7 36.2-56.5l-19.3-93.7c40.5-16.3 79.1-35.8 115.3-58.6l62.3 70.9c17.3 19.7 46.9 21.4 66.1 3.9l120.1-109.6c19.2-17.5 20.7-47.6 3.4-67.2l-62.1-70.3c26.6-34.4 50.2-71.1 70.4-109.6l87.9 29.3c24.6 8.2 50.9-5.3 58.8-30.2l49.3-155.1c7.9-24.8-5.6-51.4-30.2-59.6l-87.1-28.9c5.9-42.7 7.9-86.3 6.2-130.4l89.4-18.9c25.1-5.3 41-30.2 35.6-55.6l-34-158.3c-5.4-25.3-30.1-41.4-55.1-36.1l-89.2 18.9c-16.3-40.6-35.8-79.3-58.4-115.6l67.4-61c19-17.1 20.4-46.5 3.3-65.6l-107-119.2c-17.1-19-46.2-20.6-65.2-3.5l-67.8 61.2c-33.6-26.4-69.5-49.8-107.1-69.8l28.4-87.1c7.9-24.2-5.3-50.3-29.5-58.2l-150.9-49.4c-24.1-7.9-50.1 5.3-58 29.5l-28.7 87.3c-41.5-5.8-83.8-7.9-126.7-6.3l-18.6-90.4c-5.1-24.9-29.4-40.8-54.2-35.5l-155.2 32.8c-24.5 5.4-40.5 29.8-35.5 54.7zm-264.3 886c-61.1-307.6 135.2-607.5 438.2-671.6 303-64.1 600.6 131.3 665 438.2 64.8 308.7-130.6 612.9-437 677.7-306.3 64.8-604.7-134.9-666.2-444.3z" style="fill:url(#SVGID_1_)"/></g><linearGradient id="SVGID_00000039122795344490542510000010236630731123608229_" x1="380.498" x2="-514.263" y1="1818.312" y2="2254.023" gradientTransform="matrix(-1 0 0 1 2683.796 0)" gradientUnits="userSpaceOnUse"><stop offset="0" style="stop-color:#444b8c"/><stop offset=".996" style="stop-color:#26264f"/></linearGradient><path d="m2369.9 887.7-288.8 2376.8c-4.3 35.7 19.5 67.3 53.1 70.1L3265 3442.2c67.4 3 104.4-33.9 108.7-70.8l290.2-2451.3c4.3-36.4-28.1-70.9-95.1-73.7l-1130.1-21.5c-33.5-.8-64.5 27.5-68.8 62.8z" style="fill:url(#SVGID_00000039122795344490542510000010236630731123608229_)"/><linearGradient id="SVGID_00000044880342162829233010000011923481887688504511_" x1="2580.317" x2="3384.47" y1="2102.746" y2="2142.954" gradientUnits="userSpaceOnUse"><stop offset="0" style="stop-color:#444b8c"/><stop offset=".996" style="stop-color:#26264f"/></linearGradient><path d="m3619.9 913.8-292.3 2467c-3.8 32.1-29 57.4-58.8 62.1-4.7 0-9.5.5-14.3.2l-167.5-14.3-1006.6-84.9c-33.8-2.9-57.8-34.7-53.4-70.6l290.9-2391.6c4.3-35.6 35.5-64 69.3-63.2l389.8 9.1 785.6 18H3568.8c32.6 4.6 55.3 33.6 51.1 68.2z" style="fill:url(#SVGID_00000044880342162829233010000011923481887688504511_)"/><path d="m2340.1 1014.5-269.3 2215.8c-4.1 33.6 18.4 63.2 49.9 65.8l1104 91.7c33.3 2.8 64-23.3 68.1-57.8l270.6-2281c4.1-34.2-19.9-62.9-53.3-63.8l-1105.2-29.5c-31.7-.9-60.8 25.6-64.8 58.8z" class="st4"/><linearGradient id="SVGID_00000055680828932437281330000011766454944066519200_" x1="-240.699" x2="-1592.507" y1="813.84" y2="4474.986" gradientTransform="matrix(-1 0 0 1 2683.796 0)" gradientUnits="userSpaceOnUse"><stop offset="0" style="stop-color:#ffc444"/><stop offset=".996" style="stop-color:#f36f56"/></linearGradient><path d="M2936.3 904.3c-1.5 12.5 7 22.9 19.1 23.2 12.1.3 23.1-9.6 24.6-22.1 1.5-12.5-7.1-22.9-19.1-23.2-12.1-.3-23.1 9.6-24.6 22.1z" style="fill:url(#SVGID_00000055680828932437281330000011766454944066519200_)"/><path d="M3081.8 3424.8c1.8 1.3 3.5 2.6 5.2 3.9l-1006.6-84.8c-33.8-2.9-57.8-34.6-53.4-70.6l290.9-2391.6c4.3-35.6 35.5-64 69.3-63.2l389.8 9.1c.6 1.3 1.1 2.6 1.7 3.9 16.6 37.5 28.3 82.2 33.4 135.2 8.2 84.5-.4 190.3-32.4 322.3-199.7 824.1 663.4 905.1 256.8 1531.6-176.3 271.7-125.9 438.9-16.9 550.3 19.3 19.5 40.3 37.4 62.2 53.9z" class="st6"/><linearGradient id="SVGID_00000022555780543910174090000002682548994344918414_" x1="1415.13" x2="520.312" y1="1818.376" y2="2254.114" gradientUnits="userSpaceOnUse"><stop offset="0" style="stop-color:#444b8c"/><stop offset=".996" style="stop-color:#26264f"/></linearGradient><path d="M1637.8 3272.3c.3 32.5-22.5 59.8-53.6 62.4l-121.1 11.5-1009.6 96.3c-1.3 0-2.6.4-3.9.4-64.9 0-100.6-35-104.8-71.2L54.4 919.8c-4.3-36.4 28.1-69.6 95.1-74.3h.1l256.6-4.5 873.4-16.4c33.6-.8 64.6 27.6 68.9 62.9l10.6 87.4 278.2 2289.5c.3 2.7.5 5.3.5 7.9z" style="fill:url(#SVGID_00000022555780543910174090000002682548994344918414_)"/><linearGradient id="SVGID_00000021078164852937047430000008363265220922014112_" x1="611.937" x2="1545.601" y1="2116.589" y2="2163.272" gradientUnits="userSpaceOnUse"><stop offset="0" style="stop-color:#444b8c"/><stop offset=".996" style="stop-color:#26264f"/></linearGradient><path d="m1637.9 3343.8-161.1 13.6-1013 85.6c-4.8.4-9.6-.2-14.3-.2-29.8-4.7-55-29.8-58.8-61.9L98.4 913.9c-4.1-34.5 18.5-63.7 51.1-68.3H155.7l248-5.6 927.4-21.7c33.9-.8 65 27.7 69.3 63.3l290.9 2391.6c4.4 35.9-19.6 67.7-53.4 70.6z" style="fill:url(#SVGID_00000021078164852937047430000008363265220922014112_)"/><path d="m1378.3 1014.5 269.3 2215.8c4.1 33.6-18.4 63.2-49.9 65.8l-1104 91.7c-33.3 2.8-64-23.3-68.1-57.8L155 1049c-4.1-34.2 19.9-62.9 53.3-63.8l1105.2-29.5c31.7-.9 60.8 25.6 64.8 58.8z" class="st4"/><linearGradient id="SVGID_00000168075305758923005260000009154427972567269534_" x1="138.798" x2="-1213.009" y1="813.84" y2="4474.984" gradientTransform="translate(655.072)" gradientUnits="userSpaceOnUse"><stop offset="0" style="stop-color:#ffc444"/><stop offset=".996" style="stop-color:#f36f56"/></linearGradient><path d="M782.1 904.3c1.5 12.5-7 22.9-19.1 23.2-12.1.3-23.1-9.6-24.6-22.1-1.5-12.5 7.1-22.9 19.1-23.2 12.1-.3 23.1 9.6 24.6 22.1z" style="fill:url(#SVGID_00000168075305758923005260000009154427972567269534_)"/><path d="m1476.8 3357.4-1013 85.6c-4.8.4-9.6-.2-14.3-.2-64.9 0-100.6-35-104.8-71.2L54.4 919.8c-4.3-36.4 28.1-69.6 95.1-74.3H155.7l248-5.6c.8.4 1.7 1 2.5 1.4 60.2 33.1 120.9 76.9 169.6 133.9 83.7 98 131.5 235.3 78.3 425.3-149.8 534-64.2 619.6 413.8 862.1 477.9 242.5 428.9 396.4 292.5 756.1-45.4 119.8-6.9 216.2 64.7 291.5 11.8 12.5 24.6 24.4 38 35.7 4.4 4.1 9 7.8 13.7 11.5z" class="st6"/><defs><path id="SVGID_00000089549578657411519700000002706392673289716114_" d="M3514.2 985.2 2409 955.7c-31.6-.8-60.7 24.8-64.8 58l-65.7 539.4H1844v456.2h379l-148.1 1220c-4.1 33.6 18.4 63.7 49.9 66.3l1104 92c33.3 2.8 64-23.1 68.1-57.7l270.6-2281c4.1-34.2-19.9-62.8-53.3-63.7z"/></defs><clipPath id="SVGID_00000096031415360171301330000017326044332306245310_"><use xlink:href="#SVGID_00000089549578657411519700000002706392673289716114_" style="overflow:visible"/></clipPath><g style="clip-path:url(#SVGID_00000096031415360171301330000017326044332306245310_)"><linearGradient id="SVGID_00000050661561513124331110000004964638625984378794_" x1="3456.859" x2="3697.886" y1="3321.937" y2="4191.728" gradientTransform="translate(-883.313)" gradientUnits="userSpaceOnUse"><stop offset="0" style="stop-color:#311944"/><stop offset="1" style="stop-color:#893976"/></linearGradient><path d="M2807.4 3816s11 46.5 11.3 63.3c.4 16.8-177.1 40.3-179.8 27.9-2.8-12.4 26.9-35 48.4-43.9 21.4-8.9 84.4-33.1 84.4-33.1l35.7-14.2z" style="fill:url(#SVGID_00000050661561513124331110000004964638625984378794_)"/><linearGradient id="SVGID_00000026137172706305991790000001729218449006408878_" x1="3668.63" x2="3672.116" y1="3937.644" y2="3644.87" gradientTransform="translate(-883.313)" gradientUnits="userSpaceOnUse"><stop offset="0" style="stop-color:#ffc444"/><stop offset=".996" style="stop-color:#f36f56"/></linearGradient><path d="m2760.5 3772.7 10.2 58.1s21.8 12.5 39.2 0l4.2-64.5-53.6 6.4z" style="fill:url(#SVGID_00000026137172706305991790000001729218449006408878_)"/><linearGradient id="SVGID_00000039111168371795149960000018320604456816701091_" x1="3743.475" x2="3984.504" y1="3238.207" y2="4108.009" gradientTransform="translate(-883.313)" gradientUnits="userSpaceOnUse"><stop offset="0" style="stop-color:#311944"/><stop offset="1" style="stop-color:#893976"/></linearGradient><path d="M3131 3865.8s11 46.5 11.3 63.3c.3 16.8-177.1 40.3-179.8 27.9-2.8-12.4 26.9-35 48.4-43.9 21.4-8.9 84.3-33.1 84.3-33.1l35.8-14.2z" style="fill:url(#SVGID_00000039111168371795149960000018320604456816701091_)"/><linearGradient id="SVGID_00000087371628630666159440000011866547056532327066_" x1="3992.782" x2="3996.268" y1="3941.684" y2="3648.906" gradientTransform="translate(-883.313)" gradientUnits="userSpaceOnUse"><stop offset="0" style="stop-color:#ffc444"/><stop offset=".996" style="stop-color:#f36f56"/></linearGradient><path d="m3084.1 3822.4 10.2 58.1s21.8 12.6 39.2 0l4.2-64.5-53.6 6.4z" style="fill:url(#SVGID_00000087371628630666159440000011866547056532327066_)"/><linearGradient id="SVGID_00000052093961481650440740000000608536560697456792_" x1="3507.14" x2="3805.588" y1="2995.902" y2="2995.902" gradientTransform="translate(-883.313)" gradientUnits="userSpaceOnUse"><stop offset="0" style="stop-color:#311944"/><stop offset="1" style="stop-color:#893976"/></linearGradient><path d="M2675.6 2240.8c-17.2 45.3-34.5 90.6-51.7 136 2.5 250.2 15.1 521.4 42.5 810.3 20.4 214.9 47.1 417.9 77.6 608 27.8-3.7 55.6-7.4 83.4-11 33.9-87.1 71.9-217.8 64.2-374.7-7.9-163.6-57-181.3-66-337.9-11.6-202.9 65.5-263.8 90.2-511.1 9.4-94.6 11.2-217.2-13.3-363.8-75.7 14.8-151.3 29.5-226.9 44.2z" style="fill:url(#SVGID_00000052093961481650440740000000608536560697456792_)"/><linearGradient id="SVGID_00000076580364496193736950000003625963952279647369_" x1="3507.143" x2="3805.588" y1="2995.902" y2="2995.902" gradientTransform="translate(-883.313)" gradientUnits="userSpaceOnUse"><stop offset="0" style="stop-color:#311944"/><stop offset="1" style="stop-color:#893976"/></linearGradient><path d="M2902.5 2196.7c-40.8 7.9-81.7 15.9-122.5 23.8-63.8 141-73.8 283.1-56 344 25.1 86.3 76 110.3 80.1 198.7 4 87.5-43.4 114.2-66.7 219.6-16.1 73-5.4 138 16.7 264.9 44.5 255.8 110.2 329.6 66.7 418.3-12.3 25.2-35.7 55.9-84.1 82 2.4 15.7 4.9 31.5 7.4 47 27.8-3.7 55.6-7.4 83.4-11 33.9-87.1 71.9-217.8 64.2-374.7-7.9-163.6-57-181.3-66-337.9-11.6-202.9 65.5-263.8 90.2-511 9.3-94.5 11.2-217.1-13.4-363.7z" style="opacity:.3;fill:url(#SVGID_00000076580364496193736950000003625963952279647369_)"/><linearGradient id="SVGID_00000058581837516681731010000010659494732167572158_" x1="3754.876" x2="3879.464" y1="4113.206" y2="3090.551" gradientTransform="translate(-883.313)" gradientUnits="userSpaceOnUse"><stop offset="0" style="stop-color:#311944"/><stop offset="1" style="stop-color:#893976"/></linearGradient><path d="M2792.3 2310c55.5 216.9 107.7 449.6 153.5 697.3 55.3 299 94.3 582 121.3 845.5 30.7-1.7 61.4-3.3 92.1-5 101.6-259.6 96-429.3 70.1-538-10-41.9-34.6-123.6-48.3-247.6-9.5-86.4-9.3-152.9-8.8-232.7 1.2-175.1 15.8-214.5 8.2-347.7-7.2-125-11.6-188.2-48.5-222.2-97.2-89.7-322.5 40.3-339.6 50.4z" style="fill:url(#SVGID_00000058581837516681731010000010659494732167572158_)"/><linearGradient id="SVGID_00000134234321661465010950000012513469028902939545_" x1="2617.857" x2="2900.552" y1="1732.799" y2="2020.541" gradientTransform="translate(-883.313)" gradientUnits="userSpaceOnUse"><stop offset="0" style="stop-color:#ffc444"/><stop offset=".996" style="stop-color:#f36f56"/></linearGradient><path d="M1900.9 1806.1s-67.5-6-77.2-17.5c-9.8-11.4-24.6-29.7-26-40.2-1.5-10.5-14.5 5.2-2.7 27.9s-21.7 17.9-26.9 17.4c-12-1.3-57.9-2.7-56.6.3 1.3 3-5.4 16.1 27.1 31.5 28.5 13.5 62.5 4.7 81 5.6l18.5.9 49.2 3.9 13.6-29.8z" style="fill:url(#SVGID_00000134234321661465010950000012513469028902939545_)"/><linearGradient id="SVGID_00000143587253136842664790000010942822813799036825_" x1="3978.628" x2="2613.495" y1="874.688" y2="2270.381" gradientTransform="translate(-883.313)" gradientUnits="userSpaceOnUse"><stop offset="0" style="stop-color:#aa80f9"/><stop offset=".996" style="stop-color:#6165d7"/></linearGradient><path d="M1861.3 1773.2c-3 23.5-5.9 47-8.9 70.5 44.7 38.9 143.5 113.6 280.9 124.8 242.3 19.7 482.5-167.6 527.3-378.2 22.1-104.3 4.1-250.7-58-274.3-17.2-6.5-43.1-5.6-96.5 31.8-142.4 99.9-154.5 231.2-233.2 320-56.7 63.8-168 128.6-411.6 105.4z" style="fill:url(#SVGID_00000143587253136842664790000010942822813799036825_)"/><linearGradient id="SVGID_00000137131084710324136630000005755504480663617701_" x1="1347.502" x2="365.697" y1="3017.224" y2="1607.702" gradientTransform="matrix(-1 0 0 1 3427.268 0)" gradientUnits="userSpaceOnUse"><stop offset="0" style="stop-color:#aa80f9"/><stop offset=".996" style="stop-color:#6165d7"/></linearGradient><path d="M2507.2 1923.1c21.5 71.3 39.7 116.3 53.7 151.9v.1c27.9 35.6 30.7 61.7 36.5 95 2.9 16.2 5.9 34.1 5.7 55.7-.4 38.7-5.1 70.2-9.5 97.3-6.6 40.8-10.3 71.3 9.8 100.4 24.8 36.2 69.1 44.5 170.5 51 258.6 16.7 388 25.1 424.7-45.3 15.2-29.2 5.8-52.1-12.3-142.9-18.9-94.6-48-240.3-45.3-336.9 2-72.1 21.8-124 46.4-167.1 48.8-85.6 116.5-136.8 100.4-242.5-23.8-156.2-200.9-238.4-209.4-242.2-58.1-26-133.2-23.8-283.4-19.5-121.5 3.6-183.1 5.9-226 37.1-83.1 60.4-100.9 172.5-110.5 238.5-19.7 137.7 13 251.2 48.7 369.4z" style="fill:url(#SVGID_00000137131084710324136630000005755504480663617701_)"/><linearGradient id="SVGID_00000031172727133687143850000002891686809787870593_" x1="2739.595" x2="2862.948" y1="1126.059" y2="1543.492" gradientUnits="userSpaceOnUse"><stop offset="0" style="stop-color:#ffc444"/><stop offset=".996" style="stop-color:#f36f56"/></linearGradient><path d="M2642.3 1312.7c-.1-9.6 33.4-13.7 59.7-26.3 33.3-16 47.8-87.9 39.3-119.2-8.5-31.3 49.6-47.4 49.6-47.4 4.7-1.3 24.3 40 26.6 44.4 9.9 18.6 19.5 37.5 31.9 54.7 10.9 15 23.7 28 38.8 38.8 10.7 7.6 22.3 14 34.1 19.6 5.4 2.6 10.9 5.7 16.4 8 2.9 1.2 3.9 7.2 3.6 7.2h.2s-.1-1.8-.2-1.6c-.5 2.6-2.8 4.7-6.6 8.1-17.5 22.1-70.9 78.2-182.2 117.3-66.7-43.9-112.4-77.8-111.1-103.1-.1-.2-.1-.5-.1-.5z" style="fill:url(#SVGID_00000031172727133687143850000002891686809787870593_)"/><linearGradient id="SVGID_00000025412466680748105810000009747714651727101358_" x1="1053.307" x2="339.486" y1="2961.991" y2="1937.197" gradientTransform="matrix(-1 0 0 1 3427.268 0)" gradientUnits="userSpaceOnUse"><stop offset="0" style="stop-color:#aa80f9"/><stop offset=".996" style="stop-color:#6165d7"/></linearGradient><path d="M2847.3 2361.6c-87.7 19-188.7-19.8-252.9-38.7-6.6 40.8-10.7 71.3 9.4 100.4 24.8 36.2 68.9 44.5 170.4 51 258.6 16.7 387.9 25.1 424.6-45.3 15.2-29.2 5.7-52.1-12.4-142.9-18.9-94.6-48-240.3-45.4-336.9 2-72.1 21.8-124 46.4-167.1-58-76.9-140.6-114.7-247.8 8.4 0 0-157.6 175.1-273.3 181.4-65.6 3.5-105.6 46.1-105.6 103v.1c14 29 14.3 61.8 36.5 95 11 16.4 26.4 32.9 43.2 49.1 117.8 113.4 342.7 113 206.9 142.5z" style="opacity:.5;fill:url(#SVGID_00000025412466680748105810000009747714651727101358_)"/><linearGradient id="SVGID_00000127023287877565442500000015582149309829941946_" x1="3572.862" x2="3596.39" y1="1191.391" y2="1536.091" gradientTransform="matrix(-1 0 0 1 6347.83 0)" gradientUnits="userSpaceOnUse"><stop offset="0" style="stop-color:#311944"/><stop offset="1" style="stop-color:#6b3976"/></linearGradient><path d="M2805.9 1394.4s-19.6 63.6-36 64.7c-16.4 1.1-28.5 3.3-28.5 3.3l-24.8-71.2c6.6 2 20.2 6.5 28.1 7.9 19.9 3.7 46.8-3.6 61.2-4.7z" style="fill:url(#SVGID_00000127023287877565442500000015582149309829941946_)"/><linearGradient id="SVGID_00000002357017521607022150000013958199127174667948_" x1="3515.83" x2="3515.83" y1="1849.546" y2="1128.486" gradientTransform="matrix(-1 0 0 1 6347.83 0)" gradientUnits="userSpaceOnUse"><stop offset="0" style="stop-color:#311944"/><stop offset="1" style="stop-color:#6b3976"/></linearGradient><path d="M2777.6 1454.4s36.6 410.6 164.8 476.3c-3.3 13.1 0 120 0 120s-119.5-36-126.3-33.6c-6.8 2.4-144.7-226.2-74.7-554.7l36.2-8z" style="fill:url(#SVGID_00000002357017521607022150000013958199127174667948_)"/><linearGradient id="SVGID_00000136410645973256007570000016922477488627986069_" x1="2660.464" x2="2777.331" y1="995.009" y2="1143.462" gradientUnits="userSpaceOnUse"><stop offset="0" style="stop-color:#444b8c"/><stop offset=".996" style="stop-color:#26264f"/></linearGradient><path d="M2678.1 1142.8c-21.8-9.2-39.1-37.4-35.4-63.7 3.2-22.6 21.2-36 31.9-44 31.2-23.2 81.4-33.6 113.8-11.4 19.2 13.2 22.3 61.9 23.3 70.4 1.1 9.6-3.4 15.8-5.6 24.8-3.1 12.5-7.8 32.4-15.1 65.3-5.2-5.4-12.1-11.9-20.7-18.3-3.3-2.4-16.5-11.9-31.3-17.5-29.6-11.1-40.2 3.2-60.9-5.6z" style="fill:url(#SVGID_00000136410645973256007570000016922477488627986069_)"/><linearGradient id="SVGID_00000008135396928355494670000007396584236697179558_" x1="-225.203" x2="-230.458" y1="1583.289" y2="2006.639" gradientTransform="scale(-1 1) rotate(26.334 -468.387 -4024.143)" gradientUnits="userSpaceOnUse"><stop offset="0" style="stop-color:#ffc444"/><stop offset=".996" style="stop-color:#f36f56"/></linearGradient><path d="M2808.9 1149.8s-1.1 48.7-46.5 71.2c-40.6 20.1-97.1-64.3-82.9-97.4 4.7-11 20-23.3 35.7-27.3 9.3-2.4 14-.6 29.1-4.8 14-3.9 16.6-7.2 22.1-6.3 6.8 1.2 15.7 8.7 22.9 38.8 3.1-11.9 10.4-20 18.5-20.6 1.3-.1 5 .2 8.2 2.1 11.2 6.8 9.4 24.9-7.1 44.3z" style="fill:url(#SVGID_00000008135396928355494670000007396584236697179558_)"/><linearGradient id="SVGID_00000011744835843769293480000017123579759188214950_" x1="2644.822" x2="2761.689" y1="1007.322" y2="1155.775" gradientUnits="userSpaceOnUse"><stop offset="0" style="stop-color:#444b8c"/><stop offset=".996" style="stop-color:#26264f"/></linearGradient><path d="M2765.2 1078.9c-1.1 2.5 8.8 6.2 15 15.9 12 18.9 5.9 53.4-12.9 66.9-11.1 8-18.5 2.8-39.2 12-12.8 5.7-22 13.1-27.5 18.1 6.1 24.8 24.2 42.6 44 44.2 21.4 1.7 37.2-16 43.8-23.4 4.4-5 18.6-20.8 18.5-42.1-.1-22.2-15.3-26.9-10.9-44.5 2.2-8.9 8-15.5 8.7-30.7.2-4.1-.1-7.5-.3-9.7-16.6-4.7-37.7-10.3-39.2-6.7z" style="fill:url(#SVGID_00000011744835843769293480000017123579759188214950_)"/><linearGradient id="SVGID_00000158014431252300782830000014021152658449151410_" x1="1589.098" x2="1595.045" y1="1692.816" y2="1745.837" gradientTransform="rotate(-29.842 1182.254 -691.19)" gradientUnits="userSpaceOnUse"><stop offset="0" style="stop-color:#ffc444"/><stop offset="1" style="stop-color:#f36f56"/></linearGradient><path d="M2719.2 1191.5s11-.5 25.1-9.7c.7-.5 1.6-.7 1.9-.4 1.1 1.2-4.6 12.8-14.7 15.4-7.1 1.8-15.3-1.2-15.3-3.2 0-.8 1.5-1.5 3-2.1z" style="fill:url(#SVGID_00000158014431252300782830000014021152658449151410_)"/></g><linearGradient id="SVGID_00000050660018259069144020000016623853919989802388_" x1="1903.772" x2="2029.255" y1="2041.417" y2="2154.95" gradientTransform="scale(-1 1) rotate(9.114 -340.37 -25559.906)" gradientUnits="userSpaceOnUse"><stop offset="0" style="stop-color:#ffc444"/><stop offset=".996" style="stop-color:#f36f56"/></linearGradient><path d="M2531.7 2087.7s-6.5 8.7-16.2-19.6c-9.7-28.4-44-18.6-44-18.6l8.5 20.6s-98.4-23.6-97.1-6.5c1.3 17.1 28.5 57 59.7 65.8 31.2 8.7 91.4.8 91.4.8l-2.3-42.5z" style="fill:url(#SVGID_00000050660018259069144020000016623853919989802388_)"/><linearGradient id="SVGID_00000050624963154395982070000000226134906360417164_" x1="979.665" x2="2277.246" y1="1587.415" y2="2761.418" gradientTransform="scale(-1 1) rotate(9.114 -340.37 -25559.906)" gradientUnits="userSpaceOnUse"><stop offset="0" style="stop-color:#aa80f9"/><stop offset=".996" style="stop-color:#6165d7"/></linearGradient><path d="M3111.8 1294.6s-138.9-27.9-137.2 238.5c1.7 266.3 32.9 448.1-98.1 476-131 27.8-348.5 55.9-348.5 55.9l4.4 92.7s647.1 156 692.5-72.3 219.9-730.2-113.1-790.8z" style="fill:url(#SVGID_00000050624963154395982070000000226134906360417164_)"/><defs><path id="SVGID_00000155114685757205282770000003244725901549808560_" d="M2388.7 957.3H1340.5c-9.3-4.7-19.7-9-30.4-8.7L205 977.7c-33.3.9-57.3 29.4-53.3 63.6l270.6 2280.9c4.1 34.6 34.7 60.5 68.1 57.8l1104-91.7c31.6-2.6 54-31.9 49.9-65.4L1534 2316.5h854.6V957.3z"/></defs><clipPath id="SVGID_00000093866283081263016200000013808579820599228557_"><use xlink:href="#SVGID_00000155114685757205282770000003244725901549808560_" style="overflow:visible"/></clipPath><g style="clip-path:url(#SVGID_00000093866283081263016200000013808579820599228557_)"><linearGradient id="SVGID_00000131363835123285208490000014609285249872541077_" x1="3262.808" x2="3506.587" y1="3439.735" y2="4319.458" gradientTransform="matrix(-1 0 0 1 4310.581 0)" gradientUnits="userSpaceOnUse"><stop offset="0" style="stop-color:#311944"/><stop offset="1" style="stop-color:#893976"/></linearGradient><path d="M811.3 3939.5s-11.1 47-11.5 64.1c-.4 17 179.1 40.8 181.9 28.2 2.8-12.6-27.3-35.4-48.9-44.4-21.7-9-85.3-33.5-85.3-33.5l-36.2-14.4z" style="fill:url(#SVGID_00000131363835123285208490000014609285249872541077_)"/><linearGradient id="SVGID_00000131344899848267534730000005147789161399522744_" x1="3476.998" x2="3480.523" y1="4062.472" y2="3766.356" gradientTransform="matrix(-1 0 0 1 4310.581 0)" gradientUnits="userSpaceOnUse"><stop offset="0" style="stop-color:#ffc444"/><stop offset=".996" style="stop-color:#f36f56"/></linearGradient><path d="m858.6 3895.6-10.3 58.8s-22 12.7-39.6 0l-4.3-65.3 54.2 6.5z" style="fill:url(#SVGID_00000131344899848267534730000005147789161399522744_)"/><linearGradient id="SVGID_00000133499696635319771710000006089051752581583789_" x1="3552.697" x2="3796.478" y1="3355.05" y2="4234.783" gradientTransform="matrix(-1 0 0 1 4310.581 0)" gradientUnits="userSpaceOnUse"><stop offset="0" style="stop-color:#311944"/><stop offset="1" style="stop-color:#893976"/></linearGradient><path d="M484 3989.8s-11.1 47-11.5 64.1c-.4 17 179.1 40.8 181.9 28.2 2.8-12.6-27.3-35.4-48.9-44.4-21.7-9-85.3-33.5-85.3-33.5l-36.2-14.4z" style="fill:url(#SVGID_00000133499696635319771710000006089051752581583789_)"/><linearGradient id="SVGID_00000053517587348577366440000014992153764109641132_" x1="3804.851" x2="3808.377" y1="4066.559" y2="3770.438" gradientTransform="matrix(-1 0 0 1 4310.581 0)" gradientUnits="userSpaceOnUse"><stop offset="0" style="stop-color:#ffc444"/><stop offset=".996" style="stop-color:#f36f56"/></linearGradient><path d="m531.3 3946-10.3 58.8s-22 12.7-39.6 0l-4.3-65.3 54.2 6.5z" style="fill:url(#SVGID_00000053517587348577366440000014992153764109641132_)"/><linearGradient id="SVGID_00000016760414612453911750000018219864042171132082_" x1="3313.664" x2="3615.519" y1="3109.977" y2="3109.977" gradientTransform="matrix(-1 0 0 1 4310.581 0)" gradientUnits="userSpaceOnUse"><stop offset="0" style="stop-color:#444b8c"/><stop offset=".996" style="stop-color:#26264f"/></linearGradient><path d="M944.6 2346.2c17.4 45.8 34.9 91.7 52.3 137.5-2.6 253.1-15.2 527.4-43 819.6-20.7 217.4-47.6 422.7-78.5 615-28.1-3.7-56.3-7.4-84.4-11.1-34.3-88.1-72.7-220.3-65-379 8-165.5 57.6-183.4 66.7-341.7 11.8-205.2-66.3-266.8-91.2-516.9-9.5-95.7-11.4-219.7 13.5-367.9 76.6 14.8 153.1 29.7 229.6 44.5z" style="fill:url(#SVGID_00000016760414612453911750000018219864042171132082_)"/><linearGradient id="SVGID_00000073695238577602871390000017355172754471170183_" x1="3313.666" x2="3615.519" y1="3109.977" y2="3109.977" gradientTransform="matrix(-1 0 0 1 4310.581 0)" gradientUnits="userSpaceOnUse"><stop offset="0" style="stop-color:#444b8c"/><stop offset=".996" style="stop-color:#26264f"/></linearGradient><path d="M715.1 2301.6c41.3 8 82.6 16.1 123.9 24.1 64.5 142.6 74.6 286.3 56.6 348-25.4 87.3-76.9 111.6-81 201-4.1 88.5 43.9 115.5 67.5 222.1 16.3 73.8 5.5 139.5-16.9 268-45 258.7-111.4 333.4-67.5 423.1 12.5 25.5 36.1 56.6 85.1 82.9-2.5 15.9-4.9 31.8-7.4 47.5-28.1-3.7-56.3-7.4-84.4-11.1-34.3-88.1-72.7-220.3-65-379 8-165.5 57.6-183.4 66.7-341.7 11.8-205.2-66.3-266.8-91.2-516.9-9.4-95.7-11.3-219.7 13.6-368z" style="opacity:.3;fill:url(#SVGID_00000073695238577602871390000017355172754471170183_)"/><linearGradient id="SVGID_00000021115021167733749890000015564101075692137362_" x1="3564.228" x2="3690.238" y1="4240.04" y2="3205.707" gradientTransform="matrix(-1 0 0 1 4310.581 0)" gradientUnits="userSpaceOnUse"><stop offset="0" style="stop-color:#444b8c"/><stop offset=".996" style="stop-color:#26264f"/></linearGradient><path d="M826.5 2416.3c-56.2 219.4-109 454.8-155.3 705.2-55.9 302.4-95.3 588.6-122.7 855.1-31.1-1.7-62.1-3.4-93.2-5-102.7-262.5-97.1-434.2-70.9-544.2 10.1-42.4 35-125 48.8-250.4 9.7-87.4 9.4-154.6 8.9-235.4-1.2-177.1-16-217-8.3-351.7 7.3-126.4 11.7-190.4 49-224.8 98.6-90.6 326.4 41 343.7 51.2z" style="fill:url(#SVGID_00000021115021167733749890000015564101075692137362_)"/><linearGradient id="SVGID_00000025443151556027328310000012193074477941540003_" x1="2414.226" x2="2700.148" y1="1832.451" y2="2123.479" gradientTransform="matrix(-1 0 0 1 4310.581 0)" gradientUnits="userSpaceOnUse"><stop offset="0" style="stop-color:#ffc444"/><stop offset=".996" style="stop-color:#f36f56"/></linearGradient><path d="M1728.1 1906.6s68.2-6.1 78.1-17.7c9.9-11.6 24.9-30.1 26.3-40.7 1.5-10.6 14.7 5.2 2.7 28.2-11.9 23 22 18.1 27.2 17.6 12.2-1.3 58.6-2.7 57.2.3-1.3 3 5.5 16.3-27.4 31.9-28.9 13.7-63.2 4.8-82 5.7l-18.8.9-49.7 4-13.6-30.2z" style="fill:url(#SVGID_00000025443151556027328310000012193074477941540003_)"/><linearGradient id="SVGID_00000164503207113204893690000002510788599607027082_" x1="3790.535" x2="2409.814" y1="964.542" y2="2376.172" gradientTransform="matrix(-1 0 0 1 4310.581 0)" gradientUnits="userSpaceOnUse"><stop offset="0" style="stop-color:#ff9085"/><stop offset="1" style="stop-color:#fb6fbb"/></linearGradient><path d="M1768.1 1873.3c3 23.8 6 47.5 9 71.3-45.2 39.4-145.1 114.9-284.1 126.2-245 20-488-169.5-533.3-382.6-22.4-105.5-4.1-253.6 58.7-277.4 17.4-6.6 43.6-5.7 97.6 32.2 144 101.1 156.3 233.8 235.9 323.6 57.3 64.7 169.9 130.1 416.2 106.7z" style="fill:url(#SVGID_00000164503207113204893690000002510788599607027082_)"/><linearGradient id="SVGID_00000126294211632159604780000017376873680531252613_" x1="1547.037" x2="554.107" y1="3131.439" y2="1705.944" gradientUnits="userSpaceOnUse"><stop offset="0" style="stop-color:#ff9085"/><stop offset="1" style="stop-color:#fb6fbb"/></linearGradient><path d="M1113.3 2024.9c-21.8 72.1-41.9 117.6-55.9 153.6v.1c-23.3 36-29.5 62.4-35.4 96-2.9 16.4-5.2 34.5-5 56.3.4 39.1 5.5 71 10 98.4 6.7 41.3 10.6 72.2-9.7 101.6-25.1 36.6-69.8 45-172.4 51.6-261.6 16.9-392.4 25.4-429.5-45.8-15.4-29.6-5.8-52.7 12.5-144.5 19.1-95.6 48.5-243.1 45.9-340.8-2-72.9-22.1-125.4-47-169-49.4-86.6-117.8-138.4-101.6-245.3 24-158 203.1-241.1 211.8-245 58.8-26.3 134.8-24.1 286.6-19.7 122.9 3.6 185.2 6 228.5 37.5 84 61.1 101.2 174.5 110.9 241.2 20.3 139.5-13.6 254.3-49.7 373.8z" style="fill:url(#SVGID_00000126294211632159604780000017376873680531252613_)"/><linearGradient id="SVGID_00000065076642204225226380000003929203075857912749_" x1="4436.659" x2="3367.951" y1="3206.776" y2="1672.493" gradientTransform="matrix(-1 0 0 1 4310.581 0)" gradientUnits="userSpaceOnUse"><stop offset="0" style="stop-color:#ff9085"/><stop offset="1" style="stop-color:#fb6fbb"/></linearGradient><path d="M659.4 2032c-14.2 41.1-55.9 69.3-91.1 169.2-7.6 21.6-61.8 175.3-10.1 218.6 29.8 25 61.4-15 138.4-14.1 133.4 1.5 187.7 123.3 276.8 98.7 15.5-4.3 36.2-14.4 58.1-39.7 2.1 24.7-.2 45.8-14.2 66.2-25.1 36.5-69.7 45-172.3 51.6-261.6 16.9-392.4 25.4-429.4-45.8-15.4-29.6-5.8-52.7 12.5-144.5 19.1-95.6 48.5-243.1 45.8-340.8-5.9-217.6-172.9-253.5-148.5-414.3 6.5-43 24.7-80.2 47.7-112 206.8 108.3 330.8 377.6 286.3 506.9z" style="fill:url(#SVGID_00000065076642204225226380000003929203075857912749_)"/><linearGradient id="SVGID_00000086672540713411218970000015526623043888811658_" x1="975.279" x2="756.615" y1="1603.359" y2="1289.434" gradientUnits="userSpaceOnUse"><stop offset="0" style="stop-color:#ffc444"/><stop offset=".996" style="stop-color:#f36f56"/></linearGradient><path d="M978.3 1407.5c.1-9.7-33.8-13.8-60.4-26.6-33.7-16.2-48.3-88.9-39.7-120.6 8.6-31.7-50.1-48-50.1-48s-7.1 58.7-27.9 101.3c-18.9 38.5-104 60.1-121.5 67.6-2.9 1.2-3.9 8.9-3.6 8.9h-.2s.1-3.4.2-3.2c.5 2.6 2.9 4 6.7 7.4 17.7 22.3 71.7 78.7 184.3 118.2 67.5-44.4 113.7-78.9 112.4-104.5-.2.1-.2-.4-.2-.5z" style="fill:url(#SVGID_00000086672540713411218970000015526623043888811658_)"/><linearGradient id="SVGID_00000159443252118449790360000013927468538885513372_" x1="3546.734" x2="3419.779" y1="1403.844" y2="1081.402" gradientTransform="matrix(-1 0 0 1 4310.581 0)" gradientUnits="userSpaceOnUse"><stop offset="0" style="stop-color:#444b8c"/><stop offset=".996" style="stop-color:#3e4177"/></linearGradient><path d="M906.6 1197.4c27.2-23.8 31-26.5 34.4-35.3 13.8-35-9.1-86.5-43.2-101.5-1.8-.8-24.6-10.6-34.4-.7-8.3 8.4 1.9 21.8-4.7 38.8-6.2 15.9-19.9 16-46.6 35.3-22 15.9-35.7 25.8-39.8 40.9-8.5 31.2 24.7 80.3 57.4 81.8 11.7.5 15.3-5.5 76.9-59.3z" style="fill:url(#SVGID_00000159443252118449790360000013927468538885513372_)"/><linearGradient id="SVGID_00000140005669928682799030000013056089544763205517_" x1="675.4" x2="791.449" y1="1281.287" y2="2114.104" gradientTransform="scale(-1 1) rotate(34.208 -945.959 -1403.375)" gradientUnits="userSpaceOnUse"><stop offset="0" style="stop-color:#ffc444"/><stop offset=".996" style="stop-color:#f36f56"/></linearGradient><path d="M832.4 1261.8s24.4 34 66.1 26.9c37.3-6.3 34.7-94.9 9-111.1-8.6-5.4-24.8-6.4-37.5-1.3-7.5 3-9.8 6.6-22.1 11.3-11.4 4.3-14.8 3.3-18 6.8-4 4.3-6.4 14.1 3.3 39.1-7.9-6.9-16.7-8.9-22.6-5.3-.9.6-3.3 2.7-4.5 5.6-4.4 10.7 5.6 22.6 26.3 28z" style="fill:url(#SVGID_00000140005669928682799030000013056089544763205517_)"/><linearGradient id="SVGID_00000153702968863818119400000000218703468169889682_" x1="1248.755" x2="526.782" y1="3076.294" y2="2039.798" gradientUnits="userSpaceOnUse"><stop offset="0" style="stop-color:#ff9085"/><stop offset="1" style="stop-color:#fb6fbb"/></linearGradient><path d="M770.9 2468.4c88.7 19.2 190.9-20 255.8-39.1 6.7 41.3 10.8 72.2-9.5 101.6-25.1 36.6-69.7 45-172.3 51.6-261.6 16.9-392.4 25.4-429.4-45.8-15.4-29.6-5.8-52.7 12.5-144.5 19.1-95.6 48.5-243.1 45.9-340.8-2-72.9-22-125.4-47-169 58.6-77.8 142.2-116 250.6 8.5 0 0 157.8 177.1 274.8 183.4 66.4 3.5 105.2 46.6 105.2 104.2v.1c-9.3 29.4-12.9 62.5-35.4 96-11.1 16.6-25.9 33.3-42.9 49.7-119 114.7-345.6 114.3-208.3 144.1z" style="opacity:.4;fill:url(#SVGID_00000153702968863818119400000000218703468169889682_)"/><linearGradient id="SVGID_00000090270806478797185330000016309448525415809947_" x1="3764.612" x2="3788.41" y1="1284.861" y2="1633.497" gradientTransform="translate(-2920.562)" gradientUnits="userSpaceOnUse"><stop offset="0" style="stop-color:#311944"/><stop offset="1" style="stop-color:#6b3976"/></linearGradient><path d="M812.8 1490.2s19.8 64.3 36.4 65.4c16.6 1.1 28.8 3.3 28.8 3.3l25.1-72c-6.7 2.1-20.5 6.6-28.4 8-20.2 3.8-47.4-3.6-61.9-4.7z" style="fill:url(#SVGID_00000090270806478797185330000016309448525415809947_)"/><linearGradient id="SVGID_00000044139196715771292450000012264747804517010321_" x1="3706.93" x2="3706.93" y1="1950.531" y2="1221.238" gradientTransform="translate(-2920.562)" gradientUnits="userSpaceOnUse"><stop offset="0" style="stop-color:#311944"/><stop offset="1" style="stop-color:#6b3976"/></linearGradient><path d="M841.3 1550.8s-37 415.3-166.6 481.8c3.3 13.3 0 121.3 0 121.3s120.9-36.4 127.7-34c6.9 2.4 146.4-228.8 75.6-561.1l-36.7-8z" style="fill:url(#SVGID_00000044139196715771292450000012264747804517010321_)"/><linearGradient id="SVGID_00000113345366971993778870000006701892369847054227_" x1="1442.565" x2="854.898" y1="1860.088" y2="2048.688" gradientUnits="userSpaceOnUse"><stop offset="0" style="stop-color:#fcb148"/><stop offset=".052" style="stop-color:#fdba46"/><stop offset=".142" style="stop-color:#ffc244"/><stop offset=".318" style="stop-color:#ffc444"/><stop offset=".485" style="stop-color:#fdb946"/><stop offset=".775" style="stop-color:#f99c4d"/><stop offset=".866" style="stop-color:#f8924f"/><stop offset="1" style="stop-color:#f8924f"/></linearGradient><path d="M2119.1 1838.8c0 272.6-213.2 487.1-485.6 478.7-283.6-8.7-522-253.6-522-546.7s238.5-505.8 522-476.3c272.4 28.4 485.6 271.6 485.6 544.3z" style="fill:url(#SVGID_00000113345366971993778870000006701892369847054227_)"/><linearGradient id="SVGID_00000044867978383511034360000011135247942915510189_" x1="1917.953" x2="1393.32" y1="1275.124" y2="2432.563" gradientUnits="userSpaceOnUse"><stop offset="0" style="stop-color:#ffdb44"/><stop offset="1" style="stop-color:#feef06"/></linearGradient><path d="M2192.7 1815.3c0 272.6-213.2 487.1-485.6 478.7-283.6-8.7-522-253.6-522-546.7s238.5-505.8 522-476.3c272.4 28.4 485.6 271.6 485.6 544.3z" style="fill:url(#SVGID_00000044867978383511034360000011135247942915510189_)"/><linearGradient id="SVGID_00000118393913127420864120000007245870359285912251_" x1="1821.447" x2="1720.217" y1="2497.253" y2="1944.242" gradientUnits="userSpaceOnUse"><stop offset="0" style="stop-color:#fcb148"/><stop offset=".052" style="stop-color:#fdba46"/><stop offset=".142" style="stop-color:#ffc244"/><stop offset=".318" style="stop-color:#ffc444"/><stop offset=".485" style="stop-color:#fdb946"/><stop offset=".775" style="stop-color:#f99c4d"/><stop offset=".866" style="stop-color:#f8924f"/><stop offset="1" style="stop-color:#f8924f"/></linearGradient><path d="M2171.3 1813.8c0 260.6-204 465.3-464.3 456.9-270.4-8.8-497.4-242.5-497.4-521.7s227-482.3 497.4-454.6c260.4 26.6 464.3 258.8 464.3 519.4z" style="fill:url(#SVGID_00000118393913127420864120000007245870359285912251_)"/><linearGradient id="SVGID_00000142886570268479021530000013818744075507364228_" x1="1606.822" x2="2024" y1="1602.144" y2="2487.734" gradientUnits="userSpaceOnUse"><stop offset="0" style="stop-color:#fcb148"/><stop offset=".052" style="stop-color:#fdba46"/><stop offset=".142" style="stop-color:#ffc244"/><stop offset=".318" style="stop-color:#ffc444"/><stop offset=".485" style="stop-color:#fdb946"/><stop offset=".775" style="stop-color:#f99c4d"/><stop offset=".866" style="stop-color:#f8924f"/><stop offset="1" style="stop-color:#f8924f"/></linearGradient><path d="M2156 1812.8c0 252-197.4 449.7-448.9 441.3-261-8.8-479.9-234.5-479.9-503.9s218.9-465.6 479.9-439.2c251.5 25.5 448.9 249.8 448.9 501.8z" style="fill:url(#SVGID_00000142886570268479021530000013818744075507364228_)"/><linearGradient id="SVGID_00000110445961658096226040000008652009975282073023_" x1="1590.201" x2="1799.973" y1="1411.576" y2="2197.763" gradientUnits="userSpaceOnUse"><stop offset="0" style="stop-color:#ffdb44"/><stop offset="1" style="stop-color:#feef06"/></linearGradient><path d="M1704.5 1396.7c13.4 1.3 24.2 13.3 24.2 26.9v46.4c26.8 3 53.6 7.6 80.4 14 19.8 4.7 39.5 10.2 59 16.6 11.7 3.8 19.7 15.7 18.5 27.8l-5.7 58.2c-1.5 15.4-16.8 24.5-31.1 18.1-12.9-5.7-26.1-10.7-39.6-14.7-23.6-7.1-48.5-11.8-74.6-13.9l-6.8-.6v132.9c69.8 19.5 121.1 45.8 154.3 78.9 33 32.9 49.4 73.9 49.4 123.1 0 53.2-18.2 95.9-54.7 128-36.7 32.3-88.1 50.5-154.6 54.4v51.2c0 13.6-10.8 24.2-24.2 23.7h-.4c-13.4-.5-24.3-12-24.3-25.7v-50.5l-10.8-.5c-31.2-1.4-61-4.6-89.6-9.5-21.1-3.7-41.8-8.4-61.9-14.2-12.2-3.5-20.5-15.1-19.4-27.6l6.7-74.8c1.4-16.2 17.7-25.6 33.1-19.5 17.9 7.1 36.1 13 54.4 17.9 28.6 7.5 57.6 12.4 87 14.5l.4-147.8c-67-16.6-117.2-41.2-150.2-73.7-33.1-32.7-49.7-74.5-49.7-125.4 0-52.6 18-93.3 53.9-121.8 35.7-28.4 86.5-42.5 152-42.5v-47.4c0-13.7 10.9-23.7 24.3-22.5zm-24.3 177.4c-20.7 1.5-36.9 7.2-48.4 17.1-11.6 9.9-17.4 23.2-17.4 39.9 0 15.8 5.4 29 16.1 39.6 10.7 10.6 27.3 19.1 49.7 25.4v-122zm43 267.7v135.6c22.5 0 39.8-5.3 51.8-16.1s18-26 18-45.6c0-17.9-5.6-32.8-16.8-44.6-11.1-12-28.8-21.7-53-29.3z" style="fill:url(#SVGID_00000110445961658096226040000008652009975282073023_)"/><linearGradient id="SVGID_00000036940208612337832950000009587705276603055755_" x1="1484.089" x2="1900.426" y1="1659.455" y2="2543.258" gradientUnits="userSpaceOnUse"><stop offset="0" style="stop-color:#fcb148"/><stop offset=".052" style="stop-color:#fdba46"/><stop offset=".142" style="stop-color:#ffc244"/><stop offset=".318" style="stop-color:#ffc444"/><stop offset=".485" style="stop-color:#fdb946"/><stop offset=".775" style="stop-color:#f99c4d"/><stop offset=".866" style="stop-color:#f8924f"/><stop offset="1" style="stop-color:#f8924f"/></linearGradient><path d="M1625.8 1874.5c15.2-149.8 152.8-213.2 134.9-351-11.1-84.9-75.4-156.5-147.3-212.4-217.8 22.8-386.2 203.2-386.2 439.1 0 269.4 218.9 495.1 479.9 503.9 25.3.9 50.1-.5 74.2-3.6-103.7-103.2-168.5-247.3-155.5-376z" style="opacity:.3;fill:url(#SVGID_00000036940208612337832950000009587705276603055755_)"/><linearGradient id="SVGID_00000093153587380483547900000006174435572309165491_" x1="955.794" x2="1388.408" y1="1849.851" y2="2241.263" gradientUnits="userSpaceOnUse"><stop offset="0" style="stop-color:#ffc444"/><stop offset=".996" style="stop-color:#f36f56"/></linearGradient><path d="M1183.5 2126.7s7.9 7.7 13-22.2 41-25.6 41-25.6l-5.2 21.9s94.5-39.4 95.9-22.1c1.4 17.3-19.3 61.5-49 75.2-29.7 13.7-91.2 15.4-91.2 15.4l-4.5-42.6z" style="fill:url(#SVGID_00000093153587380483547900000006174435572309165491_)"/><linearGradient id="SVGID_00000165231031992132771790000016730346996384279448_" x1="277.587" x2="1590.019" y1="1622.667" y2="2810.106" gradientUnits="userSpaceOnUse"><stop offset="0" style="stop-color:#ff9085"/><stop offset="1" style="stop-color:#fb6fbb"/></linearGradient><path d="M477.1 1427.6s134.3-50.1 175.2 216.2c41 266.2 38.9 452.8 174.2 459.6 135.3 6.8 357 0 357 0l10.4 93.3s-621.2 259.4-703.1 38.7c-81.9-220.8-336.6-694-13.7-807.8z" style="fill:url(#SVGID_00000165231031992132771790000016730346996384279448_)"/></g><linearGradient id="SVGID_00000129895543656238690760000015171208931798933639_" x1="1200.705" x2="2279.388" y1="3582.764" y2="3582.764" gradientUnits="userSpaceOnUse"><stop offset="0" style="stop-color:#f57e53"/><stop offset=".005" style="stop-color:#f58152"/><stop offset=".042" style="stop-color:#f99a4d"/><stop offset=".084" style="stop-color:#fcad49"/><stop offset=".133" style="stop-color:#feba46"/><stop offset=".196" style="stop-color:#ffc244"/><stop offset=".318" style="stop-color:#ffc444"/><stop offset=".455" style="stop-color:#fdb946"/><stop offset=".694" style="stop-color:#f99c4c"/><stop offset=".996" style="stop-color:#f36f56"/></linearGradient><path d="M1280.9 3500.4v104c0 33.6 209.9 60.8 468.8 60.8s468.8-27.2 468.8-60.8v-104h-937.6z" style="fill:url(#SVGID_00000129895543656238690760000015171208931798933639_)"/><linearGradient id="SVGID_00000000902843836081251200000010965504496146612148_" x1="1745.004" x2="1801.871" y1="3461.254" y2="3937.315" gradientUnits="userSpaceOnUse"><stop offset="0" style="stop-color:#ffdb44"/><stop offset="1" style="stop-color:#feef06"/></linearGradient><path d="M2218.5 3500.4c0 33.6-209.9 60.8-468.8 60.8s-468.8-27.2-468.8-60.8c0-33.6 209.9-60.8 468.8-60.8 258.9-.1 468.8 27.2 468.8 60.8z" style="fill:url(#SVGID_00000000902843836081251200000010965504496146612148_)"/><linearGradient id="SVGID_00000007403757537165462300000006437124710147273620_" x1="1742.531" x2="1759.996" y1="3440.024" y2="3586.23" gradientUnits="userSpaceOnUse"><stop offset="0" style="stop-color:#ffdb44"/><stop offset="1" style="stop-color:#feef06"/></linearGradient><path d="M1749.7 3565.4c-229.3 0-469.1-21.9-469.1-64.1 0-2.3.8-6.4 3.1-6.4s1.3 3.2 1.3 5.5c0 26.8 190.8 56.6 464.6 56.6s464.6-29.8 464.6-56.6c0-2.3.4-4.5 2.7-4.5 2.3 0 1.8 3.1 1.8 5.4.1 42.2-239.7 64.1-469 64.1z" style="fill:url(#SVGID_00000007403757537165462300000006437124710147273620_)"/><path d="M1705.4 3503.7c4.6-3.2 9.5-6.3 14.7-9.4 5.2-3.1 12-5.9 20.1-8.4 8.2-2.5 18.5-4.5 30.9-6.1 12.4-1.6 27.8-2.4 46.3-2.5 18.1-.1 35.1.5 51 1.7 15.9 1.2 29.9 3.1 42 5.6 12 2.5 21.9 5.5 29.5 9.1 7.5 3.6 12 7.8 13.5 12.5l52.8.5c3.8 0 7.2.3 10.1.9 2.9.6 4.4 1.4 4.4 2.3v4.3l-67.9-.7c-2.4 5.3-8.4 10.2-18.2 14.6-9.7 4.4-22.1 8.2-37.2 11.5l-24.7-3.4c-2.2-.3-4-.8-5.5-1.3-1.4-.5-2.1-1.1-2.1-1.7 0-.8 1.9-1.8 5.7-2.9 3.8-1.1 8.1-2.4 12.9-4 4.8-1.6 9.5-3.4 14.2-5.6 4.6-2.2 7.7-4.7 9.3-7.7l-160.2-1.6c-4.2 3.1-9 6.1-14.1 9.1-5.2 3-12.1 5.7-20.8 8.1-8.6 2.4-19.4 4.3-32.2 5.8-12.9 1.5-29.1 2.3-48.6 2.4-14.7.1-29-.5-43-1.7s-26.4-3-37.3-5.3c-10.9-2.4-19.8-5.3-26.8-8.8-6.9-3.5-10.8-7.5-11.6-12l-43.5-.4c-3.8 0-7.2-.3-10.3-.9-3-.6-4.5-1.3-4.5-2.3v-4.3l59.4.6c2.6-4.6 8-8.6 16.2-12 8.2-3.4 18.3-6.4 30.2-9.1l19.9 2.7c6 .8 9 1.8 9 3 0 .6-1.2 1.4-3.7 2.3-2.5.9-5.5 2-8.9 3.3-3.4 1.3-6.7 2.8-9.9 4.5-3.2 1.7-5.6 3.6-7.2 5.8l146.1 1.5zm-146.6 6c1.2 2.9 3.9 5.3 7.9 7.4 4 2.1 9.1 3.8 15.1 5.1 6 1.3 12.8 2.3 20.3 2.9 7.6.6 15.5.9 23.7.9 9.6 0 18-.5 25.2-1.2 7.1-.8 13.4-1.8 18.8-3.2 5.4-1.3 10.1-2.9 14.2-4.7 4-1.8 7.6-3.7 10.8-5.8l-136-1.4zm348.7-3.9c-1.2-2.9-4.1-5.4-8.6-7.6-4.5-2.2-10.3-4-17.4-5.5-7-1.5-15.2-2.6-24.6-3.3-9.3-.7-19.6-1.1-30.9-1-10 0-18.7.5-25.9 1.3-7.2.9-13.5 2-18.8 3.4-5.3 1.4-9.9 3.1-13.5 5-3.7 1.9-7.2 3.9-10.4 6.1l150.1 1.6z" class="st60"/><linearGradient id="SVGID_00000100380203705652276510000010114686312998131110_" x1="-89.699" x2="-72.296" y1="556.937" y2="702.624" gradientTransform="rotate(180 834.625 2063.92)" gradientUnits="userSpaceOnUse"><stop offset=".004" style="stop-color:#f36f56"/><stop offset=".306" style="stop-color:#f99c4c"/><stop offset=".545" style="stop-color:#fdb946"/><stop offset=".682" style="stop-color:#ffc444"/><stop offset=".804" style="stop-color:#ffc244"/><stop offset=".867" style="stop-color:#feba46"/><stop offset=".916" style="stop-color:#fcad49"/><stop offset=".958" style="stop-color:#f99a4d"/><stop offset=".996" style="stop-color:#f58152"/><stop offset="1" style="stop-color:#f57e53"/></linearGradient><path d="M1749.7 3446.1c-209 0-426.7 18.4-461.5 54 1.4 1.3 2.6 2.6 3.8 4 29.3-24.7 209.1-49.6 457.7-49.6 255 0 437.6 26.2 459.7 51.5 1.1-1.4 2.2-2.7 3.5-4-28.7-36.8-250.4-55.9-463.2-55.9z" style="fill:url(#SVGID_00000100380203705652276510000010114686312998131110_)"/><linearGradient id="SVGID_00000101062354402386439480000017853561740741698227_" x1="1070.377" x2="2149.061" y1="3473.541" y2="3473.541" gradientUnits="userSpaceOnUse"><stop offset="0" style="stop-color:#f57e53"/><stop offset=".005" style="stop-color:#f58152"/><stop offset=".042" style="stop-color:#f99a4d"/><stop offset=".084" style="stop-color:#fcad49"/><stop offset=".133" style="stop-color:#feba46"/><stop offset=".196" style="stop-color:#ffc244"/><stop offset=".318" style="stop-color:#ffc444"/><stop offset=".455" style="stop-color:#fdb946"/><stop offset=".694" style="stop-color:#f99c4c"/><stop offset=".996" style="stop-color:#f36f56"/></linearGradient><path d="M1150.5 3391.1v104c0 33.6 209.9 60.8 468.8 60.8s468.8-27.2 468.8-60.8v-104h-937.6z" style="fill:url(#SVGID_00000101062354402386439480000017853561740741698227_)"/><linearGradient id="SVGID_00000144335771959432442080000001573747365960707210_" x1="1614.676" x2="1671.543" y1="3352.032" y2="3828.093" gradientUnits="userSpaceOnUse"><stop offset="0" style="stop-color:#ffdb44"/><stop offset="1" style="stop-color:#feef06"/></linearGradient><path d="M2088.2 3391.1c0 33.6-209.9 60.8-468.8 60.8s-468.8-27.2-468.8-60.8 209.9-60.8 468.8-60.8 468.8 27.2 468.8 60.8z" style="fill:url(#SVGID_00000144335771959432442080000001573747365960707210_)"/><linearGradient id="SVGID_00000085211909117278176550000000930219213529565606_" x1="1612.203" x2="1629.668" y1="3330.802" y2="3477.007" gradientUnits="userSpaceOnUse"><stop offset="0" style="stop-color:#ffdb44"/><stop offset="1" style="stop-color:#feef06"/></linearGradient><path d="M1619.3 3456.2c-229.3 0-469.1-21.9-469.1-64.1 0-2.3.8-6.4 3.1-6.4s1.3 3.2 1.3 5.5c0 26.8 190.8 56.6 464.6 56.6s464.6-29.8 464.6-56.6c0-2.3.4-4.5 2.7-4.5 2.3 0 1.8 3.1 1.8 5.4.1 42.2-239.6 64.1-469 64.1z" style="fill:url(#SVGID_00000085211909117278176550000000930219213529565606_)"/><path d="M1575 3394.5c4.6-3.2 9.5-6.3 14.7-9.4 5.2-3.1 12-5.9 20.1-8.4 8.2-2.5 18.5-4.5 30.9-6.1 12.4-1.6 27.8-2.4 46.3-2.5 18.1-.1 35.1.5 51 1.7 15.9 1.2 29.9 3.1 42 5.6 12 2.5 21.9 5.5 29.5 9.1 7.5 3.6 12 7.8 13.5 12.5l52.8.5c3.8 0 7.2.3 10.1.9 2.9.6 4.4 1.4 4.4 2.3v4.3l-67.9-.7c-2.4 5.3-8.4 10.2-18.2 14.6-9.7 4.4-22.1 8.2-37.2 11.5l-24.7-3.4c-2.2-.3-4-.8-5.5-1.3-1.4-.5-2.1-1.1-2.1-1.7 0-.8 1.9-1.8 5.7-2.9 3.8-1.1 8.1-2.4 12.9-4 4.8-1.6 9.5-3.4 14.2-5.6 4.6-2.2 7.7-4.7 9.3-7.7l-160.2-1.6c-4.2 3.1-9 6.1-14.1 9.1-5.2 3-12.1 5.7-20.8 8.1-8.6 2.4-19.4 4.3-32.2 5.8-12.9 1.5-29.1 2.3-48.6 2.4-14.7.1-29-.5-43-1.7s-26.4-3-37.3-5.3c-10.9-2.4-19.8-5.3-26.8-8.8-6.9-3.5-10.8-7.5-11.6-12l-43.5-.4c-3.8 0-7.2-.3-10.3-.9-3-.6-4.5-1.3-4.5-2.3v-4.3l59.4.6c2.6-4.6 8-8.6 16.2-12 8.2-3.4 18.3-6.4 30.2-9.1l19.9 2.7c6 .8 9 1.8 9 3 0 .6-1.2 1.4-3.7 2.3-2.5.9-5.5 2-8.9 3.3-3.4 1.3-6.7 2.8-9.9 4.5-3.2 1.7-5.6 3.6-7.2 5.8l146.1 1.5zm-146.5 5.9c1.2 2.9 3.9 5.3 7.9 7.4 4 2.1 9.1 3.8 15.1 5.1 6 1.3 12.8 2.3 20.3 2.9 7.6.6 15.5.9 23.7.9 9.6 0 18-.5 25.2-1.2 7.1-.8 13.4-1.8 18.8-3.2 5.4-1.3 10.1-2.9 14.2-4.7 4-1.8 7.6-3.7 10.8-5.8l-136-1.4zm348.7-3.8c-1.2-2.9-4.1-5.4-8.6-7.6-4.5-2.2-10.3-4-17.4-5.5-7-1.5-15.2-2.6-24.6-3.3-9.3-.7-19.6-1.1-30.9-1-10 0-18.7.5-25.9 1.3-7.2.8-13.5 2-18.8 3.4-5.3 1.4-9.9 3.1-13.5 5-3.7 1.9-7.2 3.9-10.4 6.1l150.1 1.6z" class="st60"/><linearGradient id="SVGID_00000110460091108107507580000014456487225727507639_" x1="40.628" x2="58.031" y1="666.16" y2="811.848" gradientTransform="rotate(180 834.625 2063.92)" gradientUnits="userSpaceOnUse"><stop offset=".004" style="stop-color:#f36f56"/><stop offset=".306" style="stop-color:#f99c4c"/><stop offset=".545" style="stop-color:#fdb946"/><stop offset=".682" style="stop-color:#ffc444"/><stop offset=".804" style="stop-color:#ffc244"/><stop offset=".867" style="stop-color:#feba46"/><stop offset=".916" style="stop-color:#fcad49"/><stop offset=".958" style="stop-color:#f99a4d"/><stop offset=".996" style="stop-color:#f58152"/><stop offset="1" style="stop-color:#f57e53"/></linearGradient><path d="M1619.4 3336.9c-209 0-426.7 18.4-461.5 54 1.4 1.3 2.6 2.6 3.8 4 29.3-24.7 209.1-49.6 457.7-49.6 255 0 437.6 26.2 459.7 51.5 1.1-1.4 2.2-2.7 3.5-4-28.7-36.9-250.4-55.9-463.2-55.9z" style="fill:url(#SVGID_00000110460091108107507580000014456487225727507639_)"/><linearGradient id="SVGID_00000167361159659604095100000000910102968342108296_" x1="1182.832" x2="2261.517" y1="3364.637" y2="3364.637" gradientUnits="userSpaceOnUse"><stop offset="0" style="stop-color:#f57e53"/><stop offset=".005" style="stop-color:#f58152"/><stop offset=".042" style="stop-color:#f99a4d"/><stop offset=".084" style="stop-color:#fcad49"/><stop offset=".133" style="stop-color:#feba46"/><stop offset=".196" style="stop-color:#ffc244"/><stop offset=".318" style="stop-color:#ffc444"/><stop offset=".455" style="stop-color:#fdb946"/><stop offset=".694" style="stop-color:#f99c4c"/><stop offset=".996" style="stop-color:#f36f56"/></linearGradient><path d="M1263 3282.2v104c0 33.6 209.9 60.8 468.8 60.8s468.8-27.2 468.8-60.8v-104H1263z" style="fill:url(#SVGID_00000167361159659604095100000000910102968342108296_)"/><linearGradient id="SVGID_00000103236457568890702820000014656250157379524533_" x1="1727.131" x2="1783.998" y1="3243.128" y2="3719.189" gradientUnits="userSpaceOnUse"><stop offset="0" style="stop-color:#ffdb44"/><stop offset="1" style="stop-color:#feef06"/></linearGradient><path d="M2200.6 3282.2c0 33.6-209.9 60.8-468.8 60.8s-468.8-27.2-468.8-60.8 209.9-60.8 468.8-60.8 468.8 27.2 468.8 60.8z" style="fill:url(#SVGID_00000103236457568890702820000014656250157379524533_)"/><linearGradient id="SVGID_00000166634791223762370600000004361679004766052495_" x1="1724.658" x2="1742.123" y1="3221.897" y2="3368.103" gradientUnits="userSpaceOnUse"><stop offset="0" style="stop-color:#ffdb44"/><stop offset="1" style="stop-color:#feef06"/></linearGradient><path d="M1731.8 3347.3c-229.3 0-469.1-21.9-469.1-64.1 0-2.3.8-6.4 3.1-6.4s1.3 3.2 1.3 5.5c0 26.8 190.8 56.6 464.6 56.6s464.6-29.8 464.6-56.6c0-2.3.4-4.5 2.7-4.5 2.3 0 1.8 3.1 1.8 5.4.1 42.2-239.7 64.1-469 64.1z" style="fill:url(#SVGID_00000166634791223762370600000004361679004766052495_)"/><path d="M1687.5 3285.6c4.6-3.2 9.5-6.3 14.7-9.4 5.2-3.1 12-5.9 20.1-8.4 8.2-2.5 18.5-4.5 30.9-6.1 12.4-1.6 27.8-2.4 46.3-2.5 18.1-.1 35.1.5 51 1.7 15.9 1.2 29.9 3.1 42 5.6 12 2.5 21.9 5.5 29.5 9.1 7.5 3.6 12 7.8 13.5 12.5l52.8.5c3.8 0 7.2.3 10.1.9 2.9.6 4.4 1.4 4.4 2.3v4.3l-67.9-.7c-2.4 5.3-8.4 10.2-18.2 14.6-9.7 4.4-22.1 8.2-37.2 11.5l-24.7-3.4c-2.2-.3-4-.8-5.5-1.3-1.4-.5-2.1-1.1-2.1-1.7 0-.8 1.9-1.8 5.7-2.9 3.8-1.1 8.1-2.4 12.9-4 4.8-1.6 9.5-3.4 14.2-5.6 4.6-2.1 7.7-4.7 9.3-7.7l-160.2-1.6c-4.2 3.1-9 6.1-14.1 9.1-5.2 3-12.1 5.7-20.8 8.1-8.6 2.4-19.4 4.3-32.2 5.8-12.9 1.5-29.1 2.3-48.6 2.4-14.7.1-29-.5-43-1.7s-26.4-3-37.3-5.3c-10.9-2.4-19.8-5.3-26.8-8.8-6.9-3.5-10.8-7.5-11.6-12l-43.5-.4c-3.8 0-7.2-.3-10.3-.9-3-.6-4.5-1.4-4.5-2.3v-4.3l59.4.6c2.6-4.6 8-8.6 16.2-12 8.2-3.4 18.3-6.4 30.2-9.1l19.9 2.7c6 .8 9 1.8 9 3 0 .6-1.2 1.4-3.7 2.3-2.5.9-5.5 2-8.9 3.3-3.4 1.3-6.7 2.8-9.9 4.5-3.2 1.7-5.6 3.6-7.2 5.8l146.1 1.5zm-146.6 5.9c1.2 2.9 3.9 5.3 7.9 7.4 4 2.1 9.1 3.8 15.1 5.1 6 1.3 12.8 2.3 20.3 2.9 7.6.6 15.5.9 23.7.9 9.6 0 18-.5 25.2-1.2 7.1-.8 13.4-1.8 18.8-3.2 5.4-1.3 10.2-2.9 14.2-4.7 4-1.8 7.6-3.7 10.8-5.8l-136-1.4zm348.7-3.8c-1.2-2.9-4.1-5.4-8.6-7.6-4.5-2.2-10.3-4-17.4-5.5-7-1.5-15.2-2.6-24.6-3.3-9.3-.7-19.6-1.1-30.9-1-10 0-18.7.5-25.9 1.3-7.2.8-13.5 2-18.8 3.4-5.3 1.4-9.9 3.1-13.5 5-3.7 1.9-7.2 3.9-10.4 6.1l150.1 1.6z" class="st60"/><linearGradient id="SVGID_00000090278198891401905920000007315112284850187956_" x1="-71.827" x2="-54.424" y1="775.063" y2="920.751" gradientTransform="rotate(180 834.625 2063.92)" gradientUnits="userSpaceOnUse"><stop offset=".004" style="stop-color:#f36f56"/><stop offset=".306" style="stop-color:#f99c4c"/><stop offset=".545" style="stop-color:#fdb946"/><stop offset=".682" style="stop-color:#ffc444"/><stop offset=".804" style="stop-color:#ffc244"/><stop offset=".867" style="stop-color:#feba46"/><stop offset=".916" style="stop-color:#fcad49"/><stop offset=".958" style="stop-color:#f99a4d"/><stop offset=".996" style="stop-color:#f58152"/><stop offset="1" style="stop-color:#f57e53"/></linearGradient><path d="M1731.9 3228c-209 0-426.7 18.4-461.5 54 1.4 1.3 2.6 2.6 3.8 4 29.3-24.7 209.1-49.6 457.7-49.6 255 0 437.6 26.2 459.7 51.5 1.1-1.4 2.2-2.7 3.5-4-28.7-36.9-250.5-55.9-463.2-55.9z" style="fill:url(#SVGID_00000090278198891401905920000007315112284850187956_)"/><linearGradient id="SVGID_00000142135110972581270870000003027334768739065254_" x1="1251.073" x2="2329.757" y1="3255.413" y2="3255.413" gradientUnits="userSpaceOnUse"><stop offset="0" style="stop-color:#f57e53"/><stop offset=".005" style="stop-color:#f58152"/><stop offset=".042" style="stop-color:#f99a4d"/><stop offset=".084" style="stop-color:#fcad49"/><stop offset=".133" style="stop-color:#feba46"/><stop offset=".196" style="stop-color:#ffc244"/><stop offset=".318" style="stop-color:#ffc444"/><stop offset=".455" style="stop-color:#fdb946"/><stop offset=".694" style="stop-color:#f99c4c"/><stop offset=".996" style="stop-color:#f36f56"/></linearGradient><path d="M1331.2 3173v104c0 33.6 209.9 60.8 468.8 60.8s468.8-27.2 468.8-60.8v-104h-937.6z" style="fill:url(#SVGID_00000142135110972581270870000003027334768739065254_)"/><linearGradient id="SVGID_00000080909451381201104100000000689382242862475689_" x1="1795.372" x2="1852.24" y1="3133.904" y2="3609.966" gradientUnits="userSpaceOnUse"><stop offset="0" style="stop-color:#ffdb44"/><stop offset="1" style="stop-color:#feef06"/></linearGradient><path d="M2268.9 3173c0 33.6-209.9 60.8-468.8 60.8s-468.8-27.2-468.8-60.8c0-33.6 209.9-60.8 468.8-60.8s468.8 27.2 468.8 60.8z" style="fill:url(#SVGID_00000080909451381201104100000000689382242862475689_)"/><linearGradient id="SVGID_00000065037871544987549930000015908321578848751539_" x1="1792.899" x2="1810.364" y1="3112.674" y2="3258.879" gradientUnits="userSpaceOnUse"><stop offset="0" style="stop-color:#ffdb44"/><stop offset="1" style="stop-color:#feef06"/></linearGradient><path d="M1800 3238c-229.3 0-469.1-21.9-469.1-64.1 0-2.3.8-6.4 3.1-6.4s1.3 3.2 1.3 5.5c0 26.8 190.8 56.6 464.6 56.6s464.6-29.8 464.6-56.6c0-2.3.4-4.5 2.7-4.5 2.3 0 1.8 3.1 1.8 5.4.1 42.3-239.7 64.1-469 64.1z" style="fill:url(#SVGID_00000065037871544987549930000015908321578848751539_)"/><path d="M1755.7 3176.4c4.6-3.2 9.5-6.3 14.7-9.4 5.2-3.1 12-5.9 20.1-8.4 8.2-2.5 18.5-4.5 30.9-6.1 12.4-1.6 27.8-2.4 46.3-2.5 18.1-.1 35.1.5 51 1.7 15.9 1.2 29.9 3.1 42 5.6 12 2.5 21.9 5.5 29.5 9.1 7.5 3.6 12 7.8 13.5 12.5l52.8.5c3.8 0 7.2.3 10.1.9 2.9.6 4.4 1.4 4.4 2.3v4.3l-67.9-.7c-2.4 5.3-8.4 10.2-18.2 14.6-9.7 4.4-22.1 8.2-37.2 11.5l-24.7-3.4c-2.2-.3-4-.8-5.5-1.3-1.4-.5-2.1-1.1-2.1-1.7 0-.8 1.9-1.8 5.7-2.9 3.8-1.1 8.1-2.4 12.9-4 4.8-1.6 9.5-3.4 14.2-5.6 4.6-2.2 7.7-4.7 9.3-7.7l-160.2-1.6c-4.2 3.1-9 6.1-14.1 9.1-5.2 3-12.1 5.7-20.8 8.1-8.6 2.4-19.4 4.3-32.2 5.8-12.9 1.5-29.1 2.3-48.6 2.4-14.7.1-29-.5-43-1.7s-26.4-3-37.3-5.3c-10.9-2.4-19.8-5.3-26.8-8.8-6.9-3.5-10.8-7.5-11.6-12l-43.5-.4c-3.8 0-7.2-.3-10.3-.9-3-.6-4.5-1.4-4.5-2.3v-4.3l59.4.6c2.6-4.6 8-8.6 16.2-12 8.2-3.4 18.3-6.4 30.2-9.1l19.9 2.7c6 .8 9 1.8 9 3 0 .6-1.2 1.4-3.7 2.3-2.5.9-5.5 2-8.9 3.3-3.4 1.3-6.7 2.8-9.9 4.5-3.2 1.7-5.6 3.6-7.2 5.8l146.1 1.5zm-146.5 5.9c1.2 2.9 3.9 5.3 7.9 7.4 4 2.1 9.1 3.8 15.1 5.1 6 1.3 12.8 2.3 20.3 2.9 7.6.6 15.5.9 23.7.9 9.6 0 18-.5 25.2-1.2 7.1-.8 13.4-1.8 18.8-3.2 5.4-1.3 10.2-2.9 14.2-4.7 4-1.8 7.6-3.7 10.8-5.8l-136-1.4zm348.7-3.9c-1.2-2.9-4.1-5.4-8.6-7.6-4.5-2.2-10.3-4-17.4-5.5-7-1.5-15.2-2.6-24.6-3.3-9.3-.7-19.6-1.1-30.9-1-10 .1-18.7.5-25.9 1.3-7.2.8-13.5 2-18.8 3.4-5.3 1.4-9.9 3.1-13.5 5-3.7 1.9-7.2 3.9-10.4 6.1l150.1 1.6z" class="st60"/><linearGradient id="SVGID_00000006675209299326963270000015167557782493608370_" x1="-140.068" x2="-122.665" y1="884.288" y2="1029.975" gradientTransform="rotate(180 834.625 2063.92)" gradientUnits="userSpaceOnUse"><stop offset=".004" style="stop-color:#f36f56"/><stop offset=".306" style="stop-color:#f99c4c"/><stop offset=".545" style="stop-color:#fdb946"/><stop offset=".682" style="stop-color:#ffc444"/><stop offset=".804" style="stop-color:#ffc244"/><stop offset=".867" style="stop-color:#feba46"/><stop offset=".916" style="stop-color:#fcad49"/><stop offset=".958" style="stop-color:#f99a4d"/><stop offset=".996" style="stop-color:#f58152"/><stop offset="1" style="stop-color:#f57e53"/></linearGradient><path d="M1800.1 3118.7c-209 0-426.7 18.4-461.5 54 1.4 1.3 2.6 2.6 3.8 4 29.3-24.7 209.1-49.6 457.7-49.6 255 0 437.6 26.2 459.7 51.5 1.1-1.4 2.2-2.7 3.5-4-28.7-36.8-250.4-55.9-463.2-55.9z" style="fill:url(#SVGID_00000006675209299326963270000015167557782493608370_)"/><linearGradient id="SVGID_00000126297529439801541090000004664290978161012128_" x1="1200.705" x2="2279.388" y1="3137.573" y2="3137.573" gradientUnits="userSpaceOnUse"><stop offset="0" style="stop-color:#f57e53"/><stop offset=".005" style="stop-color:#f58152"/><stop offset=".042" style="stop-color:#f99a4d"/><stop offset=".084" style="stop-color:#fcad49"/><stop offset=".133" style="stop-color:#feba46"/><stop offset=".196" style="stop-color:#ffc244"/><stop offset=".318" style="stop-color:#ffc444"/><stop offset=".455" style="stop-color:#fdb946"/><stop offset=".694" style="stop-color:#f99c4c"/><stop offset=".996" style="stop-color:#f36f56"/></linearGradient><path d="M1280.9 3055.2v104c0 33.6 209.9 60.8 468.8 60.8s468.8-27.2 468.8-60.8v-104h-937.6z" style="fill:url(#SVGID_00000126297529439801541090000004664290978161012128_)"/><linearGradient id="SVGID_00000023273355084299612730000001008061141871335828_" x1="1745.004" x2="1801.871" y1="3016.064" y2="3492.126" gradientUnits="userSpaceOnUse"><stop offset="0" style="stop-color:#ffdb44"/><stop offset="1" style="stop-color:#feef06"/></linearGradient><ellipse cx="1749.7" cy="3055.2" rx="468.8" ry="60.8" style="fill:url(#SVGID_00000023273355084299612730000001008061141871335828_)"/><linearGradient id="SVGID_00000121240043230394980060000008963271933464470446_" x1="1742.531" x2="1759.996" y1="2994.834" y2="3141.039" gradientUnits="userSpaceOnUse"><stop offset="0" style="stop-color:#ffdb44"/><stop offset="1" style="stop-color:#feef06"/></linearGradient><path d="M1749.7 3120.2c-229.3 0-469.1-21.9-469.1-64.1 0-2.3.8-6.4 3.1-6.4s1.3 3.2 1.3 5.5c0 26.8 190.8 56.6 464.6 56.6s464.6-29.8 464.6-56.6c0-2.3.4-4.5 2.7-4.5 2.3 0 1.8 3.1 1.8 5.4.1 42.2-239.7 64.1-469 64.1z" style="fill:url(#SVGID_00000121240043230394980060000008963271933464470446_)"/><path d="M1705.4 3058.6c4.6-3.2 9.5-6.3 14.7-9.4 5.2-3.1 12-5.9 20.1-8.4 8.2-2.5 18.5-4.5 30.9-6.1 12.4-1.6 27.8-2.4 46.3-2.5 18.1-.1 35.1.5 51 1.7 15.9 1.2 29.9 3.1 42 5.6 12 2.5 21.9 5.5 29.5 9.1 7.5 3.6 12 7.8 13.5 12.5l52.8.5c3.8 0 7.2.3 10.1.9 2.9.6 4.4 1.4 4.4 2.3v4.3l-67.9-.7c-2.4 5.3-8.4 10.2-18.2 14.6-9.7 4.4-22.1 8.2-37.2 11.5l-24.7-3.4c-2.2-.3-4-.8-5.5-1.3-1.4-.5-2.1-1.1-2.1-1.7 0-.8 1.9-1.8 5.7-2.9 3.8-1.1 8.1-2.4 12.9-4 4.8-1.6 9.5-3.4 14.2-5.6 4.6-2.2 7.7-4.7 9.3-7.7l-160.2-1.6c-4.2 3.1-9 6.1-14.1 9.1-5.2 3-12.1 5.7-20.8 8.1-8.6 2.4-19.4 4.3-32.2 5.8-12.9 1.5-29.1 2.3-48.6 2.4-14.7.1-29-.5-43-1.7s-26.4-3-37.3-5.3c-10.9-2.4-19.8-5.3-26.8-8.8-6.9-3.5-10.8-7.5-11.6-12l-43.5-.4c-3.8 0-7.2-.3-10.3-.9-3-.6-4.5-1.3-4.5-2.3v-4.3l59.4.6c2.6-4.6 8-8.6 16.2-12 8.2-3.4 18.3-6.4 30.2-9.1l19.9 2.7c6 .8 9 1.8 9 3 0 .6-1.2 1.4-3.7 2.3-2.5.9-5.5 2-8.9 3.3-3.4 1.3-6.7 2.8-9.9 4.5-3.2 1.7-5.6 3.6-7.2 5.8l146.1 1.5zm-146.6 5.9c1.2 2.9 3.9 5.3 7.9 7.4 4 2.1 9.1 3.8 15.1 5.1 6 1.3 12.8 2.3 20.3 2.9 7.6.6 15.5.9 23.7.9 9.6 0 18-.5 25.2-1.2 7.1-.8 13.4-1.8 18.8-3.2 5.4-1.3 10.1-2.9 14.2-4.7 4-1.8 7.6-3.7 10.8-5.8l-136-1.4zm348.7-3.9c-1.2-2.9-4.1-5.4-8.6-7.6-4.5-2.2-10.3-4-17.4-5.5-7-1.5-15.2-2.6-24.6-3.3-9.3-.7-19.6-1.1-30.9-1-10 .1-18.7.5-25.9 1.3-7.2.9-13.5 2-18.8 3.4-5.3 1.4-9.9 3.1-13.5 5-3.7 1.9-7.2 3.9-10.4 6.1l150.1 1.6z" class="st60"/><linearGradient id="SVGID_00000150825182380140649630000016765218779683796156_" x1="-89.7" x2="-72.297" y1="1002.127" y2="1147.815" gradientTransform="rotate(180 834.625 2063.92)" gradientUnits="userSpaceOnUse"><stop offset=".004" style="stop-color:#f36f56"/><stop offset=".306" style="stop-color:#f99c4c"/><stop offset=".545" style="stop-color:#fdb946"/><stop offset=".682" style="stop-color:#ffc444"/><stop offset=".804" style="stop-color:#ffc244"/><stop offset=".867" style="stop-color:#feba46"/><stop offset=".916" style="stop-color:#fcad49"/><stop offset=".958" style="stop-color:#f99a4d"/><stop offset=".996" style="stop-color:#f58152"/><stop offset="1" style="stop-color:#f57e53"/></linearGradient><path d="M1749.7 3000.9c-209 0-426.7 18.4-461.5 54 1.4 1.3 2.6 2.6 3.8 4 29.3-24.7 209.1-49.6 457.7-49.6 255 0 437.6 26.2 459.7 51.5 1.1-1.4 2.2-2.7 3.5-4-28.7-36.8-250.4-55.9-463.2-55.9z" style="fill:url(#SVGID_00000150825182380140649630000016765218779683796156_)"/><linearGradient id="SVGID_00000083056691489116967990000017084760456892530596_" x1="1070.377" x2="2149.061" y1="3028.35" y2="3028.35" gradientUnits="userSpaceOnUse"><stop offset="0" style="stop-color:#f57e53"/><stop offset=".005" style="stop-color:#f58152"/><stop offset=".042" style="stop-color:#f99a4d"/><stop offset=".084" style="stop-color:#fcad49"/><stop offset=".133" style="stop-color:#feba46"/><stop offset=".196" style="stop-color:#ffc244"/><stop offset=".318" style="stop-color:#ffc444"/><stop offset=".455" style="stop-color:#fdb946"/><stop offset=".694" style="stop-color:#f99c4c"/><stop offset=".996" style="stop-color:#f36f56"/></linearGradient><path d="M1150.5 2945.9v104c0 33.6 209.9 60.8 468.8 60.8s468.8-27.2 468.8-60.8v-104h-937.6z" style="fill:url(#SVGID_00000083056691489116967990000017084760456892530596_)"/><linearGradient id="SVGID_00000152264348572702732930000015879123771851187860_" x1="1614.676" x2="1671.543" y1="2906.841" y2="3382.901" gradientUnits="userSpaceOnUse"><stop offset="0" style="stop-color:#ffdb44"/><stop offset="1" style="stop-color:#feef06"/></linearGradient><path d="M2088.2 2945.9c0 33.6-209.9 60.8-468.8 60.8s-468.8-27.2-468.8-60.8c0-33.6 209.9-60.8 468.8-60.8s468.8 27.2 468.8 60.8z" style="fill:url(#SVGID_00000152264348572702732930000015879123771851187860_)"/><linearGradient id="SVGID_00000098922822717267153310000004854514810863170218_" x1="1612.203" x2="1629.668" y1="2885.61" y2="3031.816" gradientUnits="userSpaceOnUse"><stop offset="0" style="stop-color:#ffdb44"/><stop offset="1" style="stop-color:#feef06"/></linearGradient><path d="M1619.3 3011c-229.3 0-469.1-21.9-469.1-64.1 0-2.3.8-6.4 3.1-6.4s1.3 3.2 1.3 5.5c0 26.8 190.8 56.6 464.6 56.6s464.6-29.8 464.6-56.6c0-2.3.4-4.5 2.7-4.5 2.3 0 1.8 3.1 1.8 5.4.1 42.2-239.6 64.1-469 64.1z" style="fill:url(#SVGID_00000098922822717267153310000004854514810863170218_)"/><path d="M1575 2949.3c4.6-3.2 9.5-6.3 14.7-9.4 5.2-3.1 12-5.9 20.1-8.4 8.2-2.5 18.5-4.5 30.9-6.1 12.4-1.6 27.8-2.4 46.3-2.5 18.1-.1 35.1.5 51 1.7 15.9 1.2 29.9 3.1 42 5.6 12 2.5 21.9 5.5 29.5 9.1 7.5 3.6 12 7.8 13.5 12.5l52.8.5c3.8 0 7.2.3 10.1.9 2.9.6 4.4 1.4 4.4 2.3v4.3l-67.9-.7c-2.4 5.3-8.4 10.2-18.2 14.6-9.7 4.4-22.1 8.2-37.2 11.5l-24.7-3.4c-2.2-.3-4-.8-5.5-1.3-1.4-.5-2.1-1.1-2.1-1.7 0-.8 1.9-1.8 5.7-2.9 3.8-1.1 8.1-2.4 12.9-4 4.8-1.6 9.5-3.4 14.2-5.6 4.6-2.1 7.7-4.7 9.3-7.7l-160.2-1.6c-4.2 3.1-9 6.1-14.1 9.1-5.2 3-12.1 5.7-20.8 8.1-8.6 2.4-19.4 4.3-32.2 5.8-12.9 1.5-29.1 2.3-48.6 2.4-14.7.1-29-.5-43-1.7s-26.4-3-37.3-5.3c-10.9-2.4-19.8-5.3-26.8-8.8-6.9-3.5-10.8-7.5-11.6-12l-43.5-.4c-3.8 0-7.2-.3-10.3-.9-3-.6-4.5-1.4-4.5-2.3v-4.3l59.4.6c2.6-4.6 8-8.6 16.2-12 8.2-3.4 18.3-6.4 30.2-9.1l19.9 2.7c6 .8 9 1.8 9 3 0 .6-1.2 1.4-3.7 2.3-2.5.9-5.5 2-8.9 3.3-3.4 1.3-6.7 2.8-9.9 4.5-3.2 1.7-5.6 3.6-7.2 5.8l146.1 1.5zm-146.5 6c1.2 2.9 3.9 5.3 7.9 7.4 4 2.1 9.1 3.8 15.1 5.1 6 1.3 12.8 2.3 20.3 2.9 7.6.6 15.5.9 23.7.9 9.6 0 18-.5 25.2-1.2 7.1-.8 13.4-1.8 18.8-3.2 5.4-1.3 10.1-2.9 14.2-4.7 4-1.8 7.6-3.7 10.8-5.8l-136-1.4zm348.7-3.9c-1.2-2.9-4.1-5.4-8.6-7.6-4.5-2.2-10.3-4-17.4-5.5-7-1.5-15.2-2.6-24.6-3.3-9.3-.7-19.6-1.1-30.9-1-10 0-18.7.5-25.9 1.3-7.2.9-13.5 2-18.8 3.4-5.3 1.4-9.9 3.1-13.5 5-3.7 1.9-7.2 3.9-10.4 6.1l150.1 1.6z" class="st60"/><linearGradient id="SVGID_00000068667174891363102010000006205716152746292125_" x1="40.628" x2="58.031" y1="1111.352" y2="1257.038" gradientTransform="rotate(180 834.625 2063.92)" gradientUnits="userSpaceOnUse"><stop offset=".004" style="stop-color:#f36f56"/><stop offset=".306" style="stop-color:#f99c4c"/><stop offset=".545" style="stop-color:#fdb946"/><stop offset=".682" style="stop-color:#ffc444"/><stop offset=".804" style="stop-color:#ffc244"/><stop offset=".867" style="stop-color:#feba46"/><stop offset=".916" style="stop-color:#fcad49"/><stop offset=".958" style="stop-color:#f99a4d"/><stop offset=".996" style="stop-color:#f58152"/><stop offset="1" style="stop-color:#f57e53"/></linearGradient><path d="M1619.4 2891.7c-209 0-426.7 18.4-461.5 54 1.4 1.3 2.6 2.6 3.8 4 29.3-24.7 209.1-49.6 457.7-49.6 255 0 437.6 26.2 459.7 51.5 1.1-1.4 2.2-2.7 3.5-4-28.7-36.8-250.4-55.9-463.2-55.9z" style="fill:url(#SVGID_00000068667174891363102010000006205716152746292125_)"/><linearGradient id="SVGID_00000158719126514348243520000017900008749744996486_" x1="1182.832" x2="2261.517" y1="2919.446" y2="2919.446" gradientUnits="userSpaceOnUse"><stop offset="0" style="stop-color:#f57e53"/><stop offset=".005" style="stop-color:#f58152"/><stop offset=".042" style="stop-color:#f99a4d"/><stop offset=".084" style="stop-color:#fcad49"/><stop offset=".133" style="stop-color:#feba46"/><stop offset=".196" style="stop-color:#ffc244"/><stop offset=".318" style="stop-color:#ffc444"/><stop offset=".455" style="stop-color:#fdb946"/><stop offset=".694" style="stop-color:#f99c4c"/><stop offset=".996" style="stop-color:#f36f56"/></linearGradient><path d="M1263 2837v104c0 33.6 209.9 60.8 468.8 60.8s468.8-27.2 468.8-60.8v-104H1263z" style="fill:url(#SVGID_00000158719126514348243520000017900008749744996486_)"/><linearGradient id="SVGID_00000134225122572581969800000004800747676822570653_" x1="1727.131" x2="1783.998" y1="2797.936" y2="3273.997" gradientUnits="userSpaceOnUse"><stop offset="0" style="stop-color:#ffdb44"/><stop offset="1" style="stop-color:#feef06"/></linearGradient><ellipse cx="1731.8" cy="2837" rx="468.8" ry="60.8" style="fill:url(#SVGID_00000134225122572581969800000004800747676822570653_)"/><linearGradient id="SVGID_00000023246329548019389840000000190147322738018235_" x1="1724.658" x2="1742.123" y1="2776.706" y2="2922.912" gradientUnits="userSpaceOnUse"><stop offset="0" style="stop-color:#ffdb44"/><stop offset="1" style="stop-color:#feef06"/></linearGradient><path d="M1731.8 2902.1c-229.3 0-469.1-21.9-469.1-64.1 0-2.3.8-6.4 3.1-6.4s1.3 3.2 1.3 5.5c0 26.8 190.8 56.6 464.6 56.6s464.6-29.8 464.6-56.6c0-2.3.4-4.5 2.7-4.5 2.3 0 1.8 3.1 1.8 5.4.1 42.2-239.7 64.1-469 64.1z" style="fill:url(#SVGID_00000023246329548019389840000000190147322738018235_)"/><path d="M1687.5 2840.4c4.6-3.2 9.5-6.3 14.7-9.4 5.2-3.1 12-5.9 20.1-8.4 8.2-2.5 18.5-4.5 30.9-6.1 12.4-1.6 27.8-2.4 46.3-2.5 18.1-.1 35.1.5 51 1.7 15.9 1.2 29.9 3.1 42 5.6 12 2.5 21.9 5.5 29.5 9.1 7.5 3.6 12 7.8 13.5 12.5l52.8.5c3.8 0 7.2.3 10.1.9 2.9.6 4.4 1.4 4.4 2.3v4.3l-67.9-.7c-2.4 5.3-8.4 10.2-18.2 14.6-9.7 4.4-22.1 8.2-37.2 11.5l-24.7-3.4c-2.2-.3-4-.8-5.5-1.3-1.4-.5-2.1-1.1-2.1-1.7 0-.8 1.9-1.8 5.7-2.9 3.8-1.1 8.1-2.4 12.9-4 4.8-1.6 9.5-3.4 14.2-5.6 4.6-2.2 7.7-4.7 9.3-7.7l-160.2-1.6c-4.2 3.1-9 6.1-14.1 9.1-5.2 3-12.1 5.7-20.8 8.1-8.6 2.4-19.4 4.3-32.2 5.8-12.9 1.5-29.1 2.3-48.6 2.4-14.7.1-29-.5-43-1.7s-26.4-3-37.3-5.3c-10.9-2.4-19.8-5.3-26.8-8.8-6.9-3.5-10.8-7.5-11.6-12l-43.5-.4c-3.8 0-7.2-.3-10.3-.9-3-.6-4.5-1.4-4.5-2.3v-4.3l59.4.6c2.6-4.6 8-8.6 16.2-12 8.2-3.4 18.3-6.4 30.2-9.1l19.9 2.7c6 .8 9 1.8 9 3 0 .6-1.2 1.4-3.7 2.3-2.5.9-5.5 2-8.9 3.3-3.4 1.3-6.7 2.8-9.9 4.5-3.2 1.7-5.6 3.6-7.2 5.8l146.1 1.5zm-146.6 5.9c1.2 2.9 3.9 5.3 7.9 7.4 4 2.1 9.1 3.8 15.1 5.1 6 1.3 12.8 2.3 20.3 2.9 7.6.6 15.5.9 23.7.9 9.6 0 18-.5 25.2-1.2 7.1-.8 13.4-1.8 18.8-3.2 5.4-1.3 10.2-2.9 14.2-4.7 4-1.8 7.6-3.7 10.8-5.8l-136-1.4zm348.7-3.8c-1.2-2.9-4.1-5.4-8.6-7.6-4.5-2.2-10.3-4-17.4-5.5-7-1.5-15.2-2.6-24.6-3.3-9.3-.7-19.6-1.1-30.9-1-10 0-18.7.5-25.9 1.3-7.2.9-13.5 2-18.8 3.4-5.3 1.4-9.9 3.1-13.5 5-3.7 1.9-7.2 3.9-10.4 6.1l150.1 1.6z" class="st60"/><linearGradient id="SVGID_00000044167124227605691060000017258334391072181900_" x1="-71.827" x2="-54.424" y1="1220.255" y2="1365.942" gradientTransform="rotate(180 834.625 2063.92)" gradientUnits="userSpaceOnUse"><stop offset=".004" style="stop-color:#f36f56"/><stop offset=".306" style="stop-color:#f99c4c"/><stop offset=".545" style="stop-color:#fdb946"/><stop offset=".682" style="stop-color:#ffc444"/><stop offset=".804" style="stop-color:#ffc244"/><stop offset=".867" style="stop-color:#feba46"/><stop offset=".916" style="stop-color:#fcad49"/><stop offset=".958" style="stop-color:#f99a4d"/><stop offset=".996" style="stop-color:#f58152"/><stop offset="1" style="stop-color:#f57e53"/></linearGradient><path d="M1731.9 2782.8c-209 0-426.7 18.4-461.5 54 1.4 1.3 2.6 2.6 3.8 4 29.3-24.7 209.1-49.6 457.7-49.6 255 0 437.6 26.2 459.7 51.5 1.1-1.4 2.2-2.7 3.5-4-28.7-36.8-250.5-55.9-463.2-55.9z" style="fill:url(#SVGID_00000044167124227605691060000017258334391072181900_)"/><linearGradient id="SVGID_00000178920404996311709740000015604675280004857272_" x1="1124.34" x2="2203.023" y1="2810.223" y2="2810.223" gradientUnits="userSpaceOnUse"><stop offset="0" style="stop-color:#f57e53"/><stop offset=".005" style="stop-color:#f58152"/><stop offset=".042" style="stop-color:#f99a4d"/><stop offset=".084" style="stop-color:#fcad49"/><stop offset=".133" style="stop-color:#feba46"/><stop offset=".196" style="stop-color:#ffc244"/><stop offset=".318" style="stop-color:#ffc444"/><stop offset=".455" style="stop-color:#fdb946"/><stop offset=".694" style="stop-color:#f99c4c"/><stop offset=".996" style="stop-color:#f36f56"/></linearGradient><path d="M1204.5 2727.8v104c0 33.6 209.9 60.8 468.8 60.8s468.8-27.2 468.8-60.8v-104h-937.6z" style="fill:url(#SVGID_00000178920404996311709740000015604675280004857272_)"/><linearGradient id="SVGID_00000042737691470022567150000012293280228263687326_" x1="1668.639" x2="1725.506" y1="2688.713" y2="3164.775" gradientUnits="userSpaceOnUse"><stop offset="0" style="stop-color:#ffdb44"/><stop offset="1" style="stop-color:#feef06"/></linearGradient><ellipse cx="1673.3" cy="2727.8" rx="468.8" ry="60.8" style="fill:url(#SVGID_00000042737691470022567150000012293280228263687326_)"/><linearGradient id="SVGID_00000069373243674079964630000003804943784279304611_" x1="1666.166" x2="1683.631" y1="2667.482" y2="2813.689" gradientUnits="userSpaceOnUse"><stop offset="0" style="stop-color:#ffdb44"/><stop offset="1" style="stop-color:#feef06"/></linearGradient><path d="M1673.3 2792.8c-229.3 0-469.1-21.9-469.1-64.1 0-2.3.8-6.4 3.1-6.4s1.3 3.2 1.3 5.5c0 26.8 190.8 56.6 464.6 56.6s464.6-29.8 464.6-56.6c0-2.3.4-4.5 2.7-4.5 2.3 0 1.8 3.1 1.8 5.4.1 42.3-239.7 64.1-469 64.1z" style="fill:url(#SVGID_00000069373243674079964630000003804943784279304611_)"/><path d="M1629 2731.2c4.6-3.2 9.5-6.3 14.7-9.4 5.2-3.1 12-5.9 20.1-8.4 8.2-2.5 18.5-4.5 30.9-6.1 12.4-1.6 27.8-2.4 46.3-2.5 18.1-.1 35.1.5 51 1.7 15.9 1.2 29.9 3.1 42 5.6 12 2.5 21.9 5.5 29.5 9.1 7.5 3.6 12 7.8 13.5 12.5l52.8.5c3.8 0 7.2.3 10.1.9 2.9.6 4.4 1.4 4.4 2.3v4.3l-67.9-.7c-2.4 5.3-8.4 10.2-18.2 14.6-9.7 4.4-22.1 8.2-37.2 11.5l-24.7-3.4c-2.2-.3-4-.8-5.5-1.3-1.4-.5-2.1-1.1-2.1-1.7 0-.8 1.9-1.8 5.7-2.9 3.8-1.1 8.1-2.4 12.9-4 4.8-1.6 9.5-3.4 14.2-5.6 4.6-2.2 7.7-4.7 9.3-7.7l-160.2-1.6c-4.2 3.1-9 6.1-14.1 9.1-5.2 3-12.1 5.7-20.8 8.1-8.6 2.4-19.4 4.3-32.2 5.8-12.9 1.5-29.1 2.3-48.6 2.4-14.7.1-29-.5-43-1.7s-26.4-3-37.3-5.3c-10.9-2.4-19.8-5.3-26.8-8.8-6.9-3.5-10.8-7.5-11.6-12l-43.5-.4c-3.8 0-7.2-.3-10.3-.9-3-.6-4.5-1.4-4.5-2.3v-4.3l59.4.6c2.6-4.6 8-8.6 16.2-12 8.2-3.4 18.3-6.4 30.2-9.1l19.9 2.7c6 .8 9 1.8 9 3 0 .6-1.2 1.4-3.7 2.3-2.5.9-5.5 2-8.9 3.3-3.4 1.3-6.7 2.8-9.9 4.5-3.2 1.7-5.6 3.6-7.2 5.8l146.1 1.5zm-146.6 5.9c1.2 2.9 3.9 5.3 7.9 7.4 4 2.1 9.1 3.8 15.1 5.1 6 1.3 12.8 2.3 20.3 2.9 7.6.6 15.5.9 23.7.9 9.6 0 18-.5 25.2-1.2 7.1-.8 13.4-1.8 18.8-3.2 5.4-1.3 10.2-2.9 14.2-4.7 4-1.8 7.6-3.7 10.8-5.8l-136-1.4zm348.7-3.9c-1.2-2.9-4.1-5.4-8.6-7.6-4.5-2.2-10.3-4-17.4-5.5-7-1.5-15.2-2.6-24.6-3.3-9.3-.7-19.6-1.1-30.9-1-10 0-18.7.5-25.9 1.3-7.2.9-13.5 2-18.8 3.4-5.3 1.4-9.9 3.1-13.5 5-3.7 1.9-7.2 3.9-10.4 6.1l150.1 1.6z" class="st60"/><linearGradient id="SVGID_00000072249998990746010490000018045271267368458913_" x1="-13.335" x2="4.068" y1="1329.478" y2="1475.166" gradientTransform="rotate(180 834.625 2063.92)" gradientUnits="userSpaceOnUse"><stop offset=".004" style="stop-color:#f36f56"/><stop offset=".306" style="stop-color:#f99c4c"/><stop offset=".545" style="stop-color:#fdb946"/><stop offset=".682" style="stop-color:#ffc444"/><stop offset=".804" style="stop-color:#ffc244"/><stop offset=".867" style="stop-color:#feba46"/><stop offset=".916" style="stop-color:#fcad49"/><stop offset=".958" style="stop-color:#f99a4d"/><stop offset=".996" style="stop-color:#f58152"/><stop offset="1" style="stop-color:#f57e53"/></linearGradient><path d="M1673.4 2673.6c-209 0-426.7 18.4-461.5 54 1.4 1.3 2.6 2.6 3.8 4 29.3-24.7 209.1-49.6 457.7-49.6 255 0 437.6 26.2 459.7 51.5 1.1-1.4 2.2-2.7 3.5-4-28.7-36.9-250.5-55.9-463.2-55.9z" style="fill:url(#SVGID_00000072249998990746010490000018045271267368458913_)"/><linearGradient id="SVGID_00000167394163047375853750000018093717216042107811_" x1="2425.596" x2="3504.286" y1="1789.634" y2="1789.634" gradientTransform="rotate(54.578 1330.437 2030.999)" gradientUnits="userSpaceOnUse"><stop offset="0" style="stop-color:#f57e53"/><stop offset=".005" style="stop-color:#f58152"/><stop offset=".042" style="stop-color:#f99a4d"/><stop offset=".084" style="stop-color:#fcad49"/><stop offset=".133" style="stop-color:#feba46"/><stop offset=".196" style="stop-color:#ffc244"/><stop offset=".318" style="stop-color:#ffc444"/><stop offset=".455" style="stop-color:#fdb946"/><stop offset=".694" style="stop-color:#f99c4c"/><stop offset=".996" style="stop-color:#f36f56"/></linearGradient><path d="m2275.5 2801.1-84.7 60.3c-27.4 19.5 72.1 206.3 222.2 417.3s293.9 366.2 321.3 346.8l84.7-60.3-543.5-764.1z" style="fill:url(#SVGID_00000167394163047375853750000018093717216042107811_)"/><linearGradient id="SVGID_00000118371789463426260900000013919013543630048406_" x1="2969.897" x2="3026.757" y1="1668.137" y2="2144.139" gradientTransform="rotate(54.578 1330.437 2030.999)" gradientUnits="userSpaceOnUse"><stop offset="0" style="stop-color:#ffdb44"/><stop offset="1" style="stop-color:#feef06"/></linearGradient><path d="M2819 3565.2c-27.4 19.5-171.2-135.8-321.3-346.8-150.1-211-249.5-397.8-222.2-417.3s171.2 135.8 321.3 346.8c150.1 211 249.5 397.8 222.2 417.3z" style="fill:url(#SVGID_00000118371789463426260900000013919013543630048406_)"/><linearGradient id="SVGID_00000015355877970812043100000008840288943429335467_" x1="2967.426" x2="2984.888" y1="1646.917" y2="1793.098" gradientTransform="rotate(54.578 1330.437 2030.999)" gradientUnits="userSpaceOnUse"><stop offset="0" style="stop-color:#ffdb44"/><stop offset="1" style="stop-color:#feef06"/></linearGradient><path d="M2494.2 3220.8c-132.9-186.9-254-394.9-219.6-419.4 1.9-1.3 5.7-3 7-1.1 1.3 1.9-1.8 2.9-3.7 4.3-21.8 15.5 64.4 188.3 223.1 411.4 158.7 223.1 293.6 361.3 315.5 345.8 1.9-1.3 3.9-2.3 5.2-.4 1.3 1.9-1.5 3.2-3.4 4.6-34.4 24.4-191.2-158.3-324.1-345.2z" style="fill:url(#SVGID_00000015355877970812043100000008840288943429335467_)"/><path d="M2518.8 3149c5.3 1.9 10.7 4.1 16.2 6.5 5.5 2.4 11.7 6.3 18.5 11.5 6.8 5.3 14.4 12.5 22.9 21.6 8.5 9.2 18.1 21.3 28.9 36.3 10.6 14.7 20 28.9 28.2 42.6 8.2 13.6 14.8 26.1 19.8 37.4 5 11.2 8.2 21 9.6 29.3 1.4 8.2.6 14.3-2.4 18.2l30.2 43.3c2.2 3.1 3.9 6.1 5.1 8.8 1.2 2.8 1.4 4.4.7 4.9l-3.5 2.5-38.8-55.7c-5.7 1.1-13.2-1-22.5-6.4-9.2-5.3-19.5-13.2-30.9-23.7l-11.5-22.1c-1-2-1.7-3.7-2.1-5.2-.4-1.5-.3-2.4.2-2.7.7-.5 2.6.5 5.7 3s6.7 5.2 10.8 8.2c4.1 3 8.3 5.8 12.8 8.3 4.4 2.5 8.3 3.5 11.7 3.1l-91.6-131.4c-5-1.6-10.2-3.7-15.6-6.2-5.5-2.5-11.7-6.6-18.6-12.3-6.9-5.6-14.8-13.3-23.4-22.9-8.7-9.7-18.7-22.4-30.1-38.2-8.6-11.9-16.4-23.9-23.6-36-7.1-12.1-12.9-23.3-17.3-33.5s-7.2-19.2-8.4-26.9c-1.2-7.7-.2-13.2 3-16.4l-24.8-35.7c-2.2-3.1-3.9-6.1-5.2-8.9-1.3-2.8-1.5-4.5-.7-5l3.5-2.5 34 48.7c5.3-.5 11.6 1.6 19.2 6.3 7.5 4.7 15.8 11.2 24.9 19.3l9.3 17.8c2.8 5.4 3.7 8.4 2.8 9.1-.5.4-1.8-.2-4-1.7s-4.8-3.3-7.8-5.4c-3-2-6.1-3.9-9.4-5.5-3.3-1.6-6.2-2.5-8.9-2.5l83.1 120.1zm-89.8-116c-1.6 2.6-2.1 6.2-1.4 10.7.7 4.5 2.2 9.6 4.6 15.3 2.4 5.7 5.6 11.8 9.4 18.3 3.9 6.5 8.2 13.1 13 19.8 5.6 7.8 10.8 14.4 15.6 19.8 4.8 5.3 9.3 9.8 13.5 13.5 4.2 3.6 8.2 6.6 12 8.8 3.8 2.2 7.4 4 11 5.5L2429 3033zm205.3 281.9c1.7-2.6 2-6.5 1.2-11.4-.9-4.9-2.7-10.7-5.6-17.3-2.9-6.6-6.7-13.9-11.6-22-4.8-8-10.5-16.6-17.1-25.8-5.8-8.1-11.2-15-16.1-20.3-4.9-5.4-9.4-9.8-13.7-13.4-4.2-3.5-8.2-6.2-11.9-8.1-3.7-1.9-7.4-3.6-11-4.9l85.8 123.2z" class="st60"/><linearGradient id="SVGID_00000019677805311798408140000016132806953831793296_" x1="-1314.024" x2="-1296.625" y1="2349.619" y2="2495.28" gradientTransform="rotate(-125.422 818.043 1808.052)" gradientUnits="userSpaceOnUse"><stop offset=".004" style="stop-color:#f36f56"/><stop offset=".306" style="stop-color:#f99c4c"/><stop offset=".545" style="stop-color:#fdb946"/><stop offset=".682" style="stop-color:#ffc444"/><stop offset=".804" style="stop-color:#ffc244"/><stop offset=".867" style="stop-color:#feba46"/><stop offset=".916" style="stop-color:#fcad49"/><stop offset=".958" style="stop-color:#f99a4d"/><stop offset=".996" style="stop-color:#f58152"/><stop offset="1" style="stop-color:#f57e53"/></linearGradient><path d="M2591.5 3151.7c-121.2-170.3-262.3-337-311.5-344.8-.2 1.8-.6 3.6-1.1 5.4 37.2 9.6 161.6 141.6 305.7 344.2 147.8 207.8 232.3 371.8 224.5 404.5 1.8.1 3.5.3 5.3.6 13.4-44.7-99.6-236.5-222.9-409.9z" style="fill:url(#SVGID_00000019677805311798408140000016132806953831793296_)"/><linearGradient id="SVGID_00000102513155335310418020000009455835753953686719_" x1="388.699" x2="716.213" y1="-8749.392" y2="-8749.392" gradientTransform="scale(1 -1) rotate(26.194 -15984.433 -500.874)" gradientUnits="userSpaceOnUse"><stop offset="0" style="stop-color:#ff9085"/><stop offset="1" style="stop-color:#fb6fbb"/></linearGradient><path d="m2309 521.3 181 121.3 123.2-170.8 24.5 123.9-123.1 170.8-181.1-121.2z" style="fill:url(#SVGID_00000102513155335310418020000009455835753953686719_)"/><linearGradient id="SVGID_00000075841984511547715410000004613720715777390751_" x1="-823.376" x2="581.653" y1="-8384.91" y2="-8384.91" gradientTransform="scale(1 -1) rotate(26.194 -15984.433 -500.874)" gradientUnits="userSpaceOnUse"><stop offset="0" style="stop-color:#ff9085"/><stop offset="1" style="stop-color:#fb6fbb"/></linearGradient><path d="M2181.8 206.6C1821 5.3 1362 119.2 1158.6 460.3c-25.2 42.3-45.5 86.4-60.9 131.5-23.6 69.4-35.6 141.4-36.2 213.5l106.6-126.5c13.8-60.2 37.1-118.9 70.1-174.2C1416.8 205 1820 105 2137 281.8c131.6 73.4 231.3 184 287 316.6 10.9 25.8 20.1 52.4 27.5 79.8 6.4 23.5 31.3 37.9 55.7 32.2 24.4-5.6 39-29.2 32.7-52.6-5.4-19.9-11.6-39.4-18.6-58.6C2461 434 2342.2 296 2181.8 206.6z" style="fill:url(#SVGID_00000075841984511547715410000004613720715777390751_)"/><linearGradient id="SVGID_00000045591075009125715540000010802973261992431493_" x1="3424.921" x2="3008.94" y1="2348.639" y2="5569.116" gradientUnits="userSpaceOnUse"><stop offset="0" style="stop-color:#ff9085"/><stop offset="1" style="stop-color:#fb6fbb"/></linearGradient><path d="M3226.5 3704.8c161.6-20.8 366.4-75.3 448.7-229.1 19.6-36.6 39.2-107.7-10.2-134.4-45.2-24.5-103.5 1.4-137.1 33.2-24.7 23.4-43.9 75.6-71.7 92.2-40.6 24.2-62.4-41.8-61.6-69 1.9-60.9 76.8-85.8 126.6-99 82.6-21.9 178.8-40.7 173.6-133.8s-95.9-148.9-165.8-108.2c-57.5 33.6-49.4 105.2-88.7 148.2-34.9 38.2-47.1-23.8-44.7-54.2 5.1-66 63.1-113.7 105.8-157.9 48.3-50 101.6-150.6 50.1-216.7-29.6-38-104.8-47-149.3-40.5-217.6 31.4-73.3 313-112.9 344.4-39.6 31.4-77-23.6-76.9-107.2.1-83.6-12.7-145.3-100-118.5-87.3 26.8-103.9 245.2-4.2 329.2 99.7 83.9-6.3 175.5-33 115.4-19.3-43.4-36.3-157.2-92.1-169.7-93-20.8-91.6 169.2-64.9 213.4 37.5 62 122.4 75.4 169.8 128.9 13.8 15.5 44.8 54 32.8 76.7-16.8 31.7-63.8-2.2-81.1-16.9-38.8-33-92.5-145.1-147.2-70.6-67.5 91.6 45.4 227.8 334 244.1z" style="fill:url(#SVGID_00000045591075009125715540000010802973261992431493_)"/><g style="opacity:.8"><path d="M3249.8 3689.6c-3.8 0-6.9-3.6-7-7.4-.1-3.3-4.6-334.7 140.1-728.6 1.3-3.6 5.3-5.6 9-4.3 3.6 1.3 5.5 5.3 4.1 8.9-143.7 391.4-139.3 720.5-139.2 723.8.1 3.9-3 7.6-6.8 7.6h-.2z" style="fill:#fff"/></g><linearGradient id="SVGID_00000101819774494211747040000013866726734060201656_" x1="3175.851" x2="2907.33" y1="2835.922" y2="4914.78" gradientUnits="userSpaceOnUse"><stop offset="0" style="stop-color:#aa80f9"/><stop offset=".996" style="stop-color:#6165d7"/></linearGradient><path d="M3309.2 3563.1c-26.2-22.3-81.8 12.6-104.9 25.8-13.4 7.7-31.7 19.5-47.8 12.6-16.9-7.2-15.7-25-5.5-37.5 18.3-22.5 53.5-28.7 79-39.7 27.5-11.8 52.7-27.9 66.2-55.6 10.8-22.1 13.3-54.7 1.1-76.5-33.6-60.2-82.6-13.2-109.9 22.7-13.3 17.4-43 47.4-65.6 26.9-24-21.9-3.4-60.8 15.2-78 24.3-22.5 53.8-38.1 80.2-57.6 23.9-17.6 48.4-42.8 32.5-74-12.3-24.1-43.2-37.5-69.6-35.4-61 4.7-70.5 93.8-110.7 128-14.2 12.1-46.5 21.7-63.5 9.8-17.2-12.1-6-39.8.2-54.9 18.4-44.8 150.4-194.9 41-213.7-27.5-4.7-65.5 3.9-87.1 21.4-40.8 33-62.5 98.5-73.2 148.1-16.9 78.1-16 164.8 2.9 242.5 41.7 171.6 139.8 226.8 139.8 226.8 42.4 14 95.5 20.8 139.4 11.5 51.7-10.9 113.5-49.2 139.1-96.9 8.2-15.5 17.4-42.5 1.2-56.3z" style="fill:url(#SVGID_00000101819774494211747040000013866726734060201656_)"/></g></svg>