<svg xmlns="http://www.w3.org/2000/svg" xmlns:xlink="http://www.w3.org/1999/xlink" xml:space="preserve" style="enable-background:new 0 0 3710 3710" viewBox="0 0 3710 3710"><style>.st0{fill:#bfc6d1}.st1{fill:#d8dee8}.st3{fill:#fff}.st5{fill:#bfc8d6}.st6{opacity:.48;fill:#fff}.st11{fill:#f4f7fa}.st35{fill:#fcb048}</style><g id="Illustration"><path d="M3201.3 1194.8c56.7 4.8 106.9-41.2 112.1-102.6 5.2-61.4-36.6-115.1-93.4-119.9-2.9-.2-5.9-.3-8.7-.3-2.7-31.7-7.7-62.8-14.8-93 2.7-1.1 5.4-2.2 8-3.6 51.7-26.6 74.3-93.2 50.4-148.8-23.9-55.6-85.2-79.1-136.9-52.5-2.7 1.4-5.3 3-7.8 4.6-16.9-25.5-35.6-49.5-55.9-71.8 1.9-2.4 3.7-4.9 5.4-7.6 32.9-50.8 21.7-120.3-24.8-155.1-46.6-34.9-110.9-21.9-143.8 28.9-1.7 2.6-3.2 5.3-4.6 8-26.3-12.7-53.7-23.2-82.1-31.4.5-3.1 1-6.2 1.2-9.4 5.2-61.4 16.4-130.8-40.4-134.7-131.4-9-159.9 55.9-165 117.4-.3 3.2-.3 6.3-.4 9.5-29.4 3.4-58.2 9.1-86.2 17.2-1-2.9-2-5.8-3.2-8.6-23.9-55.6-19.6-92.7-73.9-71.9-118.4 45.4-137.3 112.5-113.4 168.1 1.2 2.9 2.7 5.7 4.1 8.4-23.8 18.6-46.3 39.2-67.2 61.5-2.2-2-4.5-4-6.9-5.8-46.5-34.9-110.9-21.9-143.8 28.9-32.9 50.8-21.7 120.3 24.8 155.1 2.4 1.8 4.8 3.4 7.3 4.9-12.1 28.6-22.1 58.4-30.1 89.2-2.9-.5-5.7-1-8.7-1.2-56.7-4.8-106.9 41.2-112.1 102.6-5.2 61.4 36.6 115.1 93.4 119.9 2.9.2 5.8.3 8.7.3 2.7 31.7 7.7 62.8 14.8 93-2.7 1.1-5.4 2.2-8 3.6-51.7 26.6-74.3 93.2-50.4 148.8 23.9 55.6 85.2 79.1 136.9 52.5 2.7-1.4 5.3-2.9 7.8-4.5 16.9 25.5 35.6 49.5 55.9 71.8-1.9 2.4-3.7 4.9-5.4 7.6-32.9 50.8-21.7 120.3 24.8 155.1 46.6 34.9 147.3 18.9 180.2-31.9 1.7-2.6-33.2-2.3-31.8-5 26.3 12.7 53.7 23.2 82.1 31.4-.5 3.1-1 6.2-1.2 9.4-5.2 61.4 36.6 115.1 93.4 119.9 56.7 4.8 106.9-41.2 112.1-102.6.3-3.2.3-6.3.4-9.5 29.4-3.3 58.2-9.1 86.2-17.2 1 2.9 2 5.8 3.2 8.6 23.9 55.6 85.2 79.1 136.9 52.5 51.7-26.6 74.3-93.2 50.4-148.8-1.2-2.9-2.7-5.7-4.1-8.4 23.8-18.6 46.3-39.2 67.2-61.5 2.2 2 4.5 4 6.9 5.8 46.6 34.9 110.9 21.9 143.8-28.9 32.9-50.8 21.7-120.3-24.8-155.1-2.4-1.8-4.8-3.4-7.3-4.9 12.1-28.6 22.2-58.4 30.1-89.2 2.8.5 5.6.9 8.6 1.2zm-583.4 245.6c-206-17.4-357.8-212.2-339-435.3 18.8-223.1 201-389.8 407-372.5 206 17.4 357.8 212.2 339 435.3-18.8 223-201 389.8-407 372.5z" class="st0"/><path d="M3204.5 875.4c51.7-26.6 74.3-93.2 50.4-148.8-23.9-55.6-85.2-79.1-136.9-52.5-2.7 1.4-5.3 3-7.8 4.6-16.9-25.5-35.6-49.5-55.9-71.8 1.9-2.4 3.7-4.9 5.4-7.6 32.9-50.8 58.1-151.6 8.2-181.5-94.7-56.7-143.9 4.5-176.8 55.3-1.7 2.6-3.2 5.3-4.6 8-26.3-12.7-53.7-23.2-82.1-31.4.5-3.1 1-6.2 1.2-9.4 2.8-33.4-8.4-64.5-28.2-86.7-12.6 96.1-24.6 192.2-35.5 288.5 176.8 44.5 300.1 223.6 283 426-14.4 171.5-125.5 309.5-269.6 356.4.3 18.7.8 37.5.6 56.3-.5 50.9-3.8 102-7.1 152.9 14-2.8 27.8-6.2 41.5-10.1 1 2.9 2 5.8 3.2 8.6 23.9 55.6 77.3 89.4 172.4 44.7 52.6-24.7 38.8-85.4 14.9-141-1.2-2.9-2.7-5.7-4.1-8.4 23.8-18.6 46.3-39.2 67.2-61.5 2.2 2 4.5 4 7 5.8 46.6 34.9 151 15.3 183.8-35.5 32.9-50.8-18.3-113.6-64.9-148.5-2.4-1.8-4.8-3.4-7.3-4.9 12.1-28.6 22.1-58.4 30.1-89.2 2.9.5 5.7 1 8.7 1.2 56.7 4.8 106.9-41.2 112.1-102.6 5.2-61.4-36.6-115.1-93.4-119.9-2.9-.2-5.8-.3-8.7-.3-2.7-31.7-7.7-62.8-14.8-93 2.7-1.2 5.4-2.4 8-3.7z" class="st0"/><path d="M3254.2 1180c56.7 4.8 106.9-41.2 112.1-102.6 5.2-61.4-36.6-115.1-93.4-119.9-2.9-.2-5.8-.3-8.7-.3-2.7-31.7-7.7-62.8-14.8-93 2.7-1.1 5.4-2.2 8-3.6 51.7-26.6 74.3-93.2 50.4-148.8-23.9-55.6-85.2-79.1-136.9-52.5-2.7 1.4-5.3 3-7.8 4.6-16.9-25.5-35.6-49.5-55.9-71.8 1.9-2.4 3.7-4.9 5.4-7.6 32.9-50.8 21.7-120.3-24.8-155.1-46.5-34.9-110.9-21.9-143.8 28.9-1.7 2.6-3.2 5.3-4.6 8-26.3-12.7-53.7-23.2-82.1-31.4.5-3.1 1-6.2 1.2-9.4 5.2-61.4-36.6-115.1-93.4-119.9-56.7-4.8-106.9 41.2-112.1 102.6-.3 3.2-.3 6.3-.4 9.5-29.4 3.3-58.2 9.1-86.2 17.2-1-2.9-2-5.8-3.2-8.6-23.9-55.6-85.2-79.1-136.9-52.5-51.7 26.6-74.3 93.2-50.4 148.8 1.2 2.9 2.7 5.7 4.1 8.4-23.8 18.6-46.3 39.2-67.2 61.5-2.2-2-4.5-4-7-5.8-46.6-34.9-110.9-21.9-143.8 28.9-32.9 50.8-21.7 120.3 24.8 155.1 2.4 1.8 4.8 3.4 7.3 4.9-12.1 28.6-22.1 58.4-30.1 89.2-2.9-.5-5.7-1-8.7-1.2-56.7-4.8-106.9 41.2-112.1 102.6-5.2 61.4 36.6 115.1 93.4 119.9 2.9.2 5.8.3 8.7.3 2.7 31.7 7.7 62.8 14.8 93-2.7 1.1-5.4 2.2-8 3.6-51.7 26.6-74.3 93.2-50.4 148.8 23.9 55.6 85.2 79.1 136.9 52.5 2.7-1.4 5.3-2.9 7.8-4.5 16.9 25.5 35.6 49.5 55.9 71.8-1.9 2.4-3.7 4.9-5.4 7.6-32.9 50.8-21.7 120.3 24.8 155.1 46.6 34.9 110.9 21.9 143.8-28.9 1.7-2.6 3.2-5.3 4.6-8 26.3 12.7 53.7 23.2 82.1 31.4-.5 3.1-1 6.2-1.2 9.4-5.2 61.4 36.6 115.1 93.4 119.9 56.7 4.8 106.9-41.2 112.1-102.6.3-3.2.3-6.3.4-9.5 29.4-3.3 58.2-9.1 86.2-17.2 1 2.9 2 5.8 3.2 8.6 23.9 55.6 85.2 79.1 136.9 52.5 51.7-26.6 74.3-93.2 50.4-148.8-1.2-2.9-2.7-5.7-4.1-8.4 23.8-18.6 46.3-39.2 67.2-61.5 2.2 2 4.5 4 6.9 5.8 46.6 34.9 110.9 21.9 143.8-28.9 32.9-50.8 21.7-120.3-24.8-155.1-2.4-1.8-4.8-3.4-7.3-4.9 12.1-28.6 22.1-58.4 30.1-89.2 3 .4 5.9.8 8.8 1.1zm-583.4 245.6c-206-17.4-357.8-212.2-339-435.3 18.8-223.1 201-389.8 407-372.5 206 17.4 357.8 212.2 339 435.3-18.7 223-201 389.8-407 372.5z" class="st1"/><defs><path id="SVGID_1_" d="M1418.9 2614c-53.3-142.2-109.6-358.2-63.2-601.5 60.8-319 244.8-404.6 466.5-886 140.2-304.4 235-518.3 138.9-705.1-75.3-146.4-258.8-258.8-415.6-234.9-130.5 19.8-257.7 136.1-325.5 230.4-55.3 76.9-74.1 143.2-144.2 163.5-71.6 20.7-112.3-31.1-174.9-20.5-127 21.5-183.6 272.6-192.8 313.2-101.7 451.5 135.6 907 241.5 1104.5 87.6 163.3 233.3 395.2 469.3 636.4z"/></defs><linearGradient id="SVGID_00000136403796883224113670000006305042449689352619_" x1="683.289" x2="2000.039" y1="1398.601" y2="1398.601" gradientUnits="userSpaceOnUse"><stop offset="0" style="stop-color:#ff9085"/><stop offset="1" style="stop-color:#fb6fbb"/></linearGradient><use xlink:href="#SVGID_1_" style="overflow:visible;fill:url(#SVGID_00000136403796883224113670000006305042449689352619_)"/><clipPath id="SVGID_00000120523908485945332700000007043860614907816599_"><use xlink:href="#SVGID_1_" style="overflow:visible"/></clipPath><g style="opacity:.5;clip-path:url(#SVGID_00000120523908485945332700000007043860614907816599_)"><path d="M1495.6 2744.5c-140.6-151.3-250.9-303.3-327.7-451.9-113.7-220-150.3-426.3-108.8-613.2 32.5-146.2 114.1-281.6 217.4-453.1 85.6-142.2 159.1-235.1 223.9-317.1 84-106.3 150.3-190.2 203.4-332.7 53.9-144.8 76.1-304.3 66-474l9-.5c10.2 171-12.2 331.8-66.5 477.7-53.6 143.8-120.3 228.2-204.8 335.1-64.6 81.8-137.9 174.5-223.3 316.2-106.9 177.5-184.2 305.7-216.3 450.4-87.4 393.6 188 792 434.3 1057l-6.6 6.1z" class="st3"/><path d="M1355.7 1129.4c-6.1 0-9.5-.1-9.7-.2l-5.1-.2.9-5c52.5-307.5-8-546.1-68.1-692-65.1-158.2-143.6-244.8-144.3-245.7l6.7-6.1c.8.9 80.2 88.4 145.9 248 60.2 146.3 121 384.9 69.6 692.2 24.2.3 131.7-1.3 261.1-47.3 135.2-48 322.7-155.8 448.6-396.3l8 4.2c-127.3 243.2-317.1 352.2-453.9 400.7-124.1 44-228.3 47.7-259.7 47.7z" class="st3"/><path d="m1121 1518.2-2.4-2.2C1007 1413.3 933 1189.9 898.8 852.2c-25.5-251.1-18.2-474.9-18.1-477.2l9 .3c-.1 2.2-7.3 225.6 18.1 476.1 33.3 328.3 107.5 554.9 214.6 655.8 23.1-12.7 180.1-97.8 353.5-154.7 187.8-61.7 503.4 40.9 506.6 41.9l-2.8 8.6c-3.1-1-316-102.6-501-41.9-186 61.1-353.1 154.7-354.8 155.6l-2.9 1.5z" class="st3"/><path d="m1137.8 2232.5-7.5-4.9c-1.4-.9-139.2-91.3-297.9-252.8-146.5-149-341.2-390.9-437.2-696.7L209.8 687.8l8.6-2.7 185.3 590.3c95.5 304.1 289.3 544.7 435 693.1 137 139.4 258.2 225.5 288.9 246.5-9.8-216.7 129.3-340.9 248.7-407.2 130.6-72.5 266.4-93 267.8-93.2l1.3 8.9c-1.3.2-135.7 20.5-264.9 92.3-172.6 95.9-254.5 233.1-243.4 407.7l.7 9z" class="st3"/></g><defs><path id="SVGID_00000015354452066708989050000011139155138979304840_" d="M1388.2 2457.7c-239.8-.8-545.1-35.9-836.5-171.2C477.3 2252 17.9 2038.6 74.5 1829c19.9-73.9 87.1-84.9 115.4-183.2 33.6-116.4-39.1-175.5-88.5-321.5-29.5-87.1-115.7-342.1 38-481.3 91.8-83.2 265.1-121.2 396.4-89.2 192.6 47 257.1 235.6 360.7 556.5 91.9 284.5 66.8 353.9 136.6 557.6 51.8 151.1 150 359.5 355.1 589.8z"/></defs><linearGradient id="SVGID_00000147936407916228925890000014985831757375006396_" x1="1024.552" x2="605.043" y1="909.599" y2="2035.65" gradientUnits="userSpaceOnUse"><stop offset=".004" style="stop-color:#e38ddd"/><stop offset="1" style="stop-color:#9571f6"/></linearGradient><use xlink:href="#SVGID_00000015354452066708989050000011139155138979304840_" style="overflow:visible;fill:url(#SVGID_00000147936407916228925890000014985831757375006396_)"/><clipPath id="SVGID_00000044159327015142409950000003804645572293512623_"><use xlink:href="#SVGID_00000015354452066708989050000011139155138979304840_" style="overflow:visible"/></clipPath><g style="opacity:.5;clip-path:url(#SVGID_00000044159327015142409950000003804645572293512623_)"><path d="M2004.1 2593.4c-120.7 0-238.7-14.4-353.5-43.3-322.8-81.3-601.4-277.7-828.2-584-235.7-318.3-356.3-675.6-416-919.2-41.6-169.8-31.4-357 30.2-556.6l8.6 2.7c-61.1 198-71.2 383.6-30 551.8 72.6 296.3 376.2 1279.7 1237.6 1496.6 240.7 60.6 496.3 57.2 759.5-10.1l2.2 8.7c-139.2 35.6-276.4 53.4-410.4 53.4z" class="st3"/><path d="m573.4 1528.4-3.4-2.2C56.4 1186.7 65.5 802.3 80.5 692.5c.3-2.2.5-3.6.5-4.2h9c0 .8-.2 2-.6 5.3-14.8 108.2-23.6 486.6 482.1 822.6 12.8-16.3 71.6-93.9 120.6-206.3 50.7-116.4 101.1-294.9 53-485l8.8-2.2c48.8 192.6-2.2 373.3-53.6 491-55.6 127.4-123.7 210.5-124.4 211.4l-2.5 3.3z" class="st3"/><path d="M639.8 1975.6c-213.6 0-361.4-56.7-453.8-110.9C59 1790.3 5.9 1704.3 5.4 1703.4l7.7-4.7c.5.8 52.7 85.2 177.9 158.4 115.3 67.4 317.7 138.8 628.1 96.8 12.7-27.4 138-309.5 113.3-689l-26.3-403.6 9-.6 26.3 403.6c26.1 400.1-113.8 692.8-115.2 695.7l-1.1 2.2-2.4.3c-65.6 9.1-126.6 13.1-182.9 13.1z" class="st3"/></g><path d="M3686.7 3156.3 293.4 3127v86.8c0 23.6 14.8 43.6 34.8 47.2l959.5 170.9c11.4 2 22.9 2.6 34.4 1.6l2327.7-194.9c20.8-1.7 36.9-21.8 36.9-46v-36.3z" class="st5"/><path d="M2437.9 3017.2 281.2 3176c-38.6 2.8-70-27.3-70-67.4V1502.5c0-40.1 31.4-72.6 70-72.6h2156.7c31.8 0 57.5 29.4 57.5 65.6v1451.8c0 36.3-25.7 67.6-57.5 69.9z" class="st5"/><path d="M2472.3 3017.2 315.6 3176c-38.6 2.8-70-27.3-70-67.4V1502.5c0-40.1 31.4-72.6 70-72.6h2156.7c31.8 0 57.5 29.4 57.5 65.6v1451.8c0 36.3-25.7 67.6-57.5 69.9z" class="st3"/><path d="M2405.1 2914.9 396.4 3052.8c-31.4 2.2-56.9-22.6-56.9-55.3V1591.3c0-32.7 25.5-59.4 56.9-59.5l2008.8-8.7c26.2-.1 47.4 24 47.4 53.8v1280.7c0 29.8-21.2 55.5-47.5 57.3z" class="st1"/><path d="M1470.1 1473.8c0 14.9-11.1 27.1-24.8 27.1-13.7 0-24.9-12-24.9-27s11.1-27.1 24.9-27.1c13.7 0 24.8 12.1 24.8 27z" class="st3"/><path d="m315.6 3176 2145.8-158 10.9-.8c14.6-1.1 27.9-8.3 38-19.2-154.4-8.5-250.3-63.2-312.2-119.9-124.2-113.7-102.7-225.8-236.7-300.6-167.1-93.3-298.5 24.9-425.3-91.7-76.9-70.7-39.1-123.4-133.7-229-104.8-117-173-77.7-278.3-182.9-133.1-133.1-66.6-236.7-181.2-332.3-139.1-116-289.2-8.6-421.6-119.8-57.1-48-88.5-117.7-104.8-191.9H315.6c-38.6 0-70 32.5-70 72.6v1606.1c0 40 31.4 70.2 70 67.4z" class="st6"/><linearGradient id="SVGID_00000002364373438223253520000009837531389549892528_" x1="293.357" x2="3686.691" y1="3181.317" y2="3181.317" gradientUnits="userSpaceOnUse"><stop offset=".494" style="stop-color:#ebeff2"/><stop offset="1" style="stop-color:#fff"/></linearGradient><path d="M2573.9 3008.4 293.4 3175.5l994.4 177.1c11.4 2 22.9 2.6 34.4 1.6l2364.5-197.9-1076.5-146.8c-12-1.6-24.2-2-36.3-1.1z" style="fill:url(#SVGID_00000002364373438223253520000009837531389549892528_)"/><path d="m626.1 3177 1898.7-141.2 587.6 79.4-1882.3 151z" class="st1"/><path d="M1770.7 1965.8c-65.1-208.9-274.3-329.6-467.4-269.4-193.1 60.1-296.8 278.2-231.7 487.2 65.1 208.9 274.3 329.6 467.4 269.4 193-60.2 296.8-278.3 231.7-487.2zm-302.6 255.1 1.3 57-54.8 1.3-1.2-53.1c-37.5-.8-74.1-10-95.6-21.8l15.3-65.8c23.8 12.3 57 23.3 93.4 22.4 31.9-.7 53.4-13.5 52.9-35.9-.5-21.2-18.7-34.2-60.4-47.3-60.3-18.7-101.7-45.7-103-100-1.1-49.2 32.6-88.6 92.2-101.7l-1.2-53.1 54.8-1.3 1.1 49.2c37.5.8 62.8 8 81.5 16.6l-14.7 63.5c-14.7-5.8-40.7-18.1-80.9-17.1-36.3.8-47.7 16.8-47.3 32.4.4 18.4 20.3 29.7 68.2 46.5 67.1 21.9 94.6 52.1 95.8 102.4.8 49.8-33.4 93.1-97.4 105.8zM1802.5 2732.6c0 26.4-20.9 49-47.6 50.5l-660.2 36.3c-31.5 1.7-57.7-20.3-57.7-49.3v-109.3c0-29 26.5-53.2 57.9-54.2l659.5-20.1c26.7-.8 48 20 48 46.4v99.7z" class="st3"/><linearGradient id="SVGID_00000117676712195469911330000001904094032909649566_" x1="682.989" x2="418.827" y1="1770.8" y2="1778.347" gradientUnits="userSpaceOnUse"><stop offset=".004" style="stop-color:#e38ddd"/><stop offset="1" style="stop-color:#9571f6"/></linearGradient><path d="m2970.6 1148.2-9 1264.1c-.4 56.6-40.9 104-92.4 105.9l-2278.1 69.2-28.6 14.7-14.3.8c-65.1 2.4-117.9-47.6-117.9-111.7V1058.9c0-61.1 47.5-109.3 108.1-112.2 3.5-.2 7-.2 10.5-.1l2330.1 94.5c51.7 2.2 92 50.1 91.6 107.1z" style="fill:url(#SVGID_00000117676712195469911330000001904094032909649566_)"/><linearGradient id="SVGID_00000006702741939925172940000014482281627858442659_" x1="2824.302" x2="646.625" y1="417.995" y2="3009.83" gradientUnits="userSpaceOnUse"><stop offset=".004" style="stop-color:#e38ddd"/><stop offset="1" style="stop-color:#9571f6"/></linearGradient><path d="m2990.7 1148.9-9.1 1263c-.4 56.5-42.3 103.9-93.7 105.8L571.3 2602c-65 2.4-118.6-47.6-118.6-111.6l.1-1430.6c0-61 47.7-109.3 108.1-112.1 3.5-.2 7.1-.2 10.7-.1L2898 1042c51.7 2.1 93.1 49.9 92.7 106.9z" style="fill:url(#SVGID_00000006702741939925172940000014482281627858442659_)"/><linearGradient id="SVGID_00000104671925221895176560000004219278102081527969_" x1="2189.595" x2="842.771" y1="578.193" y2="2181.16" gradientUnits="userSpaceOnUse"><stop offset="0" style="stop-color:#444b8c"/><stop offset=".996" style="stop-color:#26264f"/></linearGradient><path d="m2990.7 1148.9-.7 103.1-2537.2-75.3v-116.8c0-61 47.7-109.3 108.1-112.1 3.5-.2 7.1-.2 10.7-.1L2898 1042c51.7 2.1 93.1 49.9 92.7 106.9z" style="fill:url(#SVGID_00000104671925221895176560000004219278102081527969_)"/><path d="M643.9 1066.4c0 20-16.4 35.7-36.7 35-20.3-.7-36.8-17.5-36.8-37.6s16.5-35.8 36.8-35c20.3.8 36.7 17.6 36.7 37.6zM777.5 1071.1c0 19.9-16.2 35.5-36.3 34.8-20.1-.7-36.3-17.4-36.3-37.4s16.3-35.5 36.4-34.8c20.1.8 36.3 17.5 36.2 37.4zM909.6 1075.8c0 19.8-16.1 35.3-35.8 34.6-19.8-.7-35.9-17.3-35.9-37.1s16.1-35.3 35.9-34.6c19.8.7 35.8 17.3 35.8 37.1z" class="st3"/><path d="m623.6 1707.9 570.7-309.3 539.8 315.1zM796.6 1749.5c0 8.2-6.7 14.8-14.9 14.7l-97.2-.2c-8.3 0-15-6.7-15-14.9s6.7-14.8 15-14.8l97.2.4c8.3 0 14.9 6.6 14.9 14.8zM796.1 2277.3c0 8.1-6.7 14.9-14.9 15.1l-97 2.2c-8.3.2-15-6.3-15-14.5s6.7-15 15-15.1l97-2c8.2-.4 14.9 6.1 14.9 14.3zM707.5 2249.6l-30.5.3.4-471.2 30.5.2zM749.5 2248.9l-22.9.3.4-470.3 22.9.2zM783.9 2248.1l-22.9.4.4-469.5 23 .1zM1100.6 1750.5c0 8-6.5 14.6-14.5 14.5l-94.4-.2c-8.1 0-14.6-6.6-14.6-14.7s6.6-14.6 14.6-14.6l94.4.4c8 0 14.5 6.5 14.5 14.6zM1099.6 2270.7c0 8-6.5 14.7-14.5 14.9l-94.3 2.1c-8 .2-14.6-6.2-14.6-14.3 0-8.1 6.6-14.8 14.6-14.9l94.3-2c8.1-.2 14.5 6.2 14.5 14.2zM1052.3 2242.6l-27 .6.8-463.6h27zM1090.7 2241.8l-23.1.4.9-462.7 23.1.1zM1009.4 2241.8l-23 .4.8-462.7 23.1.1zM1399.5 1751.5c0 7.9-6.3 14.3-14.1 14.3l-91.7-.2c-7.8 0-14.2-6.5-14.2-14.5s6.4-14.4 14.2-14.4l91.7.4c7.9 0 14.1 6.4 14.1 14.4zM1398.1 2264.3c0 7.9-6.3 14.5-14.1 14.6l-91.6 2c-7.8.2-14.1-6.1-14.1-14.1s6.4-14.5 14.2-14.7l91.6-1.9c7.8-.1 14 6.2 14 14.1zM1352.6 2236.6l-23.2.5 1.2-456.9h23.2zM1317.8 2236.6l-23.2.5 1.1-456.9h23.3zM1387.5 2235.9l-19.4.3 1.2-456 19.4.1zM1686.6 1752.4c0 7.8-6.2 14.1-13.7 14.1l-89.2-.2c-7.6 0-13.8-6.4-13.7-14.3 0-7.9 6.2-14.2 13.8-14.2l89.2.4c7.5 0 13.6 6.4 13.6 14.2zM1684.8 2258.1c0 7.8-6.2 14.3-13.7 14.4l-89.1 2c-7.6.2-13.8-6.1-13.7-13.9 0-7.8 6.2-14.3 13.8-14.5l89.1-1.9c7.6-.1 13.6 6.1 13.6 13.9zM1605.1 2231.5l-19.4.4 1.4-451.3h19.5zM1637.3 2230.7l-19.5.5 1.5-450.6 19.5.1zM1671.4 2230l-23.4.5 1.5-449.9h23.5zM1702.7 2377.6l-1052.4 29v-89l1052.7-24.7z" class="st11"/><path d="m1745.7 2376.4-1144.9 31.4v-48.3l1145-28.9zM2874.6 1629.4l-933.9-9.1.4-94.5 934.2 13.5zM2468.9 1952.6l-529.6 3.4.3-76.9 529.8-1.4zM2863.4 2096.3l-924.8 13.3.4-73.3 924.9-9.9zM2862.3 2259.5l-924.4 21.1.3-76.8 924.6-17.6z" class="st11"/><path d="M2601.1 2528.1 571.3 2602c-65 2.4-118.6-47.6-118.6-111.6l.1-1430.6c0-61 47.7-109.3 108.1-112.1 7.2 13 15.1 25.6 23.7 37.5 12.9 17.9 27.5 35 43.9 50.4 4.2 3.9 8.4 7.9 12.9 11.6 23.8 20 48 34.7 72.5 45.4 8.5 3.7 17.1 7 25.7 9.8 3.1 1 6.1 2 9.2 2.9 114.6 34.3 234.3 1.9 348.4 61.9 15.4 8.1 30.7 17.9 45.8 29.7 3.5 2.7 7 5.6 10.4 8.5 87.4 74.2 85.3 149.7 115.1 236.3 16.3 47.3 42 97.8 96.6 152.7 76.3 76.6 135.4 87.4 198.2 118.1 14.3 7 28.8 15 43.7 25.1 11.9 8 24.1 17.4 36.7 28.5 5 4.4 10.1 9.1 15.2 14.2 5.6 5.5 11.3 11.4 17.2 17.7 2 2.2 4.1 4.5 6.2 6.8 105.3 119 63 178.6 148.2 257.3 138.9 128.2 281.9-5.2 459.7 94.9 21.2 12 38.7 24.9 53.5 38.6 24.4 22.6 41.6 47.5 56.5 73.9 35.9 63.7 58.3 136.6 135.2 208.2 18.7 17.8 40.4 34.9 65.7 50.4z" class="st6"/><linearGradient id="SVGID_00000073695066320641320210000003606455744279716519_" x1="-1625.151" x2="-1539.235" y1="2135.423" y2="2042.724" gradientTransform="matrix(-1 0 0 1 1514.965 0)" gradientUnits="userSpaceOnUse"><stop offset="0" style="stop-color:#aa80f9"/><stop offset=".996" style="stop-color:#6165d7"/></linearGradient><path d="m3148.9 1893.2-32.1 6.4s-168.3 214.8-144.3 296.6c24 81.8 144.3 19.2 144.3 19.2l32.1-322.2z" style="fill:url(#SVGID_00000073695066320641320210000003606455744279716519_)"/><linearGradient id="SVGID_00000022549163603861556430000001447422631163526821_" x1="4058.131" x2="4157.061" y1="3358.302" y2="3358.302" gradientTransform="rotate(1.621 750.001 -23910.408)" gradientUnits="userSpaceOnUse"><stop offset="0" style="stop-color:#444b8c"/><stop offset=".996" style="stop-color:#26264f"/></linearGradient><path d="M3360.2 3422.8c5.4 4.4 6.4 15.4 7.1 22.6.3 3.2.4 4.8.1 5.9-2.6 8.3-18.6 9.1-43.8 11.7-39.7 4.1-51.5 7.2-54.6 1.3-2.9-5.5 4.1-14.6 4.9-15.6 4.3-5.4 9.5-7.3 19.6-10.7 18.7-6.2 31.4-9.5 35.2-10.6 23.9-6.4 27.9-7.5 31.5-4.6z" style="fill:url(#SVGID_00000022549163603861556430000001447422631163526821_)"/><linearGradient id="SVGID_00000147201955092103637130000017981667780142152849_" x1="4494.386" x2="4537.789" y1="3079.617" y2="2989.784" gradientTransform="rotate(7.036 944.038 -6245.584)" gradientUnits="userSpaceOnUse"><stop offset="0" style="stop-color:#ffc444"/><stop offset=".996" style="stop-color:#f36f56"/></linearGradient><path d="m3336.6 3386.5-4 45.2c1.1 2.2 14.6 8.7 25.3 3.1l10.2-44.5-31.5-3.8z" style="fill:url(#SVGID_00000147201955092103637130000017981667780142152849_)"/><linearGradient id="SVGID_00000111156598700837353280000014669027118869598633_" x1="4465.875" x2="4570.982" y1="2603.771" y2="2603.771" gradientTransform="rotate(15.377 805.288 -2665.843)" gradientUnits="userSpaceOnUse"><stop offset="0" style="stop-color:#444b8c"/><stop offset=".996" style="stop-color:#26264f"/></linearGradient><path d="M3035.5 3386.7c6.5 7.2 8 20.3 2.3 26.8-5.5 6.4-13.9 1.6-37.5 2.3-25.3.8-31.9 6.7-49.1 2-6.9-1.9-19.2-6.6-19-11.5.2-3.5 6.4-5.3 27.3-12.3 29.6-9.9 29.5-10.5 35.8-11.5 15.8-2.6 31.7-5.2 40.2 4.2z" style="fill:url(#SVGID_00000111156598700837353280000014669027118869598633_)"/><linearGradient id="SVGID_00000133490139925332888910000012418576317739511698_" x1="4335.021" x2="4379.345" y1="2826.99" y2="2735.249" gradientTransform="rotate(11.421 791.667 -3561.247)" gradientUnits="userSpaceOnUse"><stop offset="0" style="stop-color:#ffc444"/><stop offset=".996" style="stop-color:#f36f56"/></linearGradient><path d="m3019.3 3345.4-12.7 42.2c1 2.3 13.9 9.8 24.9 5l18.9-41-31.1-6.2z" style="fill:url(#SVGID_00000133490139925332888910000012418576317739511698_)"/><linearGradient id="SVGID_00000074408886090723556940000004697724426245631131_" x1="-1457.41" x2="-1737.751" y1="3214.461" y2="2582.508" gradientTransform="matrix(-1 0 0 1 1514.965 0)" gradientUnits="userSpaceOnUse"><stop offset="0" style="stop-color:#ab316d"/><stop offset="1" style="stop-color:#792d3d"/></linearGradient><path d="M3132.1 2420.3c-1.8 142-11.5 301.6-34.7 475-23 171.4-55.2 326.2-90.3 462.4 16.2 4.4 32.4 8.7 48.6 13.1 41.1-38.3 93-98.7 118-183.9 15.5-52.9 10.4-80.1 20.2-145.2 15.7-103.6 47.4-157.9 80.3-241.5 29.5-75.1 64.4-185.3 83.1-332.6-75.1-15.8-150.1-31.5-225.2-47.3z" style="fill:url(#SVGID_00000074408886090723556940000004697724426245631131_)"/><linearGradient id="SVGID_00000070822056997445925250000014145608952720598666_" x1="-1457.41" x2="-1737.75" y1="3214.461" y2="2582.508" gradientTransform="matrix(-1 0 0 1 1514.965 0)" gradientUnits="userSpaceOnUse"><stop offset="0" style="stop-color:#ab316d"/><stop offset="1" style="stop-color:#792d3d"/></linearGradient><path d="M3120.1 3102c16.3-44.9 36.1-58.7 44.9-105.8 7.7-41-2.9-54.4-3.2-96.2-.7-83.3 40.7-110.9 54.5-179.6 7.5-37.2-41.4-131.2-86.2-212.3 1-29.9 1.7-59.2 2.1-87.7 75 15.7 150.1 31.5 225.1 47.2-18.7 147.3-53.6 257.5-83.1 332.6-32.8 83.6-64.6 137.9-80.3 241.5-9.8 65.1-4.7 92.3-20.2 145.2-25 85.3-76.9 145.6-118 183.9-1.5-.4-3.1-.8-4.6-1.2 41.4-54 54.3-99.9 56.1-136.1 1.9-37.5-7.5-75.4 12.9-131.5z" style="opacity:.3;fill:url(#SVGID_00000070822056997445925250000014145608952720598666_)"/><linearGradient id="SVGID_00000099626059828455519200000003013867273215997348_" x1="-2062.972" x2="-2343.307" y1="2935.807" y2="2303.865" gradientTransform="scale(-1 1) rotate(-7.036 163.365 11699.509)" gradientUnits="userSpaceOnUse"><stop offset="0" style="stop-color:#ab316d"/><stop offset="1" style="stop-color:#792d3d"/></linearGradient><path d="M3288.1 2437c9.9 180.5 18.1 364.4 24.3 551.6 4.6 140.4 8 279.1 10.3 415.9 16.5 2 33.1 4.1 49.6 6.1 16-29.8 37.2-75.3 51.8-133.6 17.7-70.9 13.6-112.9 21.3-186.4 8.7-82.4 21.3-100.3 43.7-204.2 45.4-210.9 68.1-316.3 17.5-381.9-16.4-21.2-68-74.6-218.5-67.5z" style="fill:url(#SVGID_00000099626059828455519200000003013867273215997348_)"/><linearGradient id="SVGID_00000165196537358513228410000011225145522901740179_" x1="-1997.97" x2="-1673.062" y1="2504.652" y2="2154.095" gradientTransform="matrix(-1 0 0 1 1514.965 0)" gradientUnits="userSpaceOnUse"><stop offset="0" style="stop-color:#aa80f9"/><stop offset=".996" style="stop-color:#6165d7"/></linearGradient><path d="M3517.3 1898.7c-42.8-12-105.5-26.1-182.4-30.5-113.3-6.4-169.9-9.2-203.2 16.8-103.1 80.8-5.4 369.5-42.1 521.1-30.9 127.6-32.1 129.9-32.1 129.9-7.3 14.3-19.2 34.1-14.4 57.7 3.7 18.6 17.8 39.9 36.9 46.5 39.7 13.7 62.4-49.8 128.3-68.9 68.8-20 145.8 19.7 243.1 70 61.9 32 83.1 52.4 104.8 42.2 41.8-19.5 30.3-126.3 25.7-169.9-18.7-173.3-39.5-376.2-64.6-614.9z" style="fill:url(#SVGID_00000165196537358513228410000011225145522901740179_)"/><linearGradient id="SVGID_00000016040767794595149640000017025920159730431925_" x1="-1721.763" x2="-1595.808" y1="2192.158" y2="2192.158" gradientTransform="matrix(-1 0 0 1 1514.965 0)" gradientUnits="userSpaceOnUse"><stop offset="0" style="stop-color:#ffc444"/><stop offset=".996" style="stop-color:#f36f56"/></linearGradient><path d="M3233.1 2193c3-.7 8.3-20.6-4.8-26.5-59.3-26.5-105.2 25.9-111.4 42l-6.1 16.1s29.5 2.3 47.7-3.8c18.3-6.1 50.2-22.4 74.6-27.8z" style="fill:url(#SVGID_00000016040767794595149640000017025920159730431925_)"/><linearGradient id="SVGID_00000156580775372844464480000015807449970149860013_" x1="-452.605" x2="-487.257" y1="3621.371" y2="3572.165" gradientTransform="rotate(-103.244 759.15 1477.417)" gradientUnits="userSpaceOnUse"><stop offset="0" style="stop-color:#444b8c"/><stop offset=".996" style="stop-color:#26264f"/></linearGradient><path d="m3071 2268 104.4 5.3c4 .2 8.8-4.7 7.8-8.1l-48.7-157.8c-.8-2.6-3.4-4.4-6.4-4.2l-100.1 2.2c-3.3.2-5 6.6-4.2 9.8l41.5 148.3c.6 2.4 3.1 4.4 5.7 4.5z" style="fill:url(#SVGID_00000156580775372844464480000015807449970149860013_)"/><linearGradient id="SVGID_00000003807602540620748370000002887673058192470184_" x1="-519.626" x2="-437.111" y1="3711.271" y2="3543.663" gradientTransform="rotate(-103.244 759.15 1477.417)" gradientUnits="userSpaceOnUse"><stop offset="0" style="stop-color:#311944"/><stop offset="1" style="stop-color:#893976"/></linearGradient><path d="m3072.9 2264.6 104.9 4.9c4 .2 6.8-2.7 5.8-6.1l-46.9-160.5c-.8-2.6-3.5-4.4-6.4-4.2l-100.2 5.9c-3.3.2-5.5 3.3-4.6 6.5l41.6 148.9c.7 2.6 3.2 4.5 5.8 4.6z" style="fill:url(#SVGID_00000003807602540620748370000002887673058192470184_)"/><linearGradient id="SVGID_00000153676211889412227280000017682417767695600565_" x1="-566.342" x2="-386.381" y1="3600.772" y2="3600.772" gradientTransform="rotate(-103.244 759.15 1477.417)" gradientUnits="userSpaceOnUse"><stop offset="0" style="stop-color:#311944"/><stop offset="1" style="stop-color:#893976"/></linearGradient><path d="M3125.9 2169c-3.1 14.6-16.2 11.5-26.9 29.1-13.6 22.4-.6 42.2-13 50.4-3.8 2.5-10.2 4-21.8 1l3 10.6c.7 2.5 3.2 4.4 5.8 4.5l104.9 4.9c4 .2 6.8-2.7 5.8-6.1l-46.9-160.5c-.8-2.6-3.5-4.4-6.4-4.2l-15.1.9c-1.8 5.5-3 11.9-2.9 18.9.5 24.3 17.1 33.4 13.5 50.5z" style="opacity:.3;fill:url(#SVGID_00000153676211889412227280000017682417767695600565_)"/><linearGradient id="SVGID_00000149349016510829416630000008153682187106471094_" x1="-1577.888" x2="-1483.367" y1="2125.471" y2="2245.286" gradientTransform="matrix(-1 0 0 1 1514.965 0)" gradientUnits="userSpaceOnUse"><stop offset="0" style="stop-color:#ffc444"/><stop offset=".996" style="stop-color:#f36f56"/></linearGradient><path d="M3025.1 2157.2c-.6-2.5.7-5.1 2.5-5.3 7.6-.6 25.3-.8 35.1 7.7 12.7 11 29.1 31.1 15.3 41.2l-12.9 9.5c-.6.4-1.2.6-1.9.4-4.6-1.4-23.9-7.5-26-9-1.9-1.4-9.3-32.3-12.1-44.5z" style="fill:url(#SVGID_00000149349016510829416630000008153682187106471094_)"/><linearGradient id="SVGID_00000005230139910314861650000008648599169294736315_" x1="-1976.431" x2="-1651.523" y1="2524.615" y2="2174.057" gradientTransform="matrix(-1 0 0 1 1514.965 0)" gradientUnits="userSpaceOnUse"><stop offset="0" style="stop-color:#aa80f9"/><stop offset=".996" style="stop-color:#6165d7"/></linearGradient><path d="M3112 2579.4c11.2-19.4 10.7-48.7 35.3-62.5 14.3-8.1 25.5-4.3 44.9-4.8 57.9-1.5 69-38 109-40.1 62-3.3 91.8 81.1 126.6 68.9 22.7-7.9 37.4-53.4 25.7-88.2-16.4-48.4-72.4-41.8-145.9-107.4-31.4-28.1-76.5-78.7-64.1-101 13-23.4 74.7 10.9 120.2-24 26.6-20.4 23.2-45.6 44.9-91.4 11.8-24.8 54.8-89.2 118.9-132.7 20.6 197 38.3 368.2 54.2 517.4 4.7 43.6 16.1 150.4-25.7 169.9-21.7 10.1-42.9-10.3-104.8-42.2-97.3-50.2-174.3-90-243.1-70-65.8 19.1-88.6 82.6-128.3 68.9-12.4-4.3-22.6-14.8-29.3-26.7 35.6-6.3 53.1-19.5 61.5-34.1z" style="opacity:.3;fill:url(#SVGID_00000005230139910314861650000008648599169294736315_)"/><linearGradient id="SVGID_00000039856467363044422700000006770502800924404904_" x1="-1203.503" x2="-1191.907" y1="2904.585" y2="2595.712" gradientTransform="scale(-1 1) rotate(23.504 -113.305 -2773.218)" gradientUnits="userSpaceOnUse"><stop offset="0" style="stop-color:#ffc444"/><stop offset=".996" style="stop-color:#f36f56"/></linearGradient><path d="M3277.2 1782c-.1 8.6 21.3 51.8 50.2 72.7 29.1 21.1 65.8 20 76.7 22.7 25.3 6.3 28.6 6.1 29.2 8.6 2.7 12.3-66.3 54.1-137.7 44-43.7-6.2-83.4-31.1-81-44.2 2.5-13.2 46.1-6.1 59.1-29.9 9-16.6-1.1-40.1-13.1-59.6 11.6-21.7 5 7.5 16.6-14.3z" style="fill:url(#SVGID_00000039856467363044422700000006770502800924404904_)"/><linearGradient id="SVGID_00000181781509788436052930000003951432714347323811_" x1="3789.13" x2="3706.494" y1="2491.754" y2="2281.874" gradientTransform="rotate(-25.145 2228.06 3116.711)" gradientUnits="userSpaceOnUse"><stop offset="0" style="stop-color:#311944"/><stop offset="1" style="stop-color:#6b3976"/></linearGradient><path d="M3200.5 1802c-15.2-8-26-29.3-21.7-48 3.7-16.1 17.4-24.7 25.6-29.8 23.8-14.9 60.6-19.4 82.7-1.4 13.1 10.6 12.4 45.9 12.6 52.1.2 7-3.4 11.2-5.5 17.5-3 8.9-7.5 22.9-14.8 46.2-3.4-4.2-8-9.3-13.8-14.4-2.2-2-11.2-9.5-21.5-14.4-20.7-9.9-29.2-.3-43.6-7.8z" style="fill:url(#SVGID_00000181781509788436052930000003951432714347323811_)"/><linearGradient id="SVGID_00000062877605228475364370000008883920503094948511_" x1="-2345.314" x2="-2349.113" y1="2148.808" y2="2454.954" gradientTransform="scale(-1 1) rotate(21.634 -1833.483 -390.419)" gradientUnits="userSpaceOnUse"><stop offset="0" style="stop-color:#ffc444"/><stop offset=".996" style="stop-color:#f36f56"/></linearGradient><path d="M3294.3 1814.8s-3.7 35.1-37.7 48.5c-30.5 12.1-66.2-52.1-54-75.1 4.1-7.7 15.8-15.6 27.4-17.6 6.9-1.2 10.1.4 21.3-1.8 10.3-2 12.4-4.2 16.3-3.2 4.8 1.3 10.8 7.2 14.2 29.3 2.9-8.4 8.7-13.8 14.5-13.8.9 0 3.6.4 5.8 2 7.6 5.7 5.3 18.6-7.8 31.7z" style="fill:url(#SVGID_00000062877605228475364370000008883920503094948511_)"/><linearGradient id="SVGID_00000172415250328537407880000018197843756594650774_" x1="3763.883" x2="3681.165" y1="2501.802" y2="2291.713" gradientTransform="rotate(-25.145 2228.06 3116.711)" gradientUnits="userSpaceOnUse"><stop offset="0" style="stop-color:#311944"/><stop offset="1" style="stop-color:#6b3976"/></linearGradient><path d="M3267 1761.1c-.9 1.7 6 5 9.8 12.4 7.6 14.3 1.1 38.8-13.3 47.5-8.5 5.1-13.5.9-29 6.3-9.6 3.4-16.6 8.1-20.9 11.4 3 18.2 14.9 32.1 29.1 34.5 15.3 2.5 27.7-9.3 32.9-14.2 3.5-3.3 14.6-13.9 15.8-29.2 1.2-16-9.4-20.3-5.2-32.7 2.1-6.3 6.7-10.7 8.1-21.6.4-2.9.4-5.4.3-7-11.4-4.7-26.2-9.9-27.6-7.4z" style="fill:url(#SVGID_00000172415250328537407880000018197843756594650774_)"/><linearGradient id="SVGID_00000115490915172057202100000009601395372626510488_" x1="-1948.087" x2="-1901.061" y1="2302.835" y2="1900.976" gradientTransform="matrix(-1 0 0 1 1514.965 0)" gradientUnits="userSpaceOnUse"><stop offset="0" style="stop-color:#aa80f9"/><stop offset=".996" style="stop-color:#6165d7"/></linearGradient><path d="M3429.5 1947.7c17.3-26.2 51.7-52 83.4-49.7 92.4 6.7 206.4 255.7 128.3 354.3-59.6 75.3-243.9 78.9-412-51.3v-43.3c82.7 14.5 151.3 24.1 202 30.5 31.6 4 63.1 7.6 68.9-4.8 8.9-18.7-54.4-45.5-78.6-115.4-3.4-9.7-24.5-71 8-120.3z" style="fill:url(#SVGID_00000115490915172057202100000009601395372626510488_)"/><linearGradient id="SVGID_00000099626259124856469140000003991804783629889939_" x1="164.155" x2="1171.034" y1="3416.026" y2="3416.026" gradientUnits="userSpaceOnUse"><stop offset="0" style="stop-color:#fcb148"/><stop offset=".052" style="stop-color:#fdba46"/><stop offset=".142" style="stop-color:#ffc244"/><stop offset=".318" style="stop-color:#ffc444"/><stop offset=".485" style="stop-color:#fdb946"/><stop offset=".775" style="stop-color:#f99c4d"/><stop offset=".866" style="stop-color:#f8924f"/><stop offset="1" style="stop-color:#f8924f"/></linearGradient><path d="M239 3339.1v97.1c0 31.4 195.9 56.8 437.6 56.8s437.6-25.4 437.6-56.8v-97.1H239z" style="fill:url(#SVGID_00000099626259124856469140000003991804783629889939_)"/><linearGradient id="SVGID_00000106107472914841148080000000247668049671430063_" x1="672.222" x2="725.303" y1="3302.605" y2="3746.975" gradientUnits="userSpaceOnUse"><stop offset="0" style="stop-color:#ffdb44"/><stop offset="1" style="stop-color:#feef06"/></linearGradient><path d="M1114.2 3339.1c0 31.4-195.9 56.8-437.6 56.8S239 3370.5 239 3339.1s195.9-56.8 437.6-56.8 437.6 25.4 437.6 56.8z" style="fill:url(#SVGID_00000106107472914841148080000000247668049671430063_)"/><linearGradient id="SVGID_00000156553921679857287220000000935893060620962460_" x1="669.913" x2="686.216" y1="3282.788" y2="3419.261" gradientUnits="userSpaceOnUse"><stop offset="0" style="stop-color:#ffdb44"/><stop offset="1" style="stop-color:#feef06"/></linearGradient><path d="M676.6 3399.8c-214 0-437.9-20.4-437.9-59.9 0-2.2.8-6 2.9-6 2.2 0 1.2 3 1.2 5.1 0 25 178.1 52.9 433.7 52.9s433.7-27.9 433.7-52.9c0-2.2.4-4.2 2.5-4.2 2.2 0 1.6 2.9 1.6 5.1.1 39.5-223.7 59.9-437.7 59.9z" style="fill:url(#SVGID_00000156553921679857287220000000935893060620962460_)"/><path d="M635.2 3342.3c4.3-3 8.9-5.9 13.8-8.8 4.8-2.9 11.2-5.5 18.8-7.8 7.7-2.3 17.3-4.2 28.8-5.7s26-2.2 43.2-2.3c16.9-.1 32.8.5 47.6 1.6 14.8 1.2 27.9 2.9 39.2 5.2 11.2 2.3 20.4 5.1 27.5 8.5 7 3.4 11.2 7.3 12.6 11.6l49.3.5c3.6 0 6.7.3 9.4.9 2.8.6 4.1 1.3 4.1 2.1v4.1l-63.3-.6c-2.2 5-7.9 9.5-17 13.6s-20.6 7.7-34.7 10.7l-23.1-3.2c-2.1-.3-3.8-.7-5.1-1.2-1.3-.5-2-1-2-1.6 0-.8 1.8-1.7 5.3-2.7 3.6-1 7.6-2.2 12.1-3.7s8.9-3.2 13.2-5.2c4.3-2 7.2-4.4 8.7-7.2l-149.5-1.5c-3.9 2.9-8.4 5.7-13.2 8.5-4.9 2.8-11.3 5.3-19.4 7.5-8.1 2.2-18.1 4-30.1 5.4-12 1.4-27.1 2.1-45.4 2.2-13.7.1-27-.5-40.1-1.6-13.1-1.1-24.7-2.8-34.8-5-10.1-2.2-18.4-4.9-25-8.2-6.5-3.3-10.1-7-10.9-11.2l-40.6-.4c-3.6 0-6.7-.3-9.6-.8-2.8-.5-4.2-1.3-4.2-2.2v-4.1l55.5.5c2.5-4.3 7.5-8 15.2-11.2 7.7-3.2 17.1-6 28.1-8.5l18.6 2.6c5.6.8 8.4 1.7 8.4 2.8 0 .6-1.1 1.3-3.5 2.1-2.4.9-5.1 1.9-8.3 3.1-3.2 1.2-6.3 2.6-9.2 4.2-3 1.6-5.3 3.4-6.8 5.4l136.4 1.6zm-136.8 5.5c1.1 2.7 3.6 5 7.4 6.9 3.8 1.9 8.5 3.5 14.1 4.8 5.6 1.2 12 2.2 19 2.7 7.1.6 14.4.9 22.1.8 9 0 16.8-.4 23.5-1.2 6.6-.7 12.5-1.7 17.6-3 5-1.3 9.5-2.7 13.2-4.4 3.8-1.7 7.1-3.5 10.1-5.4l-127-1.2zm325.5-3.6c-1.1-2.7-3.8-5.1-8.1-7.1-4.2-2-9.6-3.7-16.2-5.1-6.6-1.4-14.2-2.4-23-3.1-8.7-.7-18.3-1-28.9-.9-9.3 0-17.5.5-24.2 1.3-6.7.8-12.6 1.9-17.6 3.2-4.9 1.3-9.2 2.9-12.6 4.7-3.5 1.8-6.7 3.7-9.7 5.7l140.3 1.3z" class="st35"/><linearGradient id="SVGID_00000011748293507112161710000010855954722782779274_" x1="984.01" x2="1000.255" y1="722.885" y2="858.875" gradientTransform="rotate(180 834.625 2063.92)" gradientUnits="userSpaceOnUse"><stop offset=".004" style="stop-color:#f36f56"/><stop offset=".306" style="stop-color:#f99c4c"/><stop offset=".545" style="stop-color:#fdb946"/><stop offset=".682" style="stop-color:#ffc444"/><stop offset=".804" style="stop-color:#ffc244"/><stop offset=".867" style="stop-color:#feba46"/><stop offset=".916" style="stop-color:#fcad49"/><stop offset=".958" style="stop-color:#f99a4d"/><stop offset=".996" style="stop-color:#f58152"/><stop offset="1" style="stop-color:#f57e53"/></linearGradient><path d="M676.6 3288.5c-195.1 0-398.3 17.2-430.8 50.4 1.3 1.2 2.5 2.4 3.6 3.7 27.4-23.1 195.1-46.3 427.2-46.3 238 0 408.5 24.4 429.1 48.1 1-1.3 2.1-2.5 3.3-3.7-26.8-34.4-233.8-52.2-432.4-52.2z" style="fill:url(#SVGID_00000011748293507112161710000010855954722782779274_)"/><linearGradient id="SVGID_00000073704532213958928760000016442178087481395375_" x1="42.503" x2="1049.381" y1="3314.073" y2="3314.073" gradientUnits="userSpaceOnUse"><stop offset="0" style="stop-color:#fcb148"/><stop offset=".052" style="stop-color:#fdba46"/><stop offset=".142" style="stop-color:#ffc244"/><stop offset=".318" style="stop-color:#ffc444"/><stop offset=".485" style="stop-color:#fdb946"/><stop offset=".775" style="stop-color:#f99c4d"/><stop offset=".866" style="stop-color:#f8924f"/><stop offset="1" style="stop-color:#f8924f"/></linearGradient><path d="M117.3 3237.1v97.1c0 31.4 195.9 56.8 437.6 56.8 241.7 0 437.6-25.4 437.6-56.8v-97.1H117.3z" style="fill:url(#SVGID_00000073704532213958928760000016442178087481395375_)"/><linearGradient id="SVGID_00000163041154234694424830000014330934496322224307_" x1="550.57" x2="603.651" y1="3200.652" y2="3645.022" gradientUnits="userSpaceOnUse"><stop offset="0" style="stop-color:#ffdb44"/><stop offset="1" style="stop-color:#feef06"/></linearGradient><path d="M992.5 3237.1c0 31.4-195.9 56.8-437.6 56.8-241.7 0-437.6-25.4-437.6-56.8s195.9-56.8 437.6-56.8c241.7.1 437.6 25.5 437.6 56.8z" style="fill:url(#SVGID_00000163041154234694424830000014330934496322224307_)"/><linearGradient id="SVGID_00000044896314208232416980000016742421117239315339_" x1="548.262" x2="564.564" y1="3180.835" y2="3317.308" gradientUnits="userSpaceOnUse"><stop offset="0" style="stop-color:#ffdb44"/><stop offset="1" style="stop-color:#feef06"/></linearGradient><path d="M554.9 3297.9c-214 0-437.9-20.4-437.9-59.9 0-2.2.8-6 2.9-6 2.2 0 1.2 3 1.2 5.1 0 25 178.1 52.9 433.7 52.9s433.7-27.9 433.7-52.9c0-2.2.4-4.2 2.5-4.2 2.2 0 1.6 2.9 1.6 5.1.2 39.4-223.6 59.9-437.7 59.9z" style="fill:url(#SVGID_00000044896314208232416980000016742421117239315339_)"/><path d="M513.6 3240.3c4.3-3 8.9-5.9 13.8-8.8 4.8-2.9 11.2-5.5 18.8-7.8 7.7-2.3 17.3-4.2 28.8-5.7s26-2.2 43.2-2.3c16.9-.1 32.8.5 47.6 1.6 14.8 1.2 27.9 2.9 39.2 5.2 11.2 2.3 20.4 5.1 27.5 8.5 7 3.4 11.2 7.3 12.6 11.7l49.3.5c3.6 0 6.7.3 9.4.9 2.8.6 4.1 1.3 4.1 2.1v4.1l-63.3-.6c-2.2 5-7.9 9.5-17 13.6s-20.6 7.7-34.7 10.7l-23.1-3.2c-2.1-.3-3.8-.7-5.1-1.2-1.3-.5-2-1-2-1.6 0-.8 1.8-1.7 5.3-2.7 3.6-1 7.6-2.2 12.1-3.7s8.9-3.2 13.2-5.2c4.3-2 7.2-4.4 8.7-7.2l-149.5-1.5c-3.9 2.9-8.4 5.7-13.2 8.5-4.9 2.8-11.3 5.3-19.4 7.5-8.1 2.2-18.1 4-30.1 5.4-12 1.4-27.1 2.1-45.4 2.2-13.7.1-27-.5-40.1-1.6-13.1-1.1-24.7-2.8-34.8-5-10.1-2.2-18.4-4.9-25-8.2-6.5-3.2-10.1-7-10.9-11.2l-40.6-.4c-3.6 0-6.7-.3-9.6-.8-2.8-.5-4.2-1.3-4.2-2.2v-4.1l55.5.5c2.5-4.3 7.5-8 15.2-11.2 7.7-3.2 17.1-6 28.1-8.5l18.6 2.6c5.6.8 8.4 1.7 8.4 2.8 0 .6-1.1 1.3-3.5 2.1-2.4.9-5.1 1.9-8.3 3.1-3.2 1.2-6.3 2.6-9.2 4.2-3 1.6-5.3 3.4-6.8 5.4l136.4 1.5zm-136.9 5.5c1.1 2.7 3.6 4.9 7.4 6.9 3.8 1.9 8.5 3.5 14.1 4.8 5.6 1.2 12 2.2 19 2.7 7.1.6 14.4.9 22.1.8 9 0 16.8-.4 23.5-1.2 6.6-.7 12.5-1.7 17.6-3 5-1.3 9.5-2.7 13.2-4.4 3.8-1.7 7.1-3.5 10.1-5.4l-127-1.2zm325.5-3.6c-1.1-2.7-3.8-5.1-8.1-7.1-4.2-2-9.6-3.7-16.2-5.1-6.6-1.4-14.2-2.4-23-3.1-8.7-.7-18.3-1-28.9-.9-9.4 0-17.5.5-24.2 1.3-6.7.8-12.6 1.9-17.6 3.2-4.9 1.3-9.2 2.9-12.6 4.7-3.5 1.8-6.7 3.7-9.7 5.7l140.3 1.3z" class="st35"/><linearGradient id="SVGID_00000114076150115894807400000017474496850218791304_" x1="1105.663" x2="1121.907" y1="824.838" y2="960.828" gradientTransform="rotate(180 834.625 2063.92)" gradientUnits="userSpaceOnUse"><stop offset=".004" style="stop-color:#f36f56"/><stop offset=".306" style="stop-color:#f99c4c"/><stop offset=".545" style="stop-color:#fdb946"/><stop offset=".682" style="stop-color:#ffc444"/><stop offset=".804" style="stop-color:#ffc244"/><stop offset=".867" style="stop-color:#feba46"/><stop offset=".916" style="stop-color:#fcad49"/><stop offset=".958" style="stop-color:#f99a4d"/><stop offset=".996" style="stop-color:#f58152"/><stop offset="1" style="stop-color:#f57e53"/></linearGradient><path d="M555 3186.5c-195.1 0-398.3 17.2-430.8 50.4 1.3 1.2 2.5 2.4 3.6 3.7 27.4-23.1 195.1-46.3 427.2-46.3 238 0 408.5 24.4 429.1 48.1 1-1.3 2.1-2.5 3.3-3.7-26.8-34.4-233.8-52.2-432.4-52.2z" style="fill:url(#SVGID_00000114076150115894807400000017474496850218791304_)"/><linearGradient id="SVGID_00000052070556903746598690000008674511354106757273_" x1="147.471" x2="1154.351" y1="3212.418" y2="3212.418" gradientUnits="userSpaceOnUse"><stop offset="0" style="stop-color:#fcb148"/><stop offset=".052" style="stop-color:#fdba46"/><stop offset=".142" style="stop-color:#ffc244"/><stop offset=".318" style="stop-color:#ffc444"/><stop offset=".485" style="stop-color:#fdb946"/><stop offset=".775" style="stop-color:#f99c4d"/><stop offset=".866" style="stop-color:#f8924f"/><stop offset="1" style="stop-color:#f8924f"/></linearGradient><path d="M222.3 3135.5v97.1c0 31.4 195.9 56.8 437.6 56.8 241.7 0 437.6-25.4 437.6-56.8v-97.1H222.3z" style="fill:url(#SVGID_00000052070556903746598690000008674511354106757273_)"/><linearGradient id="SVGID_00000132803612271252220930000010977981187227402368_" x1="655.538" x2="708.62" y1="3098.998" y2="3543.368" gradientUnits="userSpaceOnUse"><stop offset="0" style="stop-color:#ffdb44"/><stop offset="1" style="stop-color:#feef06"/></linearGradient><path d="M1097.5 3135.5c0 31.4-195.9 56.8-437.6 56.8-241.7 0-437.6-25.4-437.6-56.8s195.9-56.8 437.6-56.8c241.7 0 437.6 25.4 437.6 56.8z" style="fill:url(#SVGID_00000132803612271252220930000010977981187227402368_)"/><linearGradient id="SVGID_00000077307515111696592830000010214910127080166072_" x1="653.231" x2="669.533" y1="3079.181" y2="3215.654" gradientUnits="userSpaceOnUse"><stop offset="0" style="stop-color:#ffdb44"/><stop offset="1" style="stop-color:#feef06"/></linearGradient><path d="M659.9 3196.2c-214 0-437.9-20.4-437.9-59.9 0-2.2.8-6 2.9-6 2.2 0 1.2 3 1.2 5.1 0 25 178.1 52.9 433.7 52.9s433.7-27.9 433.7-52.9c0-2.2.4-4.2 2.5-4.2 2.2 0 1.6 2.9 1.6 5.1.2 39.5-223.7 59.9-437.7 59.9z" style="fill:url(#SVGID_00000077307515111696592830000010214910127080166072_)"/><path d="M618.5 3138.7c4.3-3 8.9-5.9 13.8-8.8 4.8-2.9 11.2-5.5 18.8-7.8 7.7-2.3 17.3-4.2 28.8-5.7s26-2.2 43.2-2.3c16.9-.1 32.8.5 47.6 1.6 14.8 1.2 27.9 2.9 39.2 5.2 11.2 2.3 20.4 5.1 27.5 8.5 7 3.4 11.2 7.3 12.6 11.7l49.3.5c3.6 0 6.7.3 9.4.9 2.8.6 4.1 1.3 4.1 2.1v4.1l-63.3-.6c-2.2 5-7.9 9.5-17 13.6s-20.6 7.7-34.7 10.7l-23.1-3.2c-2.1-.3-3.8-.7-5.1-1.2-1.3-.5-2-1-2-1.6 0-.8 1.8-1.7 5.3-2.7 3.6-1 7.6-2.2 12.1-3.7s8.9-3.2 13.2-5.2c4.3-2 7.2-4.4 8.7-7.2l-149.5-1.5c-3.9 2.9-8.4 5.7-13.2 8.5-4.9 2.8-11.3 5.3-19.4 7.5-8.1 2.2-18.1 4-30.1 5.4-12 1.4-27.1 2.1-45.4 2.2-13.7.1-27-.5-40.1-1.6-13.1-1.1-24.7-2.8-34.8-5-10.1-2.2-18.4-4.9-25-8.2-6.5-3.2-10.1-7-10.9-11.2l-40.6-.4c-3.6 0-6.7-.3-9.6-.8-2.8-.5-4.2-1.3-4.2-2.2v-4.1l55.5.5c2.5-4.3 7.5-8 15.2-11.2 7.7-3.2 17.1-6 28.1-8.5l18.6 2.6c5.6.8 8.4 1.7 8.4 2.8 0 .6-1.1 1.3-3.5 2.1-2.4.9-5.1 1.9-8.3 3.1-3.2 1.2-6.3 2.6-9.2 4.2-3 1.6-5.3 3.4-6.8 5.4l136.4 1.5zm-136.8 5.5c1.1 2.7 3.6 4.9 7.4 6.9 3.8 1.9 8.4 3.5 14.1 4.8s12 2.2 19 2.7c7.1.6 14.4.9 22.1.8 9 0 16.8-.4 23.5-1.2 6.6-.7 12.5-1.7 17.6-3 5-1.3 9.5-2.7 13.2-4.4 3.8-1.7 7.1-3.5 10.1-5.4l-127-1.2zm325.5-3.6c-1.1-2.7-3.8-5.1-8.1-7.1-4.2-2-9.6-3.7-16.2-5.1-6.6-1.4-14.2-2.4-23-3.1-8.7-.7-18.3-1-28.9-.9-9.4 0-17.5.5-24.2 1.3-6.7.8-12.6 1.9-17.6 3.2-4.9 1.3-9.2 2.9-12.6 4.7-3.5 1.8-6.7 3.7-9.7 5.7l140.3 1.3z" class="st35"/><linearGradient id="SVGID_00000001636403197362421100000002371055276561470637_" x1="1000.694" x2="1016.938" y1="926.493" y2="1062.482" gradientTransform="rotate(180 834.625 2063.92)" gradientUnits="userSpaceOnUse"><stop offset=".004" style="stop-color:#f36f56"/><stop offset=".306" style="stop-color:#f99c4c"/><stop offset=".545" style="stop-color:#fdb946"/><stop offset=".682" style="stop-color:#ffc444"/><stop offset=".804" style="stop-color:#ffc244"/><stop offset=".867" style="stop-color:#feba46"/><stop offset=".916" style="stop-color:#fcad49"/><stop offset=".958" style="stop-color:#f99a4d"/><stop offset=".996" style="stop-color:#f58152"/><stop offset="1" style="stop-color:#f57e53"/></linearGradient><path d="M660 3084.9c-195.1 0-398.3 17.2-430.8 50.4 1.3 1.2 2.5 2.4 3.6 3.7 27.4-23.1 195.1-46.3 427.2-46.3 238 0 408.5 24.4 429.1 48.1 1-1.3 2.1-2.5 3.3-3.7-26.9-34.4-233.9-52.2-432.4-52.2z" style="fill:url(#SVGID_00000001636403197362421100000002371055276561470637_)"/><linearGradient id="SVGID_00000129888131894108444510000014965942869899267482_" x1="211.171" x2="1218.049" y1="3110.466" y2="3110.466" gradientUnits="userSpaceOnUse"><stop offset="0" style="stop-color:#fcb148"/><stop offset=".052" style="stop-color:#fdba46"/><stop offset=".142" style="stop-color:#ffc244"/><stop offset=".318" style="stop-color:#ffc444"/><stop offset=".485" style="stop-color:#fdb946"/><stop offset=".775" style="stop-color:#f99c4d"/><stop offset=".866" style="stop-color:#f8924f"/><stop offset="1" style="stop-color:#f8924f"/></linearGradient><path d="M286 3033.5v97.1c0 31.4 195.9 56.8 437.6 56.8 241.7 0 437.6-25.4 437.6-56.8v-97.1H286z" style="fill:url(#SVGID_00000129888131894108444510000014965942869899267482_)"/><linearGradient id="SVGID_00000146462001079836759910000010156680155071899577_" x1="719.237" x2="772.319" y1="2997.045" y2="3441.415" gradientUnits="userSpaceOnUse"><stop offset="0" style="stop-color:#ffdb44"/><stop offset="1" style="stop-color:#feef06"/></linearGradient><ellipse cx="723.6" cy="3033.5" rx="437.6" ry="56.8" style="fill:url(#SVGID_00000146462001079836759910000010156680155071899577_)"/><linearGradient id="SVGID_00000159468451603010986980000014137453652094759317_" x1="716.929" x2="733.231" y1="2977.227" y2="3113.701" gradientUnits="userSpaceOnUse"><stop offset="0" style="stop-color:#ffdb44"/><stop offset="1" style="stop-color:#feef06"/></linearGradient><path d="M723.6 3094.2c-214 0-437.9-20.4-437.9-59.9 0-2.2.8-6 2.9-6 2.2 0 1.2 3 1.2 5.1 0 25 178.1 52.9 433.7 52.9s433.7-27.9 433.7-52.9c0-2.2.4-4.2 2.5-4.2s1.6 2.9 1.6 5.1c.2 39.5-223.7 59.9-437.7 59.9z" style="fill:url(#SVGID_00000159468451603010986980000014137453652094759317_)"/><path d="M682.2 3036.7c4.3-3 8.9-5.9 13.8-8.8 4.8-2.9 11.2-5.5 18.8-7.8 7.7-2.3 17.3-4.2 28.8-5.7s26-2.2 43.2-2.3c16.9-.1 32.8.5 47.6 1.6 14.8 1.2 27.9 2.9 39.2 5.2 11.2 2.3 20.4 5.1 27.5 8.5 7 3.4 11.2 7.3 12.6 11.6l49.3.5c3.6 0 6.7.3 9.4.9 2.8.6 4.1 1.3 4.1 2.1v4.1l-63.3-.6c-2.2 5-7.9 9.5-17 13.6s-20.6 7.7-34.7 10.7l-23.1-3.2c-2.1-.3-3.8-.7-5.1-1.2-1.3-.5-2-1-2-1.6 0-.8 1.8-1.7 5.3-2.7 3.6-1 7.6-2.2 12.1-3.7s8.9-3.2 13.2-5.2c4.3-2 7.2-4.4 8.7-7.2l-149.5-1.5c-3.9 2.9-8.4 5.7-13.2 8.5-4.9 2.8-11.3 5.3-19.4 7.5-8.1 2.2-18.1 4-30.1 5.4-12 1.4-27.1 2.1-45.4 2.2-13.7.1-27-.5-40.1-1.6-13.1-1.1-24.7-2.8-34.8-5-10.1-2.2-18.4-4.9-25-8.2-6.5-3.3-10.1-7-10.9-11.2l-40.6-.4c-3.6 0-6.7-.3-9.6-.8-2.8-.5-4.2-1.3-4.2-2.2v-4.1l55.5.5c2.5-4.3 7.5-8 15.2-11.2 7.7-3.2 17.1-6 28.1-8.5l18.6 2.6c5.6.8 8.4 1.7 8.4 2.8 0 .6-1.1 1.3-3.5 2.1-2.4.9-5.1 1.9-8.3 3.1-3.2 1.2-6.3 2.6-9.2 4.2-3 1.6-5.3 3.4-6.8 5.4l136.4 1.6zm-136.8 5.5c1.1 2.7 3.6 4.9 7.4 6.9 3.8 1.9 8.5 3.5 14.1 4.8 5.6 1.2 12 2.2 19 2.7 7.1.6 14.4.9 22.1.8 9 0 16.8-.4 23.5-1.2 6.6-.7 12.5-1.7 17.6-3 5-1.3 9.5-2.7 13.2-4.4 3.8-1.7 7.1-3.5 10.1-5.4l-127-1.2zm325.5-3.6c-1.1-2.7-3.8-5.1-8.1-7.1-4.2-2-9.6-3.7-16.2-5.1-6.6-1.4-14.2-2.4-23-3.1-8.7-.7-18.3-1-28.9-.9-9.3 0-17.5.5-24.2 1.3-6.7.8-12.6 1.9-17.6 3.2-4.9 1.3-9.2 2.9-12.6 4.7-3.5 1.8-6.7 3.7-9.7 5.7l140.3 1.3z" class="st35"/><linearGradient id="SVGID_00000163792526465808444480000014652306342521325243_" x1="936.996" x2="953.24" y1="1028.445" y2="1164.435" gradientTransform="rotate(180 834.625 2063.92)" gradientUnits="userSpaceOnUse"><stop offset=".004" style="stop-color:#f36f56"/><stop offset=".306" style="stop-color:#f99c4c"/><stop offset=".545" style="stop-color:#fdb946"/><stop offset=".682" style="stop-color:#ffc444"/><stop offset=".804" style="stop-color:#ffc244"/><stop offset=".867" style="stop-color:#feba46"/><stop offset=".916" style="stop-color:#fcad49"/><stop offset=".958" style="stop-color:#f99a4d"/><stop offset=".996" style="stop-color:#f58152"/><stop offset="1" style="stop-color:#f57e53"/></linearGradient><path d="M723.7 2982.9c-195.1 0-398.3 17.2-430.8 50.4 1.3 1.2 2.5 2.4 3.6 3.7 27.4-23.1 195.1-46.3 427.2-46.3 238 0 408.5 24.4 429.1 48.1 1-1.3 2.1-2.5 3.3-3.7-26.9-34.4-233.9-52.2-432.4-52.2z" style="fill:url(#SVGID_00000163792526465808444480000014652306342521325243_)"/><linearGradient id="SVGID_00000111869594446304236860000001541022295177444536_" x1="164.155" x2="1171.034" y1="3000.47" y2="3000.47" gradientUnits="userSpaceOnUse"><stop offset="0" style="stop-color:#fcb148"/><stop offset=".052" style="stop-color:#fdba46"/><stop offset=".142" style="stop-color:#ffc244"/><stop offset=".318" style="stop-color:#ffc444"/><stop offset=".485" style="stop-color:#fdb946"/><stop offset=".775" style="stop-color:#f99c4d"/><stop offset=".866" style="stop-color:#f8924f"/><stop offset="1" style="stop-color:#f8924f"/></linearGradient><path d="M239 2923.5v97.1c0 31.4 195.9 56.8 437.6 56.8s437.6-25.4 437.6-56.8v-97.1H239z" style="fill:url(#SVGID_00000111869594446304236860000001541022295177444536_)"/><linearGradient id="SVGID_00000047740853265395357050000000888028711469023165_" x1="672.222" x2="725.303" y1="2887.049" y2="3331.419" gradientUnits="userSpaceOnUse"><stop offset="0" style="stop-color:#ffdb44"/><stop offset="1" style="stop-color:#feef06"/></linearGradient><path d="M1114.2 2923.5c0 31.4-195.9 56.8-437.6 56.8S239 2954.9 239 2923.5s195.9-56.8 437.6-56.8 437.6 25.5 437.6 56.8z" style="fill:url(#SVGID_00000047740853265395357050000000888028711469023165_)"/><linearGradient id="SVGID_00000003102398707913485100000011455403536877340320_" x1="669.913" x2="686.216" y1="2867.231" y2="3003.705" gradientUnits="userSpaceOnUse"><stop offset="0" style="stop-color:#ffdb44"/><stop offset="1" style="stop-color:#feef06"/></linearGradient><path d="M676.6 2984.2c-214 0-437.9-20.4-437.9-59.9 0-2.2.8-6 2.9-6 2.2 0 1.2 3 1.2 5.1 0 25 178.1 52.9 433.7 52.9s433.7-27.9 433.7-52.9c0-2.2.4-4.2 2.5-4.2 2.2 0 1.6 2.9 1.6 5.1.1 39.5-223.7 59.9-437.7 59.9z" style="fill:url(#SVGID_00000003102398707913485100000011455403536877340320_)"/><path d="M635.2 2926.7c4.3-3 8.9-5.9 13.8-8.8 4.8-2.9 11.2-5.5 18.8-7.8 7.7-2.3 17.3-4.2 28.8-5.7s26-2.2 43.2-2.3c16.9-.1 32.8.5 47.6 1.6 14.8 1.2 27.9 2.9 39.2 5.2 11.2 2.3 20.4 5.1 27.5 8.5 7 3.4 11.2 7.3 12.6 11.6l49.3.5c3.6 0 6.7.3 9.4.9 2.8.6 4.1 1.3 4.1 2.1v4.1l-63.3-.6c-2.2 5-7.9 9.5-17 13.6s-20.6 7.7-34.7 10.7l-23.1-3.2c-2.1-.3-3.8-.7-5.1-1.2-1.3-.5-2-1-2-1.6 0-.8 1.8-1.7 5.3-2.7 3.6-1 7.6-2.2 12.1-3.7s8.9-3.2 13.2-5.2c4.3-2 7.2-4.4 8.7-7.2l-149.5-1.5c-3.9 2.9-8.4 5.7-13.2 8.5-4.9 2.8-11.3 5.3-19.4 7.5-8.1 2.2-18.1 4-30.1 5.4-12 1.4-27.1 2.1-45.4 2.2-13.7.1-27-.5-40.1-1.6-13.1-1.1-24.7-2.8-34.8-5-10.1-2.2-18.4-4.9-25-8.2-6.5-3.2-10.1-7-10.9-11.2l-40.6-.4c-3.6 0-6.7-.3-9.6-.8-2.8-.5-4.2-1.3-4.2-2.2v-4.1l55.5.5c2.5-4.3 7.5-8 15.2-11.2 7.7-3.2 17.1-6 28.1-8.5l18.6 2.6c5.6.8 8.4 1.7 8.4 2.8 0 .6-1.1 1.3-3.5 2.1-2.4.9-5.1 1.9-8.3 3.1-3.2 1.2-6.3 2.6-9.2 4.2-3 1.6-5.3 3.4-6.8 5.4l136.4 1.6zm-136.8 5.5c1.1 2.7 3.6 4.9 7.4 6.9 3.8 1.9 8.5 3.5 14.1 4.8 5.6 1.2 12 2.2 19 2.7 7.1.6 14.4.9 22.1.8 9 0 16.8-.4 23.5-1.2 6.6-.7 12.5-1.7 17.6-3 5-1.3 9.5-2.7 13.2-4.4 3.8-1.7 7.1-3.5 10.1-5.4l-127-1.2zm325.5-3.6c-1.1-2.7-3.8-5.1-8.1-7.1-4.2-2-9.6-3.7-16.2-5.1-6.6-1.4-14.2-2.4-23-3.1-8.7-.7-18.3-1-28.9-.9-9.3 0-17.5.5-24.2 1.3-6.7.8-12.6 1.9-17.6 3.2-4.9 1.3-9.2 2.9-12.6 4.7-3.5 1.8-6.7 3.7-9.7 5.7l140.3 1.3z" class="st35"/><linearGradient id="SVGID_00000121249288623569767560000000674590426056111251_" x1="984.011" x2="1000.255" y1="1138.441" y2="1274.43" gradientTransform="rotate(180 834.625 2063.92)" gradientUnits="userSpaceOnUse"><stop offset=".004" style="stop-color:#f36f56"/><stop offset=".306" style="stop-color:#f99c4c"/><stop offset=".545" style="stop-color:#fdb946"/><stop offset=".682" style="stop-color:#ffc444"/><stop offset=".804" style="stop-color:#ffc244"/><stop offset=".867" style="stop-color:#feba46"/><stop offset=".916" style="stop-color:#fcad49"/><stop offset=".958" style="stop-color:#f99a4d"/><stop offset=".996" style="stop-color:#f58152"/><stop offset="1" style="stop-color:#f57e53"/></linearGradient><path d="M676.6 2872.9c-195.1 0-398.3 17.2-430.8 50.4 1.3 1.2 2.5 2.4 3.6 3.7 27.4-23.1 195.1-46.3 427.2-46.3 238 0 408.5 24.4 429.1 48.1 1-1.3 2.1-2.5 3.3-3.7-26.8-34.4-233.8-52.2-432.4-52.2z" style="fill:url(#SVGID_00000121249288623569767560000000674590426056111251_)"/><linearGradient id="SVGID_00000100375787999984010290000003821291762424890047_" x1="42.503" x2="1049.381" y1="2898.517" y2="2898.517" gradientUnits="userSpaceOnUse"><stop offset="0" style="stop-color:#fcb148"/><stop offset=".052" style="stop-color:#fdba46"/><stop offset=".142" style="stop-color:#ffc244"/><stop offset=".318" style="stop-color:#ffc444"/><stop offset=".485" style="stop-color:#fdb946"/><stop offset=".775" style="stop-color:#f99c4d"/><stop offset=".866" style="stop-color:#f8924f"/><stop offset="1" style="stop-color:#f8924f"/></linearGradient><path d="M117.3 2821.6v97.1c0 31.4 195.9 56.8 437.6 56.8 241.7 0 437.6-25.4 437.6-56.8v-97.1H117.3z" style="fill:url(#SVGID_00000100375787999984010290000003821291762424890047_)"/><linearGradient id="SVGID_00000174571628099975126280000004287984074344451712_" x1="550.569" x2="603.651" y1="2785.096" y2="3229.468" gradientUnits="userSpaceOnUse"><stop offset="0" style="stop-color:#ffdb44"/><stop offset="1" style="stop-color:#feef06"/></linearGradient><ellipse cx="554.9" cy="2821.6" rx="437.6" ry="56.8" style="fill:url(#SVGID_00000174571628099975126280000004287984074344451712_)"/><linearGradient id="SVGID_00000015315846837993382470000003279705515000205961_" x1="548.262" x2="564.564" y1="2765.279" y2="2901.753" gradientUnits="userSpaceOnUse"><stop offset="0" style="stop-color:#ffdb44"/><stop offset="1" style="stop-color:#feef06"/></linearGradient><path d="M554.9 2882.3c-214 0-437.9-20.4-437.9-59.9 0-2.2.8-6 2.9-6 2.2 0 1.2 3 1.2 5.1 0 25 178.1 52.9 433.7 52.9s433.7-27.9 433.7-52.9c0-2.2.4-4.2 2.5-4.2 2.2 0 1.6 2.9 1.6 5.1.2 39.5-223.6 59.9-437.7 59.9z" style="fill:url(#SVGID_00000015315846837993382470000003279705515000205961_)"/><path d="M513.6 2824.8c4.3-3 8.9-5.9 13.8-8.8 4.8-2.9 11.2-5.5 18.8-7.8 7.7-2.3 17.3-4.2 28.8-5.7s26-2.2 43.2-2.3c16.9-.1 32.8.5 47.6 1.6 14.8 1.2 27.9 2.9 39.2 5.2 11.2 2.3 20.4 5.1 27.5 8.5 7 3.4 11.2 7.3 12.6 11.6l49.3.5c3.6 0 6.7.3 9.4.9 2.8.6 4.1 1.3 4.1 2.1v4.1l-63.3-.6c-2.2 5-7.9 9.5-17 13.6s-20.6 7.7-34.7 10.7l-23.1-3.2c-2.1-.3-3.8-.7-5.1-1.2-1.3-.5-2-1-2-1.6 0-.8 1.8-1.7 5.3-2.7 3.6-1 7.6-2.2 12.1-3.7s8.9-3.2 13.2-5.2c4.3-2 7.2-4.4 8.7-7.2l-149.5-1.5c-3.9 2.9-8.4 5.7-13.2 8.5-4.9 2.8-11.3 5.3-19.4 7.5-8.1 2.2-18.1 4-30.1 5.4-12 1.4-27.1 2.1-45.4 2.2-13.7.1-27-.5-40.1-1.6-13.1-1.1-24.7-2.8-34.8-5-10.1-2.2-18.4-4.9-25-8.2-6.5-3.2-10.1-7-10.9-11.2l-40.6-.4c-3.6 0-6.7-.3-9.6-.8-2.8-.5-4.2-1.3-4.2-2.2v-4.1l55.5.5c2.5-4.3 7.5-8 15.2-11.2 7.7-3.2 17.1-6 28.1-8.5l18.6 2.6c5.6.8 8.4 1.7 8.4 2.8 0 .6-1.1 1.3-3.5 2.1-2.4.9-5.1 1.9-8.3 3.1-3.2 1.2-6.3 2.6-9.2 4.2-3 1.6-5.3 3.4-6.8 5.4l136.4 1.6zm-136.9 5.5c1.1 2.7 3.6 4.9 7.4 6.9 3.8 1.9 8.5 3.5 14.1 4.8 5.6 1.2 12 2.2 19 2.7 7.1.6 14.4.9 22.1.8 9 0 16.8-.4 23.5-1.2 6.6-.7 12.5-1.7 17.6-3 5-1.3 9.5-2.7 13.2-4.4 3.8-1.7 7.1-3.5 10.1-5.4l-127-1.2zm325.5-3.6c-1.1-2.7-3.8-5.1-8.1-7.1-4.2-2-9.6-3.7-16.2-5.1-6.6-1.4-14.2-2.4-23-3.1-8.7-.7-18.3-1-28.9-.9-9.4 0-17.5.5-24.2 1.3-6.7.8-12.6 1.9-17.6 3.2-4.9 1.3-9.2 2.9-12.6 4.7-3.5 1.8-6.7 3.7-9.7 5.7l140.3 1.3z" class="st35"/><linearGradient id="SVGID_00000134949270336900462620000009268196588424214440_" x1="1105.663" x2="1121.907" y1="1240.395" y2="1376.384" gradientTransform="rotate(180 834.625 2063.92)" gradientUnits="userSpaceOnUse"><stop offset=".004" style="stop-color:#f36f56"/><stop offset=".306" style="stop-color:#f99c4c"/><stop offset=".545" style="stop-color:#fdb946"/><stop offset=".682" style="stop-color:#ffc444"/><stop offset=".804" style="stop-color:#ffc244"/><stop offset=".867" style="stop-color:#feba46"/><stop offset=".916" style="stop-color:#fcad49"/><stop offset=".958" style="stop-color:#f99a4d"/><stop offset=".996" style="stop-color:#f58152"/><stop offset="1" style="stop-color:#f57e53"/></linearGradient><path d="M555 2770.9c-195.1 0-398.3 17.2-430.8 50.4 1.3 1.2 2.5 2.4 3.6 3.7 27.4-23.1 195.1-46.3 427.2-46.3 238 0 408.5 24.4 429.1 48.1 1-1.3 2.1-2.5 3.3-3.7-26.8-34.3-233.8-52.2-432.4-52.2z" style="fill:url(#SVGID_00000134949270336900462620000009268196588424214440_)"/><linearGradient id="SVGID_00000165952621225946068170000006390096554380168619_" x1="147.471" x2="1154.351" y1="2796.863" y2="2796.863" gradientUnits="userSpaceOnUse"><stop offset="0" style="stop-color:#fcb148"/><stop offset=".052" style="stop-color:#fdba46"/><stop offset=".142" style="stop-color:#ffc244"/><stop offset=".318" style="stop-color:#ffc444"/><stop offset=".485" style="stop-color:#fdb946"/><stop offset=".775" style="stop-color:#f99c4d"/><stop offset=".866" style="stop-color:#f8924f"/><stop offset="1" style="stop-color:#f8924f"/></linearGradient><path d="M222.3 2719.9v97.1c0 31.4 195.9 56.8 437.6 56.8 241.7 0 437.6-25.4 437.6-56.8v-97.1H222.3z" style="fill:url(#SVGID_00000165952621225946068170000006390096554380168619_)"/><linearGradient id="SVGID_00000048467484861718642320000016450271313659976874_" x1="655.538" x2="708.62" y1="2683.442" y2="3127.813" gradientUnits="userSpaceOnUse"><stop offset="0" style="stop-color:#ffdb44"/><stop offset="1" style="stop-color:#feef06"/></linearGradient><ellipse cx="659.9" cy="2719.9" rx="437.6" ry="56.8" style="fill:url(#SVGID_00000048467484861718642320000016450271313659976874_)"/><linearGradient id="SVGID_00000169557976319892159430000010508678036985628092_" x1="653.231" x2="669.533" y1="2663.624" y2="2800.098" gradientUnits="userSpaceOnUse"><stop offset="0" style="stop-color:#ffdb44"/><stop offset="1" style="stop-color:#feef06"/></linearGradient><path d="M659.9 2780.6c-214 0-437.9-20.4-437.9-59.9 0-2.2.8-6 2.9-6 2.2 0 1.2 3 1.2 5.1 0 25 178.1 52.9 433.7 52.9s433.7-27.9 433.7-52.9c0-2.2.4-4.2 2.5-4.2 2.2 0 1.6 2.9 1.6 5.1.2 39.5-223.7 59.9-437.7 59.9z" style="fill:url(#SVGID_00000169557976319892159430000010508678036985628092_)"/><path d="M618.5 2723.1c4.3-3 8.9-5.9 13.8-8.8 4.8-2.9 11.2-5.5 18.8-7.8 7.7-2.3 17.3-4.2 28.8-5.7s26-2.2 43.2-2.3c16.9-.1 32.8.5 47.6 1.6 14.8 1.2 27.9 2.9 39.2 5.2 11.2 2.3 20.4 5.1 27.5 8.5 7 3.4 11.2 7.3 12.6 11.6l49.3.5c3.6 0 6.7.3 9.4.9 2.8.6 4.1 1.3 4.1 2.1v4.1l-63.3-.6c-2.2 5-7.9 9.5-17 13.6s-20.6 7.7-34.7 10.7l-23.1-3.2c-2.1-.3-3.8-.7-5.1-1.2-1.3-.5-2-1-2-1.6 0-.8 1.8-1.7 5.3-2.7 3.6-1 7.6-2.2 12.1-3.7s8.9-3.2 13.2-5.2c4.3-2 7.2-4.4 8.7-7.2l-149.5-1.5c-3.9 2.9-8.4 5.7-13.2 8.5-4.9 2.8-11.3 5.3-19.4 7.5-8.1 2.2-18.1 4-30.1 5.4-12 1.4-27.1 2.1-45.4 2.2-13.7.1-27-.5-40.1-1.6-13.1-1.1-24.7-2.8-34.8-5-10.1-2.2-18.4-4.9-25-8.2-6.5-3.2-10.1-7-10.9-11.2l-40.6-.4c-3.6 0-6.7-.3-9.6-.8-2.8-.5-4.2-1.3-4.2-2.2v-4.1l55.5.5c2.5-4.3 7.5-8 15.2-11.2 7.7-3.2 17.1-6 28.1-8.5l18.6 2.6c5.6.8 8.4 1.7 8.4 2.8 0 .6-1.1 1.3-3.5 2.1-2.4.9-5.1 1.9-8.3 3.1-3.2 1.2-6.3 2.6-9.2 4.2-3 1.6-5.3 3.4-6.8 5.4l136.4 1.6zm-136.8 5.5c1.1 2.7 3.6 4.9 7.4 6.9 3.8 1.9 8.4 3.5 14.1 4.8 5.6 1.2 12 2.2 19 2.7 7.1.6 14.4.9 22.1.8 9 0 16.8-.4 23.5-1.2 6.6-.7 12.5-1.7 17.6-3 5-1.3 9.5-2.7 13.2-4.4 3.8-1.7 7.1-3.5 10.1-5.4l-127-1.2zm325.5-3.6c-1.1-2.7-3.8-5.1-8.1-7.1-4.2-2-9.6-3.7-16.2-5.1-6.6-1.4-14.2-2.4-23-3.1-8.7-.7-18.3-1-28.9-.9-9.4 0-17.5.5-24.2 1.3-6.7.8-12.6 1.9-17.6 3.2-4.9 1.3-9.2 2.9-12.6 4.7-3.5 1.8-6.7 3.7-9.7 5.7l140.3 1.3z" class="st35"/><linearGradient id="SVGID_00000122678244511837824540000004347430964872589958_" x1="1000.694" x2="1016.938" y1="1342.049" y2="1478.038" gradientTransform="rotate(180 834.625 2063.92)" gradientUnits="userSpaceOnUse"><stop offset=".004" style="stop-color:#f36f56"/><stop offset=".306" style="stop-color:#f99c4c"/><stop offset=".545" style="stop-color:#fdb946"/><stop offset=".682" style="stop-color:#ffc444"/><stop offset=".804" style="stop-color:#ffc244"/><stop offset=".867" style="stop-color:#feba46"/><stop offset=".916" style="stop-color:#fcad49"/><stop offset=".958" style="stop-color:#f99a4d"/><stop offset=".996" style="stop-color:#f58152"/><stop offset="1" style="stop-color:#f57e53"/></linearGradient><path d="M660 2669.3c-195.1 0-398.3 17.2-430.8 50.4 1.3 1.2 2.5 2.4 3.6 3.7 27.4-23.1 195.1-46.3 427.2-46.3 238 0 408.5 24.4 429.1 48.1 1-1.3 2.1-2.5 3.3-3.7-26.9-34.4-233.9-52.2-432.4-52.2z" style="fill:url(#SVGID_00000122678244511837824540000004347430964872589958_)"/><linearGradient id="SVGID_00000029745031960950998800000017789367690234887856_" x1="92.874" x2="1099.752" y1="2694.91" y2="2694.91" gradientUnits="userSpaceOnUse"><stop offset="0" style="stop-color:#fcb148"/><stop offset=".052" style="stop-color:#fdba46"/><stop offset=".142" style="stop-color:#ffc244"/><stop offset=".318" style="stop-color:#ffc444"/><stop offset=".485" style="stop-color:#fdb946"/><stop offset=".775" style="stop-color:#f99c4d"/><stop offset=".866" style="stop-color:#f8924f"/><stop offset="1" style="stop-color:#f8924f"/></linearGradient><path d="M167.7 2618v97.1c0 31.4 195.9 56.8 437.6 56.8 241.7 0 437.6-25.4 437.6-56.8V2618H167.7z" style="fill:url(#SVGID_00000029745031960950998800000017789367690234887856_)"/><linearGradient id="SVGID_00000008107779091029663590000009724912600307241404_" x1="600.94" x2="654.022" y1="2581.49" y2="3025.862" gradientUnits="userSpaceOnUse"><stop offset="0" style="stop-color:#ffdb44"/><stop offset="1" style="stop-color:#feef06"/></linearGradient><ellipse cx="605.3" cy="2618" rx="437.6" ry="56.8" style="fill:url(#SVGID_00000008107779091029663590000009724912600307241404_)"/><linearGradient id="SVGID_00000177466856011814734260000016008933377307058078_" x1="598.632" x2="614.934" y1="2561.672" y2="2698.145" gradientUnits="userSpaceOnUse"><stop offset="0" style="stop-color:#ffdb44"/><stop offset="1" style="stop-color:#feef06"/></linearGradient><path d="M605.3 2678.7c-214 0-437.9-20.4-437.9-59.9 0-2.2.8-6 2.9-6 2.2 0 1.2 3 1.2 5.1 0 25 178.1 52.9 433.7 52.9s433.7-27.9 433.7-52.9c0-2.2.4-4.2 2.5-4.2 2.2 0 1.6 2.9 1.6 5.1.2 39.5-223.7 59.9-437.7 59.9z" style="fill:url(#SVGID_00000177466856011814734260000016008933377307058078_)"/><path d="M563.9 2621.1c4.3-3 8.9-5.9 13.8-8.8 4.8-2.9 11.2-5.5 18.8-7.8 7.7-2.3 17.3-4.2 28.8-5.7s26-2.2 43.2-2.3c16.9-.1 32.8.5 47.6 1.6 14.8 1.2 27.9 2.9 39.2 5.2 11.2 2.3 20.4 5.1 27.5 8.5 7 3.4 11.2 7.3 12.6 11.6l49.3.5c3.6 0 6.7.3 9.4.9 2.8.6 4.1 1.3 4.1 2.1v4.1l-63.3-.6c-2.2 5-7.9 9.5-17 13.6s-20.6 7.7-34.7 10.7l-23.1-3.2c-2.1-.3-3.8-.7-5.1-1.2-1.3-.5-2-1-2-1.6 0-.8 1.8-1.7 5.3-2.7 3.6-1 7.6-2.2 12.1-3.7s8.9-3.2 13.2-5.2c4.3-2 7.2-4.4 8.7-7.2l-149.5-1.5c-3.9 2.9-8.4 5.7-13.2 8.5-4.9 2.8-11.3 5.3-19.4 7.5-8.1 2.2-18.1 4-30.1 5.4-12 1.4-27.1 2.1-45.4 2.2-13.7.1-27-.5-40.1-1.6-13.1-1.1-24.7-2.8-34.8-5-10.1-2.2-18.4-4.9-25-8.2-6.5-3.2-10.1-7-10.9-11.2l-40.6-.4c-3.6 0-6.7-.3-9.6-.8-2.8-.5-4.2-1.3-4.2-2.2v-4.1l55.5.5c2.5-4.3 7.5-8 15.2-11.2 7.7-3.2 17.1-6 28.1-8.5l18.6 2.6c5.6.8 8.4 1.7 8.4 2.8 0 .6-1.1 1.3-3.5 2.1-2.4.9-5.1 1.9-8.3 3.1-3.2 1.2-6.3 2.6-9.2 4.2-3 1.6-5.3 3.4-6.8 5.4l136.4 1.6zm-136.8 5.6c1.1 2.7 3.6 4.9 7.4 6.9 3.8 1.9 8.5 3.5 14.1 4.8 5.6 1.2 12 2.2 19 2.7 7.1.6 14.4.9 22.1.8 9 0 16.8-.4 23.5-1.2 6.6-.7 12.5-1.7 17.6-3 5-1.3 9.5-2.7 13.2-4.4 3.7-1.7 7.1-3.5 10.1-5.4l-127-1.2zm325.5-3.6c-1.1-2.7-3.8-5.1-8.1-7.1-4.2-2-9.6-3.7-16.2-5.1-6.6-1.4-14.2-2.4-23-3.1-8.7-.7-18.3-1-28.9-.9-9.3 0-17.5.5-24.2 1.3-6.7.8-12.6 1.9-17.6 3.2-4.9 1.3-9.2 2.9-12.6 4.7-3.5 1.8-6.7 3.7-9.7 5.7l140.3 1.3z" class="st35"/><linearGradient id="SVGID_00000137090300943512946370000012069102500843656335_" x1="1055.292" x2="1071.536" y1="1444.002" y2="1579.991" gradientTransform="rotate(180 834.625 2063.92)" gradientUnits="userSpaceOnUse"><stop offset=".004" style="stop-color:#f36f56"/><stop offset=".306" style="stop-color:#f99c4c"/><stop offset=".545" style="stop-color:#fdb946"/><stop offset=".682" style="stop-color:#ffc444"/><stop offset=".804" style="stop-color:#ffc244"/><stop offset=".867" style="stop-color:#feba46"/><stop offset=".916" style="stop-color:#fcad49"/><stop offset=".958" style="stop-color:#f99a4d"/><stop offset=".996" style="stop-color:#f58152"/><stop offset="1" style="stop-color:#f57e53"/></linearGradient><path d="M605.4 2567.3c-195.1 0-398.3 17.2-430.8 50.4 1.3 1.2 2.5 2.4 3.6 3.7 27.4-23.1 195.1-46.3 427.2-46.3 238 0 408.5 24.4 429.1 48.1 1-1.3 2.1-2.5 3.3-3.7-26.9-34.4-233.9-52.2-432.4-52.2z" style="fill:url(#SVGID_00000137090300943512946370000012069102500843656335_)"/><linearGradient id="SVGID_00000119809694163739141040000004567525619539274147_" x1="734.197" x2="287.979" y1="3226.343" y2="3369.549" gradientUnits="userSpaceOnUse"><stop offset="0" style="stop-color:#fcb148"/><stop offset=".052" style="stop-color:#fdba46"/><stop offset=".142" style="stop-color:#ffc244"/><stop offset=".318" style="stop-color:#ffc444"/><stop offset=".485" style="stop-color:#fdb946"/><stop offset=".775" style="stop-color:#f99c4d"/><stop offset=".866" style="stop-color:#f8924f"/><stop offset="1" style="stop-color:#f8924f"/></linearGradient><path d="M1247.9 3210.2c0 207-161.9 369.8-368.7 363.5-215.3-6.6-396.4-192.6-396.4-415.1 0-222.5 181.1-384 396.4-361.6 206.8 21.5 368.7 206.1 368.7 413.2z" style="fill:url(#SVGID_00000119809694163739141040000004567525619539274147_)"/><linearGradient id="SVGID_00000103241301500945612510000014942203832570602885_" x1="1095.161" x2="696.806" y1="2782.178" y2="3661.025" gradientUnits="userSpaceOnUse"><stop offset="0" style="stop-color:#ffdb44"/><stop offset="1" style="stop-color:#feef06"/></linearGradient><path d="M1303.8 3192.3c0 207-161.9 369.8-368.7 363.5-215.3-6.6-396.4-192.6-396.4-415.1s181.1-384 396.4-361.6c206.8 21.5 368.7 206.2 368.7 413.2z" style="fill:url(#SVGID_00000103241301500945612510000014942203832570602885_)"/><linearGradient id="SVGID_00000066507297799711092300000004809854496152675715_" x1="1021.884" x2="945.02" y1="3710.144" y2="3290.241" gradientUnits="userSpaceOnUse"><stop offset="0" style="stop-color:#fcb148"/><stop offset=".052" style="stop-color:#fdba46"/><stop offset=".142" style="stop-color:#ffc244"/><stop offset=".318" style="stop-color:#ffc444"/><stop offset=".485" style="stop-color:#fdb946"/><stop offset=".775" style="stop-color:#f99c4d"/><stop offset=".866" style="stop-color:#f8924f"/><stop offset="1" style="stop-color:#f8924f"/></linearGradient><path d="M1287.6 3191.2c0 197.9-154.9 353.3-352.5 346.9-205.3-6.6-377.7-184.1-377.7-396.1 0-212 172.4-366.2 377.7-345.2 197.6 20.2 352.5 196.5 352.5 394.4z" style="fill:url(#SVGID_00000066507297799711092300000004809854496152675715_)"/><linearGradient id="SVGID_00000165952973930512424780000001279753134077406137_" x1="858.919" x2="1175.684" y1="3030.485" y2="3702.917" gradientUnits="userSpaceOnUse"><stop offset="0" style="stop-color:#fcb148"/><stop offset=".052" style="stop-color:#fdba46"/><stop offset=".142" style="stop-color:#ffc244"/><stop offset=".318" style="stop-color:#ffc444"/><stop offset=".485" style="stop-color:#fdb946"/><stop offset=".775" style="stop-color:#f99c4d"/><stop offset=".866" style="stop-color:#f8924f"/><stop offset="1" style="stop-color:#f8924f"/></linearGradient><path d="M1275.9 3190.4c0 191.4-149.9 341.5-340.9 335-198.2-6.7-364.4-178-364.4-382.6 0-204.5 166.2-353.5 364.4-333.5 191.1 19.5 340.9 189.8 340.9 381.1z" style="fill:url(#SVGID_00000165952973930512424780000001279753134077406137_)"/><linearGradient id="SVGID_00000086664620999167149620000008775281691296409487_" x1="846.299" x2="1005.579" y1="2885.787" y2="3482.742" gradientUnits="userSpaceOnUse"><stop offset="0" style="stop-color:#ffdb44"/><stop offset="1" style="stop-color:#feef06"/></linearGradient><path d="M933.1 2874.5c10.2 1 18.4 10.1 18.4 20.4v35.2c20.3 2.3 40.7 5.8 61.1 10.6 15 3.5 30 7.7 44.8 12.6 8.9 2.9 14.9 11.9 14 21.1l-4.3 44.2c-1.1 11.7-12.7 18.6-23.6 13.7-9.8-4.4-19.8-8.1-30-11.2-17.9-5.4-36.8-9-56.7-10.6l-5.2-.4V3111c53 14.8 92 34.8 117.1 59.9 25 25 37.5 56.1 37.5 93.5 0 40.4-13.8 72.8-41.5 97.2-27.8 24.5-66.9 38.3-117.4 41.3v38.9c0 10.3-8.2 18.4-18.4 18h-.3c-10.2-.4-18.5-9.1-18.5-19.5v-38.4l-8.2-.4c-23.7-1.1-46.3-3.5-68-7.2-16-2.8-31.7-6.4-47-10.8-9.2-2.7-15.6-11.5-14.7-20.9l5.1-56.8c1.1-12.3 13.4-19.4 25.1-14.8 13.6 5.4 27.4 9.9 41.3 13.6 21.7 5.7 43.8 9.4 66.1 11l.3-112.2c-50.9-12.6-89-31.2-114-56-25.2-24.8-37.8-56.6-37.8-95.2 0-40 13.7-70.8 41-92.5 27.1-21.5 65.7-32.3 115.4-32.2v-36c-.1-10.3 8.2-18 18.4-17zm-18.5 134.7c-15.7 1.1-28 5.5-36.8 13-8.8 7.5-13.2 17.6-13.2 30.3 0 12 4.1 22 12.2 30.1 8.1 8 20.7 14.5 37.8 19.3v-92.7zm32.7 203.2v102.9c17.1 0 30.2-4.1 39.4-12.2 9.1-8.2 13.7-19.7 13.7-34.6 0-13.6-4.2-24.9-12.7-33.9-8.6-9-22.1-16.4-40.4-22.2z" style="fill:url(#SVGID_00000086664620999167149620000008775281691296409487_)"/><linearGradient id="SVGID_00000029006742400492416350000017506389961822442393_" x1="765.728" x2="1081.854" y1="3074.001" y2="3745.076" gradientUnits="userSpaceOnUse"><stop offset="0" style="stop-color:#fcb148"/><stop offset=".052" style="stop-color:#fdba46"/><stop offset=".142" style="stop-color:#ffc244"/><stop offset=".318" style="stop-color:#ffc444"/><stop offset=".485" style="stop-color:#fdb946"/><stop offset=".775" style="stop-color:#f99c4d"/><stop offset=".866" style="stop-color:#f8924f"/><stop offset="1" style="stop-color:#f8924f"/></linearGradient><path d="M873.4 3237.3c11.5-113.8 116.1-161.9 102.4-266.5-8.4-64.5-57.3-118.8-111.8-161.3-165.4 17.3-293.3 154.3-293.3 333.4 0 204.5 166.2 375.9 364.4 382.6 19.2.6 38-.4 56.3-2.7-78.8-78.4-127.9-187.8-118-285.5z" style="opacity:.3;fill:url(#SVGID_00000029006742400492416350000017506389961822442393_)"/><linearGradient id="SVGID_00000004513981600948360540000015493896009497175466_" x1="-621.173" x2="295.772" y1="1670.569" y2="2293.399" gradientTransform="matrix(-1 0 0 1 230.285 0)" gradientUnits="userSpaceOnUse"><stop offset="0" style="stop-color:#311944"/><stop offset="1" style="stop-color:#6b3976"/></linearGradient><path d="M801.1 2001.9c17.2-11.2 1.5-43.7.6-113.6-1.1-85.6 21.6-101.6 3.3-135.2-22.3-41.1-78.6-58.1-115.8-58.9-8.2-.2-10.1-4.7-79 13.2-124 32.1-155.1-2.3-210.6 32.1-53.7 33.2-30.2 69.6-82.3 108.6-84.5 63.2-173.3-5.1-233.6 47.7-57.1 50-58.4 177.3 1.6 246.8 68.1 78.8 190.8 55.1 273.1 39.5 17.3-3.3 104.8-21.6 195.8-88.8 50.4-37.2 84.9-76.9 106.9-106.1 5.2-5.8 13.2-12.9 23.9-14 12.8-1.4 23 6.4 28 9.9 26 17.8 71.1 29.7 88.1 18.8z" style="fill:url(#SVGID_00000004513981600948360540000015493896009497175466_)"/><linearGradient id="SVGID_00000034074105652625929070000014055662957342904246_" x1="1187.04" x2="861.925" y1="3849.664" y2="1648.367" gradientUnits="userSpaceOnUse"><stop offset="0" style="stop-color:#ff9085"/><stop offset="1" style="stop-color:#fb6fbb"/></linearGradient><path d="M731.8 1954.9c22.2-20.2 101.3 18.7 153.8 70.4 61.6 60.7 56.9 110 110.7 185.4 26.7 37.5 72.6 88 153.8 132.2-5.7 14.4-11.5 28.7-17.2 43.1-39.3 2.4-116.4 1-188.3-46-50-32.6-75.7-75.9-125-161-49.7-85.3-115.6-198.8-87.8-224.1z" style="fill:url(#SVGID_00000034074105652625929070000014055662957342904246_)"/><linearGradient id="SVGID_00000118357907908732608600000001719833989058539196_" x1="-1026.695" x2="-903.205" y1="3109.966" y2="3109.966" gradientTransform="matrix(-1 0 0 1 230.285 0)" gradientUnits="userSpaceOnUse"><stop offset="0" style="stop-color:#311944"/><stop offset="1" style="stop-color:#6b3976"/></linearGradient><path d="m1231.7 3109.9-61.8-37.1H1142s-9.5 35.4-8.4 37.1c12.4 20.4 70.3 35.8 106.4 37.1 6 .2 14.4.2 16.5-4.1 3.6-7.3-12.7-22.7-24.8-33z" style="fill:url(#SVGID_00000118357907908732608600000001719833989058539196_)"/><linearGradient id="SVGID_00000154384759201037496960000007622462565549664188_" x1="-968.457" x2="-784.219" y1="3158.633" y2="2605.92" gradientTransform="matrix(-1 0 0 1 230.285 0)" gradientUnits="userSpaceOnUse"><stop offset="0" style="stop-color:#ffc444"/><stop offset=".996" style="stop-color:#f36f56"/></linearGradient><path d="M1168.8 3032.3c-4 23 1.1 35 6.5 41.7 3.8 4.7 7.2 6.1 29.8 25.6 7.5 6.5 11.3 9.9 10.4 11.7-1 2.1-7.6.9-21.8-2.5-31.1-7.5-46.7-11.4-50.5-18.8-3.5-6.8-.4-9.8-.6-28.3-.1-12.1-2.6-21.9-4.5-28 10.2-.5 20.4-.9 30.7-1.4z" style="fill:url(#SVGID_00000154384759201037496960000007622462565549664188_)"/><linearGradient id="SVGID_00000000198414960439139630000007044213193146613124_" x1="-1007.039" x2="-931.516" y1="2883.22" y2="2883.22" gradientTransform="matrix(-1 0 0 1 230.285 0)" gradientUnits="userSpaceOnUse"><stop offset="0" style="stop-color:#311944"/><stop offset="1" style="stop-color:#6b3976"/></linearGradient><path d="M1213.5 2850.1s27.9 33.3 23.4 69.8-53.4-16.9-60.2-34.9c-6.8-18-14.8-43.7-14.8-43.7s34.2-21.3 51.6 8.8z" style="fill:url(#SVGID_00000000198414960439139630000007044213193146613124_)"/><linearGradient id="SVGID_00000067937903324010561760000015948190169903539628_" x1="-1050.81" x2="-927.489" y1="3090.593" y2="2720.628" gradientTransform="matrix(-1 0 0 1 230.285 0)" gradientUnits="userSpaceOnUse"><stop offset="0" style="stop-color:#ffc444"/><stop offset=".996" style="stop-color:#f36f56"/></linearGradient><path d="M1202.8 2798s-7.6 38.8 6.9 59.3c7.2 10.2 16.9 18.9 14 27.2-1.9 5.6-9.2 9.6-15.3 8.9-11.8-1.2-18.3-19.3-22.9-32-6.8-18.8-10.6-59.1-10.6-59.1l27.9-4.3z" style="fill:url(#SVGID_00000067937903324010561760000015948190169903539628_)"/><linearGradient id="SVGID_00000168837188577907572860000001849750538058836659_" x1="-898.855" x2="-806.874" y1="2467.291" y2="2999.061" gradientTransform="matrix(-1 0 0 1 230.285 0)" gradientUnits="userSpaceOnUse"><stop offset="0" style="stop-color:#ab316d"/><stop offset="1" style="stop-color:#792d3d"/></linearGradient><path d="M1180.6 2830.7c8.6-3.1 17.2-6.3 25.8-9.4 13.4-30.6 29.7-80.8 24.3-141.9-14-157.1-159.3-240.3-175.4-249.2-39.6 19.9-79.7 47.9-81.1 83.2-1.8 44.3 58.6 67.8 115.3 132.6 34 38.9 70.4 96.9 91.1 184.7z" style="fill:url(#SVGID_00000168837188577907572860000001849750538058836659_)"/><linearGradient id="SVGID_00000031916327805689802060000015652184915655748235_" x1="-768.955" x2="-638.168" y1="3097.517" y2="2683.597" gradientTransform="matrix(-1 0 0 1 230.285 0)" gradientUnits="userSpaceOnUse"><stop offset="0" style="stop-color:#ab316d"/><stop offset="1" style="stop-color:#792d3d"/></linearGradient><path d="M1171.3 3050.3c28.4-110.8 21.1-201.2 12.9-253.3-12.4-78.7-37.5-238.9-144.4-298.6-23.3-13-56.7-24.7-97.4-61-34-30.3-55.6-62.1-68.6-84.5-143-41.9-274.9-24.9-333.1 51.7-6.7 8.9-23.6 28.1-26.8 56.4-7.3 63.9 55.5 140.9 126 157 89.6 20.4 141.6-71.6 221-41 22.2 8.6 41 29.8 78.7 72.2 47.9 54 74.8 103.8 85 123.7 30.3 59.4 53.3 103.2 56.7 160 .8 13.2 1.2 40 16.7 68.8 11.9 22.1 28 36.9 40 46 11.1.9 22.2 1.7 33.3 2.6z" style="fill:url(#SVGID_00000031916327805689802060000015652184915655748235_)"/><linearGradient id="SVGID_00000169538340804009769020000010147225484852871075_" x1="-768.944" x2="-638.157" y1="3097.521" y2="2683.601" gradientTransform="matrix(-1 0 0 1 230.285 0)" gradientUnits="userSpaceOnUse"><stop offset="0" style="stop-color:#ab316d"/><stop offset="1" style="stop-color:#792d3d"/></linearGradient><path d="M513.9 2461c3.3-28.3 20.1-47.6 26.8-56.4 58.2-76.7 190.1-93.7 333.1-51.7 13 22.4 34.6 54.3 68.6 84.5 40.7 36.3 74.1 47.9 97.4 61 65.3 36.5 100.1 110.4 120.1 180.3-29.7-46.1-55.1-58.3-74.8-58.5-28.2-.3-40.7 23.8-74.4 20.5-35.9-3.5-44.2-33.2-73.3-36.6-8.7-1-19.5.3-32.3 7.2-17.2-18-30-28.7-44.2-34.1-79.4-30.6-131.4 61.4-221 41-70.5-16.3-133.3-93.2-126-157.2z" style="opacity:.3;fill:url(#SVGID_00000169538340804009769020000010147225484852871075_)"/><linearGradient id="SVGID_00000170244617762578833460000004934024935306206625_" x1="-584.908" x2="-493.138" y1="2413.621" y2="2944.165" gradientTransform="matrix(-1 0 0 1 230.285 0)" gradientUnits="userSpaceOnUse"><stop offset="0" style="stop-color:#ab316d"/><stop offset="1" style="stop-color:#792d3d"/></linearGradient><path d="M1097.2 2547.9c-16.2-.9-41.1-1.4-71.2 1.6-142.7 14.1-182 84.7-299.9 101.9-27.9 4.1-152.1 22.2-205.9-49.6-38.6-51.5-32.8-140.4 9.5-175.3 17.9-14.8 35.6-14.4 150.1-13.3 43.1.4 86.2.5 129.4 1.1 182.5 2.3 217.4-10.3 250.6 19.9 15.4 14 38.1 44.3 37.4 113.7z" style="fill:url(#SVGID_00000170244617762578833460000004934024935306206625_)"/><linearGradient id="SVGID_00000083775378168978661970000002294824905504848545_" x1="937.85" x2="612.735" y1="3886.47" y2="1685.171" gradientUnits="userSpaceOnUse"><stop offset="0" style="stop-color:#ff9085"/><stop offset="1" style="stop-color:#fb6fbb"/></linearGradient><path d="M920.2 2362.7s-90.5 17.7-186 34.7c-108 19.2-222.4 37.5-219.4 28.2 30.9-94.9-.1-157.2-22.4-227.4-13.3-41.7-23.5-86.2-15.6-142 22.1-155.9 235.1-93.8 235.1-93.8 69 2.8 76.6 10.1 82.9 17.1 44.2 48.8 56.4 105.6 56.4 105.6 11 50.9-1.4 70.4 0 113.5 1.4 39.1 14.1 95.6 69 164.1z" style="fill:url(#SVGID_00000083775378168978661970000002294824905504848545_)"/><linearGradient id="SVGID_00000014613459036302939290000016193123289600535983_" x1="959.378" x2="634.263" y1="3883.29" y2="1681.993" gradientUnits="userSpaceOnUse"><stop offset="0" style="stop-color:#ff9085"/><stop offset="1" style="stop-color:#fb6fbb"/></linearGradient><path d="M575.1 2391.1s199.8-53.5 318.9-60.1l-318.9 60.1z" style="fill:url(#SVGID_00000014613459036302939290000016193123289600535983_)"/><linearGradient id="SVGID_00000131354523103337496440000002581515417888785588_" x1="2564.431" x2="2573.803" y1="1884.039" y2="1634.408" gradientTransform="rotate(10.276 599.031 -8563.678)" gradientUnits="userSpaceOnUse"><stop offset="0" style="stop-color:#ffc444"/><stop offset=".996" style="stop-color:#f36f56"/></linearGradient><path d="M665.7 1868.9c2 9.1 11.9 58-8.1 70.6-4.3 2.7-12.7 4.3-29.3 7.4-10.9 2-20.1 3.3-26.5 4.1.9 8.2 3.7 21.6 13.2 33.7 26.5 34 79.7 25.2 87.3 23.8 26.8-4.9 53.1-13.1 59.5-18.2 9.7-7.7 17.3-13.5 21.8-19.3-10.4-5-31.3-18.2-45.3-22.5-10.5-3.2-20.3-5.5-29.3-7.2-1.5-9.4-2.9-18.9-4.4-28.3-13.1-14.7-26-29.4-38.9-44.1z" style="fill:url(#SVGID_00000131354523103337496440000002581515417888785588_)"/><linearGradient id="SVGID_00000108997519089589134830000009811378642381455781_" x1="2561.507" x2="2557.495" y1="1663.664" y2="1986.871" gradientTransform="rotate(10.276 599.031 -8563.678)" gradientUnits="userSpaceOnUse"><stop offset="0" style="stop-color:#ffc444"/><stop offset=".996" style="stop-color:#f36f56"/></linearGradient><path d="M664.7 1893.3s3.6 35.8 38.5 42.2c31.2 5.7 54.7-69.7 38.7-89.2-5.3-6.5-18.5-12.7-29.9-12.4-8 .2-35.1 10.5-38.9 37.6-5.4-5.7-12.1-7.3-15.4-4.9-4.2 3-2 11.8-1.4 13.8 1.8 6.8 6.3 11.1 8.4 12.9z" style="fill:url(#SVGID_00000108997519089589134830000009811378642381455781_)"/><linearGradient id="SVGID_00000181054383255927298540000012093842972223370649_" x1="767.934" x2="1124.216" y1="2406.69" y2="2406.69" gradientTransform="matrix(-1 0 0 1 1740.279 0)" gradientUnits="userSpaceOnUse"><stop offset="0" style="stop-color:#40447e"/><stop offset=".996" style="stop-color:#3c3b6b"/></linearGradient><path d="m963.6 2380.2-326 15.9c-4.5.2-8.6 2.6-11 6.4l-9 14.5c-4.5 7.2.9 16.5 9.4 16.2l345.3-13.2-8.7-39.8z" style="fill:url(#SVGID_00000181054383255927298540000012093842972223370649_)"/><linearGradient id="SVGID_00000013909096150245736190000014044139042576329613_" x1="540.091" x2="773.68" y1="2181.946" y2="2413.666" gradientTransform="matrix(-1 0 0 1 1740.279 0)" gradientUnits="userSpaceOnUse"><stop offset="0" style="stop-color:#40447e"/><stop offset=".996" style="stop-color:#3c3b6b"/></linearGradient><path d="m1302.6 2198.7-336.8 6.5c-10 .2-19.1 5.6-24 14.3l-116.6 205.2 355.7-14.2c9.8-.4 18.7-5.7 23.7-14.1l108-180.5c4.7-7.6-1-17.4-10-17.2z" style="fill:url(#SVGID_00000013909096150245736190000014044139042576329613_)"/><linearGradient id="SVGID_00000098936202180332237910000013199786636340811159_" x1="540.092" x2="773.68" y1="2181.946" y2="2413.666" gradientTransform="matrix(-1 0 0 1 1740.279 0)" gradientUnits="userSpaceOnUse"><stop offset="0" style="stop-color:#40447e"/><stop offset=".996" style="stop-color:#3c3b6b"/></linearGradient><path d="M941.9 2219.5c4.9-8.7 14-14.1 24-14.3l7.4-.1c1.1 10.9 4.4 20.8 11.1 28.8 20.8 25.1 55.3 9.6 81 36.1 28.2 29.1 2.2 63.8 27.4 90.9 26.6 28.5 69.6 5.3 119 23.6l-7.1 11.9c-5 8.4-13.9 13.7-23.7 14.1l-355.7 14.2 116.6-205.2z" style="opacity:.3;fill:url(#SVGID_00000098936202180332237910000013199786636340811159_)"/><linearGradient id="SVGID_00000065052737691268970120000013030501615496246913_" x1="634.021" x2="579.587" y1="2084.349" y2="2645.018" gradientUnits="userSpaceOnUse"><stop offset=".004" style="stop-color:#e38ddd"/><stop offset="1" style="stop-color:#9571f6"/></linearGradient><path d="M734.2 2397.4c-108 19.2-222.4 37.5-219.4 28.2 30.9-94.9-.1-157.2-22.4-227.4l5.8-36.1s40.2 17.3 50 58.7c9.8 41.4-.8 72.3 39.2 78.3 25.4 3.8 79.3 29.9 115.9 61.7 1.9 1.7 3.9 3.4 5.7 5.2 10.8 10.1 19.7 20.8 25.2 31.4z" style="opacity:.3;fill:url(#SVGID_00000065052737691268970120000013030501615496246913_)"/><linearGradient id="SVGID_00000043442289557350752140000009835552886389009570_" x1="734.749" x2="409.634" y1="3916.469" y2="1715.168" gradientUnits="userSpaceOnUse"><stop offset="0" style="stop-color:#ff9085"/><stop offset="1" style="stop-color:#fb6fbb"/></linearGradient><path d="M664.2 2369.3c4.2-11.2 8.5-22.4 12.7-33.6-46.9-12.9-111.7-31.9-178.3-55.6-10.4-3.7-22.8-8.3-26.8-19.3-11.4-30.8 60.9-62.6 89-129.8 26-62.1 11.7-148.3-18.5-158.5-62.8-21.2-285.4 255.9-205.9 372.8 45 66.1 183.6 76.6 327.8 24z" style="fill:url(#SVGID_00000043442289557350752140000009835552886389009570_)"/><linearGradient id="SVGID_00000036251026805219955570000001478215882026879402_" x1="749.225" x2="630.789" y1="2336.435" y2="2448.045" gradientUnits="userSpaceOnUse"><stop offset="0" style="stop-color:#ffc444"/><stop offset=".996" style="stop-color:#f36f56"/></linearGradient><path d="M676.9 2335.7c29.4-15.6 64.7.4 66.9 1.5 6.5 3.1 15.9 8.5 25.4 18.2 1.1 1.5 13.8 19.2 9.2 24.8-3.7 4.5-18.2.8-35.5-10-7.3-1-18.1-2-31.1-.8-23.8 2.2-34.7 9.7-43.4 3.2-6.3-4.8-8.5-14.8-6.2-22.3 2.5-8 9.8-11.9 14.7-14.6z" style="fill:url(#SVGID_00000036251026805219955570000001478215882026879402_)"/></g></svg>