<svg xmlns="http://www.w3.org/2000/svg" xmlns:xlink="http://www.w3.org/1999/xlink" xml:space="preserve" style="enable-background:new 0 0 3710 3710" viewBox="0 0 3710 3710"><style>.st1{fill:#fff}.st6{fill:#97a6b7}.st7{fill:#d8dee8}</style><g id="Illustration"><defs><path id="SVGID_1_" d="M1453.5 3130.8c40.8-159.2 77-400.4-1.5-660.3-90.1-298.5-249-348.8-409.7-663.6-229.3-449.3-26.9-799.3-241.8-927-104.8-62.3-262.4-51.9-355 23.8-264.1 215.9-130.9 1071 331.3 1377.4 209 138.6 381.4 109 543.8 295.5 143.5 164.8 148.3 394.5 132.9 554.2z"/></defs><linearGradient id="SVGID_00000051379742577791023210000003765563490017031808_" x1="1337.372" x2="851.835" y1="1379.464" y2="2161.32" gradientUnits="userSpaceOnUse"><stop offset=".004" style="stop-color:#e38ddd"/><stop offset="1" style="stop-color:#9571f6"/></linearGradient><use xlink:href="#SVGID_1_" style="overflow:visible;fill:url(#SVGID_00000051379742577791023210000003765563490017031808_)"/><clipPath id="SVGID_00000025404597010179983130000005846709433229323451_"><use xlink:href="#SVGID_1_" style="overflow:visible"/></clipPath><g style="clip-path:url(#SVGID_00000025404597010179983130000005846709433229323451_)"><path d="m1458.6 2736.9 5-1.6c-21.1-64.7-47.9-127.8-79.7-187.7-73-137.7-148.3-211-243.5-303.8-61.9-60.3-132-128.6-214.3-227.6-154-185.3-202.3-250.7-248.7-358.1-91.9-212.5-93-408.4-85.5-506.3C602.6 1013 640 879 703.2 753.7l-4.7-2.4c-63.5 125.9-101.1 260.5-111.8 400-7.6 98.4-6.5 295.2 85.9 508.8 46.7 107.9 95.1 173.6 249.5 359.3 82.5 99.3 152.7 167.7 214.7 228 94.9 92.5 169.9 165.5 242.6 302.5 31.5 59.7 58.2 122.6 79.2 187z" class="st1"/><path d="m624.5 1508.4-.2-4.3c-7.8-160.4 87.7-270.9 169.2-335.4 88.5-70 180-102.3 180.9-102.6l-1.7-4.9c-.9.3-93.2 33-182.4 103.5-81.7 64.6-177.4 175.1-171.4 335.3-17.5-8.8-90.8-48.4-159.6-124.1-72.2-79.5-154.1-216.4-133.7-417l-5.2-.5c-20.5 202.5 62.2 340.8 135.2 421.2 79.1 87 164.2 126.7 165.1 127.1l3.8 1.7zM698.4 2019.9c106.2-10.5 182.6-50.9 184-51.7l1.9-1-.7-2.1c-99-295.9 91.3-463.6 93.2-465.3l-3.4-4c-.5.4-49.5 43.1-85.4 122.1-33 72.5-61.3 191.5-10 346.7-23.7 12-257.4 123.5-469.8-20.3l-2.9 4.3c101 68.5 206.8 79.8 293.1 71.3zM903.4 2308.9c143.6-14.2 212.7-83.9 213.6-84.9l1.3-1.4-.9-1.7c-80.4-155.1-.4-423.1.4-425.8l-5-1.5c-.8 2.7-80.8 270.8-.9 428-15.1 14.3-159.3 140.1-449.7 55.4l-1.5 5c96.8 28.3 177.4 33.3 242.7 26.9z" class="st1"/></g><defs><path id="SVGID_00000038395367608302458940000000450867047655424647_" d="M2398.1 2607.8c-88.5-94.5-209.3-253.8-221.9-459.9-21.9-359.6 310.5-457.3 388.6-910.4 63-365.5-119.9-494.7 16.1-800.4 22.8-51.2 139.5-327 349.3-347.8 118.2-11.7 213.5 62.6 231.4 76.6 270.3 210.9 277.5 818.9 47.4 1252.7-132.2 249.2-223.1 257.3-499.9 629.8-162.6 218.8-257.3 424.2-311 559.4z"/></defs><linearGradient id="SVGID_00000070816730447947127120000016158334087172874925_" x1="3058.782" x2="2392.181" y1="461.99" y2="2450.869" gradientUnits="userSpaceOnUse"><stop offset="0" style="stop-color:#ff9085"/><stop offset="1" style="stop-color:#fb6fbb"/></linearGradient><use xlink:href="#SVGID_00000038395367608302458940000000450867047655424647_" style="overflow:visible;fill:url(#SVGID_00000070816730447947127120000016158334087172874925_)"/><clipPath id="SVGID_00000053528841260325675800000002728352735315130505_"><use xlink:href="#SVGID_00000038395367608302458940000000450867047655424647_" style="overflow:visible"/></clipPath><g style="clip-path:url(#SVGID_00000053528841260325675800000002728352735315130505_)"><path d="m2452.3 2756.4-4.3 1.7c-116.6-289.3-130.2-526.9-40.4-706.1 44-87.8 96.2-131.8 151.5-178.5 59.5-50.2 120.9-102.1 173.3-213.8 50.9-108.5 48.3-178.6 45.1-267.4-2.9-79.8-6.6-179.2 28.2-337.9 30.4-139.1 66.9-219 99-289.5 34.8-76.4 62.3-136.7 69.1-244.1 11.1-175.4-42-355.3-157.8-534.7l3.9-2.5c116.4 180.3 169.7 361.1 158.5 537.5-6.9 108.2-34.5 168.9-69.5 245.7-32 70.3-68.4 150-98.7 288.6-34.6 158.1-31 257.1-28.1 336.7 3.3 89.4 5.9 160-45.5 269.5-52.8 112.6-114.7 164.8-174.5 215.4-54.9 46.4-106.8 90.2-150.3 177.1-89.3 178-75.6 414.3 40.5 702.3z" class="st1"/><path d="m2891.4 800.2-.8-3c-1.2-4.3-122.5-433-349.6-492.1l1.2-4.5C2662.4 331.9 2752 465 2806 571.2c53 104.2 83 203.5 88.3 221.8 196.7-123.7 291.6-292.7 336.6-412.9 49-130.9 51-233.8 51-234.9l4.6.1c0 1-2.1 104.6-51.3 236.2-45.4 121.5-141.5 292.4-341.1 417l-2.7 1.7z" class="st1"/><path d="M3103.3 1093c-19.9 12.4-39.1 23.4-57.4 33.2-143.8 77.2-262.4 97.9-263.5 98.1l-2 .3-.6-1.9c-71.9-217.7-291.3-449.4-293.5-451.7l3.3-3.2c2.2 2.3 221 233.4 293.9 451.5 15.9-3 127.2-25.9 260.3-97.4 132-70.9 313.1-205.4 426-443.8l4.2 2c-97.8 206.7-246.5 335.6-370.7 412.9zM3217 1636.7c-328.7 204.5-600.9 194.8-603.8 194.6l-2.4-.1.2-2.4c25.9-263.6-216.4-508.8-218.8-511.2l3.3-3.3c2.5 2.5 244.7 247.7 220.4 512.5 29.7.5 326-.7 665.8-238.2l2.6 3.8c-22.7 15.7-45.1 30.5-67.3 44.3z" class="st1"/></g><defs><path id="SVGID_00000010304193415059557500000014104396797945459105_" d="M1974.7 2553.6c47.9-73.2 129.8-184.1 255.7-292.1 224-192.2 363.9-183.9 431.4-336 69.9-157.5-47-240.9 40.2-420.3 7.3-15.1 102.3-204.2 253.7-205.9 105.9-1.2 182.5 90 218.4 132.8 139.5 166.1 214 472.5 65.3 695.2-140.9 211.1-411.2 240.8-497.2 249.7-150.9 15.5-203.8-25.2-355.6-5.2-184.5 24.1-324.5 113-411.9 181.8z"/></defs><linearGradient id="SVGID_00000163036245070495708150000004805183998013286789_" x1="3279.611" x2="1414.438" y1="1548.123" y2="3080.231" gradientUnits="userSpaceOnUse"><stop offset=".004" style="stop-color:#e38ddd"/><stop offset="1" style="stop-color:#9571f6"/></linearGradient><use xlink:href="#SVGID_00000010304193415059557500000014104396797945459105_" style="overflow:visible;fill:url(#SVGID_00000163036245070495708150000004805183998013286789_)"/><clipPath id="SVGID_00000136397368644762542860000005478433805082395032_"><use xlink:href="#SVGID_00000010304193415059557500000014104396797945459105_" style="overflow:visible"/></clipPath><g style="clip-path:url(#SVGID_00000136397368644762542860000005478433805082395032_)"><defs><path id="SVGID_00000042716725651168720970000009086454901473122958_" d="m1936.8 2617.7-3.9-2.5c115.8-180.5 252.1-297.1 404.7-346.4 66.8-21.6 118.2-24.7 168-27.8 62.2-3.8 121-7.4 206.5-44.6 153.8-66.9 266.8-171.5 318-294.4 79.3-190.5 18.7-435.2-154.5-623.4l3.4-3.1c174.4 189.6 235.4 436.2 155.4 628.3-51.7 124.1-165.5 229.5-320.4 296.9-86.2 37.5-145.4 41.1-208.1 45-49.5 3-100.7 6.2-166.9 27.6-151.6 48.9-286.9 164.9-402.2 344.4z"/></defs><defs><path id="SVGID_00000102514872011494351190000007657906950572305821_" d="m3060.6 1790-1-3.4c-41.4-137-160.6-207.1-253.2-241.8-100.7-37.6-192.8-42.8-193.7-42.9l.2-4.6c.9 0 93.6 5.2 194.9 43.1 92.9 34.7 212.2 104.7 255.1 241.3 24.8-22.5 212.9-201.6 156.9-390.5l4.4-1.3c60.5 203.9-158.7 395.8-160.9 397.7l-2.7 2.4z"/></defs><defs><path id="SVGID_00000088840729146205624900000015753127292314703776_" d="M3110.2 2118.7c-31.5 11-60.7 18.3-86.8 23-115 20.8-195.8-2-196.6-2.3l-2.2-.6.6-2.2c36.5-137.6-22-250.4-77.4-320.8-60.2-76.5-130-120.9-130.7-121.3l2.5-3.9c.7.4 71.1 45.2 131.8 122.3 55.8 70.9 114.6 184.2 78.9 322.7 13.5 3.4 89 20.3 192.5 1.5 105.2-19.1 261.7-80 410.2-261.7l3.6 2.9c-112.6 137.9-230 206.7-326.4 240.4z"/></defs><use xlink:href="#SVGID_00000042716725651168720970000009086454901473122958_" style="overflow:visible;fill:#fff"/><use xlink:href="#SVGID_00000102514872011494351190000007657906950572305821_" style="overflow:visible;fill:#fff"/><use xlink:href="#SVGID_00000088840729146205624900000015753127292314703776_" style="overflow:visible;fill:#fff"/><clipPath id="SVGID_00000093175262349757224440000007140745333964997051_"><use xlink:href="#SVGID_00000042716725651168720970000009086454901473122958_" style="overflow:visible"/></clipPath><clipPath id="SVGID_00000047761436170279769840000010543396157890404009_" style="clip-path:url(#SVGID_00000093175262349757224440000007140745333964997051_)"><use xlink:href="#SVGID_00000102514872011494351190000007657906950572305821_" style="overflow:visible"/></clipPath><clipPath id="SVGID_00000125600627514437787010000015645292746639234950_" style="clip-path:url(#SVGID_00000047761436170279769840000010543396157890404009_)"><use xlink:href="#SVGID_00000088840729146205624900000015753127292314703776_" style="overflow:visible"/></clipPath></g><path d="M2992.3 3316.2c0 35.4-26.9 65.6-60.2 67.3L817.6 3493.4c-38.8 2-70.4-27.5-70.4-65.9V290.3c0-38.4 31.5-67.6 70.4-65.2l28.3-1.5L2932.1 354c33.3 2 60.2 32.4 60.2 67.8v2894.4z" class="st6"/><path d="M3034 3314.8c0 35.4-26.9 65.6-60.2 67.3L859.2 3491.9c-38.8 2-70.4-27.5-70.4-65.9V288.8c0-38.4 31.5-67.6 70.4-65.2l2114.6 129c33.3 2 60.2 32.4 60.2 67.8v2894.4z" class="st7"/><path d="M1407.8 518.5c-52.6 67.6-60.1 195.2 30 247.8 195.2 120.1 450.5 82.6 638.2-45 138.2-96.7 79.3-276 39.8-421L1700 274.8c-35.8 100.1-226.3 155.8-292.2 243.7z" class="st7"/><path d="M2934.5 3189.2c0 31.4-23.9 57.9-53.5 59.3l-1914.6 89.6c-34 1.6-61.6-24.5-61.6-58.2V594.5c0-33.7 27.6-59.7 61.6-58L2881.1 633c29.6 1.5 53.5 28.1 53.5 59.5v2496.7z" class="st1"/><linearGradient id="SVGID_00000030484141953784817860000002960557259956560043_" x1="1453.539" x2="2436.037" y1="418.491" y2="418.491" gradientUnits="userSpaceOnUse"><stop offset="0" style="stop-color:#444b8c"/><stop offset=".996" style="stop-color:#26264f"/></linearGradient><path d="M2409.6 547.6c-2.9-16.5-15.7-28.1-32-29l-100.8-5.4c-45.5-2.4-78.5-40.4-76.3-88.1l5-110.6c.9-20.4-13.2-36.8-32.8-38l-32.5-2c-24.7-1.5-41.7-23.7-37.8-49.5 6.9-45.6-23.1-85-67.1-88-44.2-3-85.7 31.9-92.7 77.8-1.9 12.5-8.5 24.1-18.3 32.4-9.9 8.3-22.2 12.5-34.3 11.8l-33.2-2.1c-20.1-1.2-39.3 13.3-44.7 33.7l-28.8 110.8c-12.5 47.9-57.7 82.2-105.1 79.7l-106-5.7c-17.3-.9-34.4 9.4-42.6 25.9L1453.5 654l6.5 8.4 976 38-26.4-152.8zm-388.7-315.5c-12.9-.8-21.8-12.4-19.8-25.8s14.2-23.6 27.1-22.8c12.9.8 21.8 12.4 19.7 25.8-1.9 13.4-14.1 23.6-27 22.8z" style="fill:url(#SVGID_00000030484141953784817860000002960557259956560043_)"/><path d="M2416.1 555.9c-2.9-16.5-15.7-28.1-32-29l-100.8-5.4c-45.5-2.4-78.5-40.4-76.3-88.1l5-110.5c.9-20.4-13.2-36.8-32.8-38l-32.5-2c-24.7-1.5-41.7-23.7-37.8-49.5 6.9-45.6-23.1-85-67.1-88-44.2-3-85.7 31.9-92.7 77.8-1.9 12.5-8.5 24.1-18.3 32.4-9.9 8.3-22.2 12.5-34.3 11.8l-33.2-2.1c-20.1-1.2-39.3 13.3-44.7 33.7l-28.8 110.8c-12.5 47.9-57.7 82.2-105.1 79.7l-106-5.7c-17.3-.9-34.4 9.5-42.6 25.9L1460 662.4l982.5 46.3-26.4-152.8zm-388.6-315.5c-12.9-.8-21.8-12.4-19.8-25.8s14.2-23.6 27.1-22.8c12.9.8 21.8 12.4 19.7 25.8-2 13.4-14.1 23.6-27 22.8z" class="st6"/><path d="m2384.1 527-100.8-5.4c-30.2-1.6-54.8-19-67.4-44.4-93.4 19.5-191.7-.9-290.1 18.8-67.6 15-60.1 120.1-135.1 127.6-107.7 14.6-214.3 15.6-319.7 16.6l-11 22 982.5 46.3-26.4-152.6c-2.8-16.4-15.7-28.1-32-28.9z" style="opacity:.3;fill:#97a6b7"/><path d="M2794 1065.5 1081.1 1024V799.5L2794 852.9zM2794 1768.5l-1712.9-2.6v-572.5l1712.9 32.7v542.4zM1113.1 1734l1648.8 4.1V1256l-1648.8-29.8V1734z" class="st7"/><path d="M1479.5 1747.6h-36.6V1214l36.6.6z" class="st7"/><path d="m2775.7 1429.8-1314.5-16.4v-31.7l1314.5 17.7zM2775.7 1594.8l-1314.5-9.4v-31.7l1314.5 10.7z" class="st7"/><path d="M2441.4 1763.5h-36.7v-531.6l36.7.5zM2794 2788.2l-1712.9 54v-572.5l1712.9-23.9v542.4zm-1680.9 21 1648.8-50.3v-482.1l-1648.8 24.6v507.8z" class="st7"/><path d="m1479.5 2811.5-36.6 1.2v-534.4l36.6-.6z" class="st7"/><path d="m2775.7 2450.2-1314.5 27v-31.7l1314.5-25.7zM2775.7 2615.1l-1314.5 34.1v-31.7l1314.5-32.8z" class="st7"/><path d="m2441.4 2795-36.7 1v-531.6l36.7-.5zM2794 1950.8l-1712.9 7.5V1885l1712.9-3.7zM2794 2115.7l-1712.9 16.6v-73.2l1712.9-12.9zM2794 2970.5l-1712.9 64.1v-73.3l1712.9-60.2z" class="st7"/><linearGradient id="SVGID_00000023256487461854232050000012618287185196979586_" x1="1691.484" x2="776.878" y1="1717.162" y2="2010.687" gradientUnits="userSpaceOnUse"><stop offset="0" style="stop-color:#fcb148"/><stop offset=".052" style="stop-color:#fdba46"/><stop offset=".142" style="stop-color:#ffc244"/><stop offset=".318" style="stop-color:#ffc444"/><stop offset=".485" style="stop-color:#fdb946"/><stop offset=".775" style="stop-color:#f99c4d"/><stop offset=".866" style="stop-color:#f8924f"/><stop offset="1" style="stop-color:#f8924f"/></linearGradient><path d="M2744.4 1684c0 424.3-331.8 758.1-755.8 745-441.3-13.6-812.5-394.7-812.5-850.8 0-456.1 371.2-787.2 812.5-741.2 424 44.2 755.8 422.7 755.8 847z" style="fill:url(#SVGID_00000023256487461854232050000012618287185196979586_)"/><linearGradient id="SVGID_00000129928593360548082820000013051560096962873264_" x1="2431.347" x2="1614.843" y1="806.764" y2="2608.123" gradientUnits="userSpaceOnUse"><stop offset="0" style="stop-color:#ffdb44"/><stop offset="1" style="stop-color:#feef06"/></linearGradient><path d="M2859 1647.4c0 424.3-331.8 758.1-755.8 745-441.3-13.6-812.5-394.7-812.5-850.8 0-456.1 371.2-787.2 812.5-741.2 424 44.2 755.8 422.7 755.8 847z" style="fill:url(#SVGID_00000129928593360548082820000013051560096962873264_)"/><linearGradient id="SVGID_00000066478984534413389800000007212070630285604004_" x1="2281.151" x2="2123.604" y1="2708.801" y2="1848.133" gradientUnits="userSpaceOnUse"><stop offset="0" style="stop-color:#fcb148"/><stop offset=".052" style="stop-color:#fdba46"/><stop offset=".142" style="stop-color:#ffc244"/><stop offset=".318" style="stop-color:#ffc444"/><stop offset=".485" style="stop-color:#fdb946"/><stop offset=".775" style="stop-color:#f99c4d"/><stop offset=".866" style="stop-color:#f8924f"/><stop offset="1" style="stop-color:#f8924f"/></linearGradient><path d="M2825.7 1645.1c0 405.6-317.4 724.1-722.5 711-420.8-13.6-774.1-377.4-774.1-811.9 0-434.6 353.3-750.7 774.1-707.6 405 41.6 722.5 402.9 722.5 808.5z" style="fill:url(#SVGID_00000066478984534413389800000007212070630285604004_)"/><linearGradient id="SVGID_00000055685392979352793700000008673966203092192147_" x1="1947.123" x2="2596.391" y1="1315.715" y2="2693.987" gradientUnits="userSpaceOnUse"><stop offset="0" style="stop-color:#fcb148"/><stop offset=".052" style="stop-color:#fdba46"/><stop offset=".142" style="stop-color:#ffc244"/><stop offset=".318" style="stop-color:#ffc444"/><stop offset=".485" style="stop-color:#fdb946"/><stop offset=".775" style="stop-color:#f99c4d"/><stop offset=".866" style="stop-color:#f8924f"/><stop offset="1" style="stop-color:#f8924f"/></linearGradient><path d="M2801.9 1643.5c0 392.2-307.2 699.9-698.7 686.7-406.2-13.6-746.8-364.9-746.8-784.2s340.6-724.6 746.8-683.5c391.5 39.7 698.7 388.8 698.7 781z" style="fill:url(#SVGID_00000055685392979352793700000008673966203092192147_)"/><linearGradient id="SVGID_00000130647680588974661110000018161298607985326764_" x1="1921.255" x2="2247.73" y1="1019.128" y2="2242.697" gradientUnits="userSpaceOnUse"><stop offset="0" style="stop-color:#ffdb44"/><stop offset="1" style="stop-color:#feef06"/></linearGradient><path d="M2099.1 996c20.8 2 37.7 20.7 37.7 41.9v72.2c41.7 4.7 83.4 11.9 125.2 21.7 30.8 7.2 61.4 15.9 91.8 25.8 18.2 6 30.6 24.4 28.8 43.3l-8.9 90.6c-2.4 24-26.1 38.1-48.5 28.2-20-8.9-40.5-16.6-61.6-22.9-36.7-11.1-75.4-18.3-116.2-21.7l-10.7-.9V1481c108.7 30.4 188.5 71.3 240.1 122.8 51.3 51.2 76.9 115 76.9 191.6 0 82.9-28.3 149.2-85.1 199.2-57.1 50.3-137.1 78.6-240.6 84.7v79.7c0 21.2-16.9 37.7-37.7 36.8h-.7c-20.9-.8-37.9-18.7-37.9-40v-78.6l-16.8-.8c-48.5-2.2-95-7.1-139.4-14.9-32.9-5.7-65-13.1-96.3-22.2-18.9-5.5-32-23.5-30.2-42.9l10.4-116.4c2.3-25.2 27.5-39.8 51.5-30.4 27.9 11 56.1 20.3 84.7 27.8 44.5 11.7 89.7 19.3 135.4 22.6l.7-230.1c-104.3-25.8-182.4-64.1-233.8-114.7-51.6-50.9-77.4-116-77.4-195.2 0-81.9 28.1-145.2 83.9-189.6 55.6-44.2 134.7-66.1 236.6-66.1v-73.8c.3-20.9 17.3-36.5 38.1-34.5zm-37.8 276.1c-32.2 2.3-57.4 11.2-75.4 26.6-18 15.4-27 36.1-27 62.1 0 24.6 8.3 45.2 25 61.7s42.5 29.7 77.4 39.5v-189.9zm66.9 416.6v211c35.1.1 61.9-8.3 80.7-25.1 18.7-16.8 28.1-40.4 28.1-71 0-27.9-8.7-51-26.1-69.4-17.5-18.5-45-33.7-82.7-45.5z" style="fill:url(#SVGID_00000130647680588974661110000018161298607985326764_)"/><linearGradient id="SVGID_00000009555192616813472380000008014366863238691257_" x1="1756.11" x2="2404.069" y1="1404.91" y2="2780.402" gradientUnits="userSpaceOnUse"><stop offset="0" style="stop-color:#fcb148"/><stop offset=".052" style="stop-color:#fdba46"/><stop offset=".142" style="stop-color:#ffc244"/><stop offset=".318" style="stop-color:#ffc444"/><stop offset=".485" style="stop-color:#fdb946"/><stop offset=".775" style="stop-color:#f99c4d"/><stop offset=".866" style="stop-color:#f8924f"/><stop offset="1" style="stop-color:#f8924f"/></linearGradient><path d="M1976.7 1739.6c23.6-233.2 237.9-331.9 209.9-546.3-17.2-132.2-117.4-243.6-229.2-330.6-339 35.5-601.1 316.2-601.1 683.4 0 419.2 340.6 770.6 746.8 784.2 39.4 1.3 78-.7 115.4-5.6-161.3-160.6-262.1-384.8-241.8-585.1z" style="opacity:.3;fill:url(#SVGID_00000009555192616813472380000008014366863238691257_)"/><linearGradient id="SVGID_00000163785169737023686130000018437475934513596060_" x1="1125.275" x2="2205.954" y1="1849.1" y2="368.025" gradientUnits="userSpaceOnUse"><stop offset=".004" style="stop-color:#6165d7"/><stop offset="1" style="stop-color:#aa80f9"/></linearGradient><path d="M2708 1159.3v3.3c-29-39.6-80.9-94.6-112-126.4-.6-1.4-1.6-2.8-2.1-4.2-17.3-41.6-40.7-86.7-71.3-131.6-30.3-45.1-68.9-89.5-113.9-130.3-5.4-5.3-11.6-10-17.4-15-2.9-2.4-5.9-5-8.9-7.4l-4.4-3.7c-1.5-1.2-3.1-2.4-4.6-3.6-6.2-4.7-12.3-9.4-18.6-14.2l-4.6-3.6-4.9-3.3c-3.2-2.2-6.5-4.5-9.7-6.7-12.7-9.2-26.5-17.2-39.9-25.7-6.8-4.1-14-7.9-20.9-11.8-3.4-1.9-7-3.9-10.5-5.8l-10.8-5.4c-57.5-29-120.1-50-184.4-61.6-8-1.3-16.1-2.7-24.2-4-8.1-1.1-16.3-1.8-24.3-2.8l-12.2-1.4-12.2-.7-12.2-.7c-4.1-.2-8.1-.6-12.2-.5-8.1 0-16.2-.1-24.4-.2-2 0-4.1-.1-6 0l-5.4.3-10.8.6-10.8.5c-1 0-1.6 0-2.9.1l-11.1.8-14.8 1-11.1.8-1.9.1h-.7s-3.8 0 2.6.1l-23.9 3.5c-3.9.6-7.9 1-11.8 1.9l-11.7 2.4-11.7 2.3-5.8 1.2c-1.9.4-3.9 1-5.8 1.4-7.7 1.9-15.3 3.9-22.9 5.8-3.8.8-7.6 2.2-11.3 3.3l-11.2 3.5-11.2 3.4-10.9 4c-7.3 2.7-14.6 5.1-21.7 8-7 3-14.1 6-21.1 9-55.7 24.8-105.7 56.8-148.3 93.3l-8 6.7-7.6 7.2c-5 4.7-10.3 9.2-15.1 14.1l-.6.6c-9.4 9.7-18.8 18.8-27.2 28.8-2.2 2.4-4.4 4.9-6.6 7.4l-3.3 3.6-3.1 3.9c-4.1 5.1-8.2 10.1-12.2 15.2-1 1.2-2.1 2.4-3.1 3.7l-2.8 3.9c-1.9 2.6-3.8 5.2-5.6 7.7-3.6 5.2-7.6 10-10.9 15.4-27.7 41.4-48.7 82.8-63.1 122.3-14.4 39.4-23 76.4-27.9 109-.5 4.1-1.1 8.1-1.6 12.1-.5 3.9-1.2 7.8-1.4 11.6-.6 7.7-1.2 15-1.9 22-.4 7.1-.4 14-.7 20.4-.1 3.2-.3 6.4-.4 9.4.1 3.1.2 6.1.2 9 .1 5.8.2 11.3.2 16.5 0 1.4.2 2.2.3 3.2.1 1 .2 1.9.4 2.8.2 1.8.4 1.6.6 3.2.1 1.4.3 2.1.4 2.1h272.5l-165.6 183.6-385 421L515.5 1201H805c.4 0 .9-5 1.3-8.9 1.1-8.4 2.3-16.6 3.6-26.6.7-5 1.4-9.6 2.2-14.9.4-2.6.8-5.1 1.2-7.8.4-2.7.7-5.6 1.3-7.9 2-10 4.1-20.6 6.4-31.8 1.2-5.6 2.4-11.3 3.6-17.2 1.3-5.9 2.9-11.8 4.5-18 3.1-12.2 6.2-25 10-38.3 4.1-13.1 8.3-26.7 12.6-40.9 2.1-7.1 4.9-14.1 7.5-21.4 2.6-7.1 5.3-14.4 8-21.9 22.5-59 53.2-123.2 94.2-187.8 40.9-64.6 92.9-129 154.7-188.7 7.5-7.7 15.8-14.7 23.8-22 4.1-3.6 8.1-7.2 12.1-10.9l6.2-5.5 6.3-5.2c8.5-6.9 17.1-13.9 25.6-20.9l6.5-5.2 6.7-5c4.5-3.4 9-6.7 13.5-10 17.7-13.5 36.7-25.8 55.6-38.3 9.5-6.1 19.4-11.8 29.2-17.8 4.8-2.9 9.8-5.8 14.7-8.8 5-2.7 10.1-5.5 15.2-8.2 80.6-44.1 169.6-77.6 262-97.7l34.8-6.9c11.6-2.2 23.4-3.6 35.1-5.4l17.6-2.5 17.7-1.7 17.6-1.7c5.9-.5 11.7-1.2 17.6-1.4 11.8-.5 23.6-1.9 35.4-2.5 2.9-.1 5.9-1.2 8.8-1.2h8.9l17.6 1 17.6.6c5.9 0 11.8.8 17.6 1.1l35 2.1c7.9.1 2.7.2 4.8.2l.9.1 1.9.2 3.6.5 7.4.9 14.7 1.8 7.4.9 3.6.5 4.5.6 18.5 2.7 18.5 2.8 9.2 1.4c3 .5 5.7 1.2 8.6 1.7l33.9 7.2c5.6 1.1 11.2 2.7 16.7 4.2l16.7 4.4 16.6 4.4 16.4 5.2c10.8 3.5 21.7 6.8 32.4 10.6 10.6 4 21.2 7.9 31.8 11.9 83.8 33.3 160.2 77.7 225.9 129.4l12.3 9.6c4 3.3 8 6.7 11.9 10.1 7.9 6.7 15.8 13.2 23.4 20 14.9 14 29.8 27.5 43.5 42.1 3.5 3.6 6.9 7.2 10.4 10.7l5.1 5.3 4.9 5.5c6.5 7.4 12.9 14.7 19.3 21.9l4.8 5.5 4.6 5.6c2.9 3.8 6 7.5 8.9 11.2 5.9 7.5 12 14.6 17.3 22.4 30 40.5 55.4 81.6 76.5 122.1 10.3 19.7 19.4 39.2 27.5 58.6 25 59 41 115.2 51.1 165.3 1.1 6.3 2.3 12.5 3.4 18.5s2.4 12 3.1 17.9c1.6 11.8 3.1 23.1 4.6 34 1.2 10.9 1.9 21.4 2.8 31.4.4 5 .9 9.8 1.2 14.6.2 4.7 1.2 9.4 1.4 13.9-.2 10 1.2 18.6 1.2 26.6z" style="fill:url(#SVGID_00000163785169737023686130000018437475934513596060_)"/><linearGradient id="SVGID_00000015314337399688685410000003886630798544854162_" x1="1997.578" x2="2388.368" y1="1120.985" y2="585.407" gradientUnits="userSpaceOnUse"><stop offset=".004" style="stop-color:#6165d7"/><stop offset="1" style="stop-color:#aa80f9"/></linearGradient><path d="M2708 1159.3v3.3c-29-39.6-80.9-94.6-112-126.4-.6-1.4-1.6-2.8-2.1-4.2-17.3-41.6-40.7-86.7-71.3-131.6-30.3-45.1-68.9-89.5-113.9-130.3-5.4-5.3-11.6-10-17.4-15-2.9-2.4-5.9-5-8.9-7.4l-4.4-3.7c-1.5-1.2-3.1-2.4-4.6-3.6-6.2-4.7-12.3-9.4-18.6-14.2l-4.6-3.6-4.9-3.3c-3.2-2.2-6.5-4.5-9.7-6.7-12.7-9.2-26.5-17.2-39.9-25.7-6.8-4.1-14-7.9-20.9-11.8-3.4-1.9-7-3.9-10.5-5.8l-10.8-5.4c-57.5-29-120.1-50-184.4-61.6-8-1.3-16.1-2.7-24.2-4-8.1-1.1-16.3-1.8-24.3-2.8l-12.2-1.4-12.2-.7-12.2-.7c-4.1-.2-8.1-.6-12.2-.5-8.1 0-16.2-.1-24.4-.2-2 0-4.1-.1-6 0l-5.4.3-10.8.6-10.8.5c-1 0-1.6 0-2.9.1l-11.1.8-14.8 1-11.1.8-1.9.1h-.7s-3.8 0 2.6.1l-23.9 3.5c-3.9.6-7.9 1-11.8 1.9l-11.7 2.4-11.7 2.3-5.8 1.2c-1.9.4-3.9 1-5.8 1.4-7.7 1.9-15.3 3.9-22.9 5.8-3.8.8-7.6 2.2-11.3 3.3l-11.2 3.5-11.2 3.4-10.9 4c-7.3 2.7-14.6 5.1-21.7 8-7 3-14.1 6-21.1 9-55.7 24.8-105.7 56.8-148.3 93.3l-8 6.7-7.6 7.2c-5 4.7-10.3 9.2-15.1 14.1l-.6.6C1636.2 616.4 1834.4 518 2058.1 518c229.2 0 431.6 103.3 553 261.1 10.3 19.7 19.4 39.2 27.5 58.6 25 59 41 115.2 51.1 165.3 1.1 6.3 2.3 12.5 3.4 18.5s2.4 12 3.1 17.9c1.6 11.8 3.1 23.1 4.6 34 1.2 10.9 1.9 21.4 2.8 31.4.4 5 .9 9.8 1.2 14.6.2 4.7 1.2 9.4 1.4 13.9.4 9.4 1.8 18 1.8 26z" style="opacity:.4;fill:url(#SVGID_00000015314337399688685410000003886630798544854162_)"/><linearGradient id="SVGID_00000005986536383682340380000016688743706221258940_" x1="1001.338" x2="-494.937" y1="2090.293" y2="3972.272" gradientUnits="userSpaceOnUse"><stop offset="0" style="stop-color:#ffc444"/><stop offset=".996" style="stop-color:#f36f56"/></linearGradient><path d="M982.3 1854.7c56.4 93.3 56.7 201.6 3.7 265.5-25.6 30.9-82.6 74.4-149.3 75.5-31.8.5-47.5-8.9-58.7 1.5-28.5 26.6 6.7 149.1 73.6 174.5 87 33.1 253.8-88.3 279.7-243.5 24.7-147.5-88.7-261.9-103-275.9-15.3.9-30.7 1.7-46 2.4z" style="fill:url(#SVGID_00000005986536383682340380000016688743706221258940_)"/><linearGradient id="SVGID_00000050659529149530111310000009316014758098089120_" x1="375.735" x2="54.182" y1="2824.877" y2="2008.193" gradientTransform="matrix(-1 .0085 .0085 1 589.211 10.923)" gradientUnits="userSpaceOnUse"><stop offset="0" style="stop-color:#444b8c"/><stop offset=".996" style="stop-color:#26264f"/></linearGradient><path d="M114.1 2235.6c3.2-69.7 47.5-114.3 58.5-125.1 66-64.5 159.2-62 189-61.2 105.8 2.8 129.7 55.4 203.6 35.8 62.5-16.6 67.3-60 121.2-63 56.3-3.1 115.3 40.9 138.9 90.9 45.5 96.4-25.5 246.5-126.9 291.8-105.4 47.2-162.4-55.2-355.6-24.9-70.5 11-111.7 32.3-157.4 6.5-50-28.3-73.8-95.3-71.3-150.8z" style="fill:url(#SVGID_00000050659529149530111310000009316014758098089120_)"/><linearGradient id="SVGID_00000008140572806328763930000011992648715419949467_" x1="756.805" x2="826.401" y1="3597.469" y2="3597.469" gradientTransform="matrix(1 -.0085 .0085 1 52.019 15.66)" gradientUnits="userSpaceOnUse"><stop offset="0" style="stop-color:#444b8c"/><stop offset=".996" style="stop-color:#26264f"/></linearGradient><path d="M844.8 3582.5s-5.6 5.3-5.5 14.6c0 2.8 1.3 5.4 3.6 7.2 5 3.8 15.9 11.4 33 18.4 24.1 9.8 32.3 8.9 33.2 4.8 1-4-11.5-14.9-22.2-24.3-10.6-9.5-42.1-20.7-42.1-20.7z" style="fill:url(#SVGID_00000008140572806328763930000011992648715419949467_)"/><linearGradient id="SVGID_00000083069189034777500060000006269090183168956090_" x1="782.15" x2="764.274" y1="3629.317" y2="3515.041" gradientTransform="matrix(1 -.0085 .0085 1 52.019 15.66)" gradientUnits="userSpaceOnUse"><stop offset="0" style="stop-color:#311944"/><stop offset="1" style="stop-color:#893976"/></linearGradient><path d="M836.9 3545.1s7.9 36.4 7.4 49.7c0 0 9.7 8.4 23.3-.2 0 0-7.3-33.2-4-47l-26.7-2.5z" style="fill:url(#SVGID_00000083069189034777500060000006269090183168956090_)"/><linearGradient id="SVGID_00000033347577172013515170000009016688205450037689_" x1="485.457" x2="550.28" y1="3613.841" y2="3613.841" gradientTransform="matrix(1 -.0085 .0085 1 52.019 15.66)" gradientUnits="userSpaceOnUse"><stop offset="0" style="stop-color:#444b8c"/><stop offset=".996" style="stop-color:#26264f"/></linearGradient><path d="M575.7 3597.3s-6.3 4.5-7.5 13.7c-.4 2.8.5 5.5 2.5 7.6 4.4 4.5 14.2 13.5 30.1 22.7 22.5 13.1 30.7 13.2 32.2 9.4 1.5-3.8-9.3-16.3-18.6-27.2-9.2-10.8-38.7-26.2-38.7-26.2z" style="fill:url(#SVGID_00000033347577172013515170000009016688205450037689_)"/><linearGradient id="SVGID_00000084490698084866584390000013983322979936130751_" x1="497.992" x2="496.077" y1="3631.59" y2="3526.252" gradientTransform="matrix(1 -.0085 .0085 1 52.019 15.66)" gradientUnits="userSpaceOnUse"><stop offset="0" style="stop-color:#311944"/><stop offset="1" style="stop-color:#893976"/></linearGradient><path d="M564.1 3563.7s7.9 36.4 7.4 49.7c0 0 9.7 8.4 23.3-.2 0 0-7.3-33.2-4-47l-26.7-2.5z" style="fill:url(#SVGID_00000084490698084866584390000013983322979936130751_)"/><linearGradient id="SVGID_00000033359219709702336130000015332024990146913431_" x1="646.433" x2="730.703" y1="3682.913" y2="3004.919" gradientTransform="matrix(1 -.0085 .0085 1 52.019 15.66)" gradientUnits="userSpaceOnUse"><stop offset="0" style="stop-color:#40447e"/><stop offset=".996" style="stop-color:#3c3b6b"/></linearGradient><path d="M925.2 2782.9c3.3 109.4 2.7 226.8-3.4 351.2-7.7 155.4-22.9 299.4-42.3 430.7-7.3 2.1-17.3 4.1-29.3 4.1-8.5 0-15.8-1.1-21.7-2.4-3.5-15.4-8.9-39-15.9-67.5-12.8-51.8-15.8-58.7-19.8-76.4-16.6-73.8 4.2-94.9-6.6-171.1-2.4-16.7-3.3-15.2-26.4-95.5-28.7-100.1-43.3-150.2-50.1-188.6-18.4-103-27.6-154.4 1-186.4 37.3-41.9 125-36.2 214.5 1.9z" style="fill:url(#SVGID_00000033359219709702336130000015332024990146913431_)"/><linearGradient id="SVGID_00000124853113987416808400000013026309285990079131_" x1="645.689" x2="729.96" y1="3682.82" y2="3004.827" gradientTransform="matrix(1 -.0085 .0085 1 52.019 15.66)" gradientUnits="userSpaceOnUse"><stop offset="0" style="stop-color:#40447e"/><stop offset=".996" style="stop-color:#3c3b6b"/></linearGradient><path d="M854.7 3502.4c-12.3-33.9 8.6-51.3 8-109.9-.5-50.5-16.2-56.7-21.4-113.5-4.7-52 6.7-67 9.2-115 4.9-90.6-31.2-120.6-38.6-189.9-5.2-47.7 2.9-117.3 65.8-208.4-71.7-21.4-136.4-19.1-167 15.2-28.6 32-19.4 83.5-1 186.4 6.9 38.4 21.4 88.4 50.1 188.6 23.1 80.3 24 78.8 26.4 95.5 10.8 76.2-10 97.3 6.6 171.1 4 17.8 7 24.7 19.8 76.4 7 28.6 12.4 52.1 15.9 67.5 5.9 1.3 13.3 2.3 21.7 2.4 12 0 22-2 29.3-4.1 1.2-8 2.4-16.1 3.5-24.2-12.2-9.8-22.6-22.3-28.3-38.1z" style="opacity:.3;fill:url(#SVGID_00000124853113987416808400000013026309285990079131_)"/><linearGradient id="SVGID_00000127752103335506982650000015941368190977926565_" x1="362.465" x2="678.469" y1="3013.149" y2="3214.243" gradientTransform="matrix(1 -.0085 .0085 1 52.019 15.66)" gradientUnits="userSpaceOnUse"><stop offset="0" style="stop-color:#40447e"/><stop offset=".996" style="stop-color:#3c3b6b"/></linearGradient><path d="M807.6 2776.3c-42.9 119.6-84.6 252.4-121.5 397.7-35.8 141.3-62 274.4-81.2 396.9-5.7 2.7-16.5 6.8-30.6 6.6-12-.2-21.4-3.4-26.9-5.8-14.5-35.8-29.6-82.3-38.9-138.1-5.9-35.8-12.4-74.8-8-124.9 5.8-66.7 24-77.4 32-143.3 6-49.3-2.4-58.9-4.9-130.2-4-110.5-6.1-167.5 21.2-207 58.7-84.9 230.4-56.9 258.8-51.9z" style="fill:url(#SVGID_00000127752103335506982650000015941368190977926565_)"/><linearGradient id="SVGID_00000009580145183405413700000005109795315431255479_" x1="968.009" x2="-528.268" y1="2063.795" y2="3945.776" gradientUnits="userSpaceOnUse"><stop offset="0" style="stop-color:#ffc444"/><stop offset=".996" style="stop-color:#f36f56"/></linearGradient><path d="M954.4 2793.4c-12.9-72.8-2.4-69.2-14.5-153.3-15.8-110.1-35.6-128.3-45-205.7-5.6-45.7-7.8-114.4 13.1-202.1-23.7-13.4-105.8-56-214.2-39-13.7 2.1-26.7 5.1-39 8.6-11.2-6.8-26.7 1.4-56 1.5-66.6.1-124.4-42.5-150.5-72.9-54.1-63-55.6-171.3-.8-265.5-15.4-.5-30.7-1-46.1-1.6-10 10.2-140.7 147.5-98.3 277.6 24.1 73.8 99 130.5 104.2 134.3 48 35.6 76.8 33.5 125.1 82.4 13.6 13.8 32.3 35.1 44 39.3 44.5 77.8 43.9 125.1 29.4 155.5-14.6 30.6-42 40.9-71 101.1-28.8 59.7-16.6 79.9-42.6 106.2-46.7 47.1-118 14.2-133.3 46.5-15.1 31.7 38.6 95 93.1 126.7 43.1 25 84.7 29 114 31.5 53.2 4.5 61.8-6.9 151-14.4 66.8-5.7 104.5-8.9 154.9-1.7 69.7 9.8 91.8 29.3 108.5 15.3 21.8-18.6-7.4-65.5-26-170.3z" style="fill:url(#SVGID_00000009580145183405413700000005109795315431255479_)"/><linearGradient id="SVGID_00000081645642123098041950000011973397711137251488_" x1="719.279" x2="613.94" y1="2040.407" y2="2240.869" gradientTransform="matrix(1 -.0085 .0085 1 52.019 15.66)" gradientUnits="userSpaceOnUse"><stop offset="0" style="stop-color:#311944"/><stop offset="1" style="stop-color:#893976"/></linearGradient><path d="M702.3 2116c3.4 9.3 8.1 29.8-1.8 48.4-8.6 16.3-24.9 23.6-31.4 26.5-15.7 7.2-25.2 5.2-25.6 8.1-.9 6.6 44.2 27.5 90.6 17.7 27.3-5.7 53-21.6 51.2-30.4-2-9.8-37-2.7-49.3-21.7-7.8-12.1-2.9-29.6 3.3-43.6-8.9-7.3-27.9 2.5-37-5z" style="fill:url(#SVGID_00000081645642123098041950000011973397711137251488_)"/><linearGradient id="SVGID_00000014609982645732719300000007880083392545954486_" x1="523.981" x2="403.146" y1="1619.297" y2="1569.865" gradientTransform="rotate(-15.408 2649.131 416.6)" gradientUnits="userSpaceOnUse"><stop offset="0" style="stop-color:#311944"/><stop offset="1" style="stop-color:#893976"/></linearGradient><path d="M707.8 2146.9s20.6 14.8 42.1 2c19.2-11.5-.8-62.7-18.3-66.9-5.9-1.4-15 1.4-21 7-3.5 3.3-4 5.9-9.8 11.2-5.4 4.9-7.5 5-8.5 7.7-1.3 3.4-.6 9.6 10 22.2-5.8-2.4-11.1-1.7-13.6 1.6-.4.5-1.3 2.3-1.3 4.2-.2 7.2 7.8 12.2 20.4 11z" style="fill:url(#SVGID_00000014609982645732719300000007880083392545954486_)"/><g style="opacity:.3"><linearGradient id="SVGID_00000139294677678985647320000009951977243959622335_" x1="591.385" x2="-534.74" y1="2024.158" y2="5804.73" gradientTransform="matrix(1 -.0085 .0085 1 15.08 15.975)" gradientUnits="userSpaceOnUse"><stop offset="0" style="stop-color:#ff9085"/><stop offset="1" style="stop-color:#fb6fbb"/></linearGradient><path d="M610 2855.1c38.6-77.9 136.5-85.5 140.9-147.5 3.2-45.4-48.5-51.5-69-116.9-30.9-98.3 61.8-161.5 29-229-22.4-46.1-71.1-27.9-184.1-87-52.8-27.6-136.6-71.5-184.8-159.2-19.6-35.7-29.4-71.6-34-103.7-13.9 40.4-19.3 85.2-5 129.1 24.1 73.8 99 130.5 104.2 134.3 48 35.6 76.8 33.5 125.1 82.4 13.6 13.8 32.3 35.1 44 39.3 44.5 77.8 43.9 125.1 29.4 155.5-14.6 30.6-42 40.9-71 101.1-28.8 59.7-16.6 79.9-42.6 106.2-46.7 47.1-118 14.2-133.3 46.5-15.1 31.7 38.6 95 93.1 126.7 43.1 25 84.7 29 114 31.5 13.4 1.1 24 1.3 33.7.7-9.5-49.4-2.2-84.5 10.4-110z" style="fill:url(#SVGID_00000139294677678985647320000009951977243959622335_)"/></g><linearGradient id="SVGID_00000168815695091599887370000012246795843238961070_" x1="402.053" x2="378.1" y1="1957.234" y2="1847.512" gradientTransform="matrix(1 -.0085 .0085 1 15.08 15.975)" gradientUnits="userSpaceOnUse"><stop offset="0" style="stop-color:#311944"/><stop offset="1" style="stop-color:#893976"/></linearGradient><path d="M424.8 1864.2c1.3 0 12-24.1-.3-35.4-12.3-11.3-51.2-30.8-55.8-36.5-4.5-5.7 7.8 35.5 25.8 46s18.1 25.4 18.1 25.4l12.2.5z" style="fill:url(#SVGID_00000168815695091599887370000012246795843238961070_)"/><linearGradient id="SVGID_00000078025608794167138200000002850949417067345828_" x1="1011.218" x2="995.107" y1="1911.782" y2="1837.985" gradientTransform="matrix(1 -.0085 .0085 1 15.08 15.975)" gradientUnits="userSpaceOnUse"><stop offset="0" style="stop-color:#311944"/><stop offset="1" style="stop-color:#893976"/></linearGradient><path d="M995.8 1854.3s-5.8-14.8 4.8-25.8c10.7-10.9 36-13.4 39.6-33.5 3.6-20.1 14.1 18.7 2.2 29.4-11.9 10.7-28.9 28.9-28.9 28.9l-17.7 1z" style="fill:url(#SVGID_00000078025608794167138200000002850949417067345828_)"/><linearGradient id="SVGID_00000155148811913642379640000012037655777451351706_" x1="2960.773" x2="4853.374" y1="1920.289" y2="1988.862" gradientUnits="userSpaceOnUse"><stop offset="0" style="stop-color:#ffc444"/><stop offset=".996" style="stop-color:#f36f56"/></linearGradient><path d="M2795.2 1919.8c1.1-1.2 29.4-8.1 29.4-8.1s8.4-31.3 24.8-15.3 16.8 37.4 3.8 38.2c-13 .8-38.9-3.8-51.5 2.7-12.6 6.5-6.5-17.5-6.5-17.5z" style="fill:url(#SVGID_00000155148811913642379640000012037655777451351706_)"/><linearGradient id="SVGID_00000021107009919209850750000009054846847379330467_" x1="2943.517" x2="4493.759" y1="1518.769" y2="1574.938" gradientUnits="userSpaceOnUse"><stop offset="0" style="stop-color:#ffc444"/><stop offset=".996" style="stop-color:#f36f56"/></linearGradient><path d="m3175.2 1554.5-26.4-23.3c-5.1-4.5-7.9-11.1-7.7-17.9.4-9.9-.2-24.5-5.8-32.1-9-12.3-42.8-2.3-44.3 0-6.7 10-9 27.2 11 33.6 20 6.4 25.2 16.9 25.2 16.9l31.7 44.8 16.3-22z" style="fill:url(#SVGID_00000021107009919209850750000009054846847379330467_)"/><linearGradient id="SVGID_00000134945195862071031320000004637647795226994602_" x1="2971.46" x2="3022.542" y1="3599.225" y2="3644.663" gradientTransform="translate(64.278)" gradientUnits="userSpaceOnUse"><stop offset="0" style="stop-color:#444b8c"/><stop offset=".996" style="stop-color:#26264f"/></linearGradient><path d="M3046.7 3624.1c2.6-7.7 29.2-11.3 40.4 1.1 5.5 6.2 8.4 17.5 4 21.8-1.6 1.6 3.4 5.4-1.8 4.8-17.2-2.3-45.1-20-42.6-27.7z" style="fill:url(#SVGID_00000134945195862071031320000004637647795226994602_)"/><linearGradient id="SVGID_00000007414576336771266550000002186029295444899234_" x1="2095.356" x2="2095.356" y1="3644.754" y2="3555.764" gradientTransform="translate(989.589)" gradientUnits="userSpaceOnUse"><stop offset="0" style="stop-color:#ffc444"/><stop offset=".996" style="stop-color:#f36f56"/></linearGradient><path d="M3073.2 3630.8h26.9c-10.1-16.4-1.3-62.9-1.3-62.9l-28.9 2.3s1.4 13.3 4.1 33c.9 6.8.3 17-.8 27.6z" style="fill:url(#SVGID_00000007414576336771266550000002186029295444899234_)"/><linearGradient id="SVGID_00000135653500972512946850000003591498001429532803_" x1="-765.515" x2="-1098.609" y1="3691.702" y2="2346.84" gradientTransform="matrix(-1 0 0 1 2340.026 0)" gradientUnits="userSpaceOnUse"><stop offset="0" style="stop-color:#444b8c"/><stop offset=".996" style="stop-color:#26264f"/></linearGradient><path d="M3003.5 2615.1c-12.4 41.1-30.2 107.4-41.6 190.6-32.6 237.3 36.7 244.9 23.8 507.9-4.1 83.9 72.7 277.5 79.5 281.8 3.3.3 6.8.5 10.6.4 6.7-.2 16.1-1.2 27.1-4.5 12.2-2.1 56.1-121 45.9-191.7-12.3-85.2 2.8-144.3-.9-211.1-8.9-159.9-.6-328.8 10.6-329.5 7.1-.4 18.7 66.4 31 136.6 14.1 80.6 16.4 117.4 46.2 152.5 20.2 23.7 44.3 36.5 61 43.5 203.5 85.1 175.1 85.7 219.5 122.3 7.3 6.1 27.3 23.2 41.3 17 9.4-4.2 12.1-17 13.3-22.8 9.3-46.2-19.3-142.4-94.8-178.5-27-12.9-34.6-6.1-60.7-22.2-32.4-20-55.6-52.7-65.6-83-17.5-53.3 10-86.6 25.1-157.5 2.9-13.6-1.5-135-14.6-215.2-17.1-104.8-356.7-36.6-356.7-36.6z" style="fill:url(#SVGID_00000135653500972512946850000003591498001429532803_)"/><linearGradient id="SVGID_00000149382248479854820350000014380204552032877467_" x1="2976.596" x2="3027.677" y1="3593.454" y2="3638.891" gradientTransform="translate(64.278)" gradientUnits="userSpaceOnUse"><stop offset="0" style="stop-color:#444b8c"/><stop offset=".996" style="stop-color:#26264f"/></linearGradient><path d="M3071.3 3627.2s32.7-2.8 35.3 4c2.5 6.8 2.8 24-17.2 20.6-20.1-3.4-20.7-19.5-18.1-24.6z" style="fill:url(#SVGID_00000149382248479854820350000014380204552032877467_)"/><linearGradient id="SVGID_00000054947684894953065180000010750464477160389020_" x1="2590.512" x2="3465.247" y1="2188.077" y2="2188.077" gradientUnits="userSpaceOnUse"><stop offset="0" style="stop-color:#aa80f9"/><stop offset=".996" style="stop-color:#6165d7"/></linearGradient><path d="M2803.4 1911.2c2.8 9 5.7 17.9 8.5 26.9-20.5 15.7-77.1 62.7-70.3 113.1 9.8 72.8 145.5 105.8 231.4 105.6 23.6 0 176.6-.4 248.4-110.1 63.1-96.4 24-216.8-8.2-316.1-24.9-76.8-59.4-134.5-84.2-170.8 14.2-12.1 28.5-24.2 42.7-36.3 51.6 31.3 148 100.2 210.2 223.9 57.4 114.1 60.7 224.9 60.1 267.1-.8 52.2-8.5 66.5-9.8 142-1.2 69.7 4.4 113 13 194 30.2 284.7 22.8 335.7.7 386.4-18.6 42.7-34.7 79.5-73.7 101.6-78 44.2-143.3-29.6-313.3-16-59.1 4.7-80.1 15.9-104.4-1.1-14.3-10-40.5-37.4-32-214.8 7.3-151.6 29.3-191.8-2.3-235.4-27.7-38.2-56.2-23.1-141.7-66.3-55.9-28.2-176.7-89.2-187.4-189.7-7.8-72.7 46-130 54.8-139.4 61.9-65.6 144.2-64.9 157.5-64.6z" style="fill:url(#SVGID_00000054947684894953065180000010750464477160389020_)"/><linearGradient id="SVGID_00000083061548281393186790000006886611069050245523_" x1="2923.301" x2="4473.54" y1="2076.713" y2="2132.881" gradientUnits="userSpaceOnUse"><stop offset="0" style="stop-color:#ffc444"/><stop offset=".996" style="stop-color:#f36f56"/></linearGradient><path d="M3108.9 2059.1c-1-18.9 11.4-33.5 14.2-36.6 11.4-13.1 13.9-14.6 18.3-16.3l6.1-2.1s.3-.1.7-.1c3.7-.5 15.5 1.8 17.7 2.9 7.2 3.3 8.4 36-3.7 79-.1 1.7-.1 3.5-.2 5.2-.1 2.6-.2 4.6-.3 6.3-.3 7.6 6.5 13.6 14 12.4 38.6-5.9 33.3 3.4 32 6.4-3.1 7-38.9 26.7-81.9 37.3-53.4 12.5-87.1 11-82.5 2.8 1.7-3.1 28.2-16.9 59.6-27.3 7-2.3 12.7-7.8 15-14.9 3.1-9.6 9.1-22.8 10.5-26.8-2.8-2.2-18.8-14.3-19.5-28.2z" style="fill:url(#SVGID_00000083061548281393186790000006886611069050245523_)"/><path d="M3134.6 1988.2c-3 13.5.1 29.4 2.9 32.4.4.4 2.3 2.8 3.7 6.4.2.5.3 1.1.4 1.8 1 9.2-14.7 16.2-13 20.6 1.3 3.2 11.3 1.6 11.9 4.2.5 2.5-8.2 5.4-7.6 8.4.4 2.2 5.5 1.4 7.8 5.2 1.1 1.9.4 3 .9 8.1.3 2.9.9 6.1 1.5 7.9 2.9 9 15.5 14.8 18.7 12.2.9-.7.5-1.6 1.9-4.4 0 0 1.3-2.6 3.9-5.4 3.8-3.9 11.1-5.7 18.8-9 14.3-6.1 19.4-12.9 21-15.3.6-.8.9-1.5 1.2-1.9 5.4-9.2 8.7-23.9 6.3-33.8-4.1-16.7-22.6-13.4-33.1-31.4-12.1-20.8 2.7-42.2-5.4-46.7-9.1-5.1-36.3 15.7-41.8 40.7z" style="fill:#26264f"/><linearGradient id="SVGID_00000077282897924363322320000000910872416186190503_" x1="2924.365" x2="4474.604" y1="2047.329" y2="2103.497" gradientUnits="userSpaceOnUse"><stop offset="0" style="stop-color:#ffc444"/><stop offset=".996" style="stop-color:#f36f56"/></linearGradient><path d="M3134.1 2047.2c4.3-3.8 9.2 1.8 7.9 7.7-1.3 5.9-8.4 10.7-13.6 8.3-5.3-2.4-.1-10.8 5.7-16z" style="fill:url(#SVGID_00000077282897924363322320000000910872416186190503_)"/><linearGradient id="SVGID_00000021084350849434342720000005403144471572920961_" x1="-860.602" x2="-860.602" y1="5142.033" y2="4831.865" gradientTransform="scale(-1 1) rotate(39.042 278.39 394.506)" gradientUnits="userSpaceOnUse"><stop offset="0" style="stop-color:#ffc444"/><stop offset=".996" style="stop-color:#f36f56"/></linearGradient><path d="m3550.1 3323.9 17 13.6 11.5-12.5-15.7-15.2c-3.1-3-7.9-3.2-11.3-.5l-1.6 1.3c-4.1 3.5-4.1 9.9.1 13.3z" style="fill:url(#SVGID_00000021084350849434342720000005403144471572920961_)"/><linearGradient id="SVGID_00000107551149831951753410000006216403863903012760_" x1="-835.932" x2="-894.486" y1="5153.76" y2="4960.692" gradientTransform="scale(-1 1) rotate(39.042 278.39 394.506)" gradientUnits="userSpaceOnUse"><stop offset="0" style="stop-color:#444b8c"/><stop offset=".996" style="stop-color:#26264f"/></linearGradient><path d="M3582 3347.9c.4-12.6 6.6-16.4 3.7-22.5-2.3-4.8-8.8-7.8-14-6.8-7.4 1.5-10.5 10.7-11.2 12.8-4.8 14.2 5.8 22.1-.1 33.7-1.2 2.3-3.4 5.6-4.2 11-.3 2.3-1.2 7.9 1.2 9.5 2.8 1.7 8.6-2.9 14.1-7.4 6.6-5.4 9.9-8 11.5-12.6 2.3-6.2-1.3-8-1-17.7z" style="fill:url(#SVGID_00000107551149831951753410000006216403863903012760_)"/><linearGradient id="SVGID_00000149346582461075557830000014573667580255318714_" x1="2590.513" x2="3405.762" y1="2445.076" y2="2445.076" gradientUnits="userSpaceOnUse"><stop offset="0" style="stop-color:#aa80f9"/><stop offset=".996" style="stop-color:#6165d7"/></linearGradient><path d="M3229.8 2664.4c-67.5-30.3-141.8 40.6-164.2 16.8-25.5-27.1 77.1-111.7 67-227.9-5.9-67.8-50.4-149.9-117.3-174.3-69.7-25.5-124.4 26.1-181-13.4-30.3-21.2-19-39.1-53.6-73.7-59.2-59.3-122.8-37.4-157.5-77.1-12.5-14.3-22-37.4-18.5-77.3-9.8 22.1-16.6 48.7-13.5 77.8 10.7 100.4 131.5 161.4 187.4 189.7 85.4 43.2 113.9 28.1 141.7 66.3 31.6 43.5 9.6 83.8 2.3 235.4-8.5 177.4 17.7 204.8 32 214.8 24.3 17 45.2 5.8 104.4 1.1 170-13.6 235.3 60.2 313.3 16 13.6-7.7 24.4-17.3 33.5-28.2-43.5-.3-70.8-12.7-88.8-28.6-41.5-36.8-35.8-94.4-87.2-117.4z" style="opacity:.3;fill:url(#SVGID_00000149346582461075557830000014573667580255318714_)"/></g></svg>