<svg xmlns="http://www.w3.org/2000/svg" xmlns:xlink="http://www.w3.org/1999/xlink" xml:space="preserve" style="enable-background:new 0 0 3710 3710" viewBox="0 0 3710 3710"><style>.st1{fill:#fcfdfe}.st38{fill:#f4f7fa}.st43{fill:#fff}</style><g id="Illustration"><defs><path id="SVGID_1_" d="M1518.3 3235c31.9 1.8 103-22.6 118.9-36.6 105.9-93 315.4-254.4 333.9-402.2 3.2-25.2-104.1-69.2-115.5-95-61.6-44.6-85.8-56.3-123.5-127.4-111.4-210.1 284.2-492.4-79.4-685-266.3-141-523.2-88-411.2-521.2C1353.4 934.4 1153.9 69.9 633.6 290 335 416.3 535.7 839.7 347.7 1089.6c-178.6 237.5-107.7 473.4 141 682 248.8 208.6 77.9 301.7-49.1 535.3-152.5 280.6 297.1 418.8 510.1 465 171.5 37.1 583.2 247.4 568.6 463.1z"/></defs><linearGradient id="SVGID_00000152223868522619653530000009025342679378334124_" x1="833.573" x2="1735.586" y1="334.307" y2="6100.762" gradientUnits="userSpaceOnUse"><stop offset="0" style="stop-color:#ff9085"/><stop offset="1" style="stop-color:#fb6fbb"/></linearGradient><use xlink:href="#SVGID_1_" style="overflow:visible;fill:url(#SVGID_00000152223868522619653530000009025342679378334124_)"/><clipPath id="SVGID_00000003079750032331696730000007217979464979016597_"><use xlink:href="#SVGID_1_" style="overflow:visible"/></clipPath><g style="clip-path:url(#SVGID_00000003079750032331696730000007217979464979016597_)"><path d="m1797.9 3009.2 4-5.5C959.5 2380.3 578.2 1324.6 782 179.7l-6.7-1.2c-96.6 542.6-59.7 1085.8 106.6 1571 174.8 510 491.6 945.6 916 1259.7z" class="st1"/><path d="M362.9 2416.3c284.1-38.1 732.5 42.7 999.5 180.1l3.1-6c-268-138-718.2-219.1-1003.5-180.8l.9 6.7zM1633.9 2884.9l5.4-4.1c-94.8-124-123.3-291.1-84.7-496.8 28.3-150.8 91.4-318.5 187.5-498.3l-6-3.2c-96.4 180.4-159.7 348.7-188.2 500.2-38.9 207.7-10 376.6 86 502.2zM861 1679.7l5.6-3.9C699.9 1433 410.4 1322.5 197 1272.6l-1.5 6.6c212.2 49.7 500 159.4 665.5 400.5zM731.2 1017.9l6.8.8c36.9-329.8 277.4-581.9 417.5-702.7l-4.4-5.2c-140.9 121.5-382.8 374.9-419.9 707.1z" class="st1"/></g><defs><path id="SVGID_00000150800089339040780240000007614997598105631125_" d="M1616.9 3386.9c-31.5-5.5-95.3-45.2-107.6-62.5-82.1-114.5-249.8-319-234.5-467.2 2.6-25.3 117.1-43.9 134-66.5 70.1-29.5 96.2-35.4 149.1-96.3 156-179.6-165.6-543.8 232-649.4 291.2-77.3 529.5 32.4 518.3-414.9-11.2-447.3 378.3-1244.4 835.5-912.5 262.4 190.5-28.7 557.6 98 843.5 120.4 271.7-1.9 485.5-291.4 632.6-289.4 147.1-144 276.4-73.1 532.6 85.2 307.8-384 341-601.9 337.8-175.4-2.5-623.9 109.4-658.4 322.8z"/></defs><linearGradient id="SVGID_00000042717055113618910190000007293865619153229228_" x1="1273.852" x2="3287.694" y1="2012.947" y2="2012.947" gradientUnits="userSpaceOnUse"><stop offset="0" style="stop-color:#fcb148"/><stop offset=".052" style="stop-color:#fdba46"/><stop offset=".142" style="stop-color:#ffc244"/><stop offset=".318" style="stop-color:#ffc444"/><stop offset=".485" style="stop-color:#fdb946"/><stop offset=".775" style="stop-color:#f99c4d"/><stop offset=".866" style="stop-color:#f8924f"/><stop offset="1" style="stop-color:#f8924f"/></linearGradient><use xlink:href="#SVGID_00000150800089339040780240000007614997598105631125_" style="overflow:visible;fill:url(#SVGID_00000042717055113618910190000007293865619153229228_)"/><clipPath id="SVGID_00000126296063691810254700000014447679522226522814_"><use xlink:href="#SVGID_00000150800089339040780240000007614997598105631125_" style="overflow:visible"/></clipPath><g style="clip-path:url(#SVGID_00000126296063691810254700000014447679522226522814_)"><path d="m1395.5 3103.8-2.7-6.2C2354.2 2680.4 2964 1738.1 3023.9 576.7l6.8.3c-28.4 550.4-186.9 1071.3-458.5 1506.3-285.4 457.5-692.3 810.4-1176.7 1020.5z" class="st1"/><path d="M2927.3 2850.2c-268.2-101.3-723.2-123.8-1014.3-50.2l-1.7-6.6c292.3-73.9 749.1-51.3 1018.4 50.4l-2.4 6.4zM1583.3 3019.8l-4.3-5.2c120.4-99.4 185.9-255.8 194.7-464.9 6.5-153.3-17.1-330.9-70.1-527.7l6.6-1.8c53.2 197.5 76.9 375.8 70.4 529.8-9.1 211-75.4 369.1-197.3 469.8zM2608.4 2020.2l-4.6-5c217.3-199 524.2-241.2 743.4-241.6v6.8c-218 .3-523.2 42.3-738.8 239.8zM2884.2 1404.7l-6.8-.8c38.6-329.6-138.9-629.5-248-778.8l5.5-4c109.8 150.2 288.1 451.7 249.3 783.6z" class="st1"/></g><linearGradient id="SVGID_00000025403283835607972610000009320578422914501566_" x1="782.094" x2="980.712" y1="675.088" y2="851.411" gradientUnits="userSpaceOnUse"><stop offset="0" style="stop-color:#40447e"/><stop offset=".996" style="stop-color:#3c3b6b"/></linearGradient><path d="m932.6 766.2 149.4-10 7.8 158.7H843.5l53.6-121.6a46.01 46.01 0 0 1 35.5-27.1z" style="fill:url(#SVGID_00000025403283835607972610000009320578422914501566_)"/><linearGradient id="SVGID_00000029725232058790706460000004808569439927696516_" x1="1004.672" x2="2431.475" y1="854.588" y2="854.588" gradientUnits="userSpaceOnUse"><stop offset="0" style="stop-color:#40447e"/><stop offset=".996" style="stop-color:#3c3b6b"/></linearGradient><path d="M1059.8 775.4c5.7-13 18.7-21.2 32.9-20.6l1233.2 49.5c16.4.7 31.3 10 39 24.5l66.6 125.5-1426.8-52.7 55.1-126.2z" style="fill:url(#SVGID_00000029725232058790706460000004808569439927696516_)"/><linearGradient id="SVGID_00000133519374473192797770000003466543618777228725_" x1="-157.194" x2="471.214" y1="2203.298" y2="2203.298" gradientUnits="userSpaceOnUse"><stop offset="0" style="stop-color:#aa80f9"/><stop offset=".996" style="stop-color:#6165d7"/></linearGradient><path d="M614.4 998.6v2383c0 52.7 36.2 98.6 87.5 110.8l258.1 61.3L1242.8 1608 968.2 853l-254.5 32.7c-56.8 7.2-99.3 55.6-99.3 112.9z" style="fill:url(#SVGID_00000133519374473192797770000003466543618777228725_)"/><linearGradient id="SVGID_00000027566583304628232230000013456358286151346828_" x1="1621.735" x2="1974.208" y1="1583.08" y2="3316.874" gradientUnits="userSpaceOnUse"><stop offset="0" style="stop-color:#aa80f9"/><stop offset=".996" style="stop-color:#6165d7"/></linearGradient><path d="M888 952.1V3453c0 57.6 48.9 103.1 120.8 131.9l1534.7-111.4c37.4-36.8 77.5-79.9 77.5-131.9v-2322c0-53.1-41.8-96.7-94.8-99.1L991.5 853.1c-56.4-2.5-103.5 42.6-103.5 99z" style="fill:url(#SVGID_00000027566583304628232230000013456358286151346828_)"/><linearGradient id="SVGID_00000034768496037826525320000016300107899435918759_" x1="729.04" x2="843.541" y1="2195.68" y2="2195.68" gradientUnits="userSpaceOnUse"><stop offset="0" style="stop-color:#311944"/><stop offset="1" style="stop-color:#893976"/></linearGradient><path d="M771.6 3429V973.4c0-42.6 32.1-85.7 71.9-104.4l-45.6 5.9c-40.6 14.9-68.9 53.7-68.9 98.6V3429c0 30.6 13.2 58.6 34.7 78l64.7 15.4c-34.2-17.7-56.8-53.4-56.8-93.4z" style="fill:url(#SVGID_00000034768496037826525320000016300107899435918759_)"/><linearGradient id="SVGID_00000070082284462675248460000004296693796022051974_" x1="1242.988" x2="2621.062" y1="2157.159" y2="2157.159" gradientUnits="userSpaceOnUse"><stop offset="0" style="stop-color:#aa80f9"/><stop offset=".996" style="stop-color:#6165d7"/></linearGradient><path d="M2526.2 920.5 1243 864.1c.4 15.3 1.4 30.9 3.3 46.7 34.5 287 302.3 332.9 405.3 652.6 94.5 292.9-95.5 362.5 16.2 620.2 104.7 241.4 300.2 246.5 417.5 551.3 51.5 133.7 25.5 163.1 68.9 304 37.1 120.5 106.7 262.8 241.9 411.4l133-9.6c51.8-3.8 92-46.9 92-98.9v-2322c0-53.3-41.8-96.9-94.9-99.3z" style="fill:url(#SVGID_00000070082284462675248460000004296693796022051974_)"/><linearGradient id="SVGID_00000160895190319881329740000008430860550157539002_" x1="2292.248" x2="1586.953" y1="1481.204" y2="1572.407" gradientUnits="userSpaceOnUse"><stop offset="0" style="stop-color:#311944"/><stop offset="1" style="stop-color:#893976"/></linearGradient><path d="M1124.2 1209.6v676.3c0 48 38.9 86.9 86.9 86.9h1133.4c48 0 86.9-38.9 86.9-86.9v-623.6c0-46.4-36.5-84.7-82.9-86.8l-1133.4-52.7c-49.4-2.3-90.9 37.2-90.9 86.8z" style="fill:url(#SVGID_00000160895190319881329740000008430860550157539002_)"/><path d="M2392.2 1885.9v-623.6c0-46.4-36.5-84.7-82.9-86.8l-1111.9-51.7c-41.3 6.6-73.1 42.3-73.1 85.8v676.3c0 48 38.9 86.9 86.9 86.9h1094.1c48 0 86.9-38.9 86.9-86.9z" style="fill:#d8dee8"/><path d="M1989.7 1268.1v40.8c0 17.6 14 32.1 31.6 32.8l266.8 9.8c18.6.7 34-14.2 34-32.8v-40.8c0-17.6-14-32.1-31.6-32.8l-266.8-9.8c-18.6-.7-34 14.2-34 32.8z" style="opacity:.7;fill:#f4f7fa"/><linearGradient id="SVGID_00000164483736414483931270000015191062282204143263_" x1="2681.207" x2="2466.376" y1="859.623" y2="1062.294" gradientUnits="userSpaceOnUse"><stop offset="0" style="stop-color:#ff9085"/><stop offset="1" style="stop-color:#fb6fbb"/></linearGradient><path d="M2520.7 1044.6c0 22.9-15.9 41.5-35.5 41.5s-35.5-18.6-35.5-41.5 15.9-41.5 35.5-41.5c19.6-.1 35.5 18.5 35.5 41.5z" style="fill:url(#SVGID_00000164483736414483931270000015191062282204143263_)"/><linearGradient id="SVGID_00000021082939168178786520000000262707568666195090_" x1="2031.45" x2="2084.144" y1="3366.048" y2="3544.398" gradientUnits="userSpaceOnUse"><stop offset="0" style="stop-color:#311944"/><stop offset="1" style="stop-color:#893976"/></linearGradient><path d="m1993.4 2600.2-1.3-100.8c-.5-35.1-29.3-63.3-64.5-62.8l-274.9 3.6c-35.1.5-63.3 29.3-62.8 64.5l1.4 105c.5 35.5 29.9 63.8 65.4 62.8l274.8-7.8c34.9-1 62.4-29.7 61.9-64.5z" style="fill:url(#SVGID_00000021082939168178786520000000262707568666195090_)"/><linearGradient id="SVGID_00000084520520589462920440000009528147558764555413_" x1="2107.182" x2="2159.876" y1="3343.674" y2="3522.024" gradientUnits="userSpaceOnUse"><stop offset="0" style="stop-color:#311944"/><stop offset="1" style="stop-color:#893976"/></linearGradient><path d="m1585.9 2198.4 1.7 130.4c.5 35.1 29.3 63.3 64.5 62.8l274.9-3.6c35.1-.5 63.3-29.3 62.8-64.5l-1.7-126.8c-.5-34.8-28.8-62.8-63.6-62.8h-274.9c-35.6 0-64.2 29-63.7 64.5z" style="fill:url(#SVGID_00000084520520589462920440000009528147558764555413_)"/><linearGradient id="SVGID_00000114039629341965105510000007739079677781477255_" x1="2443.304" x2="2495.998" y1="3244.366" y2="3422.717" gradientUnits="userSpaceOnUse"><stop offset="0" style="stop-color:#311944"/><stop offset="1" style="stop-color:#893976"/></linearGradient><path d="M2042 2596.9c.5 35.5 29.9 63.8 65.4 62.8l280.5-8c23.9-.7 42.9-20.2 43.1-44.1.2-46.2.5-113.2.5-113.2 0-35.5-29-64.1-64.5-63.6l-263.5 3.5c-35.1.5-63.3 29.3-62.8 64.5l1.3 98.1z" style="fill:url(#SVGID_00000114039629341965105510000007739079677781477255_)"/><linearGradient id="SVGID_00000181783080503745854600000008089682210849891769_" x1="1959.106" x2="2011.8" y1="3387.425" y2="3565.775" gradientUnits="userSpaceOnUse"><stop offset="0" style="stop-color:#311944"/><stop offset="1" style="stop-color:#893976"/></linearGradient><path d="m1593.7 2785.7 1.4 104.8c.5 35.9 30.5 64.3 66.4 62.7l274.8-12c34.4-1.5 61.3-30 60.9-64.4l-1.3-100.7c-.5-35.5-29.9-63.8-65.4-62.8l-274.8 7.8c-35 1.1-62.5 29.8-62 64.6z" style="fill:url(#SVGID_00000181783080503745854600000008089682210849891769_)"/><linearGradient id="SVGID_00000166636847603795067300000018445245721581697718_" x1="1606.744" x2="1659.438" y1="3491.53" y2="3669.88" gradientUnits="userSpaceOnUse"><stop offset="0" style="stop-color:#311944"/><stop offset="1" style="stop-color:#893976"/></linearGradient><path d="M1124.2 2622.2c0 35.9 29.6 64.6 65.5 63.6l291.2-8.3c34.8-1 62.3-29.7 61.8-64.5l-1.4-107.7c-.5-35.1-29.3-63.3-64.5-62.8l-304.2 4c-26.7.4-48.1 22-48.2 48.7-.1 51.9-.2 127-.2 127z" style="fill:url(#SVGID_00000166636847603795067300000018445245721581697718_)"/><linearGradient id="SVGID_00000109725081935213211310000003398945745159676041_" x1="1883.246" x2="1935.94" y1="3409.836" y2="3588.187" gradientUnits="userSpaceOnUse"><stop offset="0" style="stop-color:#311944"/><stop offset="1" style="stop-color:#893976"/></linearGradient><path d="m2001.1 3179.5-1.7-126.7c-.5-35.9-30.5-64.3-66.4-62.7l-274.8 12c-34.4 1.5-61.3 30-60.9 64.4l1.8 132c.5 36.4 31.3 65 67.6 62.7l274.7-17.2c33.9-2.2 60.2-30.5 59.7-64.5z" style="fill:url(#SVGID_00000109725081935213211310000003398945745159676041_)"/><linearGradient id="SVGID_00000130606293819009109280000007082654901276305071_" x1="1450.922" x2="1503.617" y1="3537.567" y2="3715.918" gradientUnits="userSpaceOnUse"><stop offset="0" style="stop-color:#311944"/><stop offset="1" style="stop-color:#893976"/></linearGradient><path d="M1548.8 3072.5c-.5-35.9-30.5-64.3-66.4-62.7l-310.7 13.6c-26 1.1-46.5 22.5-46.7 48.5-.3 59.7-.8 155.6-.8 155.6 0 36.7 31 65.8 67.6 63.5l299.1-18.8c33.9-2.1 60.1-30.4 59.6-64.4l-1.7-135.3z" style="fill:url(#SVGID_00000130606293819009109280000007082654901276305071_)"/><linearGradient id="SVGID_00000082332426541104758550000015807812989777551788_" x1="1685.938" x2="1738.632" y1="3468.13" y2="3646.48" gradientUnits="userSpaceOnUse"><stop offset="0" style="stop-color:#311944"/><stop offset="1" style="stop-color:#893976"/></linearGradient><path d="m1539 2329.5-1.8-132.8c-.5-34.8-28.8-62.8-63.6-62.8h-285.7c-35.1 0-63.6 28.5-63.6 63.6v136.6c0 35.5 29 64.1 64.5 63.6l287.4-3.8c35.1-.4 63.2-29.3 62.8-64.4z" style="fill:url(#SVGID_00000082332426541104758550000015807812989777551788_)"/><linearGradient id="SVGID_00000021802846584212947350000007686478270749975683_" x1="2295.498" x2="2348.192" y1="3288.034" y2="3466.385" gradientUnits="userSpaceOnUse"><stop offset="0" style="stop-color:#311944"/><stop offset="1" style="stop-color:#893976"/></linearGradient><path d="m2048 3046.8 1.6 123.4c.5 36.4 31.3 65 67.6 62.7l254.6-16c33.5-2.1 59.7-29.9 59.7-63.5v-118.6c0-36.2-30.2-65.2-66.4-63.6l-256.2 11.2c-34.4 1.5-61.4 30-60.9 64.4z" style="fill:url(#SVGID_00000021802846584212947350000007686478270749975683_)"/><linearGradient id="SVGID_00000121969729515049368980000000488321621104139675_" x1="2371.052" x2="2423.747" y1="3265.711" y2="3444.061" gradientUnits="userSpaceOnUse"><stop offset="0" style="stop-color:#311944"/><stop offset="1" style="stop-color:#893976"/></linearGradient><path d="M2431.5 2764.6c0-35.9-29.6-64.6-65.5-63.6l-259.8 7.4c-34.8 1-62.3 29.7-61.8 64.5l1.3 98c.5 35.9 30.5 64.3 66.4 62.7l276.3-12.1c23.6-1 42.2-20.3 42.4-43.9.3-46.1.7-113 .7-113z" style="fill:url(#SVGID_00000121969729515049368980000000488321621104139675_)"/><linearGradient id="SVGID_00000054241512811518887590000002397495648957038012_" x1="2519.2" x2="2571.895" y1="3221.94" y2="3400.29" gradientUnits="userSpaceOnUse"><stop offset="0" style="stop-color:#311944"/><stop offset="1" style="stop-color:#893976"/></linearGradient><path d="M2038.4 2322.9c.5 35.1 29.3 63.3 64.5 62.8l284.7-3.8c24.2-.3 43.7-20 43.7-44.2.1-54.3.2-140.1.2-140.1 0-35.1-28.5-63.6-63.6-63.6h-267.5c-35.5 0-64.1 29-63.6 64.5l1.6 124.4z" style="fill:url(#SVGID_00000054241512811518887590000002397495648957038012_)"/><linearGradient id="SVGID_00000160188039278754330410000007915968533855406995_" x1="1530.808" x2="1583.502" y1="3513.967" y2="3692.317" gradientUnits="userSpaceOnUse"><stop offset="0" style="stop-color:#311944"/><stop offset="1" style="stop-color:#893976"/></linearGradient><path d="M1545.1 2789c-.5-35.5-29.9-63.8-65.4-62.8l-307.5 8.8c-26.3.8-47.3 22.2-47.4 48.6-.2 51.5-.5 126.7-.5 126.7 0 36.2 30.2 65.2 66.4 63.6l294.9-12.9c34.4-1.5 61.3-30 60.9-64.4l-1.4-107.6z" style="fill:url(#SVGID_00000160188039278754330410000007915968533855406995_)"/><linearGradient id="SVGID_00000075853256017071096680000011913517522913937086_" x1="2221.989" x2="924.894" y1="2091.435" y2="3558.772" gradientUnits="userSpaceOnUse"><stop offset="0" style="stop-color:#40447e"/><stop offset=".996" style="stop-color:#3c3b6b"/></linearGradient><path d="m2014.8 2601.8-1.3-100.8c-.5-35.1-29.3-63.3-64.5-62.8l-274.9 3.6c-35.1.5-63.3 29.3-62.8 64.5l1.4 105c.5 35.5 29.9 63.8 65.4 62.8l274.8-7.8c34.8-1.1 62.4-29.8 61.9-64.5z" style="fill:url(#SVGID_00000075853256017071096680000011913517522913937086_)"/><linearGradient id="SVGID_00000039129104883189337650000005851975043238000519_" x1="2075.146" x2="778.051" y1="1961.629" y2="3428.966" gradientUnits="userSpaceOnUse"><stop offset="0" style="stop-color:#40447e"/><stop offset=".996" style="stop-color:#3c3b6b"/></linearGradient><path d="m1607.2 2199.9 1.7 130.4c.5 35.1 29.3 63.3 64.5 62.8l274.9-3.6c35.1-.5 63.3-29.3 62.8-64.5l-1.7-126.8c-.5-34.8-28.8-62.8-63.6-62.8h-274.9c-35.5.1-64.1 29.1-63.7 64.5z" style="fill:url(#SVGID_00000039129104883189337650000005851975043238000519_)"/><linearGradient id="SVGID_00000070092277558598672330000014704252315949383868_" x1="2469.596" x2="1172.502" y1="2310.315" y2="3777.651" gradientUnits="userSpaceOnUse"><stop offset="0" style="stop-color:#40447e"/><stop offset=".996" style="stop-color:#3c3b6b"/></linearGradient><path d="M2063.4 2598.5c.5 35.5 29.9 63.8 65.4 62.8l280.5-8c23.9-.7 42.9-20.2 43.1-44.1.2-46.2.5-113.2.5-113.2 0-35.5-29-64.1-64.5-63.6l-263.5 3.5c-35.1.5-63.3 29.3-62.8 64.5l1.3 98.1z" style="fill:url(#SVGID_00000070092277558598672330000014704252315949383868_)"/><linearGradient id="SVGID_00000080909055862654455970000011734481424818962574_" x1="2362.393" x2="1065.298" y1="2215.551" y2="3682.888" gradientUnits="userSpaceOnUse"><stop offset="0" style="stop-color:#40447e"/><stop offset=".996" style="stop-color:#3c3b6b"/></linearGradient><path d="m1615 2787.2 1.4 104.8c.5 35.9 30.5 64.3 66.4 62.7l274.8-12c34.4-1.5 61.3-30 60.9-64.4l-1.3-100.7c-.5-35.5-29.9-63.8-65.4-62.8l-274.8 7.8c-34.9 1.2-62.4 29.9-62 64.6z" style="fill:url(#SVGID_00000080909055862654455970000011734481424818962574_)"/><linearGradient id="SVGID_00000005971885401273955870000011322144754404908217_" x1="1967.313" x2="670.218" y1="1866.307" y2="3333.644" gradientUnits="userSpaceOnUse"><stop offset="0" style="stop-color:#40447e"/><stop offset=".996" style="stop-color:#3c3b6b"/></linearGradient><path d="M1145.6 2623.8c0 35.9 29.6 64.6 65.5 63.6l291.2-8.3c34.8-1 62.3-29.7 61.8-64.5l-1.4-107.7c-.5-35.1-29.3-63.3-64.5-62.8l-304.2 4c-26.7.4-48.1 22-48.2 48.7-.1 51.9-.2 127-.2 127z" style="fill:url(#SVGID_00000005971885401273955870000011322144754404908217_)"/><linearGradient id="SVGID_00000088819023507937081630000002393528741169887642_" x1="2509.352" x2="1212.259" y1="2345.458" y2="3812.793" gradientUnits="userSpaceOnUse"><stop offset="0" style="stop-color:#40447e"/><stop offset=".996" style="stop-color:#3c3b6b"/></linearGradient><path d="m2022.5 3181.1-1.7-126.7c-.5-35.9-30.5-64.3-66.4-62.7l-274.8 12c-34.4 1.5-61.3 30-60.9 64.4l1.8 132c.5 36.4 31.3 65 67.6 62.7l274.7-17.2c33.9-2.3 60.2-30.6 59.7-64.5z" style="fill:url(#SVGID_00000088819023507937081630000002393528741169887642_)"/><linearGradient id="SVGID_00000101066049096551371770000015411071526137273473_" x1="2260.344" x2="963.248" y1="2125.339" y2="3592.677" gradientUnits="userSpaceOnUse"><stop offset="0" style="stop-color:#40447e"/><stop offset=".996" style="stop-color:#3c3b6b"/></linearGradient><path d="M1570.2 3074.1c-.5-35.9-30.5-64.3-66.4-62.7l-310.7 13.6c-26 1.1-46.5 22.5-46.7 48.5-.3 59.7-.8 155.6-.8 155.6 0 36.7 31 65.8 67.6 63.5l299.1-18.8c33.9-2.1 60.1-30.4 59.6-64.4l-1.7-135.3z" style="fill:url(#SVGID_00000101066049096551371770000015411071526137273473_)"/><linearGradient id="SVGID_00000040543514502199947460000003316849323982169497_" x1="1820.542" x2="523.448" y1="1736.565" y2="3203.901" gradientUnits="userSpaceOnUse"><stop offset="0" style="stop-color:#40447e"/><stop offset=".996" style="stop-color:#3c3b6b"/></linearGradient><path d="m1560.3 2331-1.8-132.8c-.5-34.8-28.8-62.8-63.6-62.8h-285.7c-35.1 0-63.6 28.5-63.6 63.6v136.6c0 35.5 29 64.1 64.5 63.6l287.4-3.8c35.2-.4 63.3-29.2 62.8-64.4z" style="fill:url(#SVGID_00000040543514502199947460000003316849323982169497_)"/><linearGradient id="SVGID_00000055685814972338004050000018077322196145542016_" x1="2745.029" x2="1447.934" y1="2553.791" y2="4021.128" gradientUnits="userSpaceOnUse"><stop offset="0" style="stop-color:#40447e"/><stop offset=".996" style="stop-color:#3c3b6b"/></linearGradient><path d="m2069.4 3048.4 1.6 123.4c.5 36.4 31.3 65 67.6 62.7l254.6-16c33.5-2.1 59.7-29.9 59.7-63.5v-118.6c0-36.2-30.2-65.2-66.4-63.6l-256.2 11.2c-34.4 1.4-61.4 30-60.9 64.4z" style="fill:url(#SVGID_00000055685814972338004050000018077322196145542016_)"/><linearGradient id="SVGID_00000084513322884304435480000005668355514414955912_" x1="2605.503" x2="1308.408" y1="2430.453" y2="3897.79" gradientUnits="userSpaceOnUse"><stop offset="0" style="stop-color:#40447e"/><stop offset=".996" style="stop-color:#3c3b6b"/></linearGradient><path d="M2452.9 2766.1c0-35.9-29.6-64.6-65.5-63.6l-259.8 7.4c-34.8 1-62.3 29.7-61.8 64.5l1.3 98c.5 35.9 30.5 64.3 66.4 62.7l276.3-12.1c23.6-1 42.2-20.3 42.4-43.9.3-46 .7-113 .7-113z" style="fill:url(#SVGID_00000084513322884304435480000005668355514414955912_)"/><linearGradient id="SVGID_00000152952982331795563130000004066613177452524698_" x1="2327.087" x2="1029.993" y1="2184.341" y2="3651.677" gradientUnits="userSpaceOnUse"><stop offset="0" style="stop-color:#40447e"/><stop offset=".996" style="stop-color:#3c3b6b"/></linearGradient><path d="M2059.8 2324.4c.5 35.1 29.3 63.3 64.5 62.8l284.7-3.8c24.2-.3 43.7-20 43.7-44.2.1-54.3.2-140.1.2-140.1 0-35.1-28.5-63.6-63.6-63.6h-267.5c-35.5 0-64.1 29-63.6 64.5l1.6 124.4z" style="fill:url(#SVGID_00000152952982331795563130000004066613177452524698_)"/><linearGradient id="SVGID_00000180346692925734123900000002598462222078165149_" x1="2110.318" x2="813.224" y1="1992.722" y2="3460.058" gradientUnits="userSpaceOnUse"><stop offset="0" style="stop-color:#40447e"/><stop offset=".996" style="stop-color:#3c3b6b"/></linearGradient><path d="M1566.4 2790.5c-.5-35.5-29.9-63.8-65.4-62.8l-307.5 8.8c-26.3.7-47.3 22.2-47.4 48.6-.2 51.5-.5 126.7-.5 126.7 0 36.2 30.2 65.2 66.4 63.6l294.9-12.9c34.4-1.5 61.3-30 60.9-64.4l-1.4-107.6z" style="fill:url(#SVGID_00000180346692925734123900000002598462222078165149_)"/><g style="opacity:.3"><path d="M2389.2 2135.5h-267.5c-35.5 0-64.1 29-63.6 64.5l1.7 124.5c.5 35.1 29.3 63.3 64.5 62.8l284.7-3.8c24.2-.3 43.7-20 43.7-44.2.1-54.3.2-140.1.2-140.1 0-35.3-28.5-63.7-63.7-63.7zM2388.4 2432.3l-263.5 3.5c-35.1.5-63.3 29.3-62.8 64.5l1.3 98.1c.5 35.5 29.9 63.8 65.4 62.8l280.5-8c23.9-.7 42.9-20.2 43.1-44.1.2-46.2.5-113.2.5-113.2 0-35.4-29.1-64-64.5-63.6zM2452.9 3154.9v-118.6c0-36.2-30.2-65.2-66.4-63.6l-247.2 10.8c3.8 16.5 8.7 34.7 15 55.3 18.1 58.6 43.8 122.4 81 189.5l157.9-9.9c33.5-2.1 59.7-29.9 59.7-63.5zM2129.8 2935.1c1.2 0 2.5.1 3.7 0l276.3-12.1c23.6-1 42.2-20.3 42.4-43.9.3-46 .7-113 .7-113 0-35.9-29.6-64.6-65.5-63.6l-259.8 7.4c-17.5.5-33.1 8-44.3 19.7.7 1.7 1.4 3.4 2 5.2 35.8 93 34.2 135.6 44.5 200.3zM1949 2438.2l-73.1 1c47.5 43.2 95.4 90 138.8 156.2l-1.3-94.3c-.4-35.3-29.3-63.4-64.4-62.9zM2011.1 2325l-1.7-126.8c-.5-34.8-28.8-62.8-63.6-62.8h-274.9c-7 0-13.8 1.2-20.1 3.3 4.7 14.3 10.3 29.2 17.1 44.8 41.1 94.9 96.3 153.2 155.2 207.6l125.3-1.7c35.1-.3 63.2-29.2 62.7-64.4z" class="st38"/></g><path d="M2344.6 1972.8c48 0 86.9-38.9 86.9-86.9v-623.6c0-46.4-36.5-84.7-82.9-86.8l-1011.1-47c97.3 126.4 243.9 217.2 314.1 434.9 62.9 195-.2 291-16.6 409.4h709.6z" style="opacity:.4;fill:#fff"/><linearGradient id="SVGID_00000054252866859937985230000014980887189392248449_" x1="1730.178" x2="2927.469" y1="1046.547" y2="1046.547" gradientUnits="userSpaceOnUse"><stop offset="0" style="stop-color:#aa80f9"/><stop offset=".996" style="stop-color:#6165d7"/></linearGradient><path d="M2377.3 1070v2.4c0 21-18.1 37.2-39.1 36.3l-1122-48.2c-19.9-.9-36.2-18.1-36.2-38.5v-2.4c0-20.4 15.8-36.3 35.7-35.4l1122.7 46.2c20.9.9 38.9 18.6 38.9 39.6z" style="fill:url(#SVGID_00000054252866859937985230000014980887189392248449_)"/><linearGradient id="SVGID_00000177465924530328685980000004252001237169044651_" x1="1180.03" x2="2349.69" y1="1046.023" y2="1046.023" gradientUnits="userSpaceOnUse"><stop offset="0" style="stop-color:#40447e"/><stop offset=".996" style="stop-color:#3c3b6b"/></linearGradient><path d="M2349.7 1069v2.4c0 20.9-16.5 37.2-37.4 36.3l-1096.4-47.1c-19.8-.9-35.8-18.1-35.8-38.5v-2.4c0-20.4 15.8-36.3 35.7-35.4l1096.2 45.2c20.8.8 37.7 18.6 37.7 39.5z" style="fill:url(#SVGID_00000177465924530328685980000004252001237169044651_)"/><path d="m2356.8 121.2-33.4 853.2-1.9 48.3c-1.9 48.7-41 84.6-89.4 82.5l-1036.7-46.9c56.4-6.2 59.4-56.5 59.4-56.5s2.4-882.5 2.4-912.9l72.2 80 54.7-60.2 57.3 63.2 20.6-22.4 35.3-38.4 58 63.8 57.1-61.3 58.8 64.4 58.4-61.8 59.6 64.9 59.6-62.3 60.5 65.5 61-62.9 61.3 66.1 62.3-63.4 62.2 66.7 63.7-64 63.1 67.3 73.9-72.9z" style="fill:#bfc8d6"/><path d="m2366.3 121.2-33.4 853.2-1.9 48.3c-1.9 48.7-41 84.6-89.4 82.5l-1036.7-46.9c56.4-6.2 59.4-56.5 59.4-56.5s2.4-882.5 2.4-912.9l72.2 80 54.7-60.2 57.3 63.2 20.6-22.4 35.3-38.4 58 63.8 57.1-61.3 58.8 64.4 58.4-61.8 59.6 64.9 59.6-62.3 60.5 65.5 61-62.9 61.3 66.1 62.3-63.4 62.2 66.7 63.7-64 63.1 67.3 73.9-72.9z" class="st43"/><linearGradient id="SVGID_00000060745613055142016940000009978949535456342715_" x1="2141.632" x2="2156.8" y1="136.815" y2="1926.82" gradientUnits="userSpaceOnUse"><stop offset=".494" style="stop-color:#ebeff2"/><stop offset="1" style="stop-color:#fff"/></linearGradient><path d="m2216.2 640.4-138.7-5.5c-9.2-.4-16.7 6.8-17 16.3l-1.9 64.5c-.3 10.1 7.8 19 17.6 19.3l138.3 4.9c9.3.3 16.9-6.8 17.2-16.3l2.3-63.7c.4-10.2-7.7-19.1-17.8-19.5z" style="fill:url(#SVGID_00000060745613055142016940000009978949535456342715_)"/><linearGradient id="SVGID_00000068670094182898781860000003063458933507914664_" x1="2136.54" x2="2151.398" y1="149.722" y2="1903.227" gradientUnits="userSpaceOnUse"><stop offset=".494" style="stop-color:#ebeff2"/><stop offset="1" style="stop-color:#fff"/></linearGradient><path d="m2211.6 766.2-138.2-5.2c-9.1-.3-16.4 6.7-16.7 16l-2 66.7c-.3 10.1 7.8 18.9 17.7 19.3l137.7 5.2c9.2.3 16.7-6.7 17-16l2.4-66.5c.4-10.2-7.8-19.1-17.9-19.5z" style="fill:url(#SVGID_00000068670094182898781860000003063458933507914664_)"/><linearGradient id="SVGID_00000032629672058586006880000009850881525747246218_" x1="2153.597" x2="2169.021" y1="131.228" y2="1951.436" gradientUnits="userSpaceOnUse"><stop offset=".494" style="stop-color:#ebeff2"/><stop offset="1" style="stop-color:#fff"/></linearGradient><path d="m2241.1 459.3 4.2-119.1c.4-10.4-7.7-19.2-17.8-19.5l-140.3-3.6c-9.4-.2-17.1 7.3-17.4 17l-3.5 118.9c-.3 10.2 7.7 19 17.6 19.3l139.6 3.9c9.5.3 17.3-7.2 17.6-16.9z" style="fill:url(#SVGID_00000032629672058586006880000009850881525747246218_)"/><linearGradient id="SVGID_00000008131688508872902470000005615577964139681453_" x1="1664.274" x2="1678.938" y1="114.5" y2="1845.105" gradientUnits="userSpaceOnUse"><stop offset=".494" style="stop-color:#ebeff2"/><stop offset="1" style="stop-color:#fff"/></linearGradient><path d="m1931.1 629-525.9-20.9c-8.3-.3-15 6.5-15 15.5l-.5 69.1c-.1 9.6 7.4 18 16.3 18.3l524.3 18.6c8.9.3 16.1-6.7 16.4-16l1.7-65.6c.1-9.9-7.7-18.6-17.3-19z" style="fill:url(#SVGID_00000008131688508872902470000005615577964139681453_)"/><linearGradient id="SVGID_00000075874005699487750080000017822406259496998016_" x1="1661.403" x2="1675.371" y1="146.596" y2="1794.946" gradientUnits="userSpaceOnUse"><stop offset=".494" style="stop-color:#ebeff2"/><stop offset="1" style="stop-color:#fff"/></linearGradient><path d="M1927.7 755.6 1404 736c-8.2-.3-14.7 6.4-14.8 15.3l-.5 68.6c-.1 9.6 7.4 18 16.4 18.3l522 19.5c8.8.3 15.9-6.5 16.2-15.7l1.7-67.3c.3-10-7.6-18.8-17.3-19.1z" style="fill:url(#SVGID_00000075874005699487750080000017822406259496998016_)"/><linearGradient id="SVGID_00000165218724429622937470000004183660862176536448_" x1="1671.622" x2="1686.524" y1="110.298" y2="1868.851" gradientUnits="userSpaceOnUse"><stop offset=".494" style="stop-color:#ebeff2"/><stop offset="1" style="stop-color:#fff"/></linearGradient><path d="m1953.4 451.7 3.1-119.3c.3-10.2-7.6-18.8-17.3-19.1l-531.6-13.7c-8.5-.2-15.3 7-15.3 16.2l-.8 119.5c-.1 9.7 7.3 18.1 16.3 18.3l528.9 14.7c9 .2 16.4-7.1 16.7-16.6z" style="fill:url(#SVGID_00000165218724429622937470000004183660862176536448_)"/><linearGradient id="SVGID_00000014615820243242071340000003912147858694684573_" x1="1204.938" x2="2332.907" y1="597.144" y2="597.144" gradientUnits="userSpaceOnUse"><stop offset=".494" style="stop-color:#ebeff2"/><stop offset="1" style="stop-color:#fff"/></linearGradient><path d="m2332.9 974.4-1.9 48.3c-1.9 48.7-41 84.6-89.4 82.5l-1036.7-46.9c56.4-6.2 59.4-56.5 59.4-56.5s2.4-882.5 2.4-912.9l72.2 80 54.7-60.2 57.3 63.2 20.6-22.4c41 36.2 79.9 86 109.3 154.5 13.2 30.8 24.4 65.4 33 104.2 4 18.1 8.1 35.2 12.2 51.4 17.2 67.5 35.4 119.3 56.2 159.5 26.3 51 56.8 83.4 94 105.1 21.1 12.3 44.3 21.3 70.3 28.3 29.1 7.9 61.6 13.4 98.2 18.6 31.7 4.5 66.4 8.8 104.8 14.2 2.3.3 4.6.6 6.8 1 68.5 10.6 125.8 33.5 170.8 63.8 51.8 34.6 87.3 78.6 105.8 124.3z" style="opacity:.5;fill:url(#SVGID_00000014615820243242071340000003912147858694684573_)"/><g style="opacity:.7"><linearGradient id="SVGID_00000062193106918464152390000006435878720441486774_" x1="1690.923" x2="1806.142" y1="1821.173" y2="1821.173" gradientUnits="userSpaceOnUse"><stop offset="0" style="stop-color:#aa80f9"/><stop offset=".996" style="stop-color:#6165d7"/></linearGradient><circle cx="1748.5" cy="1821.2" r="57.6" style="fill:url(#SVGID_00000062193106918464152390000006435878720441486774_)"/><linearGradient id="SVGID_00000178885506060983231280000007520690559015015336_" x1="1419.735" x2="2077.331" y1="1432.107" y2="1432.107" gradientUnits="userSpaceOnUse"><stop offset="0" style="stop-color:#aa80f9"/><stop offset=".996" style="stop-color:#6165d7"/></linearGradient><path d="M1748.5 1338.3c-120.4 0-230.4 44.1-315 116.9-17.4 14.9-18.6 41.4-2.4 57.6l1.6 1.6c14.4 14.4 37.6 15.5 53 2.1 70.5-60.9 162.3-97.8 262.8-97.8s192.3 36.9 262.8 97.8c15.4 13.3 38.6 12.3 53-2.1l1.6-1.6c16.2-16.2 15-42.6-2.4-57.6-84.5-72.8-194.6-116.9-315-116.9z" style="fill:url(#SVGID_00000178885506060983231280000007520690559015015336_)"/><linearGradient id="SVGID_00000025407608197444443510000005823428679077719699_" x1="1514.899" x2="1982.166" y1="1546.059" y2="1546.059" gradientUnits="userSpaceOnUse"><stop offset="0" style="stop-color:#aa80f9"/><stop offset=".996" style="stop-color:#6165d7"/></linearGradient><path d="M1748.5 1472.4c-83.2 0-159.5 29.1-219.4 77.7-17.9 14.5-19.1 41.6-2.7 57.9l.3.3c14.3 14.3 36.9 15.1 52.7 2.4 46.3-37.3 105.1-59.6 169.1-59.6 64.1 0 122.9 22.3 169.1 59.6 15.8 12.7 38.4 11.9 52.7-2.4l.3-.3c16.3-16.3 15.2-43.3-2.7-57.9-59.9-48.5-136.2-77.7-219.4-77.7z" style="fill:url(#SVGID_00000025407608197444443510000005823428679077719699_)"/><linearGradient id="SVGID_00000047745937448693224910000005810997295823908492_" x1="1610.719" x2="1886.346" y1="1661.269" y2="1661.269" gradientUnits="userSpaceOnUse"><stop offset="0" style="stop-color:#aa80f9"/><stop offset=".996" style="stop-color:#6165d7"/></linearGradient><path d="M1622.4 1704c14.2 14.2 36.1 15.8 52.9 4.8 21.1-13.8 46.2-21.8 73.3-21.8 27 0 52.2 8 73.3 21.8 16.8 11 38.7 9.4 52.9-4.8l.2-.2c17.4-17.4 14.6-46.2-5.7-60.1-34.4-23.5-75.9-37.2-120.7-37.2s-86.3 13.7-120.7 37.2c-20.3 13.8-23 42.7-5.7 60.1l.2.2z" style="fill:url(#SVGID_00000047745937448693224910000005810997295823908492_)"/></g><linearGradient id="SVGID_00000114043313690467750390000012431300833363736999_" x1="3036.776" x2="3187.406" y1="3414.201" y2="3414.201" gradientTransform="rotate(2.688 1339.376 3348.493)" gradientUnits="userSpaceOnUse"><stop offset="0" style="stop-color:#444b8c"/><stop offset=".996" style="stop-color:#26264f"/></linearGradient><path d="M3156.4 3420.9c26.8 21.7 28.3 37.1 27.4 44.6-1.4 12.1-10.5 16.8-32.3 39.6-29.5 30.9-25 35-40 46.2-33.2 24.6-80.1 23-82.9 14.6-2-5.9 19.2-10.7 43.4-38.6 22.3-25.8 29.8-51.4 31.8-58.9 3.7-13.6 4.6-25.4 4.8-33.6l47.8-13.9z" style="fill:url(#SVGID_00000114043313690467750390000012431300833363736999_)"/><linearGradient id="SVGID_00000081637268199691770270000016335947757647205546_" x1="3153.85" x2="3078.186" y1="3234.051" y2="3372.461" gradientTransform="rotate(2.688 1339.376 3348.493)" gradientUnits="userSpaceOnUse"><stop offset="0" style="stop-color:#ffc444"/><stop offset=".996" style="stop-color:#f36f56"/></linearGradient><path d="m3066.7 3354.9 52.8 92c12.7 5.6 24.9 2.8 36.1-13.6l-20.6-111.8-68.3 33.4z" style="fill:url(#SVGID_00000081637268199691770270000016335947757647205546_)"/><linearGradient id="SVGID_00000061442646076600082430000011181960593660337542_" x1="2871.566" x2="3137.947" y1="3395.201" y2="2233.323" gradientTransform="rotate(2.688 1339.376 3348.493)" gradientUnits="userSpaceOnUse"><stop offset="0" style="stop-color:#311944"/><stop offset="1" style="stop-color:#893976"/></linearGradient><path d="M3002.7 2175.4c-51.4 86.8-134.8 254.3-151.7 480.8-16.7 223.6 39.7 394 63.4 457.5 44.3 119.1 121.2 244.1 166 303.7 30.2-12.6 47.9-32.4 78.1-45-4.5-16.4-18.5-70.6-27.3-102.9-6.8-25-19.4-71.3-22-81.2-21.7-82.8-4.6-144.9-10.5-247.3-6.9-119.4-34.3-105.6-30.2-177.3 6.1-107.1 66.8-132.1 136.5-287 47.7-106.1 97.7-217.5 51.7-278.4-58.1-76.7-234.3-28.5-254-22.9z" style="fill:url(#SVGID_00000061442646076600082430000011181960593660337542_)"/><linearGradient id="SVGID_00000046317258403914627100000016048701876656895647_" x1="3188.381" x2="3395.661" y1="3553.802" y2="3553.802" gradientUnits="userSpaceOnUse"><stop offset="0" style="stop-color:#444b8c"/><stop offset=".996" style="stop-color:#26264f"/></linearGradient><path d="M3374.7 3505c16.1 10.2 25.8 34.5 18.5 49.8-7.2 15-25.6 10.3-70.1 24-47.7 14.7-57.2 29.5-92.4 29.5-14.2 0-40-2.5-42.2-12-1.5-6.7 9.4-13.4 45.5-37.6 51.2-34.4 50.6-35.3 62-40.6 28.7-13.3 57.5-26.6 78.7-13.1z" style="fill:url(#SVGID_00000046317258403914627100000016048701876656895647_)"/><linearGradient id="SVGID_00000020399760217903948160000012015645866754100104_" x1="3301.185" x2="3381.066" y1="3543.277" y2="3377.941" gradientUnits="userSpaceOnUse"><stop offset="0" style="stop-color:#ffc444"/><stop offset=".996" style="stop-color:#f36f56"/></linearGradient><path d="m3298.4 3432.1 19.6 89.5c2.7 4 30.6 13.6 50.2 0l-7.2-89.5h-62.6z" style="fill:url(#SVGID_00000020399760217903948160000012015645866754100104_)"/><linearGradient id="SVGID_00000093893498406835986970000012948610314793264804_" x1="2875.255" x2="3141.636" y1="3396.046" y2="2234.169" gradientTransform="rotate(2.688 1339.376 3348.493)" gradientUnits="userSpaceOnUse"><stop offset="0" style="stop-color:#311944"/><stop offset="1" style="stop-color:#893976"/></linearGradient><path d="M3256.6 2198.3c-57.9-76.7-234.2-28.5-253.9-22.9-21.1 35.7-47.6 85.2-72.7 146.6 62.5-12.3 89.6-1.1 102.2 13.7 49 57.5-104.5 184.5-72.9 377.2 12.4 75.4 44.6 109.3 38.7 201.3-4.4 68.5-25.7 103.2-40.4 153.3-8.8 30.1-15.7 67.1-16 111.8 44.2 97.1 102.2 189.4 138.7 238.1 30.2-12.6 47.9-32.4 78.1-45-4.5-16.4-18.5-70.6-27.3-102.9-6.8-25-19.4-71.3-22-81.2-21.7-82.8-4.6-144.9-10.5-247.3-6.9-119.4-34.3-105.6-30.2-177.3 6.1-107.1 66.8-132.1 136.5-287 47.6-106.1 97.7-217.5 51.7-278.4z" style="opacity:.3;fill:url(#SVGID_00000093893498406835986970000012948610314793264804_)"/><linearGradient id="SVGID_00000155831961372143278310000010860225956810476425_" x1="3178.943" x2="3649.524" y1="2964.541" y2="2222.684" gradientUnits="userSpaceOnUse"><stop offset="0" style="stop-color:#311944"/><stop offset="1" style="stop-color:#893976"/></linearGradient><path d="M3140.4 2222.4c-5 199.7 2.6 431.1 35.4 686.2 26.8 207.7 65.7 395 108.5 559.4 5.9 3.3 26.7 14.1 53.3 9.1 18.9-3.6 31.5-13.3 37.1-18.3-4.7-33.6-9.4-84.4-5.5-145.8 6.7-105.5 31.5-127 42.2-236.3 9.4-95.8-.5-174-5.3-210.3-14.7-111.7-34.7-114-35.1-180.9-.6-103 46.5-139.9 72.4-238 17.3-65.5 26.4-163.2-17-297.2-95.3 24.1-190.7 48.1-286 72.1z" style="fill:url(#SVGID_00000155831961372143278310000010860225956810476425_)"/><linearGradient id="SVGID_00000116950856370882168400000012315454002304013205_" x1="2909.325" x2="2949.812" y1="1631.778" y2="2558.216" gradientUnits="userSpaceOnUse"><stop offset=".004" style="stop-color:#e38ddd"/><stop offset="1" style="stop-color:#9571f6"/></linearGradient><path d="M3038.5 1425.5c-35 19.7-83.7 52.2-129 104.2-104.6 119.7-169.2 316.7-102 381.2 45.7 43.9 154.2 30.6 191.5-21.5 27.5-38.3 7.7-85.3-1.8-152.1-10.2-71.9-9.9-176.2 41.3-311.8z" style="fill:url(#SVGID_00000116950856370882168400000012315454002304013205_)"/><linearGradient id="SVGID_00000076567796824108750250000000035370140081782462_" x1="3089.502" x2="3389.808" y1="1268.816" y2="2333.962" gradientUnits="userSpaceOnUse"><stop offset="0" style="stop-color:#311944"/><stop offset="1" style="stop-color:#893976"/></linearGradient><path d="M3444.5 2198.6c-38.7-510.3-162.1-719.2-151.4-781.2-15.5-11.2-76.9-28.9-216-10.6-11.9 4.4-43.6 17.2-75 45.9 0 0-7.3 6.7-17.3 18.4 97.7 18.4 197.2 74.1 233 152.9 62 150.7-53.2 319.1 0 452 27.9 69.9 72.7 131.8 126 189.7 61.1-15.3 102.9-37.7 100.7-67.1z" style="fill:url(#SVGID_00000076567796824108750250000000035370140081782462_)"/><linearGradient id="SVGID_00000030453701178248606540000006902201803490955926_" x1="3239.561" x2="3710.142" y1="3002.993" y2="2261.136" gradientUnits="userSpaceOnUse"><stop offset="0" style="stop-color:#311944"/><stop offset="1" style="stop-color:#893976"/></linearGradient><path d="M3426.4 2150.4c-27.9 7-55.8 14-83.7 21.1 14.6 50.3 28.6 125.8 11.8 211.5-23.3 118.3-83.4 144.3-92.3 251-8 96 37.4 115.6 59.1 243.6 22.2 131.2-11.4 192.9-18.5 302.6-4.8 75.1 3 173.4 48.7 292.9 11.3-4.5 19.2-10.6 23.3-14.3-4.7-33.6-9.4-84.4-5.5-145.8 6.7-105.5 31.5-127 42.2-236.3 9.4-95.8-.5-174-5.3-210.3-14.7-111.7-34.7-114-35.1-180.9-.6-103 46.5-139.9 72.4-238 17.2-65.3 26.3-163-17.1-297.1z" style="opacity:.3;fill:url(#SVGID_00000030453701178248606540000006902201803490955926_)"/><linearGradient id="SVGID_00000054946814404808867450000001889273519098738306_" x1="3152.326" x2="3192.812" y1="1621.158" y2="2547.591" gradientUnits="userSpaceOnUse"><stop offset=".004" style="stop-color:#e38ddd"/><stop offset="1" style="stop-color:#9571f6"/></linearGradient><path d="M3002.1 1452.7s-37 33.7-58.6 83.1c-32.5 74.5 2.5 138.5 13 260.2 11.5 133.5-4.8 355.8-42.3 435.5-.7 1.4-2.3 5.3-1.6 10.4 10.2 77 539.7 59.5 531.9-43.2-38.7-510.3-162.1-719.2-151.4-781.2-15.5-11.2-76.9-28.9-216-10.6-11.8 4.3-43.5 17.1-75 45.8z" style="fill:url(#SVGID_00000054946814404808867450000001889273519098738306_)"/><path d="M3159.5 1278.6s34.2 107.3 45.3 120.2c11.1 12.9-44.4 46.7-87 31.5-39.1-14 0-73.5 0-73.5l41.7-78.2z" class="st43"/><linearGradient id="SVGID_00000119083622905839366420000009702593514770308275_" x1="1949.28" x2="1828.57" y1="2206.656" y2="1900.074" gradientTransform="rotate(-29.842 1182.254 -691.19)" gradientUnits="userSpaceOnUse"><stop offset="0" style="stop-color:#311944"/><stop offset="1" style="stop-color:#6b3976"/></linearGradient><path d="M3024.5 1337c-23.1-9.8-41.3-39.5-37.4-67.3 3.4-23.9 22.4-38 33.8-46.5 32.9-24.5 86-35.5 120.2-12 20.3 13.9 23.6 65.4 24.6 74.4 1.2 10.2-3.6 16.6-5.9 26.2-3.3 13.3-8.2 34.2-16 69-5.5-5.7-12.8-12.6-21.9-19.3-3.5-2.6-17.4-12.6-33-18.4-31.3-11.8-42.5 3.2-64.4-6.1z" style="fill:url(#SVGID_00000119083622905839366420000009702593514770308275_)"/><path d="M3162.6 1344.5s-1.2 51.5-49.1 75.2c-42.9 21.2-102.6-68-87.6-102.9 5-11.7 21.1-24.6 37.8-28.9 9.8-2.5 14.8-.7 30.8-5.1 14.8-4.1 17.6-7.6 23.3-6.6 7.2 1.3 16.6 9.2 24.1 41 3.3-12.6 11-21.1 19.5-21.8 1.4-.1 5.3.2 8.6 2.2 12 7.2 10.1 26.3-7.4 46.9z" class="st43"/><linearGradient id="SVGID_00000130629789090868923480000013708141141237651876_" x1="1912.411" x2="1791.571" y1="2221.345" y2="1914.433" gradientTransform="rotate(-29.842 1182.254 -691.19)" gradientUnits="userSpaceOnUse"><stop offset="0" style="stop-color:#311944"/><stop offset="1" style="stop-color:#6b3976"/></linearGradient><path d="M3116.5 1269.5c-1.1 2.6 9.3 6.6 15.8 16.8 12.7 19.9 6.2 56.4-13.7 70.7-11.8 8.4-19.5 2.9-41.4 12.7-13.6 6-23.2 13.8-29.1 19.1 6.5 26.2 25.5 45 46.5 46.7 22.6 1.8 39.3-16.9 46.3-24.7 4.7-5.2 19.6-21.9 19.5-44.5-.2-23.5-16.2-28.4-11.6-47 2.3-9.4 8.5-16.4 9.2-32.4.2-4.3-.1-7.9-.3-10.3-17.3-5-39.6-10.9-41.2-7.1z" style="fill:url(#SVGID_00000130629789090868923480000013708141141237651876_)"/><path d="M3067.9 1388.5s11.6-.5 26.6-10.3c.7-.5 1.7-.7 2-.4 1.2 1.3-4.9 13.5-15.5 16.3-7.5 1.9-16.1-1.3-16.1-3.4-.1-.9 1.4-1.6 3-2.2z" class="st43"/><linearGradient id="SVGID_00000108289736429267463120000008041240478486128539_" x1="2949.276" x2="3249.589" y1="1161.077" y2="2226.251" gradientUnits="userSpaceOnUse"><stop offset=".004" style="stop-color:#e38ddd"/><stop offset="1" style="stop-color:#9571f6"/></linearGradient><path d="M3295.2 1748c-57.8 20.3-134.5 77.3-139.6 150.3-7.9 112.2 159.2 173.7 136.9 252.3-6.1 21.4-25.3 40.8-150.3 85.9-50.6 18.3-97.6 33.2-140.3 45.5 153.1 22.6 448.5-6.5 442.6-83.5-14.8-195.3-42.1-346.4-69.4-462.1-27.8-1-54.7 2.8-79.9 11.6z" style="opacity:.4;fill:url(#SVGID_00000108289736429267463120000008041240478486128539_)"/><linearGradient id="SVGID_00000179627725949205028380000015787747405212139701_" x1="4188.997" x2="4229.483" y1="4576.648" y2="5503.08" gradientTransform="rotate(19.541 1342.319 -623.184)" gradientUnits="userSpaceOnUse"><stop offset=".004" style="stop-color:#e38ddd"/><stop offset="1" style="stop-color:#9571f6"/></linearGradient><path d="M3113.2 1977.6c94 95.4 228.2 125.5 331.3 77.7 143.3-66.3 165.4-254.3 132-371.9-55.8-196.4-298.8-310.9-375.4-258.6-55.4 37.8-54.8 184.2 11.1 257.5 59.3 65.9 150.4 49.2 175.2 116.3 18.6 50.3-17.3 100.9-20.4 105.1-39.9 54.6-126.8 73.1-209.1 35.6-14.7 12.8-29.7 25.5-44.7 38.3z" style="fill:url(#SVGID_00000179627725949205028380000015787747405212139701_)"/><path d="M2927.1 1813.1c7.7-24.6 32.5-37.2 52.1-39.9 19.1-2.7 50.7 1.7 63.3 26.7 11.7 23.4 2.5 56.2-24.5 73.9-3.8-9.4-10.6-21.8-22.6-25.6-22.1-6.9-41.2 21.8-57.5 14.3-13-5.9-16.4-31.3-10.8-49.4z" class="st43"/><linearGradient id="SVGID_00000074440649539091713920000013312623330207545477_" x1="2905.9" x2="3101.358" y1="1671.905" y2="1977.392" gradientUnits="userSpaceOnUse"><stop offset="0" style="stop-color:#40447e"/><stop offset=".996" style="stop-color:#3c3b6b"/></linearGradient><path d="m3017.4 1962.2 72.3 12.6c14 2.4 26-10.1 23-24l-26.3-122.4c-1.9-8.9-9.5-15.3-18.5-15.8l-86.6-4.6c-14.3-.8-24.8 13.3-20 26.7l40.6 114.4c2.4 6.8 8.4 11.8 15.5 13.1z" style="fill:url(#SVGID_00000074440649539091713920000013312623330207545477_)"/><path d="M3143.6 1951.7c-5.9-42.6-23.9-53.8-30.4-56.9-10.9-5.3-16.3-1.2-54.3-1.8-34-.5-42-4-46.3 1.8-8.1 11 8.6 40 27.6 56.9 26.6 23.8 59.5 25.8 73.1 25.9l30.3-25.9z" class="st43"/><linearGradient id="SVGID_00000168799328227208049290000008961977903977211789_" x1="339.59" x2="445.618" y1="2441.667" y2="2481.048" gradientTransform="translate(83.119)" gradientUnits="userSpaceOnUse"><stop offset="0" style="stop-color:#444b8c"/><stop offset=".996" style="stop-color:#26264f"/></linearGradient><path d="M989.1 2736.7c-6.2 0-11.5-4.7-12-11-10.6-111.3-46.9-217.1-102.2-297.9-49-71.5-107.3-114.2-156-114.2h-.2c-177.5.3-214.6 407.8-215 412-.6 6.7-6.4 11.6-13.1 11-6.7-.6-11.6-6.4-11-13.1 1.5-17.7 39.5-433.7 239.1-434.1h.2c57.6 0 121.7 45.5 176 124.8 57.6 84.1 95.3 193.9 106.3 309.2.6 6.7-4.3 12.6-10.9 13.2-.4.1-.8.1-1.2.1z" style="fill:url(#SVGID_00000168799328227208049290000008961977903977211789_)"/><linearGradient id="SVGID_00000163031628029236526180000000846814142022110612_" x1="42.608" x2="337.955" y1="2806.06" y2="3301.335" gradientTransform="translate(83.119)" gradientUnits="userSpaceOnUse"><stop offset="0" style="stop-color:#fcb148"/><stop offset=".052" style="stop-color:#fdba46"/><stop offset=".142" style="stop-color:#ffc244"/><stop offset=".318" style="stop-color:#ffc444"/><stop offset=".485" style="stop-color:#fdb946"/><stop offset=".775" style="stop-color:#f99c4d"/><stop offset=".866" style="stop-color:#f8924f"/><stop offset="1" style="stop-color:#f8924f"/></linearGradient><path d="m249.7 3575.4 233.6 118.3 141.6-434.4-233.3-582.4-66.1 16.2-100.4 836.4c-2.2 18.9 7.6 37.3 24.6 45.9z" style="fill:url(#SVGID_00000163031628029236526180000000846814142022110612_)"/><linearGradient id="SVGID_00000116952929953277599190000018030639135331675318_" x1="88.272" x2="383.62" y1="2778.829" y2="3274.104" gradientTransform="translate(83.119)" gradientUnits="userSpaceOnUse"><stop offset="0" style="stop-color:#ffc444"/><stop offset=".996" style="stop-color:#f36f56"/></linearGradient><path d="m624.9 3259.3-233.3-582.4-39 9.6c-5.4 77.8-3 141.8.6 188.4 15.6 198.3 67.6 253.5 42.4 391.8-20.9 115-66.6 130.6-62.6 208 4.3 84.3 63.1 154.9 133 210.4l17.2 8.7 141.7-434.5z" style="opacity:.35;fill:url(#SVGID_00000116952929953277599190000018030639135331675318_)"/><linearGradient id="SVGID_00000171683107660160087680000006315396389670731411_" x1="556.755" x2="1388.271" y1="3005.579" y2="3646.256" gradientTransform="translate(83.119)" gradientUnits="userSpaceOnUse"><stop offset="0" style="stop-color:#fcb148"/><stop offset=".052" style="stop-color:#fdba46"/><stop offset=".142" style="stop-color:#ffc244"/><stop offset=".318" style="stop-color:#ffc444"/><stop offset=".485" style="stop-color:#fdb946"/><stop offset=".775" style="stop-color:#f99c4d"/><stop offset=".866" style="stop-color:#f8924f"/><stop offset="1" style="stop-color:#f8924f"/></linearGradient><path d="M391.7 2676.9h871.1l288.4 930.7-1067.8 86.1z" style="fill:url(#SVGID_00000171683107660160087680000006315396389670731411_)"/><linearGradient id="SVGID_00000085228445145724573960000013861945498362449028_" x1="720.146" x2="804.968" y1="2258.939" y2="2799.679" gradientTransform="translate(83.119)" gradientUnits="userSpaceOnUse"><stop offset="0" style="stop-color:#444b8c"/><stop offset=".996" style="stop-color:#26264f"/></linearGradient><path d="M661.5 2756.6c-5.5 0-10.5-3.8-11.8-9.4-2.5-10.6-59.7-260 21-382.4 23.1-35.1 55.4-56.5 96.1-63.7 208.6-36.8 337.1 411.3 342.4 430.4 1.8 6.4-1.9 13.1-8.4 14.9-6.4 1.8-13.1-1.9-14.9-8.4-1.3-4.5-127.7-446.2-314.9-413.1-34.3 6-60.4 23.4-80 53.1-75 113.8-18.2 361-17.6 363.5 1.5 6.5-2.5 13-9 14.6-1 .4-1.9.5-2.9.5z" style="fill:url(#SVGID_00000085228445145724573960000013861945498362449028_)"/><g style="opacity:.35"><linearGradient id="SVGID_00000044140610247279564310000017131046612332151700_" x1="567.503" x2="1399.02" y1="2991.627" y2="3632.304" gradientTransform="translate(83.119)" gradientUnits="userSpaceOnUse"><stop offset="0" style="stop-color:#ffc444"/><stop offset=".996" style="stop-color:#f36f56"/></linearGradient><path d="M1262.8 2676.9H830.7c-21.3 21.7-36.4 46.7-37.9 74.7-6.8 131.7 296 175 325.2 355.4 21.1 130.2-108.5 280.4-224.2 347.4-121.8 70.5-204.4 34.8-286.8 113.1-36.2 34.4-58.2 77.4-71.4 122l1015.5-81.8-288.3-930.8z" style="fill:url(#SVGID_00000044140610247279564310000017131046612332151700_)"/></g><linearGradient id="SVGID_00000022562577522868236010000014254068280586527365_" x1="532.818" x2="546.47" y1="2741.502" y2="2746.573" gradientTransform="translate(83.119)" gradientUnits="userSpaceOnUse"><stop offset="0" style="stop-color:#444b8c"/><stop offset=".996" style="stop-color:#26264f"/></linearGradient><circle cx="661.6" cy="2758.5" r="33.9" style="fill:url(#SVGID_00000022562577522868236010000014254068280586527365_)"/><linearGradient id="SVGID_00000056423519985621016460000016298992109105738938_" x1="974.455" x2="988.106" y1="2738.361" y2="2743.432" gradientTransform="translate(83.119)" gradientUnits="userSpaceOnUse"><stop offset="0" style="stop-color:#444b8c"/><stop offset=".996" style="stop-color:#26264f"/></linearGradient><circle cx="1103.3" cy="2755.3" r="33.9" style="fill:url(#SVGID_00000056423519985621016460000016298992109105738938_)"/></g></svg>