<svg width="86" height="86" viewBox="0 0 86 86" fill="none" xmlns="http://www.w3.org/2000/svg">
<g clip-path="url(#clip0_15_6560)">
<path d="M52.5012 43.1556C55.4893 43.1556 58.4773 43.1509 61.4654 43.1556C63.3721 43.1602 64.3069 44.0401 64.3627 45.9438C64.4046 47.3622 64.4069 48.783 64.3627 50.2015C64.3371 50.9676 64.6139 51.1975 65.3696 51.1951C71.1434 51.1696 76.9149 51.1812 82.6886 51.1835C85.0582 51.1835 85.9534 52.075 85.965 54.4337C85.965 54.6357 85.9743 54.84 85.965 55.042C85.886 56.6276 86.058 58.2109 85.8046 59.8058C85.5628 61.3288 86.1232 62.8587 85.979 64.4118C85.686 67.532 86.1348 70.6684 85.9232 73.7793C85.7232 76.7138 86.0836 79.6227 85.9836 82.5479C85.8929 85.2223 83.4514 86.7754 81.0191 85.61C80.5912 85.4057 80.3331 85.0551 80.3773 84.5699C80.4284 84.0174 80.7702 83.6483 81.312 83.5694C81.8259 83.4951 82.3538 83.502 82.8747 83.5159C83.4095 83.5299 83.6839 83.3465 83.6769 82.7684C83.6583 81.3198 83.6606 79.8711 83.6769 78.4248C83.6839 77.8583 83.4351 77.6679 82.8886 77.6703C76.9707 77.6795 71.0527 77.6819 65.1347 77.6703C64.5673 77.6703 64.3604 77.9117 64.3674 78.4549C64.3813 79.8154 64.4046 81.1781 64.3581 82.5386C64.3302 83.3186 64.6487 83.5229 65.3859 83.5183C69.332 83.4927 73.2757 83.5043 77.2218 83.509C77.5962 83.509 77.9775 83.4695 78.3356 83.632C78.8077 83.8456 79.0774 84.2008 79.0146 84.7278C78.9542 85.2409 78.6402 85.5612 78.1264 85.6657C78.0147 85.6889 77.8961 85.6889 77.7799 85.6936C77.5776 85.6982 77.3729 85.6936 77.1706 85.6982C71.6573 85.7679 66.1439 85.6309 60.6306 85.6796C55.0893 85.7284 49.548 85.6913 44.0091 85.6889C42.7906 85.6889 42.2488 85.3616 42.2442 84.6326C42.2372 83.8735 42.8278 83.4997 44.0579 83.4997C49.6271 83.4997 55.1986 83.4997 60.7678 83.4997C61.6421 83.4997 62.0792 83.0501 62.0792 82.1509C62.0792 81.0783 62.0792 80.0081 62.0792 78.9355C62.0792 78.0951 61.67 77.6741 60.8515 77.6726C57.5449 77.6726 54.2382 77.6726 50.9293 77.6726C50.6968 77.6726 50.4642 77.6726 50.234 77.6726C49.1737 77.661 48.5923 77.2593 48.5854 76.5373C48.5784 75.8269 49.1411 75.4044 50.2387 75.3998C53.7778 75.3812 57.317 75.3928 60.8561 75.3882C62.0699 75.3882 62.0746 75.3812 62.0769 74.1879C62.0792 72.9714 62.0467 71.7549 62.0886 70.5384C62.1141 69.7909 61.8537 69.5192 61.0863 69.5262C57.982 69.5587 54.8777 69.5401 51.7734 69.5378C51.4827 69.5378 51.1921 69.5448 50.9037 69.5123C50.3317 69.4473 50.0085 69.0828 49.9527 68.5419C49.8968 67.9847 50.2061 67.5877 50.7386 67.4391C51.0665 67.3486 51.4246 67.3486 51.7711 67.3463C54.8754 67.3393 57.9797 67.323 61.084 67.3555C61.8374 67.3648 62.1188 67.1373 62.0886 66.3666C62.0374 65.0642 62.0444 63.7594 62.0886 62.457C62.1118 61.742 61.863 61.4959 61.1375 61.5029C57.7727 61.5307 54.408 61.5145 51.0432 61.5145C50.7828 61.5145 50.52 61.5261 50.2596 61.5052C49.4806 61.4425 48.9574 60.9573 49.0318 60.3259C49.1202 59.5853 49.6225 59.3229 50.3201 59.3229C53.8313 59.3229 57.3402 59.3229 60.8515 59.3229C61.6638 59.3229 62.0723 58.9244 62.0769 58.1273C62.0792 56.941 62.0374 55.75 62.0909 54.5661C62.1304 53.7396 61.8467 53.4517 61.0049 53.4587C56.8566 53.4912 52.7082 53.4772 48.5598 53.4703C48.097 53.4703 47.632 53.4378 47.1739 53.3797C46.5693 53.3031 46.2414 52.9293 46.2275 52.3257C46.2135 51.7036 46.5926 51.3646 47.1576 51.2439C47.4645 51.1789 47.7924 51.1905 48.111 51.1905C52.4035 51.1882 56.6984 51.1696 60.991 51.2044C61.8095 51.2114 62.1397 50.9908 62.0932 50.1342C62.0304 48.9502 62.0792 47.7592 62.0769 46.5729C62.0769 45.3634 62.0746 45.3587 60.891 45.3587C55.0893 45.3587 49.2876 45.3587 43.4859 45.3587C42.2163 45.3587 41.6791 45.0221 41.6977 44.2397C41.7163 43.4876 42.2326 43.1672 43.4534 43.1649C46.4693 43.1649 49.4876 43.1649 52.5035 43.1649L52.5012 43.1556ZM74.05 61.5215C71.1201 61.5215 68.1902 61.5331 65.2603 61.5122C64.6511 61.5075 64.3441 61.677 64.3581 62.341C64.386 63.7316 64.3836 65.1222 64.3581 66.5105C64.3464 67.1605 64.6278 67.3625 65.2487 67.3602C71.1085 67.3463 76.9683 67.3463 82.8282 67.3602C83.4816 67.3602 83.6909 67.0979 83.6792 66.478C83.6537 65.1454 83.6351 63.8128 83.6862 62.4826C83.7164 61.7002 83.4072 61.4959 82.6677 61.5052C79.7959 61.5377 76.9241 61.5191 74.0524 61.5191L74.05 61.5215ZM73.9756 75.4949C76.9009 75.4949 79.8262 75.481 82.7514 75.5066C83.4118 75.5112 83.6978 75.3162 83.6792 74.6197C83.6444 73.2616 83.6513 71.9012 83.6769 70.5431C83.6862 69.9394 83.5072 69.64 82.8421 69.6423C76.9637 69.6562 71.0853 69.6562 65.2045 69.6423C64.5487 69.6423 64.3464 69.9302 64.3581 70.5384C64.379 71.8687 64.3976 73.1989 64.3511 74.5269C64.3232 75.3046 64.6348 75.5158 65.3742 75.5066C68.2414 75.4741 71.1085 75.4926 73.9756 75.4926V75.4949ZM73.9663 59.3253C76.8939 59.3253 79.8215 59.3113 82.7514 59.3369C83.4258 59.3415 83.6909 59.1047 83.6769 58.4291C83.649 57.0687 83.6513 55.7083 83.6769 54.3478C83.6885 53.7256 83.4607 53.461 82.8189 53.461C76.9637 53.4726 71.1062 53.4749 65.251 53.461C64.5534 53.461 64.3464 53.7674 64.3581 54.4105C64.3836 55.6827 64.3976 56.9596 64.3534 58.2295C64.3255 59.042 64.5883 59.3531 65.444 59.3415C68.2832 59.2974 71.1248 59.3253 73.9663 59.3253Z" fill="black"/>
<path d="M23.9862 33.7253C21.2307 33.7253 18.4752 33.6998 15.7197 33.7323C13.1688 33.7625 11.6131 36.1166 12.6781 38.2988C13.2711 39.5153 14.2966 40.0586 15.6359 40.0586C19.9866 40.0563 24.3373 40.0586 28.6903 40.0586C29.0647 40.0586 29.4484 40.0121 29.8065 40.17C30.3158 40.3929 30.5855 40.7713 30.5041 41.3354C30.4297 41.8601 30.1018 42.1573 29.5809 42.2223C29.3507 42.2501 29.1182 42.2455 28.8857 42.2455C24.535 42.2455 20.1843 42.2455 15.8313 42.2455C15.4825 42.2455 15.0965 42.3267 14.7942 42.2037C13.7454 41.7789 13.1804 42.3105 12.5712 43.072C7.62983 49.2218 3.95349 55.9915 2.56991 63.8221C1.84441 67.9266 2.03044 72.0172 3.76281 75.9151C4.06278 76.593 4.00929 77.1688 3.30239 77.5402C2.72339 77.8467 2.14903 77.5843 1.77465 76.8229C0.723602 74.687 0.274814 72.398 0.0841365 70.0416C-0.494871 62.8888 1.85139 56.4767 5.08127 50.2897C6.76481 47.0674 8.8204 44.0888 11.1853 41.3308C11.5852 40.8642 11.5968 40.6088 11.2178 40.1073C9.07154 37.2843 10.1947 33.2587 13.5036 31.9586C14.2338 31.6708 14.1849 31.4502 13.8082 30.9023C12.2642 28.6597 10.7551 26.3915 9.23431 24.1326C8.92039 23.6683 8.61112 23.1947 8.92504 22.612C9.23198 22.0409 9.77844 21.9806 10.3505 21.9829C11.8294 21.9852 13.3083 21.9875 14.7895 21.9829C15.8034 21.9782 15.8359 21.9318 15.536 20.9382C15.3778 20.4112 15.1965 19.8912 15.0383 19.3642C14.6547 18.0734 15.0779 17.479 16.4359 17.4767C20.9028 17.4651 25.3698 17.4721 29.8367 17.4721C30.5041 17.4721 31.1715 17.4558 31.8388 17.479C32.9713 17.5208 33.4131 18.1105 33.1201 19.1877C32.9527 19.8029 32.7504 20.4065 32.5597 21.0148C32.2574 21.9806 32.2574 21.9829 33.234 21.9852C34.713 21.9875 36.1919 21.9898 37.6731 21.9852C38.2707 21.9852 38.8474 22.0131 39.1799 22.6236C39.5031 23.2203 39.166 23.6776 38.859 24.1396C37.3266 26.4264 35.8059 28.7201 34.2502 30.9905C33.8898 31.5152 33.927 31.6917 34.5548 31.9377C37.8428 33.2309 39.0264 37.1357 36.9615 39.9936C36.4849 40.6552 36.6058 40.9872 37.0522 41.5142C41.3541 46.5961 44.5468 52.3002 46.5768 58.6404C48.1975 63.7014 48.6649 68.8367 47.3511 74.0416C46.1396 78.838 43.1376 82.0533 38.5195 83.8038C35.3664 84.9971 32.069 85.4382 28.7345 85.6611C24.9396 85.9141 21.1423 85.8746 17.3567 85.4916C13.406 85.0923 9.54358 84.3563 6.1858 82.0371C5.59284 81.6262 5.03011 81.1619 4.50691 80.6627C4.00929 80.1891 3.87907 79.5855 4.39065 79.0423C4.90222 78.5014 5.49983 78.5826 6.0114 79.0655C8.88784 81.7794 12.5014 82.6314 16.2522 83.1398C20.3215 83.6924 24.4164 83.6204 28.4997 83.4486C32.0923 83.2977 35.6687 82.852 38.9799 81.2524C42.7981 79.4068 44.7816 76.2518 45.5211 72.189C46.5024 66.7914 45.4816 61.6561 43.5074 56.6438C41.4611 51.4528 38.6404 46.7238 35.0036 42.48C34.6757 42.0992 34.3874 41.9599 33.8898 42.1062C33.4805 42.2269 33.0341 42.2408 32.6016 42.2432C32.0342 42.2478 31.6691 41.9414 31.5714 41.3795C31.4668 40.7759 31.7551 40.3743 32.3039 40.1561C32.462 40.0934 32.6411 40.0771 32.8132 40.0539C34.6874 39.8102 35.8663 38.4822 35.7687 36.7225C35.6756 35.0626 34.3083 33.7579 32.5155 33.7323C29.674 33.6952 26.8301 33.723 23.9862 33.7207V33.7253ZM24.0699 19.7635C22.1864 19.7635 20.3029 19.7751 18.4194 19.7565C17.7683 19.7495 17.5195 19.926 17.7427 20.6271C18.8333 24.0421 19.8959 27.4687 20.9609 30.893C21.1005 31.3434 21.3516 31.55 21.8399 31.5431C23.3165 31.5245 24.7954 31.5199 26.2743 31.5454C26.8115 31.5547 27.0626 31.3179 27.1928 30.8327C27.344 30.2755 27.5161 29.7207 27.7137 29.1774C27.9346 28.5692 28.3578 28.1745 29.0415 28.3695C29.7391 28.5668 29.9856 29.0915 29.8088 29.7926C29.7112 30.185 29.567 30.5657 29.4693 30.958C29.4182 31.1623 29.2856 31.3991 29.6368 31.5245C30.2902 31.759 31.297 31.4572 31.6947 30.8675C32.8457 29.1658 34.0061 27.4687 35.1315 25.7508C35.4361 25.2841 36.1244 24.7873 35.8756 24.3137C35.6756 23.9284 34.8571 24.1744 34.32 24.1907C33.4317 24.2162 32.3969 23.8448 31.69 24.3648C31.0482 24.8361 31.0901 25.8808 30.8041 26.6632C30.4739 27.5639 29.9553 27.9447 29.3019 27.7288C28.6252 27.5059 28.4043 26.9139 28.6857 26.0038C29.2321 24.2348 29.7646 22.4611 30.3599 20.7107C30.6227 19.9376 30.3925 19.7403 29.6368 19.7519C27.7835 19.782 25.9279 19.7611 24.0722 19.7635H24.0699ZM14.3407 24.1675C13.8199 24.1675 13.2967 24.1628 12.7758 24.1698C12.5805 24.1721 12.327 24.0885 12.2061 24.2719C12.0433 24.518 12.2991 24.6991 12.4154 24.8779C13.6803 26.7816 14.9918 28.6574 16.2126 30.5889C16.6754 31.3202 17.2009 31.5942 18.0543 31.557C18.7658 31.5245 18.7984 31.3016 18.6007 30.7189C18.1078 29.2679 17.6776 27.7961 17.2079 26.3381C16.3428 23.659 16.973 24.2418 14.3431 24.1675H14.3407Z" fill="black"/>
<path d="M58.1384 25.2424C58.2221 25.6045 58.4523 25.7508 58.6336 25.9319C62.2007 29.4978 65.7794 33.0521 69.3278 36.6343C69.8231 37.1334 70.1045 37.1845 70.63 36.6528C74.1948 33.0451 77.7967 29.4746 81.3847 25.8854C81.5614 25.709 81.8079 25.5767 81.8823 25.1425C81.2056 25.1425 80.5545 25.1634 79.9058 25.1379C78.6873 25.0891 78.285 24.6921 78.2827 23.4849C78.2734 16.1859 78.2757 8.88926 78.2827 1.59026C78.2827 0.587345 78.7036 0.0185624 79.3942 -0.00233165C80.1127 -0.0232257 80.5638 0.566451 80.5662 1.61812C80.5731 8.25083 80.5708 14.8835 80.5708 21.5139C80.5708 22.4131 81.0126 22.8635 81.8962 22.8651C82.7659 22.8651 83.6379 22.8604 84.5076 22.8744C85.0936 22.8836 85.6051 23.0554 85.833 23.6637C86.0377 24.2093 85.7679 24.6132 85.4028 24.98C80.5824 29.7926 75.7667 34.6099 70.937 39.4132C70.2277 40.1189 69.6999 40.1143 68.9883 39.4085C64.1819 34.6238 59.3847 29.8298 54.5852 25.0357C54.1713 24.6225 53.8946 24.1535 54.1551 23.5569C54.3992 22.9997 54.9108 22.8767 55.4572 22.872C56.4432 22.8627 57.4315 22.8256 58.4151 22.879C59.2057 22.9231 59.4615 22.6584 59.4591 21.8459C59.4289 15.1853 59.4429 8.52245 59.4429 1.86188C59.4429 1.57169 59.4312 1.28149 59.4591 0.993619C59.5149 0.434122 59.8382 0.0696368 60.3963 0.0162409C60.9892 -0.0417982 61.4054 0.269291 61.5659 0.838074C61.6426 1.1097 61.6333 1.4115 61.6333 1.69937C61.6356 8.91015 61.638 16.1232 61.6333 23.334C61.6333 24.7595 61.2659 25.1147 59.8312 25.1495C59.2871 25.1634 58.736 25.0682 58.1407 25.24L58.1384 25.2424Z" fill="black"/>
<path d="M9.48047 62.5917C9.48512 54.0924 16.7169 47.4203 25.2276 48.0633C32.2222 48.5926 37.8844 54.1783 38.6262 61.2846C39.3238 67.9731 34.9242 74.5663 28.4528 76.5303C27.3157 76.8762 26.6716 76.723 26.4298 76.0544C26.1624 75.3138 26.574 74.8124 27.7715 74.42C33.0663 72.6905 36.5334 67.8964 36.4636 62.4013C36.3869 56.3327 31.6478 51.1603 25.6415 50.357C18.3028 49.3773 11.1082 55.3321 11.6942 63.6526C12.1244 69.7514 17.4005 74.7892 23.5348 74.9795C23.7092 74.9842 23.8859 74.9772 24.0556 75.0051C24.7067 75.1119 25.1439 75.4624 25.1137 76.1566C25.0834 76.86 24.63 77.1525 23.951 77.1711C22.0628 77.2268 20.2607 76.8368 18.5283 76.1241C12.9894 73.842 9.47814 68.5743 9.48279 62.5917H9.48047Z" fill="black"/>
<path d="M28.5503 59.0211C28.5224 59.6827 28.2921 60.1935 27.5922 60.2863C26.9062 60.3769 26.5063 60.0194 26.3551 59.3507C26.2598 58.9305 26.2249 58.4918 25.9901 58.1087C25.4576 57.2358 24.367 56.7994 23.4392 57.0965C22.43 57.4192 21.7231 58.4082 21.7928 59.3995C21.8649 60.4163 22.6021 61.2335 23.6345 61.4285C23.9763 61.4936 24.3205 61.5353 24.667 61.5818C26.6319 61.8441 28.1038 63.2835 28.4921 65.3218C28.8177 67.0421 27.8992 69.0061 26.2505 69.8373C25.518 70.2064 25.139 70.6127 25.1762 71.4693C25.2064 72.1658 24.8414 72.7137 24.06 72.7694C23.4113 72.8135 22.9206 72.2563 22.9416 71.3973C22.9602 70.6684 22.7346 70.276 22.0417 69.9417C20.5883 69.2383 19.7675 68.0009 19.6047 66.3828C19.5187 65.5377 19.9372 64.9364 20.6023 64.9248C21.3906 64.9109 21.6929 65.4007 21.7998 66.1297C21.9765 67.3578 22.7346 68.1123 23.7903 68.2029C24.8576 68.2934 25.7947 67.7386 26.1528 66.8006C26.5179 65.8465 26.1993 64.7902 25.3646 64.1726C24.9227 63.8453 24.4158 63.7919 23.888 63.7408C22.0719 63.5667 20.6953 62.6984 19.9605 61.0083C19.2536 59.3833 19.5024 57.8417 20.5953 56.4418C21.0325 55.8823 21.5905 55.4575 22.244 55.1998C22.7555 54.9978 22.9671 54.696 22.9299 54.1528C22.909 53.8719 22.9485 53.5701 23.0299 53.2984C23.1857 52.7691 23.5694 52.465 24.1275 52.4929C24.6414 52.5207 25.1064 52.8364 25.0809 53.3356C25.0158 54.6101 25.7738 55.1464 26.7411 55.7314C27.9224 56.4465 28.4177 57.6769 28.5572 59.0188L28.5503 59.0211Z" fill="black"/>
<path d="M71.2881 25.3213C71.302 23.0763 72.6717 21.7855 74.4412 22.1431C74.8505 22.2266 75.2109 22.3961 75.5132 22.6793C76.7735 23.8564 76.6387 26.5656 75.2551 27.5848C74.4645 28.1675 73.6041 28.2441 72.7205 27.7984C71.6183 27.2412 71.3555 26.2313 71.2904 25.3213H71.2881ZM74.6087 25.0241C74.5273 24.4553 74.6598 23.6219 73.8576 23.6056C73.0484 23.5894 73.0879 24.4112 73.0879 25.0009C73.0879 25.6417 73.0042 26.568 73.8669 26.561C74.6575 26.554 74.5482 25.6533 74.6087 25.0264V25.0241Z" fill="black"/>
<path d="M68.6387 21.4744C68.648 23.3294 67.5411 24.583 65.946 24.4994C64.9158 24.4437 64.188 23.9028 63.8485 22.951C63.3974 21.6834 63.4672 20.4251 64.3578 19.3549C65.0019 18.5794 65.8832 18.3496 66.8691 18.6282C68.0341 18.9579 68.6294 19.9213 68.6387 21.4768V21.4744ZM66.9458 21.5093C66.7761 20.9358 66.9691 20.042 66.0994 20.0513C65.3228 20.0606 65.3553 20.9103 65.3297 21.4698C65.3042 22.0688 65.2739 22.9324 66.0925 22.9579C66.9645 22.9858 66.7691 22.0757 66.9435 21.5069L66.9458 21.5093Z" fill="black"/>
<path d="M67.1764 28.1443C66.9415 28.1025 66.6206 28.265 66.4788 27.9655C66.3648 27.7264 66.588 27.536 66.7043 27.3433C68.3437 24.6178 69.9877 21.8923 71.6317 19.1714C71.7363 18.9996 71.8363 18.8023 71.9921 18.6886C72.4014 18.3891 72.9432 18.3705 73.3059 18.598C73.7175 18.8534 73.2687 19.2109 73.1129 19.4709C71.5294 22.1291 69.9226 24.7757 68.3367 27.4316C68.067 27.882 67.7856 28.2557 67.1787 28.1443H67.1764Z" fill="black"/>
</g>
<defs>
<clipPath id="clip0_15_6560">
<rect width="86" height="86" fill="white"/>
</clipPath>
</defs>
</svg>
