<svg xmlns="http://www.w3.org/2000/svg" xmlns:xlink="http://www.w3.org/1999/xlink" xml:space="preserve" id="Layer_1" x="0" y="0" style="enable-background:new 0 0 1920 1085" version="1.1" viewBox="0 0 1920 1085"><style>.st2{fill:none}.st20,.st21{fill:none;stroke:#161616;stroke-linejoin:round;stroke-miterlimit:10}.st20{opacity:.5;stroke-width:1.1473;enable-background:new}.st21{stroke-width:1.0653}.st21,.st23,.st24{opacity:.5;enable-background:new}.st23{fill:none;stroke:#fff;stroke-width:1.169;stroke-linecap:round;stroke-linejoin:round;stroke-miterlimit:10}.st24{fill:#fff}</style><path d="M0 0h1920v1280H0z" class="st2"/><path d="M592.3 98.7c-17.9 15.3-21.6 34.8-28.8 58-9.8 31.6-37.1 34.3-51.2 28.2-27.3-11.9-33.3-48.8-61.4-51.8-39.6-4.3-46.9 40.5-76.1 38.1-17.1-1.4-29-20.4-31.4-24-28.9-42.3-64.4-28.2-100.5-57.4-15.4-13.4-21.4-33.3-32.3-48.9-4.7-6.3-11.4-8.7-16-13.8-35.3-35.9-41.7-97.7-28.2-140.8 13.4-39.7 10.6-77.1 25.6-115.2 5.3-7.8 13.4-9 20.2-15.1 23.3-11.7 55.5 4.3 69.6-17.5 16-26.7-5.3-95.6 44.3-84.8 25.3 5.4 24.8 20 48.9 31.1 4.8 2.2 23.6-.9 28-4.2 30.6-22.9 11.9-60.4 27.3-94.2 7.1-20.4 26.7-35.2 51.1-37 32.3-.4 58.4 17.9 75 45.2 3.7 4.9 7.1 10.1 10.1 15.6 2.2 4.1 4.2 8.4 5.9 13-1.4 22.5-1.4 46.2 9.8 64.1 21.6 37.7 65.9 6.3 93.5 16.6 30.1 9.4 10.8 52.1 19.1 78.8 4.8 4.8 9.7 9.5 14.5 14.3 4.9 4.8 9.7 9.5 14.2 14.5 15.6 17.8 13.2 46.8 3 69.6-2.6 6.4-4.4 12.7-4.7 18.7.5 6 1 11.9 1.4 17.9 0 4.6-.8 8.7-3.4 11.7-8.2 7.7-13.1 18.5-12.7 27.2 1 49.9 15.5 109-44.9 127.9-23.3 7.1-41.7-9.8-69.9 14.2z" style="opacity:.5;fill:none;stroke:#fff;stroke-width:1.1707;stroke-linecap:round;stroke-linejoin:round;stroke-miterlimit:10;enable-background:new"/><path d="M332.9-332.8c23.9 5 23.5 18.8 46.2 29.2 4.6 2.1 22.2-.8 26.4-3.9 5-3.7 8.5-7.7 11.1-12.1 12.7-21.4 3.9-49.7 14.7-76.7 7.6-18.9 25.1-33.9 48.2-34.8 30.6-1.2 53.8 18.2 70.9 42.8 3.3 4.8 6.8 9.5 9.6 14.5 2.1 3.8 4 7.9 5.6 12.1-1.1 17.5-1.2 35.7 5 51 1.2 3.1 2.7 6 4.5 8.8 21.1 34.9 62 6.6 88.3 15.7 21.7 7.6 16.1 32.7 16 55.7 0 5 .2 9.9 1.1 14.4.3 1.7.7 3.3 1.2 4.9 4.5 4.6 9.2 9.1 13.8 13.7 4.6 4.6 9.2 9.1 13.5 13.8 15 16.8 12.1 44.2 2.8 66.2-2.5 6-4.5 12-4.4 17.7.2 5.6 1.1 11.2 1.4 16.9.2 4.3-.6 8.3-3.2 11.1-7.4 7.7-12.3 17.5-12.1 25.7 0 1 .1 2 .1 3.1 1.3 46.5 12.9 100.3-43 117.8-10.4 3.3-19.8 1.3-29.8.9-8-.3-16.4.3-25.9 5.6-3.2 1.8-6.6 4-10.1 7-17.1 14.2-20.6 32.5-27.5 54.3-9.3 29.6-35 32.3-48.4 26.5-25.8-11.1-31.4-45.7-57.9-48.6-37.3-4-44.2 37.8-71.6 35.5-1.1-.1-2.2-.3-3.3-.5-14.3-3.3-24.2-18.9-26.4-22-27.3-39.5-61.1-25.7-94.7-53.8-14.8-12.4-20.1-31.5-30.7-46.2-4.3-6-10.7-8.3-15.1-13-23-24.6-33.6-60.6-32.8-94.1.3-13.8 2.1-27.1 6-38.8 12.1-37.7 9.8-72.9 24-108.9 5-7.4 12.7-8.5 19.1-14.3 4.5-2.3 9.3-3.5 14.3-4.1 19.3-2.4 41 3.8 51.3-12.7 7.6-12.1 6.6-33.6 9-51.3 2.4-19.3 8.5-34.2 32.8-29.1z" style="opacity:.5;fill:none;stroke:#fff;stroke-width:1.1484;stroke-linecap:round;stroke-linejoin:round;stroke-miterlimit:10;enable-background:new"/><path d="M339.7-319.1c22.4 4.6 22.1 17.5 43.5 27.2 4.3 2 20.9-.8 24.8-3.7 4.7-3.4 8-7.2 10.5-11.4 12-20 3.8-46.7 14-72 7.1-17.8 23.6-31.7 45.4-32.6 28.8-1.1 50.6 17.4 66.8 40.3 3.1 4.4 6.4 8.8 9.1 13.5 2 3.5 3.7 7.2 5.3 11.2-1 16.2-1 33.1 5 47.3 1.2 2.8 2.7 5.6 4.3 8.2 20.1 32.4 58.4 6.1 83.2 14.9 20.5 7.3 15.1 31.2 15.2 52.9 0 4.7.3 9.5 1.1 13.7.3 1.6.7 3.1 1.2 4.6l13 13c4.3 4.3 8.7 8.6 12.7 13.2 14.1 15.9 11.4 42 2.7 62.9-2.4 5.7-4.3 11.3-4.1 16.6.1 5.3 1.1 10.6 1.2 15.9.2 4-.5 7.9-3 10.5-6.9 7.3-11.5 16.5-11.3 24.3 0 .9 0 1.9.1 2.8 1.1 43.8 11.7 94.4-41 110.8-9.8 3.1-18.6 1.3-27.9.9-7.6-.3-15.4.3-24.3 5.2-3.1 1.6-6.2 3.7-9.5 6.5-15.9 13.4-19.4 30.4-25.9 50.9-8.8 27.7-33 30.3-45.5 24.9-24.2-10.2-29.6-42.6-54.5-45.5-34.9-3.9-41.5 35.1-67.2 32.8-1.1-.1-2.1-.2-3.1-.5-13.4-3.1-22.7-17.7-24.8-20.7-25.9-36.8-57.5-23.9-89-50.1-14-11.6-19.1-29.6-29.1-43.4-4.1-5.6-10.1-7.9-14.2-12.4-22-23-31.8-56.8-31.3-88.4.2-13 1.8-25.4 5.3-36.5 11.1-35.5 9.1-68.7 22.4-102.5 4.7-6.9 11.8-8.1 17.9-13.6 4.2-2.1 8.8-3.3 13.4-4 18.2-2.4 38.4 3.4 48.2-12.2 7.2-11.3 6.3-31.5 8.8-48.2 2.4-17.8 7.8-32 30.6-27.3z" style="opacity:.5;fill:none;stroke:#fff;stroke-width:1.1261;stroke-linecap:round;stroke-linejoin:round;stroke-miterlimit:10;enable-background:new"/><path d="M346.7-305.6c20.9 4.2 20.8 16.2 40.7 25.3 4 1.8 19.5-.7 23.2-3.4 4.3-3.2 7.5-6.7 9.8-10.6 11.2-18.7 3.7-43.7 13.2-67.4 6.6-16.6 22-29.7 42.5-30.4 27-.9 47.5 16.6 62.6 37.8 3 4.1 6 8.1 8.5 12.4 1.9 3.3 3.5 6.6 5 10.3-.8 15-.8 30.5 5 43.6 1.1 2.6 2.5 5.1 4 7.6 18.9 30 54.9 5.6 78 14 19.3 7 14.2 29.6 14.4 50.1 0 4.4.3 8.9 1.1 12.9.3 1.5.7 3 1.1 4.3 4 4.1 8.2 8.2 12.3 12.4 4.1 4.1 8.2 8.2 12 12.5 13.2 15.2 10.8 39.7 2.4 59.5-2.2 5.3-4 10.6-3.9 15.6s.9 9.9 1.1 15c.1 3.8-.5 7.4-2.8 9.8-6.4 6.9-10.8 15.5-10.6 22.8 0 .9 0 1.8.1 2.7.8 41.1 10.4 88.6-38.9 103.9-9.2 2.9-17.4 1.3-26.1.9-7.1-.2-14.5.3-22.8 4.9-2.8 1.5-5.8 3.5-8.8 6-15 12.4-18.3 28.2-24.6 47.3-8.4 25.7-30.9 28.2-42.7 23.3-22.7-9.4-27.8-39.6-51-42.3-32.5-3.2-38.7 32.8-62.7 30.6-1-.1-1.9-.2-2.9-.5-12.5-2.9-21.2-16.5-23.2-19.3-24.4-34.1-53.8-22-83.3-46.5-13.1-10.8-18-27.6-27.4-40.6-3.8-5.3-9.4-7.4-13.3-11.7-20.2-21.8-29.4-53.6-29-83.2.2-12.1 1.4-23.7 4.7-34.2 10.2-33.2 8.3-64.5 20.8-96.2 4.3-6.6 11.1-7.7 16.7-12.8 4-2.1 8.2-3.1 12.5-3.7 17-2.4 35.9 2.8 45.2-11.7 6.7-10.6 6.1-29.4 8.5-45.1 2.3-16.6 7.2-30.1 28.6-25.9z" style="opacity:.5;fill:none;stroke:#fff;stroke-width:1.1038;stroke-linecap:round;stroke-linejoin:round;stroke-miterlimit:10;enable-background:new"/><path d="M353.6-291.9c19.5 3.7 19.5 15 38 23.3 3.8 1.8 18.2-.6 21.7-3.1 4-2.9 7-6.3 9.2-9.8 10.5-17.4 3.5-40.7 12.4-62.6 6.3-15.4 20.5-27.6 39.6-28.2 25.3-.8 44.2 15.9 58.6 35.3 2.8 3.8 5.6 7.4 8 11.4 1.8 3 3.3 6.1 4.6 9.4-.7 13.7-.5 27.8 5 39.9 1.1 2.4 2.4 4.7 3.8 6.9 17.8 27.6 51.3 5.2 72.9 13.2 18.1 6.7 13.3 28.1 13.6 47.3 0 4.1.4 8.5 1.1 12.1.3 1.4.7 2.7 1.1 4.1 3.8 3.9 7.7 7.8 11.5 11.7s7.7 7.8 11.2 11.9c12.4 14.3 10.1 37.4 2.3 56.1-2.1 5-3.7 9.9-3.7 14.6.1 4.7.8 9.3.9 14 .1 3.6-.5 6.9-2.6 9.2-6 6.5-9.9 14.5-9.8 21.4v2.5c.6 38.4 9.2 82.7-36.8 97-8.5 2.7-16.2 1.2-24.3 1-6.6-.2-13.5.3-21.3 4.5-2.7 1.4-5.4 3.2-8.2 5.6-14 11.4-17.2 26.1-23.1 43.7-7.9 23.8-28.8 26.2-39.8 21.7-21.1-8.5-25.9-36.5-47.5-39.1-30.2-3.5-36.1 29.7-58.3 27.5-.9-.1-1.8-.2-2.7-.5-11.6-2.7-19.7-15.3-21.6-17.9-23-31.4-50-20.2-77.5-42.7-12.4-10.1-17-25.7-25.7-37.8-3.6-5-8.7-6.9-12.4-10.9-18.8-20.5-27.5-50.3-27.2-78 .1-11.4 1.1-22.1 4-31.9 9.2-31 7.6-60.3 19.2-89.9 4-6.1 10.3-7.2 15.5-12.1 3.7-1.9 7.6-3 11.7-3.6 15.8-2.4 33.4 2.4 42.1-11.1 6.3-9.9 5.9-27.3 8.2-42 2-15.1 6.4-27.9 26.3-24.1z" style="opacity:.5;fill:none;stroke:#fff;stroke-width:1.0815;stroke-linecap:round;stroke-linejoin:round;stroke-miterlimit:10;enable-background:new"/><path d="M360.5-278.3c17.9 3.4 18.1 13.7 35.2 21.4 3.6 1.6 16.8-.5 20.1-2.8 3.7-2.7 6.5-5.7 8.5-9.1 9.8-16 3.4-37.7 11.6-58 5.8-14.3 19-26.5 36.7-26 23.4.8 41.1 15.1 54.5 32.9 2.6 3.5 5.3 6.8 7.5 10.3 1.7 2.7 3.1 5.5 4.3 8.5-.6 12.4-.2 25.3 5 36.2 1.1 2.2 2.2 4.3 3.6 6.3 16.6 25.2 47.7 4.7 67.7 12.4 16.9 6.5 12.3 26.5 12.8 44.6 0 3.8.5 8 1.2 11.4.3 1.3.7 2.6 1.1 3.8 3.6 3.7 7.2 7.3 10.8 11s7.2 7.3 10.5 11.2c11.5 13.6 9.5 35 2.1 52.8-1.9 4.7-3.4 9.2-3.4 13.6 0 4.3.8 8.6.8 13 .1 3.3-.5 6.4-2.4 8.5-5.5 6-9.2 13.5-9.1 19.9v2.3c.4 35.8 7.9 76.8-34.9 90-7.9 2.5-15 1.2-22.5 1-6.2-.2-12.5.3-19.7 4.2-2.4 1.3-5 2.9-7.7 5-13 10.4-16.2 24-21.7 40.1-7.5 21.9-26.8 24.2-37 20.1-19.5-7.7-24.1-33.5-44-35.9-27.8-3.3-33.3 26.9-53.9 24.8-.8-.1-1.7-.2-2.4-.5-10.7-2.6-18.2-14.1-20-16.5-21.4-28.6-46.3-18.4-71.8-39.1-11.5-9.3-15.9-23.8-24.1-35-3.4-4.6-8.1-6.5-11.4-10.2-17.5-19.1-25.4-46.8-25.3-72.6 0-10.5.8-20.4 3.4-29.5 8.3-28.8 6.8-56 17.6-83.5 3.7-5.6 9.5-6.8 14.3-11.3 3.4-1.8 7-2.8 10.8-3.4 14.6-2.4 30.9 1.8 39-10.6 6-9.2 5.7-25.3 7.9-38.8 2.1-13.8 5.8-25.9 24.3-22.5z" style="opacity:.5;fill:none;stroke:#fff;stroke-width:1.0591;stroke-linecap:round;stroke-linejoin:round;stroke-miterlimit:10;enable-background:new"/><path d="M367.5-264.6c16.5 2.9 16.8 12.5 32.5 19.5 3.4 1.4 15.4-.5 18.5-2.6 3.5-2.4 6-5.3 7.9-8.3 9.1-14.7 3.3-34.6 10.8-53.3 5.3-13.1 17.5-24.4 33.9-23.8 21.7.8 38 14.3 50.4 30.4 2.4 3.1 5 6.1 7 9.3 1.5 2.4 2.8 4.9 4 7.6-.5 11.1 0 22.7 4.9 32.5 1 2 2.1 3.9 3.4 5.7 15.6 22.7 44.1 4.3 62.6 11.6 15.6 6.2 11.4 25 12 41.7.1 3.5.5 7.5 1.2 10.6.3 1.2.7 2.4 1.1 3.6 3.4 3.4 6.7 6.9 10.1 10.3 3.4 3.5 6.6 6.9 9.7 10.5 10.7 12.7 8.8 32.7 2 49.4-1.8 4.3-3.2 8.5-3.1 12.6 0 4 .6 8 .7 12.1.1 3.1-.5 6-2.3 7.9-5 5.6-8.4 12.5-8.4 18.5v2.1c.2 33.1 6.7 70.9-32.8 83.1-7.2 2.3-13.8 1.2-20.7 1.1-5.6-.2-11.5.3-18.2 3.8-2.3 1.1-4.7 2.7-7.1 4.6-12 9.5-15.1 21.7-20.3 36.5-6.9 19.9-24.6 22.2-34.2 18.5-18-6.9-22.3-30.4-40.6-32.7-25.5-3.2-30.7 24.2-49.4 22.2-.8-.1-1.5-.2-2.2-.4-9.8-2.4-16.7-12.9-18.4-15.1-19.9-25.9-42.6-16.6-66.1-35.4C305.7 21 301.5 7.7 294-2.8c-3.1-4.3-7.4-6.1-10.5-9.5-16-17.8-23.3-43.4-23.4-67.1 0-9.7.5-18.8 2.7-27.2 7.3-26.5 6-51.8 16-77.2 3.4-5.3 8.7-6.3 13.1-10.5 3.1-1.7 6.5-2.7 9.9-3.3 13.4-2.3 28.4 1.4 35.9-10.1 5.6-8.5 5.5-23.2 7.7-35.7 1.9-12.9 5-24.3 22.1-21.2z" style="opacity:.5;fill:none;stroke:#fff;stroke-width:1.0368;stroke-linecap:round;stroke-linejoin:round;stroke-miterlimit:10;enable-background:new"/><path d="M374.4-250.9c15 2.5 15.4 11.2 29.8 17.5 3.1 1.4 14-.4 16.9-2.3 3.2-2.2 5.5-4.7 7.2-7.6 8.4-13.4 3.1-31.7 10.1-48.7 4.9-12 15.9-22.2 31-21.6 19.9.8 34.8 13.6 46.2 27.9 2.3 2.8 4.6 5.4 6.5 8.2 1.4 2.1 2.6 4.3 3.7 6.7-.3 9.9.2 20 4.9 28.8.9 1.8 2 3.4 3.1 5.1 14.4 20.3 40.5 3.8 57.4 10.8 14.5 5.9 10.4 23.5 11.2 39 .1 3.2.5 7 1.2 9.8.3 1.1.6 2.2 1.1 3.3 3.1 3.3 6.3 6.5 9.3 9.7 3.1 3.3 6.2 6.5 8.9 9.9 9.8 12 8.2 30.4 1.8 46.1-1.6 4-2.9 7.9-2.9 11.6s.5 7.3.5 11.1c0 2.8-.5 5.4-2.1 7.2-4.5 5.2-7.6 11.5-7.6 17v2c0 30.4 5.4 65.1-30.7 76.1-6.6 2.1-12.6 1.1-18.9 1.1-5.2-.1-10.6.3-16.6 3.5-2.1 1-4.3 2.4-6.5 4.1-11 8.5-14 19.6-18.8 33-6.5 18-22.6 20.1-31.4 16.9-16.4-6.1-20.4-27.4-37.1-29.5-23.1-3-27.9 21.5-44.9 19.5-.7-.1-1.4-.2-2.1-.4-8.9-2.3-15.3-11.7-16.9-13.7-18.4-23.2-38.9-14.7-60.3-31.7-9.9-8-13.9-20.1-20.8-29.8-2.8-3.9-6.8-5.6-9.6-8.8-14.6-16.4-21.4-40.1-21.5-61.7-.1-8.9.2-17.2 2.1-24.9 6.4-24.3 5.3-47.6 14.4-70.9 3.1-4.8 7.9-5.9 12-9.7 2.8-1.6 5.9-2.5 9-3.1 12.3-2.3 25.9.9 32.9-9.5 5.2-7.7 5.3-21.1 7.4-32.6 2-11.4 4.4-22.1 20.1-19.4z" style="opacity:.5;fill:none;stroke:#fff;stroke-width:1.0145;stroke-linecap:round;stroke-linejoin:round;stroke-miterlimit:10;enable-background:new"/><path d="M381.3-237.4c13.5 2.1 14 10 27 15.6 2.8 1.2 12.7-.3 15.3-2.1 2.9-2 5-4.3 6.6-6.8 7.6-12.1 3.1-28.6 9.3-44 4.4-10.8 14.4-20.1 28.1-19.5 18.1.8 31.7 12.9 42.1 25.4 2.1 2.5 4.2 4.7 6 7.2 1.3 1.8 2.4 3.7 3.4 5.8-.2 8.6.4 17.4 4.9 25.1.9 1.5 1.8 3.1 3 4.5 13.3 17.9 36.9 3.4 52.3 9.9 13.3 5.6 9.5 22 10.4 36.2.1 2.9.6 6.5 1.3 9.1.3 1.1.6 2.1 1 3.1 2.9 3.1 5.7 6 8.5 9 2.8 3.1 5.6 6.1 8.2 9.2 8.9 11.1 7.6 28.2 1.6 42.7-1.4 3.6-2.6 7.2-2.7 10.6 0 3.4.4 6.7.5 10.1 0 2.5-.5 5-1.9 6.6-4 4.7-6.9 10.5-6.9 15.6v1.8c-.2 27.8 4.2 59.2-28.8 69.2-6 1.9-11.4 1.1-17.1 1.1-4.7-.1-9.6.3-15 3.1-1.9.9-3.9 2.1-6 3.6-10 7.5-13 17.4-17.5 29.4-6 16-20.5 18.2-28.5 15.3-14.9-5.3-18.6-24.3-33.6-26.4-20.8-2.8-25.2 18.8-40.5 16.9-.6-.1-1.2-.2-1.8-.4-8-2.1-13.7-10.5-15.3-12.3-17.1-20.6-35.4-13-54.8-28.2-9-7-12.8-17.9-19.1-26.7-2.5-3.6-6.1-5.2-8.7-8.1-13.2-15-19.3-36.6-19.6-56.2-.2-8.1-.2-15.5 1.5-22.6 5.4-22 4.5-43.3 12.8-64.5 2.8-4.4 7.2-5.4 10.8-8.9 2.5-1.4 5.3-2.4 8.1-2.9 11.1-2.3 23.4.4 29.8-9 4.7-7 5-19.1 7.2-29.4 2-10.3 3.9-20.3 18.1-18.1z" style="opacity:.5;fill:none;stroke:#fff;stroke-width:.9922;stroke-linecap:round;stroke-linejoin:round;stroke-miterlimit:10;enable-background:new"/><path d="M388.2-223.7c12.1 1.7 12.7 8.7 24.3 13.7 2.6 1.1 11.3-.2 13.7-1.8 2.6-1.8 4.5-3.7 6-6 6.9-10.7 2.9-25.6 8.5-39.3 4-9.7 12.9-17.9 25.3-17.2 16.3.8 28.5 12.1 38 23 1.9 2.2 3.9 4 5.4 6.1 1.1 1.5 2.2 3.2 3.1 4.9-.1 7.3.6 14.7 4.9 21.4.8 1.3 1.8 2.6 2.7 3.9 12.1 15.5 33.3 3 47.1 9.1 12.1 5.3 8.5 20.4 9.6 33.4.1 2.7.7 6 1.3 8.3.2 1 .6 1.9 1 2.7 2.6 2.8 5.3 5.6 7.9 8.3 2.6 2.8 5.1 5.6 7.4 8.5 8.1 10.3 6.9 25.8 1.4 39.4-1.3 3.3-2.4 6.5-2.4 9.5-.1 3.1.3 6.1.3 9.2 0 2.3-.4 4.4-1.7 6-3.6 4.3-6.1 9.5-6.2 14.1v1.6c-.5 25 3 53.3-26.7 62.3-5.3 1.8-10.2 1.1-15.3 1.1-4.3 0-8.6.3-13.5 2.8-1.8.8-3.5 1.8-5.3 3.1-9 6.6-11.8 15.3-16 25.9-5.6 14.1-18.5 16.1-25.6 13.7-13.3-4.4-16.9-21.3-30.1-23.2-18.6-2.6-22.7 16.1-36.3 14.2-.5-.1-1.1-.2-1.6-.3-7.1-1.9-12.3-9.3-13.7-10.9C386.4 6 370.3 12.7 352.9-.6c-8.2-6.3-11.7-16-17.5-24-2.3-3.2-5.5-4.7-7.8-7.3-11.8-13.7-17.2-33.2-17.8-50.9-.2-7.3-.5-13.9.9-20.2 4.5-19.8 3.7-39.1 11.3-58.2 2.5-4 6.3-5 9.6-8.2 2.3-1.4 4.7-2.2 7.2-2.7 9.9-2.2 20.9-.1 26.7-8.5 4.3-6.3 4.8-16.9 6.9-26.3 1.8-9.4 3-18.6 15.8-16.8z" style="opacity:.5;fill:none;stroke:#fff;stroke-width:.9699;stroke-linecap:round;stroke-linejoin:round;stroke-miterlimit:10;enable-background:new"/><path d="M395.2-210.1c10.5 1.3 11.4 7.5 21.5 11.7 2.4 1 9.9-.2 12.1-1.5 2.3-1.4 4-3.3 5.3-5.3 6.2-9.4 2.7-22.6 7.8-34.6 3.5-8.5 11.4-15.7 22.4-15 14.6.8 25.3 11.4 33.9 20.5 1.8 1.9 3.5 3.4 4.9 5.1 1.1 1.3 2 2.6 2.7 4 .1 6.1.8 12.1 4.8 17.7.8 1.1 1.6 2.2 2.5 3.3 11.1 13 29.8 2.5 42 8.2 10.8 5 7.6 18.9 8.8 30.6.2 2.4.8 5.6 1.3 7.6.2.8.6 1.7.9 2.5 2.4 2.6 4.8 5.1 7.1 7.7 2.4 2.6 4.6 5.2 6.6 7.9 7.2 9.5 6.3 23.5 1.3 36-1.1 2.9-2.1 5.8-2.1 8.5-.1 2.7.2 5.4.2 8.2 0 2.1-.4 4-1.5 5.4-3.1 3.9-5.3 8.5-5.4 12.7 0 .5 0 1-.1 1.4-.7 22.4 1.8 47.5-24.6 55.3-4.7 1.5-9 1.1-13.5 1.1-3.7.1-7.6.3-12 2.4-1.5.6-3.1 1.5-4.7 2.7-8 5.6-10.8 13-14.6 22.3-5 12.2-16.3 14-22.8 12.1-11.7-3.7-15-18.2-26.7-20.1-16-2.4-19.8 13.4-31.6 11.5-.5-.1-1-.2-1.4-.3-6.2-1.8-10.8-8.1-12.1-9.5-13.7-15.1-27.8-9.2-43-20.7-7.4-5.5-10.7-14-15.8-21.1-2.1-2.8-4.8-4.3-6.9-6.6-10.5-12.4-15.3-29.8-15.9-45.5-.3-6.5-.9-12.2.2-17.9 3.5-17.6 3-34.9 9.7-51.9 2.2-3.5 5.6-4.6 8.4-7.4 2-1.2 4.1-2.1 6.3-2.6 8.8-2.2 18.4-.6 23.6-7.9 4-5.6 4.7-14.9 6.6-23.2 1.7-8.2 2.4-16.6 13.8-15.3z" style="opacity:.5;fill:none;stroke:#fff;stroke-width:.9476;stroke-linecap:round;stroke-linejoin:round;stroke-miterlimit:10;enable-background:new"/><path d="M402.1-196.4c9.1.8 10.1 6.2 18.8 9.8 2.1.8 8.6-.1 10.5-1.2 2-1.2 3.5-2.7 4.7-4.5 5.5-8 2.7-19.6 7-30 3.1-7.4 9.8-13.5 19.5-12.9 12.7.8 22.2 10.6 29.8 18 1.6 1.5 3.1 2.7 4.4 4 .9 1 1.8 2 2.4 3.1.2 4.8 1.1 9.5 4.8 14 .7.8 1.4 1.8 2.3 2.7 9.9 10.6 26.2 2.1 36.8 7.4 9.6 4.7 6.6 17.4 8 27.8.2 2.1.8 5 1.4 6.8.2.8.6 1.5.9 2.3 2.1 2.4 4.3 4.7 6.3 7s4.1 4.8 5.9 7.2c6.3 8.7 5.6 21.2 1.1 32.7-1 2.6-1.8 5.1-1.9 7.6-.1 2.4.1 4.8.1 7.2-.1 1.8-.4 3.5-1.3 4.7-2.7 3.4-4.6 7.6-4.7 11.2 0 .5 0 .8-.1 1.3-.8 19.7.5 41.6-22.7 48.4-4 1.4-7.8 1.1-11.7 1.1-3.3.1-6.6.3-10.4 2.1-1.4.5-2.7 1.2-4.2 2.1-7 4.6-9.7 10.9-13.2 18.7-4.6 10.2-14.3 12.1-20 10.5-10.1-2.8-13.2-15.2-23.2-16.9-13.4-2.2-16.8 10.7-26.9 8.9l-1.2-.3c-5.3-1.6-9.2-6.9-10.5-8.2-12.1-12.4-24-7.4-37.3-17-6.6-4.7-9.7-12.1-14.1-18.4-1.8-2.5-4.2-3.8-6-6-9.2-10.9-13.4-26.3-14.3-40.1-.4-5.6-1.2-10.5-.4-15.6 2.6-15.4 2.2-30.7 8.1-45.5 1.9-3.1 4.8-4.1 7.2-6.6 1.8-1.1 3.6-1.9 5.5-2.4 7.6-2.2 15.9-1.1 20.6-7.5 3.6-4.9 4.4-12.8 6.3-20.1 1.7-6.6 1.7-14.4 11.7-13.4z" style="opacity:.5;fill:none;stroke:#fff;stroke-width:.9253;stroke-linecap:round;stroke-linejoin:round;stroke-miterlimit:10;enable-background:new"/><path d="M409-182.8c7.6.5 8.7 5 16.1 7.8 1.8.7 7.2 0 8.9-1s3-2.3 4-3.7c4.7-6.7 2.5-16.6 6.3-25.3 2.7-6.2 8.3-10.9 16.6-10.7 11 .4 19.1 9.8 25.7 15.6 1.4 1.2 2.8 2.1 3.9 3 .8.7 1.5 1.4 2.1 2.2.3 3.6 1.3 6.9 4.8 10.3.7.7 1.3 1.4 2.1 2.1 8.7 8.2 22.6 1.7 31.7 6.6 8.4 4.5 5.6 15.9 7.2 25 .2 1.8.8 4.6 1.4 6 .2.7.5 1.4.8 2 1.9 2.1 3.8 4.3 5.6 6.3 1.8 2.2 3.6 4.3 5.1 6.6 5.5 7.9 5 18.9.9 29.3-.8 2.2-1.5 4.4-1.7 6.6-.2 2.1 0 4.1-.1 6.2-.1 1.5-.3 3-1.1 4.1-2.2 3.1-3.8 6.6-4 9.8 0 .4-.1.8-.1 1.1-1.1 17-.8 35.7-20.6 41.4-3.4 1.2-6.6 1.1-9.9 1.2-2.8.2-5.7.3-8.8 1.8-1.1.4-2.4.9-3.6 1.7-6 3.7-8.6 8.7-11.7 15.1-4.1 8.3-12.2 10-17.1 8.8-8.5-2-11.4-12.1-19.8-13.7-11.3-2.1-14.3 7.9-22.7 6.2-.3-.1-.7-.2-1-.3-4.4-1.4-7.8-5.7-8.8-6.8-10.5-9.8-20.4-5.6-31.6-13.4-5.6-3.8-8.5-10-12.4-15.4-1.5-2.1-3.5-3.4-5-5.2-7.6-9.6-11.1-22.9-12.1-34.6-.5-4.9-1.5-8.9-1-13.2 1.7-13.2 1.4-26.5 6.5-39.2 1.6-2.7 4-3.7 6.1-5.9 1.4-1 3-1.7 4.6-2.3 6.4-2.2 13.4-1.6 17.5-6.9 3.2-4.1 4.2-10.8 6.1-16.9 1.2-5.8.6-12.9 9.1-12.3z" style="opacity:.5;fill:none;stroke:#fff;stroke-width:.9029;stroke-linecap:round;stroke-linejoin:round;stroke-miterlimit:10;enable-background:new"/><path d="M415.9-169.2c6 .5 7.4 3.7 13.4 5.9 1.6.6 5.9.1 7.3-.7s2.5-1.8 3.4-3c4-5.4 2.4-13.6 5.4-20.7 2.2-5 6.8-8.8 13.7-8.5 9.2.5 16 9.1 21.6 13 1.3.9 2.4 1.4 3.4 1.9.7.5 1.3.8 1.8 1.3.5 2.3 1.4 4.2 4.7 6.6.6.5 1.2.9 1.8 1.4 7.6 5.8 19 1.2 26.5 5.7 7.2 4.3 4.7 14.3 6.4 22.3.2 1.4.9 4.1 1.4 5.3.2.6.5 1.1.8 1.8 1.7 1.9 3.3 3.8 4.9 5.7 1.6 2 3.1 3.9 4.4 6 4.7 7.1 4.3 16.6.8 25.9-.7 1.9-1.3 3.7-1.4 5.5s-.1 3.5-.2 5.2c-.1 1.3-.3 2.5-1 3.5-1.7 2.6-3 5.6-3.3 8.3 0 .3-.1.6-.1.9-1.3 14.3-2 29.8-18.5 34.5-2.7 1-5.4 1-8.1 1.2-2.4.2-4.7.3-7.3 1.4-1 .2-2 .7-3 1.2-5 2.7-7.6 6.6-10.3 11.5-3.6 6.3-10.1 7.9-14.3 7.2-6.9-1.2-9.5-9.1-16.2-10.5-8.9-1.8-11.6 5.2-18.2 3.5-.3-.1-.5-.2-.8-.2-3.5-1.3-6.3-4.5-7.2-5.3-8.7-7.2-16.7-3.7-25.8-9.7-5-3.2-7.6-8.2-10.8-12.8-1.3-1.8-2.9-2.9-4.1-4.5-6.2-8.2-9.2-19.5-10.2-29.3-.5-4-1.9-7.2-1.7-10.9.8-10.9.7-22.2 5-32.9 1.3-2.3 3.2-3.2 4.9-5.1 1.1-.9 2.4-1.5 3.7-2.1 5.3-2.2 10.9-2.1 14.4-6.4 2.8-3.4 4-8.7 5.8-13.8 1.2-4.1-.1-10.9 7-10.3z" style="opacity:.5;fill:none;stroke:#fff;stroke-width:.8806;stroke-linecap:round;stroke-linejoin:round;stroke-miterlimit:10;enable-background:new"/><path d="M422.9-155.5c4.6-.3 6 2.4 10.6 3.9 1.4.5 4.5.2 5.7-.5 1.1-.5 2-1.3 2.7-2.2 3.3-4 2.3-10.5 4.7-15.9 1.8-3.9 5.3-6.8 10.8-6.3 7.5.7 13 8.2 17.5 10.6 1.1.6 2.1.7 2.8.9.5.2 1.1.2 1.5.4.6 1 1.6 1.6 4.7 2.9.5.2 1.1.5 1.6.8 6.3 3.4 15.4.8 21.4 4.9 6 4 3.7 12.8 5.6 19.5.2 1.1 1 3.6 1.4 4.6.2.5.5 1 .8 1.4 1.4 1.7 2.8 3.4 4.1 5 1.3 1.8 2.6 3.5 3.7 5.3 3.7 6.3 3.7 14.3.6 22.6-.5 1.5-1 3.1-1.1 4.5-.2 1.4-.2 2.8-.3 4.3-.1 1.1-.3 2.1-.8 2.8-1.2 2.1-2.2 4.6-2.5 6.9 0 .2-.1.5-.1.8-1.5 11.7-3.2 24-16.6 27.5-2.1.8-4.2 1-6.3 1.2-1.8.2-3.7.3-5.7 1.1-.8.2-1.6.4-2.4.8-4 1.7-6.4 4.3-8.9 7.9-3.1 4.4-8 6-11.4 5.6-5.3-.5-7.7-6-12.8-7.3-6.6-1.7-8.9 2.5-13.8.8-.2-.1-.4-.2-.6-.2-2.6-1.1-4.7-3.4-5.6-4-6.8-4.7-13-1.8-20.1-6-4.1-2.4-6.5-6.3-9.2-10.1-1-1.4-2.2-2.4-3.2-3.8-4.8-6.9-7.1-16-8.4-23.9-.5-3.3-2.2-5.6-2.3-8.5-.2-8.7-.1-18 3.4-26.5 1-1.8 2.4-2.8 3.7-4.3.9-.8 1.8-1.4 2.8-1.9 4-2.1 8.4-2.5 11.4-5.9 2.4-2.7 3.8-6.6 5.6-10.7 1.1-3.1-.7-8.7 5-9z" style="opacity:.5;fill:none;stroke:#fff;stroke-width:.8583;stroke-linecap:round;stroke-linejoin:round;stroke-miterlimit:10;enable-background:new"/><path d="M429.8-141.9c3.1-.6 4.7 1.1 7.9 2 1.1.3 3.1.2 4.1-.2.8-.3 1.4-.8 2.1-1.4 2.5-2.7 2.1-7.6 3.9-11.3 1.3-2.7 3.7-4.7 7.9-4.1 5.6.8 10 7.3 13.4 8.1 1 .2 1.7 0 2.3-.2.5-.2.8-.3 1.2-.5.8-.2 1.7-1.4 4.7-.8.5.1.9.1 1.4.2 5.1 1.1 11.7.5 16.2 4 4.7 3.8 2.8 11.2 4.8 16.7.2.9 1.1 3.1 1.4 3.8.2.4.5.8.8 1.2 1.2 1.4 2.3 2.9 3.4 4.3 1.1 1.5 2.1 3.1 2.9 4.7 2.9 5.5 3 12 .5 19.2-.4 1.1-.8 2.4-.9 3.5-.2 1.1-.3 2.2-.5 3.3-.2.8-.3 1.5-.6 2.2-.8 1.8-1.4 3.6-1.8 5.4 0 .2-.1.4-.1.6-1.8 9-4.5 18.1-14.5 20.6-1.5.6-3 1-4.5 1.3-1.4.3-2.7.3-4.2.8-.6 0-1.2.1-1.8.2-3.1.7-5.3 2.2-7.5 4.4-2.5 2.5-5.9 3.8-8.6 4-3.7.2-5.9-3-9.3-4.1-4.2-1.4-6.2-.2-9.4-1.8-.2-.1-.2-.2-.4-.2-1.7-.9-3.2-2.1-4-2.6-4.8-2.4-9.4.2-14.3-2.3-3.4-1.7-5.5-4.3-7.5-7.2-.8-1.1-1.6-2-2.3-3.1-3.4-5.5-5-12.7-6.5-18.5-.6-2.4-2.5-4-2.9-6.3-1.1-6.5-.8-13.8 1.8-20.2.7-1.4 1.6-2.4 2.5-3.5.6-.7 1.3-1.2 1.9-1.8 2.9-2.1 5.9-3.1 8.2-5.3 2.1-2 3.6-4.5 5.3-7.6 1.2-1.9-1.3-6.6 3-7.5z" style="opacity:.5;fill:none;stroke:#fff;stroke-width:.836;stroke-linecap:round;stroke-linejoin:round;stroke-miterlimit:10;enable-background:new"/><path d="M473.5-68.5c-4.6-1.2-8.7 1.1-13 3-4.4 1.5-8.1-2.7-10.9-5.6-3.6-3.3-7.5 1.2-11.1.2-8-2.4-9-13.1-11.8-19.8-.7-1.6-2.9-2.3-3.5-3.9-2.7-5.9-.9-13.6 2.6-18.2 3.3-4.3 6.8-5.2 10.2-9.2 1-.7-2.1-4.5.8-6 3-1.5 6.4 1.5 9.1-.5 3.1-2.5 1.5-10.2 8.2-8.5 3.9 1 6.9 6.3 9.2 5.6 3.1-.8 2.2-5 7.4-7.2 4.3-1.8 9-.5 12.3 2.8 3.4 3.7 1.9 9.7 4 13.9.2.6 1.1 2.6 1.5 3.1 6.1 7.6 9.2 14.5 5.7 24.5-1.1 3.6-1.8 7.1-2.8 10.8-2.1 6.3-5.7 12.2-12.4 13.7-.8.5-1.8 1-2.7 1.3-1-.1-1.9-.1-2.8 0z" style="opacity:.5;fill:none;stroke:#fff;stroke-width:.8137;stroke-linecap:round;stroke-linejoin:round;stroke-miterlimit:10;enable-background:new"/><path d="M0 0h1920v1280H0z" class="st2"/><path d="M2086.8 99.7c-32.7 47.1-90.1 92.8-147.8 88.3-7.2-.5-31-2.2-47.6 4.6-67.3 27.5-97.5 81.7-170.2 52.2-47.7-19.9-97.7-55.2-122.5-100.6-3.6-6.5-6.6-13.1-9-20-2.5-13.4-4.7-29.3-16.1-36.1-104.4-72.7-124.9-224.8-43.1-313.3 4.3-4.8 8.8-9 13.6-12.5 15.9-10.2 34-19.3 40.9-35.2 14.8-37.5 43.7-66.9 77.8-80.6 6.8-2.7 13.8-4.8 21-6.2 12.5-4 28.4.5 39.7-8.6 51.6-30.5 104.8-32.3 148.4-11.1 6.3 3 12.2 6.5 17.9 9.6 74.5-2.2 156.9 33 181.8 99.2 2.8 7.3 4.9 14.9 7.9 21.3 41.4 35.5 50.5 90 39.1 142.2 2 6.3 3.9 12.8 5.4 19.3 14.1 58.6 8.8 122.5-26.4 173.2-3.5 5-7.1 9.8-10.8 14.3z" class="st20"/><path d="M1597.9-255c14.5-35.3 41.4-63.5 73.7-76.3 6.4-2.6 13.2-4.2 19.9-5.9 12.1-3.1 26.9.5 37.6-8.1 48.9-28.8 99.3-30.6 140.5-10.6 5.9 2.9 11.6 6.2 16.9 9 70.6-2.1 148.7 31.2 172.2 93.9 2.6 7 4.6 14.1 7.4 20.2 39.2 33.6 47.8 85.3 37 134.7 1.9 6 3.6 12.1 5.2 18.3 13.5 55.5 8.3 116-25 164.1-3.2 4.7-6.9 9.1-10.2 13.6-32.5 43.5-85.3 87.6-140 83.6-6.9-.5-29.3-1.9-45.1 4.5-63.6 26.1-92.6 77.5-161.2 49.3-45.2-18.6-92.5-52.3-116-95.2-3.3-6.1-6.3-12.4-8.5-19-2.3-12.7-4.7-27.4-15.2-34.2-101.2-65.5-117.4-212.1-40.9-296.8 4.1-4.6 8.3-8.7 12.9-11.8 14.9-10.2 32.6-18.2 38.8-33.3z" class="st20"/><path d="M1610.9-237.3c13.7-33.3 39.1-59.9 69.6-72.1 6.1-2.5 12.4-3.9 18.8-5.6 11.4-2.9 25.4.5 35.6-7.7 46.2-27.2 93.8-28.9 132.7-10 5.6 2.7 11 5.8 16 8.6 66.6-2 140.4 29.5 162.6 88.7 2.5 6.6 4.4 13.4 7 19.1 37 31.8 45.1 80.5 34.9 127.2 1.9 5.7 3.5 11.4 4.9 17.2 12.7 52.4 7.9 109.5-23.6 154.9-3.1 4.4-6.5 8.6-9.7 12.8-30.7 41.1-80.6 82.3-132.2 78.9-6.6-.5-27.7-1.7-42.5 4.3-60 24.6-87.6 73-152.2 46.5-42.8-17.5-87.4-49.3-109.5-89.9-3.2-5.8-5.9-11.8-8-17.9-2.2-12-4.4-25.8-14.4-32.2-95.6-61.8-110.8-200.2-38.6-280.2 3.9-4.3 7.8-8.2 12.2-11.2 13.8-9.5 30.5-17.1 36.4-31.4z" class="st20"/><path d="M1623.9-219.5c12.9-31.3 36.8-56.4 65.4-67.8 5.7-2.3 11.8-3.7 17.6-5.3 10.7-2.8 23.9.5 33.5-7.2 43.4-25.7 88.2-27.2 124.9-9.4 5.3 2.6 10.3 5.5 15.1 8 62.7-1.9 132 27.8 152.9 83.4 2.3 6.2 4.1 12.6 6.6 17.9 34.8 29.8 42.4 75.8 32.9 119.7 1.7 5.3 3.2 10.7 4.6 16.2 11.9 49.3 7.4 103.1-22.2 145.7-2.9 4.2-6.1 8.1-9 12.1-28.8 38.7-75.8 77.2-124.4 74.3-6.3-.4-26.1-1.5-40 4.3-56.4 23.1-82.6 68.5-143.2 43.5-40.2-16.5-82.2-46.5-103.1-84.6-3-5.5-5.6-11.1-7.6-16.9-2.1-11.3-4.2-24.3-13.5-30.4-89.9-58.1-104.2-188.3-36.3-263.6 3.6-4 7.3-7.7 11.4-10.5 13.1-8.9 28.8-16 34.4-29.4z" class="st20"/><path d="M1636.8-201.8c12.1-29.4 34.5-52.8 61.3-63.5 5.3-2.2 11-3.5 16.5-4.9 10.1-2.6 22.4.4 31.4-6.7 40.7-24 82.6-25.5 117-8.8 4.9 2.4 9.7 5.1 14.1 7.6 58.8-1.8 123.8 26 143.3 78.2 2.2 5.8 3.9 11.8 6.2 16.8 32.6 28 39.8 71 30.8 112.1 1.6 5 3 10.1 4.3 15.2 11.2 46.2 7 96.6-20.8 136.5-2.7 3.9-5.7 7.6-8.5 11.3-27.1 36.2-71.1 72-116.6 69.6-6-.3-24.4-1.2-37.5 4.1-52.8 21.7-77.6 64-134.2 40.7-37.6-15.5-77-43.5-96.6-79.2-2.8-5.1-5.2-10.4-7.1-15.8-1.9-10.5-3.9-22.8-12.7-28.4-84.3-54.5-97.6-176.5-34-247 3.4-3.8 6.9-7.2 10.7-9.9 12.5-8.6 27.2-15.3 32.4-27.9z" class="st20"/><path d="M1649.8-184.1c11.3-27.4 32.2-49.2 57.2-59.3 5-2 10.2-3.2 15.5-4.6 9.4-2.4 20.9.4 29.2-6.3 38-22.4 77.2-23.8 109.2-8.2 4.6 2.2 9 4.8 13.1 7 54.8-1.6 115.4 24.3 133.7 72.9 2 5.4 3.6 11 5.8 15.7 30.5 26.1 37.1 66.2 28.8 104.6 1.5 4.6 2.9 9.4 4 14.2 10.4 43.1 6.5 90.1-19.4 127.4-2.6 3.6-5.3 7-8 10.5-25.2 33.8-66.3 66.7-108.7 64.9-5.7-.2-22.7-1-34.9 4-49.2 20.3-72.6 59.5-125.2 37.8-35.1-14.5-71.8-40.6-90.1-74-2.6-4.8-4.9-9.7-6.6-14.8-1.8-9.8-3.6-21.3-11.8-26.5-78.5-50.8-91.1-164.7-31.7-230.5 3.2-3.5 6.4-6.7 10.1-9.2 11.2-7.5 25-13.7 29.8-25.6z" class="st20"/><path d="M1662.8-166.3c10.4-25.4 29.8-45.7 53.1-55 4.6-1.9 9.5-3 14.3-4.3 8.7-2.2 19.4.4 27.1-5.9 35.3-20.8 71.6-22.1 101.4-7.7 4.3 2.1 8.3 4.4 12.2 6.6 50.9-1.5 107.2 22.5 124.1 67.6 1.9 5 3.3 10.2 5.3 14.5 28.2 24.3 34.4 61.5 26.7 97.1 1.4 4.3 2.6 8.7 3.7 13.2 9.7 40 6 83.6-18 118.2-2.4 3.4-4.9 6.6-7.3 9.8-23.4 31.3-61.6 61.5-100.9 60.3-5.4-.2-21.1-.8-32.4 3.9-45.6 18.8-67.6 55-116.3 34.9-32.6-13.5-66.6-37.6-83.6-68.7-2.4-4.4-4.5-9-6.2-13.7-1.7-9.1-3.4-19.7-11-24.7-72.9-47.2-84.6-152.8-29.5-213.9 2.9-3.2 6-6.3 9.3-8.5 10.7-7 23.5-12.8 28-23.7z" class="st20"/><path d="M1675.8-148.5c9.7-23.4 27.5-42.2 48.9-50.8 4.3-1.7 8.7-2.8 13.2-3.9 8-2.1 17.9.3 25-5.4 32.5-19.2 66-20.3 93.5-7 3.9 1.9 7.7 4.1 11.3 6 46.9-1.4 98.9 20.8 114.5 62.5 1.7 4.6 3.1 9.4 4.9 13.5 26.1 22.3 31.8 56.7 24.6 89.6 1.3 4 2.4 8 3.4 12.1 8.9 37 5.6 77.2-16.6 109.1-2.2 3.1-4.6 6-6.8 9-21.6 28.9-56.9 56.4-93.1 55.6-5.1-.1-19.5-.5-29.8 3.7-42 17.3-62.5 50.5-107.3 32.1-30.1-12.4-61.5-34.8-77.2-63.3-2.2-4.1-4.2-8.3-5.6-12.6-1.5-8.4-3.1-18.2-10.1-22.7-67.3-43.5-78-141-27.1-197.3 2.7-3 5.5-5.7 8.6-7.9 9.7-6.9 21.5-12.2 25.7-22.3z" class="st20"/><path d="M1688.7-130.8c8.8-21.5 25.2-38.7 44.8-46.5 3.9-1.5 8-2.6 12.1-3.6 7.3-1.9 16.4.3 23-4.9 29.8-17.5 60.5-18.6 85.6-6.4 3.6 1.8 7 3.8 10.4 5.5 43-1.3 90.5 19 104.8 57.2 1.6 4.3 2.9 8.7 4.6 12.3 23.9 20.5 29.1 52 22.6 82 1.2 3.6 2.2 7.4 3.2 11.1 8.2 33.8 5.1 70.7-15.2 99.9-2 2.9-4.2 5.6-6.2 8.3-19.8 26.5-52.1 51.2-85.3 50.9-4.8-.1-17.9-.3-27.3 3.6-38.3 15.8-57.6 45.9-98.3 29.1-27.5-11.4-56.4-31.9-70.7-58-2-3.7-3.8-7.6-5.2-11.6-1.4-7.7-2.9-16.7-9.3-20.8-61.6-39.9-71.4-129.1-24.9-180.7 2.5-2.8 5-5.3 7.9-7.2 8.8-6 19.6-10.9 23.4-20.2z" class="st20"/><path d="M1701.7-113c8-19.5 22.9-35.1 40.7-42.2 3.6-1.4 7.3-2.3 11-3.2 6.6-1.7 14.9.3 20.8-4.5 27.1-15.9 55-16.9 77.8-5.9 3.2 1.6 6.4 3.4 9.4 5 39-1.2 82.3 17.3 95.2 52 1.5 3.9 2.6 7.8 4.1 11.1 21.6 18.6 26.4 47.2 20.5 74.5 1.1 3.3 2 6.7 2.9 10.1 7.4 30.7 4.6 64.2-13.8 90.8-1.8 2.6-3.8 5-5.6 7.5-18 24-47.4 46.1-77.5 46.2-4.5 0-16.2-.1-24.7 3.5-34.8 14.4-52.6 41.4-89.4 26.3-25-10.3-51.2-28.9-64.2-52.6-1.9-3.4-3.5-6.9-4.7-10.5-1.3-7-2.6-15.2-8.4-18.9-56-36.2-64.9-117.3-22.6-164.1 2.2-2.5 4.6-4.8 7.1-6.6 8.1-5.7 18-10.1 21.4-18.5z" class="st20"/><path d="M1714.7-95.2c7.2-17.5 20.6-31.5 36.6-38 3.2-1.3 6.6-2.1 9.9-2.9 6-1.5 13.4.2 18.7-4 24.4-14.4 49.4-15.2 69.9-5.3 2.9 1.4 5.8 3.1 8.4 4.5 35.1-1.1 73.9 15.5 85.7 46.7 1.3 3.5 2.3 7 3.7 10.1 19.5 16.7 23.7 42.4 18.4 67 .9 3 1.9 6 2.6 9.1 6.6 27.6 4.2 57.8-12.4 81.6-1.6 2.3-3.4 4.6-5.1 6.7-16.2 21.6-42.7 41-69.7 41.6-4.2.1-14.5.2-22.2 3.3-31.2 13-47.5 37-80.4 23.4-22.5-9.3-46-26-57.7-47.4-1.7-3-3.1-6.2-4.3-9.4-1.2-6.3-2.3-13.6-7.6-17-50.3-32.5-58.4-105.4-20.3-147.6 2-2.2 4.1-4.3 6.4-5.9 7.4-5 16.3-9 19.4-16.5z" class="st20"/><path d="M1727.7-77.5c6.4-15.5 18.2-28 32.5-33.7 2.9-1.2 5.8-1.9 8.7-2.6 5.3-1.4 11.9.2 16.6-3.6 21.6-12.8 43.8-13.5 62.1-4.6 2.6 1.2 5.1 2.7 7.5 4 31.2-.9 65.6 13.8 76 41.4 1.2 3.1 2.1 6.3 3.3 8.9 17.3 14.8 21.1 37.6 16.3 59.5.9 2.6 1.6 5.3 2.2 8 6 24.5 3.7 51.3-11.1 72.4-1.5 2.1-3 4-4.5 6-14.4 19.2-38 35.9-61.8 37-3.9.2-12.9.4-19.6 3.2-27.5 11.5-42.5 32.4-71.4 20.6-19.9-8.2-40.8-23-51.3-42.1-1.5-2.7-2.8-5.5-3.8-8.3-1-5.6-2.1-12.1-6.7-15.1-44.7-28.9-51.8-93.6-18-131 1.8-2 3.6-3.8 5.7-5.3 6.7-4.4 14.5-8 17.3-14.7z" class="st20"/><path d="M1740.6-59.7c5.6-13.6 15.9-24.4 28.4-29.5 2.5-1 5.1-1.6 7.7-2.2 4.6-1.2 10.4.2 14.5-3.1 18.9-11.1 38.3-11.8 54.2-4.1 2.2 1.1 4.5 2.4 6.6 3.5 27.2-.8 57.4 12.1 66.4 36.2 1 2.7 1.8 5.5 2.9 7.8 15.1 13 18.4 32.9 14.3 52 .8 2.3 1.4 4.6 2 7 5.2 21.4 3.2 44.8-9.7 63.2-1.2 1.8-2.6 3.5-3.9 5.3-12.5 16.8-33.2 30.8-54 32.2-3.6.2-11.3.6-17.1 3.1-23.9 10.1-37.6 27.9-62.5 17.6-17.5-7.2-35.6-20.2-44.8-36.7-1.3-2.4-2.4-4.8-3.3-7.3-.9-4.9-1.8-10.5-5.9-13.1-39-25.2-45.2-81.8-15.8-114.4 1.5-1.8 3.2-3.3 4.9-4.6 5.9-4 12.7-7.1 15.1-12.9z" class="st20"/><path d="M1753.5-42c4.8-11.6 13.7-21 24.3-25.2 2.2-.9 4.3-1.4 6.6-1.9 3.9-1 8.9.2 12.4-2.7 16.2-9.5 32.8-10.1 46.4-3.5 1.9.9 3.8 2 5.6 3 23.3-.7 49 10.3 56.7 31 .9 2.3 1.5 4.6 2.5 6.6 12.9 11.1 15.8 28.1 12.2 44.5.6 2 1.2 4 1.7 6 4.4 18.3 2.8 38.3-8.3 54.1-1.1 1.5-2.2 3-3.4 4.5-10.7 14.3-28.4 25.7-46.2 27.6-3.3.3-9.6.9-14.5 2.9-20.3 8.6-32.5 23.4-53.5 14.8-14.9-6.1-30.5-17.2-38.3-31.4-1.1-2-2.1-4.1-2.8-6.3-.8-4.2-1.5-9-5-11.3-33.4-21.6-38.7-69.9-13.5-97.9 1.3-1.5 2.7-2.9 4.3-3.9 5-3.2 10.8-5.9 12.8-10.9z" class="st20"/><path d="M1766.5-24.3c3.9-9.7 11.4-17.4 20.2-20.9 1.8-.7 3.6-1.2 5.4-1.6 3.3-.9 7.3.2 10.3-2.2 13.4-7.9 27.2-8.4 38.5-2.9 1.6.8 3.2 1.7 4.6 2.5 19.3-.5 40.7 8.6 47.2 25.7.7 1.9 1.2 3.9 2 5.6 10.7 9.2 13.1 23.3 10.1 36.9.5 1.6 1 3.3 1.4 5 3.7 15.2 2.3 31.8-6.9 44.9-.9 1.3-1.9 2.5-2.8 3.7-8.9 11.9-23.7 20.8-38.3 22.9-3 .5-8 1.2-12 2.9-16.7 7.1-27.5 18.9-44.5 11.9-12.4-5.1-25.4-14.3-31.8-26.1-.9-1.7-1.7-3.4-2.3-5.2-.6-3.5-1.3-7.5-4.2-9.4-27.7-17.9-32.2-58.1-11.2-81.3 1.1-1.2 2.2-2.4 3.6-3.2 4.2-2.7 9-5 10.7-9.2z" class="st20"/><path d="M1779.5-6.5c3.2-7.7 9-13.8 16.1-16.6 1.4-.5 2.9-.9 4.3-1.3 2.6-.7 5.9.1 8.2-1.8 10.7-6.3 21.6-6.6 30.6-2.3 1.3.6 2.6 1.3 3.7 2 15.4-.5 32.4 6.8 37.6 20.5.5 1.5 1 3.1 1.6 4.4 8.6 7.3 10.4 18.6 8 29.4.4 1.3.8 2.6 1.2 4 2.9 12.1 1.9 25.3-5.5 35.8-.7 1-1.5 2-2.2 2.9-7.1 9.5-18.9 15.9-30.5 18.2-2.7.5-6.3 1.4-9.4 2.7-13.1 5.6-22.5 14.4-35.6 9-9.9-4.1-20.2-11.4-25.3-20.8-.7-1.3-1.4-2.7-1.9-4.2-.5-2.8-1-6-3.3-7.4-22-14.3-25.6-46.2-8.9-64.7.9-1 1.8-1.9 2.8-2.6 3.3-2.2 7.1-3.9 8.5-7.2z" class="st20"/><path d="M1869.5 68.5c-5 7.3-14.1 11.1-22.7 13.5-12.7 3.7-22.3 13.3-33.5 8.7-7.3-3-15-8.5-18.8-15.5-.5-1-1-2-1.4-3.1-.4-2.1-.7-4.5-2.5-5.6-16.1-11.1-19.2-34.6-6.6-48.2.6-.8 1.4-1.4 2.1-1.9 2.5-1.5 5.3-2.9 6.3-5.4 2.2-5.7 6.7-10.3 12-12.4 1.1-.4 2.1-.8 3.2-.9 1.9-.6 4.3.1 6.1-1.3 8-4.7 16.1-4.9 22.8-1.7.9.5 1.9 1 2.8 1.5 11.4-.3 24.1 5.1 27.9 15.2.4 1.2.8 2.3 1.2 3.2 6.3 5.5 7.7 13.8 6 21.9.3 1 .6 1.9.9 2.9 2.2 9 1.4 18.8-4 26.6-.6 1.1-1.2 1.8-1.8 2.5z" class="st20"/><path d="M0 0h1920v1280H0z" class="st2"/><path d="M-341.9 923.2c-25.1-52.7-36.6-126.5-3.5-175.2 4.2-6.1 12.5-9.7 14.6-17 19.8-71.2-17.7-154.8 45.1-204.1 41.6-32.1 98-58.5 150.6-57.5 7.5.2 15 .8 22.3 2.1 13 4.6 28.2 10.6 40 4 116.9-55.7 261.6 3 298.6 119.9 2.1 6.2 3.5 12.4 4.2 18.4 1 19.1-.2 39.8 10.5 53.9 25.7 31.9 37.2 72.4 32 109.4-1 7.4-2.7 14.7-5.1 21.7-2.8 13-14.8 24.8-12.5 39.5.8 61-24.3 108.9-65 136.8-5.8 4-11.9 7.5-17.5 11C136.8 1052.9 64 1108-6.9 1096.6c-7.9-1.3-15.7-3.2-22.8-3.8-52.3 18.6-105-.8-145.4-37.2-6.6-1.4-13.3-3-19.8-4.9-59-17-112.8-54-139.7-110.6-2.7-5.7-5.1-11.3-7.3-16.9z" class="st21"/><path d="M224.1 622.9c1.5 18.1-.3 37.9 9.9 51 23.9 30.6 35.2 68.5 30.3 103.6-.9 7-3 13.7-4.8 20.5-3.4 12.2-14 23.6-11.9 37.4.8 57.8-23 103.2-61.6 129.5-5.5 3.7-11.3 7.1-16.6 10.4-33.7 63.4-102.6 115.6-169.8 104.8-7.5-1.2-14.8-3-21.6-3.6-49.5 17.6-99.5-.8-137.7-35.2-6.3-1.4-12.5-2.9-18.8-4.7-55.8-16.1-106.7-51.2-132.3-104.8-2.5-5.3-4.6-10.7-6.9-15.8-22-50.7-34.6-119.8-3.3-165.9 3.9-5.8 11.9-9.1 13.8-16.1 18.8-67.4-16.9-146.9 42.7-193.3 39.3-30.6 92.8-55.4 142.7-54.5 7.1.2 14.1.8 21.1 2 12.4 4.3 26.5 9.7 37.9 3.8 108.9-56.4 246.5 3.2 282.9 113.5 2 5.9 3.5 11.6 4 17.4z" class="st21"/><path d="M218.3 632c1.4 17.1-.3 35.7 9.4 48.1 22.5 28.9 33.2 64.7 28.6 97.8-.9 6.6-2.8 13-4.6 19.4-3.1 11.5-13.2 22.2-11.2 35.2.8 54.6-21.8 97.4-58.1 122.3-5.2 3.6-10.7 6.8-15.7 9.8-31.9 59.9-96.8 109.2-160.3 98.9-7-1.1-14.1-2.9-20.4-3.4-46.7 16.7-93.9-.8-130-33.2-5.9-1.3-11.9-2.7-17.7-4.4-52.7-15.2-100.8-48.3-125-98.9-2.4-5-4.3-10.1-6.4-15-20.8-47.9-32.7-113.1-3.1-156.6 3.7-5.4 11.2-8.6 13-15.2 17.7-63.7-16-138.7 40.3-182.5 37.1-28.9 87.7-52.3 134.7-51.4 6.7.1 13.4.8 19.9 1.9 11.7 4.1 25.1 9.1 35.7 3.6 102.8-53.3 232.8 3 267 107.2 1.9 5.5 3.5 11 3.9 16.4z" class="st21"/><path d="M212.4 641.1c1.4 16.1-.3 33.6 8.8 45.3 21.2 27.2 31.3 60.9 26.9 92-.8 6.2-2.6 12.2-4.3 18.2-3 10.8-12.5 20.9-10.5 33.2.8 51.3-20.4 91.7-54.6 115.1-4.9 3.3-10 6.4-14.7 9.2-30 56.3-91.2 102.7-150.9 93.1-6.6-1.1-13.2-2.7-19.1-3.2-44 15.7-88.4-.7-122.3-31.3-5.6-1.2-11.2-2.5-16.7-4.2-49.6-14.3-94.9-45.4-117.6-93.1-2.2-4.7-4.1-9.5-6.1-14.1-19.6-45-30.8-106.4-3-147.4 3.5-5.1 10.5-8.1 12.3-14.3 16.7-59.9-15.1-130.5 38-171.7 34.9-27.2 82.5-49.2 126.7-48.5 6.4.1 12.5.7 18.7 1.8 11 3.9 23.6 8.6 33.6 3.4 96.7-50.2 219 2.9 251.3 100.9 1.8 5.4 3.1 10.5 3.5 15.6z" class="st21"/><path d="M206.6 650.2c1.3 15.1-.3 31.5 8.2 42.4 19.8 25.5 29.3 57.1 25.2 86.2-.8 5.8-2.5 11.4-4 17.1-2.8 10.2-11.7 19.6-9.8 31.1.7 48.1-19.1 85.9-51.3 107.8-4.6 3.1-9.4 5.9-13.8 8.6-28 52.8-85.4 96.2-141.4 87.3-6.2-1-12.4-2.5-18-3-41.2 14.7-82.8-.7-114.6-29.3-5.3-1.1-10.4-2.4-15.6-3.9-46.5-13.5-88.9-42.6-110.1-87.3-2-4.4-3.8-8.9-5.7-13.2-18.4-42.2-28.8-99.7-2.7-138.1 3.2-4.8 9.8-7.6 11.4-13.4 15.7-56.2-14.1-122.2 35.5-161 32.7-25.5 77.3-46.1 118.8-45.4 5.9.1 11.8.7 17.5 1.7 10.3 3.6 22.1 8 31.5 3.1 90.6-46.9 205.3 2.7 235.4 94.5 1.8 5.3 3.1 10.1 3.5 14.8z" class="st21"/><path d="M200.7 659.4c1.2 14.1-.3 29.4 7.7 39.6 18.6 23.8 27.4 53.3 23.6 80.5-.8 5.4-2.3 10.7-3.7 15.9-2.6 9.5-10.8 18.3-9.1 29.1.7 44.9-17.9 80.1-47.8 100.6-4.2 3-8.8 5.5-12.9 8-26.2 49.2-79.6 89.8-131.9 81.4-5.8-.9-11.5-2.4-16.8-2.8-38.5 13.7-77.2-.6-106.9-27.4-4.9-1-9.7-2.2-14.6-3.6-43.4-12.5-82.9-39.7-102.8-81.4-1.9-4.1-3.6-8.3-5.3-12.4-17.1-39.3-26.9-93-2.5-128.8 3-4.5 9.2-7.1 10.7-12.5 14.6-52.4-13.1-114 33.1-150.1 30.5-23.7 72.1-43 110.8-42.4 5.5.1 11 .6 16.3 1.6 9.6 3.4 20.6 7.5 29.4 3 84.5-43.8 191.5 2.5 219.7 88.2 1.5 4.5 2.7 9 3 13.5z" class="st21"/><path d="M195 668.5c1.1 13-.3 27.3 7.1 36.8 17.2 22 25.3 49.4 21.9 74.6-.7 5.1-2.1 9.9-3.5 14.8-2.4 8.8-10.1 16.9-8.6 26.9.6 41.7-16.6 74.4-44.4 93.4-4 2.7-8.1 5.2-11.9 7.5-24.3 45.7-74 83.4-122.4 75.5-5.4-.8-10.7-2.2-15.6-2.6-35.7 12.7-71.7-.6-99.3-25.4-4.6-.9-9.1-2.1-13.6-3.4-40.2-11.6-76.9-36.9-95.4-75.6-1.8-3.8-3.3-7.7-4.9-11.4-15.9-36.5-25-86.3-2.4-119.5 2.8-4.2 8.6-6.6 9.9-11.6 13.6-48.6-12.2-105.8 30.8-139.4 28.3-22 66.9-39.9 102.8-39.3 5.2.1 10.2.6 15.2 1.4 8.9 3.1 19.1 6.9 27.3 2.7 78.4-40.7 177.7 2.4 203.8 81.8 1.7 4.5 2.8 8.7 3.2 12.8z" class="st21"/><path d="M189.1 677.6c1 12-.3 25.2 6.6 33.9 15.8 20.3 23.4 45.6 20.2 68.9-.7 4.7-1.9 9.1-3.2 13.6-2.2 8.1-9.3 15.7-7.9 24.8.5 38.5-15.3 68.6-40.9 86.2-3.6 2.5-7.5 4.7-11 6.9-22.4 42.2-68.2 76.8-112.9 69.6-5-.8-9.9-2-14.4-2.4-32.9 11.9-66.1-.4-91.6-23.3-4.2-.8-8.4-1.9-12.5-3.1-37.1-10.8-71-34-88-69.7-1.7-3.5-3-7.1-4.6-10.6-14.7-33.7-23-79.6-2.2-110.3 2.6-3.8 7.9-6.1 9.1-10.7 12.5-44.8-11.3-97.7 28.4-128.5 26.1-20.3 61.8-36.9 94.9-36.3 4.7.1 9.4.5 14 1.4 8.2 2.9 17.6 6.4 25.2 2.5 72.3-37.5 163.9 2.1 188.1 75.5 1.4 4 2.4 7.8 2.7 11.6z" class="st21"/><path d="M183.3 686.8c.9 11-.2 23 6 31.1 14.6 18.6 21.4 41.8 18.5 63.1-.6 4.2-1.8 8.4-3 12.5-2 7.5-8.6 14.3-7.2 22.8.5 35.2-14 62.9-37.5 78.9-3.4 2.3-6.9 4.3-10.1 6.4-20.5 38.6-62.4 70.4-103.4 63.8-4.6-.8-9.1-1.9-13.1-2.2-30.2 10.8-60.6-.5-83.9-21.4-3.8-.8-7.6-1.8-11.4-2.9-34-9.8-65.1-31.2-80.6-63.8-1.5-3.2-2.8-6.5-4.2-9.7-13.4-30.8-21.1-72.9-2-101.1 2.4-3.5 7.2-5.6 8.4-9.8 11.4-41.1-10.3-89.5 26-117.8 23.9-18.6 56.5-33.7 86.9-33.2 4.3.1 8.6.5 12.9 1.3 7.5 2.6 16.2 5.8 23 2.3 66.3-34.4 150.1 1.9 172.2 69.1 1.2 3.5 2.2 7.1 2.5 10.6z" class="st21"/><path d="M177.5 695.8c.8 10-.2 20.9 5.5 28.2 13.2 16.9 19.5 38 16.8 57.3-.5 3.9-1.6 7.6-2.7 11.4-1.9 6.8-7.7 13-6.5 20.7.4 31.9-12.7 57.1-34.1 71.7-3 2.1-6.3 4-9.1 5.8-18.6 35.1-56.8 64-93.9 57.9-4.2-.7-8.2-1.7-11.9-2-27.4 9.7-55-.4-76.2-19.5-3.5-.8-6.9-1.6-10.4-2.6-30.9-8.9-59-28.3-73.2-57.9-1.4-2.9-2.5-5.9-3.8-8.8-12.2-28-19.1-66.2-1.9-91.7 2.2-3.2 6.5-5.1 7.6-8.9 10.4-37.3-9.4-81.2 23.6-106.9 21.7-16.9 51.3-30.7 79-30.2 3.9.1 7.8.4 11.7 1.1 6.9 2.4 14.7 5.3 20.9 2.1 60.2-31.2 136.4 1.8 156.5 62.8 1 3.2 1.8 6.4 2.1 9.5z" class="st21"/><path d="M171.6 705c.8 9-.2 18.8 4.9 25.3 11.9 15.2 17.5 34.1 15.1 51.5-.5 3.5-1.4 6.9-2.4 10.2-1.7 6.1-6.9 11.7-5.8 18.6.4 28.7-11.4 51.3-30.6 64.5-2.7 1.9-5.6 3.6-8.2 5.2-16.8 31.5-51 57.5-84.5 52.1-3.7-.6-7.4-1.5-10.8-1.8-24.6 8.8-49.5-.4-68.4-17.5-3.1-.7-6.3-1.4-9.3-2.3-27.8-8-53.1-25.4-65.8-52.1-1.3-2.6-2.3-5.3-3.4-7.9-10.9-25.2-17.2-59.6-1.6-82.5 1.9-2.9 5.9-4.6 6.9-8 9.3-33.5-8.4-73 21.3-96.1 19.6-15.2 46.2-27.5 71-27.1 3.6.1 7 .4 10.5 1 6.2 2.2 13.2 4.8 18.8 1.9 54.1-28 122.6 1.6 140.6 56.5.7 2.8 1.5 5.6 1.7 8.5z" class="st21"/><path d="M165.8 714.1c.7 8-.2 16.7 4.4 22.5 10.5 13.5 15.5 30.2 13.4 45.7-.4 3-1.3 6.1-2.1 9.1-1.4 5.4-6.2 10.4-5.3 16.5.3 25.5-10.2 45.6-27.2 57.2-2.5 1.7-5 3.1-7.3 4.6-14.9 28-45.3 51.1-75 46.3-3.3-.5-6.5-1.4-9.6-1.6-21.8 7.8-43.8-.3-60.7-15.6-2.8-.6-5.5-1.3-8.3-2-24.7-7.1-47.1-22.6-58.5-46.3-1.1-2.3-2-4.7-3-7-9.7-22.4-15.2-52.9-1.4-73.2 1.7-2.5 5.3-4.1 6.1-7.1 8.3-29.7-7.5-64.8 18.8-85.3 17.4-13.5 41-24.5 62.9-24.1 3.1.1 6.3.3 9.3.9 5.4 1.9 11.7 4.2 16.7 1.7 48-24.9 108.9 1.4 124.9 50.2 1 2.4 1.7 5 1.9 7.5z" class="st21"/><path d="M159.9 723.2c.6 6.9-.1 14.6 3.8 19.7 9.2 11.8 13.6 26.4 11.7 40-.3 2.7-1.2 5.3-1.9 7.9-1.3 4.7-5.4 9.1-4.6 14.4.3 22.3-8.9 39.8-23.7 50-2.1 1.4-4.3 2.8-6.4 4-13 24.5-39.6 44.6-65.5 40.4-2.9-.4-5.8-1.2-8.3-1.4-19.1 6.8-38.4-.3-53.1-13.6-2.5-.5-4.8-1.1-7.2-1.8-21.5-6.2-41.2-19.7-51-40.4-.9-2-1.8-4.2-2.6-6.1-8.5-19.6-13.4-46.2-1.3-64 1.5-2.2 4.6-3.6 5.3-6.2 7.3-26-6.5-56.6 16.4-74.5 15.1-11.9 35.7-21.4 55-21.1 2.7.1 5.4.3 8.1.8 4.7 1.7 10.3 3.7 14.6 1.4 42-21.8 95 1.3 109.1 43.8.9 2.3 1.4 4.5 1.6 6.7z" class="st21"/><path d="M154.2 732.3c.5 6-.1 12.5 3.3 16.9 7.9 10.1 11.6 22.6 10 34.1-.3 2.3-1 4.6-1.6 6.8-1.1 4.1-4.7 7.8-3.9 12.3.3 19.1-7.6 34.1-20.3 42.7-1.8 1.3-3.7 2.4-5.5 3.5-11.1 20.9-33.8 38.1-56 34.6-2.5-.4-4.9-1-7.1-1.2-16.3 5.8-32.8-.3-45.4-11.6-2.1-.4-4.2-.9-6.2-1.5-18.4-5.3-35.2-16.9-43.6-34.6-.8-1.7-1.5-3.6-2.3-5.3-7.3-16.7-11.4-39.5-1.1-54.7 1.3-1.9 3.9-3 4.6-5.3 6.2-22.3-5.6-48.5 14.1-63.7 13-10.1 30.6-18.3 47-18 2.4 0 4.7.3 6.9.7 4.1 1.4 8.7 3.2 12.5 1.3 35.9-18.6 81.3 1.1 93.3 37.4.6 1.8 1.1 3.8 1.3 5.6z" class="st21"/><path d="M148.3 741.5c.4 5-.1 10.3 2.7 14 6.5 8.4 9.7 18.8 8.3 28.4-.3 1.9-.8 3.7-1.4 5.6-.9 3.3-3.8 6.4-3.2 10.3.3 15.8-6.3 28.3-16.9 35.5-1.5 1-3.1 1.9-4.6 2.9-9.2 17.4-28.1 31.7-46.5 28.7-2-.3-4.1-.8-5.9-1-13.6 4.8-27.2-.2-37.7-9.7-1.7-.3-3.5-.8-5.2-1.3-15.3-4.4-29.2-14-36.3-28.7-.7-1.4-1.3-2.9-1.9-4.3-6-13.9-9.4-32.9-.8-45.5 1.1-1.6 3.2-2.5 3.8-4.4 5.2-18.5-4.7-40.2 11.7-52.9 10.8-8.4 25.4-15.2 39.1-14.9 1.9 0 3.9.3 5.8.6 3.4 1.2 7.3 2.6 10.3 1 29.8-15.4 67.5.8 77.5 31.1.6 1.4 1 3 1.2 4.6z" class="st21"/><path d="M142.5 750.6c.3 4-.1 8.2 2.2 11.1 5.2 6.7 7.7 15 6.6 22.6-.3 1.5-.7 3-1 4.5-.8 2.6-3 5.2-2.5 8.1.2 12.6-5 22.5-13.4 28.2-1.2.8-2.5 1.5-3.6 2.3-7.4 13.8-22.4 25.2-37 22.9-1.6-.3-3.2-.7-4.7-.8-10.8 3.8-21.7-.2-30-7.7-1.4-.3-2.7-.6-4.1-1-12.4-3.6-23.5-11.2-29-22.9-.5-1.2-1-2.3-1.5-3.5-4.8-11-7.5-26.1-.7-36.2.8-1.3 2.5-1.9 3-3.5 4.1-14.7-3.7-32 9.3-42.2 8.6-6.7 20.2-12.1 31.1-11.9 1.5 0 3 .2 4.6.4 2.7.9 5.8 2.1 8.2.8 23.7-12.3 53.8.7 61.7 24.7.3 1.6.7 2.9.8 4.1z" class="st21"/><path d="M48.8 807.2c-3.8-8-5.6-19.4-.5-26.9.6-.9 1.9-1.4 2.2-2.6 3-10.9-2.7-23.8 6.9-31.3 6.4-4.9 15.1-9 23.1-8.8 1.2 0 2.3.1 3.4.3 2 .7 4.3 1.6 6.1.6 18-8.6 40.2.4 45.9 18.4.3.9.5 1.9.7 2.8.2 3 0 6.1 1.6 8.3 4 4.9 5.7 11.1 4.9 16.8-.2 1.1-.4 2.3-.8 3.3-.4 2-2.3 3.8-1.9 6.1.2 9.4-3.7 16.8-10 21-.9.6-1.9 1.2-2.7 1.7-5.4 10.3-16.6 18.8-27.4 17.1-1.2-.2-2.4-.5-3.5-.6-8 2.9-16.1-.1-22.4-5.7-1-.3-2-.5-3-.8-9.1-2.6-17.3-8.3-21.4-17-.5-.9-.9-1.8-1.2-2.7z" class="st21"/><defs><path id="SVGID_1_" d="M0 0h1920v1280H0z"/></defs><clipPath id="SVGID_00000056410864927475957680000003219153997303653286_"><use xlink:href="#SVGID_1_" style="overflow:visible"/></clipPath><g style="clip-path:url(#SVGID_00000056410864927475957680000003219153997303653286_)"><path d="M2056.5 1132c-29.3 38.7-23.3 86.6-23.3 134.5-3 47.9-56.9 65.8-95.8 80.8-44.9 20.9-18 74.8-41.9 104.7-53.9 65.8-158.6 32.9-233.4 32.9-18 0-32.9 18-50.9 18-65.8 3-131.7-44.9-161.6-95.8-26.9-47.9-91.6-68.5-89-150.6 1.1-34.1 50.1-61.9 41.1-94.8-12-38.9-92.8-74.8-38.9-113.7 32.9-23.9 78.6-23.3 81.6-54.4 3.2-33.9-60.6-53.4-60.6-110.2 0-47.9 29.9-86.8 74.8-104.7 47.9-18 96.3 10.1 140.8 19.2 23.3 4.8 50.6-6.2 57.5-10.2 86-49.9 154.8-23.9 235.6 47.9 29.9 23.9 59.9 44.9 89.8 68.8 50.9 44.9 92.8 101.7 79.2 170.8.6 9.8 2.1 20.5 1.7 30.4-.3 9.9-3.7 18.1-6.7 26.4z" class="st23"/><path d="M1482.4 795.4c39-15.1 78.6 3.4 115.8 14 6.1 1.8 12.1 3.3 18.1 4.5 22.1 4.5 47.9-6 54.7-9.9 79.6-46.4 143.6-23.9 218.1 40.8 1.7 1.5 3.5 3.1 5.3 4.6 27.8 23.4 57.3 41.9 85.1 65.3 49.3 41.4 88 96.6 75.2 162.1.6 9.3 2 19.5 1.6 28.9s-3.6 17.2-6.4 25c-27.8 36.8-20.7 82.2-22.2 127.7-1.4 45.5-54.5 61.2-90.9 76.7-43.3 18.4-16.9 71.1-39.8 99.4-50.8 62.8-150.5 31.2-221.5 31.2-17 0-31.2 16.7-48.3 17-62.5 1.4-125.1-42.6-153.3-91-25.5-43.8-83.7-63.7-84.6-136.3 0-2.1 0-4.3.1-6.5 1.1-32.3 48-58.9 39-90-10.8-37.1-88-70.6-37-107.7 31.1-22.7 74.1-22.5 76.9-51.9 2.7-28.7-44.5-46.7-54.9-88.2-1.3-5.1-2-10.6-2-16.4.1-45.5 28.3-82.8 71-99.3z" class="st23"/><path d="M1506.2 812c36.9-14.3 74.5 3.6 109.8 13.7 5.8 1.6 11.5 3.1 17.2 4.2 20.9 4.1 45.2-5.8 51.8-9.6 75.1-44.4 135.6-22.7 206.1 38.6 1.7 1.4 3.3 2.9 5 4.4 26.3 22.1 54.2 39.6 80.5 61.7 46.6 39.2 83.3 91.4 71.2 153.4.6 8.8 1.9 18.4 1.5 27.3-.4 8.9-3.4 16.3-6.1 23.7-26.3 34.8-19.6 77.8-21 120.8-1.3 43.1-51.6 57.9-86 72.6-40.9 17.4-16 67.3-37.6 94.1-48.1 59.4-142.4 29.6-209.6 29.6-16.1 0-29.6 15.8-45.7 16.1-59.2 1.3-118-40.7-145-86.2-24.5-41.4-79.4-60.1-80.1-128.8 0-2 0-4.1.1-6.2 1.2-30.6 45.4-55.8 36.9-85.2-10.2-35.1-83.3-66.5-35.2-101.7 29.3-21.6 69.5-21.7 72.1-49.5 2.6-27.2-41.6-44.4-51.2-83.6-1.2-4.8-1.8-10-1.8-15.5.1-43 26.7-78.2 67.1-93.9z" class="st23"/><path d="M1530 828.7c34.9-13.5 70.4 3.9 103.8 13.3 5.5 1.5 10.9 2.9 16.3 3.9 19.8 3.8 42.6-5.5 48.9-9.3 70.7-42.2 127.6-21.5 194.1 36.3 1.6 1.3 3.1 2.8 4.7 4.1 24.8 20.8 51.1 37.3 75.9 58.2 44 37 78.6 86.2 67.1 144.7.5 8.3 1.8 17.4 1.4 25.8-.3 8.4-3.2 15.4-5.7 22.4-24.8 32.8-18.5 73.4-19.8 113.9-1.3 40.6-48.6 54.6-81.1 68.4-38.6 16.4-15.1 63.5-35.5 88.7-45.3 56-134.4 27.9-197.7 27.9-15.2 0-27.9 14.9-43.1 15.2-55.8 1.3-111-38.7-136.6-81.4-23.4-38.9-75.1-56.5-75.7-121.4 0-1.9 0-3.8.1-5.8 1.2-28.8 42.8-52.7 34.7-80.4-9.6-33.1-78.5-62.3-33.3-95.7 27.5-20.4 64.9-20.8 67.4-47.1 2.5-25.7-38.6-42.2-47.6-78.9-1.1-4.6-1.7-9.4-1.7-14.6.2-40.3 25.4-73.5 63.4-88.2z" class="st23"/><path d="M1553.8 845.4c32.9-12.8 66.4 4.2 97.8 12.9 5.2 1.4 10.3 2.7 15.4 3.6 18.6 3.5 39.9-5.3 46.1-9 66.3-40 119.6-20.3 182.1 34.1 1.5 1.3 2.9 2.6 4.4 3.8 23.3 19.6 47.9 35 71.2 54.6 41.4 34.8 73.9 81 63.1 136 .5 7.8 1.7 16.3 1.4 24.2-.3 7.9-3 14.4-5.4 21-23.3 30.8-17.4 69-18.6 107.1-1.2 38.2-45.7 51.3-76.2 64.3-36.3 15.4-14.2 59.7-33.4 83.4-42.6 52.7-126.3 26.2-185.8 26.2-14.3 0-26.2 14-40.5 14.3-52.5 1.2-103.9-36.7-128.3-76.6-22.3-36.5-70.9-52.9-71.2-113.9 0-1.8 0-3.6.1-5.5 1.2-27.1 40.2-49.6 32.6-75.6-9-31.1-73.8-58.1-31.5-89.7 25.6-19.2 60.3-20 62.7-44.6 2.3-24.3-35.6-39.9-43.9-74.3-1-4.3-1.6-8.8-1.5-13.7.1-37.7 23.7-68.8 59.4-82.6z" class="st23"/><path d="M1577.6 862c30.9-12 62.3 4.5 91.8 12.6 4.9 1.3 9.7 2.5 14.4 3.3 17.4 3.2 37.3-5.1 43.2-8.7 61.9-37.7 111.5-19.1 170.1 31.9 1.4 1.2 2.7 2.4 4.1 3.6 21.8 18.3 44.8 32.8 66.6 51 38.7 32.5 69.1 75.8 59.1 127.3.5 7.3 1.6 15.3 1.3 22.7-.3 7.4-2.8 13.5-5 19.7-21.9 28.9-16.3 64.6-17.4 100.2-1.1 35.7-42.8 48.1-71.4 60.2-34 14.4-13.3 55.9-31.2 78.1-39.9 49.3-118.2 24.5-174 24.5-13.4 0-24.5 13.1-37.9 13.4-49.1 1.1-96.9-34.7-120-71.8-21.2-34-66.6-49.3-66.7-106.5 0-1.7 0-3.4.1-5.1 1.3-25.3 37.5-46.5 30.5-70.8-8.5-29.1-69-53.9-29.6-83.7 23.8-18 55.7-19.2 57.9-42.2 2.2-22.8-32.7-37.6-40.2-69.6-.9-4-1.4-8.3-1.4-12.8.3-35.4 22.3-64.4 55.7-77.3z" class="st23"/><path d="M1601.3 878.7c28.9-11.2 58.2 4.8 85.8 12.2 4.6 1.2 9.1 2.3 13.5 3 16.2 2.8 34.6-4.9 40.4-8.4 57.5-35.5 103.4-17.8 158.1 29.6 1.3 1.1 2.5 2.2 3.8 3.3 20.3 17 41.7 30.5 61.9 47.5 36.1 30.3 64.4 70.6 55 118.6.4 6.8 1.5 14.2 1.2 21.1s-2.6 12.6-4.7 18.3c-20.4 26.9-15.2 60.2-16.2 93.4-1 33.3-39.9 44.8-66.5 56.1-31.7 13.5-12.4 52-29.1 72.7-37.1 45.9-110.1 22.9-162.1 22.9-12.5 0-22.9 12.2-35.3 12.5-45.7 1-89.8-32.8-111.7-67-20.2-31.6-62.3-45.7-62.3-99 0-1.6 0-3.1.1-4.8 1.3-23.5 34.9-43.5 28.4-66.1-7.9-27.1-64.2-49.7-27.7-77.7 22-16.8 51.1-18.4 53.2-39.8 2-21.3-29.8-35.3-36.6-64.9-.9-3.7-1.3-7.7-1.2-11.9.6-32.7 21.1-59.6 52-71.6z" class="st23"/><path d="M1625.1 895.4c26.9-10.4 54.1 5 79.8 11.8 4.3 1.1 8.5 2.1 12.6 2.7 15 2.5 31.9-4.6 37.5-8.1 53.1-33.2 95.4-16.5 146.1 27.4 1.2 1 2.3 2.1 3.6 3.1 18.7 15.7 38.6 28.2 57.3 43.9 33.4 28.1 59.7 65.5 51 109.9.4 6.3 1.4 13.2 1.1 19.6s-2.4 11.7-4.3 17c-18.9 24.9-14.1 55.7-15 86.5-1 30.8-36.9 41.5-61.6 52-29.3 12.5-11.4 48.2-27 67.4-34.4 42.5-102 21.2-150.2 21.2-11.6 0-21.2 11.3-32.7 11.6-42.4 1-82.8-30.8-103.4-62.3-19.1-29.1-58.1-42.1-57.8-91.5 0-1.4.1-2.9.1-4.4 1.3-21.8 32.3-40.4 26.3-61.3-7.3-25.1-59.5-45.5-25.9-71.7 20.2-15.6 46.6-17.5 48.5-37.3 1.9-19.8-26.8-33.1-32.9-60.3-.8-3.5-1.2-7.1-1.1-11 .4-30.3 19.4-55.1 48-66.2z" class="st23"/><path d="M1648.9 912.1c24.9-9.6 50 5.3 73.7 11.5 4 1 7.9 1.8 11.7 2.4 13.9 2.1 29.3-4.4 34.7-7.8 48.7-30.9 87.3-15.3 134.2 25.2 1.1.9 2.2 1.9 3.3 2.8 17.2 14.4 35.5 25.9 52.7 40.4 30.8 25.9 55 60.3 46.9 101.2.4 5.8 1.2 12.2 1 18s-2.3 10.7-4 15.6c-17.4 22.9-12.9 51.3-13.8 79.7-.9 28.4-34 38.2-56.7 47.9-27 11.5-10.5 44.4-24.8 62-31.7 39.2-94 19.5-138.3 19.5-10.6 0-19.5 10.4-30.1 10.6-39 .9-75.7-28.8-95-57.5-18-26.7-53.8-38.5-53.3-84.1 0-1.3.1-2.7.2-4.1 1.4-20 29.7-37.3 24.1-56.5-6.7-23.2-54.8-41.4-24-65.7 18.3-14.4 42-16.7 43.7-34.9 1.8-18.3-23.9-30.8-29.3-55.6-.7-3.2-1-6.5-1-10.1.4-27.6 17.9-50.4 44.1-60.5z" class="st23"/><path d="M1672.7 928.7c22.9-8.9 45.9 5.6 67.7 11.1 3.7.9 7.3 1.6 10.8 2.1 12.7 1.8 26.6-4.2 31.8-7.5 44.3-28.6 79.3-14.1 122.2 23 1 .9 2 1.7 3 2.6 15.7 13.1 32.3 23.6 48 36.8 28.1 23.6 50.2 55.1 42.9 92.5.3 5.3 1.1 11.1.9 16.5s-2.1 9.8-3.6 14.3c-15.9 21-11.8 46.9-12.6 72.8-.8 26-31.1 34.9-51.8 43.7-24.7 10.5-9.6 40.6-22.7 56.7-29 35.8-85.9 17.8-126.4 17.8-9.7 0-17.8 9.5-27.5 9.7-35.7.8-68.6-26.9-86.7-52.7-16.9-24.3-49.5-34.9-48.9-76.6 0-1.2.1-2.4.2-3.7 1.4-18.3 27.1-34.2 22-51.7-6.1-21.2-50-37.3-22.2-59.6 16.5-13.2 37.4-15.9 39-32.5 1.6-16.8-20.9-28.5-25.6-51-.6-2.9-.9-6-.8-9.2.5-25.1 16.4-45.8 40.3-55.1z" class="st23"/><path d="M1696.5 945.4c20.9-8.1 41.9 5.9 61.7 10.7 3.4.8 6.7 1.4 9.9 1.8 11.5 1.5 24-4 29-7.2 40-26.2 71.3-12.9 110.2 20.7.9.8 1.8 1.6 2.7 2.3 14.2 11.8 29.2 21.3 43.4 33.3 25.5 21.4 45.5 49.9 38.9 83.8.3 4.8 1 10.1.8 14.9-.2 4.9-1.9 8.9-3.3 12.9-14.4 19-10.7 42.5-11.4 66-.7 23.5-28.2 31.6-47 39.6-22.4 9.5-8.7 36.8-20.5 51.4-26.2 32.4-77.8 16.1-114.5 16.1-8.8 0-16.1 8.6-25 8.8-32.3.7-61.6-24.9-78.4-47.9-15.9-21.8-45.3-31.3-44.4-69.2 0-1.1.1-2.2.2-3.4 1.4-16.5 24.5-31.1 19.9-46.9-5.6-19.2-45.3-33.1-20.3-53.6 14.7-12.1 32.8-15.1 34.3-30 1.5-15.3-18-26.3-22-46.3-.5-2.6-.7-5.4-.7-8.3.6-22.6 14.9-41.2 36.5-49.5z" class="st23"/><path d="M1720.3 962.1c18.9-7.3 37.8 6.2 55.7 10.4 3.1.7 6 1.2 8.9 1.5 10.3 1.1 21.3-3.7 26.1-6.9 35.6-23.9 63.2-11.6 98.2 18.5l2.4 2.1c12.7 10.5 26.1 19.1 38.8 29.7 22.8 19.2 40.8 44.7 34.8 75.1.3 4.3.9 9 .8 13.4-.2 4.4-1.7 8-3 11.6-12.9 17-9.6 38.1-10.3 59.1-.7 21.1-25.2 28.3-42.1 35.5-20 8.5-7.8 32.9-18.4 46-23.5 29.1-69.7 14.5-102.6 14.5-7.9 0-14.5 7.7-22.4 7.9-29 .7-54.6-22.9-70.1-43.1-14.8-19.3-41-27.6-40-61.7 0-1 .1-2 .2-3 1.5-14.7 21.9-28 17.8-42.1-5-17.2-40.5-28.9-18.4-47.6 12.8-10.9 28.2-14.2 29.5-27.6 1.4-13.8-15-24-18.3-41.7-.4-2.3-.6-4.8-.5-7.4.9-20.3 13.7-36.8 32.9-44.2z" class="st23"/><path d="M1744.1 978.7c16.8-6.5 33.7 6.5 49.7 10 2.8.6 5.4 1 8 1.2 9.1.8 18.6-3.5 23.2-6.6 31.3-21.5 55.2-10.4 86.2 16.3l2.1 1.8c11.2 9.2 23 16.8 34.1 26.1 20.2 17 36 39.5 30.8 66.3.3 3.8.8 8 .7 11.8-.2 3.9-1.5 7-2.6 10.3-11.4 15.1-8.5 33.7-9.1 52.3-.6 18.6-22.3 25.1-37.2 31.4-17.7 7.5-6.9 29.1-16.3 40.7-20.8 25.7-61.6 12.8-90.7 12.8-7 0-12.8 6.8-19.8 7-25.6.6-47.6-20.9-61.8-38.3-13.8-16.9-36.7-24-35.5-54.2 0-.9.1-1.8.2-2.6 1.5-13 19.3-24.9 15.7-37.3-4.4-15.2-35.8-24.7-16.6-41.6 11-9.7 23.6-13.4 24.8-25.2 1.2-12.3-12-21.7-14.7-37-.4-2.1-.5-4.2-.4-6.5 1-17.7 12.3-32.1 29.2-38.7z" class="st23"/><path d="M1767.8 995.4c14.8-5.7 29.6 6.7 43.7 9.6 2.5.5 4.8.8 7.1.9 8 .5 16-3.2 20.4-6.3 27-19 47.1-9.2 74.2 14.1.6.5 1.2 1.1 1.9 1.6 9.7 8 19.8 14.5 29.5 22.6 17.5 14.7 31.3 34.3 26.7 57.6.2 3.3.7 6.9.6 10.3s-1.3 6.1-2.3 8.9c-9.9 13.1-7.4 29.2-7.9 45.4s-19.4 21.8-32.3 27.3c-15.4 6.5-6 25.3-14.1 35.4-18.1 22.3-53.5 11.1-78.8 11.1-6.1 0-11.1 5.9-17.2 6.1-22.2.5-40.5-18.9-53.4-33.5-12.8-14.4-32.5-20.4-31-46.8 0-.8.1-1.5.2-2.3 1.5-11.2 16.7-21.8 13.5-32.5-3.8-13.2-31-20.6-14.7-35.6 9.2-8.5 19.1-12.6 20.1-22.7 1.1-10.8-9.1-19.5-11-32.3-.3-1.8-.3-3.7-.2-5.6.8-15.3 10.6-27.7 25-33.3z" class="st23"/><path d="M1791.6 1012.1c12.8-5 25.5 7 37.7 9.3 2.1.4 4.2.6 6.2.6 6.8.2 13.3-3 17.5-6 22.8-16.5 39.1-8 62.3 11.8.5.4 1 .9 1.6 1.3 8.2 6.7 16.7 12.2 24.8 19 14.9 12.5 26.6 29.2 22.7 48.9.2 2.8.6 5.9.5 8.7-.1 2.8-1.1 5.2-1.9 7.6-8.4 11.1-6.3 24.8-6.7 38.5-.4 13.7-16.5 18.5-27.4 23.2-13.1 5.6-5.1 21.5-12 30-15.3 19-45.5 9.4-66.9 9.4-5.1 0-9.4 5-14.6 5.1-18.9.4-33.5-16.9-45.1-28.8-11.7-12-28.2-16.8-26.6-39.3 0-.6.1-1.3.2-1.9 1.6-9.5 14-18.7 11.4-27.7-3.3-11.2-26.3-16.4-12.9-29.6 7.4-7.3 14.5-11.8 15.3-20.3.9-9.3-6.1-17.2-7.4-27.7-.2-1.5-.2-3.1-.1-4.7 1.1-12.5 9.3-22.7 21.4-27.4z" class="st23"/><path d="M1815.4 1028.8c10.8-4.2 21.4 7.3 31.7 8.9 1.8.3 3.6.4 5.3.4 5.6-.1 10.7-2.7 14.7-5.7 18.5-14 31.1-6.7 50.3 9.6.4.4.9.7 1.3 1.1 6.7 5.4 13.6 9.9 20.2 15.5 12.2 10.3 21.9 24 18.7 40.2.2 2.3.5 4.8.4 7.2-.1 2.3-.9 4.3-1.6 6.2-6.9 9.1-5.1 20.4-5.5 31.7-.4 11.3-13.5 15.2-22.6 19-10.7 4.6-4.2 17.7-9.9 24.7-12.6 15.6-37.4 7.8-55 7.8-4.2 0-7.8 4.1-12 4.2-15.5.4-26.6-14.9-36.8-24-10.7-9.5-23.9-13.2-22.1-31.9.1-.5.1-1.1.2-1.6 1.6-7.7 11.4-15.6 9.3-23-2.7-9.2-21.5-12.1-11-23.6 5.6-6.1 9.9-11 10.6-17.9.8-7.8-3.1-14.9-3.7-23-.1-1.2-.1-2.5.1-3.8 1-10.1 7.7-18.3 17.4-22z" class="st23"/><path d="M1949.6 1110.7c-5.4 7.2-4.3 16-4.3 24.8-.6 8.8-10.5 12.2-17.7 14.9-8.3 3.9-3.3 13.8-7.7 19.3-9.9 12.2-29.3 6.1-43.1 6.1-3.3 0-6.1 3.3-9.4 3.3-12.2.6-19.6-12.9-28.5-19.2-9.8-6.9-19.6-9.6-17.6-24.4.8-6.2 9.1-13.3 7.4-19.4-2.2-7.2-16.7-7.9-9.1-17.6 8.2-10.6 5.8-23.3 5.8-33.8 0-8.8 5.5-16 13.8-19.3 8.8-3.3 17.3 7.5 25.7 8.5 6.5.8 11.3-1.5 16.2-5.4 14.3-11.5 23.4-5.9 38.3 7.4 5.5 4.4 11.1 8.3 16.6 12.7 9.4 8.3 17.1 18.8 14.6 31.5.1 1.8.4 3.8.3 5.6-.1 1.9-.7 3.5-1.3 5z" class="st23"/></g><path d="M0 0h1920v1280H0z" class="st2"/><path d="M791.9 1445.1c21.8-36.3 62.4-47.1 101.1-62.7 37.7-18 34.7-67.5 34.1-103.7 2.3-43.1 54.6-38.9 71-68 35.6-65-25.1-138.9-49.4-199.4-5.8-14.6 3.7-32.4-2.1-47-19-54.2-79.2-91.8-130-99.4-47.5-6.2-84.4-27.9-130.8-31.6-10.6 1.5-16 9.2-25.6 13.2-23.7 18-28 56.3-57.4 59.7-35.4 3-90.7-50.6-104.6 5.6-8.6 34.4 8.5 69.7.8 106.6-36.4-27.5-81.1-54.5-127-36-38.7 15.6-60.4 52.5-60.3 94.7 1.1 44.5 34.6 78.9 64.6 104.8 2.2 5.1 3.2 10 3.7 14.8 9.1 86.2 34.7 170.7 119.1 212.7 29.1 16.4 55.8 33.7 84.9 50.1 52.9 26.5 112.5 41.8 163.9 8.4 8.2-2.7 17.3-5 25.2-8.5 7.6-3.7 13.1-9.2 18.8-14.3z" class="st23"/><path d="M750.2 1451.3c7.8-2.5 16.4-4.7 23.9-8.1s12.7-8.5 18.1-13.3c20.7-34.5 59.7-43.6 96-59.5 36.3-16 31.7-64 32.3-98.5.8-41 52-36.9 67.4-64.5 34.2-61.5-23.8-131.9-47-189.2-5.6-13.8 3.3-30.7-1.9-44.6-19.3-51-75.1-87.6-123.4-94.4-45-6.3-80.1-26.4-124.2-30-10.1 1.4-15.2 8.8-24.3 12.5-22.5 17.1-26.5 53.9-54.6 56.7-33.5 3.4-86.1-48-99.3 5.3-8.2 32.7 8 66.2.7 101.1-34.5-26.1-76.9-51.8-120.5-34.2-36.7 14.8-57.8 49.8-57.2 89.8.6 42.3 32.9 74.9 61.3 99.4 2.1 4.9 3.1 9.5 3.6 14 8.6 81.8 34 159.9 113 201.8 28 14.8 52.6 32.7 80.5 47.6 49.6 26.5 106.8 39.9 155.6 8.1z" class="st23"/><path d="M752.7 1434.9c7.3-2.4 15.5-4.4 22.6-7.7 7.1-3.2 12-8.1 17.2-12.6 19.5-32.6 56.5-41.2 90.8-56.3 34.3-15.1 30-60.6 30.6-93.2.7-38.8 49.2-34.9 63.8-61.1 32.3-58.2-22.5-124.8-44.5-179.1-5.2-13.1 3.1-29-1.8-42.2-18.2-48.3-71-82.9-116.8-89.3-42.6-5.9-75.7-25-117.5-28.4-9.6 1.3-14.3 8.3-23 11.8-21.3 16.1-25 51-51.6 53.6-31.7 3.2-81.5-45.5-94 5.1-7.8 30.9 7.6 62.6.7 95.7-32.7-24.7-72.8-49-114.1-32.3-34.8 14-54.6 47.2-54.1 85 .5 40 31.1 70.9 58 94.1 2 4.6 2.9 9 3.3 13.3 8.1 77.4 32.2 151.4 106.9 191 26.5 14 49.8 30.9 76.3 45.1 46.9 24.9 101 37.5 147.2 7.5z" class="st23"/><path d="M755.2 1418.6c6.9-2.3 14.6-4.2 21.4-7.2 6.7-3.1 11.3-7.6 16.2-11.9 18.4-30.8 53.3-38.9 85.7-53.1 32.4-14.3 28.3-57.1 28.9-87.9.7-36.6 46.4-32.9 60.1-57.6 30.5-54.9-21.3-117.7-41.9-168.9-5-12.3 3-27.4-1.7-39.8-17.2-45.5-67-78.2-110.2-84.2-40.2-5.6-71.5-23.6-110.9-26.8-9.1 1.2-13.5 7.8-21.7 11.2-20 15.3-23.6 48-48.7 50.6-29.9 3.1-76.9-42.9-88.6 4.8-7.3 29.1 7.1 59.1.7 90.3-30.9-23.3-68.7-46.2-107.6-30.5-32.8 13.2-51.6 44.5-51.1 80.2.5 37.7 29.3 66.8 54.6 88.7 1.9 4.4 2.7 8.5 3.1 12.6 7.7 73 30.3 142.8 100.9 180.2 25 13.2 47 29.2 71.9 42.4 44.4 23.2 95.4 35.1 138.9 6.9z" class="st23"/><path d="M757.8 1402.1c6.5-2.2 13.8-4 20-6.8 6.3-2.8 10.7-7.1 15.3-11.2 17.3-28.9 50.1-36.5 80.5-49.9 30.5-13.4 26.6-53.7 27.2-82.6.6-34.3 43.6-30.9 56.6-54.1 28.7-51.6-20-110.6-39.4-158.8-4.6-11.6 2.8-25.7-1.7-37.4-16.1-42.8-63-73.5-103.5-79.1-37.7-5.3-67.2-22.2-104.2-25.2-8.5 1.2-12.7 7.3-20.4 10.5-18.8 14.3-22.2 45.1-45.8 47.6-28.1 2.9-72.3-40.3-83.3 4.4-6.9 27.4 6.7 55.5.6 84.8-29-21.9-64.5-43.4-101.1-28.7-30.9 12.5-48.5 41.7-48 75.3.5 35.5 27.5 62.8 51.4 83.4 1.7 4.1 2.6 8 3 11.8 7.2 68.6 28.5 134.2 94.8 169.4 23.5 12.5 44.1 27.5 67.6 39.9 41.5 22.1 89.5 33.4 130.4 6.7z" class="st23"/><path d="M760.3 1385.7c6.1-2 12.9-3.7 18.7-6.4 5.9-2.6 10-6.7 14.3-10.5 16.2-27.1 46.9-34.2 75.4-46.7 28.5-12.6 24.9-50.2 25.5-77.3.6-32.2 40.8-28.9 52.9-50.6 26.8-48.3-18.7-103.5-36.9-148.6-4.4-10.8 2.6-24.1-1.6-35-15.1-40.1-59-68.8-96.9-74.1-35.3-5-62.8-20.7-97.5-23.5-7.9 1.1-11.9 6.9-19.1 9.8-17.7 13.4-20.7 42.3-42.8 44.5-26.3 2.7-67.6-37.7-77.9 4.2-6.4 25.6 6.3 51.9.6 79.4-27.1-20.5-60.4-40.6-94.7-26.8-28.8 11.6-45.3 39.1-44.9 70.5.4 33.2 25.8 58.7 48.1 78.1 1.7 3.8 2.4 7.5 2.8 11.1 6.7 64.2 26.7 125.6 88.7 158.5 22 11.7 41.3 25.7 63.3 37.4 38.8 20.4 83.7 30.9 122 6z" class="st23"/><path d="M762.8 1369.3c5.7-1.8 12-3.5 17.4-5.9 5.5-2.4 9.3-6.3 13.2-9.8 15.1-25.2 43.7-31.9 70.2-43.5 26.6-11.7 23.2-46.8 23.7-72 .5-30 38-26.9 49.3-47.2 25-45-17.4-96.5-34.3-138.4-4.1-10.1 2.4-22.5-1.4-32.6-14-37.3-54.9-64.1-90.3-69-32.9-4.6-58.6-19.3-90.8-22-7.4 1-11.1 6.4-17.8 9.2-16.5 12.5-19.3 39.4-39.9 41.5-24.5 2.4-63-35.1-72.6 3.9-6 23.9 5.8 48.4.5 74-25.3-19.1-56.2-37.8-88.2-25-26.8 10.8-42.3 36.4-41.8 65.7.4 30.9 24.1 54.7 44.8 72.8 1.6 3.6 2.3 7 2.6 10.3 6.3 59.8 24.8 117.1 82.7 147.6 20.5 10.8 38.4 23.9 58.9 34.8 36.3 19 78.2 28.8 113.8 5.6z" class="st23"/><path d="M765.4 1352.8c5.2-1.7 11.1-3.2 16.2-5.5s8.6-5.8 12.3-9.1c14-23.4 40.4-29.5 65-40.4 24.7-10.8 21.5-43.4 22-66.8.5-27.8 35.2-24.9 45.7-43.8 23.2-41.7-16.1-89.4-31.8-128.3-3.7-9.3 2.3-20.8-1.3-30.2-13.1-34.6-50.9-59.4-83.7-64-30.5-4.3-54.3-18-84.2-20.3-6.9 1-10.3 5.9-16.5 8.5-15.3 11.6-18 36.5-37 38.4-22.7 2.3-58.4-32.6-67.3 3.6-5.6 22.1 5.4 44.9.5 68.5-23.4-17.7-52.1-35-81.7-23.2-24.9 10-39.1 33.7-38.8 60.8.3 28.7 22.2 50.7 41.5 67.4 1.4 3.3 2.1 6.4 2.4 9.5 5.8 55.4 23 108.4 76.6 136.8 19 10 35.6 22.1 54.6 32.2 33.6 18.4 72.4 27.5 105.5 5.9z" class="st23"/><path d="M767.9 1336.5c4.8-1.6 10.2-3 14.9-5.1s7.9-5.3 11.3-8.3c12.9-21.5 37.3-27.2 59.9-37.1 22.7-9.9 19.8-39.9 20.2-61.4.4-25.5 32.4-23 42.1-40.3 21.4-38.4-14.8-82.3-29.3-118.1-3.5-8.6 2-19.2-1.2-27.8-12-31.8-46.9-54.6-77-58.9-28.1-3.9-49.9-16.5-77.5-18.7-6.3.9-9.4 5.5-15.2 7.8-14 10.6-16.6 33.6-34.1 35.4-20.9 2.1-53.7-30-62 3.3-5.1 20.4 5 41.3.4 63.1-21.5-16.3-48-32.2-75.2-21.4-22.9 9.2-36.1 31.1-35.7 56 .3 26.4 20.5 46.7 38.3 62.1 1.3 3.1 1.9 5.9 2.2 8.8 5.3 51.1 21.2 99.9 70.5 125.9 17.5 9.2 32.9 20.4 50.3 29.7 30.9 16.5 66.7 24.7 97.1 5z" class="st23"/><path d="M770.4 1320.1c4.4-1.5 9.3-2.7 13.6-4.6s7.2-4.9 10.4-7.6c11.8-19.7 34.1-24.8 54.7-33.9 20.7-9.2 18.1-36.5 18.5-56.1.4-23.4 29.6-21 38.4-36.8 19.5-35.1-13.6-75.2-26.8-108-3.1-7.8 1.8-17.5-1.1-25.5-11-29.1-42.9-49.9-70.4-53.9-25.7-3.6-45.7-15.1-70.9-17.1-5.8.8-8.6 5-13.9 7.1-12.8 9.8-15.1 30.7-31.1 32.3-19.1 1.9-49.1-27.4-56.7 3.1-4.7 18.7 4.5 37.7.4 57.7-19.7-14.9-43.8-29.5-68.8-19.5-20.9 8.5-32.9 28.4-32.6 51.2.3 24.1 18.7 42.7 35 56.7 1.2 2.8 1.7 5.4 2 8 4.9 46.6 19.4 91.3 64.5 115.1 16 8.5 30 18.7 45.9 27.1 28.5 15.1 61.1 22.7 88.9 4.7z" class="st23"/><path d="M772.9 1303.6c4-1.3 8.5-2.4 12.4-4.2 3.8-1.7 6.5-4.4 9.4-6.9 10.6-17.8 30.9-22.5 49.6-30.8 18.7-8.3 16.4-33 16.7-50.9.4-21.2 26.8-19 34.9-33.4 17.7-31.8-12.3-68.2-24.2-97.8-2.9-7.1 1.7-15.9-1-23-9.9-26.3-38.8-45.2-63.8-48.7-23.3-3.2-41.4-13.7-64.1-15.5-5.2.7-7.8 4.5-12.6 6.4-11.6 8.8-13.7 27.8-28.2 29.3-17.3 1.7-44.5-24.8-51.3 2.8-4.3 16.9 4.1 34.2.3 52.3-17.9-13.5-39.7-26.8-62.3-17.6-19 7.7-29.8 25.7-29.5 46.4.3 21.9 17 38.7 31.6 51.4 1 2.5 1.6 4.9 1.8 7.2 4.4 42.3 17.6 82.6 58.4 104.3 14.5 7.7 27.2 16.9 41.7 24.6 25.5 13.6 55 20.6 80.2 4.1z" class="st23"/><path d="M775.5 1287.2c3.6-1.2 7.6-2.2 11.1-3.7 3.5-1.6 5.9-3.9 8.4-6.2 9.6-16 27.6-20.1 44.5-27.5s14.7-29.6 15-45.6c.3-19 24.1-17.1 31.2-29.9 15.9-28.5-11-61.1-21.7-87.7-2.6-6.4 1.5-14.2-.9-20.7-8.9-23.6-34.8-40.5-57.2-43.7-20.8-2.9-37-12.2-57.5-13.9-4.7.6-7 4.1-11.2 5.8-10.4 7.9-12.3 24.9-25.3 26.2-15.5 1.6-39.8-22.2-45.9 2.4-3.7 15.2 3.7 30.7.3 46.8-16-12.1-35.6-24-55.8-15.8-17 6.9-26.8 23.1-26.5 41.6.3 19.6 15.2 34.7 28.3 46 1 2.3 1.4 4.4 1.7 6.5 4 37.8 15.8 74.1 52.4 93.4 13 6.9 24.3 15.2 37.3 22.1 22.8 12.5 49.2 18.6 71.8 3.9z" class="st23"/><path d="M778.1 1270.8c3.1-1 6.7-1.9 9.8-3.3s5.2-3.5 7.4-5.5c8.5-14.1 24.4-17.9 39.3-24.3 14.9-6.5 13-26.2 13.2-40.3.3-16.7 21.3-15.1 27.6-26.4 14-25.2-9.8-54-19.2-77.5-2.3-5.7 1.3-12.6-.8-18.2-7.8-20.9-30.8-35.8-50.6-38.6-18.4-2.6-32.8-10.8-50.8-12.3-4.1.6-6.2 3.6-9.9 5.1-9.2 7-10.8 22.1-22.3 23.2-13.7 1.4-35.2-19.7-40.6 2.2-3.3 13.3 3.3 27.1.3 41.4-14.1-10.7-31.5-21.2-49.3-13.9-15.1 6.1-23.6 20.4-23.4 36.8.3 17.3 13.4 30.7 25.1 40.7.9 2 1.2 3.9 1.5 5.8 3.5 33.5 13.9 65.5 46.3 82.6 11.5 6.1 21.5 13.4 32.9 19.5 20.1 10.5 43.5 16 63.5 3z" class="st23"/><path d="M780.6 1254.4c2.8-.9 5.8-1.7 8.5-2.9s4.5-3.1 6.4-4.7c7.3-12.3 21.3-15.5 34.2-21.2s11.2-22.7 11.5-35c.3-14.6 18.5-13.1 24-22.9 12.2-21.9-8.5-46.9-16.7-67.3-2-4.9 1.1-10.9-.7-15.9-6.8-18.1-26.7-31.1-43.9-33.6-16-2.3-28.5-9.4-44.2-10.6-3.6.5-5.4 3.1-8.6 4.4-8 6.1-9.4 19.2-19.4 20.1-11.9 1.2-30.6-17.1-35.3 1.9-2.9 11.6 2.9 23.5.3 36-12.3-9.3-27.4-18.4-42.9-12.1-13.1 5.2-20.6 17.7-20.3 31.9.2 15.1 11.7 26.6 21.8 35.4.8 1.7 1.1 3.4 1.2 5 3.1 29.1 12.1 56.9 40.2 71.8 9.9 5.3 18.7 11.6 28.7 16.9 17.5 9.4 37.9 14.1 55.2 2.8z" class="st23"/><path d="M783.1 1238c2.4-.8 5-1.4 7.2-2.4 2.3-1 3.8-2.6 5.5-4 6.3-10.4 18-13.2 29-18s9.6-19.3 9.8-29.7c.3-12.4 15.7-11.2 20.4-19.5 10.3-18.6-7.1-39.8-14.2-57.2-1.7-4.2 1-9.2-.6-13.4-5.8-15.4-22.7-26.5-37.3-28.5-13.6-1.9-24.1-8-37.5-9.1-3.1.4-4.5 2.6-7.3 3.7-6.8 5.1-8 16.3-16.5 17.1-10.1 1-26-14.5-30 1.6-2.4 9.8 2.4 20 .3 30.5-10.5-7.8-23.2-15.6-36.4-10.3-11.1 4.4-17.4 15.1-17.3 27.1.2 12.8 9.9 22.6 18.5 30.1.6 1.5 1 2.9 1 4.3 2.6 24.7 10.3 48.3 34.2 60.9 8.5 4.4 15.9 9.8 24.3 14.4 14.9 7.9 32.2 12 46.9 2.4z" class="st23"/><path d="M785.7 1221.6c1.9-.6 4.1-1.1 5.9-2 1.8-.9 3.1-2.1 4.5-3.3 5.1-8.5 14.8-10.8 23.8-14.8s7.8-15.9 8-24.4c.2-10.2 12.9-9.2 16.7-16 8.5-15.3-5.9-32.8-11.7-47-1.4-3.4.8-7.6-.5-11.1-4.8-12.6-18.7-21.8-30.7-23.4-11.2-1.6-19.9-6.5-30.9-7.4-2.5.3-3.7 2.2-6 3.1-5.6 4.3-6.5 13.3-13.5 14-8.3.9-21.4-11.9-24.7 1.3-2 8.1 2 16.5.2 25.1-8.5-6.4-19.1-12.8-29.9-8.5-9.2 3.7-14.4 12.4-14.2 22.3.2 10.5 8.2 18.6 15.3 24.7.5 1.2.8 2.4.9 3.5 2.1 20.3 8.5 39.7 28.1 50.1 7 3.7 13.1 8.1 20 11.9 12.3 6.4 26.5 9.7 38.7 1.9z" class="st23"/><path d="M796.4 1201c4-6.7 11.5-8.7 18.7-11.6 7-3.3 6.4-12.5 6.3-19.2.4-7.9 10.1-7.1 13.1-12.6 6.6-12-4.6-25.6-9.2-36.9-1-2.7.7-6-.3-8.7-3.5-10-14.6-17-24.1-18.4-8.8-1.1-15.6-5.1-24.1-5.8-2 .3-3 1.7-4.7 2.4-4.4 3.3-5.1 10.4-10.6 11.1-6.5.5-16.7-9.3-19.3 1-1.6 6.4 1.6 12.9.2 19.7-6.7-5.1-15-10.1-23.4-6.6-7.1 2.9-11.2 9.7-11.2 17.4.2 8.2 6.4 14.6 11.9 19.3.4 1 .6 1.8.7 2.7 1.7 16 6.4 31.6 22 39.3 5.4 3.1 10.3 6.3 15.7 9.2 9.8 4.9 20.7 7.8 30.2 1.6 1.5-.5 3.2-1 4.6-1.6 1.4-.4 2.4-1.3 3.5-2.3z" class="st23"/><path d="M0 0h1920v1280H0z" class="st2"/><path d="M1675.2 585.9h-2.7v-2.7c0-1.4-1.1-2.6-2.6-2.6s-2.6 1.1-2.6 2.6v2.7h-2.7c-1.4 0-2.6 1.1-2.6 2.6s1.1 2.6 2.6 2.6h2.7v2.7c0 1.4 1.1 2.6 2.6 2.6s2.6-1.1 2.6-2.6V591h2.7c1.4 0 2.6-1.1 2.6-2.6s-1.2-2.5-2.6-2.5zm25.6 5.1h2.7v2.7c0 1.4 1.1 2.6 2.6 2.6s2.6-1.1 2.6-2.6V591h2.7c1.4 0 2.6-1.1 2.6-2.6s-1.1-2.6-2.6-2.6h-2.7v-2.7c0-1.4-1.1-2.6-2.6-2.6s-2.6 1.1-2.6 2.6v2.7h-2.7c-1.4 0-2.6 1.1-2.6 2.6s1.1 2.6 2.6 2.6zm10.5 31.1h-2.7v-2.7c0-1.4-1.1-2.6-2.6-2.6s-2.6 1.1-2.6 2.6v2.7h-2.7c-1.4 0-2.6 1.1-2.6 2.6s1.1 2.6 2.6 2.6h2.7v2.7c0 1.4 1.1 2.6 2.6 2.6s2.6-1.1 2.6-2.6v-2.7h2.7c1.4 0 2.6-1.1 2.6-2.6s-1.2-2.6-2.6-2.6zm-36.1 0h-2.7v-2.7c0-1.4-1.1-2.6-2.6-2.6s-2.6 1.1-2.6 2.6v2.7h-2.7c-1.4 0-2.6 1.1-2.6 2.6s1.1 2.6 2.6 2.6h2.7v2.7c0 1.4 1.1 2.6 2.6 2.6s2.6-1.1 2.6-2.6v-2.7h2.7c1.4 0 2.6-1.1 2.6-2.6s-1.2-2.6-2.6-2.6zM86.4 154.6h-2.7v-2.7c0-1.4-1.1-2.6-2.6-2.6s-2.6 1.1-2.6 2.6v2.7h-2.7c-1.4 0-2.6 1.1-2.6 2.6s1.1 2.6 2.6 2.6h2.7v2.7c0 1.4 1.1 2.6 2.6 2.6s2.6-1.1 2.6-2.6v-2.8h2.7c1.4 0 2.6-1.1 2.6-2.6s-1.2-2.5-2.6-2.5zm25.6 5.1h2.7v2.7c0 1.4 1.1 2.6 2.6 2.6s2.6-1.1 2.6-2.6v-2.7h2.7c1.4 0 2.6-1.1 2.6-2.6s-1.1-2.6-2.6-2.6h-2.7v-2.7c0-1.4-1.1-2.6-2.6-2.6s-2.6 1.1-2.6 2.6v2.7H112c-1.4 0-2.6 1.1-2.6 2.6s1.1 2.6 2.6 2.6zm10.5 31.1h-2.7v-2.7c0-1.4-1.1-2.6-2.6-2.6s-2.6 1.1-2.6 2.6v2.7h-2.7c-1.4 0-2.6 1.1-2.6 2.6s1.1 2.6 2.6 2.6h2.7v2.7c0 1.4 1.1 2.6 2.6 2.6s2.6-1.1 2.6-2.6V196h2.7c1.4 0 2.6-1.1 2.6-2.6s-1.2-2.6-2.6-2.6zm-36.1 0h-2.7v-2.7c0-1.4-1.1-2.6-2.6-2.6s-2.6 1.1-2.6 2.6v2.7h-2.7c-1.4 0-2.6 1.1-2.6 2.6s1.1 2.6 2.6 2.6h2.7v2.7c0 1.4 1.1 2.6 2.6 2.6s2.6-1.1 2.6-2.6V196h2.7c1.4 0 2.6-1.1 2.6-2.6s-1.2-2.6-2.6-2.6zM195.7 338.5H193v-2.7c0-1.4-1.1-2.6-2.6-2.6s-2.6 1.1-2.6 2.6v2.7h-2.7c-1.4 0-2.6 1.1-2.6 2.6s1.1 2.6 2.6 2.6h2.7v2.7c0 1.4 1.1 2.6 2.6 2.6s2.6-1.1 2.6-2.6v-2.8h2.7c1.4 0 2.6-1.1 2.6-2.6s-1.2-2.5-2.6-2.5zm25.6 5.1h2.7v2.7c0 1.4 1.1 2.6 2.6 2.6s2.6-1.1 2.6-2.6v-2.7h2.7c1.4 0 2.6-1.1 2.6-2.6s-1.1-2.6-2.6-2.6h-2.7v-2.7c0-1.4-1.1-2.6-2.6-2.6s-2.6 1.1-2.6 2.6v2.7h-2.7c-1.4 0-2.6 1.1-2.6 2.6s1.1 2.6 2.6 2.6zm10.5 31.1h-2.7V372c0-1.4-1.1-2.6-2.6-2.6s-2.6 1.1-2.6 2.6v2.7h-2.7c-1.4 0-2.6 1.1-2.6 2.6s1.1 2.6 2.6 2.6h2.7v2.7c0 1.4 1.1 2.6 2.6 2.6s2.6-1.1 2.6-2.6v-2.7h2.7c1.4 0 2.6-1.1 2.6-2.6s-1.2-2.6-2.6-2.6zm-36.1 0H193V372c0-1.4-1.1-2.6-2.6-2.6s-2.6 1.1-2.6 2.6v2.7h-2.7c-1.4 0-2.6 1.1-2.6 2.6s1.1 2.6 2.6 2.6h2.7v2.7c0 1.4 1.1 2.6 2.6 2.6s2.6-1.1 2.6-2.6v-2.7h2.7c1.4 0 2.6-1.1 2.6-2.6s-1.2-2.6-2.6-2.6zM409.1 802.5h-2.7v-2.7c0-1.4-1.1-2.6-2.6-2.6s-2.6 1.1-2.6 2.6v2.7h-2.7c-1.4 0-2.6 1.1-2.6 2.6s1.1 2.6 2.6 2.6h2.7v2.7c0 1.4 1.1 2.6 2.6 2.6s2.6-1.1 2.6-2.6v-2.8h2.7c1.4 0 2.6-1.1 2.6-2.6s-1.2-2.5-2.6-2.5zm25.6 5.1h2.7v2.7c0 1.4 1.1 2.6 2.6 2.6s2.6-1.1 2.6-2.6v-2.7h2.7c1.4 0 2.6-1.1 2.6-2.6s-1.1-2.6-2.6-2.6h-2.7v-2.7c0-1.4-1.1-2.6-2.6-2.6s-2.6 1.1-2.6 2.6v2.7h-2.7c-1.4 0-2.6 1.1-2.6 2.6s1.1 2.6 2.6 2.6zm10.5 31.1h-2.7V836c0-1.4-1.1-2.6-2.6-2.6s-2.6 1.1-2.6 2.6v2.7h-2.7c-1.4 0-2.6 1.1-2.6 2.6s1.1 2.6 2.6 2.6h2.7v2.7c0 1.4 1.1 2.6 2.6 2.6s2.6-1.1 2.6-2.6v-2.7h2.7c1.4 0 2.6-1.1 2.6-2.6s-1.2-2.6-2.6-2.6zm-36.1 0h-2.7V836c0-1.4-1.1-2.6-2.6-2.6s-2.6 1.1-2.6 2.6v2.7h-2.7c-1.4 0-2.6 1.1-2.6 2.6s1.1 2.6 2.6 2.6h2.7v2.7c0 1.4 1.1 2.6 2.6 2.6s2.6-1.1 2.6-2.6v-2.7h2.7c1.4 0 2.6-1.1 2.6-2.6s-1.2-2.6-2.6-2.6zM1839.6 250.8h-2.7v-2.7c0-1.4-1.1-2.6-2.6-2.6s-2.6 1.1-2.6 2.6v2.7h-2.7c-1.4 0-2.6 1.1-2.6 2.6s1.1 2.6 2.6 2.6h2.7v2.7c0 1.4 1.1 2.6 2.6 2.6s2.6-1.1 2.6-2.6v-2.8h2.7c1.4 0 2.6-1.1 2.6-2.6s-1.2-2.5-2.6-2.5zm25.6 5.1h2.7v2.7c0 1.4 1.1 2.6 2.6 2.6s2.6-1.1 2.6-2.6v-2.7h2.7c1.4 0 2.6-1.1 2.6-2.6s-1.1-2.6-2.6-2.6h-2.7V248c0-1.4-1.1-2.6-2.6-2.6s-2.6 1.1-2.6 2.6v2.7h-2.7c-1.4 0-2.6 1.1-2.6 2.6s1.1 2.6 2.6 2.6zm10.5 31.1h-2.7v-2.7c0-1.4-1.1-2.6-2.6-2.6s-2.6 1.1-2.6 2.6v2.7h-2.7c-1.4 0-2.6 1.1-2.6 2.6s1.1 2.6 2.6 2.6h2.7v2.7c0 1.4 1.1 2.6 2.6 2.6s2.6-1.1 2.6-2.6v-2.7h2.7c1.4 0 2.6-1.1 2.6-2.6s-1.2-2.6-2.6-2.6zm-36.1 0h-2.7v-2.7c0-1.4-1.1-2.6-2.6-2.6s-2.6 1.1-2.6 2.6v2.7h-2.7c-1.4 0-2.6 1.1-2.6 2.6s1.1 2.6 2.6 2.6h2.7v2.7c0 1.4 1.1 2.6 2.6 2.6s2.6-1.1 2.6-2.6v-2.7h2.7c1.4 0 2.6-1.1 2.6-2.6s-1.2-2.6-2.6-2.6z" class="st24"/><defs><path id="SVGID_00000180360752532438708630000011389812715096306857_" d="M0 0h1920v1280H0z"/></defs><clipPath id="SVGID_00000168838669664010164250000005812518615197211809_"><use xlink:href="#SVGID_00000180360752532438708630000011389812715096306857_" style="overflow:visible"/></clipPath><defs><path id="SVGID_00000143579475518427513130000009505726186713164968_" d="M0 0h1920v1280H0z"/></defs><clipPath id="SVGID_00000023995724728274391980000004750574345826530702_"><use xlink:href="#SVGID_00000143579475518427513130000009505726186713164968_" style="overflow:visible"/></clipPath><path d="M0 0h1920v1280H0z" class="st2"/></svg>