<svg xmlns="http://www.w3.org/2000/svg" xmlns:xlink="http://www.w3.org/1999/xlink" xml:space="preserve" id="Layer_1" x="0" y="0" style="enable-background:new 0 0 200 200" version="1.1" viewBox="0 0 200 200"><style>.st1{fill:none;stroke:#dce7ff;stroke-width:.5;stroke-miterlimit:10}</style><defs><path id="SVGID_1_" d="M.5-.5h200v201H.5z"/></defs><clipPath id="SVGID_2_"><use xlink:href="#SVGID_1_" style="overflow:visible"/></clipPath><g style="clip-path:url(#SVGID_2_)"><path d="M64.3-17.6C70.2-6.8 77.4 9.2 77.8 21c.4 14.4-9.6 16.2-17.1 21.9-5.4 4.1-11.8 9.5-15.3 17.7-2.6 6.1-2 13.8 1.5 20.8 3.6 7.2 9.3 11.5 16 16.2 8.6 6 17.5 13 26.8 20.3 26.1 20.9 57.9 47.3 79.9 77.6 4 5.5 7.5 11.1 10.4 16.7" class="st1"/><path d="M62.8-18.4c5.7 10.8 12.7 27 13 38.8.3 14.4-9.7 16.2-17.3 22-5.5 4.1-11.9 9.5-15.6 17.8-2.7 6.2-2.2 13.9 1.2 20.8 3.5 7.2 9.1 11.6 15.8 16.3 8.5 6.1 17.4 13.1 26.6 20.4 25.9 21.1 57.5 47.7 79.3 78.2 3.9 5.6 7.4 11.2 10.3 16.8" class="st1"/><path d="M61.2-19.3c5.6 10.9 12.4 27.2 12.6 39 .1 14.5-9.9 16.3-17.5 22-5.5 4.1-12 9.5-15.8 17.8-2.8 6.2-2.5 13.9.8 20.9 3.4 7.3 9 11.7 15.6 16.5 8.5 6.1 17.3 13.2 26.3 20.6 25.7 21.3 57 48.2 78.6 78.9 3.9 5.6 7.3 11.2 10.1 16.9" class="st1"/><path d="M59.7-20.1c5.4 11 12 27.3 12.1 39.2 0 14.6-10 16.3-17.7 22.1C48.5 45.3 41.9 50.6 38 59c-2.9 6.2-2.7 14 .5 21 3.3 7.3 8.8 11.8 15.3 16.6 8.4 6.2 17.1 13.3 26.1 20.8 25.5 21.4 56.6 48.6 77.8 79.5 3.8 5.6 7.2 11.3 9.9 17" class="st1"/><path d="M58.3-21C63.5-10 70 6.5 69.9 18.4c-.2 14.6-10.2 16.4-18 22.1-5.6 4.1-12.3 9.5-16.3 17.8-3 6.2-2.9 14 .2 21.1 3.2 7.3 8.7 11.8 15.1 16.7 8.3 6.2 17 13.4 25.9 21 25.3 21.6 56.1 49 77.1 80.1 3.8 5.7 7.1 11.4 9.8 17.1" class="st1"/><path d="M56.8-21.8C61.9-10.7 68.2 5.8 68 17.8 67.7 32.5 57.7 34.2 49.8 40c-5.7 4.1-12.4 9.5-16.6 17.9-3.1 6.1-3.1 14-.1 21.1 3.1 7.4 8.5 11.9 14.9 16.8 8.3 6.3 16.8 13.5 25.7 21.1 25.1 21.8 55.7 49.4 76.4 80.8 3.7 5.7 7 11.5 9.6 17.2" class="st1"/><path d="M55.4-22.7c4.9 11.1 11 27.8 10.6 39.8-.5 14.8-10.5 16.4-18.4 22.2-5.7 4.1-12.5 9.5-16.9 17.9-3.2 6.2-3.4 14.1-.5 21.2 3 7.4 8.3 12 14.7 16.9 8.2 6.4 16.7 13.7 25.4 21.3 24.8 22 55.2 49.8 75.6 81.4 3.6 5.7 6.8 11.5 9.4 17.3" class="st1"/><path d="M54-23.5c4.7 11.2 10.6 27.9 10.1 40-.6 14.8-10.6 16.5-18.6 22.2-5.8 4.1-12.7 9.5-17.1 17.9-3.3 6.2-3.6 14.1-.8 21.3 2.9 7.5 8.2 12 14.5 17 8.1 6.4 16.5 13.8 25.2 21.5 24.6 22.1 54.7 50.2 74.8 82 3.6 5.8 6.7 11.6 9.3 17.4" class="st1"/><path d="M52.7-24.4c4.6 11.3 10.2 28 9.6 40.2-.8 14.9-10.8 16.5-18.9 22.3C37.6 42.2 30.6 47.6 26 56c-3.4 6.2-3.8 14.2-1.2 21.4 2.8 7.5 8 12.1 14.2 17.1 8 6.5 16.4 13.9 25 21.6 24.3 22.3 54.2 50.6 74 82.6 3.5 5.8 6.6 11.7 9.1 17.5" class="st1"/><path d="M51.3-25.2c4.4 11.3 9.8 28.2 9.1 40.4-1 14.9-11 16.6-19.1 22.3-5.9 4.1-12.9 9.5-17.7 17.9-3.5 6.3-4.1 14.2-1.5 21.4 2.7 7.5 7.8 12.2 14 17.2 8 6.5 16.2 14 24.7 21.8 24.1 22.5 53.7 51 73.1 83.2 3.5 5.9 6.5 11.8 8.9 17.6" class="st1"/><path d="M50-26c4.2 11.4 9.4 28.3 8.5 40.5-1.2 15-11.2 16.6-19.4 22.3-5.9 4.1-13.1 9.5-18 17.9-3.6 6.3-4.3 14.2-1.9 21.5 2.5 7.6 7.6 12.2 13.8 17.3 7.9 6.6 16 14.1 24.5 22 23.8 22.6 53.2 51.4 72.3 83.7 3.4 5.9 6.4 11.8 8.7 17.7" class="st1"/><path d="M48.7-26.8c4 11.4 9 28.4 8 40.7-1.3 15-11.3 16.6-19.6 22.4-6 4.1-13.2 9.5-18.2 17.9-3.7 6.3-4.6 14.2-2.2 21.6 2.4 7.6 7.4 12.3 13.5 17.4 7.8 6.6 15.9 14.2 24.2 22.1 23.6 22.8 52.7 51.7 71.4 84.3 3.3 5.9 6.2 11.9 8.5 17.8" class="st1"/><path d="M47.5-27.7c3.8 11.5 8.6 28.5 7.4 40.9C53.4 28.3 43.4 29.8 35 35.6c-6 4.1-13.3 9.5-18.5 17.9-3.8 6.3-4.8 14.3-2.6 21.6 2.3 7.6 7.3 12.4 13.3 17.5 7.7 6.6 15.7 14.3 23.9 22.3 23.3 22.9 52.1 52.1 70.5 84.9 3.3 6 6.1 12 8.3 17.9" class="st1"/><path d="M46.3-28.5c3.6 11.5 8.2 28.7 6.8 41C51.4 27.7 41.4 29.2 33 35c-6.1 4.1-13.5 9.5-18.8 17.9-3.9 6.3-5.1 14.3-3 21.7 2.2 7.6 7.1 12.4 13 17.6 7.6 6.7 15.5 14.4 23.7 22.4 23.1 23.1 51.6 52.5 69.6 85.4 3.2 6 6 12 8.1 18" class="st1"/><path d="M45.1-29.3c3.4 11.5 7.7 28.8 6.3 41.2C49.5 27.1 39.5 28.6 31 34.3c-6.2 4.1-13.6 9.5-19.1 17.9-4 6.3-5.3 14.3-3.4 21.7 2.1 7.7 6.9 12.5 12.8 17.7 7.6 6.7 15.3 14.5 23.4 22.6 22.8 23.3 51 52.8 68.7 86 3.1 6 5.8 12.1 7.9 18.1" class="st1"/><path d="M43.9-30.1c3.2 11.6 7.3 28.9 5.7 41.3-2.1 15.2-12.1 16.7-20.7 22.5-6.2 4.1-13.8 9.5-19.4 17.9-4.2 6.3-5.6 14.3-3.7 21.8 1.9 7.7 6.7 12.5 12.5 17.8 7.5 6.8 15.2 14.6 23.1 22.7 22.5 23.4 50.5 53.2 67.8 86.5 3.1 6.1 5.7 12.2 7.7 18.2" class="st1"/><path d="M42.8-30.9c3 11.6 6.9 29 5.1 41.5-2.3 15.3-12.3 16.7-21 22.5C20.6 37.2 13 42.5 7.1 51 2.9 57.2 1.3 65.3 3 72.7c1.8 7.7 6.5 12.6 12.2 17.9 7.4 6.8 15 14.7 22.8 22.9 22.2 23.6 49.9 53.6 66.8 87 3 6.1 5.6 12.2 7.5 18.3" class="st1"/><path d="M41.7-31.7C44.5-20 48.1-2.6 46.2 9.9 43.7 25.2 33.7 26.7 25 32.4c-6.3 4.1-14.1 9.4-20.1 17.9C.5 56.6-1.3 64.7.4 72.1c1.7 7.7 6.3 12.6 12 18 7.3 6.9 14.8 14.8 22.6 23 21.9 23.7 49.3 53.9 65.8 87.6 2.9 6.1 5.4 12.3 7.3 18.4" class="st1"/><path d="M40.6-32.6c2.6 11.7 6 29.2 3.8 41.8C41.7 24.6 31.7 26 22.9 31.7c-6.4 4.1-14.3 9.4-20.4 17.9C-2 55.9-3.9 64-2.4 71.5c1.5 7.8 6.1 12.7 11.7 18 7.2 6.9 14.6 14.8 22.3 23.2 21.7 23.9 48.7 54.3 64.8 88.1 2.9 6.1 5.3 12.3 7 18.5" class="st1"/><path d="M39.5-33.4C42-21.6 45-4 42.7 8.5 39.8 23.9 29.8 25.3 20.9 31 14.4 35.1 6.5 40.4.2 48.9c-4.6 6.3-6.7 14.4-5.3 21.9C-3.8 78.6.7 83.6 6.3 89c7.1 7 14.4 14.9 22 23.3 21.4 24 48.1 54.6 63.8 88.6 2.8 6.2 5.1 12.4 6.8 18.5" class="st1"/><path d="M38.5-34.1c2.2 11.8 5 29.4 2.6 42C38 23.3 28 24.7 18.9 30.4c-6.5 4.1-14.6 9.4-21.1 17.9-4.8 6.3-7 14.4-5.8 21.9C-6.6 78-2.2 83 3.3 88.4c7 7 14.2 15 21.7 23.4 21 24.2 47.4 55 62.8 89.1 2.7 6.2 5 12.5 6.6 18.6" class="st1"/><path d="M37.5-34.9c2 11.8 4.6 29.5 1.9 42.1C36.1 22.7 26.1 24 17 29.7c-6.6 4.1-14.7 9.4-21.4 17.8-4.9 6.3-7.3 14.4-6.2 22C-9.5 77.3-5.1 82.3.3 87.8c6.9 7 14 15.1 21.4 23.6 20.8 24.3 46.8 55.3 61.7 89.6 2.6 6.2 4.8 12.5 6.3 18.7" class="st1"/><path d="M36.5-35.7c1.8 11.8 4.1 29.6 1.3 42.2C34.2 22 24.3 23.4 15.1 29 8.4 33.1.1 38.4-6.7 46.9c-5 6.3-7.6 14.4-6.6 22 1 7.8 5.3 12.9 10.6 18.4 6.8 7.1 13.8 15.2 21.1 23.7 20.4 24.4 46.1 55.6 60.7 90 2.6 6.3 4.7 12.6 6.1 18.8" class="st1"/><path d="M35.6-36.5c1.6 11.9 3.6 29.6.6 42.3-3.8 15.5-13.8 16.9-23.1 22.5C6.4 32.4-2 37.7-9 46.2c-5.2 6.3-7.9 14.4-7 22 .8 7.9 5.1 12.9 10.3 18.4 6.7 7.1 13.6 15.3 20.8 23.8 20.1 24.5 45.5 55.9 59.6 90.5 2.5 6.3 4.5 12.6 5.9 18.9" class="st1"/><path d="M34.7-37.3c1.3 11.9 3.1 29.7-.1 42.5-4 15.6-14 16.9-23.4 22.5C4.4 31.8-4.1 37-11.2 45.5c-5.3 6.3-8.2 14.4-7.5 22 .7 7.9 4.8 12.9 10 18.5 6.6 7.2 13.4 15.3 20.4 24 19.8 24.7 44.8 56.2 58.5 91 2.4 6.3 4.3 12.7 5.6 18.9" class="st1"/><path d="M33.8-38c1.1 11.9 2.6 29.7-.8 42.5C28.8 20.1 18.8 21.4 9.3 27c-6.9 4.1-15.4 9.3-22.8 17.7-5.4 6.3-8.5 14.4-7.9 22 .6 7.9 4.6 13 9.7 18.6 6.6 7.2 13.2 15.4 20.1 24.1 19.5 24.8 44.1 56.5 57.4 91.4 2.3 6.3 4.2 12.7 5.4 19" class="st1"/><path d="M32.9-38.8c.9 11.9 2.1 29.9-1.4 42.6C27 19.4 17 20.7 7.4 26.3.5 30.3-8.2 35.6-15.8 44c-5.6 6.3-8.8 14.4-8.4 22 .4 7.9 4.4 13 9.4 18.6 6.4 7.2 13 15.5 19.8 24.2 19.2 24.9 43.4 56.8 56.2 91.8 2.2 6.4 4 12.8 5.1 19.1" class="st1"/><path d="M32.1-39.6c.7 12 1.6 29.9-2.2 42.7C25.2 18.8 15.2 20 5.5 25.6c-7 4-15.8 9.2-23.5 17.7-5.7 6.3-9.1 14.4-8.8 22 .3 7.9 4.2 13.1 9.1 18.7 6.3 7.3 12.7 15.6 19.5 24.3 18.8 25 42.7 57.1 55 92.3 2.2 6.4 3.8 12.8 4.9 19.1" class="st1"/><path d="M31.3-40.3c.4 12 1.1 30-2.9 42.8-4.9 15.6-14.9 16.8-24.7 22.4-7.1 4-16 9.2-23.9 17.6-5.8 6.2-9.4 14.4-9.3 22 .1 7.9 4 13.1 8.8 18.8 6.2 7.3 12.5 15.6 19.1 24.4 18.5 25.2 42 57.4 53.9 92.7 2.1 6.4 3.7 12.9 4.6 19.2" class="st1"/><path d="M30.5-41.1c.2 12 .6 30-3.6 42.9-5.2 15.7-15.2 16.9-25.1 22.5-7.2 4-16.2 9.2-24.3 17.6-6 6.2-9.7 14.4-9.7 22 0 7.9 3.7 13.1 8.5 18.8 6.1 7.3 12.3 15.7 18.8 24.6 18.1 25.3 41.3 57.7 52.7 93.1 2 6.4 3.5 12.9 4.3 19.3" class="st1"/><path d="M29.8-41.8c0 12 0 30.1-4.3 42.9C20 16.8 10 18 0 23.6c-7.2 4-16.4 9.1-24.7 17.5-6.1 6.2-10 14.3-10.2 22-.2 8 3.5 13.1 8.2 18.9 6 7.4 12.1 15.8 18.4 24.7 17.8 25.4 40.5 57.9 51.4 93.5 1.9 6.5 3.3 12.9 4.1 19.3" class="st1"/><path d="M29.1-42.6c-.3 12-.5 30.1-5.1 43C18.3 16.2 8.3 17.3-1.8 22.9c-7.3 4-16.6 9.1-25 17.5-6.3 6.2-10.3 14.3-10.7 22-.3 8 3.3 13.2 7.9 18.9 5.9 7.4 11.8 15.9 18.1 24.8 17.4 25.5 39.8 58.2 50.2 93.9 1.8 6.5 3.1 13 3.8 19.4" class="st1"/><path d="M28.4-43.3c-.5 12-1.1 30.2-5.8 43-5.9 15.7-16 16.9-26.2 22.4-7.4 4-16.7 9.1-25.4 17.4-6.4 6.2-10.7 14.3-11.1 22-.5 8 3 13.2 7.5 19 5.8 7.4 11.6 15.9 17.7 24.9 17.1 25.6 39 58.5 49 94.3 1.7 6.5 2.9 13 3.5 19.4" class="st1"/><path d="M27.7-44C27-32 26.1-13.8 21.1-.9 14.9 14.8 4.9 15.9-5.4 21.5c-7.5 4-16.9 9-25.8 17.3-6.6 6.2-11 14.3-11.6 21.9-.7 8 2.8 13.2 7.2 19 5.7 7.5 11.4 16 17.4 25 16.7 25.7 38.2 58.7 47.7 94.7 1.6 6.5 2.8 13.1 3.2 19.5" class="st1"/><path d="M27.1-44.7c-1 12-2.2 30.3-7.4 43.1C13.3 14.2 3.2 15.3-7.2 20.7c-7.5 3.9-17.1 9-26.2 17.3-6.7 6.2-11.3 14.2-12.1 21.9-.8 8 2.5 13.2 6.9 19.1 5.6 7.5 11.1 16 17 25.1 16.3 25.8 37.4 59 46.4 95 1.5 6.5 2.6 13.1 2.9 19.5" class="st1"/><path d="M26.5-45.4c-1.2 12-2.7 30.3-8.1 43.2C11.6 13.5 1.6 14.6-9 20c-7.6 3.9-17.3 9-26.6 17.2-6.8 6.1-11.7 14.2-12.6 21.9-1 8 2.3 13.3 6.5 19.1 5.5 7.5 10.9 16.1 16.6 25.2 16 25.9 36.6 59.2 45.1 95.4 1.4 6.6 2.4 13.1 2.6 19.6" class="st1"/></g></svg>