<svg xmlns="http://www.w3.org/2000/svg" xml:space="preserve" width="200" height="200" style="enable-background:new 0 0 200 200" viewBox="0 0 280 270"><path d="M265.3 45.4c-5.9-16.4-19.6-28.1-35.7-34-21.7-8-46.5-8-69.1-4.2-38.3 6.5-72.3 29.6-100.7 54.5-3.4 3-6.7 6-9.9 9.2-20.6 20.3-37 45.3-40.5 74.6-3.3 27.5 3.7 57 22.3 78.1 18.4 20.9 45.2 31.7 72.2 35.9 19.8 3.1 41.1 4 61.1 1.6 17.4-2.1 34.8-8 47.6-19.9 25-23.3 21.5-60.6 30.8-91 .8-2.8 1.8-5.6 2.8-8.3 5.2-14.4 12-28.2 16.8-42.8 5.6-17.4 8.5-36.6 2.3-53.7z" style="fill:#ffdc71"/></svg>