<svg xmlns="http://www.w3.org/2000/svg" width="122" height="122" fill="none"><path fill="#EAEFFD" fill-rule="evenodd" d="M5.229 10.457A5.229 5.229 0 1 0 5.229 0a5.229 5.229 0 0 0 0 10.457Zm0 18.59a5.229 5.229 0 1 0 0-10.456 5.229 5.229 0 0 0 0 10.457ZM29.048 5.23a5.229 5.229 0 1 1-10.457 0 5.229 5.229 0 0 1 10.457 0Zm-5.229 23.819a5.229 5.229 0 1 0 0-10.458 5.229 5.229 0 0 0 0 10.458Zm23.82-23.82a5.229 5.229 0 1 1-10.458 0 5.229 5.229 0 0 1 10.457 0Zm-5.23 23.82a5.229 5.229 0 1 0 0-10.458 5.229 5.229 0 0 0 0 10.458Zm23.82-23.82a5.229 5.229 0 1 1-10.457 0 5.229 5.229 0 0 1 10.457 0ZM61 29.049a5.229 5.229 0 1 0 0-10.458 5.229 5.229 0 0 0 0 10.458Zm23.82-23.82a5.229 5.229 0 1 1-10.458 0 5.229 5.229 0 0 1 10.457 0Zm-5.23 23.82a5.229 5.229 0 1 0 0-10.458 5.229 5.229 0 0 0 0 10.458Zm23.82-23.82a5.229 5.229 0 1 1-10.457 0 5.229 5.229 0 0 1 10.457 0Zm-5.23 23.82a5.229 5.229 0 1 0 .002-10.458 5.229 5.229 0 0 0-.001 10.458ZM122 5.228a5.229 5.229 0 1 1-10.457 0 5.229 5.229 0 0 1 10.457 0Zm-5.229 23.82a5.229 5.229 0 1 0 0-10.458 5.229 5.229 0 0 0 0 10.458ZM10.457 42.41A5.229 5.229 0 1 1 0 42.41a5.229 5.229 0 0 1 10.457 0Zm13.362 5.228a5.229 5.229 0 1 0 0-10.457 5.229 5.229 0 0 0 0 10.457Zm23.82-5.228a5.229 5.229 0 1 1-10.458 0 5.229 5.229 0 0 1 10.457 0ZM61 47.638a5.229 5.229 0 1 0 0-10.457 5.229 5.229 0 0 0 0 10.457Zm23.82-5.228a5.229 5.229 0 1 1-10.458 0 5.229 5.229 0 0 1 10.457 0Zm13.36 5.228a5.229 5.229 0 1 0 .002-10.457 5.229 5.229 0 0 0-.001 10.457ZM122 42.41a5.229 5.229 0 1 1-10.457 0 5.229 5.229 0 0 1 10.457 0ZM5.229 66.228a5.229 5.229 0 1 0 0-10.457 5.229 5.229 0 0 0 0 10.457ZM29.048 61a5.229 5.229 0 1 1-10.458 0 5.229 5.229 0 0 1 10.458 0Zm13.362 5.229a5.229 5.229 0 1 0 0-10.458 5.229 5.229 0 0 0 0 10.458ZM66.228 61a5.229 5.229 0 1 1-10.458 0 5.229 5.229 0 0 1 10.458 0Zm13.362 5.229a5.229 5.229 0 1 0 0-10.458 5.229 5.229 0 0 0 0 10.458ZM103.41 61a5.229 5.229 0 1 1-10.457 0 5.229 5.229 0 0 1 10.457 0Zm13.361 5.229a5.229 5.229 0 1 0 0-10.458 5.229 5.229 0 0 0 0 10.458ZM10.457 79.59A5.229 5.229 0 1 1 0 79.59a5.229 5.229 0 0 1 10.457 0Zm13.362 5.228a5.229 5.229 0 1 0 0-10.457 5.229 5.229 0 0 0 0 10.457Zm23.82-5.228a5.229 5.229 0 1 1-10.458 0 5.229 5.229 0 0 1 10.457 0ZM61 84.819a5.229 5.229 0 1 0 0-10.457 5.229 5.229 0 0 0 0 10.457Zm23.82-5.228a5.229 5.229 0 1 1-10.458 0 5.229 5.229 0 0 1 10.457 0Zm13.36 5.228a5.229 5.229 0 1 0 .001-10.458 5.229 5.229 0 0 0 0 10.458ZM122 79.591a5.229 5.229 0 1 1-10.458 0 5.229 5.229 0 0 1 10.458 0ZM5.229 103.41a5.229 5.229 0 1 0 0-10.457 5.229 5.229 0 0 0 0 10.457Zm23.819-5.23a5.229 5.229 0 1 1-10.458.002 5.229 5.229 0 0 1 10.458-.001Zm13.362 5.23a5.229 5.229 0 1 0 0-10.457 5.229 5.229 0 0 0 0 10.457Zm23.819-5.23a5.229 5.229 0 1 1-10.458.002 5.229 5.229 0 0 1 10.458-.001Zm13.362 5.23a5.229 5.229 0 1 0 0-10.458 5.229 5.229 0 0 0 0 10.458Zm23.819-5.23a5.229 5.229 0 1 1-10.458.001 5.229 5.229 0 0 1 10.458 0Zm13.361 5.23a5.229 5.229 0 1 0 0-10.458 5.229 5.229 0 0 0 0 10.458ZM10.457 116.771a5.229 5.229 0 1 1-10.457 0 5.229 5.229 0 0 1 10.457 0ZM23.82 122a5.229 5.229 0 1 0 0-10.457 5.229 5.229 0 0 0 0 10.457Zm23.82-5.229a5.229 5.229 0 1 1-10.458 0 5.229 5.229 0 0 1 10.457 0ZM61 122a5.229 5.229 0 1 0 0-10.457A5.229 5.229 0 0 0 61 122Zm23.82-5.229a5.229 5.229 0 1 1-10.458 0 5.229 5.229 0 0 1 10.457 0ZM98.18 122a5.229 5.229 0 1 0 .001-10.458 5.229 5.229 0 0 0 0 10.458Zm23.82-5.229a5.229 5.229 0 1 1-10.458 0 5.229 5.229 0 0 1 10.458 0Z" clip-rule="evenodd"/></svg>