<svg xmlns="http://www.w3.org/2000/svg" width="152" height="153" fill="none"><path fill="#EAEFFD" fill-rule="evenodd" d="m1.06 60.472 23.519-40.737a76.918 76.918 0 0 1 4.473-3.747L.068 66.189c.26-1.93.591-3.836.992-5.717ZM.474 89.438A76.36 76.36 0 0 1 0 86.258L46.415 5.865a76.028 76.028 0 0 1 2.987-1.174L.474 89.438Zm4.582 16.013a75.865 75.865 0 0 1-.93-2.387L63.015 1.061c.84-.142 1.684-.27 2.532-.385L5.056 105.451Zm6.572 12.568c-.41-.633-.81-1.272-1.202-1.918L77.457 0c.757.015 1.512.042 2.264.079l-68.093 117.94Zm7.924 10.227a79.49 79.49 0 0 1-1.404-1.569L90.49 1.377c.69.134 1.378.277 2.062.429l-73 126.44Zm9.007 8.349a79.092 79.092 0 0 1-1.574-1.274L102.397 4.704c.634.234 1.264.477 1.889.727L28.559 136.595Zm9.977 6.67c-.582-.326-1.16-.66-1.732-1.001L113.311 9.751c.582.327 1.159.66 1.731 1.002L38.536 143.265Zm10.922 5.033a72.969 72.969 0 0 1-1.89-.725l75.713-131.14c.529.42 1.054.845 1.572 1.277L49.458 148.298Zm11.916 3.312a70.607 70.607 0 0 1-2.064-.426l72.97-126.387c.474.517.942 1.041 1.402 1.572L61.374 151.61Zm13.042 1.36a77.26 77.26 0 0 1-2.265-.075L140.194 35.04c.409.634.809 1.275 1.2 1.921L74.416 152.97Zm14.454-1.084c-.84.144-1.685.274-2.534.39L146.753 47.63c.322.791.632 1.588.928 2.392l-58.81 101.864Zm16.625-4.845c-.987.415-1.985.81-2.993 1.184l48.813-84.545c.178 1.056.334 2.119.468 3.189l-46.288 80.172Zm21.924-14.022a76.42 76.42 0 0 1-4.506 3.804l28.747-49.791a76.171 76.171 0 0 1-1.023 5.773l-23.218 40.214Z" clip-rule="evenodd"/></svg>