<svg xmlns="http://www.w3.org/2000/svg" xml:space="preserve" id="Layer_1" width="196" height="253" x="0" y="0" style="enable-background:new 0 0 184.8 246.4" version="1.1" viewBox="0 0 184.8 246.4"><style>.st0{fill:none;stroke:#e2e3fd;stroke-width:.8;stroke-miterlimit:10}</style><path d="M95.8 11.7c18.1 8.3 31.3 24.9 40.6 39 9.4 14.2 14.9 26 19.3 37.3 4.4 11.3 7.6 22 12.8 35.8s12.7 30.5 12.1 48.2-9.2 36.5-23.9 48c-14.6 11.6-35.3 16-57.4 18.1-22.2 2.3-45.3 2.1-62.8-7.9S7.4 200.3 4.8 180.4c-2.7-19.9 3.6-39.7 11.9-55C25 110.2 35 99.6 37.8 80c2.9-19.5-1.5-48 7.9-62.2s32-14.2 50.1-6.1z" class="st0"/><path d="M95.6 17.4c17.2 7.9 29.7 23.7 38.6 37 8.9 13.5 14.2 24.7 18.4 35.4s7.2 20.9 12.2 34 12 29 11.5 45.7c-.6 16.8-8.7 34.7-22.7 45.6-13.9 11-33.6 15.2-54.5 17.2-21.1 2.2-43 2-59.7-7.5-16.6-9.5-27.7-28.4-30.1-47.3-2.6-18.9 3.4-37.7 11.3-52.2 7.7-14.5 17.2-24.5 19.9-43.2C43.2 63.6 39.1 36.5 48 23s30.4-13.4 47.6-5.6z" class="st0"/><path d="M95.5 23c16.3 7.5 28.1 22.4 36.5 35 8.4 12.8 13.4 23.4 17.4 33.5 3.9 10.2 6.8 19.8 11.5 32.2s11.4 27.4 10.9 43.3-8.3 32.9-21.5 43.2c-13.2 10.5-31.8 14.4-51.6 16.3-20 2-40.7 1.9-56.5-7.1-15.8-9-26.2-26.9-28.5-44.8-2.4-17.9 3.3-35.7 10.7-49.4 7.3-13.7 16.3-23.2 18.9-40.9 2.6-17.5-1.4-43.2 7.1-56S79.2 15.6 95.5 23z" class="st0"/><path d="M95.3 28.6c15.4 7.1 26.5 21.2 34.5 33.1 7.9 12.1 12.7 22.1 16.4 31.7 3.7 9.6 6.4 18.7 10.9 30.4s10.8 25.9 10.3 40.9-7.8 31-20.3 40.8c-12.4 9.9-30 13.6-48.7 15.4-18.8 1.9-38.5 1.8-53.3-6.7-14.9-8.5-24.7-25.4-26.9-42.3-2.3-16.9 3.1-33.7 10.1-46.7 6.9-13 15.4-21.9 17.8-38.6 2.4-16.5-1.3-40.8 6.7-52.8s27.1-12.2 42.5-5.2z" class="st0"/><path d="M95.1 34.2c14.5 6.6 25 19.9 32.4 31.1 7.5 11.3 11.9 20.7 15.4 29.8 3.5 9 6 17.6 10.3 28.6 4.2 11 10.1 24.4 9.7 38.5-.5 14.1-7.4 29.2-19.1 38.4-11.7 9.3-28.2 12.8-45.8 14.5-17.7 1.8-36.2 1.7-50.2-6.3S24.5 184.9 22.5 169c-2.2-16 2.9-31.8 9.5-44 6.5-12.2 14.5-20.6 16.8-36.3 2.3-15.6-1.2-38.4 6.3-49.7s25.5-11.3 40-4.8z" class="st0"/><path d="M95 39.8c13.6 6.2 23.4 18.7 30.4 29.2 7 10.6 11.2 19.4 14.5 27.9 3.3 8.5 5.7 16.5 9.6 26.8 4 10.3 9.5 22.8 9 36.1s-6.9 27.4-17.9 35.9c-11 8.7-26.5 12-43 13.6-16.6 1.7-33.9 1.6-47-5.9-13.1-7.5-21.8-22.4-23.7-37.4-2-14.9 2.7-29.7 8.9-41.1 6.1-11.4 13.6-19.3 15.7-34 2.1-14.6-1.1-35.9 5.9-46.6s24-10.6 37.6-4.5z" class="st0"/><path d="M94.8 45.4c12.7 5.8 21.8 17.4 28.4 27.2 6.5 9.9 10.4 18.1 13.5 26s5.3 15.4 9 25 8.9 21.3 8.4 33.6-6.4 25.5-16.7 33.5c-10.2 8.1-24.7 11.2-40.1 12.7-15.5 1.6-31.6 1.5-43.9-5.5-12.2-7-20.4-20.9-22.1-34.8-1.9-13.9 2.5-27.7 8.3-38.4 5.7-10.6 12.7-18 14.7-31.7 2-13.6-1.1-33.5 5.5-43.4s22.3-9.9 35-4.2z" class="st0"/><path d="M94.6 51c11.7 5.4 20.3 16.1 26.3 25.2 6.1 9.2 9.7 16.8 12.5 24.2s4.9 14.3 8.3 23.2 8.2 19.8 7.8 31.2c-.4 11.4-6 23.7-15.5 31.1-9.5 7.5-22.9 10.4-37.2 11.7-14.4 1.5-29.4 1.4-40.7-5.1s-18.9-19.4-20.5-32.3c-1.8-12.9 2.3-25.7 7.7-35.6 5.3-9.9 11.7-16.7 13.6-29.5 1.9-12.6-1-31.1 5.1-40.3s20.9-9.1 32.6-3.8z" class="st0"/><path d="M94.4 56.6c10.8 5 18.7 14.9 24.3 23.3 5.6 8.5 8.9 15.5 11.6 22.3 2.6 6.8 4.5 13.2 7.7 21.4s7.6 18.2 7.2 28.8c-.4 10.6-5.5 21.8-14.3 28.7-8.8 6.9-21.1 9.6-34.3 10.8-13.3 1.4-27.1 1.3-37.5-4.7-10.5-6-17.4-17.9-19-29.8-1.6-11.9 2.2-23.7 7.1-32.9 4.9-9.1 10.8-15.4 12.5-27.2 1.7-11.6-.9-28.7 4.7-37.2 5.7-8.4 19.2-8.4 30-3.5z" class="st0"/><path d="M94.3 62.2c9.9 4.5 17.1 13.6 22.2 21.3 5.1 7.8 8.2 14.2 10.6 20.4 2.4 6.2 4.1 12.1 7 19.6 2.9 7.5 6.9 16.7 6.6 26.4-.3 9.7-5 20-13.1 26.3-8 6.4-19.3 8.8-31.4 9.9-12.2 1.2-24.8 1.2-34.4-4.3s-16-16.4-17.4-27.3c-1.5-10.9 2-21.7 6.5-30.1 4.5-8.3 9.9-14.1 11.5-24.9 1.6-10.7-.8-26.3 4.3-34.1 5.2-7.7 17.6-7.7 27.6-3.2z" class="st0"/><path d="M94.1 67.8c9 4.1 15.5 12.4 20.2 19.4 4.7 7.1 7.4 12.9 9.6 18.5 2.2 5.6 3.8 11 6.4 17.8 2.6 6.8 6.3 15.2 6 23.9-.3 8.8-4.6 18.2-11.9 23.9-7.3 5.8-17.6 8-28.5 9-11 1.1-22.5 1.1-31.2-3.9s-14.5-14.9-15.8-24.8c-1.4-9.9 1.8-19.7 5.9-27.3 4.1-7.6 9-12.8 10.4-22.6 1.4-9.7-.8-23.9 3.9-30.9s16-7.1 25-3z" class="st0"/><path d="M93.9 73.4c8.1 3.7 14 11.1 18.1 17.4 4.2 6.3 6.7 11.6 8.6 16.7s3.4 9.9 5.7 16c2.4 6.1 5.7 13.6 5.4 21.5s-4.1 16.3-10.7 21.5c-6.5 5.2-15.8 7.2-25.6 8.1-9.9 1-20.2.9-28.1-3.5s-13-13.4-14.2-22.3c-1.2-8.9 1.6-17.7 5.3-24.6 3.6-6.8 8.1-11.5 9.4-20.3 1.3-8.7-.7-21.5 3.5-27.8s14.5-6.3 22.6-2.7z" class="st0"/><path d="M93.7 79c7.2 3.3 12.4 9.9 16.1 15.4 3.7 5.6 5.9 10.3 7.7 14.8 1.7 4.5 3 8.7 5.1 14.2 2.1 5.4 5 12.1 4.8 19.1-.2 7-3.7 14.5-9.5 19-5.8 4.6-14 6.3-22.8 7.2-8.8.9-18 .8-24.9-3.1-6.9-4-11.6-11.9-12.6-19.8-1.1-7.9 1.4-15.7 4.7-21.8 3.2-6 7.2-10.2 8.3-18 1.1-7.7-.6-19 3.1-24.7 3.9-5.5 12.9-5.5 20-2.3z" class="st0"/><path d="M93.6 84.6c6.3 2.9 10.8 8.6 14.1 13.5 3.2 4.9 5.2 9 6.7 12.9s2.6 7.6 4.4 12.4c1.8 4.8 4.4 10.6 4.2 16.7-.2 6.1-3.2 12.7-8.3 16.6-5.1 4-12.2 5.5-19.9 6.3-7.7.8-15.7.7-21.7-2.7-6.1-3.5-10.1-10.4-11-17.3-.9-6.9 1.3-13.8 4.1-19 2.8-5.3 6.3-8.9 7.3-15.7 1-6.7-.5-16.6 2.7-21.5s11.1-5 17.4-2.2z" class="st0"/><path d="M93.4 90.2c5.4 2.5 9.3 7.4 12 11.5 2.8 4.2 4.4 7.7 5.7 11 1.3 3.4 2.2 6.5 3.8 10.6 1.6 4.1 3.8 9 3.6 14.3-.2 5.2-2.7 10.8-7.1 14.2-4.3 3.4-10.5 4.7-17 5.4-6.6.7-13.4.6-18.6-2.3-5.2-2.9-8.6-8.8-9.4-14.7-.8-5.9 1.1-11.8 3.5-16.3s5.4-7.6 6.2-13.5c.8-5.8-.4-14.2 2.3-18.4 2.9-4.2 9.6-4.2 15-1.8z" class="st0"/><path d="M93.2 95.8c4.5 2 7.7 6.1 10 9.6s3.7 6.4 4.7 9.2 1.9 5.4 3.2 8.8c1.3 3.4 3.1 7.5 3 11.8s-2.3 9-5.9 11.8c-3.6 2.9-8.7 3.9-14.1 4.5-5.5.6-11.1.5-15.4-1.9s-7.2-7.3-7.8-12.2c-.7-4.9.9-9.8 2.9-13.5 2-3.7 4.5-6.3 5.2-11.2.7-4.8-.4-11.8 1.9-15.3s7.9-3.6 12.3-1.6z" class="st0"/><path d="M93.1 101.4c3.5 1.6 6.1 4.9 7.9 7.6 1.8 2.8 2.9 5.1 3.8 7.3.9 2.2 1.5 4.3 2.5 7s2.5 6 2.4 9.4c-.1 3.5-1.8 7.1-4.7 9.4-2.9 2.3-6.9 3.1-11.2 3.5-4.3.4-8.8.4-12.3-1.5-3.4-1.9-5.7-5.8-6.2-9.7-.5-3.9.7-7.8 2.3-10.7 1.6-3 3.5-5 4.1-8.9.6-3.8-.3-9.4 1.5-12.2 1.9-2.8 6.3-2.8 9.9-1.2z" class="st0"/><path d="M92.9 107c2.6 1.2 4.5 3.6 5.9 5.7 1.4 2.1 2.2 3.8 2.8 5.4.6 1.6 1.1 3.2 1.9 5.2.8 2 1.8 4.4 1.8 7-.1 2.6-1.3 5.3-3.5 7-2.1 1.7-5.1 2.3-8.3 2.6-3.2.3-6.6.3-9.1-1.1-2.5-1.4-4.2-4.3-4.6-7.2-.4-2.9.5-5.8 1.7-8s2.6-3.7 3-6.6c.4-2.8-.2-7 1.1-9 1.4-2.1 4.7-2.1 7.3-1z" class="st0"/><path d="M92.7 112.6c1.7.8 3 2.4 3.8 3.7.9 1.3 1.4 2.5 1.8 3.5.4 1.1.7 2.1 1.2 3.4.5 1.3 1.2 2.9 1.1 4.6-.1 1.7-.9 3.5-2.3 4.6-1.4 1.1-3.3 1.5-5.4 1.7-2.1.2-4.3.2-6-.7s-2.8-2.8-3-4.7c-.3-1.9.3-3.8 1.1-5.2.8-1.4 1.7-2.4 2-4.3.3-1.8-.1-4.6.7-5.9 1.1-1.4 3.3-1.4 5-.7z" class="st0"/><path d="M92.5 118.3c.8.4 1.4 1.1 1.8 1.7.4.6.7 1.2.9 1.7s.3 1 .6 1.6c.2.6.6 1.4.5 2.1 0 .8-.4 1.6-1.1 2.1-.7.5-1.6.7-2.6.8-1 .1-2 .1-2.8-.3-.8-.4-1.3-1.3-1.4-2.2-.1-.9.2-1.8.5-2.4.4-.7.8-1.1.9-2 .1-.9-.1-2.1.3-2.8.6-.7 1.6-.7 2.4-.3z" class="st0"/></svg>