<svg xmlns="http://www.w3.org/2000/svg" xml:space="preserve" id="Layer_1" x="0" y="0" style="enable-background:new 0 0 1920 1080" version="1.1" viewBox="0 0 1920 1080"><style>.st1{fill:#fff}.st3,.st4{display:inline}.st4{fill:#fff}</style><path d="M980.1 3.3h133.7c2.1 1.4 3.2 2.8 4 4.7 2.2 5.8 4.4 11.6 6.8 17.4 7.2 18.3 14.8 37.1 20.2 56.3 3.4 11.2 6.2 22.8 9 33.9 1.9 7.7 3.8 15.5 6.1 23.1 6.2 23.4 17.1 42.7 33.5 59.2 4.6 4.6 9.1 9 13.9 13.4 7.5 7.1 15.2 14.2 22 22 20.7 23.5 32.5 52.5 36 89.2l.7 7.7c1.8 18.8 3.5 38.3 7.4 57.1 8.6 42.5 14.3 86.6 17.4 134.7.9 12.7 2.7 29.5 9.4 45.4 8.6 20.3 23.2 32.8 42.9 36.9 5.3 1.1 10.3 1.5 15.3 1.5 16.1 0 31.7-5.4 46.3-15.9 20.5-14.7 35.4-35.8 45.7-64.7 8.9-24.5 10.2-50.3 10.6-72.7.6-17 1.3-35.1 4.6-53.4 6.9-39.3 26.1-71.2 57-95.3 11.8-9.1 24.5-17.3 36.7-25.3l8.4-5.4c52.1-34.2 45.3-92 40-115.2-1.6-6.5-5.5-11.6-9.3-16.3-11.1-13.3-26.4-16.3-40-18.1-11.1-1.4-22-1.7-30.3-1.7-4.4 0-8.7.1-13.1.1-4.4.1-8.7.1-13.1.1h-7.1c-12.4-.4-22.6-1.5-31.9-3.9-40.6-10-76-31.7-108.3-66.1-10.3-11.1-18.6-24.9-26-43.6-1.2-2.9-1.5-4-.7-5.1h62.6c2.4 1.2 3.7 3.6 5.3 6.6 10 18.4 20.5 31.7 33.3 41.8 24.6 19.5 53.4 28.6 90.8 28.6 6.2 0 12.8-.3 19.8-.8 18.9-1.5 39.1-3 59.3-5.3 13.1-1.4 26.4-2.6 39.3-6.1 11.2-2.9 18.7-9.5 22.7-19.9 3.5-9.7 6.2-20.3 8.1-33.9l.4-2.5c.3-3.5.7-6.5 2.7-8.7h59.5c2.1 1.7 3.7 3.7 5.6 5.9 9 12.2 18.9 20.2 30.4 25 10.8 4.4 22.1 7.3 33.2 10.2l.7.3c3.5 1 7.1 1.8 10.6 2.6 14.2 3.5 28.6 7.2 42.2 13 19.8 8.4 32.2 18.3 40.1 31.9 13.4 23.4 18.3 48.8 14.3 75.9-6.1 40.4-26 68.7-60.6 86.7-28.8 14.9-59.5 24.1-82.9 30.6-4.4 1.2-8.9 2.4-13.3 3.5-15.1 3.9-30.7 8-45.5 14.4-26.1 10.8-42.4 30.4-47.8 57.9-2.7 13.3-2.7 26.7-2.7 39.7v7.2c0 12.3 2.1 25.4 6.3 40.1 11.4 39.8 36.7 71.6 77.8 97.8 21.8 13.8 45.7 24.8 68.8 35.4 5.6 2.6 11.2 5.1 16.8 7.7 21.2 10.1 44 21.4 65.1 36.1 9.7 6.6 19.6 14.4 26.1 25.3v134.8c-1-.1-2.2-1.2-3.4-2.4-.7-.6-1.3-1.2-1.9-1.7-17.1-14.1-30.7-25.9-42.8-36.9-23.8-22-44.7-45.9-69.1-75.2-21.2-25.4-39-44.1-57.3-60.4-4.4-3.9-8.9-7.7-13.3-11.6-16.1-14-32.6-28.5-47.8-44-15.3-15.8-28.8-34.3-40.9-56.6-15.6-28.8-22.3-60.6-27.3-87.9l-.6-3.6c-2.5-14.2-5.2-28.8-11.1-42.5-5.5-12.3-15.3-19.2-27.7-19.2-2.5 0-5 .3-7.5.8-6.2 1.2-12.2 3.5-19.2 7.3-20.4 10.8-29.7 29.6-36 46.6-7.5 20.1-9.4 41.2-11.2 61.8l-.9 9.4c-3.4 39-15.5 75.2-35.6 107.7-15.2 24.6-34.4 43.7-57.1 56.8-19.8 11.5-42.1 17-67.7 17-10.2 0-20.7-.8-32.5-2.5-23.5-3.3-38.7-15.8-45.3-36.9-3.8-12.2-5-25-5.6-36-.6-10.6-1-21.4-1.3-32.2-.4-11.9-.7-24.3-1.5-36.6-1.8-26-7.2-51.4-16.4-75.8-9.1-24.3-21.2-49.8-38.2-80.3-15.9-29-35.6-49-60.1-60.7-12.5-6.1-23.2-10.2-32.8-10.1-13 0-23.6 7.2-35.4 24.2-18.6 26.7-37.3 49.9-57.3 71.5-18 19.5-39.5 38.3-69.7 61.1-26.1 19.5-43.8 38.9-55.9 61-3.5 6.6-6.9 13.4-10.3 20.1-4.4 9-9.1 18.3-14.3 27.1-19.2 32.9-43.7 53.8-75 63.9-9.9 3.2-20.1 5.9-30 8.7-13.7 3.7-27.9 7.7-41.6 12.6-44.7 15.9-73.2 42.2-87.2 80.1-9.3 25-11.8 46.5-7.8 67.5 3.5 18.8 12.5 36.5 26.7 52.7 28.5 32.4 52.4 64.2 73.3 97.1 7.4 11.9 14.2 21 21.1 28.6 14.5 15.9 30.3 23.6 48.3 23.6h2.1c26.3-1 49.9-11.8 74.5-34.2 18.9-16.9 30.7-39.1 42.2-60.6l.9-1.7c16.8-31.4 37.9-58.1 62.6-79.2 24.6-20.9 49.1-41.5 73.9-62.2 13.9-11.6 27.7-23.2 41.6-35 28-23.6 56.7-35.3 87.5-35.3 2.4 0 4.7.1 7.2.3 21.1 1.2 36.2 7.5 47.7 19.9 7.7 8.4 14.2 18.1 19.9 29.5 3.1 6.1 6.2 12.2 9.1 18.3 10.3 20.6 21.1 41.9 34.5 61.4 14.9 21.4 30.1 36 47.7 45.8 15.6 8.9 30.4 13.1 45.3 13.1 9.7 0 19.5-1.9 28.9-5.7 9.7-3.9 18.4-8 26.4-12.6 5.2-2.9 10.3-5.9 15.3-9 12.5-7.3 25.7-15.1 39.1-21.3 19.8-9.3 40.1-14 60.4-14 8.7 0 17.7.8 26.6 2.6 39 7.5 66.6 35.5 73.8 75.1 2.7 14.8 2.8 30.8.4 50.8-3.8 33.2-25.8 57.1-58.7 63.9-18.2 3.7-36.9 4.6-54.9 5.1-8.3.3-16.7.7-24.9 1.2-4.6.3-9.3.4-14 .4-7.2 0-14.6.1-22 1.2-33.8 4.6-58.7 18.7-76.4 42.7-6.1 8.3-11.4 17.7-17.1 30.4-1.3 3-3 5-5.3 6.4h-80.7c-1-1.1-1.5-1.9-1.5-3.2 0-3-.4-6.1-.9-9-.4-3.2-.7-6.1-.7-9.1.3-22 1.2-47.7 5.9-72.9 3-15.8.1-30.8-8.9-46.2-8.7-15.1-17-31.8-25.7-52.7-3.1-7.5-6.2-14.9-9.3-22.4-8.6-20.7-17.3-42.3-28.2-62.5-10.6-20.1-20.7-34.3-32.5-45.8-13.9-14-30.3-21-48.5-21-1 0-2.1 0-3.1.1-15.9 1-31.4 5.9-46.5 15.1-21.2 13.1-41.9 27.9-61.7 42.3l-12.8 9.4c-19.3 13.8-37.2 30-52.8 48.1-18.2 21-30 46-40.1 70-15.9 37.1-38.8 71.2-69.9 104-12.1 12.9-25.2 28.9-30.8 50.3-.7 2.5-1.8 4.3-3.4 5.5H740l-.3-.4c-1.6-1.5-3.1-2.9-3.8-4.8-7.1-17.8-19.5-32.9-37.8-46.2l-7.5-5.5c-16.1-11.6-32.8-23.8-47.5-37.5-21.8-20.6-42.1-44-61.5-71.2-17.3-24.3-36.2-43.6-58.1-58.8-10-7.1-20.1-15.6-31.4-27-18.7-18.3-36-38.3-52.7-57.7-5.5-6.2-10.8-12.4-16.2-18.8-15.6-18-26.9-34-35.3-50.5-20.7-40.1-25.2-83.8-27-121.1-1.3-25 1.9-51.9 10.2-83.8 5.2-20.3 10.2-42.3 9.4-65.1-1.2-34.8-10.8-66.5-28.8-94-17.7-27.1-44.3-40.8-78.8-40.8-1.8 0-3.4.1-5.2.1-22.3 1-45 7.1-67.3 18.3-18.2 9-34.8 20.1-54 33.9-38.3 28.4-81.7 46.4-133 55.5-.7.1-1.6.3-2.4.6-1.5.3-2.8.7-4 .7-1 0-1.8-.3-2.5-.7v-75c1.2-1.1 2.1-1.2 3-1.2 4.4 0 8.1-.6 11.8-1 3-.4 5.8-.7 8.7-.8 17.1-.8 32.8-3.2 47.8-7.3 19.5-5.1 37.8-13.4 55.5-21.3 5.8-2.5 11.5-5.1 17.3-7.6 40.7-17.7 79.2-26.3 117.6-26.3 10.8 0 21.7.7 32.5 2.1 33.5 4.1 59.6 21.2 77.6 50.8 15.2 24.6 26 53.9 34.2 92.2 5 23.2 6.1 43.8 3.2 63.2-1.9 13.4-5.3 26.7-8.6 39.7-1.2 4.8-2.4 9.4-3.5 14.2-7.4 30.7-9 59.2-5.2 87.3 8.1 57.9 37.8 101.2 87.8 128.7 13.3 7.3 25.1 10.8 36 10.8 16.8 0 31.6-8.3 45-25.4 9.4-11.6 17.4-24.3 25.2-36.6 3-4.6 5.8-9.1 8.7-13.7 21-31.5 49.9-56 86-72.3 14.8-6.8 30.1-12.4 45-18.1 8.9-3.3 17.9-6.6 26.7-10.1 41.9-17.1 65.5-45.6 72.2-87.3 3.1-19.6 4.4-39.4 4-59.9-.3-7.5.7-14.9 2.7-22.3 3.8-14.2 12.7-22.4 27.3-24.6 6.5-1.1 13.1-1.2 19-1.2h9.2c25.4-.1 48.8-10.5 66-29.2 18.7-20.5 27-48.1 22.6-75.6-5.3-32.8-18.6-63.3-30.4-90.3-2.2-5-4.4-10-6.6-14.8-8.9-17.7-17-35.3-22.6-53.7-8.1-26.6-5.8-47.4 7.4-65.8 7.7-10.8 17.6-19.4 27.2-27.1 2.7-2.1 5.2-4.4 7.7-6.6 5.3-5.4 10.7-10.2 17.6-12.3m-.5-2.9c-11.4 3.2-18.2 12.7-27 19.5-10.2 8.2-20.1 16.7-27.7 27.7-15.2 21.4-15.1 44.4-7.7 68.3 7.4 23.6 18.3 45.6 28.2 68 12.7 29 25.1 58.1 30.3 89.6 8.4 53.1-31.9 101.4-85.6 101.5h-9.2c-6.5 0-13 .1-19.5 1.2-15.9 2.6-25.7 11.5-29.8 26.8-2.1 7.5-3 15.2-2.8 23 .4 19.9-.9 39.7-4 59.5-6.6 42.2-31.4 69.3-70.2 85-23.8 9.5-48.4 17.4-71.9 28.2-35.9 16.3-65.4 40.4-87.4 73.6-11.1 16.7-21.1 34.2-33.8 50.1-13.1 16.9-27.2 24.3-42.6 24.3-10.8 0-22.1-3.7-34.4-10.4-49.7-27.4-78.4-70-86.3-126.7-4-29.3-1.8-57.8 5.2-86.4 4.3-17.8 9.4-35.7 12.1-54.1 3.1-21.6 1.3-43.1-3.2-64.2-6.9-32.6-16.8-64.4-34.5-93.1-18.3-29.7-44.9-47.8-79.8-52.1-11.1-1.5-22-2.2-32.9-2.2-41 0-80.6 10-118.9 26.6-23.9 10.2-47.1 22.4-72.3 28.8-15.5 4.1-31.1 6.5-47.1 7.2-6.6.3-13.1 1.7-19.8 1.7h-.7c-2.5 0-4.3 1.4-6.1 3v77.4c1.8 1.7 3.7 2.2 5.6 2.2 2.4 0 4.9-.8 7.1-1.2 48.8-8.7 94-26.3 134.4-55.5 17.1-12.3 34.5-24.2 53.6-33.6 20.7-10.4 42.9-16.9 66-17.8 1.6-.1 3.4-.1 5-.1 31.3 0 58 11.5 76.1 39.5 18.3 28.1 27.2 59.2 28.3 92.7.9 22.1-3.8 43.3-9.3 64.4-7.2 27.8-11.8 56-10.3 84.6 2.1 42.2 7.7 83.9 27.3 122.2 9.4 18.8 22 35.5 35.6 51.2 22.7 25.9 44.4 52.4 69.2 76.6 9.9 9.8 20.4 19.2 31.9 27.4 22.9 15.9 41.5 35.5 57.4 58.1 18.4 25.7 38.8 49.8 62 71.6 17.3 15.9 36.3 29.3 55.3 43.1 16.2 11.8 29.2 26.1 36.7 44.9 1.3 2.9 3.5 4.8 5.8 6.9H832c3-1.8 4.6-4.3 5.5-7.7 5-19.5 16.7-35 30.1-49.2 29.4-31 53.6-65.3 70.5-104.8 10.5-24.5 22-48.7 39.7-69.1 15.5-18 33.1-33.7 52.2-47.7 24.5-17.7 48.5-35.8 74.4-51.6 13.9-8.4 28.9-13.7 44.9-14.7h3c17.9 0 33.5 7.2 46.3 20.2 13.3 13.1 23.3 28.8 31.9 45.1 14.6 27.4 25.2 56.4 37.3 84.8 7.7 18.3 15.9 36.1 25.8 53.1 8.1 13.8 11.5 28.3 8.6 44.4-4.4 24.2-5.6 48.8-5.9 73.3-.1 6.2 1.5 12.2 1.5 18.1 0 2.6 1.5 4.3 3.2 6.1h82.9c3.5-1.8 5.8-4.3 7.2-8 4.9-10.4 10-20.5 17-29.9 18.4-25.3 44.1-37.5 74.4-41.6 11.8-1.8 23.9-.7 35.7-1.5 26.7-1.9 53.7-.8 80.3-6.4 33.2-6.9 57-31.3 61.1-66.4 2.1-17.1 2.8-34.4-.3-51.6-7.4-40.7-35.7-69.6-76.1-77.4-9.1-1.8-18.2-2.6-27.2-2.6-21.2 0-41.9 5-61.8 14.2-18.9 8.9-36.4 20.1-54.5 30.4-8.4 4.8-17.1 8.7-26.1 12.3-9.4 3.7-18.6 5.4-27.7 5.4-15.1 0-29.5-4.7-43.7-12.6-19.5-10.9-34.1-26.8-46.6-44.8-17.3-24.9-29.8-52.4-43.7-79.2-5.5-10.9-12.1-21-20.4-30.1-13.4-14.8-30.7-19.8-49.6-20.9-2.5-.1-5-.3-7.4-.3-34.2 0-63.6 14.1-89.6 36-38.4 32.4-77 64.6-115.4 97.2-26.1 22.4-46.9 49.5-63.3 80.1-11.8 22.1-23.5 44.5-42.5 61.5-20.5 18.7-43.8 32.2-72.5 33.3h-1.9c-18.7 0-33.6-9-46-22.5-7.8-8.7-14.6-18.4-20.8-28.3-21.8-34.6-46.6-66.8-73.5-97.4-13-14.8-22.4-31.8-26.1-51.3-4.1-22.8-.1-44.7 7.8-66.1 15.1-40.8 45.9-64.2 85.3-78.4 23.5-8.3 47.8-13.8 71.3-21.3 34.8-11.2 58.7-34.6 76.7-65.4 8.9-15.3 16.1-31.7 24.6-47.3 13.3-24.6 32.9-43.6 55.2-60 24.9-18.8 48.8-38.7 70.1-61.5 20.8-22.5 39.8-46.5 57.4-71.6 11.5-16.6 21.4-23.1 32.9-23.1 9 0 18.9 3.7 31.4 10 26.6 12.9 44.7 34 58.6 59.5 14.5 25.9 27.6 52.1 38.1 79.9 9.1 24.2 14.5 49.2 16.2 75.1 1.5 23 1.6 45.8 2.8 68.7.7 12.3 2.1 24.8 5.8 36.6 7.2 23.4 24.8 35.7 47.8 39 11.1 1.7 22 2.6 32.9 2.6 24.1 0 47.4-4.7 69.5-17.4 24.5-14.1 43.4-34 58-57.8 20.7-33.3 32.6-69.7 36-109 2.2-23.6 3.2-47.7 12-70.4 6.9-18.5 16.2-35.4 34.7-45.1 5.8-3.2 11.8-5.8 18.3-7.1 2.4-.6 4.6-.7 6.9-.7 11.2 0 19.9 6.1 24.9 17.4 6.3 14.5 8.7 30 11.5 45.5 5.6 30.7 12.4 61 27.6 88.8 11.4 20.9 24.8 40.1 41.5 57.2 19.3 19.8 40.4 37.5 61.2 55.7 20.7 18.4 39.3 38.7 57 60 21.7 26.3 44.1 52.3 69.2 75.5 13.9 12.7 28.3 25 42.9 37.1 2.2 1.7 4.3 4.7 7.5 4.7.9 0 1.9-.3 3-.8V649.9c-6.6-11.5-16.7-19.6-27.3-27-20.5-14.4-42.8-25.6-65.5-36.4-28.8-13.6-58.1-26-85.1-43-36.6-23.2-64.3-53.5-76.4-96.1-3.7-12.7-6.3-26-6.3-39.4.1-15.5-.4-30.8 2.7-46.2 5.5-27 20.8-45.4 46-55.9 18.9-7.9 38.8-12.3 58.4-17.7 28.6-7.7 56.8-16.9 83.5-30.7 36.4-18.8 56.2-49 62.3-88.8 4.1-27.5-.6-53.5-14.6-77.7-9.6-16.5-24.6-26-41.6-33-17.1-7.3-35.1-11.1-53.1-15.6-11.2-2.9-22.6-5.9-33.5-10.4-12.1-5-21.2-13.4-28.9-23.6-2.2-2.8-4.3-5.5-7.2-7.5h-61.8c-4.1 3.6-4 8.7-4.9 13.7-1.6 11.2-3.8 22.5-8 33.3-3.7 9.8-10.6 15.6-20.7 18.3-12.7 3.3-25.7 4.6-38.7 5.9-19.8 1.9-39.5 3.6-59.3 5.1-6.5.6-13 .8-19.5.8-31.9 0-62.1-6.8-88.7-27.9-14-11.2-24.1-25.3-32.6-40.9-1.8-3.3-3.5-6.5-7.2-8.2h-64.8c-3.2 2.6-2.1 5.8-.9 9 6.5 16.2 14.6 31.5 26.4 44.3 30.4 32.5 66.3 56.3 109.9 67.1 10.8 2.6 21.5 3.6 32.8 3.9 2.4.1 4.7.1 7.1.1 8.7 0 17.4-.3 26.3-.3 10 0 19.9.3 29.8 1.5 14.5 1.9 28 5.1 38.1 17 3.7 4.6 7.2 9.4 8.6 15.1 9 39.3 3 84.9-38.8 112.3-15.3 10-30.8 19.5-45.3 30.8-31.9 24.8-51.1 57.4-58.1 97.1-3.2 17.8-4 35.8-4.6 53.8-.6 24.3-2.2 48.7-10.6 71.9-9 25.2-22.4 47.6-44.6 63.3-13.6 9.8-28.5 15.2-44.4 15.2-4.9 0-9.7-.6-14.6-1.5-20.1-4.1-33.2-16.9-40.7-35.1-6.1-14.2-8.1-29.3-9.1-44.7-3-45.4-8.6-90.3-17.6-135-4.1-21.3-5.9-43-8-64.7-3.2-33.7-13.6-64.7-36.7-90.9-11.2-12.4-24.2-23.5-36-35.4-16.4-16.3-26.9-35.5-32.9-57.9-5.2-18.9-9.3-38-14.9-57-7.4-25.2-17.7-49.2-27.2-73.8-1.2-3-3.2-5-6.1-6.5-44.9-.2-89.9-.2-135-.2zM6.9 653.6c.6 0 1.2 0 1.8.1 18 2.2 32.6 4.3 45.6 6.6 53 9.7 96.5 34.2 129.3 73.2 8.9 10.5 16.7 21.4 23.2 32.6 19.5 34.3 25.2 71.5 28.6 106.6l.3 2.1c2.2 22.7 4.3 45.9 11.2 68.3 8 26.1 19.6 44.3 36.6 57.2 12.4 9.4 25.7 17.6 38.7 25.4 4.9 2.9 9.9 5.9 14.6 9 15.1 9.4 28.6 21.7 40.1 36.2 2.2 2.8 3 4.1 2.5 5.5h-72.2c-4.4-1.5-9-2.4-13.4-3.2-3.1-.6-6.2-1.1-9.1-1.9-5.6-1.5-11.1-2.2-16.5-2.2-9.7 0-19.3 2.5-28.5 7.3-78.1 0-156.4 0-234.5.1-1.3 0-1.9-.1-2.1-.1.1-.1 0-.6 0-2.1.3-10.4.1-20.6.1-31v-12.2c1.2-1.1 2.5-1.5 4.6-1.5 1.2 0 2.4.1 3.5.4 6.1 1 12.1 1 17.9 1H51.5c13.7 0 28.5-.3 43.2-1.5 19-1.8 41-4.1 62.1-10.9 17.7-5.8 29.1-18.1 33.6-36.6 5-20.3 6.2-40.5 7.1-62.9 1.2-20.7 2.1-41.2.7-62.1-2.5-34.3-9.9-61.1-23.3-84.4-19.5-33.3-45.6-55.2-80.1-66.7-19-6.2-37.6-6.9-51.8-6.9-8.1 0-16.4.3-24.6.7l-4.7.1c-.9.1-1.8.1-2.7.3-1.2.1-2.4.3-3.4.3-2.1 0-3.4-.4-4.4-1.4v-44c1-1.1 2.2-1.4 3.7-1.4m0-2.9c-2.5 0-4.9.8-6.8 3V700c2.2 2.5 4.9 3.2 7.5 3.2 2.1 0 4.1-.4 6.2-.6 9.7-.4 19.6-.8 29.2-.8 17 0 33.9 1.4 50.8 6.8 35 11.6 60.4 34 78.5 65.4 14.9 25.6 20.8 53.7 23 83.1 1.3 20.6.4 41.1-.7 61.8-.9 20.9-2.1 41.9-7.1 62.5-4.3 17.6-14.8 28.9-31.6 34.6-19.9 6.4-40.6 8.9-61.4 10.8-14.3 1.2-28.6 1.5-42.9 1.5-7.4 0-14.9-.1-22.3-.1-5.8 0-11.7 0-17.4-1-1.3-.3-2.7-.3-4-.3-2.8 0-5.5.7-7.7 3.3 0 14.7.3 29.5-.1 44.1-.1 4.1.9 5.1 5.2 5.1 78.4-.1 156.9-.1 235.2-.1 8.9-5 18.2-7.3 27.6-7.3 5.2 0 10.5.7 15.6 2.1 7.7 1.9 15.5 2.6 22.9 5.3h74.5c3.4-4 .4-7.3-1.8-10.1-11.5-14.5-25.1-27-40.9-36.9-17.7-11.2-36.3-21.4-53.1-34.3-18.7-14.4-28.9-34-35.6-55.7-6.9-22.8-9-46.3-11.4-70-3.5-37.6-10-74.3-28.9-107.7-6.8-11.8-14.6-22.8-23.5-33-34.5-40.9-78.8-64.7-131-74.3-15.2-2.6-30.5-4.8-45.9-6.6-.6-.1-1.4-.1-2.1-.1z" class="st1"/><path d="M411.2 3.3h28.2c2.4 1.4 3.2 3.7 4.1 7.9 4.6 20.3 13 40.7 27.6 66 6.6 11.3 13.3 22.8 20.1 34.2 10.6 18 21.5 36.5 32 54.9 12 21.4 25.4 43.8 45.6 61.3 24.2 20.7 48.1 31 73.2 31 2.2 0 4.4-.1 6.8-.3 23-1.5 41.8-11.1 55.6-28.5 17.9-22.3 24.1-48.8 27.7-71.8 2.8-18.1 4-36.5 5.3-54.3l.7-9.3c1.9-27.1 6.1-54.3 10.2-80.6l.7-4.7c.4-2.4 1.3-3.9 3.1-5.7h66.7c-3 14.1-8 28.1-14.9 41.3-16.2 31.3-27.7 65.1-35.3 103.4l-1.2 5.8c-5 24.9-10.2 50.5-19 74.7-4.9 13.7-10.5 27.9-21 39-16.8 17.3-37.9 25.7-64.3 25.7-6.1 0-12.5-.4-19.3-1.4-45.5-6.2-84-29.7-117.6-71.9-15.1-18.8-27.9-40-40.1-60.2l-1.6-2.6c-4.4-7.2-9-14.5-13.6-21.7-14.9-23.5-30.3-47.8-41.8-73.8-10.1-22.6-15.5-40.9-17.9-58.4M407.8.4c2.4 22 9.7 42.5 18.6 62.2 15.1 34 36.2 64.4 55.6 95.8 13.1 21.6 26.1 43.1 41.9 62.9 31 39 69.7 66.4 119.7 73.2 6.6 1 13.3 1.5 19.8 1.5 24.6 0 47.7-7.3 66.6-26.8 10.8-11.2 16.5-25.4 21.5-39.8 9.6-26.3 14.8-53.7 20.2-80.9 6.8-35.8 17.9-70 34.8-102.6 7.4-14.4 12.7-29.5 15.8-45.5h-71.6c-2.5 2.2-4.1 4.6-4.9 8.2C741.6 36.9 737 65.4 735 94c-1.5 21.3-2.7 42.5-5.9 63.5-4 25.4-10.5 49.9-27 70.5-13.6 17-31.9 25.9-53.4 27.2-2.2.3-4.4.3-6.6.3-27.4 0-50.5-12.4-71.1-30.3-19.5-16.7-32.8-38.4-45-60.6-16.8-30-34.7-59.3-52.1-89.2-11.8-20.5-22-41.8-27.2-65.1-.9-4.1-2.1-8.3-6.5-10.2-10.8.3-21.6.3-32.4.3zM123.3 3.3h89.3c-2.8 9.7-5.5 18.9-9.7 27.7-15.8 32.9-40.3 60.7-73 82.1-19.9 13.1-41.6 19.8-63.9 19.8-6.3 0-12.8-.6-19.3-1.7l-34.5-5.5-8.7-1.4v-96c2.1-1.5 4.4-2.2 7.8-2.2 1.9 0 3.8.3 5.9.4 1.5.3 3 .4 4.4.4l7.7.4c8.7.6 17.9 1.1 26.9 1.1 5 0 9.6-.1 14-.6 19.2-1.7 34.2-8 46.2-19.8 2-2 4.6-3.5 6.9-4.7m-.7-2.9c-3.1 1.5-6.1 3.3-8.7 5.9-12.2 12-27.3 17.4-44.1 18.8-4.6.4-9.1.6-13.7.6-11.4 0-22.9-1-34.4-1.5-3.4-.3-7.1-.8-10.6-.8-3.8 0-7.5.7-10.9 3.7v99.8c15.2 2.4 30.5 4.8 45.9 7.3 6.8 1.1 13.3 1.5 19.9 1.5 23.5 0 45.3-6.9 65.8-20.2 31.9-21 57.4-48.4 74.1-83.4 4.9-10.2 7.8-20.9 10.9-31.8-31.5.1-62.9.1-94.2.1zM1916.8 894.7v92.7c-.6 1.1-1.2 2.2-1.6 3.3-1 2.2-1.9 4.1-3.4 5.4-10.2 8.2-21.5 17.4-34.4 24.5-17.1 9.5-35.9 15.8-53.9 21.7-5.6 1.8-11.2 3.7-16.8 5.7-15.1 5.1-28.3 10.2-39.5 19.9-4.1 3.6-7.8 6.8-12.4 8.9h-62.1c1.6-27.1 18.6-49.2 44.7-57.9 10-3.3 20.2-6.5 30.3-9.5 10.9-3.3 21.7-6.6 32.6-10.2 25.7-8.7 47.4-21.6 64.6-38.2 10.8-10.5 19.8-22.5 28.5-34.3l5.2-6.8c2.5-3.3 4.9-6.8 7.2-10.2 3.4-5.1 6.9-10.3 11-15m3-7.6c-9.6 9.3-16.1 20.6-23.9 31.1-10.6 14-20.7 28.3-33.3 40.7-18 17.4-39.7 29.5-63.5 37.5-20.8 6.9-42.1 12.9-62.9 19.8-28.5 9.7-46.3 34.3-46.8 63.6h66c5.3-2.2 9.4-5.8 13.7-9.5 11.2-9.7 24.8-14.7 38.5-19.4 24.2-8.4 48.7-14.9 71.3-27.7 12.7-6.9 23.6-15.8 34.7-24.8 3.2-2.6 4-6.8 6.2-10.1V887.1z" class="st1"/><path d="M217.5 3.3h60.6c.7 1.8.1 3.6-.7 6.5L277 11c-8.3 28.6-24.5 52.3-40.7 73.7-5 6.4-10 12.6-15.1 18.9-10.3 12.7-21 26.1-30.3 40.2-5.6 8.6-12.5 20.2-15.3 34-2.7 13.3.7 23.4 10.5 31 6.3 5 13.3 7.3 18.7 8.9 18 5.1 36.7 6.4 54.7 7.6l9.7.7 4.3.3c15.6 1.2 31.9 2.5 47.5 5.7 40.4 8 67.6 28.6 82.8 63.2 15.9 35.8 28.9 76.6 41 128.3 7.5 32.8 6.8 63.7-2.4 95-5.2 17.8-9.6 34.2-11.2 51.2-3.4 38.3 4.4 66.9 24.8 90.2 14 15.8 31.3 24.5 48.8 24.5 13.1 0 26.3-5.1 37.8-14.5 9.6-8 18.7-17 27.9-27.4 17.1-18.9 32.2-32.9 47.1-44 17.3-12.6 36.7-22.5 55.5-32.2l4.3-2.2 6.5-3.3c16.2-8.2 33.1-16.7 47.8-28.6 20.2-16.2 30-37.1 29.1-62-.9-21.8-6.3-44.3-17.3-70.1-11.7-27.5-30.5-44.4-57.8-52-15.9-4.3-35.7-9.7-54.2-16.3-58.1-21.3-106.8-55.5-144.8-101.5-37.9-45.8-70.5-99-106.1-172.4-6.9-14.4-12.7-29.9-17.1-46.2l-.4-1.5c-.9-3-1.3-5-.3-6.8h43.7c1.8 1.9 2.5 4.6 3.1 7.6 5.9 27.8 16.8 55.2 33.5 83.8 15.6 26.8 32.6 53.5 48.8 79.2l6.9 10.9c17.4 27.9 33.6 50.3 56.1 68.3 35.7 28.5 68.9 41.8 104 41.8h5c42.4-1.7 68.8-19.5 83.2-56.1 10.2-25.7 16.1-52.8 21.2-78.4 6.1-30.4 13.9-65.7 29.7-97.8l1.2-2.5c8.1-16.9 16.5-34.4 21.4-53.2.3-1.2.9-1.8 2.1-3l.7-.7H972c-4.1 3.7-8.1 7.3-12.1 11.1-3.2 3-6.6 5.8-10.2 8.7-7.8 6.5-15.9 13.3-22.3 22-11.2 15.1-15.9 28.8-15.1 43.4.9 14.4 4.9 29.7 12.5 48.3 5 11.8 10.2 23.5 15.3 35.3 6.2 14 12.2 27.8 18.2 41.9 9.1 22.1 18.6 48.5 18.2 76.9-.3 37.3-27.7 72.5-63.6 81.9-9.1 2.5-18.2 2.6-27.9 2.8-4.1.1-8.4.1-12.7.4-24.6 1.7-37.3 7.3-42.1 35.4-1.8 10.1-1.8 20.2-1.6 30.1.1 8 .1 16.5-.9 24.6-1.9 15.8-4.6 34-12.1 50.8-10.9 24.3-30.4 41.6-61.4 54.3-9.6 3.9-19.5 7.6-29.1 11.2-20.5 7.5-41.6 15.3-61.2 26.6-23.6 13.4-42.2 29.2-56.8 48.1-7.8 10-14.9 20.9-21.5 31.4-7.8 12.2-15.8 24.8-25.2 35.8-13.6 16.3-24.9 23-39.5 23-6.5 0-13.6-1.2-22.1-3.9-22.6-6.9-42.8-21.4-63.3-45.6-32.2-38.2-44.6-85.7-38.1-145.5 1.5-14 5.2-27.8 8.6-41.2 1.5-5.4 2.8-10.6 4-16 6.1-26 7.7-46.2 5.3-65.5-5.6-45.1-18.4-83.8-39-118.2-13.6-23-33.1-38.3-57.7-45.8-15.8-4.8-32.5-7.2-51.1-7.2-7.8 0-16.1.4-24.5 1.2-39.4 3.9-77.5 14.9-113 32.9-40.3 20.2-81.5 30.1-125.9 30.1h-1V128c.7-.6 1.5-.8 2.5-.8.7 0 1.3.1 2.1.3 5 .7 9.7 1.7 14.6 2.5 5.5 1 11.1 1.9 16.5 2.8 10.5 1.5 19.3 2.2 27.6 2.2 15.1 0 28.3-2.5 40.6-7.5 23.3-9.8 44.4-25 64.3-46.3 21.2-22.8 35.1-46.7 42.5-73.3.9-2.1 1.9-3.7 3.7-4.6m-.8-2.9c-3 1.4-4.9 3.7-5.6 6.8-7.7 27.7-22.4 51.3-41.9 72-18.2 19.4-38.7 35.1-63.3 45.5-12.8 5.4-26 7.3-39.3 7.3-9 0-18-.8-27-2.2-10.5-1.5-20.7-3.7-31.1-5.4-.9-.1-1.8-.3-2.7-.3-2.2 0-4 .6-5.6 2.5v198h4c44.9 0 87.1-10.1 127.4-30.4 35.3-17.8 72.6-28.6 111.9-32.5 8.1-.8 16.2-1.2 24.2-1.2 16.8 0 33.6 2.1 50 7.1 24.3 7.3 43.1 22.8 55.9 44.5 21.5 36 33.5 75.4 38.7 117.1 2.7 22-.3 43.3-5.3 64.7-4.4 19.1-10.5 37.9-12.7 57.5-5.9 54.2 2.7 104.8 38.8 147.5 17.4 20.6 38.1 38.4 64.8 46.6 8.7 2.8 16.2 4 23.2 4 16.7 0 28.8-8 42.1-23.9 17.7-20.9 30-45.8 46.9-67.3 15.3-19.8 34.4-35 55.9-47.3 28.5-16.2 59.9-25.2 89.9-37.5 27.4-11.3 50.5-27.8 63-55.9 7.2-16.3 10.2-33.9 12.2-51.6 2.2-18.3-.7-36.5 2.5-54.6 4.3-25.7 14.6-31.4 39.3-33 13.9-.8 27.6.4 41.3-3.2 37.5-9.7 65.5-45.6 66-84.5.3-27.7-8.1-53.1-18.4-78-10.8-26-22.6-51.4-33.5-77.3-6.3-15.2-11.4-30.8-12.4-47.4-1-15.6 5.3-29 14.5-41.5 8.9-12.2 21.2-20.3 32-30.3 5.9-5.4 11.8-10.6 17.6-16H822.5c-1.6 1.9-4 3-4.4 5.9-5 19.4-13.9 37.2-22.4 55.2-15.3 31.3-23.2 64.7-29.8 98.5-5.3 26.4-11.1 52.7-21.1 77.9-13.6 34.4-37.9 52.5-80.4 54.1-1.6.1-3.2.1-4.9.1-39.3 0-72-17.1-102.1-41.2-23.3-18.7-40-42.6-55.5-67.5-19-29.6-38.1-59.5-55.9-89.9-15.2-26.1-26.9-53.5-33.2-83.1-.9-3.6-1.8-7.3-4.9-9.8h-46.5c-3.7 3.7-1.8 7.9-.7 11.9 4.3 16 10 31.7 17.3 46.6 29.5 61.4 62.9 120.4 106.4 173.1 39.1 47.4 88.2 81 145.9 102.2 17.9 6.5 36.2 11.5 54.5 16.5 27.2 7.5 45 24.9 55.9 50.2 9.4 22.1 16.2 44.9 17.1 69.1 1 24.6-8.7 44.4-28 59.7-16.5 13.3-35.3 22.1-53.7 31.7-20.7 10.6-41.3 21-60.2 34.7-17.6 13-33.1 28.2-47.7 44.4-8.6 9.7-17.6 18.8-27.6 27.1-11.5 9.5-23.8 13.8-35.7 13.8-16.8 0-33.4-8.6-46.5-23.4-22.3-25.3-27-55.6-24.2-88.1 1.6-17.3 6.3-34 11.1-50.8 9.4-31.9 10-63.9 2.5-96.4-10.3-44.1-22.7-87.4-41.2-128.9-16.5-37.5-46.2-57.2-85-65-17.1-3.5-34.7-4.7-52.2-5.9-21.4-1.7-42.9-2.4-63.7-8.2-6.3-1.8-12.2-4.1-17.7-8.3-9.6-7.5-11.7-16.9-9.4-28.1 2.5-12.2 8.3-22.8 15.1-33 13.6-20.9 30.1-39.5 45.2-59 17.4-23 33.2-46.6 41.3-74.7 1-3.7 2.7-7.6-.1-11.3-21.2.1-42.4.1-63.4.1zM1119 3.3h63.6c3 1.8 4.4 5.1 5.8 8.9l1 2.4c6.3 15.1 15.6 28.6 28.8 41.6 3.8 3.7 8.4 7.9 14.8 7.9 1.5 0 3-.3 4.6-.7 7.5-2.6 9-9.3 10.2-14.8l.4-1.7c1.8-8 1.6-16.2 1.5-24.1-.1-4-.1-8 0-12V9.4c.1-2.8.3-4.7 1.5-5.9h73.6c3.5 12.6 9.9 25 19.2 38.2 14.2 20.2 33.5 37.5 60.6 54.1 26.3 16.2 51.4 25.2 76.6 27.5 10 1 19.6 1.1 27 1.1 4 0 8.3 0 12.4-.1h20.5c13.4.3 24.3 1.7 33.8 4.7 17.7 5.4 28.3 16.9 31.7 34.3 2.4 11.2 2.8 23 1.5 38.2-2.1 27.7-14 49.1-36.3 65.5-8.6 6.4-17.7 12.4-26.6 18.4-4.9 3.2-9.6 6.5-14.5 9.7-35.4 24.1-57.8 57.5-66.7 99.6-4 19.1-4.9 38.9-5.5 57.7-.3 6.6-.6 13.4-1 20.1-1.9 31-8.3 55.2-20.2 76.1-18.6 32.4-40.9 49.8-70.8 54.5-3 .6-6.2.7-9.1.7-25.1 0-47.5-15.8-55.6-39.3-6.6-19.1-8.3-39.8-9.7-57.9l-.9-11.5c-1.3-17.8-2.7-36.4-5.9-54.2-6.8-39.1-14.5-84.5-18.9-129.4-3.4-34.2-17.9-63.7-43.1-88.4l-12.1-11.8c-6.9-6.6-13.7-13.3-20.4-20.1-9.4-9.5-16.7-20.5-21.4-32.8-6.9-16.7-11.1-34.7-15.1-52-6.6-28.8-17.3-56.3-27.6-82.8-2.6-7-5.1-13.7-7.7-20.3m-4.3-2.9c13 35 28 69.4 36.6 106.1 4 17.7 8.1 35.5 15.1 52.5 5.2 12.7 12.5 24.1 22.1 33.7 10.6 10.8 21.8 21.3 32.6 31.9 24.3 23.6 38.8 52.8 42.2 86.6 4.4 43.6 11.5 86.6 18.9 129.6 4 21.7 5.2 43.7 6.8 65.5 1.6 19.8 3.2 39.5 9.7 58.6 8.7 25 32.6 41.2 58.6 41.2 3.2 0 6.5-.3 9.9-.8 34.7-5.5 56.5-27.2 72.9-56 13.6-23.8 18.9-49.9 20.5-77.3 1.5-25.9 1-51.9 6.3-77.4 8.7-41.5 30.5-74 65.5-97.8 13.7-9.4 27.7-18.3 41.2-28.1 22.6-16.7 35.3-39 37.5-67.6 1-13.3 1-26-1.6-39-3.8-19.1-15.8-31-33.9-36.5-11.2-3.3-22.9-4.6-34.7-4.7-2.7-.1-5.5-.1-8.1-.1-8.3 0-16.5.3-24.8.3-9 0-17.9-.3-26.7-1.1-27.3-2.6-52.1-13-75.3-27.1-23-14.1-44.1-31-59.9-53.2-8.6-12-15.6-25-19.3-39.5h-77.2c-3.5 2.5-3.1 6.4-3.4 10.1-.6 11.9 1.2 23.8-1.3 35.7-1.3 5.7-1.9 12-8.4 14.2-1.3.4-2.5.7-3.5.7-5 0-9-3.5-12.4-6.9-12-11.9-21.5-25.2-28.2-40.7-2.1-5-3.4-10.4-8.7-13.1-23.1.2-46.2.2-69 .2zM1153.2 734.3c13 0 24.3 3.6 34.8 10.9 10 7.1 18.7 16.2 27.7 28.9 17.4 24.9 29.2 53.5 40.6 81l2.8 6.9 1 2.6c10.3 24.8 21 50.3 34.8 74 8.1 13.8 10.6 27.9 7.8 43.3-4 22.5-6.1 47.2-5.9 75.2.1 3.2.4 6.4.7 9.5.4 3.2.7 6.6.7 10h-88.8c-3.2-2.2-5.3-5.7-7.5-9.3-.9-1.4-1.6-2.8-2.5-4-8.9-13.4-17.9-27-23.5-41.8-14.8-39.7-19.6-83.7-15.1-134.1l.6-6.9c1.3-13.3 2.5-27 .1-40.7-3.2-20.2-19.2-33.9-39.4-33.9-1.9 0-3.8.1-5.9.4-22.3 2.9-44.6 10.9-69.9 25.4-13.6 7.9-26 17.8-36.9 29.3-17.1 18.7-30.1 41.8-38.5 68.7-15.6 50.3-27.4 95.4-36.2 138l-.3 1.2c-.7 3.9-1.3 6.2-3.7 7.5h-94.9c3.4-14.1 8.6-25.7 15.8-35.3 8.4-11.2 17.9-21.8 26-30.7 16.8-18.5 30.3-36.4 40.6-54.6 8.3-14.2 15.3-29.3 22.1-44 4.4-9.5 9-19.5 14-29 12.1-23.5 29.1-44.4 52.1-64 28.9-24.6 61.1-46.5 91.6-66.5 12.5-8.4 24.9-13.7 37.5-16.3 6.2-1.1 12.2-1.7 17.7-1.7m0-3c-6.1 0-12.1.8-18.3 2.1-14 2.9-26.6 9-38.5 16.7-31.6 20.7-63 42.2-91.9 66.8-21.4 18.3-39.7 39.4-52.8 65-12.4 24.2-22.4 49.5-36 72.9-11.4 19.8-24.9 37.3-40.3 54.1-9.1 10-18 20.1-26.1 31-8.9 11.9-13.9 25.4-17 39.8h99.8c4.9-2.2 5.3-6.6 6.2-11.1 9.6-46.6 22-92.4 36.2-137.7 7.8-25.2 19.9-48.1 37.8-67.5 10.6-11.3 22.7-21 36.2-28.8 21.4-12.2 43.8-21.8 68.8-25 1.9-.3 3.7-.4 5.5-.4 18.4 0 33.4 12.3 36.4 31.5 2.7 15.6.6 31.3-.7 46.7-4.1 46.2-.9 91.5 15.2 135.2 5.8 15.2 14.8 28.9 23.8 42.3 3.4 5.1 5.9 11.2 11.7 14.7h92.8c.4-7.6-1.2-15.1-1.3-22.4-.1-24.9 1.3-50.1 5.8-74.7 3-16.2.1-31.1-8.1-45.1-14.2-24.3-24.9-50.3-35.7-76.2-12.7-30.6-24.8-61.3-43.8-88.5-8-11.3-17.1-21.7-28.5-29.6-12-8.3-24.2-11.8-37.2-11.8zM1914.2.2v2.9c1.9 0 2.4.3 2.4.3 0 .1.3.8.3 3.2-.1 79.4-.1 159-.1 238.5v88.5c-.4.3-.7.3-1 .3-.9 0-2.1-.4-3.2-.7l-.9-.3c-4.1-1.2-8.1-2.6-12.2-4-6.1-2.1-12.2-4.3-18.6-5.9-17.4-4.3-35-6.5-52.4-6.5-27.6 0-55 5.5-81.9 16.2-35.7 14.2-53.9 42.2-52.5 80.8 1.2 31.7 15.3 57.9 41.9 78.1 25.2 18.9 55.9 28.2 93.7 28.2 7.1 0 14.3-.3 22-.8 15.5-1.2 30.8-4.7 45.6-8 4.7-1.1 9.4-2.2 14.2-3.2l.9-.1c1.2-.3 2.2-.6 3.1-.6.6 0 1 .1 1.5.4v136.8c-2.4-1.9-4.6-4.1-6.8-6.5-2.2-2.4-4.4-4.8-7.1-6.9-14.8-11.6-31.7-22.3-52.4-32.5-12.5-6.2-25.4-12.3-37.9-18.4-17.6-8.4-35.9-17.3-53.6-26.1-29.5-14.7-53.7-35-71.9-60.3-25.4-35.4-33.8-77.9-26-129.8 4.3-29.3 20.8-49 50.2-60.2 15.1-5.7 30.8-10 46.2-13.8 4.4-1.2 9-2.4 13.4-3.6 35.1-9.5 60.9-19.5 83.8-32.2 15.3-8.6 26-17.6 33.5-28.1 23.5-32.9 30.3-69.1 20.4-107.7-7.4-28.2-24.1-48-49.6-58.6-11.7-4.8-22.6-8.6-33.6-11.3-4.4-1.1-8.9-2.1-13.3-3.2-15.1-3.6-30.5-7.2-44.7-13.7-14.8-6.8-24.5-16-29.8-28.1h40.7l45.3.1c30.1 0 60.4-.1 90.5-.3l-.1-2.9m0 0h-.3c-30.1.1-60.4.1-90.5.1h-90.6c5.9 16.3 18.2 26.7 33.1 33.6 18.6 8.4 38.8 12 58.6 17 11.4 2.9 22.4 6.6 33.2 11.2 25.8 10.8 40.9 30.3 47.8 56.7 9.9 38.2 2.8 73.6-19.9 105.4-8.3 11.6-19.9 20.2-32.5 27.4-26.1 14.7-54.3 24.1-83.1 31.9-20.1 5.4-40.4 10.1-60.1 17.6-29.1 11.1-47.4 31.1-52.1 62.4-7.1 47-2.1 92.1 26.4 131.9 19 26.4 43.8 46.6 72.9 61.1 30.4 15.3 61.1 29.5 91.5 44.5 18.3 9.3 35.7 19.5 51.8 32.2 6.6 5.3 11.1 12.9 19 16.6V506.4c-1.5-1.5-3-2.1-4.6-2.1-1.5 0-3.1.6-4.7.8-19.6 4.1-39.1 9.7-59.2 11.2-7.4.6-14.6 1-21.7 1-32.8 0-64-6.8-91.8-27.7-25.1-18.9-39.5-44.3-40.7-76.1-1.3-35.5 14.2-63.5 50.6-78 26.3-10.5 53.3-15.9 80.7-15.9 17 0 34.2 2.1 51.6 6.4 10.5 2.6 20.4 6.8 30.5 9.8 1.8.6 3.4 1.2 5.2 1.2 1.5 0 2.8-.6 4.1-1.9 0-109.5-.1-219 .1-328.3.4-5-.3-6.6-5.3-6.6zM39.5 701.5c5.3 0 10.6.1 15.9.1 21.2.3 41 5.4 59 15.2 49 27.4 75.4 71.1 80.7 134 1.6 20.5 1.8 39.3.4 57.7-.6 6.6-.9 13.4-1.2 20.1-.7 13-1.5 26.6-3.5 39.7-2.4 14.7-5.5 28.5-17.4 38.7-8.7 7.7-19 10.8-28.9 13-25.2 5.9-52.1 8.9-82 8.9l-11.7.1H39.4c-10.8 0-23.5-.1-36.2-1.1v-45.6c1.2-1.1 2.7-1.5 5.2-1.5h3c9.6 0 19.3-.6 28.6-1l5.2-.3c21.7-1.1 38.2-4.1 53.3-10 23.5-8.7 40.4-24.9 50.5-48.4 9.3-21.7 13.6-46.5 13-75.9-.6-21.7-5.3-40.1-14.5-56.4-19.2-34.2-48.1-51.4-85.9-51.7h-1c-13.1 0-26 2.2-38.5 4.1-4.1.7-8.3 1.4-12.4 2.1-1.3.1-2.2.3-3.1.3-1.5 0-2.4-.3-3.1-1v-39.8c10.5-.9 22.1-1.3 36-1.3m0-2.8c-13.1 0-26.3.4-39.4 1.5v43.6c1.8 2.2 3.8 2.8 6.2 2.8 1.2 0 2.4-.1 3.5-.3 16.8-2.5 33.4-6.2 50.5-6.2h1c38.1.1 65.1 17.8 83.2 50.1 9.6 17 13.6 35.5 14.2 55.2.4 25.9-2.7 51-12.8 74.8-9.6 22.3-26 38.2-48.8 46.7-16.8 6.5-34.2 8.9-52.2 9.8-11.2.6-22.3 1.2-33.5 1.2h-3c-3.1 0-6.1.7-8.1 3.3v49.2c13.1 1.2 26.1 1.4 39.3 1.4 7.7 0 15.5-.1 23.2-.1 27.9-.1 55.6-2.6 82.8-9 10.9-2.5 21.4-5.9 30.3-13.7 12.7-10.9 15.9-25.4 18.4-40.5 3.1-19.9 3.1-40 4.7-60 1.5-19.4 1.2-38.7-.4-58.1-5-58.9-28.9-106.5-82.2-136.2-18.6-10.2-39.1-15.3-60.5-15.6-5.6.1-11.1.1-16.4.1zM1916.8 994.9v18c0 20.6-.1 41.2.1 61.5 0 1.8-.3 2.2-.3 2.4 0-.1 0-.1-.1-.1-.3 0-.9.1-2.1.1h-152.6c4.7-5.1 10.5-10.5 17.6-14.5 9.7-5.7 20.4-9.4 30.8-13l4.9-1.8c5-1.7 9.9-3.3 14.9-5 11.1-3.6 22.6-7.3 33.6-12.3 17.8-7.9 34.9-19.2 53.2-35.3m3-6.8c-17.3 15.9-35.9 29.7-57.6 39.4-15.6 7.1-32.2 11.6-48.3 17.1-12.2 4.4-24.8 8.3-36.3 14.9-8.9 5.1-15.9 12.2-22.3 19.9h158.9c4.1 0 5.6-.6 5.6-5.3-.2-28.3 0-57.2 0-86zM268.4 1068.8v2.9c8.9 0 17.6 1.7 26 5.1h-47.5c2.2-1.9 4.6-3.2 6.9-3.6 5-1 9.9-1.4 14.6-1.4v-3m0 0c-5 0-10 .6-15.2 1.5-5.3 1-9.6 4.7-12.7 9.4h66.1c-12.1-7.3-24.9-10.9-38.2-10.9zM1556.8 834.9v2.9c20.1 0 35.1 7.7 46 23.5 12.2 17.7 13.4 55.2-16.1 76.7-15.6 11.2-33.6 13.4-50.9 14-23.9-.7-42.6-4.8-58.9-12.7-7.7-3.9-14.8-8.2-16.2-16.5-1.8-10.4.1-19.6 5.5-27.4 4.9-6.9 9.6-13 14.5-18.5 20.7-23.4 41.9-35.7 66.8-38.4 3.1-.4 6.3-.6 9.3-.6v-3m0 0c-3.1 0-6.5.3-9.7.6-28.5 3.2-50.2 18.5-68.6 39.5-5.3 5.9-10 12.3-14.8 18.8-6.2 9-7.5 19.2-5.9 29.5 1.6 9.7 10 14.5 17.9 18.5 19 9.4 39.5 12.4 60.5 13.1 18.7-.7 36.7-3 52.5-14.5 30.7-22.3 30-61.5 16.8-80.5-12.3-17.9-29.1-25-48.7-25z" class="st1"/><path d="M1104.5 281.5c3.4 0 7.1.6 10.8 1.8 27.2 8.4 48 22.5 63.6 43 13.6 17.8 23.9 38.2 33.6 57.9l4.3 8.6c23.5 46.3 34.5 93.2 34.1 143.5-.1 23.8 1.2 44.3 4.1 62.5 4.6 28.8 19.6 44.9 47.1 50.9 11.4 2.4 22.9 3.5 34.1 3.5 13.1 0 26.4-1.7 39.1-4.8 40.1-10.4 70.8-36.1 96.8-81.2 22.9-40.2 29.1-84.4 32.3-122.2 2.1-25.9 7.4-46 16.8-63.5 9.9-18 24.1-29.3 43.2-34.7 3.2-1 6.6-1.4 9.6-1.4 14.5 0 21.7 10.5 25.5 19.4 6.2 14.8 9 31 11.7 46.5.7 4 1.5 8.2 2.2 12.2 7.8 43 24.6 81 50 113.1 18.6 23.2 41.2 42.7 63 61.7l10.5 9.1c18.6 16.5 36.3 34.6 54 55.2 4.1 5 8.4 9.8 12.5 14.8 12 14.1 24.3 28.5 37 42.5 24.3 26.4 52.1 49.4 76.3 69v97.8c-1 1.8-1.8 3.6-2.5 5.4-1 2.5-1.9 4.8-3.4 6.8l-7.5 10.1c-6.3 8.4-12.7 16.7-18.9 25.3-22.1 30.7-51.1 51.7-88.2 64-9.3 3-18.9 5.9-28.2 8.7-8.9 2.5-17.6 5.1-26.1 7.9-29.4 9.7-46 27.4-50.9 54.5-.6 2.9-1 5.8-2.8 7.6h-59.8c-2.4-1.5-4-3.2-5.2-5.7-5.9-11.9-15.2-20.3-27.7-24.9-19-6.6-37.9-10-56.4-10-13.6 0-27.3 1.8-40.7 5.5-20.7 5.5-35.3 15.5-44.9 30.6-1 1.5-2.5 2.5-4.4 3.6-.3.3-.7.6-1 .7h-58.9c.4-1.1.9-2.1 1.3-3 2.5-5.4 5-11.1 7.8-16.3 15.1-28.6 38.4-47 69.4-54.9 17.3-4.6 35.3-4.6 52.7-4.7 7.4 0 15.2-.1 22.7-.4l9-.6c16.2-1 33.1-1.9 49.3-5.7 28.3-6.5 46.8-23.1 54.9-49.2 4.9-16.2 6.5-33.9 5-54.5-1.5-17.8-5.3-31.7-12.1-43.6-19.3-33-50-49.1-94.3-49.1-23.3.3-45.5 6.1-66.3 17.6-8.6 4.7-17.1 9.5-25.7 14.2-12 6.8-24.5 13.8-37 20.3-13.1 6.9-26.4 10.4-39.5 10.4-15.2 0-30.7-4.8-46-14.1-16.7-10.1-30.8-24.1-44.7-44-14.5-20.3-25.5-43.1-36.4-65.1l-5.8-11.5c-4.9-9.5-8.9-16.6-13.4-22.8-12-16.2-26-25.6-42.6-28.6-7.5-1.4-14.9-1.9-22.1-1.9-21.4 0-42.5 5.8-62.6 17-19 10.8-35.6 25.2-51.5 39.1l-4.6 4c-19.8 17.4-40.3 34.3-60.4 50.8l-6.2 5.1c-19.6 16.2-42.1 36.1-60.2 60.6-10.2 13.7-18.6 28.6-26.6 43-4.9 8.7-9.9 17.7-15.2 26.3-18.9 30-44.1 49.5-77 59.6-6.2 1.9-12.5 2.9-19 2.9-19.2 0-37.3-9-49.9-24.6-10.3-12.7-19.5-26.4-27-38-14.6-22.1-32.5-48-54.3-72-7.8-8.6-15.9-18.1-22.7-28.8-14.3-22.3-19.3-45.9-15.2-72.5 4.4-30.1 16.2-54.6 36-75 17.6-18.1 40.6-28.1 58.7-34.7 13.3-4.8 27.2-8.7 40.6-12.4 10.5-2.9 21.4-5.9 32-9.4 25.8-8.4 47.1-24.8 64.9-49.8 9.3-13 16.4-27.4 23.5-41.2 2.4-4.8 4.9-9.7 7.2-14.5 8.4-16.2 18.2-29.7 29.7-41.3 11.7-11.9 25.1-22.3 38.1-32.2 8.4-6.5 17.3-13.3 25.5-20.3 16.8-14.7 33.1-30.8 49.1-49.4 13.1-14.9 25.2-31.3 36.9-47.2 4-5.5 8.1-10.9 12.1-16.3 7.9-11.3 16.9-16.6 27.2-16.6m0-2.8c-11.4 0-21.2 5.7-29.8 17.1-16.1 21.3-31.1 43.4-48.8 63.3-15.2 17.4-31.4 33.7-49 49.1-20.8 18.1-44.3 32.9-63.7 52.8-12.4 12.4-22.1 26.7-30.1 42-9.7 18.7-18.2 38.2-30.4 55.3-16.2 22.7-36.6 39.8-63.3 48.7-24.1 7.9-48.8 13.1-72.6 21.8-22.1 8.2-43.4 18.4-59.9 35.4-20.8 21.4-32.5 47.2-36.9 76.5-4.1 27 1 51.7 15.6 74.4 6.8 10.5 14.8 19.9 23.2 29.2 20.2 22.4 37.5 46.6 54 71.8 8.4 13 17.3 26.1 27.2 38.3 13.1 16.5 32.3 25.7 52.4 25.7 6.6 0 13.3-1 19.9-3 33.8-10.4 59.8-30.8 78.7-60.8 14.3-22.8 25.7-47.4 41.8-69.1 17.1-23 37.9-41.9 59.9-60 22.3-18.4 44.7-36.8 66.6-55.9 17.6-15.3 35-31.1 55.5-42.7 19.5-10.9 39.7-16.6 61.1-16.6 7.1 0 14.2.7 21.5 1.9 17.7 3.2 30.4 13.6 40.7 27.4 5.2 7.1 9.3 14.8 13.3 22.4 13 26.3 25.4 52.8 42.2 76.9 12.4 17.8 26.9 33.5 45.6 44.8 15.8 9.7 31.7 14.5 47.7 14.5 13.7 0 27.3-3.5 41-10.8 21.1-11.2 41.8-23.2 62.6-34.7 20.1-10.9 42.1-16.9 64.5-17.1h.3c38.4 0 71.1 12.3 91.6 47.6 7.5 13.1 10.5 27.7 11.7 42.5 1.5 18 .6 36-4.9 53.5-8 26.1-26.3 41.1-52.7 47.2-18.9 4.4-38.2 5-57.7 6.2-25.4 1.2-51.1-1.2-76 5.3-32.5 8.2-55.9 27.2-71.3 56.6-4 7.7-7.5 15.8-11.2 23.6h64.6c2.5-1.8 5.3-3 7.1-5.8 10.2-15.9 25.5-24.6 43.1-29.3 13.3-3.6 26.7-5.4 39.8-5.4 18.6 0 37 3.3 55.3 9.7 11.8 4.3 20.5 12 26 23.4 1.6 3.3 3.8 5.7 7.1 7.3h61.8c3.2-2.5 3.8-6.4 4.7-10.1 5-27.9 22.7-43.8 48.7-52.3 18-5.8 36.3-10.5 54.5-16.5 36.9-12.3 67-33.6 89.7-65.3 8.6-11.9 17.4-23.5 26.3-35.4 3.1-4.1 4-9 6.5-13.1v-99.8c-26.9-21.7-53.6-44-77-69.6-17.1-18.7-33.2-37.9-49.6-57.1-17-19.8-34.8-38.3-54.3-55.5-25.5-22.3-51.9-43.8-73.2-70.4-26.1-32.9-42.1-70.5-49.4-111.9-3.7-19.9-6.1-40.2-14-59.2-5.8-13.6-15.5-21-28.3-21-3.2 0-6.8.4-10.5 1.5-20.1 5.5-35 17.7-45.2 36.2-10.9 20.2-15.5 42-17.3 64.6-3.4 42.2-10.3 83.5-31.7 121.1-21.8 38.2-50.6 68.5-94.9 79.8-12.5 3.2-25.4 4.7-38.2 4.7-11.1 0-22.3-1.1-33.5-3.5-26.9-5.8-40.1-21.3-44.6-48.5-3.2-20.6-4.3-41.5-4.1-62.1.6-51.2-11.4-99.3-34.2-144.8-11.7-23-22.4-46.2-38.2-66.9-16.8-22-39-36-65.1-44.1-4.5-1.2-8.5-1.8-12.2-1.8zM270.7 296c5.2 0 10.5.4 15.6 1 21.8 2.5 39.4 11.2 52.1 25.9 23.2 26.1 35.6 58.9 38.2 100 1.8 25-3.4 48.7-9.1 70.5-8 31-11.4 57.2-10.5 82.6.7 18.5 2.7 37.1 5.8 55.2 7.1 42.9 22.7 78.1 48 107.9 14.8 17.6 29.7 34.8 44.6 52.1 18 20.9 37.6 43 62.1 60.7 25.1 18.3 44.7 37.6 59.9 59.2 13.9 19.8 28 37.3 43.4 53.8 21.1 22.7 46 41.2 69.9 59l10 7.5c17 12.7 27.9 27.7 33.5 45.6h-82.6c-.4-.8-.7-1.8-1.3-2.5-15.3-26.3-36.4-47.2-57.1-66-24.5-22.1-52.5-39.4-85.9-53-33.5-13.6-57.4-37.3-70.8-70.5l-4.6-11.5c-7.1-17.6-14.5-35.8-22.3-53.5-9.1-20.5-21.8-39.3-34.1-57.2-2.7-4-5.5-8-8-12-12.5-18.7-21-38.2-24.9-57.9-7.7-37.9-10.5-76.2-13.1-118.6-2.1-34.4 1.5-69.7 10.5-104.8 8.6-33.3 8-61.4-1.6-87.9-12.1-32.9-36.9-51.7-68-51.7-8.9 0-18.2 1.5-27.7 4.7-27.2 9.1-48.5 26.1-69.9 44.3-29.7 24.9-54.2 41.8-79.7 54.6C82 439 71 444.3 59.7 449.7c-18.7 9-37.9 18.1-56.5 28.3v-72.6l.1-.1 5.2-1c48-9 83.1-21.3 113.6-40.1 10-6.1 19.6-12.6 29.1-19.1 12.7-8.7 26-17.7 39.7-25.4 28.2-16.2 54.2-23.7 79.8-23.7m0-2.9c-29.1 0-55.9 9.4-81.3 23.5-24.1 13.4-45.6 30.3-68.9 44.5-34.7 21.3-73 32.4-112.6 39.7-2.5.6-5.2 1-7.7 1.5v80.1c30.7-17.3 63-31.3 94.3-47 29.2-14.8 55.3-34 80.3-54.9 20.8-17.7 42.4-34.7 68.9-43.7 9.3-2.9 18.2-4.6 26.6-4.6 29.5 0 53.6 18 65.2 49.8 10.5 28.9 8.9 57.5 1.5 86.4-9 34.7-12.7 70-10.6 105.5 2.5 39.8 5.3 79.8 13.1 119.1 4.3 21.3 13.3 40.9 25.4 58.9 14.9 22.4 30.8 44.1 41.9 68.9 9.4 21.4 18 43.3 26.9 64.9 13.9 34.3 38.2 58.4 72.5 72.2 31.3 12.6 59.8 29.5 85 52.3 21.5 19.6 41.9 40.1 56.7 65.4.7 1.2 1.2 2.6 1.8 3.9h88.5c-5.6-21.3-18.2-37.8-35.4-50.8-27.7-20.7-55.9-40.7-79.5-66.2-15.8-16.9-30-34.7-43.1-53.5-16.7-23.6-37.3-42.9-60.6-59.9-23.5-17-42.6-38.2-61.5-60.3-14.9-17.1-30-34.6-44.6-52-26.1-30.8-40.7-66.8-47.4-106.5-3-18.3-4.9-36.5-5.6-54.9-1-27.8 3.4-54.9 10.3-81.7 6.2-23.5 10.9-47 9.3-71.4-2.5-37.8-13.6-72.7-39-101.6-14-16-32.8-24.3-54-27-5.9-.3-11.2-.6-16.4-.6zM3.2 590.4c.4.1.9.4 1.2.6 27.4 16.3 56.4 30.4 84.4 44 6.9 3.3 13.9 6.6 20.7 10.1 28 13.7 51.4 29.3 71.3 47.8l1.5 1.4c20.4 18.9 41.6 38.6 57.7 62 17.3 24.9 23.5 54.1 28.3 81.9.9 5.3 1.8 10.6 2.5 15.9 3.4 21.6 6.9 43.7 15.2 64.7 8.7 22.5 19.3 38.7 33.4 50.9 13.4 11.9 28.8 20.9 43.5 29.7 4.1 2.5 8.3 4.8 12.4 7.3 30.7 18.9 47.8 41.2 53.9 69.8h-46c-.1-.1-.1-.4-.3-.6-.7-1.7-1.6-3.5-2.8-5.1-12.5-17-29.1-31-53.4-45.4l-4.4-2.6c-14.8-8.7-30-17.7-42.8-29.2-17.1-15.8-28.2-37.6-34.4-68.9-3.4-16.7-5.2-34.2-6.9-51-1.3-11.8-2.5-23.8-4.3-35.7-9.3-61.5-40.7-111-93.7-147.4-42.4-28.9-92.7-36-136.8-40l-.2-60.2m-3-4.1v67.5c48.5 4.4 96.7 11.5 138.1 39.7 51.2 35.1 83.1 83.2 92.5 145.5 4.3 28.8 5.6 58.2 11.4 86.8 5.3 26.6 14.8 51.4 35.3 70.2 14.3 13 31 22.4 47.7 32.2 20.1 11.8 38.5 25.4 52.5 44.5 1.5 2.1 2.4 4.6 3.5 6.8h51.9c-6.2-34.6-27.3-57.4-55.9-75.1-19-11.6-38.5-22-55.5-36.9-15.6-13.6-25.2-31-32.6-49.8-10.2-25.9-13-53.1-17.6-80.1-5.2-29.2-11.4-57.8-28.8-83-16.7-24.3-38.2-44-59.6-63.9-21.5-19.9-46-35.5-72-48.3-35.3-17.4-71-33.7-104.9-53.9-1.8-.8-4-1.5-6-2.2zM444 3.3h31.4c2.7 14.5 8.1 29 16.2 43.1 16.8 29.5 33.1 60 48.8 89.7 5.3 10 10.6 19.8 15.8 29.7 11.4 21.2 25.1 36.5 41.9 46.5 11.5 6.8 24.1 10.4 36 10.4 19.6 0 36.9-9.3 48.5-25.9 14.6-20.5 17.6-43.8 18.9-66 .7-14.5-.3-29-1.2-43.1-.9-11.2-1.6-22.7-1.5-33.9V3.3h48.1c-.9 6.2-1.9 12.6-3 18.8-2.2 14.5-4.6 29.7-6.2 44.5-1.5 14-2.7 28.2-3.7 42-1 13.3-2.1 26.4-3.5 39.7-2.8 26.6-8.6 47.2-18 64.7-14.5 27.5-39.8 43.4-69.7 43.4-10.6 0-21.2-1.9-31.7-5.8-26.4-9.8-48.4-28.1-67.1-55.6-9.6-14.1-18.2-29.2-26.4-43.8-2.8-5.1-5.8-10.1-8.6-15.1-5.9-10.1-11.8-20.1-17.7-30-6.8-11.5-13.7-23-20.4-34.7-12.3-21.1-21.3-44.1-26.9-68.1M440.1.4C445.9 26 455 50 468 72.8c12.5 21.7 25.5 43 38.2 64.6 11.5 19.8 22.3 40.1 35.1 59 17.4 25.6 39.3 45.8 68.6 56.7 10.9 4 22 6.1 32.9 6.1 29.1 0 56.5-14.7 72.5-44.9 11.1-20.5 15.9-42.9 18.4-65.7 2.8-27.2 4.3-54.5 7.2-81.7 2.5-22.3 6.5-44.4 9.7-66.5h-54.7v53.4c-.3 25.6 4 51.3 2.7 77-1.2 22.8-4.6 45.1-18.3 64.6-11.8 16.6-28.5 24.5-46 24.5-11.5 0-23.5-3.3-34.4-9.8-18.3-10.8-31-27.1-40.7-45.4-21.4-40-42.2-80.2-64.8-119.6-8-13.7-13.9-28.5-16.4-44.5-12.6-.2-25.2-.2-37.9-.2zM1396.1 3.3h56.5c3 1.5 5.6 3.6 7.8 6.6 4 5.4 9.4 9.7 17.3 14 16.1 8.6 32.9 13 49.9 13 19 0 38.7-5.3 59.9-15.9 5-2.5 9.1-6.2 12.8-9.8 3.2-2.9 6.2-5.8 9.7-7.7h57.8c-.3 9-1.9 17.6-3.5 24.9-7.1 32.2-11.1 36-43.8 41.2-14.9 2.4-30.1 3.5-44.9 4.7-4.4.4-8.9.7-13.4 1.1l-3.8.3c-13 1.1-26.4 2.4-39.5 2.4-8.7 0-16.7-.6-24.2-1.5-46.4-6.8-79.4-31.3-98.6-73.3m-4.6-2.9c19.3 45.5 53.6 71.9 102.7 78.7 8.3 1.1 16.4 1.5 24.6 1.5 14.6 0 29.2-1.4 43.8-2.6 19.5-1.7 39.1-2.6 58.4-5.7 34.1-5.4 39.1-10.1 46.3-43.6 2.1-9.3 3.7-18.7 3.7-28.3h-61.8c-8.7 4.8-14.2 13.4-23.2 18-19.5 9.8-38.8 15.5-58.4 15.5-16.1 0-32-3.7-48.4-12.4-6.3-3.5-12-7.3-16.2-13.1-2.7-3.5-5.8-6.1-9.6-7.9-20.7-.1-41.4-.1-61.9-.1zM5.3 3.1c19.5.1 39 .3 58.6.3l29.4-.1h23.6C101 23.5 77.6 26.4 56.3 26.5h-1.2c-8.9 0-18-.6-26.9-1.1-8.3-.6-16.7-1.1-25.1-1.2 0-1.2.1-2.5.1-3.7.1-5.1.1-10.2-.1-15.3 0-1.4.2-1.9.2-2.1h2m0-2.9C1.2.2 0 1.2.1 5.3c.4 7.2.1 14.5.1 21.8h.9c18 0 36 2.2 54 2.2h1.2c25.8-.1 50.6-4.8 66.3-28.9H63.9C44.2.4 24.7.4 5.3.2zM1721.6 87.6v2.9c20.7 0 40.4 4.1 55.5 7.7 11.8 2.8 22.6 7.6 32.2 14.5 15.2 11.2 24.1 26.1 25.5 43 1.8 20.3-7.1 42-24.3 59.5-11.7 11.9-27.3 20.3-49.3 26.7-14.8 4.4-27.3 7.2-40.1 7.2-5.3 0-10.2-.4-15.1-1.4-23.2-5-29.7-10.8-36.2-33.2-3.4-11.6-4.7-23.4-4-35.7-.9-5.4-.1-10.8.6-16.6.3-2.4.6-4.8.7-7.3 1.5-15.5 4.1-28.9 8.4-41.1 4.6-13.7 13.4-20.5 28.5-22.4 5.8-.7 11.5-1 17.6-1v-2.8m0 0c-5.9 0-12 .4-18 1.1-15.6 1.9-25.8 9.1-31 24.2-4.6 13.6-7.1 27.7-8.4 41.8-.7 8.3-2.7 16.6-1.5 23.9-.6 13.3.9 25.2 4.1 36.5 6.9 23.6 14.3 30.3 38.5 35.3 5.3 1.1 10.5 1.5 15.6 1.5 13.9 0 27.6-3.3 41-7.3 18.9-5.5 36.9-13.6 50.6-27.5 30.8-31.3 37.2-78.3-1.6-106.6-9.9-7.2-21.1-12.2-33.2-15.1-18.3-4.4-37.1-7.8-56.1-7.8zM1044 68.3c6.1 0 11.5 1.7 16.2 5 7.1 4.8 12.1 11.2 15.9 20.3 7.1 17.1 8.9 35.5 5.5 56.4l-.1 1c-2.2 12.9-4.4 26.1-11.1 37.5-3.4 6.1-7.7 9-12.8 9-2.8 0-5.9-.8-9.3-2.4-14.8-6.6-27-18.1-37.8-35-9.6-15.2-14.5-28.6-15.2-42.3-.3-4.8 1-9.4 2.4-14.2l.3-1.7c4.8-17.3 27.1-33.6 46-33.6m0-2.9c-21.1 0-44.1 18.3-49 36-1.5 5.5-3.2 10.9-2.8 16.6.9 16 7.1 30.3 15.5 43.7 9.7 15.5 22 28.3 39.1 36.1 3.8 1.7 7.4 2.6 10.6 2.6 6.2 0 11.5-3.3 15.5-10.5 7.1-12 9.3-25.9 11.5-39.5 3.2-19.8 2.2-39.1-5.6-57.8-3.5-8.7-8.7-16-17-21.7-5.1-3.9-11.5-5.5-17.8-5.5z" class="st1"/><path d="M271 331.3c17.7 0 33.4 6.9 46.5 20.5 15.9 16.6 24.2 38.4 26 68.9 1 18.1-2.8 35.7-6.9 52-8.6 33.3-11.8 69.1-9.4 106.6 1.9 29 5 58.1 7.8 82.6 4.4 37.9 15.6 69.1 34.2 95.4 13.4 19.1 27.4 40 38.2 63.1 8.1 17.3 15.2 35.4 21.8 53l1.8 4.7c14.8 38.6 38.5 64 72.6 78.1 6.9 2.8 13.7 5.9 20.4 9.1l5.2 2.4c32.2 15.2 61.7 38.3 93.1 72.6 9.6 10.1 17 19.9 23 30.1.4.6.7 1.1 1.2 1.8 1.5 2.2 2.2 3.5 1.6 4.8H569c-3.5-1.7-6.6-4-9.9-6.5l-1.2-1c-6.6-5.7-14.2-9.5-22.6-11.8-2.8-.8-5.8-1.2-8.4-1.2-10 0-18.4 5.4-23.2 14.8-1.3 2.5-3 4.3-5.3 5.7h-64c-1.6-1.5-2.7-3.5-3.7-6.6-5.3-18.5-15.3-34.3-31-48.4-10.8-10-23.5-17.3-35.6-24.3-2.8-1.7-5.8-3.3-8.6-5.1-14-8.4-28.6-17.7-40.1-30-15.3-16.2-25.8-36.8-33.2-65.1-4-15.5-6.6-31.7-9.1-47.3-1.8-10.9-3.5-22.1-5.9-33.2-6.1-29.2-16.8-53-32.8-72.7-16.8-20.7-36.3-39.1-53.3-54.3-21.1-18.9-45.9-35-75.8-49.2-28.9-13.8-62.4-30-94-48.1-3.5-2.1-6.1-4.1-7.8-6.8V483.3c1.6-2.8 3.7-4.8 6.8-6.5 15.1-8.4 28.5-15.2 41-20.6 51.6-22.7 95-50.1 132.8-83.7 21.5-19.2 42.9-31.7 65.1-37.8 7.4-2.3 14.8-3.4 21.8-3.4m0-2.9c-7.4 0-15.1 1.1-22.9 3.2-25.4 7.1-47.1 21.3-66.3 38.4-39.4 35.1-83.8 62-131.9 83.1C35.7 459.2 22 466.4 8.4 474c-3.5 1.9-6.3 4.6-8.3 8.2v103.9c2.4 3.7 5.6 6.2 9.4 8.4 30.7 17.6 62.4 33 94.3 48.3 27.2 12.9 52.7 28.6 75.1 48.7 18.9 16.9 37 34.3 52.8 54.1 17.1 21.2 26.7 45.4 32.3 71.6 5.6 26.7 8.3 54.1 15.1 80.6 6.3 24.6 16.1 47.6 33.8 66.2 11.7 12.4 26.1 21.7 40.7 30.6 15.1 9.1 30.5 17.1 43.7 29 14.5 13.1 24.8 28.5 30.1 47.2 1 3.5 2.5 6.5 5.5 8.7H499c3.1-1.8 5.5-4 7.1-7.3 4.3-8.6 11.8-13.1 20.4-13.1 2.5 0 5 .4 7.7 1.1 8.1 2.2 15.2 5.9 21.4 11.2 3.8 3 7.7 6.1 12.2 8h81.5c3.5-4.3 0-7.7-1.8-10.8-6.5-11.1-14.6-21.2-23.3-30.6-27.3-29.7-57.4-55.9-94.1-73.3-8.6-3.9-17-7.9-25.7-11.5-35.4-14.5-57.6-41.3-71-76.3-7.5-19.5-14.9-39-23.8-57.8-10.5-22.7-24.2-43.4-38.5-63.6-20.1-28.3-29.7-60.2-33.6-94-3.1-27.7-6.1-54.9-7.8-82.4-2.2-35.7.4-71.1 9.4-105.8 4.4-17.3 8-34.8 7.1-52.8-1.5-26.1-7.8-51-26.7-70.7-13.9-14.6-30.3-21.4-48.5-21.4zM479.2 3.3h48.5c2.2 1.2 3.8 3.2 5.3 6.2 3.1 7.1 6.5 13.7 10 19.6 14.2 23.9 28.6 50.1 38.8 78 4.9 13.7 9.9 24.2 15.9 33.3 4 6.4 8.9 12.7 16.7 16.9 4 2.1 7.8 3 11.7 3 7.8 0 14.5-4.6 18.6-12.4 5.2-10 6.9-21.3 5.3-33.6-2.2-16.7-6.1-33-9.9-48.4-5.5-21.3-8.6-40.4-10-58.2-.3-2.2.1-3.5 1-4.4h63.6c1.3 1.5 1.5 3.6 1.5 6.5v1.5c.1 7.3 0 14.8-.1 22.1-.1 12.3-.3 25.2.4 37.6.3 4.1.6 8.4.9 12.6 1.2 16.2 2.2 33 1.5 49.4-1 23.8-5.6 41.8-14.3 56.8-10.3 17.6-24.5 27.7-41.9 29.9-3 .4-6.1.6-8.9.6-19.6 0-37.3-8.6-54-26.3-11.4-12-21.4-27.5-31.6-48.4-13.1-27.1-27.7-54.1-44.4-82.4-11.7-19.7-19.4-36.8-24.3-54.2-1.1-3.1-1.3-4.5-.3-5.7M477.9.4c-3.4 2.6-2.7 5.9-1.6 9.5 5.6 19.5 14.5 37.6 24.6 54.9 15.9 26.8 30.7 54.1 44.4 82.3 8.6 17.7 18.6 34.7 32 49.1 15.6 16.6 34.1 27.2 56.4 27.2 3.1 0 6.2-.3 9.4-.7 19.9-2.6 34.1-14.5 44.1-31.5 10.3-17.8 13.9-37.8 14.8-57.9 1-20.6-1-41.5-2.4-62.2-1-19.8-.1-39.8-.3-59.6-.1-4 .3-8-3.4-10.9h-66.1c-2.4 1.9-3 4.4-2.7 7.5 1.5 19.8 5.2 39.3 10 58.6 4 15.9 7.7 31.7 9.9 48 1.5 11.2.3 22-5 32.1-3.7 7.2-9.3 10.8-15.8 10.8-3.1 0-6.6-.8-10.2-2.6-6.9-3.6-11.5-9.4-15.5-15.8-6.8-10.2-11.5-21.4-15.6-32.8-10.2-27.7-24.2-53.1-39.1-78.4-3.7-6.2-6.9-12.6-9.9-19.5-1.6-3.5-3.8-6.2-7.2-7.9C511.9.4 495 .4 477.9.4zM1536.7 1035.8v2.9c11.7 0 24.3 1.2 38.5 3.9 25.5 4.8 40.4 15.3 48 34h-169.3c9-16.7 24.3-27.4 48-33.6 11.1-2.9 22.4-4.4 35-4.4v-2.8m-.2 0c-12 0-23.9 1.4-35.9 4.6-22.3 5.8-41.6 16.7-51.8 39.3h178.6c-8.3-24.9-27.6-35.3-51.6-39.8-13.2-2.4-26.2-4.1-39.3-4.1zM1458.8 3.3H1604c-2.4 3.7-5 6.8-8.4 9.4-19.5 14.2-42.2 21.4-67.4 21.4-1.9 0-4 0-5.9-.1-29.1-1.3-49.8-11.4-63.5-30.7m-5.5-2.9c15.6 25.7 40.3 35.3 68.8 36.5 2.1.1 4 .1 6.1.1 25.1 0 48.4-6.8 69.4-22.1 5.3-3.7 8.7-9 11.8-14.5h-156.1zM1105.2 389.4h1.2c21.2.4 40.4 9.1 57 26.1 37.3 38.4 50.5 82.4 39.3 130.4-5.6 23.4-16.8 39.8-34.7 50.5-9.3 5.5-17.1 10-24.9 14-28.6 14.7-53.6 32.8-74.5 53.8-12.7 13-24.3 24.6-35.7 36.8-24.1 25.9-52.7 50.6-87.5 75.8-37.2 26.8-63.6 52.7-83.1 81l-.9 1.2c-6.9 10-14.2 20.2-24.1 27.5-11.1 8.3-20.8 12.2-30.5 12.2-4.4 0-9-.8-13.4-2.5-12.5-4.6-23.6-12.9-33.1-24.9-21.2-27.1-40-58.4-59.3-98.3-8.4-17.6-10.9-31.4-8-45.1 4.7-22.3 18.7-36.9 45.3-47.6 11.4-4.7 23.3-8.2 35-11.6 8.7-2.6 17.6-5.3 26.4-8.4 26.1-9 47.8-22.3 66.3-40.7 15.9-15.9 29.2-35.8 41.8-62.4 17.3-37.2 39.7-66.9 68.6-90.4l9.1-7.6c20.2-16.7 41.3-34 63.7-48.7 17.5-11 35.2-21.1 56-21.1m0-2.8c-21.8 0-40.1 10.5-57.8 21.8-26 16.7-49.4 36.9-73.3 56.4-30.5 24.9-53 55.9-69.4 91.4-10.6 22.5-23.3 43.7-41.3 61.7-18.7 18.5-40.4 31.4-65.1 40-20.4 7.2-41.5 11.9-61.5 20.1-23.3 9.4-41.6 23.4-47.1 49.6-3.5 16.6 1.2 32.2 8.3 46.9 16.8 34.8 35.9 68.5 59.8 98.9 9.3 11.8 20.5 20.7 34.4 25.9 5 1.8 9.9 2.6 14.6 2.6 11.8 0 22.4-5.3 32.6-12.9 10.6-7.9 18.2-18.8 25.5-29.5 22.1-32.4 50.9-57.7 82.3-80.3 31.6-22.8 61.5-47.7 87.9-76.1 11.7-12.4 23.8-24.6 35.6-36.8 21.7-21.8 46.5-39.3 73.8-53.2 8.6-4.4 16.8-9.1 25.1-14 20.1-12 30.8-30.6 36-52.4 12.1-51.7-4-95.8-39.8-132.9-15.8-16.2-35.4-26.8-59-27.1-.7-.1-1.1-.1-1.6-.1zM1564.6 505.7c2.8 0 6.2.8 10 2.6 10.8 5.3 18.4 14.4 25.8 23.4l3.8 4.6c17.6 20.7 36.6 42.9 57.1 63.9 6.2 6.2 12.4 12.3 18.7 18.4 24.1 23.8 49 48.4 70.1 75.6 11.4 14.8 23.5 29.5 35.1 43.7 16.4 19.9 33.3 40.4 48.5 61.7 16.2 22.5 22.1 41.3 19.5 61.1-5.9 43.1-33.9 75.5-73.3 84.5-5.3 1.2-10.8 1.9-15.9 1.9-13.9 0-38.4-4.6-48.1-35-3.5-11.3-6.5-23.1-9.4-34.4-1.5-5.9-3-11.8-4.4-17.7-11.1-41.2-33.2-68.7-67.3-83.9-26.4-11.6-54.9-17.3-87.1-17.3-12.2 0-25.2.8-38.7 2.5-23.6 2.9-45.3 12-66.3 20.7-14.2 5.9-29.5 11.6-46 12-26 0-52.7-20.6-59.6-45.9-3.5-13.3 1.3-26 13-34 8.7-5.9 18.6-10.6 29.5-14.2 39.5-13.1 71.9-37.8 98.6-75.2 15.3-21.7 30.3-44.9 47.1-73.4l3.2-5.5c7.1-12.3 13.7-23.9 23.6-33.7 4.5-4.5 8.4-6.4 12.5-6.4m0-2.9c-5.2 0-9.6 2.4-14.6 7.3-11.5 11.6-19 26-27.2 40-14.8 25-30.1 49.5-46.9 73.3-24.8 34.6-56.2 60.6-97.1 74.1-10.6 3.5-20.8 8.2-30.3 14.7-12.7 8.7-18.2 22.4-14.2 37.1 7.1 26.6 35.3 48.1 62.6 48.1 16.7-.6 32.2-5.9 47.2-12.3 21.2-8.9 42.5-17.7 65.5-20.5 12.8-1.7 25.5-2.5 38.2-2.5 29.2 0 58 4.8 85.6 16.9 35.7 15.9 55.8 45.1 65.7 82 4.6 17.4 8.4 35 14 52.3 8.4 26.3 29.1 37.1 51.1 37.1 5.6 0 11.2-.7 16.7-1.9 44.1-10.1 69.9-46.3 75.6-87 3.4-24.1-6.5-44.5-19.9-63.1-26.3-36.5-56.4-69.8-83.8-105.4-26.6-34.4-58.4-63.7-89-94.4-20.1-20.3-38.7-41.9-57-63.7-9-10.5-17.3-22.3-30.5-28.5-4.5-2.5-8.2-3.6-11.7-3.6z" class="st1"/><path d="M282.2 3.3h76.6c4.7 20.5 12.7 41.8 24.8 66.7 13.6 27.7 28.8 54.9 45 81.2 25.2 41.2 53.1 84.4 93 118.2 20.2 17.3 42.2 32.4 65.1 44.9 31.7 17.6 67.3 27.2 98.7 36 25.7 6.9 44.3 23.6 55.5 49.8 10.8 25.4 16.1 45.8 17.1 66 1.2 21.7-3.2 37.6-14.2 50.5-8.6 10.1-19 18.8-31 25.7-13.9 8-28.5 15.5-42.5 22.7-5 2.6-10 5.1-15.1 7.7-28 14.4-50.5 30.7-68.9 49.5-4 4.1-8.1 8.4-12.1 12.6-8.9 9.4-18.2 18.9-27.6 28.1-12.5 12.3-25.1 18.4-39.4 18.9-.9.1-1.8.1-2.7.1-27.9 0-51.1-23.4-61.5-46.6-10.6-23-13-48.3-7.4-77.4 2.5-12.7 5.8-25.9 9-38.3 1.5-5.7 3-11.2 4.3-16.9 4-16.6 5.2-33 3.4-48.8-2.4-21.6-6.8-43.1-13.6-65.7l-2.7-9.4c-9-31-18.4-62.8-33.6-92.1-4.3-8.3-11.2-20.3-21.7-29.6-13.3-11.5-29.7-19.9-48.3-24.9-21.7-5.7-44.3-7.2-66-8.7-9.7-.7-19.9-1.4-29.7-2.5-14-1.5-28-3-40.7-8.9-7.8-3.6-20.8-12-18.7-27.9 1.2-10.5 4.7-20.7 10.8-31.3 10.2-16.9 22.1-32.1 33.6-46 26.2-31.6 50.2-63.4 60.5-103.6M279.9.4c-10 40.9-34.5 73.2-60.5 104.8-12.2 14.8-24.1 29.9-33.9 46.5-5.8 10.1-9.7 20.5-11.1 32.2-1.9 15.6 8.9 25.6 20.5 30.8 13.3 6.1 27.6 7.6 41.8 9.1 31.7 3.3 64 2.9 95.2 11.1 17.4 4.7 33.5 12.4 47.1 24.2 8.9 7.9 15.5 18.1 21 28.8 16.7 31.9 26 66.7 36.2 100.9 6.3 21.3 11.1 43 13.4 65.3 1.8 16 .4 32.2-3.4 48-4.4 18.4-9.7 36.8-13.3 55.3-5.2 27-4 53.7 7.5 79 11.5 25.2 35.7 48.4 64.3 48.4.9 0 1.9 0 2.8-.1 16.8-.8 30.1-8.7 41.5-19.9 13.6-13.3 26.4-27.2 39.5-40.8 19.8-20.3 42.9-36 68-49 19.3-10.1 38.8-19.6 57.7-30.6 12-6.9 22.6-15.8 31.7-26.4 12.7-15.2 15.8-33 14.8-52.4-1.2-23.6-8.3-45.5-17.3-66.9-11.1-26-29.5-44-57.4-51.4-33.6-9.3-67.1-18.7-98-35.7-23.2-12.6-44.6-27.5-64.6-44.5-38.7-32.9-66.3-74.8-92.4-117.5-16.2-26.3-31.1-53.4-44.9-81C375.5 46.4 366.4 24 361 .1c-26.7.3-53.8.3-81.1.3zM1124.7 808.5c8.3 0 15.6 2.8 21.8 8.3 14.2 12.6 14.6 28.9 13.6 47.4-.4 7.9-1 15.8-1.6 23.5-.7 9.3-1.6 18.8-1.9 28.2-.7 19.4 1.6 38.4 4.1 56.4 4.4 31.3 13.7 57.1 28 79.1 1.3 2.1 2.8 4.1 4.1 6.1 4.1 6.1 8.6 12.3 11.4 19.2H936c6.2-34.3 15.6-68.6 24.8-101.6l5.2-18.5c10.6-38.7 25.1-78.4 60.1-106.5 29.8-24.2 60.8-37.6 94.6-41.2 1.2-.3 2.5-.4 4-.4m0-2.8c-1.5 0-3 .1-4.4.3-36.3 3.7-68 18.9-96.4 41.9-34.5 27.9-49.7 66.9-60.9 108-10.9 40.1-22.6 80.1-30 121.1-.1 1-.6 1.8-.9 2.8h276.8c-3.5-11.2-10.9-20.2-17.3-29.6-15.5-23.8-23.6-50.2-27.6-78-2.8-18.5-4.9-37.2-4.3-55.9.7-17.1 2.8-34.3 3.7-51.7.7-18.1.7-35.8-14.8-49.6-7.2-6.8-15.5-9.3-23.9-9.3zM1828.2 319c11.8 0 24.2.8 36.7 2.6 11.8 1.7 23.3 5.7 34.5 9.7 5.6 1.9 11.5 4 17.4 5.8V504c-8 1.8-15.8 3.7-23.8 5.7-22.6 5.4-42.9 7.9-62.3 7.9-17.7 0-34.2-2.1-50.6-6.5-36.9-9.8-78.5-44.9-82.9-90.7-3.4-36.2 12.5-67.5 42.1-81.7 27.2-13.2 56.2-19.7 88.9-19.7m0-2.8c-31 0-61.4 5.8-90.3 19.9-31.9 15.3-47.1 49.2-43.7 84.5 4.3 44.8 43.8 82.1 85.1 93.2 17.1 4.6 34.4 6.6 51.5 6.6 21.1 0 42.1-3 63-8 8.7-2.1 17.3-4.1 26-6.2V334.9c-18.3-5.3-35.6-13.4-54.5-16.2-12.5-1.7-24.9-2.5-37.1-2.5zM60 739.1c6.1 0 11.7.4 17.1 1.4 39.3 6.6 65.4 31.4 77.2 73.3 7.7 26.7 6.9 56.1-2.4 90-10.2 36.5-32.3 58.6-67.6 67.6-24.5 6.4-48.8 6.8-78.1 6.8H3.1v-55c1.5-1.4 3.2-1.5 6.3-1.7h1c2.4-.1 4.7-.1 7.1-.1h4c8.3 0 16.4 0 24.5-1.4 43.5-7.2 70.7-40 69.2-83.5-1-27-18.6-47-44.9-51-2.8-.6-5.8-.7-9-.7-3.5 0-7.4.3-11.7.8-13.6 1.8-26.4 5.5-40.6 9.7l-.9.3c-1.3.4-2.5.8-3.4.8-.4 0-1-.1-1.6-.6V746h.3c7.1-1 14.5-1.9 21.5-3.3 9.7-1.7 22.6-3.6 35.1-3.6m0-2.9c-11.8 0-23.8 1.7-35.4 3.9-8 1.5-16.1 2.5-24.3 3.6v53.4c1.5 1.8 3 2.4 4.7 2.4 1.6 0 3.4-.7 5.2-1.1 13.3-3.9 26.6-7.7 40.1-9.5 3.7-.6 7.4-.8 11.2-.8 2.8 0 5.8.3 8.4.7 25.1 3.9 41.5 22.7 42.4 48.4 1.5 42-24.9 73.7-66.6 80.6-8 1.2-15.9 1.2-24.1 1.2h-3.7c-2.5 0-4.9 0-7.2.1-3.8.1-7.7-.1-10.3 3.5v58.9h6.2c26.6 0 53-.3 78.9-6.9 37-9.4 59.6-33.2 69.8-69.7 8.3-30.3 11.1-61.1 2.4-91.5C146.2 773 121 745 77.9 737.7c-6.2-1.1-12-1.5-17.9-1.5zM1187.6 3.3h58.9l-.1 5.8c0 7.2 0 14.4.1 21.6.1 7.7-.7 15.1-2.7 22.1-1 3.5-3.7 9.4-9.7 9.4-2.2 0-4.9-.8-7.4-2.4-2.4-1.4-4.6-3.2-6.5-5.1-14.8-14.6-25.7-31.8-32.6-51.4m-4.2-2.9c6.8 21.6 18.3 40.4 34.4 56.1 2.1 2.2 4.7 4.1 7.2 5.8 3.1 1.8 6.2 2.8 9 2.8 5.9 0 10.5-4 12.7-11.6 2.1-7.5 3-14.9 2.8-23-.3-10-.1-19.9-.1-30.1h-66zM848.5 169.1c4.4 0 8.7 1.4 12.5 4.1 15.1 10.8 23.8 26.6 25.5 46.7 1.2 12.4-1.8 22.4-8.1 29-5.5 5.5-13.6 8.4-23.5 8.4-1 .1-1.9.1-2.7.1-18.6 0-29.7-12.7-32.2-24.6-4.4-21.8-.6-40.1 12-55.7 4.4-5.1 10.3-8 16.5-8m0-3.1c-7.1 0-13.9 3.2-18.7 9.4-13.9 17.3-16.8 37.1-12.5 58.1 3 14.2 15.9 26.8 35.1 26.8h2.7c23.5 0 36.9-15.3 34.7-40.7-1.9-19.9-10.2-36.8-26.7-48.8-4.8-3.1-9.8-4.8-14.6-4.8zM1321.4 136.6v2.9c23.6 0 44.9 7.2 70.1 16.7 28.3 10.8 62.1 22.8 97 30.1 5.6 1 12 2.4 17 5.3 14.2 8.3 16.4 14.5 10.3 28.2-2.7 5.8-5.2 10.1-8.3 13.8l-2.8 3.5c-9.3 10.9-18.6 21.8-27.9 32.9-24.5 29.3-41.3 57.9-51.5 87.5-8.1 23.9-11.5 51.3-10.2 81.2 0 5.1 0 9.8.1 14.1 0 8.3.1 14.9-.3 21.6-.7 14.4-2.7 31.3-11.1 46.9-4.9 8.7-11.1 15.6-18.7 20.5-5.5 3.5-11.2 5.4-16.7 5.4-11.5 0-21.4-7.9-27-21.8-5.3-13.3-6.1-27.5-6.9-41.5l-.1-3c-.6-10.8-.6-21.8-.6-32.5 0-11.6.1-23.8-.7-35.7-1.9-27.4-1.9-55.2-1.8-82.3v-15.8c-.1-15.8-1.8-32.5-5.2-52.8-2.5-14.5-6.3-28.6-10.3-42.3-1.9-7.1-3.8-14.1-5.6-21.2-.9-3.3-1.9-6.8-2.8-10.2-3.1-11.1-6.2-21.6-5.8-32.9.3-6.9 3.2-15.1 15.6-15.6h4.1l.1-3m0 0c-1.5 0-2.8 0-4.3.1-11.4.4-18 7.1-18.6 18.3-.7 15.5 4.9 29.5 8.6 44 5.3 21.2 12.2 41.8 15.8 63.2 3 17.4 5.2 34.7 5.2 52.4 0 32.6-.6 65.4 1.8 98 1.5 22.8 0 45.5 1.3 68.2.9 15.2 1.3 31 7.2 45.5 6.5 15.9 17.7 23.8 30 23.8 6.1 0 12.4-1.9 18.6-5.9 8.3-5.3 14.9-12.7 19.6-21.7 8.1-15.1 10.6-31.4 11.5-48 .4-10.4 0-20.6 0-36-1-23.9.9-52.5 10.2-80.2 11.1-32.4 29.2-60.6 50.9-86.6 10.3-12.2 20.5-24.3 30.8-36.4 3.7-4.4 6.3-9.3 8.7-14.5 6.3-14.2 4.4-22.4-11.5-31.8-5.5-3-11.8-4.6-18-5.7-33.2-6.9-64.9-18-96.5-29.9-23-8.5-46.2-16.8-71.3-16.8z" class="st1"/><path d="M62.7 787.2c.9 0 1.8.1 2.7.1 20.5.7 37.9 13.6 44.3 32.8 6.5 20.3 3.4 43-8.4 62.1C90.2 900 72.5 912.6 53 916.6c-11.5 2.4-23.3 2.6-35.3 2.6h-5.6c-2.8 0-5.6 0-8.4.1v-120c2.5-.6 4.9-1.2 7.4-1.9l2.5-.7c15.6-4.6 32.1-9.5 49.1-9.5m0-2.9c-18.3 0-35.6 5.4-53 10.4-3.1 1-6.2 1.7-9.6 2.4v125.3c3.8-.1 7.7-.1 11.5-.1h5.8c12 0 24.1-.1 36-2.6 44.3-9.3 72.8-57.4 59-100.3-6.8-20.3-25.4-34.2-47.1-34.8-.9-.2-1.7-.3-2.6-.3zM485.6 307c2.5 0 5.5.4 8.6 1.1 14.6 3.7 27.7 11.5 40.3 19.1l3 1.8c27.3 16.3 54.3 33.3 80.3 49.8 17.9 11.1 35 22.3 49 37.2 14.6 15.6 21.1 31.4 20.4 49.5 1 13.6-4.1 25.9-15.6 37.8-14.9 15.3-33.1 25.9-47.2 33.3l-10.5 5.5c-20.7 10.9-42.1 22.3-62 35.4-8.7 5.9-15.9 10.1-23.2 13.3-4.3 1.9-8.3 2.9-12 2.9-10.3 0-16.8-7.9-17.4-21.2-.4-7.9.3-16.3 2.2-26.6 5.2-31.5 4.1-60.6-3.1-88.8-3.4-13.3-7.5-26.4-11.5-39.1-4.4-14.2-9-29-12.5-43.8-3.4-14.5-6.5-30.3-5.9-46.3.4-13.9 6.2-20.9 17.1-20.9m0-3.1c-12.5 0-19.6 8.2-20.1 23.8-.6 16 2.4 31.7 6.1 47.3 6.6 28.1 17 54.9 24.1 82.8 7.4 29 7.8 58.1 3.1 87.7-1.6 9-2.7 18-2.2 27.1.7 15.3 8.6 23.9 20.5 23.9 4 0 8.6-1.1 13.3-3.2 8.4-3.7 16.1-8.4 23.6-13.6 23-15.3 47.7-27.8 72-40.7 17.4-9.1 34.1-19.5 48-33.9 10.8-11.2 17.6-24.1 16.5-39.7.9-20.9-7.5-37.1-21.1-51.4-14.6-15.5-31.9-26.7-49.6-37.8-26.6-16.7-53.3-33.6-80.4-49.9-14-8.3-28-17-44.1-21.2-3.8-.6-6.9-1.2-9.7-1.2zM314 118.3v2.9c11.1 0 20.5 6.9 26.1 19.1 3.2 6.9 3.4 13.8.4 19.1-2.5 4.7-7.1 7.9-13 9.1-4.7 1.1-9.7 1.5-14.6 1.5-6.5 0-13-.8-20.1-2.5-6.9-1.8-12.7-9-12.7-16 0-7.6.7-9.4 11.2-19.9 6.9-6.8 14.8-10.4 22.6-10.4v-2.9m.1 0c-8.4 0-17.1 3.6-24.9 11.3-10.6 10.5-12 13.1-12 21.8 0 8.2 6.5 16.6 15.1 18.8 6.9 1.7 13.9 2.6 20.8 2.6 5.2 0 10.2-.6 15.3-1.7 15.2-3.3 21.5-17.3 14.8-32.2-6.5-13.4-17.5-20.6-29.1-20.6zM1055.5 920.9c2.5 0 5 1.2 7.4 3.6 10 9.5 12.7 26.3 6.1 37.2-4.4 7.7-9.6 11.6-15.9 12.2-3-.1-5.9-1.2-8.9-3.3-8.6-6.2-9.1-16.2-8.7-21.6.7-10.9 7.1-22.5 14.2-26.4 2.1-1 4-1.7 5.8-1.7m0-2.7c-2.4 0-4.9.8-7.5 2.2-13.7 7.5-24.5 39-5.8 52.7 3.2 2.5 6.9 3.9 11.1 4 8.9-.8 14.5-7.1 18.3-13.7 7.4-12.4 3.8-30.7-6.5-40.7-3.1-3.1-6.2-4.5-9.6-4.5zM1807.8 371.1c27.6 0 55.5 12.4 74.2 33.5 11.1 12.4 10.6 28.2-1 39.1-16.7 15.5-37 23-63.9 23.2h-2.1c-19.8 0-35.6-5.1-48.5-15.3-13.7-11.2-19.9-23.9-18.9-39 1.3-16.7 10.8-28.9 27.3-35.4 10.3-4 21.4-6.1 32.9-6.1m0-2.9c-11.5 0-23.2 2.1-33.9 6.5-16.7 6.5-27.7 19.4-29.2 37.9-1.2 17.1 6.8 30.6 19.9 41.2 14.8 11.9 32 16 50.5 16h2.1c24.9-.3 47.1-6.4 66.1-24.1 12.2-11.3 13.7-28.9 1.3-43-20.1-22.2-48.6-34.5-76.8-34.5zM533.1 3.3H627l.6 5.7c.9 7.7 1.8 15.5 2.8 23.2 1.9 13 5 25.7 8 38.2 2.5 10.6 5.3 21.6 7.1 32.5 2.1 12 3.5 23 .7 33.6-1.9 7.6-4 14.2-10 18.1-3.5 2.5-7.2 3.7-11.1 3.7-5 0-10-2.2-15.1-6.6-9.4-8.4-14.9-19.9-19.8-30.7-3-6.8-5.8-13.7-8.4-20.5-5.6-13.8-11.2-28.1-18.7-41.3-2.7-5-5.5-9.7-8.3-14.5-7.5-13.3-15.3-27-21.7-41.4M528.7.4c8.6 21 20.8 40.2 31.9 60 11.1 19.6 18 41.2 27 61.7 5.2 11.6 10.9 23 20.5 31.7 5.5 5 11.4 7.5 17.1 7.5 4.3 0 8.6-1.4 12.8-4.3 6.9-4.7 9.3-12.3 11.2-19.8 3.1-11.6 1.3-23.2-.7-34.7-4-23.8-11.7-46.7-15.1-70.7-1.6-10.4-2.5-20.7-3.7-31.4h-101zM526.5 1058.5c3.2 0 6.9.7 10.6 1.9 10.6 3.7 18.9 9.1 24.9 16.3h-58.1c.1-.4.4-.8.6-1.2 3.1-7.8 9.4-17 22-17m0-2.9c-11.2 0-19.9 6.5-24.9 18.8-.7 1.8-1.6 3.3-2.4 5.3h68.9c-7.4-10.9-17.7-17.7-29.8-22-4.3-1.4-8.1-2.1-11.8-2.1zM260.1 395c8.7 0 16.7 4.6 22.1 12.6 2.8 4 4.6 8.9 5.8 15.2 3 15.5 1.2 31.3-.6 46.3-.6 4.4-1 8.6-1.5 13-2.4 23.8-3 43-1.9 60.6l1 13.6c1.3 18.5 2.7 37.6 3.1 56.4.6 21.8-2.2 39.4-8.4 55.3-4.3 11.1-11.1 16.3-20.7 16.3-2.8 0-5.9-.6-9.3-1.4-10-2.9-20.1-7.7-31.7-15.5l-4.1-2.8c-29.7-19.8-60.2-40.2-90.2-60.7-10.5-7.1-21.2-14.9-30.1-24.9-21.2-24.3-22.6-45.5-4.6-68.5 5.2-6.4 11.2-12 18.7-17.6 12-8.7 24.5-17.3 36.4-25.3 20.8-14.4 42.5-29 62.6-45.4 11.2-9.1 26.3-20.2 44.3-25.9 2.9-.7 6-1.3 9.1-1.3m0-2.7c-3.2 0-6.8.6-10.2 1.7-17 5.4-31.6 15.2-45.3 26.3-31.4 25.6-66 46.7-98.9 70.5-7.1 5.3-13.6 11.1-19.3 18.1-20.5 26-15.3 49.1 4.7 72 8.9 10.1 19.8 18 30.7 25.4 31.3 21.3 62.9 42.3 94.4 63.5 10.2 6.8 20.8 12.4 32.6 15.9 3.5 1.1 6.9 1.5 10.2 1.5 10.9 0 18.9-6.2 23.6-18.3 7.2-18.1 9.1-37.1 8.7-56.4-.6-23.4-2.5-46.6-4-70-1.3-20.1-.1-40.2 1.9-60.3 1.9-20.1 5.9-39.8 1.9-60-1-5.7-2.8-11.3-6.2-16.2-6.2-8.9-14.9-13.7-24.8-13.7zM1093.3 455.6c2.8 0 5.8.7 8.7 1.4l1.2.3c12.4 2.6 23.5 10.6 30.4 22.1 7.2 12 9 26 4.9 38.3-3.7 10.5-9.9 20.3-18.3 28.9-8.1 8.3-17 16.2-25.4 23.9-4.9 4.1-9.4 8.4-14.2 12.7-25.1 23.6-51.1 50.9-81.8 86.2-16.2 18.5-36.4 39.4-62.7 53.9-16.2 9.1-30.5 13.8-45 14.7-.9.1-1.6.1-2.5.1-8.6 0-14.5-2.6-18.4-8.3-4.4-6.4-3-12.4 1.2-20.9 3.8-8 8.1-16.3 14-23.4 27.7-33 49-69.4 63.6-107.9 10.9-28.2 24.9-50.1 42.8-66.9 18.7-17.7 40.3-32.8 64.2-44.7 13.3-6.4 24.6-9.7 35.6-10.2.5-.2 1.1-.2 1.7-.2m0-2.9c-.6 0-1.3.1-1.9.1-13 .7-25.2 5-36.7 10.6-23.9 11.9-45.6 26.8-64.9 45.1-20.1 18.9-33.6 42.5-43.5 68-14.9 39.4-36.2 74.8-63.2 107-6.1 7.2-10.3 15.5-14.5 23.9-3.8 7.7-6.6 15.6-.9 23.6 5.3 7.3 12.8 9.5 21 9.5.9 0 1.9 0 2.8-.1 16.7-1 31.9-6.9 46.3-15.1 24.9-13.8 44.9-33.3 63.5-54.6 26-29.6 52.8-58.8 81.6-85.9 13.1-12.3 26.9-23.8 39.5-36.8 8.4-8.7 14.9-18.5 19-29.9 9.3-26.7-9-58.1-37.5-64-3.5-.4-7.1-1.4-10.6-1.4zM1573 603.8v2.9c8 0 17.1 3.2 27.6 10.1 24.5 15.6 45 35.5 61.4 58.9 8.4 12 13.1 22.1 15.3 32.5.9 4.3.1 8.4-2.2 11.6-2.2 2.9-5.5 4.8-9.1 5.4-5.3 1-9.9 1.7-14.6 1.7h-2.2c-23.6-1.5-46.6-4.1-68.6-7.7-17-2.8-35-6.2-51.2-15.2-12.4-6.8-17.7-18.8-14.2-32.2 4.6-17.6 12.1-32.1 22.1-43.6 13.3-15.1 24.1-21.6 35.4-21.6v-2.8m.3 0c-13.4 0-24.9 8-37.9 22.7-11.2 12.7-18.4 28.2-22.9 44.7-4 14.9 2.1 28.1 15.6 35.4 16.4 9 34.1 12.6 52.1 15.5 22.9 3.7 45.9 6.4 68.9 7.7.9.1 1.8.1 2.5.1 5.2 0 10-.8 15.1-1.8 10-1.7 16.1-10.5 14-20.5-2.5-12.4-8.6-23.2-15.8-33.5-16.7-24.1-37.5-44-62.3-59.7-11.1-7.2-20.7-10.6-29.3-10.6z" class="st1"/><path d="m197 526.5.3 2.9c9.3 0 14.6 7.2 17.6 13.3 3.5 7.2 5.3 14 5.2 20.2-.1 9.5-5.2 19.6-14.5 19.6-3 0-6.2-1-9.7-2.9l-3-1.7c-4.4-2.5-8.6-4.8-11.8-8.3-5.2-5.8-8.1-11.6-9-18.1.3-2.8 1.3-5.9 3.1-9.1 5.2-8.6 12.5-13.1 21.8-13.1v-2.8m0 0c-10.3 0-19 5.3-24.5 14.7-1.9 3.3-3.1 6.8-3.4 10.9 1.2 7.3 4.7 13.8 9.9 19.5 4.3 4.8 10 7.5 15.5 10.6 4.1 2.4 7.8 3.3 11.2 3.3 11.1 0 17.4-11.2 17.4-22.4.1-7.3-2.1-14.7-5.5-21.6-4.1-8.9-10.9-15.1-20.2-15.1-.1.1-.3.1-.4.1z" class="st1"/></svg>