<svg width="64" height="76" viewBox="0 0 64 76" fill="none" xmlns="http://www.w3.org/2000/svg">
<g clip-path="url(#clip0_325_276)">
<path d="M23.9581 76C23.6264 75.9174 23.2923 75.8373 22.953 75.7497C22.0216 75.5096 21.1956 74.97 20.6032 74.2146C20.0108 73.4592 19.6851 72.5303 19.6765 71.5717C19.6388 68.2824 19.6589 64.9931 19.6564 61.7037C19.6564 60.4371 19.6564 60.4371 18.3473 60.4371C16.5885 60.4371 14.8296 60.4371 13.0707 60.4371C11.6762 60.4371 11.1963 59.9364 11.1963 58.5521C11.1963 48.0666 11.1963 37.5803 11.1963 27.0932C11.1963 25.7189 11.7516 25.1506 13.131 25.1506C25.7195 25.1506 38.3071 25.1506 50.8938 25.1506C52.2808 25.1506 52.8386 25.7164 52.8386 27.0832C52.8386 37.5686 52.8386 48.0549 52.8386 58.5421C52.8386 59.9314 52.3637 60.4271 50.9742 60.4371C49.0621 60.4521 47.15 60.4646 45.2403 60.4371C44.5519 60.422 44.2956 60.5923 44.3056 61.3382C44.3484 64.5525 44.3308 67.7692 44.3207 70.9834C44.3207 72.7357 43.7704 74.2678 42.1849 75.2065C41.5442 75.587 40.7753 75.7547 40.0643 76.0176H39.617C39.0648 75.9005 38.5222 75.7424 37.9938 75.5444C36.0616 74.6658 35.2575 73.1012 35.2726 71.026C35.2977 67.7917 35.2726 64.555 35.2902 61.3207C35.2902 60.6373 35.0691 60.417 34.3957 60.4371C33.0313 60.4771 31.6669 60.4496 30.3051 60.4496H28.692V61.4509C28.692 64.7052 28.692 67.972 28.692 71.2313C28.692 73.4492 27.3552 75.2215 25.3376 75.7672L24.4204 76.0176L23.9581 76Z" fill="#E33C5C"/>
<path d="M44.9689 -5.15059e-05C45.5795 0.450541 45.5795 0.948697 45.2051 1.58704C44.293 3.14409 43.4463 4.73368 42.5618 6.31075C42.4337 6.54356 42.3105 6.78638 42.1874 7.06174C42.4387 7.23447 42.6221 7.38467 42.8282 7.51484C46.9634 10.0102 50.0903 13.8703 51.6652 18.4242C51.9375 19.1874 52.1657 19.9655 52.3486 20.7548C52.5999 21.9013 51.9742 22.6923 50.7732 22.7098C49.0847 22.7374 47.3962 22.7098 45.7077 22.7098H13.9099C13.5883 22.7098 13.2642 22.7098 12.9426 22.6923C11.9023 22.6147 11.3219 21.8011 11.5631 20.7848C12.9074 15.1023 16.0331 10.679 20.9956 7.55489C21.2243 7.4122 21.4454 7.25449 21.7318 7.05423C21.6062 6.8039 21.5032 6.55357 21.375 6.32828C20.5032 4.7487 19.6162 3.17412 18.7493 1.59455C18.287 0.758446 18.3297 0.54817 19.0408 -0.0275879H19.3398C19.6395 0.334069 19.9156 0.714517 20.1665 1.11141C21.0484 2.65594 21.9253 4.20548 22.752 5.77505C23.0208 6.27571 23.2796 6.30074 23.8048 6.14303C25.6189 5.59731 27.4331 4.96148 29.295 4.6761C32.9411 4.11448 36.6724 4.61251 40.0416 6.11049C40.6698 6.38335 40.9437 6.21813 41.2401 5.65489C42.0769 4.06029 42.9613 2.48071 43.8609 0.92867C44.0994 0.592734 44.3713 0.28159 44.6725 -5.15059e-05H44.9689ZM24.1867 14.1035C24.1774 13.6318 23.987 13.1816 23.6547 12.8454C23.3224 12.5092 22.8735 12.3127 22.4002 12.2961C21.914 12.3071 21.4511 12.506 21.1093 12.8507C20.7675 13.1955 20.5736 13.659 20.5685 14.1436C20.571 14.3837 20.6217 14.6209 20.7176 14.8413C20.8134 15.0616 20.9525 15.2607 21.1267 15.4267C21.3008 15.5927 21.5065 15.7224 21.7317 15.8082C21.9569 15.8939 22.197 15.9339 22.4379 15.9259C22.912 15.9141 23.3621 15.7157 23.6898 15.3742C24.0175 15.0327 24.1962 14.5759 24.1867 14.1035ZM41.5241 15.9259C42.0108 15.9253 42.4777 15.7332 42.823 15.3914C43.1684 15.0497 43.3644 14.5859 43.3684 14.101C43.3429 13.63 43.1431 13.185 42.8076 12.8522C42.472 12.5193 42.0246 12.3221 41.5517 12.2986C41.0647 12.3078 40.6006 12.5065 40.2587 12.8522C39.9168 13.198 39.7244 13.6633 39.7225 14.1486C39.7323 14.6199 39.9257 15.069 40.262 15.4007C40.5983 15.7325 41.0509 15.9208 41.5241 15.9259Z" fill="#E33C5C"/>
<path d="M9.02534 38.9436C9.02534 42.1103 9.05298 45.2745 9.02534 48.4411C9.00898 49.5014 8.6018 50.5187 7.88132 51.2993C7.16083 52.0799 6.17735 52.5693 5.11815 52.6742C2.32659 52.9721 0.0651919 51.0445 0.0300147 48.2384C-0.0152132 42.0636 -0.0152132 35.8821 0.0300147 29.694C0.0450906 27.1907 1.77129 25.3658 4.3518 25.188C6.38454 25.0478 8.35698 26.312 8.92233 28.6501C9.01727 29.1338 9.05439 29.6271 9.03288 30.1195C9.03288 33.0609 9.03288 36.0048 9.03288 38.9461L9.02534 38.9436Z" fill="#E33C5C"/>
<path d="M54.9743 38.9488C54.9743 35.9448 55.0396 32.9634 54.9542 29.9745C54.8889 27.699 56.3939 25.3809 59.2257 25.1857C60.289 25.1102 61.3437 25.4207 62.195 26.0599C63.0462 26.6991 63.6365 27.6237 63.8565 28.6628C63.9506 29.0734 63.9987 29.4932 63.9998 29.9144C63.9998 35.9473 63.9998 41.9811 63.9998 48.0157C63.9998 50.2412 62.7434 51.9684 60.7484 52.5467C60.0886 52.7508 59.3901 52.7984 58.7086 52.6858C58.0271 52.5731 57.3815 52.3033 56.8232 51.898C56.265 51.4926 55.8096 50.9628 55.4934 50.3509C55.1771 49.739 55.0088 49.0619 55.0019 48.3737C54.9542 45.2321 55.0019 42.0929 55.0019 38.9513L54.9743 38.9488Z" fill="#E33C5C"/>
</g>
<defs>
<clipPath id="clip0_325_276">
<rect width="64" height="76" fill="white"/>
</clipPath>
</defs>
</svg>
