<svg width="42" height="45" viewBox="0 0 42 45" fill="none" xmlns="http://www.w3.org/2000/svg">
<g clip-path="url(#clip0_27_93)">
<path d="M30.9477 38.7397C30.9477 39.4972 30.9538 40.3398 30.9477 41.1837C30.9292 43.3511 29.3412 44.9888 27.2193 44.9926C21.8471 45.0026 16.4757 45.0026 11.1052 44.9926C9.00174 44.9926 7.38663 43.3574 7.37802 41.2363C7.36326 37.8006 7.37805 34.3636 7.37067 30.9266C7.37067 30.551 7.44323 30.1967 7.8184 30.0952C8.05089 30.0326 8.41131 30.0639 8.5663 30.2129C8.74467 30.3845 8.83446 30.7313 8.83569 31.003C8.85291 34.3311 8.84677 37.6591 8.848 40.9859C8.848 42.6061 9.73119 43.5013 11.3315 43.5013H26.9893C28.608 43.5013 29.4777 42.6074 29.4777 40.9433C29.4777 32.6796 29.4777 24.4158 29.4777 16.152C29.4777 15.377 29.6979 15.0251 30.1949 15.0114C30.6918 14.9976 30.9501 15.3669 30.9501 16.1608C30.9501 16.8945 30.9501 17.6282 30.9501 18.4145C31.6181 17.7534 32.4029 18.0226 33.1335 18.0715C33.3168 18.084 33.5542 18.4208 33.6342 18.6549C33.7965 19.1395 33.8519 19.6566 33.9897 20.1574C34.0549 20.3145 34.1679 20.4461 34.312 20.5331C34.462 20.6332 34.681 20.637 34.82 20.7422C35.4166 21.1867 35.8963 20.9926 36.4523 20.5982C37.6824 19.7367 37.6984 19.7668 38.7661 20.8486C39.081 21.1679 39.3959 21.4872 39.7096 21.8102C40.1598 22.2747 40.1832 22.5226 39.8326 23.0861C39.7994 23.1399 39.7637 23.19 39.7317 23.2438C39.4771 23.6683 39.049 24.0802 39.0158 24.5235C38.9826 24.9667 39.3282 25.445 39.5361 25.9008C39.6064 26.028 39.7231 26.122 39.8609 26.1624C40.3332 26.2877 40.8167 26.3866 41.2927 26.5055C41.8143 26.6307 41.9926 26.8574 41.9975 27.382C42.0037 28.1332 41.9975 28.8845 41.9975 29.6357C41.9975 30.1078 41.7909 30.3995 41.3271 30.4997C40.8917 30.5923 40.4661 30.72 40.0257 30.7927C39.7169 30.844 39.5226 30.9617 39.4611 31.2935C39.4324 31.4633 39.3696 31.6253 39.2766 31.7693C38.8916 32.3139 39.0096 32.786 39.4106 33.2605C39.5963 33.5094 39.7644 33.7713 39.9138 34.0443C40.145 34.4099 40.1143 34.758 39.8191 35.0673C39.2622 35.6516 38.6993 36.2276 38.1302 36.7952C38.0107 36.9315 37.8457 37.0178 37.6673 37.0372C37.4888 37.0567 37.3096 37.0079 37.1645 36.9003C37.06 36.834 36.9591 36.7651 36.8558 36.6975C35.606 35.8824 35.6048 35.8786 34.2467 36.4959C34.1211 36.5668 34.0279 36.685 33.9872 36.8252C33.8642 37.2772 33.7879 37.738 33.6883 38.195C33.5505 38.8273 33.3365 39.0026 32.7042 39.0076C32.4744 39.0245 32.2436 39.022 32.0142 39.0001C31.6648 38.9275 31.3167 38.8298 30.9477 38.7397ZM40.5091 27.8528C40.0097 27.7413 39.5337 27.6224 39.0515 27.531C38.6099 27.4471 38.3725 27.1979 38.2298 26.7609C38.0396 26.1697 37.806 25.5938 37.5311 25.0381C37.3281 24.6299 37.2851 24.2868 37.5618 23.9112C37.691 23.7372 37.7955 23.5443 37.9112 23.3603C38.4106 22.5665 38.4032 22.5727 37.7255 21.9066C37.552 21.7363 37.4265 21.695 37.2187 21.8452C36.8816 22.0882 36.5162 22.291 36.1767 22.5326C35.8163 22.7831 35.4879 22.753 35.1041 22.5589C34.5579 22.2797 33.9927 22.0408 33.4128 21.844C32.9663 21.6937 32.7104 21.4483 32.6317 20.975C32.5529 20.5018 32.4312 20.0059 32.3488 19.6203L30.9723 19.2447V24.0026C31.2552 24.0026 31.5135 24.0026 31.7719 24.0026C32.7537 24.0257 33.7003 24.3793 34.4637 25.0082C35.2271 25.6371 35.7642 26.5058 35.991 27.4784C36.2096 28.4453 36.1088 29.4586 35.704 30.3612C35.2992 31.2637 34.6132 32.0052 33.7523 32.4705C33.2332 32.7472 32.8174 32.6683 32.5948 32.2513C32.3721 31.8344 32.5284 31.4437 33.0536 31.1533C33.6608 30.8354 34.1357 30.3062 34.3919 29.662C34.863 28.475 34.6711 27.3782 33.8211 26.4492C33.0536 25.6115 32.0867 25.3361 30.9784 25.5927V37.7455L32.345 37.3924C32.4422 36.9529 32.5689 36.4383 32.6649 35.92C32.7387 35.5143 32.9736 35.3089 33.3439 35.1862C33.8236 35.026 34.3427 34.907 34.7499 34.6278C35.4252 34.1658 35.9603 34.2685 36.5864 34.7205C37.5311 35.4003 37.5544 35.3665 38.3085 34.47C38.3295 34.4306 38.3453 34.3885 38.3553 34.3448C38.0871 33.9191 37.8128 33.4684 37.525 33.0314C37.3171 32.7146 37.3134 32.4141 37.4721 32.0635C37.7599 31.43 38.0232 30.7814 38.2655 30.1278C38.3885 29.7885 38.5767 29.5719 38.9322 29.5018C39.455 29.3916 39.9741 29.2626 40.5055 29.1387L40.5091 27.8528Z" fill="#E33E5D"/>
<path d="M10.2995 28.4987C7.56982 28.4938 4.95333 27.388 3.02293 25.4235C1.09252 23.4591 0.00552789 20.796 0 18.0175C0 15.2281 1.08862 12.5529 3.02638 10.5805C4.96414 8.60809 7.5923 7.5 10.3327 7.5C13.0644 7.50927 15.6813 8.61922 17.6112 10.5871C19.541 12.555 20.6268 15.2207 20.631 18.0013C20.6248 23.8297 15.9173 28.5626 10.2995 28.4987ZM17.0711 23.7671C18.5757 21.9558 19.313 19.611 19.1214 17.2471C18.9298 14.8832 17.8248 12.6931 16.0489 11.1573C12.2996 7.87688 6.57726 8.41277 3.47129 12.3055C0.291526 16.2884 1.35803 21.437 3.57956 23.7133C3.61523 23.6619 3.65338 23.6131 3.68536 23.5605C4.73339 21.8639 6.24883 21.0163 8.21081 21.0013C9.63771 20.9912 11.0658 20.9587 12.4903 21.0175C13.1767 21.0491 13.8546 21.185 14.5015 21.4207C15.6368 21.8364 16.4598 22.6765 17.0711 23.7671ZM15.9161 24.8852C15.6732 24.199 15.2311 23.604 14.6486 23.1792C14.066 22.7543 13.3704 22.5197 12.6539 22.5063C11.1052 22.4837 9.55654 22.4737 8.00909 22.5063C6.69044 22.5363 5.67194 23.1573 4.96833 24.303C4.86521 24.4934 4.7724 24.6895 4.69033 24.8902C8.07552 27.775 13.1484 27.422 15.9161 24.8852Z" fill="#E33E5D"/>
<path d="M30.9686 7.5C32.3943 7.5 33.82 7.5 35.2469 7.5C36.9899 7.50626 38.3073 8.79215 38.3122 10.4862C38.3171 12.1803 37.0034 13.4912 35.2702 13.4912C32.3869 13.4979 29.504 13.4979 26.6215 13.4912C24.8895 13.4912 23.5733 12.1765 23.5795 10.4862C23.5856 8.79591 24.9031 7.50626 26.6448 7.5C28.0853 7.5 29.5269 7.5 30.9686 7.5ZM30.9686 9.0025H26.7334C25.7223 9.0025 25.047 9.61352 25.0544 10.5138C25.0617 11.414 25.7309 12.0013 26.7113 12.0013C29.5356 12.0013 32.359 12.0013 35.1816 12.0013C36.1657 12.0013 36.8336 11.394 36.8398 10.5125C36.8459 9.63105 36.1694 9.01002 35.1583 9.0025H30.9686Z" fill="#E33E5D"/>
<path d="M19.2078 0.00245878H27.0299C29.3892 0.00245878 30.9416 1.58885 30.9453 3.99537C30.9453 4.40104 30.9563 4.80797 30.9453 5.21364C30.9293 5.68818 30.6205 6.00371 30.2072 5.99745C29.7939 5.99119 29.495 5.67566 29.4827 5.19611C29.4704 4.71656 29.4827 4.22825 29.4765 3.74369C29.4507 2.49161 28.5146 1.50997 27.2808 1.50747C21.8685 1.49745 16.4536 1.49745 11.0363 1.50747C9.80625 1.50747 8.87387 2.49537 8.8505 3.75371C8.84189 4.22199 8.8505 4.69027 8.8505 5.15855C8.84066 5.67191 8.5479 5.9987 8.11245 5.99745C7.677 5.9962 7.38178 5.67065 7.3744 5.1573C7.3744 4.51748 7.32887 3.8689 7.41866 3.24035C7.69174 1.31715 9.19859 0.0124779 11.1089 0.0049654C13.8077 -0.00505129 16.5078 0.00245878 19.2078 0.00245878Z" fill="#E33E5D"/>
<path d="M19.1561 31.4988H25.4652C25.603 31.49 25.7413 31.4938 25.8785 31.5101C26.2746 31.5852 26.5144 31.8344 26.5144 32.2475C26.5144 32.6607 26.2684 32.9099 25.8785 32.9863C25.7409 33.0026 25.6022 33.0064 25.4639 32.9975H12.8482C12.71 33.0064 12.5712 33.0026 12.4337 32.9863C12.0388 32.9099 11.7977 32.6632 11.7977 32.2475C11.7977 31.8318 12.0376 31.5852 12.4349 31.5101C12.5721 31.4937 12.7104 31.4899 12.8482 31.4988H19.1561Z" fill="#E33E5D"/>
<path d="M17.6751 38.9975C16.0022 38.9975 14.3293 38.9975 12.6564 38.9975C12.104 38.9975 11.7584 38.6644 11.7953 38.1961C11.8285 37.7629 12.1459 37.5025 12.6736 37.5012C14.0549 37.5012 15.4351 37.5012 16.8165 37.5012C18.7846 37.5012 20.7495 37.5012 22.7111 37.5012C23.2634 37.5012 23.6103 37.8355 23.5721 38.3038C23.5401 38.7358 23.2203 38.9962 22.6951 38.9975C21.0221 39 19.3492 38.9975 17.6751 38.9975Z" fill="#E33E5D"/>
<path d="M15.472 35.9974C14.5519 35.9974 13.6269 35.9974 12.7104 35.9974C12.1286 35.9974 11.7928 35.7169 11.7916 35.2461C11.7903 34.7753 12.1286 34.4949 12.7092 34.4949C14.5502 34.4949 16.3921 34.4949 18.2347 34.4949C18.8141 34.4949 19.1524 34.7766 19.1524 35.2461C19.1524 35.7157 18.8141 35.9974 18.2347 35.9974C17.3146 35.9999 16.3933 35.9974 15.472 35.9974Z" fill="#E33E5D"/>
<path d="M19.1561 4.50113C18.466 4.50113 17.776 4.50113 17.0847 4.50113C16.5422 4.50113 16.2138 4.20815 16.2125 3.74988C16.2113 3.29162 16.5422 2.99863 17.0834 2.99863C18.4652 2.99362 19.8466 2.99362 21.2276 2.99863C21.7688 2.99863 22.0997 3.29287 22.0997 3.74988C22.0997 4.20689 21.7688 4.50113 21.2288 4.50113C20.5375 4.50614 19.8474 4.50113 19.1561 4.50113Z" fill="#E33E5D"/>
<path d="M2.94733 32.1762C2.94733 31.7029 3.261 31.3498 3.68538 31.3523C3.87756 31.3565 4.06071 31.436 4.19663 31.5744C4.33255 31.7127 4.41073 31.8992 4.41481 32.0948C4.41815 32.3057 4.33992 32.5094 4.19702 32.6621C4.05413 32.8149 3.85801 32.9043 3.65093 32.9112C3.22655 32.9099 2.95102 32.6219 2.94733 32.1762Z" fill="#E33E5D"/>
<path d="M2.94729 35.1473C2.9559 34.6765 3.29045 34.331 3.71729 34.3523C3.90903 34.3642 4.08884 34.4511 4.21906 34.5949C4.34928 34.7386 4.41985 34.928 4.416 35.1235C4.41308 35.3344 4.32821 35.5355 4.17999 35.6829C4.03176 35.8303 3.83222 35.9119 3.62504 35.9098C3.20066 35.8936 2.93868 35.5981 2.94729 35.1473Z" fill="#E33E5D"/>
<path d="M2.94729 38.1449C2.9559 37.6754 3.29169 37.3298 3.71852 37.3524C3.91082 37.3631 4.09139 37.4498 4.2217 37.5942C4.35201 37.7385 4.42175 37.929 4.416 38.1249C4.41276 38.336 4.32742 38.5372 4.17869 38.6843C4.02997 38.8315 3.83 38.9126 3.6226 38.91C3.19946 38.8924 2.93868 38.5969 2.94729 38.1449Z" fill="#E33E5D"/>
<path d="M10.3339 12.0076C11.3118 12.0149 12.2469 12.4169 12.9337 13.1254C13.6205 13.834 14.003 14.791 13.9971 15.7864C13.9871 16.7822 13.5889 17.7332 12.8902 18.4303C12.1916 19.1274 11.2495 19.5135 10.2712 19.5038C9.30176 19.4887 8.37699 19.0865 7.69614 18.3839C7.01529 17.6813 6.63291 16.7345 6.63141 15.7476C6.63564 14.752 7.02798 13.7989 7.72224 13.0976C8.4165 12.3963 9.35586 12.0043 10.3339 12.0076ZM12.5235 15.7413C12.5183 15.1497 12.2848 14.5838 11.8733 14.1659C11.4618 13.7479 10.9054 13.5115 10.3241 13.5076C10.0327 13.5076 9.74419 13.5661 9.47508 13.6799C9.20596 13.7936 8.96156 13.9603 8.75586 14.1704C8.55016 14.3804 8.38721 14.6298 8.27638 14.9041C8.16554 15.1784 8.109 15.4723 8.10997 15.7689C8.11481 16.3607 8.34817 16.9269 8.7597 17.3451C9.17123 17.7633 9.72786 17.9999 10.3093 18.0038C10.601 18.003 10.8897 17.9437 11.1588 17.8293C11.428 17.7149 11.6724 17.5476 11.878 17.337C12.0836 17.1264 12.2465 16.8767 12.3572 16.602C12.468 16.3274 12.5245 16.0332 12.5235 15.7363V15.7413Z" fill="#E33E5D"/>
</g>
<defs>
<clipPath id="clip0_27_93">
<rect width="42" height="45" fill="white"/>
</clipPath>
</defs>
</svg>
