<svg width="60" height="74" viewBox="0 0 60 74" fill="none" xmlns="http://www.w3.org/2000/svg">
<g clip-path="url(#clip0_325_268)">
<path d="M58.5586 24.8979C52.4264 28.6514 49.8897 34.0376 50.5056 40.8983C51.0582 47.079 54.1243 51.5731 60.0001 54.1754C59.7238 54.9261 59.4708 55.7037 59.1512 56.451C56.4838 62.7075 52.2358 68.1444 46.8336 72.2159C43.7142 74.6094 40.5749 74.4612 37.5588 72.5761C33.5872 70.0917 29.812 70.0917 25.8337 72.3741C21.4826 74.8719 17.3579 74.3097 13.4829 71.2228C4.56759 64.1264 0.366287 54.6366 0.0200627 43.376C-0.12741 39.2969 0.176311 35.214 0.925573 31.2031C2.20061 24.6387 9.60449 18.6734 16.2061 18.1415C20.0358 17.816 23.8811 18.5478 27.3318 20.259C29.4591 21.3026 31.3833 21.2689 33.5006 20.2859C37.9501 18.2129 42.8856 17.4442 47.7458 18.0675C52.4464 18.6431 55.5058 21.5348 58.5586 24.8979Z" fill="#E33C5C"/>
<path d="M44.9358 0.0167986C45.4551 9.96785 38.0013 18.1145 28.064 18.4276C28.0374 8.39238 35.7176 -0.441031 44.9358 0.0167986Z" fill="#E33C5C"/>
</g>
<defs>
<clipPath id="clip0_325_268">
<rect width="60" height="74" fill="white"/>
</clipPath>
</defs>
</svg>
