<svg width="447" height="441" viewBox="0 0 447 441" fill="none" xmlns="http://www.w3.org/2000/svg">
<path d="M1 437.349L417.82 434.582" stroke="#263238" stroke-linecap="round" stroke-linejoin="round"/>
<path d="M267.507 73.1372V55.7826L280.506 54.6772C281.266 51.9631 282.342 49.3475 283.712 46.8842L275.322 36.9358L287.592 24.666L297.54 33.0559C299.983 31.6808 302.58 30.601 305.278 29.8392L306.383 16.8398H323.881L324.987 29.8392C327.684 30.601 330.282 31.6808 332.724 33.0559L342.673 24.666L354.943 36.9358L346.553 46.8842C347.923 49.3475 348.999 51.9631 349.758 54.6772L362.758 55.7826V73.1372L349.758 74.2426C348.995 76.9377 347.919 79.5345 346.553 81.9803L354.943 91.9287L342.673 104.199L332.724 95.8086C330.282 97.1837 327.684 98.2635 324.987 99.0253L323.881 112.025H306.527L305.421 99.0253C302.706 98.2645 300.09 97.1848 297.628 95.8086L287.68 104.199L275.41 91.9287L283.8 81.9803C282.434 79.5345 281.358 76.9377 280.594 74.2426L267.507 73.1372ZM315.149 84.6221C319.137 84.6221 323.035 83.4396 326.35 81.2242C329.666 79.0087 332.25 75.8598 333.776 72.1756C335.302 68.4915 335.702 64.4375 334.924 60.5264C334.146 56.6153 332.225 53.0228 329.406 50.203C326.586 47.3833 322.993 45.463 319.082 44.685C315.171 43.9071 311.117 44.3064 307.433 45.8324C303.749 47.3584 300.6 49.9427 298.385 53.2583C296.169 56.574 294.987 60.4722 294.987 64.4599C294.988 67.1109 295.512 69.7357 296.529 72.1841C297.545 74.6326 299.034 76.8566 300.911 78.7292C302.787 80.6017 305.015 82.086 307.465 83.0971C309.916 84.1083 312.542 84.6265 315.193 84.6221H315.149Z" stroke="#263238" stroke-linecap="round" stroke-linejoin="round"/>
<path d="M23.1323 149.894V141.581L29.3667 141.04C29.7338 139.739 30.2493 138.486 30.9032 137.303L26.8796 132.517L32.7381 126.636L37.5134 130.66C38.6935 130.001 39.9477 129.486 41.2496 129.124L41.7912 122.889H50.1148L50.6454 129.124C51.948 129.484 53.2025 130 54.3816 130.66L59.1679 126.636L65.0486 132.517L61.025 137.303C61.687 138.483 62.2065 139.737 62.5725 141.04L68.8069 141.581V149.894L62.5725 150.435C62.2065 151.738 61.687 152.992 61.025 154.172L65.0817 158.914L59.2011 164.794L54.4147 160.771C53.2356 161.431 51.9812 161.947 50.6786 162.307L50.148 168.542H41.8244L41.2828 162.307C39.9808 161.945 38.7266 161.429 37.5466 160.771L32.7713 164.794L26.8796 158.914L30.9032 154.127C30.2493 152.945 29.7338 151.691 29.3667 150.391L23.1323 149.894ZM45.9807 155.421C47.8941 155.423 49.7652 154.857 51.3572 153.796C52.9492 152.735 54.1907 151.225 54.9244 149.458C55.6582 147.69 55.8513 145.745 55.4793 143.868C55.1074 141.991 54.1871 140.267 52.8349 138.913C51.4826 137.559 49.7592 136.637 47.8827 136.263C46.0062 135.889 44.0609 136.08 42.2929 136.812C40.5249 137.543 39.0137 138.783 37.9504 140.374C36.8871 141.965 36.3196 143.835 36.3196 145.749C36.321 147.019 36.5726 148.276 37.0601 149.449C37.5475 150.622 38.2611 151.687 39.1603 152.585C40.0595 153.482 41.1265 154.193 42.3006 154.678C43.4746 155.162 44.7326 155.411 46.0028 155.41L45.9807 155.421Z" stroke="#263238" stroke-linecap="round" stroke-linejoin="round"/>
<path d="M72.7641 38.7123C71.8815 34.892 72.0038 30.9082 73.1191 27.1493C74.2343 23.3903 76.3044 19.9844 79.1276 17.2636C81.9509 14.5428 85.4309 12.5999 89.2285 11.6243C93.0261 10.6486 97.0116 10.6736 100.797 11.6966C103.103 7.60753 106.668 4.3731 110.962 2.4755C115.256 0.577899 120.048 0.118731 124.624 1.16644C129.201 2.21415 133.316 4.71263 136.356 8.28946C139.397 11.8663 141.2 16.3299 141.497 21.015C143.903 20.5549 146.378 20.5971 148.767 21.1389C151.156 21.6808 153.407 22.7106 155.38 24.1637C157.352 25.6169 159.002 27.462 160.227 29.5832C161.453 31.7045 162.226 34.0561 162.499 36.4905C164.963 36.7497 167.242 37.9188 168.889 39.7692C170.536 41.6196 171.434 44.0181 171.406 46.4954C171.379 48.9726 170.428 51.3505 168.74 53.1636C167.051 54.9768 164.747 56.0948 162.278 56.299H79.0648C77.0272 56.284 75.0433 55.6437 73.3813 54.4646C71.7194 53.2854 70.4596 51.6244 69.7724 49.7061C69.0851 47.7878 69.0035 45.7047 69.5386 43.7385C70.0736 41.7723 71.1996 40.0178 72.7641 38.7123Z" stroke="#263238" stroke-linecap="round" stroke-linejoin="round"/>
<path d="M118.494 48.6938V71.6306" stroke="#263238" stroke-linecap="round" stroke-linejoin="round"/>
<path d="M118.494 34.9429V44.1065" stroke="#263238" stroke-linecap="round" stroke-linejoin="round"/>
<path d="M118.494 26.3652V31.2732" stroke="#263238" stroke-linecap="round" stroke-linejoin="round"/>
<path d="M122.827 68.9551L118.494 74.3162L114.161 68.9551" stroke="#263238" stroke-linecap="round" stroke-linejoin="round"/>
<path d="M309.846 369.405C308.966 365.584 309.09 361.601 310.207 357.842C311.324 354.084 313.395 350.678 316.219 347.958C319.043 345.238 322.523 343.295 326.321 342.319C330.118 341.343 334.104 341.368 337.89 342.39C340.193 338.298 343.759 335.061 348.054 333.161C352.349 331.262 357.142 330.803 361.72 331.853C366.297 332.902 370.412 335.404 373.451 338.985C376.489 342.565 378.288 347.032 378.579 351.719C379.672 351.51 380.782 351.403 381.895 351.399C386.268 351.395 390.489 353.003 393.751 355.915C397.014 358.827 399.089 362.838 399.581 367.184C402.045 367.442 404.324 368.61 405.972 370.459C407.62 372.308 408.519 374.706 408.493 377.184C408.467 379.661 407.517 382.039 405.83 383.853C404.143 385.667 401.84 386.786 399.371 386.992H316.08C314.045 386.97 312.066 386.325 310.409 385.144C308.753 383.962 307.498 382.301 306.815 380.384C306.132 378.467 306.053 376.387 306.589 374.424C307.125 372.461 308.25 370.709 309.813 369.405H309.846Z" stroke="#263238" stroke-linecap="round" stroke-linejoin="round"/>
<path d="M355.609 382.67V359.744" stroke="#263238" stroke-linecap="round" stroke-linejoin="round"/>
<path d="M355.609 396.432V387.257" stroke="#263238" stroke-linecap="round" stroke-linejoin="round"/>
<path d="M355.609 405.009V400.102" stroke="#263238" stroke-linecap="round" stroke-linejoin="round"/>
<path d="M351.424 356.95L355.757 351.589L360.09 356.95" stroke="#263238" stroke-linecap="round" stroke-linejoin="round"/>
<path d="M120.41 81.3911H398.36C399.603 81.3911 400.795 81.8849 401.674 82.7639C402.553 83.6428 403.047 84.8349 403.047 86.0779V99.1878H115.724V86.0779C115.724 84.8349 116.217 83.6428 117.096 82.7639C117.975 81.8849 119.167 81.3911 120.41 81.3911Z" fill="#004998" stroke="#263238" stroke-linecap="round" stroke-linejoin="round"/>
<path d="M406.973 103.241H116.577V307.593H406.973V103.241Z" fill="white" stroke="#263238" stroke-linecap="round" stroke-linejoin="round"/>
<path d="M165.673 91.3463C165.673 92.2208 165.414 93.0757 164.928 93.8028C164.442 94.5299 163.752 95.0967 162.944 95.4313C162.136 95.766 161.247 95.8535 160.389 95.6829C159.532 95.5123 158.744 95.0912 158.125 94.4728C157.507 93.8545 157.086 93.0666 156.915 92.2089C156.745 91.3512 156.832 90.4622 157.167 89.6543C157.502 88.8464 158.068 88.1558 158.795 87.67C159.523 87.1841 160.377 86.9248 161.252 86.9248C162.425 86.9248 163.549 87.3906 164.378 88.2198C165.208 89.049 165.673 90.1737 165.673 91.3463Z" fill="white" stroke="#263238" stroke-linecap="round" stroke-linejoin="round"/>
<path d="M150.021 91.3463C150.021 92.2208 149.762 93.0757 149.276 93.8028C148.79 94.5299 148.1 95.0967 147.292 95.4313C146.484 95.766 145.595 95.8535 144.737 95.6829C143.879 95.5123 143.091 95.0912 142.473 94.4728C141.855 93.8545 141.434 93.0666 141.263 92.2089C141.092 91.3512 141.18 90.4622 141.515 89.6543C141.849 88.8464 142.416 88.1558 143.143 87.67C143.87 87.1841 144.725 86.9248 145.6 86.9248C146.772 86.9248 147.897 87.3906 148.726 88.2198C149.555 89.049 150.021 90.1737 150.021 91.3463Z" fill="white" stroke="#263238" stroke-linecap="round" stroke-linejoin="round"/>
<path d="M134.336 91.3463C134.336 92.2208 134.076 93.0757 133.59 93.8028C133.104 94.5299 132.414 95.0967 131.606 95.4313C130.798 95.766 129.909 95.8535 129.051 95.6829C128.194 95.5123 127.406 95.0912 126.787 94.4728C126.169 93.8545 125.748 93.0666 125.577 92.2089C125.407 91.3512 125.494 90.4622 125.829 89.6543C126.164 88.8464 126.73 88.1558 127.457 87.67C128.185 87.1841 129.039 86.9248 129.914 86.9248C131.087 86.9248 132.211 87.3906 133.04 88.2198C133.87 89.049 134.336 90.1737 134.336 91.3463Z" fill="white" stroke="#263238" stroke-linecap="round" stroke-linejoin="round"/>
<path d="M398.174 112.007H386.678" stroke="#263238" stroke-width="2" stroke-linecap="round" stroke-linejoin="round"/>
<path d="M398.174 116.671H386.678" stroke="#263238" stroke-width="2" stroke-linecap="round" stroke-linejoin="round"/>
<path d="M398.174 121.336H386.678" stroke="#263238" stroke-width="2" stroke-linecap="round" stroke-linejoin="round"/>
<path d="M136.683 232.583H223.71" stroke="#263238" stroke-width="2" stroke-linecap="round" stroke-linejoin="round"/>
<path d="M136.683 239.447H223.71" stroke="#263238" stroke-width="2" stroke-linecap="round" stroke-linejoin="round"/>
<path d="M136.683 246.433H205.306" stroke="#263238" stroke-width="2" stroke-linecap="round" stroke-linejoin="round"/>
<path d="M321.228 105.541V106.093" stroke="#263238" stroke-linecap="round" stroke-linejoin="round"/>
<path d="M321.228 109.409V302.001" stroke="#263238" stroke-linecap="round" stroke-linejoin="round" stroke-dasharray="1 3"/>
<path d="M321.228 303.659V304.211" stroke="#263238" stroke-linecap="round" stroke-linejoin="round"/>
<path d="M120.07 261.764H120.622" stroke="#263238" stroke-linecap="round" stroke-linejoin="round"/>
<path d="M123.927 261.764H400.318" stroke="#263238" stroke-linecap="round" stroke-linejoin="round" stroke-dasharray="1 2.99"/>
<path d="M401.976 261.764H402.529" stroke="#263238" stroke-linecap="round" stroke-linejoin="round"/>
<path d="M323.14 259.853H319.326V263.667H323.14V259.853Z" fill="white" stroke="#263238" stroke-linecap="round" stroke-linejoin="round"/>
<path d="M306.007 225.132H255.093" stroke="#263238" stroke-linecap="round" stroke-linejoin="round"/>
<path d="M306.99 248.677C306.99 248.677 306.99 225.01 280.55 225.01C254.109 225.01 254.064 248.677 254.064 248.677" stroke="#263238" stroke-linecap="round" stroke-linejoin="round"/>
<path d="M306.99 250.909C308.223 250.909 309.223 249.909 309.223 248.676C309.223 247.443 308.223 246.443 306.99 246.443C305.757 246.443 304.757 247.443 304.757 248.676C304.757 249.909 305.757 250.909 306.99 250.909Z" fill="#E43C5D" stroke="#263238" stroke-linecap="round" stroke-linejoin="round"/>
<path d="M251.854 248.677C251.854 248.239 251.983 247.812 252.226 247.448C252.469 247.085 252.814 246.801 253.218 246.634C253.622 246.467 254.067 246.423 254.496 246.508C254.924 246.594 255.318 246.804 255.628 247.113C255.937 247.423 256.147 247.816 256.233 248.245C256.318 248.674 256.274 249.119 256.107 249.523C255.939 249.927 255.656 250.272 255.293 250.515C254.929 250.758 254.502 250.887 254.064 250.887C253.478 250.887 252.916 250.654 252.501 250.24C252.086 249.825 251.854 249.263 251.854 248.677Z" fill="#E43C5D" stroke="#263238" stroke-linecap="round" stroke-linejoin="round"/>
<path d="M305.034 226.967H308.947V223.054H305.034V226.967Z" fill="#E43C5D" stroke="#263238" stroke-linecap="round" stroke-linejoin="round"/>
<path d="M278.593 226.967H282.506V223.054H278.593V226.967Z" fill="#E43C5D" stroke="#263238" stroke-linecap="round" stroke-linejoin="round"/>
<path d="M252.152 226.967H256.065V223.054H252.152V226.967Z" fill="#E43C5D" stroke="#263238" stroke-linecap="round" stroke-linejoin="round"/>
<path d="M168.319 153.978V146.152L162.472 145.655C162.125 144.432 161.639 143.252 161.024 142.14L164.804 137.652L159.277 132.125L154.778 135.905C153.67 135.282 152.489 134.796 151.263 134.457L150.755 128.599H142.951L142.442 134.457C141.219 134.794 140.043 135.281 138.938 135.905L134.439 132.125L128.912 137.652L132.693 142.14C132.073 143.25 131.587 144.43 131.245 145.655L125.386 146.152V153.978L131.245 154.476C131.589 155.7 132.075 156.879 132.693 157.991L128.912 162.479L134.439 168.006L138.938 164.225C140.036 164.848 141.205 165.334 142.42 165.673L142.929 171.532H150.744L151.252 165.673C152.474 165.334 153.651 164.848 154.756 164.225L159.255 168.006L164.782 162.479L161.002 157.991C161.615 156.877 162.101 155.698 162.45 154.476L168.319 153.978ZM146.842 159.152C145.045 159.152 143.288 158.619 141.794 157.62C140.299 156.622 139.135 155.203 138.447 153.542C137.759 151.882 137.579 150.055 137.93 148.293C138.281 146.53 139.146 144.911 140.417 143.64C141.688 142.37 143.307 141.504 145.069 141.154C146.832 140.803 148.659 140.983 150.319 141.671C151.979 142.358 153.398 143.523 154.397 145.017C155.395 146.511 155.928 148.268 155.928 150.065C155.928 152.475 154.971 154.786 153.267 156.49C151.563 158.194 149.252 159.152 146.842 159.152Z" fill="#004998" stroke="#263238" stroke-linecap="round" stroke-linejoin="round"/>
<path d="M194.893 171.509V166.159L190.881 165.806C190.65 164.969 190.32 164.164 189.897 163.407L192.483 160.334L188.692 156.553L185.619 159.14C184.86 158.718 184.055 158.385 183.22 158.145L182.878 154.122H177.528L177.174 158.134C176.339 158.374 175.534 158.707 174.775 159.129L171.702 156.542L167.911 160.323L170.508 163.396C170.078 164.15 169.743 164.956 169.514 165.794L165.501 166.148V171.498L169.514 171.841C169.741 172.68 170.076 173.486 170.508 174.24L167.911 177.335L171.702 181.115L174.775 178.529C175.534 178.95 176.339 179.284 177.174 179.523L177.528 183.525H182.878L183.22 179.523C184.055 179.284 184.86 178.95 185.619 178.529L188.692 181.115L192.483 177.335L189.952 174.251C190.377 173.494 190.707 172.689 190.936 171.852L194.893 171.509ZM180.203 175.047C178.971 175.049 177.766 174.685 176.741 174.002C175.716 173.319 174.916 172.348 174.444 171.21C173.972 170.072 173.848 168.82 174.087 167.612C174.327 166.404 174.92 165.294 175.791 164.423C176.662 163.552 177.772 162.959 178.98 162.719C180.188 162.479 181.441 162.603 182.578 163.076C183.716 163.548 184.688 164.348 185.371 165.373C186.054 166.398 186.417 167.602 186.415 168.834C186.412 170.481 185.757 172.059 184.592 173.224C183.428 174.388 181.849 175.044 180.203 175.047Z" fill="#E43C5D" stroke="#263238" stroke-linecap="round" stroke-linejoin="round"/>
<path d="M332.149 274.764H374.96" stroke="#263238" stroke-width="2" stroke-linecap="round" stroke-linejoin="round"/>
<path d="M332.149 281.629H374.96" stroke="#263238" stroke-width="2" stroke-linecap="round" stroke-linejoin="round"/>
<path d="M332.149 288.614H356.556" stroke="#263238" stroke-width="2" stroke-linecap="round" stroke-linejoin="round"/>
<path d="M275.741 291.466H253.202C251.736 291.466 250.331 290.884 249.294 289.848C248.258 288.811 247.675 287.405 247.675 285.94C247.675 284.474 248.258 283.068 249.294 282.031C250.331 280.995 251.736 280.413 253.202 280.413H275.741C277.207 280.413 278.613 280.995 279.649 282.031C280.686 283.068 281.268 284.474 281.268 285.94C281.268 287.405 280.686 288.811 279.649 289.848C278.613 290.884 277.207 291.466 275.741 291.466Z" fill="#004998" stroke="#263238" stroke-linecap="round" stroke-linejoin="round"/>
<path d="M317.746 291.466H295.207C293.741 291.466 292.335 290.884 291.299 289.848C290.262 288.811 289.68 287.405 289.68 285.94C289.68 284.474 290.262 283.068 291.299 282.031C292.335 280.995 293.741 280.413 295.207 280.413H317.746C319.212 280.413 320.617 280.995 321.654 282.031C322.69 283.068 323.273 284.474 323.273 285.94C323.273 287.405 322.69 288.811 321.654 289.848C320.617 290.884 319.212 291.466 317.746 291.466Z" fill="#E43C5D" stroke="#263238" stroke-linecap="round" stroke-linejoin="round"/>
<path d="M383.074 172.881H335.277V220.678H383.074V172.881Z" fill="white" stroke="#263238" stroke-linecap="round" stroke-linejoin="round"/>
<path d="M335.277 172.881L383.074 220.678" stroke="#263238" stroke-linecap="round" stroke-linejoin="round"/>
<path d="M383.074 172.881L335.277 220.678" stroke="#263238" stroke-linecap="round" stroke-linejoin="round"/>
<path d="M354.025 118.617V129.77L349.106 134.689H337.953V118.617H354.025Z" fill="white" stroke="#263238" stroke-linecap="round" stroke-linejoin="round"/>
<path d="M354.025 129.771L349.106 134.69V129.771H354.025Z" fill="white" stroke="#263238" stroke-linecap="round" stroke-linejoin="round"/>
<path d="M183.098 204.871V216.024L178.179 220.954H167.026V204.871H183.098Z" fill="white" stroke="#263238" stroke-linecap="round" stroke-linejoin="round"/>
<path d="M183.098 216.023L178.179 220.953V216.023H183.098Z" fill="white" stroke="#263238" stroke-linecap="round" stroke-linejoin="round"/>
<path d="M122.369 273.593V284.746L117.45 289.665H106.285V273.593H122.369Z" fill="white" stroke="#263238" stroke-linecap="round" stroke-linejoin="round"/>
<path d="M122.369 284.746L117.45 289.665V284.746H122.369Z" fill="white" stroke="#263238" stroke-linecap="round" stroke-linejoin="round"/>
<path d="M445.695 136.722H386.38V173.896H445.695V136.722Z" fill="#004998" stroke="#004998" stroke-linecap="round" stroke-linejoin="round"/>
<path d="M445.695 136.722H386.38V142.37H445.695V136.722Z" fill="#E43C5D" stroke="#263238" stroke-linecap="round" stroke-linejoin="round"/>
<path d="M392.427 147.134H407.592" stroke="white" stroke-linecap="round" stroke-linejoin="round"/>
<path d="M400.009 151.367H426.251" stroke="white" stroke-linecap="round" stroke-linejoin="round"/>
<path d="M396.66 155.313H404.386" stroke="white" stroke-linecap="round" stroke-linejoin="round"/>
<path d="M400.009 159.968H417.684" stroke="white" stroke-linecap="round" stroke-linejoin="round"/>
<path d="M392.427 164.189H407.592" stroke="white" stroke-linecap="round" stroke-linejoin="round"/>
<path d="M222.617 286.292H163.302V323.466H222.617V286.292Z" fill="#004998" stroke="#263238" stroke-linecap="round" stroke-linejoin="round"/>
<path d="M222.617 286.292H163.302V291.94H222.617V286.292Z" fill="#E43C5D" stroke="#263238" stroke-linecap="round" stroke-linejoin="round"/>
<path d="M169.359 296.715H184.514" stroke="white" stroke-linecap="round" stroke-linejoin="round"/>
<path d="M176.931 300.938H203.173" stroke="white" stroke-linecap="round" stroke-linejoin="round"/>
<path d="M173.582 304.884H181.309" stroke="white" stroke-linecap="round" stroke-linejoin="round"/>
<path d="M176.931 309.537H194.607" stroke="white" stroke-linecap="round" stroke-linejoin="round"/>
<path d="M169.359 313.771H184.514" stroke="white" stroke-linecap="round" stroke-linejoin="round"/>
<path d="M249.716 26.061H195.221C194.583 26.0639 193.971 26.3188 193.52 26.77C193.069 27.2213 192.814 27.8326 192.811 28.4708V53.8947C192.814 54.5318 193.069 55.1419 193.521 55.5915C193.972 56.041 194.584 56.2934 195.221 56.2933H219.65L222.435 66.2418L225.232 56.2933H249.716C250.354 56.2934 250.965 56.041 251.416 55.5915C251.868 55.1419 252.123 54.5318 252.126 53.8947V28.4708C252.123 27.8326 251.868 27.2213 251.417 26.77C250.966 26.3188 250.355 26.0639 249.716 26.061Z" fill="#E43C5D" stroke="#263238" stroke-linecap="round" stroke-linejoin="round"/>
<path d="M201.853 33.334H243.029" stroke="white" stroke-width="2" stroke-linecap="round" stroke-linejoin="round"/>
<path d="M201.853 38.5513H243.029" stroke="white" stroke-width="2" stroke-linecap="round" stroke-linejoin="round"/>
<path d="M201.853 43.769H243.029" stroke="white" stroke-width="2" stroke-linecap="round" stroke-linejoin="round"/>
<path d="M201.853 48.9868H232.881" stroke="white" stroke-width="2" stroke-linecap="round" stroke-linejoin="round"/>
<path d="M197.257 217.444C202.471 217.888 209.084 211.659 209.084 211.659C209.21 211.79 209.366 211.89 209.538 211.95C209.71 212.01 209.893 212.03 210.074 212.007C210.255 211.984 210.428 211.919 210.579 211.818C210.731 211.716 210.856 211.581 210.946 211.423C211.794 210.2 215.47 207.372 215.677 204.928C215.884 202.484 211.547 198.522 211.547 198.522C214.888 199.429 215.243 197.468 215.243 197.468C215.243 197.468 209.616 192.826 207.645 192.698C206.876 192.648 203.525 194.58 200.283 197.182C196.893 199.912 190.526 209.52 190.526 209.52C190.526 209.52 168.993 225.161 163.553 229.162C156.368 234.444 147.853 243.817 147.853 243.817C147.853 243.817 119.273 256.707 111.389 263.793L122.052 289.042C122.052 289.042 148.041 271.628 150.632 267.213C153.224 262.798 155.826 265.449 158.428 262.561C161.03 259.673 163.523 256.372 163.523 256.372C168.15 254.138 172.35 251.109 175.931 247.424C182.001 241.185 187.353 231.655 190.713 225.919C192.453 222.78 194.66 219.922 197.257 217.444Z" fill="white" stroke="#263238" stroke-linecap="round" stroke-linejoin="round"/>
<path d="M195.671 213.759C195.671 213.759 203.427 211.877 204.097 206.762C204.393 205.465 204.961 204.246 205.763 203.185C205.763 203.185 212.996 202.83 212.543 199.883L202.885 199.026C199.369 200.376 196.409 202.868 194.478 206.102" fill="white"/>
<path d="M195.671 213.759C195.671 213.759 203.427 211.877 204.097 206.762C204.393 205.465 204.961 204.246 205.763 203.185C205.763 203.185 212.996 202.83 212.543 199.883L202.885 199.026C199.369 200.376 196.409 202.868 194.478 206.102" stroke="#263238" stroke-linecap="round" stroke-linejoin="round"/>
<path d="M209.094 211.66C208.75 211.021 208.635 210.283 208.769 209.57C208.769 209.57 206.64 209.176 206.876 207.294C206.876 207.294 203.723 206.909 205.763 203.184" stroke="#263238" stroke-linecap="round" stroke-linejoin="round"/>
<path d="M206.876 207.295C206.876 207.295 211.124 204.151 211.597 202.712" stroke="#263238" stroke-linecap="round" stroke-linejoin="round"/>
<path d="M208.768 209.571C208.768 209.571 213.292 206.811 213.371 205.205" stroke="#263238" stroke-linecap="round" stroke-linejoin="round"/>
<path d="M207.733 195.398C207.733 195.398 209.172 197.98 211.557 198.523" stroke="#263238" stroke-linecap="round" stroke-linejoin="round"/>
<path d="M208.453 196.404C207.697 196.799 206.983 197.272 206.324 197.814" stroke="#263238" stroke-linecap="round" stroke-linejoin="round"/>
<path d="M43.2701 283.692C54.4219 278.973 65.925 275.131 77.6745 272.201C94.9802 268.151 123.008 264.534 123.008 264.534C123.008 264.534 115.302 343.178 117.332 347.909C119.362 352.639 131.543 368.526 131.543 368.526C131.543 368.526 65.6216 394.228 54.1305 396.416C42.6394 398.604 48.6313 358.72 48.6313 358.72C48.6313 358.72 36.4897 308.025 43.2701 283.692Z" fill="#004998"/>
<path d="M66.9328 275.246C66.9328 275.246 65.3659 278.202 69.4853 279.749C80.1585 283.692 91.5314 280.213 90.3192 276.034C89.856 274.438 87.2148 276.034 87.3626 270.121C87.4353 269.21 87.6794 268.32 88.082 267.499C88.835 265.9 89.7427 264.379 90.7922 262.956C91.9313 261.373 93.1517 259.85 94.4485 258.393C94.4485 258.393 77.5074 247.553 64.9421 258.393C64.9618 258.344 69.6332 260.709 66.9328 275.246Z" fill="white" stroke="#263238" stroke-linecap="round" stroke-linejoin="round"/>
<path d="M45.9412 415.317C52.6132 426.158 86.4658 431.293 104.944 430.81C123.423 430.327 176.591 405.186 180.198 399.825C183.539 394.897 191.749 378.567 179.095 368.702C178.021 367.873 176.88 367.135 175.685 366.495C167.022 361.804 109.409 376.596 109.409 376.596C109.409 376.596 105.841 374.34 104.53 374.507C100.509 375.02 97.6317 378.272 89.511 380.588C83.8246 382.214 68.3027 375.966 58.3883 381.337C57.288 381.925 56.2734 382.661 55.3727 383.525C46.1088 392.374 39.2791 404.447 45.9412 415.317Z" fill="#E43C5D"/>
<mask id="mask0_152_377" style="mask-type:luminance" maskUnits="userSpaceOnUse" x="43" y="365" width="143" height="66">
<path d="M45.9412 415.317C52.6132 426.158 86.4658 431.293 104.944 430.81C123.423 430.327 176.591 405.186 180.198 399.825C183.539 394.897 191.749 378.567 179.095 368.702C178.021 367.873 176.88 367.135 175.685 366.495C167.022 361.804 109.409 376.596 109.409 376.596C109.409 376.596 105.841 374.34 104.53 374.507C100.509 375.02 97.6317 378.272 89.511 380.588C83.8246 382.214 68.3027 375.966 58.3883 381.337C57.288 381.925 56.2734 382.661 55.3727 383.525C46.1088 392.374 39.2791 404.447 45.9412 415.317Z" fill="white"/>
</mask>
<g mask="url(#mask0_152_377)">
<path opacity="0.3" d="M58.388 381.337C68.5487 380.657 77.6056 382.785 83.9326 386.521C91.4324 390.955 126.852 408.015 126.852 408.015C126.773 406.182 124.802 402.486 124.802 402.486C128.133 399.529 136.845 397.213 136.845 397.213C143.596 391.448 170.353 374.251 179.094 368.702C178.021 367.873 176.88 367.135 175.684 366.495C167.022 361.804 109.408 376.596 109.408 376.596C109.408 376.596 105.841 374.34 104.53 374.507C100.509 375.02 97.6313 378.272 89.5106 380.588C83.7946 382.214 68.3023 375.966 58.388 381.337Z" fill="black" fill-opacity="0.7"/>
</g>
<path d="M45.9412 415.317C52.6132 426.158 86.4658 431.293 104.944 430.81C123.423 430.327 176.591 405.186 180.198 399.825C183.539 394.897 191.749 378.567 179.095 368.702C178.021 367.873 176.88 367.135 175.685 366.495C167.022 361.804 109.409 376.596 109.409 376.596C109.409 376.596 105.841 374.34 104.53 374.507C100.509 375.02 97.6317 378.272 89.511 380.588C83.8246 382.214 68.3027 375.966 58.3883 381.337C57.288 381.925 56.2734 382.661 55.3727 383.525C46.1088 392.374 39.2791 404.447 45.9412 415.317Z" stroke="#263238" stroke-linecap="round" stroke-linejoin="round"/>
<path d="M56.3284 425.133L55.4809 428.849C55.4809 428.849 57.7476 435.274 67.7112 436.329C77.6747 437.383 83.578 439.581 88.407 439.867C90.9313 440.066 93.4688 440.026 95.9857 439.749L96.9712 438.29L56.3284 425.133Z" fill="white" stroke="#263238" stroke-linecap="round" stroke-linejoin="round"/>
<path d="M114.188 424.739L96.9217 438.29C88.5997 437.578 80.3311 436.341 72.1655 434.584C63.9857 432.692 56.8407 429.982 56.4564 426.256C55.8552 420.6 61.9063 419.052 69.0907 419.269C70.431 419.269 71.8107 419.407 73.2003 419.545C84.7013 420.777 99.3264 414.43 99.3264 414.43L114.188 424.739Z" fill="#263238"/>
<mask id="mask1_152_377" style="mask-type:luminance" maskUnits="userSpaceOnUse" x="56" y="414" width="59" height="25">
<path d="M114.188 424.739L96.9217 438.29C88.5997 437.578 80.3311 436.341 72.1655 434.584C63.9857 432.692 56.8407 429.982 56.4564 426.256C55.8552 420.6 61.9063 419.052 69.0907 419.269C70.431 419.269 71.8107 419.407 73.2003 419.545C84.7013 420.777 99.3264 414.43 99.3264 414.43L114.188 424.739Z" fill="white"/>
</mask>
<g mask="url(#mask1_152_377)">
<path opacity="0.3" d="M56.4465 426.119C59.7984 427.365 63.0146 428.95 66.0454 430.849C66.0454 430.849 82.0798 439.098 106.728 430.603L114.188 424.739L99.3264 414.42C99.3264 414.42 84.7111 420.777 73.2003 419.535C71.8107 419.387 70.431 419.289 69.0907 419.259C61.9555 419.042 55.9537 420.56 56.4465 426.119Z" fill="black" fill-opacity="0.7"/>
</g>
<path d="M114.188 424.739L96.9217 438.29C88.5997 437.578 80.3311 436.341 72.1655 434.584C63.9857 432.692 56.8407 429.982 56.4564 426.256C55.8552 420.6 61.9063 419.052 69.0907 419.269C70.431 419.269 71.8107 419.407 73.2003 419.545C84.7013 420.777 99.3264 414.43 99.3264 414.43L114.188 424.739Z" stroke="#263238" stroke-linecap="round" stroke-linejoin="round"/>
<path d="M98.0951 430.08C101.209 430.582 97.7896 436.978 93.5715 435.007C89.3535 433.036 94.9808 429.567 98.0951 430.08Z" fill="white"/>
<mask id="mask2_152_377" style="mask-type:luminance" maskUnits="userSpaceOnUse" x="92" y="430" width="8" height="6">
<path d="M98.0951 430.08C101.209 430.583 97.7896 436.979 93.5715 435.008C89.3535 433.037 94.9808 429.568 98.0951 430.08Z" fill="white"/>
</mask>
<g mask="url(#mask2_152_377)">
<path opacity="0.2" d="M92.251 433.993C94.5068 433.718 96.747 433.326 98.9624 432.82C99.5537 431.569 99.4158 430.287 98.0952 430.08C95.4835 429.647 91.0881 432.061 92.251 433.993Z" fill="black" fill-opacity="0.7"/>
</g>
<path d="M98.0951 430.08C101.209 430.582 97.7896 436.978 93.5715 435.007C89.3535 433.036 94.9808 429.567 98.0951 430.08Z" stroke="#263238" stroke-linecap="round" stroke-linejoin="round"/>
<path d="M72.1657 434.575C63.9859 432.683 56.8409 429.973 56.4566 426.248C55.8554 420.591 61.9065 419.043 69.0909 419.26C69.4063 419.566 76.3739 426.297 72.1657 434.575Z" fill="white"/>
<mask id="mask3_152_377" style="mask-type:luminance" maskUnits="userSpaceOnUse" x="56" y="419" width="18" height="16">
<path d="M72.1657 434.575C63.9859 432.683 56.8409 429.973 56.4566 426.248C55.8554 420.591 61.9065 419.043 69.0909 419.26C69.4063 419.566 76.3739 426.297 72.1657 434.575Z" fill="white"/>
</mask>
<g mask="url(#mask3_152_377)">
<path opacity="0.3" d="M56.447 426.119C59.7989 427.366 63.0151 428.951 66.0459 430.85C68.2062 431.848 70.4702 432.605 72.7967 433.107C75.5562 425.518 69.3868 419.546 69.0912 419.26C61.956 419.043 55.9542 420.561 56.447 426.119Z" fill="black" fill-opacity="0.7"/>
</g>
<path d="M72.1657 434.575C63.9859 432.683 56.8409 429.973 56.4566 426.248C55.8554 420.591 61.9065 419.043 69.0909 419.26C69.4063 419.566 76.3739 426.297 72.1657 434.575Z" stroke="#263238" stroke-linecap="round" stroke-linejoin="round"/>
<path d="M77.9999 427.548H77.9506C77.8385 427.553 77.7264 427.536 77.621 427.497C77.5155 427.459 77.4187 427.4 77.3361 427.324C77.2536 427.248 77.1871 427.156 77.1403 427.054C77.0935 426.952 77.0675 426.842 77.0637 426.73C76.7844 424.308 75.75 422.036 74.1071 420.235C74.0279 420.156 73.965 420.063 73.922 419.959C73.8791 419.856 73.857 419.746 73.857 419.634C73.857 419.522 73.8791 419.411 73.922 419.308C73.965 419.205 74.0279 419.111 74.1071 419.033C74.2675 418.875 74.4834 418.787 74.7083 418.787C74.9332 418.787 75.1491 418.875 75.3095 419.033C77.2419 421.128 78.4419 423.795 78.7292 426.631C78.7489 426.848 78.6842 427.065 78.5483 427.236C78.4125 427.406 78.2161 427.518 77.9999 427.548Z" fill="white" stroke="#263238" stroke-linecap="round" stroke-linejoin="round"/>
<path d="M81.4201 427.774H81.3511C81.239 427.776 81.1275 427.756 81.023 427.716C80.9185 427.675 80.8232 427.614 80.7425 427.536C80.6619 427.458 80.5975 427.365 80.553 427.262C80.5086 427.159 80.4851 427.048 80.4839 426.936C80.2883 424.475 79.377 422.125 77.8624 420.175C77.7795 420.09 77.7151 419.989 77.6735 419.878C77.6318 419.766 77.6137 419.648 77.6202 419.529C77.6268 419.411 77.6579 419.295 77.7117 419.189C77.7654 419.083 77.8405 418.989 77.9323 418.914C78.0241 418.839 78.1305 418.783 78.2449 418.751C78.3592 418.719 78.479 418.711 78.5966 418.728C78.7142 418.744 78.827 418.785 78.9279 418.848C79.0289 418.91 79.1157 418.993 79.183 419.091C80.942 421.334 81.9889 424.053 82.1888 426.896C82.1973 427.113 82.1223 427.325 81.9793 427.488C81.8363 427.651 81.6362 427.753 81.4201 427.774Z" fill="white" stroke="#263238" stroke-linecap="round" stroke-linejoin="round"/>
<path d="M85.5096 427.322C85.3982 427.332 85.2858 427.321 85.1788 427.288C85.0718 427.255 84.9723 427.202 84.8862 427.13C84.8001 427.059 84.729 426.971 84.677 426.872C84.6249 426.773 84.5931 426.664 84.5832 426.553C84.3171 423.596 81.7745 419.723 81.7449 419.654C81.6201 419.464 81.575 419.233 81.6193 419.01C81.6635 418.787 81.7936 418.59 81.9814 418.462C82.17 418.338 82.3999 418.293 82.6213 418.337C82.8428 418.381 83.0378 418.511 83.164 418.698C83.2823 418.866 85.9826 422.926 86.2881 426.356C86.3032 426.471 86.2948 426.588 86.2634 426.699C86.232 426.811 86.1783 426.915 86.1055 427.005C86.0327 427.096 85.9424 427.17 85.84 427.225C85.7375 427.279 85.6251 427.312 85.5096 427.322Z" fill="white" stroke="#263238" stroke-linecap="round" stroke-linejoin="round"/>
<path d="M89.3729 426.916C89.2976 426.926 89.2215 426.926 89.1462 426.916C89.0351 426.898 88.9287 426.859 88.8332 426.799C88.7377 426.74 88.6549 426.662 88.5898 426.57C88.5247 426.478 88.4785 426.375 88.4539 426.265C88.4293 426.155 88.4268 426.042 88.4465 425.931C89.0477 422.304 85.6772 419.2 85.6476 419.17C85.5361 419.012 85.481 418.822 85.4913 418.629C85.5016 418.436 85.5767 418.252 85.7044 418.108C85.8321 417.963 86.005 417.865 86.195 417.831C86.385 417.797 86.5811 417.828 86.7514 417.918C86.919 418.066 90.8512 421.673 90.0923 426.236C90.0561 426.409 89.9678 426.567 89.8392 426.689C89.7106 426.811 89.5479 426.89 89.3729 426.916Z" fill="white" stroke="#263238" stroke-linecap="round" stroke-linejoin="round"/>
<path d="M93.5714 425.902C93.48 425.916 93.3869 425.916 93.2955 425.902C93.0832 425.85 92.8988 425.719 92.7797 425.536C92.6607 425.353 92.616 425.131 92.6549 424.916C93.394 421.684 90.2108 418.018 90.1714 418.018C90.0237 417.847 89.9492 417.625 89.964 417.4C89.9788 417.175 90.0816 416.965 90.2502 416.815C90.3334 416.74 90.4307 416.683 90.5363 416.646C90.642 416.608 90.754 416.593 90.8658 416.599C90.9776 416.605 91.087 416.634 91.1877 416.683C91.2884 416.732 91.3784 416.8 91.4525 416.884C91.6102 417.062 95.2566 421.23 94.3204 425.33C94.2661 425.489 94.166 425.628 94.0327 425.73C93.8993 425.831 93.7388 425.891 93.5714 425.902Z" fill="white" stroke="#263238" stroke-linecap="round" stroke-linejoin="round"/>
<path d="M182.347 419.575L183.579 423.182C183.579 423.182 182.002 429.814 172.206 431.904C162.41 433.993 156.773 436.831 152.042 437.6C149.552 438.058 147.025 438.283 144.493 438.27L143.36 436.92L182.347 419.575Z" fill="white" stroke="#263238" stroke-linecap="round" stroke-linejoin="round"/>
<path d="M124.802 425.261L143.389 436.92C151.591 435.34 159.685 433.243 167.623 430.642C175.556 427.902 182.406 424.453 182.406 420.708C182.406 415.012 176.227 414.115 169.101 415.081C167.771 415.258 166.411 415.505 165.041 415.79C153.737 418.225 138.531 413.445 138.531 413.445L124.802 425.261Z" fill="#263238"/>
<mask id="mask4_152_377" style="mask-type:luminance" maskUnits="userSpaceOnUse" x="124" y="413" width="59" height="24">
<path d="M124.802 425.261L143.389 436.92C151.591 435.34 159.685 433.243 167.623 430.642C175.556 427.902 182.406 424.453 182.406 420.708C182.406 415.012 176.227 414.115 169.101 415.081C167.771 415.258 166.411 415.505 165.041 415.79C153.737 418.225 138.531 413.445 138.531 413.445L124.802 425.261Z" fill="white"/>
</mask>
<g mask="url(#mask4_152_377)">
<path opacity="0.3" d="M124.802 425.26L135.732 432.159C144.594 429.406 152.366 423.934 157.945 416.519C151.357 416.374 144.818 415.35 138.501 413.474L124.802 425.26Z" fill="black" fill-opacity="0.7"/>
</g>
<path d="M124.802 425.261L143.389 436.92C151.591 435.34 159.685 433.243 167.623 430.642C175.556 427.902 182.406 424.453 182.406 420.708C182.406 415.012 176.227 414.115 169.101 415.081C167.771 415.258 166.411 415.505 165.041 415.79C153.737 418.225 138.531 413.445 138.531 413.445L124.802 425.261Z" stroke="#263238" stroke-linecap="round" stroke-linejoin="round"/>
<path d="M167.623 430.632C175.556 427.892 182.406 424.443 182.406 420.698C182.406 415.002 176.227 414.105 169.101 415.071C168.786 415.406 162.567 422.846 167.623 430.632Z" fill="white" stroke="#263238" stroke-linecap="round" stroke-linejoin="round"/>
<path d="M161.079 424.255H161.129C161.355 424.24 161.567 424.137 161.718 423.967C161.869 423.797 161.948 423.575 161.937 423.349C161.952 420.916 162.735 418.55 164.174 416.588C164.258 416.502 164.322 416.399 164.364 416.286C164.405 416.173 164.423 416.053 164.415 415.933C164.407 415.813 164.374 415.697 164.318 415.59C164.261 415.484 164.184 415.391 164.089 415.316C163.995 415.242 163.886 415.188 163.769 415.159C163.653 415.13 163.531 415.125 163.413 415.145C163.295 415.166 163.182 415.211 163.082 415.278C162.982 415.345 162.898 415.432 162.834 415.533C161.133 417.809 160.22 420.577 160.232 423.418C160.234 423.641 160.325 423.854 160.483 424.011C160.642 424.167 160.856 424.255 161.079 424.255Z" fill="white" stroke="#263238" stroke-linecap="round" stroke-linejoin="round"/>
<path d="M157.709 424.818H157.788C158.014 424.798 158.222 424.689 158.368 424.515C158.514 424.342 158.586 424.117 158.566 423.891C158.496 421.428 159.151 418.999 160.449 416.904C160.513 416.811 160.559 416.706 160.583 416.595C160.607 416.484 160.609 416.37 160.589 416.258C160.569 416.146 160.527 416.04 160.466 415.944C160.405 415.849 160.325 415.766 160.232 415.702C160.139 415.637 160.034 415.591 159.923 415.567C159.812 415.543 159.697 415.541 159.586 415.561C159.474 415.581 159.368 415.623 159.272 415.684C159.177 415.746 159.094 415.825 159.03 415.918C157.507 418.331 156.751 421.149 156.861 424C156.871 424.219 156.965 424.425 157.122 424.577C157.28 424.729 157.49 424.815 157.709 424.818Z" fill="white" stroke="#263238" stroke-linecap="round" stroke-linejoin="round"/>
<path d="M153.589 424.818C153.816 424.813 154.031 424.719 154.19 424.557C154.348 424.395 154.437 424.177 154.437 423.95C154.378 420.945 156.506 416.874 156.536 416.835C156.64 416.632 156.661 416.396 156.592 416.179C156.524 415.961 156.373 415.779 156.171 415.672C155.97 415.568 155.736 415.548 155.52 415.617C155.303 415.685 155.123 415.836 155.018 416.037C154.92 416.214 152.663 420.531 152.722 423.98C152.727 424.206 152.821 424.42 152.984 424.577C153.146 424.734 153.364 424.82 153.589 424.818Z" fill="white" stroke="#263238" stroke-linecap="round" stroke-linejoin="round"/>
<path d="M149.706 424.817H149.933C150.151 424.755 150.335 424.61 150.446 424.412C150.557 424.215 150.585 423.981 150.524 423.763C149.539 420.225 152.564 416.776 152.594 416.746C152.68 416.665 152.747 416.566 152.793 416.457C152.839 416.348 152.861 416.231 152.86 416.113C152.858 415.995 152.832 415.878 152.783 415.771C152.734 415.663 152.664 415.567 152.576 415.488C152.488 415.409 152.385 415.349 152.273 415.312C152.16 415.274 152.042 415.261 151.924 415.272C151.806 415.282 151.692 415.317 151.589 415.374C151.485 415.431 151.395 415.509 151.323 415.603C151.175 415.77 147.637 419.772 148.879 424.226C148.937 424.399 149.048 424.55 149.197 424.656C149.345 424.762 149.524 424.819 149.706 424.817Z" fill="white" stroke="#263238" stroke-linecap="round" stroke-linejoin="round"/>
<path d="M145.419 424.256C145.514 424.26 145.608 424.243 145.695 424.206C145.803 424.172 145.902 424.116 145.987 424.043C146.073 423.969 146.142 423.879 146.192 423.778C146.242 423.677 146.27 423.566 146.277 423.454C146.283 423.341 146.266 423.228 146.227 423.122C145.153 419.988 147.942 416.017 147.962 415.977C148.043 415.887 148.103 415.781 148.14 415.666C148.177 415.551 148.189 415.43 148.176 415.31C148.162 415.189 148.124 415.074 148.062 414.969C148.001 414.865 147.918 414.775 147.82 414.705C147.721 414.635 147.609 414.587 147.49 414.564C147.372 414.54 147.25 414.542 147.132 414.569C147.014 414.596 146.903 414.648 146.807 414.721C146.71 414.794 146.631 414.886 146.572 414.992C146.434 415.179 143.251 419.713 144.601 423.694C144.664 423.86 144.776 424.003 144.922 424.103C145.068 424.204 145.242 424.257 145.419 424.256Z" fill="white" stroke="#263238" stroke-linecap="round" stroke-linejoin="round"/>
<path d="M141.369 428.878C138.324 429.716 142.354 435.678 146.385 433.313C150.416 430.947 144.404 428.05 141.369 428.878Z" fill="white" stroke="#263238" stroke-linecap="round" stroke-linejoin="round"/>
<path d="M176.513 397.223C171.95 403.619 158.419 410.685 144.976 416.509C142.572 420.491 139.736 424.196 136.52 427.557C128.222 436.091 124.842 431.312 124.842 431.312C124.842 431.312 119.599 430.72 111.863 429.666C111.541 430.416 110.979 431.039 110.266 431.436C109.553 431.834 108.728 431.984 107.921 431.864C106.935 431.706 104.964 430.267 102.786 428.365C83.2433 425.408 56.723 420.481 49.5681 414.745" fill="#E43C5D"/>
<path d="M176.513 397.223C171.95 403.619 158.419 410.685 144.976 416.509C142.572 420.491 139.736 424.196 136.52 427.557C128.222 436.091 124.842 431.312 124.842 431.312C124.842 431.312 119.599 430.72 111.863 429.666C111.541 430.416 110.979 431.039 110.266 431.436C109.553 431.834 108.728 431.984 107.921 431.864C106.935 431.706 104.964 430.267 102.786 428.365C83.2433 425.408 56.723 420.481 49.5681 414.745" stroke="#263238" stroke-linecap="round" stroke-linejoin="round"/>
<path d="M57.1857 385.042C60.5661 381.327 63.9464 381.159 71.0421 381.662C71.0421 381.662 89.56 387.575 102.48 395.351C115.4 403.127 134.243 411.375 134.243 411.375C134.243 411.375 139.989 409.71 143.99 411.375C143.99 411.375 146.799 411.592 144.917 416.5" stroke="#263238" stroke-linecap="round" stroke-linejoin="round"/>
<path d="M48.5924 407.246C48.5924 407.246 48.4938 412.972 56.6145 416.934" stroke="#263238" stroke-linecap="round" stroke-linejoin="round"/>
<path d="M138.156 383.357C138.156 383.357 125.344 392.621 122.772 398.732C120.254 399.793 117.822 401.048 115.499 402.486" stroke="#263238" stroke-linecap="round" stroke-linejoin="round"/>
<path d="M121.846 391.053C120.907 393.716 120.749 396.592 121.393 399.341" stroke="#263238" stroke-linecap="round" stroke-linejoin="round"/>
<path d="M124.803 385.042C124.105 386.057 123.492 387.129 122.97 388.245" stroke="#263238" stroke-linecap="round" stroke-linejoin="round"/>
<path d="M106.551 384.195C106.551 384.195 102.264 389.931 101.199 394.582" stroke="#263238" stroke-linecap="round" stroke-linejoin="round"/>
<path d="M82.6714 418.845C81.0768 418.751 79.4901 418.553 77.9212 418.253" stroke="#263238" stroke-linecap="round" stroke-linejoin="round"/>
<path d="M122.89 414.736C110.743 417.142 98.419 418.556 86.0418 418.964" stroke="#263238" stroke-linecap="round" stroke-linejoin="round"/>
<path d="M36.1748 327.832C36.1748 327.832 38.4908 368.239 41.2207 370.555C43.9506 372.871 48.2573 373.59 56.4075 374.27C64.5578 374.95 100.608 377.158 100.608 377.158L104.491 365.578C104.491 365.578 85.3227 363.607 76.8176 360.502C70.4052 358.31 63.8448 356.578 57.1861 355.319C57.1861 355.319 58.8024 345.158 58.8024 340.782V320.205" fill="white"/>
<path d="M36.1748 327.832C36.1748 327.832 38.4908 368.239 41.2207 370.555C43.9506 372.871 48.2573 373.59 56.4075 374.27C64.5578 374.95 100.608 377.158 100.608 377.158L104.491 365.578C104.491 365.578 85.3227 363.607 76.8176 360.502C70.4052 358.31 63.8448 356.578 57.1861 355.319C57.1861 355.319 58.8024 345.158 58.8024 340.782V320.205" stroke="#263238" stroke-linecap="round" stroke-linejoin="round"/>
<path d="M43.2705 283.69C34.4895 289.101 31.8976 301.607 34.933 328.305C34.933 328.305 32.3411 331.458 36.1748 333.035C36.1748 333.035 50.5338 327.664 57.2057 331.37C63.8777 335.075 62.1333 326.255 62.1333 326.255C62.1333 326.255 64.8829 301.696 58.8023 297.251" fill="#004998"/>
<path d="M59.6104 293.497C59.6104 293.497 68.0563 302.278 60.5959 324.472C61.0665 326.283 61.396 328.128 61.5814 329.991C61.5814 331.479 59.5414 332.248 59.5414 332.248" stroke="white" stroke-linecap="round" stroke-linejoin="round"/>
<path d="M69.4851 308.369C69.4851 308.369 68.8741 319.209 62.1529 323.91" stroke="white" stroke-linecap="round" stroke-linejoin="round"/>
<path d="M67.3171 283.198C67.3171 283.198 80.4147 288.214 90.8316 282.656C97.0108 279.364 94.4681 274.072 94.4681 274.072" stroke="white" stroke-linecap="round" stroke-linejoin="round"/>
<path d="M161.503 385.062H90.2107C88.6005 385.062 86.9971 384.854 85.4408 384.441L71.3774 380.755C71.1829 380.705 71.0106 380.591 70.8876 380.433C70.7645 380.274 70.6976 380.079 70.6974 379.878C70.6974 379.635 70.794 379.402 70.9659 379.23C71.1378 379.058 71.3709 378.961 71.614 378.961H164.45C164.691 378.964 164.922 379.062 165.091 379.233C165.261 379.405 165.356 379.637 165.356 379.878V381.208C165.356 382.23 164.95 383.211 164.228 383.933C163.505 384.656 162.525 385.062 161.503 385.062Z" fill="#757575" stroke="#263238" stroke-linecap="round" stroke-linejoin="round"/>
<path d="M168.55 381.515H97.0601C96.7801 381.527 96.5013 381.471 96.2487 381.349C95.996 381.228 95.7774 381.046 95.6124 380.819C95.4474 380.593 95.3411 380.329 95.3031 380.051C95.2651 379.773 95.2965 379.491 95.3946 379.228L108.65 327.656C108.827 327.023 109.198 326.462 109.711 326.05C110.223 325.638 110.852 325.397 111.508 325.36H183.017C183.297 325.349 183.576 325.407 183.829 325.53C184.081 325.652 184.299 325.835 184.464 326.062C184.629 326.289 184.735 326.554 184.773 326.832C184.811 327.11 184.78 327.393 184.683 327.656L171.417 379.228C171.24 379.862 170.868 380.424 170.353 380.835C169.838 381.245 169.207 381.483 168.55 381.515Z" fill="#999999" stroke="#263238" stroke-linecap="round" stroke-linejoin="round"/>
<path d="M180.493 327.192H181.844" stroke="#263238" stroke-linecap="round" stroke-linejoin="round"/>
<path d="M170.018 327.192H176.995" stroke="#263238" stroke-linecap="round" stroke-linejoin="round"/>
<path d="M98.7944 374.999L110.502 329.488C110.678 328.856 111.047 328.295 111.558 327.883C112.069 327.471 112.695 327.23 113.35 327.192H168.441" stroke="#263238" stroke-linecap="round" stroke-linejoin="round"/>
<path d="M97.7796 378.961L98.0752 377.828" stroke="#263238" stroke-linecap="round" stroke-linejoin="round"/>
<path d="M147.055 354.737C147.007 355.155 146.921 355.567 146.799 355.969C145.892 359.073 142.985 360.966 140.314 360.177C137.643 359.389 136.214 356.235 137.121 353.131C138.028 350.026 140.955 348.134 143.626 348.923C143.937 349.018 144.238 349.147 144.522 349.307C144.376 350.36 144.537 351.433 144.986 352.396C145.435 353.36 146.154 354.173 147.055 354.737Z" fill="white" stroke="#263238" stroke-linecap="round" stroke-linejoin="round"/>
<path d="M115.499 258.087C121.688 257.417 125.058 251.534 128.784 250.617C130.862 250.12 132.898 249.461 134.874 248.646C134.874 248.646 136.155 244.172 138.077 245.69C139.999 247.207 142.522 280.676 140.048 279.621C137.575 278.567 137.565 282.518 137.565 282.518L114.592 302.761L95.3353 268.662C95.3353 268.662 109.31 258.767 115.499 258.087Z" fill="#004998"/>
<path d="M302.698 138.909V138.416H302.205" stroke="#263238" stroke-linecap="round" stroke-linejoin="round"/>
<path d="M299.308 138.416H215.934" stroke="#263238" stroke-linecap="round" stroke-linejoin="round" stroke-dasharray="0.98 2.93"/>
<path d="M214.494 138.416H214.001V138.909" stroke="#263238" stroke-linecap="round" stroke-linejoin="round"/>
<path d="M213.991 141.865V195.576" stroke="#263238" stroke-linecap="round" stroke-linejoin="round" stroke-dasharray="1 3"/>
<path d="M214.001 197.054V197.546H214.494" stroke="#263238" stroke-linecap="round" stroke-linejoin="round"/>
<path d="M217.382 197.548H300.757" stroke="#263238" stroke-linecap="round" stroke-linejoin="round" stroke-dasharray="0.98 2.93"/>
<path d="M302.205 197.546H302.698V197.054" stroke="#263238" stroke-linecap="round" stroke-linejoin="round"/>
<path d="M302.688 194.098V140.388" stroke="#263238" stroke-linecap="round" stroke-linejoin="round" stroke-dasharray="1 3"/>
<path d="M258.34 139.875C257.534 139.875 256.881 139.222 256.881 138.416C256.881 137.611 257.534 136.958 258.34 136.958C259.145 136.958 259.798 137.611 259.798 138.416C259.798 139.222 259.145 139.875 258.34 139.875Z" fill="#E43C5D" stroke="#263238" stroke-linecap="round" stroke-linejoin="round"/>
<path d="M302.688 169.44C301.883 169.44 301.23 168.787 301.23 167.982C301.23 167.176 301.883 166.523 302.688 166.523C303.494 166.523 304.147 167.176 304.147 167.982C304.147 168.787 303.494 169.44 302.688 169.44Z" fill="#E43C5D" stroke="#263238" stroke-linecap="round" stroke-linejoin="round"/>
<path d="M258.34 199.006C257.534 199.006 256.881 198.353 256.881 197.547C256.881 196.742 257.534 196.089 258.34 196.089C259.145 196.089 259.798 196.742 259.798 197.547C259.798 198.353 259.145 199.006 258.34 199.006Z" fill="#E43C5D" stroke="#263238" stroke-linecap="round" stroke-linejoin="round"/>
<path d="M213.992 169.44C213.186 169.44 212.533 168.787 212.533 167.982C212.533 167.176 213.186 166.523 213.992 166.523C214.797 166.523 215.45 167.176 215.45 167.982C215.45 168.787 214.797 169.44 213.992 169.44Z" fill="#E43C5D" stroke="#263238" stroke-linecap="round" stroke-linejoin="round"/>
<path d="M212.296 195.852H215.697V199.252H212.296V195.852Z" fill="#E43C5D" stroke="#263238" stroke-linecap="round" stroke-linejoin="round"/>
<path d="M212.296 136.722H215.697V140.122H212.296V136.722Z" fill="#E43C5D" stroke="#263238" stroke-linecap="round" stroke-linejoin="round"/>
<path d="M300.993 195.852H304.393V199.252H300.993V195.852Z" fill="#E43C5D" stroke="#263238" stroke-linecap="round" stroke-linejoin="round"/>
<path d="M300.993 136.722H304.393V140.122H300.993V136.722Z" fill="#E43C5D" stroke="#263238" stroke-linecap="round" stroke-linejoin="round"/>
<path d="M219.609 143.648H296.804V192.698H219.609V143.648Z" fill="white" stroke="#263238" stroke-linecap="round" stroke-linejoin="round"/>
<path d="M219.609 178.212L228.193 186.795L251.411 163.577L261.178 173.343L276.749 157.772L296.804 177.817V192.699H219.609V178.212Z" fill="#E43C5D" stroke="#263238" stroke-linecap="round" stroke-linejoin="round"/>
<path d="M235.604 163.025C232.594 163.025 230.154 160.585 230.154 157.575C230.154 154.565 232.594 152.125 235.604 152.125C238.614 152.125 241.054 154.565 241.054 157.575C241.054 160.585 238.614 163.025 235.604 163.025Z" fill="#E43C5D" stroke="#263238" stroke-linecap="round" stroke-linejoin="round"/>
<path d="M111.39 267.135C111.39 267.135 117.303 278.143 118.002 294.986" stroke="white" stroke-linecap="round" stroke-linejoin="round"/>
<path d="M128.774 274.753C128.774 274.753 127.01 284.116 121.875 290.896" stroke="white" stroke-linecap="round" stroke-linejoin="round"/>
<path d="M104.491 313.386C104.491 313.386 95.6213 342.518 76.3544 351.092" stroke="white" stroke-linecap="round" stroke-linejoin="round"/>
<path d="M81.1537 260.65C81.1537 260.65 81.9914 267.006 88.1016 267.45C88.8545 265.851 89.7622 264.329 90.8118 262.907C87.6389 261.968 84.4141 261.214 81.1537 260.65Z" fill="#263238"/>
<path d="M68.135 261.093C68.135 261.093 57.9152 262.345 53.6381 248.627C49.3609 234.908 52.7216 224.57 69.633 219.593C79.0152 216.834 88.3579 219.051 91.7776 226.157C94.6751 232.237 93.3052 237.293 93.9655 239.333C94.7145 241.62 101.633 243.561 101.633 245.128C101.633 246.419 97.7991 248.627 97.7991 248.627L98.9226 252.036L97.8681 252.598C97.8681 252.598 99.8392 260.275 98.9226 262.986C98.2722 264.957 80.9566 265.784 79.6065 260.877" fill="white"/>
<path d="M68.135 261.093C68.135 261.093 57.9152 262.345 53.6381 248.627C49.3609 234.908 52.7216 224.57 69.633 219.593C79.0152 216.834 88.3579 219.051 91.7776 226.157C94.6751 232.237 93.3052 237.293 93.9655 239.333C94.7145 241.62 101.633 243.561 101.633 245.128C101.633 246.419 97.7991 248.627 97.7991 248.627L98.9226 252.036L97.8681 252.598C97.8681 252.598 99.8392 260.275 98.9226 262.986C98.2722 264.957 80.9566 265.784 79.6065 260.877" stroke="#263238" stroke-linecap="round" stroke-linejoin="round"/>
<path d="M91.6794 231.133C91.6794 231.133 88.2991 231.981 87.3727 233.755" stroke="#263238" stroke-linecap="round" stroke-linejoin="round"/>
<path d="M91.0879 238.929C91.2357 239.915 91.0091 240.772 90.5755 240.831C90.1418 240.89 89.6885 240.141 89.5406 239.146C89.3928 238.151 89.6294 237.303 90.0531 237.244C90.4769 237.185 90.9401 237.934 91.0879 238.929Z" fill="#263238"/>
<path d="M97.8679 252.599C97.8679 252.599 92.3687 254.708 90.3188 253.436" stroke="#263238" stroke-linecap="round" stroke-linejoin="round"/>
<path d="M95.9365 238.141C96.3405 240.349 95.8478 242.28 94.8327 242.467C93.8176 242.655 92.6547 241.029 92.2506 238.831C91.8466 236.633 92.3295 234.682 93.3544 234.495C94.3794 234.307 95.5226 235.943 95.9365 238.141Z" stroke="#263238" stroke-linecap="round" stroke-linejoin="round"/>
<path d="M53.1847 226.916C54.0078 222.923 56.3011 219.384 59.6103 217.002C63.2987 214.412 67.5223 212.684 71.9687 211.946C71.9687 211.946 68.7066 213.375 67.4648 215.258C67.4648 215.258 75.9107 208.911 85.9433 213.08C95.9759 217.248 94.7243 228.079 94.7243 228.079L93.2657 225.241C93.2657 225.241 93.4332 228.621 91.6593 229.863C91.1277 228.207 90.4033 226.619 89.501 225.133C89.501 225.133 86.8401 233.125 79.5177 235.835C80.0152 234.575 80.057 233.181 79.636 231.893C79.636 231.893 75.5756 240.674 76.7583 244.961L75.4672 247.208C75.4672 247.208 70.8057 242.488 67.0115 246.42C64.8335 248.686 71.1802 257.26 72.0869 257.26L68.2533 262.888C68.2533 262.888 58.674 264.258 53.1551 253.88C47.6362 243.503 48.9864 239.097 48.9864 239.097C48.9864 239.097 47.1829 241.62 47.0153 243.039C46.9956 243.02 45.3597 231.873 53.1847 226.916Z" fill="#263238"/>
<path d="M75.7236 248.203C75.7236 248.203 72.7671 238.269 66.4795 241.768C60.1919 245.266 64.676 250.568 66.9328 252.608C69.1897 254.648 70.8749 258.354 72.3433 258.354C73.8117 258.354 74.137 256.55 74.137 256.55" fill="white"/>
<path d="M75.7236 248.203C75.7236 248.203 72.7671 238.269 66.4795 241.768C60.1919 245.266 64.676 250.568 66.9328 252.608C69.1897 254.648 70.8749 258.354 72.3433 258.354C73.8117 258.354 74.137 256.55 74.137 256.55" stroke="#263238" stroke-linecap="round" stroke-linejoin="round"/>
<path d="M92.2505 238.831L74.7083 242.468" stroke="#263238" stroke-linecap="round" stroke-linejoin="round"/>
</svg>
