<svg width="106" height="106" viewBox="0 0 106 106" fill="none" xmlns="http://www.w3.org/2000/svg">
<g clip-path="url(#clip0_75_159)">
<path d="M0 67.9532V7.594C0.573412 6.77092 1.3718 6.54046 2.35675 6.54869C8.40913 6.5871 14.4642 6.5487 20.5166 6.58162C21.1669 6.58162 21.3973 6.44444 21.3644 5.75854C21.304 4.49648 21.3397 3.22894 21.3507 1.96414C21.3507 0.617032 21.9488 0.0161825 23.2712 0.00795166C25.2557 -0.00668086 27.2394 -0.00668086 29.2221 0.00795166C30.6076 0.00795166 31.1837 0.608804 31.192 2.02724C31.192 3.29479 31.2167 4.55958 31.192 5.82438C31.1755 6.3731 31.266 6.59533 31.8943 6.5871C34.7312 6.55235 37.5663 6.55235 40.3995 6.5871C40.9811 6.5871 41.0662 6.37859 41.0552 5.882C41.0278 4.58153 41.0387 3.28381 41.0552 1.98335C41.0552 0.611547 41.6423 0.0161825 42.9757 0.00795166C44.9877 -0.00668086 47.0052 -0.00668086 49.0281 0.00795166C50.2956 0.00795166 50.8992 0.628009 50.913 1.90653C50.9294 3.23991 50.9431 4.5733 50.913 5.90669C50.8965 6.45541 51.0639 6.58984 51.5961 6.58436C54.4366 6.56058 57.2717 6.56058 60.1013 6.58436C60.65 6.58436 60.7926 6.43346 60.7789 5.9012C60.7433 4.56781 60.7542 3.23442 60.7789 1.90103C60.7789 0.62526 61.3935 0.0161825 62.6665 0.00795166C64.6785 -0.00850993 66.6969 -0.00850993 68.7216 0.00795166C69.9974 0.00795166 70.6065 0.619776 70.6257 1.88732C70.6449 3.15486 70.6751 4.35655 70.612 5.5802C70.5736 6.34841 70.7519 6.60082 71.5887 6.59533C77.6768 6.55418 83.7648 6.57064 89.8528 6.57339C91.4057 6.57339 91.9764 7.12211 91.9764 8.64755C91.9764 21.2352 91.9764 33.8219 91.9764 46.4077C91.9764 47.7136 91.6334 48.1307 90.3302 48.4818C89.0325 48.1362 88.6841 47.7191 88.6841 46.4132C88.6841 40.605 88.6539 34.794 88.7088 28.9831C88.7088 28.0366 88.4344 27.9021 87.5839 27.9021C66.802 27.9277 46.0202 27.9341 25.2384 27.9213C23.7157 27.9213 23.3178 27.647 22.9639 26.2752C23.3124 24.9473 23.7184 24.629 25.1341 24.629H87.7375C88.2286 24.629 88.7115 24.7909 88.7033 23.9129C88.6511 19.4656 88.6676 15.0182 88.7033 10.5708C88.7033 9.98367 88.5332 9.83552 87.9598 9.83827C82.4177 9.85656 76.8756 9.85656 71.3336 9.83827C70.7245 9.83827 70.6038 10.044 70.6147 10.5982C70.6449 12.409 70.6339 14.2225 70.6147 16.0361C70.6147 17.4545 70.0303 18.0526 68.6421 18.0608C66.6585 18.0608 64.6748 18.0608 62.6912 18.0608C61.3606 18.0608 60.7707 17.449 60.7707 16.0964C60.7707 14.2472 60.7515 12.4008 60.7707 10.5543C60.7707 10.0495 60.6856 9.83552 60.1095 9.84101C57.2699 9.87119 54.4302 9.87667 51.6043 9.84101C50.9568 9.84101 50.902 10.1017 50.9102 10.6257C50.9349 12.4392 50.9267 14.2527 50.9102 16.0662C50.9102 17.4737 50.3203 18.0581 48.9156 18.0663C46.964 18.0773 45.0142 18.0773 43.0663 18.0663C41.6533 18.0663 41.0717 17.4792 41.0634 16.0745C41.0634 14.228 41.0415 12.3788 41.0634 10.5324C41.0634 9.98368 40.918 9.84101 40.3775 9.8465C37.5388 9.87211 34.6992 9.87211 31.8587 9.8465C31.3099 9.8465 31.181 10.0331 31.1892 10.5489C31.2167 12.398 31.2084 14.2445 31.1892 16.0909C31.1892 17.449 30.5939 18.0581 29.2687 18.0663C27.2567 18.0828 25.2384 18.0828 23.2136 18.0663C21.9488 18.0663 21.3479 17.4408 21.337 16.1458C21.337 14.3323 21.3123 12.5188 21.337 10.7052C21.337 10.0852 21.2437 9.82729 20.5139 9.83004C15.0413 9.86479 9.56784 9.86479 4.09345 9.83004C3.44047 9.83004 3.23196 9.97545 3.23745 10.6531C3.27037 15.0319 3.27037 19.4107 3.23745 23.7895C3.23745 24.4809 3.44596 24.629 4.09619 24.6125C6.96874 24.5796 9.85775 24.6125 12.7166 24.6125C14.1048 24.6125 14.5027 24.9226 14.9115 26.2587C14.5054 27.5893 14.1103 27.8884 12.7166 27.8911C9.8797 27.8911 7.04282 27.9268 4.21142 27.8911C3.45145 27.8774 3.25939 28.0558 3.25939 28.8322C3.29049 40.7961 3.29049 52.7619 3.25939 64.7294C3.25939 65.4729 3.40206 65.6979 4.19222 65.6897C8.66977 65.6458 13.1501 65.6897 17.6358 65.665C18.4095 65.665 19.0461 65.8461 19.507 66.4881C19.6544 66.9714 19.7221 67.4755 19.7073 67.9806C19.7073 69.4045 19.7237 70.8257 19.7347 72.2496C19.7347 75.1853 19.7347 78.1209 19.6798 81.0538C19.6606 81.8769 19.8417 82.1184 20.7169 82.1156C31.8449 82.0827 42.9748 82.0754 54.1065 82.0937C55.5112 82.0937 55.92 82.4119 56.2712 83.7398C55.9145 85.0623 55.5057 85.386 54.0955 85.386C42.2706 85.386 30.4439 85.3915 18.6153 85.4025C18.2095 85.4133 17.806 85.3366 17.4325 85.1775C17.0589 85.0185 16.724 84.7807 16.4506 84.4806C12.6974 80.6944 8.91669 76.933 5.14973 73.1578C3.4295 71.443 1.71475 69.7063 0 67.9532ZM16.4287 79.6382C16.4287 77.0948 16.4287 74.6201 16.4287 72.1426C16.4287 71.1248 16.7853 69.7557 16.2695 69.1823C15.6797 68.5266 14.2832 68.9957 13.2516 68.982C10.7823 68.9546 8.3131 68.982 5.75058 68.982C6.49958 69.945 15.6111 79.0346 16.4287 79.6382ZM27.9106 9.10298V5.71464C27.9106 3.2454 27.9106 3.27833 25.4661 3.28107C24.7719 3.28107 24.6183 3.5033 24.6265 4.15353C24.6595 6.89713 24.6403 9.62701 24.6403 12.3624C24.6403 14.8755 24.6403 14.8536 27.1863 14.7959C27.7872 14.7822 27.9326 14.5929 27.9216 14.0277C27.8887 12.3871 27.9106 10.7436 27.9106 9.10298ZM44.3475 9.03165V12.324C44.3475 14.8563 44.3475 14.8289 46.8469 14.8069C47.5054 14.8069 47.6344 14.5847 47.6289 13.9838C47.6014 11.2402 47.6289 8.51037 47.6289 5.775C47.6289 3.17681 47.6289 3.19602 45.0252 3.30576C44.4765 3.32497 44.3393 3.51153 44.3475 4.02458C44.364 5.67897 44.3475 7.35531 44.3475 9.03165ZM67.3224 9.03165V5.73933C67.3224 3.20973 67.3224 3.23717 64.8175 3.27009C64.1453 3.27009 64.0356 3.51153 64.0411 4.09317C64.0685 6.83677 64.0548 9.56665 64.0548 12.302C64.0548 14.9002 64.0548 14.8783 66.664 14.7713C67.2291 14.7493 67.3389 14.5463 67.3306 14.0442C67.3087 12.3926 67.3224 10.719 67.3224 9.03988V9.03165Z" fill="#010101"/>
<path d="M79.2378 105.099C78.6507 104.622 77.9017 104.72 77.2323 104.569C67.4514 102.339 60.4469 94.5827 59.2782 84.6564C59.2425 84.3519 59.1712 84.0528 59.1163 83.751C58.927 79.8848 59.6351 76.0273 61.185 72.4803C63.5404 67.5266 67.5384 63.5412 72.4996 61.2014C73.7726 60.7267 75.0127 60.1232 76.3598 59.8954C77.7755 59.654 77.1335 58.6005 77.1609 57.9036C77.1911 57.0805 76.4421 57.5277 76.0635 57.514C74.453 57.4536 73.9125 56.9488 73.907 55.3466C73.907 54.1174 73.907 52.8773 73.907 51.3738C73.3227 52.356 72.6999 52.5755 71.9179 52.5728C67.7833 52.5563 63.646 52.5728 59.5086 52.5728C58.0518 52.5728 57.4893 51.9911 57.4866 50.5014C57.4866 46.4353 57.4866 42.3675 57.4866 38.2978C57.4866 36.6928 58.0353 36.1551 59.6403 36.1523H71.5366C73.4324 36.1523 73.907 36.6215 73.907 38.4926C73.907 42.3803 73.907 46.268 73.907 50.5206C74.5271 49.2832 75.3968 49.2805 76.2967 49.2832C80.2621 49.2997 84.2275 49.2997 88.193 49.2832C88.5317 49.2581 88.872 49.3031 89.1925 49.4154C89.513 49.5278 89.8069 49.7051 90.0559 49.9362C90.6046 51.3848 90.2506 52.891 90.3302 54.3671C90.3659 55.1902 90.4921 56.0681 90.0559 56.861C89.637 57.2673 89.0808 57.5013 88.4975 57.5167C86.9995 57.5167 87.0214 57.5551 87.0379 59.0367C87.0379 59.525 87.1668 59.7363 87.6826 59.8433C88.5771 60.0299 89.4495 60.3372 90.333 60.5923C94.4676 62.34 97.9739 64.8915 100.663 68.535C110.888 82.3929 102.523 102.465 85.5015 104.904C85.1969 104.948 84.8074 104.726 84.5879 105.129L79.2378 105.099ZM101.818 82.1433C101.798 71.2814 92.9805 62.3894 82.2503 62.3894C71.1525 62.4086 62.3976 71.1689 62.4059 82.2612C62.4059 92.9942 71.3226 101.801 82.1762 101.801C92.9476 101.826 101.837 92.9229 101.818 82.1542V82.1433ZM65.7915 39.42C64.3236 39.42 62.8531 39.4392 61.3853 39.42C60.8941 39.42 60.7487 39.5599 60.7515 40.051C60.7734 42.9208 60.7734 45.7897 60.7515 48.6577C60.7515 49.1488 60.8914 49.2969 61.3853 49.2914C64.2514 49.2731 67.1203 49.2731 69.9919 49.2914C70.483 49.2914 70.6284 49.1515 70.6257 48.6604C70.6037 45.7906 70.6037 42.9208 70.6257 40.051C70.6257 39.5626 70.4858 39.409 69.9919 39.42C68.5927 39.4392 67.1907 39.42 65.7915 39.42ZM82.1241 52.5618C80.6947 52.5618 79.2625 52.6002 77.8331 52.5453C77.128 52.5179 77.1747 52.902 77.1856 53.3684C77.1966 53.8348 77.0814 54.2189 77.8112 54.2107C80.6718 54.1723 83.5334 54.1723 86.3959 54.2107C87.1065 54.2107 87.0489 53.8458 87.0379 53.3876C87.0269 52.9294 87.1559 52.5152 86.4178 52.5426C84.9884 52.6002 83.5563 52.5618 82.1241 52.5618ZM82.1543 57.5003C81.8135 57.5222 81.4717 57.5222 81.1309 57.5003C80.5657 57.4289 80.4917 57.6814 80.4533 58.1889C80.3929 58.9955 80.6426 59.2864 81.4547 59.1629C81.9302 59.1025 82.4114 59.1025 82.8868 59.1629C83.4987 59.226 83.784 59.119 83.7758 58.381C83.7675 57.6429 83.5864 57.385 82.8704 57.503C82.6318 57.5186 82.3923 57.5149 82.1543 57.492V57.5003Z" fill="#010101"/>
<path d="M22.9612 26.2835H21.5894C21.2574 25.0269 20.8321 24.6675 19.6496 24.6373C17.0542 24.577 16.7469 24.7279 16.2695 26.2835L14.9361 26.2972C14.5411 24.9556 14.1432 24.651 12.7413 24.651C9.86871 24.651 6.9797 24.6291 4.12087 24.651C3.47064 24.651 3.25664 24.5111 3.26213 23.8279C3.29505 19.4492 3.29505 15.0704 3.26213 10.6916C3.26213 10.003 3.46515 9.8548 4.11813 9.86852C9.59069 9.89413 15.0642 9.89413 20.5386 9.86852C21.2601 9.86852 21.3616 10.1237 21.3616 10.7437C21.326 12.5572 21.337 14.3708 21.3616 16.1843C21.3616 17.4683 21.9735 18.0829 23.2383 18.1048C25.2502 18.1213 27.2686 18.1213 29.2934 18.1048C30.6158 18.1048 31.2139 17.4875 31.2139 16.1294C31.2139 14.283 31.2331 12.4365 31.2139 10.5873C31.2139 10.0715 31.3209 9.87949 31.8833 9.88498C34.7221 9.91608 37.5617 9.91608 40.4022 9.88498C40.9509 9.88498 41.0991 10.0304 41.0881 10.5709C41.0579 12.4173 41.0689 14.2665 41.0881 16.113C41.0881 17.5177 41.678 18.0966 43.0909 18.1048C45.0425 18.1158 46.9923 18.1158 48.9403 18.1048C50.345 18.1048 50.9294 17.5122 50.9349 16.1047C50.9349 14.2912 50.9541 12.4777 50.9349 10.6642C50.9349 10.1401 50.9815 9.87127 51.629 9.8795C54.4659 9.91791 57.3055 9.91242 60.1342 9.8795C60.7103 9.8795 60.8036 10.088 60.7954 10.5928C60.7707 12.4393 60.7789 14.2857 60.7954 16.1349C60.7954 17.4875 61.388 18.0911 62.7159 18.0993C64.6995 18.1158 66.6831 18.113 68.6668 18.0993C70.055 18.0993 70.6339 17.493 70.6394 16.0745C70.6394 14.261 70.6614 12.4475 70.6394 10.6367C70.6394 10.088 70.7491 9.87401 71.3582 9.87675C76.9003 9.90236 82.4424 9.90236 87.9844 9.87675C88.5578 9.87675 88.7307 10.0222 88.7279 10.6093C88.7033 15.0567 88.6868 19.504 88.7279 23.9514C88.7279 24.8294 88.2533 24.6675 87.7622 24.6675H25.1313C23.7157 24.6428 23.3096 24.9556 22.9612 26.2835Z" fill="#E43C5C"/>
<path d="M21.3178 72.2718H19.7402C19.7402 70.8479 19.7045 69.4267 19.7128 68.0028C19.7276 67.4977 19.6599 66.9935 19.5125 66.5102C19.9158 65.7283 19.614 64.8888 19.699 64.0822C21.0708 63.7173 21.3809 63.3441 21.3287 61.7062C21.3041 60.9545 21.4851 60.7295 22.2698 60.7459C25.0134 60.8008 27.757 60.7844 30.4786 60.7459C31.0603 60.7459 31.2194 60.9106 31.2139 61.4867C31.1865 64.2907 31.1865 67.0955 31.2139 69.9013C31.2139 70.5022 31.0164 70.6311 30.4594 70.6229C28.0999 70.5955 25.7377 70.6064 23.3782 70.6229C22.075 70.6284 21.6525 70.9768 21.3178 72.2718Z" fill="#C2BFCA"/>
<path d="M16.4287 79.6386C15.6056 79.0323 6.49959 69.9455 5.72864 68.9743C8.28567 68.9743 10.7577 68.9551 13.2296 68.9743C14.2722 68.9743 15.6687 68.5188 16.2476 69.1746C16.7634 69.748 16.404 71.117 16.4067 72.1349C16.4342 74.6206 16.4287 77.0953 16.4287 79.6386Z" fill="#C2BFCA"/>
<path d="M27.9106 9.10317C27.9106 10.7493 27.8887 12.3955 27.9106 14.0279C27.9106 14.5931 27.7762 14.7824 27.1753 14.7961C24.6293 14.8538 24.6293 14.8757 24.6293 12.3626C24.6293 9.61897 24.6485 6.8891 24.6156 4.15373C24.6156 3.5035 24.761 3.28127 25.4551 3.28127C27.8997 3.28127 27.8997 3.25109 27.8997 5.71484L27.9106 9.10317Z" fill="#004999"/>
<path d="M44.3475 9.03183C44.3475 7.3555 44.364 5.67915 44.3475 4.00281C44.3475 3.48976 44.4655 3.3032 45.0252 3.28399C47.6289 3.18522 47.6289 3.16602 47.6289 5.75323C47.6289 8.49683 47.6124 11.2267 47.6289 13.9621C47.6289 14.5657 47.5054 14.7852 46.847 14.7852C44.3475 14.8071 44.3475 14.8345 44.3475 12.3022V9.03183Z" fill="#004999"/>
<path d="M67.3224 9.04007C67.3224 10.7164 67.3087 12.3927 67.3224 14.0691C67.3224 14.5712 67.2209 14.7742 66.6557 14.7961C64.0438 14.8976 64.0466 14.9196 64.0466 12.3269C64.0466 9.5833 64.0466 6.85342 64.0328 4.11806C64.0328 3.52544 64.1371 3.29498 64.8093 3.29498C67.3142 3.27029 67.3142 3.24285 67.3142 5.76422L67.3224 9.04007Z" fill="#004999"/>
<path d="M90.3335 60.5737C89.4499 60.3185 88.5773 60.0112 87.6828 59.8246C87.1669 59.7176 87.0461 59.5063 87.0379 59.0178C87.0214 57.536 86.9995 57.5113 88.4977 57.4976C89.0811 57.4822 89.6374 57.2481 90.0564 56.8418C90.6052 57.3769 90.2731 58.0492 90.3308 58.6556C90.3884 59.262 90.3335 59.9344 90.3335 60.5737Z" fill="#EFEEF1"/>
<path d="M101.818 82.1543C101.837 92.9229 92.9476 101.826 82.1763 101.826C71.3226 101.826 62.4223 93.0189 62.4059 82.286C62.4059 71.2018 71.1525 62.4333 82.2503 62.4141C92.9805 62.3976 101.798 71.2924 101.818 82.1543ZM98.5254 82.0775C98.5254 73.1416 91.1588 65.7201 82.2421 65.6982C73.1196 65.679 65.6955 72.9907 65.6845 82.0034C65.6796 84.1597 66.0995 86.296 66.9202 88.29C67.741 90.2841 68.9464 92.097 70.4677 93.6252C71.9891 95.1534 73.7965 96.367 75.7869 97.1967C77.7772 98.0264 79.9115 98.456 82.0679 98.4608C84.2242 98.4657 86.3605 98.0458 88.3545 97.2251C90.3486 96.4044 92.1615 95.1989 93.6897 93.6776C95.218 92.1563 96.4316 90.3488 97.2613 88.3585C98.091 86.3681 98.5205 84.2338 98.5254 82.0775Z" fill="#004999"/>
<path d="M65.7915 39.42C67.1907 39.42 68.5927 39.4392 69.9919 39.42C70.4858 39.42 70.6284 39.5627 70.6257 40.051C70.6037 42.9208 70.6037 45.7906 70.6257 48.6604C70.6257 49.1515 70.483 49.2969 69.9919 49.2915C67.1221 49.2732 64.2532 49.2732 61.3852 49.2915C60.8914 49.2915 60.7487 49.1488 60.7515 48.6577C60.7734 45.7915 60.7734 42.9227 60.7515 40.051C60.7515 39.5599 60.8941 39.409 61.3852 39.42C62.8531 39.4392 64.3236 39.42 65.7915 39.42Z" fill="#C2BFCA"/>
<path d="M61.185 72.4913C60.96 72.0578 60.329 72.4913 60.1342 71.9975C60.6445 71.4488 60.7817 70.7821 60.7734 70.0303C60.7433 67.2017 60.7734 64.373 60.746 61.5444C60.746 60.9133 60.9051 60.746 61.5362 60.7542C64.3648 60.7899 67.1935 60.7542 70.0221 60.7816C70.7739 60.7816 71.4296 60.6527 71.9893 60.1396C72.4859 60.3372 72.0496 60.9627 72.4859 61.1959C67.5271 63.5424 63.5339 67.5337 61.185 72.4913Z" fill="#C2BFCA"/>
<path d="M82.1241 52.5616C83.5563 52.5616 84.9884 52.6 86.4179 52.5452C87.1559 52.5177 87.0269 52.9567 87.0379 53.3902C87.0489 53.8237 87.1065 54.2133 86.3959 54.2133C83.5352 54.173 80.6737 54.173 77.8112 54.2133C77.0814 54.2133 77.1966 53.81 77.1856 53.371C77.1747 52.932 77.128 52.5232 77.8331 52.5479C79.2625 52.6028 80.6947 52.5644 82.1241 52.5644V52.5616Z" fill="#E43C5C"/>
<path d="M82.1546 57.4922C82.3929 57.5115 82.6324 57.5115 82.8708 57.4922C83.587 57.3743 83.7708 57.6487 83.7763 58.3703C83.7818 59.092 83.5019 59.2155 82.8872 59.1524C82.4117 59.092 81.9304 59.092 81.4548 59.1524C80.6316 59.2759 80.3929 58.985 80.4533 58.1783C80.4917 57.6706 80.5658 57.4182 81.131 57.4895C81.4718 57.5124 81.8137 57.5133 82.1546 57.4922Z" fill="#EFEEF1"/>
<path d="M18.0639 44.3503C18.0639 42.2651 18.0639 40.18 18.0639 38.0976C18.0639 36.7505 18.662 36.1442 19.9844 36.1387C24.1912 36.1387 28.3935 36.1387 32.5912 36.1387C33.8587 36.1387 34.4706 36.7587 34.4733 38.0345C34.4843 42.2413 34.4843 46.4482 34.4733 50.6551C34.4733 51.9336 33.8587 52.5591 32.5994 52.5756C28.3633 52.5884 24.1263 52.5884 19.8883 52.5756C18.6867 52.5756 18.0693 51.9391 18.0611 50.7264C18.0501 48.5809 18.0639 46.4683 18.0639 44.3503ZM21.3562 44.3503C21.3562 45.7852 21.3754 47.2201 21.3562 48.6522C21.3562 49.1488 21.5043 49.286 21.9927 49.2833C24.8625 49.265 27.7314 49.265 30.5994 49.2833C31.0932 49.2833 31.2331 49.1378 31.2304 48.6495C31.2121 45.7797 31.2121 42.9108 31.2304 40.0428C31.2304 39.5462 31.085 39.4063 30.5966 39.4118C27.7268 39.4301 24.857 39.4301 21.9872 39.4118C21.4934 39.4118 21.3479 39.5572 21.3589 40.0456C21.3671 41.4805 21.3479 42.9154 21.3479 44.3503H21.3562Z" fill="#010101"/>
<path d="M37.7711 44.3503C37.7711 42.2679 37.7711 40.1827 37.7711 38.0976C37.7711 36.7505 38.3665 36.1442 39.6916 36.1387C43.8985 36.1387 48.1053 36.1387 52.3122 36.1387C53.577 36.1387 54.1915 36.7587 54.1943 38.0345C54.2053 42.2413 54.2053 46.4482 54.1943 50.6551C54.1943 51.9336 53.5797 52.5591 52.3204 52.5756C48.0843 52.5884 43.8473 52.5884 39.6093 52.5756C38.4076 52.5756 37.7903 51.9391 37.7821 50.7291C37.7574 48.5809 37.7711 46.4711 37.7711 44.3503ZM45.9799 39.4118C44.545 39.4118 43.1101 39.431 41.678 39.4118C41.1841 39.4118 41.0415 39.5545 41.0442 40.0456C41.0662 42.9117 41.0662 45.7806 41.0442 48.6522C41.0442 49.1461 41.1896 49.2887 41.678 49.2833C44.5478 49.265 47.4176 49.265 50.2874 49.2833C50.7785 49.2833 50.9212 49.1406 50.9184 48.6495C50.8965 45.7797 50.8965 42.9108 50.9184 40.0428C50.9184 39.549 50.7758 39.4008 50.2847 39.4118C48.8498 39.4392 47.4148 39.42 45.9799 39.42V39.4118Z" fill="#010101"/>
<path d="M37.7711 65.676C37.7711 63.5909 37.7711 61.5085 37.7711 59.4234C37.7711 58.09 38.3775 57.5029 39.7191 57.5029C43.8857 57.4919 48.0541 57.4919 52.2244 57.5029C53.5715 57.5029 54.1833 58.0982 54.1861 59.4234C54.197 63.6302 54.197 67.8371 54.1861 72.0439C54.1861 73.3115 53.5633 73.926 52.2902 73.9288C48.0834 73.9398 43.8765 73.9398 39.6697 73.9288C38.35 73.9288 37.7656 73.3115 37.7492 71.9534C37.7629 69.8463 37.7711 67.7612 37.7711 65.676ZM50.9075 65.7995C50.9075 64.3317 50.8883 62.8611 50.9075 61.3933C50.9075 60.9049 50.7703 60.7568 50.2764 60.7595C47.4066 60.7815 44.5378 60.7815 41.6698 60.7595C41.1787 60.7595 41.0305 60.8967 41.0333 61.3905C41.0552 64.2603 41.0552 67.1301 41.0333 69.9999C41.0333 70.4883 41.1732 70.6365 41.6643 70.6337C44.5341 70.6118 47.4039 70.6118 50.2737 70.6337C50.7621 70.6337 50.9184 70.4965 50.9075 70.0027C50.8883 68.6089 50.9075 67.2015 50.9075 65.7995Z" fill="#010101"/>
<path d="M21.3177 72.2721C21.6525 70.9771 22.075 70.6259 23.3809 70.6259C25.7404 70.6259 28.1027 70.6067 30.4622 70.6259C31.0109 70.6259 31.2221 70.5052 31.2166 69.9044C31.1837 67.1004 31.1837 64.2955 31.2166 61.4898C31.2166 60.9136 31.063 60.7435 30.4814 60.749C27.7378 60.7792 24.9942 60.7956 22.2725 60.749C21.4878 60.7325 21.3068 60.9575 21.3315 61.7092C21.3836 63.3554 21.0818 63.7203 19.7018 64.0852C18.4068 63.734 18.0776 63.3197 18.0556 62.011C18.0556 61.1221 18.0556 60.2359 18.0556 59.347C18.0776 58.1288 18.6757 57.4951 19.8746 57.4923C24.1473 57.4759 28.4182 57.4759 32.6872 57.4923C33.8285 57.4923 34.4623 58.1343 34.4678 59.2784C34.4843 63.5493 34.4843 67.8202 34.4678 72.091C34.4678 73.2817 33.8203 73.8963 32.6049 73.9045C29.4955 73.9192 26.3861 73.9192 23.2767 73.9045C22.0805 73.9018 21.6552 73.5314 21.3177 72.2721Z" fill="#010101"/>
<path d="M71.9893 60.1399C71.4406 60.6529 70.7739 60.7901 70.0221 60.7819C67.1935 60.7517 64.3648 60.7819 61.5362 60.7544C60.9052 60.7544 60.7378 60.9136 60.746 61.5446C60.7817 64.3732 60.746 67.2019 60.7735 70.0305C60.7735 70.7823 60.6445 71.438 60.1342 71.9977C58.4332 72.6177 57.4811 71.9593 57.4784 70.1513C57.4784 66.6285 57.4784 63.1066 57.4784 59.5857C57.4784 58.0438 58.0271 57.4896 59.5772 57.4868C63.0982 57.4868 66.6201 57.4868 70.1428 57.4868C71.9509 57.4896 72.6066 58.4388 71.9893 60.1399Z" fill="#010101"/>
<path d="M16.2558 26.2783C16.7333 24.7307 17.0406 24.5798 19.6365 24.6319C20.8192 24.6593 21.2445 25.0188 21.5765 26.2783C21.2335 27.568 20.8137 27.9055 19.5322 27.9248C19.192 27.9248 18.8544 27.9248 18.5142 27.9248C17.079 27.922 16.6757 27.6366 16.2558 26.2783Z" fill="#010101"/>
<path d="M98.5309 82.0776C98.521 86.4325 96.7816 90.6052 93.6952 93.6777C90.6089 96.7502 86.4283 98.4708 82.0734 98.4609C77.7184 98.4511 73.5457 96.7117 70.4732 93.6253C67.4007 90.5389 65.6802 86.3584 65.69 82.0035C65.69 72.9908 73.1251 65.6791 82.2476 65.6983C91.1561 65.7202 98.5418 73.1417 98.5309 82.0776ZM83.7703 70.8288C83.5179 71.6821 83.0103 72.2692 82.0583 72.2445C81.1611 72.2226 80.6865 71.6437 80.4505 70.8288C80.5219 68.9357 80.5054 68.8808 78.7358 69.4241C73.3666 71.0702 70.1072 74.6369 69.1332 80.2037C68.7903 82.1736 68.8287 82.1818 70.6147 82.0858C71.4762 82.2038 72.0853 82.6345 72.2252 83.5262C72.3652 84.4178 71.8933 84.9364 71.1827 85.3232L69.3637 85.4439C70.8425 90.259 73.9126 93.4306 78.7193 94.7914C80.9307 95.4169 80.4313 95.299 80.4451 93.4004C80.6783 92.5773 81.1529 92.0039 82.0528 91.9819C83.0076 91.9573 83.5124 92.5307 83.7648 93.4004C83.774 93.7418 83.7639 94.0835 83.7346 94.4238C83.6441 95.0822 83.9624 95.1234 84.4974 95.0438C89.2163 94.3552 93.7899 90.1053 94.7612 85.4412L93.0272 85.326C92.3139 84.9391 91.8529 84.3767 91.9846 83.5289C92.1163 82.6811 92.7336 82.2065 93.5951 82.0885C95.3209 82.1791 95.3208 82.1791 95.2138 80.9911C94.9657 78.3047 93.9029 75.7582 92.1677 73.6924C90.4324 71.6267 88.1075 70.1403 85.5042 69.4323C83.7017 68.9412 83.7017 68.9412 83.7703 70.8343V70.8288Z" fill="#010101"/>
<path d="M21.3479 44.3502C21.3479 42.9153 21.3671 41.4804 21.3479 40.0455C21.3479 39.5572 21.4824 39.4063 21.9762 39.4118C24.846 39.4301 27.7158 39.4301 30.5856 39.4118C31.074 39.4118 31.2221 39.5462 31.2194 40.0428C31.1974 42.9089 31.1974 45.7778 31.2194 48.6495C31.2194 49.1378 31.0822 49.2887 30.5884 49.2832C27.7204 49.2649 24.8515 49.2649 21.9817 49.2832C21.4933 49.2832 21.337 49.1488 21.3452 48.6522C21.3671 47.2091 21.3479 45.7851 21.3479 44.3502Z" fill="#C2BFCA"/>
<path d="M45.98 39.42C47.4149 39.42 48.8498 39.4392 50.2847 39.42C50.7758 39.42 50.9212 39.5572 50.9184 40.051C50.8965 42.9208 50.8965 45.7897 50.9184 48.6577C50.9184 49.1488 50.7785 49.2969 50.2874 49.2914C47.4176 49.2732 44.5478 49.2732 41.678 49.2914C41.1896 49.2914 41.0415 49.1543 41.0442 48.6604C41.0662 45.7906 41.0662 42.9217 41.0442 40.0538C41.0442 39.5627 41.1841 39.409 41.678 39.42C43.1102 39.4392 44.5451 39.42 45.98 39.42Z" fill="#C2BFCA"/>
<path d="M50.9075 65.7998C50.9075 67.2018 50.8882 68.601 50.9075 70.003C50.9075 70.4968 50.762 70.6368 50.2737 70.634C47.4039 70.6121 44.5341 70.6121 41.6643 70.634C41.1732 70.634 41.0305 70.4886 41.0332 70.0002C41.0552 67.1304 41.0552 64.2606 41.0332 61.3908C41.0332 60.897 41.1787 60.7571 41.6698 60.7598C44.5377 60.7818 47.4066 60.7818 50.2764 60.7598C50.7703 60.7598 50.9157 60.9052 50.9075 61.3936C50.8882 62.8614 50.9075 64.332 50.9075 65.7998Z" fill="#C2BFCA"/>
<path d="M93.6006 82.091C92.7391 82.2089 92.1273 82.6397 91.9901 83.5314C91.8529 84.423 92.3193 84.9416 93.0327 85.3284C92.44 88.0199 90.8213 90.0145 88.6429 91.5674C87.1998 92.5962 85.592 93.3178 83.7675 93.4056C83.5151 92.5468 83.0103 91.9624 82.0555 91.9871C81.1556 92.0091 80.6837 92.588 80.4478 93.4056C79.9869 93.5043 79.5589 93.3205 79.1446 93.1943C75.1307 91.9597 72.2856 89.5069 71.1881 85.3284C71.8987 84.9416 72.3624 84.3791 72.2307 83.5314C72.099 82.6836 71.4817 82.2089 70.6202 82.091C70.7135 78.2335 72.2664 75.1195 75.3941 72.8395C76.9058 71.7421 78.5382 70.9327 80.4505 70.834C80.6837 71.6571 81.1611 72.2277 82.0583 72.2497C83.0103 72.2744 83.5179 71.701 83.7703 70.834C84.0083 70.8079 84.2484 70.8079 84.4864 70.834C87.058 71.3966 89.3616 72.8178 91.0181 74.8637C92.6746 76.9097 93.5854 79.4585 93.6006 82.091ZM75.4928 75.5722C75.1744 75.5948 74.869 75.7082 74.6128 75.8987C74.3566 76.0893 74.1603 76.3491 74.047 76.6477C73.7479 77.3884 74.0086 77.9811 74.5271 78.4996C76.6269 80.6048 78.7303 82.7083 80.8374 84.8099C81.5397 85.515 82.3107 85.6028 83.1447 85.0458C84.7086 84.0032 86.2779 82.9799 87.8253 81.9181C88.7554 81.2816 88.9639 80.3351 88.4207 79.5367C87.8774 78.7383 86.9501 78.5956 85.9844 79.2157C85.0186 79.8357 83.9678 80.4997 83.0103 81.2103C82.4863 81.5944 82.1872 81.5505 81.7345 81.0841C80.1954 79.4845 78.6013 77.9372 77.0375 76.3596C76.615 75.9316 76.1678 75.5859 75.4928 75.5722Z" fill="#EFEEF1"/>
<path d="M80.456 70.8343C78.5355 70.933 76.9113 71.7424 75.3996 72.8398C72.2581 75.1198 70.719 78.2338 70.6257 82.0913C68.8396 82.1873 68.8012 82.1791 69.1442 80.2092C70.1126 74.6424 73.372 71.0757 78.7467 69.4296C80.5054 68.8836 80.5219 68.9412 80.456 70.8343Z" fill="#C2BFCA"/>
<path d="M93.6006 82.0913C93.5835 79.4602 92.6719 76.9133 91.0156 74.869C89.3592 72.8247 87.0567 71.4048 84.4864 70.8425C84.2484 70.8165 84.0083 70.8165 83.7703 70.8425C83.7017 68.9494 83.7017 68.9494 85.5042 69.4323C88.111 70.1404 90.4388 71.6288 92.1753 73.6978C93.9119 75.7668 94.974 78.3175 95.2193 81.0075C95.3263 82.1818 95.3263 82.1818 93.6006 82.0913Z" fill="#C2BFCA"/>
<path d="M71.1881 85.3286C72.302 89.5071 75.1334 91.9599 79.1446 93.1945C79.5589 93.3207 79.9869 93.5045 80.4478 93.4058C80.4341 95.3043 80.9334 95.4223 78.7221 94.7968C73.9153 93.425 70.8452 90.2643 69.3664 85.4493L71.1881 85.3286Z" fill="#C2BFCA"/>
<path d="M83.7703 93.4058C85.5948 93.318 87.2025 92.5827 88.6457 91.5676C90.8213 90.0147 92.4401 88.0201 93.0354 85.3286L94.7694 85.4438C93.7981 90.108 89.2246 94.3605 84.5056 95.0464C83.9706 95.126 83.6523 95.0848 83.7428 94.4264C83.7711 94.087 83.7803 93.7462 83.7703 93.4058Z" fill="#C2BFCA"/>
<path d="M75.4929 75.5723C76.1678 75.5723 76.615 75.9317 77.0348 76.3569C78.5986 77.9345 80.1926 79.4819 81.7318 81.0814C82.179 81.5478 82.4835 81.5917 83.0076 81.2076C83.9651 80.497 84.9775 79.855 85.9816 79.213C86.9858 78.571 87.8692 78.7301 88.4179 79.534C88.9667 80.3379 88.7527 81.2789 87.8226 81.9155C86.2752 82.9772 84.7059 84.0006 83.142 85.0432C82.3189 85.5919 81.537 85.5123 80.8346 84.8072C78.7312 82.7056 76.6278 80.6022 74.5244 78.4969C74.0058 77.9784 73.7452 77.3995 74.0442 76.645C74.1582 76.3466 74.3551 76.087 74.6118 75.8969C74.8685 75.7069 75.1742 75.5942 75.4929 75.5723Z" fill="#010101"/>
</g>
<defs>
<clipPath id="clip0_75_159">
<rect width="105.102" height="105.11" fill="white"/>
</clipPath>
</defs>
</svg>
