<svg width="122" height="101" viewBox="0 0 122 101" fill="none" xmlns="http://www.w3.org/2000/svg">
<g clip-path="url(#clip0_79_220)">
<path d="M58.282 99.2359C58.0687 100.334 57.4445 100.95 56.2503 100.947C49.3878 100.928 42.5157 101.135 35.666 100.853C25.6604 100.44 17.1706 92.2667 16.1675 82.4917C16.0783 81.6127 16.2917 80.3302 15.7981 79.958C15.1931 79.4982 13.9925 79.7985 13.0467 79.7735C11.8972 79.7453 10.7348 79.8235 9.60114 79.6796C4.97411 79.0947 1.68774 75.829 0.477639 70.7523C0.356629 70.2518 0.458532 69.67 -3.05176e-05 69.2696V63.8863C0.445794 63.5297 0.347109 62.9823 0.471303 62.5225C1.4553 58.8158 3.26088 55.7316 7.06313 54.2052C7.70002 53.9518 7.6204 53.5546 7.61403 53.101C7.5599 49.5914 7.665 46.0943 8.46111 42.6441C10.4705 33.9107 15.4669 27.173 22.7339 21.9555C30.1441 16.6379 38.5543 13.7226 47.5122 12.1711C48.3232 11.9836 49.1487 11.8633 49.9802 11.8114C51.1871 11.8114 51.5724 11.3547 51.703 10.1317C52.1615 5.82128 56.0084 2.57128 60.4188 2.58379C62.5824 2.58656 64.6685 3.37477 66.2762 4.79692C67.8839 6.21906 68.8997 8.17478 69.1283 10.2881C69.2334 11.3359 69.52 11.6988 70.6378 11.7832C72.4052 11.9209 74.1407 12.3213 75.9081 12.6466C76.4654 12.7498 76.7774 12.7467 77.064 12.1054C80.4491 4.59823 86.299 0.516187 94.6805 0.159595C98.4795 -0.00306126 102.323 -0.187625 106.09 0.441103C114.908 1.91439 121.768 9.73126 121.994 18.5053C122.204 26.7445 118.733 32.9285 111.361 36.9355C110.889 37.1889 110.756 37.3578 110.975 37.902C112.924 42.7285 113.431 47.7803 113.303 52.9164C113.303 53.6546 113.453 54.0582 114.217 54.4116C117.777 56.057 119.535 59.0817 120.331 62.6946C121.366 67.3866 120.828 71.8565 117.921 75.8322C116.042 78.4097 113.392 79.6671 110.179 79.7453C108.711 79.7828 107.24 79.7953 105.772 79.7453C105.008 79.7171 104.817 79.933 104.766 80.6837C104.221 89.4077 99.8648 95.6199 91.8145 99.3047C89.114 100.54 86.213 100.975 83.2482 100.975C77.2519 100.975 71.2587 100.947 65.2624 100.925C63.6702 100.925 63.3167 100.65 62.874 99.2109C63.0556 97.9596 63.8294 97.4029 65.0872 97.406C70.9626 97.406 76.8443 97.2715 82.7133 97.4529C92.687 97.7657 101.072 90.1615 101.183 80.3302C101.285 71.87 101.285 63.4078 101.183 54.9434C101.126 49.3599 99.2725 44.3363 95.7696 39.8977C95.5716 39.615 95.3047 39.3855 94.9931 39.2303C94.6816 39.0751 94.3354 38.9992 93.9862 39.0094C92.402 38.9381 90.8236 39.2428 89.3847 39.8977C88.0632 40.5233 86.6811 41.005 85.3118 41.5211C83.2132 42.3125 81.9681 41.4836 81.949 39.3003C81.949 37.7801 81.9299 36.2598 81.914 34.7396C81.9562 34.3928 81.8776 34.0422 81.691 33.7449C79.2294 30.4199 78.8696 30.2322 74.6534 30.2291H46.0696C44.0453 30.1949 42.0232 30.3753 40.0383 30.7671C27.8991 33.3477 19.6131 43.3667 19.5653 55.5627C19.5335 63.633 19.5335 71.7043 19.5653 79.7766C19.5876 89.9176 27.5265 97.5686 37.8442 97.456C43.8373 97.3903 49.8305 97.4216 55.8268 97.4185C57.4191 97.4247 57.884 97.7876 58.282 99.2359ZM85.5092 37.6581C86.5728 37.242 87.5505 36.9292 88.4612 36.4851C90.038 35.7487 91.7782 35.4142 93.5213 35.5122C96.3396 35.5904 99.161 35.5373 101.979 35.5341C110.631 35.5185 117.125 29.9694 118.319 21.5739C119.5 13.2784 113.908 5.48033 105.581 3.95699C101.734 3.25319 97.8235 3.61916 93.9353 3.6911C92.1058 3.76039 90.3096 4.19349 88.6555 4.9642C78.1467 9.56861 75.8635 23.6884 84.3724 31.3645C85.1717 32.084 85.5857 32.8347 85.5347 33.9013C85.4646 35.1025 85.5092 36.313 85.5092 37.6581ZM48.821 26.7257C52.4672 26.7257 55.1263 26.7257 57.7853 26.7257C58.368 26.7257 58.6292 26.6318 58.6132 25.975C58.5655 24.142 58.5718 22.309 58.6132 20.476C58.6132 19.8816 58.3871 19.7159 57.8426 19.5563C55.8427 18.9683 54.1645 17.8484 53.0882 16.078C52.5914 15.2678 52.0851 15.0645 51.1966 15.1834C43.1526 16.25 35.4558 18.3833 28.4372 22.481C16.8458 29.2469 10.7285 39.0844 11.1679 52.5505C11.1902 53.2918 11.3303 53.589 12.1423 53.5327C13.1324 53.4592 14.1266 53.4592 15.1166 53.5327C15.9159 53.589 16.1134 53.2762 16.1803 52.5505C17.2375 41.2208 25.2178 31.5929 36.3793 28.0582C40.7771 26.685 45.2894 26.66 48.821 26.7257ZM15.9669 66.6202C15.9669 63.7362 15.9478 60.849 15.9669 57.965C15.9669 57.2831 15.8331 56.9922 15.0593 57.0266C13.6327 57.0892 12.1933 57.0642 10.773 57.0266C8.26368 56.9828 6.3753 58.0808 5.21297 60.1922C2.87239 64.4494 2.91377 68.7848 5.23206 73.0326C6.39121 75.1534 8.33373 76.2012 10.8049 76.2263C12.1933 76.2419 13.5849 76.1856 14.9701 76.2482C15.7726 76.2857 15.9669 76.0136 15.9542 75.2597C15.9542 72.3914 15.9796 69.5042 15.9796 66.6202H15.9669ZM104.794 66.6703C104.794 69.5543 104.813 72.4414 104.794 75.3254C104.794 76.0136 104.941 76.2951 105.708 76.2638C107.135 76.2044 108.574 76.2638 109.995 76.2388C111.05 76.2533 112.092 76.0022 113.02 75.5094C113.949 75.0166 114.734 74.2986 115.3 73.4236C117.812 69.7764 117.847 63.5235 115.332 59.8731C114.096 58.0745 112.418 57.0579 110.157 57.0579C108.689 57.0579 107.218 57.0986 105.753 57.036C104.944 56.9985 104.769 57.2894 104.778 58.0276C104.829 60.9022 104.807 63.7862 104.807 66.6703H104.794ZM69.5678 26.7257V26.7476C71.746 26.7476 73.9273 26.7476 76.1087 26.7476C76.5481 26.7476 76.9271 26.7664 76.701 26.1439C75.6087 23.1504 75.4463 20.0631 75.7775 16.9319C75.8316 16.4064 75.6947 16.1968 75.1215 16.0936C73.1376 15.7308 71.1536 15.3867 69.1442 15.1552C68.901 15.0991 68.6455 15.128 68.4217 15.2371C68.1979 15.3461 68.0198 15.5285 67.9182 15.7527C66.8225 17.6348 65.0122 19.0138 62.8836 19.5876C62.2467 19.7596 62.1766 20.0318 62.183 20.5479C62.2021 22.3402 62.2212 24.1326 62.183 25.9218C62.1639 26.6006 62.3837 26.7632 63.046 26.7507C65.2178 26.7007 67.3991 26.7257 69.5805 26.7257H69.5678ZM99.7947 39.0438C99.7501 39.1939 99.7151 39.2408 99.731 39.2658C99.8266 39.4347 99.9327 39.6005 100.049 39.7632C102.407 43.3259 103.94 47.3536 104.54 51.562C104.836 53.5264 104.858 53.5264 106.896 53.5264C109.682 53.5264 109.651 53.5264 109.673 50.8301C109.737 46.896 109.049 42.985 107.644 39.3003C107.507 38.9531 107.507 38.4088 106.816 38.5683C104.501 39.1032 102.132 39.0657 99.8075 39.0438H99.7947ZM60.4029 16.4033C61.7841 16.4017 63.109 15.8657 64.0907 14.9114C65.0724 13.9571 65.6318 12.6613 65.6477 11.3047C65.6393 9.92678 65.0777 8.60782 64.0849 7.63438C63.0921 6.66093 61.7483 6.11167 60.3456 6.10593C58.965 6.1284 57.6473 6.67643 56.6701 7.63457C55.6929 8.5927 55.1325 9.88608 55.1071 11.2421C55.1067 11.9245 55.244 12.6002 55.5113 13.23C55.7786 13.8599 56.1705 14.4314 56.6643 14.9115C57.158 15.3915 57.7438 15.7706 58.3878 16.0267C59.0317 16.2827 59.721 16.4107 60.4156 16.4033H60.4029Z" fill="#040303"/>
<path d="M58.282 99.2359C57.884 97.7782 57.4286 97.4248 55.8364 97.4279C49.8401 97.4279 43.8469 97.3997 37.8537 97.4654C27.5488 97.578 19.5972 89.9269 19.5749 79.786C19.5558 71.7157 19.5558 63.6444 19.5749 55.5721C19.6227 43.3729 27.9086 33.3633 40.0478 30.7765C42.0327 30.3847 44.0549 30.2043 46.0792 30.2384H74.6629C78.8792 30.2384 79.239 30.4293 81.7006 33.7543C81.8872 34.0516 81.9658 34.4022 81.9235 34.749C81.9235 36.2692 81.9426 37.7894 81.9586 39.3096C81.9777 41.4992 83.2323 42.3219 85.3213 41.5305C86.6907 41.0144 88.0727 40.5202 89.3943 39.9071C90.8332 39.2522 92.4116 38.9475 93.9958 39.0187C94.345 39.0086 94.6912 39.0845 95.0027 39.2397C95.3142 39.3949 95.5812 39.6244 95.7791 39.9071C99.2597 44.3457 101.126 49.3693 101.193 54.9528C101.284 63.413 101.284 71.8753 101.193 80.3396C101.072 90.1709 92.687 97.7657 82.7228 97.4623C76.8538 97.2809 70.9721 97.4217 65.0968 97.4154C63.8453 97.4154 63.0651 97.9565 62.8836 99.2202L58.282 99.2359ZM62.7976 47.7396H58.2184C57.833 46.3195 57.4191 45.9785 55.8619 45.9754C50.0704 45.9629 44.2757 45.9629 38.4779 45.9754C37.6049 45.9704 36.7336 46.0489 35.8762 46.21C30.0613 47.3861 26.2049 52.0312 26.1572 57.9838C26.1126 63.8707 26.1572 69.7607 26.1572 75.6476C26.1414 76.4261 26.2011 77.2044 26.3355 77.9717C27.4947 83.8305 32.386 87.6936 38.6849 87.7061C50.7498 87.7248 62.8157 87.7248 74.8827 87.7061C77.4302 87.7061 79.9778 87.7467 82.5031 87.7061C89.3783 87.5622 94.5404 82.6293 94.6327 75.9729C94.7219 69.7388 94.7283 63.4985 94.6104 57.2612C94.4958 51.318 89.5407 46.2757 83.4871 46.0849C77.2997 45.8878 71.1059 45.9942 64.9153 45.9723C63.702 45.9723 62.9791 46.5478 62.7976 47.7396Z" fill="#E43C5C"/>
<path d="M85.5092 37.6581C85.5092 36.3131 85.4647 35.1025 85.5092 33.9045C85.5602 32.8379 85.1462 32.0871 84.3469 31.3677C75.8381 23.6916 78.1372 9.57181 88.63 4.96739C90.2842 4.19668 92.0804 3.76358 93.9099 3.69429C97.7981 3.62235 101.709 3.25637 105.555 3.96017C113.892 5.4835 119.484 13.2816 118.293 21.5771C117.099 29.9726 110.606 35.5217 101.954 35.5373C99.1356 35.5373 96.3142 35.5936 93.4959 35.5154C91.7528 35.4174 90.0126 35.7519 88.4358 36.4883C87.5505 36.9293 86.5729 37.2421 85.5092 37.6581ZM100.206 21.5114C96.8746 21.5114 93.5437 21.5114 90.2127 21.5114C88.837 21.5114 88.025 22.1964 88.0409 23.285C88.0568 24.3735 88.8721 25.0179 90.27 25.021H110.014C111.409 25.021 112.224 24.3735 112.243 23.3006C112.262 22.2277 111.421 21.5145 109.966 21.5114C106.709 21.5072 103.456 21.5072 100.206 21.5114ZM97.5784 13.3098C95.1582 13.3098 92.7412 13.3098 90.321 13.3098C88.837 13.3098 88.0154 13.9573 88.0377 15.0802C88.06 16.1531 88.8848 16.8163 90.2669 16.8163C95.103 16.8163 99.9402 16.8163 104.778 16.8163C106.186 16.8163 106.979 16.1719 107.008 15.0771C107.036 13.9823 106.234 13.316 104.845 13.3098C102.416 13.3035 99.9954 13.3098 97.5784 13.3098Z" fill="#FAD59E"/>
<path d="M15.9797 66.6202C15.9797 69.5042 15.9542 72.3914 15.9956 75.2754C15.9956 76.0292 15.8141 76.3014 15.0116 76.2638C13.6263 76.2013 12.2347 76.2638 10.8463 76.2419C8.37517 76.2169 6.43264 75.169 5.2735 73.0483C2.95521 68.8004 2.91379 64.465 5.25437 60.2078C6.4167 58.0964 8.30511 56.9985 10.8145 57.0423C12.2411 57.0642 13.6805 57.0892 15.1007 57.0423C15.8746 57.0079 16.0147 57.2988 16.0083 57.9807C15.9733 60.8647 16.0083 63.7518 16.0083 66.6359L15.9797 66.6202Z" fill="#004999"/>
<path d="M104.807 66.6703C104.807 63.7862 104.829 60.9022 104.807 58.0182C104.807 57.28 104.973 56.9891 105.782 57.0266C107.246 57.0892 108.718 57.0517 110.186 57.0485C112.447 57.0485 114.125 58.0589 115.36 59.8637C117.863 63.5141 117.841 69.767 115.329 73.4142C114.762 74.2892 113.978 75.0073 113.049 75.5C112.12 75.9928 111.079 76.2439 110.023 76.2294C108.593 76.2513 107.157 76.195 105.737 76.2545C104.969 76.2857 104.813 76.0042 104.823 75.3161C104.855 72.432 104.823 69.5449 104.823 66.6609L104.807 66.6703Z" fill="#004999"/>
<path d="M60.4157 16.4033C59.7221 16.4091 59.0341 16.2799 58.3917 16.023C57.7492 15.7662 57.1649 15.3869 56.6725 14.907C56.1801 14.4271 55.7894 13.8562 55.5229 13.2272C55.2564 12.5981 55.1195 11.9235 55.1199 11.2421C55.1453 9.88611 55.7057 8.59273 56.6829 7.6346C57.6601 6.67647 58.9778 6.12843 60.3583 6.10596C61.7611 6.1117 63.1049 6.66097 64.0977 7.63441C65.0905 8.60785 65.6521 9.92682 65.6605 11.3047C65.6446 12.6613 65.0852 13.9571 64.1035 14.9114C63.1218 15.8658 61.7968 16.4018 60.4157 16.4033Z" fill="#E43C5C"/>
<path d="M58.2184 47.7397H62.7976C63.1607 49.1818 63.6096 49.5227 65.2496 49.5227C70.8447 49.5227 76.443 49.5227 82.0413 49.5227C87.5473 49.5227 91.0438 52.9635 91.0566 58.3437C91.0693 63.997 91.0693 69.6503 91.0566 75.3037C91.0566 80.6713 87.5123 84.1841 82.0668 84.1903C67.6178 84.2049 53.1689 84.2049 38.7199 84.1903C33.2776 84.1903 29.7333 80.6682 29.7238 75.3099C29.711 69.6545 29.711 64.0001 29.7238 58.3468C29.7035 57.5685 29.7686 56.7904 29.918 56.0258C30.832 52.0626 34.1438 49.5477 38.5001 49.5258C44.2545 49.4977 50.012 49.5258 55.7663 49.5258C57.4191 49.5258 57.8649 49.1755 58.2184 47.7397ZM75.9749 69.8485C76.9389 69.8485 77.8934 69.6616 78.7837 69.2984C79.674 68.9353 80.4825 68.4031 81.163 67.7324C81.8434 67.0617 82.3824 66.2656 82.749 65.3899C83.1156 64.5141 83.3026 63.5759 83.2992 62.629C83.2802 60.7397 82.5085 58.9328 81.1495 57.5956C79.7906 56.2584 77.9525 55.4973 76.029 55.4753C74.085 55.4752 72.2195 56.2284 70.8374 57.5713C69.4554 58.9142 68.6684 60.7384 68.6475 62.6478C68.6508 64.5563 69.4237 66.3857 70.797 67.7358C72.1702 69.0858 74.032 69.8466 75.9749 69.8516V69.8485ZM52.9003 62.6822C52.8944 60.7759 52.1209 58.9493 50.7486 57.6014C49.3763 56.2534 47.5168 55.4936 45.5761 55.4878C43.6341 55.4994 41.7763 56.2681 40.4111 57.6248C39.046 58.9816 38.2853 60.8153 38.2963 62.7229C38.303 64.6118 39.0691 66.4217 40.4277 67.7586C41.7863 69.0955 43.6275 69.8511 45.5506 69.861C46.5129 69.8642 47.4665 69.6812 48.3569 69.3223C49.2472 68.9634 50.0567 68.4357 50.7393 67.7693C51.4219 67.1029 51.9641 66.3109 52.3349 65.4385C52.7057 64.5662 52.8978 63.6307 52.9003 62.6853V62.6822ZM60.5749 79.0573C63.0046 78.9509 65.1446 78.1689 66.8928 76.4673C67.7558 75.6259 67.8291 74.6437 67.1157 73.8742C66.4024 73.1047 65.4375 73.0891 64.4727 73.8742C61.7308 76.0638 59.3457 76.0638 56.6739 73.9149C55.6549 73.0922 54.6836 73.0953 53.948 73.9149C53.2761 74.6718 53.378 75.6853 54.2442 76.5111C55.9443 78.1257 58.2102 79.0382 60.5749 79.0604V79.0573Z" fill="#F6F4F4"/>
<path d="M58.2184 47.7393C57.8649 49.1719 57.4095 49.5223 55.7695 49.5223C50.0152 49.5223 44.2577 49.5035 38.5033 49.5223C34.147 49.5442 30.8352 52.0591 29.9212 56.0222C29.7718 56.7868 29.7067 57.565 29.727 58.3432C29.7121 63.9987 29.7121 69.653 29.727 75.3064C29.727 80.6646 33.2808 84.1805 38.7231 84.1868C53.1721 84.2014 67.621 84.2014 82.07 84.1868C87.5154 84.1868 91.0502 80.6678 91.0597 75.3001C91.0597 69.6468 91.0597 63.9934 91.0597 58.3401C91.0597 52.9537 87.5568 49.5317 82.0445 49.5191C76.4462 49.5191 70.8479 49.5191 65.2528 49.5191C63.6128 49.5191 63.1638 49.1782 62.8008 47.7362C62.9823 46.5413 63.7052 45.9657 64.9185 45.972C71.1091 45.9939 77.3028 45.8875 83.4903 46.0846C89.5407 46.2754 94.499 51.3052 94.6136 57.2609C94.7314 63.4982 94.7251 69.7385 94.6359 75.9726C94.5435 82.629 89.3815 87.5462 82.5063 87.7058C79.9587 87.7558 77.4111 87.7058 74.8858 87.7058C62.821 87.7058 50.7551 87.7058 38.6881 87.7058C32.3796 87.7058 27.4978 83.8302 26.3387 77.9714C26.2043 77.2041 26.1445 76.4258 26.1603 75.6473C26.1603 69.7604 26.1158 63.8704 26.1603 57.9835C26.2081 52.0403 30.0645 47.3858 35.8793 46.2097C36.7367 46.0486 37.6081 45.9701 38.4811 45.9751C44.2768 45.9543 50.0714 45.9543 55.865 45.9751C57.4191 45.9814 57.833 46.3223 58.2184 47.7393Z" fill="#040303"/>
<path d="M100.206 21.5111C103.454 21.5111 106.704 21.5111 109.956 21.5111C111.412 21.5111 112.252 22.1867 112.233 23.3003C112.214 24.4139 111.396 25.0176 110.004 25.0207H90.2604C88.872 25.0207 88.0568 24.3669 88.0313 23.2847C88.0058 22.2024 88.8274 21.5142 90.2031 21.5111C93.5436 21.5048 96.8746 21.5111 100.206 21.5111Z" fill="#040303"/>
<path d="M97.5784 13.3095C99.9954 13.3095 102.416 13.3095 104.833 13.3095C106.221 13.3095 107.014 13.9758 106.995 15.0768C106.976 16.1779 106.186 16.8129 104.766 16.816C99.9275 16.816 95.0902 16.816 90.2541 16.816C88.872 16.816 88.0473 16.1529 88.025 15.08C88.0027 13.957 88.8243 13.3126 90.3083 13.3095C92.7412 13.3064 95.1582 13.3095 97.5784 13.3095Z" fill="#040303"/>
<path d="M75.975 69.8513C74.0343 69.8455 72.1747 69.0857 70.8024 67.7377C69.4301 66.3898 68.6566 64.5632 68.6507 62.6569C68.6717 60.7475 69.4586 58.9232 70.8406 57.5803C72.2227 56.2374 74.0883 55.4843 76.0323 55.4844C77.9557 55.5064 79.7938 56.2675 81.1528 57.6047C82.5117 58.9419 83.2834 60.7488 83.3024 62.6381C83.3049 63.5847 83.1172 64.5226 82.7501 65.3978C82.3829 66.273 81.8435 67.0685 81.1628 67.7386C80.4821 68.4087 79.6735 68.9402 78.7832 69.3028C77.893 69.6653 76.9387 69.8517 75.975 69.8513ZM75.7902 66.3104C76.7696 66.3541 77.7273 66.0178 78.4565 65.374C79.1857 64.7303 79.6281 63.8308 79.6881 62.8696C79.7252 61.8859 79.3652 60.9277 78.6865 60.2036C78.0077 59.4795 77.0652 59.0481 76.0641 59.0034C75.0827 58.9954 74.1357 59.3587 73.4195 60.0179C72.7034 60.6771 72.2729 61.5817 72.2173 62.5443C72.1938 63.5061 72.5545 64.4388 73.2223 65.1427C73.89 65.8466 74.8118 66.2657 75.7902 66.3104Z" fill="#040303"/>
<path d="M52.9004 62.685C52.8966 63.6297 52.7034 64.5646 52.3318 65.436C51.9603 66.3075 51.4176 67.0985 50.7349 67.7639C50.0521 68.4294 49.2425 68.9562 48.3525 69.3144C47.4624 69.6725 46.5092 69.8549 45.5474 69.8512C43.6244 69.8413 41.7832 69.0857 40.4245 67.7488C39.0659 66.412 38.2999 64.602 38.2932 62.7131C38.2822 60.8055 39.0429 58.9718 40.408 57.615C41.7731 56.2583 43.6309 55.4896 45.5729 55.478C47.5164 55.483 49.3786 56.2442 50.752 57.5949C52.1253 58.9457 52.8978 60.7759 52.9004 62.685ZM41.8789 62.685C41.8747 63.162 41.9667 63.6352 42.1497 64.0771C42.3326 64.5191 42.6029 64.9211 42.9449 65.2599C43.2868 65.5987 43.6937 65.8676 44.142 66.0511C44.5904 66.2346 45.0713 66.3291 45.557 66.3291C46.5385 66.3383 47.484 65.966 48.1873 65.2933C48.8906 64.6207 49.2947 63.7022 49.3115 62.7381C49.3132 61.7544 48.9187 60.8099 48.2141 60.1108C47.5095 59.4117 46.552 59.0147 45.5506 59.0064C44.5728 59.0268 43.6419 59.4214 42.956 60.1062C42.2702 60.791 41.8836 61.7118 41.8789 62.6724V62.685Z" fill="#040303"/>
<path d="M60.5749 79.0604C58.2078 79.0423 55.9381 78.1319 54.2346 76.5174C53.3685 75.6916 53.2793 74.6781 53.9385 73.9211C54.6741 73.0891 55.6454 73.0859 56.6644 73.9211C59.3361 76.0763 61.7213 76.0638 64.4631 73.8804C65.4185 73.111 66.3738 73.1172 67.1062 73.8804C67.8387 74.6437 67.7431 75.6321 66.8833 76.4736C65.1446 78.1721 63.0047 78.9541 60.5749 79.0604Z" fill="#040303"/>
<path d="M75.7902 66.3107C74.8101 66.266 73.8869 65.8455 73.2189 65.1396C72.5508 64.4337 72.1912 63.4986 72.2173 62.5352C72.2729 61.5726 72.7033 60.668 73.4195 60.0088C74.1357 59.3496 75.0827 58.9863 76.0641 58.9943C77.0652 59.039 78.0077 59.4704 78.6864 60.1945C79.3652 60.9186 79.7252 61.8769 79.688 62.8605C79.6304 63.8234 79.1891 64.7253 78.4597 65.371C77.7302 66.0167 76.7712 66.3543 75.7902 66.3107Z" fill="#E43C5C"/>
<path d="M41.8789 62.6727C41.8803 61.7099 42.2653 60.7859 42.9515 60.0984C43.6377 59.4109 44.5706 59.0146 45.5506 58.9941C46.552 59.0024 47.5095 59.3994 48.2141 60.0985C48.9187 60.7976 49.3131 61.7421 49.3114 62.7258C49.2947 63.6899 48.8906 64.6084 48.1873 65.2811C47.484 65.9537 46.5385 66.326 45.5569 66.3168C45.0712 66.3168 44.5903 66.2223 44.142 66.0388C43.6937 65.8553 43.2868 65.5864 42.9448 65.2476C42.6029 64.9088 42.3326 64.5068 42.1496 64.0648C41.9667 63.6229 41.8747 63.1497 41.8789 62.6727Z" fill="#E43C5C"/>
</g>
<defs>
<clipPath id="clip0_79_220">
<rect width="122" height="101" fill="white"/>
</clipPath>
</defs>
</svg>
