<svg width="106" height="107" viewBox="0 0 106 107" fill="none" xmlns="http://www.w3.org/2000/svg">
<g clip-path="url(#clip0_75_161)">
<path d="M17.7726 107C18.0527 105.188 17.9547 103.37 17.9715 101.539C17.9715 100.846 18.1816 100.676 18.8566 100.701C20.5065 100.757 20.5233 100.721 20.4757 102.332C20.4308 103.89 20.3524 105.445 20.288 107.003L17.7726 107Z" fill="#040404"/>
<path d="M65.8554 106.746C63.4521 106.81 63.4465 106.81 63.4073 104.451C63.3401 100.24 63.2794 96.029 63.2252 91.8167C63.2056 90.2336 63.4885 89.9097 65.0823 89.9097C65.6929 89.9097 65.8302 89.7198 65.8134 89.1447C65.763 87.2321 65.7686 85.3168 65.7434 83.4042C65.7434 82.7955 65.7434 82.1227 66.2419 81.7625C67.0458 81.1761 66.8302 80.6847 66.3932 80.0119C65.6299 78.8422 65.1354 77.5189 64.9451 76.1365C64.8442 75.4022 64.5865 75.3938 64.0039 75.6535C63.242 75.9913 62.4745 76.2705 61.9199 76.9629C61.5978 77.3706 61.0796 77.566 60.6006 77.7782C56.0872 79.7885 51.5785 81.8044 47.0744 83.8258C46.2537 84.1971 45.4778 84.3982 44.7467 83.7225C44.0156 83.0468 44.1473 82.2064 44.5002 81.3325C45.022 80.1078 45.1562 78.7536 44.8849 77.4508C44.6136 76.1481 43.9497 74.9589 42.9821 74.0424C42.0244 73.1455 40.822 72.5509 39.5262 72.3333C38.2304 72.1157 36.899 72.2849 35.6993 72.8195C34.521 73.3641 33.5281 74.2402 32.8428 75.34C32.1575 76.4398 31.8097 77.7153 31.8423 79.0095C31.8955 80.869 32.7554 82.3404 34.0831 83.5633C34.8002 84.2223 35.5817 84.8142 36.324 85.434C37.6096 86.495 37.4584 88.106 35.9346 88.7845C30.4502 91.2611 24.9405 93.6762 19.4645 96.1667C18.5961 96.5604 18.6073 95.9126 18.4253 95.5078C14.1509 86.0148 9.88396 76.5171 5.6245 67.0148C3.99056 63.374 2.35661 59.7322 0.722668 56.0895C-0.843117 52.5939 0.109238 50.0196 3.60214 48.4393C4.18756 48.174 4.44246 47.9144 4.12594 47.2973C3.34725 45.8064 3.59094 44.3294 4.04191 42.777C5.02788 39.3763 5.91861 35.9476 6.78974 32.5162C7.11913 31.2007 7.68164 29.9545 8.45075 28.8362C8.67764 28.5068 8.8513 28.236 8.45075 27.8674C7.89054 27.3676 7.82052 26.6584 7.81212 25.9465C7.78691 24.0674 7.73649 22.1884 7.74489 20.3065C7.74489 19.7481 7.58523 19.6225 7.04183 19.6169C5.29397 19.5973 5.04748 19.3237 5.02787 17.6206C4.96065 12.1565 4.91023 6.69245 4.80379 1.22839C4.78419 0.31818 4.95505 -0.139718 5.96342 0.0194292C6.41396 0.0623548 6.86692 0.0744813 7.31913 0.0557252C7.38635 5.48348 7.46478 10.9112 7.504 16.339C7.504 16.9728 7.65805 17.2045 8.3163 17.1459C9.32468 17.0594 10.3359 17.0203 11.347 17.0147C20.7333 16.9728 30.114 16.9225 39.5088 16.9309C40.4975 16.9309 40.7076 16.6517 40.6908 15.7108C40.5956 10.4924 40.5648 5.27408 40.5143 0.0557252C42.9568 -0.0587491 42.9596 -0.0587492 42.9933 2.37872C43.0567 7.42675 43.1193 12.4748 43.1809 17.5228C43.2005 18.9998 42.9484 19.293 41.4331 19.3153C40.7384 19.3153 40.5704 19.5555 40.5928 20.22C40.6516 22.099 40.6292 23.9809 40.6544 25.8599C40.6544 26.5105 40.5956 27.1778 40.0942 27.591C39.4443 28.1243 39.4471 28.5291 39.9485 29.1713C40.3545 29.6957 40.649 30.297 40.814 30.9387C41.0185 31.7456 41.5563 31.7539 42.0521 31.4971C45.6795 29.6571 49.5225 28.3197 53.2563 26.7031C55.0406 25.9269 56.8444 25.1898 58.7603 24.3829C56.3514 22.9394 54.8613 20.9291 54.2787 18.2879C53.8462 16.3012 54.1267 14.2262 55.0714 12.4245C56.9341 8.73902 61.116 6.73153 65.0571 7.64175C69.9365 8.75857 71.9337 11.9164 72.0905 18.8379L78.4461 16.1966C81.5273 14.9151 84.6084 13.6447 87.6896 12.3268C88.3114 12.0616 88.5607 12.1258 88.8296 12.7763C94.3869 26.0665 99.9553 39.3521 105.535 52.6329C106.748 55.5339 105.566 58.3511 102.63 59.5656C101.868 59.8811 101.594 60.1827 101.992 60.984C103.036 63.092 102.871 65.186 102.151 67.4057C101.157 70.477 100.42 73.6264 99.6304 76.7591C99.2955 78.0743 98.7263 79.3189 97.9498 80.4335C97.7089 80.7853 97.6165 81.0338 98.003 81.3883C98.5632 81.8909 98.6248 82.6057 98.6304 83.3177C98.6472 85.1967 98.6921 87.0785 98.6809 88.9576C98.6809 89.516 98.8321 89.65 99.3867 89.65C101.185 89.65 101.378 89.8902 101.403 91.719C101.468 96.3147 101.499 100.91 101.633 105.503C101.664 106.542 101.353 106.869 100.387 106.76C99.969 106.733 99.5501 106.728 99.1318 106.746C99.0562 102.189 98.9582 97.6325 98.9274 93.0647C98.9274 92.2718 98.7033 92.0903 97.9358 92.107C94.0293 92.1945 90.1209 92.2485 86.2106 92.269C79.7178 92.3137 73.2259 92.3341 66.7349 92.3304C65.8946 92.3304 65.6929 92.5733 65.7265 93.3746C65.805 95.1476 65.7798 96.9233 65.7966 98.6991C65.8152 101.385 65.8349 104.067 65.8554 106.746ZM51.3572 46.7166C54.7997 42.428 58.7183 41.1325 62.8415 42.858C66.6677 44.455 68.8385 48.2969 68.2811 52.5855C68.0134 54.4608 67.1391 56.1979 65.791 57.533C63.3709 60.071 60.2645 60.3055 56.9397 60.0459C58.7351 64.3093 60.4914 68.422 62.1944 72.5682C62.5053 73.3249 62.7546 73.5287 63.595 73.1713C71.4827 69.8348 79.3957 66.5541 87.303 63.2623C88.0136 62.9752 88.693 62.6169 89.331 62.193C89.6839 61.9528 89.8548 61.7574 89.7623 61.2772C89.4402 59.5684 89.1573 57.8513 88.922 56.1286C88.6419 53.9703 87.9473 51.8428 88.3898 49.6175C88.8744 47.1968 89.8884 45.2033 92.4821 44.4466C94.8518 43.757 96.7089 44.7426 97.4624 47.0795C98.5072 50.3183 99.5744 53.5515 100.591 56.7987C100.804 57.4716 101.056 57.5693 101.686 57.2817C103.409 56.4999 103.863 55.1486 103.011 53.116C97.8574 40.8123 92.709 28.5059 87.5663 16.1966C87.2358 15.4037 86.9725 15.2892 86.1658 15.6382C81.5581 17.6094 76.9223 19.5136 72.2838 21.4178C70.5472 22.1297 69.2895 21.1385 69.4828 19.2846C69.5584 18.5224 69.6172 17.7574 69.6256 16.9923C69.6424 15.4846 69.5052 14.0104 68.5948 12.7093C67.8183 11.605 66.722 10.7634 65.4526 10.2969C64.1832 9.83035 62.8012 9.76124 61.4914 10.0988C60.1858 10.4525 59.0188 11.1932 58.1449 12.2228C57.2711 13.2524 56.7316 14.5223 56.5979 15.8644C56.4857 17.1908 56.7775 18.5202 57.4351 19.6788C58.0927 20.8374 59.0856 21.7714 60.2841 22.3587C60.6286 22.5262 60.9956 22.6379 61.3457 22.7942C61.6615 22.905 61.9359 23.1093 62.1321 23.3797C62.3283 23.6502 62.437 23.9739 62.4437 24.3075C62.4702 24.64 62.394 24.9726 62.2252 25.2606C62.0565 25.5486 61.8033 25.7782 61.4998 25.9185C61.1945 26.0833 60.8639 26.1978 60.5446 26.3374C55.822 28.3058 51.0939 30.263 46.3797 32.2509C46.0296 32.3961 45.3265 32.3431 45.6767 33.1639C47.5674 37.6424 49.4245 42.1404 51.3572 46.7222V46.7166ZM47.3909 80.8383C47.4837 80.8527 47.5782 80.8527 47.671 80.8383C51.7437 79.0235 55.8183 77.2096 59.8948 75.3966C60.5502 75.1174 60.5082 74.7405 60.2645 74.1709C58.3355 69.6254 56.4224 65.0725 54.5252 60.5121C53.6849 58.4795 54.8053 56.9523 57.0237 57.0891C57.7184 57.1337 58.4242 57.237 59.1105 57.2175C62.679 57.117 65.0487 55.4808 65.8078 52.6385C66.6481 49.4947 64.7574 46.0632 61.5838 44.9688C59.9963 44.4151 58.2561 44.4906 56.7229 45.1796C55.1897 45.8687 53.9808 47.1186 53.3459 48.671C52.9678 49.5756 52.6205 50.43 51.4328 50.4244C50.2452 50.4188 49.881 49.5338 49.5197 48.6431C47.657 44.0697 45.5982 39.5801 43.5647 35.0821C43.0353 33.9122 42.6207 33.7614 41.4303 34.2863C34.9356 37.1677 28.439 40.0482 21.9406 42.9278C21.1357 43.252 20.4373 43.7935 19.9238 44.4913C19.2343 45.4617 18.3489 46.2776 17.3245 46.8869C16.7334 47.2275 16.6186 47.6268 16.725 48.2494C17.1424 50.645 17.4841 53.0545 17.9295 55.4445C18.3749 57.8345 18.3076 60.0738 17.162 62.2432C16.2013 64.058 14.1257 65.2363 12.1425 64.999C10.1594 64.7616 9.28547 63.4298 8.75047 61.6485C7.70848 58.1863 6.53204 54.7689 5.47604 51.3179C5.24076 50.5529 4.97186 50.4803 4.31361 50.8097C2.63298 51.6194 2.07277 52.9708 2.83466 54.6739C8.46476 67.2214 14.0977 79.7727 19.7334 92.3276C20.0387 93.0117 20.3468 93.0759 20.991 92.7799C23.7137 91.5291 26.4587 90.3229 29.1953 89.1L34.0719 86.9138C28.4362 82.4465 28.6183 77.9792 30.5986 74.3496C32.579 70.7199 36.9682 69.0056 40.9345 70.1391C45.4778 71.4235 47.6682 75.0364 47.3909 80.8439V80.8383ZM84.7793 67.0483C79.0595 69.4355 73.3846 71.8116 67.6929 74.1625C67.1887 74.3691 67.2139 74.693 67.2699 75.0755C67.5131 76.9116 68.2605 78.645 69.4295 80.0844C69.562 80.264 69.7376 80.4074 69.9403 80.5016C70.1429 80.5958 70.366 80.6376 70.5892 80.6233C78.5124 80.5451 86.4375 80.4781 94.3644 80.4223C94.723 80.4223 95.0395 80.4223 95.2608 80.0426C95.9554 78.8839 96.7369 77.7866 97.0871 76.4352C98.087 72.5682 99.1374 68.7152 100.193 64.865C100.322 64.4365 100.314 63.9786 100.168 63.5555C98.4876 58.3436 96.807 53.1206 95.1263 47.8865C94.7846 46.8255 94.3224 46.563 93.2496 46.8199C92.856 46.9098 92.4882 47.0884 92.1745 47.342C91.8609 47.5956 91.6096 47.9175 91.4402 48.2829C90.8147 49.4998 90.5921 50.8829 90.8043 52.2337C91.3645 55.6986 91.9247 59.1664 92.5354 62.6229C92.6446 63.2456 92.4597 63.4605 91.9247 63.6979C90.2996 64.36 88.922 65.5106 87.9837 66.9897C87.4655 67.8106 87.0397 68.6901 86.5831 69.5416C86.4571 69.7678 86.4123 70.1615 86.0229 70.0023C85.3843 69.7231 84.656 69.5165 84.1966 69.0502C83.939 68.7878 84.5188 68.2126 84.684 67.7799C84.7554 67.6745 84.8011 67.5541 84.8177 67.4281C84.8342 67.3021 84.821 67.174 84.7793 67.0539V67.0483ZM12.6131 62.5224C13.1211 62.5093 13.6153 62.3545 14.0396 62.0757C14.4639 61.7969 14.8013 61.4051 15.0136 60.9449C15.628 59.7215 15.8406 58.3364 15.6214 56.9858C15.1172 53.828 14.6215 50.6701 14.0248 47.5291C13.8092 46.3871 13.8036 45.5551 15.1453 45.2228C15.529 45.1279 15.8595 44.8012 16.2069 44.5695C17.9239 43.4108 18.9099 41.6909 19.7334 39.8732C20.0359 39.2004 20.3216 39.1306 20.9602 39.4628C21.5036 39.742 22.0218 40.1915 22.7921 39.8453C27.9274 37.5205 33.0747 35.2208 38.2343 32.9462C38.7329 32.7256 38.8141 32.4827 38.6124 31.9885C38.1972 30.9562 37.64 29.9865 36.957 29.1071C36.85 28.9527 36.7048 28.8284 36.5355 28.7462C36.3662 28.6641 36.1786 28.6268 35.9906 28.638C27.961 28.7199 19.9313 28.7897 11.9016 28.8474C11.5739 28.8474 11.3022 28.867 11.1089 29.1992C10.4367 30.3691 9.62719 31.4552 9.28267 32.8066C8.29109 36.6736 7.2435 40.5266 6.20151 44.3852C6.06906 44.7042 6.03873 45.0563 6.11468 45.3931C7.8588 50.8135 9.59451 56.2338 11.3218 61.6541C11.382 61.9375 11.5504 62.1865 11.7913 62.3485C12.0323 62.5105 12.3269 62.5729 12.6131 62.5224ZM82.2835 89.8846V89.6528C86.642 89.6528 91.0004 89.6389 95.3616 89.6528C95.9862 89.6528 96.2019 89.5188 96.1795 88.8515C96.1151 87.1763 96.0871 85.515 96.1375 83.8453C96.1655 83.0077 95.8126 82.8653 95.0927 82.8849C93.5241 82.9296 91.9527 82.9044 90.3842 82.9156C83.3815 82.9659 76.3621 83.0329 69.3511 83.0524C68.5108 83.0524 68.1859 83.2367 68.2307 84.1441C68.3264 85.7058 68.3423 87.2714 68.2783 88.8348C68.2391 89.745 68.5584 89.9013 69.3987 89.8929C73.7011 89.8846 77.9951 89.8846 82.2835 89.8846ZM24.1478 26.3597V26.181C28.509 26.181 32.8703 26.167 37.2315 26.1978C37.9654 26.1978 38.1923 25.9911 38.1615 25.254C38.097 23.5509 38.097 21.8449 38.1166 20.1418C38.1166 19.561 37.9682 19.3572 37.3548 19.3656C28.5651 19.4661 19.7745 19.548 10.9829 19.6113C10.3807 19.6113 10.2126 19.79 10.2294 20.3791C10.2798 22.0543 10.3107 23.7296 10.2658 25.3881C10.2462 26.1754 10.4955 26.3848 11.2742 26.3764C15.5654 26.3401 19.8566 26.3597 24.1478 26.3597Z" fill="#040404"/>
<path d="M40.5115 0.0669076C40.562 5.28526 40.5928 10.5036 40.688 15.722C40.7048 16.6573 40.4947 16.9421 39.506 16.9421C30.1169 16.9421 20.739 16.984 11.3442 17.0259C10.3331 17.0259 9.32189 17.0705 8.31352 17.1571C7.65527 17.2157 7.50681 16.984 7.50121 16.3502C7.46199 10.9224 7.38357 5.49467 7.31635 0.0669076L34.4389 0.0473633C36.4612 0.0473633 38.5004 0.0613235 40.5115 0.0669076Z" fill="#004999"/>
<path d="M65.8554 106.746C65.833 104.069 65.8115 101.393 65.791 98.7161C65.7742 96.9404 65.791 95.1646 65.7209 93.3917C65.6873 92.5904 65.8834 92.3474 66.7293 92.3474C73.2222 92.3605 79.714 92.34 86.205 92.286C90.1134 92.26 94.0218 92.206 97.9302 92.1241C98.6977 92.1073 98.9161 92.2888 98.9218 93.0818C98.9526 97.6412 99.0506 102.198 99.1262 106.763C92.8855 106.763 86.642 106.796 80.3984 106.796C75.5498 106.788 70.7124 106.76 65.8554 106.746Z" fill="#E43C5C"/>
<path d="M90.7679 3.43707C90.7679 3.9201 90.7679 4.40592 90.7679 4.89173C90.7259 6.5893 90.3226 6.87968 88.6279 6.5195C88.3142 6.4497 88.2386 6.32127 88.247 6.03648C88.3058 4.26911 88.3618 2.50173 88.4038 0.73157C88.4038 0.382563 88.5299 0.282048 88.8884 0.248543C90.8323 0.0698513 90.9304 0.150821 90.8744 2.08292C90.8744 2.53245 90.8744 2.98197 90.8744 3.43428L90.7679 3.43707Z" fill="#040404"/>
<path d="M81.2836 10.1101C80.8914 10.2106 80.8578 9.94533 80.771 9.7806C79.9671 8.24497 79.18 6.70933 78.3677 5.1737C78.1856 4.82749 78.2416 4.67113 78.5862 4.46173C80.2668 3.43146 80.2668 3.4175 81.1547 5.13461C81.7149 6.20956 82.2387 7.30404 82.8354 8.35665C83.1463 8.91506 83.1939 9.24731 82.4992 9.49022C82.0787 9.66557 81.6723 9.87278 81.2836 10.1101Z" fill="#040404"/>
<path d="M97.989 10.1154C97.398 9.81386 96.8042 9.52628 96.23 9.2052C95.8938 9.01813 96.1543 8.76963 96.2496 8.58536C97.017 7.07486 97.8153 5.57831 98.5744 4.06502C98.7677 3.67692 98.9246 3.59595 99.3503 3.78581C101.107 4.57876 101.115 4.562 100.224 6.29866C99.664 7.41549 99.087 8.51277 98.5072 9.61284C98.3924 9.81386 98.3756 10.1573 97.989 10.1154Z" fill="#040404"/>
<path d="M27.5763 97.1636C27.9517 97.1636 27.9741 97.5014 28.0917 97.722C28.8312 99.118 29.537 100.556 30.3045 101.949C30.5846 102.463 30.5006 102.683 29.9824 102.952C28.4194 103.758 28.4306 103.789 27.6407 102.248C27.0805 101.131 26.5371 100.014 25.9153 98.9365C25.582 98.3558 25.6128 98.0403 26.2738 97.8029C26.7201 97.6152 27.155 97.4017 27.5763 97.1636Z" fill="#040404"/>
<path d="M9.72243 103.636C9.1146 103.306 8.46475 102.982 7.84292 102.608C7.64685 102.491 7.84292 102.298 7.92415 102.161C8.70844 100.623 9.50954 99.0901 10.2882 97.5461C10.4871 97.1524 10.6832 97.1161 11.0977 97.3004C12.826 98.0738 12.8316 98.0543 11.9689 99.7211C11.3834 100.857 10.8092 102.002 10.2098 103.13C10.109 103.32 10.0922 103.624 9.72243 103.636Z" fill="#040404"/>
<path d="M51.3572 46.7225C49.4357 42.1324 47.5674 37.6427 45.6683 33.1671C45.3181 32.3462 46.0212 32.3993 46.3713 32.2541C51.0855 30.2661 55.8137 28.3089 60.5362 26.3405C60.8556 26.2065 61.1861 26.0864 61.4914 25.9217C61.7949 25.7813 62.0481 25.5517 62.2168 25.2637C62.3856 24.9757 62.4618 24.6431 62.4353 24.3107C62.4287 23.977 62.32 23.6533 62.1237 23.3829C61.9275 23.1124 61.6532 22.9082 61.3373 22.7974C60.9872 22.6494 60.6203 22.5182 60.2757 22.3618C59.0773 21.7745 58.0844 20.8405 57.4267 19.6819C56.7691 18.5233 56.4774 17.194 56.5896 15.8675C56.7232 14.5255 57.2627 13.2556 58.1366 12.226C59.0104 11.1964 60.1774 10.4556 61.483 10.1019C62.7928 9.76437 64.1749 9.83349 65.4442 10.3C66.7136 10.7665 67.8099 11.6082 68.5864 12.7125C69.4968 14.0136 69.634 15.4878 69.6172 16.9955C69.6172 17.7605 69.55 18.5255 69.4744 19.2878C69.2923 21.1473 70.55 22.1329 72.2754 21.4209C76.914 19.5167 81.5497 17.6125 86.1574 15.6413C86.9697 15.2923 87.233 15.4068 87.5579 16.1997C92.6876 28.5146 97.8359 40.821 103.003 53.1191C103.843 55.1517 103.401 56.5031 101.678 57.2849C101.048 57.5641 100.796 57.4747 100.583 56.8018C99.566 53.5547 98.4988 50.3215 97.454 47.0827C96.7005 44.7457 94.8435 43.7601 92.4738 44.4498C89.88 45.2064 88.866 47.1999 88.3814 49.6207C87.9389 51.8543 88.6223 53.9735 88.9136 56.1317C89.1461 57.8544 89.429 59.5715 89.754 61.2803C89.8464 61.7605 89.6755 61.956 89.3226 62.1961C88.6847 62.6201 88.0052 62.9784 87.2946 63.2654C79.3873 66.5573 71.4743 69.8379 63.5866 73.1745C62.7463 73.5318 62.4942 73.328 62.1861 72.5714C60.483 68.4307 58.7268 64.3125 56.9313 60.049C60.2561 60.3115 63.3737 60.0769 65.7826 57.5361C67.1307 56.2011 68.005 54.464 68.2727 52.5886C68.8329 48.3 66.6593 44.4582 62.8331 42.8611C58.7184 41.144 54.7997 42.4339 51.3572 46.7225Z" fill="#004999"/>
<path d="M47.3909 80.844C47.671 75.0365 45.4778 71.4236 40.9485 70.128C36.9822 68.9945 32.5706 70.7479 30.6126 74.3385C28.6547 77.9291 28.4502 82.4354 34.0859 86.9027L29.2093 89.0889C26.4727 90.3118 23.7277 91.518 21.005 92.7688C20.3608 93.0648 20.0527 93.0006 19.7474 92.3165C14.1229 79.7541 8.48716 67.1982 2.84025 54.6489C2.07557 52.9457 2.64418 51.5944 4.3192 50.7847C4.97745 50.4664 5.24635 50.5278 5.48164 51.2928C6.53763 54.7494 7.72247 58.1669 8.75606 61.6234C9.29106 63.4048 10.1566 64.7366 12.1481 64.9739C14.1397 65.2112 16.2068 64.033 17.1676 62.2181C18.3132 60.0487 18.3749 57.776 17.9351 55.4195C17.4953 53.063 17.148 50.6199 16.7306 48.2244C16.6242 47.6017 16.7306 47.2025 17.3301 46.8618C18.3567 46.2559 19.245 45.4428 19.9378 44.4746C20.4513 43.7768 21.1497 43.2354 21.9546 42.9111C28.4568 40.0408 34.9533 37.1604 41.4443 34.2697C42.6347 33.7447 43.0493 33.8955 43.5787 35.0654C45.6122 39.5634 47.671 44.053 49.5337 48.6264C49.895 49.5171 50.2564 50.3994 51.4468 50.4077C52.6373 50.4161 52.9818 49.5701 53.3599 48.6543C53.9952 47.1063 55.2017 45.86 56.7309 45.1718C58.2602 44.4836 59.996 44.406 61.581 44.9549C64.7546 46.0493 66.6453 49.4808 65.805 52.6246C65.0459 55.4669 62.6762 57.0919 59.1077 57.2036C58.413 57.2232 57.7071 57.1198 57.0209 57.0752C54.7969 56.9384 53.6736 58.4712 54.5224 60.4982C56.4271 65.0549 58.3402 69.6078 60.2617 74.157C60.5054 74.7154 60.5418 75.0951 59.892 75.3827C55.8136 77.1864 51.739 79.0003 47.6682 80.8244C47.5773 80.845 47.4838 80.8516 47.3909 80.844Z" fill="#E43C5C"/>
<path d="M84.7793 67.0539C84.8207 67.1748 84.8332 67.3037 84.8157 67.4302C84.7982 67.5568 84.7512 67.6775 84.6784 67.7826C84.5132 68.2266 83.9334 68.7906 84.1911 69.053C84.6504 69.5193 85.3787 69.7371 86.0173 70.0051C86.4011 70.1643 86.4459 69.7706 86.5776 69.5444C87.0453 68.7068 87.4711 67.8134 87.9781 66.9925C88.9154 65.5088 90.2942 64.3541 91.9219 63.6895C92.4569 63.4605 92.6418 63.2372 92.5326 62.6145C91.9219 59.158 91.3645 55.6902 90.8015 52.2253C90.592 50.8769 90.8155 49.497 91.4402 48.2829C91.6125 47.9188 91.8662 47.5989 92.1818 47.3477C92.4974 47.0965 92.8665 46.9207 93.2608 46.8338C94.3336 46.577 94.7958 46.8338 95.1375 47.9004C96.8182 53.1253 98.4988 58.3483 100.179 63.5694C100.325 63.9926 100.334 64.4505 100.205 64.8789C99.143 68.7208 98.0927 72.5738 97.0927 76.4408C96.7425 77.7922 95.9723 78.8894 95.2664 80.0481C95.0451 80.4167 94.7286 80.4251 94.3701 80.4279C86.4468 80.4893 78.5217 80.5563 70.5948 80.6289C70.3717 80.6432 70.1485 80.6013 69.9459 80.5072C69.7432 80.413 69.5676 80.2696 69.4351 80.09C68.267 78.6522 67.5197 76.9208 67.2755 75.0867C67.2195 74.7041 67.1943 74.3803 67.6985 74.1737C73.3846 71.8172 79.0595 69.4411 84.7793 67.0539Z" fill="#ECCBAF"/>
<path d="M12.6131 62.5226C12.3308 62.566 12.0425 62.5003 11.8072 62.3389C11.5719 62.1775 11.4073 61.9326 11.347 61.6543C9.61039 56.2339 7.87468 50.8136 6.1399 45.3933C6.06395 45.0564 6.09427 44.7044 6.22673 44.3854C7.25752 40.5268 8.30511 36.6737 9.30788 32.8067C9.65241 31.4554 10.4619 30.3693 11.1342 29.1994C11.3274 28.8671 11.5991 28.8504 11.9269 28.8476C19.9565 28.7824 27.9862 28.7126 36.0159 28.6382C36.2038 28.627 36.3915 28.6643 36.5607 28.7464C36.73 28.8286 36.8752 28.9529 36.9822 29.1072C37.6652 29.9866 38.2224 30.9564 38.6376 31.9886C38.8393 32.4828 38.7581 32.7258 38.2595 32.9463C33.1056 35.2302 27.9582 37.5299 22.8173 39.8455C22.047 40.1917 21.5288 39.745 20.9854 39.463C20.3468 39.1307 20.0611 39.2005 19.7586 39.8734C18.9351 41.691 17.9491 43.411 16.2321 44.5697C15.8847 44.8014 15.5542 45.1281 15.1705 45.223C13.8176 45.5552 13.8232 46.3873 14.0501 47.5292C14.6467 50.6703 15.1425 53.8281 15.6467 56.9859C15.8658 58.3365 15.6532 59.7216 15.0388 60.9451C14.8246 61.4091 14.4833 61.8033 14.0541 62.0824C13.625 62.3615 13.1255 62.5141 12.6131 62.5226Z" fill="#ECCBAF"/>
<path d="M82.2835 89.8847C77.9923 89.8847 73.7011 89.8624 69.3987 89.9042C68.5584 89.9042 68.2363 89.7563 68.2783 88.846C68.3423 87.2827 68.3264 85.7171 68.2307 84.1554C68.1775 83.248 68.5108 83.0665 69.3511 83.0637C76.3537 83.0442 83.3731 82.9771 90.3842 82.9269C91.9527 82.9269 93.5241 82.9408 95.0927 82.8962C95.8126 82.8766 96.1655 83.0218 96.1375 83.8566C96.0871 85.5319 96.1151 87.2071 96.1795 88.8628C96.2075 89.5301 95.9862 89.6697 95.3616 89.6641C91.0004 89.639 86.642 89.6641 82.2835 89.6641V89.8847Z" fill="white"/>
<path d="M24.1478 26.3598C19.8566 26.3598 15.5654 26.3403 11.263 26.3766C10.4843 26.3766 10.235 26.1756 10.2546 25.3882C10.2995 23.713 10.2686 22.0377 10.2182 20.3792C10.2014 19.7901 10.3695 19.617 10.9717 19.6114C19.7614 19.5481 28.552 19.4662 37.3436 19.3657C37.957 19.3657 38.1138 19.5612 38.1054 20.1419C38.0858 21.8451 38.0858 23.551 38.1503 25.2542C38.1811 25.9913 37.9542 26.2007 37.2203 26.1979C32.8591 26.1672 28.4979 26.1811 24.1366 26.1811L24.1478 26.3598Z" fill="white"/>
</g>
<defs>
<clipPath id="clip0_75_161">
<rect width="106" height="107" fill="white"/>
</clipPath>
</defs>
</svg>
