<svg width="81" height="86" viewBox="0 0 81 86" fill="none" xmlns="http://www.w3.org/2000/svg">
<g clip-path="url(#clip0_21_2165)">
<path d="M22.7853 7.50285V1.4989C22.7853 0.169769 22.951 0.00158691 24.3091 0.00158691H45.7562C46.9951 0.00158691 47.1806 0.18773 47.1822 1.42216C47.1822 3.1644 47.212 4.90664 47.1673 6.64724C47.1508 7.32814 47.3677 7.52081 48.0534 7.51755C53.7676 7.49305 59.4817 7.50285 65.1942 7.50448C66.5689 7.50448 66.6401 7.57306 66.6401 8.94138C66.6401 15.5816 66.6401 22.2218 66.6401 28.862V29.7242L66.8057 29.7682C66.9146 29.6105 67.0147 29.4469 67.1055 29.2784C68.499 26.3121 69.887 23.3496 71.2694 20.3908C72.3095 18.1637 74.3103 17.0403 76.7616 17.3848C77.2701 17.4566 77.449 17.295 77.6162 16.8949C77.8465 16.343 78.1247 15.8107 78.3765 15.2621C78.5935 14.7951 78.9479 14.5747 79.4398 14.7853C79.9615 15.0074 79.9499 15.4613 79.771 15.8973C79.5425 16.4508 79.2891 16.9962 79.0059 17.5301C78.7922 17.9302 78.8402 18.1833 79.2046 18.4984C81.058 20.1427 81.4969 22.3013 80.4385 24.5709C76.0218 34.0544 71.6012 43.5385 67.1767 53.0231C66.8618 53.7368 66.6887 54.5034 66.6666 55.2814C66.5971 57.293 66.6418 59.3079 66.6434 61.3229C66.6434 61.8715 66.6037 62.4381 65.8733 62.4185C65.1428 62.3989 65.1246 61.8388 65.1296 61.2869C65.1395 59.9807 65.1296 58.6875 65.1296 57.2048C63.5727 58.5944 61.4725 58.8687 60.3264 60.6632C59.5132 61.9401 58.3389 62.9867 57.3451 64.1526C57.0139 64.5396 56.6014 64.8857 56.1642 64.5689C55.9058 64.3812 55.7683 63.8244 55.8147 63.4635C56.0946 61.3082 56.4541 59.161 56.7621 57.0073C56.7979 56.7148 56.7515 56.4183 56.628 56.15C55.9191 54.6103 55.9787 53.0983 56.6909 51.5781C59.3707 45.8512 62.0401 40.1204 64.699 34.3859C64.9652 33.7972 65.1056 33.1608 65.1114 32.5163C65.1395 25.033 65.1296 17.5513 65.1296 10.068C65.1296 8.98383 65.1296 8.97894 64.0696 8.97894C56.7008 8.97894 49.3288 8.99037 41.96 8.96097C41.2097 8.96097 40.9381 9.18631 40.7426 9.89006C40.0155 12.5173 37.6736 14.1877 34.8877 14.1681C33.5797 14.1648 32.3102 13.7318 31.2798 12.9375C30.2494 12.1432 29.517 11.0329 29.1984 9.78229C29.0229 9.1112 28.7165 8.96587 28.0655 8.96587C20.6675 8.98656 13.2695 8.98656 5.8715 8.96587C5.00195 8.96587 4.82472 9.24182 4.82638 10.037C4.84404 34.5002 4.84956 58.9634 4.84294 83.4266C4.84294 83.745 4.86944 84.065 4.88766 84.4765H63.9868C65.1246 84.4765 65.1263 84.4765 65.1263 83.3139V67.1488C65.1263 66.8761 65.0385 66.5528 65.1578 66.3455C65.3234 66.063 65.6182 65.7299 65.8998 65.6923C66.1018 65.6613 66.4215 66.0401 66.5954 66.2965C66.7014 66.45 66.6368 66.7194 66.6368 66.9366C66.6368 72.842 66.6368 78.7469 66.6368 84.6512C66.6368 85.9069 66.5325 86.0049 65.2704 86.0049H4.65082C3.43678 86.0049 3.32581 85.9036 3.32581 84.6986C3.32581 59.3918 3.32581 34.0827 3.32581 8.77156C3.32581 7.60082 3.41854 7.50285 4.59284 7.50285H22.7688H22.7853ZM71.4168 40.1841C71.5824 39.838 71.7299 39.5767 71.8541 39.3089C73.2144 36.3981 74.5731 33.4857 75.9302 30.5716C77.0001 28.2775 78.0585 25.9752 79.1533 23.6908C79.7545 22.4319 79.3835 20.2488 78.0452 19.6806C77.9342 19.8928 77.8117 20.1035 77.714 20.3223C75.9848 24.0234 74.2568 27.7245 72.5298 31.4256C72.1986 32.1424 71.9087 32.8951 71.493 33.5483C71.3439 33.7899 70.8802 33.8422 70.5589 33.981C70.3968 33.652 70.2557 33.3133 70.1365 32.967C70.1017 32.8445 70.2425 32.6682 70.3021 32.5212C71.6404 29.6594 72.9787 26.7997 74.317 23.9423C75.0855 22.2964 75.8506 20.6521 76.6225 18.9964C75.0474 18.5212 73.4756 19.3344 72.6921 20.9901C70.2287 26.2413 67.773 31.4969 65.325 36.7568C65.2512 36.944 65.1887 37.1354 65.1379 37.3299L71.4168 40.1841ZM45.579 1.55931H24.3306C24.3306 3.28033 24.3638 4.93766 24.3157 6.59009C24.2942 7.29221 24.4814 7.52244 25.2283 7.51918C31.7375 7.48979 38.2467 7.50285 44.7541 7.49958C45.0208 7.49958 45.2858 7.47019 45.5823 7.45386L45.579 1.55931ZM61.6796 44.7087C61.5636 44.8981 61.4643 45.0255 61.3964 45.1692C60.2535 47.6184 59.1041 50.0514 57.9795 52.5023C57.7991 52.8701 57.6923 53.2687 57.6648 53.6763C57.6333 54.7001 57.7112 55.6455 59.0295 56.0586C59.689 56.2609 60.3188 56.5475 60.9028 56.9109C61.9297 57.5641 62.7512 57.1852 63.4882 56.488C63.8765 56.1047 64.1967 55.6598 64.4356 55.172C65.0352 53.98 65.5718 52.757 66.1366 51.5454C66.7428 50.2391 67.3507 48.9329 67.9867 47.5744L61.6796 44.7087ZM70.7692 41.5688L64.4124 38.6868L62.2593 43.3045L68.6326 46.1897C69.2471 44.8834 69.8152 43.68 70.38 42.475C70.5042 42.2023 70.6135 41.9296 70.7692 41.5688ZM30.6576 9.03935C30.9624 11.2045 33.0741 12.8308 35.2322 12.6675C37.3903 12.5042 39.2801 10.811 39.2487 9.03935H30.6576ZM60.3778 58.3364L58.271 57.3877C58.0739 58.7103 57.8967 59.8925 57.7211 61.073L57.9083 61.1481L60.3778 58.3364Z" fill="white"/>
<path d="M24.3174 56.4995C24.3174 57.5624 24.3174 58.5078 24.3174 59.4533C24.3058 60.3513 24.1021 60.5522 23.1895 60.5538C20.6786 60.5538 18.1671 60.5538 15.6551 60.5538C14.721 60.5538 14.5504 60.3905 14.5471 59.4484C14.5355 56.973 14.5471 54.4976 14.5338 52.0206C14.5338 51.2744 14.8087 50.9298 15.6054 50.938C18.145 50.963 20.6847 50.963 23.2243 50.938C23.9994 50.938 24.3406 51.2515 24.324 52.0091C24.3058 52.7978 24.3356 53.5865 24.324 54.3751C24.3141 54.7997 24.4201 55.0283 24.917 55.0283C28.0352 55.0141 31.154 55.0141 34.2733 55.0283C34.7702 55.0283 34.8795 54.8144 34.8695 54.3849C34.8497 53.5685 34.8695 52.7521 34.8695 51.9357C34.8695 51.258 35.1809 50.9462 35.8765 50.956C38.4703 50.9658 41.0651 50.9658 43.661 50.956C44.3716 50.956 44.6548 51.2825 44.6548 51.9536C44.6548 52.9513 44.6548 53.9506 44.6548 55.0348C45.8274 55.0348 46.8709 55.0348 47.9143 55.0348C50.3606 55.0511 51.9954 56.6676 52.002 59.0973C52.002 61.029 52.0186 62.9622 52.002 64.8922C52.002 65.4164 52.0997 65.694 52.6778 65.8915C53.6144 66.2065 54.4048 66.8433 54.9045 67.6854C55.4042 68.5276 55.5797 69.5189 55.399 70.4782C55.0181 72.5192 53.3486 73.9284 51.2981 73.9398C49.2476 73.9512 47.4771 72.5584 47.116 70.6741C46.7185 68.589 47.7355 66.6671 49.7147 65.9389C50.3192 65.7152 50.4865 65.4295 50.4733 64.822C50.4335 62.9181 50.4733 61.0126 50.4567 59.1071C50.4468 57.5216 49.4977 56.5631 47.8961 56.5239C47.0415 56.5027 46.1852 56.537 45.3306 56.5109C44.8237 56.4946 44.6432 56.697 44.6564 57.1804C44.6763 57.969 44.6465 58.7593 44.6564 59.548C44.6664 60.2534 44.3749 60.5914 43.6196 60.5848C41.0524 60.5636 38.4852 60.5669 35.9196 60.5848C35.1859 60.5848 34.8563 60.2827 34.8695 59.5578C34.8894 58.5781 34.8695 57.6131 34.8695 56.537C33.4302 56.537 32.0853 56.5223 30.7438 56.5599C30.6096 56.5599 30.3761 56.8864 30.3744 57.0497C30.3462 59.143 30.3347 61.2396 30.3744 63.3329C30.3744 63.6301 30.6444 63.973 30.8713 64.2081C32.4348 65.7821 34.0182 67.3317 35.6049 68.8911C36.3502 69.6275 36.3585 69.9247 35.6281 70.6496C33.8945 72.3652 32.1571 74.077 30.4158 75.7849C29.7367 76.4511 29.4419 76.4576 28.7595 75.7849C26.9928 74.0606 25.2361 72.3298 23.4893 70.5925C22.8384 69.9394 22.85 69.6128 23.5158 68.9499C25.0925 67.3889 26.6975 65.8475 28.2395 64.2587C28.577 63.8912 28.7794 63.4225 28.8142 62.9279C28.8788 61.0518 28.8142 59.1724 28.854 57.2963C28.8639 56.6889 28.6502 56.4799 28.0407 56.5011C26.83 56.5256 25.6226 56.4995 24.3174 56.4995ZM22.7572 52.5072H16.0692C16.0692 54.5825 16.0559 56.5893 16.0957 58.5895C16.0957 58.7528 16.4584 59.0467 16.6572 59.05C18.5 59.0859 20.3435 59.0859 22.1875 59.05C22.3796 59.05 22.729 58.743 22.7324 58.5732C22.7705 56.5713 22.7572 54.5678 22.7572 52.5072ZM36.4132 52.5072C36.4132 54.5727 36.4016 56.5762 36.4347 58.5781C36.4658 58.6896 36.5253 58.7913 36.6077 58.8737C36.69 58.956 36.7924 59.0161 36.9051 59.0483C38.8032 59.0821 40.7018 59.0821 42.601 59.0483C42.7666 59.0483 43.0813 58.7511 43.083 58.5879C43.1178 56.5844 43.1062 54.5809 43.1062 52.5055L36.4132 52.5072ZM34.1457 69.8153L29.5761 65.2841L25.0627 69.7026L29.6307 74.2468L34.1457 69.8153ZM53.8968 69.763C53.889 69.0634 53.6033 68.3947 53.101 67.9005C52.5988 67.4062 51.92 67.1258 51.2103 67.1194C50.5008 67.1354 49.8251 67.4217 49.3252 67.9183C48.8252 68.4148 48.5398 69.083 48.5288 69.7826C48.5392 70.4824 48.8283 71.1501 49.3337 71.6416C49.8391 72.1331 50.5203 72.4091 51.2302 72.4098C51.5819 72.4094 51.9301 72.3405 52.2547 72.207C52.5794 72.0735 52.874 71.8781 53.1218 71.632C53.3696 71.3859 53.5656 71.0939 53.6986 70.7729C53.8316 70.4519 53.899 70.1081 53.8968 69.7614V69.763Z" fill="white"/>
<path d="M34.8844 29.5037H14.181C13.9325 29.5037 13.6361 29.5805 13.4473 29.4743C13.1756 29.3111 12.7847 29.0139 12.8046 28.8033C12.8278 28.5208 13.1591 28.2236 13.4274 28.0179C13.5682 27.9101 13.8547 27.9787 14.075 27.9787H55.8876C56.0814 27.9787 56.3298 27.9101 56.4557 28.0015C56.742 28.2372 57.0095 28.4943 57.2557 28.7706C57.0006 29.0139 56.777 29.3078 56.4789 29.4776C56.2917 29.5837 55.9936 29.5037 55.7451 29.5037H34.8844Z" fill="white"/>
<path d="M34.9308 24.6052H14.1512C13.9309 24.6052 13.6543 24.682 13.5003 24.5824C13.2154 24.4044 12.8063 24.1219 12.8046 23.8786C12.803 23.6353 13.1823 23.3186 13.4572 23.121C13.6046 23.0149 13.8845 23.0834 14.1048 23.0834H55.8429C56.0085 23.0834 56.1741 23.0834 56.3397 23.0834C56.8366 23.1096 57.2474 23.2908 57.249 23.828C57.249 24.393 56.8582 24.6101 56.3033 24.6069C54.5924 24.5971 52.8815 24.6069 51.1689 24.6069L34.9308 24.6052Z" fill="white"/>
<path d="M0.0298371 34.8219C0.0298371 28.5954 0.0298371 22.3683 0.0298371 16.1406C0.0298371 15.8957 -0.0529878 15.5969 0.0596387 15.4189C0.225266 15.1413 0.521735 14.8033 0.801645 14.7658C1.00371 14.7364 1.33 15.1136 1.49066 15.3748C1.60163 15.5577 1.53373 15.8516 1.53373 16.0965C1.53373 28.5518 1.53042 41.0066 1.5238 53.4608C1.5238 54.0421 1.74905 54.8814 0.758601 54.8618C-0.23185 54.8422 0.0381063 53.9996 0.0381063 53.4265C0.0248562 47.225 0.0221078 41.0235 0.0298371 34.8219Z" fill="white"/>
<path d="M44.5372 34.3958H33.359C33.137 34.3958 32.8621 34.4709 32.7064 34.3745C32.3934 34.1868 31.9644 33.9369 31.9048 33.6479C31.8004 33.145 32.2161 32.8887 32.7329 32.8707C32.8985 32.8707 33.0642 32.8707 33.2298 32.8707C40.7923 32.8707 48.356 32.8707 55.9207 32.8707C56.1675 32.8707 56.4673 32.8135 56.6495 32.9262C56.8963 33.0895 57.2292 33.3948 57.2076 33.6087C57.1811 33.8814 56.8764 34.1688 56.6147 34.3598C56.4706 34.466 56.1874 34.3974 55.9671 34.3974L44.5372 34.3958Z" fill="white"/>
<path d="M38.3891 39.2861H27.9745C27.726 39.2861 27.4163 39.3612 27.2457 39.2453C26.984 39.0673 26.6809 38.7669 26.6544 38.4942C26.6345 38.2803 26.9641 37.9488 27.2176 37.8215C27.471 37.6941 27.8088 37.7562 28.1119 37.7562H48.8683C49.1151 37.7562 49.4249 37.6892 49.5955 37.8068C49.8522 37.9831 50.1735 38.2966 50.1652 38.5514C50.1569 38.8061 49.8074 39.0804 49.5441 39.2567C49.3917 39.358 49.1168 39.2861 48.8965 39.2861H38.3891Z" fill="white"/>
<path d="M24.4532 18.2127C27.8982 18.2127 31.3438 18.2127 34.79 18.2127C35.0649 18.2127 35.3896 18.1474 35.6016 18.2682C35.8484 18.407 36.1448 18.714 36.1481 18.9524C36.1514 19.1908 35.8616 19.4879 35.6264 19.6643C35.4823 19.7721 35.2024 19.7133 34.9821 19.7133C27.9816 19.7133 20.98 19.7133 13.9773 19.7133C13.757 19.7133 13.4804 19.7753 13.3297 19.6708C13.0928 19.5075 12.7997 19.2202 12.7947 18.9801C12.7897 18.7401 13.0663 18.4135 13.3065 18.2845C13.5466 18.1555 13.8978 18.2143 14.1992 18.2143C17.6177 18.2111 21.0357 18.2105 24.4532 18.2127Z" fill="white"/>
<path d="M18.0054 39.2845C16.6025 39.2845 15.1897 39.2845 13.7934 39.2845C13.2436 39.2845 12.7682 39.1881 12.7649 38.5252C12.7616 37.8623 13.2402 37.7512 13.7868 37.7512H22.2918C22.8301 37.7512 23.3319 37.8606 23.3319 38.5154C23.3319 39.1702 22.8466 39.2828 22.3001 39.2812C20.869 39.2812 19.4375 39.2823 18.0054 39.2845Z" fill="white"/>
<path d="M55.0926 12.2528C53.8802 12.2528 52.6678 12.2528 51.4488 12.2528C50.9205 12.2528 50.4716 12.1173 50.4551 11.5279C50.4385 10.9384 50.8675 10.7621 51.4074 10.7637C53.8885 10.7637 56.3685 10.7637 58.8474 10.7637C59.3807 10.7637 59.7948 10.9139 59.7799 11.5311C59.765 12.1483 59.3128 12.2463 58.7977 12.2447C57.5588 12.2447 56.3133 12.2447 55.0777 12.2447L55.0926 12.2528Z" fill="white"/>
<path d="M16.4087 34.3958H13.6775C13.1342 34.3958 12.7483 34.2015 12.7632 33.5989C12.7781 33.0372 13.1756 32.8707 13.6659 32.8674C15.5126 32.8674 17.361 32.8674 19.2078 32.8674C19.7527 32.8674 20.1535 33.096 20.1336 33.6675C20.1154 34.1884 19.7345 34.4023 19.221 34.399C18.2836 34.3941 17.3461 34.3958 16.4087 34.3958Z" fill="white"/>
<path d="M34.6359 3.7572C36.2343 3.7572 37.8342 3.76537 39.4391 3.7572C39.9956 3.7572 40.4925 3.8617 40.5058 4.49198C40.519 5.12226 40.0089 5.25615 39.4656 5.25615C36.2635 5.25615 33.0647 5.25615 29.8692 5.25615C29.3259 5.25615 28.839 5.15491 28.8622 4.47728C28.8854 3.79965 29.3939 3.76373 29.9255 3.76536C31.4924 3.76373 33.0641 3.7572 34.6359 3.7572Z" fill="white"/>
</g>
<defs>
<clipPath id="clip0_21_2165">
<rect width="81" height="86" fill="white"/>
</clipPath>
</defs>
</svg>
