<svg width="109" height="109" viewBox="0 0 109 109" fill="none" xmlns="http://www.w3.org/2000/svg">
<g clip-path="url(#clip0_79_206)">
<path d="M58.1161 0C59.3025 0.460792 60.5771 0.372614 61.8147 0.60301C77.0841 3.47585 88.1229 11.9237 94.9397 25.8385C97.9156 31.9198 99.139 38.4306 99.1163 45.1803C99.1163 47.5583 99.1163 49.9333 99.1163 52.3112C99.1163 52.8574 99.2301 53.1646 99.782 53.449C101.543 54.3535 102.394 55.8781 102.405 57.8521C102.405 60.3353 102.428 62.8156 102.405 65.2987C102.405 65.9302 102.528 66.172 103.216 66.1521C104.562 66.0952 105.91 66.1179 107.259 66.1521C108.44 66.1748 109.014 66.7494 109.017 67.9326C109.03 72.1879 109.03 76.444 109.017 80.7011C109.017 81.9271 108.42 82.5272 107.188 82.5528C105.876 82.5841 104.559 82.6097 103.25 82.5528C102.513 82.513 102.397 82.7861 102.397 83.446C102.425 87.3826 102.414 91.3193 102.397 95.2559C102.397 100.569 98.9342 104.045 93.6139 104.051C84.6747 104.062 75.7355 104.062 66.7964 104.051C66.1022 104.051 65.8006 104.227 65.5075 104.904C64.4037 107.481 62.378 108.915 59.5671 108.977C56.1985 109.048 52.8271 109.026 49.4586 108.977C46.0217 108.935 43.1624 106.19 43.0088 102.862C42.8438 99.2807 45.2849 96.2457 48.8184 95.9727C52.5701 95.7105 56.3354 95.7058 60.0877 95.9585C62.7649 96.1177 64.6085 97.6651 65.5787 100.16C65.7977 100.729 66.0623 100.874 66.6456 100.874C75.7242 100.854 84.8056 100.874 93.887 100.854C97.2556 100.854 98.6212 99.5993 99.1163 96.2657C99.2016 95.6797 99.1447 95.5972 98.5046 95.6456C95.5713 95.876 92.6068 96.0125 89.6849 95.6285C87.7375 95.4087 85.9412 94.4736 84.6443 93.0047C83.3474 91.5357 82.6425 89.6376 82.6661 87.6784C82.5921 78.7774 82.5921 69.8763 82.6661 60.9753C82.6917 57.2918 85.0133 54.3734 88.5639 53.2499C88.9879 53.1162 89.2496 53.028 89.2382 52.5075C89.1216 47.5554 89.5028 42.5891 88.5668 37.6598C86.0062 24.0949 74.3244 12.6803 60.6283 10.4247C44.4626 7.76519 29.2273 15.8916 22.6638 30.7081C20.7549 34.9925 19.7709 39.6311 19.776 44.3213C19.776 46.9439 19.776 49.5692 19.776 52.1946C19.776 52.7919 19.8671 53.0878 20.5527 53.2954C22.2375 53.7832 23.7165 54.8087 24.7639 56.2154C25.8113 57.622 26.3696 59.3326 26.3538 61.0862C26.405 69.9038 26.4221 78.747 26.3538 87.5789C26.3168 92.2949 22.6808 95.7423 17.9495 95.7707C15.8916 95.7821 13.8346 95.7821 11.7786 95.7707C8.649 95.7707 6.64039 93.7626 6.62616 90.6707C6.62616 88.2246 6.60625 85.7755 6.62616 83.3294C6.62616 82.7605 6.50098 82.5272 5.87791 82.5528C4.67445 82.604 3.46246 82.5187 2.259 82.5813C1.82315 82.6319 1.3818 82.5603 0.984347 82.3744C0.586898 82.1886 0.249027 81.8958 0.00854492 81.5289V67.0452C0.648684 66.3085 1.44529 66.0582 2.4183 66.1208C3.47951 66.1919 4.55209 66.0724 5.60761 66.1577C6.49527 66.2317 6.64608 65.8733 6.63186 65.0911C6.58349 62.6449 6.59487 60.1959 6.63186 57.7497C6.65177 55.861 7.48538 54.3848 9.16112 53.5059C9.78134 53.1816 9.92642 52.8346 9.91788 52.2032C9.88659 49.8281 9.9179 47.4502 9.90368 45.0751C9.88661 36.7809 11.8355 28.9957 16.1628 21.899C23.0877 10.5356 33.0881 3.473 46.1668 0.796427C47.5894 0.511987 49.0887 0.543279 50.4714 0H58.1161ZM56.813 99.1157C54.2407 98.9503 51.6602 98.9569 49.0887 99.1357C47.2992 99.2807 46.1184 100.822 46.1924 102.583C46.226 103.422 46.5774 104.217 47.1754 104.807C47.7734 105.397 48.5732 105.738 49.413 105.76C51.8854 105.803 54.3606 105.76 56.833 105.743C57.7889 105.743 58.7448 105.814 59.6979 105.743C60.4996 105.686 61.2539 105.343 61.8233 104.775C62.3926 104.208 62.739 103.455 62.7991 102.654C62.8676 101.834 62.6272 101.019 62.125 100.367C61.6228 99.7157 60.8951 99.2754 60.0849 99.1328C59.0015 98.9607 57.8982 98.955 56.813 99.1157ZM16.4359 91.945C16.325 92.4058 16.4985 92.6021 16.9765 92.5765C17.5085 92.5509 18.0462 92.6134 18.5697 92.548C19.4222 92.4705 20.2405 92.176 20.9468 91.6925C21.653 91.209 22.2236 90.5527 22.604 89.7861C22.8288 89.3595 22.806 89.1234 22.2456 89.1575C21.9974 89.176 21.7483 89.176 21.5002 89.1575C20.5101 89.0836 19.8415 88.4379 19.8301 87.5647C19.8187 86.6914 20.5328 86.0202 21.5912 85.9803C23.1645 85.9206 23.1645 85.9206 23.1645 84.305C23.1517 84.1631 23.1517 84.0203 23.1645 83.8783C23.3551 82.8174 22.9596 82.4561 21.8614 82.5386C20.5897 82.6296 19.7988 81.8929 19.8301 80.8946C19.8614 79.8962 20.6039 79.296 21.8586 79.3984C22.9596 79.4837 23.3381 79.114 23.1674 78.0558C23.0649 77.3988 23.4234 76.608 23.0052 76.0989C22.6694 75.695 21.9269 76.0221 21.3721 75.9425C20.4275 75.8059 19.7618 75.0635 19.8301 74.2188C19.8984 73.374 20.5641 72.8108 21.503 72.7681C21.8586 72.7511 22.2143 72.7681 22.5671 72.7681C22.8117 72.7681 23.1361 72.7966 23.1361 72.4467C23.1531 71.491 23.3181 70.4812 23.0592 69.6023C22.8971 69.0334 21.9724 69.4715 21.4062 69.3463C21.3038 69.3236 21.1957 69.3093 21.0961 69.2809C20.2711 69.0505 19.7931 68.4845 19.8528 67.6539C19.8528 67.4563 19.8923 67.2606 19.9692 67.0785C20.046 66.8964 20.1585 66.7316 20.3001 66.5937C20.4418 66.4558 20.6096 66.3477 20.7937 66.2758C20.9778 66.2038 21.1745 66.1695 21.3721 66.1748C21.7619 66.1549 22.1516 66.1492 22.5414 66.1748C22.9966 66.1947 23.193 66.0013 23.1645 65.5462C23.1474 65.2276 23.1645 64.9062 23.1645 64.5876C23.1645 62.8981 23.1645 62.8981 21.5257 62.7502C20.4958 62.6563 19.7874 61.9509 19.8187 61.0606C19.85 60.1703 20.5414 59.6156 21.557 59.5644C21.699 59.5517 21.8418 59.5517 21.9838 59.5644C22.8857 59.6668 22.8373 59.28 22.476 58.6685C21.4091 56.7826 18.9566 55.7074 16.7859 56.1654C16.3079 56.2678 16.3563 56.538 16.4046 56.8623C16.4046 59.9911 16.379 63.1057 16.3819 66.226C16.4027 74.7857 16.4208 83.3587 16.4359 91.945ZM13.0816 45.7891C13.0816 48.423 13.1129 50.232 13.0645 52.0467C13.0446 52.7635 13.2807 52.9313 13.9692 52.9342C16.5753 52.9342 16.5753 52.9655 16.5753 50.3742V49.629C16.5753 45.4477 16.4587 41.2636 17.2809 37.1137C21.5485 15.6015 43.7058 1.88583 64.765 8.16625C80.1283 12.7457 89.1671 23.324 92.0093 39.1189C92.6807 42.8451 92.3706 46.6196 92.4133 50.3742C92.4446 52.9683 92.4133 52.9342 95.0336 52.9342C95.7363 52.9342 95.9412 52.7407 95.9298 52.0353C95.8871 49.6261 95.9298 47.2141 95.9099 44.802C95.9274 40.4711 95.264 36.1643 93.9439 32.0393C87.6137 12.7372 69.1919 0.969941 48.992 3.63798C35.771 5.38444 25.7279 12.2906 18.8343 23.6511C14.7937 30.3076 12.7936 38.0023 13.0816 45.7834V45.7891ZM86.2281 89.1575C86.8654 91.2453 88.6976 92.5367 90.9367 92.5708C92.5868 92.5992 92.5868 92.5992 92.5868 90.9922V57.38C92.5868 57.1325 92.5868 56.8822 92.5868 56.6347C92.5974 56.5754 92.5953 56.5145 92.5806 56.456C92.5659 56.3976 92.5389 56.3429 92.5016 56.2956C92.4642 56.2483 92.4173 56.2095 92.3638 56.1816C92.3103 56.1538 92.2516 56.1376 92.1914 56.1341C90.2198 55.679 87.8043 56.629 86.6919 58.3613C86.4899 58.6741 86.0916 59.0212 86.3078 59.3881C86.487 59.6953 86.9565 59.5047 87.295 59.5218C88.4331 59.5758 89.1699 60.1874 89.1614 61.1175C89.1529 62.0476 88.4473 62.6506 87.3861 62.7189C85.8327 62.8184 85.8327 62.8184 85.8327 64.4255V64.6388C85.8327 66.1122 85.8327 66.1122 87.2552 66.1492C88.416 66.1805 89.1386 66.7693 89.1557 67.6994C89.1728 68.6295 88.4359 69.2866 87.3121 69.3435C85.827 69.4174 85.827 69.4174 85.827 70.8908C85.8398 71.0679 85.8398 71.2457 85.827 71.4227C85.6677 72.4296 85.9465 72.8904 87.1044 72.788C88.416 72.6771 89.1842 73.3569 89.1614 74.3667C89.1386 75.3764 88.3762 76.0278 87.1699 75.9254C85.9635 75.823 85.6933 76.2923 85.8384 77.3476C85.9237 77.9734 85.5908 78.7414 85.9749 79.205C86.359 79.6686 87.1129 79.3131 87.682 79.3813C88.0613 79.3932 88.4221 79.5483 88.6918 79.8153C88.9616 80.0823 89.1202 80.4415 89.1358 80.8206C89.2126 81.6512 88.7659 82.2428 87.9437 82.476C87.6391 82.5697 87.3182 82.5978 87.002 82.5585C85.9749 82.3907 85.6819 82.8629 85.827 83.7873C85.8384 83.9293 85.8384 84.072 85.827 84.214C85.827 85.8836 85.827 85.8836 87.5084 85.9832C88.4473 86.0401 89.0959 86.626 89.1529 87.4679C89.169 87.8984 89.0141 88.3177 88.722 88.6343C88.4298 88.9509 88.0242 89.139 87.5938 89.1575C87.1387 89.1783 86.683 89.1764 86.2281 89.1518V89.1575ZM13.2125 74.4093C13.2125 68.6324 13.2125 62.8582 13.2125 57.0813C13.2125 56.7656 13.497 56.2962 12.8569 56.1426C10.8653 55.6619 9.81546 56.4413 9.81546 58.4494V90.1218C9.81546 92.1299 10.2593 92.5224 12.2252 92.5907C13.1157 92.622 13.2466 92.3063 13.2409 91.5155C13.1983 85.8125 13.2125 80.1067 13.2125 74.4036V74.4093ZM95.7819 74.3951V76.9551C95.7819 81.8503 95.7819 86.7426 95.7819 91.6378C95.7819 91.9649 95.5343 92.4286 96.146 92.5822C98.0437 93.06 99.1817 92.1868 99.1817 90.2213V58.3954C99.1966 58.1109 99.19 57.8256 99.1618 57.5421C98.9996 56.4043 98.1575 55.9976 96.4021 56.1341C95.2641 56.2251 95.8018 57.0927 95.7989 57.5762C95.7676 63.1825 95.7819 68.786 95.7819 74.3894V74.3951ZM6.58348 74.3667V71.8067C6.58348 69.2667 6.58348 69.2866 3.99163 69.352C3.38279 69.3691 3.21491 69.5511 3.22344 70.1427C3.25474 72.3699 3.22344 74.5942 3.22344 76.8214C3.22344 79.4468 3.22345 79.4297 5.86652 79.3301C6.43553 79.3074 6.59486 79.1367 6.58348 78.5934C6.55218 77.194 6.58348 75.7803 6.58348 74.3667ZM105.782 74.3667V71.8209C105.782 69.2809 105.782 69.3036 103.185 69.3719C102.57 69.389 102.414 69.5824 102.422 70.1683C102.451 72.3927 102.422 74.6198 102.422 76.847C102.422 79.4724 102.422 79.4524 105.074 79.35C105.643 79.3273 105.791 79.1424 105.779 78.6077C105.751 77.1883 105.771 75.7746 105.771 74.361L105.782 74.3667Z" fill="#030303"/>
<path d="M54.5029 33.0661C59.8914 33.0661 65.2828 33.0491 70.6714 33.0661C74.993 33.0832 78.2449 35.6687 79.0728 39.7248C79.1871 40.3878 79.2348 41.0605 79.2151 41.733C79.2265 48.0438 79.2265 54.3545 79.2151 60.6653C79.2151 65.8591 75.7526 69.3407 70.549 69.3037C69.4935 69.3037 69.283 69.5881 69.3057 70.5837C69.374 73.8433 69.3285 77.1059 69.3313 80.3684C69.3313 81.2558 69.2602 82.0949 68.2331 82.4249C67.2061 82.7548 66.6456 82.186 66.105 81.4578C63.2884 77.6804 60.4462 73.923 57.6438 70.1371C57.4656 69.8621 57.2162 69.6405 56.9222 69.4958C56.6282 69.351 56.3004 69.2886 55.9738 69.3151C50.094 69.3492 44.2075 69.3539 38.3145 69.3293C34.0099 69.3151 30.7381 66.7125 29.913 62.662C29.8013 61.9988 29.7537 61.3263 29.7707 60.6539C29.7707 54.345 29.7707 48.0343 29.7707 41.7216C29.7707 36.5221 33.2218 33.0775 38.4368 33.0633C43.7941 33.0491 49.1485 33.0661 54.5029 33.0661ZM66.142 75.8799C66.142 73.2176 66.142 70.6662 66.142 68.1147C66.142 66.6556 66.6598 66.1635 68.1336 66.1464C68.916 66.1464 69.6955 66.1464 70.4751 66.1464C74.0001 66.1464 76.0172 64.1269 76.0201 60.6084C76.0201 54.3318 76.0201 48.0551 76.0201 41.7785C76.0201 38.3083 74.0115 36.2689 70.5632 36.2661C59.8506 36.2661 49.139 36.2661 38.4283 36.2661C34.9715 36.2661 32.9657 38.297 32.9629 41.7671C32.9629 47.9736 33.0682 54.1801 32.9202 60.3837C32.8349 63.9136 35.2589 66.2403 38.7071 66.1777C44.878 66.0696 51.049 66.1635 57.2227 66.1322C57.6608 66.1056 58.0981 66.1953 58.4903 66.3921C58.8825 66.5889 59.2157 66.8859 59.4561 67.2529C61.3822 69.884 63.3596 72.478 65.3226 75.0807C65.5332 75.3424 65.6584 75.695 66.142 75.8742V75.8799Z" fill="#030303"/>
<path d="M86.2281 89.1519C86.6849 89.1748 87.1426 89.1748 87.5994 89.1519C88.0299 89.1334 88.4355 88.9453 88.7277 88.6287C89.0198 88.3121 89.1747 87.8928 89.1585 87.4623C89.1016 86.609 88.453 86.0401 87.5141 85.9776C85.8327 85.878 85.8327 85.878 85.8327 84.2083C85.844 84.0663 85.844 83.9237 85.8327 83.7817C85.6876 82.8573 85.9806 82.3851 87.0077 82.5529C87.3239 82.5922 87.6448 82.5641 87.9494 82.4704C88.7716 82.24 89.2183 81.6455 89.1415 80.815C89.1258 80.4358 88.9672 80.0767 88.6975 79.8097C88.4278 79.5426 88.067 79.3876 87.6876 79.3757C87.1016 79.3075 86.3362 79.6602 85.9806 79.1994C85.625 78.7386 85.9294 77.9677 85.844 77.342C85.6989 76.2924 85.992 75.8259 87.1755 75.9198C88.3591 76.0136 89.1671 75.3253 89.1671 74.3611C89.1671 73.3968 88.4217 72.6715 87.1101 72.7824C85.9521 72.8848 85.6876 72.424 85.8327 71.4171C85.8454 71.24 85.8454 71.0623 85.8327 70.8852C85.8327 69.4118 85.8327 69.4118 87.3178 69.3379C88.4558 69.281 89.1784 68.6268 89.1614 67.6938C89.1443 66.7608 88.4217 66.1749 87.2609 66.1436C85.8383 66.1066 85.8383 66.1066 85.8383 64.6332V64.4199C85.8383 62.8214 85.8384 62.8214 87.3918 62.7133C88.453 62.645 89.1585 62.0079 89.1671 61.1119C89.1756 60.2159 88.4501 59.5702 87.3007 59.5162C86.9622 59.4991 86.4927 59.6897 86.3135 59.3825C86.0972 59.0155 86.4956 58.6685 86.6976 58.3557C87.81 56.6234 90.2254 55.6734 92.1971 56.1285C92.2572 56.132 92.316 56.1482 92.3695 56.176C92.4229 56.2038 92.4699 56.2427 92.5073 56.29C92.5446 56.3373 92.5715 56.392 92.5862 56.4504C92.6009 56.5089 92.6031 56.5698 92.5925 56.6291C92.5925 56.8766 92.5925 57.1269 92.5925 57.3743V90.9865C92.5925 92.5936 92.5925 92.5936 90.9424 92.5652C88.6976 92.531 86.8654 91.2397 86.2281 89.1519Z" fill="#E43C5C"/>
<path d="M16.4331 56.8308C16.3847 56.5066 16.3363 56.2363 16.8143 56.1339C18.9709 55.676 21.4233 56.7512 22.5044 58.637C22.8515 59.2514 22.9141 59.6354 22.0122 59.533C21.8703 59.5202 21.7274 59.5202 21.5855 59.533C20.5698 59.5842 19.8784 60.1673 19.8471 61.0291C19.8159 61.891 20.51 62.6248 21.5542 62.7187C23.1929 62.8666 23.1929 62.8666 23.1929 64.5562C23.1929 64.8748 23.1759 65.1962 23.1929 65.5147C23.2214 65.9699 23.0251 66.1633 22.5699 66.1434C22.1801 66.1263 21.7903 66.1434 21.4005 66.1434C21.2029 66.138 21.0063 66.1724 20.8222 66.2443C20.638 66.3163 20.4702 66.4244 20.3286 66.5622C20.187 66.7001 20.0744 66.865 19.9976 67.0471C19.9208 67.2292 19.8812 67.4248 19.8813 67.6224C19.8215 68.453 20.2995 69.019 21.1246 69.2494C21.2242 69.2779 21.3323 69.2921 21.4347 69.3149C22.0037 69.44 22.9255 69.0105 23.0877 69.5709C23.3466 70.4526 23.1816 71.4624 23.1645 72.4152C23.1645 72.7651 22.843 72.731 22.5955 72.7367C22.2427 72.7367 21.8871 72.7367 21.5314 72.7367C20.5926 72.7793 19.9268 73.3624 19.8585 74.1873C19.7903 75.0122 20.456 75.7745 21.4005 75.911C21.9696 75.9907 22.6979 75.6635 23.0336 76.0674C23.4518 76.5766 23.0934 77.3673 23.1958 78.0244C23.3665 79.091 22.9881 79.4466 21.8871 79.367C20.6324 79.2646 19.8955 79.9045 19.8585 80.8631C19.8216 81.8217 20.6182 82.5982 21.8899 82.5072C22.9881 82.4275 23.3836 82.7916 23.1929 83.8469C23.1801 83.9888 23.1801 84.1316 23.1929 84.2735C23.1929 85.8892 23.1929 85.8891 21.6196 85.9489C20.5613 85.9887 19.8472 86.6315 19.8585 87.5332C19.8699 88.4349 20.5385 89.0521 21.5286 89.1261C21.7767 89.1446 22.0259 89.1446 22.274 89.1261C22.843 89.0919 22.843 89.328 22.6325 89.7547C22.252 90.5212 21.6814 91.1776 20.9752 91.6611C20.269 92.1446 19.4506 92.4391 18.5982 92.5166C18.0747 92.582 17.537 92.5166 17.0049 92.545C16.527 92.5706 16.3534 92.3744 16.4644 91.9136C17.8186 91.046 18.2852 89.6125 18.2966 88.2016C18.3725 78.9631 18.3725 69.7226 18.2966 60.4802C18.2625 59.095 17.8698 57.6415 16.4331 56.8308Z" fill="#E43C5C"/>
<path d="M13.2125 74.4035C13.2125 80.0923 13.2125 85.8123 13.2125 91.5153C13.2125 92.3004 13.0873 92.6218 12.1968 92.5905C10.2308 92.5223 9.78702 92.1297 9.78702 90.1216V58.4436C9.78702 56.4354 10.834 55.6561 12.8284 56.1368C13.4628 56.2904 13.184 56.7597 13.184 57.0754C13.2181 62.8524 13.2125 68.6208 13.2125 74.4035Z" fill="#CE1D47"/>
<path d="M95.7818 74.3896C95.7818 68.7862 95.7818 63.1827 95.8103 57.5792C95.8103 57.0957 95.2697 56.2281 96.4134 56.1371C98.1688 56.0006 99.011 56.4216 99.1732 57.5451C99.2013 57.8286 99.208 58.1139 99.1931 58.3984V90.2073C99.1931 92.1727 98.0551 93.0517 96.1574 92.5681C95.5457 92.4145 95.7961 91.9509 95.7932 91.6238C95.7762 86.7286 95.7932 81.8362 95.7932 76.941L95.7818 74.3896Z" fill="#CE1D47"/>
<path d="M56.833 105.743C54.3606 105.743 51.8854 105.803 49.413 105.76C48.5733 105.738 47.7734 105.397 47.1754 104.807C46.5775 104.217 46.2261 103.422 46.1924 102.583C46.1185 100.823 47.2992 99.2809 49.0887 99.1358C51.6602 98.9571 54.2407 98.9504 56.8131 99.1159C58.4433 101.332 58.4205 103.528 56.833 105.743Z" fill="#E43C5C"/>
<path d="M16.4331 56.8311C17.8698 57.6417 18.2624 59.1066 18.2738 60.506C18.3421 69.7465 18.3421 78.987 18.2738 88.2275C18.2738 89.6497 17.7959 91.0719 16.4416 91.9394C16.4416 83.3569 16.4331 74.7754 16.416 66.1948C16.4075 63.0745 16.4245 59.9514 16.4331 56.8311Z" fill="#CE1D47"/>
<path d="M6.58348 74.3665C6.58348 75.7887 6.56357 77.1938 6.58348 78.6075C6.58348 79.1508 6.42985 79.3214 5.86652 79.3442C3.22346 79.4438 3.22345 79.4608 3.22345 76.8354C3.22345 74.6083 3.24337 72.384 3.22345 70.1568C3.22345 69.5652 3.38279 69.3831 3.99164 69.3661C6.58349 69.3006 6.58348 69.2807 6.58348 71.8208V74.3665Z" fill="#CE1D47"/>
<path d="M105.771 74.3611C105.771 75.7833 105.751 77.1884 105.771 78.6021C105.771 79.1368 105.634 79.3217 105.065 79.3445C102.414 79.4469 102.414 79.4668 102.414 76.8414C102.414 74.6142 102.431 72.3871 102.414 70.1628C102.414 69.5768 102.562 69.3834 103.176 69.3663C105.774 69.2981 105.774 69.2753 105.774 71.8154L105.771 74.3611Z" fill="#CE1D47"/>
<path d="M56.8329 105.743C58.4205 103.527 58.4432 101.32 56.813 99.1155C57.8989 98.9595 59.0022 98.97 60.0848 99.1468C60.8951 99.2895 61.6228 99.7297 62.125 100.381C62.6272 101.033 62.8676 101.849 62.799 102.668C62.7389 103.469 62.3926 104.222 61.8233 104.789C61.2539 105.357 60.4996 105.7 59.6979 105.757C58.7448 105.814 57.7946 105.752 56.8329 105.743Z" fill="#CE1D47"/>
<path d="M66.142 75.874C65.6583 75.6948 65.5331 75.3421 65.3283 75.0719C63.3652 72.4693 61.3879 69.8752 59.4618 67.2441C59.2213 66.8771 58.8881 66.5801 58.4959 66.3833C58.1037 66.1865 57.6664 66.0969 57.2284 66.1235C51.0546 66.1547 44.8837 66.0609 38.7127 66.169C35.2645 66.2315 32.8405 63.8935 32.9259 60.3749C33.0738 54.1713 32.9629 47.9648 32.9686 41.7584C32.9686 38.2882 34.9772 36.2602 38.4339 36.2573C49.1446 36.2573 59.8563 36.2573 70.5689 36.2573C74.0171 36.2573 76.0229 38.2996 76.0257 41.7698C76.0257 48.0483 76.0257 54.3249 76.0257 60.5996C76.0257 64.1182 74.0057 66.1263 70.4807 66.1377C69.7012 66.1377 68.9216 66.1377 68.1392 66.1377C66.6626 66.1547 66.1477 66.6468 66.1477 68.106C66.1334 70.6603 66.142 73.2117 66.142 75.874ZM67.2032 47.5979C67.2032 46.0392 67.2203 44.4691 67.2032 42.916C67.1804 41.2407 66.3838 40.1285 65.0153 39.7872C63.5928 39.4345 62.4206 39.9806 61.5785 41.4455C59.2664 45.4675 56.9629 49.4923 54.6678 53.5199C53.7005 55.2266 54.3663 56.3643 56.3066 56.3871C57.6552 56.3871 59.0037 56.3615 60.3494 56.3871C61.5443 56.4184 63.0978 55.8723 63.8261 56.6004C64.5004 57.2774 63.9655 58.8247 64.0139 59.9881C64.0139 60.2356 64.0139 60.4859 64.0139 60.7333C64.0395 61.9877 64.6284 62.7016 65.6185 62.6846C66.6086 62.6675 67.1861 61.928 67.2032 60.6935C67.2203 59.5216 67.2316 58.3497 67.2032 57.1807C67.1861 56.6289 67.2857 56.3842 67.9287 56.353C68.8135 56.3103 69.3512 55.7386 69.3996 54.8341C69.4157 54.6291 69.3892 54.4231 69.3216 54.2289C69.2541 54.0347 69.147 53.8567 69.0072 53.7059C68.8674 53.5552 68.6979 53.4351 68.5093 53.3531C68.3207 53.2712 68.1172 53.2292 67.9116 53.2298C67.2345 53.1957 67.1975 52.9027 67.2032 52.3765C67.2203 50.7922 67.2032 49.1936 67.2032 47.5979ZM45.0914 59.5188C45.115 59.3919 45.1522 59.2679 45.2023 59.149C46.7424 56.9816 48.2835 54.817 49.8255 52.6552C50.7853 51.3819 51.569 49.985 52.1556 48.5024C53.4445 44.9697 51.5155 41.2009 47.8027 39.9835C44.4455 38.8827 40.7356 40.9591 39.7483 44.4918C39.4354 45.6068 39.7853 46.4829 40.6531 46.7816C41.6119 47.1058 42.4085 46.6081 42.7926 45.4419C43.4839 43.3484 45.2535 42.4268 47.1825 43.1664C49.0403 43.8718 49.8056 45.8458 48.9919 47.8056C48.5348 48.8413 47.9621 49.8222 47.2849 50.7296C45.043 53.8755 42.8551 57.0584 40.4568 60.0933C39.6032 61.1856 40.1552 62.4798 41.535 62.6903C41.7105 62.7121 41.8875 62.7197 42.0642 62.713H51.4273C52.13 62.713 52.7787 62.6106 53.1998 61.9678C53.911 60.8784 53.1656 59.5614 51.7773 59.533C49.578 59.496 47.3873 59.5188 45.0914 59.5188Z" fill="#004999"/>
<path d="M64.0082 44.0794C64.0082 46.9039 64.0082 49.7312 64.0082 52.5557C64.0082 52.9653 63.9513 53.2185 63.4392 53.2099C61.8545 53.1843 60.2698 53.2099 58.5144 53.2099L63.7834 44.0254L64.0082 44.0794Z" fill="#004999"/>
</g>
<defs>
<clipPath id="clip0_79_206">
<rect width="109" height="109" fill="white"/>
</clipPath>
</defs>
</svg>
