<svg width="139" height="139" viewBox="0 0 139 139" fill="none" xmlns="http://www.w3.org/2000/svg">
<path d="M83.7188 41.0054C89.0611 36.8633 94.4034 32.7175 99.7456 28.5679C102.919 26.0999 105.305 26.4706 107.587 29.815L109.007 31.8936C111.161 35.0544 110.797 37.1854 107.714 39.5336C101.551 44.2262 95.4074 48.9451 89.211 53.5928C88.2931 54.2819 88.0646 54.9223 88.2519 56.0346C88.694 58.6562 89.0012 61.3002 89.2784 63.9443C89.2907 64.4198 89.441 64.8815 89.7111 65.2731C89.9811 65.6648 90.3592 65.9695 90.7994 66.1501C93.3544 67.3898 95.8345 68.7717 98.3745 70.0526C99.0492 70.3709 99.6458 70.8333 100.122 71.4073C100.599 71.9813 100.943 72.6528 101.132 73.3745C102.368 77.6139 103.661 81.8422 105.002 86.3213C106.658 84.7109 108.19 83.2391 109.696 81.7411C112.118 79.2765 114.411 76.689 116.567 73.9887C117.159 73.2659 117.177 72.985 116.155 72.794C114.735 72.5318 113.352 72.0974 111.947 71.7566C110.921 71.5057 110.134 71.0076 109.939 69.884C109.745 68.7605 110.277 67.9141 111.273 67.3636C117.829 63.7233 124.386 60.0856 130.945 56.4503C132.657 55.5103 134.118 56.1619 134.553 58.0794C136.014 64.5335 137.445 70.9913 138.846 77.4529C139.374 79.891 137.909 81.1606 135.568 80.4003C134.624 80.1516 133.698 79.835 132.799 79.4528C131.466 78.7937 130.735 79.1082 129.9 80.3666C123.958 89.3763 117.064 97.7209 109.336 105.257C96.9733 117.241 82.8722 126.409 66.1785 131.255C60.2975 132.916 54.2665 133.991 48.1737 134.465C46.544 134.603 47.4244 133.341 47.0835 132.802C47.1037 132.427 47.0849 132.05 47.0273 131.678C46.6826 130.353 47.1884 129.941 48.5258 129.855C55.5097 129.369 62.3969 127.95 69.0033 125.634C85.0226 120.095 98.2921 110.432 109.894 98.2945C116.638 91.2574 122.49 83.5387 127.877 75.4493C128.896 73.9175 129.566 73.7153 131.297 74.2359C132.024 74.4568 132.717 74.8575 133.582 74.8501C133.582 74.6322 133.568 74.4146 133.541 74.1984C132.691 70.3297 131.822 66.4647 130.994 62.5885C130.81 61.7346 130.458 61.8395 129.851 62.1766C126.727 63.9368 123.58 65.667 120.444 67.4197C119.792 67.7943 119.148 68.15 118.238 68.6631C119.429 68.9777 120.279 69.1987 121.126 69.4309C123.422 70.06 123.969 71.5806 122.557 73.513C117.517 80.4089 111.651 86.6623 105.092 92.1338C91.101 103.914 74.1644 111.662 56.1009 114.545C54.1229 114.87 54.1229 114.874 53.8531 113.159C53.5609 110.391 53.5609 110.391 56.3257 109.912C59.5026 109.361 59.5363 109.365 60.0196 106.096C61.623 95.2085 63.3501 84.3364 64.695 73.4157C65.0696 70.2848 64.3204 67.0115 64.0918 63.7982C63.5224 63.7495 63.4512 64.2027 63.2602 64.4536C60.0533 68.6406 56.8427 72.8202 53.6883 77.0447C53.2121 77.7402 52.5762 78.3116 51.8339 78.711C51.0915 79.1104 50.2642 79.3262 49.4212 79.3404C47.8815 79.4041 46.3492 79.5914 44.8132 79.6925C42.9213 79.8198 41.4191 79.1157 40.4825 77.4454C39.5459 75.7751 39.7332 74.0336 40.8571 72.4607C46.7588 64.4087 52.663 56.3604 58.5697 48.3159C60.087 46.2486 62.1438 44.9453 64.7212 44.1963C63.4213 42.481 62.3573 40.7208 61.9789 38.6086C61.5784 36.3924 61.8516 34.1071 62.7631 32.0476C63.6746 29.9882 65.1827 28.2491 67.0926 27.0549C69.0325 25.8615 71.2893 25.2855 73.564 25.4032C75.8387 25.5209 78.0239 26.3268 79.8302 27.714C81.6238 29.077 82.9591 30.9543 83.6579 33.0956C84.3568 35.2368 84.3858 37.5402 83.7413 39.6984C83.6327 40.0542 83.5278 40.41 83.4229 40.7657C83.318 40.8818 83.0483 40.9904 83.1906 41.1403C83.333 41.2901 83.599 41.2676 83.7188 41.0054ZM72.7084 43.1664C74.1357 43.2802 75.5604 42.9172 76.7591 42.1344C77.9579 41.3516 78.8628 40.1931 79.3319 38.8407C79.8322 37.4461 79.8566 35.9252 79.4011 34.5153C78.9457 33.1054 78.0361 31.8859 76.8144 31.0472C75.6251 30.2098 74.1909 29.792 72.7379 29.8598C71.2848 29.9277 69.8957 30.4772 68.7897 31.4217C67.6923 32.2648 66.8937 33.4369 66.5107 34.7666C66.1278 36.0962 66.1808 37.5134 66.6618 38.8108C67.0883 40.0772 67.9008 41.1783 68.9853 41.9594C70.0698 42.7406 71.3717 43.1627 72.7084 43.1664ZM64.2417 108.279C66.1785 107.71 67.9131 107.185 69.6551 106.695C69.9687 106.636 70.2533 106.473 70.4628 106.233C70.6722 105.992 70.7942 105.688 70.809 105.369C72.5361 95.1673 74.3268 84.9731 76.0838 74.7714C76.5221 72.2509 77.8221 71.5618 80.1524 72.7003C83.333 74.2546 86.4986 75.85 89.698 77.363C90.4647 77.7026 91.1497 78.2026 91.7068 78.8293C92.2638 79.4559 92.68 80.1947 92.9273 80.9958C94.1336 84.5686 95.4786 88.1115 96.6999 91.6656C97.0183 92.5982 97.3218 92.6319 98.0111 92.0401C98.7472 91.3924 99.5257 90.7944 100.341 90.25C101.091 89.7594 101.21 89.2163 100.952 88.3774C99.6108 84.0131 98.3058 79.6438 97.0371 75.2695C96.9423 74.9163 96.7682 74.5893 96.528 74.3135C96.2878 74.0377 95.9878 73.8203 95.6509 73.6778C92.7737 72.2435 89.9527 70.6817 87.0643 69.2773C86.5094 69.0375 86.0316 68.6488 85.6839 68.1545C85.3361 67.6601 85.1319 67.0792 85.0938 66.476C84.6217 62.5885 84.1946 58.6899 83.569 54.8212C83.288 53.0797 83.8725 52.0348 85.2061 51.0349C91.2939 46.4696 97.3293 41.8368 103.383 37.2304C105.901 35.3129 105.83 35.3578 104.155 32.6913C103.428 31.5303 102.971 31.725 102.072 32.4366C96.329 36.9682 90.5409 41.4548 84.7828 46.0089C83.9448 46.6828 82.9159 47.0759 81.8419 47.1324C77.0466 47.4882 72.2588 47.9152 67.4673 48.2972C66.3236 48.3697 65.2119 48.7035 64.2176 49.2729C63.2232 49.8423 62.3728 50.6322 61.7316 51.5816C56.277 59.0943 50.7624 66.5621 45.2853 74.0523C45.053 74.3669 44.6409 74.6216 44.7608 75.2395C45.8567 75.0925 46.9597 75.005 48.065 74.9774C49.3875 75.0073 50.1405 74.3594 50.8898 73.3557C55.1119 67.7156 59.4089 62.1204 63.661 56.5027C64.3728 55.5589 65.197 54.956 66.3958 55.3118C67.5197 55.6451 67.9393 56.5214 68.0255 57.66C68.2278 60.3115 68.5163 62.9593 68.7261 65.6108C68.9358 68.2624 69.5352 71.06 69.2056 73.6928C68.0592 82.8983 66.5832 92.0664 65.2345 101.246C64.8973 103.526 64.5863 105.822 64.2417 108.279ZM75.4807 104.594C81.3945 102.258 87.0659 99.3507 92.4141 95.9126C93.0022 95.5381 93.2383 95.2572 92.9535 94.4857C91.455 90.4709 90.0689 86.4262 88.6453 82.389C88.583 82.1679 88.4738 81.9628 88.3251 81.7876C88.1764 81.6125 87.9917 81.4714 87.7836 81.374C85.5133 80.3029 83.2431 79.2244 80.999 78.0933C80.2498 77.7188 80.0774 77.8611 79.9538 78.6551C79.4855 81.6025 78.946 84.5349 78.4553 87.4748C77.4737 93.115 76.4959 98.7551 75.4882 104.594H75.4807Z" fill="#030303"/>
<path d="M53.8464 113.17C54.1236 114.885 54.1236 114.881 56.0942 114.555C74.1558 111.669 91.0897 103.919 105.077 92.1372C111.637 86.6657 117.503 80.4123 122.543 73.5165C123.955 71.584 123.408 70.0635 121.112 69.4343C120.265 69.2021 119.415 68.9811 118.223 68.6665C119.134 68.1535 119.778 67.7864 120.43 67.4232C123.566 65.6817 126.712 63.9514 129.837 62.18C130.444 61.8392 130.796 61.7381 130.98 62.592C131.807 66.4644 132.677 70.3294 133.527 74.2018C133.554 74.418 133.568 74.6356 133.568 74.8535C132.703 74.8535 132.01 74.4602 131.283 74.2393C129.552 73.7187 128.882 73.9209 127.863 75.4527C122.479 83.5534 116.624 91.2721 109.88 98.2979C98.2666 110.436 85.0084 120.098 68.9891 125.637C62.3827 127.953 55.4955 129.373 48.5116 129.858C47.178 129.944 46.6722 130.356 47.0131 131.682C47.0707 132.053 47.0895 132.43 47.0693 132.805H41.0752C41.9481 131.907 42.7798 130.963 43.6976 130.113C46.5523 127.491 46.6947 126.551 43.7313 123.892C43.1357 123.36 42.8135 122.907 43.1919 121.997C43.5702 121.087 44.0872 120.971 44.889 121.038C45.4456 121.066 46.0032 121.066 46.5598 121.038C48.4554 121.008 49.2572 120.226 49.3096 118.308C49.3508 116.686 49.3695 115.061 49.3958 113.439L53.8464 113.17Z" fill="#E43C5C"/>
<path d="M49.4291 113.462C49.4028 115.088 49.3841 116.713 49.3429 118.331C49.2904 120.248 48.4887 121.031 46.5931 121.061C46.0365 121.089 45.4788 121.089 44.9222 121.061C44.1205 120.994 43.5998 121.125 43.2251 122.02C42.8505 122.915 43.1689 123.383 43.7646 123.915C46.7617 126.574 46.5856 127.495 43.7309 130.135C42.813 130.986 41.9813 131.929 41.1084 132.828C40.4379 133.472 39.7747 134.128 39.0892 134.761C37.8566 135.884 36.7777 135.884 35.5339 134.723C35.0918 134.309 34.6635 133.879 34.2489 133.435C33.7319 132.884 33.3198 132.446 32.3758 132.866C31.4317 133.285 31.3942 133.768 31.398 134.577C31.398 138.787 31.1807 138.993 26.9698 138.993C24.8194 138.993 22.6728 138.993 20.5261 138.993C18.7766 138.974 17.9899 138.172 17.9262 136.412C17.8756 135.808 17.8756 135.2 17.9262 134.596C18.0573 133.637 17.6302 133.236 16.8023 132.839C15.8844 132.401 15.5435 132.967 15.0677 133.439C12.1493 136.341 11.7972 136.345 8.92001 133.469C7.36528 131.918 5.79931 130.379 4.27081 128.806C3.04951 127.555 3.07947 126.439 4.30078 125.158C4.67541 124.754 5.05005 124.338 5.48837 123.971C6.12899 123.413 6.4287 122.922 6.03908 121.96C5.64946 120.997 5.03506 121.072 4.30078 121.072C0.224772 121.072 0 120.848 0 116.837C0 114.642 0 112.447 0 110.253C0.022478 108.38 0.790471 107.631 2.64116 107.612C3.19936 107.612 3.76506 107.586 4.31952 107.612C5.09501 107.653 5.64196 107.612 6.03533 106.683C6.44742 105.71 6.09152 105.227 5.46214 104.68C5.14745 104.403 4.86647 104.084 4.57051 103.789C2.95585 102.159 2.94461 101.167 4.57051 99.5303C6.35127 97.7402 8.13452 95.9575 9.92027 94.1823C11.4638 92.6468 12.4341 92.6356 13.9663 94.1224C14.3409 94.4969 14.7156 94.8302 15.0527 95.216C15.5697 95.8039 16.0043 96.1597 16.9259 95.7552C17.8475 95.3508 17.9412 94.8826 17.9374 94.055C17.9374 89.7743 18.0536 89.6694 22.3506 89.6694C24.4972 89.6694 26.6476 89.6694 28.7943 89.6694C30.5438 89.6694 31.3343 90.4821 31.4167 92.2386C31.4542 92.8447 31.4542 93.4526 31.4167 94.0587C31.3493 94.8826 31.5254 95.3732 32.4095 95.7627C33.2936 96.1522 33.7432 95.7365 34.2826 95.2047C37.231 92.2648 37.5494 92.276 40.5278 95.2759C41.9739 96.7327 43.4387 98.1746 44.881 99.6352C46.3233 101.096 46.2896 102.193 44.9147 103.605C44.5363 104.028 44.1348 104.429 43.7122 104.807C43.0378 105.346 42.9217 105.863 43.2663 106.717C43.611 107.571 44.1055 107.631 44.8548 107.635C49.2342 107.635 49.3504 107.755 49.3504 112.091C49.3316 112.533 49.3991 112.998 49.4291 113.462ZM37.5307 130.274C38.0027 129.716 38.4149 129.15 38.8981 128.66C40.4566 127.072 40.4641 127.083 38.9656 125.503C37.6656 124.132 37.5831 123.484 38.456 121.758C38.9834 120.718 39.4136 119.633 39.7411 118.514C40.1157 117.263 40.9099 116.522 42.3035 116.597C42.7681 116.619 43.2439 116.548 43.7047 116.597C44.6 116.72 44.866 116.256 44.8698 115.473C44.8698 115.144 44.8698 114.818 44.8698 114.492C44.8698 112.114 44.8698 112.114 42.5545 112.084C40.8574 112.084 40.1831 111.605 39.6961 109.994C39.3208 108.792 38.8316 107.628 38.235 106.519C37.9402 106.036 37.8213 105.466 37.8984 104.906C37.9756 104.346 38.244 103.829 38.6584 103.444C40.4116 101.545 40.3967 101.53 38.6584 99.7738C37.3621 98.4779 37.3621 98.4779 36.0359 99.7738C34.41 101.38 33.953 101.418 31.8625 100.388C30.8947 99.9217 29.8928 99.5298 28.8654 99.2157C27.5917 98.8113 26.9436 98.066 26.9361 96.6728C26.9361 94.1299 26.8836 94.1224 24.3511 94.1336C22.1033 94.1336 22.478 93.9688 22.4555 96.1148C22.4255 98.0885 21.9947 98.639 20.1665 99.2794C19.1129 99.6532 18.0822 100.088 17.0795 100.583C15.5173 101.35 14.8317 101.283 13.5729 100.073C11.9058 98.4929 11.9058 98.4929 10.2499 100.145C8.80386 101.59 8.80387 101.59 10.2762 103.084C11.5911 104.425 11.7148 105.17 10.8681 106.83C10.3242 107.861 9.88973 108.947 9.57186 110.069C9.19723 111.402 8.32809 112.065 6.90823 112.084C4.52556 112.118 4.51432 112.144 4.52931 114.552C4.52931 116.885 4.27081 116.537 6.52985 116.563C8.57534 116.586 9.02865 116.904 9.65428 118.844C9.99944 119.958 10.4563 121.035 11.018 122.057C11.3062 122.517 11.4369 123.058 11.3902 123.598C11.3436 124.139 11.1222 124.65 10.7595 125.053C10.1975 125.761 8.92749 126.214 9.14853 127.136C9.33959 127.922 10.3324 128.514 10.973 129.188C11.0426 129.251 11.1077 129.318 11.1678 129.39C11.6661 130.061 12.1606 130.139 12.7038 129.424C12.9153 129.173 13.1457 128.939 13.3931 128.724C14.843 127.289 15.4386 127.188 17.2144 128.102C18.1239 128.576 19.0743 128.967 20.0541 129.27C21.9797 129.858 22.4218 130.487 22.4517 132.502C22.4817 134.517 22.4817 134.506 24.4748 134.506C26.8949 134.506 26.9286 134.506 26.9361 131.986C26.9361 130.622 27.5055 129.798 28.8093 129.416C29.6233 129.206 30.4122 128.909 31.162 128.529C33.657 127.162 34.2339 126.862 36.5679 129.394C36.7927 129.641 37.0512 129.836 37.5307 130.274Z" fill="#020203"/>
<path d="M112.795 28.8336C113.188 26.3543 113.522 23.8076 114.031 21.3021C114.222 20.3696 113.96 19.8415 113.349 19.2423C111.783 17.7068 110.292 16.0964 108.73 14.5609C107.895 13.7407 107.396 12.8457 107.797 11.6922C108.198 10.5387 109.206 10.2952 110.255 10.1417C112.33 9.84208 114.398 9.50502 116.481 9.24661C116.847 9.23333 117.2 9.11107 117.496 8.89552C117.792 8.67998 118.016 8.38098 118.141 8.03693C119.092 5.86851 120.156 3.74503 121.138 1.59533C121.587 0.621605 122.236 -0.0188139 123.367 -8.83621e-05C124.431 0.0186372 125.057 0.636579 125.48 1.55413C126.476 3.70383 127.537 5.83106 128.477 8.00322C128.852 8.85337 129.399 9.14923 130.264 9.25784C132.343 9.51251 134.411 9.84957 136.487 10.1642C137.536 10.3215 138.506 10.6286 138.869 11.7895C139.233 12.9505 138.712 13.752 137.94 14.5272C136.288 16.1751 134.685 17.8679 133.033 19.5157C132.823 19.6917 132.669 19.9237 132.587 20.1845C132.506 20.4452 132.5 20.7238 132.572 20.9875C133.003 23.2758 133.343 25.5791 133.718 27.8786C133.902 29.0021 134.037 30.1256 132.935 30.9271C131.834 31.7285 130.833 31.2679 129.822 30.6949C127.949 29.6388 126.076 28.6388 124.202 27.5602C123.942 27.3777 123.631 27.2797 123.313 27.2797C122.994 27.2797 122.684 27.3777 122.423 27.5602C120.374 28.7549 118.302 29.9122 116.197 31.0095C114.447 31.9345 112.72 30.8335 112.795 28.8336ZM128.664 24.9049C128.383 23.1635 128.189 21.7853 127.938 20.4108C127.799 19.8435 127.821 19.2487 128.003 18.6935C128.184 18.1383 128.517 17.6448 128.964 17.2687C130.017 16.3136 130.957 15.235 132.096 14.0553C130.597 13.8269 129.38 13.576 128.136 13.4599C126.638 13.3175 125.626 12.7108 125.068 11.2428C124.6 10.0181 123.944 8.86086 123.318 7.53135C122.67 8.89082 122.033 10.0368 121.573 11.2502C121.018 12.7108 119.984 13.2988 118.504 13.4636C117.063 13.5562 115.64 13.8356 114.271 14.295C115.548 15.4186 116.549 16.3211 117.586 17.1825C118.624 18.0439 118.943 19.1899 118.71 20.5531C118.478 21.9163 118.092 23.2346 118.156 24.8113C119.467 24.0848 120.651 23.4631 121.809 22.7889C122.263 22.4984 122.79 22.3439 123.33 22.3439C123.869 22.3439 124.397 22.4984 124.851 22.7889C126.001 23.4481 127.181 24.0848 128.664 24.9049Z" fill="#030303"/>
<path d="M22.1886 24.0148C22.1624 25.2207 22.0987 26.4266 22.1212 27.6363C22.1212 28.2992 21.9152 28.4864 21.2483 28.5164C17.6593 28.6924 17.6219 28.7149 17.6331 25.1196C17.6331 24.1683 17.3334 23.9511 16.4605 23.996C15.3965 24.0522 13.9542 24.3705 13.3548 23.835C12.643 23.1871 13.2462 21.719 13.1075 20.6179C12.9839 19.6292 13.4372 19.4644 14.2914 19.4944C15.3553 19.5431 16.7527 19.8689 17.3971 19.3184C18.0415 18.7679 17.6256 17.3147 17.5844 16.2624C17.5469 15.3336 17.7492 14.989 18.7795 15.0003C22.0987 15.0377 22.095 15.0003 22.1137 18.3072C22.1137 18.7229 22.1624 19.1386 22.1886 19.5543L22.2224 19.5206H21.0985C17.4308 19.5206 17.4533 19.5206 17.5882 23.1609C17.6144 23.835 17.7792 24.041 18.4536 24.0185C19.7086 23.9773 20.9636 24.0185 22.2186 24.041L22.1886 24.0148Z" fill="#004999"/>
<path d="M40.1263 30.7301C40.1001 31.936 40.0401 33.142 40.0626 34.3479C40.0626 35.0145 39.8566 35.2018 39.186 35.2317C35.6007 35.4077 35.5595 35.4302 35.5745 31.8349C35.5745 30.8837 35.2748 30.6664 34.4019 30.7114C33.3379 30.7676 31.8956 31.0859 31.2962 30.5503C30.5844 29.9024 31.1876 28.4343 31.0489 27.3333C30.9253 26.3446 31.3749 26.1798 32.2328 26.2097C33.293 26.2584 34.6904 26.5842 35.3385 26.0337C35.9866 25.4832 35.567 24.0301 35.5221 22.9777C35.4846 22.0489 35.6906 21.7044 36.7171 21.7156C40.0401 21.753 40.0364 21.7156 40.0514 25.0225C40.0514 25.4383 40.1038 25.854 40.13 26.2697L40.1638 26.236H39.0399C35.3722 26.236 35.3947 26.236 35.5295 29.8762C35.5558 30.5503 35.7206 30.7563 36.395 30.7338C37.6462 30.6926 38.905 30.7338 40.1413 30.7563L40.1263 30.7301Z" fill="#E43C5C"/>
<path d="M120.188 128.015C120.161 129.221 120.101 130.43 120.124 131.636C120.124 132.299 119.914 132.486 119.247 132.52C115.658 132.696 115.621 132.715 115.632 129.12C115.632 128.168 115.336 127.951 114.459 127.996C113.399 128.052 111.953 128.371 111.357 127.835C110.642 127.191 111.245 125.719 111.11 124.618C110.987 123.633 111.436 123.464 112.29 123.494C113.354 123.543 114.752 123.869 115.396 123.318C116.04 122.768 115.625 121.315 115.583 120.262C115.546 119.334 115.748 118.989 116.778 119C120.098 119.038 120.098 119 120.113 122.307C120.113 122.723 120.161 123.139 120.188 123.554L120.221 123.521H119.097C115.43 123.521 115.452 123.521 115.591 127.161C115.613 127.835 115.782 128.041 116.452 128.019C117.708 127.977 118.963 128.019 120.218 128.041L120.188 128.015Z" fill="#004999"/>
<path d="M22.1889 19.562C23.3915 19.562 24.5978 19.562 25.8004 19.5134C26.396 19.4909 26.6733 19.6969 26.5946 20.3036C26.5946 20.3485 26.5946 20.3972 26.5946 20.4421C26.5122 21.5882 27.1153 23.2585 26.3735 23.7641C25.2759 24.5131 23.6088 23.9438 22.1889 24.015L22.2264 24.0487C22.0222 22.5488 22.0222 21.0282 22.2264 19.5283L22.1889 19.562Z" fill="#004999"/>
<path d="M40.1299 26.2881C41.3324 26.2881 42.5388 26.2881 43.7413 26.2394C44.337 26.217 44.6142 26.4229 44.5355 27.0296C44.5355 27.0746 44.5355 27.1233 44.5355 27.1682C44.4531 28.3142 45.0563 29.9845 44.3183 30.4901C43.2206 31.2392 41.5535 30.6699 40.1299 30.7411L40.1673 30.7748C39.9651 29.2748 39.9651 27.7544 40.1673 26.2544L40.1299 26.2881Z" fill="#E43C5C"/>
<path d="M120.188 123.562C121.394 123.562 122.597 123.562 123.803 123.513C124.399 123.491 124.672 123.697 124.594 124.304C124.594 124.352 124.594 124.397 124.594 124.446C124.511 125.588 125.114 127.258 124.376 127.764C123.275 128.513 121.612 127.944 120.188 128.015L120.226 128.049C120.025 126.549 120.025 125.028 120.226 123.528L120.188 123.562Z" fill="#004999"/>
<path d="M64.2416 108.279C64.5862 105.822 64.8972 103.526 65.2344 101.234C66.583 92.0548 68.0591 82.883 69.2055 73.6812C69.5351 71.0596 68.9395 68.292 68.7259 65.5992C68.5124 62.9065 68.2277 60.2999 68.0254 57.6484C67.9392 56.5248 67.5196 55.6335 66.3957 55.3002C65.1969 54.9444 64.3727 55.5474 63.6609 56.4911C59.4088 62.1088 55.1118 67.6965 50.8897 73.3441C50.1404 74.3478 49.3911 74.9958 48.0649 74.9658C46.9596 74.9934 45.8565 75.0809 44.7607 75.2279C44.6408 74.61 45.0529 74.3553 45.2852 74.0407C50.7623 66.5505 56.2769 59.0603 61.7315 51.57C62.3694 50.615 63.2185 49.8194 64.213 49.2447C65.2076 48.67 66.3209 48.3316 67.4672 48.2556C72.2587 47.8811 77.0465 47.4467 81.8418 47.0909C82.9158 47.0344 83.9447 46.6413 84.7827 45.9674C90.5371 41.4283 96.3289 36.9416 102.072 32.3876C102.971 31.676 103.428 31.4812 104.155 32.6422C105.83 35.3125 105.901 35.2638 103.383 37.1813C97.3292 41.7878 91.2938 46.4205 85.206 50.9858C83.8723 51.9858 83.2879 53.0306 83.5689 54.7721C84.1945 58.6408 84.6216 62.5395 85.0937 66.4269C85.1318 67.0301 85.336 67.611 85.6838 68.1054C86.0315 68.5998 86.5093 68.9884 87.0642 69.2283C89.9526 70.6439 92.7736 72.1944 95.6508 73.6288C95.9877 73.7712 96.2877 73.9886 96.5279 74.2645C96.7681 74.5403 96.9422 74.8672 97.0369 75.2205C98.3107 79.6022 99.6156 83.9715 100.952 88.3284C101.21 89.1673 101.079 89.7103 100.341 90.2009C99.5256 90.7453 98.7471 91.3433 98.011 91.9911C97.3217 92.5903 97.0182 92.5566 96.6998 91.6166C95.4785 88.0475 94.1335 84.5009 92.9272 80.9467C92.6799 80.1457 92.2637 79.4069 91.7067 78.7802C91.1496 78.1536 90.4646 77.6536 89.6979 77.314C86.4985 75.8159 83.3291 74.2055 80.1522 72.6513C77.822 71.5278 76.522 72.2019 76.0837 74.7224C74.3267 84.9241 72.536 95.1183 70.8089 105.32C70.7941 105.639 70.6721 105.943 70.4626 106.183C70.2532 106.424 69.9686 106.587 69.655 106.646C67.913 107.185 66.1897 107.709 64.2416 108.279Z" fill="#004999"/>
<path d="M68.7898 31.4288C69.8957 30.4843 71.2848 29.9348 72.7379 29.867C74.1909 29.7992 75.6252 30.2169 76.8144 31.0543C78.0361 31.893 78.9457 33.1125 79.4011 34.5224C79.8566 35.9323 79.8322 37.4533 79.3319 38.8479C78.8628 40.2003 77.9579 41.3587 76.7592 42.1416C75.5604 42.9244 74.1357 43.2874 72.7084 43.1735C72.7084 42.7091 72.3338 42.5631 72.0378 42.3721C70.3276 41.2388 69.0828 39.5278 68.5313 37.5521C67.8756 35.4736 68.2428 33.4475 68.7898 31.4288Z" fill="#004999"/>
<path d="M68.7898 31.4292C68.2428 33.4478 67.8756 35.4739 68.5313 37.545C69.0828 39.5206 70.3276 41.2317 72.0378 42.3649C72.33 42.5559 72.7234 42.702 72.7084 43.1664C71.3727 43.1632 70.0714 42.7423 68.987 41.9625C67.9027 41.1828 67.0896 40.0833 66.6618 38.8183C66.1808 37.5209 66.1279 36.1037 66.5108 34.7741C66.8937 33.4445 67.6923 32.2723 68.7898 31.4292Z" fill="#003B70"/>
<path d="M37.531 130.274C37.0514 129.847 36.7817 129.652 36.5794 129.42C34.2454 126.889 33.6685 127.173 31.1734 128.555C30.4237 128.935 29.6348 129.233 28.8207 129.443C27.5095 129.817 26.9476 130.649 26.9476 132.012C26.9476 134.532 26.9064 134.532 24.4862 134.532C22.4932 134.532 22.4932 134.532 22.4632 132.529C22.4333 130.525 21.9912 129.885 20.0656 129.297C19.0858 128.993 18.1354 128.602 17.2259 128.128C15.4501 127.214 14.8544 127.315 13.4046 128.75C13.1572 128.965 12.9268 129.199 12.7153 129.45C12.1721 130.199 11.6775 130.087 11.1793 129.416C11.1192 129.345 11.0541 129.277 10.9845 129.214C10.3439 128.54 9.35107 127.948 9.16001 127.162C8.93898 126.241 10.209 125.787 10.7709 125.08C11.1337 124.676 11.3551 124.165 11.4017 123.625C11.4483 123.084 11.3177 122.543 11.0294 122.084C10.4678 121.061 10.0109 119.984 9.66577 118.87C9.04013 116.93 8.58682 116.623 6.54133 116.589C4.29353 116.563 4.55578 116.912 4.54079 114.578C4.54079 112.17 4.54079 112.144 6.91971 112.11C8.33957 112.11 9.21621 111.429 9.58335 110.095C9.90121 108.973 10.3357 107.888 10.8796 106.856C11.7262 105.204 11.6026 104.459 10.2877 103.111C8.81535 101.613 8.81535 101.613 10.2614 100.171C11.9173 98.5192 11.9173 98.5192 13.5844 100.1C14.8582 101.309 15.5288 101.377 17.091 100.609C18.0936 100.115 19.1244 99.6795 20.178 99.3057C22.0062 98.6653 22.4258 98.1148 22.467 96.1411C22.4969 93.9951 22.1261 94.1674 24.3626 94.1599C26.8951 94.1599 26.9363 94.1599 26.9476 96.6991C26.9476 98.0923 27.6032 98.8376 28.8769 99.2421C29.9043 99.5561 30.9062 99.948 31.874 100.414C33.9645 101.444 34.4215 101.407 36.0474 99.8001C37.3736 98.4855 37.3736 98.4855 38.6698 99.8001C40.4269 101.557 40.4418 101.572 38.6698 103.47C38.2555 103.855 37.987 104.372 37.9099 104.932C37.8327 105.493 37.9517 106.062 38.2465 106.545C38.8431 107.654 39.3323 108.818 39.7076 110.02C40.1946 111.631 40.8689 112.092 42.566 112.11C44.8925 112.14 44.8925 112.14 44.8812 114.518C44.8812 114.844 44.8812 115.17 44.8812 115.5C44.8812 116.275 44.6115 116.739 43.7161 116.623C43.2553 116.559 42.7796 116.623 42.315 116.623C40.9214 116.548 40.1159 117.29 39.7525 118.541C39.425 119.659 38.9949 120.745 38.4675 121.784C37.5946 123.514 37.6771 124.162 38.977 125.529C40.4756 127.109 40.4756 127.098 38.9096 128.686C38.4151 129.151 38.003 129.705 37.531 130.274ZM24.7223 103.144C23.2484 103.126 21.7858 103.403 20.42 103.957C19.0542 104.511 17.8127 105.332 16.7682 106.371C15.7237 107.411 14.8972 108.648 14.337 110.011C13.7768 111.374 13.4942 112.835 13.5058 114.309C13.4916 117.257 14.643 120.092 16.7092 122.196C18.7755 124.3 21.5894 125.504 24.5387 125.544C27.5153 125.549 30.3747 124.385 32.5018 122.303C34.6289 120.222 35.8536 117.389 35.9125 114.414C36.0024 108.283 30.9112 103.148 24.7223 103.133V103.144Z" fill="#004999"/>
<path d="M128.663 24.905C127.165 24.0848 126 23.4482 124.838 22.7815C124.384 22.4909 123.857 22.3365 123.317 22.3365C122.778 22.3365 122.25 22.4909 121.796 22.7815C120.639 23.4557 119.455 24.0773 118.144 24.8039C118.08 23.2272 118.458 21.8865 118.698 20.5457C118.938 19.205 118.698 18.0739 117.574 17.1751C116.45 16.2763 115.536 15.4037 114.259 14.2876C115.628 13.8282 117.051 13.5487 118.492 13.4562C119.991 13.2914 121.006 12.7072 121.56 11.2428C122.021 10.0294 122.658 8.8834 123.306 7.52393C123.943 8.85344 124.587 10.0107 125.056 11.2353C125.614 12.6922 126.637 13.3101 128.124 13.4525C129.368 13.5686 130.597 13.827 132.084 14.0479C130.96 15.2276 130.005 16.295 128.952 17.2612C128.505 17.6374 128.172 18.1309 127.991 18.6861C127.809 19.2412 127.787 19.836 127.925 20.4034C128.188 21.7853 128.379 23.1635 128.663 24.905Z" fill="#FDDE2F"/>
<path d="M24.7218 103.133C30.9107 103.133 36.002 108.283 35.9121 114.41C35.8532 117.385 34.6284 120.218 32.5013 122.299C30.3743 124.381 27.5148 125.545 24.5382 125.54C21.589 125.5 18.775 124.297 16.7088 122.192C14.6425 120.088 13.4912 117.253 13.5053 114.305C13.4927 112.831 13.7746 111.369 14.3343 110.005C14.8941 108.641 15.7204 107.403 16.7651 106.363C17.8097 105.322 19.0515 104.501 20.4178 103.946C21.7841 103.392 23.2473 103.115 24.7218 103.133ZM17.9597 114.346C17.9625 116.113 18.6616 117.808 19.9056 119.063C21.1495 120.319 22.8381 121.034 24.6057 121.054C26.396 121.051 28.1126 120.34 29.3813 119.078C30.6501 117.815 31.3682 116.102 31.379 114.312C31.3712 113.425 31.1883 112.548 30.8407 111.732C30.4932 110.915 29.9878 110.176 29.3537 109.555C28.7195 108.934 27.9691 108.445 27.1453 108.115C26.3215 107.785 25.4406 107.62 24.5532 107.631C22.7882 107.648 21.1022 108.365 19.8657 109.624C18.6293 110.883 17.9437 112.582 17.9597 114.346Z" fill="#020203"/>
</svg>
