<svg width="102" height="93" viewBox="0 0 102 93" fill="none" xmlns="http://www.w3.org/2000/svg">
<path d="M0 43.7547C0.393327 41.4934 0.814297 39.2364 1.17361 36.9709C2.39398 29.2983 3.58674 21.6258 4.80712 13.9533C5.08138 12.2355 5.76386 11.7922 7.46899 12.1033C10.9345 12.7427 13.5879 15.7691 13.5943 19.3219C13.5943 23.3074 13.4582 27.295 13.3817 31.2804C13.3817 31.6385 13.3817 31.9965 13.3817 32.3929C14.2321 32.6295 15.0591 32.7936 15.8415 33.0984C18.2823 34.0468 20.0235 35.7624 21.1461 38.126C22.5706 41.1268 24.0142 44.117 25.4238 47.1242C26.2217 48.8702 27.4236 50.4002 28.9297 51.587C34.0621 55.6108 36.7771 60.8452 36.8345 67.4159C36.8345 67.5779 36.8622 67.7377 36.892 68.0553C37.483 67.7825 37.9954 67.5267 38.5206 67.3051C39.641 66.8362 40.4851 67.0791 41.0038 68.1576C42.6565 71.559 44.2801 74.974 45.8747 78.4025C46.3977 79.5257 46.0724 80.3846 44.9392 80.9281C37.3916 84.5512 29.8369 88.1594 22.2751 91.7527C21.1461 92.2877 20.2914 91.9658 19.745 90.8384C18.1165 87.4625 16.5091 84.0759 14.9231 80.6787C14.3986 79.552 14.7069 78.7137 15.8479 78.1638C16.4368 77.8804 16.6771 77.5244 16.6983 76.8851C16.7175 76.0326 16.8068 75.1801 16.8472 74.3276C16.9173 72.8655 16.3518 71.6528 15.4312 70.5424C11.7764 66.135 8.15573 61.6998 4.5031 57.2881C2.13501 54.4342 0.637975 50.9563 0.191379 47.2712C0.145444 47.0188 0.0858066 46.7691 0.012769 46.5232L0 43.7547ZM20.1405 75.9366C20.3063 75.9366 20.3807 75.958 20.4339 75.9366C24.5543 73.978 28.681 72.0279 32.7843 70.0309C33.0501 69.9009 33.2776 69.4363 33.3095 69.106C33.8751 63.1704 31.8085 58.3111 27.1949 54.5857C25.0041 52.8394 23.2557 50.599 22.0923 48.047C20.6954 44.9993 19.2752 41.958 17.7316 38.9828C17.1468 37.8686 16.2173 36.9747 15.0825 36.4352C13.9478 35.8956 12.6691 35.7396 11.4384 35.9905C11.5957 36.3571 11.736 36.7151 11.8997 37.0561C13.86 41.1865 15.821 45.3154 17.7827 49.443C18.3992 50.7452 18.2079 51.7064 17.2426 52.1816C16.2774 52.6569 15.3504 52.1816 14.7105 50.8667C14.6828 50.807 14.6488 50.7494 14.6211 50.6898L7.81764 36.3421C6.92681 34.4624 7.19256 33.7335 9.13368 33.0621C9.77151 32.8384 9.97136 32.4974 9.98412 31.8495C10.0011 29.6095 10.0671 27.3738 10.1202 25.1296C10.1649 23.318 10.2541 21.5065 10.2499 19.6949C10.2499 18.0368 9.55892 16.7303 7.98774 15.8586C7.94522 16.059 7.9176 16.174 7.89846 16.2849C6.65966 24.0853 5.42157 31.8864 4.18419 39.6882C3.89291 41.5381 3.44002 43.4009 3.4549 45.2529C3.48466 48.9485 4.76672 52.2648 7.14369 55.1334C10.7368 59.4642 14.3143 63.8084 17.8762 68.1661C18.4961 68.9306 19.0361 69.7569 19.4878 70.632C20.3255 72.2901 20.3106 74.0761 20.1405 75.926V75.9366ZM42.1689 78.4942L38.6099 71.0348L18.6139 80.5913L22.1624 88.0507L42.1689 78.4942Z" fill="#024A99"/>
<path d="M87.3802 32.4911C87.3802 28.284 87.4121 24.2346 87.3696 20.1852C87.342 17.7513 88.0414 15.6563 89.8358 13.9705C91.0272 12.8673 92.5367 12.1711 94.1476 11.982C95.1617 11.8413 95.9144 12.436 96.1163 13.6018C96.5841 16.3276 97.0093 19.0599 97.4388 21.79C98.589 29.0726 99.7775 36.3487 100.851 43.644C101.385 47.282 100.46 50.7411 98.7251 53.9081C97.7364 55.7069 96.4161 57.3394 95.1256 58.9507C92.283 62.4928 89.4659 66.0669 86.4362 69.445C84.5525 71.5443 83.8679 73.7863 84.2783 76.5037C84.3973 77.2859 84.4908 77.8869 85.354 78.262C86.3257 78.6882 86.5957 79.6068 86.1365 80.5936C84.5249 84.0533 82.8864 87.4989 81.2209 90.9302C80.6639 92.0747 79.8071 92.2537 78.4676 91.6164C73.8413 89.417 69.2177 87.2111 64.597 84.9989C61.87 83.6988 59.1429 82.398 56.4158 81.0966C54.8383 80.3421 54.5661 79.5898 55.3103 78.019C56.773 74.9287 58.2429 71.8405 59.7198 68.7544C60.583 66.9407 61.242 66.7084 63.0513 67.5631C63.3724 67.7144 63.6998 67.8508 64.1357 68.0426C64.1761 67.2029 64.1867 66.4591 64.2526 65.7195C64.7607 59.9928 67.3333 55.3787 71.8045 51.828C73.4928 50.5054 74.8408 48.7968 75.7356 46.8451C77.0112 44.0979 78.3656 41.3934 79.6157 38.6398C81.1252 35.315 83.5533 33.1944 87.1867 32.5508C87.2535 32.5391 87.3185 32.5191 87.3802 32.4911ZM93.0527 15.8524C91.39 16.8029 90.7331 18.1669 90.765 19.8634C90.8373 23.9128 90.9775 27.9622 91.0413 32.0116C91.0541 32.6254 91.3156 32.8641 91.8407 33.0516C93.8435 33.7826 94.0965 34.4476 93.1695 36.3977C90.9131 41.1504 88.6566 45.9031 86.4001 50.6558C86.256 50.9871 86.0846 51.3058 85.8877 51.6085C85.3625 52.3693 84.6121 52.5207 83.8042 52.2031C83.0664 51.9154 82.6858 51.0394 82.9112 50.2189C83.0247 49.8744 83.167 49.54 83.3364 49.2193C85.281 45.1202 87.2279 41.0218 89.1768 36.9241C89.3256 36.6129 89.4489 36.2847 89.602 35.9416C86.6531 35.5558 84.2442 36.8857 82.9239 39.6095C81.5065 42.5378 80.1111 45.4783 78.7377 48.4308C77.6513 50.7708 76.029 52.8206 74.0028 54.4132C69.3446 58.1344 67.1802 62.9574 67.6607 68.9505C67.6578 69.2235 67.7398 69.4906 67.8953 69.7148C68.0507 69.939 68.2719 70.1091 68.5282 70.2016C72.3551 72.0025 76.1821 73.8354 80.0091 75.6555C80.2621 75.7769 80.5278 75.8686 80.8361 76.0028C80.8361 75.681 80.8552 75.4509 80.8361 75.2249C80.6981 74.0106 80.8128 72.7809 81.1729 71.6132C81.5329 70.4456 82.1306 69.3655 82.9282 68.4412C84.7169 66.2886 86.4965 64.1303 88.2668 61.9664C90.5332 59.1958 92.9612 56.5189 94.9916 53.5756C97.1985 50.3787 98.0915 46.7343 97.3303 42.7787C96.8307 40.1636 96.4948 37.5145 96.0781 34.8824C95.0724 28.5802 94.0711 22.2781 93.0527 15.8524ZM82.3903 80.5744L62.3922 71.02L58.8438 78.4922L78.8482 88.0359L82.3903 80.5744Z" fill="#024A99"/>
<path d="M29.0871 21.3766C29.0871 17.1269 29.0871 12.8772 29.0871 8.62744C29.0871 7.00343 29.3656 6.6262 30.8985 6.12962C37.0791 4.12836 43.2554 2.11006 49.4487 0.162094C50.1307 -0.0403595 50.8566 -0.0403595 51.5386 0.162094C57.7957 2.13777 64.0337 4.17312 70.2759 6.19782C71.5707 6.62407 71.9129 7.06097 71.9129 8.4271C71.9214 17.0942 71.9214 25.7613 71.9129 34.4284C71.9129 35.801 71.5707 36.2528 70.2908 36.6684C64.0188 38.7016 57.7468 40.7455 51.4599 42.734C50.8056 42.9198 50.1117 42.9124 49.4614 42.7126C43.2362 40.7412 37.0301 38.7144 30.8198 36.6982C29.3932 36.2358 29.0892 35.8457 29.085 34.3539C29.0793 30.0175 29.08 25.6917 29.0871 21.3766ZM32.5399 10.2941C32.5207 10.6202 32.5037 10.7821 32.5037 10.9335C32.5037 18.2501 32.5037 25.5667 32.4867 32.8854C32.4867 33.5056 32.7206 33.7251 33.2733 33.8999C38.1208 35.4451 42.9577 37.0201 47.7988 38.5887C48.0901 38.6824 48.3899 38.74 48.7045 38.8188C48.7418 38.6861 48.7688 38.5508 48.7853 38.4139C48.7853 30.9971 48.8002 23.5825 48.7641 16.1678C48.7641 15.8759 48.3856 15.4304 48.088 15.326C46.2936 14.6866 44.4736 14.1261 42.6622 13.5421L32.5399 10.2941ZM52.2126 38.8679C52.691 38.7357 52.9758 38.6675 53.2522 38.578C58.0317 37.035 62.8048 35.4728 67.5949 33.966C68.3348 33.7337 68.5282 33.3948 68.524 32.651C68.4963 25.5646 68.5069 18.4803 68.5048 11.3938C68.5048 11.055 68.475 10.7161 68.4538 10.2898C63.2661 11.9671 58.2167 13.621 53.1459 15.2173C52.4188 15.4475 52.1892 15.7522 52.1934 16.511C52.2232 23.5974 52.2105 30.6817 52.2105 37.7681L52.2126 38.8679ZM64.4355 7.95184C64.3297 7.87944 64.218 7.81599 64.1017 7.76215C59.7326 6.347 55.3656 4.92758 50.988 3.54013C50.6146 3.44758 50.2225 3.46535 49.859 3.59128C45.6706 4.91905 41.4886 6.27241 37.315 7.62363C37.1024 7.69396 36.8899 7.81331 36.6071 7.94332C36.7249 8.01854 36.8478 8.08548 36.9749 8.14366C41.3121 9.54389 45.6494 10.9527 49.9972 12.3252C50.3983 12.4282 50.8204 12.4134 51.2133 12.2826C55.3422 10.9761 59.4604 9.63979 63.5787 8.30562C63.8317 8.22037 64.0847 8.09676 64.4355 7.95184Z" fill="#E33E5D"/>
</svg>
