<svg width="93" height="97" viewBox="0 0 93 97" fill="none" xmlns="http://www.w3.org/2000/svg">
<path d="M24.0203 12.3081C24.0203 10.8317 24.0203 9.03468 24.0203 7.23302C24.0458 3.50975 26.51 1.02295 30.277 1.0045C40.1336 0.984504 49.9909 0.984504 59.849 1.0045C63.6649 1.0045 66.1197 3.48206 66.1685 7.30453C66.194 9.09927 66.1685 10.8963 66.1685 12.8248H88.5129C91.5554 12.8248 92.9884 14.2413 92.9907 17.261C92.9907 25.1335 92.9907 33.0076 92.9907 40.8832C92.9907 43.8821 91.5415 45.2824 88.4805 45.2847C81.5131 45.2847 74.5642 45.3054 67.6061 45.2639C66.5099 45.2639 66.129 45.55 66.1452 46.685C66.2033 51.2987 66.1824 55.9124 66.1452 60.51C66.1452 61.202 66.3055 61.578 67.0115 61.8779C69.0112 62.7315 69.831 64.3763 69.8287 66.4917C69.8287 70.564 69.8287 74.6349 69.8287 78.7042V83.6593C69.8287 86.2868 69.5964 86.9627 67.9707 88.9651C69.5663 90.2339 70.3791 91.8233 69.7799 93.8833C69.2574 95.685 67.7524 96.9353 65.8782 96.9445C58.0305 96.9814 50.1829 97.0045 42.3376 96.9445C41.6667 96.9359 41.0077 96.7675 40.4159 96.4534C39.8241 96.1392 39.3169 95.6886 38.9368 95.1393C38.5568 94.5901 38.3151 93.9582 38.2319 93.2969C38.1488 92.6356 38.2267 91.9641 38.4591 91.3389C38.754 90.5107 38.5404 90.1047 37.9946 89.5718C33.5788 85.2134 29.1754 80.8434 24.7844 76.4619C23.4374 75.1239 22.9659 73.5322 23.4908 71.7167C24.0017 69.9404 25.2396 68.8493 27.0465 68.4571C28.6722 68.1042 30.1121 68.5886 31.3035 69.7259C32.6157 70.9739 33.8978 72.2634 35.1891 73.523C35.8022 74.1274 36.4664 74.5288 37.3605 74.132C38.2547 73.7352 38.4219 73.0062 38.4126 72.1388C38.3941 70.1826 38.4126 68.2172 38.4126 66.0833H37.1376C34.7408 66.0833 32.344 66.1133 29.9379 66.0672C26.5471 66.0026 24.0528 63.4812 24.0087 60.1086C23.9831 58.1962 24.0087 56.2838 24.0087 54.2538C23.4675 54.2284 23.0216 54.1915 22.5734 54.1892C20.3694 54.1892 18.1607 54.1569 15.9637 54.1892C13.7666 54.2215 11.7553 53.684 9.99254 51.7208C9.91478 51.9567 9.8096 52.1828 9.67904 52.3944C8.28556 54.1154 6.27659 54.7313 4.30481 54.0761C2.27265 53.4025 1.01156 51.7001 1.00227 49.4324C0.974398 43.1324 0.990701 36.8347 0.990701 30.5346C0.990701 28.2278 0.990701 25.9209 0.990701 23.614C0.990701 21.0419 2.24481 19.2125 4.39077 18.5643C6.62267 17.893 8.65015 18.7327 10.1087 20.9381C10.169 21.0327 10.2225 21.1319 10.32 21.2933L16.4119 16.9495C17.731 16.0083 19.0061 15.0025 20.374 14.1398C21.44 13.51 22.6013 13.0255 24.0203 12.3081ZM54.3889 45.2962C53.7363 45.2962 53.2741 45.2962 52.8119 45.2962C50.3223 45.2708 48.7058 43.7552 48.6965 41.2915C48.6687 33.1514 48.6687 25.0097 48.6965 16.8665C48.6965 14.3935 50.3083 12.8618 52.7957 12.8433C55.3852 12.8249 57.9771 12.8433 60.5667 12.8433H64.1038C64.0783 12.3012 64.0597 11.9206 64.0434 11.5492H26.1872V55.6102H38.3615C38.3824 55.1857 38.415 54.812 38.415 54.4383C38.415 51.9815 38.415 49.5224 38.415 47.0564C38.4289 44.1682 40.3658 42.1035 43.0599 42.0781C45.754 42.0528 47.7699 44.069 47.8303 46.9433C47.8744 49.1694 47.8303 51.3979 47.8303 53.6332V55.5641H63.9969V46.8718C61.4144 48.4013 58.9804 49.8707 56.5093 51.2848C56.0448 51.5432 55.3225 51.7877 54.9556 51.5963C54.5886 51.4048 54.4168 50.6551 54.3936 50.1406C54.3448 48.5697 54.3889 47.001 54.3889 45.2962ZM40.5029 59.7164C40.5029 63.8688 40.4843 68.0211 40.5029 72.1573C40.5145 73.9474 39.8456 75.3154 38.1688 76.0398C36.4919 76.7641 35.0148 76.2704 33.7561 75.0086C32.4415 73.7075 31.1294 72.4018 29.7707 71.1492C29.3705 70.75 28.8453 70.4982 28.2817 70.4353C27.718 70.3724 27.1496 70.5021 26.6702 70.8032C25.7087 71.3661 25.1351 72.4664 25.4695 73.553C25.7095 74.2347 26.1072 74.8511 26.6307 75.3523C30.7856 79.53 34.9916 83.657 39.1419 87.8416C39.8781 88.5845 40.4866 89.0735 41.5874 88.5129C42.0519 88.2823 42.7255 88.3792 43.3014 88.3792C49.9871 88.3792 56.6726 88.3792 63.3583 88.3792C66.3426 88.3792 67.771 86.9697 67.771 84.0123C67.7802 78.2913 67.7802 72.5702 67.771 66.8492C67.7765 66.5411 67.7633 66.233 67.7315 65.9265C67.5503 64.4316 66.4263 63.4466 64.9979 63.5181C63.623 63.5873 62.5965 64.6369 62.5338 66.081C62.499 66.8861 62.5222 67.6958 62.5199 68.5009C62.5199 69.2437 62.2691 69.8274 61.4121 69.7928C60.6201 69.7605 60.432 69.1884 60.439 68.4963C60.439 67.2691 60.4668 66.0395 60.439 64.8053C60.3925 63.209 59.3428 62.1294 57.8842 62.1017C56.3491 62.0717 55.2645 63.1352 55.1809 64.7938C55.146 65.4859 55.153 66.1779 55.1809 66.87C55.2041 67.6013 55.0345 68.2541 54.1915 68.2726C53.2927 68.2864 53.093 67.6013 53.0976 66.8285C53.0976 65.562 53.1301 64.2909 53.0767 63.0291C53.0117 61.5319 51.8969 60.45 50.5034 60.4431C49.1099 60.4362 47.9998 61.4904 47.9046 62.9991C47.8442 63.9564 47.886 64.9184 47.8674 65.878C47.8674 66.6024 47.6352 67.2206 46.7689 67.1906C45.9676 67.163 45.7935 66.5701 45.8004 65.8896C45.8004 65.5828 45.8004 65.2736 45.8004 64.9668C45.8004 59.2458 45.8004 53.5248 45.8004 47.8038C45.8004 47.4601 45.8167 47.1117 45.7888 46.768C45.6541 45.1209 44.5416 44.0782 43.0018 44.1474C41.548 44.2143 40.5331 45.317 40.5261 46.9341C40.4936 51.1972 40.5052 55.4603 40.5029 59.7164ZM56.4652 48.9295C59.4147 47.1763 62.0995 45.5223 64.847 43.9836C65.6359 43.5375 66.5223 43.2888 67.4296 43.2593C74.4597 43.2016 81.4921 43.227 88.5222 43.2247C90.3802 43.2247 90.926 42.6941 90.9284 40.8278C90.9284 32.9983 90.9284 25.1681 90.9284 17.3371C90.9284 15.4016 90.4081 14.8987 88.4456 14.8964H53.3275C51.2605 14.8964 50.7728 15.4062 50.7589 17.5078V38.6963C50.7589 39.5406 50.738 40.3849 50.7589 41.2338C50.8053 42.5695 51.4417 43.1924 52.7748 43.227C53.5087 43.2454 54.2449 43.257 54.9765 43.227C56.0077 43.1808 56.4721 43.656 56.4629 44.6665C56.4559 45.9998 56.4652 47.3378 56.4652 48.9341V48.9295ZM24.0203 14.5988C23.1494 15.0048 22.4526 15.2171 21.8906 15.6138C18.4557 18.0314 15.0671 20.5136 11.6276 22.9243C11.3046 23.1164 11.0418 23.394 10.8687 23.7261C10.6956 24.0581 10.619 24.4315 10.6475 24.8044C10.6847 32.1863 10.6684 39.5475 10.6684 46.9179C10.6684 47.2248 10.6684 47.5316 10.6847 47.8407C10.8728 50.3483 12.5844 52.0161 15.1206 52.1107C16.3933 52.1591 17.6753 52.1222 18.9457 52.1245H23.9529V25.0997C23.5279 25.3765 23.2074 25.561 22.9055 25.7917C21.303 26.9313 19.7214 28.0986 18.0957 29.199C17.7566 29.4296 17.2061 29.605 16.8438 29.5012C15.9311 29.2359 15.9659 28.237 16.9019 27.5588C19.02 26.0178 21.1683 24.516 23.2748 22.9589C23.6023 22.7282 23.9715 22.2668 23.9877 21.9185C24.0505 19.6116 24.0203 17.3117 24.0203 14.6034V14.5988ZM26.1245 9.29304H63.9807C64.5404 5.60207 63.4651 2.90304 58.639 2.99532C49.4421 3.17295 40.2404 3.04606 31.0411 3.04837C30.4985 3.03578 29.9556 3.05581 29.4154 3.10835C28.5646 3.21656 27.7758 3.60767 27.1774 4.21798C26.579 4.82829 26.2062 5.62186 26.1198 6.46945C26.0641 7.3945 26.1245 8.31494 26.1245 9.30919V9.29304ZM3.07395 36.3618C3.07395 38.8578 3.07395 41.353 3.07395 43.8475C3.07395 45.806 3.03678 47.7692 3.12039 49.7185C3.18077 51.2041 4.32108 52.2122 5.76101 52.2422C7.259 52.2745 8.39469 51.2687 8.54797 49.7462C8.58745 49.3655 8.58517 48.9803 8.58749 48.5927C8.58749 40.4141 8.58749 32.2371 8.58749 24.0616C8.59216 23.6403 8.57355 23.219 8.53175 22.7997C8.48819 22.3177 8.30673 21.858 8.0088 21.475C7.71087 21.0921 7.30891 20.8017 6.85029 20.6382C4.93657 19.8515 3.09485 21.2011 3.07627 23.4595C3.05305 27.7802 3.07627 32.0779 3.07395 36.3779V36.3618ZM54.0754 90.4253C52.9559 90.4253 51.8342 90.4253 50.7147 90.4253C48.0114 90.4253 45.3057 90.4046 42.6024 90.4438C41.2344 90.4622 40.2915 91.4196 40.2799 92.6653C40.2683 93.911 41.2089 94.8222 42.5815 94.9076C42.9275 94.9306 43.2782 94.9214 43.6242 94.9214C49.3422 94.9214 55.0593 94.9214 60.7757 94.9214C62.4014 94.9214 64.0272 94.9583 65.6413 94.896C67.2554 94.8337 68.2239 93.475 67.8128 92.0517C67.5155 91.0159 66.6516 90.4369 65.3092 90.4369C61.57 90.4346 57.8215 90.4415 54.0754 90.4415V90.4253ZM26.1035 57.7786C26.1035 58.6322 26.0826 59.4257 26.1035 60.2216C26.1709 62.3393 27.6991 63.9126 29.8195 64.0095C31.3988 64.0718 32.9827 64.0348 34.5643 64.0372H38.3522V57.7786H26.1035ZM64.0992 57.7786H47.9534V58.6391C49.319 58.6183 50.6822 58.3046 51.8295 58.6645C52.9768 59.0243 53.9197 60.0486 55.0485 60.8629C57.7913 59.3312 59.6238 59.7095 62.0624 62.457C62.5733 62.2009 63.1051 61.9794 63.5905 61.6795C63.7111 61.6107 63.8164 61.5185 63.9002 61.4083C63.984 61.2981 64.0446 61.1722 64.0783 61.0382C64.1293 59.9863 64.0992 58.9205 64.0992 57.7879V57.7786Z" fill="#004999"/>
<path d="M41.836 39.3007C41.5387 39.596 41.2856 40.0435 40.9372 40.1358C40.6283 40.2188 40.0222 40.0089 39.8828 39.7482C39.4596 38.9844 39.1469 38.1651 38.9538 37.3145C38.8888 37.0077 39.2627 36.4079 39.5762 36.281C39.8898 36.1541 40.5702 36.3525 40.7212 36.6155C41.1694 37.3952 41.4319 38.2788 41.836 39.3007Z" fill="#F95069"/>
<path d="M38.0945 42.6297C37.6532 42.8604 37.1074 43.3748 36.7846 43.2641C35.8902 42.9264 35.0505 42.4601 34.2926 41.88C34.0813 41.7231 34.0604 41.0703 34.1997 40.7588C34.3182 40.5028 34.9127 40.1937 35.1148 40.2975C36.0339 40.7551 36.9236 41.269 37.7786 41.8361C37.9064 41.9007 37.9179 42.1591 38.0945 42.6297Z" fill="#F95069"/>
<path d="M47.4633 37.1347C47.0662 38.1382 46.8177 38.9986 46.3764 39.7507C46.2185 40.0183 45.5148 40.2121 45.2152 40.0852C44.9156 39.9583 44.5649 39.3447 44.6299 39.0194C44.7912 38.1929 45.0836 37.3972 45.4962 36.6618C45.6541 36.3827 46.3044 36.1727 46.6458 36.2604C46.9872 36.3481 47.2078 36.844 47.4633 37.1347Z" fill="#F95069"/>
<path d="M33.7956 48.5974C33.5633 48.3275 33.0152 47.9999 32.9618 47.6054C32.9177 47.2779 33.3636 46.6827 33.7236 46.542C34.4454 46.2699 35.2139 46.1406 35.9857 46.1613C36.3503 46.1613 36.9332 46.6227 36.9913 46.9664C37.0493 47.3101 36.6545 47.9169 36.3108 48.0576C35.614 48.3459 34.8128 48.3967 33.7956 48.5974Z" fill="#F95069"/>
<path d="M50.4431 46.1314C51.1259 46.2514 51.8598 46.256 52.4706 46.5328C52.8492 46.7035 53.3044 47.3379 53.2394 47.6701C53.1743 48.0023 52.5287 48.4429 52.1129 48.4706C51.4187 48.5059 50.7258 48.3786 50.0901 48.0992C49.6953 47.9262 49.1866 47.3448 49.2308 47.015C49.2865 46.6136 49.8695 46.2837 50.2225 45.9238L50.4431 46.1314Z" fill="#F95069"/>
<path d="M82.5163 26.5969C82.2743 27.029 81.9921 27.4375 81.6733 27.8173C80.6584 28.8692 79.5111 29.8035 78.5728 30.9177C78.1096 31.4913 77.8631 32.2079 77.876 32.9431C77.9689 34.4287 78.4056 35.889 78.5263 37.3746C78.5774 38.0182 78.3847 39.0125 77.9504 39.2754C77.4394 39.5869 76.4733 39.4623 75.8323 39.2062C74.5947 38.6727 73.3951 38.0561 72.2417 37.3607C71.3127 36.8371 70.4581 36.8094 69.5175 37.3607C68.2971 38.0957 67.0268 38.7455 65.7156 39.3054C65.1211 39.5361 64.1828 39.5823 63.7066 39.2616C63.2956 38.9871 63.133 38.0574 63.1841 37.4438C63.328 36.0711 63.5553 34.7084 63.8646 33.363C64.0969 32.281 63.8414 31.4344 62.996 30.687C61.9383 29.7894 60.9472 28.8172 60.0302 27.778C59.6145 27.2867 59.2614 26.4331 59.4054 25.8772C59.5285 25.4043 60.36 24.9383 60.9569 24.7976C62.3511 24.4912 63.7638 24.2747 65.1861 24.1494C65.6688 24.1239 66.1336 23.9597 66.5241 23.6767C66.9145 23.3937 67.2138 23.0041 67.3855 22.5553C67.908 21.4019 68.5026 20.2807 69.06 19.1458C69.4385 18.373 69.8218 17.5633 70.8367 17.5471C71.8516 17.531 72.2626 18.3222 72.6435 19.0996C73.2357 20.3061 73.8559 21.4988 74.4249 22.7145C74.8429 23.6049 75.5141 24.0248 76.4919 24.1378C78.0224 24.3178 79.5482 24.5623 81.0694 24.8183C81.9171 24.9452 82.4443 25.4481 82.5163 26.5969ZM76.2759 37.3584C76.3107 37.2154 76.3455 37.0724 76.3827 36.9271C76.1783 35.7229 75.9732 34.5172 75.7673 33.3099C75.5025 31.7505 75.9205 30.4332 77.1212 29.3629C78.027 28.5578 78.9049 27.7157 79.9756 26.7215C78.7168 26.5231 77.811 26.2855 76.896 26.2601C74.5224 26.1748 73.0128 25.0236 72.1744 22.846C71.8446 21.9878 71.3429 21.1966 70.9783 20.4861C69.8473 22.1885 69.0901 24.2393 67.6131 25.2936C66.136 26.3478 63.9598 26.3755 62.1622 26.8345C62.917 27.6235 63.702 28.5162 64.566 29.3236C65.841 30.514 66.2683 31.9096 65.913 33.6006C65.6807 34.7355 65.5228 35.8913 65.3324 37.0378L65.4694 37.453C69.0623 34.1104 72.6691 34.2672 76.2759 37.3584Z" fill="#F95069"/>
<path d="M45.1455 5.38989C46.539 5.38989 47.9185 5.38989 49.305 5.38989C50.0018 5.38989 50.5638 5.60443 50.5824 6.38415C50.601 7.16387 50.0482 7.44992 49.3584 7.45454C46.5095 7.46838 43.6591 7.46838 40.8071 7.45454C40.1267 7.45454 39.5669 7.17079 39.5878 6.38184C39.6087 5.59289 40.1801 5.39451 40.8699 5.39451C42.2959 5.3922 43.7195 5.38989 45.1455 5.38989Z" fill="#F95069"/>
<path d="M33.6005 5.413C34.0232 5.413 34.49 5.29766 34.85 5.4453C35.21 5.59294 35.7279 6.01279 35.7117 6.28962C35.6931 6.66794 35.2773 7.29079 34.9591 7.33924C34.0169 7.48111 33.0586 7.48111 32.1164 7.33924C31.8006 7.29079 31.3849 6.66563 31.3663 6.285C31.3523 6.01048 31.8702 5.5791 32.2372 5.44761C32.6413 5.29997 33.143 5.413 33.6005 5.413Z" fill="#F95069"/>
</svg>
