<svg width="62" height="77" viewBox="0 0 62 77" fill="none" xmlns="http://www.w3.org/2000/svg">
<g clip-path="url(#clip0_325_281)">
<path d="M11.6349 50.0925L0 38.4257C0.137466 38.279 0.314405 38.0855 0.50013 37.8992C12.9062 25.4582 25.3103 13.0147 37.7124 0.568697C37.8806 0.382088 38.0872 0.234506 38.3181 0.136237C38.549 0.0379692 38.7984 -0.00861557 39.0491 -0.000267866C46.3357 0.0183067 53.6224 0.0222152 60.909 0.0114615H61.6066L11.6349 50.0925Z" fill="#E33C5C"/>
<path d="M61.7882 76.9986H61.0774C53.6938 76.9986 46.3072 77.0059 38.9264 76.981C38.5285 76.9733 38.1464 76.8235 37.8486 76.5587C31.2191 69.9373 24.6027 63.3023 17.9995 56.6536C17.8971 56.5494 17.8006 56.4409 17.6792 56.3104C17.7609 56.1903 17.8498 56.0752 17.9453 55.9658C24.5847 49.2516 31.2284 42.5408 37.8764 35.8334C38.1072 35.6013 38.4133 35.4598 38.7393 35.4345C46.3174 35.413 53.8951 35.4072 61.4723 35.4169C61.5864 35.4169 61.7004 35.4301 61.9973 35.4492L41.1917 56.1257L61.9256 76.761C61.8803 76.8402 61.835 76.9165 61.7882 76.9986Z" fill="#E33C5C"/>
</g>
<defs>
<clipPath id="clip0_325_281">
<rect width="62" height="77" fill="white"/>
</clipPath>
</defs>
</svg>
