<svg width="112" height="112" viewBox="0 0 112 112" fill="none" xmlns="http://www.w3.org/2000/svg">
<g clip-path="url(#clip0_77_177)">
<path d="M78.6194 6.7679C79.7289 7.41233 80.9817 7.79214 82.0008 8.60157C80.4924 10.1395 79.0027 11.6992 77.4632 13.206C77.1504 13.4901 76.9044 13.8397 76.7428 14.23C76.5811 14.6202 76.5079 15.0412 76.5282 15.463C76.5656 17.0788 76.5282 18.6976 76.5033 20.3134L72.7635 18.4828C72.9318 16.8048 72.67 16.3845 71.0744 15.7899C63.6646 12.9548 55.6015 12.279 47.8224 13.8411C36.6734 16.0208 26.8432 22.5246 20.4841 31.9287C14.125 41.3327 11.7551 52.8706 13.8933 64.0163C18.3249 87.1877 41.0035 102.505 64.1808 98.0061C90.2594 92.944 105.505 65.7161 96.1932 40.8386C95.6073 39.282 95.0401 38.9489 93.4757 39.282C93.0767 37.9122 92.2041 36.7697 91.6712 35.4621C93.2139 35.4621 94.7565 35.3843 96.2929 35.4404C96.7904 35.4747 97.2891 35.395 97.751 35.2072C98.2128 35.0194 98.6255 34.7286 98.9575 34.357C100.394 32.8595 101.912 31.4368 103.399 29.9985C104.181 31.029 104.645 32.2275 105.175 33.3919C104.1 34.1702 103.928 35.1072 104.433 36.3401C106.723 41.8694 108.007 47.7628 108.223 53.7428C108.653 65.8562 105.536 77.0201 98.1784 86.6803C85.6845 103.065 68.9334 110.023 48.4644 107.492C38.3233 106.247 29.3074 102.028 21.7 95.1762C7.76003 82.6176 2.0039 66.896 4.39113 48.3383C5.7094 38.0648 10.0226 29.021 16.9505 21.322C26.9544 10.2111 39.5076 4.3614 54.4542 3.7699C61.7655 3.48037 68.8181 4.83462 75.6151 7.53375C77.164 8.15016 77.6221 8.01006 78.6194 6.7679Z" fill="#E43C5C"/>
<path d="M78.6194 6.76814C77.6221 8.01342 77.164 8.15041 75.6151 7.534C68.8181 4.83486 61.7655 3.48684 54.4542 3.77014C39.4951 4.36165 26.9544 10.2113 16.9505 21.3223C10.0226 29.0212 5.7094 38.0775 4.39113 48.3385C2.00391 66.8962 7.76004 82.6178 21.7 95.1764C29.3074 102.025 38.3233 106.241 48.4644 107.492C68.9334 110.023 85.6845 103.065 98.1691 86.6587C105.527 77.0079 108.644 65.8346 108.213 53.7212C107.997 47.7412 106.714 41.8479 104.424 36.3185C103.919 35.0732 104.09 34.1393 105.166 33.3703C106.873 33.1898 107.303 33.445 107.917 34.9861C118.513 61.5665 107.871 91.3814 82.6739 105.033C68.4535 112.738 53.3946 114.164 38.1083 108.769C17.9509 101.664 5.50994 87.3405 1.10947 66.4791C-3.53408 44.4751 6.55085 21.2413 25.471 9.07812C35.531 2.60892 46.5321 -0.423321 58.4745 0.049883C64.9236 0.305353 71.276 1.70309 77.2357 4.17797C78.4979 4.68853 78.7503 5.19287 78.6194 6.76814Z" fill="#030303"/>
<path d="M103.389 29.9771C101.903 31.4278 100.385 32.8506 98.9482 34.3356C98.6162 34.7072 98.2035 34.998 97.7416 35.1858C97.2798 35.3736 96.7811 35.4533 96.2836 35.419C94.7472 35.3629 93.2045 35.419 91.6619 35.4408C89.5427 35.4408 87.4203 35.419 85.3011 35.3972C85.149 35.3848 84.996 35.4063 84.8532 35.4601C84.7104 35.514 84.5813 35.5988 84.4753 35.7085C82.8391 37.3896 81.1874 39.0583 79.5419 40.7332C76.2634 43.8588 73.0586 47.0592 69.9276 50.3342C69.5879 50.6455 69.2326 50.9569 68.9053 51.2682C65.9946 54.1666 63.1243 57.1085 60.1792 59.9633C57.0627 62.9831 52.1106 61.9277 50.6334 57.9646C49.7265 55.5333 50.3218 53.4038 52.1262 51.5857C55.2801 48.402 58.4413 45.2224 61.6097 42.0469C64.882 38.9109 68.0857 35.7095 71.2209 32.4428C72.8976 30.7948 74.5753 29.1511 76.254 27.5115C76.3636 27.4054 76.4484 27.2765 76.5023 27.1338C76.5562 26.9912 76.5778 26.8384 76.5656 26.6865C76.5438 24.5695 76.5345 22.4494 76.522 20.3293C76.522 18.7136 76.5843 17.0947 76.5469 15.479C76.5266 15.0572 76.5998 14.6361 76.7615 14.2459C76.9231 13.8557 77.1691 13.506 77.4819 13.2219C79.0214 11.7151 80.5111 10.1554 82.0195 8.61753C84.5875 6.08547 87.1513 3.55134 89.711 1.01514C90.4028 0.327121 91.1009 -0.261274 92.1574 0.155893C93.2139 0.57306 93.3853 1.51324 93.3728 2.54682C93.3479 5.09029 93.3728 7.63377 93.3728 10.4761C95.1149 8.47122 96.9007 7.0516 99.4718 7.27886C100.961 7.39459 102.345 8.08868 103.327 9.21216C105.698 11.902 105.197 14.9031 101.812 18.4739C102.021 18.8319 102.367 18.642 102.635 18.6451C105.041 18.6638 107.447 18.67 109.853 18.6451C110.788 18.6451 111.526 18.9564 111.891 19.8624C112.256 20.7683 111.891 21.419 111.268 22.0416C108.631 24.6857 106.005 27.3309 103.389 29.9771ZM55.6447 57.9958C56.9443 57.9958 57.4679 57.4074 58.0195 56.8564L99.8707 15.0369C100.191 14.7537 100.476 14.434 100.721 14.0843C100.981 13.7123 101.097 13.2585 101.046 12.8076C100.996 12.3568 100.783 11.9397 100.447 11.6342C99.7211 10.8715 98.8454 10.7003 97.9166 11.2513C97.5937 11.4664 97.2994 11.7217 97.0409 12.0109C83.0292 26.0161 69.0227 40.0119 55.0214 53.9985C54.7624 54.2336 54.5256 54.492 54.314 54.7705C54.0849 55.0643 53.9501 55.4204 53.9273 55.7921C53.9045 56.1638 53.9947 56.5337 54.1862 56.8532C54.5914 57.5817 55.2115 57.9989 55.6447 58.0051V57.9958ZM80.2898 23.2059C80.4644 23.1592 80.5485 23.1623 80.6015 23.1219L89.2653 14.489C89.3718 14.4066 89.4593 14.3022 89.5217 14.1829C89.5841 14.0636 89.62 13.9323 89.6268 13.7979C89.6268 11.4101 89.6268 9.02225 89.6268 6.60331C89.4523 6.65312 89.3681 6.65 89.3152 6.69047L80.6514 15.3233C80.5452 15.4054 80.458 15.5093 80.3956 15.628C80.3332 15.7467 80.2971 15.8775 80.2898 16.0113C80.293 18.4116 80.2898 20.7994 80.2898 23.2153V23.2059ZM88.455 31.6769C91.0916 31.6769 93.3448 31.6551 95.5949 31.6769C95.8425 31.6797 96.0875 31.6269 96.3119 31.5224C96.5364 31.4179 96.7344 31.2643 96.8913 31.0729C99.5497 28.4049 102.221 25.7494 104.876 23.0783C105.063 22.8915 105.437 22.767 105.315 22.3467H98.5493C98.2034 22.3467 97.8668 22.3155 97.577 22.6051C94.6194 25.5751 91.6494 28.5139 88.455 31.6862V31.6769Z" fill="#030303"/>
<path d="M79.5419 40.7425C81.1874 39.0676 82.8391 37.3989 84.4753 35.7178C84.5813 35.6081 84.7104 35.5233 84.8532 35.4694C84.996 35.4156 85.149 35.3941 85.3011 35.4064C87.4203 35.4282 89.5427 35.4376 91.6619 35.45C92.1948 36.7576 93.0674 37.9001 93.4663 39.2699C92.2789 40.2039 92.1605 40.6771 92.7526 42.2959C95.5793 50.0229 96.0468 57.8992 93.9151 65.841C87.9408 88.0816 64.8976 100.295 43.0884 92.851C26.2875 87.1165 15.4297 70.3053 17.044 52.4885C17.979 42.0905 22.2922 33.277 30.233 26.5277C41.9291 16.5904 55.2147 14.299 69.7437 19.2739C71.3019 19.8 71.7912 19.688 72.7698 18.4801L76.5095 20.3106C76.5095 22.4307 76.5314 24.5508 76.5532 26.6677C76.5654 26.8197 76.5437 26.9725 76.4898 27.1151C76.436 27.2577 76.3512 27.3867 76.2415 27.4927C74.5586 29.1303 72.8809 30.774 71.2084 32.424L67.746 30.5001C67.9829 29.0587 67.6369 28.4205 66.2657 27.9224C61.9503 26.3379 57.3257 25.7752 52.7558 26.2786C36.1325 28.0189 24.0436 43.5755 26.4714 60.1314C27.0888 64.3855 28.6182 68.4564 30.955 72.066C33.2919 75.6755 36.3812 78.7387 40.0119 81.0461C43.6425 83.3535 47.729 84.8509 51.9922 85.436C56.2553 86.021 60.5946 85.6799 64.7137 84.436C80.9661 79.6012 89.979 61.6195 84.0888 45.7796C83.5403 44.3008 82.9482 43.9397 81.471 44.1888C80.829 43.041 80.186 41.8923 79.5419 40.7425Z" fill="#D9E7EC"/>
<path d="M72.7697 18.4829C71.7912 19.6908 71.2894 19.8029 69.7436 19.2768C55.2146 14.2957 41.9291 16.5932 30.2329 26.5305C22.2922 33.2799 17.9852 42.0964 17.044 52.4914C15.4297 70.3081 26.2875 87.1194 43.0884 92.8538C64.9038 100.297 87.9408 88.0844 93.9151 65.8438C96.0467 57.9021 95.5792 50.0257 92.7526 42.2988C92.1605 40.6799 92.2789 40.1974 93.4663 39.2728C95.0245 38.9615 95.598 39.2728 96.1839 40.8294C105.496 65.7069 90.2625 92.9348 64.1714 97.9968C41.0035 102.505 18.3249 87.1878 13.8932 64.0164C11.7552 52.8698 14.1259 41.3311 20.4863 31.9269C26.8467 22.5227 36.6784 16.0195 47.8286 13.8412C55.6077 12.2791 63.6709 12.9549 71.0806 15.79C72.6763 16.3846 72.938 16.8049 72.7697 18.4829Z" fill="#030303"/>
<path d="M79.5419 40.7423C80.186 41.8921 80.829 43.0408 81.471 44.1886C80.2244 45.0852 80.0655 45.5957 80.5859 47.0589C81.9439 50.8346 82.4183 54.8707 81.9727 58.8579C80.3864 73.4899 66.6739 84.0062 52.1231 81.7336C35.7336 79.1714 25.8169 62.41 31.5263 46.9157C33.8899 40.4876 38.6899 35.2462 44.8896 32.3238C51.0893 29.4014 58.191 29.0325 64.6607 31.2968C66.4153 31.9195 66.7799 31.8105 67.7585 30.5154L71.2209 32.4394C68.0919 35.7145 64.8882 38.9159 61.6097 42.0436C60.0296 41.5268 58.4371 41.0816 56.7604 41.0287C56.2898 39.5655 55.651 39.0829 54.3545 39.2168C44.5657 40.1788 37.5972 49.5775 39.5606 59.1474C40.3481 63.0665 42.504 66.5786 45.6436 69.0568C48.7832 71.5351 52.7022 72.8182 56.7012 72.6773C64.6701 72.4687 71.4671 66.3109 72.67 58.2166C72.9474 56.3487 72.6451 55.8007 70.9716 55.2279C70.8695 53.5589 70.5252 51.9135 69.9494 50.3433C73.0721 47.0745 76.2696 43.8741 79.5419 40.7423Z" fill="#E43C5C"/>
<path d="M56.7604 41.0161C58.4371 41.069 60.0296 41.5142 61.6096 42.031C58.4475 45.2189 55.2842 48.4089 52.12 51.6009C50.3218 53.419 49.7203 55.5485 50.6272 57.9799C52.1044 61.9429 57.0502 62.9983 60.173 59.9785C63.1243 57.1237 65.9945 54.1818 68.8991 51.2834C69.2107 50.9721 69.5816 50.6608 69.9213 50.3494C70.4971 51.9196 70.8415 53.565 70.9435 55.234C69.2949 55.452 69.0736 56.691 68.8804 58.0203C67.8893 64.6265 61.9057 69.3523 55.1118 68.9321C48.5485 68.5087 43.2193 62.9952 42.9887 56.4295C42.8589 53.1209 43.9936 49.8867 46.1627 47.3829C48.3317 44.8791 51.3728 43.293 54.6693 42.9463C55.9003 42.8031 56.5734 42.2116 56.7604 41.0161Z" fill="#D9E7EC"/>
<path d="M55.6447 58.0051C55.2115 58.0051 54.5914 57.5817 54.1862 56.8532C53.9947 56.5337 53.9045 56.1638 53.9273 55.7921C53.9501 55.4204 54.0849 55.0642 54.314 54.7705C54.5256 54.492 54.7624 54.2335 55.0214 53.9984C69.0227 40.0119 83.0292 26.0192 97.0409 12.0202C97.2994 11.7309 97.5937 11.4757 97.9166 11.2606C98.8516 10.7127 99.7211 10.8808 100.447 11.6435C100.783 11.949 100.996 12.3661 101.046 12.8169C101.097 13.2678 100.981 13.7216 100.721 14.0936C100.476 14.4433 100.191 14.763 99.8707 15.0462L58.0195 56.8656C57.4679 57.4167 56.9443 58.0051 55.6447 58.0051Z" fill="#004999"/>
<path d="M80.2898 23.2149C80.2898 20.7991 80.2898 18.4113 80.2898 16.0204C80.2971 15.8865 80.3332 15.7557 80.3956 15.637C80.4579 15.5183 80.5452 15.4144 80.6513 15.3323L89.3151 6.69948C89.3557 6.65901 89.4398 6.66212 89.6268 6.6123C89.6268 9.03125 89.6268 11.4191 89.6268 13.8069C89.6199 13.9413 89.5841 14.0726 89.5217 14.1919C89.4593 14.3112 89.3718 14.4156 89.2653 14.498L80.6015 23.1309C80.5485 23.1713 80.4643 23.1682 80.2898 23.2149Z" fill="#C2BFCA"/>
<path d="M88.455 31.6859C91.6494 28.5136 94.6194 25.5747 97.5769 22.6266C97.8668 22.337 98.2002 22.3682 98.5493 22.3682H105.318C105.44 22.7916 105.066 22.913 104.879 23.0998C102.224 25.7709 99.5528 28.4264 96.8944 31.0944C96.7375 31.2857 96.5395 31.4393 96.3151 31.5439C96.0906 31.6484 95.8456 31.7012 95.598 31.6984C93.3448 31.6641 91.0916 31.6859 88.455 31.6859Z" fill="#C2BFCA"/>
<path d="M67.7585 30.5029C66.7799 31.798 66.4153 31.8914 64.6607 31.2843C58.191 29.0199 51.0893 29.3888 44.8896 32.3112C38.6899 35.2336 33.8898 40.475 31.5263 46.9031C25.8169 62.3975 35.7335 79.1589 52.1231 81.721C66.6739 83.9937 80.3864 73.468 81.9727 58.8578C82.4163 54.8747 81.942 50.843 80.5859 47.0713C80.0655 45.6081 80.2369 45.0975 81.471 44.2009C82.9482 43.9518 83.5403 44.313 84.0888 45.7917C89.979 61.6316 80.9723 79.6134 64.7137 84.4482C60.5937 85.6921 56.2535 86.0328 51.9896 85.447C47.7256 84.8612 43.6386 83.3628 40.0077 81.054C36.3769 78.7453 33.2878 75.6806 30.9516 72.0696C28.6154 68.4586 27.0872 64.3863 26.4714 60.1311C24.0436 43.5752 36.1325 28.0186 52.7682 26.2814C57.3382 25.778 61.9628 26.3407 66.2782 27.9252C67.6494 28.4233 67.9953 29.0615 67.7585 30.5029Z" fill="#030303"/>
<path d="M56.7604 41.0162C56.5734 42.2117 55.9003 42.8032 54.6662 42.9464C51.3703 43.2939 48.3299 44.8803 46.1615 47.384C43.9931 49.8878 42.8589 53.1215 42.9887 56.4296C43.2224 62.9953 48.5516 68.5181 55.1212 68.926C61.9151 69.3463 67.8987 64.6204 68.8898 58.0142C69.0892 56.6849 69.3043 55.4459 70.9529 55.228C72.6264 55.8008 72.9287 56.3362 72.6513 58.2166C71.4484 66.3109 64.6513 72.4688 56.6825 72.6774C52.6835 72.8183 48.7645 71.5351 45.6249 69.0569C42.4853 66.5786 40.3293 63.0665 39.5419 59.1474C37.591 49.5775 44.5594 40.1913 54.3483 39.2044C55.651 39.0705 56.2898 39.5562 56.7604 41.0162Z" fill="#030303"/>
</g>
<defs>
<clipPath id="clip0_77_177">
<rect width="112" height="112" fill="white"/>
</clipPath>
</defs>
</svg>
