<svg width="99" height="98" viewBox="0 0 99 98" fill="none" xmlns="http://www.w3.org/2000/svg">
<path d="M89.8247 97.9739H86.7316V14.4792H90.3454L80.3579 4.46237L70.4225 14.427H74.0676V15.6131C74.0676 19.3178 74.0676 23.0278 74.0676 26.7377C74.0941 27.2306 74.289 27.6993 74.6196 28.0649C75.9839 29.5176 77.4158 30.9023 78.9884 32.4751C77.9157 33.5201 76.8586 34.4763 75.8641 35.5057C75.4502 35.9007 75.1407 36.3927 74.9632 36.9375C74.5935 38.4058 75.6558 39.6441 77.244 39.6964C78.0146 39.7225 78.8062 39.6964 79.556 39.6964H81.8316V58.6223C80.2694 58.6223 78.7072 58.5962 77.1451 58.6223C76.8058 58.6054 76.4673 58.6689 76.1571 58.8078C75.8469 58.9467 75.5737 59.157 75.3596 59.4217C75.1455 59.6864 74.9967 59.9979 74.9251 60.3311C74.8535 60.6643 74.8613 61.0098 74.9476 61.3395C75.0919 61.828 75.357 62.272 75.7183 62.6301C76.7597 63.6752 77.8012 64.7202 78.9624 65.8175C77.4627 67.3172 76.0255 68.6862 74.6716 70.1388C74.3021 70.5515 74.0852 71.0792 74.0572 71.6333C74.0207 79.9519 74.0572 88.2757 74.0572 96.5944V97.9216H70.9745V74.1989L65.7673 79.4607C64.528 78.1962 63.5074 77.1773 62.5128 76.1322C61.7369 75.3171 60.8464 74.8886 59.7477 75.3641C58.649 75.8396 58.3157 76.7331 58.3574 77.8827C58.399 79.2935 58.3574 80.7095 58.3574 82.1883H39.4812C39.4812 80.7879 39.4499 79.3823 39.4812 77.9767C39.5176 76.8115 39.226 75.8501 38.0857 75.3641C36.9453 74.8782 36.0444 75.3641 35.2529 76.2001C34.3052 77.2086 33.3262 78.1805 32.2692 79.2622L27.1661 74.0055L26.937 74.1414V97.9321H23.7762V96.8086C23.7762 88.4482 23.7762 80.0965 23.7762 71.7534C23.7984 71.437 23.7485 71.1196 23.6303 70.8254C23.5121 70.5312 23.3287 70.2678 23.094 70.0552C21.6881 68.7332 20.3394 67.3485 18.8658 65.875C19.9957 64.7463 21.0893 63.6699 22.1568 62.5779C22.5468 62.2338 22.8069 61.7654 22.8932 61.2515C22.9795 60.7376 22.8867 60.2096 22.6306 59.7562C22.4296 59.3849 22.1263 59.0795 21.757 58.8765C21.3876 58.6736 20.9677 58.5817 20.5477 58.6119C19.0428 58.6119 17.538 58.6119 15.9654 58.6119V39.6859C17.5275 39.6859 19.0324 39.7173 20.5633 39.6859C22.0943 39.6546 23.167 38.4893 22.8545 37.021C22.7212 36.497 22.4496 36.0186 22.0682 35.6364C21.0268 34.5652 19.9853 33.5462 18.8085 32.4385C19.7537 31.4167 20.7532 30.4469 21.8027 29.5332C23.4221 28.2635 23.9324 26.7325 23.8074 24.6842C23.6252 21.664 23.7606 18.6281 23.7606 15.5922V14.4636H27.3536L17.3609 4.43102L7.42551 14.4009H11.1018V97.9477H8.05035V17.6666H0C5.86334 11.7778 11.7527 5.87319 17.538 0.0679151L35.0082 17.5883H26.989V24.0624L32.1233 18.8946C33.3418 20.1225 34.3833 21.1676 35.4144 22.2335C36.1486 22.9912 36.9765 23.3413 38.018 22.9337C39.0594 22.5261 39.4656 21.7946 39.4708 20.5667C39.4708 19.0931 39.4708 17.6144 39.4708 16.0938H58.347C58.347 17.5883 58.347 19.0304 58.347 20.4726C58.347 21.5751 58.6594 22.4478 59.7165 22.8971C60.7736 23.3465 61.7004 22.986 62.4867 22.1656C63.4813 21.1205 64.5071 20.0755 65.5798 19.0304L70.8391 24.3445V17.6928H62.8252C68.7042 11.7934 74.6091 5.86276 80.4569 0L98.0104 17.6144H89.8247V97.9739ZM19.1053 55.4349C19.6885 55.4349 20.1467 55.4349 20.6674 55.4349C23.0419 55.5237 24.8333 56.5897 25.7133 58.8209C26.5933 61.0521 26.1299 63.0586 24.474 64.7829L23.5679 65.7026L32.4202 74.5855C35.2581 72.067 36.7734 71.4922 38.9865 72.3073C42.0744 73.4516 42.9128 75.9389 42.6316 79.0218H55.2487C55.0039 76.1113 55.6913 73.6398 58.5604 72.4484C61.4296 71.257 63.7156 72.5372 65.4704 74.6221L74.38 65.6921C72.2294 63.9312 70.9953 61.7 72.1721 58.8104C73.349 55.9209 75.8693 55.2102 78.7332 55.4036V42.7636C75.7964 43.0719 73.3698 42.3247 72.1826 39.4456C70.9953 36.5665 72.2919 34.2882 74.3227 32.5534L65.4704 23.6025C63.7833 25.6927 61.6327 26.9049 58.8573 25.8965C55.8059 24.7887 55.0091 22.2649 55.2695 19.229H42.6368C42.9023 22.129 42.215 24.5954 39.3354 25.7815C36.4558 26.9676 34.1802 25.7345 32.4306 23.5973C29.4261 26.6123 26.4995 29.5437 23.5314 32.5273C25.6143 34.3248 26.9214 36.5351 25.7237 39.4351C24.526 42.3352 22.037 43.0458 19.1366 42.795L19.1053 55.4349Z" fill="#014999"/>
<path d="M42.6992 94.8073V91.7871H45.7506V94.8073H42.6992Z" fill="#E43B5C"/>
<path d="M55.1547 94.8233H52.1084V91.7979H55.1547V94.8233Z" fill="#E43B5C"/>
<path d="M33.2637 94.7971V91.8135H36.2943V94.7971H33.2637Z" fill="#E43B5C"/>
<path d="M61.5648 91.7979H64.5694V94.7972H61.5439L61.5648 91.7979Z" fill="#E43B5C"/>
<path d="M48.8954 66.502H35.2994C32.8207 66.502 31.6543 65.3106 31.6543 62.8443C31.6543 53.7523 31.6543 44.6586 31.6543 35.5632C31.6543 33.0289 32.8519 31.8428 35.3878 31.8428H62.5748C65.0326 31.8428 66.2199 33.055 66.2199 35.5318C66.2199 44.6308 66.2199 53.7245 66.2199 62.813C66.2199 65.3524 65.0378 66.5177 62.4811 66.5177L48.8954 66.502ZM63.007 35.0093H56.7947C56.7947 37.0733 56.7947 39.0693 56.7947 41.0654C56.7947 43.0614 55.4982 44.3834 53.4674 44.3991C50.4159 44.3991 47.3645 44.3991 44.313 44.3991C43.6639 44.4367 43.0201 44.2619 42.4783 43.9011C41.9365 43.5402 41.526 43.0127 41.3085 42.3978C41.1257 41.8494 41.0446 41.2721 41.0689 40.6944C41.0377 38.808 41.0689 36.9165 41.0689 34.9936H34.888V63.2623H63.007V35.0093ZM44.261 41.2117H53.5506V35.0041H44.261V41.2117Z" fill="#E43B5C"/>
</svg>
