<svg width="55" height="76" viewBox="0 0 55 76" fill="none" xmlns="http://www.w3.org/2000/svg">
<g clip-path="url(#clip0_749_459)">
<path d="M34.7643 0C34.9971 0.308986 35.2675 0.595968 35.4569 0.92971C38.1715 5.72495 37.5873 11.2647 33.7598 15.1692C31.4915 17.4834 28.986 19.5537 26.5905 21.7381C25.8693 22.3955 25.1634 23.0699 24.4458 23.7309C22.879 25.1723 22.4694 26.9565 22.7979 29.0419C23.3678 32.6585 24.5438 36.0638 26.0323 39.3728C26.163 39.6643 26.3716 39.9426 26.4146 40.2461C26.4594 40.567 26.3519 40.9127 26.3107 41.2473C26.0059 41.1809 25.6195 41.2139 25.4087 41.0328C22.4058 38.4582 19.7364 35.5948 18.0747 31.8888C16.5441 28.4762 16.7187 25.2149 18.7847 22.0512C20.4356 19.523 22.5656 17.5127 24.9252 15.7207C26.8811 14.234 28.8714 12.7894 30.7672 11.2257C32.9128 9.45616 33.7003 6.93705 34.0212 4.25749C34.1466 3.21363 34.0172 2.14043 34.0544 1.08236C34.0669 0.718822 34.2334 0.360778 34.3297 0.000447692L34.7643 0Z" fill="#E43C5C"/>
<path d="M5.51646 66.6234C7.01031 66.97 8.49072 67.4078 10.0007 67.6485C18.5214 69.005 27.0718 69.0133 35.6373 68.1445C39.4836 67.7544 43.3003 67.1946 47.0383 66.1618C47.6865 65.9825 48.3146 65.7199 48.9404 65.4668C49.3558 65.299 49.5103 65.0084 49.3576 64.5192C49.2878 64.2946 49.3724 63.8316 49.5121 63.7688C49.7422 63.6656 50.1419 63.7 50.3519 63.8499C51.5888 64.7347 51.7253 66.3713 50.5345 67.3212C49.6952 67.9914 48.6942 68.5044 47.6946 68.8982C44.2749 70.2464 40.6869 70.8901 37.0685 71.3687C30.1257 72.2856 23.152 72.3745 16.1712 72.1072C12.119 71.9523 8.06588 71.7235 4.12244 70.6265C2.93167 70.2955 1.77626 69.8545 0.861692 68.9463C-0.481289 67.61 -0.227464 65.8817 1.4347 64.9909C3.22803 64.0305 5.19504 63.7802 7.15713 63.5327C8.40163 63.3754 9.65777 63.3108 10.9094 63.2117C11.3419 63.1783 11.8665 63.0916 11.9529 63.7018C12.0469 64.3629 11.4721 64.3895 11.0397 64.5105C9.53152 64.9364 8.01888 65.3476 6.51832 65.7978C6.16467 65.9037 5.84684 66.1402 5.51512 66.3163L5.51646 66.6234Z" fill="#E43C5C"/>
<path d="M12.3504 44.7159C13.7749 44.8827 15.1957 45.1124 16.6251 45.2064C22.6103 45.5988 28.5924 45.4466 34.5566 44.8479C36.854 44.6187 39.1263 44.13 41.417 43.8077C41.7617 43.7596 42.3208 43.8572 42.4686 44.0929C42.7797 44.5889 42.2685 44.8722 41.9139 45.1115C39.5838 46.6784 36.9852 47.5577 34.301 48.2238C28.6864 49.6175 22.9823 49.7211 17.2545 49.4676C14.7678 49.3576 12.2918 49.1141 9.90306 48.3637C8.9593 48.0722 8.05396 47.6634 7.20725 47.1465C5.379 46.011 5.45644 43.9209 7.32543 42.8464C8.89224 41.9446 10.6426 41.6439 12.3889 41.4445C14.2078 41.2368 16.0436 41.1845 17.8728 41.0736C18.307 41.047 18.8231 40.987 18.884 41.6114C18.9431 42.2183 18.4167 42.2577 18.0057 42.3875C16.3982 42.8968 14.7893 43.4034 13.1893 43.9365C12.8804 44.0397 12.6074 44.2574 12.3204 44.4248C12.3303 44.522 12.3406 44.6187 12.3504 44.7159Z" fill="#E43C5C"/>
<path d="M30.0725 43.4735C30.1714 43.2058 30.2515 43.0256 30.3053 42.8381C30.5958 41.8497 30.8966 40.8641 31.1625 39.8684C31.4244 38.8864 31.1455 38.0346 30.5394 37.2447C29.4068 35.7718 28.2205 34.3327 27.5607 32.5421C26.9563 30.9004 26.6528 29.201 26.8041 27.4585C26.9568 25.699 27.9448 24.3411 29.1002 23.1153C31.2257 20.8639 33.8288 19.3025 36.5121 17.8822C37.8801 17.1583 39.3118 16.5615 40.7152 15.9082C41.0854 15.7358 41.4637 15.6079 41.7309 16.0613C42.0067 16.5289 41.662 16.7797 41.3683 17.0465C38.9697 19.2231 36.5533 21.3801 34.1919 23.5985C33.6547 24.1027 33.2545 24.7904 32.8936 25.4533C32.1299 26.8465 32.2271 28.2443 33.0566 29.5898C33.5459 30.3833 34.0656 31.1576 34.5303 31.9654C36.5542 35.4798 36.3406 38.3184 33.7446 41.4092C32.9796 42.3201 32.0614 43.1013 31.1746 43.8966C31.0009 44.0525 30.628 44.0841 30.3894 44.0163C30.2359 43.9718 30.162 43.6404 30.0725 43.4735Z" fill="#E43C5C"/>
<path d="M17.7584 59.3367C18.904 59.5301 20.127 59.7566 21.3558 59.9404C25.7429 60.5974 30.0592 60.0197 34.3644 59.1716C34.7435 59.0969 35.2284 59.1996 35.5731 59.3921C36.6291 59.984 37.6547 60.6382 38.6619 61.3176C38.9274 61.4973 39.2201 61.8503 39.2313 62.135C39.2398 62.3422 38.8419 62.6525 38.5652 62.7726C36.0391 63.8697 33.3858 64.4899 30.6712 64.809C26.3015 65.3301 21.8773 65.0947 17.5838 64.1127C16.3089 63.8215 15.0639 63.4131 14.0657 62.4857C12.7043 61.2213 12.9174 59.3449 14.5729 58.5335C15.2743 58.1897 16.0806 58.0365 16.8559 57.9018C17.1845 57.8449 17.6617 57.9577 17.8753 58.186C18.0181 58.3405 17.8229 58.8296 17.7584 59.3367Z" fill="#E43C5C"/>
<path d="M15.0305 51.9492C15.9791 52.1385 16.9201 52.403 17.8776 52.5053C24.0106 53.1576 30.0688 52.6551 36.0625 51.2335C36.695 51.0832 37.2107 51.1295 37.7385 51.5627C38.4333 52.1339 39.2113 52.5983 39.9137 53.1603C40.1487 53.3483 40.4236 53.7238 40.3842 53.9626C40.3466 54.1941 39.9513 54.4839 39.6747 54.5366C36.3342 55.1784 33.0045 55.9091 29.6354 56.3483C26.9405 56.6995 24.1986 56.8113 21.4795 56.7921C18.751 56.7733 16.0454 56.3336 13.491 55.254C12.8965 55.0037 12.3083 54.6718 11.8118 54.2588C10.7988 53.4157 10.7545 52.15 11.8566 51.4591C12.9655 50.765 14.2543 50.3648 15.4862 49.8967C15.646 49.8362 16.0355 50.0916 16.1376 50.2956C16.2132 50.4464 16.0525 50.8086 15.8945 50.975C15.6416 51.2413 15.304 51.4233 15.0023 51.6406C15.0116 51.7439 15.021 51.8468 15.0305 51.9492Z" fill="#E43C5C"/>
<path d="M24.7708 73.3096C29.8114 73.106 34.8592 73.013 39.89 72.6641C44.0627 72.3748 48.0616 71.2489 51.7257 69.0883C52.245 68.7821 52.6891 68.3415 53.2079 68.0339C53.4618 67.8835 53.8078 67.8964 54.1122 67.8345C54.1731 68.1503 54.3508 68.501 54.2738 68.777C53.9676 69.8773 53.2827 70.7483 52.4496 71.4845C50.5658 73.1464 48.3002 73.9959 45.9138 74.4644C38.475 75.924 30.9619 76.3499 23.422 75.7063C19.4857 75.3702 15.5763 74.7083 11.6548 74.1934C11.5594 74.1811 11.465 74.1577 11.3709 74.1361C10.9524 74.0412 10.5164 73.9175 10.6054 73.3568C10.686 72.8479 11.1077 72.8415 11.5142 72.8525C14.8452 72.9465 18.1758 73.0432 21.5073 73.123C22.5933 73.1487 23.6803 73.1271 24.7672 73.1271L24.7708 73.3096Z" fill="#E43C5C"/>
<path d="M49.0511 40.0431C51.8566 40.0298 53.8236 41.6476 54.6491 44.3707C55.6693 47.7356 54.3805 50.2281 51.9286 52.1325C49.3846 54.107 46.4399 55.1889 43.3725 55.943C43.1182 56.0053 42.7905 55.7637 42.5 55.6633C42.6343 55.358 42.6916 54.9638 42.915 54.7621C44.7204 53.1314 46.6073 51.5915 48.3594 49.9026C49.0578 49.2297 49.5815 48.3059 50.0041 47.4074C50.6255 46.0866 50.1384 44.7416 48.9347 43.9434C47.5729 43.0421 46.0352 42.7941 44.467 42.6108C44.1398 42.5727 43.8403 42.2898 43.5269 42.1188C43.7638 41.8241 43.9424 41.4005 44.2472 41.2561C45.7657 40.5386 47.3544 40.0504 49.0511 40.0431Z" fill="#E43C5C"/>
</g>
<defs>
<clipPath id="clip0_749_459">
<rect width="55" height="76" fill="white"/>
</clipPath>
</defs>
</svg>
