<svg width="71" height="72" viewBox="0 0 71 72" fill="none" xmlns="http://www.w3.org/2000/svg">
<g clip-path="url(#clip0_775_429)">
<path d="M12.4445 19.8348V24.6131C11.4642 24.6131 10.489 24.623 9.51379 24.6131C8.46036 24.5994 7.43469 24.8668 7.49524 26.0462C7.54571 27.1253 8.59535 27.3147 9.55921 27.3159C14.1438 27.3159 18.7276 27.3159 23.3106 27.3159C35.6103 27.3159 47.9096 27.3159 60.2084 27.3159C65.381 27.3159 68.4088 30.2861 68.4252 35.3454C68.4252 36.7067 68.4252 38.0755 68.4252 39.5878H66.775C63.0079 39.5878 59.2412 39.5857 55.4749 39.5816C49.6502 39.5742 45.0655 43.9874 45.0125 49.658C44.9621 55.1962 49.6729 59.722 55.5014 59.7282C59.2685 59.7282 63.0352 59.7282 66.8015 59.7282H68.2196C68.2196 62.0363 68.516 64.2478 68.154 66.3505C67.556 69.8157 64.3301 72 60.4406 72C48.5513 72 36.6625 71.9976 24.774 71.9926C19.1927 71.9926 13.611 71.9926 8.0289 71.9926C3.24493 71.9852 0.0417541 68.9395 0.0291381 64.2528C-0.00450438 52.0502 -0.00450438 39.8481 0.0291381 27.6464C0.0430157 22.8718 3.07966 19.9313 7.94941 19.8397C9.3952 19.8125 10.8397 19.8348 12.4445 19.8348Z" fill="#E33B5C"/>
<path d="M58.8663 24.6157C59.3937 23.3187 59.8251 22.2643 60.2541 21.2222C55.6985 17.9216 54.7359 15.5714 56.0744 10.907L48.7433 7.8254C46.4371 12.0715 42.9273 13.3784 38.2809 12.0406C36.5941 15.9241 34.896 19.7445 33.2938 23.6033C32.9557 24.4164 32.5444 24.6664 31.7042 24.6293C30.3568 24.5686 29.0031 24.6119 27.4375 24.6119C28.1945 22.7754 28.858 21.1009 29.5683 19.4463C31.7988 14.2484 34.0596 9.06298 36.2787 3.86019C36.984 2.20678 37.8318 0.623914 39.7406 0.215512C40.876 -0.0320039 42.2637 -0.134724 43.2894 0.278628C50.748 3.2612 58.1598 6.35639 65.549 9.49861C68.0041 10.5431 69.0688 13.3017 68.0305 15.8103C66.9102 18.5255 65.6335 21.1777 64.358 23.8286C64.1902 24.1776 63.6654 24.5538 63.2832 24.5785C61.8828 24.6701 60.4786 24.6157 58.8663 24.6157Z" fill="#E33B5C"/>
<path d="M61.9436 57.0255C60.0399 57.0255 58.1361 57.0391 56.2324 57.0255C52.0401 56.9921 48.6414 53.8721 48.6174 50.0517C48.5884 45.4727 51.6528 42.3168 56.2147 42.2884C60.1585 42.2636 64.1035 42.271 68.0472 42.2884C70.1541 42.297 70.9829 43.1349 70.9905 45.2251C71.0023 48.1128 71.0023 51.0046 70.9905 53.9006C70.9804 56.2198 70.1364 57.0304 67.7911 57.0267C65.8424 57.0259 63.8932 57.0255 61.9436 57.0255ZM55.4679 49.5814C55.4527 51.3586 56.5869 52.5405 58.3443 52.5789C59.1197 52.592 59.8695 52.3068 60.4331 51.7842C60.9967 51.2617 61.3293 50.5433 61.3595 49.7832C61.41 48.0505 60.2165 46.813 58.4843 46.7981C56.5654 46.7783 55.483 47.777 55.4679 49.5827V49.5814Z" fill="#E33B5C"/>
<path d="M37.4043 24.5288C37.6932 20.6453 40.5583 18.1107 44.8136 17.8458C48.7851 17.5983 52.9686 20.1205 54.5014 23.6959C54.5998 23.9273 54.6591 24.1748 54.7752 24.5313L37.4043 24.5288Z" fill="#E33B5C"/>
<path d="M33.1991 2.819C31.5905 6.5701 30.0148 10.2519 28.4327 13.9312C27.1131 17.0013 25.7906 20.0701 24.465 23.1376C23.727 24.8294 23.5819 24.8801 21.4688 24.4024C22.2139 21.6649 22.9587 18.9286 23.703 16.1935C24.6227 12.8013 25.4592 9.38684 26.4785 6.02062C27.3667 3.07765 29.9593 1.86111 33.1991 2.819Z" fill="#E33B5C"/>
<path d="M22.9727 5.1123C21.3326 11.1566 19.6685 17.0946 18.1521 23.0696C17.785 24.5151 17.1428 24.8926 15.6289 24.4656C15.8623 22.7206 16.0982 20.9385 16.3404 19.1576C16.8022 15.7716 17.2236 12.3781 17.7433 8.99954C18.118 6.55903 20.3826 4.89819 22.9727 5.1123Z" fill="#E33B5C"/>
</g>
<defs>
<clipPath id="clip0_775_429">
<rect width="71" height="72" fill="white"/>
</clipPath>
</defs>
</svg>
