<svg width="465" height="458" viewBox="0 0 465 458" fill="none" xmlns="http://www.w3.org/2000/svg">
<g clip-path="url(#clip0_749_560)">
<path d="M461.139 236.323C466.318 199.773 466.293 162.672 461.065 126.129C455.758 88.5012 445.28 48.5534 416.098 24.295C387.518 0.601345 347.122 -2.71333 310.257 1.49752C295.329 3.19168 280.254 6.00301 266.908 12.9392C239.945 26.9345 224.012 55.3178 201.339 75.5495C157.585 114.564 91.2198 121.218 49.7827 162.713C39.1932 173.473 30.4588 185.919 23.9351 199.542C-2.48853 253.866 5.49005 322.099 39.9536 371.72C74.4171 421.342 132.914 452.021 193.029 457.177C253.144 462.333 314.142 443.133 363.68 408.611C421.418 368.381 451.199 304.089 461.139 236.323Z" fill="#F5F5F5"/>
<path d="M437.535 87.6911V336.315C437.535 338.073 437.189 339.814 436.517 341.439C435.845 343.063 434.86 344.539 433.618 345.781C432.376 347.024 430.902 348.01 429.28 348.681C427.658 349.353 425.919 349.698 424.164 349.696H93.1206C89.5776 349.696 86.1797 348.287 83.6744 345.777C81.1691 343.268 79.7617 339.864 79.7617 336.315V87.6911C79.7601 85.9327 80.1045 84.1914 80.7751 82.5664C81.4457 80.9415 82.4294 79.4649 83.6701 78.221C84.9107 76.9772 86.384 75.9904 88.0056 75.3171C89.6271 74.6439 91.3652 74.2974 93.1206 74.2974H424.164C425.92 74.2958 427.66 74.6411 429.283 75.3136C430.906 75.9861 432.38 76.9727 433.622 78.2167C434.864 79.4607 435.849 80.9379 436.521 82.5636C437.192 84.1893 437.537 85.9317 437.535 87.6911Z" fill="white"/>
<path d="M437.535 95.3765V336.315C437.535 338.074 437.189 339.815 436.517 341.439C435.844 343.063 434.859 344.539 433.618 345.782C432.376 347.025 430.902 348.01 429.28 348.682C427.657 349.353 425.919 349.698 424.164 349.697H93.1201C91.8759 349.694 90.6382 349.517 89.4434 349.169L437.535 95.3765Z" fill="#263238"/>
<path opacity="0.9" d="M437.535 95.3765V336.315C437.535 338.074 437.189 339.815 436.517 341.439C435.844 343.063 434.859 344.539 433.618 345.782C432.376 347.025 430.902 348.01 429.28 348.682C427.657 349.353 425.919 349.698 424.164 349.697H93.1201C91.8759 349.694 90.6382 349.517 89.4434 349.169L437.535 95.3765Z" fill="white"/>
<path d="M345.774 229.964L363.803 221.812L359.954 200.205L340.088 198.622C337.588 191.952 334.23 185.638 330.099 179.839L336.337 169.256L340.333 162.467L324.866 147.06L307.536 157.483C297.584 150.608 286.281 145.941 274.384 143.795L269.396 123.907H247.482L242.347 143.942C235.592 145.297 229.013 147.418 222.738 150.264L207.038 136.76L189.12 149.037L196.571 168.409C191.817 173.327 187.699 178.825 184.316 184.774L163.726 182.662L156.372 203.287L173.42 214.888C172.583 219.729 172.173 224.634 172.194 229.546C172.06 231.57 172.06 233.6 172.194 235.623L154.166 245.763L159.89 266.879H180.247C182.198 271.084 184.485 275.123 187.085 278.959C188.409 280.923 189.814 282.834 191.301 284.692L182.526 302.886L199.341 317.016L215.568 304.838C221.735 308.409 228.322 311.197 235.177 313.137L238.437 332.779L260.216 334.67L266.773 316.132C273.921 315.41 280.959 313.848 287.743 311.48L301.616 325.364L320.613 314.389L315.368 295.459C320.916 290.831 325.858 285.518 330.075 279.647L349.316 283.109L358.582 263.245L343.458 251.03C345.074 244.127 345.852 237.054 345.774 229.964ZM295.819 229.964C295.813 238.569 292.831 246.906 287.38 253.557C281.928 260.208 274.345 264.761 265.919 266.443C257.494 268.124 248.748 266.829 241.168 262.778C233.588 258.728 227.644 252.171 224.347 244.225C221.049 236.279 220.602 227.434 223.081 219.195C225.56 210.956 230.813 203.832 237.945 199.035C245.078 194.238 253.649 192.064 262.2 192.884C270.752 193.704 278.756 197.467 284.85 203.532C285.524 204.207 286.174 204.895 286.775 205.619C292.57 212.305 295.78 220.851 295.819 229.706V229.964Z" fill="#014999" stroke="#263238" stroke-miterlimit="10"/>
<path opacity="0.2" d="M343.409 251.018L358.533 263.233L349.267 283.096L330.075 279.647C325.858 285.518 320.916 290.831 315.368 295.459L320.601 314.389L301.604 325.365L287.731 311.48C280.947 313.848 273.909 315.41 266.761 316.133L260.216 334.67L238.376 332.73L235.116 313.088C228.261 311.148 221.674 308.36 215.507 304.789L199.28 316.967L182.465 302.837L191.24 284.643C189.753 282.794 188.348 280.883 187.024 278.91L227.003 249.545C231.252 256.441 237.631 261.761 245.173 264.696C252.714 267.631 261.005 268.021 268.788 265.808C276.571 263.594 283.42 258.897 288.297 252.431C293.173 245.964 295.81 238.08 295.807 229.976V229.743C295.767 220.888 292.558 212.342 286.762 205.656L336.325 169.256L330.075 179.826C334.205 185.626 337.563 191.94 340.063 198.61L359.93 200.205L363.778 221.812L345.75 229.964C345.818 237.051 345.032 244.12 343.409 251.018Z" fill="black"/>
<path d="M420.916 172.546L421.823 172.129C422.329 171.906 422.745 171.517 423.003 171.027C423.262 170.536 423.347 169.973 423.244 169.428L423.06 168.323C422.97 167.777 422.699 167.277 422.289 166.905C421.88 166.533 421.357 166.31 420.805 166.273L419.715 166.187C419.282 166.155 418.866 166.008 418.509 165.763C418.151 165.517 417.865 165.18 417.68 164.788C417.386 164.161 417.067 163.56 416.724 162.971C416.509 162.597 416.396 162.174 416.396 161.743C416.396 161.312 416.509 160.889 416.724 160.515L417.288 159.558C417.562 159.079 417.672 158.523 417.601 157.976C417.53 157.428 417.283 156.919 416.896 156.525L416.111 155.74C415.722 155.342 415.208 155.089 414.656 155.022C414.104 154.955 413.545 155.078 413.072 155.371L412.104 155.948C411.731 156.164 411.308 156.277 410.878 156.277C410.448 156.277 410.025 156.164 409.652 155.948C408.088 155.048 406.411 154.363 404.664 153.911C404.236 153.799 403.846 153.574 403.535 153.258C403.224 152.943 403.005 152.549 402.899 152.118L402.618 150.977C402.488 150.427 402.174 149.939 401.727 149.595C401.281 149.251 400.73 149.071 400.166 149.086H399.063C398.502 149.07 397.952 149.248 397.506 149.59C397.059 149.932 396.744 150.417 396.612 150.964L396.306 152.192C396.2 152.613 395.984 152.999 395.68 153.31C395.377 153.62 394.996 153.845 394.578 153.96C393.965 154.132 393.352 154.316 392.776 154.537C392.364 154.687 391.92 154.725 391.489 154.645C391.057 154.565 390.656 154.371 390.325 154.082L389.345 153.235C388.933 152.874 388.413 152.66 387.867 152.629C387.32 152.598 386.779 152.751 386.33 153.064L385.459 153.653C384.99 153.965 384.642 154.43 384.475 154.969C384.308 155.507 384.331 156.088 384.54 156.611L384.981 157.765C385.142 158.172 385.191 158.613 385.124 159.045C385.058 159.476 384.877 159.882 384.601 160.221C384.21 160.689 383.842 161.176 383.499 161.682C383.249 162.047 382.905 162.338 382.504 162.524C382.103 162.71 381.659 162.784 381.219 162.737L379.993 162.627C379.441 162.565 378.885 162.693 378.415 162.99C377.945 163.287 377.59 163.734 377.407 164.26L377.015 165.34C376.825 165.85 376.81 166.41 376.972 166.93C377.134 167.45 377.464 167.901 377.91 168.213L379.037 169.011C379.392 169.261 379.674 169.6 379.855 169.995C380.036 170.389 380.109 170.825 380.067 171.257C379.997 171.897 379.965 172.541 379.969 173.185C379.956 173.608 379.837 174.021 379.623 174.386C379.409 174.75 379.106 175.055 378.743 175.272L377.591 175.91C377.093 176.171 376.7 176.595 376.477 177.111C376.254 177.627 376.215 178.204 376.366 178.746L376.647 179.814C376.786 180.354 377.105 180.831 377.55 181.166C377.996 181.5 378.542 181.673 379.099 181.656H380.324C380.758 181.652 381.185 181.763 381.562 181.979C381.939 182.195 382.252 182.507 382.469 182.883C382.8 183.472 383.155 184.037 383.535 184.59C383.779 184.946 383.924 185.361 383.957 185.793C383.989 186.224 383.907 186.656 383.719 187.045L383.217 188.088C382.97 188.587 382.899 189.156 383.017 189.7C383.135 190.245 383.435 190.732 383.866 191.084L384.712 191.796C385.133 192.157 385.664 192.365 386.218 192.385C386.773 192.405 387.317 192.237 387.764 191.906L388.634 191.293C388.985 191.041 389.397 190.886 389.828 190.845C390.258 190.804 390.692 190.878 391.085 191.059C391.706 191.354 392.343 191.624 392.997 191.87C393.399 192.021 393.754 192.275 394.027 192.606C394.3 192.938 394.482 193.336 394.553 193.76L394.737 194.828C394.827 195.375 395.099 195.875 395.508 196.247C395.918 196.619 396.441 196.841 396.992 196.878L398.12 196.977C398.669 197.028 399.219 196.892 399.682 196.591C400.144 196.291 400.492 195.843 400.669 195.319L401.012 194.362C401.157 193.948 401.409 193.581 401.743 193.298C402.077 193.016 402.481 192.827 402.912 192.753C403.606 192.644 404.293 192.496 404.971 192.312C405.389 192.2 405.83 192.201 406.247 192.316C406.665 192.43 407.045 192.653 407.348 192.962L408.072 193.699C408.454 194.094 408.958 194.348 409.503 194.422C410.047 194.495 410.601 194.383 411.074 194.104L412.042 193.551C412.54 193.291 412.933 192.867 413.156 192.351C413.38 191.835 413.419 191.257 413.268 190.716L412.998 189.758C412.87 189.331 412.86 188.876 412.97 188.443C413.08 188.011 413.306 187.616 413.623 187.303C414.126 186.799 414.616 186.271 415.07 185.719C415.35 185.384 415.715 185.129 416.127 184.983C416.538 184.836 416.981 184.802 417.41 184.884L418.391 185.068C418.934 185.176 419.497 185.096 419.989 184.842C420.481 184.587 420.872 184.174 421.1 183.669L421.565 182.662C421.807 182.158 421.869 181.586 421.742 181.041C421.615 180.497 421.306 180.012 420.867 179.667L420.131 179.065C419.793 178.798 419.531 178.446 419.372 178.045C419.213 177.644 419.162 177.209 419.224 176.782C419.346 176.05 419.423 175.313 419.457 174.572C419.497 174.135 419.654 173.716 419.91 173.36C420.167 173.003 420.514 172.722 420.916 172.546ZM412.116 173.185C412.116 175.647 411.387 178.054 410.021 180.101C408.656 182.148 406.715 183.743 404.444 184.686C402.173 185.628 399.675 185.874 397.264 185.394C394.853 184.914 392.639 183.728 390.901 181.987C389.163 180.246 387.979 178.028 387.5 175.613C387.02 173.199 387.266 170.696 388.207 168.421C389.148 166.146 390.74 164.202 392.784 162.834C394.828 161.466 397.231 160.736 399.688 160.736C402.969 160.736 406.117 162.039 408.441 164.358C410.766 166.677 412.078 169.825 412.091 173.111L412.116 173.185Z" fill="#E43B5C" stroke="#263238" stroke-linecap="round" stroke-linejoin="round"/>
<path d="M437.547 87.6911V88.3663H79.7734V87.6911C79.7718 85.9327 80.1162 84.1914 80.7868 82.5664C81.4574 80.9415 82.4411 79.4649 83.6818 78.221C84.9224 76.9772 86.3957 75.9904 88.0173 75.3171C89.6389 74.6439 91.3769 74.2974 93.1323 74.2974H424.176C425.932 74.2958 427.671 74.6411 429.294 75.3136C430.917 75.9861 432.392 76.9727 433.634 78.2167C434.876 79.4607 435.861 80.9379 436.532 82.5636C437.204 84.1893 437.548 85.9317 437.547 87.6911Z" fill="#263238"/>
<path d="M437.547 87.6911V336.315C437.547 338.073 437.201 339.814 436.529 341.439C435.857 343.063 434.872 344.539 433.63 345.781C432.388 347.024 430.914 348.01 429.292 348.681C427.669 349.353 425.931 349.698 424.176 349.696H93.1323C89.5893 349.696 86.1914 348.287 83.6861 345.777C81.1809 343.268 79.7734 339.864 79.7734 336.315V87.6911C79.7718 85.9327 80.1162 84.1914 80.7868 82.5664C81.4574 80.9415 82.4411 79.4649 83.6818 78.221C84.9224 76.9772 86.3957 75.9904 88.0173 75.3171C89.6389 74.6439 91.3769 74.2974 93.1323 74.2974H424.176C425.932 74.2958 427.671 74.6411 429.294 75.3136C430.917 75.9861 432.392 76.9727 433.634 78.2167C434.876 79.4607 435.861 80.9379 436.532 82.5636C437.204 84.1893 437.548 85.9317 437.547 87.6911Z" stroke="#263238" stroke-linecap="round" stroke-linejoin="round"/>
<path d="M79.7734 87.6909H437.547" stroke="#263238" stroke-linecap="round" stroke-linejoin="round"/>
<path d="M109.593 81.3318C109.593 81.8684 109.434 82.3929 109.136 82.8391C108.839 83.2852 108.416 83.633 107.921 83.8383C107.426 84.0437 106.881 84.0974 106.356 83.9927C105.831 83.8881 105.348 83.6297 104.969 83.2502C104.59 82.8708 104.332 82.3873 104.228 81.8611C104.123 81.3348 104.177 80.7893 104.382 80.2935C104.587 79.7977 104.934 79.374 105.38 79.0759C105.825 78.7778 106.349 78.6187 106.884 78.6187C107.603 78.6187 108.292 78.9045 108.8 79.4133C109.308 79.9221 109.593 80.6122 109.593 81.3318Z" fill="white"/>
<path d="M122.447 81.3318C122.45 81.8713 122.292 82.3994 121.995 82.8492C121.697 83.299 121.273 83.6503 120.776 83.8584C120.279 84.0666 119.732 84.1223 119.203 84.0186C118.675 83.9148 118.189 83.6562 117.807 83.2755C117.425 82.8949 117.165 82.4093 117.059 81.8803C116.953 81.3513 117.006 80.8027 117.212 80.3039C117.417 79.8052 117.766 79.3789 118.214 79.0788C118.661 78.7788 119.188 78.6187 119.727 78.6187C120.446 78.6186 121.136 78.9041 121.646 79.4126C122.156 79.921 122.444 80.6111 122.447 81.3318Z" fill="white"/>
<path d="M135.293 81.3318C135.296 81.8713 135.138 82.3995 134.841 82.8493C134.543 83.2991 134.119 83.6503 133.622 83.8585C133.125 84.0666 132.578 84.1223 132.049 84.0186C131.52 83.9148 131.035 83.6562 130.653 83.2756C130.271 82.8949 130.011 82.4093 129.905 81.8803C129.799 81.3513 129.852 80.8027 130.057 80.304C130.263 79.8053 130.612 79.3789 131.059 79.0789C131.507 78.7788 132.034 78.6187 132.572 78.6187C132.929 78.6171 133.283 78.686 133.613 78.8217C133.943 78.9573 134.243 79.1569 134.496 79.409C134.748 79.6611 134.949 79.9607 135.086 80.2907C135.223 80.6207 135.293 80.9745 135.293 81.3318Z" fill="white"/>
<path d="M315.798 229.964C315.798 241.224 312.464 252.231 306.218 261.593C299.973 270.955 291.095 278.251 280.71 282.559C270.324 286.867 258.896 287.993 247.871 285.794C236.846 283.596 226.72 278.172 218.773 270.208C210.826 262.244 205.416 252.099 203.226 241.055C201.036 230.01 202.165 218.564 206.47 208.162C210.775 197.761 218.063 188.872 227.412 182.619C236.761 176.367 247.751 173.033 258.992 173.038C274.003 173.037 288.404 178.986 299.052 189.585C309.699 200.184 315.728 214.572 315.822 229.608L315.798 229.964Z" stroke="#263238" stroke-width="4" stroke-miterlimit="10"/>
<path d="M441.249 42.5137H238.978C231.6 42.5137 225.619 48.5047 225.619 55.8951V100.876C225.619 108.267 231.6 114.258 238.978 114.258H441.249C448.627 114.258 454.608 108.267 454.608 100.876V55.8951C454.608 48.5047 448.627 42.5137 441.249 42.5137Z" fill="white" stroke="#263238" stroke-miterlimit="10"/>
<path d="M265.707 78.0664H421.761" stroke="#263238" stroke-miterlimit="10"/>
<path d="M260.842 78.0663L285.488 60.6582H348.238L373.853 78.0663" stroke="#263238" stroke-miterlimit="10"/>
<path d="M378.719 78.0542C378.719 79.0254 378.431 79.9748 377.893 80.7824C377.354 81.5899 376.588 82.2193 375.693 82.591C374.797 82.9627 373.811 83.0599 372.86 82.8704C371.909 82.6809 371.036 82.2132 370.35 81.5265C369.664 80.8397 369.197 79.9647 369.008 79.0122C368.819 78.0596 368.916 77.0723 369.287 76.175C369.658 75.2777 370.287 74.5107 371.093 73.9712C371.899 73.4316 372.847 73.1436 373.816 73.1436C375.117 73.1436 376.364 73.6609 377.283 74.5819C378.202 75.5028 378.719 76.7518 378.719 78.0542Z" fill="#E43B5C" stroke="#263238" stroke-linecap="round" stroke-linejoin="round"/>
<path d="M285.477 65.5322C288.164 65.5322 290.342 63.3502 290.342 60.6584C290.342 57.9667 288.164 55.7847 285.477 55.7847C282.79 55.7847 280.611 57.9667 280.611 60.6584C280.611 63.3502 282.79 65.5322 285.477 65.5322Z" fill="#E43B5C" stroke="#263238" stroke-linecap="round" stroke-linejoin="round"/>
<path d="M353.103 60.6582C353.103 61.6294 352.816 62.5788 352.277 63.3864C351.739 64.1939 350.973 64.8233 350.077 65.195C349.181 65.5667 348.196 65.6639 347.245 65.4744C346.294 65.2849 345.42 64.8173 344.735 64.1305C344.049 63.4437 343.582 62.5687 343.393 61.6162C343.204 60.6636 343.301 59.6763 343.672 58.779C344.043 57.8817 344.671 57.1147 345.478 56.5752C346.284 56.0356 347.232 55.7476 348.201 55.7476C349.501 55.7476 350.748 56.2649 351.668 57.1859C352.587 58.1068 353.103 59.3558 353.103 60.6582Z" fill="#014999" stroke="#263238" stroke-miterlimit="10"/>
<path d="M260.842 78.0664L285.488 95.4622H401.159L421.761 78.0664" stroke="#263238" stroke-miterlimit="10"/>
<path d="M328.029 95.499C328.029 96.4702 327.742 97.4196 327.203 98.2272C326.664 99.0347 325.899 99.6641 325.003 100.036C324.107 100.407 323.122 100.505 322.171 100.315C321.22 100.126 320.346 99.6581 319.66 98.9713C318.975 98.2846 318.508 97.4096 318.319 96.457C318.13 95.5044 318.227 94.5171 318.598 93.6198C318.969 92.7225 319.597 91.9555 320.403 91.416C321.21 90.8764 322.157 90.5884 323.127 90.5884C324.427 90.5884 325.674 91.1057 326.593 92.0267C327.513 92.9476 328.029 94.1966 328.029 95.499Z" fill="#014999" stroke="#263238" stroke-miterlimit="10"/>
<path d="M290.342 95.499C290.342 96.4702 290.054 97.4196 289.516 98.2272C288.977 99.0347 288.211 99.6641 287.315 100.036C286.42 100.407 285.434 100.505 284.483 100.315C283.532 100.126 282.659 99.6581 281.973 98.9713C281.287 98.2846 280.82 97.4096 280.631 96.457C280.442 95.5044 280.539 94.5171 280.91 93.6198C281.281 92.7225 281.91 91.9555 282.716 91.416C283.522 90.8764 284.47 90.5884 285.439 90.5884C286.74 90.5884 287.987 91.1057 288.906 92.0267C289.825 92.9476 290.342 94.1966 290.342 95.499Z" fill="#E43B5C" stroke="#263238" stroke-linecap="round" stroke-linejoin="round"/>
<path d="M406.063 95.499C406.063 96.4702 405.775 97.4196 405.236 98.2272C404.698 99.0347 403.932 99.6641 403.036 100.036C402.14 100.407 401.155 100.505 400.204 100.315C399.253 100.126 398.379 99.6581 397.694 98.9713C397.008 98.2846 396.541 97.4096 396.352 96.457C396.163 95.5044 396.26 94.5171 396.631 93.6198C397.002 92.7225 397.63 91.9555 398.437 91.416C399.243 90.8764 400.191 90.5884 401.16 90.5884C402.46 90.5884 403.707 91.1057 404.627 92.0267C405.546 92.9476 406.063 94.1966 406.063 95.499Z" fill="#E43B5C" stroke="#263238" stroke-linecap="round" stroke-linejoin="round"/>
<path d="M421.762 82.9399C424.449 82.9399 426.628 80.7579 426.628 78.0662C426.628 75.3744 424.449 73.1924 421.762 73.1924C419.075 73.1924 416.896 75.3744 416.896 78.0662C416.896 80.7579 419.075 82.9399 421.762 82.9399Z" fill="#014999" stroke="#263238" stroke-miterlimit="10"/>
<path d="M265.695 78.0542C265.695 79.0254 265.408 79.9748 264.869 80.7824C264.33 81.5899 263.565 82.2193 262.669 82.591C261.773 82.9627 260.788 83.0599 259.837 82.8704C258.886 82.6809 258.012 82.2132 257.327 81.5265C256.641 80.8397 256.174 79.9647 255.985 79.0122C255.796 78.0596 255.893 77.0723 256.264 76.175C256.635 75.2777 257.263 74.5107 258.069 73.9712C258.876 73.4316 259.823 73.1436 260.793 73.1436C262.093 73.1436 263.34 73.6609 264.259 74.5819C265.179 75.5028 265.695 76.7518 265.695 78.0542Z" fill="#014999" stroke="#263238" stroke-miterlimit="10"/>
<path d="M199.71 223.715H83.1812C75.8033 223.715 69.8223 229.706 69.8223 237.096V353.821C69.8223 361.212 75.8033 367.203 83.1812 367.203H199.71C207.088 367.203 213.069 361.212 213.069 353.821V237.096C213.069 229.706 207.088 223.715 199.71 223.715Z" fill="white" stroke="#263238" stroke-miterlimit="10"/>
<path d="M123.54 305.636L104.984 341.754H189.072" stroke="#263238" stroke-linecap="round" stroke-linejoin="round"/>
<path d="M189.071 251.055L149.828 277.191L189.071 289.014" stroke="#263238" stroke-linecap="round" stroke-linejoin="round"/>
<path d="M198.348 241.761H179.793V260.348H198.348V241.761Z" fill="#014999" stroke="#263238" stroke-miterlimit="10"/>
<path d="M198.348 279.72H179.793V298.307H198.348V279.72Z" fill="#014999" stroke="#263238" stroke-miterlimit="10"/>
<path d="M159.106 267.898H140.551V286.485H159.106V267.898Z" fill="#E43B5C" stroke="#263238" stroke-linecap="round" stroke-linejoin="round"/>
<path d="M132.817 296.343H114.262V314.929H132.817V296.343Z" fill="#E43B5C" stroke="#263238" stroke-linecap="round" stroke-linejoin="round"/>
<path d="M114.262 332.46H95.707V351.047H114.262V332.46Z" fill="#014999" stroke="#263238" stroke-miterlimit="10"/>
<path d="M198.348 332.46H179.793V351.047H198.348V332.46Z" fill="#E43B5C" stroke="#263238" stroke-linecap="round" stroke-linejoin="round"/>
<path d="M130.501 120.629H13.9722C6.59426 120.629 0.613281 126.62 0.613281 134.01V250.735C0.613281 258.126 6.59426 264.117 13.9722 264.117H130.501C137.879 264.117 143.86 258.126 143.86 250.735V134.01C143.86 126.62 137.879 120.629 130.501 120.629Z" fill="white" stroke="#263238" stroke-miterlimit="10"/>
<path d="M111.051 134.514H15.7617V141.904H111.051V134.514Z" fill="#C6FF00"/>
<path d="M70.8151 146.692H15.7617V154.082H70.8151V146.692Z" fill="#C6FF00"/>
<path d="M47.8231 158.858H15.7617V166.248H47.8231V158.858Z" fill="#C6FF00"/>
<path d="M68.5355 171.037H15.7617V178.427H68.5355V171.037Z" fill="#C6FF00"/>
<path d="M98.0231 183.215H15.7617V190.605H98.0231V183.215Z" fill="#C6FF00"/>
<path d="M70.8151 195.381H15.7617V202.771H70.8151V195.381Z" fill="#C6FF00"/>
<path d="M54.1716 207.559H15.7617V214.95H54.1716V207.559Z" fill="#C6FF00"/>
<path d="M77.948 219.725H15.7617V227.116H77.948V219.725Z" fill="#C6FF00"/>
<path d="M91.1476 231.903H15.7617V239.294H91.1476V231.903Z" fill="#C6FF00"/>
<path d="M111.051 244.069H15.7617V251.46H111.051V244.069Z" fill="#C6FF00"/>
<path d="M111.051 134.514H15.7617V141.904H111.051V134.514Z" fill="#014999"/>
<path d="M70.8151 146.692H15.7617V154.082H70.8151V146.692Z" fill="#E43B5C"/>
<path d="M47.8231 158.858H15.7617V166.248H47.8231V158.858Z" fill="#014999"/>
<path d="M68.5355 171.037H15.7617V178.427H68.5355V171.037Z" fill="#E43B5C"/>
<path d="M98.0231 183.215H15.7617V190.605H98.0231V183.215Z" fill="#014999"/>
<path d="M70.8151 195.381H15.7617V202.771H70.8151V195.381Z" fill="#E43B5C"/>
<path d="M54.1716 207.559H15.7617V214.95H54.1716V207.559Z" fill="#E43B5C"/>
<path d="M77.948 219.725H15.7617V227.116H77.948V219.725Z" fill="#014999"/>
<path d="M91.1476 231.903H15.7617V239.294H91.1476V231.903Z" fill="#E43B5C"/>
<path d="M111.051 244.069H15.7617V251.46H111.051V244.069Z" fill="#E43B5C"/>
<path d="M77.1262 108.033H111.798C113.472 108.033 115.078 108.699 116.261 109.885C117.445 111.071 118.11 112.679 118.11 114.356V120.641H70.8145V114.343C70.8177 112.669 71.4841 111.064 72.6675 109.881C73.8508 108.698 75.4544 108.033 77.1262 108.033Z" fill="white" stroke="#263238" stroke-miterlimit="10"/>
<path d="M53.6803 108.033H87.9967C89.726 108.033 91.3844 108.721 92.6071 109.946C93.8299 111.171 94.5168 112.832 94.5168 114.564V120.703H47.1602V114.564C47.1602 112.832 47.8471 111.171 49.0699 109.946C50.2926 108.721 51.951 108.033 53.6803 108.033Z" fill="#E43B5C" stroke="#263238" stroke-linecap="round" stroke-linejoin="round"/>
<path d="M27.33 108.033H62.4308C64.056 108.033 65.6147 108.68 66.7639 109.831C67.9131 110.982 68.5587 112.543 68.5587 114.171V120.666H21.2266V114.171C21.2265 112.548 21.8688 110.99 23.0127 109.84C24.1566 108.689 25.709 108.04 27.33 108.033Z" fill="white" stroke="#263238" stroke-miterlimit="10"/>
<path d="M435.021 446.951H461.065" stroke="#263238" stroke-linecap="round" stroke-linejoin="round"/>
<path d="M24.8301 446.951H421.32" stroke="#263238" stroke-linecap="round" stroke-linejoin="round"/>
<path d="M427.876 431.667C427.876 431.667 432.497 427.886 434.69 432.023C436.59 435.595 432.043 439.597 426.871 439.585V442.605C426.871 442.605 437.901 442.9 438.821 433.545C439.74 424.19 427.876 426.781 427.876 426.781V431.667Z" fill="#014999" stroke="#263238" stroke-miterlimit="10"/>
<path d="M427.497 446.902H405.277L401.943 418.948H430.843L427.497 446.902Z" fill="#014999" stroke="#263238" stroke-miterlimit="10"/>
<path d="M430.794 417.623H401.992C401.153 417.623 400.473 418.304 400.473 419.145V419.292C400.473 420.133 401.153 420.814 401.992 420.814H430.794C431.633 420.814 432.313 420.133 432.313 419.292V419.145C432.313 418.304 431.633 417.623 430.794 417.623Z" fill="white" stroke="#263238" stroke-linecap="round" stroke-linejoin="round"/>
<path d="M412.606 414.566C412.606 414.566 422.828 408.427 419.494 401.381C416.16 394.334 404.836 389.693 404.836 378.73C404.836 369.29 414.861 365.791 421.406 362.01" stroke="#263238" stroke-linecap="round" stroke-linejoin="round"/>
<path d="M415.977 368.688C414.645 369.595 413.504 370.755 412.619 372.103C411.734 373.452 411.124 374.962 410.822 376.546C410.521 378.131 410.534 379.76 410.861 381.34C411.188 382.919 411.823 384.419 412.729 385.753" stroke="#263238" stroke-linecap="round" stroke-linejoin="round"/>
<path d="M421.541 396.544C423.574 400.461 424.135 404.978 423.122 409.275" stroke="#263238" stroke-linecap="round" stroke-linejoin="round"/>
<path d="M147.892 444.631C147.892 444.631 147.427 436.614 140.367 433.791C133.308 430.967 129.533 432.133 113.772 436.381C103.839 438.985 93.6673 440.564 83.4141 441.095V444.631H147.892Z" fill="white" stroke="#263238" stroke-linecap="round" stroke-linejoin="round"/>
<path d="M147.635 444.631C147.635 444.631 148.101 436.614 155.16 433.791C162.219 430.967 165.982 432.133 181.755 436.381C191.683 438.986 201.851 440.566 212.101 441.095V444.631H147.635Z" fill="white" stroke="#263238" stroke-linecap="round" stroke-linejoin="round"/>
<path d="M214.723 443.231H81.7715V445.822H214.723V443.231Z" fill="#263238" stroke="#263238" stroke-linecap="round" stroke-linejoin="round"/>
<path d="M151.066 444.496C151.698 442.603 152.723 440.865 154.072 439.397C155.422 437.929 157.067 436.763 158.898 435.976" stroke="#263238" stroke-linecap="round" stroke-linejoin="round"/>
<path d="M155.086 443.931C156.024 442.306 157.299 440.902 158.826 439.813C160.353 438.724 162.095 437.977 163.935 437.621C168.335 436.811 172.808 438.321 176.95 440.076C181.093 441.832 188.299 443.98 192.773 443.992" stroke="#263238" stroke-linecap="round" stroke-linejoin="round"/>
<path d="M109.053 443.194C113.456 442.724 117.771 441.637 121.872 439.966C124.345 438.812 126.897 437.836 129.508 437.044C131.406 436.361 133.474 436.317 135.399 436.92C137.324 437.523 138.999 438.739 140.17 440.383C141.224 441.708 142.094 443.17 142.756 444.729" stroke="#263238" stroke-linecap="round" stroke-linejoin="round"/>
<path d="M133.369 439.585C134.785 439.811 136.081 440.512 137.046 441.574C138.015 442.644 138.858 443.822 139.558 445.085" stroke="#263238" stroke-linecap="round" stroke-linejoin="round"/>
<path d="M248.586 443.354C243.716 445.595 238.441 446.819 233.082 446.951C224.859 446.951 208.081 429.899 208.081 429.899C208.081 429.899 207.468 428.057 208.779 421.195C210.09 414.332 222.395 351.28 222.395 351.28C222.395 351.28 223.842 336.622 232.2 327.611C240.559 318.6 256.859 315.408 256.859 315.408C256.859 315.408 292.989 299.645 313.236 304.507C333.532 312.572 355.592 320.748 362.982 327.083C370.373 333.418 388.499 384.316 394.786 410.477C394.786 410.477 380.937 439.941 368.032 448.228C355.126 456.514 323.911 453.814 323.911 453.814L248.586 443.354Z" fill="#E43B5C" stroke="#263238" stroke-linecap="round" stroke-linejoin="round"/>
<path opacity="0.3" d="M244.003 392.124L238.782 322.615C235.36 324.004 232.327 326.206 229.944 329.031C227.561 331.857 225.9 335.22 225.104 338.832C222.396 351.244 206.071 427.726 208.081 429.862C210.091 431.998 220.754 441.132 220.754 441.132C220.754 441.132 232.25 450.953 244.04 445.085C255.83 439.217 244.003 392.124 244.003 392.124Z" fill="black"/>
<path opacity="0.3" d="M295.869 329.097C295.256 331.172 292.658 331.834 290.489 331.859C284.272 331.935 278.238 329.755 273.502 325.721C272.644 324.972 257.312 334.449 255.547 335.395C252.777 336.892 250.044 338.55 247.213 339.937C244.566 341.226 242.066 341.877 240.338 344.504C239.194 346.443 238.332 348.534 237.776 350.716C234.099 362.894 230.141 375.048 226.746 387.324C223.817 397.943 219.87 409.717 220.042 420.864C220.038 421.661 220.095 422.457 220.213 423.245C222.542 437.498 248.561 443.416 248.561 443.416C248.561 443.416 239.369 449.051 233.058 447.013C226.746 444.975 212.088 436.541 207.455 428.598L220.213 361.765C220.213 361.765 220.054 329.612 243.218 320.024C266.381 310.436 275.487 308.976 275.487 308.976L295.869 329.097Z" fill="black"/>
<path opacity="0.3" d="M381.379 434.146C381.379 434.146 391.49 422.95 394.762 410.477C394.762 410.477 379.246 359.272 375.263 349.696C371.28 340.121 364.735 329.158 360.164 324.493L352.81 429.899L351.254 452.07C351.254 452.07 359.539 452.426 365.36 449.689C371.182 446.951 381.379 434.146 381.379 434.146Z" fill="black"/>
<path d="M351.204 452.07L360.163 324.493C360.163 324.493 316.765 304.2 305.441 302.272C294.116 300.345 238.916 322.123 238.916 322.123L246.944 444.52" stroke="#263238" stroke-linecap="round" stroke-linejoin="round"/>
<path d="M272.951 239.957L268.49 261.379C268.49 261.379 262.778 257.328 261.565 261.907C260.352 266.486 265.475 272.76 272.595 273.104C274.349 278.95 277.375 284.333 281.456 288.867C287.805 295.447 288.994 298.491 288.994 298.491C288.994 298.491 291.445 314.745 299.693 315.372C307.941 315.998 309.498 308.595 311.152 298.319C311.152 298.319 319.989 281.55 322.06 274.896C322.06 274.896 335.235 268.181 332.943 260.545C332.943 260.545 329.328 257.426 323.837 263.381C323.837 263.381 326.068 243.222 321.079 239.638C316.091 236.053 281.652 237.907 272.951 239.957Z" fill="white"/>
<path d="M299.435 317.066C299.435 317.066 296.678 330.95 294.962 331.306C293.246 331.663 286.469 325.168 280.537 317.066C274.605 308.963 275.524 308.976 275.524 308.976C275.524 308.976 278.269 298.356 280.537 296.81C282.804 295.263 290.954 295.447 290.954 295.447L308.823 294.772C308.823 294.772 314.816 293.912 318.444 296.294C322.072 298.676 323.947 308.976 323.947 308.976C323.947 308.976 313.272 328.753 304.497 331.306C302.534 326.662 300.844 321.907 299.435 317.066Z" fill="white"/>
<path d="M240.877 421.318L243.242 388.024" stroke="#263238" stroke-miterlimit="10"/>
<g opacity="0.9">
<path d="M323.947 246.107C323.947 246.107 313.812 250.048 304.84 249.287C304.84 249.287 295.366 258.85 283.245 253.166C283.245 253.166 272.313 282.814 297.376 302.211C297.376 302.211 280.463 294.342 272.705 273.104C270.139 272.747 267.732 271.652 265.774 269.953C263.816 268.253 262.392 266.021 261.675 263.528C261.675 263.528 259.616 259.415 269.029 259.391L268.612 238.766L292.756 243.615L310.086 241.074L323.947 246.107Z" fill="#D8D8D8"/>
</g>
<path d="M268.49 257.856C268.49 257.856 273.834 281.353 281.518 288.866C289.203 296.379 293.112 302.567 299.338 302.898C305.564 303.23 327.796 285.269 326.608 241.074" stroke="#263238" stroke-linecap="round" stroke-linejoin="round"/>
<path d="M296.311 287.209C297.092 287.847 297.91 288.437 298.762 288.977C299.313 289.333 300.159 289.615 300.551 289.1C300.69 288.885 300.759 288.631 300.747 288.375C301.103 282.519 299.742 276.602 300.576 270.795" stroke="#263238" stroke-linecap="round" stroke-linejoin="round"/>
<path d="M304.436 267.468C304.436 267.468 307.34 261.048 314.841 266.818" stroke="#263238" stroke-width="2" stroke-linecap="round" stroke-linejoin="round"/>
<path d="M295.023 268.659C295.023 268.659 289.545 261.834 282.768 268.868" stroke="#263238" stroke-width="2" stroke-linecap="round" stroke-linejoin="round"/>
<path d="M287.865 295.447C287.865 295.447 290.549 314.979 300.832 315.507C311.115 316.034 311.213 295.115 311.213 295.115" stroke="#263238" stroke-linecap="round" stroke-linejoin="round"/>
<path d="M325.039 262.705C325.039 262.705 330.468 257.021 333.005 260.544C335.542 264.068 327.992 274.613 322.6 274.208" stroke="#263238" stroke-linecap="round" stroke-linejoin="round"/>
<path d="M269.91 263.319C269.91 263.319 265.363 257.905 262.299 260.545C259.236 263.184 265.523 274.687 272.95 272.919" stroke="#263238" stroke-linecap="round" stroke-linejoin="round"/>
<path d="M289.533 289.382C291.776 292.085 294.841 293.978 298.259 294.771" stroke="#263238" stroke-linecap="round" stroke-linejoin="round"/>
<path d="M289.055 279.23C289.705 279.23 290.232 278.108 290.232 276.725C290.232 275.342 289.705 274.221 289.055 274.221C288.406 274.221 287.879 275.342 287.879 276.725C287.879 278.108 288.406 279.23 289.055 279.23Z" fill="#263238"/>
<path d="M309.338 276.713C309.338 278.1 308.811 279.229 308.112 279.229C307.414 279.229 306.887 278.1 306.887 276.713C306.887 275.325 307.426 274.257 308.112 274.257C308.799 274.257 309.338 275.338 309.338 276.713Z" fill="#263238"/>
<path d="M299.754 315.371C299.754 315.371 296.886 330.95 294.95 331.331C293.013 331.711 278.392 318.355 275.512 309C275.512 309 278.612 296.723 281.419 296.318C284.226 295.913 287.866 295.471 287.866 295.471" stroke="#263238" stroke-linecap="round" stroke-linejoin="round"/>
<path d="M299.754 315.371C299.754 315.371 302.511 330.95 304.448 331.331C306.384 331.711 321.018 318.355 323.898 309C323.898 309 320.393 296.846 317.77 295.827C315.846 295.13 313.871 294.585 311.863 294.194" stroke="#263238" stroke-linecap="round" stroke-linejoin="round"/>
<path d="M274.506 276.062C276.382 279.327 276.872 268.782 275.879 265.148C275.217 262.693 273.906 260.434 273.796 257.929C273.673 255.13 275.021 252.528 276.014 249.913C277.007 247.298 277.57 244.18 276.014 241.847C281.427 245.685 287.784 247.968 294.398 248.452C296.087 248.684 297.807 248.542 299.435 248.035C300.242 247.771 300.966 247.302 301.537 246.673C302.109 246.045 302.508 245.279 302.695 244.45C308.884 245.236 315.012 246.046 321.189 245.199C326.361 244.499 334.413 243.185 337.122 237.894C341.007 230.16 330.994 222.131 325.062 219.479C310.735 212.924 291.469 211.819 278.563 222.094C277.239 223.246 275.852 224.324 274.408 225.323C271.553 227.103 265.082 228.49 262.814 230.982C259.763 234.334 263.586 260.213 263.586 260.213C263.586 260.213 268.489 257.905 270.609 265.615C271.945 270.795 272.607 272.759 274.506 276.062Z" fill="#263238"/>
<path d="M319.474 243.529C319.388 243.851 319.33 244.179 319.302 244.511C319.177 247.445 319.525 250.38 320.332 253.203C320.727 254.445 321.058 255.708 321.324 256.984C321.802 260.053 321.802 263.012 324.057 265.504C324.057 265.504 328.396 250.318 326.656 239.465C326.447 238.238 326.055 235.058 324.131 235.635C322.734 236.065 321.68 238.483 321.14 239.637C320.446 240.87 319.887 242.175 319.474 243.529Z" fill="#263238"/>
<path d="M259.652 229.313C261.568 227.979 263.773 227.121 266.085 226.81C268.397 226.498 270.75 226.742 272.95 227.521C276.413 221.348 281.232 216.046 287.044 212.016" stroke="#263238" stroke-linecap="round" stroke-linejoin="round"/>
<path opacity="0.47" d="M278.27 225.63C278.27 225.63 301.556 242.265 315.736 238.14C329.916 234.015 325.933 221.849 325.933 221.849" stroke="white" stroke-linecap="round" stroke-linejoin="round"/>
<path opacity="0.47" d="M280.525 222.794C280.525 222.794 309.829 236.298 314.756 217.208" stroke="white" stroke-linecap="round" stroke-linejoin="round"/>
<path d="M288 296.294C288 296.294 293.209 308.325 297.572 308.141C301.935 307.957 309.963 296.294 309.963 296.294C309.963 296.294 303.638 302.371 299.337 302.899C295.035 303.427 288 296.294 288 296.294Z" fill="#263238"/>
<path d="M321.349 376.631L322.256 376.214C322.763 375.991 323.179 375.602 323.437 375.112C323.695 374.621 323.78 374.058 323.678 373.513L323.494 372.408C323.404 371.862 323.132 371.362 322.723 370.99C322.313 370.618 321.791 370.395 321.239 370.358L320.148 370.272C319.716 370.24 319.3 370.093 318.942 369.847C318.585 369.602 318.299 369.265 318.114 368.873C317.82 368.246 317.501 367.645 317.158 367.056C316.943 366.682 316.829 366.259 316.829 365.828C316.829 365.397 316.943 364.974 317.158 364.6L317.721 363.643C317.995 363.164 318.105 362.608 318.035 362.06C317.964 361.513 317.716 361.004 317.329 360.61L316.545 359.825C316.155 359.427 315.642 359.174 315.09 359.107C314.537 359.04 313.979 359.163 313.505 359.456L312.537 360.033C312.165 360.249 311.742 360.362 311.312 360.362C310.881 360.362 310.459 360.249 310.086 360.033C308.523 359.13 306.845 358.445 305.098 357.996C304.67 357.884 304.279 357.659 303.969 357.343C303.658 357.028 303.438 356.634 303.333 356.203L303.051 355.061C302.922 354.512 302.607 354.024 302.161 353.68C301.715 353.336 301.163 353.156 300.6 353.171H299.497C298.935 353.155 298.385 353.333 297.939 353.675C297.493 354.017 297.178 354.502 297.046 355.049L296.739 356.277C296.633 356.698 296.418 357.084 296.114 357.395C295.81 357.705 295.43 357.93 295.011 358.045C294.399 358.216 293.786 358.401 293.21 358.622C292.798 358.772 292.353 358.81 291.922 358.73C291.491 358.65 291.089 358.456 290.759 358.167L289.778 357.32C289.367 356.959 288.847 356.745 288.3 356.714C287.754 356.683 287.213 356.836 286.763 357.148L285.893 357.738C285.424 358.05 285.076 358.515 284.909 359.053C284.741 359.592 284.764 360.172 284.974 360.696L285.415 361.85C285.575 362.256 285.625 362.698 285.558 363.13C285.491 363.561 285.311 363.967 285.035 364.306C284.643 364.774 284.275 365.261 283.932 365.767C283.682 366.132 283.339 366.423 282.938 366.609C282.536 366.795 282.092 366.869 281.652 366.822L280.427 366.712C279.875 366.65 279.318 366.778 278.849 367.075C278.379 367.372 278.024 367.819 277.841 368.345L277.449 369.425C277.259 369.935 277.243 370.495 277.405 371.015C277.567 371.535 277.897 371.986 278.343 372.298L279.471 373.096C279.826 373.345 280.108 373.685 280.288 374.08C280.469 374.474 280.542 374.91 280.5 375.342C280.431 375.982 280.398 376.626 280.402 377.27C280.39 377.693 280.271 378.106 280.057 378.471C279.842 378.835 279.54 379.14 279.177 379.357L278.025 379.995C277.527 380.256 277.134 380.679 276.911 381.196C276.688 381.712 276.648 382.289 276.799 382.831L277.081 383.899C277.22 384.439 277.538 384.916 277.984 385.251C278.43 385.585 278.976 385.758 279.532 385.74H280.758C281.192 385.737 281.619 385.848 281.996 386.064C282.373 386.28 282.686 386.592 282.903 386.968C283.233 387.557 283.589 388.122 283.969 388.675C284.213 389.031 284.358 389.446 284.39 389.877C284.422 390.309 284.341 390.741 284.153 391.13L283.65 392.173C283.403 392.672 283.333 393.241 283.451 393.785C283.569 394.329 283.868 394.817 284.3 395.169L285.145 395.881C285.567 396.242 286.098 396.45 286.652 396.47C287.206 396.49 287.751 396.321 288.197 395.991L289.067 395.378C289.419 395.126 289.831 394.971 290.261 394.93C290.692 394.889 291.126 394.963 291.518 395.144C292.139 395.439 292.777 395.709 293.43 395.955C293.832 396.105 294.188 396.36 294.461 396.691C294.734 397.023 294.915 397.421 294.987 397.845L295.171 398.913C295.261 399.46 295.532 399.959 295.942 400.332C296.351 400.704 296.874 400.926 297.426 400.963L298.553 401.062C299.102 401.113 299.653 400.977 300.115 400.676C300.578 400.376 300.926 399.927 301.103 399.404L301.446 398.447C301.59 398.033 301.843 397.666 302.177 397.383C302.511 397.1 302.914 396.912 303.345 396.838C304.039 396.729 304.727 396.581 305.404 396.396C305.823 396.285 306.263 396.286 306.681 396.401C307.098 396.515 307.478 396.738 307.782 397.047L308.505 397.784C308.888 398.179 309.392 398.433 309.936 398.507C310.481 398.58 311.034 398.468 311.508 398.189L312.476 397.636C312.974 397.376 313.367 396.952 313.59 396.436C313.813 395.92 313.853 395.342 313.702 394.801L313.432 393.843C313.303 393.415 313.294 392.961 313.404 392.528C313.514 392.096 313.74 391.701 314.057 391.388C314.559 390.884 315.05 390.356 315.503 389.804C315.784 389.469 316.149 389.214 316.56 389.067C316.972 388.921 317.415 388.887 317.844 388.969L318.825 389.153C319.367 389.261 319.931 389.181 320.422 388.926C320.914 388.672 321.306 388.259 321.533 387.754L321.999 386.747C322.24 386.243 322.303 385.671 322.176 385.126C322.049 384.582 321.74 384.097 321.3 383.752L320.565 383.15C320.227 382.883 319.965 382.531 319.806 382.13C319.646 381.729 319.595 381.294 319.658 380.867C319.778 380.135 319.856 379.397 319.891 378.657C319.931 378.219 320.087 377.801 320.344 377.444C320.6 377.088 320.947 376.807 321.349 376.631ZM306.642 377.27C306.642 378.552 306.263 379.805 305.552 380.871C304.841 381.937 303.83 382.768 302.647 383.258C301.465 383.749 300.164 383.877 298.909 383.627C297.653 383.377 296.5 382.76 295.595 381.853C294.69 380.947 294.074 379.792 293.824 378.534C293.575 377.277 293.703 375.974 294.193 374.789C294.682 373.605 295.512 372.592 296.576 371.88C297.64 371.168 298.891 370.788 300.171 370.788C301.018 370.786 301.856 370.951 302.639 371.275C303.422 371.598 304.133 372.072 304.733 372.67C305.333 373.269 305.809 373.98 306.134 374.763C306.46 375.545 306.628 376.385 306.63 377.233L306.642 377.27Z" fill="white"/>
<path d="M241.135 416.825C240.163 417.9 239.096 418.887 237.948 419.771C234.839 422.79 232.512 426.524 231.171 430.648C230.508 432.548 230.508 434.616 231.171 436.516C232.617 440.04 237.176 443.698 240.84 441.427" stroke="#263238" stroke-linecap="round" stroke-linejoin="round"/>
<path d="M240.827 410.551C237.347 409.999 233.927 412.025 231.537 414.627C229.148 417.23 227.505 420.397 225.336 423.221" stroke="#263238" stroke-linecap="round" stroke-linejoin="round"/>
<path d="M240.607 446.387C235.964 447.296 231.155 446.783 226.807 444.913C224.053 443.428 221.485 441.619 219.159 439.524L210.114 432.035C208.656 430.808 207.051 429.113 207.663 427.321C207.663 427.321 222.775 347.524 225.152 338.93C227.898 328.962 238.965 322.185 238.965 322.185" stroke="#263238" stroke-linecap="round" stroke-linejoin="round"/>
<path d="M354.024 417.721C357.91 420.657 360.884 424.637 362.603 429.199C363.944 433.441 364.848 437.81 365.299 442.237C362.958 443.551 358.13 446.951 354.012 446.951" stroke="#263238" stroke-linecap="round" stroke-linejoin="round"/>
<path d="M354.586 411.006C358.263 410.036 361.939 412.528 364.66 415.13C367.381 417.733 370.298 420.753 374.061 421.158" stroke="#263238" stroke-linecap="round" stroke-linejoin="round"/>
<path d="M355.236 452.524C362.332 451.763 368.816 447.872 373.951 442.9C379.086 437.928 383.045 431.851 386.967 425.909C390.141 421.072 393.377 416.088 394.762 410.477C394.762 410.477 382.224 368.97 375.262 349.696C368.007 329.612 360.163 324.493 360.163 324.493" stroke="#263238" stroke-linecap="round" stroke-linejoin="round"/>
<path d="M354.586 411.005C361.057 405.555 370.972 409.974 377.872 413.608" stroke="#263238" stroke-linecap="round" stroke-linejoin="round"/>
<path d="M354.024 388.822H241.135V453.814H354.024V388.822Z" fill="white"/>
<path d="M354.526 453.813H240.559V457.214H354.526V453.813Z" fill="#263238"/>
<path d="M240.559 453.814L354.023 388.822L354.526 453.814H240.559Z" fill="#263238"/>
<path opacity="0.9" d="M240.559 453.814L354.023 388.822L354.526 453.814H240.559Z" fill="white"/>
<path d="M305.893 427.086C309.65 423.323 309.65 417.221 305.893 413.458C302.136 409.694 296.045 409.694 292.287 413.458C288.53 417.221 288.53 423.323 292.287 427.086C296.045 430.85 302.136 430.85 305.893 427.086Z" fill="#004999"/>
<path d="M354.024 388.822H241.135V453.814H354.024V388.822Z" stroke="#263238" stroke-linecap="round" stroke-linejoin="round"/>
</g>
<defs>
<clipPath id="clip0_749_560">
<rect width="465" height="458" fill="white"/>
</clipPath>
</defs>
</svg>
