<svg width="76" height="66" viewBox="0 0 76 66" fill="none" xmlns="http://www.w3.org/2000/svg">
<path d="M0 2.37223C0.000487951 3.0027 0.250852 3.60721 0.696118 4.05302C1.14138 4.49883 1.74513 4.74951 2.37483 4.74999H9.37596L17.7367 50.4975C16.3711 51.1691 15.22 52.2095 14.4133 53.5011C13.6066 54.7928 13.1765 56.2845 13.1713 57.8079C13.1738 59.9795 14.0363 62.0615 15.5698 63.5972C17.1033 65.133 19.1826 65.9971 21.3516 66C23.5205 65.9971 25.5998 65.133 27.1333 63.5972C28.6668 62.0615 29.5294 59.9795 29.5318 57.8079C29.5263 56.6197 29.2602 55.4471 28.7525 54.3731H50.6254C50.1177 55.4471 49.8517 56.6197 49.8461 57.8079C49.8486 59.9795 50.7111 62.0615 52.2447 63.5972C53.7782 65.133 55.8574 65.9971 58.0264 66C60.1954 65.9971 62.2746 65.133 63.8081 63.5972C65.3417 62.0615 66.2042 59.9795 66.2066 57.8079C66.2042 55.6364 65.3416 53.5546 63.808 52.0192C62.2744 50.4837 60.1952 49.62 58.0264 49.6176H22.4054L21.499 44.6573H63.8318C68.1228 44.6573 70.9748 41.1967 71.9015 37.7675L75.9548 15.6556C75.9734 15.5618 75.9863 15.4669 75.9935 15.3715C76.0396 14.7492 75.8396 14.1337 75.4368 13.6575C75.0339 13.1814 74.4604 12.8827 73.8397 12.8259C73.6183 12.7939 73.3946 12.7803 73.1709 12.7853L15.0561 9.38562L13.6945 1.94243C13.668 1.86042 13.636 1.7803 13.5987 1.70262C13.5532 1.5495 13.4914 1.4017 13.4145 1.26174C13.3424 1.13047 13.2573 1.00686 13.1603 0.892808C13.0689 0.779548 12.9671 0.67518 12.8562 0.581072C12.7351 0.479002 12.6036 0.389957 12.4638 0.315429C12.3425 0.248878 12.2155 0.193313 12.0843 0.149406C11.9234 0.0969003 11.7572 0.0628767 11.5887 0.0479629C11.5076 0.0479629 11.4339 0 11.3492 0H2.37483C1.74609 0.000484971 1.14316 0.250396 0.698052 0.695012C0.252944 1.13963 0.00194941 1.74271 0 2.37223ZM17.8326 24.604L28.4448 24.9232L28.9975 30.7633L18.9325 30.6047L17.8326 24.604ZM68.2499 31.3795L58.4852 31.2264L59.1429 25.8455L69.1987 26.1462L68.2499 31.3795ZM55.3089 31.1766L44.9195 31.0124V25.4175L55.9739 25.7496L55.3089 31.1766ZM44.9195 15.8973L57.0904 16.6111L56.3535 22.5878L44.9195 22.2484V15.8973ZM41.7525 22.1488L31.3355 21.8371L30.6999 15.0653L41.7543 15.7128L41.7525 22.1488ZM54.9219 34.342L54.2421 39.9036H44.9195V34.1852L54.9219 34.342ZM41.7525 39.9036H33.0324L32.4796 33.9878L41.7561 34.1335L41.7525 39.9036ZM32.172 30.8132L31.6193 25.0191L41.7377 25.3235V30.9626L32.172 30.8132ZM15.9239 14.2002L27.496 14.879L28.139 21.7411L17.243 21.4146L15.9239 14.2002ZM70.8439 17.4154C70.551 18.8173 70.2084 20.6417 69.7754 22.99L59.5279 22.6838L60.2483 16.7956L70.8439 17.4154ZM63.8244 39.9036H57.4239L58.0964 34.3918L67.664 34.5412L67.266 36.7216C67.0007 37.6974 65.8677 39.9036 63.8318 39.9036H63.8244ZM20.622 39.9036L19.5092 33.7849L29.2886 33.938L29.8414 39.9036H20.622ZM58.0227 54.375C58.9323 54.3759 59.8042 54.7381 60.4474 55.3821C61.0905 56.026 61.4523 56.8991 61.4532 57.8097C61.4523 58.7206 61.0906 59.5938 60.4475 60.238C59.8044 60.8823 58.9324 61.2449 58.0227 61.2463C57.113 61.2449 56.241 60.8823 55.5979 60.238C54.9548 59.5938 54.5931 58.7206 54.5921 57.8097C54.5931 56.8984 54.9554 56.0248 55.5993 55.3808C56.2432 54.7367 57.1162 54.375 58.0264 54.375H58.0227ZM17.9173 57.8097C17.9183 56.8984 18.2806 56.0248 18.9245 55.3808C19.5684 54.7367 20.4414 54.375 21.3516 54.375C22.2611 54.3759 23.1331 54.7381 23.7762 55.3821C24.4194 56.026 24.7812 56.8991 24.7821 57.8097C24.7812 58.7206 24.4195 59.5938 23.7764 60.238C23.1333 60.8823 22.2613 61.2449 21.3516 61.2463C20.4419 61.2449 19.5698 60.8823 18.9268 60.238C18.2837 59.5938 17.922 58.7206 17.921 57.8097H17.9173Z" fill="#E33C5C"/>
</svg>
