<svg width="71" height="75" viewBox="0 0 71 75" fill="none" xmlns="http://www.w3.org/2000/svg">
<g clip-path="url(#clip0_775_476)">
<path d="M70.9685 37.6882C70.9685 43.0475 70.9049 48.4068 71.0009 53.7636C71.0373 55.8241 70.2961 57.1184 68.4257 58.1022C58.2869 63.434 48.1792 68.8217 38.1027 74.2655C36.2946 75.2429 34.7954 75.2722 32.9536 74.2655C22.8944 68.7903 12.7945 63.389 2.65394 58.0615C0.688818 57.0293 -0.0133404 55.6917 0.00223517 53.5562C0.0783825 42.84 0.0783825 32.1239 0.00223517 21.4078C-0.0146384 19.2595 0.723861 17.9512 2.68379 16.9229C12.8944 11.5691 23.0653 6.14651 33.1964 0.655253C34.7864 -0.201271 36.1713 -0.229268 37.7639 0.629802C48.0386 6.16688 58.3328 11.6704 68.6464 17.1405C70.3428 18.0416 71.0217 19.2875 70.9957 21.1737C70.9179 26.6755 70.9685 32.1799 70.9685 37.6882ZM9.28136 27.0879V47.6292H13.4063V32.9792C15.9906 37.6347 18.4177 41.8881 20.7164 46.2152C21.3654 47.4268 22.1299 47.9194 23.4837 47.7921C24.4857 47.6967 25.5033 47.773 26.5469 47.773V27.2152H22.3934V40.7057C20.1259 36.6509 17.8246 32.6228 15.6233 28.5438C15.0249 27.4341 14.3253 26.939 13.0273 27.0573C11.8708 27.1655 10.6935 27.0815 9.28136 27.0815V27.0879ZM43.5814 30.9429V27.1948H30.8367C30.7978 28.0131 30.7367 28.722 30.7354 29.4258C30.7276 34.2035 30.7627 38.9825 30.725 43.7602C30.6913 48.0619 30.6589 48.0632 34.9954 47.6903C35.1252 47.6801 35.2549 47.5554 35.6028 47.3568V39.5972L43.0012 39.2765V35.5742H35.7105V30.9429H43.5814ZM56.2262 47.6521V30.9263H61.7477V27.1872H45.7607V31.088H51.4393V47.6508L56.2262 47.6521Z" fill="#E33B5C"/>
</g>
<defs>
<clipPath id="clip0_775_476">
<rect width="71" height="75" fill="white"/>
</clipPath>
</defs>
</svg>
