<svg width="78" height="86" viewBox="0 0 78 86" fill="none" xmlns="http://www.w3.org/2000/svg">
<g clip-path="url(#clip0_696_103)">
<path d="M47.55 54.5893C42.9426 54.5893 38.3327 54.5893 33.7202 54.5893C32.4112 54.5893 32.1914 54.361 32.1857 53.0368C32.1781 50.6206 32.1781 50.6206 29.7854 50.6206C26.7883 50.6206 23.7893 50.6206 20.7903 50.6206C19.8791 50.6206 19.415 50.1317 19.6215 49.4467C19.828 48.7618 20.4114 48.7162 21.0006 48.7162H29.8062C32.1952 48.7162 32.1952 48.7162 32.1952 46.2904C32.1952 45.6569 32.163 45.0196 32.1952 44.3879C32.2331 43.7886 31.9773 43.6269 31.4222 43.6269C30.475 43.6554 29.5277 43.6402 28.5805 43.6269C27.9515 43.6174 27.423 43.4176 27.4192 42.6756C27.4154 41.9337 27.925 41.7244 28.5559 41.7092C29.5031 41.6977 30.4504 41.6711 31.3976 41.7092C32.036 41.7377 32.2103 41.4828 32.1914 40.8797C32.1535 39.7381 32.1459 38.5966 32.1914 37.4551C32.2198 36.7816 31.983 36.5895 31.3294 36.5971C28.7737 36.6275 26.2143 36.6123 23.6605 36.5971C23.3146 36.6059 22.9689 36.5753 22.6299 36.5057C22.4414 36.4644 22.2733 36.358 22.1549 36.2051C22.0365 36.0521 21.9753 35.8623 21.982 35.6686C21.9604 35.4597 22.0172 35.2501 22.1412 35.0809C22.2652 34.9117 22.4476 34.795 22.6526 34.7535C22.9926 34.6865 23.3389 34.6584 23.6851 34.6698C26.2105 34.6698 28.7358 34.647 31.2631 34.6793C31.9319 34.6793 32.2406 34.5442 32.199 33.7908C32.1364 32.6832 32.1364 31.5729 32.199 30.4652C32.2425 29.7137 31.947 29.5748 31.2726 29.5805C27.9269 29.611 24.5812 29.5977 21.2318 29.5901C20.8866 29.599 20.5416 29.5645 20.2049 29.4873C20.0006 29.4407 19.8214 29.3179 19.7036 29.1439C19.5859 28.9698 19.5382 28.7573 19.5703 28.5494C19.571 28.3392 19.6502 28.137 19.7923 27.9827C19.9344 27.8284 20.129 27.7332 20.3375 27.7161C20.6201 27.6878 20.9043 27.6776 21.1882 27.6856C24.5339 27.6856 27.8795 27.6666 31.229 27.6989C31.9451 27.6989 32.288 27.5486 32.1971 26.761C32.1592 26.2234 32.1553 25.6839 32.1857 25.1457C32.199 23.97 32.449 23.7246 33.6596 23.7227C36.908 23.7227 40.1583 23.7227 43.4106 23.7227H61.4082C62.7344 23.7227 62.9352 23.9129 62.9352 25.2751C62.9352 34.5341 62.9352 43.7931 62.9352 53.052C62.9352 54.3838 62.7306 54.5741 61.376 54.5741C56.7674 54.5867 52.1587 54.5918 47.55 54.5893ZM51.8922 25.6708H43.2079C42.5649 25.5653 41.909 25.5653 41.266 25.6708C39.2143 25.6708 37.1644 25.6956 35.1165 25.6252C34.2772 25.5947 34.067 25.8383 34.0707 26.6773C34.1036 35.0091 34.1036 43.3403 34.0707 51.6708C34.0707 52.4318 34.2318 52.6944 35.0464 52.6925C43.372 52.662 51.6996 52.662 60.029 52.6925C60.819 52.6925 61.035 52.4756 61.0293 51.686C60.9952 46.8403 61.0123 41.9926 61.0123 37.1469C61.0123 33.5987 60.9971 30.0505 61.0236 26.5023C61.0236 25.8573 60.8588 25.6176 60.1806 25.6328C58.0682 25.6823 55.954 25.6689 53.8416 25.6804C53.1962 25.5749 52.5381 25.5736 51.8922 25.6766V25.6708Z" fill="#E43C5C"/>
<path d="M39.1796 86.0076C36.6269 86.0073 34.1316 85.247 32.0091 83.8229C29.8866 82.3988 28.232 80.3749 27.2546 78.0067C26.2771 75.6386 26.0206 73.0327 26.5174 70.5182C27.0143 68.0038 28.2422 65.6937 30.046 63.8798C31.8498 62.0659 34.1486 60.8298 36.6518 60.3275C39.1549 59.8252 41.7502 60.0794 44.1096 61.0579C46.469 62.0363 48.4866 63.6952 49.9075 65.8249C51.3283 67.9546 52.0887 70.4594 52.0924 73.0229C52.0987 74.7284 51.7691 76.4183 51.1226 77.9954C50.4761 79.5725 49.5254 81.0057 48.3253 82.2124C47.1252 83.4192 45.6994 84.3758 44.1298 85.0271C42.5602 85.6784 40.8779 86.0117 39.1796 86.0076ZM39.1511 84.1051C41.3301 84.1123 43.4621 83.47 45.2774 82.2597C47.0927 81.0494 48.5096 79.3254 49.3487 77.306C50.1878 75.2866 50.4114 73.0626 49.9913 70.9154C49.5711 68.7683 48.526 66.7947 46.9884 65.2444C45.4507 63.694 43.4895 62.6367 41.3532 62.2062C39.2168 61.7758 37.0013 61.9916 34.9871 62.8262C32.9729 63.6609 31.2506 65.077 30.0383 66.8951C28.8259 68.7133 28.1779 70.8518 28.1764 73.04C28.1741 74.4894 28.4562 75.9251 29.0066 77.265C29.557 78.6049 30.3648 79.8228 31.384 80.8491C32.4031 81.8754 33.6136 82.69 34.9464 83.2464C36.2791 83.8028 37.7079 84.09 39.1511 84.0918V84.1051Z" fill="#004999"/>
<path d="M6.15491 61.8018C6.15491 64.9714 6.16819 68.141 6.12083 71.3144C6.10946 72.0754 6.39173 72.1934 7.05669 72.1896C12.2647 72.1667 17.4764 72.1762 22.6806 72.1781C23.4005 72.1781 24.2284 72.0526 24.3591 73.0895C24.4462 73.7782 23.8855 74.0864 22.6541 74.0864H5.89345C4.4328 74.0864 4.23577 73.8961 4.23387 72.4578C4.2263 68.9064 4.22128 65.355 4.21875 61.8037L6.15491 61.8018Z" fill="#004999"/>
<path d="M73.775 61.7998C73.775 65.3766 73.7705 68.9539 73.7617 72.532C73.7617 73.8504 73.5325 74.0768 72.212 74.0787C66.6649 74.0787 61.1166 74.0787 55.567 74.0787C55.2531 74.0851 54.9395 74.0538 54.633 73.9855C54.4455 73.9405 54.28 73.8301 54.1658 73.6741C54.0517 73.518 53.9964 73.3263 54.0098 73.1332C54.0098 72.6918 54.2219 72.3246 54.6956 72.2371C55.0379 72.1862 55.384 72.1658 55.7299 72.1762C60.7731 72.1762 65.8162 72.1591 70.8613 72.1895C71.6191 72.1895 71.8937 72.024 71.8805 71.2059C71.8274 68.0724 71.8502 64.9371 71.8445 61.8036L73.775 61.7998Z" fill="#004999"/>
<path d="M34.0739 4.24261C34.8942 0.378572 39.3785 -1.32229 42.4855 1.21759C43.4535 2.00714 43.9821 3.06304 44.3041 4.24451C44.3041 4.88566 44.3041 5.52872 44.3041 6.16987C43.7509 8.25314 42.5215 9.68384 40.3996 10.2603C37.9955 10.911 34.8374 9.53544 34.0645 6.17558L34.0739 4.24261ZM35.9684 5.20339C35.9588 5.63082 36.0338 6.05592 36.1889 6.45409C36.3439 6.85226 36.5761 7.2156 36.8719 7.52309C37.1677 7.83058 37.5213 8.07613 37.9122 8.24553C38.3031 8.41492 38.7235 8.50481 39.1492 8.50998C40.9642 8.53281 42.4116 7.05074 42.404 5.17485C42.4073 4.74691 42.3259 4.32258 42.1647 3.92645C42.0035 3.53031 41.7656 3.17024 41.4648 2.86711C41.164 2.56398 40.8063 2.3238 40.4124 2.16051C40.0185 1.99721 39.5962 1.91404 39.1701 1.91582C38.7444 1.91852 38.3235 2.00595 37.9316 2.17305C37.5398 2.34014 37.1849 2.58359 36.8873 2.88931C36.5898 3.19502 36.3555 3.55695 36.1981 3.95415C36.0407 4.35135 35.9633 4.77595 35.9703 5.20339H35.9684Z" fill="#E43C5C"/>
<path d="M73.7752 61.7998H71.8428C69.2455 61.0921 67.6636 59.2067 67.6219 56.7676C67.5821 54.4104 69.0447 52.4946 71.5132 51.6708C71.6325 51.6308 71.7424 51.5699 71.858 51.5186H73.7525C75.7284 52.0893 77.1834 53.2308 77.7707 55.2684C78.6251 58.2059 76.9276 60.9399 73.7752 61.7998ZM72.773 59.9087C74.6353 59.9087 76.0562 58.5579 76.0903 56.7505C76.0809 55.8884 75.7358 55.0643 75.1287 54.4547C74.5216 53.8451 73.7008 53.4986 72.8424 53.4894C71.9839 53.4802 71.156 53.809 70.5361 54.4054C69.9161 55.0019 69.5535 55.8184 69.5259 56.6801C69.5233 57.1076 69.6057 57.5312 69.7684 57.9262C69.9311 58.3212 70.1707 58.6796 70.4732 58.9803C70.7757 59.2811 71.1349 59.5181 71.5298 59.6775C71.9248 59.837 72.3474 59.9156 72.773 59.9087Z" fill="#E43C5C"/>
<path d="M73.7776 25.8534C76.3275 26.5288 77.8981 28.3666 77.989 30.7809C78.0781 33.161 76.5871 35.1568 74.1091 35.9767C73.9916 36.0148 73.8799 36.0738 73.7643 36.1232H71.8698C69.9071 35.5411 68.4351 34.411 67.844 32.3676C66.9953 29.4359 68.7117 26.6734 71.8547 25.8439C72.4901 25.7208 73.1434 25.724 73.7776 25.8534ZM72.7905 27.7426C70.9472 27.7426 69.5225 29.1391 69.5206 30.9446C69.5246 31.8094 69.8676 32.6379 70.4753 33.2507C71.083 33.8635 71.9066 34.2113 72.7678 34.2188C73.2022 34.2241 73.6333 34.1426 74.036 33.9791C74.4388 33.8156 74.8051 33.5733 75.1138 33.2664C75.4225 32.9594 75.6673 32.5939 75.834 32.191C76.0008 31.7882 76.0861 31.3561 76.085 30.9198C76.0642 29.0991 74.6566 27.7426 72.7905 27.7426Z" fill="#E43C5C"/>
<path d="M6.15565 25.8518C8.70374 26.5272 10.2724 28.3612 10.3728 30.785C10.4618 33.1575 8.98034 35.1399 6.4834 35.9713C6.36577 36.0164 6.25066 36.0678 6.13859 36.1254H4.2441C2.27951 35.5547 0.809388 34.4131 0.22399 32.3736C-0.619058 29.438 1.0898 26.6889 4.23087 25.8537C4.86635 25.7285 5.51993 25.7278 6.15565 25.8518ZM5.22922 27.7429C3.31768 27.7429 1.88738 29.1393 1.91012 30.9867C1.92456 31.8515 2.27756 32.6758 2.89274 33.2811C3.50793 33.8865 4.33576 34.2241 5.19703 34.221C6.05892 34.221 6.88612 33.88 7.49928 33.2717C8.11244 32.6634 8.46214 31.8369 8.47261 30.9715C8.47648 30.544 8.39501 30.1201 8.23303 29.7247C8.07104 29.3294 7.83181 28.9707 7.52948 28.6697C7.22715 28.3687 6.86784 28.1317 6.47276 27.9725C6.07768 27.8133 5.65484 27.7352 5.22922 27.7429Z" fill="#E43C5C"/>
<path d="M6.15544 61.8015H4.22307C1.65793 61.1014 0.10066 59.2769 0.0116186 56.8702C-0.0774225 54.4635 1.40027 52.5115 3.97867 51.6458C4.06771 51.6154 4.15105 51.5678 4.2363 51.5298H6.14027C8.14843 52.112 9.62426 53.2839 10.1869 55.3748C10.9694 58.2857 9.28135 60.9473 6.15544 61.8015ZM5.21768 59.899C5.6431 59.9069 6.0658 59.8293 6.46098 59.671C6.85617 59.5126 7.2159 59.2766 7.51905 58.9767C7.8222 58.6769 8.06267 58.3193 8.22639 57.9249C8.3901 57.5305 8.47373 57.1072 8.4724 56.6799C8.47768 55.806 8.13701 54.9657 7.52539 54.344C7.22254 54.0362 6.86229 53.7913 6.46519 53.6232C6.06809 53.4552 5.64192 53.3674 5.21102 53.3648C4.34077 53.3595 3.50408 53.7016 2.88499 54.3158C2.26591 54.93 1.91518 55.766 1.9099 56.64C1.88149 58.4892 3.32129 59.9085 5.21768 59.9066V59.899Z" fill="#E43C5C"/>
<path d="M4.24758 10.4772C4.00319 10.1918 3.63188 10.1766 3.3155 10.051C1.16336 9.19488 -0.231 6.92707 0.0304398 4.6935C0.160477 3.5006 0.691911 2.38795 1.53687 1.5394C2.38184 0.690848 3.48977 0.157189 4.67763 0.0265999C6.90366 -0.235949 9.15809 1.16811 10.0125 3.32368C10.1375 3.6414 10.1527 4.0124 10.4388 4.25782C10.3384 4.88287 10.3288 5.51923 10.4104 6.14703C9.94621 7.16108 9.57301 8.21698 8.72049 9.01795C7.9627 9.72759 7.01542 9.99775 6.1288 10.4506C5.50368 10.369 4.87016 10.378 4.24758 10.4772ZM8.42873 5.34036C8.47231 3.45686 7.07416 1.95957 5.24029 1.92532C4.37844 1.92325 3.54947 2.25735 2.92814 2.85717C2.30682 3.457 1.94172 4.27567 1.90981 5.14059C1.89398 6.00643 2.21895 6.84358 2.81418 7.47018C3.4094 8.09678 4.22675 8.46223 5.08872 8.48714C5.51511 8.50627 5.941 8.43948 6.34128 8.29072C6.74156 8.14196 7.10815 7.91424 7.41942 7.62097C7.73069 7.32771 7.98038 6.97483 8.15372 6.58315C8.32706 6.19147 8.42056 5.7689 8.42873 5.34036Z" fill="#E43C5C"/>
<path d="M71.8697 10.4542C70.9906 10.0071 70.0339 9.72933 69.2799 9.02159C68.4255 8.22062 68.0523 7.16853 67.59 6.15258C67.6684 5.52465 67.6594 4.88883 67.5635 4.26336C67.8495 4.01794 67.8609 3.64504 67.9859 3.32732C68.8423 1.16415 71.0967 -0.230406 73.3228 0.0321431C74.5104 0.162802 75.6181 0.696532 76.4627 1.54511C77.3074 2.39369 77.8384 3.5063 77.9681 4.69905C78.2314 6.92691 76.8313 9.19852 74.683 10.0566C74.3666 10.1821 73.9972 10.1974 73.7528 10.4846C73.1299 10.3832 72.4955 10.373 71.8697 10.4542ZM72.7904 8.47556C73.653 8.48624 74.4846 8.15296 75.1029 7.5488C75.7212 6.94465 76.0757 6.11892 76.0887 5.25268C76.0862 4.37071 75.7372 3.52538 75.1174 2.90049C74.4976 2.27559 73.6572 1.92166 72.779 1.91565C71.9169 1.92618 71.0941 2.27919 70.4905 2.89744C69.887 3.51569 69.5518 4.34885 69.5584 5.21463C69.552 5.64334 69.6312 6.06898 69.7912 6.4665C69.9512 6.86401 70.1888 7.22535 70.4899 7.52923C70.7911 7.83312 71.1498 8.0734 71.5449 8.23592C71.94 8.39845 72.3635 8.47993 72.7904 8.47556Z" fill="#E43C5C"/>
<path d="M10.4102 6.15282C10.3287 5.52501 10.3383 4.88865 10.4386 4.2636L34.0743 4.24268V6.17565L10.4102 6.15282Z" fill="#004999"/>
<path d="M67.5635 4.26365C67.6594 4.88911 67.6684 5.52493 67.59 6.15286L44.3086 6.16999C44.3086 5.52883 44.3086 4.88578 44.3086 4.24463L67.5635 4.26365Z" fill="#004999"/>
<path d="M6.1403 51.5203H4.23633V36.1099H6.13082C6.13587 41.253 6.13904 46.3899 6.1403 51.5203Z" fill="#004999"/>
<path d="M71.8604 36.1309H73.7548V51.5413H71.8604V36.1309Z" fill="#004999"/>
<path d="M4.24726 10.4773C4.86984 10.3781 5.50336 10.3691 6.12848 10.4506C6.13732 15.5824 6.14619 20.7141 6.15503 25.8459C5.51697 25.7203 4.86072 25.7203 4.22266 25.8459C4.23023 20.7268 4.23842 15.6039 4.24726 10.4773Z" fill="#004999"/>
<path d="M71.8693 10.4545C72.4952 10.3733 73.1295 10.3835 73.7525 10.485C73.7601 15.6066 73.7683 20.7294 73.7771 25.8536C73.1392 25.7261 72.4826 25.7261 71.8447 25.8536C71.8523 20.7193 71.8605 15.5863 71.8693 10.4545Z" fill="#004999"/>
<path d="M19.5857 41.7109H23.8332C24.4868 41.7109 25.1006 41.8631 25.1271 42.6318C25.1555 43.4689 24.5228 43.6439 23.8294 43.6439H15.3364C14.6676 43.6439 14.086 43.4384 14.0879 42.6755C14.0898 41.9126 14.6695 41.7109 15.3402 41.7109H19.5857Z" fill="#E43C5C"/>
<path d="M16.869 36.6124C16.2703 36.6124 15.6717 36.6314 15.073 36.6124C14.4744 36.5933 14.0917 36.2699 14.0841 35.6763C14.0765 35.0827 14.463 34.7251 15.0446 34.7251C16.2735 34.6984 17.503 34.6984 18.7331 34.7251C19.3015 34.7384 19.7088 35.0314 19.7107 35.6573C19.7107 36.3365 19.275 36.6086 18.6669 36.6276C18.0587 36.6466 17.4695 36.6276 16.869 36.6276V36.6124Z" fill="#E43C5C"/>
<path d="M43.2077 25.6823C43.2077 28.7549 43.2209 31.8274 43.1925 34.8981C43.1925 35.4898 43.3043 35.7238 43.9598 35.7124C46.3544 35.6725 48.7529 35.6686 51.1475 35.7124C51.8219 35.7238 51.9053 35.4632 51.9053 34.8886C51.8826 31.8179 51.892 28.7453 51.892 25.6747C52.5389 25.57 53.1983 25.57 53.8452 25.6747C53.8452 29.0903 53.8452 32.506 53.8452 35.9217C53.8452 37.4818 53.6899 37.634 52.0966 37.634C49.0756 37.634 46.0526 37.634 43.0277 37.634C41.4666 37.634 41.2734 37.4437 41.2715 35.9217C41.2715 32.5047 41.2715 29.0891 41.2715 25.6747C41.9131 25.5722 42.5669 25.5748 43.2077 25.6823Z" fill="#004999"/>
<path d="M45.9985 69.6308C46.0212 70.1197 45.7806 70.3728 45.5324 70.622C43.2388 72.9279 40.9439 75.235 38.6478 77.5434C38.0454 78.1522 37.4732 78.1941 36.8556 77.5662C35.5257 76.2154 34.1882 74.8722 32.8431 73.5367C32.3675 73.0591 32.1023 72.5264 32.665 71.9747C33.2277 71.423 33.7524 71.7369 34.2185 72.2068C35.196 73.1942 36.2058 74.1512 37.1511 75.1709C37.5944 75.6504 37.8559 75.6751 38.3296 75.1862C40.2392 73.2094 42.1905 71.2727 44.1362 69.3302C44.7784 68.689 45.4376 68.6472 45.8203 69.2027C45.898 69.337 45.9579 69.4809 45.9985 69.6308Z" fill="#E43C5C"/>
</g>
<defs>
<clipPath id="clip0_696_103">
<rect width="78" height="86" fill="white"/>
</clipPath>
</defs>
</svg>
