<svg width="67" height="67" viewBox="0 0 67 67" fill="none" xmlns="http://www.w3.org/2000/svg">
<path d="M0.872635 33.9076C0.872635 24.6434 0.872635 15.3792 0.872635 6.11509C0.872635 5.36453 0.909365 4.61941 1.16363 3.90556C1.79046 2.13794 3.30249 0.998515 5.21288 0.891098C5.50658 0.874782 5.80164 0.882932 6.0967 0.882932C22.9476 0.882932 39.7998 0.919644 56.6507 0.848939C59.9752 0.835342 61.7754 3.0476 61.77 5.94378C61.7509 16.1588 61.7473 26.3739 61.7591 36.5889C61.7591 36.8065 61.8651 37.1328 61.6544 37.2185C61.3729 37.3381 61.2641 36.9805 61.1105 36.8106C59.6026 35.255 57.9628 33.8722 55.9899 32.9408C55.5099 32.7151 55.5044 32.3534 55.5044 31.936C55.5044 27.6756 55.5044 23.4174 55.5044 19.1615C55.5044 15.5148 55.5044 11.868 55.5044 8.2213C55.5044 7.32389 55.4678 7.28582 54.5935 7.28582H8.38231C7.5053 7.28582 7.46321 7.32388 7.46185 8.20633C7.46185 25.2843 7.46185 42.3622 7.46185 59.4402C7.46185 60.3607 7.49171 60.392 8.42719 60.392H34.9293C36.0688 60.392 36.0783 60.392 36.3149 61.4689C36.6779 63.1304 37.6379 64.4793 38.5638 65.8512C38.7705 66.1544 39.226 66.4685 39.0152 66.8302C38.8453 67.1212 38.3354 66.9499 37.9873 66.9499C27.3204 66.9499 16.6508 66.8955 5.98383 66.9907C2.60767 67.0206 0.83597 64.6384 0.853647 61.8333C0.910754 52.5247 0.872635 43.2161 0.872635 33.9076Z" fill="#E33C5C"/>
<path d="M52.198 66.9566C50.256 66.965 48.3316 66.5887 46.5358 65.8494C44.74 65.1101 43.1085 64.0224 41.7353 62.6492C40.3622 61.2759 39.2746 59.6442 38.5355 57.8484C37.7963 56.0525 37.4202 54.128 37.4289 52.186C37.4254 50.244 37.806 48.3204 38.5487 46.5259C39.2913 44.7314 40.3814 43.1014 41.7563 41.7297C43.1311 40.358 44.7636 39.2717 46.5598 38.5332C48.3559 37.7946 50.2805 37.4185 52.2225 37.4264C54.1587 37.4266 56.0759 37.8083 57.8645 38.5499C59.653 39.2914 61.278 40.3781 62.6463 41.748C64.0146 43.1178 65.0995 44.744 65.8391 46.5333C66.5786 48.3227 66.9583 50.2403 66.9563 52.1765C66.9657 54.1183 66.5905 56.0426 65.8524 57.8386C65.1143 59.6346 64.0279 61.2667 62.6559 62.6407C61.2839 64.0148 59.6534 65.1035 57.8585 65.8443C56.0636 66.585 54.1398 66.9631 52.198 66.9566ZM47.8197 52.1956C47.808 51.5093 47.5284 50.8549 47.0406 50.3722C46.5527 49.8894 45.8954 49.6166 45.2091 49.6121C43.8168 49.6244 42.6039 50.8603 42.6257 52.2404C42.6502 53.6001 43.859 54.7953 45.2091 54.8076C46.596 54.8171 47.8279 53.5825 47.8197 52.1956ZM56.5627 52.2391C56.5763 53.5988 57.7865 54.8035 59.138 54.8035C60.51 54.8035 61.7609 53.5526 61.75 52.1928C61.7291 51.507 61.4444 50.8557 60.9554 50.3745C60.4663 49.8933 59.8104 49.6192 59.1244 49.6094C58.4386 49.6264 57.7867 49.9111 57.308 50.4025C56.8293 50.8939 56.5618 51.553 56.5627 52.2391ZM52.198 49.608C50.8084 49.5999 49.5792 50.8223 49.5874 52.2037C49.5955 53.5852 50.8356 54.8171 52.2062 54.8021C53.5564 54.7885 54.7583 53.5879 54.7828 52.2296C54.8073 50.8712 53.5945 49.6148 52.198 49.608Z" fill="#E33C5C"/>
<path d="M34.753 32.1616C31.9683 32.1616 29.1841 32.1616 26.4003 32.1616C24.7102 32.1616 23.5055 31.0847 23.5 29.5918C23.4946 28.0988 24.7238 26.9838 26.3772 26.9811C32.0363 26.9757 37.6954 26.9757 43.3545 26.9811C44.6449 26.9811 45.6796 27.7725 45.991 28.9282C46.1268 29.4705 46.0847 30.0421 45.871 30.5586C45.6572 31.0752 45.2832 31.5094 44.804 31.7972C44.3213 32.0936 43.795 32.1643 43.2416 32.163C40.4121 32.1616 37.5826 32.1616 34.753 32.1616Z" fill="#E33C5C"/>
<path d="M34.7527 21.7275C31.8973 21.7275 29.0486 21.7465 26.1973 21.7275C24.4691 21.7111 23.2359 20.2767 23.5582 18.6885C23.7689 17.647 24.4229 16.9712 25.4386 16.6557C25.8324 16.5494 26.2399 16.5036 26.6474 16.5198C32.0808 16.5198 37.5133 16.5198 42.9449 16.5198C43.7308 16.5198 44.48 16.6258 45.1082 17.1588C45.9485 17.87 46.2748 18.9169 45.9594 19.9041C45.8001 20.4034 45.4946 20.8435 45.0825 21.1673C44.6704 21.4912 44.1707 21.6839 43.6479 21.7207C43.3759 21.7424 43.104 21.7383 42.832 21.7383H34.7527V21.7275Z" fill="#E33C5C"/>
<path d="M28.7343 37.4279C29.595 37.4279 30.4557 37.4061 31.3178 37.4279C32.774 37.4741 33.9203 38.6516 33.9012 40.0426C33.8822 41.4336 32.7142 42.5812 31.2512 42.5961C29.5534 42.6134 27.8551 42.6134 26.1563 42.5961C24.6879 42.5812 23.5226 41.4445 23.5022 40.0467C23.4831 38.6231 24.6471 37.4632 26.1523 37.4238C27.013 37.4102 27.8736 37.4265 28.7343 37.4279Z" fill="#E33C5C"/>
<path d="M17.3501 32.1616C15.9496 32.1426 14.7571 30.9107 14.7979 29.5238C14.8387 28.1641 16.0502 26.9838 17.4058 26.9893C18.7914 26.9893 20.007 28.2293 19.9893 29.6122C19.9687 30.2974 19.6812 30.9474 19.1882 31.4237C18.6952 31.9 18.0356 32.1648 17.3501 32.1616Z" fill="#E33C5C"/>
<path d="M17.3737 21.7301C15.9814 21.7192 14.7672 20.4819 14.7984 19.1058C14.8297 17.7298 16.0222 16.5537 17.3819 16.5428C18.7579 16.5333 19.9898 17.7665 19.9884 19.1453C19.9733 19.8312 19.692 20.4844 19.2041 20.9667C18.7162 21.4491 18.0598 21.7228 17.3737 21.7301Z" fill="#E33C5C"/>
<path d="M17.4232 42.6043C16.0268 42.6179 14.8058 41.4173 14.8018 40.0277C14.814 39.3425 15.092 38.6889 15.5771 38.2049C16.0622 37.7208 16.7163 37.4442 17.4015 37.4333C18.0741 37.4487 18.7157 37.7197 19.1957 38.1913C19.6756 38.6629 19.9578 39.2996 19.9849 39.9719C20.0244 41.3507 18.8156 42.5907 17.4232 42.6043Z" fill="#E33C5C"/>
</svg>
