<svg width="100" height="96" viewBox="0 0 100 96" fill="none" xmlns="http://www.w3.org/2000/svg">
<path d="M44.4846 32.2651C42.1451 31.8097 40.0839 31.0393 38.4939 29.4323C37.7159 28.6215 37.0523 27.7105 36.5211 26.724C35.9161 25.6305 36.4621 24.7172 37.7417 24.4948C38.7589 24.3174 39.7975 24.2512 40.812 24.0685C43.4888 23.5814 44.482 22.3847 44.4846 19.7373C44.4846 15.7078 44.4846 11.681 44.4846 7.65157C44.4846 3.84185 46.8937 1.45117 50.7163 1.45117H93.6848C97.5635 1.45117 99.9888 3.85244 99.9914 7.69922C99.9914 16.3476 99.9914 25.0005 99.9914 33.6577C99.9914 37.5071 97.5823 39.9031 93.6848 39.9031H50.8127C46.8429 39.9031 44.4846 37.5548 44.4793 33.6047L44.4846 32.2651ZM40.0196 27.129C40.555 27.55 40.9566 27.9868 41.4491 28.2092C42.4981 28.6974 43.5825 29.1071 44.6934 29.435C46.4494 29.93 47.2712 30.8884 47.29 32.694C47.29 32.9905 47.29 33.2897 47.29 33.5862C47.29 36.0457 48.3982 37.1285 50.9064 37.1285H93.5777C96.0404 37.1285 97.1861 35.9928 97.1861 33.5544C97.1861 25.0013 97.1861 16.4473 97.1861 7.89248C97.1861 5.32708 96.0699 4.22573 93.4707 4.22308H50.909C48.4196 4.22308 47.3033 5.31913 47.3006 7.77599C47.3006 11.9378 47.3248 16.0996 47.2846 20.2615C47.2578 23.2266 45.7267 25.3976 43.0338 26.3507C42.121 26.6631 41.176 26.8351 40.0196 27.129Z" fill="#004999"/>
<path d="M56.509 85.1983C56.509 85.6696 56.509 86.162 56.509 86.6545C56.493 90.255 54.1186 92.6272 50.4969 92.6298C42.8804 92.6404 35.2657 92.6404 27.6527 92.6298H7.30881C3.35245 92.6298 0.996817 90.3159 0.994141 86.4321C0.994141 77.8084 0.994141 69.1864 0.994141 60.5663C0.994141 56.7512 3.40331 54.3765 7.23385 54.3765C21.5942 54.3765 35.9545 54.3765 50.3148 54.3765C54.1239 54.3765 56.4983 56.7301 56.5037 60.4948C56.5037 64.5586 56.5037 68.6225 56.5037 72.6732C56.5037 75.13 57.4405 76.3134 59.8845 76.8482C60.99 77.0891 62.1304 77.1553 63.2466 77.3433C64.585 77.5736 65.0347 78.4288 64.4351 79.6519C63.019 82.5376 60.5644 84.097 57.5155 84.878C57.288 84.9362 57.0604 84.9786 56.8356 85.0395C56.7236 85.0859 56.6146 85.139 56.509 85.1983ZM60.9231 79.9034L60.0585 79.7445C55.6658 78.9953 53.7064 76.692 53.7037 72.2787C53.7037 68.3781 53.7037 64.4792 53.7037 60.5821C53.7037 58.2338 52.5955 57.1563 50.1943 57.1563H7.41057C4.90773 57.1563 3.80749 58.2418 3.80482 60.7092V86.2812C3.80482 88.828 4.8756 89.8605 7.46677 89.8605H50.1489C52.6464 89.8605 53.6984 88.8307 53.7037 86.395C53.7037 86.0958 53.7037 85.7993 53.7037 85.5028C53.7251 83.7343 54.5282 82.7124 56.2521 82.3258C57.9759 81.9393 59.5633 81.3569 60.9231 79.9034Z" fill="#004999"/>
<path d="M92.3034 56.5156C92.5389 55.1734 93.0582 54.6624 93.9523 54.7577C94.7928 54.8504 95.1783 55.4249 95.189 56.5951C95.1518 56.9891 95.159 57.386 95.2105 57.7785C95.2801 58.1315 95.4689 58.4508 95.7458 58.6839C96.3152 59.0349 96.7842 59.5244 97.108 60.1055C97.4318 60.6867 97.5996 61.3403 97.5955 62.0038C97.5955 62.5995 97.7346 63.2402 97.558 63.7776C97.2555 64.6857 96.9772 65.8347 96.2839 66.3325C95.2131 67.0896 95.1301 67.9209 95.181 68.9985C95.2345 70.1183 95.2051 71.2435 95.181 72.366C95.1676 73.4409 94.675 73.9545 93.6096 73.989C92.306 74.0181 91.0051 74.0154 89.7015 73.989C88.7834 73.9704 88.1891 73.4065 88.1811 72.6202C88.1731 71.8339 88.7726 71.2594 89.6801 71.2303C90.542 71.2038 91.404 71.2303 92.3221 71.2303V67.1691C91.7359 67.5741 91.2326 67.7727 90.9489 68.138C89.4897 70.0504 87.4598 71.4609 85.146 72.1702C82.8322 72.8794 80.3516 72.8516 78.0546 72.0907C75.7573 71.334 73.7581 69.8832 72.339 67.9429C70.9198 66.0026 70.1522 63.6706 70.1446 61.2758C70.1398 58.7629 70.9705 56.3181 72.5087 54.318C74.0468 52.3178 76.2071 50.8732 78.6569 50.2067C81.1244 49.5399 83.7456 49.6989 86.1122 50.6591C88.4788 51.6192 90.4579 53.3264 91.7412 55.5149C91.9045 55.8114 92.0598 56.0762 92.3034 56.5156ZM81.6496 69.8615C82.8031 69.869 83.9466 69.6494 85.0135 69.2157C86.0805 68.7819 87.0495 68.1427 87.8643 67.3351C88.6791 66.5275 89.3234 65.5677 89.7597 64.5115C90.1959 63.4554 90.4154 62.324 90.4055 61.1831C90.4027 60.0505 90.1741 58.9295 89.7327 57.8843C89.2914 56.8391 88.646 55.8903 87.8335 55.0921C87.021 54.2938 86.0572 53.6619 84.9975 53.2325C83.9378 52.8031 82.8028 52.5845 81.6576 52.5894C79.3446 52.5936 77.1277 53.5054 75.4936 55.1245C73.8596 56.7436 72.9418 58.9378 72.9418 61.2255C72.9397 62.358 73.1633 63.4797 73.5997 64.5267C74.0361 65.5737 74.6767 66.5254 75.4851 67.3274C76.2936 68.1294 77.2539 68.766 78.3111 69.2008C79.3684 69.6356 80.5019 69.8602 81.6469 69.8615H81.6496ZM92.7959 64.9478C93.5321 64.6063 94.4555 64.4501 94.5573 64.0742C94.7848 63.2376 94.6885 62.2765 94.5278 61.4002C94.4823 61.1355 93.7837 61.0084 93.3394 60.794C93.152 62.2051 92.9967 63.3779 92.7933 64.9478H92.7959Z" fill="#004999"/>
<path d="M19.2692 46.246H3.03956C1.39064 46.246 0.973026 45.8172 1.00782 44.1837C1.21929 34.6316 9.42913 26.7951 19.2611 26.7633C24.0054 26.7459 28.5715 28.5497 31.9981 31.795C35.4246 35.0403 37.4444 39.4739 37.6323 44.1625C37.6938 45.751 37.2388 46.2355 35.6032 46.2355L19.2692 46.246ZM34.6529 43.4212C34.5111 37.5359 28.879 29.6808 19.5556 29.5352C10.2322 29.3896 4.16918 37.1202 3.96842 43.4212H34.6529Z" fill="#004999"/>
<path d="M81.6311 96.0003H65.3024C63.7766 96.0003 63.3189 95.5343 63.3644 94.0491C63.632 84.767 71.3441 77.002 80.6782 76.5916C90.371 76.1654 98.6692 82.9985 99.8282 92.3706C99.9005 92.9583 99.9674 93.5514 99.9835 94.1444C100.021 95.5264 99.5551 95.9976 98.1632 95.9976H81.6338L81.6311 96.0003ZM97.0604 93.186C96.6428 86.1676 89.9534 78.5587 80.1963 79.3318C73.0893 79.893 65.8378 87.0598 66.3838 93.186H97.0604Z" fill="#004999"/>
<path d="M19.3521 0.000177668C20.875 7.58402e-05 22.3828 0.298855 23.7881 0.879221C25.1934 1.45959 26.4682 2.31001 27.5389 3.38118C28.6095 4.45236 29.4545 5.72299 30.0251 7.11949C30.5956 8.516 30.8802 10.0106 30.8625 11.5167C30.8293 14.5418 29.5867 17.4308 27.4063 19.5526C25.2259 21.6743 22.285 22.8562 19.2263 22.8399C16.1698 22.8092 13.2499 21.5831 11.1046 19.4296C8.95936 17.2761 7.76316 14.3703 7.77747 11.3472C7.78238 9.85002 8.08584 8.36846 8.67051 6.9874C9.25518 5.60633 10.1096 4.35291 11.1847 3.29889C12.2599 2.24486 13.5347 1.41096 14.9362 0.844916C16.3377 0.278873 17.8383 -0.00818684 19.3521 0.000177668ZM19.3521 2.77737C18.1983 2.7682 17.0541 2.98622 15.9863 3.4187C14.9185 3.85119 13.9484 4.4895 13.1325 5.29646C12.3166 6.10343 11.6712 7.06289 11.2339 8.11899C10.7966 9.17508 10.5762 10.3067 10.5855 11.4478C10.5904 13.7374 11.5139 15.9314 13.153 17.5481C14.7922 19.1648 17.0131 20.0721 19.328 20.0707C21.6435 20.0623 23.8616 19.1479 25.4977 17.5273C27.1338 15.9067 28.0549 13.7115 28.0598 11.4214C28.0641 10.2882 27.8422 9.16529 27.4068 8.11708C26.9714 7.06887 26.3311 6.11595 25.5227 5.31293C24.7142 4.50991 23.7535 3.8726 22.6955 3.4375C21.6376 3.00239 20.5032 2.77806 19.3575 2.77737H19.3521Z" fill="#004999"/>
<path d="M77.0456 22.8557C80.7146 22.8557 84.3837 22.8557 88.0528 22.8557C89.2627 22.8557 89.956 23.3984 89.9266 24.288C89.8971 25.1775 89.2306 25.6276 88.0528 25.6276H65.9394C64.7911 25.6276 64.1299 25.0981 64.1299 24.2429C64.1299 23.3878 64.7911 22.8583 65.9367 22.8557C69.6433 22.8521 73.3462 22.8521 77.0456 22.8557Z" fill="#E43C5C"/>
<path d="M64.7775 18.4952H56.0778C54.8331 18.4952 54.1558 18.0108 54.1371 17.1318C54.1184 16.2528 54.8117 15.7234 56.0296 15.7207C61.8633 15.7207 67.6979 15.7207 73.5334 15.7207C74.7915 15.7207 75.4474 16.1893 75.4635 17.0841C75.4795 17.979 74.8076 18.4952 73.4799 18.4952H64.7775Z" fill="#E43C5C"/>
<path d="M80.1749 8.38713C82.8116 8.38713 85.451 8.38713 88.0876 8.38713C89.2494 8.38713 89.9106 8.89545 89.924 9.75852C89.9374 10.6216 89.2628 11.159 88.1198 11.159C82.7447 11.159 77.3687 11.159 71.9919 11.159C70.889 11.159 70.2894 10.6613 70.2813 9.79029C70.2733 8.91927 70.8622 8.39508 71.9597 8.38978C74.6981 8.3792 77.4365 8.38713 80.1749 8.38713Z" fill="#E43C5C"/>
<path d="M63.7396 32.9662C61.1404 32.9662 58.5412 32.9662 55.9419 32.9662C54.8043 32.9662 54.1297 32.4367 54.1378 31.5684C54.1458 30.7 54.815 30.197 55.9634 30.1943H71.4622C72.6213 30.1943 73.2879 30.6894 73.3146 31.5419C73.3414 32.3944 72.6454 32.9636 71.4409 32.9662C68.8729 32.9698 66.3058 32.9698 63.7396 32.9662Z" fill="#E43C5C"/>
<path d="M82.6669 32.9665C80.7932 32.9665 78.9194 32.9665 77.059 32.9665C75.9642 32.9665 75.3538 32.4556 75.3458 31.5951C75.3378 30.7347 75.9481 30.1999 77.0322 30.1973C80.7691 30.1973 84.5068 30.1973 88.2455 30.1973C89.2948 30.1973 89.9533 30.7771 89.9292 31.6163C89.9051 32.4556 89.2734 32.9559 88.2749 32.9639C86.4145 32.9771 84.5407 32.9665 82.6669 32.9665Z" fill="#E43C5C"/>
<path d="M61.1825 11.1618C59.448 11.1618 57.7027 11.1618 55.9788 11.1618C54.8224 11.1618 54.1558 10.6562 54.1371 9.79839C54.1184 8.9406 54.7983 8.39258 55.9306 8.39258C59.4676 8.39258 63.0037 8.39258 66.5389 8.39258C67.7408 8.39258 68.3404 8.85323 68.3538 9.75602C68.3672 10.6588 67.7461 11.1618 66.48 11.1645C64.732 11.1645 62.9492 11.1618 61.1825 11.1618Z" fill="#E43C5C"/>
<path d="M83.5801 15.7208C85.1461 15.7208 86.7121 15.7208 88.278 15.7208C89.2738 15.7208 89.9029 16.2662 89.9243 17.071C89.9457 17.8758 89.2899 18.4821 88.2432 18.4874C85.1435 18.498 82.0455 18.498 78.9493 18.4874C77.8652 18.4874 77.2629 17.9579 77.2736 17.0842C77.2843 16.2106 77.8892 15.7261 78.984 15.7181C80.5259 15.7128 82.049 15.7208 83.5801 15.7208Z" fill="#E43C5C"/>
<path d="M58.1503 25.6304C57.3151 25.6304 56.48 25.6515 55.6475 25.6304C54.7427 25.5986 54.1324 25.0135 54.1377 24.2404C54.1431 23.4674 54.7561 22.8823 55.6662 22.8717C57.3687 22.8488 59.0711 22.8488 60.7736 22.8717C61.6784 22.8849 62.2887 23.4859 62.2834 24.259C62.278 25.032 61.6677 25.5827 60.7549 25.6357H58.1503V25.6304Z" fill="#E43C5C"/>
<path d="M51.6991 73.502C51.6991 75.3182 51.6777 77.1343 51.6991 78.9505C51.7251 79.3126 51.6409 79.6741 51.4572 79.9884C51.2735 80.3027 50.9988 80.5553 50.6685 80.7137C47.5437 82.4787 44.4288 84.2648 41.3237 86.0722C40.5715 86.509 39.921 86.4693 39.1822 86.0378C36.1092 84.2446 33.0219 82.4796 29.9203 80.7428C29.5749 80.5804 29.2867 80.3193 29.093 79.9932C28.8992 79.667 28.8088 79.2909 28.8335 78.9134C28.8621 75.3146 28.8621 71.7167 28.8335 68.1197C28.8081 67.7583 28.8925 67.3978 29.0756 67.0841C29.2587 66.7704 29.5323 66.518 29.8615 66.3591C32.988 64.5941 36.1038 62.8097 39.2089 61.0059C39.5128 60.8025 39.8704 60.6919 40.2373 60.6876C40.6041 60.6834 40.9642 60.7858 41.2728 60.9821C44.4119 62.793 47.5571 64.5932 50.7087 66.3829C51.0354 66.5467 51.3046 66.8041 51.4813 67.1214C51.6579 67.4388 51.7338 67.8014 51.6991 68.162C51.6777 69.9358 51.6991 71.7202 51.6991 73.502ZM31.663 70.1662C31.663 72.9222 31.6442 75.4876 31.6897 78.0556C31.6897 78.3204 32.0163 78.6646 32.2813 78.8208C34.2488 79.9936 36.2403 81.1294 38.2266 82.2625C38.4358 82.3616 38.6523 82.4448 38.8743 82.5113C38.8743 79.8983 38.8744 77.3938 38.8556 74.8919C38.8508 74.7387 38.8124 74.5883 38.7431 74.4512C38.6738 74.314 38.5752 74.1934 38.4541 74.0977C36.2618 72.8057 34.0453 71.5429 31.663 70.1662ZM41.6823 82.6464C43.6605 81.5079 45.4299 80.3616 47.3305 79.4323C48.5779 78.8208 49.0222 78.0742 48.9366 76.6948C48.7974 74.5769 48.8991 72.4589 48.8991 70.1741C46.49 71.5614 44.2628 72.8454 42.0357 74.1453C41.9452 74.2049 41.8687 74.283 41.8115 74.3743C41.7542 74.4657 41.7174 74.5682 41.7038 74.6748C41.677 77.272 41.6823 79.8639 41.6823 82.6464ZM38.0499 70.5368C40.0682 72.0512 40.0682 72.0512 42.0518 70.9154L43.6124 70.0232L47.5553 67.7702C46.838 67.3572 46.2812 66.976 45.6816 66.7112C45.5424 66.6485 45.3917 66.6147 45.2389 66.612C45.086 66.6093 44.9342 66.6376 44.7928 66.6953C42.555 67.9396 40.3413 69.2237 38.0499 70.5368ZM33.1138 67.7014C34.3398 68.9351 35.5497 69.1019 36.8989 68.0111C37.4342 67.5769 38.0927 67.299 38.6977 66.9521L42.4051 64.8342C41.8888 64.4996 41.3525 64.1964 40.799 63.9261C40.4885 63.791 40.1368 63.7815 39.8193 63.8996C37.5841 65.1307 35.3757 66.4015 33.1138 67.7014Z" fill="#E43C5C"/>
<path d="M16.2228 64.4845C18.391 64.4845 20.562 64.4845 22.7302 64.4845C23.8277 64.4845 24.4407 64.9875 24.4514 65.8479C24.4621 66.7084 23.8491 67.2511 22.773 67.2511C18.3652 67.2617 13.9582 67.2617 9.55216 67.2511C8.50017 67.2511 7.84433 66.6766 7.86574 65.8373C7.88716 64.9981 8.53496 64.4871 9.61104 64.4845C11.8141 64.4765 14.0171 64.4845 16.2228 64.4845Z" fill="#E43C5C"/>
<path d="M15.4224 74.5925C13.4871 74.5925 11.5517 74.5925 9.61639 74.5925C8.54566 74.5925 7.88715 74.063 7.86573 73.2396C7.84432 72.4163 8.51618 71.8232 9.64848 71.8232C13.5227 71.8232 17.3953 71.8232 21.266 71.8232C22.4304 71.8232 23.0594 72.3289 23.0487 73.2237C23.038 74.1186 22.4143 74.5898 21.2311 74.5925C19.2958 74.6084 17.3524 74.5925 15.4224 74.5925Z" fill="#E43C5C"/>
<path d="M19.4939 82.5191C18.7605 82.5191 18.0243 82.5483 17.2936 82.5191C16.4584 82.4741 15.8454 81.8652 15.9043 81.1266C15.9685 80.2873 16.461 79.7843 17.3283 79.7684C18.7604 79.7419 20.1979 79.7393 21.63 79.7684C22.4813 79.787 23.0059 80.245 23.0568 81.1107C23.1023 81.9049 22.5214 82.4874 21.5953 82.5244C20.8832 82.5509 20.1819 82.5191 19.4939 82.5191Z" fill="#E43C5C"/>
<path d="M10.8472 82.5165C10.3118 82.5165 9.77647 82.5457 9.24111 82.5165C8.41396 82.4583 7.80368 81.8441 7.86792 81.1081C7.93484 80.3138 8.40329 79.8055 9.20634 79.7844C10.3065 79.7393 11.4093 79.7314 12.5068 79.7844C12.6847 79.7799 12.8615 79.8122 13.026 79.8792C13.1905 79.9463 13.339 80.0466 13.462 80.1737C13.5849 80.3008 13.6797 80.452 13.7402 80.6174C13.8006 80.7829 13.8255 80.959 13.8132 81.1346C13.8132 81.9526 13.334 82.4265 12.539 82.5139C11.9731 82.5501 11.4056 82.5545 10.8392 82.5271L10.8472 82.5165Z" fill="#E43C5C"/>
</svg>
