<svg width="94" height="95" viewBox="0 0 94 95" fill="none" xmlns="http://www.w3.org/2000/svg">
<path d="M60.063 77.2717C60.063 81.6697 60.1895 86.0718 60.01 90.4576C59.9202 92.5587 58.0068 93.9051 55.6772 93.9377C52.4134 93.9785 49.1495 93.9377 45.8857 93.9377C32.357 93.9377 18.8297 93.9377 5.30376 93.9377C1.48097 93.9377 0 92.4526 0 88.6339C0 64.2965 0 39.9618 0 15.6298C0 11.7091 1.48506 10.2322 5.4384 10.2322C21.8882 10.2322 38.3434 10.2322 54.8041 10.2322C58.7004 10.2322 60.1936 11.7539 60.2058 15.6787C60.2058 16.9557 60.2058 18.2368 60.2058 19.5872C57.9211 19.5423 57.0603 18.6978 57.1949 16.4743C57.3907 13.2104 57.1949 13.1452 53.9596 13.1452H5.81782C3.20266 13.1452 2.91708 13.4267 2.91708 16.0745C2.91708 40.0719 2.91708 64.068 2.91708 88.0628C2.91708 90.8085 3.10475 91.0043 5.77294 91.0043C21.9508 91.0043 38.134 91.0043 54.3227 91.0043C57.0725 91.0043 57.2398 90.837 57.2439 88.1484C57.2439 85.5659 57.407 82.9671 57.1949 80.3968C56.9868 78.2059 57.8477 77.3002 60.063 77.2717Z" fill="#004999"/>
<path d="M48.3991 76.3374C44.72 76.3391 41.0769 75.6125 37.6798 74.1995C34.2828 72.7866 31.1991 70.7151 28.6065 68.1046C26.0138 65.4942 23.9636 62.3964 22.5739 58.9897C21.1842 55.5831 20.4826 51.9351 20.5095 48.256C20.5422 32.9282 33.108 20.5133 48.5664 20.5133C63.9024 20.5133 76.3336 33.0669 76.3295 48.5212C76.3274 52.1831 75.6027 55.8086 74.1969 59.1899C72.7911 62.5712 70.7319 65.6419 68.1372 68.2259C65.5426 70.8099 62.4635 72.8566 59.0765 74.2485C55.6894 75.6404 52.061 76.3503 48.3991 76.3374ZM48.4644 23.5079C41.8564 23.4916 35.5124 26.1003 30.8271 30.7602C26.1419 35.4202 23.4991 41.75 23.4796 48.358C23.345 62.0009 34.4951 73.2734 48.2971 73.4122C61.9441 73.5468 73.2819 62.3477 73.3921 48.6314C73.4147 45.3423 72.7867 42.0812 71.5444 39.0356C70.3021 35.9901 68.4699 33.2202 66.1532 30.8854C63.8366 28.5505 61.0811 26.6967 58.0454 25.4306C55.0097 24.1645 51.7536 23.511 48.4644 23.5079Z" fill="#E33C5C"/>
<path d="M64.4648 74.8401L66.9454 73.098L68.0959 74.628L74.6032 68.1003L73.0569 67.0966L74.8153 64.4611C80.3557 69.0916 85.8676 73.4897 91.1346 78.1733C95.0512 81.6534 94.8717 87.7935 91.0897 91.449C90.1936 92.311 89.1313 92.9815 87.9677 93.4196C86.804 93.8578 85.5633 94.0544 84.3212 93.9975C83.0791 93.9407 81.8616 93.6315 80.7429 93.0888C79.6241 92.5462 78.6276 91.7814 77.814 90.8411C73.3425 85.6353 69.0179 80.3111 64.4648 74.8401ZM74.8276 82.6244C76.4065 84.5256 78.0057 86.4553 79.6091 88.381C79.7805 88.5932 79.9518 88.789 80.1395 88.9971C80.7018 89.6119 81.3818 90.1075 82.1392 90.4547C82.8966 90.8019 83.716 90.9936 84.5488 91.0183C85.3816 91.043 86.2109 90.9004 86.9875 90.5987C87.7642 90.2971 88.4724 89.8426 89.0702 89.2622C89.6933 88.6815 90.1891 87.9776 90.526 87.1952C90.863 86.4129 91.0338 85.5691 91.0277 84.7173C91.0215 83.8655 90.8386 83.0242 90.4904 82.2468C90.1422 81.4694 89.6364 80.7727 89.0049 80.201C86.9161 78.2835 84.664 76.5291 82.5833 74.8075L74.8276 82.6244ZM70.4173 77.3206L72.3756 79.6543L79.7682 72.4493L77.2795 70.4094L70.4173 77.3206Z" fill="#E33C5C"/>
<path d="M10.2686 7.21719C10.2686 6.22171 10.2686 5.40983 10.2686 4.60202C10.3379 1.74616 12.0025 0.0326385 14.8665 0.0163193C22.0714 -0.0203991 29.2723 0.0163193 36.4895 0.0163193C46.0743 0.0163193 55.6578 0.0163193 65.2399 0.0163193C68.9118 0.0163193 70.5029 1.56256 70.5192 5.18543C70.5519 12.2313 70.5192 19.2771 70.5192 26.6208C68.512 25.3275 67.337 24.1729 67.4431 21.6924C67.6797 16.3315 67.5206 10.9584 67.5083 5.58934C67.5083 3.14146 67.2676 2.93338 64.7871 2.9293H16.4413C13.308 2.9293 13.2387 2.99866 13.1775 6.09524C13.1775 6.42978 13.1203 6.76433 13.0796 7.22942L10.2686 7.21719Z" fill="#004999"/>
<path d="M30.0727 81.5228H11.7543C11.3463 81.5228 10.8363 81.6737 10.5548 81.4861C9.92609 81.0165 9.33414 80.4996 8.78418 79.9398C9.35535 79.4666 9.89797 78.6383 10.5059 78.5853C12.5254 78.414 14.5857 78.5241 16.6052 78.5241C22.374 78.5241 28.1429 78.4344 33.9077 78.5486C39.3216 78.6547 44.7314 78.9566 50.1413 79.2299C50.5492 79.2503 51.2754 79.6869 51.2754 79.9276C51.2639 80.1825 51.1938 80.4314 51.0707 80.6549C50.9476 80.8784 50.7748 81.0707 50.5655 81.2168C49.938 81.4519 49.2679 81.552 48.5991 81.5105C42.4222 81.5309 36.2495 81.5228 30.0727 81.5228Z" fill="#004999"/>
<path d="M30.949 22.7613C28.9744 24.8542 27.1875 25.9313 24.5111 25.7722C20.0233 25.5111 15.5355 25.6906 11.0477 25.711C9.93801 25.711 8.84462 25.5764 8.80383 24.2504C8.76303 22.9245 9.87274 22.7531 10.9743 22.7572C17.5061 22.7654 24.0215 22.7613 30.949 22.7613Z" fill="#004999"/>
<path d="M26.2743 70.4992C21.0114 70.4992 15.7443 70.544 10.4855 70.438C9.91021 70.438 9.35127 69.5527 8.78418 69.0794C9.36759 68.5531 9.93878 67.5903 10.5426 67.5739C14.8019 67.4393 19.0816 67.3332 23.3287 67.6107C24.467 67.6841 25.5196 69.1079 26.5926 69.9117L26.2743 70.4992Z" fill="#004999"/>
<path d="M20.6482 34.4581C20.3912 36.7754 19.3998 37.7219 17.1763 37.4975C15.1649 37.2976 13.0965 37.5955 11.0974 37.3996C10.2814 37.3221 9.01257 36.6081 8.90242 36.0084C8.66171 34.7273 9.85301 34.4581 10.9423 34.4581H20.6482Z" fill="#004999"/>
<path d="M19.3181 59.4755C16.3439 59.4755 13.3656 59.553 10.3996 59.4061C9.84068 59.3776 9.32662 58.4596 8.78809 57.9537C9.34294 57.4682 9.87331 56.6074 10.4567 56.5666C12.8925 56.3564 15.3424 56.3686 17.7759 56.6033C18.5184 56.693 19.11 58.0639 19.7709 58.8472L19.3181 59.4755Z" fill="#004999"/>
<path d="M17.6741 45.4818C17.6251 46.5751 17.5884 47.4237 17.5435 48.4682C15.0956 48.4682 12.811 48.5783 10.5426 48.3988C9.92246 48.3499 9.36759 47.4278 8.78418 46.9056C9.34719 46.4323 9.88166 45.5837 10.4732 45.5429C12.811 45.3879 15.165 45.4818 17.6741 45.4818Z" fill="#004999"/>
<path d="M44.9475 56.4932C49.2109 50.3367 53.3111 44.421 57.4195 38.5053C57.7663 38.0035 58.0682 37.3792 58.5578 37.1018C58.8054 36.9648 59.0808 36.8855 59.3634 36.87C59.6461 36.8544 59.9285 36.903 60.1897 37.0121C60.5732 37.2609 60.8057 38.0279 60.7772 38.5501C60.7486 39.0724 60.3243 39.513 60.0183 39.9536C55.7318 46.1576 51.4371 52.3603 47.1343 58.5616C45.7104 60.6015 45.1719 60.6709 43.2993 59.0308C41.1492 57.15 38.9461 55.3263 36.9184 53.3191C36.4166 52.8213 36.1025 51.4872 36.4044 50.965C37.0163 49.9369 38.0118 50.4102 38.8115 51.12C40.782 52.8784 42.777 54.6042 44.9475 56.4932Z" fill="#004999"/>
</svg>
