<svg width="98" height="49" viewBox="0 0 98 49" fill="none" xmlns="http://www.w3.org/2000/svg">
<path d="M16.6431 25.9241C15.6941 25.9241 14.8493 25.9241 14.0035 25.9241C11.5319 25.9241 9.11708 26.2336 6.81931 27.222C6.48527 27.374 6.16336 27.5517 5.85641 27.7536C4.85758 28.3821 4.32224 29.2723 4.21912 30.478C3.92248 33.9186 5.43694 36.3638 8.6617 37.5473C10.5157 38.2284 12.4427 38.4632 14.4021 38.4924C14.8227 38.4994 15.2422 38.4924 15.7926 38.4924C14.8447 39.9317 14.8945 41.3068 15.8227 42.794C14.5203 42.7309 13.3511 42.7169 12.19 42.6118C9.82854 42.3991 7.54121 41.8757 5.43927 40.7191C2.24 38.9585 0.417312 36.2703 0.0801197 32.5844C-0.0867381 30.7584 -0.0438784 28.9627 0.761442 27.2722C1.8043 25.1016 3.63974 23.8398 5.80658 23.0664C7.12522 22.5991 8.51339 22.3129 9.88301 22.0033C10.657 21.8281 10.6941 21.8795 10.642 21.0605C10.2109 14.7845 15.088 8.43256 20.6488 6.99675C23.9303 6.14974 27.1203 6.51775 30.2443 7.69771C31.4123 8.13816 32.5363 8.7001 33.746 9.23517L34.2825 8.46761C36.0635 5.91492 38.1063 3.62626 40.7714 1.9673C43.7725 0.0980534 46.9869 -0.458048 50.4318 0.377272C53.7121 1.17287 56.7318 2.47083 59.1443 4.94291C60.8013 6.63925 61.9484 8.65454 62.6634 10.9081C62.8638 11.539 63.1443 11.6091 63.7375 11.5706C68.2763 11.254 72.4141 12.2856 75.8046 15.5112C77.8567 17.4634 78.83 19.939 78.8335 22.779C78.8335 23.3632 78.9911 23.5174 79.5728 23.5524C83.7442 23.8013 87.7998 24.5899 91.5576 26.5409C93.3675 27.4814 94.9179 28.7221 96.0257 30.4979C98.1114 33.8438 96.5251 38.4585 94.4846 39.8943C92.9933 40.9458 91.2992 41.4517 89.5518 41.801C85.6909 42.5697 81.779 42.7356 77.8579 42.7531C76.6621 42.7531 75.4651 42.7531 74.1499 42.7531C75.0769 41.3033 75.0236 39.9154 74.0653 38.4947C75.7328 38.4947 77.3098 38.5088 78.888 38.4947C82.4615 38.455 86.0235 38.2809 89.5205 37.4433C89.9701 37.3358 90.4035 37.1617 90.8508 37.0461C92.9851 36.4923 93.2447 33.5518 92.1625 32.304C91.3004 31.3122 90.2621 30.5983 89.1046 30.0469C86.5113 28.8109 83.7477 28.2209 80.9158 27.8938C78.6736 27.6344 76.4477 27.798 74.2229 28.0935C74.0373 28.1039 73.8512 28.1039 73.6656 28.0935C73.8579 27.3003 74.0271 26.5351 74.2287 25.7792C74.5763 24.4941 74.7814 23.1844 74.5694 21.8561C74.2519 19.8782 73.1395 18.4062 71.4535 17.44C68.3018 15.6338 64.9866 15.1093 61.5058 16.4435C60.9693 16.6491 60.4282 16.8453 59.8164 17.0743C59.6032 16.0346 59.4178 15.0474 59.1976 14.0695C58.6495 11.6372 57.7144 9.39639 55.8732 7.65098C54.105 5.971 51.9196 5.14736 49.616 4.52934C46.1236 3.59472 43.3496 4.92655 40.8676 7.23741C38.8456 9.11951 37.3149 11.3813 35.9673 13.7798C35.7019 14.2471 35.4285 14.7144 35.1191 15.2588C34.6069 14.9153 34.1295 14.5987 33.6579 14.2751C31.4714 12.7751 29.1539 11.5776 26.5421 11.0121C20.5781 9.72001 14.8748 14.2716 14.825 20.3934C14.8158 21.4449 14.9954 22.4788 15.489 23.4403C15.8806 24.223 16.2248 25.0256 16.6431 25.9241Z" fill="#E33B5C"/>
<path d="M58.7478 43.6108C59.9193 43.9917 61.0282 44.4602 62.1846 44.6985C63.2066 44.9088 64.2796 44.8772 65.3306 44.9158C65.545 44.924 65.779 44.799 65.9783 44.6927C66.8277 44.2312 66.9795 43.2276 66.2286 42.6236C65.6944 42.1937 65.0502 41.8981 64.4407 41.5722C63.282 40.9471 62.0688 40.4284 60.9807 39.7088C59.2808 38.5837 58.7548 36.8418 58.895 34.8768C59.0398 32.8077 60.1267 31.3918 62.0236 30.6347C64.6238 29.5938 67.2379 29.8286 69.8508 30.6219C70.4001 30.7901 70.9331 31.0133 71.546 31.2376C71.0501 32.5052 70.5727 33.7225 70.0756 34.9913C69.7373 34.8592 69.4372 34.7412 69.1359 34.6268C67.9401 34.17 66.7246 33.7996 65.4279 33.8604C65.2166 33.8645 65.0062 33.8899 64.7999 33.9363C64.2622 34.0742 63.8266 34.358 63.7246 34.9492C63.6226 35.5403 63.9563 35.9434 64.4059 36.1957C65.4001 36.7495 66.4291 37.2402 67.4372 37.7706C68.0687 38.1024 68.7002 38.4388 69.312 38.8069C72.4116 40.6761 72.108 45.3866 69.7002 47.3154C68.589 48.2047 67.2424 48.7439 65.8289 48.8657C63.5774 49.0877 61.3608 48.9744 59.2426 48.048C58.895 47.8949 58.7386 47.729 58.7478 47.3236C58.7664 46.0771 58.7478 44.8352 58.7478 43.6108Z" fill="#E33B5C"/>
<path d="M29.1352 38.5661L27.7216 35.3171C28.7494 35.0157 29.703 34.6629 30.6879 34.4643C32.455 34.1138 34.2441 33.9666 36.0297 34.3872C38.2522 34.9106 39.6461 36.5999 39.6716 38.8944C39.7064 41.9705 39.6809 45.0477 39.6959 48.1238C39.6959 48.5316 39.6114 48.7267 39.1525 48.708C38.3808 48.6729 37.6079 48.6869 36.835 48.708C36.499 48.7185 36.3078 48.6017 36.1676 48.2897C35.9358 47.7862 35.6717 47.3025 35.3484 46.6693C34.9521 47.1098 34.6728 47.4871 34.3322 47.7909C32.8919 49.076 29.9463 49.361 28.2708 48.4124C26.7054 47.5268 26.1376 45.6506 26.3381 43.8561C26.5837 41.6609 27.8537 40.4155 30.2778 40.023C31.5938 39.8303 32.9203 39.7188 34.2499 39.6888C34.8385 39.6666 34.9277 39.4388 34.8663 38.9493C34.7505 37.9761 33.893 37.3429 32.7609 37.5614C31.6508 37.774 30.5697 38.1397 29.4771 38.44C29.389 38.4622 29.3044 38.5042 29.1352 38.5661ZM34.8223 42.3292C33.886 42.182 32.601 42.363 32.0135 42.7252C31.6815 42.9281 31.4295 43.2407 31.3002 43.6098C31.1709 43.9789 31.1724 44.3817 31.3044 44.7498C31.5361 45.3854 32.2198 45.702 33.0321 45.5548C34.5593 45.2826 35.3113 43.9274 34.8223 42.3338V42.3292Z" fill="#E33B5C"/>
<path d="M55.7525 48.6986C54.7224 48.6986 53.741 48.7138 52.7607 48.6811C52.6077 48.6811 52.4131 48.479 52.3238 48.3225C52.0481 47.8388 51.8128 47.3306 51.5614 46.8329L51.3215 46.6728C51.2057 46.875 51.1338 47.1086 50.982 47.2722C49.5232 48.8482 46.8986 49.4405 44.9021 48.6519C43.5117 48.1016 42.7816 47.0163 42.536 45.5782C42.4317 45.0436 42.4032 44.4969 42.4514 43.9543C42.7075 41.7766 43.7121 40.6118 45.9682 40.1375C47.3737 39.8419 48.8349 39.815 50.2717 39.6702C50.4791 39.6491 50.6889 39.6456 50.8858 39.634C51.2335 38.3488 50.3505 37.3406 48.9728 37.5521C47.9148 37.7145 46.887 38.0661 45.8442 38.3407C45.6623 38.3897 45.4896 38.475 45.2567 38.565C44.7932 37.5135 44.354 36.496 43.8407 35.3207C44.8627 35.0204 45.8013 34.6699 46.77 34.4772C48.5568 34.1208 50.3621 33.9585 52.1686 34.4001C54.4026 34.9456 55.7444 36.5544 55.7803 38.8617C55.8302 41.9764 55.8023 45.0922 55.8047 48.208C55.8081 48.3411 55.7769 48.4755 55.7525 48.6986ZM50.2103 42.1878C49.5591 42.3432 48.8789 42.4215 48.2659 42.6727C47.4629 42.9998 47.142 43.9099 47.4224 44.7288C47.6541 45.4041 48.3841 45.73 49.2474 45.5466C50.4339 45.2908 51.0643 44.4601 51.0712 43.1423C51.0747 42.2614 51.0747 42.2614 50.2103 42.1878Z" fill="#E33B5C"/>
<path d="M23.1527 48.6963C21.6568 48.6963 20.1759 48.7033 18.6939 48.6822C18.5896 48.6822 18.4471 48.4942 18.3961 48.3645C18.3451 48.2348 18.3764 48.0584 18.3764 47.903C18.3764 42.2618 18.3764 36.6201 18.3764 30.9781C18.3764 30.2047 18.3764 30.2036 19.133 30.2024C20.33 30.2024 21.5258 30.2024 22.7251 30.2024C23.038 30.2024 23.235 30.248 23.235 30.6382C23.2226 36.5902 23.2156 42.5429 23.2141 48.4965C23.1998 48.5648 23.1792 48.6317 23.1527 48.6963Z" fill="#E33B5C"/>
</svg>
