<svg width="58" height="80" viewBox="0 0 58 80" fill="none" xmlns="http://www.w3.org/2000/svg">
<path d="M0 63.5074C5.44493 57.93 10.8041 52.287 16.3403 46.8136C26.3065 36.9615 36.3382 27.1815 46.4354 17.4736C47.0742 16.8578 48.2467 16.1572 48.9076 16.357C49.5685 16.5568 50.2405 17.7691 50.3898 18.6257C52.7652 32.2024 55.0604 45.7928 57.3723 59.3805C57.5797 60.6065 57.776 61.8435 58 63.2118C57.5022 63.5156 56.9934 63.855 56.4597 64.1588C48.3683 68.7482 40.2549 73.2993 32.1939 77.9407C29.7632 79.3392 27.5371 79.3775 25.0954 77.9626C16.9929 73.2664 8.84071 68.6579 0.710641 64.0055C0.460071 63.8594 0.222388 63.6928 0 63.5074Z" fill="#E43C5C"/>
<path d="M36.2891 23.2591L1.24414 57.8317C3.29048 54.1974 5.35339 50.511 7.43845 46.8357C13.8264 35.5678 20.2309 24.3091 26.6519 13.0595C27.0944 12.2877 28.0899 11.2286 28.7066 11.3025C29.503 11.3983 30.4045 12.3698 30.8691 13.1853C32.7827 16.546 34.5442 19.9915 36.2891 23.2591Z" fill="#E43C5C"/>
<path d="M1.87207 50.1661C2.60949 45.4882 3.34691 40.813 4.08433 36.1405C5.78778 25.2978 7.47735 14.4523 9.22227 3.61773C9.4352 2.28497 9.10062 0.440437 10.9727 0.0600376C12.9306 -0.342256 13.185 1.54879 13.8487 2.72557C16.2066 6.98933 18.511 11.2768 20.762 15.588C21.0385 16.1353 21.0911 17.0658 20.8063 17.5776C14.7557 28.3711 8.66461 39.1427 2.53295 49.8924C2.43221 50.0339 2.31632 50.1641 2.18729 50.281L1.87207 50.1661Z" fill="#E43C5C"/>
</svg>
