<svg width="119" height="118" viewBox="0 0 119 118" fill="none" xmlns="http://www.w3.org/2000/svg">
<path d="M118 74.7986C117.752 74.8231 117.74 75.0429 117.694 75.2078C116.803 77.5865 115.086 79.1774 112.826 80.2125C109.773 81.6049 106.651 82.9148 103.585 84.3133C102.474 84.8202 101.619 84.6462 100.892 83.7026C100.666 82.1759 100.874 81.7759 102.291 81.1438C105.308 79.8003 108.319 78.4506 111.342 77.1223C112.258 76.7385 113.069 76.1406 113.706 75.3788C114.445 74.478 114.763 73.4765 114.414 72.3009C113.779 70.1421 111.929 69.2962 109.366 70.0596C102.306 72.1604 95.2544 74.2826 88.1939 76.3712C87.6883 76.5026 87.2516 76.8214 86.9723 77.2628C85.5126 79.4247 83.4665 80.2613 80.9501 79.672C76.7693 78.698 72.6039 77.675 68.4292 76.6582C67.2077 76.3529 66.6335 75.559 66.8534 74.5574C67.0733 73.5559 68.0047 73.0551 69.2782 73.3604C73.3398 74.3376 77.3984 75.3269 81.4601 76.2979C83.0878 76.6857 84.1109 76.0353 84.514 74.4108C84.9171 72.7864 84.3002 71.3818 82.6541 70.71C78.2291 68.8993 73.8254 67.0458 69.3148 65.4427C66.2396 64.3557 63.0574 64.832 59.9181 64.8534C56.7787 64.8748 53.6576 65.342 50.6893 66.6275C47.2476 68.1145 44.2059 70.2672 40.984 72.1238C40.4588 72.4291 40.6787 72.71 40.8314 73.0398C43.0943 77.9712 45.3694 82.8996 47.6171 87.8401C47.8491 88.3531 48.0507 88.521 48.6157 88.2737C49.6906 87.8035 50.7931 87.376 51.9047 86.9974C56.9436 85.2782 61.9825 84.8752 67.0641 86.9119C69.4584 87.8737 71.8465 88.8478 74.256 89.773C75.6847 90.3604 77.2193 90.6466 78.7638 90.6135C80.3082 90.5804 81.8291 90.2287 83.2313 89.5806C86.7982 87.9775 90.3927 86.4447 93.9443 84.808C95.0865 84.2828 95.9721 84.3775 96.7661 85.3363C96.9829 86.9424 96.7661 87.3271 95.3002 87.9867C91.6356 89.6203 87.9709 91.2692 84.2635 92.8723C80.5561 94.4754 76.861 94.4265 73.1475 93.0402C70.9426 92.226 68.76 91.3476 66.5999 90.4051C62.0833 88.4325 57.5696 88.7104 53.0316 90.2676C52.7262 90.3806 52.3903 90.4967 52.0696 90.6188C51.2878 90.9242 50.3289 91.028 49.7731 91.5593C49.0585 92.2463 50.0785 92.9914 50.1823 93.7608C50.4266 95.8372 49.5288 97.7304 47.6049 98.6709C45.7725 99.5869 43.9066 100.439 42.0254 101.245C41.3169 101.55 41.1276 101.779 41.4788 102.546C43.0057 105.883 42.1781 107.969 38.8189 109.502C33.7067 111.83 28.5985 114.165 23.4945 116.506C20.746 117.761 18.4709 116.928 17.2035 114.173C11.9631 102.827 6.74095 91.4738 1.53715 80.1148C0.315603 77.4643 1.20124 75.1345 3.87643 73.9009C9.14945 71.4581 14.4265 69.0347 19.7077 66.6305C22.4867 65.3572 24.8993 66.1969 26.0659 69.0123C26.5301 70.1176 26.9454 70.1604 27.8982 69.6627C29.5839 68.7924 31.3277 68.0351 33.0654 67.2779C35.1145 66.3863 37.1453 66.8229 38.5074 68.5481C39.0235 69.2046 39.3838 69.1588 39.9702 68.7649C41.8025 67.5924 43.5921 66.3924 45.4671 65.3236C50.0663 62.7221 54.9555 61.293 60.2662 61.3877C63.4514 61.4426 66.6794 60.9632 69.7851 61.9984C74.7171 63.6534 79.5026 65.6931 84.2941 67.7054C85.2084 68.0673 86.0156 68.6557 86.6401 69.4152C87.2645 70.1748 87.6857 71.0805 87.8641 72.0474C87.9771 72.5787 88.0656 72.8444 88.7313 72.6581C95.0926 70.7405 101.472 68.8779 107.833 66.9603C109.272 66.5267 110.71 66.1817 112.206 66.4321C115.181 66.9328 116.986 68.7436 117.786 71.623C117.835 71.794 117.786 72.0138 118.015 72.0841L118 74.7986ZM38.7242 104.885C38.6509 104.705 38.5379 104.381 38.3974 104.073C33.3076 92.9578 28.2178 81.842 23.1281 70.7253C22.4867 69.3268 22.2669 69.2443 20.8804 69.8825L5.65988 76.8659C4.29175 77.4949 4.22152 77.675 4.83229 79.0033C7.29779 84.3897 9.76531 89.775 12.2349 95.1594C14.8816 100.924 17.5283 106.685 20.1749 112.442C20.7857 113.761 20.9598 113.828 22.2333 113.251C23.1494 112.842 24.0351 112.436 24.9329 112.03C29.2083 110.065 33.4838 108.1 37.7592 106.134C38.2631 105.908 38.773 105.718 38.7242 104.885ZM46.6978 94.3807C46.7467 94.167 46.5727 93.9441 46.4627 93.7059C43.0546 86.2594 39.6424 78.814 36.2261 71.3696C35.6795 70.1818 35.2886 70.0504 34.0884 70.6001C32.3599 71.3818 30.6589 72.2215 28.8968 72.9513C28.167 73.2566 28.1608 73.562 28.4632 74.2063C29.9229 77.2933 31.3338 80.4018 32.7569 83.5042C34.9252 88.2249 37.0955 92.9445 39.2678 97.6632C39.4266 98.0052 39.4357 98.6312 40.1626 98.2739C42.0804 97.3579 44.0135 96.4815 45.9435 95.596C46.1889 95.5096 46.3974 95.342 46.5345 95.1211C46.6717 94.9001 46.7293 94.6389 46.6978 94.3807Z" fill="#040304"/>
<path d="M118 30.7003C117.487 31.5675 117.56 32.5751 117.355 33.5126C114.457 46.7128 102.239 55.9649 88.7803 55.1038C87.8336 55.0458 86.8441 55.0214 85.9646 54.7191C83.662 53.9374 81.4632 54.7466 79.2461 54.9878C66.6244 56.3619 54.4425 48.5571 50.3748 36.4561C49.069 32.5908 48.6381 28.4838 49.1133 24.4317C49.5884 20.3796 50.9578 16.4836 53.1225 13.0252C55.2872 9.56673 58.1931 6.63222 61.6303 4.43362C65.0675 2.23501 68.9502 0.827212 72.9979 0.311903C73.178 0.287475 73.3888 0.336324 73.4499 0.0859375H79.1636C80.0493 0.501213 81.054 0.3516 81.961 0.647789C83.8575 1.25849 85.6042 0.519534 87.3877 0.0859375H93.3306C93.3916 0.336324 93.6024 0.284415 93.7825 0.30579C98.5674 0.84141 103.118 2.66265 106.951 5.57613C108.087 6.42195 108.215 6.95936 107.672 8.32427C106.707 9.17925 105.8 9.04184 104.816 8.28458C102.615 6.59192 100.117 5.32539 97.4502 4.55016C94.9873 3.79349 92.4147 3.45596 89.84 3.55166C92.0935 4.86174 94.1689 6.45657 96.0149 8.29679C98.9069 11.1915 100.901 14.642 102.446 18.3947C102.529 18.7245 102.596 19.0604 102.697 19.384C103.721 22.6579 104.135 26.0921 103.918 29.5155C103.763 32.0408 103.127 34.4561 102.462 36.8745C102.346 37.1065 102.205 37.3325 102.11 37.5768C100.469 41.8058 97.8114 45.5654 94.3719 48.5236C93.0466 49.6839 91.5715 50.6396 89.8247 51.7633C96.8486 51.6656 102.675 49.464 107.439 44.667C107.58 44.5418 107.73 44.4288 107.861 44.2914C111.62 40.3875 113.949 35.3276 114.469 29.9334C114.989 24.5393 113.67 19.1278 110.725 14.5778C109.831 13.1732 109.834 12.8068 110.756 11.6404C112.142 11.1274 112.652 11.274 113.446 12.4709C115.097 14.9788 116.335 17.7356 117.111 20.636C117.465 21.9307 117.493 23.2956 118.009 24.5475L118 30.7003ZM78.507 51.5496C79.0354 51.519 79.5729 51.5282 80.0951 51.4519C98.061 48.7281 106.664 27.5216 95.6301 13.0969C91.3303 7.48456 85.6409 4.22343 78.504 3.68601C76.1036 3.26768 73.7216 3.54555 71.3854 4.05854C61.045 6.32729 53.163 15.2313 52.4331 25.3933C51.633 36.5569 57.8018 46.3678 68.1147 50.2182C71.4587 51.4641 74.9218 52.0442 78.507 51.5496Z" fill="#040304"/>
<path d="M96.7207 85.3272C95.9267 84.3684 95.041 84.2737 93.8989 84.7989C90.3472 86.4356 86.7529 87.9684 83.1859 89.5715C81.7837 90.2197 80.2628 90.5713 78.7183 90.6044C77.1739 90.6375 75.6393 90.3514 74.2106 89.7639C71.8011 88.8479 69.4129 87.8646 67.0187 86.9028C61.9523 84.8661 56.8982 85.2692 51.8593 86.9883C50.7477 87.3669 49.6452 87.7944 48.5702 88.2646C48.0053 88.512 47.8038 88.344 47.5717 87.831C45.324 82.8905 43.0488 77.9621 40.7859 73.0307C40.6332 72.701 40.4133 72.42 40.9386 72.1147C44.1605 70.2582 47.2021 68.1055 50.6438 66.6184C53.6122 65.3329 56.6997 64.8596 59.8726 64.8443C63.0456 64.8291 66.1942 64.3466 69.2694 65.4336C73.78 67.0245 78.1837 68.8902 82.6087 70.7009C84.2548 71.3727 84.8717 72.7437 84.4685 74.4018C84.0654 76.0598 83.0515 76.6766 81.4147 76.2888C77.353 75.3178 73.2944 74.3285 69.2328 73.3514C67.9593 73.046 67.0309 73.5101 66.808 74.5483C66.5851 75.5865 67.1622 76.3499 68.3838 76.6491C72.5554 77.6659 76.7208 78.6889 80.9047 79.6629C83.421 80.2523 85.4672 79.4156 86.9269 77.2537C87.2062 76.8123 87.6429 76.4935 88.1485 76.3621C95.209 74.2735 102.26 72.1513 109.321 70.0505C111.883 69.2872 113.734 70.133 114.369 72.2918C114.717 73.4674 114.4 74.4689 113.661 75.3697C113.023 76.1315 112.213 76.7294 111.297 77.1133C108.273 78.4415 105.262 79.7912 102.245 81.1347C100.828 81.7668 100.62 82.1515 100.846 83.6935C99.4386 84.0936 98.211 85.0249 96.7207 85.3272Z" fill="#FDCCBC"/>
<path d="M38.7239 104.885C38.7728 105.718 38.2628 105.908 37.765 106.137C33.4896 108.097 29.2141 110.063 24.9387 112.033C24.0409 112.445 23.14 112.851 22.2391 113.254C20.9656 113.832 20.7885 113.764 20.1808 112.445C17.5341 106.686 14.8874 100.925 12.2407 95.1625C9.76709 89.7802 7.29956 84.3948 4.83814 79.0064C4.22736 77.669 4.29759 77.4797 5.66573 76.869L20.8863 69.8856C22.2727 69.2474 22.4926 69.3299 23.1339 70.7284C28.2237 81.8431 33.3135 92.9589 38.4033 104.076C38.5376 104.381 38.6506 104.705 38.7239 104.885Z" fill="#004999"/>
<path d="M46.6983 94.3804C46.7314 94.6392 46.6749 94.9015 46.5383 95.1237C46.4016 95.3459 46.1929 95.5146 45.947 95.6018C44.017 96.4873 42.0839 97.3667 40.166 98.2797C39.4392 98.6278 39.43 98.0018 39.2712 97.669C37.0908 92.9544 34.9205 88.2347 32.7604 83.5099C31.3373 80.4076 29.9264 77.2991 28.4666 74.212C28.1613 73.5708 28.1613 73.2624 28.9003 72.9571C30.6502 72.2273 32.3512 71.3876 34.0919 70.6059C35.3134 70.0562 35.6921 70.1875 36.2296 71.3754C39.6459 78.8177 43.058 86.2632 46.4662 93.7117C46.573 93.9437 46.7471 94.1666 46.6983 94.3804Z" fill="#E43C5C"/>
<path d="M78.504 3.68555C85.6409 4.22296 91.3303 7.4841 95.6301 13.0964C106.676 27.5211 98.0732 48.7277 80.0951 51.4514C79.5728 51.5277 79.0353 51.5186 78.507 51.5491C78.2658 51.1644 77.8352 51.0636 77.4656 50.8895C74.7472 49.6061 72.2876 47.8342 70.2096 45.662C64.1935 39.4328 61.837 32.0485 63.1399 23.5088C64.276 16.0675 68.2033 10.4185 74.2866 6.1314C75.6303 5.18482 77.2183 4.70236 78.504 3.68555ZM81.4845 32.9991C81.4845 34.5778 80.4951 35.8083 78.7575 36.3732C75.9693 37.2893 73.0895 36.4282 71.1533 34.1259C70.344 33.164 69.3973 32.993 68.5789 33.6617C67.8062 34.2877 67.7268 35.2587 68.4353 36.1992C69.6612 37.9229 71.4603 39.1546 73.5109 39.6741C74.54 39.9214 74.9065 40.3519 74.7508 41.3657C74.6984 41.8199 74.7087 42.2792 74.7813 42.7306C74.8912 43.5581 75.4532 43.9978 76.2258 44.1322C77.3221 44.3245 78.1314 43.4176 78.168 42.0191C78.2169 40.1718 78.223 40.187 79.8904 39.5947C80.466 39.4004 81.019 39.1444 81.5395 38.8313C83.7597 37.4328 85.0026 35.4724 84.8988 32.7732C84.795 30.0739 83.5093 28.1929 81.1333 26.9715C80.3837 26.603 79.6004 26.3074 78.7941 26.089C77.1481 25.6219 75.5295 25.0722 74.1064 24.0799C71.9687 22.5806 72.0298 20.5775 74.2927 19.1943C74.9441 18.7962 75.686 18.5702 76.4487 18.5378C78.4032 18.437 79.9759 19.2798 81.4113 20.4889C82.4221 21.3409 83.4421 21.3683 84.1231 20.5714C84.8041 19.7744 84.6758 18.7973 83.6528 17.8965C82.3337 16.679 80.7271 15.8164 78.9834 15.3896C78.3207 15.24 78.1131 14.9591 78.1497 14.3087C78.2023 13.665 78.1705 13.0173 78.055 12.3819C78.0271 12.181 77.9594 11.9878 77.8559 11.8134C77.7524 11.6389 77.6152 11.4869 77.4523 11.3661C77.2894 11.2453 77.1041 11.1581 76.9071 11.1097C76.7102 11.0613 76.5055 11.0526 76.3052 11.0842C75.8974 11.0889 75.5075 11.2528 75.2188 11.5409C74.9302 11.829 74.7655 12.2184 74.7599 12.6262C74.7107 13.2359 74.7107 13.8486 74.7599 14.4583C74.8118 15.069 74.6286 15.414 73.9903 15.6064C72.8599 15.9627 71.8392 16.6017 71.025 17.4629C68.3682 20.1592 68.4689 23.6676 71.2785 26.1868C72.363 27.1464 73.6173 27.8952 74.9768 28.3944C76.2899 28.8861 77.6458 29.2677 78.9468 29.7502C80.7516 30.4189 81.4754 31.3869 81.4845 33.0113V32.9991Z" fill="#FDDE2F"/>
<path d="M78.504 3.6858C77.2184 4.70262 75.6304 5.18507 74.2867 6.1286C68.2033 10.4035 64.2761 16.0647 63.14 23.5061C61.833 32.0558 64.1895 39.4402 70.2097 45.6592C72.292 47.834 74.7568 49.6071 77.481 50.8898C77.8505 51.0639 78.2811 51.1646 78.5224 51.5494C74.9371 52.044 71.474 51.4639 68.1392 50.218C57.8263 46.3676 51.6483 36.5567 52.4576 25.3931C53.1875 15.2311 61.0695 6.32708 71.4099 4.05833C73.7217 3.54534 76.1037 3.26747 78.504 3.6858Z" fill="#F9C500"/>
<path d="M108.435 9.17676C109.33 9.87601 109.996 10.789 110.741 11.6196C109.825 12.786 109.825 13.1463 110.71 14.557C113.654 19.1069 114.973 24.5185 114.453 29.9126C113.933 35.3068 111.605 40.3667 107.846 44.2706C107.714 44.408 107.565 44.521 107.424 44.6462C107.273 44.6223 107.129 44.5667 107.001 44.483C106.873 44.3993 106.765 44.2895 106.682 44.1607C104.926 41.9255 103.369 39.5804 102.446 36.8536C103.112 34.4353 103.747 32.02 103.903 29.4947C104.12 26.0713 103.706 22.6371 102.682 19.3632C102.581 19.0395 102.514 18.7037 102.431 18.3739C102.84 17.2813 103.318 16.2156 103.86 15.183C105.1 12.9539 106.707 11.0211 108.435 9.17676Z" fill="#FDDE2F"/>
<path d="M108.435 9.17582C106.707 11.0079 105.1 12.953 103.876 15.1882C103.333 16.2208 102.856 17.2865 102.447 18.3791C100.92 14.6263 98.9072 11.1759 96.0151 8.28115C94.1657 6.44351 92.0873 4.85175 89.8311 3.54517C92.4058 3.44947 94.9784 3.787 97.4413 4.54366C100.108 5.3189 102.606 6.58544 104.807 8.27809C105.791 9.03536 106.698 9.17277 107.663 8.31779L108.435 9.17582Z" fill="#F9C500"/>
<path d="M102.446 36.8589C103.363 39.5796 104.926 41.9307 106.682 44.1659C106.765 44.2947 106.873 44.4045 107.001 44.4882C107.129 44.5719 107.273 44.6275 107.424 44.6514C102.66 49.4484 96.8426 51.65 89.8096 51.7477C91.5564 50.624 93.0314 49.6683 94.3568 48.508C97.7962 45.5498 100.454 41.7902 102.095 37.5612C102.19 37.3047 102.33 37.091 102.446 36.8589Z" fill="#F9C500"/>
<path d="M81.485 33.0121C81.485 31.3877 80.752 30.4197 78.9625 29.7632C77.6462 29.2808 76.2903 28.8991 74.9924 28.4075C73.633 27.9082 72.3787 27.1595 71.2942 26.1998C68.4846 23.6807 68.3839 20.1722 71.0407 17.4759C71.8549 16.6147 72.8756 15.9757 74.006 15.6194C74.6443 15.4271 74.8275 15.0942 74.7756 14.4713C74.7264 13.8616 74.7264 13.2489 74.7756 12.6392C74.7812 12.2314 74.9458 11.842 75.2345 11.5539C75.5232 11.2658 75.913 11.1019 76.3209 11.0972C76.5212 11.0657 76.7258 11.0743 76.9228 11.1227C77.1198 11.1711 77.3051 11.2583 77.468 11.3791C77.6309 11.4999 77.7681 11.652 77.8716 11.8264C77.9751 12.0008 78.0428 12.1941 78.0708 12.3949C78.1862 13.0303 78.218 13.6781 78.1654 14.3217C78.1288 14.9721 78.3364 15.253 78.9991 15.4026C80.7428 15.8294 82.3494 16.6921 83.6685 17.9095C84.6915 18.8103 84.8442 19.763 84.1388 20.5844C83.4334 21.4058 82.4378 21.3539 81.427 20.502C79.9916 19.2806 78.4189 18.45 76.4644 18.5508C75.7017 18.5833 74.9597 18.8092 74.3084 19.2073C72.0454 20.5783 71.9691 22.5814 74.1221 24.0929C75.5452 25.0853 77.1759 25.6349 78.8098 26.1021C79.616 26.3205 80.3994 26.616 81.149 26.9845C83.525 28.1907 84.8137 30.0899 84.9145 32.7862C85.0152 35.4824 83.7723 37.4458 81.5552 38.8443C81.0346 39.1575 80.4817 39.4134 79.9061 39.6077C78.2387 40.2001 78.2326 40.1848 78.1837 42.0322C78.1471 43.4307 77.3378 44.3376 76.2414 44.1452C75.4688 44.0108 74.9069 43.5711 74.797 42.7436C74.7243 42.2922 74.7141 41.8329 74.7664 41.3787C74.9222 40.365 74.5557 39.9344 73.5266 39.6871C71.4744 39.1727 69.6721 37.9454 68.4419 36.2244C67.7334 35.2839 67.8128 34.3129 68.5854 33.687C69.4038 33.0182 70.3506 33.1892 71.1598 34.1511C73.096 36.4534 75.9758 37.3054 78.764 36.3985C80.4955 35.8214 81.4911 34.5908 81.485 33.0121Z" fill="#040304"/>
</svg>
