<svg width="120" height="120" viewBox="0 0 120 120" fill="none" xmlns="http://www.w3.org/2000/svg">
<path d="M119 31.4216H77.2319V16.2955H88.5488V27.5609H92.3375V8.69965H103.802V27.5882H107.498C107.554 27.3255 107.59 27.059 107.607 26.7909C107.607 18.4179 107.607 10.0448 107.607 1.67175C107.592 1.44412 107.561 1.21785 107.514 0.994629H119.038L119 31.4216ZM115.108 27.5991V4.87717H111.455V27.5991H115.108ZM99.8875 12.5276H96.2681V27.5718H99.8875V12.5276ZM84.651 27.61V20.118H81.0534V27.61H84.651Z" fill="#014999"/>
<path d="M20.1341 1C21.9138 1.54607 23.7918 1.90101 25.4678 2.68735C29.1565 4.41305 32.1026 7.40709 33.769 11.1238C35.4355 14.8405 35.7113 19.0324 34.5464 22.9356C34.4699 23.1868 34.4263 23.4489 34.3444 23.8202H73.2683V27.6427H71.8489C59.1108 27.6427 46.36 27.6427 33.5965 27.6427C33.2246 27.6118 32.8511 27.6787 32.5131 27.8367C32.175 27.9948 31.8842 28.2385 31.6694 28.5437C29.4436 31.4716 26.3298 33.5997 22.794 34.6096C19.2581 35.6196 15.4904 35.4571 12.0546 34.1464C8.62172 32.831 5.69987 30.451 3.7166 27.3549C1.73332 24.2588 0.792753 20.6091 1.03253 16.9397C1.3142 13.0773 2.89105 9.42313 5.50772 6.56888C8.12439 3.71462 11.6277 1.82745 15.4502 1.21297C15.7093 1.15867 15.9646 1.08752 16.2145 1H20.1341ZM4.84848 18.0865C4.83821 21.6005 6.21723 24.976 8.68488 27.477C11.1525 29.9781 14.5086 31.4019 18.0215 31.4379C19.7705 31.4537 21.5055 31.1247 23.1273 30.4697C24.7492 29.8146 26.2261 28.8463 27.4738 27.6201C28.7214 26.3939 29.7153 24.9339 30.3987 23.3234C31.082 21.7128 31.4415 19.9834 31.4565 18.2339C31.4716 16.4834 31.1409 14.7472 30.4833 13.125C29.8257 11.5027 28.8542 10.0263 27.6246 8.78068C26.3951 7.53502 24.9316 6.54458 23.3182 5.86626C21.7049 5.18793 19.9735 4.83507 18.2234 4.82795C16.4723 4.81354 14.7357 5.14565 13.1134 5.80517C11.4911 6.46468 10.0151 7.4386 8.77055 8.67084C7.52596 9.90309 6.53726 11.3694 5.86135 12.9853C5.18543 14.6012 4.83564 16.3348 4.8321 18.0865H4.84848Z" fill="#014999"/>
<path d="M119 98.9537C118.372 103.355 115.566 106.375 112.449 109.187C112.063 109.491 111.761 109.888 111.57 110.341C111.379 110.793 111.306 111.287 111.357 111.775C111.436 112.769 111.366 113.768 111.15 114.741C110.836 116.021 110.082 117.15 109.018 117.928C107.954 118.706 106.65 119.084 105.336 118.994C104.022 118.913 102.777 118.379 101.812 117.483C100.848 116.587 100.224 115.384 100.046 114.08C99.9594 113.704 99.9318 113.317 99.9638 112.933C100.351 110.885 99.4179 109.493 97.9385 108.188C95.9513 106.435 94.117 104.507 93.1835 101.93C90.0718 93.5313 95.9677 85.029 105.134 84.7177C112.231 84.4774 117.346 88.4965 118.82 95.437C118.863 95.5404 118.922 95.6362 118.994 95.721L119 98.9537ZM107.645 107.8C108.188 107.623 108.704 107.374 109.179 107.057C110.462 105.845 111.728 104.611 112.918 103.306C114.362 101.71 115.17 99.6402 115.189 97.4882C115.208 95.3362 114.437 93.252 113.022 91.6309C110.92 89.2009 108.191 88.4201 105.068 88.5511C101.247 88.7095 98.4298 90.4351 96.9176 93.9299C95.4054 97.4247 96.0878 100.772 98.7082 103.612C99.8001 104.797 100.952 105.932 102.137 107.019C102.625 107.335 103.156 107.577 103.714 107.74V99.9148H100.04V96.2671H111.313V99.9858H107.645V107.8ZM107.568 111.453H103.813C103.856 112.687 103.338 114.053 104.653 114.806C104.966 114.955 105.306 115.034 105.652 115.039C105.998 115.043 106.341 114.973 106.657 114.833C108.011 114.107 107.476 112.715 107.568 111.453Z" fill="#E43B5C"/>
<path d="M92.2827 107.582V111.404H90.7869C66.9031 111.404 43.0192 111.355 19.1353 111.448C15.1938 111.448 12.1039 108.963 12.426 104.819C12.4245 104.474 12.4026 104.129 12.3604 103.787H5.55832C2.40838 103.787 1.00537 102.372 1.00537 99.2105V70.1815C1.00537 67.1563 2.41931 65.742 5.43277 65.742H11.9838C12.1075 65.7238 12.2298 65.6964 12.3495 65.6601C12.3495 65.1795 12.4041 64.6608 12.4151 64.142C12.4806 60.4833 14.7734 58.1353 18.4201 58.1353C24.9711 58.1353 31.5494 58.1353 38.1168 58.1353C38.3789 58.1353 38.6627 58.1626 38.9794 58.1789V61.9031H19.4519C16.5312 61.9031 15.9089 62.6458 16.3456 65.7529H23.186C26.2049 65.7529 27.6461 67.1672 27.6461 70.1815C27.6461 79.8979 27.6461 89.6125 27.6461 99.3252C27.6461 102.318 26.1667 103.792 23.2024 103.798L16.5203 103.825C16.4548 103.825 16.3893 103.879 16.2201 103.956C16.182 104.583 16.182 105.212 16.2201 105.84C16.2375 106.288 16.423 106.713 16.7396 107.031C17.0562 107.349 17.4807 107.536 17.9288 107.554C18.4256 107.604 18.9224 107.593 19.4246 107.593H92.25L92.2827 107.582ZM23.7647 99.8931V69.5536H4.89776V99.8931H23.7647Z" fill="#014999"/>
<path d="M74.1803 54.269H77.0136V65.7364H74.1421L74.0492 65.9876L76.1292 67.6804L67.7603 76.0353C67.3454 75.4892 66.7558 74.6755 66.1662 73.8837L65.7841 74.1349V77.0291H54.3034V73.8947L52.3381 76.1281L43.9856 67.7569L46.142 66.1733L45.8909 65.8019H43.0029V54.3345H45.8745L45.9727 54.0888L43.8818 52.3959L52.2781 44.0247L53.8612 46.1762L54.2379 45.925V42.9653H65.7022V45.7885L66.0079 46.0015L67.5365 43.7025L76.0091 52.2485L73.8691 53.8485L74.1803 54.269ZM70.6809 68.0517C70.4626 67.8115 70.2715 67.5766 70.0641 67.3637C68.0005 65.2613 68.0005 65.2613 69.207 62.6074C69.207 62.5692 69.207 62.5146 69.2452 62.4982C69.5563 62.2907 69.8566 61.9522 70.1842 61.9139C71.1996 61.8375 72.2259 61.8866 73.274 61.8866V58.1788C72.9028 58.1515 72.6026 58.1187 72.3023 58.1187C69.3762 58.0805 69.3544 58.086 68.3608 55.3065C68.3093 55.1105 68.3032 54.9053 68.3429 54.7066C68.3827 54.5079 68.4672 54.3209 68.5901 54.1597C69.3107 53.4389 70.146 52.8273 70.8666 52.2321L68.066 49.327C67.8203 49.5455 67.5911 49.7366 67.3781 49.9441C65.2654 52.0192 65.2545 52.041 62.6287 50.7741C62.4417 50.6576 62.2821 50.5022 62.1606 50.3184C62.0391 50.1347 61.9585 49.9269 61.9244 49.7093C61.8262 48.7318 61.8917 47.7434 61.8917 46.7387H58.1794C58.1794 47.11 58.1248 47.4103 58.1194 47.7107C58.0812 50.6267 58.1194 50.6485 55.3079 51.6533C55.1118 51.7061 54.9059 51.7124 54.7069 51.6717C54.5079 51.6309 54.3211 51.5442 54.1615 51.4185C53.4409 50.6977 52.8295 49.8622 52.2344 49.1468L49.3356 51.9536C49.5485 52.1884 49.7396 52.4178 49.9525 52.6308C52.016 54.7386 52.016 54.7386 50.8041 57.3979C50.8041 57.4307 50.8041 57.4853 50.7659 57.5017C50.4547 57.7092 50.1544 58.0478 49.8269 58.086C48.806 58.1624 47.7852 58.1133 46.666 58.1133V61.8211C47.1082 61.8484 47.4085 61.8812 47.7087 61.8866C50.6458 61.9248 50.6622 61.9139 51.6557 64.6934C51.7073 64.8898 51.7129 65.0953 51.6722 65.2942C51.6315 65.4931 51.5455 65.6799 51.421 65.8402C50.697 66.5206 49.939 67.164 49.15 67.7678L51.956 70.6674C52.1962 70.4544 52.4255 70.2633 52.6384 70.0558C54.7511 67.9807 54.762 67.9589 57.3879 69.2203C57.5765 69.3409 57.7366 69.501 57.8573 69.6895C57.9779 69.8781 58.0562 70.0906 58.0866 70.3125C58.1849 71.2845 58.1194 72.2783 58.1194 73.2885H61.8262C61.8262 72.9172 61.8808 72.6169 61.8862 72.3165C61.9244 69.4551 61.9299 69.477 64.5776 68.3794C65.1617 68.1391 65.5602 68.1282 65.9642 68.6579C66.5647 69.4387 67.2089 70.1869 67.7657 70.8694L70.6809 68.0517Z" fill="#014999"/>
<path d="M96.1697 35.3477H99.8929C99.8929 35.7845 99.9529 36.1613 99.9529 36.5326C99.9529 42.867 99.9529 49.2032 99.9529 55.5413C99.9529 59.6368 97.7037 61.8811 93.6203 61.8866C89.8207 61.8866 86.0193 61.8866 82.2161 61.8866H81.0205V58.1133H93.6585C95.5092 58.1133 96.1697 57.4525 96.1697 55.6177C96.1697 49.3197 96.1697 43.0218 96.1697 36.7238V35.3477Z" fill="#014999"/>
<path d="M94.4993 75.9207L98.0095 74.4626L100.914 81.4796L97.4308 82.9431C96.4209 80.5568 95.4765 78.2797 94.4993 75.9207Z" fill="#E43B5C"/>
<path d="M113.442 74.49L116.947 75.9535C115.981 78.2961 115.037 80.5677 114.043 82.9759L110.533 81.5233L113.442 74.49Z" fill="#E43B5C"/>
<path d="M107.487 80.8845H103.856V73.4033H107.487V80.8845Z" fill="#E43B5C"/>
<path d="M12.1093 18.7526L14.222 21.139L24.2778 11.0476L26.7726 13.7288L14.3039 26.1956L9.39062 21.2809L12.1093 18.7526Z" fill="#E43B5C"/>
<path d="M19.9979 73.425V77.0182H8.68652V73.425H19.9979Z" fill="#E43B5C"/>
<path d="M19.976 81.0264V84.6413H8.67554V81.0264H19.976Z" fill="#E43B5C"/>
<path d="M8.64819 92.2425V88.6494H19.9705V92.2425H8.64819Z" fill="#E43B5C"/>
<path d="M65.724 60.0083C65.7028 61.5203 65.0913 62.9641 64.0203 64.0313C62.9493 65.0986 61.5036 65.7046 59.9919 65.7202C58.4846 65.6946 57.0468 65.0817 55.9844 64.0119C54.922 62.9421 54.3189 61.4998 54.3035 59.9919C54.322 58.4799 54.9318 57.0354 56.0022 55.9677C57.0726 54.9 58.5185 54.2942 60.0301 54.28C61.5388 54.3028 62.9788 54.9146 64.0427 55.9849C65.1066 57.0552 65.71 58.4991 65.724 60.0083ZM61.8699 60.0083C61.8739 59.7585 61.8266 59.5105 61.7309 59.2797C61.6352 59.0489 61.4931 58.8403 61.3135 58.6667C61.1338 58.4931 60.9204 58.3583 60.6865 58.2707C60.4526 58.183 60.2032 58.1444 59.9537 58.1571C59.704 58.1574 59.4571 58.2088 59.228 58.3081C58.999 58.4075 58.7927 58.5527 58.6219 58.7348C58.451 58.9169 58.3193 59.1321 58.2347 59.3671C58.1502 59.6021 58.1147 59.8519 58.1304 60.1011C58.1404 60.5858 58.3418 61.0469 58.6906 61.3835C59.0394 61.7202 59.5073 61.905 59.9919 61.8977C60.2437 61.9048 60.4942 61.8597 60.7278 61.7654C60.9614 61.671 61.173 61.5295 61.3493 61.3495C61.5256 61.1696 61.6629 60.9551 61.7525 60.7196C61.842 60.4841 61.882 60.2327 61.8699 59.981V60.0083Z" fill="#014999"/>
</svg>
