<svg width="116" height="116" viewBox="0 0 116 116" fill="none" xmlns="http://www.w3.org/2000/svg">
<path d="M0 60.9452V55.0546C0.584531 53.0156 1.97564 51.9892 4.03282 51.6041C5.84532 51.2665 7.61251 50.6978 9.41368 50.2968C10.0934 50.145 10.3675 49.8437 10.5465 49.1504C11.1288 46.6967 11.7926 44.2634 12.5017 41.8438C12.6784 41.2411 12.6037 40.8967 12.1574 40.4844C10.5593 38.9891 8.98621 37.4673 7.43804 35.9192C5.96085 34.4465 5.72524 32.8243 6.71985 30.9756C7.39954 29.7159 8.11546 28.4834 8.85632 27.2509C10.0412 25.2979 11.5751 24.6975 13.7637 25.3024C15.8322 25.8756 17.9052 26.4352 19.9556 27.0719C20.5696 27.2599 20.8981 27.0968 21.315 26.6663C23.0686 24.8538 24.8448 23.0549 26.6664 21.3081C27.1558 20.8391 27.2283 20.4631 27.0357 19.8377C26.4058 17.7851 25.8327 15.7166 25.2708 13.6435C24.7089 11.5705 25.3501 10.0185 27.1648 8.90837C28.3883 8.16524 29.6253 7.44024 30.8895 6.76735C32.9286 5.68212 34.4669 5.93813 36.1005 7.59657C37.5799 9.10774 39.0458 10.6212 40.498 12.1641C40.9104 12.6036 41.2525 12.7033 41.8574 12.5198C44.2726 11.797 46.7036 11.1196 49.155 10.5351C49.8664 10.3652 50.1451 10.0661 50.2878 9.40227C50.7047 7.60563 51.2643 5.83618 51.6064 4.02594C51.9961 1.97555 53.0224 0.584463 55.0592 0.00219727H60.9498C62.9889 0.588994 64.0152 1.97555 64.4004 4.02821C64.7425 5.84071 65.3066 7.6079 65.7099 9.4068C65.8617 10.0729 66.1427 10.3697 66.8427 10.5396C69.2964 11.1196 71.7274 11.788 74.1494 12.4903C74.7407 12.6625 75.0896 12.6104 75.5088 12.155C77.0018 10.5555 78.5288 8.98313 80.0717 7.43344C81.5368 5.95777 83.1854 5.71459 85.0176 6.70391C86.312 7.3987 87.586 8.12974 88.8397 8.89704C90.6907 10.0298 91.2866 11.6158 90.6998 13.7477C90.1265 15.8185 89.567 17.8916 88.9326 19.942C88.7423 20.5559 88.9031 20.8845 89.3336 21.3013C91.1461 23.0572 92.9405 24.8334 94.6941 26.6505C95.1472 27.1263 95.5255 27.235 96.1622 27.0379C98.2012 26.4013 100.283 25.8303 102.354 25.2662C104.366 24.7202 105.945 25.3138 107.03 27.056C107.808 28.3051 108.545 29.5769 109.239 30.8713C110.316 32.8809 110.05 34.4692 108.41 36.0823C106.901 37.5617 105.388 39.0276 103.845 40.4799C103.405 40.8945 103.306 41.232 103.487 41.8392C104.205 44.2567 104.88 46.6877 105.463 49.1391C105.632 49.8505 105.916 50.1269 106.595 50.2719C108.392 50.6888 110.161 51.2438 111.969 51.5905C114.009 51.9847 115.411 53.0178 115.998 55.0501V60.9407C115.413 62.9798 114.027 64.0152 111.976 64.4094C110.127 64.7628 108.317 65.3156 106.487 65.7461C105.929 65.8798 105.637 66.0995 105.485 66.7384C104.883 69.2624 104.144 71.7545 103.525 74.2762C103.495 74.4923 103.51 74.7125 103.572 74.922C103.633 75.1314 103.739 75.3253 103.881 75.4906C105.381 77.0289 106.958 78.4948 108.487 80.0059C110.073 81.5624 110.3 83.1778 109.237 85.1285C108.576 86.3542 107.878 87.5641 107.155 88.7535C105.975 90.6997 104.436 91.3069 102.252 90.7065C100.213 90.1446 98.1741 89.5873 96.169 88.9642C95.5437 88.7739 95.163 88.8464 94.6963 89.3358C92.9518 91.1589 91.1695 92.9457 89.3494 94.6963C88.8669 95.1494 88.7762 95.5345 88.9711 96.1644C89.5896 98.1785 90.1379 100.218 90.6998 102.25C91.2866 104.389 90.6998 105.956 88.8533 107.105C87.6676 107.839 86.4593 108.538 85.2283 109.201C83.162 110.334 81.5534 110.073 79.9199 108.403C78.4427 106.894 76.9746 105.385 75.5201 103.843C75.1055 103.389 74.7656 103.308 74.1607 103.489C71.7455 104.207 69.3123 104.88 66.8609 105.465C66.1517 105.635 65.8685 105.929 65.7145 106.598C65.2976 108.394 64.738 110.164 64.3981 111.974C64.0107 114.029 62.9708 115.409 60.943 116H55.0524C53.0134 115.411 51.9848 114.029 51.5996 111.976C51.2507 110.127 50.6934 108.317 50.2606 106.487C50.1269 105.931 49.9026 105.641 49.2637 105.49C46.7398 104.885 44.2477 104.144 41.7283 103.525C41.5117 103.494 41.2909 103.51 41.081 103.572C40.8711 103.634 40.6769 103.74 40.5117 103.883C39.0775 105.274 37.7091 106.734 36.3157 108.17C34.3809 110.168 32.949 110.386 30.4772 109.022C29.3882 108.418 28.312 107.795 27.2487 107.153C25.3025 105.975 24.6885 104.434 25.2934 102.252C25.8531 100.213 26.4013 98.174 27.0357 96.1689C27.2623 95.4688 27.0719 95.0995 26.5826 94.6238C24.7882 92.9042 23.0346 91.137 21.3037 89.3516C20.8891 88.9234 20.5696 88.758 19.9443 88.9506C17.8577 89.5963 15.7506 90.1695 13.6413 90.7405C11.6453 91.2842 10.0367 90.6725 8.96507 88.9416C8.19022 87.6909 7.45465 86.4184 6.75835 85.124C5.67312 83.0985 5.93821 81.5398 7.59211 79.913C9.10328 78.4359 10.6145 76.9677 12.1574 75.5177C12.5991 75.1031 12.692 74.7656 12.5085 74.1584C11.779 71.7039 11.1106 69.2344 10.5034 66.7498C10.3516 66.1267 10.0911 65.873 9.51789 65.7348C7.72352 65.3066 5.95407 64.7515 4.14384 64.4139C2.05946 64.0333 0.598125 63.0387 0 60.9452ZM83.486 10.2406C81.5919 11.9284 79.7953 13.383 78.1754 15.0142C76.6937 16.5027 75.1372 16.8698 73.1457 16.2422C70.7079 15.4741 68.2248 14.8217 65.728 14.262C63.7434 13.8089 62.5176 12.7622 62.0645 10.7571C61.6114 8.75204 61.0337 6.74016 60.5737 4.71922C60.4265 4.07125 60.1478 3.84696 59.5044 3.87188C58.4871 3.9104 57.4653 3.91493 56.4481 3.87188C55.791 3.84016 55.5259 4.09844 55.3832 4.72149C54.9301 6.70618 54.3682 8.66595 53.9445 10.6574C53.4914 12.769 52.2249 13.8429 50.1406 14.2824C47.7111 14.8044 45.3095 15.4487 42.9449 16.2127C40.9059 16.872 39.3199 16.5299 37.8178 14.9916C36.2138 13.3467 34.4466 11.8605 32.6227 10.1862C31.832 10.6393 30.7423 11.319 29.6162 11.9149C29.0476 12.2207 28.9116 12.547 29.1065 13.1791C29.7341 15.1955 30.2778 17.2345 30.8805 19.2577C31.4356 21.1201 30.9598 22.6041 29.5211 23.934C27.6089 25.6944 25.7533 27.5318 24.002 29.4508C22.6132 30.971 21.0771 31.4423 19.1287 30.8442C17.1463 30.2347 15.1389 29.7113 13.1542 29.1155C12.5946 28.9456 12.248 28.9909 11.9557 29.5414C11.3327 30.6969 10.6507 31.8206 10.2248 32.5592C11.9263 34.442 13.4351 36.2363 15.0823 37.8948C16.4915 39.3131 16.8631 40.8242 16.2876 42.7296C15.5248 45.252 14.8451 47.7971 14.2485 50.3648C13.809 52.2566 12.7827 53.4438 10.8841 53.8992C8.83142 54.3885 6.80594 54.9459 4.73516 55.4126C4.09399 55.5599 3.85156 55.8385 3.87648 56.4797C3.93436 57.385 3.93436 58.2931 3.87648 59.1984C3.79265 60.1273 4.12571 60.5238 5.04782 60.7119C6.96907 61.1016 8.85407 61.6498 10.7685 62.0713C12.7736 62.5244 13.8339 63.7433 14.2757 65.7325C14.7864 68.1649 15.4262 70.5683 16.1924 72.9327C16.9061 75.0555 16.5526 76.6981 14.9395 78.2546C13.3264 79.8111 11.8402 81.5624 10.1953 83.3591C10.6484 84.1271 11.2851 85.1852 11.8673 86.2772C12.2027 86.9093 12.547 87.1087 13.2969 86.8685C15.2703 86.2341 17.2822 85.7357 19.2692 85.1308C21.1338 84.5712 22.6155 85.0402 23.9476 86.4902C25.739 88.4265 27.6051 90.2934 29.546 92.0908C30.9847 93.423 31.4582 94.9002 30.9054 96.767C30.3012 98.788 29.731 100.82 29.1948 102.864C29.111 103.183 29.1745 103.77 29.3806 103.901C30.5678 104.674 31.8184 105.349 32.5638 105.777C34.544 104.001 36.361 102.458 38.0738 100.807C39.4128 99.513 40.856 99.1822 42.6255 99.701C45.1902 100.453 47.7684 101.169 50.3694 101.774C52.3087 102.227 53.5005 103.274 53.9445 105.229C54.3886 107.184 54.955 109.174 55.4059 111.158C55.5667 111.867 55.859 112.191 56.6112 112.148C57.5165 112.092 58.4246 112.092 59.3299 112.148C60.1523 112.205 60.5285 111.922 60.7029 111.088C61.113 109.171 61.6681 107.286 62.0623 105.37C62.5154 103.26 63.766 102.171 65.8549 101.726C68.2525 101.232 70.6194 100.6 72.9441 99.8324C75.0624 99.1165 76.7005 99.4654 78.2637 101.081C79.827 102.696 81.592 104.146 83.4158 105.802C84.1657 105.367 85.2487 104.692 86.3792 104.101C87.0249 103.763 87.0589 103.38 86.8663 102.741C86.2388 100.725 85.6837 98.6883 85.0969 96.6606C84.5848 94.8866 85.0448 93.4502 86.4041 92.1724C88.3843 90.3145 90.3048 88.3956 92.1656 86.4154C93.4457 85.056 94.8844 84.6029 96.6561 85.1217C98.7223 85.7153 100.798 86.2545 102.855 86.8844C103.412 87.052 103.761 87.0339 104.058 86.4788C104.683 85.3234 105.363 84.1996 105.793 83.4542C104.094 81.576 102.59 79.7749 100.938 78.1232C99.5199 76.7072 99.1506 75.1983 99.726 73.2929C100.481 70.7705 101.161 68.2254 101.765 65.6577C102.218 63.7184 103.276 62.5357 105.231 62.0916C107.289 61.6249 109.337 61.0993 111.367 60.5284C111.548 60.4505 111.708 60.3306 111.834 60.1785C111.96 60.0264 112.047 59.8465 112.09 59.6538C112.178 58.6048 112.09 57.54 112.13 56.482C112.158 55.8023 111.865 55.5757 111.249 55.4375C109.269 54.9844 107.314 54.3931 105.327 53.9626C103.267 53.5095 102.18 52.2974 101.733 50.2538C101.227 47.8207 100.589 45.4171 99.8212 43.0536C99.1075 40.9239 99.4904 39.2972 101.104 37.7407C102.717 36.1842 104.171 34.4193 105.809 32.6181C105.356 31.8388 104.676 30.749 104.083 29.6207C103.775 29.043 103.442 28.941 102.816 29.1336C100.8 29.7612 98.7586 30.3027 96.7354 30.9031C94.9229 31.4423 93.4548 31.0005 92.1452 29.6003C90.3191 27.6451 88.4251 25.7488 86.4676 23.9204C85.0697 22.6177 84.5871 21.1654 85.1195 19.3416C85.7222 17.2799 86.2773 15.2023 86.9003 13.1474C87.0725 12.5741 86.9842 12.2411 86.4472 11.9556C85.3167 11.3281 84.2178 10.6642 83.486 10.2406Z" fill="#004999"/>
<path d="M58.0295 19.3144C36.7666 19.2509 19.4074 36.5331 19.3168 57.8504C19.2261 78.9547 36.5785 96.5654 57.565 96.6673C79.1451 96.7738 96.6471 79.4327 96.6788 57.9252C96.7105 36.6804 79.3875 19.3756 58.0295 19.3144ZM85.0629 79.6661C83.6016 81.5624 80.824 84.1566 80.4637 84.467C66.0226 96.903 43.9554 95.1675 31.644 80.629C29.4532 77.9374 28.5469 75.4452 27.1332 73.1796C20.4111 61.3236 21.8656 42.2856 36.2727 30.7988C50.6798 19.3121 71.3899 20.957 83.6243 34.3944C96.203 48.192 94.9297 67.8395 85.0629 79.6661Z" fill="#004999"/>
<path d="M81.0709 40.4732C78.5697 37.9554 76.0594 35.4466 73.54 32.9468C70.8077 30.2417 67.4364 30.2417 64.729 32.9468C56.3915 41.2707 48.0578 49.5977 39.7278 57.9276C39.5398 58.1134 38.9688 58.6821 37.9153 59.8103C37.716 61.2807 37.3784 62.9822 37.2628 63.8205C36.642 66.6412 36.0643 69.2897 35.482 71.936C35.3099 72.7086 35.115 73.4766 34.9519 74.2492C34.2722 77.4913 36.5378 79.7864 39.7845 79.0953C44.0597 78.1891 48.3259 77.2149 52.5989 76.286C53.9696 75.9874 55.2196 75.285 56.1876 74.2696C59.4003 71.0207 62.6378 67.7974 65.9003 64.5999C66.3285 64.183 68.4174 62.0805 70.5652 59.9418C71.0365 59.4501 71.2971 59.1669 71.5712 58.8928C74.7204 55.7436 77.8711 52.5936 81.0234 49.4428C83.8441 46.6153 83.8577 43.2736 81.0709 40.4732ZM38.6879 75.3752C39.5126 71.6392 40.2988 68.0663 41.0374 64.7268L49.3454 73.0348L38.6879 75.3752ZM53.6999 71.0025L43.047 60.3405L62.196 41.1507L66.1518 45.1427C66.068 45.2333 65.8074 45.5346 65.5288 45.8224C60.8586 50.4956 56.1876 55.1688 51.5159 59.8421C51.2325 60.0914 50.9772 60.3709 50.7546 60.6758C50.2313 61.4982 50.2517 62.3207 50.9246 63.0638C51.2296 63.4058 51.6495 63.624 52.1046 63.677C52.5598 63.7301 53.0186 63.6142 53.3941 63.3515C53.6948 63.1231 53.9739 62.8675 54.2278 62.588C58.8739 57.9435 63.5184 53.2967 68.1614 48.6476C68.4514 48.3576 68.6916 48.0155 69.0133 47.6281L73.028 51.6564L53.6999 71.0025ZM78.6988 46.3072C77.8628 47.2293 76.9815 48.1061 76.2067 48.9082L65.1889 37.8859C65.991 37.1156 66.8904 36.2071 67.842 35.3529C68.6145 34.6574 69.6545 34.6098 70.4044 35.3393C73.2123 38.0838 75.9884 40.8584 78.7328 43.6632C79.5371 44.4698 79.4737 45.4395 78.6988 46.2959V46.3072Z" fill="#E43C5C"/>
</svg>
