<svg width="104" height="104" viewBox="0 0 104 104" fill="none" xmlns="http://www.w3.org/2000/svg">
<path d="M95.0632 103.991H8.93757C8.73444 103.918 8.51303 103.83 8.29568 103.788C4.43628 102.847 1.82611 100.523 0.505783 96.7735C0.302657 96.2149 0.166564 95.634 0 95.0632V26.3963C0.0700815 26.2441 0.127815 26.0865 0.172653 25.925C1.15578 21.0866 4.69832 17.863 9.57742 17.3734C12.2485 17.1053 13.8431 18.5333 13.8431 21.2328C13.8431 25.3279 13.8431 29.4208 13.8431 33.5159C13.8431 33.8734 13.8735 34.2329 13.8898 34.627H17.2251C17.2778 34.4527 17.3085 34.2726 17.3165 34.0907C16.9915 30.6376 18.5739 28.5637 21.9153 27.7938C23.1341 27.5155 23.778 26.8046 24.0075 25.5594C24.1578 24.7469 24.5478 23.9628 24.881 23.1889C25.3847 22.0189 26.3333 20.8733 26.3475 19.7094C26.3618 18.5455 25.4578 17.347 24.9744 16.1587C24.3833 14.7043 24.5682 13.3454 25.6529 12.2038C26.9028 10.8727 28.1892 9.58148 29.5123 8.33022C30.6863 7.22928 32.0676 7.03427 33.5565 7.68021C34.5173 8.08647 35.4659 8.55366 36.4571 8.87867C36.9127 9.01145 37.3993 8.99147 37.8425 8.82178C39.3131 8.22865 40.6862 7.31662 42.2077 6.95708C44.0602 6.5163 45.0088 5.49863 45.4577 3.75581C45.998 1.63314 47.2533 0.235627 49.5507 0H54.4257C56.719 0.239689 57.9479 1.63924 58.5329 3.75379C58.604 4.01176 58.7787 4.24534 58.8356 4.50535C59.1159 5.79723 59.898 6.4838 61.2041 6.72552C61.9231 6.85755 62.6117 7.19474 63.2922 7.49334C64.4927 8.0235 65.6708 9.02085 66.8652 9.03101C68.1083 9.03101 69.3555 8.10678 70.6088 7.60912C71.9535 7.07084 73.2495 7.22724 74.3078 8.19818C75.752 9.52054 77.1393 10.912 78.4637 12.3562C79.4347 13.4145 79.5769 14.7145 79.0406 16.0572C78.7409 16.883 78.3936 17.6907 78.0006 18.4764C77.5009 19.3925 77.4663 20.1908 78.0798 21.0886C78.5119 21.7759 78.8636 22.5107 79.1279 23.2783C79.6154 24.5357 79.7231 26.1221 80.5762 27.0077C81.4578 27.9218 83.0503 28.129 84.3056 28.7038C85.6849 29.3355 86.4202 30.4466 86.5238 31.966C86.5827 32.8374 86.6457 33.7088 86.7066 34.6067H90.1394V33.4245C90.1394 29.2279 90.1232 25.0313 90.1394 20.8306C90.1536 18.779 91.6771 17.3165 93.6901 17.3267C95.9402 17.3607 98.1191 18.1212 99.9018 19.4946C101.685 20.8681 102.976 22.7809 103.582 24.948L104.001 26.3963V95.0531C103.92 95.2296 103.853 95.4115 103.798 95.5975C103.221 98.3133 101.87 100.584 99.532 102.063C98.1771 102.918 96.5623 103.361 95.0632 103.991ZM13.8492 38.1411V82.447C13.8492 85.3274 12.732 86.5217 9.88008 86.6985C8.17552 86.8225 6.57718 87.5731 5.39312 88.8055C4.20906 90.038 3.52307 91.665 3.46736 93.3732C3.36173 97.4215 6.51427 100.525 10.7657 100.527C31.7189 100.527 52.6721 100.527 73.6252 100.527C80.2918 100.527 86.9605 100.556 93.6291 100.513C95.4462 100.51 97.1891 99.7923 98.4814 98.5149C99.7736 97.2374 100.511 95.5029 100.535 93.686C100.588 89.9465 97.7302 86.9199 93.9277 86.6883C91.3582 86.5299 90.1537 85.2542 90.1537 82.6583C90.1537 68.2376 90.1537 53.8157 90.1537 39.3923V38.1309C89.2396 38.1309 88.4636 38.1715 87.6917 38.1208C86.9199 38.07 86.3856 38.2183 85.9652 39.0531C85.632 39.7133 84.8744 40.215 84.2102 40.6355C83.5675 41.0116 82.8756 41.2966 82.1545 41.4825C80.9601 41.8299 80.1679 42.4392 79.979 43.7758C79.8795 44.4949 79.522 45.1875 79.2214 45.866C78.679 47.0969 77.6695 48.3035 77.6431 49.5324C77.6167 50.7613 78.5632 52.0248 79.065 53.2801C79.5972 54.6248 79.4306 55.9207 78.4556 56.975C77.1292 58.4172 75.7378 59.8045 74.2956 61.1309C73.2312 62.11 71.923 62.2156 70.5905 61.7017C69.6982 61.3864 68.8282 61.0111 67.9864 60.5784C67.1414 60.1173 66.461 60.2087 65.6586 60.6983C64.7994 61.2223 63.8691 61.7606 62.9022 61.9495C60.1823 62.4797 58.7198 64.0641 58.0475 66.7088C57.6311 68.3338 56.2701 69.1463 54.5943 69.2093C52.8718 69.2702 51.1412 69.2682 49.4207 69.2093C47.7429 69.1524 46.5546 68.3054 45.9208 66.7271C45.5146 65.7236 45.151 64.6958 44.7021 63.7249C44.5207 63.3878 44.2298 63.1227 43.8774 62.9733C42.7825 62.5284 41.643 62.2014 40.5481 61.7545C39.37 61.2731 38.2304 60.3001 37.0665 60.288C35.9026 60.2758 34.7123 61.202 33.5199 61.6773C32.1184 62.2359 30.7574 62.1181 29.6341 61.068C28.2447 59.7842 26.9021 58.4415 25.6163 57.0542C24.5844 55.939 24.3975 54.5963 24.9866 53.1806C25.3928 52.2116 25.7788 51.2387 26.2236 50.2921C26.3585 50.0451 26.4253 49.7667 26.4171 49.4854C26.4089 49.2042 26.326 48.9301 26.1769 48.6915C25.5675 47.5641 24.8261 46.4205 24.5946 45.1977C24.107 42.6363 22.5633 41.3911 20.1887 40.7919C19.0553 40.5034 18.2712 39.7153 17.7654 38.6367C17.6904 38.5075 17.5878 38.3965 17.4649 38.3115C17.342 38.2266 17.2019 38.1697 17.0545 38.1451C16.0287 38.1086 15.0131 38.1411 13.8492 38.1411ZM75.8027 14.8282C75.6946 14.6124 75.5646 14.4082 75.4148 14.2189C74.4926 13.2296 73.544 12.2668 72.6238 11.2756C72.2176 10.8388 71.8316 10.7941 71.2872 11.0501C70.0949 11.6067 68.8599 12.0779 67.6574 12.6142C67.3078 12.7859 66.9188 12.8619 66.5302 12.8344C66.1417 12.807 65.7673 12.677 65.4453 12.4578C63.1984 11.0662 60.7415 10.0469 58.1694 9.4393C57.7703 9.36296 57.3996 9.17925 57.0972 8.90795C56.7948 8.63665 56.572 8.28804 56.4529 7.89959C55.9979 6.66458 55.5185 5.43364 54.9741 4.24332C54.8401 3.95081 54.4237 3.61363 54.1231 3.59941C52.7012 3.53238 51.2793 3.53238 49.8696 3.59941C49.6882 3.63442 49.5171 3.71022 49.3693 3.82107C49.2215 3.93192 49.1009 4.07491 49.0165 4.23925C48.4721 5.4377 48.0008 6.67677 47.5377 7.89553C47.229 8.73038 46.6582 9.14069 45.8274 9.45554C43.375 10.3899 40.949 11.394 38.5494 12.4679C37.7369 12.8315 37.0361 12.9331 36.2337 12.5735C35.0617 12.0495 33.8876 11.5254 32.6851 11.0765C32.5087 11.0203 32.3221 11.0035 32.1385 11.0274C31.955 11.0513 31.7789 11.1152 31.6227 11.2146C30.5697 12.1158 29.5674 13.0746 28.6205 14.0868C28.3829 14.3428 28.3057 14.9542 28.4296 15.3056C28.8663 16.5467 29.3985 17.7573 29.9449 18.9619C30.1228 19.3082 30.2046 19.6959 30.1817 20.0846C30.1589 20.4733 30.0322 20.8488 29.8149 21.1719C28.4066 23.4463 27.3776 25.9346 26.768 28.5393C26.699 28.9062 26.5338 29.2483 26.2893 29.5306C26.0449 29.8129 25.7299 30.0252 25.3766 30.146C24.1132 30.6234 22.8497 31.1129 21.6248 31.6796C21.3141 31.8218 20.9586 32.2626 20.9423 32.5835C20.8672 33.9672 20.8672 35.3538 20.9423 36.7375C20.9808 36.9308 21.0621 37.1131 21.1802 37.2709C21.2983 37.4287 21.4502 37.5581 21.6248 37.6495C22.8436 38.2142 24.1639 38.6001 25.3583 39.2197C25.921 39.5142 26.5446 40.1155 26.703 40.6984C27.4262 43.3412 28.4742 45.8841 29.823 48.269C30.1216 48.7991 30.1399 49.6543 29.953 50.2555C29.5691 51.5088 28.9151 52.6768 28.4723 53.9118C28.4116 54.1159 28.3964 54.3307 28.4276 54.5412C28.4589 54.7518 28.5358 54.9529 28.653 55.1306C29.5233 56.165 30.4582 57.1433 31.4521 58.0597C31.708 58.2953 32.3174 58.3704 32.6709 58.2445C33.9079 57.7976 35.1084 57.2492 36.3129 56.7089C36.659 56.5314 37.0461 56.4492 37.4344 56.4707C37.8228 56.4921 38.1984 56.6164 38.5229 56.8307C40.8002 58.2334 43.2876 59.262 45.8903 59.8776C46.2724 59.9545 46.6271 60.1321 46.9174 60.3921C47.2078 60.6521 47.4234 60.9851 47.5418 61.3564C48.0049 62.5894 48.466 63.8285 49.0266 65.0127C49.1321 65.2003 49.2779 65.3621 49.4535 65.4865C49.6292 65.6109 49.8303 65.6946 50.0423 65.7318C51.3565 65.8171 52.6829 65.746 53.9992 65.7744C54.6086 65.7866 54.8868 65.49 55.0859 64.9436C55.5368 63.7066 56.0568 62.4939 56.5362 61.267C56.6586 60.9152 56.8712 60.6017 57.1528 60.3578C57.4345 60.114 57.7752 59.9484 58.1409 59.8776C60.7446 59.2649 63.2324 58.2361 65.5083 56.8307C65.8318 56.6137 66.2073 56.4868 66.5961 56.4632C66.9849 56.4396 67.373 56.5202 67.7203 56.6967C68.8619 57.2065 70.034 57.6493 71.1613 58.1897C71.7362 58.4659 72.1465 58.4151 72.5832 57.9723C73.4709 57.0907 74.3727 56.2234 75.3031 55.3865C75.8576 54.8888 75.8474 54.4013 75.5488 53.7615C75.0187 52.6301 74.584 51.454 74.0559 50.3205C73.8784 49.9737 73.7982 49.5851 73.824 49.1963C73.8497 48.8075 73.9804 48.433 74.2021 48.1125C75.6094 45.8376 76.6384 43.3495 77.249 40.7452C77.3198 40.3784 77.4875 40.0373 77.7347 39.7572C77.9819 39.4772 78.2995 39.2684 78.6546 39.1526C79.9201 38.6814 81.1795 38.1858 82.4044 37.615C82.5765 37.5188 82.7249 37.3853 82.8388 37.2244C82.9526 37.0634 83.0291 36.879 83.0625 36.6847C83.1326 35.3002 83.1326 33.9131 83.0625 32.5287C83.0313 32.3502 82.9604 32.181 82.8549 32.0336C82.7494 31.8863 82.6121 31.7646 82.4531 31.6776C81.2872 31.1434 80.0908 30.662 78.8842 30.2334C77.9356 29.8901 77.4847 29.2523 77.1597 28.2996C76.4426 26.1972 75.7377 24.0502 74.6855 22.1144C73.873 20.6112 73.6293 19.3661 74.5028 17.8812C74.9456 17.1317 75.2096 16.2765 75.5509 15.4661C75.6199 15.2934 75.6931 15.1045 75.8027 14.8282ZM93.6779 20.857V83.1905C96.2434 83.2392 98.4534 84.1269 100.531 85.8088V52.4168C100.531 44.2247 100.55 36.0326 100.531 27.8385C100.519 23.8836 97.5393 20.8509 93.686 20.857H93.6779ZM10.3209 20.857C10.1747 20.8381 10.0275 20.8286 9.88008 20.8286C6.13239 21.0927 3.45518 24.1132 3.45518 28.1087C3.45518 46.9615 3.45518 65.8137 3.45518 84.6652C3.45518 84.9841 3.48565 85.303 3.49987 85.5833C4.62316 84.9922 5.6449 84.3199 6.76412 83.8994C7.88335 83.4789 9.09805 83.3124 10.3209 83.0239V20.857Z" fill="#004999"/>
<path d="M55.5634 76.2498C62.876 76.2498 70.1885 76.2498 77.5011 76.2498C79.2906 76.2498 80.8324 76.7454 82.0085 78.1511C82.8494 79.1667 83.1866 80.3367 83.1907 81.6306C83.1907 83.796 83.2394 85.9633 83.211 88.1307C83.1683 91.4112 80.9766 93.605 77.6961 93.6151C62.9071 93.6273 48.1168 93.6151 33.3252 93.5785C32.2194 93.5365 31.143 93.2112 30.199 92.634C27.532 91.0334 24.9584 89.2783 22.3644 87.5558C20.26 86.1624 20.26 83.6964 22.3644 82.303C24.8771 80.6455 27.4304 79.053 29.9248 77.365C31.0485 76.6034 32.3825 76.2127 33.7395 76.2478C41.0114 76.262 48.2874 76.2498 55.5634 76.2498ZM64.0948 90.0868V79.8045H34.7531V90.0868H64.0948ZM74.6045 90.1132C75.8334 90.1132 77.0136 90.1802 78.1815 90.0908C78.3884 90.0875 78.5926 90.0428 78.782 89.9595C78.9714 89.8762 79.1422 89.7559 79.2845 89.6057C79.4268 89.4555 79.5376 89.2783 79.6105 89.0847C79.6834 88.891 79.7169 88.6848 79.7091 88.478C79.7402 86.0771 79.7287 83.6754 79.6745 81.2731C79.6563 80.4281 79.1241 79.8512 78.2771 79.7964C77.0746 79.7212 75.8639 79.7761 74.6045 79.7761V90.1132ZM67.682 79.77V90.0624H71.0051V79.77H67.682ZM24.678 84.9294L31.0989 89.1138V80.743L24.678 84.9294Z" fill="#E43C5C"/>
<path d="M52.0307 57.2023C39.6237 57.2023 29.4715 47.0785 29.4634 34.6776C29.6235 28.811 32.0647 23.238 36.2683 19.1427C40.472 15.0474 46.1068 12.7525 51.9756 12.7456C57.8444 12.7387 63.4846 15.0204 67.6978 19.1059C71.9111 23.1914 74.3653 28.7586 74.5392 34.6248C74.5635 47.0359 64.4377 57.1922 52.0307 57.2023ZM52.0186 53.7228C62.5344 53.7004 71.0758 45.1569 71.0738 34.6634C71.0972 32.142 70.6204 29.641 69.6711 27.305C68.7217 24.969 67.3187 22.8444 65.543 21.0541C63.7674 19.2637 61.6544 17.8432 59.3263 16.8746C56.9983 15.9061 54.5013 15.4087 51.9797 15.4112C49.4582 15.4138 46.9622 15.9162 44.6361 16.8895C42.31 17.8628 40.1999 19.2876 38.4279 21.0815C36.6559 22.8754 35.2571 25.0028 34.3125 27.3408C33.3679 29.6787 32.8962 32.1806 32.9246 34.702C32.9409 45.1894 41.5271 53.7431 52.0186 53.7228Z" fill="#004999"/>
<path d="M63.4711 34.6515C62.167 33.3698 60.9361 32.1754 59.7234 30.9586C58.787 30.0182 58.7078 29.0635 59.4492 28.2875C60.1906 27.5116 61.2529 27.607 62.1975 28.5435C63.7555 30.0893 65.3134 31.6371 66.8552 33.2012C67.8586 34.2168 67.8708 35.0841 66.8735 36.0937C65.2877 37.7065 63.6878 39.3058 62.0736 40.8915C61.1819 41.769 60.2272 41.8198 59.4736 41.0946C58.72 40.3695 58.7423 39.3457 59.6543 38.4235C60.8853 37.1743 62.1569 35.9556 63.4711 34.6515Z" fill="#E43C5C"/>
<path d="M40.4914 34.6859C41.5578 35.7015 42.5714 36.6704 43.5789 37.6414C43.8958 37.944 44.2127 38.2508 44.5032 38.5798C45.2547 39.433 45.2527 40.408 44.5153 41.1067C43.778 41.8055 42.872 41.777 42.0656 41.0194C41.1333 40.1398 40.2375 39.2116 39.3376 38.3036C38.5718 37.5398 37.7959 36.7883 37.0484 36.0083C36.181 35.1043 36.1567 34.2207 37.0179 33.3392C38.6687 31.6492 40.3404 29.9774 42.0331 28.324C42.7847 27.5907 43.8024 27.5826 44.4889 28.2285C45.2303 28.9212 45.2628 29.9388 44.4747 30.7493C43.2295 32.0331 41.9316 33.2681 40.4914 34.6859Z" fill="#E43C5C"/>
<path d="M50.5316 43.2881C49.0488 43.3206 48.3135 42.2725 48.6548 40.8994C49.6623 36.8368 50.6779 32.7743 51.7017 28.7118C51.8256 28.2202 51.9149 27.7165 52.0815 27.2391C52.213 26.8139 52.5059 26.4571 52.8974 26.2452C53.2889 26.0334 53.7478 25.9833 54.1757 26.1057C55.0796 26.3738 55.6362 27.2026 55.4046 28.1491C54.2726 32.7763 53.1174 37.3968 51.9393 42.0105C51.7362 42.8067 51.1573 43.2556 50.5316 43.2881Z" fill="#E43C5C"/>
</svg>
