<svg width="83" height="80" viewBox="0 0 83 80" fill="none" xmlns="http://www.w3.org/2000/svg">
<path d="M0 17.0335C0.53335 15.2426 1.52207 13.8586 3.34213 13.1827C6.32222 12.0763 9.50364 13.6925 10.1523 16.8127C10.8957 20.3886 11.4584 24.0026 12.1011 27.5992C12.2184 28.2578 12.3417 28.9151 12.4697 29.6138C15.0571 28.6916 17.0579 29.5137 18.8873 31.388C23.2447 35.8521 27.6669 40.2542 32.1083 44.6355C34.6851 47.1779 35.9531 50.2033 35.9085 53.8153C35.8778 56.4771 35.9024 59.1389 35.9024 61.9174C36.3145 61.9174 36.6805 61.9074 37.0452 61.9174C37.9332 61.9461 38.4499 62.3672 38.4612 63.232C38.4959 65.787 38.5092 68.344 38.4412 70.8983C38.4299 71.3127 38.0452 71.8465 37.6779 72.0868C37.2998 72.333 37.1825 72.5405 37.1865 72.9509C37.2018 74.6998 37.1972 76.4488 37.1912 78.1977C37.1865 79.5856 36.7825 79.9994 35.4298 79.9994C27.9833 79.9994 20.5375 79.9994 13.0924 79.9994C11.8117 79.9994 11.3924 79.5916 11.3864 78.3211C11.377 76.3313 11.3864 74.3415 11.3864 72.301C10.2923 72.1061 10.071 71.3628 10.0857 70.3932C10.119 68.2145 10.0943 66.0352 10.0963 63.8539C10.0963 62.2437 10.4043 61.9388 12.0297 61.9147C12.2144 61.9147 12.3991 61.8921 12.6691 61.874C12.6691 60.4614 12.6891 59.0681 12.6517 57.6762C12.6444 57.4093 12.4337 57.137 12.2744 56.8955C10.6904 54.4933 9.19295 52.029 7.48223 49.7229C5.43483 46.963 4.39948 43.9035 3.85946 40.5431C2.71143 33.4079 1.39273 26.2994 0.142029 19.1808C0.119362 19.0527 0.0486682 18.9326 0 18.8092V17.0335ZM33.3244 61.8747C33.3244 59.1068 33.3057 56.4197 33.3297 53.7339C33.3544 50.8906 32.3577 48.5084 30.3296 46.5079C26.9215 43.1475 23.5581 39.7417 20.1746 36.3559C18.9013 35.0814 17.6479 33.7856 16.3458 32.5411C14.8678 31.1271 12.5737 31.7204 12.029 33.6394C11.7284 34.7018 12.0871 35.5746 12.8537 36.3406C16.073 39.548 19.2848 42.7629 22.4894 45.9855C23.2081 46.7068 23.2841 47.4655 22.7254 48.0333C22.1667 48.6012 21.392 48.5325 20.6787 47.8211C17.4235 44.5715 14.1736 41.3172 10.929 38.0582C9.2623 36.378 8.92895 34.1819 9.92898 32.038C10.0557 31.7657 10.1456 31.4167 10.0963 31.1298C9.32962 26.6813 8.54694 22.2361 7.74825 17.7942C7.45624 16.1514 6.18354 15.1685 4.74816 15.4588C3.18145 15.7737 2.38675 17.0409 2.68143 18.7191C3.94814 25.917 5.26286 33.1063 6.44489 40.3176C6.91157 43.1595 7.78424 45.7412 9.49762 48.0934C11.3477 50.6331 13.0238 53.2982 14.7218 55.9473C15.0338 56.4337 15.2058 57.0816 15.2365 57.6648C15.3098 59.0521 15.2605 60.4454 15.2605 61.8767L33.3244 61.8747ZM12.7384 64.5438V69.6225H35.8438V64.5438H12.7384ZM14.0111 77.3556H34.5671V72.305H14.0111V77.3556Z" fill="#004999"/>
<path d="M46.6841 61.9167C46.6841 59.2662 46.7394 56.7379 46.6707 54.2122C46.5647 50.326 47.9135 47.1204 50.7055 44.4032C55.115 40.1073 59.4651 35.7506 63.7559 31.3332C65.568 29.4789 67.5561 28.6908 70.1262 29.6137C70.5728 27.0947 71.0155 24.6131 71.4529 22.1308C71.7422 20.4906 72.0009 18.8444 72.3155 17.2089C72.8236 14.5738 74.8396 12.8389 77.345 12.8342C79.9138 12.8296 82.1112 14.5358 82.4739 17.0641C82.6332 18.1718 82.4125 19.3616 82.2172 20.4893C80.9198 27.9795 79.5724 35.4617 78.2637 42.9499C77.9673 44.7029 77.3039 46.3734 76.317 47.8517C74.3036 50.8692 72.2935 53.8893 70.3128 56.9267C70.0792 57.3075 69.9472 57.742 69.9295 58.1886C69.8788 59.3897 69.9122 60.6014 69.9122 61.92C70.3655 61.92 70.7575 61.9046 71.1482 61.92C71.9435 61.958 72.4555 62.3797 72.4649 63.1525C72.4975 65.7609 72.4862 68.3699 72.4762 70.9783C72.4729 71.7543 71.9429 72.1 71.2022 72.3182C71.2022 74.294 71.2115 76.2772 71.1935 78.257C71.1935 78.6233 71.2008 79.1118 70.9868 79.3246C70.6622 79.6483 70.1481 79.9646 69.7128 79.9666C62.1072 80.0046 54.5023 79.9973 46.8968 79.9906C45.8714 79.9906 45.4094 79.5048 45.3987 78.4211C45.382 76.6195 45.3874 74.8178 45.3987 73.0162C45.3987 72.5958 45.3447 72.3369 44.898 72.0726C44.518 71.8471 44.154 71.2479 44.1413 70.8048C44.0693 68.3359 44.0907 65.8563 44.1133 63.382C44.122 62.3717 44.6107 61.936 45.6307 61.914C45.9467 61.9113 46.2634 61.9167 46.6841 61.9167ZM49.3775 61.8746H67.3307C67.3307 60.4159 67.288 58.9953 67.352 57.58C67.3767 57.0462 67.5374 56.4536 67.8248 56.0106C69.9028 52.8076 72.0869 49.6754 74.1089 46.4398C74.8183 45.3054 75.3996 43.9869 75.6423 42.6783C77.1217 34.727 78.4877 26.755 79.8891 18.7897C80.1931 17.0641 79.3558 15.7469 77.7964 15.47C76.3703 15.2171 75.123 16.22 74.8303 17.8635C74.0449 22.2818 73.2645 26.7008 72.4889 31.1204C72.4485 31.3794 72.4806 31.6445 72.5815 31.8864C73.6982 34.4574 73.3516 36.3719 71.3815 38.3443C68.2845 41.4472 65.1862 44.5483 62.0866 47.6475C61.8972 47.837 61.7152 48.0479 61.4912 48.186C60.9259 48.5357 60.3532 48.5197 59.8725 48.0339C59.3918 47.5481 59.3638 46.9789 59.7258 46.4157C59.8832 46.1709 60.1138 45.9713 60.3225 45.7625C63.4953 42.5836 66.678 39.4146 69.8381 36.2204C70.9268 35.1207 70.9368 33.5693 69.9281 32.5337C68.8881 31.466 67.3321 31.48 66.1847 32.5884C65.4107 33.3357 64.6613 34.1078 63.9006 34.8685C60.004 38.7685 56.1059 42.667 52.2063 46.5639C50.7109 48.0512 49.5275 49.7775 49.4208 51.8801C49.2548 55.1785 49.3775 58.4888 49.3775 61.8746ZM69.8448 69.6418V64.5484H46.7494V69.6418H69.8448ZM68.5781 72.2888H48.0288V77.3742H68.5768L68.5781 72.2888Z" fill="#004999"/>
<path d="M59.2272 14.5878C59.2272 17.5445 59.4765 20.5266 59.1785 23.452C58.4245 30.8481 54.6637 36.4306 48.2915 40.2194C46.3087 41.3978 44.228 42.4107 42.2073 43.5271C41.5779 43.8747 41.0253 43.8781 40.3919 43.5271C38.4445 42.4454 36.4391 41.4652 34.5204 40.3355C27.1868 36.0148 23.3981 29.5643 23.2441 21.0511C23.1581 16.3188 23.2274 11.5837 23.2294 6.85006C23.2294 5.5155 23.6254 5.1098 24.9348 5.08311C30.4389 4.97234 35.5171 3.44626 40.1192 0.418146C40.9592 -0.135028 41.6266 -0.141025 42.4646 0.410148C47.1161 3.46962 52.2463 4.99502 57.8078 5.08844C58.9111 5.10713 59.3558 5.56288 59.3585 6.68258C59.3658 9.31833 59.3585 11.9541 59.3585 14.5898L59.2272 14.5878ZM56.7798 7.69417C56.5797 7.66614 56.4464 7.63945 56.3197 7.62744C51.0782 7.28512 46.2041 5.78508 41.7106 3.04056C41.4819 2.90043 40.9932 2.97784 40.7319 3.13332C37.9638 4.77616 35.0457 6.06534 31.903 6.75865C29.9203 7.19638 27.8975 7.45061 25.8361 7.79626C25.8308 7.87433 25.8101 8.03114 25.8101 8.18862C25.8101 12.6821 25.7175 17.1775 25.8415 21.6677C26.0075 27.6505 28.4195 32.6631 33.1877 36.2811C35.5878 38.0994 38.3792 39.3953 41.0133 40.8947C41.1999 41.0008 41.5773 40.9047 41.8046 40.7852C43.446 39.9264 45.098 39.0823 46.6974 38.1501C53.2836 34.3113 56.6537 28.5527 56.7684 20.931C56.8304 16.7885 56.7791 12.6447 56.7791 8.50091L56.7798 7.69417Z" fill="#004999"/>
<path d="M28.3903 16.7672C28.3903 15.0196 28.3869 13.2713 28.3903 11.5237C28.3903 10.4407 28.6856 10.0243 29.7203 9.85547C33.517 9.25078 37.1841 8.00696 40.566 6.17676C41.1933 5.83778 41.744 6.01595 42.316 6.32089C45.3201 7.92236 48.4909 9.07476 51.845 9.65729C54.2311 10.0717 54.223 10.2305 54.203 12.5806C54.1804 15.2965 54.2191 18.0123 54.1937 20.7275C54.1297 27.6227 51.0852 32.7496 45.0601 36.1083C44.0754 36.6561 43.0954 37.2186 42.0747 37.6924C41.6986 37.8672 41.116 37.9893 40.7913 37.8212C38.0579 36.4019 35.2358 35.108 33.0724 32.7945C30.143 29.6623 28.5656 25.9669 28.4056 21.685C28.3449 20.0475 28.3956 18.4053 28.3956 16.7652L28.3903 16.7672ZM30.9763 12.2744C30.9763 15.3892 30.935 18.4253 30.9877 21.4608C31.0463 24.8319 32.2257 27.8 34.3811 30.3943C36.1685 32.547 38.5812 33.7828 40.994 35.0273C41.1813 35.124 41.5193 35.066 41.7273 34.9605C42.6607 34.4888 43.5941 34.007 44.4894 33.4692C48.5189 31.0489 51.0023 27.5264 51.4536 22.8341C51.739 19.8753 51.5796 16.8739 51.6176 13.8925C51.6243 13.3587 51.6176 12.8295 51.6176 12.2657C48.1344 11.6245 44.7608 10.4877 41.5993 8.88992C41.4233 8.8005 41.116 8.82786 40.9326 8.92128C37.7863 10.4981 34.4351 11.6267 30.9763 12.2744Z" fill="#E33C5C"/>
<path d="M39.4318 23.8757C41.1466 22.1594 42.7973 20.5072 44.448 18.8564C44.904 18.4 45.346 17.9282 45.8227 17.4951C46.4147 16.9613 47.1148 16.9573 47.6328 17.4518C48.1781 17.9723 48.1961 18.7029 47.6268 19.3202C47.0574 19.9374 46.4547 20.5046 45.866 21.0938C44.138 22.8247 42.4095 24.555 40.6805 26.2846C39.7865 27.1767 39.1652 27.1807 38.2805 26.3026C37.2138 25.2423 36.1471 24.1806 35.0904 23.107C34.4097 22.413 34.365 21.6863 34.9357 21.1211C35.4911 20.5706 36.2471 20.6234 36.9198 21.296C37.7545 22.1294 38.5671 22.9848 39.4318 23.8757Z" fill="#E33C5C"/>
</svg>
