<svg width="104" height="105" viewBox="0 0 104 105" fill="none" xmlns="http://www.w3.org/2000/svg">
<path d="M104 95.3289C103.42 96.7549 103.046 98.3193 102.217 99.5792C98.8946 104.619 91.6184 105.532 87.1992 101.393C83.0519 97.4979 79.0797 93.4137 75.0845 89.3619C74.3242 88.5912 73.7343 88.4066 72.6561 88.7435C69.3026 89.768 65.773 90.0825 62.2916 89.6669C58.8102 89.2514 55.4532 88.1148 52.4341 86.3297C49.415 84.5445 46.7999 82.1497 44.755 79.2975C42.7102 76.4454 41.2803 73.1983 40.5564 69.7628C39.8324 66.3273 39.8301 62.7785 40.5498 59.3421C41.2695 55.9057 42.6953 52.6569 44.7366 49.8022C46.7779 46.9475 49.39 44.5494 52.4069 42.7605C55.4237 40.9715 58.7793 39.8308 62.2602 39.4109C75.725 37.6849 88.448 47.5561 90.2175 61.1006C90.8118 65.28 90.3361 69.542 88.8351 73.4869C88.7177 73.7192 88.6861 73.9856 88.746 74.239C88.8059 74.4924 88.9533 74.7163 89.1623 74.8713C92.4663 78.1294 95.6965 81.4659 99.042 84.6825C101.346 86.8976 103.42 89.2004 104 92.4815V95.3289ZM43.5376 64.5156C43.5295 68.8089 44.7914 73.0084 47.1642 76.5842C49.5369 80.1599 52.914 82.9517 56.8695 84.6073C60.825 86.2628 65.1815 86.7079 69.3893 85.8863C73.5971 85.0648 77.4676 83.0134 80.5124 79.9911C83.5573 76.9689 85.64 73.1111 86.4978 68.9046C87.3555 64.6981 86.9499 60.3314 85.332 56.3556C83.7142 52.3797 80.9565 48.9729 77.4072 46.565C73.858 44.1571 69.676 42.856 65.3891 42.8259C59.6219 42.8087 54.0832 45.0821 49.9871 49.1479C45.891 53.2137 43.5717 58.7401 43.5376 64.5156ZM77.6374 86.6207C81.6925 90.774 85.6278 94.8628 89.6691 98.8639C91.1483 100.327 93.116 100.71 95.1528 100.313C97.6365 99.8099 99.3738 98.3378 100.12 95.8919C100.522 94.7278 100.578 93.4723 100.283 92.2768C99.9878 91.0813 99.3536 89.9968 98.4567 89.1542C94.7703 85.4254 91.0331 81.729 87.3144 78.0232C87.1591 77.8913 86.9943 77.771 86.8213 77.6633C84.566 81.3775 81.4081 84.4591 77.642 86.6207H77.6374Z" fill="#004999"/>
<path d="M9.30865 51.991H10.5344C17.9074 51.991 25.2895 51.991 32.6809 51.991C33.0852 51.971 33.4904 52.0098 33.8836 52.1063C34.247 52.2229 34.562 52.4561 34.7798 52.7698C34.9977 53.0835 35.1064 53.4603 35.0891 53.8421C35.0718 54.2238 34.9295 54.5893 34.6841 54.8819C34.4387 55.1746 34.104 55.3782 33.7315 55.4613C33.2978 55.5344 32.8578 55.5638 32.4182 55.549H3.92182C2.79284 60.8099 6.36408 65.2817 11.6634 65.3094C18.4695 65.3371 25.2757 65.3094 32.0819 65.3094C32.4881 65.2962 32.8947 65.3132 33.2984 65.3602C33.7098 65.3941 34.0929 65.5839 34.3694 65.8909C34.646 66.1979 34.7952 66.5989 34.7868 67.0123C34.8173 67.4406 34.686 67.8649 34.4188 68.2008C34.1516 68.5367 33.7682 68.7598 33.3445 68.8259C33.1109 68.8575 32.8749 68.8683 32.6394 68.8582C25.5614 68.8582 18.4834 68.8905 11.4054 68.8582C6.11066 68.8259 1.4795 65.3648 0.373558 60.3531C-0.0872516 58.1749 0.0509911 55.8444 0.0279507 53.5831C0.0279507 52.7017 1.06937 52.0187 2.21218 51.991C3.35499 51.9633 4.51624 51.991 5.73738 51.991V50.5788C5.73738 35.8298 5.73738 21.0777 5.73738 6.32253C5.73738 3.19828 7.3272 0.94624 10.0828 0.226325C10.775 0.0686174 11.4836 -0.00421647 12.1933 0.00942787C32.1402 0.00942787 52.0872 0.00942787 72.034 0.00942787C75.9924 0.00942787 78.2825 2.31685 78.2871 6.26253C78.2871 15.6553 78.2871 25.048 78.2871 34.4407C78.2934 34.712 78.2811 34.9834 78.2504 35.2529C78.2143 35.6805 78.0179 36.0786 77.7008 36.3671C77.3836 36.6556 76.9691 36.8132 76.5406 36.8081C76.0951 36.8188 75.6625 36.6576 75.3323 36.3579C75.0021 36.0581 74.7996 35.6427 74.7666 35.1976C74.7482 34.8594 74.7482 34.5205 74.7666 34.1823C74.7666 24.9249 74.7666 15.666 74.7666 6.40559C74.7666 4.26892 74.0477 3.55824 71.8912 3.55824H12.327C10.0229 3.55824 9.29482 4.27354 9.29482 6.59019C9.29482 21.3054 9.29482 36.0236 9.29482 50.745L9.30865 51.991Z" fill="#004999"/>
<path d="M23.2067 81.3045C20.4004 81.3045 17.5895 81.3553 14.7831 81.2584C14.4643 81.2236 14.1568 81.1202 13.8817 80.9553C13.6065 80.7904 13.3701 80.568 13.1888 80.3031C13.0759 80.0196 13.0284 79.7142 13.05 79.4097C13.0715 79.1053 13.1615 78.8096 13.3131 78.5449C13.5042 78.3235 13.7395 78.1446 14.0038 78.0198C14.2681 77.895 14.5555 77.8271 14.8477 77.8203C20.4695 77.7696 26.0868 77.7788 31.704 77.7926C32.8791 77.7926 33.6625 78.5079 33.6717 79.5232C33.6809 80.5385 32.8976 81.2907 31.7363 81.2999C28.8931 81.3045 26.0499 81.3045 23.2067 81.3045Z" fill="#004999"/>
<path d="M41.8647 25.3265C39.6343 25.3265 37.4041 25.3265 35.1692 25.3265C33.8328 25.3265 33.0586 24.6482 33.0724 23.5314C33.0863 22.4146 33.8144 21.7731 35.1139 21.7731C39.6114 21.7547 44.1089 21.7547 48.6064 21.7731C49.9381 21.7731 50.7491 22.4977 50.726 23.5729C50.703 24.6482 49.8781 25.3127 48.551 25.3127C46.3299 25.3312 44.095 25.3265 41.8647 25.3265Z" fill="#E43C5C"/>
<path d="M39.2155 34.187C40.0449 34.5977 40.7269 34.9346 41.4043 35.2807C43.3904 36.296 45.3765 37.3066 47.3488 38.3358C48.1137 38.7326 48.1874 40.6801 47.4363 41.077C44.7774 42.4614 42.0955 43.8182 39.2247 45.2903C39.2247 44.0489 39.1924 42.9552 39.2523 41.8707C39.2523 41.6677 39.6256 41.4092 39.8698 41.2985C40.8421 40.7816 41.8375 40.3017 42.9803 39.7248C41.8283 39.148 40.8237 38.6911 39.8744 38.1373C39.7095 38.0281 39.5688 37.8862 39.461 37.7203C39.3532 37.5543 39.2806 37.368 39.2477 37.1728C39.1602 36.2452 39.2155 35.3038 39.2155 34.187Z" fill="#E43C5C"/>
<path d="M27.0129 34.3715C27.0129 35.3776 27.0497 36.3882 26.9898 37.3942C26.9569 37.546 26.8928 37.6892 26.8016 37.8148C26.7103 37.9403 26.594 38.0454 26.4599 38.1234C25.4876 38.6633 24.4784 39.1387 23.3079 39.7294C24.4231 40.2878 25.4323 40.74 26.377 41.2984C26.5403 41.4116 26.6785 41.5574 26.7832 41.7265C26.8878 41.8956 26.9566 42.0845 26.9852 42.2814C27.0681 43.2043 27.0129 44.1273 27.0129 45.2579L23.2665 43.3428C22.1221 42.6855 20.9421 42.0924 19.7321 41.5661C18.5017 41.1046 18.2022 40.2924 18.4049 39.1479C18.4402 38.8649 18.5839 38.6067 18.8058 38.428C21.4371 37.0435 24.0959 35.696 26.7456 34.3438C26.8193 34.3208 26.8746 34.3577 27.0129 34.3715Z" fill="#E43C5C"/>
<path d="M25.3032 13.9789C23.9208 13.9789 22.5383 13.9789 21.1559 13.9789C19.9486 13.9558 19.2344 13.2866 19.2344 12.2252C19.2344 11.1638 19.9532 10.4716 21.1513 10.467C23.9162 10.4485 26.6903 10.4485 29.4735 10.467C30.6302 10.467 31.4228 11.21 31.4274 12.2206C31.432 13.2313 30.6486 13.9604 29.4782 13.9789C28.0773 13.9973 26.6902 13.9789 25.3032 13.9789Z" fill="#E43C5C"/>
<path d="M42.5373 10.4575C43.7492 10.4575 44.9657 10.4575 46.1823 10.4575C47.3988 10.4575 48.113 11.1682 48.1223 12.2065C48.1315 13.2449 47.3942 13.9602 46.2099 13.9694C43.7124 13.9909 41.2147 13.9909 38.7171 13.9694C37.5651 13.9694 36.7909 13.1941 36.814 12.1788C36.837 11.1636 37.6158 10.476 38.7909 10.4575C40.0397 10.4437 41.2885 10.4529 42.5373 10.4575Z" fill="#E43C5C"/>
<path d="M37.003 93.5294C35.8187 93.5294 34.6344 93.5294 33.4547 93.5294C32.2751 93.5294 31.4963 92.8095 31.4779 91.7988C31.4594 90.7882 32.2382 90.0267 33.3995 90.0175C35.8018 89.9929 38.2026 89.9929 40.6018 90.0175C41.7861 90.0175 42.5189 90.7512 42.505 91.7988C42.4912 92.8464 41.7539 93.5155 40.5558 93.534C39.3577 93.5524 38.1872 93.5294 37.003 93.5294Z" fill="#004999"/>
<path d="M37.2753 33.9054C36.2339 36.605 35.2293 39.2217 34.2247 41.8383C34.0542 42.2998 33.8745 42.7197 33.704 43.1627C33.0451 44.8748 33.0451 44.8748 31.2572 44.8748H29.8379C30.9116 42.069 31.9391 39.3924 32.9621 36.7112C33.0497 36.4897 33.1419 36.2497 33.2294 36.0513C34.2294 33.4577 34.2294 33.4577 37.2753 33.9054Z" fill="#E43C5C"/>
<path d="M61.9373 25.3264C60.9235 25.3264 59.9098 25.3264 58.9006 25.3264C57.721 25.2987 56.9928 24.5972 57.002 23.5404C57.0113 22.4836 57.6933 21.8191 58.8453 21.8006C61.0019 21.7637 63.1677 21.7637 65.3243 21.8006C65.5721 21.7841 65.8206 21.8202 66.0535 21.9066C66.2864 21.9931 66.4983 22.1279 66.6754 22.3023C66.8526 22.4766 66.9909 22.6865 67.0812 22.9182C67.1716 23.1499 67.2119 23.3981 67.1997 23.6466C67.1856 23.8837 67.125 24.1157 67.0211 24.3292C66.9173 24.5428 66.7724 24.7337 66.5948 24.8911C66.4171 25.0484 66.2101 25.1691 65.9858 25.2462C65.7614 25.3233 65.5241 25.3552 65.2874 25.3402C64.1676 25.3402 63.0524 25.3264 61.9373 25.3264Z" fill="#E43C5C"/>
<path d="M53.4131 70.4319C52.5586 67.2863 52.6033 63.9637 53.5421 60.8423C53.5443 60.6657 53.5065 60.4908 53.4315 60.3309C53.3565 60.1711 53.2462 60.0303 53.109 59.9193C52.5774 59.5243 52.136 59.0203 51.8142 58.441C51.4924 57.8617 51.2976 57.2204 51.2427 56.5597C51.1703 56.0839 51.2864 55.5986 51.5661 55.2072C51.8459 54.8158 52.2672 54.5493 52.7403 54.4646C53.1987 54.4067 53.6617 54.5278 54.0333 54.8028C54.4048 55.0778 54.6563 55.4855 54.7356 55.9413C54.8324 56.3059 54.9661 56.6612 55.0859 57.0258C56.2747 55.826 57.3899 54.7507 58.4267 53.6247C58.5855 53.3447 58.6317 53.0146 58.5558 52.7017C58.4451 52.0129 58.4753 51.3087 58.6449 50.632C58.8144 49.9553 59.1196 49.3202 59.5418 48.7653C60.2192 47.8423 61.1869 47.6531 62.0256 48.2115C62.8642 48.7699 63.0209 49.7436 62.4864 50.7312C62.3573 50.9619 62.2421 51.1927 62.1454 51.3773H68.2649C68.1497 51.1327 68.0069 50.8281 67.8595 50.5235C67.6523 50.1342 67.5983 49.6812 67.7084 49.254C67.8184 48.8268 68.0845 48.4564 68.4539 48.2161C68.8243 47.9655 69.278 47.8705 69.7176 47.9517C70.1571 48.0328 70.5472 48.2835 70.804 48.6499C71.2363 49.1966 71.5515 49.8267 71.7299 50.5008C71.9083 51.1749 71.946 51.8785 71.8408 52.5679C71.7861 52.844 71.8371 53.1307 71.9837 53.3709C73.0574 54.4369 74.1679 55.4614 75.3061 56.532C75.343 56.3474 75.3752 56.0982 75.4398 55.8629C75.539 55.4294 75.795 55.0482 76.1583 54.7925C76.5216 54.5369 76.9666 54.425 77.4074 54.4784C77.8491 54.5447 78.2496 54.7754 78.529 55.1244C78.8083 55.4734 78.9459 55.9151 78.9143 56.3613C78.9214 56.9583 78.7975 57.5496 78.5515 58.0934C78.3054 58.6372 77.9432 59.1203 77.4903 59.5086C77.285 59.6456 77.137 59.8533 77.0742 60.0922C77.0114 60.3311 77.0381 60.5848 77.1493 60.8054C78.1049 63.722 78.2167 66.8498 77.4719 69.8274C77.3865 70.0424 77.3819 70.2812 77.4591 70.4993C77.5362 70.7174 77.6898 70.9001 77.8913 71.0134C78.4677 71.4324 78.9287 71.9907 79.2316 72.6362C79.5346 73.2817 79.6696 73.9935 79.6239 74.7053C79.5963 75.8359 78.9419 76.5835 77.9465 76.6297C76.9512 76.6758 76.2508 76.039 76.1033 74.8852C76.071 74.6268 76.0204 74.3684 75.9513 73.9254C73.3616 77.9818 70.0391 80.6169 65.1914 80.5338C60.3437 80.4507 57.1595 77.7649 54.5928 73.6116C54.4868 74.2207 54.4177 74.5345 54.3716 74.8945C54.2287 76.0113 53.5145 76.685 52.5283 76.6435C51.5422 76.602 50.8555 75.8544 50.8417 74.7237C50.8095 72.8086 51.6482 71.3918 53.4131 70.4319ZM66.9839 63.7681V64.908C66.9839 65.4156 66.9839 65.9232 66.9839 66.4309C66.9286 67.6215 66.2328 68.3506 65.1914 68.3506C64.1499 68.3506 63.4587 67.6123 63.4126 66.417C63.385 65.6048 63.4127 64.788 63.385 63.9804C63.385 63.7404 63.1684 63.3481 62.9887 63.3066C60.9733 62.8541 59.1036 61.902 57.5511 60.5377C54.5466 66.1632 57.224 75.4575 63.3158 76.625C63.3158 76.5927 63.362 76.565 63.362 76.5374C63.362 75.5544 63.3849 74.576 63.408 73.5931C63.4402 72.3055 64.0808 71.5487 65.1499 71.5256C66.2189 71.5026 66.9608 72.2732 66.9931 73.6023C66.9931 74.6499 66.9931 75.6928 66.9931 76.7543C73.1172 75.5775 76.2877 66.717 73.2924 60.75L66.9839 63.7681ZM59.6432 57.4135C62.2606 60.8146 68.3479 60.8008 71.0667 57.3904C70.3543 56.5751 69.4762 55.9217 68.4911 55.474C67.506 55.0264 66.4367 54.7948 65.355 54.7948C64.2732 54.7948 63.2039 55.0264 62.2188 55.474C61.2337 55.9217 60.3556 56.5751 59.6432 57.3904V57.4135Z" fill="#E43C5C"/>
</svg>
