<svg width="95" height="96" viewBox="0 0 95 96" fill="none" xmlns="http://www.w3.org/2000/svg">
<path d="M15.5585 48.5908C15.5585 46.8983 15.5789 45.1803 15.538 43.4623C15.4788 43.162 15.3181 42.8912 15.083 42.6953C11.911 39.6274 10.2266 35.8871 10.426 31.4847C10.5256 29.1838 9.73328 27.1181 9.37032 24.9399C8.73643 21.1484 9.401 17.7022 12.297 14.9257C12.4599 14.779 12.5815 14.5921 12.6497 14.3837C13.7411 10.4696 16.4838 8.34509 20.3178 7.65737C25.5244 6.71655 30.5573 7.30456 35.1172 10.2267C40.3852 13.6014 42.5706 19.387 40.8683 25.7375C40.306 27.7224 40.0289 29.7771 40.0452 31.8401C40.1091 35.7849 38.6445 39.1647 36.0221 42.0843C35.7084 42.4569 35.5221 42.92 35.4904 43.406C35.4214 44.8403 35.4904 46.2771 35.4495 47.7113C35.4316 48.3377 35.6514 48.5729 36.2495 48.7493C39.0867 49.5853 41.9111 50.4699 44.733 51.3621C48.7357 52.6276 51.0515 55.7262 51.0669 59.9216C51.095 66.4587 51.1103 72.9959 51.0669 79.5331C51.026 85.5232 46.7702 89.7594 40.7788 89.785C30.6109 89.8174 20.4413 89.8174 10.27 89.785C4.27871 89.762 0.0459237 85.4899 0.0280315 79.5126C0.00758325 73.0053 0.00758325 66.4996 0.0280315 59.9957C0.0280315 55.8591 2.3489 52.7631 6.3133 51.5206C9.28852 50.5875 12.2714 49.6748 15.2594 48.7519C15.3622 48.7042 15.4621 48.6504 15.5585 48.5908ZM31.0966 61.4172C30.616 62.9946 30.1048 64.4365 29.7802 65.9219C29.5762 66.8068 29.5321 67.7211 29.6499 68.6216C30.1227 71.8991 30.6953 75.1613 31.2346 78.4312C31.6998 81.252 32.1701 84.0736 32.6455 86.896C35.8125 86.896 38.9155 87.1057 41.9776 86.8424C45.5228 86.5381 48.0405 83.5929 48.0584 80.1109C48.0942 73.2874 48.0788 66.4639 48.0584 59.6403C48.0584 57.9504 47.3989 56.4676 46.0315 55.4987C45.096 54.8365 43.9202 54.5144 42.8697 54.0056C42.3585 53.7653 42.1412 53.9724 41.8728 54.3712C40.0478 57.0965 38.1947 59.8065 36.3646 62.5318C35.6565 63.5877 34.9945 63.7718 33.9057 63.1224C33.011 62.5855 32.1164 62.0359 31.0966 61.4172ZM17.0384 86.9242C17.1074 86.6532 17.1688 86.4717 17.1994 86.285C18.0515 81.0679 18.9035 75.8516 19.7555 70.6362C19.9421 69.4729 20.3945 68.2688 20.2334 67.1567C19.9778 65.3824 19.3082 63.6695 18.7867 61.8339C18.1861 62.2123 17.68 62.5267 17.1764 62.8565C15.7629 63.7539 15.3489 63.6721 14.4134 62.2915C12.665 59.6966 10.9346 57.1144 9.14539 54.5348C8.9818 54.2971 8.59584 54.0005 8.37858 54.0465C5.61551 54.6448 3.01092 56.0407 2.96747 59.7477C2.86778 66.5048 2.8959 73.2644 2.96747 80.0214C3.00325 83.6927 5.64618 86.6174 9.2553 86.8884C11.819 87.0801 14.4083 86.9242 17.041 86.9242H17.0384ZM33.1721 24.3672C25.8363 27.2791 24.6528 27.2919 17.5956 24.5896C16.8467 25.5125 16.2665 26.663 15.3335 27.2791C13.4089 28.5574 13.1405 30.2857 13.3859 32.3054C13.4012 32.4306 13.3858 32.561 13.4088 32.6863C13.8459 37.3342 16.1719 40.7268 20.3894 42.657C24.5199 44.5488 28.5533 44.0733 32.2289 41.417C36.3543 38.4335 37.4304 34.1435 37.1135 29.3321C37.0989 29.114 37.0009 28.9098 36.84 28.7619C35.2501 27.591 33.9389 26.1798 33.1721 24.3672ZM37.7371 25.7298C39.511 21.0002 38.2484 16.3932 34.5498 13.4583C30.8972 10.554 26.644 9.93529 22.1811 10.3648C20.8545 10.5183 19.5605 10.8807 18.3471 11.4386C16.8748 12.093 15.7757 13.2282 15.5201 14.9308C15.402 15.75 14.9895 16.498 14.3597 17.0349C12.1078 19.0981 11.3717 23.071 12.7877 25.7886C13.4191 25.0396 14.0453 24.3723 14.577 23.6386C15.0422 22.9969 15.3821 22.2657 15.809 21.5933C16.4301 20.6167 17.3119 20.4633 18.227 21.1382C18.5107 21.3453 18.7816 21.5652 19.073 21.7595C23.0195 24.3979 28.0421 24.1678 32.4257 21.1536C33.6449 20.315 34.307 20.4377 35.0789 21.693C35.4444 22.2887 35.7026 22.9508 36.086 23.5337C36.5486 24.2342 37.093 24.9015 37.7269 25.7298H37.7371ZM28.5099 59.8525C27.4875 59.2236 26.5417 58.6151 25.5628 58.0859C25.4139 58.0282 25.2544 58.0026 25.0949 58.011C24.9354 58.0194 24.7795 58.0615 24.6375 58.1345C23.7787 58.6151 22.9837 59.2134 22.1198 59.6889C21.5115 60.0238 21.353 60.3792 21.5702 61.0644C22.0815 62.767 22.5415 64.4927 22.9888 66.2184C23.1171 66.643 23.1579 67.0891 23.109 67.5299C22.3422 72.1165 21.5754 76.7004 20.7907 81.2843C20.4942 83.0305 20.2053 84.7792 19.9063 86.5867H29.7521C29.7214 86.2416 29.7163 85.9578 29.6703 85.6791C28.8115 80.6247 28.0115 75.5602 27.0606 70.5211C26.6261 68.2202 26.5187 66.0139 27.3801 63.7794C27.8607 62.5421 28.1265 61.2203 28.5099 59.8525ZM25.3506 54.2817C27.6255 52.5944 29.8313 50.9582 32.0167 49.3169C32.2653 49.1366 32.4347 48.8674 32.4896 48.5652C32.5382 47.3687 32.5101 46.1723 32.5101 44.8249C30.3664 45.9974 27.9767 46.6482 25.5347 46.7245C23.1294 46.7884 20.8469 46.1953 18.5644 45.1778C18.5644 46.3998 18.5362 47.4506 18.5822 48.5013C18.6111 48.804 18.7536 49.0844 18.981 49.2862C21.0693 50.9505 23.1831 52.5893 25.3506 54.2817ZM34.5779 59.9267L39.2835 52.868C37.6758 52.3566 36.2291 51.8658 34.7722 51.4312C34.5008 51.3736 34.2177 51.426 33.9849 51.5769C31.9835 52.9856 30.0026 54.4198 27.9041 55.9231L34.5779 59.9267ZM11.6068 53.006L16.3202 60.0775L22.7102 56.0714C20.7958 54.5502 18.9657 53.0776 17.11 51.6382C16.9935 51.5755 16.8659 51.5364 16.7342 51.5232C16.6026 51.51 16.4697 51.5231 16.3432 51.5615C14.8044 52.0013 13.2913 52.4845 11.6068 53.006Z" fill="#014999"/>
<path d="M53.424 23.0965C51.0495 23.0965 48.7925 23.0965 46.5381 23.0965C45.8173 23.0965 45.237 22.9379 44.9405 22.1684C44.644 21.3989 44.961 20.8901 45.4671 20.3788C47.9055 17.9475 50.3236 15.4983 52.785 13.0849C53.0047 12.8867 53.1776 12.6421 53.2913 12.3688C53.4049 12.0956 53.4563 11.8005 53.4419 11.5049C53.4419 9.9454 53.3525 8.36032 53.5953 6.83404C53.8348 5.22183 54.6453 3.7493 55.8791 2.6846C57.113 1.61989 58.6881 1.03384 60.3176 1.03316C69.5926 0.983737 78.8693 0.983737 88.1477 1.03316C91.8667 1.05617 94.8292 4.1164 94.957 7.82855C94.957 8.11489 94.957 8.40122 94.957 8.68756C94.957 35.276 94.9672 61.8704 94.9876 88.4708C94.9876 92.4693 92.3089 95.2815 89.2136 95.8516C88.6164 95.9502 88.0116 95.9938 87.4065 95.982C78.6069 95.982 69.8073 95.982 61.0078 95.982C56.3788 95.982 53.4138 93.0036 53.4138 88.3839C53.4138 67.079 53.4138 45.7784 53.4138 24.4821L53.424 23.0965ZM50.004 20.1564C51.8137 20.1564 53.3269 20.1436 54.8605 20.1564C56.0644 20.1692 56.5066 20.6319 56.5347 21.8488C56.5347 22.1991 56.5347 22.5519 56.5347 22.9022V87.8521C56.5347 88.2024 56.5347 88.5552 56.5347 88.9029C56.6625 91.2933 58.3239 93.019 60.701 93.0292C69.7886 93.0701 78.8744 93.0701 87.9585 93.0292C89.919 93.0292 91.4961 91.8327 91.9664 90.0712C92.1189 89.3877 92.1833 88.6875 92.1581 87.9876C92.1581 61.6838 92.1581 35.3783 92.1581 9.07105C92.1581 8.84863 92.1581 8.62365 92.1581 8.40123C92.0712 5.77306 90.2769 3.94766 87.6569 3.94255C78.6972 3.92209 69.7392 3.92209 60.7828 3.94255C58.1271 3.94255 56.4376 5.65546 56.4018 8.32197C56.3813 9.53379 56.3405 10.7507 56.4146 11.9574C56.4637 12.4778 56.3883 13.0025 56.1945 13.4879C56.0007 13.9734 55.6941 14.4058 55.3001 14.7492C53.5595 16.434 51.9083 18.2057 50.004 20.1564Z" fill="#014999"/>
<path d="M39.0995 71.6565C38.1461 71.6565 37.1927 71.6693 36.2419 71.6565C35.1735 71.6386 34.6214 71.1452 34.5984 70.2223C34.5754 69.2993 35.1096 68.7318 36.1575 68.7164C38.1257 68.6909 40.0955 68.6909 42.0671 68.7164C43.0895 68.7318 43.6672 69.3402 43.6339 70.235C43.6007 71.1299 43.0307 71.6335 42.0543 71.6539C41.0779 71.6744 40.0862 71.6565 39.0995 71.6565Z" fill="#E43B5C"/>
<path d="M73.1512 14.266C73.1512 15.8255 73.1512 17.3876 73.1512 18.9496C73.1384 20.0899 72.6579 20.568 71.5102 20.5705C68.3561 20.5824 65.2037 20.5824 62.0529 20.5705C60.9462 20.5705 60.435 20.1129 60.4273 19.0238C60.3966 15.8076 60.3966 12.5897 60.4273 9.37013C60.4273 8.31938 60.9206 7.83618 61.9763 7.83618C65.1951 7.80721 68.4132 7.80721 71.6304 7.83618C72.7065 7.83618 73.1435 8.36028 73.164 9.48262C73.164 11.0779 73.1512 12.6707 73.1512 14.266ZM63.4383 10.8274V17.5716H70.1556V10.8402L63.4383 10.8274Z" fill="#E43B5C"/>
<path d="M66.8169 76.4266C68.3787 76.4266 69.9404 76.4266 71.4996 76.4266C72.6523 76.4266 73.1405 76.9072 73.1457 78.0449C73.161 81.1997 73.161 84.3528 73.1457 87.5043C73.1457 88.6624 72.683 89.1532 71.5302 89.1635C68.3761 89.189 65.2237 89.189 62.0729 89.1635C60.8972 89.1635 60.4269 88.6982 60.4166 87.5349C60.3911 84.3801 60.3911 81.227 60.4166 78.0756C60.4166 76.874 60.9151 76.4368 62.1394 76.4291C63.696 76.4189 65.2552 76.4266 66.8169 76.4266ZM70.1679 79.4357H63.4378V86.1365H70.1679V79.4357Z" fill="#E43B5C"/>
<path d="M73.1508 31.4468C73.1508 32.9807 73.1508 34.5147 73.1508 36.0333C73.1508 37.2681 72.6396 37.7922 71.4255 37.7948C68.3037 37.8067 65.1836 37.8067 62.0653 37.7948C60.9202 37.7948 60.4243 37.3244 60.4166 36.1713C60.3911 33.0199 60.3911 29.8668 60.4166 26.712C60.4166 25.5487 60.892 25.0553 62.0423 25.0425C65.1947 25.0119 68.3471 25.0119 71.4996 25.0425C72.706 25.0425 73.1457 25.5539 73.1559 26.7657C73.161 28.3252 73.1508 29.8873 73.1508 31.4468ZM70.1653 28.0772H63.4302V34.7806H70.1653V28.0772Z" fill="#E43B5C"/>
<path d="M73.1509 48.5272C73.1509 50.0893 73.1509 51.6488 73.1509 53.2109C73.1381 54.3741 72.6831 54.8522 71.538 54.8573C68.3532 54.8726 65.1684 54.8726 61.9835 54.8573C60.9253 54.8573 60.432 54.3997 60.4244 53.3489C60.3937 50.1003 60.3937 46.8509 60.4244 43.6007C60.4244 42.6062 60.9356 42.1562 61.9375 42.1485C65.1547 42.1315 68.3719 42.1315 71.5891 42.1485C72.6754 42.1485 73.1227 42.642 73.1457 43.7515C73.1662 45.3545 73.1509 46.9344 73.1509 48.5272ZM63.4379 45.1116V51.8559H70.1398V45.1116H63.4379Z" fill="#E43B5C"/>
<path d="M73.1508 65.7405C73.1508 67.2745 73.1508 68.8084 73.1508 70.3271C73.1508 71.5593 72.6396 72.0783 71.4229 72.0834C68.3011 72.0954 65.1811 72.0954 62.0627 72.0834C60.8972 72.0834 60.4243 71.6309 60.4166 70.4626C60.3911 67.3111 60.3911 64.158 60.4166 61.0032C60.4166 59.8272 60.8844 59.3619 62.0423 59.3542C65.1947 59.3338 68.3471 59.3338 71.4996 59.3542C72.706 59.3542 73.1457 59.8374 73.1559 61.0594C73.161 62.6215 73.1508 64.181 73.1508 65.7405ZM63.4174 62.3454V69.0897H70.1577V62.3454H63.4174Z" fill="#E43B5C"/>
<path d="M82.915 87.7061C81.3814 87.7061 79.8478 87.7189 78.3142 87.7061C77.1844 87.6933 76.5889 87.1718 76.5735 86.2387C76.5582 85.3055 77.1486 84.7226 78.2605 84.7175C81.3533 84.697 84.4452 84.697 87.5363 84.7175C88.5996 84.7175 89.1671 85.2774 89.1799 86.185C89.1926 87.0926 88.6022 87.6882 87.4954 87.7036C85.9746 87.724 84.4461 87.7061 82.915 87.7061Z" fill="#E43B5C"/>
<path d="M82.8871 50.4215C84.4207 50.4215 85.9543 50.4215 87.4879 50.4215C88.6024 50.4343 89.203 50.9712 89.2056 51.9069C89.2081 52.8426 88.6279 53.3923 87.493 53.4C84.4258 53.4204 81.3654 53.4204 78.3118 53.4C77.1769 53.4 76.5967 52.8503 76.5967 51.9095C76.5967 50.9686 77.1948 50.4343 78.3092 50.4215C79.8275 50.4113 81.356 50.4215 82.8871 50.4215Z" fill="#E43B5C"/>
<path d="M82.8434 70.6362C81.3455 70.6362 79.8477 70.6541 78.3499 70.6362C77.169 70.6184 76.5606 70.061 76.5836 69.1023C76.6092 68.1768 77.2099 67.6655 78.3422 67.6629C81.3702 67.6527 84.3983 67.6527 87.4263 67.6629C88.5612 67.6629 89.1619 68.1743 89.1926 69.0972C89.2207 70.0636 88.6123 70.6311 87.4314 70.6311C85.9029 70.6644 84.3719 70.6362 82.8434 70.6362Z" fill="#E43B5C"/>
<path d="M82.8842 33.5272C84.4434 33.5272 86.0052 33.5144 87.5669 33.5272C88.6174 33.5399 89.19 34.0743 89.1925 34.9819C89.1951 35.8894 88.6072 36.4442 87.5746 36.4493C84.4545 36.4613 81.3327 36.4613 78.2093 36.4493C77.1868 36.4493 76.5836 35.8946 76.5811 34.9921C76.5785 34.0896 77.1562 33.5399 78.2016 33.5272C79.7608 33.5144 81.3225 33.5272 82.8842 33.5272Z" fill="#E43B5C"/>
<path d="M82.974 16.1451C84.5076 16.1451 86.0412 16.1451 87.5749 16.1451C88.6177 16.1578 89.2005 16.6998 89.2056 17.6049C89.2107 18.5099 88.6407 19.0723 87.5928 19.0775C84.4727 19.0979 81.3509 19.0979 78.2275 19.0775C77.1693 19.0775 76.6018 18.5278 76.5967 17.6202C76.5916 16.7126 77.1922 16.1502 78.3041 16.1425C79.8531 16.1348 81.4148 16.1451 82.974 16.1451Z" fill="#E43B5C"/>
<path d="M80.7148 26.5196C81.5097 26.5196 82.3072 26.5017 83.1021 26.5196C84.1399 26.5477 84.7303 27.1 84.7354 27.9999C84.7354 28.8589 84.1833 29.4699 83.2018 29.4955C81.4842 29.5389 79.7614 29.5389 78.0438 29.4955C77.075 29.4674 76.5383 28.8487 76.5613 27.9615C76.5843 27.0744 77.1389 26.5682 78.1204 26.5068H80.7148V26.5196Z" fill="#E43B5C"/>
<path d="M80.6069 12.2921C79.7762 12.2921 78.9481 12.3228 78.1225 12.2921C77.1307 12.2436 76.5889 11.6965 76.5889 10.8196C76.5889 9.94265 77.1486 9.33162 78.1889 9.31372C79.8453 9.28475 81.5016 9.28475 83.1579 9.31372C84.1803 9.33162 84.7682 9.92986 84.7503 10.8298C84.7324 11.7297 84.1726 12.2206 83.1911 12.2998C83.1272 12.2998 83.0633 12.2998 82.9994 12.2998H80.6121L80.6069 12.2921Z" fill="#E43B5C"/>
<path d="M80.689 46.5783C79.8608 46.5783 79.0327 46.5962 78.2045 46.5783C77.1668 46.5502 76.5865 46.0006 76.584 45.0955C76.5814 44.1905 77.1131 43.6357 78.1023 43.6127C79.8199 43.5718 81.5427 43.5718 83.2603 43.6127C84.2137 43.6383 84.7761 44.2749 84.748 45.1313C84.7199 45.9878 84.155 46.5374 83.1734 46.5707C82.3453 46.5988 81.5171 46.5783 80.689 46.5783Z" fill="#E43B5C"/>
<path d="M80.5691 63.631C79.7409 63.631 78.9127 63.6515 78.0871 63.631C77.1363 63.5978 76.5714 63.02 76.5842 62.1431C76.597 61.2662 77.1133 60.7319 78.0335 60.7114C79.7835 60.6756 81.5344 60.6756 83.2861 60.7114C84.1935 60.7293 84.7328 61.3071 84.7456 62.1405C84.761 63.0123 84.191 63.5799 83.2427 63.6361H80.5691V63.631Z" fill="#E43B5C"/>
<path d="M80.5893 80.8493C79.7304 80.8493 78.8691 80.8774 78.0128 80.8493C77.8206 80.8552 77.6293 80.8212 77.4509 80.7494C77.2725 80.6776 77.111 80.5696 76.9764 80.4321C76.8419 80.2947 76.7373 80.1309 76.6694 79.951C76.6014 79.7711 76.5714 79.579 76.5814 79.387C76.568 79.1947 76.5958 79.0018 76.6627 78.821C76.7297 78.6403 76.8343 78.4759 76.9697 78.3388C77.1051 78.2016 77.2682 78.0949 77.448 78.0257C77.6279 77.9565 77.8204 77.9264 78.0128 77.9374C79.7952 77.905 81.5776 77.905 83.36 77.9374C83.5443 77.9327 83.7276 77.9658 83.8986 78.0346C84.0696 78.1034 84.2248 78.2065 84.3545 78.3375C84.4843 78.4684 84.5859 78.6246 84.6531 78.7962C84.7203 78.9679 84.7517 79.1516 84.7454 79.3358C84.7617 79.5276 84.7379 79.7208 84.6755 79.9029C84.6131 80.085 84.5134 80.2521 84.3828 80.3935C84.2522 80.535 84.0936 80.6476 83.917 80.7243C83.7405 80.8011 83.5499 80.8401 83.3574 80.8391C82.4373 80.8902 81.512 80.8468 80.5893 80.8493Z" fill="#E43B5C"/>
</svg>
