<svg width="69" height="71" viewBox="0 0 69 71" fill="none" xmlns="http://www.w3.org/2000/svg">
<path d="M56.3649 35.4693C56.386 47.4936 46.573 57.3419 34.5502 57.3496C22.5273 57.3573 12.7085 47.5339 12.6797 35.5038C12.6729 32.6352 13.2321 29.7934 14.3252 27.1414C15.4183 24.4893 17.0238 22.0791 19.0498 20.0488C21.0758 18.0185 23.4824 16.4081 26.1317 15.3098C28.781 14.2115 31.6209 13.6469 34.4887 13.6484C46.5193 13.6388 56.3457 23.4354 56.3649 35.4693ZM26.5708 34.2958H42.5065C42.4566 31.538 41.055 26.537 39.6842 24.3226C39.597 24.2249 39.4902 24.1467 39.3708 24.0931C39.2513 24.0395 39.122 24.0117 38.9911 24.0115C36.0247 23.9923 33.0583 24.0115 30.092 23.9865C29.6331 23.9865 29.397 24.1325 29.2376 24.5435C28.6808 25.9896 28.0338 27.407 27.548 28.8781C26.9486 30.6237 26.619 32.4507 26.5708 34.2958ZM26.5477 36.6888C26.7589 40.2974 27.8322 43.5911 29.4046 46.7407C29.4667 46.8176 29.545 46.8797 29.634 46.9225C29.723 46.9654 29.8204 46.9879 29.9192 46.9885C32.9912 47.0038 36.0439 47.0077 39.1063 46.9885C39.2349 46.9734 39.3585 46.9292 39.4676 46.8594C39.5767 46.7895 39.6685 46.6957 39.736 46.5852C40.2083 45.5942 40.6653 44.5897 41.0454 43.5623C41.882 41.3608 42.3804 39.0453 42.5238 36.6945L26.5477 36.6888ZM42.1417 24C43.6527 27.3301 44.6108 30.7314 44.8297 34.2997H54.0072C53.7961 30.7315 52.5998 27.2917 50.5512 24.363C50.4872 24.2704 50.4049 24.1918 50.3095 24.1321C50.2141 24.0723 50.1076 24.0326 49.9963 24.0153C47.4159 23.9923 44.8354 24 42.1417 24ZM54.0187 36.6849H44.9564C44.6262 38.4672 44.4016 40.2283 43.9561 41.9318C43.5107 43.6352 42.8502 45.2715 42.28 46.9481C42.28 46.9481 42.328 46.9904 42.3664 46.9904C44.9027 46.9904 47.437 47.0057 49.9733 46.9904C50.0948 46.9706 50.2111 46.9264 50.3151 46.8604C50.419 46.7943 50.5085 46.7079 50.5781 46.6063C52.6182 43.6801 53.809 40.2462 54.0187 36.6849ZM26.9355 47C25.4111 43.6583 24.4549 40.259 24.2476 36.6888H15.0855C15.1047 37.0594 15.1008 37.3917 15.1411 37.7162C15.488 40.4481 16.3639 43.0861 17.7197 45.4828C18.359 46.6351 19.1021 47.2688 20.4633 47.0192C20.88 46.9424 21.3216 47.0077 21.7535 47.0077L26.9355 47ZM15.0816 34.3054H24.2476C24.4396 30.6987 25.4169 27.3225 26.8972 24.0614C26.8134 24.0341 26.7273 24.0148 26.6399 24.0038C24.1439 24.0038 21.6652 23.9904 19.1769 24.0153C19.0442 24.0263 18.9155 24.0664 18.8 24.1328C18.6845 24.1992 18.5851 24.2902 18.5088 24.3994C17.6794 25.9531 16.8039 27.4934 16.1203 29.1124C15.4496 30.7624 15.0959 32.5242 15.0778 34.3054H15.0816ZM48.3836 21.6992C45.1791 18.6379 41.6176 16.8288 37.2996 16.1758C37.5261 16.4946 37.6624 16.6828 37.7911 16.8749C38.6512 18.1386 39.5863 19.3581 40.337 20.6833C40.7901 21.4822 41.272 21.7568 42.1763 21.7223C44.1692 21.6454 46.1698 21.6992 48.3797 21.6992H48.3836ZM48.3721 49.3007C45.8761 49.3007 43.5856 49.3008 41.297 49.32C41.105 49.32 40.8496 49.5466 40.721 49.7348C39.9914 50.8256 39.304 51.9453 38.5802 53.0419C38.1962 53.6181 37.7815 54.1462 37.2804 54.8337C41.6118 54.1558 45.1868 52.3659 48.3682 49.3007H48.3721ZM31.7528 54.826C30.8964 53.5912 30.14 52.5214 29.4066 51.4325C28.94 50.743 28.6597 49.7463 28.0203 49.4083C27.3426 49.0492 26.3384 49.3046 25.4783 49.3007C23.9596 49.3007 22.439 49.3007 20.7206 49.3007C23.7122 52.2737 27.5771 54.21 31.7489 54.826H31.7528ZM20.8089 21.6147C20.9056 21.6496 21.0052 21.676 21.1065 21.6934C23.3068 21.6934 25.509 21.7127 27.7112 21.6762C27.9416 21.6762 28.2354 21.4188 28.3832 21.2018C29.2875 19.8805 30.1515 18.5323 31.0405 17.1995C31.2421 16.8941 31.482 16.6118 31.7048 16.3199C27.4559 16.8634 23.877 18.6226 20.8032 21.6147H20.8089ZM34.5521 54.6225L38.3536 49.3468H30.7179L34.5521 54.6225ZM30.7371 21.6378H38.344L34.5291 16.3794L30.7371 21.6378Z" fill="#E43B5C"/>
<path d="M0.0175688 19.3794C0.0175688 18.9492 0.00220897 18.517 0.0175688 18.0888C0.0606792 17.2072 0.439296 16.3754 1.0758 15.7641C1.71231 15.1528 2.55848 14.8081 3.44087 14.8009C4.3243 14.7946 5.1762 15.1289 5.81972 15.7344C6.46325 16.3398 6.84897 17.1699 6.89682 18.0523C6.93714 18.9357 6.9333 19.823 6.89682 20.7083C6.85697 21.6029 6.47011 22.4467 5.81839 23.0606C5.16667 23.6745 4.3014 24.0101 3.4063 23.9962C2.52356 23.9802 1.68044 23.6268 1.04993 23.0087C0.419417 22.3905 0.0493453 21.5543 0.0156469 20.6718C0.00412707 20.2417 0.0175688 19.8115 0.0175688 19.3794ZM4.60821 19.4447C4.60821 19.0375 4.63125 18.6284 4.60821 18.2232C4.60597 18.0729 4.57397 17.9245 4.51404 17.7867C4.45411 17.6488 4.36745 17.5243 4.25906 17.4201C4.15068 17.316 4.02273 17.2344 3.88262 17.1801C3.74251 17.1257 3.59302 17.0997 3.44279 17.1036C3.15106 17.1055 2.87167 17.2215 2.66431 17.4268C2.45694 17.6321 2.33805 17.9103 2.33304 18.2021C2.29849 18.9914 2.30041 19.7846 2.33304 20.572C2.33347 20.7227 2.36417 20.8719 2.42332 21.0105C2.48248 21.1492 2.56891 21.2746 2.67743 21.3792C2.78595 21.4838 2.91438 21.5655 3.0551 21.6195C3.19581 21.6735 3.34593 21.6987 3.49656 21.6936C3.78662 21.6842 4.06245 21.5656 4.26891 21.3616C4.47536 21.1576 4.59722 20.8831 4.61013 20.5931C4.63125 20.2205 4.60629 19.8364 4.60821 19.4523V19.4447Z" fill="#E43B5C"/>
<path d="M16.1032 5.6073C16.1032 6.06054 16.1262 6.51762 16.1032 6.97086C16.0439 7.85149 15.6501 8.67609 15.0025 9.27563C14.355 9.87517 13.5027 10.2042 12.6203 10.1954C11.7497 10.1842 10.9157 9.84324 10.2865 9.24129C9.6573 8.63933 9.27964 7.82114 9.22967 6.95166C9.18743 6.04518 9.18551 5.131 9.22967 4.22452C9.28454 3.35551 9.66668 2.53962 10.2991 1.94125C10.9315 1.34288 11.7671 1.00654 12.6376 1.00001C13.5181 0.9983 14.3661 1.33284 15.0084 1.93532C15.6506 2.53779 16.0388 3.36278 16.0936 4.24182C16.1243 4.69506 16.1032 5.15214 16.1032 5.6073ZM13.7992 5.64378C13.7992 5.23663 13.8222 4.82757 13.7992 4.42234C13.797 4.27204 13.765 4.12369 13.705 3.98584C13.6451 3.848 13.5584 3.7234 13.45 3.61928C13.3417 3.51515 13.2137 3.43355 13.0736 3.37921C12.9335 3.32487 12.784 3.29887 12.6338 3.30269C12.342 3.30466 12.0627 3.42067 11.8553 3.62593C11.6479 3.8312 11.529 4.10944 11.524 4.40122C11.4895 5.19055 11.4895 5.98371 11.524 6.77304C11.5245 6.92271 11.5549 7.07078 11.6133 7.20855C11.6718 7.34633 11.7572 7.47103 11.8645 7.57533C11.9718 7.67963 12.0989 7.76143 12.2382 7.81593C12.3776 7.87043 12.5264 7.89655 12.676 7.89271C12.967 7.88603 13.2443 7.76833 13.4514 7.56375C13.6584 7.35917 13.7794 7.08316 13.7896 6.79224C13.828 6.41198 13.805 6.02596 13.8069 5.64378H13.7992Z" fill="#E43B5C"/>
<path d="M31 65.4119C31.0614 64.7244 31.0422 64.0176 31.192 63.3531C31.3952 62.5564 31.8803 61.8603 32.5575 61.3942C33.2347 60.928 34.0579 60.7233 34.8745 60.8181C35.6904 60.9112 36.4464 61.2918 37.0072 61.8919C37.568 62.4919 37.8969 63.272 37.9349 64.0925C37.9676 64.951 37.9657 65.821 37.9349 66.6756C37.903 67.5699 37.5245 68.4167 36.8795 69.0368C36.2345 69.6569 35.3736 70.0016 34.479 69.9981C33.5841 69.9905 32.7271 69.6359 32.0883 69.0091C31.4494 68.3823 31.0786 67.532 31.0537 66.6372C31.0403 66.232 31.0537 65.8248 31.0537 65.4177L31 65.4119ZM35.6482 65.4119C35.6482 65.0048 35.6751 64.5957 35.6482 64.1924C35.6358 63.9011 35.5111 63.626 35.3003 63.4248C35.0894 63.2235 34.8088 63.1118 34.5174 63.1131C34.2255 63.1048 33.9421 63.2121 33.7289 63.4117C33.5156 63.6113 33.3899 63.887 33.3788 64.1789C33.3405 64.9913 33.3405 65.8075 33.3788 66.6199C33.3874 66.912 33.5103 67.189 33.7211 67.3912C33.9319 67.5935 34.2138 67.7048 34.5059 67.7011C34.7971 67.7046 35.0784 67.5955 35.2913 67.3965C35.5041 67.1976 35.6319 66.9242 35.6482 66.6333C35.6751 66.2243 35.6482 65.8133 35.6482 65.4062V65.4119Z" fill="#E43B5C"/>
<path d="M37.9481 5.59968C37.9481 6.05484 37.9693 6.50999 37.9481 6.96323C37.8908 7.84423 37.4987 8.66991 36.8521 9.27092C36.2056 9.87192 35.3537 10.2027 34.4711 10.1955C33.6006 10.1863 32.766 9.8472 32.1356 9.24662C31.5053 8.64603 31.1261 7.82865 31.0746 6.95939C31.0324 6.05099 31.0324 5.13876 31.0746 4.23036C31.1276 3.36114 31.5082 2.54437 32.1396 1.94485C32.771 1.34533 33.6063 1.0077 34.4768 1.00007C35.3591 0.994349 36.21 1.32633 36.8555 1.928C37.5009 2.52966 37.8918 3.35544 37.9481 4.23612C37.9693 4.68936 37.9481 5.14452 37.9481 5.59968ZM33.3594 5.54398C33.3594 5.95112 33.3383 6.35827 33.3594 6.76542C33.3609 6.91514 33.3919 7.06311 33.4506 7.20084C33.5094 7.33856 33.5947 7.46335 33.7017 7.56806C33.8087 7.67277 33.9353 7.75533 34.0742 7.81105C34.2131 7.86677 34.3617 7.89455 34.5114 7.89278C34.8033 7.89236 35.0836 7.77785 35.2923 7.57371C35.5011 7.36957 35.6218 7.09193 35.6288 6.8C35.6653 6.01259 35.6634 5.21943 35.6288 4.4301C35.6294 4.27978 35.5998 4.13086 35.5418 3.99219C35.4838 3.85352 35.3985 3.72791 35.2911 3.62279C35.1837 3.51767 35.0563 3.43519 34.9164 3.38022C34.7765 3.32524 34.6271 3.2989 34.4768 3.30276C33.8528 3.31428 33.3921 3.77903 33.3517 4.46657C33.3421 4.82379 33.3594 5.18484 33.3594 5.54398Z" fill="#E43B5C"/>
<path d="M59.7977 5.62461C59.7977 6.03175 59.8092 6.4389 59.7977 6.84605C59.7704 7.7408 59.3971 8.59007 58.7565 9.21513C58.1158 9.84018 57.2578 10.1923 56.3629 10.1973C55.4666 10.2008 54.6043 9.85475 53.9591 9.2326C53.3138 8.61046 52.9364 7.76124 52.9069 6.86525C52.8826 6.0279 52.8826 5.19057 52.9069 4.35323C52.9314 3.45785 53.3034 2.6072 53.9443 1.9816C54.5851 1.35599 55.4444 1.00462 56.3398 1.00195C57.2352 1.00137 58.0958 1.34838 58.7405 1.96992C59.3851 2.59146 59.7634 3.43901 59.7958 4.33403C59.8111 4.7623 59.7958 5.19249 59.7977 5.62461ZM55.209 5.59195V6.66935C55.2061 6.71732 55.2061 6.76542 55.209 6.81339C55.2268 7.10323 55.3534 7.37566 55.5635 7.57613C55.7735 7.7766 56.0515 7.89035 56.3417 7.89464C56.6336 7.90147 56.9166 7.79378 57.1301 7.59458C57.3436 7.39538 57.4707 7.1205 57.4841 6.82877C57.5225 6.01639 57.5225 5.19826 57.4841 4.38589C57.4761 4.09399 57.3536 3.81697 57.1431 3.61466C56.9326 3.41235 56.6509 3.301 56.359 3.30464C56.0663 3.29821 55.7825 3.40576 55.5676 3.60463C55.3527 3.80349 55.2234 4.0781 55.207 4.37051C55.1802 4.77189 55.209 5.18288 55.209 5.59003V5.59195Z" fill="#E43B5C"/>
<path d="M9.1543 65.4082C9.21574 64.7207 9.19844 64.0139 9.3578 63.3494C9.56216 62.5532 10.048 61.858 10.7255 61.3927C11.4029 60.9273 12.2259 60.7232 13.0422 60.8182C13.8465 60.9086 14.5932 61.2794 15.1514 61.8655C15.7096 62.4516 16.0437 63.2157 16.095 64.0235C16.1392 64.93 16.1372 65.8442 16.095 66.7507C16.0457 67.6322 15.6594 68.461 15.0161 69.0656C14.3728 69.6701 13.5217 70.004 12.6391 69.9982C11.7564 69.9904 10.9101 69.645 10.2739 69.0329C9.63772 68.4208 9.25979 67.5884 9.21765 66.7065C9.20037 66.2763 9.21765 65.8442 9.21765 65.414L9.1543 65.4082ZM13.8025 65.4082C13.8025 65.0011 13.8313 64.592 13.8025 64.1887C13.7882 63.8975 13.6615 63.6231 13.4492 63.4233C13.2369 63.2235 12.9555 63.1137 12.664 63.117C12.3721 63.1108 12.0896 63.2201 11.8778 63.4212C11.666 63.6222 11.5422 63.8987 11.5331 64.1906C11.4947 65.003 11.4947 65.8192 11.5331 66.6316C11.5437 66.9236 11.6685 67.1999 11.8808 67.4007C12.0931 67.6015 12.3757 67.7109 12.6678 67.7051C12.959 67.7065 13.2395 67.5954 13.4509 67.3951C13.6622 67.1947 13.7882 66.9206 13.8025 66.6297C13.8294 66.2148 13.8025 65.8058 13.8025 65.3986V65.4082Z" fill="#E43B5C"/>
<path d="M68.9942 19.4388C68.9942 19.846 69.0076 20.2531 68.9942 20.6584C68.9633 21.5544 68.5856 22.4034 67.9408 23.0261C67.296 23.6489 66.4346 23.9967 65.5382 23.9962C64.6436 23.9917 63.7856 23.6403 63.1447 23.016C62.5037 22.3917 62.1298 21.5432 62.1015 20.6487C62.0765 19.8133 62.0746 18.9741 62.1015 18.1367C62.13 17.2401 62.507 16.3899 63.1524 15.7669C63.7977 15.1439 64.6606 14.7974 65.5574 14.8008C66.452 14.8048 67.3102 15.1557 67.9515 15.7796C68.5928 16.4035 68.9673 17.2519 68.9961 18.1463C69.0076 18.5765 68.9942 19.0086 68.9942 19.4388ZM66.6902 19.4388C66.6902 19.0317 66.7133 18.6226 66.6902 18.2174C66.6825 17.9263 66.5635 17.6492 66.3578 17.4431C66.1521 17.237 65.8753 17.1175 65.5843 17.1092C65.4339 17.1028 65.2838 17.1267 65.1428 17.1794C65.0019 17.2321 64.873 17.3126 64.7637 17.4162C64.6545 17.5197 64.5671 17.6442 64.5069 17.7821C64.4467 17.9201 64.4148 18.0688 64.4131 18.2193C64.3805 19.0086 64.3824 19.8018 64.4131 20.5892C64.4166 20.8812 64.5335 21.1604 64.7393 21.3676C64.945 21.5748 65.2233 21.6938 65.5152 21.6993C65.8178 21.7055 66.1107 21.5924 66.3306 21.3843C66.5505 21.1762 66.6797 20.8899 66.6902 20.5873C66.7171 20.2013 66.694 19.8153 66.694 19.4331L66.6902 19.4388Z" fill="#E43B5C"/>
<path d="M52.9053 65.3813C52.9053 64.9511 52.8899 64.519 52.9053 64.0888C52.9489 63.2072 53.328 62.3757 53.9648 61.7647C54.6017 61.1537 55.4481 60.8096 56.3305 60.8028C57.2141 60.7971 58.066 61.1318 58.7095 61.7375C59.353 62.3433 59.7386 63.1736 59.7864 64.0561C59.8248 64.9396 59.8229 65.8269 59.7864 66.7122C59.7461 67.6071 59.3585 68.451 58.706 69.0646C58.0535 69.6782 57.1875 70.0131 56.2921 69.9982C55.4097 69.9817 54.567 69.6281 53.9369 69.01C53.3068 68.3918 52.937 67.556 52.9033 66.6738C52.8918 66.2436 52.9053 65.8115 52.9053 65.3813ZM55.2092 65.3429C55.2092 65.727 55.1958 66.1111 55.2092 66.4952C55.2419 67.2231 55.7161 67.707 56.3612 67.6974C56.511 67.6962 56.659 67.6653 56.7968 67.6067C56.9346 67.548 57.0595 67.4627 57.1642 67.3556C57.2689 67.2485 57.3515 67.1218 57.4071 66.9827C57.4627 66.8436 57.4903 66.6949 57.4882 66.5451C57.5151 65.7769 57.517 65.0087 57.4882 64.2405C57.4888 64.0901 57.4592 63.9411 57.4012 63.8023C57.3432 63.6636 57.258 63.5378 57.1506 63.4326C57.0432 63.3273 56.9158 63.2446 56.776 63.1894C56.6361 63.1342 56.4866 63.1077 56.3363 63.1113C55.7103 63.1113 55.2476 63.5837 55.2073 64.2636C55.1862 64.6246 55.2035 64.9838 55.2035 65.3525L55.2092 65.3429Z" fill="#E43B5C"/>
<path d="M6.90618 51.613C6.90618 52.0451 6.92346 52.4753 6.90618 52.9055C6.86348 53.7997 6.4756 54.6425 5.82421 55.2565C5.17281 55.8705 4.3087 56.2077 3.41374 56.1972C2.52934 56.1844 1.68382 55.8316 1.05252 55.2119C0.421214 54.5922 0.0525674 53.7532 0.0230621 52.869C-0.00573746 52.0086 -0.00957741 51.1405 0.0230621 50.2859C0.0624123 49.4036 0.438948 48.5702 1.07492 47.9576C1.7109 47.3451 2.55776 47.0002 3.44062 46.9941C4.32207 46.9925 5.17082 47.3279 5.81324 47.9316C6.45566 48.5352 6.8432 49.3617 6.89658 50.2417C6.9273 50.7027 6.90618 51.1597 6.90618 51.613ZM4.60222 51.6264C4.60222 51.2193 4.62718 50.8102 4.60222 50.4069C4.59387 50.1157 4.47372 49.8389 4.26671 49.634C4.05971 49.429 3.78174 49.3118 3.49055 49.3064C3.34011 49.3005 3.19002 49.3249 3.04922 49.3783C2.90843 49.4316 2.77983 49.5128 2.67106 49.6169C2.5623 49.721 2.47562 49.846 2.41618 49.9844C2.35675 50.1227 2.32576 50.2717 2.32511 50.4223C2.29247 51.2116 2.29247 52.0048 2.32511 52.7941C2.33009 53.0857 2.44867 53.3639 2.65557 53.5694C2.86247 53.7749 3.14136 53.8916 3.43294 53.8945C3.58303 53.8981 3.73235 53.872 3.87234 53.8177C4.01232 53.7634 4.14021 53.682 4.24867 53.5782C4.35712 53.4743 4.44403 53.3501 4.50437 53.2126C4.56471 53.075 4.5973 52.927 4.6003 52.7768C4.62909 52.3946 4.60796 52.0105 4.60604 51.6264H4.60222Z" fill="#E43B5C"/>
<path d="M68.9926 51.6323C68.9926 52.0644 69.0118 52.4965 68.9926 52.9248C68.9437 53.8047 68.5607 54.6326 67.9219 55.2394C67.2831 55.8462 66.4368 56.1862 65.5559 56.1897C64.6731 56.1908 63.8237 55.8526 63.1834 55.2449C62.543 54.6372 62.1606 53.8066 62.1153 52.9248C62.0788 52.0395 62.0788 51.1522 62.1153 50.2688C62.1605 49.388 62.5421 48.5582 63.1813 47.9506C63.8204 47.3431 64.6684 47.0042 65.5501 47.0039C66.432 47.006 67.2798 47.3452 67.9198 47.9522C68.5598 48.5592 68.9436 49.3879 68.9926 50.2688C69.0118 50.722 68.9926 51.1791 68.9926 51.6323ZM66.6886 51.6054C66.6886 51.1983 66.7155 50.7892 66.6886 50.3859C66.6762 50.095 66.5518 49.8201 66.3413 49.619C66.1309 49.4178 65.8508 49.3058 65.5597 49.3066C65.2675 49.2978 64.9836 49.4049 64.7699 49.6045C64.5563 49.8042 64.4302 50.0802 64.4192 50.3725C64.3808 51.1848 64.3827 52.0011 64.4192 52.8134C64.4278 53.1055 64.5507 53.3825 64.7615 53.5848C64.9723 53.787 65.2542 53.8983 65.5462 53.8947C65.8391 53.9006 66.1229 53.7926 66.3378 53.5934C66.5527 53.3943 66.6819 53.1195 66.6982 52.8269C66.7193 52.4236 66.6905 52.0126 66.6925 51.6054H66.6886Z" fill="#E43B5C"/>
<path d="M4.61164 5.62454C4.61164 6.70195 4.61164 7.77936 4.61164 8.85868C4.61164 9.68834 4.1278 10.203 3.42893 10.1838C2.76078 10.1627 2.32112 9.65952 2.3192 8.86059C2.30896 6.68402 2.30896 4.50426 2.3192 2.32128C2.3192 1.49162 2.7992 0.97692 3.49807 0.996125C4.19694 1.01533 4.60396 1.51466 4.61164 2.31744C4.62124 3.42749 4.61164 4.52985 4.61164 5.62454Z" fill="#E43B5C"/>
<path d="M24.1574 5.66691C24.1574 6.72127 24.1574 7.77947 24.1574 8.82807C24.1574 9.67309 23.7062 10.1916 23.0054 10.1916C22.3046 10.1916 21.8534 9.67694 21.8534 8.83384C21.8457 6.67647 21.8457 4.52038 21.8534 2.36557C21.8534 1.51862 22.3008 1.00583 23.0054 1.00391C23.71 1.00199 24.1574 1.5167 24.1574 2.36172C24.1651 3.46217 24.1574 4.56454 24.1574 5.66691Z" fill="#E43B5C"/>
<path d="M64.3996 5.60743C64.3996 4.53002 64.3996 3.45068 64.3996 2.37328C64.3996 1.52441 64.8412 1.00972 65.5362 1.00395C66.2312 0.998193 66.6882 1.51289 66.6882 2.34831C66.6959 4.50312 66.6959 6.65858 66.6882 8.81467C66.6882 9.66353 66.2427 10.1802 65.5496 10.1859C64.8565 10.1917 64.3976 9.6789 64.3976 8.84156C64.3919 7.76415 64.3996 6.68483 64.3996 5.60743Z" fill="#E43B5C"/>
<path d="M43.7039 5.5422C43.7039 4.46288 43.7039 3.38548 43.7039 2.30807C43.7039 1.50914 44.1551 1.01364 44.8328 1.00404C45.5106 0.99444 45.9848 1.49379 45.9848 2.27544C45.9963 4.48018 45.9963 6.68427 45.9848 8.88774C45.9848 9.68091 45.5279 10.1822 44.8559 10.1918C44.1839 10.2014 43.7039 9.68475 43.6924 8.84741C43.6962 7.73736 43.7039 6.64265 43.7039 5.5422Z" fill="#E43B5C"/>
<path d="M11.5122 19.3294C11.5122 18.277 11.5122 17.2169 11.5122 16.1683C11.5122 15.3213 11.9576 14.8066 12.6642 14.8047C13.3707 14.8028 13.8162 15.3175 13.8162 16.1606C13.8239 18.3154 13.8239 20.4715 13.8162 22.6288C13.8162 23.4739 13.365 23.9905 12.6642 23.9924C11.9634 23.9943 11.5122 23.4796 11.5122 22.6365C11.5045 21.5342 11.5122 20.4318 11.5122 19.3294Z" fill="#E43B5C"/>
<path d="M57.5012 19.3985C57.5012 20.4759 57.5012 21.5553 57.5012 22.6327C57.5012 23.4758 57.0481 23.9943 56.3492 23.9924C55.6504 23.9905 55.1973 23.4758 55.1973 22.6308C55.1973 20.476 55.1973 18.3199 55.1973 16.1625C55.1973 15.3175 55.6485 14.8028 56.3492 14.8047C57.05 14.8066 57.4897 15.3194 57.5012 16.1644C57.507 17.2418 57.5012 18.3211 57.5012 19.3985Z" fill="#E43B5C"/>
<path d="M13.8099 51.5442C13.8099 52.6216 13.8099 53.7009 13.8099 54.7783C13.8099 55.6732 13.3606 56.2052 12.6464 56.1956C11.9322 56.186 11.5174 55.6694 11.5155 54.8186C11.5078 52.6613 11.5078 50.5052 11.5155 48.3503C11.5155 47.5111 11.9802 46.9964 12.6675 47.006C13.3549 47.0156 13.7945 47.5303 13.8003 48.3811C13.8157 49.4354 13.8099 50.4898 13.8099 51.5442Z" fill="#E43B5C"/>
<path d="M57.5014 51.6171C57.5014 52.6695 57.5014 53.7297 57.5014 54.7782C57.5014 55.6732 57.0521 56.2071 56.3359 56.1956C55.6198 56.1841 55.2089 55.6674 55.2051 54.8167C55.2051 52.6619 55.2051 50.5058 55.2051 48.3484C55.2051 47.5111 55.6697 46.9944 56.3571 47.004C57.0444 47.0136 57.4822 47.5283 57.4899 48.381C57.5071 49.4604 57.5014 50.5378 57.5014 51.6171Z" fill="#E43B5C"/>
<path d="M4.61164 35.4484C4.61164 36.5508 4.61164 37.6531 4.61164 38.7555C4.61164 39.5871 4.13741 40.0999 3.44238 40.0999C2.74735 40.0999 2.32304 39.5832 2.3192 38.7881C2.30896 36.6116 2.30896 34.435 2.3192 32.2584C2.3192 31.423 2.78959 30.9141 3.48846 30.9141C4.18733 30.9141 4.60396 31.4249 4.61356 32.2239C4.62124 33.2936 4.61164 34.371 4.61164 35.4484Z" fill="#E43B5C"/>
<path d="M66.6977 35.5559C66.6977 36.6352 66.7073 37.7126 66.6977 38.79C66.6977 39.5832 66.2388 40.0845 65.5649 40.0941C64.891 40.1037 64.4129 39.6005 64.4129 38.8188C64.4014 36.6141 64.4014 34.41 64.4129 32.2065C64.4129 31.4095 64.8661 30.914 65.5438 30.9044C66.2216 30.8948 66.6958 31.4095 66.6958 32.2488C66.7054 33.3531 66.6977 34.4554 66.6977 35.5559Z" fill="#E43B5C"/>
<path d="M2.31396 65.3523C2.31396 64.2749 2.31396 63.1975 2.31396 62.1182C2.31396 61.3211 2.76708 60.8257 3.44483 60.8161C4.12258 60.8065 4.59681 61.3058 4.59681 62.0894C4.60833 64.2915 4.60833 66.4956 4.59681 68.7017C4.59681 69.4929 4.13793 69.9961 3.46594 70.0057C2.79395 70.0153 2.31396 69.4967 2.31396 68.6613C2.30628 67.5474 2.31396 66.4451 2.31396 65.3523Z" fill="#E43B5C"/>
<path d="M21.8588 65.3372C21.8588 64.2578 21.8588 63.1804 21.8588 62.103C21.8684 61.3079 22.3176 60.8125 22.9954 60.8067C23.6731 60.8009 24.1474 61.3003 24.1474 62.0857C24.1589 64.2905 24.1589 66.4946 24.1474 68.698C24.1474 69.4893 23.6847 69.9906 23.0107 69.9963C22.3368 70.0021 21.8588 69.4989 21.8588 68.7134C21.8492 67.588 21.8588 66.4626 21.8588 65.3372Z" fill="#E43B5C"/>
<path d="M46.0021 65.4735C46.0021 66.5278 46.0021 67.586 46.0021 68.6346C46.0021 69.4777 45.5471 69.9963 44.8501 69.9963C44.1532 69.9963 43.6981 69.4777 43.6981 68.6327C43.6905 66.4779 43.6905 64.3224 43.6981 62.1664C43.6981 61.3194 44.1493 60.8066 44.8501 60.8066C45.5509 60.8066 45.9887 61.3213 46.0021 62.1664C46.0098 63.2687 46.0021 64.3711 46.0021 65.4735Z" fill="#E43B5C"/>
<path d="M66.6976 65.4254C66.6976 66.5028 66.6976 67.5802 66.6976 68.6576C66.6976 69.4911 66.2214 70.002 65.5264 70.002C64.8314 70.002 64.4071 69.4835 64.4051 68.6884C64.3949 66.5118 64.3949 64.332 64.4051 62.149C64.4051 61.3136 64.8774 60.8047 65.5763 60.8047C66.2752 60.8047 66.6899 61.3155 66.6995 62.1164C66.7072 63.2207 66.6976 64.3231 66.6976 65.4254Z" fill="#E43B5C"/>
</svg>
