<svg width="106" height="98" viewBox="0 0 106 98" fill="none" xmlns="http://www.w3.org/2000/svg">
<path d="M0.000970318 19.8213C0.0889754 19.6076 0.190206 19.3986 0.262125 19.1793C1.17624 16.3495 3.59972 14.5218 6.58338 14.4992C10.3894 14.4698 14.1944 14.4906 18.0004 14.4906H59.693V13.3485C59.693 10.9498 59.6741 8.55116 59.6978 6.15343C59.7309 2.86033 62.0275 0.469218 65.3131 0.459763C76.7979 0.426987 88.2833 0.426987 99.7694 0.459763C103.064 0.470163 105.341 2.85843 105.342 6.17517C105.351 28.5483 105.351 50.9212 105.342 73.2937C105.342 77.26 102.509 80.0491 98.4986 80.052C87.2535 80.0614 76.0081 80.0614 64.7623 80.052H63.5529C63.6003 80.2968 63.6059 80.4906 63.675 80.658C64.7226 83.1862 65.7966 85.7031 66.8186 88.2417C67.0353 88.7787 67.3126 88.9517 67.8775 88.9394C69.5913 88.9035 71.3059 88.9186 73.0197 88.93C74.4675 88.9394 75.0069 89.468 75.0173 90.9212C75.0343 92.6344 75.0343 94.3476 75.0173 96.0608C75.0012 97.479 74.493 97.9943 73.0897 97.9943C59.5123 98.0018 45.9352 98.0018 32.3585 97.9943C30.939 97.9943 30.4403 97.479 30.4327 96.0806C30.4233 94.3334 30.4233 92.5861 30.4327 90.8389C30.4413 89.4594 30.9712 88.9394 32.383 88.929C34.0968 88.9167 35.8124 88.9508 37.5252 88.9035C37.8574 88.895 38.3684 88.6842 38.48 88.4308C39.6704 85.7087 40.7965 82.9593 42.0097 80.0529H40.7208C29.8868 80.0529 19.0508 79.9669 8.21855 80.0973C4.10881 80.1474 1.26046 78.768 0 74.7147V45.7236C0.557366 45.0787 1.17151 44.537 2.1055 44.9086C3.03949 45.2801 3.09344 46.0999 3.0925 46.9631C3.08114 52.8912 3.07895 58.8197 3.08589 64.7485V65.9256H102.221V42.6526C98.613 43.4327 94.9812 42.9212 91.3721 43.0308C90.6415 43.0535 90.2081 43.2322 89.8125 43.8723C87.9569 46.8723 86.0444 49.8364 84.1471 52.8099C83.1062 54.4484 81.9611 54.4598 80.9297 52.8383C79.0125 49.8364 77.0915 46.8373 75.2084 43.8137C74.8592 43.253 74.4949 43.0252 73.8193 43.0356C71.075 43.0781 68.3308 43.0639 65.5865 43.0507C62.0616 43.0327 59.7195 40.6974 59.6968 37.184C59.6848 35.334 59.6848 33.4837 59.6968 31.6331C59.7034 30.4097 60.2542 29.7166 61.2033 29.6892C62.1903 29.6608 62.7713 30.3747 62.777 31.6473C62.7846 33.4295 62.777 35.2117 62.777 36.993C62.7865 39.0144 63.7233 39.9618 65.7237 39.9665C68.8096 39.9751 71.8964 39.9996 74.9823 39.9514C75.9977 39.9363 76.6392 40.3135 77.1635 41.1607C78.7125 43.6662 80.3137 46.1377 81.8949 48.6205C82.0738 48.9042 82.2734 49.167 82.5498 49.566C83.4137 48.2083 84.2143 46.9489 85.0158 45.6895C85.9177 44.2713 86.8715 42.889 87.7052 41.4349C88.3193 40.3655 89.0868 39.907 90.3595 39.9439C93.3403 40.0318 96.3211 39.9779 99.3085 39.9703C101.325 39.9646 102.252 39.0324 102.252 37.0063C102.252 26.8285 102.252 16.6508 102.252 6.47301C102.252 4.43361 101.359 3.53162 99.3058 3.53067C88.1263 3.52374 76.9471 3.52374 65.7682 3.53067C63.6599 3.53067 62.7751 4.42983 62.7732 6.54487C62.7682 12.1301 62.7682 17.7157 62.7732 23.3016C62.7732 23.5758 62.7827 23.8509 62.7732 24.1241C62.7288 25.0923 62.1411 25.7437 61.296 25.773C60.4122 25.8033 59.7243 25.1415 59.7035 24.1232C59.6685 22.3419 59.6921 20.5597 59.6911 18.7774V17.5767H7.13697C4.41544 17.5767 3.08873 18.9004 3.08778 21.6016C3.08778 27.3243 3.08998 33.0469 3.09439 38.7696C3.09439 39.6082 3.00542 40.3882 2.13105 40.7381C1.27466 41.0813 0.609415 40.7068 0.098418 39.9987C0.0832774 39.9779 0.0340702 39.9807 0.00378886 39.9722L0.000970318 19.8213ZM3.08681 69.126V72.7188C3.08681 75.7368 4.31698 76.981 7.30631 76.981C37.5441 76.981 67.782 76.981 98.0198 76.981C98.3623 76.981 98.7067 76.9952 99.0474 76.9678C100.611 76.8402 102.019 75.7169 102.17 74.1711C102.329 72.5193 102.206 70.8402 102.206 69.1307L3.08681 69.126ZM33.5659 94.843H71.8406V92.0935C71.7419 92.0656 71.6414 92.0451 71.5397 92.0321C66.7761 92.0264 62.013 92.0223 57.2506 92.0198C56.839 92.0198 56.4226 92.0482 56.0205 91.9914C55.2492 91.8827 54.7903 91.4166 54.7184 90.6337C54.6465 89.8509 55.0023 89.2931 55.747 89.0576C56.0962 88.948 56.4879 88.9423 56.8598 88.9413C59.1139 88.9309 61.368 88.9366 63.6457 88.9366C63.6277 88.7418 63.6457 88.6321 63.6069 88.5452C62.5092 85.8912 61.4238 83.2316 60.276 80.6032C60.1614 80.3403 59.6694 80.0917 59.3505 80.0888C54.9294 80.0557 50.5074 80.0794 46.0863 80.051C45.4949 80.051 45.2526 80.2675 45.052 80.78C44.4521 82.3069 43.8019 83.8149 43.1708 85.3305C42.6891 86.4878 42.2056 87.6441 41.6643 88.9413H42.9437C45 88.9413 47.0572 88.9205 49.1125 88.9536C50.1241 88.9706 50.7998 89.6722 50.7657 90.5458C50.7326 91.4024 50.0958 91.9735 49.1135 92.0198C48.84 92.033 48.5656 92.0198 48.2912 92.0198H33.5659V94.843Z" fill="#004999"/>
<path d="M14.9842 50.5068C13.9764 50.5068 13.1247 50.5229 12.274 50.5068C9.52975 50.4463 7.62679 48.5562 7.59651 45.8323C7.57474 43.8109 7.5719 41.7885 7.59651 39.7671C7.63247 37.1557 9.50801 35.26 12.1387 35.1636C13.0613 35.1305 13.9859 35.1588 15.005 35.1588C15.6788 30.5865 17.8316 26.9502 21.7 24.4267C24.2078 22.7662 27.1854 21.9596 30.1892 22.1273C33.7785 22.306 36.9135 23.6344 39.5329 26.1106C42.12 28.5556 43.566 31.5944 44.0628 35.156C45.0176 35.156 45.9061 35.139 46.7938 35.156C49.5588 35.2193 51.4353 37.0706 51.4798 39.82C51.5129 41.8405 51.5158 43.8629 51.4798 45.8843C51.4297 48.577 49.5522 50.4396 46.8572 50.4992C45.5551 50.5285 44.2511 50.5172 42.9481 50.5039C41.5457 50.4907 41.0328 49.9887 41.0271 48.5667C41.0119 44.7299 41.0431 40.8913 41.0157 37.0545C40.975 31.2616 37.5249 26.8159 32.0941 25.498C25.2571 23.8405 18.2697 29.086 18.1155 36.1166C17.9972 41.4595 18.0738 46.8071 18.0795 52.1519C18.0795 53.381 18.6416 54.2915 19.85 54.8938C21.0253 52.5216 23.04 51.9363 25.4483 52.081C26.7466 52.1595 28.0534 52.0744 29.3555 52.1046C31.9105 52.1642 33.9308 54.2093 33.9356 56.7063C33.9403 59.2033 31.9313 61.2654 29.3716 61.3287C27.6238 61.3713 25.8703 61.3675 24.1254 61.3287C22.2536 61.289 20.8862 60.3946 19.9664 58.7617C19.7857 58.4412 19.4829 58.0999 19.1554 57.9666C16.3279 56.7999 15.006 54.8702 14.9861 51.7841C14.9823 51.4135 14.9842 51.041 14.9842 50.5068ZM44.1517 47.4066C45.169 47.4066 46.0907 47.451 47.0058 47.3943C47.8858 47.3385 48.3751 46.7825 48.3874 45.9117C48.4139 43.8629 48.4072 41.8131 48.3874 39.7661C48.3817 38.9937 47.9937 38.3895 47.2158 38.3139C46.2165 38.2194 45.2002 38.2893 44.1479 38.2893L44.1517 47.4066ZM14.9322 38.26C13.8998 38.26 12.9449 38.2014 11.9987 38.278C11.1773 38.3441 10.6994 38.8963 10.6899 39.7245C10.6653 41.8103 10.6669 43.8963 10.6946 45.9827C10.706 46.7608 11.1754 47.3063 11.9438 47.3735C12.9156 47.4567 13.9007 47.3933 14.9293 47.3933L14.9322 38.26ZM26.6917 55.1841H24.326C24.2569 55.1841 24.1878 55.1841 24.1197 55.1888C23.2226 55.2663 22.6217 55.862 22.6056 56.6883C22.5895 57.5146 23.1734 58.2115 24.0601 58.2361C25.8069 58.2852 27.5566 58.2805 29.3035 58.2417C29.7041 58.2416 30.0887 58.0854 30.3757 57.8062C30.6628 57.527 30.8294 57.147 30.8403 56.7469C30.8573 55.9102 30.1996 55.2341 29.2599 55.1954C28.4054 55.1557 27.5481 55.1841 26.6917 55.1841Z" fill="#E33C5C"/>
<path d="M82.4649 36.7709C80.6149 36.7709 78.7639 36.7832 76.913 36.7662C75.5021 36.7539 75.0082 36.2594 74.9978 34.8279C74.9807 32.3631 75.0318 29.8954 74.9618 27.4315C74.9286 26.8437 74.6948 26.2851 74.2994 25.8487C68.5176 19.9206 70.6505 9.99306 78.3685 7.0252C80.1901 6.3246 81.0634 6.90797 81.0672 8.83297C81.0672 10.8875 81.0672 12.942 81.0672 14.9975C81.0672 15.6432 81.9056 16.4251 82.5661 16.2398C83.1708 16.0715 84.0178 16.0678 83.9809 14.9757C83.9099 12.8891 83.9524 10.7986 83.9628 8.7091C83.9714 6.98266 84.8808 6.36243 86.4999 6.95713C94.3078 9.82382 96.5798 19.7778 90.7667 25.758C90.2359 26.3044 90.0438 26.8292 90.0552 27.5544C90.0902 29.8821 90.0712 32.2118 90.0674 34.5405C90.0674 36.3274 89.6198 36.7624 87.802 36.7662C86.0296 36.7737 84.2477 36.7709 82.4649 36.7709ZM87.0544 10.6322C87.0544 12.7633 87.1178 14.6146 87.0166 16.4573C86.9854 17.017 86.6381 17.815 86.199 18.0514C84.2118 19.1179 82.2359 20.0482 79.8739 18.6187C78.1564 17.5786 77.9813 17.7167 77.9813 15.6877V10.6833C77.6331 10.9168 77.459 11.017 77.3029 11.1409C73.1515 14.4377 72.968 20.5493 76.9651 24.0693C77.7609 24.7699 78.1763 25.497 78.0817 26.5465C78.0325 27.0901 78.0732 27.6413 78.0732 28.1888V33.6357H80.9963V32.5361C80.9963 30.5821 80.9963 28.6303 80.9963 26.6807C80.9963 26.4066 80.9887 26.1324 81.0038 25.8591C81.0587 24.8711 81.6265 24.2339 82.4706 24.1998C83.3383 24.1639 84.0423 24.8304 84.0613 25.8506C84.102 28.0073 84.0774 30.1648 84.0802 32.3224V33.6139H86.9891V32.5446C86.9891 30.4551 87.0137 28.3665 86.9778 26.278C86.9626 25.4214 87.2286 24.7907 87.8986 24.2329C90.0987 22.3977 91.1207 20.0085 90.9267 17.1598C90.7469 14.4519 89.4788 12.3369 87.0544 10.6322Z" fill="#E33C5C"/>
<path d="M78.9074 60.9806C73.1823 60.9806 67.4573 60.9891 61.7332 60.9655C61.2468 60.9655 60.6695 60.8709 60.292 60.6062C59.3324 59.9236 59.586 58.4515 60.7055 58.0534C61.1096 57.9088 61.5789 57.9059 62.018 57.905C73.3653 57.8981 84.712 57.8962 96.058 57.8993C96.2984 57.8993 96.5396 57.8861 96.7771 57.9097C97.7234 58.0043 98.3575 58.6491 98.3358 59.4943C98.314 60.3396 97.6677 60.957 96.6987 60.975C95.2253 61.0005 93.75 60.9835 92.2766 60.9835L78.9074 60.9806Z" fill="#E33C5C"/>
<path d="M67.8497 54.9959C65.7593 54.9959 63.669 55.0035 61.5786 54.9959C60.3957 54.9903 59.6775 54.3766 59.7059 53.4302C59.7333 52.5273 60.4383 51.9231 61.5531 51.9174C65.7338 51.9061 69.9148 51.9061 74.0961 51.9174C75.2932 51.9174 75.966 52.5226 75.9452 53.504C75.9253 54.4494 75.2828 54.9874 74.1217 54.9931C72.0295 55.0044 69.94 54.9959 67.8497 54.9959Z" fill="#E33C5C"/>
<path d="M37.3146 74.5474C36.2178 74.5474 35.1201 74.5701 34.0233 74.5389C33.0345 74.5115 32.4355 73.9111 32.4326 73.0261C32.4326 72.161 33.0439 71.4992 34.0129 71.4831C36.2415 71.4472 38.4709 71.4443 40.6985 71.4831C41.6646 71.5011 42.2523 72.1799 42.2286 73.0649C42.205 73.9498 41.6202 74.5143 40.6067 74.5389C39.51 74.5682 38.4123 74.5484 37.3146 74.5474Z" fill="#E33C5C"/>
<path d="M55.2574 74.5464C54.9849 74.5464 54.7114 74.5597 54.4398 74.5464C53.4623 74.4897 52.8671 73.9129 52.8633 73.0336C52.8595 72.1544 53.4509 71.553 54.419 71.4821C54.9295 71.4495 55.4415 71.4495 55.952 71.4821C56.9598 71.5388 57.6194 72.1903 57.5957 73.0696C57.5721 73.9489 56.9106 74.519 55.8706 74.5559C55.6672 74.5634 55.4618 74.5559 55.2574 74.5559V74.5464Z" fill="#E33C5C"/>
<path d="M62.8605 74.5417C61.2793 74.5502 60.545 74.0869 60.5109 73.0696C60.4759 71.9984 61.2556 71.4623 62.8643 71.468C63.2046 71.4528 63.5455 71.4622 63.8844 71.4963C64.7597 71.6268 65.3114 72.2877 65.2367 73.1244C65.1581 73.9952 64.649 74.4689 63.7794 74.5379C63.4756 74.5616 63.1671 74.5417 62.8605 74.5417Z" fill="#E33C5C"/>
<path d="M47.5677 74.5512C45.8938 74.5512 45.1887 74.0936 45.1954 73.0101C45.202 71.9436 45.9429 71.4661 47.5904 71.467C47.7608 71.467 47.9311 71.467 48.1014 71.467C49.201 71.5011 49.906 72.0854 49.9316 72.9798C49.9581 73.9253 49.2559 74.5219 48.0787 74.5474C47.9084 74.554 47.7381 74.5502 47.5677 74.5512Z" fill="#E33C5C"/>
<path d="M70.5947 74.5501C68.9321 74.5501 68.1902 74.0859 68.1807 73.0374C68.1713 71.9888 68.9548 71.4707 70.5711 71.4707C70.7745 71.4707 70.9798 71.4641 71.1833 71.4707C72.2772 71.5189 72.9349 72.1269 72.9122 73.061C72.8904 73.9772 72.281 74.5104 71.2089 74.5492C71.0035 74.5558 70.8001 74.5501 70.5947 74.5501Z" fill="#E33C5C"/>
</svg>
