<svg width="69" height="65" viewBox="0 0 69 65" fill="none" xmlns="http://www.w3.org/2000/svg">
<g clip-path="url(#clip0_800_56)">
<path d="M46.627 44.5379C45.8454 45.1853 45.135 45.7659 44.4281 46.3642C43.0302 47.5325 42.7709 49.0745 43.7709 50.2938C43.9818 50.5606 44.2451 50.7824 44.5452 50.9459C44.8453 51.1093 45.1759 51.2109 45.5168 51.2446C45.6006 51.2531 45.6849 51.2572 45.7691 51.2569C46.557 51.2303 47.3107 50.9331 47.9006 50.4166C50.2683 48.4711 52.817 46.3817 55.3961 44.2344C56.1794 43.5854 56.6004 42.7714 56.5826 41.9451C56.5649 41.1188 56.1048 40.3171 55.2895 39.6996C55.0408 39.5119 54.8028 39.3207 54.579 39.133L52.3535 37.2524C50.8615 35.9893 49.318 34.6841 47.7904 33.4087C47.0586 32.7982 46.1919 32.5316 45.3659 32.6666C44.9993 32.725 44.6501 32.8623 44.3432 33.0687C44.0362 33.2752 43.779 33.5458 43.5897 33.8613C42.8508 35.049 43.0764 36.3471 44.1918 37.3313C44.9396 37.9927 45.714 38.6488 46.5311 39.3417H7.30377C5.70519 39.3417 5.26999 38.9102 5.26999 37.3296C5.26999 27.3383 5.26999 17.3464 5.26999 7.35398C5.26999 5.59969 5.62526 5.24883 7.39258 5.24883H28.3961H31.6679C33.6927 5.24883 35.7868 5.2383 37.8455 5.24883C39.3499 5.24883 39.7638 5.66635 39.7691 7.15574C39.7691 7.92646 39.7691 8.69659 39.7691 9.46614C39.7691 10.4433 39.7691 11.4538 39.7691 12.4484C39.7815 14.2133 40.7797 15.3272 42.3748 15.3535H42.4317C43.0895 15.3728 43.7282 15.1337 44.2079 14.6887C44.7301 14.1869 45.0124 13.4308 45.0213 12.5046C45.0373 10.7871 45.0408 9.0188 45.032 7.10136C45.0089 2.80335 42.19 0.0227957 37.8419 0.0192871C27.0586 0.0192871 17.0266 0.0192871 7.17585 0.0192871C2.8135 0.0192871 -0.00705324 2.80159 -0.0123818 7.0996C-0.0123818 16.8412 -0.0123818 27.0669 -0.0123818 37.4909C-0.0288571 38.1989 0.0445352 38.9061 0.206087 39.5961C1.01426 42.6503 3.60388 44.5485 6.96622 44.5502C16.6761 44.5502 26.389 44.5502 36.1048 44.5502L46.627 44.5379Z" fill="#E33B5C"/>
<path d="M68.9947 27.5722C68.9947 23.1865 66.2132 20.4621 61.7478 20.4621H22.4725C23.0054 19.9674 23.5471 19.5043 24.0799 19.0499C24.341 18.8254 24.6039 18.6026 24.8633 18.3763C25.9752 17.4079 26.1439 15.8816 25.2629 14.7466C25.0423 14.4635 24.7667 14.2268 24.4523 14.0503C24.1378 13.8737 23.7908 13.761 23.4316 13.7186C23.1009 13.6774 22.7651 13.7028 22.4446 13.7933C22.124 13.8837 21.8254 14.0374 21.5666 14.2449C18.4565 16.736 15.7603 18.9552 13.3251 21.0235C13.0339 21.2636 12.7999 21.5642 12.6397 21.9038C12.4794 22.2433 12.3968 22.6136 12.3979 22.9883C12.4074 23.4013 12.5077 23.8074 12.6917 24.1784C12.8757 24.5495 13.1391 24.8766 13.4636 25.1373L16.8171 27.9354L21.08 31.4931C21.842 32.1281 22.6661 32.4281 23.4636 32.358C23.8016 32.3269 24.1298 32.2289 24.4286 32.0697C24.7274 31.9106 24.9906 31.6936 25.2025 31.4317C26.2132 30.2353 25.9769 28.6897 24.5968 27.4915C23.9094 26.8951 23.2061 26.3004 22.4654 25.6741H28.0586C39.2025 25.6741 50.7247 25.6741 62.0587 25.6741C63.1706 25.6741 63.7122 26.2109 63.7122 27.3144C63.7211 36.9244 63.7211 47.001 63.7122 58.1197C63.7122 59.246 63.2007 59.7495 62.0569 59.7512C51.6998 59.7653 41.2416 59.7653 30.9734 59.7512C29.7052 59.7512 29.2309 59.274 29.2256 57.9969C29.2256 57.1923 29.2256 56.3876 29.2256 55.583C29.2256 54.5725 29.2256 53.527 29.2256 52.4972C29.2096 50.785 28.1421 49.6395 26.5613 49.6395H26.54C25.0107 49.6482 23.9751 50.7798 23.9609 52.4551C23.9521 53.8164 23.9609 55.1988 23.9609 56.5373V57.8531C23.9609 62.2511 26.7354 64.986 31.1918 64.993C36.3872 64.993 41.5506 65.0018 46.6448 65.0018C51.8295 65.0018 56.9468 65.0018 61.9592 64.9913C66.0942 64.9913 68.9841 62.1406 68.9894 58.0706C69.0036 46.8449 69.0054 36.8682 68.9947 27.5722Z" fill="#E33B5C"/>
</g>
<defs>
<clipPath id="clip0_800_56">
<rect width="69" height="65" fill="white"/>
</clipPath>
</defs>
</svg>
