<svg width="102" height="103" viewBox="0 0 102 103" fill="none" xmlns="http://www.w3.org/2000/svg">
<path d="M0 91.6806C0.269515 90.6142 0.893193 89.7901 1.67844 89.0328C8.00905 82.9228 14.3304 76.8042 20.6423 70.6771C22.5064 68.8736 24.1445 68.58 26.5134 69.6611C27.3923 70.0593 28.2022 70.595 28.9126 71.2479C29.301 71.6037 29.5542 71.6844 29.9674 71.241C32.8862 68.1088 35.8234 64.9927 38.779 61.8926C39.2318 61.4173 39.172 61.1066 38.7596 60.646C33.4695 54.7431 30.3526 47.8009 29.7282 39.9345C28.779 27.9555 32.6726 17.7031 41.6536 9.59435C49.2652 2.72367 58.3301 -0.320991 68.5002 0.457262C79.2489 1.28056 88.0023 6.09765 94.6198 14.6654C98.7425 20.0021 101.144 26.072 101.802 32.7501C102.697 41.8064 100.564 50.1481 95.2512 57.5897C90.6946 63.9788 84.6858 68.4202 77.2248 70.914C72.7454 72.4106 68.0137 73.0048 63.3033 72.6623C55.9252 72.1507 49.3346 69.6324 43.5316 65.1074C42.7402 64.4922 42.3208 64.5637 41.6676 65.2775C38.8427 68.3617 35.9689 71.4017 33.085 74.4316C32.612 74.9287 32.5414 75.3062 32.915 75.8957C33.2628 76.4611 33.532 77.0712 33.7149 77.7093C34.2136 79.3893 33.9751 80.8782 32.633 82.1707C26.0078 88.5489 19.4004 94.9453 12.8109 101.36C12.3322 101.819 11.7726 102.185 11.1604 102.44H8.7697C8.56465 102.333 8.36194 102.223 8.15534 102.119C4.14058 100.091 1.14252 97.1866 0 92.6771V91.6806ZM34.073 36.4813C33.9309 53.7241 47.781 68.201 65.5868 68.2887C83.2388 68.3757 97.4951 54.4751 97.5231 36.5776C97.5518 18.5264 83.0136 4.91086 65.9317 4.81066C48.4311 4.71435 33.9821 18.9567 34.073 36.4813ZM29.1946 78.6289C29.1394 78.4891 29.0928 78.2483 28.9654 78.0619C27.7965 76.3408 26.3713 74.8821 24.5786 73.7978C24.0248 73.4631 23.6637 73.7202 23.2769 74.1023C17.2057 80.0518 11.127 85.9936 5.04077 91.9275C4.49708 92.4588 4.47068 92.9373 4.85592 93.4957C6.01631 95.1788 7.42757 96.6103 9.16738 97.7054C9.64039 98.0029 9.99068 97.926 10.3891 97.5345C16.5043 91.5348 22.6255 85.5413 28.7526 79.554C28.9864 79.3241 29.2458 79.098 29.1922 78.6305L29.1946 78.6289Z" fill="#004999"/>
<path d="M43.4707 32.0362C44.541 32.3857 45.1888 31.6642 45.8474 30.7741C47.5655 28.4533 49.334 26.1698 51.1196 23.9003C51.5965 23.2929 51.713 22.7849 51.4381 22.0121C50.4113 19.1259 51.4047 16.0316 53.7682 14.4152C56.1674 12.7756 59.5158 12.9519 61.7394 14.837C64.4051 17.0941 64.7266 21.1725 62.3554 23.9407C61.7006 24.705 61.6812 25.2665 62.0843 26.1255C64.9433 32.225 67.7542 38.3484 70.5822 44.4603C71.2874 45.9834 73.1849 46.1861 74.1752 44.8486C76.8237 41.2758 79.4513 37.6867 82.1286 34.1349C82.6552 33.4358 82.8027 32.8463 82.5402 31.9686C81.5662 28.7127 83.2633 25.289 86.3165 24.145C89.5655 22.9232 93.2043 24.3003 94.569 27.369C95.6362 29.769 95.4295 32.117 93.7488 34.1954C92.047 36.3011 89.7915 37.0257 87.1701 36.43C86.4128 36.2583 85.9849 36.3523 85.5134 37.0001C83.0016 40.4673 80.4408 43.8995 77.8854 47.3349C77.4847 47.8739 77.2781 48.3213 77.6486 49.0358C79.1717 51.971 78.3585 55.4048 75.7736 57.3139C73.3573 59.0948 69.7223 58.8844 67.4909 56.8331C65.202 54.729 64.7872 51.07 66.607 48.3671C67.0016 47.7791 67.0171 47.3434 66.7367 46.7415C63.7122 40.2431 60.6984 33.74 57.6952 27.2323C56.9853 25.7038 55.4808 25.5422 54.4657 26.8611C52.7243 29.1228 51.0101 31.4063 49.2268 33.6347C48.7002 34.2933 48.6559 34.771 49.0202 35.5593C50.1534 38.009 49.9919 40.4277 48.2606 42.5706C46.6055 44.6187 44.3662 45.3022 41.835 44.7648C39.1833 44.2009 37.5375 42.4898 36.9247 39.8514C35.9818 35.7659 39.0513 32.0261 43.4707 32.0362ZM43.2035 36.5248C42.0206 36.5387 41.2734 37.2921 41.2928 38.4502C41.3123 39.623 42.1472 40.4378 43.3123 40.4246C44.4773 40.4114 45.1934 39.6572 45.1911 38.465C45.1903 37.2152 44.4672 36.5092 43.2066 36.5248H43.2035ZM71.981 50.0976C70.8113 50.0782 70.0043 50.837 69.9841 51.9756C69.9631 53.1407 70.7158 53.9585 71.8427 53.995C73.0365 54.0378 73.8699 53.2455 73.8816 52.0533C73.8948 50.8844 73.153 50.117 71.9841 50.0976H71.981ZM90.6994 30.1473C90.6907 29.6272 90.4787 29.1312 90.1088 28.7655C89.7389 28.3999 89.2405 28.1935 88.7204 28.1908C87.6152 28.1908 86.7491 29.0451 86.7523 30.1271C86.7502 30.3928 86.801 30.6564 86.9018 30.9023C87.0025 31.1483 87.1512 31.3717 87.3391 31.5596C87.527 31.7476 87.7505 31.8962 87.9965 31.997C88.2424 32.0977 88.5059 32.1486 88.7717 32.1465C89.2919 32.1357 89.7867 31.9193 90.1478 31.5446C90.5089 31.17 90.707 30.6676 90.6987 30.1473H90.6994ZM57.5344 21.703C58.6396 21.6828 59.4909 20.816 59.4715 19.7302C59.4513 18.6281 58.5146 17.7698 57.3744 17.8094C56.2909 17.8467 55.5103 18.6459 55.501 19.7255C55.4909 20.8603 56.3794 21.724 57.5344 21.703Z" fill="#E33C5C"/>
</svg>
