<svg width="71" height="70" viewBox="0 0 71 70" fill="none" xmlns="http://www.w3.org/2000/svg">
<path d="M13.44 69.9997H58.5482V67.7368C59.359 67.7368 60.0567 67.7259 60.7525 67.7478C60.8257 67.7544 60.8966 67.7773 60.9598 67.8149C61.023 67.8525 61.077 67.9039 61.1177 67.9651C61.6163 69.061 62.5038 69.6527 63.6032 69.9997H64.8396L65.4678 69.7495C66.2278 69.4496 66.853 68.8839 67.2272 68.1576C67.6014 67.4313 67.6991 66.5938 67.5023 65.8009C67.346 65.1547 67.0011 64.5696 66.5113 64.1201C66.0215 63.6706 65.4091 63.3771 64.7519 63.2768C64.0721 63.1648 63.3744 63.265 62.7535 63.5637C62.1327 63.8624 61.6189 64.3451 61.2821 64.9461C61.1652 65.1452 60.9917 65.4429 60.8255 65.4557C60.095 65.5105 59.3444 65.4794 58.5957 65.4794V58.7218C58.8477 58.709 59.0705 58.6889 59.2915 58.6871C60.7725 58.6871 62.2536 58.7017 63.7329 58.6871C64.1858 58.6871 64.4524 58.7821 64.6917 59.224C65.2998 60.3509 66.3024 60.939 67.5863 60.9609C68.3919 60.9652 69.1727 60.6823 69.7886 60.1628C70.4044 59.6433 70.815 58.9213 70.9465 58.1264C71.072 57.3433 70.9191 56.541 70.5144 55.859C70.1096 55.1769 69.4787 54.6583 68.7313 54.3933C67.9867 54.118 67.1677 54.1216 66.4255 54.4032C65.6833 54.6849 65.0681 55.2257 64.6935 55.9256C64.4561 56.3676 64.1949 56.4735 63.7457 56.4735C62.2427 56.4534 60.7378 56.4735 59.2348 56.4644C59.0194 56.4644 58.8039 56.4461 58.603 56.437V49.6684C59.2276 49.6684 59.8156 49.6976 60.4 49.6593C60.8474 49.6282 61.0739 49.7889 61.2912 50.1889C61.6614 50.8918 62.2736 51.4368 63.0145 51.7232C63.7555 52.0096 64.5751 52.018 65.3217 51.7468C66.7827 51.2391 67.6648 49.8876 67.5808 48.2986C67.5283 47.5883 67.2528 46.9128 66.7937 46.3684C66.3345 45.8239 65.7152 45.4384 65.024 45.2668C64.3099 45.0934 63.5588 45.1564 62.8834 45.4462C62.208 45.736 61.6449 46.237 61.2784 46.874C61.1524 47.0859 60.9552 47.3909 60.7689 47.4073C60.0548 47.4694 59.3298 47.4329 58.603 47.4329V40.6296H59.3901C61.7149 40.6296 64.0379 40.6296 66.3609 40.6296C66.9288 40.6296 67.3525 40.405 67.5223 39.8662C67.6922 39.3274 67.5114 38.8343 66.9927 38.5201C66.8959 38.4617 66.8101 38.396 66.706 38.3375L56.5886 32.1132C56.3914 31.9908 56.2015 31.8575 56.0079 31.7315C57.5657 31.5963 59.0614 31.6091 60.557 31.589C61.1937 31.591 61.8297 31.547 62.46 31.4575C67.4456 30.6722 71.0433 26.3254 70.9758 21.2097C70.9064 16.2784 67.0566 11.9608 62.1294 11.3874C61.4391 11.3052 61.2163 11.0458 60.9826 10.4468C58.7564 4.64069 54.5651 1.0701 48.4253 0.193436C42.1503 -0.703319 37.0478 1.60158 33.2365 6.69536C33.105 6.878 32.9698 7.04605 32.8383 7.21773C29.0708 4.58043 25.022 3.77682 20.6664 5.13565C16.3108 6.49448 13.4436 9.46235 11.8457 13.6923C11.5937 13.6703 11.3891 13.6594 11.1882 13.632C9.01047 13.3445 6.80261 13.8613 4.97865 15.0855C3.1547 16.3098 1.83993 18.1574 1.28087 20.2819C1.1786 20.6727 1.08364 21.0672 0.986847 21.4599V23.6515C1.037 23.777 1.07848 23.9058 1.11102 24.0369C1.75203 27.7153 4.39827 30.6229 8.0398 31.3571C9.44783 31.642 10.9344 31.5525 12.3881 31.5927C13.5587 31.6255 14.7311 31.5927 15.9036 31.5927C15.7873 31.7991 15.616 31.9692 15.4087 32.084C12.0374 34.1612 8.66619 36.2359 5.29495 38.3083C4.49323 38.8014 4.23938 39.2215 4.42931 39.8224C4.67037 40.5913 5.29859 40.6351 5.97248 40.6296C8.20415 40.615 10.4358 40.6296 12.6675 40.6296C12.9067 40.6296 13.146 40.6515 13.3761 40.6625V47.4292C12.7551 47.4292 12.1671 47.4019 11.5827 47.4402C11.1426 47.4676 10.907 47.3251 10.6878 46.9215C10.3198 46.2196 9.71049 45.6743 8.97223 45.386C8.23396 45.0977 7.41641 45.0859 6.67011 45.3526C5.19817 45.864 4.31973 47.1955 4.40009 48.7899C4.44778 49.4991 4.71923 50.175 5.17539 50.7201C5.63155 51.2652 6.24889 51.6516 6.93857 51.8235C7.65034 52.0044 8.40175 51.9474 9.07807 51.6611C9.75439 51.3749 10.3185 50.8751 10.6842 50.2382C10.812 50.0227 11.0056 49.7086 11.1919 49.6903C11.9059 49.6264 12.631 49.6647 13.3834 49.6647V56.4589C11.6137 56.4589 9.88794 56.4443 8.16214 56.4699C7.7421 56.4699 7.5321 56.3475 7.32756 55.9713C6.67194 54.7677 5.61819 54.1449 4.24851 54.207C2.78752 54.2782 1.78307 55.0435 1.22242 56.3986C1.15485 56.5612 1.07632 56.7201 1.00145 56.879V58.2469C1.04704 58.2958 1.08408 58.352 1.11102 58.4131C1.54749 59.9071 2.54827 60.7874 4.07684 60.9445C5.6054 61.1016 6.68836 60.3747 7.43347 59.0579C7.50803 58.9594 7.60287 58.8781 7.71158 58.8195C7.82028 58.7609 7.94032 58.7263 8.06354 58.7181C9.38209 58.6871 10.7043 58.7035 12.0247 58.7035H13.3816V65.494C12.8337 65.494 12.3351 65.4648 11.8402 65.494C11.2759 65.5379 10.9271 65.4045 10.6093 64.8438C9.87881 63.5362 8.33928 62.959 6.90385 63.3352C6.24091 63.5167 5.64839 63.8945 5.20412 64.419C4.75986 64.9435 4.48466 65.5901 4.41469 66.2739C4.29598 67.8373 5.11415 69.1833 6.52583 69.744L7.15405 69.9943H8.37216C9.46791 69.629 10.3664 69.0573 10.854 67.9597C10.8853 67.9031 10.929 67.8543 10.9818 67.817C11.0347 67.7797 11.0952 67.7548 11.159 67.7441C11.8895 67.7259 12.6364 67.7441 13.4308 67.7441L13.44 69.9997ZM59.6439 13.537C59.9727 13.537 60.3324 13.537 60.694 13.537C61.8815 13.52 63.0575 13.7706 64.1349 14.2702C65.2123 14.7697 66.1634 15.5055 66.9177 16.4228C67.672 17.3401 68.2102 18.4155 68.4922 19.5692C68.7742 20.7229 68.7929 21.9253 68.5469 23.0872C67.7671 26.74 64.6204 29.2969 60.7872 29.3535C58.1227 29.3882 55.4582 29.3754 52.7937 29.3535C52.3698 29.345 51.9554 29.2273 51.5902 29.012C47.3911 26.455 43.2035 23.8817 39.0275 21.2918C37.004 20.0371 35.0207 20.0134 33.0009 21.2718C28.8029 23.8725 24.5953 26.4581 20.3779 29.0284C20.0324 29.2334 19.6399 29.346 19.2383 29.3553C16.3163 29.3809 13.4071 29.3736 10.4924 29.3553C10.0375 29.3523 9.58316 29.3218 9.13189 29.264C5.37348 28.8038 2.7309 25.2167 3.35548 21.438C3.97458 17.6902 7.70194 15.1369 11.3909 15.9588C12.0703 16.1086 12.7296 16.3442 13.4619 16.5597C14.5029 11.6284 17.244 8.19665 22.2461 7.08439C27.2482 5.97212 31.1947 7.81494 34.2318 11.8823L36.1 10.6623C35.7019 10.1582 35.4097 9.68516 35.0152 9.31988C34.5733 8.90894 34.65 8.58934 34.9659 8.16927C38.0906 3.86265 42.3202 1.82076 47.5944 2.35406C52.5965 2.85815 56.227 5.53743 58.4149 10.0724C58.9244 11.1463 59.2166 12.3316 59.6403 13.537H59.6439ZM15.668 67.6857V66.7725C15.668 58.2049 15.668 49.6374 15.6516 41.0716C15.6516 40.3904 15.8561 40.0196 16.4332 39.6726C22.7703 35.853 29.0939 32.0176 35.4042 28.1664C35.8261 27.9088 36.1347 27.8833 36.5657 28.1518C42.9758 32.0651 49.3957 35.9614 55.8252 39.8406C56.2489 40.0963 56.3384 40.3885 56.3366 40.8342C56.3281 49.5387 56.3281 58.2445 56.3366 66.9515V67.6985H51.8185C51.8185 66.0547 51.8002 64.4658 51.8185 62.875C51.8349 61.7792 51.7162 60.7345 50.92 59.8432C51.7253 58.9702 51.8331 57.9255 51.8167 56.8315C51.7947 55.8525 51.7911 54.8718 51.8167 53.8928C51.8459 52.7714 51.7217 51.7012 50.9273 50.8154C51.6578 49.9807 51.8404 49.0219 51.8148 47.9863C51.7911 46.7791 51.8148 45.5718 51.8148 44.3646C51.802 42.0524 50.4141 40.6442 48.1149 40.6424C40.0283 40.6351 31.9417 40.6351 23.8551 40.6424C21.5996 40.6424 20.2026 42.0597 20.1879 44.3299C20.1788 45.4458 20.208 46.5635 20.1879 47.6795C20.1679 48.7954 20.2628 49.9077 21.0499 50.7843C19.8373 52.7203 19.8318 57.6424 21.0098 59.8852C20.2793 61.0523 20.1953 61.3354 20.1953 62.7764C20.1953 64.4092 20.1953 66.0401 20.1953 67.7076L15.668 67.6857ZM35.9393 51.9386C40.0167 51.9386 44.0953 51.9386 48.1751 51.9386C49.1503 51.9386 49.5357 52.3294 49.5412 53.3066C49.5412 54.6459 49.5412 55.9901 49.5412 57.3392C49.5412 58.2871 49.1595 58.6889 48.2263 58.6889C40.069 58.6962 31.9118 58.6962 23.7546 58.6889C22.8561 58.6889 22.4635 58.2853 22.458 57.3922C22.447 56.0699 22.458 54.7494 22.458 53.4271C22.458 52.2838 22.8123 51.9386 23.9774 51.9386H35.9393ZM35.9996 60.9701C40.0563 60.9701 44.1111 60.9701 48.1642 60.9701C49.143 60.9701 49.5339 61.3609 49.5393 62.3326C49.5393 63.6719 49.5393 65.0161 49.5393 66.3652C49.5393 67.335 49.1503 67.7277 48.1642 67.7295C40.0556 67.7295 31.9459 67.7295 23.835 67.7295C22.8232 67.7295 22.4635 67.3369 22.4598 66.2976C22.4598 65.0204 22.4598 63.7419 22.4598 62.4622C22.4598 61.3116 22.8141 60.9609 23.9719 60.9609L35.9996 60.9701ZM36.0105 42.9071C40.0672 42.9071 44.1221 42.9071 48.1751 42.9071C49.154 42.9071 49.5339 43.2961 49.5393 44.2769C49.5393 45.6163 49.5393 46.9605 49.5393 48.3096C49.5393 49.2556 49.1558 49.6538 48.2226 49.6538C40.0654 49.6538 31.9082 49.6538 23.7509 49.6538C22.8543 49.6538 22.4726 49.2502 22.4561 48.3552C22.4452 47.0768 22.4561 45.7983 22.4561 44.5198C22.4561 43.2121 22.763 42.8998 24.0505 42.898L36.0105 42.9071ZM62.2463 38.2553L62.197 38.3868C60.9679 38.3868 59.7371 38.4197 58.5098 38.3704C58.0419 38.3578 57.584 38.2325 57.1748 38.0051C50.335 33.875 43.5072 29.7267 36.6917 25.5601C36.1749 25.2441 35.8242 25.2314 35.3001 25.5601C28.4444 29.7523 21.5796 33.928 14.7056 38.0873C14.523 38.2042 14.3038 38.3722 14.0993 38.3759C12.6547 38.3996 11.2083 38.3886 9.76376 38.3886C9.90135 38.1707 10.0942 37.993 10.3226 37.8736C18.212 33.0178 26.0989 28.1572 33.9834 23.2917C35.3695 22.4315 36.5967 22.4224 37.981 23.2808C45.7974 28.128 53.6265 32.9527 61.4683 37.7549C61.735 37.9174 61.9906 38.0928 62.2463 38.2553ZM63.0864 48.5032C63.0997 48.2067 63.2289 47.9273 63.4461 47.725C63.6633 47.5228 63.9512 47.414 64.2479 47.4219C64.5445 47.431 64.8257 47.5564 65.0307 47.771C65.2357 47.9856 65.3481 48.2722 65.3436 48.5689C65.3385 48.716 65.3043 48.8606 65.243 48.9943C65.1817 49.1281 65.0946 49.2485 64.9867 49.3484C64.8787 49.4484 64.7521 49.5261 64.614 49.5769C64.4759 49.6278 64.3291 49.6508 64.1821 49.6447C63.8873 49.6379 63.6071 49.515 63.4025 49.3025C63.1979 49.0901 63.0856 48.8054 63.09 48.5105L63.0864 48.5032ZM6.64089 48.5671C6.63786 48.2709 6.75079 47.9853 6.95555 47.7713C7.16031 47.5573 7.44064 47.4319 7.73663 47.4219C8.03329 47.414 8.32122 47.5228 8.53845 47.725C8.75567 47.9273 8.88483 48.2067 8.89812 48.5032C8.90127 48.6501 8.8754 48.7962 8.82201 48.9332C8.76862 49.0701 8.68876 49.1952 8.58698 49.3012C8.4852 49.4072 8.36352 49.4921 8.22889 49.5511C8.09425 49.61 7.94931 49.6418 7.80238 49.6447C7.50725 49.6551 7.21997 49.5484 7.00311 49.3479C6.78624 49.1475 6.65737 48.8694 6.64455 48.5744L6.64089 48.5671ZM67.6301 58.6871C67.4824 58.6922 67.3352 58.6678 67.1971 58.6151C67.0589 58.5625 66.9328 58.4828 66.8259 58.3807C66.719 58.2786 66.6337 58.1562 66.5748 58.0206C66.516 57.885 66.4848 57.7391 66.4832 57.5913C66.4825 57.4431 66.5112 57.2963 66.5677 57.1593C66.6243 57.0223 66.7075 56.898 66.8125 56.7934C66.9175 56.6889 67.0422 56.6063 67.1795 56.5505C67.3167 56.4946 67.4637 56.4666 67.6118 56.468C67.8984 56.468 68.1735 56.5802 68.3784 56.7806C68.5832 56.981 68.7014 57.2536 68.7076 57.5401C68.7144 57.6868 68.6918 57.8333 68.6409 57.971C68.5901 58.1087 68.5121 58.2347 68.4116 58.3417C68.3111 58.4487 68.1902 58.5344 68.0559 58.5937C67.9216 58.6531 67.7768 58.6848 67.6301 58.6871ZM3.27694 57.5675C3.27534 57.4191 3.30393 57.2719 3.36094 57.1348C3.41795 56.9978 3.50222 56.8737 3.60862 56.7702C3.71501 56.6667 3.84132 56.5859 3.97988 56.5327C4.11845 56.4795 4.26637 56.455 4.41469 56.4607C4.56305 56.4635 4.70938 56.4959 4.84512 56.5558C4.98086 56.6158 5.10329 56.7022 5.20528 56.81C5.30728 56.9178 5.3868 57.0448 5.43919 57.1836C5.49158 57.3225 5.51579 57.4704 5.51043 57.6187C5.50001 57.9058 5.37833 58.1777 5.17111 58.3767C4.9639 58.5758 4.6874 58.6864 4.40009 58.6853C4.25204 58.689 4.10477 58.6627 3.96718 58.6079C3.82959 58.5531 3.70452 58.471 3.59954 58.3666C3.49457 58.2621 3.41187 58.1374 3.35641 58.0001C3.30097 57.8627 3.27393 57.7156 3.27694 57.5675ZM64.2168 65.4885C64.5135 65.4927 64.7969 65.6117 65.0077 65.8204C65.2185 66.0292 65.3402 66.3115 65.3473 66.6081C65.3449 66.9052 65.225 67.1893 65.0139 67.3984C64.8028 67.6075 64.5176 67.7245 64.2205 67.724C63.9234 67.725 63.6378 67.6088 63.4258 67.4006C63.2139 67.1923 63.0925 66.9089 63.0882 66.6118C63.0952 66.3151 63.2166 66.0327 63.4269 65.8234C63.6372 65.6141 63.9202 65.4941 64.2168 65.4885ZM7.8042 67.7222C7.50716 67.7316 7.21842 67.6233 7.00088 67.4207C6.78333 67.2182 6.65461 66.938 6.64272 66.641C6.64238 66.3451 6.75605 66.0604 6.96011 65.8462C7.16416 65.6319 7.44292 65.5045 7.73846 65.4904C8.03618 65.4868 8.32364 65.5991 8.54005 65.8036C8.75647 66.0081 8.88487 66.2887 8.89812 66.5862C8.90253 66.8816 8.79004 67.1668 8.58513 67.3795C8.38022 67.5923 8.09953 67.7155 7.8042 67.7222Z" fill="#E43B5C"/>
<path d="M41.1588 5.71653L42.1194 7.64886C46.1828 6.00511 49.764 6.6553 52.8942 9.72363C52.9882 9.66776 53.079 9.60679 53.1663 9.54099C53.6247 9.13371 54.0794 8.72278 54.5342 8.31367C51.5738 4.70655 45.728 3.30205 41.1588 5.71653Z" fill="#E43B5C"/>
<path d="M57.2168 13.2795C56.8972 12.3864 56.6178 11.6065 56.3165 10.77L54.3076 11.7672C54.5286 12.401 54.7422 13.0128 55.0016 13.7525L57.2168 13.2795Z" fill="#E43B5C"/>
<path d="M48.4566 15.8604V18.01H50.6152V15.8604H48.4566Z" fill="#E43B5C"/>
<path d="M43.9419 15.8604V18.01H46.0986V15.8604H43.9419Z" fill="#E43B5C"/>
<path d="M41.5928 17.9952V15.8511H39.4396V17.9952H41.5928Z" fill="#E43B5C"/>
<path d="M37.084 17.9919V15.855H34.929V17.9919H37.084Z" fill="#E43B5C"/>
<path d="M32.5752 18.01V15.8604H30.4202V18.01H32.5752Z" fill="#E43B5C"/>
<path d="M25.884 15.8638V18.0079H28.0371V15.8638H25.884Z" fill="#E43B5C"/>
<path d="M23.5303 15.8311H21.3844V17.9917H23.5303V15.8311Z" fill="#E43B5C"/>
</svg>
