<svg width="89" height="90" viewBox="0 0 89 90" fill="none" xmlns="http://www.w3.org/2000/svg">
<path d="M14.5678 45.5883C14.5678 44.0023 14.587 42.3924 14.5486 40.7825C14.4931 40.5011 14.3426 40.2473 14.1223 40.0637C11.1498 37.1888 9.57135 33.6839 9.75817 29.5584C9.85159 27.4022 9.10907 25.4664 8.76894 23.4253C8.17492 19.8724 8.79769 16.6429 11.5115 14.0411C11.6641 13.9036 11.7781 13.7285 11.842 13.5332C12.8648 9.86533 15.4349 7.87446 19.0277 7.23C23.9068 6.34837 28.623 6.8994 32.8961 9.63774C37.8327 12.8001 39.8806 18.2217 38.2854 24.1727C37.7585 26.0327 37.4988 27.9582 37.5141 29.8914C37.574 33.588 36.2015 36.7552 33.744 39.4911C33.4501 39.8403 33.2755 40.2743 33.2458 40.7298C33.1811 42.0738 33.2458 43.4202 33.2075 44.7642C33.1907 45.3512 33.3967 45.5716 33.9572 45.7369C36.6159 46.5203 39.2626 47.3492 41.907 48.1853C45.6579 49.3712 47.828 52.2749 47.8424 56.2063C47.8687 62.3322 47.8831 68.4581 47.8424 74.5841C47.804 80.1973 43.816 84.1671 38.2016 84.191C28.6733 84.2214 19.1435 84.2214 9.61207 84.191C3.99764 84.1694 0.031138 80.1662 0.0143714 74.5649C-0.00479046 68.4669 -0.00479046 62.3705 0.0143714 56.2758C0.0143714 52.3994 2.18923 49.4982 5.90424 48.3339C8.69229 47.4594 11.4875 46.6041 14.2876 45.7393C14.3839 45.6946 14.4775 45.6442 14.5678 45.5883ZM29.1284 57.6078C28.6781 59.086 28.1991 60.4372 27.8949 61.8291C27.7037 62.6584 27.6623 63.5152 27.7727 64.359C28.2158 67.4304 28.7524 70.4873 29.2578 73.5515C29.6937 76.1948 30.1344 78.8389 30.5799 81.4838C33.5476 81.4838 36.4554 81.6803 39.3249 81.4335C42.6471 81.1484 45.0064 78.3885 45.0232 75.1255C45.0567 68.7313 45.0423 62.337 45.0232 55.9428C45.0232 54.3592 44.4052 52.9696 43.1238 52.0616C42.2471 51.4411 41.1453 51.1393 40.1609 50.6625C39.6818 50.4373 39.4782 50.6314 39.2267 51.0051C37.5165 53.559 35.78 56.0985 34.065 58.6523C33.4015 59.6418 32.7811 59.8143 31.7608 59.2058C30.9224 58.7027 30.0841 58.1876 29.1284 57.6078ZM15.9546 81.5102C16.0193 81.2562 16.0768 81.0861 16.1055 80.9112C16.9039 76.0223 17.7024 71.1342 18.5008 66.2469C18.6756 65.1568 19.0996 64.0284 18.9487 62.9863C18.7092 61.3236 18.0816 59.7185 17.593 57.9983C17.0301 58.3529 16.5558 58.6476 16.084 58.9566C14.7594 59.7975 14.3714 59.7208 13.4947 58.4271C11.8564 55.9955 10.2348 53.5758 8.55816 51.1584C8.40487 50.9356 8.04319 50.6577 7.83959 50.7009C5.25035 51.2615 2.80961 52.5695 2.76889 56.0434C2.67547 62.3753 2.70182 68.7097 2.76889 75.0417C2.80242 78.482 5.27909 81.2227 8.66115 81.4766C11.0636 81.6563 13.4899 81.5102 15.957 81.5102H15.9546ZM31.0733 22.8886C24.199 25.6174 23.09 25.6294 16.4768 23.097C15.775 23.9619 15.2313 25.04 14.357 25.6174C12.5534 26.8152 12.3019 28.4348 12.5319 30.3274C12.5462 30.4448 12.5318 30.567 12.5534 30.6844C12.963 35.0399 15.1427 38.219 19.0948 40.0278C22.9655 41.8007 26.7452 41.355 30.1895 38.8659C34.0554 36.07 35.0638 32.05 34.7668 27.5412C34.7531 27.3368 34.6613 27.1455 34.5105 27.0069C33.0207 25.9097 31.7919 24.5872 31.0733 22.8886ZM35.3512 24.1655C37.0135 19.7334 35.8303 15.4163 32.3644 12.666C28.9416 9.94439 24.9559 9.36462 20.7738 9.76711C19.5307 9.91095 18.3181 10.2505 17.181 10.7733C15.8013 11.3866 14.7714 12.4503 14.5319 14.0459C14.4212 14.8135 14.0346 15.5145 13.4444 16.0176C11.3342 17.951 10.6444 21.674 11.9714 24.2207C12.563 23.5187 13.1498 22.8934 13.648 22.2058C14.084 21.6045 14.4025 20.9193 14.8025 20.2892C15.3846 19.3741 16.2109 19.2303 17.0684 19.8628C17.3343 20.0568 17.5882 20.2629 17.8612 20.445C21.5595 22.9174 26.2661 22.7017 30.3739 19.8772C31.5165 19.0914 32.1368 19.2064 32.8602 20.3827C33.2027 20.9409 33.4446 21.5614 33.8039 22.1076C34.2375 22.764 34.7476 23.3893 35.3416 24.1655H35.3512ZM26.7044 56.1416C25.7463 55.5522 24.8601 54.9821 23.9427 54.4861C23.8032 54.432 23.6538 54.4081 23.5043 54.4159C23.3549 54.4238 23.2088 54.4632 23.0757 54.5317C22.2709 54.9821 21.526 55.5427 20.7164 55.9883C20.1463 56.3021 19.9978 56.6351 20.2014 57.2772C20.6804 58.8728 21.1116 60.4899 21.5307 62.107C21.6509 62.5049 21.6892 62.923 21.6433 63.336C20.9247 67.634 20.2062 71.9296 19.4708 76.2252C19.193 77.8615 18.9223 79.5001 18.6421 81.1939H27.8685C27.8398 80.8705 27.835 80.6046 27.7919 80.3434C26.9871 75.607 26.2374 70.8611 25.3463 66.1391C24.9392 63.9829 24.8386 61.9154 25.6458 59.8215C26.0961 58.6619 26.3452 57.4233 26.7044 56.1416ZM23.7439 50.9213C25.8757 49.3401 27.9428 47.8068 29.9907 46.2687C30.2236 46.0998 30.3824 45.8475 30.4338 45.5644C30.4793 44.4432 30.453 43.322 30.453 42.0594C28.4442 43.1581 26.2048 43.7679 23.9164 43.8394C21.6625 43.8993 19.5235 43.3435 17.3846 42.39C17.3846 43.5352 17.3582 44.5198 17.4014 45.5045C17.4284 45.7881 17.5619 46.0509 17.775 46.24C19.7319 47.7996 21.7128 49.3353 23.7439 50.9213ZM32.3907 56.2111L36.8003 49.5964C35.2937 49.1173 33.938 48.6573 32.5728 48.25C32.3185 48.1961 32.0532 48.2452 31.835 48.3866C29.9596 49.7066 28.1033 51.0506 26.1368 52.4593L32.3907 56.2111ZM10.8648 49.7258L15.2816 56.3524L21.2697 52.5983C19.4756 51.1728 17.7606 49.7929 16.0217 48.4441C15.9126 48.3852 15.7929 48.3486 15.6696 48.3363C15.5463 48.3239 15.4217 48.3361 15.3031 48.3722C13.8612 48.7843 12.4432 49.2371 10.8648 49.7258Z" fill="#014999"/>
<path d="M50.0511 21.6978C47.8259 21.6978 45.7109 21.6978 43.5983 21.6978C42.9229 21.6978 42.3792 21.5493 42.1013 20.8282C41.8235 20.1071 42.1205 19.6303 42.5947 19.1512C44.8798 16.8728 47.1457 14.5777 49.4523 12.3161C49.6582 12.1303 49.8202 11.9012 49.9267 11.6451C50.0332 11.389 50.0814 11.1125 50.0679 10.8355C50.0679 9.37411 49.984 7.88874 50.2116 6.45848C50.4361 4.9477 51.1955 3.5678 52.3518 2.57007C53.508 1.57235 54.984 1.02317 56.511 1.02253C65.2025 0.976214 73.8956 0.976214 82.5903 1.02253C86.0754 1.04409 88.8515 3.9118 88.9712 7.39043C88.9712 7.65875 88.9712 7.92707 88.9712 8.19539C88.9712 33.1112 88.9808 58.0325 89 82.9595C89 86.7065 86.4898 89.3418 83.5891 89.876C83.0296 89.9683 82.4627 90.0092 81.8957 89.9982C73.6497 89.9982 65.4037 89.9982 57.1578 89.9982C52.82 89.9982 50.0415 87.2072 50.0415 82.8781C50.0415 62.9135 50.0415 42.9529 50.0415 22.9963L50.0511 21.6978ZM46.8463 18.9427C48.5421 18.9427 49.9601 18.9307 51.3972 18.9427C52.5254 18.9547 52.9398 19.3883 52.9661 20.5287C52.9661 20.8569 52.9661 21.1875 52.9661 21.5158V82.3797C52.9661 82.708 52.9661 83.0386 52.9661 83.3644C53.0859 85.6044 54.6428 87.2215 56.8703 87.2311C65.3862 87.2695 73.9004 87.2695 82.4131 87.2311C84.2502 87.2311 85.7281 86.1099 86.1688 84.4593C86.3117 83.8187 86.3721 83.1626 86.3485 82.5067C86.3485 57.8577 86.3485 33.207 86.3485 8.55476C86.3485 8.34633 86.3485 8.1355 86.3485 7.92707C86.267 5.46424 84.5856 3.75368 82.1305 3.74889C73.7344 3.72972 65.3399 3.72972 56.947 3.74889C54.4583 3.74889 52.8751 5.35404 52.8416 7.8528C52.8224 8.98839 52.7841 10.1288 52.8535 11.2596C52.8996 11.7472 52.8289 12.2389 52.6473 12.6938C52.4657 13.1487 52.1784 13.5539 51.8092 13.8757C50.1781 15.4545 48.6307 17.1148 46.8463 18.9427Z" fill="#014999"/>
<path d="M36.6288 67.2028C35.7354 67.2028 34.842 67.2147 33.951 67.2028C32.9497 67.186 32.4324 66.7236 32.4108 65.8588C32.3893 64.9939 32.8899 64.462 33.8719 64.4477C35.7162 64.4237 37.5622 64.4237 39.4097 64.4477C40.3678 64.462 40.9091 65.0322 40.878 65.8707C40.8468 66.7092 40.3127 67.1812 39.3977 67.2004C38.4827 67.2195 37.5534 67.2028 36.6288 67.2028Z" fill="#E43B5C"/>
<path d="M68.5368 13.4231C68.5368 14.8845 68.5368 16.3483 68.5368 17.8121C68.5249 18.8806 68.0745 19.3286 66.9991 19.331C64.0434 19.3422 61.0892 19.3422 58.1367 19.331C57.0996 19.331 56.6205 18.9022 56.6134 17.8816C56.5846 14.8677 56.5846 11.8523 56.6134 8.83525C56.6134 7.8506 57.0756 7.39781 58.0649 7.39781C61.0813 7.37065 64.0968 7.37065 67.1116 7.39781C68.12 7.39781 68.5296 7.88893 68.5488 8.94067C68.5488 10.4356 68.5368 11.9282 68.5368 13.4231ZM59.4349 10.2008V16.5208H65.7296V10.2128L59.4349 10.2008Z" fill="#E43B5C"/>
<path d="M62.6016 71.673C64.065 71.673 65.5285 71.673 66.9896 71.673C68.0699 71.673 68.5274 72.1234 68.5322 73.1895C68.5465 76.1459 68.5465 79.1006 68.5322 82.0538C68.5322 83.139 68.0986 83.599 67.0184 83.6086C64.0626 83.6326 61.1085 83.6326 58.156 83.6086C57.0542 83.6086 56.6135 83.1726 56.6039 82.0825C56.5799 79.1262 56.5799 76.1714 56.6039 73.2183C56.6039 72.0923 57.071 71.6826 58.2183 71.6754C59.677 71.6658 61.1381 71.673 62.6016 71.673ZM65.7417 74.4928H59.4351V80.772H65.7417V74.4928Z" fill="#E43B5C"/>
<path d="M68.537 29.5229C68.537 30.9604 68.537 32.3978 68.537 33.8209C68.537 34.978 68.0579 35.4692 66.9202 35.4716C63.9948 35.4827 61.071 35.4827 58.1488 35.4716C57.0758 35.4716 56.6111 35.0307 56.6039 33.9503C56.5799 30.9971 56.5799 28.0423 56.6039 25.086C56.6039 23.9959 57.0494 23.5335 58.1273 23.5216C61.0814 23.4928 64.0355 23.4928 66.9896 23.5216C68.1202 23.5216 68.5322 24.0007 68.5417 25.1363C68.5465 26.5977 68.537 28.0615 68.537 29.5229ZM65.7393 26.3653H59.4279V32.647H65.7393V26.3653Z" fill="#E43B5C"/>
<path d="M68.5373 45.5289C68.5373 46.9927 68.5373 48.4541 68.5373 49.9179C68.5253 51.008 68.0989 51.456 67.0259 51.4608C64.0414 51.4752 61.0569 51.4752 58.0725 51.4608C57.0809 51.4608 56.6186 51.032 56.6114 50.0473C56.5827 47.0031 56.5827 43.9581 56.6114 40.9123C56.6114 39.9804 57.0904 39.5587 58.0294 39.5515C61.0442 39.5356 64.059 39.5356 67.0738 39.5515C68.0918 39.5515 68.5109 40.0139 68.5325 41.0537C68.5516 42.5558 68.5373 44.0364 68.5373 45.5289ZM59.4354 42.3282V48.6482H65.7157V42.3282H59.4354Z" fill="#E43B5C"/>
<path d="M68.537 61.6591C68.537 63.0966 68.537 64.534 68.537 65.9571C68.537 67.1118 68.0579 67.5982 66.9178 67.603C63.9924 67.6141 61.0686 67.6141 58.1464 67.603C57.0542 67.603 56.6111 67.1789 56.6039 66.0841C56.5799 63.1309 56.5799 60.1761 56.6039 57.2198C56.6039 56.1177 57.0422 55.6817 58.1273 55.6745C61.0814 55.6554 64.0355 55.6554 66.9896 55.6745C68.1202 55.6745 68.5322 56.1273 68.5417 57.2725C68.5465 58.7363 68.537 60.1977 68.537 61.6591ZM59.4159 58.4776V64.7975H65.7321V58.4776H59.4159Z" fill="#E43B5C"/>
<path d="M77.687 82.2427C76.2498 82.2427 74.8127 82.2547 73.3756 82.2427C72.3169 82.2308 71.7588 81.742 71.7444 80.8676C71.73 79.9931 72.2833 79.4469 73.3253 79.4421C76.2235 79.4229 79.1209 79.4229 82.0175 79.4421C83.014 79.4421 83.5457 79.9668 83.5577 80.8173C83.5697 81.6678 83.0164 82.226 81.9792 82.2403C80.5541 82.2595 79.1217 82.2427 77.687 82.2427Z" fill="#E43B5C"/>
<path d="M77.6603 47.3041C79.0974 47.3041 80.5346 47.3041 81.9717 47.3041C83.016 47.316 83.5789 47.8191 83.5813 48.696C83.5837 49.5728 83.04 50.0879 81.9765 50.0951C79.1022 50.1143 76.2343 50.1143 73.3728 50.0951C72.3093 50.0951 71.7656 49.58 71.7656 48.6984C71.7656 47.8168 72.3261 47.316 73.3704 47.3041C74.7932 47.2945 76.2255 47.3041 77.6603 47.3041Z" fill="#E43B5C"/>
<path d="M77.6204 66.2471C76.2168 66.2471 74.8132 66.2638 73.4096 66.2471C72.303 66.2303 71.7329 65.708 71.7545 64.8096C71.7784 63.9423 72.3413 63.4632 73.4024 63.4608C76.24 63.4512 79.0775 63.4512 81.9151 63.4608C82.9786 63.4608 83.5415 63.94 83.5702 64.8048C83.5965 65.7104 83.0265 66.2423 81.9199 66.2423C80.4875 66.2734 79.0528 66.2471 77.6204 66.2471Z" fill="#E43B5C"/>
<path d="M77.6586 31.4721C79.1197 31.4721 80.5832 31.4601 82.0467 31.4721C83.0311 31.4841 83.5677 31.9848 83.5701 32.8353C83.5725 33.6858 83.0215 34.2057 82.0539 34.2105C79.1301 34.2216 76.2047 34.2216 73.2777 34.2105C72.3196 34.2105 71.7544 33.6906 71.752 32.8449C71.7496 31.9992 72.2909 31.4841 73.2706 31.4721C74.7317 31.4601 76.1951 31.4721 77.6586 31.4721Z" fill="#E43B5C"/>
<path d="M77.7417 15.1838C79.1789 15.1838 80.616 15.1838 82.0532 15.1838C83.0304 15.1958 83.5765 15.7037 83.5813 16.5518C83.5861 17.3998 83.052 17.9269 82.0699 17.9317C79.1462 17.9509 76.2208 17.9509 73.2938 17.9317C72.3022 17.9317 71.7704 17.4166 71.7657 16.5661C71.7609 15.7156 72.3237 15.1886 73.3657 15.1814C74.8172 15.1742 76.2807 15.1838 77.7417 15.1838Z" fill="#E43B5C"/>
<path d="M75.6253 24.9055C76.3703 24.9055 77.1176 24.8888 77.8625 24.9055C78.8349 24.9319 79.3882 25.4494 79.393 26.2927C79.393 27.0976 78.8757 27.6702 77.9559 27.6942C76.3463 27.7349 74.7319 27.7349 73.1223 27.6942C72.2145 27.6678 71.7115 27.0881 71.7331 26.2567C71.7546 25.4254 72.2744 24.9511 73.1942 24.8936H75.6253V24.9055Z" fill="#E43B5C"/>
<path d="M75.5251 11.5731C74.7466 11.5731 73.9706 11.6019 73.1969 11.5731C72.2676 11.5276 71.7598 11.0149 71.7598 10.1932C71.7598 9.37144 72.2843 8.79885 73.2592 8.78208C74.8113 8.75493 76.3634 8.75493 77.9155 8.78208C78.8736 8.79885 79.4245 9.35946 79.4078 10.2028C79.391 11.0461 78.8664 11.506 77.9466 11.5803C77.8868 11.5803 77.8269 11.5803 77.767 11.5803H75.5299L75.5251 11.5731Z" fill="#E43B5C"/>
<path d="M75.6007 43.7023C74.8246 43.7023 74.0486 43.7191 73.2725 43.7023C72.3 43.676 71.7563 43.1609 71.7539 42.3128C71.7515 41.4647 72.2497 40.9448 73.1767 40.9233C74.7863 40.8849 76.4007 40.8849 78.0103 40.9233C78.9037 40.9472 79.4307 41.5438 79.4043 42.3464C79.378 43.1489 78.8486 43.664 77.9288 43.6952C77.1528 43.7215 76.3767 43.7023 75.6007 43.7023Z" fill="#E43B5C"/>
<path d="M75.4883 59.6825C74.7122 59.6825 73.9362 59.7017 73.1625 59.6825C72.2715 59.6513 71.7421 59.1099 71.7541 58.2882C71.7661 57.4664 72.2499 56.9657 73.1122 56.9465C74.7521 56.913 76.3929 56.913 78.0344 56.9465C78.8847 56.9633 79.3901 57.5048 79.4021 58.2858C79.4165 59.1027 78.8823 59.6346 77.9937 59.6873H75.4883V59.6825Z" fill="#E43B5C"/>
<path d="M75.5069 75.8174C74.7021 75.8174 73.8949 75.8438 73.0925 75.8174C72.9124 75.823 72.7331 75.7911 72.5659 75.7238C72.3987 75.6565 72.2474 75.5553 72.1213 75.4265C71.9953 75.2977 71.8973 75.1442 71.8335 74.9756C71.7698 74.807 71.7418 74.6271 71.7511 74.4471C71.7386 74.2669 71.7646 74.0861 71.8273 73.9167C71.8901 73.7474 71.9881 73.5933 72.115 73.4648C72.2419 73.3363 72.3947 73.2363 72.5632 73.1714C72.7318 73.1066 72.9122 73.0784 73.0925 73.0887C74.7627 73.0583 76.433 73.0583 78.1033 73.0887C78.276 73.0843 78.4477 73.1153 78.608 73.1798C78.7683 73.2443 78.9136 73.3409 79.0352 73.4636C79.1568 73.5863 79.252 73.7326 79.315 73.8935C79.378 74.0544 79.4074 74.2265 79.4015 74.3992C79.4168 74.5789 79.3945 74.7599 79.336 74.9305C79.2775 75.1012 79.1841 75.2578 79.0617 75.3903C78.9394 75.5229 78.7907 75.6284 78.6253 75.7003C78.4598 75.7722 78.2812 75.8088 78.1009 75.8079C77.2386 75.8558 76.3715 75.815 75.5069 75.8174Z" fill="#E43B5C"/>
</svg>
