<svg width="71" height="71" viewBox="0 0 71 71" fill="none" xmlns="http://www.w3.org/2000/svg">
<g clip-path="url(#clip0_735_1189)">
<path d="M70.7941 33.7916C70.7629 32.3183 71.4249 30.4206 70.5273 29.4875C69.6296 28.5543 67.7044 29.1274 66.2562 29.227C64.5298 29.346 63.4798 28.9859 63.2715 27.0505C63.1753 26.1551 62.7521 25.2766 62.3842 24.431C61.6773 22.8058 60.0767 21.0287 60.3805 19.6503C60.7163 18.1127 62.6944 16.8829 64.0721 15.6476C64.9385 14.8695 64.6853 14.4564 63.992 13.7885C61.7615 11.6456 59.5117 9.51166 57.4311 7.22657C56.3563 6.04585 55.7415 6.11739 54.7805 7.28123C53.7611 8.51741 52.7183 10.1201 51.3566 10.5766C49.9508 11.0501 48.6484 9.23677 47.1392 8.77943C47.0807 8.76175 47.0286 8.72478 46.9709 8.70388C45.2469 8.09946 42.7872 7.9805 41.9937 6.762C41.1121 5.40767 41.6932 3.05748 41.7364 1.14293C41.7565 0.21137 41.403 -0.0152935 40.5487 -0.000825817C38.1394 0.0409696 35.7294 0.0136412 33.3193 0.0136412C29.2462 0.0136412 29.1436 0.0136436 29.2903 4.17068C29.3608 6.15355 29.0987 7.48779 26.7856 7.63407C26.0763 7.67828 25.3678 8.04641 24.697 8.35184C23.0259 9.11139 21.1961 10.7808 19.7671 10.4794C18.1873 10.1466 16.937 8.0681 15.6354 6.66474C14.9902 5.96949 14.6416 6.078 14.0477 6.69689C11.9486 8.88472 9.87998 11.1176 7.62782 13.1366C6.24446 14.3768 6.16271 15.1725 7.63824 16.3356C8.79558 17.2478 10.2423 18.2549 10.6574 19.5184C11.083 20.8125 9.42314 22.0173 8.99916 23.4094C8.92783 23.6449 8.8068 23.8644 8.72425 24.0967C8.13356 25.7629 8.00853 28.1444 6.83516 28.9088C5.52234 29.7656 3.25815 29.211 1.41073 29.166C0.448957 29.1427 0.101919 29.4312 0.141993 30.4174C0.210119 32.0876 0.160425 33.7627 0.160425 35.4353H0.272635C0.272635 37.4704 -0.453515 40.0079 0.494637 41.3831C1.30253 42.5566 4.06524 41.6242 5.95914 41.7343C6.02097 41.7404 6.08324 41.7404 6.14508 41.7343C6.92171 41.6306 7.16937 42.014 7.3473 42.7511C7.97959 45.3989 9.01209 47.934 10.409 50.2686C10.8899 51.0724 10.7817 51.5241 10.1373 52.1173C9.04404 53.1188 8.07105 54.2553 6.965 55.2415C6.20039 55.9231 6.11543 56.3667 6.92172 57.1142C8.51186 58.5819 9.97537 60.1854 11.5342 61.6876C12.6419 62.7558 13.6349 64.7419 14.87 64.6503C16.0546 64.5603 17.2039 62.8016 18.1897 61.6257C19.2245 60.3896 20.1341 59.9981 21.5399 61.088C22.3502 61.7166 23.3745 62.1 24.3451 62.4785C25.9353 63.0966 28.2515 63.1698 28.9889 64.3039C29.8152 65.5754 29.3159 67.7761 29.2229 69.5637C29.1572 70.8248 29.7102 70.9735 30.753 70.9542C33.7184 70.8995 36.6927 70.8015 39.6494 70.9839C41.5177 71.0988 41.9785 70.4679 41.8046 68.7334C41.6571 67.2641 41.3429 65.532 41.9432 64.3433C42.5636 63.1151 44.5881 63.4326 45.8705 62.7357C45.9779 62.6771 46.1053 62.6554 46.2175 62.6079C47.9375 61.8371 49.817 60.2288 51.3302 60.523C52.8971 60.8268 54.1354 62.9455 55.4594 64.3312C56.0389 64.9396 56.3883 64.8633 56.9349 64.3047C59.357 61.8275 61.8037 59.3741 64.2749 56.9447C64.84 56.3901 64.9001 56.0308 64.2893 55.4657C63.1544 54.416 62.1301 53.2474 60.988 52.2073C60.2875 51.5699 60.1184 51.0877 60.6771 50.1979C62.0968 47.9463 63.1049 45.4589 63.6538 42.8524C63.8581 41.8806 64.3134 41.6917 65.1766 41.7271C66.5952 41.7801 68.025 41.6532 69.4372 41.7681C70.6451 41.8661 70.8799 41.3895 70.8398 40.2972C70.7501 38.1311 70.839 35.9593 70.7941 33.7916ZM35.4809 56.4672C23.9155 56.4672 14.4925 47.0303 14.4909 35.4425C14.4893 23.8547 23.9027 14.4114 35.4657 14.3929C47.007 14.3752 56.4276 23.8234 56.4452 35.428C56.4621 47.0134 47.0439 56.4656 35.4809 56.4672Z" fill="#E43C5C"/>
<path d="M47.9916 36.637L47.9996 36.6258C47.2999 37.2648 46.4215 37.2591 45.5503 37.2624C43.6388 37.2696 41.7272 37.268 39.8157 37.2736C38.7369 37.2736 37.9867 37.8708 37.8208 38.8586C37.6413 39.9204 37.4553 41.9258 37.941 41.9563C39.6754 42.0656 39.6562 43.1804 39.9111 44.2719C40.2749 45.8288 40.6436 47.3849 40.9979 48.9442C41.6535 51.8337 41.6503 51.8377 44.6446 51.7276C44.744 51.7276 44.841 51.6352 45.0165 51.5476C44.0459 48.4708 43.0729 45.3859 42.0711 42.2119C45.3283 42.1315 48.4621 41.6493 50.8874 44.5918V34.917C49.835 35.56 49.2563 36.682 47.9916 36.637Z" fill="#E43C5C"/>
<path d="M38.1333 45.8849C37.9505 45.909 37.7726 45.9653 37.5915 46.0031C33.2835 46.8912 28.9627 45.0844 26.5206 41.3758C24.0464 37.6175 24.1538 33.0103 26.8019 29.2728C27.4896 30.6979 27.8142 31.0001 28.5195 30.7558C29.4701 30.427 29.4757 29.6088 29.5061 28.7777C29.6408 25.0804 29.6504 25.0804 26.0181 24.9912C25.8329 24.9864 25.6478 24.9719 25.4627 24.9775C24.6948 25.0017 23.7371 24.6994 23.5014 25.8295C23.2514 27.0295 24.1963 27.1959 25.1621 27.3993C19.8843 34.7135 22.7729 44.2549 30.3549 47.5085C33.0543 48.6667 35.8242 48.8307 38.6743 48.1459C39.5727 47.9297 40.2452 47.5833 39.9743 46.5512C39.7114 45.5489 38.8634 45.7877 38.1333 45.8849Z" fill="#E43C5C"/>
<path d="M48.5273 34.5562C48.2868 27.4028 41.6105 21.676 34.3323 22.3817C33.4779 22.462 32.5906 22.6043 32.6027 23.6219C32.6171 24.8275 33.5797 24.7624 34.499 24.7254C40.991 24.4666 45.6692 28.5152 46.207 34.9243C46.316 36.2176 46.8402 36.6926 48.0368 36.5744C48.4648 35.97 48.5521 35.2981 48.5273 34.5562Z" fill="#E43C5C"/>
<path d="M48.0372 36.5744L48.002 36.6242C48.0212 36.6065 48.0404 36.5904 48.0589 36.5728L48.0372 36.5744Z" fill="#E43C5C"/>
<path d="M48.0581 36.5728C48.0397 36.5904 48.0204 36.6065 48.0012 36.6242L47.9932 36.6354L48.0581 36.5728Z" fill="#E43C5C"/>
<path d="M31.4916 36.4859C33.0842 36.5896 34.8065 36.9111 36.2436 36.4337C37.1861 36.121 36.4696 34.442 36.6091 33.3858C36.6732 32.9036 36.6195 32.3988 36.6195 31.9053C36.6195 30.6088 36.6067 29.3116 36.6195 28.0151C36.6291 27.2371 36.355 26.6093 35.5391 26.5772C34.5966 26.5394 34.32 27.2154 34.3369 28.0682C34.3537 29.2416 34.2744 30.4192 34.3553 31.587C34.4755 33.3159 34.5421 34.8647 32.015 34.3198C31.3089 34.1679 30.836 34.6646 30.7366 35.3558C30.6573 35.904 31.0155 36.4554 31.4916 36.4859Z" fill="#E43C5C"/>
<path d="M52.2515 41.3017C53.1844 41.3749 53.6797 40.3227 53.6564 39.2923C53.6348 38.3278 53.0794 37.3633 52.2731 37.4268C51.115 37.5216 52.1264 38.7241 51.6143 39.4362C52.2482 39.9546 51.1222 41.2133 52.2515 41.3017Z" fill="#E43C5C"/>
</g>
<defs>
<clipPath id="clip0_735_1189">
<rect width="71" height="71" fill="white"/>
</clipPath>
</defs>
</svg>
