<svg width="93" height="63" viewBox="0 0 93 63" fill="none" xmlns="http://www.w3.org/2000/svg">
<g clip-path="url(#clip0_800_62)">
<path d="M83.7585 32.3257C82.9246 31.9316 82.6071 31.534 82.6035 30.5728C82.5681 22.5663 76.0055 15.9917 68.0396 15.8758C65.3926 15.8366 62.9284 16.5017 60.5688 17.7036C60.4641 17.3701 60.3736 17.1187 60.3062 16.8619C57.5687 6.5194 47.866 -0.151497 38.1384 0.00185669C25.998 0.192658 15.9139 9.95382 15.6584 22.1811C15.6406 23.0513 15.3426 23.3117 14.5602 23.531C6.04437 25.9134 -1.14973 34.1499 0.156034 45.3947C1.32696 55.4732 9.87468 62.968 19.9801 62.9822C38.9965 63.0072 58.014 63.0072 77.0327 62.9822C84.5408 62.9733 91.0928 57.7539 92.6203 50.4161C94.2649 42.522 90.454 35.4891 83.7585 32.3257ZM61.9526 34.2426C61.2926 33.886 60.5439 33.6773 59.8236 33.4223C59.2914 33.2298 58.7273 33.0996 58.1986 32.8874C56.2843 32.1295 55.3262 30.5211 55.6509 28.6577C55.9312 27.0617 57.6574 25.6512 59.4581 25.5603C59.8378 25.5424 60.221 25.5603 60.7391 25.5603C61.7225 25.4833 62.71 25.6448 63.6185 26.031C64.0922 26.229 64.4719 26.5 64.5428 27.0849C64.6688 28.1281 64.4222 28.351 63.4517 27.9872C62.1407 27.495 60.8065 27.2739 59.4263 27.6306C58.7166 27.8089 58.1844 28.1816 58.0992 29.0036C58.0211 29.7971 58.3653 30.3678 59.0643 30.6513C60.0862 31.0632 61.1347 31.4074 62.1779 31.7586C64.3583 32.4933 65.3128 33.6381 65.2631 35.4855C65.2135 37.3329 63.9414 38.7719 61.8923 39.3069C60.017 39.7955 58.1932 39.5351 56.4067 38.8718C55.8443 38.6614 55.438 38.3368 55.415 37.6235C55.3848 36.7141 55.6296 36.4145 56.5344 36.8265C57.7233 37.3558 59.0235 37.583 60.3204 37.488C60.9334 37.4795 61.5318 37.2992 62.0484 36.9673C63.0845 36.2558 63.0561 34.8543 61.9508 34.2426H61.9526ZM36.744 25.8438C37.7694 25.4872 38.7896 25.8795 39.0042 26.6944C39.6979 29.3175 40.3508 31.9512 41.0196 34.5814C41.142 35.054 41.2716 35.5247 41.3993 35.9973L41.6122 36.0205C42.3059 33.0925 43.0475 30.1734 43.6666 27.2276C43.8919 26.1576 44.3231 25.801 45.4142 25.7814C46.594 25.7618 46.7767 26.4233 46.9754 27.3096C47.6478 30.2911 48.3663 33.2619 49.1469 36.5822C49.7679 34.1963 50.3019 32.1385 50.8359 30.0807C51.1251 28.9697 51.3948 27.8552 51.7088 26.7532C51.9359 25.9472 53.5006 25.423 54.1411 25.9098C54.4551 26.1487 54.3469 26.4751 54.2618 26.7532C53.0566 30.6596 51.8419 34.5636 50.6177 38.4652C50.2824 39.5351 49.3581 39.0447 48.6662 39.1375C48.0221 39.2248 47.7116 38.8932 47.5662 38.2637C46.9257 35.5087 46.2533 32.7608 45.5933 30.0111C45.5223 29.7187 45.5135 29.4031 45.2048 29.107C44.4951 32.0743 43.7855 34.9916 43.106 37.9053C42.9286 38.6417 42.7511 39.2017 41.8091 39.1535C40.9344 39.1036 40.1432 39.2676 39.8008 38.0337C38.8019 34.4263 37.6452 30.8617 36.5931 27.2668C36.4583 26.8299 35.8125 26.1648 36.744 25.8438ZM32.408 30.407C32.2483 28.3421 31.5848 27.6234 29.502 27.5539C28.3364 27.5164 27.2417 27.7982 26.1559 28.1834C25.8011 28.3082 25.2689 28.7575 25.0755 28.2101C24.8821 27.6627 24.7118 26.9012 25.4587 26.4715C26.0652 26.1484 26.712 25.9085 27.3819 25.7582C28.6983 25.4158 30.0431 25.4533 31.3577 25.6263C33.4388 25.8991 34.6593 27.347 34.8155 29.5725C34.8846 30.5639 34.8279 31.5643 34.8279 32.1081C34.9237 34.2658 34.6115 36.008 35.4932 37.6253C35.8658 38.3118 35.181 38.533 34.7729 38.8361C34.3649 39.1393 33.9036 39.3711 33.4689 38.8539C33.2809 38.6633 33.1246 38.4435 33.0059 38.2031C32.7114 37.4417 32.4257 37.5754 31.9112 38.0604C30.6693 39.2266 29.1595 39.651 27.4758 39.4174C25.652 39.1624 24.5077 38.1157 24.1636 36.4199C23.7928 34.6117 24.529 32.8927 26.0814 32.0012C27.6675 31.0917 29.3777 31.1274 31.0827 31.4823C32.062 31.6838 32.4967 31.591 32.4044 30.407H32.408ZM62.3908 47.1404C58.0868 50.1112 53.2576 51.5984 48.1214 52.2136C46.9505 52.3527 45.7761 52.4882 44.5857 52.4186C36.4938 52.3295 29.2926 49.7635 23.0831 44.4835C22.8791 44.3051 22.6786 44.1268 22.4852 43.9485C22.2919 43.7702 22.1783 43.5687 22.3362 43.3494C22.4941 43.13 22.7442 43.1817 22.9625 43.2762C23.1399 43.3529 23.2978 43.4546 23.4664 43.5455C35.8534 50.1522 48.5881 51.0117 61.6812 45.8636C62.1726 45.6711 62.7457 45.3287 63.081 45.9992C63.3932 46.6233 62.7758 46.8783 62.3944 47.1404H62.3908ZM66.7782 45.9492C66.4501 47.4557 65.7132 48.8414 64.6493 49.9525C64.3991 50.2111 64.1277 50.7086 63.748 50.4982C63.2885 50.2432 63.7303 49.8295 63.8332 49.4996C64.188 48.369 64.612 47.2599 64.8977 46.1115C65.2844 44.594 64.9633 44.1785 63.3967 44.027C62.0981 43.9004 60.8154 44.1661 59.5238 44.2374C59.2701 44.2516 58.9383 44.4407 58.8141 44.1179C58.6651 43.7452 59.043 43.599 59.2825 43.451C60.7249 42.5594 62.3181 42.2705 63.984 42.2812C67.2253 42.39 67.5535 42.5808 66.7818 45.9492H66.7782Z" fill="#E33B5C"/>
<path d="M30.6357 33.1138C30.4086 33.0995 30.1815 33.0906 29.9545 33.0781C29.3495 33.0924 28.7445 33.0639 28.1573 33.2707C27.1691 33.6273 26.7078 34.3549 26.7025 35.3588C26.7025 36.2415 26.981 37.0065 27.9018 37.3685C29.2413 37.9034 31.3933 37.1188 32.0799 35.8492C33.0042 34.1409 32.5287 33.235 30.6357 33.1138Z" fill="#E33B5C"/>
</g>
<defs>
<clipPath id="clip0_800_62">
<rect width="93" height="63" fill="white"/>
</clipPath>
</defs>
</svg>
