<svg width="63" height="62" viewBox="0 0 63 62" fill="none" xmlns="http://www.w3.org/2000/svg">
<g clip-path="url(#clip0_735_1203)">
<path d="M38.8471 57.2067C38.2826 57.7292 37.7443 58.2906 37.139 58.766C33.6512 61.5059 29.6936 62.1646 25.2787 61.969C18.1551 61.6526 11.0102 61.8198 3.87411 61.7733C0.973489 61.7548 -0.0308122 60.7829 0.0325447 57.9681C0.0676733 56.3778 -0.343831 54.6668 1.03058 53.342C1.10585 53.2696 1.09707 53.0944 1.0933 52.9656C0.979764 45.3638 0.816036 37.762 0.759579 30.1596C0.70124 22.2817 0.738884 14.4025 0.749548 6.52398C0.757075 2.47051 3.23427 0.00734573 7.31734 0.00734573C21.7238 -0.000495451 36.1307 -0.000495451 50.5381 0.00734573C54.6926 0.00734573 57.1498 2.47484 57.1529 6.62241C57.1579 14.2366 57.1397 21.8508 57.1786 29.465C57.192 30.1495 57.3899 30.8181 57.752 31.402C61.0039 36.4781 61.0917 41.5796 57.9019 46.6855C57.444 47.4178 57.4559 47.8616 57.9646 48.5178C59.3196 50.2635 60.6118 52.0581 61.904 53.8502C63.7038 56.3462 63.2452 59.3393 60.8464 60.911C58.4326 62.4921 55.3206 61.8043 53.9029 59.0762C52.9764 57.294 51.8792 56.748 49.8882 56.8532C46.1551 57.0494 42.4033 56.9095 38.6596 56.9095L38.8471 57.2067ZM2.69855 13.5024V14.9262C2.69855 22.1484 2.69688 29.3688 2.69354 36.5877C2.69354 41.2546 2.67911 45.9216 2.69918 50.5885C2.70734 52.5787 2.81774 52.6524 4.80815 52.6673C12.8833 52.7292 20.9585 52.8387 29.0331 52.8208C30.8936 52.8164 32.4889 53.1804 34.0464 54.1901C34.8042 54.681 35.843 54.9422 36.7633 54.9633C40.4643 55.0481 44.1654 54.9979 47.8708 54.9979H51.2042C50.1874 52.4481 50.1905 52.4785 47.7905 52.7254C44.42 53.0727 41.3519 52.2302 38.5241 50.3935C37.9733 50.0351 37.2375 49.7906 36.5795 49.7788C33.145 49.7169 29.7087 49.7732 26.2736 49.7318C25.4324 49.7219 24.0781 50.1707 24.1119 48.7413C24.1421 47.4413 25.4374 47.8586 26.2447 47.8474C29.3022 47.8059 32.3609 47.8307 35.4535 47.8307C34.6461 45.5743 33.5088 44.1784 30.819 44.5968C28.9911 44.881 27.0765 44.7058 25.2091 44.5968C24.8045 44.5739 24.4344 43.9636 24.0486 43.6231C24.4174 43.3136 24.7436 42.9087 25.1677 42.7187C25.502 42.5695 25.9574 42.6809 26.3595 42.6809H32.7856V36.6805C30.3441 36.6805 27.9905 36.6805 25.6344 36.6805C24.8942 36.6805 24.0605 36.657 24.0793 35.682C24.0975 34.7182 24.9281 34.7163 25.6689 34.7176C27.8996 34.7213 30.1308 34.7374 32.3609 34.7008C32.7529 34.6947 33.3319 34.5739 33.4957 34.3084C34.0126 33.469 34.3739 32.5354 34.8431 31.5376C31.6157 31.5376 28.5394 31.5468 25.4638 31.5326C24.3974 31.527 23.723 30.8981 24.1521 30.2945C24.4187 29.9231 25.0874 29.6513 25.5811 29.6433C28.8813 29.5888 32.184 29.6538 35.4842 29.587C36.1699 29.5572 36.8283 29.3136 37.3648 28.8912C42.1668 24.9157 48.8092 24.4762 54.0428 27.8481C54.3564 28.0511 54.6864 28.2381 55.0703 28.4708V13.5024H53.6626C45.0059 13.5024 36.3492 13.3873 27.6988 13.5693C24.9644 13.6269 23.0336 13.0171 21.9239 10.4877C21.5708 9.68295 20.9203 9.52571 20.0753 9.535C16.819 9.57276 13.5614 9.54181 10.3045 9.535C8.53304 9.53066 8.53304 9.52819 8.47658 11.2621C8.42514 12.8363 7.76836 13.4801 6.16185 13.5006C5.0553 13.5142 3.95064 13.5024 2.69855 13.5024ZM46.3791 50.8572C47.9336 50.8652 49.4744 50.5701 50.913 49.989C52.3517 49.4079 53.6599 48.5521 54.7625 47.4708C55.8652 46.3895 56.7406 45.1039 57.3386 43.6879C57.9365 42.2719 58.2452 40.7533 58.2469 39.2192C58.2682 32.7255 52.9845 27.5441 46.3007 27.5163C39.8571 27.489 34.5596 32.8097 34.5765 39.2904C34.5934 45.6486 39.8941 50.8429 46.3791 50.8572ZM30.3692 54.7856H8.82285V59.8902H30.3667L30.3692 54.7856ZM43.0883 5.29209C42.5725 5.29209 42.0779 5.49428 41.7132 5.85416C41.3485 6.21405 41.1437 6.70216 41.1437 7.21112C41.1364 7.71967 41.332 8.21066 41.6883 8.57814C42.0446 8.94562 42.533 9.16011 43.0481 9.17534C44.161 9.20505 45.1101 8.27525 45.0799 7.18636C45.0631 6.6769 44.8457 6.194 44.4737 5.84027C44.1018 5.48655 43.6048 5.28989 43.0883 5.29209ZM36.5286 5.29643C35.4409 5.29271 34.5583 6.12099 34.5288 7.17398C34.4981 8.25482 35.4579 9.19948 36.5606 9.1741C37.0768 9.15827 37.5662 8.94378 37.9242 8.57648C38.2822 8.20919 38.4804 7.71825 38.4764 7.20864C38.4772 6.95648 38.4272 6.70668 38.3295 6.4737C38.2317 6.24071 38.0881 6.02917 37.907 5.85133C37.7258 5.67349 37.5107 5.53287 37.2741 5.43762C37.0376 5.34237 36.7842 5.29438 36.5286 5.29643ZM49.658 5.29643C49.142 5.2974 48.6474 5.49972 48.282 5.85924C47.9166 6.21876 47.7102 6.70629 47.7077 7.21545C47.7089 7.72575 47.9111 8.21559 48.2715 8.58153C48.6319 8.94746 49.1223 9.16083 49.6391 9.17657C49.9059 9.18179 50.1709 9.13327 50.418 9.03398C50.6651 8.93469 50.8891 8.78672 51.0762 8.59911C51.2634 8.4115 51.4098 8.1882 51.5066 7.94284C51.6034 7.69749 51.6484 7.43523 51.639 7.17212C51.6126 6.09747 50.7564 5.28652 49.6598 5.29395L49.658 5.29643Z" fill="#E43C5C"/>
<path d="M12.7747 51.3201C11.8412 51.3201 10.9053 51.3541 9.97378 51.312C8.58055 51.2501 7.71551 50.4342 7.68352 49.0785C7.63543 47.1925 7.63417 45.3057 7.67976 43.418C7.71175 42.0834 8.4827 41.2217 9.80316 41.1672C11.8005 41.0855 13.8053 41.0886 15.8032 41.1622C17.1363 41.2111 17.9191 42.0419 17.9586 43.3796C18.0138 45.2648 18.0138 47.1515 17.9586 49.0395C17.9166 50.4819 17.0603 51.2637 15.5749 51.3188C14.6421 51.3535 13.7074 51.325 12.7734 51.325L12.7747 51.3201ZM12.2339 46.1102C11.4498 45.4955 10.5283 45.0145 10.2467 46.1053C10.1093 46.6377 10.8783 47.5043 11.4141 48.0509C11.648 48.2893 12.4848 48.2985 12.7734 48.072C13.6774 47.363 14.498 46.5563 15.2199 45.667C15.4488 45.3847 15.2399 44.7564 15.2312 44.2859C14.7883 44.3014 14.2237 44.1534 13.9276 44.367C13.3267 44.7985 12.8744 45.4268 12.2339 46.1102Z" fill="#E43C5C"/>
<path d="M17.9707 20.8374C17.9707 21.8031 18.0083 22.7707 17.9631 23.7339C17.9004 25.141 17.1138 25.9625 15.7187 25.9978C13.7634 26.0479 11.8037 26.051 9.84842 25.9922C8.53612 25.952 7.71561 25.1002 7.68236 23.789C7.63532 21.9028 7.63846 20.0129 7.67609 18.1273C7.70307 16.7586 8.55431 15.8987 9.9262 15.8653C11.8382 15.8214 13.7527 15.8245 15.6641 15.8653C17.0868 15.8956 17.886 16.6781 17.9606 18.0734C18.0102 18.9921 17.97 19.9157 17.9707 20.8374ZM12.3501 20.8374C11.4317 20.2444 10.4588 19.6817 10.211 20.9111C10.1 21.4621 10.9129 22.2996 11.4788 22.8301C11.7134 23.0487 12.5395 22.9713 12.8519 22.7249C13.7183 22.0427 14.5029 21.2651 15.1905 20.4072C15.4263 20.1113 15.2488 19.4935 15.2601 19.0224C14.7834 19.054 14.1768 18.9159 13.8581 19.1537C13.2722 19.5876 12.8557 20.2494 12.3501 20.8356V20.8374Z" fill="#E43C5C"/>
<path d="M12.6598 38.6634C11.7703 38.6634 10.8802 38.69 9.99195 38.6572C8.6119 38.6064 7.70796 37.7757 7.6766 36.4453C7.63185 34.516 7.63541 32.5856 7.68726 30.6542C7.72239 29.4112 8.52972 28.5718 9.78745 28.5321C11.8306 28.4702 13.8793 28.461 15.9212 28.5414C17.15 28.5903 17.9009 29.3703 17.9423 30.5843C18.01 32.5565 18.014 34.5304 17.9542 36.506C17.9166 37.806 17.0522 38.5953 15.7273 38.6491C14.7067 38.69 13.6823 38.6572 12.6598 38.6572V38.6634ZM12.2439 33.4857C11.4203 32.8487 10.5252 32.3789 10.2284 33.4931C10.0942 33.9964 10.8125 34.8346 11.3243 35.3441C11.5872 35.6059 12.424 35.7013 12.695 35.4895C13.6275 34.7495 14.4805 33.9169 15.2405 33.0047C15.4639 32.7398 15.2932 32.1511 15.3033 31.7103C14.8278 31.7103 14.2243 31.5314 13.9044 31.7524C13.3009 32.1678 12.8625 32.8159 12.2439 33.4857Z" fill="#E43C5C"/>
<path d="M37.5415 19.1202C33.5757 19.1202 29.6095 19.1202 25.6429 19.1202C24.9015 19.1202 24.0634 19.1313 24.0803 18.152C24.0973 17.1931 24.9297 17.1999 25.6737 17.2005C33.606 17.2067 41.5382 17.2092 49.4702 17.2079C49.6483 17.2079 49.8773 17.1398 49.9958 17.2228C50.4117 17.515 50.7887 17.8592 51.1808 18.1835C50.7787 18.4962 50.3866 19.0632 49.9732 19.0787C47.6146 19.1678 45.251 19.1257 42.8892 19.127H37.5415V19.1202Z" fill="#E43C5C"/>
<path d="M31.9286 22.3045C34.0242 22.3045 36.1202 22.3045 38.2167 22.3045C38.977 22.3045 39.8263 22.4104 39.6908 23.3377C39.6362 23.7091 38.7499 24.226 38.2367 24.2347C34.0012 24.3073 29.7649 24.3073 25.5277 24.2347C25.0296 24.226 24.5422 23.6305 24.0498 23.3061C24.5353 22.9731 25.0064 22.3757 25.5083 22.3541C27.6442 22.2439 29.7877 22.3051 31.9286 22.3045Z" fill="#E43C5C"/>
<path d="M55.8861 39.2416C55.893 44.3462 51.6205 48.552 46.4309 48.5507C41.1967 48.5507 36.9662 44.4261 36.9261 39.2874C36.8859 34.1488 41.1384 29.8446 46.2458 29.857C51.6801 29.8731 55.8792 33.9606 55.8861 39.2416ZM45.0715 39.6978C44.5697 39.0943 44.3269 38.5836 43.9261 38.3849C43.5396 38.1917 42.9901 38.3174 42.5121 38.3031C42.5379 38.7718 42.3992 39.3475 42.625 39.6867C43.0322 40.2977 43.6695 40.7558 44.1876 41.2962C44.8018 41.94 45.3845 41.945 46.0131 41.3129C47.1359 40.185 48.3278 39.1184 49.3773 37.9292C49.6909 37.5727 49.9004 36.7116 49.6853 36.3971C49.1866 35.6698 48.5248 36.0709 48.0198 36.5965C47.1039 37.5535 46.1962 38.5149 45.0715 39.6978Z" fill="#E43C5C"/>
</g>
<defs>
<clipPath id="clip0_735_1203">
<rect width="63" height="62" fill="white"/>
</clipPath>
</defs>
</svg>
