<svg width="95" height="100" viewBox="0 0 95 100" fill="none" xmlns="http://www.w3.org/2000/svg">
<g clip-path="url(#clip0_106_17)">
<path d="M26.4946 8.72435V1.74302C26.4946 0.197514 26.6871 0.00195312 28.2664 0.00195312H53.2048C54.6454 0.00195312 54.8611 0.218399 54.863 1.65378C54.863 3.67964 54.8977 5.7055 54.8457 7.72946C54.8264 8.5212 55.0787 8.74524 55.876 8.74144C62.5204 8.71296 69.1647 8.72435 75.8072 8.72625C77.4057 8.72625 77.4885 8.80599 77.4885 10.3971C77.4885 18.1182 77.4885 25.8394 77.4885 33.5606V34.5631L77.6811 34.6143C77.8077 34.4309 77.9241 34.2407 78.0297 34.0448C79.65 30.5955 81.2639 27.1508 82.8714 23.7104C84.0808 21.1206 86.4073 19.8144 89.2577 20.215C89.8489 20.2985 90.0569 20.1106 90.2514 19.6454C90.5191 19.0036 90.8427 18.3847 91.1354 17.7467C91.3877 17.2037 91.7998 16.9474 92.3718 17.1923C92.9785 17.4505 92.965 17.9784 92.757 18.4853C92.4912 19.129 92.1966 19.7631 91.8672 20.384C91.6188 20.8491 91.6747 21.1434 92.0984 21.5099C94.2534 23.4218 94.7638 25.9318 93.5331 28.5709C88.3974 39.5983 83.2572 50.6263 78.1125 61.6549C77.7463 62.4848 77.5449 63.3761 77.5193 64.2808C77.4384 66.6199 77.4904 68.9628 77.4923 71.3058C77.4923 71.9437 77.4461 72.6025 76.5968 72.5798C75.7475 72.557 75.7263 71.9057 75.7321 71.264C75.7436 69.7451 75.7321 68.2413 75.7321 66.5174C73.9217 68.1331 71.4797 68.4521 70.1469 70.5387C69.2013 72.0235 67.8359 73.2405 66.6803 74.5961C66.2952 75.0461 65.8156 75.4486 65.3072 75.0803C65.0067 74.8619 64.8469 74.2145 64.9008 73.7949C65.2263 71.2887 65.6442 68.7919 66.0024 66.2876C66.044 65.9475 65.99 65.6027 65.8464 65.2908C65.0221 63.5004 65.0915 61.7423 65.9196 59.9746C69.0357 53.3154 72.1396 46.6518 75.2313 39.9837C75.5409 39.2992 75.7041 38.5592 75.7109 37.8098C75.7436 29.1083 75.7321 20.4086 75.7321 11.7071C75.7321 10.4464 75.7321 10.4407 74.4995 10.4407C65.9312 10.4407 57.359 10.454 48.7907 10.4198C47.9182 10.4198 47.6024 10.6819 47.3751 11.5002C46.5297 14.5551 43.8064 16.4974 40.5671 16.4746C39.0462 16.4708 37.57 15.9673 36.3718 15.0437C35.1737 14.1201 34.3221 12.8291 33.9516 11.3749C33.7475 10.5945 33.3912 10.4255 32.6343 10.4255C24.032 10.4496 15.4296 10.4496 6.82729 10.4255C5.8162 10.4255 5.61011 10.7464 5.61204 11.6711C5.63258 40.1166 5.639 68.5622 5.63129 97.0078C5.63129 97.378 5.66211 97.7502 5.6833 98.2286H74.4032C75.7263 98.2286 75.7282 98.2286 75.7282 96.8768V78.0801C75.7282 77.7631 75.6261 77.3871 75.7648 77.146C75.9574 76.8175 76.3002 76.4302 76.6276 76.3866C76.8626 76.3505 77.2343 76.791 77.4365 77.0891C77.5598 77.2675 77.4846 77.5808 77.4846 77.8333C77.4846 84.7001 77.4846 91.5663 77.4846 98.4318C77.4846 99.8918 77.3633 100.006 75.8958 100.006H5.40791C3.99622 100.006 3.86719 99.888 3.86719 98.4868C3.86719 69.0603 3.86719 39.6312 3.86719 10.1996C3.86719 8.83827 3.97502 8.72435 5.34048 8.72435H26.4753H26.4946ZM83.0428 46.7258C83.2354 46.3233 83.4068 46.0195 83.5512 45.7082C85.133 42.3235 86.7129 38.9369 88.2908 35.5485C89.535 32.8809 90.7656 30.2038 92.0386 27.5476C92.7377 26.0837 92.3064 23.5452 90.7502 22.8845C90.6212 23.1313 90.4787 23.3762 90.365 23.6307C88.3544 27.9343 86.345 32.2379 84.337 36.5415C83.9518 37.375 83.6148 38.2503 83.1314 39.0097C82.958 39.2907 82.4188 39.3515 82.0452 39.5129C81.8567 39.1303 81.6926 38.7365 81.5541 38.3338C81.5136 38.1914 81.6773 37.9864 81.7467 37.8155C83.3028 34.4878 84.8589 31.1626 86.415 27.84C87.3086 25.9261 88.1984 24.0142 89.0959 22.0889C87.2643 21.5364 85.4367 22.482 84.5257 24.4072C81.6613 30.5133 78.8058 36.6244 75.9593 42.7406C75.8735 42.9583 75.8008 43.1808 75.7417 43.407L83.0428 46.7258ZM52.9988 1.81326H28.2914C28.2914 3.81444 28.3299 5.74157 28.2741 7.663C28.2491 8.47942 28.4667 8.74714 29.3353 8.74334C36.904 8.70916 44.4728 8.72435 52.0397 8.72055C52.3497 8.72055 52.6579 8.68638 53.0026 8.66739L52.9988 1.81326ZM71.7204 51.987C71.5856 52.2072 71.4701 52.3553 71.3911 52.5224C70.0622 55.3704 68.7257 58.1994 67.418 61.0493C67.2082 61.4769 67.084 61.9404 67.052 62.4144C67.0154 63.6048 67.106 64.7042 68.639 65.1845C69.4058 65.4198 70.1381 65.753 70.8172 66.1756C72.0112 66.9351 72.9665 66.4946 73.8235 65.6839C74.2749 65.2381 74.6473 64.7208 74.9251 64.1535C75.6223 62.7675 76.2463 61.3454 76.903 59.9366C77.6079 58.4177 78.3147 56.8988 79.0542 55.3191L71.7204 51.987ZM82.2897 48.3359L74.8981 44.9848L72.3945 50.3542L79.8053 53.7091C80.5198 52.1902 81.1804 50.7908 81.8372 49.3896C81.9816 49.0726 82.1087 48.7555 82.2897 48.3359ZM35.6483 10.511C36.0027 13.0286 38.4582 14.9196 40.9677 14.7298C43.4771 14.5399 45.6746 12.571 45.638 10.511H35.6483ZM70.2067 67.8331L67.7569 66.73C67.5277 68.2679 67.3217 69.6425 67.1175 71.0153L67.3351 71.1026L70.2067 67.8331Z" fill="#E33E5D"/>
<path d="M28.276 65.6972C28.276 66.9332 28.276 68.0325 28.276 69.1318C28.2625 70.1761 28.0256 70.4096 26.9644 70.4115C24.0447 70.4115 21.1244 70.4115 18.2035 70.4115C17.1173 70.4115 16.9189 70.2217 16.9151 69.1262C16.9016 66.2478 16.9151 63.3694 16.8997 60.4892C16.8997 59.6215 17.2194 59.2209 18.1457 59.2304C21.0988 59.2595 24.0518 59.2595 27.0048 59.2304C27.9062 59.2304 28.3029 59.5949 28.2836 60.4759C28.2625 61.393 28.2971 62.31 28.2836 63.227C28.2721 63.7207 28.3954 63.9865 28.9731 63.9865C32.5989 63.9701 36.2254 63.9701 39.8525 63.9865C40.4303 63.9865 40.5574 63.7378 40.5458 63.2384C40.5227 62.2891 40.5458 61.3398 40.5458 60.3905C40.5458 59.6025 40.9079 59.2399 41.7168 59.2513C44.7327 59.2627 47.75 59.2627 50.7685 59.2513C51.5947 59.2513 51.924 59.631 51.924 60.4113C51.924 61.5714 51.924 62.7334 51.924 63.9941C53.2876 63.9941 54.5009 63.9941 55.7142 63.9941C58.5588 64.0131 60.4596 65.8928 60.4673 68.7179C60.4673 70.964 60.4866 73.212 60.4673 75.4563C60.4673 76.0657 60.581 76.3885 61.2531 76.6182C62.3422 76.9845 63.2613 77.7249 63.8423 78.7042C64.4233 79.6834 64.6274 80.8361 64.4173 81.9515C63.9744 84.3248 62.0331 85.9634 59.6488 85.9767C57.2645 85.99 55.2058 84.3704 54.7859 82.1794C54.3237 79.7548 55.5062 77.5201 57.8077 76.6733C58.5106 76.4132 58.7051 76.0809 58.6897 75.3746C58.6435 73.1608 58.6897 70.9451 58.6705 68.7293C58.6589 66.8857 57.5554 65.7712 55.693 65.7257C54.6993 65.701 53.7036 65.7409 52.7098 65.7105C52.1205 65.6915 51.9106 65.9269 51.926 66.4889C51.9491 67.406 51.9144 68.3249 51.926 69.242C51.9375 70.0622 51.5986 70.4552 50.7204 70.4476C47.7352 70.4229 44.7501 70.4267 41.7669 70.4476C40.9137 70.4476 40.5304 70.0964 40.5458 69.2534C40.569 68.1142 40.5458 66.9921 40.5458 65.7409C38.8722 65.7409 37.3084 65.7238 35.7484 65.7674C35.5924 65.7674 35.3209 66.1472 35.319 66.337C35.2862 68.7711 35.2727 71.209 35.319 73.643C35.319 73.9886 35.6329 74.3873 35.8967 74.6607C37.7148 76.491 39.5559 78.2928 41.4009 80.106C42.2676 80.9623 42.2772 81.3079 41.4279 82.1509C39.4121 84.1457 37.3919 86.1362 35.3671 88.1221C34.5775 88.8968 34.2347 88.9044 33.4412 88.1221C31.3869 86.1172 29.3442 84.1046 27.313 82.0844C26.5561 81.325 26.5696 80.9452 27.3438 80.1744C29.1773 78.3593 31.0435 76.567 32.8365 74.7196C33.2289 74.2922 33.4643 73.7473 33.5047 73.1722C33.5799 70.9906 33.5048 68.8053 33.551 66.6237C33.5625 65.9174 33.3141 65.6744 32.6054 65.6991C31.1975 65.7276 29.7936 65.6972 28.276 65.6972ZM26.4617 61.055H18.685C18.685 63.4682 18.6696 65.8016 18.7158 68.1275C18.7158 68.3173 19.1376 68.6591 19.3687 68.6629C21.5116 68.7047 23.6551 68.7047 25.7992 68.6629C26.0227 68.6629 26.429 68.3059 26.4329 68.1085C26.4771 65.7807 26.4617 63.4511 26.4617 61.055ZM42.3408 61.055C42.3408 63.4568 42.3273 65.7864 42.3658 68.1142C42.4019 68.2438 42.4712 68.3622 42.567 68.4579C42.6627 68.5536 42.7818 68.6236 42.9128 68.661C45.1199 68.7002 47.3276 68.7002 49.5359 68.661C49.7285 68.661 50.0944 68.3154 50.0964 68.1256C50.1368 65.7959 50.1233 63.4663 50.1233 61.0531L42.3408 61.055ZM39.7042 81.1807L34.3907 75.9119L29.1426 81.0497L34.4542 86.3336L39.7042 81.1807ZM62.6706 81.1199C62.6615 80.3065 62.3293 79.5289 61.7453 78.9542C61.1612 78.3795 60.3719 78.0534 59.5468 78.046C58.7217 78.0646 57.9361 78.3975 57.3547 78.9749C56.7733 79.5523 56.4414 80.3292 56.4287 81.1427C56.4408 81.9564 56.777 82.7328 57.3647 83.3044C57.9523 83.8759 58.7444 84.1967 59.5699 84.1976C59.9789 84.1971 60.3837 84.117 60.7612 83.9618C61.1387 83.8065 61.4813 83.5793 61.7694 83.2932C62.0576 83.007 62.2855 82.6675 62.4401 82.2942C62.5948 81.921 62.6731 81.5212 62.6706 81.118V81.1199Z" fill="#024A99"/>
<path d="M40.5632 34.3067H16.4894C16.2006 34.3067 15.8558 34.3959 15.6363 34.2725C15.3204 34.0826 14.8659 33.7371 14.889 33.4922C14.916 33.1637 15.3012 32.8181 15.6132 32.5789C15.7769 32.4536 16.11 32.5333 16.3662 32.5333H64.9855C65.2108 32.5333 65.4997 32.4536 65.6461 32.5599C65.979 32.834 66.29 33.133 66.5763 33.4542C66.2797 33.7371 66.0197 34.0788 65.673 34.2763C65.4554 34.3997 65.1087 34.3067 64.8199 34.3067H40.5632Z" fill="#024A99"/>
<path d="M40.6172 28.6108H16.4549C16.1988 28.6108 15.8771 28.7 15.698 28.5842C15.3668 28.3773 14.8911 28.0488 14.8892 27.7659C14.8872 27.483 15.3283 27.1147 15.648 26.8849C15.8194 26.7615 16.1448 26.8413 16.401 26.8413H64.9336C65.1262 26.8413 65.3188 26.8413 65.5114 26.8413C66.0892 26.8716 66.5668 27.0824 66.5687 27.707C66.5687 28.364 66.1142 28.6165 65.469 28.6127C63.4796 28.6013 61.4901 28.6127 59.4987 28.6127L40.6172 28.6108Z" fill="#024A99"/>
<path d="M0.0346148 40.4907C0.0346148 33.2505 0.0346148 26.0097 0.0346148 18.7683C0.0346148 18.4835 -0.0616933 18.136 0.0692678 17.9291C0.261858 17.6063 0.60659 17.2133 0.932066 17.1696C1.16703 17.1354 1.54643 17.574 1.73325 17.8778C1.86228 18.0905 1.78332 18.4322 1.78332 18.717C1.78332 33.1999 1.77948 47.6822 1.77178 62.1638C1.77178 62.8397 2.0337 63.8156 0.882015 63.7929C-0.269672 63.7701 0.0442302 62.7904 0.0442302 62.1239C0.028823 54.9129 0.0256273 47.7018 0.0346148 40.4907Z" fill="#024A99"/>
<path d="M51.7874 39.995H38.7896C38.5315 39.995 38.2118 40.0824 38.0307 39.9703C37.6667 39.752 37.1679 39.4615 37.0986 39.1254C36.9773 38.5407 37.4607 38.2426 38.0616 38.2217C38.2542 38.2217 38.4467 38.2217 38.6393 38.2217C47.433 38.2217 56.2279 38.2217 65.0241 38.2217C65.3111 38.2217 65.6597 38.1552 65.8715 38.2862C66.1585 38.4761 66.5456 38.8312 66.5206 39.0799C66.4897 39.397 66.1354 39.7311 65.8311 39.9533C65.6635 40.0767 65.3342 39.9969 65.0781 39.9969L51.7874 39.995Z" fill="#024A99"/>
<path d="M44.6384 45.6815H32.5284C32.2395 45.6815 31.8793 45.7688 31.681 45.634C31.3767 45.4271 31.0242 45.0777 30.9934 44.7606C30.9703 44.5119 31.3536 44.1265 31.6482 43.9784C31.9429 43.8303 32.3358 43.9024 32.6882 43.9024H56.8236C57.1105 43.9024 57.4707 43.8246 57.669 43.9613C57.9676 44.1664 58.3412 44.5309 58.3315 44.8271C58.3219 45.1233 57.9155 45.4422 57.6093 45.6473C57.4321 45.765 57.1124 45.6815 56.8563 45.6815H44.6384Z" fill="#024A99"/>
<path d="M28.4339 21.1775C32.4398 21.1775 36.4463 21.1775 40.4535 21.1775C40.7732 21.1775 41.1506 21.1015 41.3971 21.242C41.6841 21.4034 42.0288 21.7604 42.0327 22.0376C42.0365 22.3148 41.6995 22.6603 41.426 22.8654C41.2585 22.9907 40.933 22.9223 40.6769 22.9223C32.5367 22.9223 24.3953 22.9223 16.2526 22.9223C15.9965 22.9223 15.6748 22.9945 15.4996 22.873C15.2242 22.6831 14.8833 22.3489 14.8775 22.0698C14.8717 21.7907 15.1934 21.411 15.4726 21.261C15.7519 21.111 16.1602 21.1794 16.5107 21.1794C20.4857 21.1756 24.4601 21.1749 28.4339 21.1775Z" fill="#024A99"/>
<path d="M20.9363 45.6796C19.3051 45.6796 17.6623 45.6796 16.0388 45.6796C15.3994 45.6796 14.8466 45.5675 14.8428 44.7967C14.8389 44.0258 15.3955 43.8967 16.0311 43.8967H25.9205C26.5465 43.8967 27.13 44.0239 27.13 44.7853C27.13 45.5467 26.5657 45.6777 25.9302 45.6758C24.2662 45.6758 22.6016 45.677 20.9363 45.6796Z" fill="#024A99"/>
<path d="M64.061 14.2475C62.6513 14.2475 61.2415 14.2475 59.824 14.2475C59.2097 14.2475 58.6878 14.0899 58.6685 13.4045C58.6492 12.719 59.1481 12.514 59.7759 12.5159C62.6609 12.5159 65.5446 12.5159 68.427 12.5159C69.0472 12.5159 69.5287 12.6906 69.5113 13.4083C69.494 14.1259 68.9682 14.2399 68.3693 14.238C66.9287 14.238 65.4804 14.238 64.0437 14.238L64.061 14.2475Z" fill="#024A99"/>
<path d="M19.08 39.9952H15.9042C15.2725 39.9952 14.8237 39.7692 14.8411 39.0686C14.8584 38.4155 15.3206 38.2218 15.8907 38.218C18.038 38.218 20.1873 38.218 22.3347 38.218C22.9683 38.218 23.4344 38.4838 23.4113 39.1484C23.3901 39.754 22.9472 40.0027 22.3501 39.999C21.2601 39.9933 20.17 39.9952 19.08 39.9952Z" fill="#024A99"/>
<path d="M40.2744 4.3689C42.1329 4.3689 43.9933 4.37839 45.8595 4.3689C46.5066 4.3689 47.0844 4.49041 47.0998 5.22329C47.1152 5.95617 46.522 6.11186 45.8903 6.11186C42.1669 6.11186 38.4474 6.11186 34.7317 6.11186C34.1 6.11186 33.5338 5.99414 33.5607 5.2062C33.5877 4.41826 34.179 4.37649 34.7972 4.37839C36.6191 4.37649 38.4467 4.3689 40.2744 4.3689Z" fill="#024A99"/>
</g>
<defs>
<clipPath id="clip0_106_17">
<rect width="94.186" height="100" fill="white"/>
</clipPath>
</defs>
</svg>
