<svg width="101" height="103" viewBox="0 0 101 103" fill="none" xmlns="http://www.w3.org/2000/svg">
<path d="M91.4603 45.1397C91.4603 57.327 91.4603 69.5152 91.4603 81.7043C91.4603 82.3521 91.5492 83.0411 91.3658 83.6449C91.088 84.6084 91.5131 85.1299 92.166 85.7256C94.1107 87.4933 95.9833 89.3104 97.8725 91.122C100.515 93.6555 100.723 97.5588 98.3643 99.966C97.7627 100.599 97.0387 101.105 96.2351 101.456C95.4315 101.806 94.5648 101.994 93.6865 102.007C92.8082 102.02 91.9362 101.858 91.1223 101.532C90.3084 101.205 89.5692 100.72 88.9488 100.106C85.9844 97.18 83.1145 94.1633 80.2334 91.1495C79.9971 90.8851 79.7028 90.6775 79.373 90.5424C79.0433 90.4073 78.6867 90.3483 78.3303 90.3699C55.082 90.3827 31.8318 90.3827 8.57979 90.3699C4.56801 90.3699 1.54529 88.4485 0.464557 85.0421C0.145372 83.9256 -0.00261506 82.7681 0.0255727 81.6082C0.00149463 60.4506 -0.00493909 39.294 0.00617387 18.1382C0.00617387 14.8444 -0.00771734 11.567 0.00617387 8.28407C0.031178 3.24994 3.3095 0.00274489 8.40479 0C33.283 0 58.1631 0 83.045 0C88.2014 0 91.4492 3.24447 91.4547 8.36643C91.4621 20.6342 91.464 32.892 91.4603 45.1397ZM71.9181 80.8232C63.1028 85.4538 53.7235 82.278 49.1199 75.9455C46.7643 72.7075 45.6104 68.7662 45.8528 64.7857C46.0952 60.8053 47.719 57.0291 50.4506 54.0935C53.1925 51.1892 56.8628 49.3058 60.8445 48.76C64.8262 48.2141 68.8768 49.039 72.3155 51.0961C75.7825 53.1231 78.3958 56.3149 79.6778 60.0883C81.3447 64.9276 80.903 69.646 78.4498 74.326C79.1082 74.7735 79.7111 75.5009 80.3696 75.5503C81.122 75.5704 81.838 75.875 82.3699 76.4012C83.3617 77.3592 84.3702 78.2979 85.3704 79.2476L87.9903 81.7345V17.5865H3.22611V36.7239C3.22611 51.8921 3.22611 67.0603 3.22611 82.2286C3.22611 85.1738 5.15142 87.1694 8.01023 87.1694C30.4658 87.1694 52.9215 87.1694 75.3771 87.1694C75.6244 87.1694 75.8716 87.1172 76.2383 87.076C75.3409 86.1483 74.5242 85.355 73.7768 84.5013C73.474 84.1582 73.0489 83.6093 73.1461 83.2908C73.524 82.0666 72.7238 81.5149 71.9181 80.8424V80.8232ZM3.24002 14.2707H88.0792V8.44327C88.0792 5.00393 86.2316 3.15936 82.7783 3.15662H8.5437C8.22976 3.15662 7.91857 3.15663 7.6074 3.18133C5.22645 3.4119 3.36506 5.13568 3.26226 7.40845C3.15947 9.68121 3.24002 11.9403 3.24002 14.2899V14.2707ZM63.25 79.8241C65.116 79.8368 66.9661 79.4836 68.693 78.7851C70.4199 78.0865 71.9893 77.0564 73.3105 75.7544C74.6317 74.4524 75.6782 72.9044 76.3897 71.2C77.1011 69.4957 77.4633 67.6688 77.4552 65.8251C77.4641 63.9807 77.1025 62.1528 76.3915 60.4473C75.6804 58.7418 74.6341 57.1926 73.3129 55.8894C71.9918 54.5862 70.4222 53.5548 68.6949 52.855C66.9675 52.1552 65.1169 51.8008 63.25 51.8125C61.3808 51.799 59.5274 52.1522 57.7973 52.8516C56.0672 53.551 54.4948 54.5826 53.1712 55.8868C51.8476 57.1909 50.7991 58.7416 50.0865 60.449C49.3739 62.1564 49.0114 63.9865 49.0199 65.8334C49.011 67.6791 49.3731 69.5082 50.0852 71.2146C50.7973 72.921 51.8452 74.4708 53.1681 75.774C54.4911 77.0773 56.0627 78.108 57.792 78.8065C59.5212 79.5051 61.3736 79.8575 63.2417 79.8433L63.25 79.8241ZM77.2496 83.4665L86.8929 93.4524C88.3042 94.91 89.6711 96.4032 91.1436 97.814C91.5551 98.2318 92.0728 98.5323 92.6423 98.6843C93.2119 98.8362 93.8124 98.8338 94.3807 98.6774C94.949 98.5211 95.4643 98.2164 95.8724 97.7955C96.2805 97.3746 96.5664 96.8529 96.7001 96.2851C97.0168 94.9758 96.45 93.974 95.511 93.0901C90.9028 88.744 86.2992 84.3934 81.7003 80.0382C81.4808 79.8323 81.2364 79.6511 80.9085 79.3766L77.2496 83.4665ZM76.7828 77.0545L74.7686 78.9759L75.566 79.8323L77.6107 77.8697L76.7828 77.0545Z" fill="#004999"/>
<path d="M73.3042 44.2996C70.2481 44.2996 67.2088 44.2996 64.161 44.2996C62.5941 44.2996 62.1024 43.8138 62.0996 42.2821C62.0996 36.2599 62.0996 30.2367 62.0996 24.2126C62.0996 22.6727 62.5885 22.1868 64.1471 22.1841C70.2796 22.1841 76.4103 22.1841 82.5391 22.1841C84.0504 22.1841 84.5311 22.6672 84.5339 24.1494C84.5339 30.2083 84.5339 36.2654 84.5339 42.3206C84.5339 43.8111 84.0532 44.2941 82.553 44.2996C79.4691 44.3161 76.3881 44.2996 73.3042 44.2996ZM81.2472 41.0826V25.4093H65.4113V41.0826H81.2472Z" fill="#E43C5C"/>
<path d="M45.9641 22.1787C49.0201 22.1787 52.0595 22.1787 55.1072 22.1787C56.6325 22.1787 57.1021 22.6481 57.1021 24.1331C57.1021 30.1901 57.1021 36.2472 57.1021 42.3042C57.1021 43.8167 56.6436 44.2915 55.1434 44.2915C48.9775 44.3025 42.8126 44.3025 36.6486 44.2915C35.2039 44.2915 34.6844 43.7947 34.6816 42.3893C34.6686 36.2975 34.6686 30.2066 34.6816 24.1166C34.6816 22.6618 35.1984 22.1952 36.7153 22.1787C39.7936 22.1732 42.8774 22.1787 45.9641 22.1787ZM38.0155 25.3902V41.0635H53.8348V25.3902H38.0155Z" fill="#E43C5C"/>
<path d="M7.1153 33.2435C7.1153 30.2242 7.1153 27.224 7.1153 24.2129C7.1153 22.6126 7.54316 22.1844 9.13509 22.1816C15.2639 22.1816 21.3927 22.1816 27.5215 22.1816C29.0607 22.1816 29.508 22.6208 29.5135 24.1497C29.5246 30.205 29.5246 36.2611 29.5135 42.3181C29.5135 43.8498 29.0578 44.2945 27.5326 44.2972C21.3705 44.2972 15.2065 44.2972 9.04067 44.2972C7.5821 44.2972 7.12364 43.8333 7.11808 42.3758C7.10697 39.3344 7.1153 36.2904 7.1153 33.2435ZM26.2157 41.1131V25.4151H10.402V41.1131H26.2157Z" fill="#E43C5C"/>
<path d="M18.2123 65.8225C21.2934 65.8225 24.3717 65.8225 27.45 65.8225C28.6057 65.8225 29.1974 66.2726 29.3419 67.1757C29.42 67.5663 29.3394 67.9717 29.1174 68.304C28.8954 68.6364 28.5499 68.869 28.1556 68.9516C27.9554 69.0051 27.749 69.0328 27.5416 69.034C21.3498 69.034 15.1572 69.034 8.96356 69.034C7.71891 69.034 7.12711 68.4658 7.12989 67.4227C7.13267 66.3797 7.74392 65.8362 8.97468 65.8307C12.0696 65.8115 15.1257 65.8225 18.2123 65.8225Z" fill="#E43C5C"/>
<path d="M18.2032 52.617C15.2277 52.617 12.2522 52.617 9.2767 52.617C8.86418 52.6282 8.45251 52.5745 8.05709 52.4578C7.89571 52.4166 7.74429 52.3438 7.61186 52.2438C7.47943 52.1438 7.3687 52.0186 7.28608 51.8755C7.20347 51.7325 7.15069 51.5745 7.13089 51.411C7.1111 51.2475 7.12469 51.0817 7.17084 50.9235C7.34873 50.3736 7.70388 49.8964 8.18209 49.5647C8.52659 49.3314 9.11561 49.4165 9.59624 49.4165C15.4778 49.4165 21.3593 49.3918 27.2409 49.4412C27.9059 49.4535 28.5437 49.7042 29.0356 50.1466C29.3329 50.4513 29.38 51.3571 29.13 51.725C28.94 51.9687 28.701 52.1709 28.4279 52.3187C28.1549 52.4666 27.8538 52.557 27.5436 52.5841C24.432 52.6582 21.3176 52.617 18.2032 52.617Z" fill="#E43C5C"/>
<path d="M18.3118 57.563C21.4235 57.563 24.5379 57.5465 27.6495 57.563C28.9803 57.563 29.6998 58.6253 29.2248 59.7808C28.9164 60.5329 28.2885 60.7141 27.5578 60.7114H8.98248C8.0601 60.7114 7.32948 60.4616 7.16278 59.4377C6.97942 58.2904 7.6184 57.5685 8.87972 57.5602C12.0164 57.5493 15.1641 57.563 18.3118 57.563Z" fill="#E43C5C"/>
<path d="M18.1817 73.9883C21.26 73.9883 24.3392 73.9883 27.4193 73.9883C28.7084 73.9883 29.3835 74.5647 29.3641 75.5913C29.3446 76.6179 28.6945 77.1285 27.4582 77.1285C21.3016 77.1285 15.145 77.1285 8.98845 77.1285C7.72435 77.1285 7.13538 76.6179 7.12704 75.5749C7.11871 74.5318 7.6966 73.9965 8.94958 73.9911C12.0307 73.9801 15.1089 73.9883 18.1817 73.9883Z" fill="#E43C5C"/>
<path d="M41.5905 52.617C39.9235 52.617 38.2566 52.6307 36.5896 52.617C35.3589 52.617 34.7005 52.0516 34.6727 51.0579C34.6449 50.0231 35.3283 49.411 36.6036 49.411C39.9374 49.3982 43.2648 49.3982 46.5858 49.411C47.8915 49.411 48.5305 49.96 48.5305 51.0195C48.5305 52.079 47.8721 52.606 46.5579 52.6143C44.916 52.628 43.2546 52.617 41.5905 52.617Z" fill="#E43C5C"/>
<path d="M39.1073 77.1286C38.1738 77.1286 37.2375 77.1506 36.3041 77.1286C35.2789 77.0957 34.6593 76.4561 34.6843 75.5201C34.7093 74.5841 35.3039 74.0187 36.2902 74.005C38.2275 73.9775 40.1658 73.9775 42.1051 74.005C43.1302 74.0187 43.7525 74.6747 43.7247 75.608C43.6969 76.5412 43.0996 77.0984 42.1189 77.1259C41.1382 77.1533 40.1103 77.1286 39.1073 77.1286Z" fill="#E43C5C"/>
<path d="M39.2129 60.7113C38.2433 60.7113 37.2681 60.7387 36.3041 60.7113C35.2678 60.6756 34.6593 60.0388 34.6843 59.1028C34.7093 58.1668 35.3011 57.5986 36.2874 57.5821C38.2266 57.5547 40.1649 57.5547 42.1023 57.5821C43.0941 57.5958 43.6886 58.1915 43.7247 59.0863C43.7609 59.9811 43.1441 60.6729 42.1189 60.7113C41.1521 60.7415 40.1825 60.7113 39.2129 60.7113Z" fill="#E43C5C"/>
<path d="M38.463 65.8281C39.1575 65.8281 39.8521 65.7952 40.5411 65.8281C41.5301 65.8885 42.1024 66.4869 42.1163 67.39C42.1357 67.5972 42.1103 67.8062 42.0418 68.003C41.9734 68.1998 41.8635 68.3801 41.7194 68.5319C41.5752 68.6836 41.4001 68.8034 41.2056 68.8834C41.0111 68.9634 40.8016 69.0016 40.5911 68.9957C39.1408 69.0589 37.6823 69.0589 36.232 68.9957C36.0219 68.9989 35.8133 68.9589 35.6197 68.8781C35.426 68.7974 35.2515 68.6777 35.1072 68.5266C34.963 68.3756 34.8521 68.1965 34.7817 68.0008C34.7113 67.8051 34.683 67.5971 34.6984 67.39C34.7151 66.4896 35.293 65.8858 36.282 65.8281C36.9932 65.7952 37.724 65.8281 38.463 65.8281Z" fill="#E43C5C"/>
<path d="M10.0328 8.63281C10.0328 7.74347 10.0133 6.85414 10.0328 5.96479C10.0522 5.07545 10.5662 4.53195 11.4525 4.50999C13.2861 4.46607 15.1198 4.46607 16.9534 4.50999C17.848 4.53195 18.3425 5.11937 18.3703 5.98126C18.4092 7.72335 18.4092 9.46727 18.3703 11.213C18.3508 12.1902 17.7452 12.7309 16.7756 12.7501C15.0475 12.7886 13.3139 12.7941 11.5858 12.7501C10.5884 12.7254 10.0744 12.1792 10.03 11.1938C9.99109 10.3401 10.03 9.48373 10.03 8.63007L10.0328 8.63281ZM15.1142 7.74897H13.3V9.48647H15.1253L15.1142 7.74897Z" fill="#004999"/>
<path d="M23.5768 8.57212C23.5768 7.74865 23.5768 6.92519 23.5768 6.10172C23.5768 5.1218 24.0769 4.51791 25.066 4.49046C26.8635 4.44654 28.6777 4.44654 30.4641 4.49046C31.4004 4.51516 31.9116 5.09434 31.9227 6.02486C31.9421 7.73492 31.9505 9.44499 31.9227 11.1551C31.906 12.1377 31.367 12.7059 30.3835 12.7334C28.6221 12.7828 26.8626 12.7828 25.1049 12.7334C24.1241 12.7032 23.6324 12.124 23.5991 11.1249C23.5546 10.2794 23.5768 9.42852 23.5768 8.57212ZM26.8052 9.50262H28.6694V7.72669H26.7941L26.8052 9.50262Z" fill="#004999"/>
<path d="M59.7518 69.3965L69.2146 60.429C69.5146 60.1545 69.7869 59.8306 70.1036 59.5698C70.3997 59.3015 70.7897 59.1573 71.1914 59.1675C71.5931 59.1777 71.975 59.3417 72.2567 59.6247C72.4046 59.758 72.5241 59.9191 72.6081 60.0986C72.6921 60.2781 72.739 60.4724 72.746 60.67C72.7529 60.8677 72.7199 61.0647 72.6488 61.2495C72.5776 61.4344 72.4698 61.6034 72.3317 61.7465C71.3538 62.8088 70.3175 63.8161 69.2979 64.84C66.7049 67.4476 64.1044 70.0516 61.4966 72.6519C60.402 73.7499 59.6852 73.7499 58.5822 72.7151C57.2061 71.414 55.8364 70.1083 54.4732 68.7981C53.6064 67.9747 53.5064 67.0826 54.1676 66.3716C54.8789 65.6086 55.7484 65.658 56.6986 66.5391C57.7821 67.541 58.8517 68.5538 59.7518 69.3965Z" fill="#E43C5C"/>
</svg>
