<svg width="503" height="519" viewBox="0 0 503 519" fill="none" xmlns="http://www.w3.org/2000/svg">
<path d="M186.423 3.94135C182.901 4.55019 179.4 5.23513 175.931 6.0288C129.747 16.5422 88.0629 46.7015 60.3172 80.6008C48.1512 95.4521 38.1271 111.576 30.0165 128.362C-23.1156 238.486 54.9789 314.036 63.9919 358.917C73.0049 403.797 91.1288 474.205 183.031 499.243C252.906 518.291 333.643 504.69 392.504 447.992C398.995 441.751 405.225 434.978 411.139 427.672C422.131 414.071 432.068 398.622 440.646 381.204C465.293 331.193 470.588 285.291 456.063 233.311C452.682 221.232 448.333 208.849 452.747 196.335C455.954 187.235 462.956 180.027 467.827 192.508C473.556 207.163 499.704 202.032 497.464 169.252C493.713 114.5 450.323 76.926 401.67 49.0825C341.949 14.9005 259.375 -8.63771 186.423 3.94135Z" fill="#EAEAEA"/>
<path d="M502.001 413.734C502.001 421.943 395.139 428.596 263.303 428.596C131.468 428.596 24.6055 421.943 24.6055 413.734C24.6055 405.526 131.468 398.872 263.303 398.872C395.139 398.872 502.001 405.526 502.001 413.734Z" fill="#263238"/>
<path d="M455.075 66.1191H75.7246V284.921H455.075V66.1191Z" fill="white" stroke="#263238" stroke-linecap="round" stroke-linejoin="round"/>
<path d="M459.153 52.0615H71.637C66.8858 52.0615 63.0371 55.9103 63.0371 60.6614V340.63C63.0371 345.381 66.8858 349.23 71.637 349.23H459.153C463.904 349.23 467.752 345.381 467.752 340.63V60.6614C467.752 55.9103 463.904 52.0615 459.153 52.0615ZM447.389 280.496H83.4006V70.555H447.389V280.496Z" fill="#263238" stroke="#263238" stroke-linecap="round" stroke-linejoin="round"/>
<path d="M315.749 372.149V338.673H215.052V372.149C215.052 383.075 211.279 393.675 204.354 402.243L199.939 407.69H330.84L326.426 402.243C319.5 393.675 315.728 383.075 315.728 372.149H315.749Z" fill="#A8A8A8" stroke="#263238" stroke-linecap="round" stroke-linejoin="round"/>
<path d="M315.75 338.673H215.053V360.298H315.75V338.673Z" fill="#263238"/>
<path d="M330.873 407.689H199.939V413.669H330.873V407.689Z" fill="#A8A8A8" stroke="#263238" stroke-linecap="round" stroke-linejoin="round"/>
<path d="M63.0371 303.034H467.742V339.999C467.742 345.087 463.61 349.219 458.522 349.219H72.2676C67.1794 349.219 63.048 345.087 63.048 339.999V303.034H63.0371Z" fill="white" stroke="#263238" stroke-linecap="round" stroke-linejoin="round"/>
<path d="M364.424 85.321H351.986L351.279 81.9289C351.279 81.7223 351.116 81.5483 350.899 81.5483H335.221C335.015 81.5483 334.841 81.7114 334.841 81.9289L335.547 85.321H333.743C333.319 85.321 332.971 85.6689 332.971 86.0929L335.841 105.195H368.055L365.185 86.0929C365.185 85.6689 364.837 85.321 364.413 85.321H364.424Z" fill="#004999" stroke="#263238" stroke-linecap="round" stroke-linejoin="round"/>
<path d="M368.065 105.195L371.913 86.756C371.979 86.4516 371.74 86.1689 371.435 86.1689H365.51" fill="#004999"/>
<path d="M368.065 105.195L371.913 86.756C371.979 86.4516 371.74 86.1689 371.435 86.1689H365.51" stroke="#263238" stroke-linecap="round" stroke-linejoin="round"/>
<path d="M365.664 87.7241H369.393L367.686 103.695L365.664 87.7241Z" fill="white" stroke="#263238" stroke-linecap="round" stroke-linejoin="round"/>
<path d="M364.424 127.113H351.986L351.279 123.721C351.279 123.514 351.116 123.34 350.899 123.34H335.221C335.015 123.34 334.841 123.503 334.841 123.721L335.547 127.113H333.743C333.319 127.113 332.971 127.461 332.971 127.885L335.841 146.987H368.055L365.185 127.885C365.185 127.461 364.837 127.113 364.413 127.113H364.424Z" fill="#004999" stroke="#263238" stroke-linecap="round" stroke-linejoin="round"/>
<path d="M368.065 146.987L371.913 128.548C371.979 128.244 371.74 127.961 371.435 127.961H365.51" fill="#004999"/>
<path d="M368.065 146.987L371.913 128.548C371.979 128.244 371.74 127.961 371.435 127.961H365.51" stroke="#263238" stroke-linecap="round" stroke-linejoin="round"/>
<path d="M365.664 129.516H369.393L367.686 145.498L365.664 129.516Z" fill="white" stroke="#263238" stroke-linecap="round" stroke-linejoin="round"/>
<path d="M364.424 168.916H351.986L351.279 165.524C351.279 165.318 351.116 165.144 350.899 165.144H335.221C335.015 165.144 334.841 165.307 334.841 165.524L335.547 168.916H333.743C333.319 168.916 332.971 169.264 332.971 169.688L335.841 188.79H368.055L365.185 169.688C365.185 169.264 364.837 168.916 364.413 168.916H364.424Z" fill="#004999" stroke="#263238" stroke-linecap="round" stroke-linejoin="round"/>
<path d="M368.065 188.79L371.913 170.351C371.979 170.047 371.74 169.764 371.435 169.764H365.51" fill="#004999"/>
<path d="M368.065 188.79L371.913 170.351C371.979 170.047 371.74 169.764 371.435 169.764H365.51" stroke="#263238" stroke-linecap="round" stroke-linejoin="round"/>
<path d="M365.664 171.319H369.393L367.686 187.291L365.664 171.319Z" fill="white" stroke="#263238" stroke-linecap="round" stroke-linejoin="round"/>
<path d="M364.424 210.709H351.986L351.279 207.317C351.279 207.11 351.116 206.937 350.899 206.937H335.221C335.015 206.937 334.841 207.1 334.841 207.317L335.547 210.709H333.743C333.319 210.709 332.971 211.057 332.971 211.481L335.841 230.583H368.055L365.185 211.481C365.185 211.057 364.837 210.709 364.413 210.709H364.424Z" fill="#004999" stroke="#263238" stroke-linecap="round" stroke-linejoin="round"/>
<path d="M368.065 230.583L371.913 212.144C371.979 211.84 371.74 211.557 371.435 211.557H365.51" fill="#004999"/>
<path d="M368.065 230.583L371.913 212.144C371.979 211.84 371.74 211.557 371.435 211.557H365.51" stroke="#263238" stroke-linecap="round" stroke-linejoin="round"/>
<path d="M365.664 213.112H369.393L367.686 229.094L365.664 213.112Z" fill="white" stroke="#263238" stroke-linecap="round" stroke-linejoin="round"/>
<path d="M364.424 252.512H351.986L351.279 249.12C351.279 248.914 351.116 248.74 350.899 248.74H335.221C335.015 248.74 334.841 248.903 334.841 249.12L335.547 252.512H333.743C333.319 252.512 332.971 252.86 332.971 253.284L335.841 272.387H368.055L365.185 253.284C365.185 252.86 364.837 252.512 364.413 252.512H364.424Z" fill="#004999" stroke="#263238" stroke-linecap="round" stroke-linejoin="round"/>
<path d="M368.065 272.387L371.913 253.947C371.979 253.643 371.74 253.36 371.435 253.36H365.51" fill="#92E3A9"/>
<path d="M368.065 272.387L371.913 253.947C371.979 253.643 371.74 253.36 371.435 253.36H365.51" stroke="#263238" stroke-linecap="round" stroke-linejoin="round"/>
<path d="M365.664 254.916H369.393L367.686 270.887L365.664 254.916Z" fill="white" stroke="#263238" stroke-linecap="round" stroke-linejoin="round"/>
<path d="M416.416 85.321H403.978L403.272 81.9289C403.272 81.7223 403.108 81.5483 402.891 81.5483H387.213C387.007 81.5483 386.833 81.7114 386.833 81.9289L387.54 85.321H385.735C385.311 85.321 384.963 85.6689 384.963 86.0929L387.833 105.195H420.047L417.177 86.0929C417.177 85.6689 416.829 85.321 416.405 85.321H416.416Z" fill="#004999" stroke="#263238" stroke-linecap="round" stroke-linejoin="round"/>
<path d="M420.047 105.195L423.896 86.756C423.961 86.4516 423.722 86.1689 423.418 86.1689H417.492" fill="#004999"/>
<path d="M420.047 105.195L423.896 86.756C423.961 86.4516 423.722 86.1689 423.418 86.1689H417.492" stroke="#263238" stroke-linecap="round" stroke-linejoin="round"/>
<path d="M417.656 87.7241H421.385L419.678 103.695L417.656 87.7241Z" fill="white" stroke="#263238" stroke-linecap="round" stroke-linejoin="round"/>
<path d="M416.416 127.113H403.978L403.272 123.721C403.272 123.514 403.108 123.34 402.891 123.34H387.213C387.007 123.34 386.833 123.503 386.833 123.721L387.54 127.113H385.735C385.311 127.113 384.963 127.461 384.963 127.885L387.833 146.987H420.047L417.177 127.885C417.177 127.461 416.829 127.113 416.405 127.113H416.416Z" fill="#004999" stroke="#263238" stroke-linecap="round" stroke-linejoin="round"/>
<path d="M420.047 146.987L423.896 128.548C423.961 128.244 423.722 127.961 423.418 127.961H417.492" fill="#004999"/>
<path d="M420.047 146.987L423.896 128.548C423.961 128.244 423.722 127.961 423.418 127.961H417.492" stroke="#263238" stroke-linecap="round" stroke-linejoin="round"/>
<path d="M417.656 129.516H421.385L419.678 145.498L417.656 129.516Z" fill="white" stroke="#263238" stroke-linecap="round" stroke-linejoin="round"/>
<path d="M416.416 168.916H403.978L403.272 165.524C403.272 165.318 403.108 165.144 402.891 165.144H387.213C387.007 165.144 386.833 165.307 386.833 165.524L387.54 168.916H385.735C385.311 168.916 384.963 169.264 384.963 169.688L387.833 188.79H420.047L417.177 169.688C417.177 169.264 416.829 168.916 416.405 168.916H416.416Z" fill="#004999" stroke="#263238" stroke-linecap="round" stroke-linejoin="round"/>
<path d="M420.047 188.79L423.896 170.351C423.961 170.047 423.722 169.764 423.418 169.764H417.492" fill="#004999"/>
<path d="M420.047 188.79L423.896 170.351C423.961 170.047 423.722 169.764 423.418 169.764H417.492" stroke="#263238" stroke-linecap="round" stroke-linejoin="round"/>
<path d="M417.656 171.319H421.385L419.678 187.291L417.656 171.319Z" fill="white" stroke="#263238" stroke-linecap="round" stroke-linejoin="round"/>
<path d="M416.416 210.709H403.978L403.272 207.317C403.272 207.11 403.108 206.937 402.891 206.937H387.213C387.007 206.937 386.833 207.1 386.833 207.317L387.54 210.709H385.735C385.311 210.709 384.963 211.057 384.963 211.481L387.833 230.583H420.047L417.177 211.481C417.177 211.057 416.829 210.709 416.405 210.709H416.416Z" fill="#004999" stroke="#263238" stroke-linecap="round" stroke-linejoin="round"/>
<path d="M420.047 230.583L423.896 212.144C423.961 211.84 423.722 211.557 423.418 211.557H417.492" fill="#004999"/>
<path d="M420.047 230.583L423.896 212.144C423.961 211.84 423.722 211.557 423.418 211.557H417.492" stroke="#263238" stroke-linecap="round" stroke-linejoin="round"/>
<path d="M417.656 213.112H421.385L419.678 229.094L417.656 213.112Z" fill="white" stroke="#263238" stroke-linecap="round" stroke-linejoin="round"/>
<path d="M416.416 252.512H403.978L403.272 249.12C403.272 248.914 403.108 248.74 402.891 248.74H387.213C387.007 248.74 386.833 248.903 386.833 249.12L387.54 252.512H385.735C385.311 252.512 384.963 252.86 384.963 253.284L387.833 272.387H420.047L417.177 253.284C417.177 252.86 416.829 252.512 416.405 252.512H416.416Z" fill="#004999" stroke="#263238" stroke-linecap="round" stroke-linejoin="round"/>
<path d="M420.047 272.387L423.896 253.947C423.961 253.643 423.722 253.36 423.418 253.36H417.492" fill="#004999"/>
<path d="M420.047 272.387L423.896 253.947C423.961 253.643 423.722 253.36 423.418 253.36H417.492" stroke="#263238" stroke-linecap="round" stroke-linejoin="round"/>
<path d="M417.656 254.916H421.385L419.678 270.887L417.656 254.916Z" fill="white" stroke="#263238" stroke-linecap="round" stroke-linejoin="round"/>
<path d="M134.977 85.321H122.539L121.832 81.9289C121.832 81.7223 121.669 81.5483 121.452 81.5483H105.774C105.567 81.5483 105.393 81.7114 105.393 81.9289L106.1 85.321H104.295C103.871 85.321 103.523 85.6689 103.523 86.0929L106.394 105.195H138.608L135.738 86.0929C135.738 85.6689 135.39 85.321 134.966 85.321H134.977Z" fill="#004999" stroke="#263238" stroke-linecap="round" stroke-linejoin="round"/>
<path d="M138.608 105.195L142.456 86.756C142.522 86.4516 142.282 86.1689 141.978 86.1689H136.053" fill="#004999"/>
<path d="M138.608 105.195L142.456 86.756C142.522 86.4516 142.282 86.1689 141.978 86.1689H136.053" stroke="#263238" stroke-linecap="round" stroke-linejoin="round"/>
<path d="M136.217 87.7241H139.946L138.239 103.695L136.217 87.7241Z" fill="white" stroke="#263238" stroke-linecap="round" stroke-linejoin="round"/>
<path d="M134.977 127.113H122.539L121.832 123.721C121.832 123.514 121.669 123.34 121.452 123.34H105.774C105.567 123.34 105.393 123.503 105.393 123.721L106.1 127.113H104.295C103.871 127.113 103.523 127.461 103.523 127.885L106.394 146.987H138.608L135.738 127.885C135.738 127.461 135.39 127.113 134.966 127.113H134.977Z" fill="#004999" stroke="#263238" stroke-linecap="round" stroke-linejoin="round"/>
<path d="M138.608 146.987L142.456 128.548C142.522 128.244 142.282 127.961 141.978 127.961H136.053" fill="#004999"/>
<path d="M138.608 146.987L142.456 128.548C142.522 128.244 142.282 127.961 141.978 127.961H136.053" stroke="#263238" stroke-linecap="round" stroke-linejoin="round"/>
<path d="M136.217 129.516H139.946L138.239 145.498L136.217 129.516Z" fill="white" stroke="#263238" stroke-linecap="round" stroke-linejoin="round"/>
<path d="M134.977 168.916H122.539L121.832 165.524C121.832 165.318 121.669 165.144 121.452 165.144H105.774C105.567 165.144 105.393 165.307 105.393 165.524L106.1 168.916H104.295C103.871 168.916 103.523 169.264 103.523 169.688L106.394 188.79H138.608L135.738 169.688C135.738 169.264 135.39 168.916 134.966 168.916H134.977Z" fill="#004999" stroke="#263238" stroke-linecap="round" stroke-linejoin="round"/>
<path d="M138.608 188.79L142.456 170.351C142.522 170.047 142.282 169.764 141.978 169.764H136.053" fill="#004999"/>
<path d="M138.608 188.79L142.456 170.351C142.522 170.047 142.282 169.764 141.978 169.764H136.053" stroke="#263238" stroke-linecap="round" stroke-linejoin="round"/>
<path d="M136.217 171.319H139.946L138.239 187.291L136.217 171.319Z" fill="white" stroke="#263238" stroke-linecap="round" stroke-linejoin="round"/>
<path d="M134.977 210.709H122.539L121.832 207.317C121.832 207.11 121.669 206.937 121.452 206.937H105.774C105.567 206.937 105.393 207.1 105.393 207.317L106.1 210.709H104.295C103.871 210.709 103.523 211.057 103.523 211.481L106.394 230.583H138.608L135.738 211.481C135.738 211.057 135.39 210.709 134.966 210.709H134.977Z" fill="#004999" stroke="#263238" stroke-linecap="round" stroke-linejoin="round"/>
<path d="M138.608 230.583L142.456 212.144C142.522 211.84 142.282 211.557 141.978 211.557H136.053" fill="#004999"/>
<path d="M138.608 230.583L142.456 212.144C142.522 211.84 142.282 211.557 141.978 211.557H136.053" stroke="#263238" stroke-linecap="round" stroke-linejoin="round"/>
<path d="M136.217 213.112H139.946L138.239 229.094L136.217 213.112Z" fill="white" stroke="#263238" stroke-linecap="round" stroke-linejoin="round"/>
<path d="M134.977 252.512H122.539L121.832 249.12C121.832 248.914 121.669 248.74 121.452 248.74H105.774C105.567 248.74 105.393 248.903 105.393 249.12L106.1 252.512H104.295C103.871 252.512 103.523 252.86 103.523 253.284L106.394 272.387H138.608L135.738 253.284C135.738 252.86 135.39 252.512 134.966 252.512H134.977Z" fill="#004999" stroke="#263238" stroke-linecap="round" stroke-linejoin="round"/>
<path d="M138.608 272.387L142.456 253.947C142.522 253.643 142.282 253.36 141.978 253.36H136.053" fill="#004999"/>
<path d="M138.608 272.387L142.456 253.947C142.522 253.643 142.282 253.36 141.978 253.36H136.053" stroke="#263238" stroke-linecap="round" stroke-linejoin="round"/>
<path d="M136.217 254.916H139.946L138.239 270.887L136.217 254.916Z" fill="white" stroke="#263238" stroke-linecap="round" stroke-linejoin="round"/>
<path d="M186.957 85.321H174.519L173.813 81.9289C173.813 81.7223 173.65 81.5483 173.432 81.5483H157.754C157.548 81.5483 157.374 81.7114 157.374 81.9289L158.081 85.321H156.276C155.852 85.321 155.504 85.6689 155.504 86.0929L158.374 105.195H190.588L187.718 86.0929C187.718 85.6689 187.37 85.321 186.946 85.321H186.957Z" fill="#004999" stroke="#263238" stroke-linecap="round" stroke-linejoin="round"/>
<path d="M190.598 105.195L194.447 86.756C194.512 86.4516 194.273 86.1689 193.968 86.1689H188.043" fill="#004999"/>
<path d="M190.598 105.195L194.447 86.756C194.512 86.4516 194.273 86.1689 193.968 86.1689H188.043" stroke="#263238" stroke-linecap="round" stroke-linejoin="round"/>
<path d="M188.197 87.7241H191.937L190.219 103.695L188.197 87.7241Z" fill="white" stroke="#263238" stroke-linecap="round" stroke-linejoin="round"/>
<path d="M186.957 127.113H174.519L173.813 123.721C173.813 123.514 173.65 123.34 173.432 123.34H157.754C157.548 123.34 157.374 123.503 157.374 123.721L158.081 127.113H156.276C155.852 127.113 155.504 127.461 155.504 127.885L158.374 146.987H190.588L187.718 127.885C187.718 127.461 187.37 127.113 186.946 127.113H186.957Z" fill="#004999" stroke="#263238" stroke-linecap="round" stroke-linejoin="round"/>
<path d="M190.598 146.987L194.447 128.548C194.512 128.244 194.273 127.961 193.968 127.961H188.043" fill="#004999"/>
<path d="M190.598 146.987L194.447 128.548C194.512 128.244 194.273 127.961 193.968 127.961H188.043" stroke="#263238" stroke-linecap="round" stroke-linejoin="round"/>
<path d="M188.197 129.516H191.937L190.219 145.498L188.197 129.516Z" fill="white" stroke="#263238" stroke-linecap="round" stroke-linejoin="round"/>
<path d="M186.957 168.916H174.519L173.813 165.524C173.813 165.318 173.65 165.144 173.432 165.144H157.754C157.548 165.144 157.374 165.307 157.374 165.524L158.081 168.916H156.276C155.852 168.916 155.504 169.264 155.504 169.688L158.374 188.79H190.588L187.718 169.688C187.718 169.264 187.37 168.916 186.946 168.916H186.957Z" fill="#004999" stroke="#263238" stroke-linecap="round" stroke-linejoin="round"/>
<path d="M190.598 188.79L194.447 170.351C194.512 170.047 194.273 169.764 193.968 169.764H188.043" fill="#004999"/>
<path d="M190.598 188.79L194.447 170.351C194.512 170.047 194.273 169.764 193.968 169.764H188.043" stroke="#263238" stroke-linecap="round" stroke-linejoin="round"/>
<path d="M188.197 171.319H191.937L190.219 187.291L188.197 171.319Z" fill="white" stroke="#263238" stroke-linecap="round" stroke-linejoin="round"/>
<path d="M186.957 210.709H174.519L173.813 207.317C173.813 207.11 173.65 206.937 173.432 206.937H157.754C157.548 206.937 157.374 207.1 157.374 207.317L158.081 210.709H156.276C155.852 210.709 155.504 211.057 155.504 211.481L158.374 230.583H190.588L187.718 211.481C187.718 211.057 187.37 210.709 186.946 210.709H186.957Z" fill="#004999" stroke="#263238" stroke-linecap="round" stroke-linejoin="round"/>
<path d="M190.598 230.583L194.447 212.144C194.512 211.84 194.273 211.557 193.968 211.557H188.043" fill="#004999"/>
<path d="M190.598 230.583L194.447 212.144C194.512 211.84 194.273 211.557 193.968 211.557H188.043" stroke="#263238" stroke-linecap="round" stroke-linejoin="round"/>
<path d="M188.197 213.112H191.937L190.219 229.094L188.197 213.112Z" fill="white" stroke="#263238" stroke-linecap="round" stroke-linejoin="round"/>
<path d="M186.957 252.512H174.519L173.813 249.12C173.813 248.914 173.65 248.74 173.432 248.74H157.754C157.548 248.74 157.374 248.903 157.374 249.12L158.081 252.512H156.276C155.852 252.512 155.504 252.86 155.504 253.284L158.374 272.387H190.588L187.718 253.284C187.718 252.86 187.37 252.512 186.946 252.512H186.957Z" fill="#004999" stroke="#263238" stroke-linecap="round" stroke-linejoin="round"/>
<path d="M190.598 272.387L194.447 253.947C194.512 253.643 194.273 253.36 193.968 253.36H188.043" fill="#004999"/>
<path d="M190.598 272.387L194.447 253.947C194.512 253.643 194.273 253.36 193.968 253.36H188.043" stroke="#263238" stroke-linecap="round" stroke-linejoin="round"/>
<path d="M188.197 254.916H191.937L190.219 270.887L188.197 254.916Z" fill="white" stroke="#263238" stroke-linecap="round" stroke-linejoin="round"/>
<path d="M426.991 493.731H103.795C100.402 493.731 98.5976 492.633 99.7501 491.285L134.073 451.297C134.791 450.46 137.498 449.797 140.118 449.797H390.645C393.276 449.797 395.983 450.471 396.69 451.297L431.013 491.285C432.166 492.633 430.361 493.731 426.969 493.731H426.991Z" fill="#263238" stroke="#263238" stroke-width="1.1" stroke-linecap="round" stroke-linejoin="round"/>
<path d="M268.072 450.634H253.242L252.818 455.864H268.159L268.072 450.634Z" fill="white" stroke="#263238" stroke-width="1.1" stroke-linecap="round" stroke-linejoin="round"/>
<path d="M232.283 450.634H217.442L215.801 455.864H231.141L232.283 450.634Z" fill="white" stroke="#263238" stroke-width="1.1" stroke-linecap="round" stroke-linejoin="round"/>
<path d="M285.968 450.634H271.139L271.334 455.864H286.675L285.968 450.634Z" fill="white" stroke="#263238" stroke-width="1.1" stroke-linecap="round" stroke-linejoin="round"/>
<path d="M196.48 450.634H181.651L178.77 455.864H194.121L196.48 450.634Z" fill="white" stroke="#263238" stroke-width="1.1" stroke-linecap="round" stroke-linejoin="round"/>
<path d="M214.376 450.634H199.547L197.285 455.864H212.626L214.376 450.634Z" fill="white" stroke="#263238" stroke-width="1.1" stroke-linecap="round" stroke-linejoin="round"/>
<path d="M160.256 455.864H175.607L178.586 450.634H163.746L160.256 455.864Z" fill="white" stroke="#263238" stroke-width="1.1" stroke-linecap="round" stroke-linejoin="round"/>
<path d="M250.178 450.634H235.338L234.305 455.864H249.656L250.178 450.634Z" fill="white" stroke="#263238" stroke-width="1.1" stroke-linecap="round" stroke-linejoin="round"/>
<path d="M303.863 450.634H289.033L289.849 455.864H305.189L303.863 450.634Z" fill="white" stroke="#263238" stroke-width="1.1" stroke-linecap="round" stroke-linejoin="round"/>
<path d="M160.689 450.634H138.097L133.727 455.864H157.091L160.689 450.634Z" fill="white" stroke="#263238" stroke-width="1.1" stroke-linecap="round" stroke-linejoin="round"/>
<path d="M378.523 450.634L382.405 455.864H398.246L393.842 450.634H378.523Z" fill="white" stroke="#263238" stroke-width="1.1" stroke-linecap="round" stroke-linejoin="round"/>
<path d="M375.457 450.634H360.627L363.899 455.864H379.24L375.457 450.634Z" fill="white" stroke="#263238" stroke-width="1.1" stroke-linecap="round" stroke-linejoin="round"/>
<path d="M357.562 450.634H342.732L345.385 455.864H360.726L357.562 450.634Z" fill="white" stroke="#263238" stroke-width="1.1" stroke-linecap="round" stroke-linejoin="round"/>
<path d="M321.77 450.634H306.93L308.354 455.864H323.705L321.77 450.634Z" fill="white" stroke="#263238" stroke-width="1.1" stroke-linecap="round" stroke-linejoin="round"/>
<path d="M339.667 450.634H324.826L326.87 455.864H342.211L339.667 450.634Z" fill="white" stroke="#263238" stroke-width="1.1" stroke-linecap="round" stroke-linejoin="round"/>
<path d="M221.627 456.374H206.199L204.09 462.017H220.061L221.627 456.374Z" fill="white" stroke="#263238" stroke-width="1.1" stroke-linecap="round" stroke-linejoin="round"/>
<path d="M240.229 456.374H224.801L223.355 462.017H239.338L240.229 456.374Z" fill="white" stroke="#263238" stroke-width="1.1" stroke-linecap="round" stroke-linejoin="round"/>
<path d="M258.844 456.374H243.417L242.623 462.017H258.605L258.844 456.374Z" fill="white" stroke="#263238" stroke-width="1.1" stroke-linecap="round" stroke-linejoin="round"/>
<path d="M184.414 456.374H168.986L165.551 462.017H181.522L184.414 456.374Z" fill="white" stroke="#263238" stroke-width="1.1" stroke-linecap="round" stroke-linejoin="round"/>
<path d="M146.273 462.017H162.255L165.811 456.374H150.383L146.273 462.017Z" fill="white" stroke="#263238" stroke-width="1.1" stroke-linecap="round" stroke-linejoin="round"/>
<path d="M277.446 456.374H262.018L261.898 462.017H277.87L277.446 456.374Z" fill="white" stroke="#263238" stroke-width="1.1" stroke-linecap="round" stroke-linejoin="round"/>
<path d="M203.014 456.374H187.587L184.814 462.017H200.796L203.014 456.374Z" fill="white" stroke="#263238" stroke-width="1.1" stroke-linecap="round" stroke-linejoin="round"/>
<path d="M370.48 456.374H355.053L358.249 462.017H374.231L370.48 456.374Z" fill="white" stroke="#263238" stroke-width="1.1" stroke-linecap="round" stroke-linejoin="round"/>
<path d="M147.197 456.374H133.292L128.584 462.017H142.99L147.197 456.374Z" fill="white" stroke="#263238" stroke-width="1.1" stroke-linecap="round" stroke-linejoin="round"/>
<path d="M373.654 456.374L377.514 462.017H403.433L398.682 456.374H373.654Z" fill="white" stroke="#263238" stroke-width="1.1" stroke-linecap="round" stroke-linejoin="round"/>
<path d="M351.865 456.374H336.438L338.971 462.017H354.953L351.865 456.374Z" fill="white" stroke="#263238" stroke-width="1.1" stroke-linecap="round" stroke-linejoin="round"/>
<path d="M296.047 456.374H280.619L281.163 462.017H297.145L296.047 456.374Z" fill="white" stroke="#263238" stroke-width="1.1" stroke-linecap="round" stroke-linejoin="round"/>
<path d="M314.662 456.374H299.234L300.441 462.017H316.412L314.662 456.374Z" fill="white" stroke="#263238" stroke-width="1.1" stroke-linecap="round" stroke-linejoin="round"/>
<path d="M333.263 456.374H317.836L319.706 462.017H335.688L333.263 456.374Z" fill="white" stroke="#263238" stroke-width="1.1" stroke-linecap="round" stroke-linejoin="round"/>
<path d="M307.688 484.469H201.848L199.162 492.34H309.471L307.688 484.469Z" fill="white" stroke="#263238" stroke-width="1.1" stroke-linecap="round" stroke-linejoin="round"/>
<path d="M198.097 484.469H174.482L170.645 492.34H195.259L198.097 484.469Z" fill="white" stroke="#263238" stroke-width="1.1" stroke-linecap="round" stroke-linejoin="round"/>
<path d="M330.824 484.469H311.428L313.374 492.34H333.596L330.824 484.469Z" fill="white" stroke="#263238" stroke-width="1.1" stroke-linecap="round" stroke-linejoin="round"/>
<path d="M125.742 492.34H144.899L149.78 484.469H131.407L125.742 492.34Z" fill="white" stroke="#263238" stroke-width="1.1" stroke-linecap="round" stroke-linejoin="round"/>
<path d="M170.743 484.469H153.532L148.803 492.34H166.742L170.743 484.469Z" fill="white" stroke="#263238" stroke-width="1.1" stroke-linecap="round" stroke-linejoin="round"/>
<path d="M127.667 484.469H109.826L103.248 492.34H121.839L127.667 484.469Z" fill="white" stroke="#263238" stroke-width="1.1" stroke-linecap="round" stroke-linejoin="round"/>
<path d="M353.97 484.469H334.574L337.499 492.34H357.71L353.97 484.469Z" fill="white" stroke="#263238" stroke-width="1.1" stroke-linecap="round" stroke-linejoin="round"/>
<path d="M403.992 484.469L409.852 492.34H428.998L422.366 484.469H403.992Z" fill="white" stroke="#263238" stroke-width="1.1" stroke-linecap="round" stroke-linejoin="round"/>
<path d="M377.107 484.469H357.711L361.614 492.34H381.825L377.107 484.469Z" fill="white" stroke="#263238" stroke-width="1.1" stroke-linecap="round" stroke-linejoin="round"/>
<path d="M400.244 484.469H380.848L385.729 492.34H405.951L400.244 484.469Z" fill="white" stroke="#263238" stroke-width="1.1" stroke-linecap="round" stroke-linejoin="round"/>
<path d="M242.927 476.553H225.619L224.01 483.751H242.025L242.927 476.553Z" fill="white" stroke="#263238" stroke-width="1.1" stroke-linecap="round" stroke-linejoin="round"/>
<path d="M284.73 476.553H267.422L267.498 483.751H285.513L284.73 476.553Z" fill="white" stroke="#263238" stroke-width="1.1" stroke-linecap="round" stroke-linejoin="round"/>
<path d="M222.029 476.553H204.71L202.264 483.751H220.279L222.029 476.553Z" fill="white" stroke="#263238" stroke-width="1.1" stroke-linecap="round" stroke-linejoin="round"/>
<path d="M180.229 476.553H162.91L158.768 483.751H176.783L180.229 476.553Z" fill="white" stroke="#263238" stroke-width="1.1" stroke-linecap="round" stroke-linejoin="round"/>
<path d="M137.021 483.751H155.037L159.32 476.553H142.012L137.021 483.751Z" fill="white" stroke="#263238" stroke-width="1.1" stroke-linecap="round" stroke-linejoin="round"/>
<path d="M201.123 476.553H183.815L180.51 483.751H198.536L201.123 476.553Z" fill="white" stroke="#263238" stroke-width="1.1" stroke-linecap="round" stroke-linejoin="round"/>
<path d="M263.834 476.553H246.515L245.754 483.751H263.769L263.834 476.553Z" fill="white" stroke="#263238" stroke-width="1.1" stroke-linecap="round" stroke-linejoin="round"/>
<path d="M138.423 476.553H116.44L110.428 483.751H133.292L138.423 476.553Z" fill="white" stroke="#263238" stroke-width="1.1" stroke-linecap="round" stroke-linejoin="round"/>
<path d="M368.338 476.553H351.029L354.487 483.751H372.502L368.338 476.553Z" fill="white" stroke="#263238" stroke-width="1.1" stroke-linecap="round" stroke-linejoin="round"/>
<path d="M371.924 476.553L376.229 483.751H421.762L415.684 476.553H371.924Z" fill="white" stroke="#263238" stroke-width="1.1" stroke-linecap="round" stroke-linejoin="round"/>
<path d="M305.636 476.553H288.316L289.241 483.751H307.256L305.636 476.553Z" fill="white" stroke="#263238" stroke-width="1.1" stroke-linecap="round" stroke-linejoin="round"/>
<path d="M326.533 476.553H309.225L310.986 483.751H329.012L326.533 476.553Z" fill="white" stroke="#263238" stroke-width="1.1" stroke-linecap="round" stroke-linejoin="round"/>
<path d="M347.44 476.553H330.121L332.741 483.751H350.756L347.44 476.553Z" fill="white" stroke="#263238" stroke-width="1.1" stroke-linecap="round" stroke-linejoin="round"/>
<path d="M253.905 469.28H237.238L236.15 475.89H253.459L253.905 469.28Z" fill="white" stroke="#263238" stroke-width="1.1" stroke-linecap="round" stroke-linejoin="round"/>
<path d="M274.009 469.28H257.342L257.037 475.89H274.346L274.009 469.28Z" fill="white" stroke="#263238" stroke-width="1.1" stroke-linecap="round" stroke-linejoin="round"/>
<path d="M233.803 469.28H217.147L215.277 475.89H232.586L233.803 469.28Z" fill="white" stroke="#263238" stroke-width="1.1" stroke-linecap="round" stroke-linejoin="round"/>
<path d="M213.711 469.28H197.044L194.402 475.89H211.711L213.711 469.28Z" fill="white" stroke="#263238" stroke-width="1.1" stroke-linecap="round" stroke-linejoin="round"/>
<path d="M193.607 469.28H176.94L173.516 475.89H190.824L193.607 469.28Z" fill="white" stroke="#263238" stroke-width="1.1" stroke-linecap="round" stroke-linejoin="round"/>
<path d="M152.641 475.89H169.949L173.504 469.28H156.837L152.641 475.89Z" fill="white" stroke="#263238" stroke-width="1.1" stroke-linecap="round" stroke-linejoin="round"/>
<path d="M294.11 469.28H277.443L277.911 475.89H295.219L294.11 469.28Z" fill="white" stroke="#263238" stroke-width="1.1" stroke-linecap="round" stroke-linejoin="round"/>
<path d="M153.403 469.28H122.515L116.992 475.89H149.076L153.403 469.28Z" fill="white" stroke="#263238" stroke-width="1.1" stroke-linecap="round" stroke-linejoin="round"/>
<path d="M394.61 469.28H377.943L382.303 475.89H399.612L394.61 469.28Z" fill="white" stroke="#263238" stroke-width="1.1" stroke-linecap="round" stroke-linejoin="round"/>
<path d="M314.201 469.28H297.545L298.784 475.89H316.093L314.201 469.28Z" fill="white" stroke="#263238" stroke-width="1.1" stroke-linecap="round" stroke-linejoin="round"/>
<path d="M374.509 469.28H357.842L361.419 475.89H378.727L374.509 469.28Z" fill="white" stroke="#263238" stroke-width="1.1" stroke-linecap="round" stroke-linejoin="round"/>
<path d="M334.305 469.28H317.648L319.671 475.89H336.979L334.305 469.28Z" fill="white" stroke="#263238" stroke-width="1.1" stroke-linecap="round" stroke-linejoin="round"/>
<path d="M354.405 469.28H337.738L340.543 475.89H357.852L354.405 469.28Z" fill="white" stroke="#263238" stroke-width="1.1" stroke-linecap="round" stroke-linejoin="round"/>
<path d="M230.922 468.671H247.197L247.85 462.572H232.161L230.922 468.671Z" fill="white" stroke="#263238" stroke-width="1.1" stroke-linecap="round" stroke-linejoin="round"/>
<path d="M211.232 468.671H227.497L228.856 462.572H213.168L211.232 468.671Z" fill="white" stroke="#263238" stroke-width="1.1" stroke-linecap="round" stroke-linejoin="round"/>
<path d="M250.623 468.671H266.888L266.833 462.572H251.145L250.623 468.671Z" fill="white" stroke="#263238" stroke-width="1.1" stroke-linecap="round" stroke-linejoin="round"/>
<path d="M152.143 468.671H168.407L171.876 462.572H156.187L152.143 468.671Z" fill="white" stroke="#263238" stroke-width="1.1" stroke-linecap="round" stroke-linejoin="round"/>
<path d="M171.832 468.671H188.108L190.869 462.572H175.181L171.832 468.671Z" fill="white" stroke="#263238" stroke-width="1.1" stroke-linecap="round" stroke-linejoin="round"/>
<path d="M270.313 468.671H286.588L285.827 462.572H270.139L270.313 468.671Z" fill="white" stroke="#263238" stroke-width="1.1" stroke-linecap="round" stroke-linejoin="round"/>
<path d="M191.531 468.671H207.796L209.862 462.572H194.173L191.531 468.671Z" fill="white" stroke="#263238" stroke-width="1.1" stroke-linecap="round" stroke-linejoin="round"/>
<path d="M403.909 462.572H387.395L391.917 468.671H395.951C396.603 468.671 397.277 468.856 397.451 469.084L402.768 475.955H414.934L403.909 462.572Z" fill="white" stroke="#263238" stroke-width="1.1" stroke-linecap="round" stroke-linejoin="round"/>
<path d="M349.102 468.671H365.378L361.79 462.572H346.102L349.102 468.671Z" fill="white" stroke="#263238" stroke-width="1.1" stroke-linecap="round" stroke-linejoin="round"/>
<path d="M368.803 468.671H388.493L384.089 462.572H365.096L368.803 468.671Z" fill="white" stroke="#263238" stroke-width="1.1" stroke-linecap="round" stroke-linejoin="round"/>
<path d="M123.027 468.671H148.718L152.893 462.572H128.116L123.027 468.671Z" fill="white" stroke="#263238" stroke-width="1.1" stroke-linecap="round" stroke-linejoin="round"/>
<path d="M290.012 468.671H306.287L304.819 462.572H289.131L290.012 468.671Z" fill="white" stroke="#263238" stroke-width="1.1" stroke-linecap="round" stroke-linejoin="round"/>
<path d="M329.404 468.671H345.68L342.81 462.572H327.121L329.404 468.671Z" fill="white" stroke="#263238" stroke-width="1.1" stroke-linecap="round" stroke-linejoin="round"/>
<path d="M309.712 468.671H325.977L323.814 462.572H308.125L309.712 468.671Z" fill="white" stroke="#263238" stroke-width="1.1" stroke-linecap="round" stroke-linejoin="round"/>
<path d="M310.602 217.263H217.635V160.076C217.635 134.45 238.488 113.598 264.113 113.598C289.739 113.598 310.592 134.45 310.592 160.076V217.263H310.602ZM230.573 204.326H297.675V160.076C297.675 141.583 282.628 126.525 264.124 126.525C245.62 126.525 230.573 141.572 230.573 160.076V204.326Z" fill="#263238"/>
<path d="M315.18 180.722H213.068V273.211H315.18V180.722Z" fill="#E43C5C" stroke="#263238" stroke-linecap="round" stroke-linejoin="round"/>
<path d="M286.397 217.809C291.129 205.501 284.988 191.688 272.68 186.956C260.373 182.224 246.559 188.365 241.828 200.673C237.096 212.981 243.237 226.794 255.545 231.526C267.852 236.258 281.666 230.116 286.397 217.809Z" fill="#004999" stroke="#263238" stroke-linecap="round" stroke-linejoin="round"/>
<path d="M275.813 216.556C275.813 211.414 273.15 208.478 266.105 205.739L265.876 205.652V195.106C266.387 195.127 266.887 195.171 267.398 195.258L267.833 197.759C268.41 201.281 270.138 201.999 271.899 201.999C273.139 201.999 274.454 201.303 274.759 199.476C274.683 195.486 271.073 192.812 265.887 192.409V187.691H262.68V192.442C256.287 193.051 252.634 196.9 252.634 201.738C252.634 207.065 255.896 209.87 261.734 212.218L262.365 212.469V223.558C261.234 223.525 260.288 223.417 259.386 223.21L259.005 220.264C258.646 217.578 257.516 216.654 255.58 216.654C254.297 216.654 253.102 217.328 252.449 219.024C252.504 223.46 256.07 226.124 262.354 226.287V231.43H265.561V226.135C271.997 225.33 275.813 221.471 275.813 216.556ZM259.331 199.944C259.331 197.432 260.647 195.986 262.658 195.399V204.347C260.451 203.314 259.331 202.129 259.331 199.944ZM265.55 223.178V213.828C267.855 214.991 268.834 216.241 268.834 218.785C268.834 220.905 267.627 222.482 265.55 223.178Z" fill="white" stroke="#263238" stroke-linecap="round" stroke-linejoin="round"/>
<path d="M305.417 257.088H222.832V262.698H305.417V257.088Z" fill="#004999" stroke="#263238" stroke-linecap="round" stroke-linejoin="round"/>
<path d="M271.518 243.552V236.844H256.732V243.552H247.393L264.125 253.293L280.857 243.552H271.518Z" fill="white" stroke="#263238" stroke-linecap="round" stroke-linejoin="round"/>
<path d="M487.195 81.1655C485.021 74.7836 478.443 71.2284 472.529 73.2506L467.908 74.8271V82.144L474.769 79.8065C477.334 78.9367 480.183 80.4697 481.129 83.2421C482.075 86.0145 480.759 88.9717 478.193 89.8524L468.952 93.0053C468.604 93.1249 468.256 93.1901 467.908 93.2227V100.127C469.006 100.116 470.104 99.9308 471.192 99.5612L480.433 96.4083C486.337 94.3969 489.37 87.5583 487.195 81.1764V81.1655Z" fill="#787878" stroke="#263238" stroke-linecap="round" stroke-linejoin="round"/>
<path d="M442.184 97.1041C444.359 103.486 450.936 107.041 456.851 105.019L466.092 101.866C471.996 99.8548 475.029 93.0162 472.855 86.6343C470.68 80.2523 464.103 76.6971 458.188 78.7194L448.947 81.8723C443.043 83.8836 440.01 90.7222 442.184 97.1041ZM454.611 98.4632C452.045 99.3329 449.197 97.8 448.251 95.0276C447.305 92.2552 448.621 89.2979 451.186 88.4173L460.428 85.2644C462.994 84.3946 465.842 85.9276 466.788 88.7C467.734 91.4724 466.418 94.4296 463.853 95.3102L454.611 98.4632Z" fill="#787878" stroke="#263238" stroke-linecap="round" stroke-linejoin="round"/>
<path d="M408.167 108.704C410.341 115.086 416.919 118.641 422.833 116.619L432.075 113.466C437.978 111.455 441.011 104.616 438.837 98.2344C436.663 91.8524 430.085 88.2972 424.171 90.3195L414.929 93.4724C409.026 95.4837 405.992 102.322 408.167 108.704ZM420.594 110.063C418.028 110.933 415.179 109.4 414.233 106.628C413.288 103.855 414.603 100.898 417.169 100.017L426.41 96.8645C428.976 95.9947 431.825 97.5277 432.77 100.3C433.716 103.072 432.401 106.03 429.835 106.91L420.594 110.063Z" fill="#787878" stroke="#263238" stroke-linecap="round" stroke-linejoin="round"/>
<path d="M441.826 100.876L453.992 96.7232C455.667 96.147 456.526 94.2226 455.906 92.407C455.286 90.5914 453.427 89.5911 451.753 90.1673L439.587 94.3205L438.913 94.5488L426.986 98.615C425.312 99.1912 424.453 101.116 425.072 102.931C425.692 104.747 427.551 105.747 429.226 105.171L441.152 101.105L441.826 100.876Z" fill="#787878" stroke="#263238" stroke-linecap="round" stroke-linejoin="round"/>
<path d="M476.66 88.9931L488.826 84.8399C490.501 84.2637 491.36 82.3393 490.74 80.5237C490.12 78.7081 488.261 77.7078 486.587 78.284L474.421 82.4372L473.747 82.6655L461.82 86.7317C460.146 87.3079 459.287 89.2323 459.906 91.0479C460.526 92.8636 462.385 93.8638 464.06 93.2876L475.986 89.2214L476.66 88.9931Z" fill="#787878" stroke="#263238" stroke-linecap="round" stroke-linejoin="round"/>
<path d="M374.145 120.316C376.32 126.698 382.897 130.253 388.812 128.231L398.053 125.078C403.957 123.067 406.99 116.228 404.816 109.846C402.641 103.464 396.063 99.9091 390.149 101.931L380.908 105.084C375.004 107.096 371.971 113.934 374.145 120.316ZM386.572 121.675C384.006 122.545 381.158 121.012 380.212 118.239C379.266 115.467 380.582 112.51 383.147 111.629L392.389 108.476C394.955 107.607 397.803 109.139 398.749 111.912C399.695 114.684 398.379 117.642 395.813 118.522L386.572 121.675Z" fill="#787878" stroke="#263238" stroke-linecap="round" stroke-linejoin="round"/>
<path d="M404.891 106.161L392.964 110.227C391.29 110.803 390.431 112.727 391.051 114.543C391.671 116.359 393.53 117.359 395.204 116.783L407.131 112.717L407.805 112.488L419.971 108.335C421.645 107.759 422.504 105.834 421.884 104.019C421.265 102.203 419.406 101.203 417.731 101.779L405.565 105.932L404.891 106.161Z" fill="#787878" stroke="#263238" stroke-linecap="round" stroke-linejoin="round"/>
<path d="M340.128 131.928C342.302 138.31 348.88 141.865 354.794 139.843L364.036 136.69C369.939 134.679 372.972 127.84 370.798 121.458C368.624 115.076 362.046 111.521 356.131 113.543L346.89 116.696C340.987 118.707 337.953 125.546 340.128 131.928ZM352.555 133.287C349.989 134.157 347.14 132.624 346.194 129.851C345.248 127.079 346.564 124.122 349.13 123.241L358.371 120.088C360.937 119.218 363.785 120.751 364.731 123.524C365.677 126.296 364.362 129.253 361.796 130.134L352.555 133.287Z" fill="#787878" stroke="#263238" stroke-linecap="round" stroke-linejoin="round"/>
<path d="M373.787 124.1L385.953 119.947C387.628 119.371 388.486 117.446 387.867 115.631C387.247 113.815 385.388 112.815 383.714 113.391L371.548 117.544L370.874 117.772L358.947 121.839C357.273 122.415 356.414 124.339 357.033 126.155C357.653 127.971 359.512 128.971 361.187 128.395L373.113 124.328L373.787 124.1Z" fill="#787878" stroke="#263238" stroke-linecap="round" stroke-linejoin="round"/>
<path d="M306.108 143.539C308.283 149.921 314.86 153.476 320.775 151.454L330.016 148.301C335.92 146.29 338.953 139.451 336.778 133.069C334.604 126.687 328.026 123.132 322.112 125.154L312.871 128.307C306.967 130.319 303.934 137.157 306.108 143.539ZM318.535 144.898C315.969 145.768 313.121 144.235 312.175 141.463C311.229 138.69 312.544 135.733 315.11 134.852L324.352 131.699C326.917 130.83 329.766 132.363 330.712 135.135C331.658 137.907 330.342 140.865 327.776 141.745L318.535 144.898Z" fill="#787878" stroke="#263238" stroke-linecap="round" stroke-linejoin="round"/>
<path d="M339.768 135.711L351.934 131.558C353.608 130.981 354.467 129.057 353.847 127.241C353.228 125.426 351.368 124.426 349.694 125.002L337.528 129.155L336.854 129.383L324.927 133.449C323.253 134.026 322.394 135.95 323.014 137.766C323.634 139.581 325.493 140.582 327.167 140.005L339.094 135.939L339.768 135.711Z" fill="#787878" stroke="#263238" stroke-linecap="round" stroke-linejoin="round"/>
<path d="M305.543 147.203L317.709 143.05C319.383 142.474 320.242 140.549 319.623 138.734C319.003 136.918 317.144 135.918 315.47 136.494L303.304 140.647L302.63 140.875L290.703 144.942C289.028 145.518 288.17 147.442 288.789 149.258C289.409 151.074 291.268 152.074 292.942 151.498L304.869 147.431L305.543 147.203Z" fill="#787878" stroke="#263238" stroke-linecap="round" stroke-linejoin="round"/>
<path d="M259.155 51.4954V46.5269C259.155 43.8197 261.547 41.6235 264.471 41.6235C267.396 41.6235 269.777 43.8306 269.766 46.5378V51.4954H276.692V46.5486C276.703 40.308 271.223 35.2199 264.482 35.209C257.742 35.209 252.24 40.2754 252.24 46.516V51.3976L252.512 51.4954H259.155Z" fill="#787878" stroke="#263238" stroke-linecap="round" stroke-linejoin="round"/>
<path d="M264.84 78.6647C271.581 78.6647 277.082 73.5983 277.082 67.3577V57.5945C277.104 51.3539 271.625 46.2658 264.873 46.2549C258.132 46.2549 252.631 51.3213 252.631 57.5619V67.3251C252.609 73.5657 258.089 78.6539 264.84 78.6647ZM270.157 67.3468C270.157 70.054 267.776 72.2502 264.851 72.2502C261.927 72.2502 259.546 70.0431 259.556 67.336V57.5728C259.567 54.8656 261.948 52.6694 264.873 52.6694C267.798 52.6694 270.179 54.8765 270.168 57.5836V67.3468H270.157Z" fill="#787878" stroke="#263238" stroke-linecap="round" stroke-linejoin="round"/>
<path d="M268.34 44.276V31.4143C268.361 29.6422 266.807 28.207 264.893 28.207C262.98 28.207 261.425 29.6422 261.425 31.4143V44.276L261.414 44.9936V57.5944C261.403 59.3666 262.947 60.8017 264.861 60.8017C266.774 60.8017 268.329 59.3666 268.329 57.5944V44.9936L268.34 44.276Z" fill="#787878" stroke="#263238" stroke-linecap="round" stroke-linejoin="round"/>
<path d="M264.809 114.608C271.55 114.608 277.051 109.541 277.051 103.301V93.5374C277.073 87.2968 271.582 82.2086 264.842 82.1978C258.101 82.1978 252.6 87.2642 252.6 93.5048V103.268C252.578 109.509 258.068 114.597 264.809 114.608ZM270.126 103.29C270.126 105.997 267.745 108.193 264.82 108.193C261.895 108.193 259.514 105.986 259.525 103.279V93.5157C259.536 90.8085 261.917 88.6123 264.842 88.6123C267.766 88.6123 270.147 90.8194 270.136 93.5265V103.29H270.126Z" fill="#787878" stroke="#263238" stroke-linecap="round" stroke-linejoin="round"/>
<path d="M268.308 80.2302V67.3684C268.33 65.5963 266.775 64.1611 264.862 64.1611C262.948 64.1611 261.394 65.5963 261.394 67.3684V80.2302L261.383 80.9477V93.5485C261.372 95.3207 262.916 96.7558 264.829 96.7558C266.743 96.7558 268.298 95.3207 268.298 93.5485V80.9477L268.308 80.2302Z" fill="#787878" stroke="#263238" stroke-linecap="round" stroke-linejoin="round"/>
<path d="M268.082 116.326V103.464C268.104 101.692 266.549 100.257 264.635 100.257C262.722 100.257 261.167 101.692 261.167 103.464V116.326L261.156 117.043V129.644C261.145 131.416 262.689 132.852 264.603 132.852C266.516 132.852 268.071 131.416 268.071 129.644V117.043L268.082 116.326Z" fill="#787878" stroke="#263238" stroke-linecap="round" stroke-linejoin="round"/>
<path d="M477.509 235.539L468.072 231.005L468.039 233.256V238.605L474.454 241.758C476.878 242.954 477.813 246.052 476.519 248.683C475.226 251.304 472.203 252.478 469.779 251.282L468.039 250.423V258.023C473.377 259.806 479.531 257.099 482.282 251.51C485.25 245.454 483.119 238.29 477.509 235.539Z" fill="#787878" stroke="#263238" stroke-linecap="round" stroke-linejoin="round"/>
<path d="M439.436 231.191C436.468 237.246 438.599 244.411 444.209 247.162L452.972 251.467C458.571 254.218 465.551 251.532 468.53 245.477C471.498 239.421 469.367 232.256 463.757 229.505L454.994 225.2C449.395 222.449 442.415 225.135 439.436 231.191ZM447.264 240.943C444.84 239.747 443.905 236.648 445.199 234.017C446.492 231.397 449.515 230.223 451.939 231.419L460.702 235.724C463.127 236.92 464.062 240.019 462.768 242.65C461.474 245.27 458.452 246.444 456.027 245.248L447.264 240.943Z" fill="#787878" stroke="#263238" stroke-linecap="round" stroke-linejoin="round"/>
<path d="M407.177 215.349C404.209 221.405 406.339 228.57 411.95 231.321L420.712 235.626C426.312 238.377 433.292 235.691 436.27 229.635C439.239 223.58 437.108 216.415 431.498 213.664L422.735 209.359C417.136 206.608 410.156 209.294 407.177 215.349ZM415.005 225.102C412.58 223.906 411.645 220.807 412.939 218.176C414.233 215.556 417.255 214.382 419.68 215.578L428.443 219.883C430.867 221.079 431.802 224.178 430.508 226.809C429.214 229.429 426.192 230.603 423.768 229.407L415.005 225.102Z" fill="#787878" stroke="#263238" stroke-linecap="round" stroke-linejoin="round"/>
<path d="M436.51 233.614L448.056 239.279C449.643 240.061 451.622 239.3 452.459 237.582C453.307 235.865 452.698 233.842 451.111 233.06L439.565 227.395L438.923 227.08L427.616 221.524C426.029 220.742 424.05 221.503 423.213 223.22C422.365 224.938 422.974 226.96 424.561 227.743L435.868 233.299L436.51 233.614Z" fill="#787878" stroke="#263238" stroke-linecap="round" stroke-linejoin="round"/>
<path d="M469.551 249.847L481.097 255.511C482.684 256.294 484.663 255.533 485.5 253.815C486.348 252.098 485.739 250.075 484.152 249.293L472.606 243.628L471.964 243.313L460.657 237.757C459.07 236.974 457.091 237.735 456.254 239.453C455.406 241.171 456.015 243.193 457.602 243.976L468.909 249.532L469.551 249.847Z" fill="#787878" stroke="#263238" stroke-linecap="round" stroke-linejoin="round"/>
<path d="M374.909 199.498C371.941 205.554 374.072 212.718 379.682 215.469L388.445 219.774C394.044 222.525 401.024 219.84 404.003 213.784C406.971 207.728 404.84 200.563 399.23 197.813L390.467 193.507C384.868 190.757 377.888 193.442 374.909 199.498ZM382.737 209.25C380.313 208.054 379.378 204.956 380.671 202.325C381.965 199.704 384.988 198.53 387.412 199.726L396.175 204.031C398.599 205.227 399.534 208.326 398.241 210.957C396.947 213.577 393.924 214.751 391.5 213.555L382.737 209.25Z" fill="#787878" stroke="#263238" stroke-linecap="round" stroke-linejoin="round"/>
<path d="M406.665 211.24L395.358 205.684C393.771 204.902 391.792 205.663 390.955 207.381C390.107 209.098 390.716 211.121 392.303 211.903L403.61 217.459L404.252 217.774L415.798 223.439C417.385 224.221 419.364 223.46 420.201 221.743C421.049 220.025 420.44 218.003 418.853 217.22L407.307 211.555L406.665 211.24Z" fill="#787878" stroke="#263238" stroke-linecap="round" stroke-linejoin="round"/>
<path d="M342.653 183.657C339.685 189.713 341.816 196.877 347.426 199.628L356.189 203.934C361.788 206.684 368.768 203.999 371.747 197.943C374.715 191.887 372.584 184.722 366.974 181.972L358.211 177.666C352.612 174.916 345.632 177.601 342.653 183.657ZM350.481 193.409C348.057 192.213 347.122 189.115 348.415 186.484C349.709 183.864 352.732 182.689 355.156 183.885L363.919 188.191C366.344 189.387 367.279 192.485 365.985 195.116C364.691 197.736 361.669 198.911 359.244 197.715L350.481 193.409Z" fill="#787878" stroke="#263238" stroke-linecap="round" stroke-linejoin="round"/>
<path d="M371.986 201.922L383.532 207.587C385.12 208.369 387.098 207.608 387.936 205.891C388.784 204.173 388.175 202.151 386.588 201.368L375.041 195.703L374.4 195.388L363.093 189.832C361.505 189.05 359.527 189.811 358.69 191.528C357.842 193.246 358.45 195.269 360.038 196.051L371.345 201.607L371.986 201.922Z" fill="#787878" stroke="#263238" stroke-linecap="round" stroke-linejoin="round"/>
<path d="M310.386 167.805C307.418 173.861 309.548 181.026 315.158 183.777L323.921 188.082C329.521 190.833 336.5 188.147 339.479 182.091C342.448 176.036 340.317 168.871 334.707 166.12L325.944 161.815C320.345 159.064 313.365 161.75 310.386 167.805ZM318.214 177.558C315.789 176.362 314.854 173.252 316.148 170.632C317.442 168.012 320.464 166.838 322.889 168.034L331.652 172.339C334.076 173.535 335.011 176.634 333.717 179.265C332.423 181.885 329.401 183.059 326.977 181.863L318.214 177.558Z" fill="#787878" stroke="#263238" stroke-linecap="round" stroke-linejoin="round"/>
<path d="M339.728 186.082L351.275 191.746C352.862 192.529 354.841 191.768 355.678 190.05C356.526 188.332 355.917 186.31 354.33 185.527L342.783 179.863L342.142 179.548L330.835 173.992C329.248 173.209 327.269 173.97 326.432 175.688C325.584 177.406 326.193 179.428 327.78 180.211L339.087 185.767L339.728 186.082Z" fill="#787878" stroke="#263238" stroke-linecap="round" stroke-linejoin="round"/>
<path d="M307.394 170.002L318.941 175.666C320.528 176.449 322.507 175.688 323.344 173.97C324.192 172.252 323.583 170.23 321.996 169.447L310.45 163.783L309.808 163.468L298.501 157.912C296.914 157.129 294.935 157.89 294.098 159.608C293.25 161.326 293.859 163.348 295.446 164.131L306.753 169.687L307.394 170.002Z" fill="#787878" stroke="#263238" stroke-linecap="round" stroke-linejoin="round"/>
<path d="M43.3406 81.1655C45.515 74.7836 52.0926 71.2284 58.0071 73.2506L62.6277 74.8271V82.144L55.7674 79.8065C53.2016 78.9367 50.3531 80.4697 49.4072 83.2421C48.4613 86.0145 49.7769 88.9717 52.3427 89.8524L61.584 93.0053C61.9319 93.1249 62.2798 93.1901 62.6277 93.2227V100.127C61.5297 100.116 60.4316 99.9308 59.3444 99.5612L50.103 96.4083C44.1995 94.3969 41.1661 87.5583 43.3406 81.1764V81.1655Z" fill="#787878" stroke="#263238" stroke-linecap="round" stroke-linejoin="round"/>
<path d="M88.3527 97.1041C86.1782 103.486 79.6006 107.041 73.6862 105.019L64.4448 101.866C58.5413 99.8548 55.5079 93.0162 57.6824 86.6343C59.8568 80.2523 66.4344 76.6971 72.3489 78.7194L81.5902 81.8723C87.4938 83.8836 90.5271 90.7222 88.3527 97.1041ZM75.9258 98.4632C78.4916 99.3329 81.3401 97.8 82.286 95.0276C83.2319 92.2552 81.9164 89.2979 79.3505 88.4173L70.1092 85.2644C67.5434 84.3946 64.6949 85.9276 63.749 88.7C62.8031 91.4724 64.1187 94.4296 66.6845 95.3102L75.9258 98.4632Z" fill="#787878" stroke="#263238" stroke-linecap="round" stroke-linejoin="round"/>
<path d="M122.368 108.705C120.194 115.087 113.616 118.642 107.702 116.62L98.4605 113.467C92.5569 111.455 89.5236 104.617 91.698 98.2349C93.8724 91.8529 100.45 88.2977 106.365 90.3199L115.606 93.4729C121.509 95.4842 124.543 102.323 122.368 108.705ZM109.941 110.064C112.507 110.934 115.356 109.401 116.302 106.628C117.248 103.856 115.932 100.899 113.366 100.018L104.125 96.865C101.559 95.9952 98.7105 97.5282 97.7646 100.301C96.8188 103.073 98.1343 106.03 100.7 106.911L109.941 110.064Z" fill="#787878" stroke="#263238" stroke-linecap="round" stroke-linejoin="round"/>
<path d="M88.6968 100.877L76.5309 96.7237C74.8566 96.1475 73.9977 94.2231 74.6174 92.4075C75.2371 90.5918 77.0962 89.5916 78.7705 90.1678L90.9365 94.321L91.6105 94.5493L103.537 98.6155C105.212 99.1917 106.07 101.116 105.451 102.932C104.831 104.747 102.972 105.748 101.298 105.171L89.3709 101.105L88.6968 100.877Z" fill="#787878" stroke="#263238" stroke-linecap="round" stroke-linejoin="round"/>
<path d="M53.8745 88.9936L41.7086 84.8404C40.0343 84.2642 39.1754 82.3398 39.7951 80.5242C40.4148 78.7085 42.274 77.7083 43.9483 78.2845L56.1142 82.4377L56.7883 82.666L68.715 86.7322C70.3893 87.3084 71.2482 89.2328 70.6285 91.0484C70.0088 92.8641 68.1497 93.8643 66.4754 93.2881L54.5486 89.2219L53.8745 88.9936Z" fill="#787878" stroke="#263238" stroke-linecap="round" stroke-linejoin="round"/>
<path d="M156.39 120.316C154.215 126.698 147.638 130.253 141.723 128.231L132.482 125.078C126.578 123.067 123.545 116.228 125.719 109.846C127.894 103.464 134.472 99.9091 140.386 101.931L149.627 105.084C155.531 107.096 158.564 113.934 156.39 120.316ZM143.963 121.675C146.529 122.545 149.377 121.012 150.323 118.239C151.269 115.467 149.953 112.51 147.388 111.629L138.146 108.476C135.581 107.607 132.732 109.139 131.786 111.912C130.84 114.684 132.156 117.642 134.722 118.522L143.963 121.675Z" fill="#787878" stroke="#263238" stroke-linecap="round" stroke-linejoin="round"/>
<path d="M125.632 106.161L137.559 110.227C139.233 110.803 140.092 112.727 139.472 114.543C138.853 116.359 136.993 117.359 135.319 116.783L123.392 112.717L122.718 112.488L110.552 108.335C108.878 107.759 108.019 105.834 108.639 104.019C109.259 102.203 111.118 101.203 112.792 101.779L124.958 105.932L125.632 106.161Z" fill="#787878" stroke="#263238" stroke-linecap="round" stroke-linejoin="round"/>
<path d="M190.409 131.928C188.235 138.31 181.657 141.865 175.743 139.843L166.501 136.69C160.598 134.679 157.565 127.84 159.739 121.458C161.913 115.076 168.491 111.521 174.406 113.543L183.647 116.696C189.55 118.707 192.584 125.546 190.409 131.928ZM177.982 133.287C180.548 134.157 183.397 132.624 184.343 129.851C185.289 127.079 183.973 124.122 181.407 123.241L172.166 120.088C169.6 119.218 166.752 120.751 165.806 123.524C164.86 126.296 166.175 129.253 168.741 130.134L177.982 133.287Z" fill="#787878" stroke="#263238" stroke-linecap="round" stroke-linejoin="round"/>
<path d="M156.738 124.1L144.572 119.947C142.898 119.371 142.039 117.446 142.658 115.631C143.278 113.815 145.137 112.815 146.812 113.391L158.977 117.544L159.652 117.772L171.578 121.839C173.253 122.415 174.112 124.339 173.492 126.155C172.872 127.971 171.013 128.971 169.339 128.395L157.412 124.328L156.738 124.1Z" fill="#787878" stroke="#263238" stroke-linecap="round" stroke-linejoin="round"/>
<path d="M224.429 143.539C222.254 149.921 215.677 153.476 209.762 151.454L200.521 148.301C194.617 146.29 191.584 139.451 193.759 133.069C195.933 126.687 202.511 123.132 208.425 125.154L217.666 128.307C223.57 130.319 226.614 137.157 224.429 143.539ZM212.002 144.898C214.568 145.768 217.416 144.235 218.362 141.463C219.308 138.69 217.993 135.733 215.427 134.852L206.185 131.699C203.62 130.83 200.771 132.363 199.825 135.135C198.879 137.907 200.195 140.865 202.761 141.745L212.002 144.898Z" fill="#787878" stroke="#263238" stroke-linecap="round" stroke-linejoin="round"/>
<path d="M190.757 135.711L178.591 131.558C176.917 130.982 176.058 129.058 176.678 127.242C177.298 125.426 179.157 124.426 180.831 125.002L192.997 129.155L193.671 129.384L205.598 133.45C207.272 134.026 208.131 135.951 207.511 137.766C206.892 139.582 205.032 140.582 203.358 140.006L191.431 135.94L190.757 135.711Z" fill="#787878" stroke="#263238" stroke-linecap="round" stroke-linejoin="round"/>
<path d="M224.994 147.203L212.828 143.05C211.153 142.474 210.295 140.549 210.914 138.734C211.534 136.918 213.393 135.918 215.067 136.494L227.233 140.647L227.907 140.875L239.834 144.942C241.508 145.518 242.367 147.442 241.748 149.258C241.128 151.074 239.269 152.074 237.594 151.498L225.668 147.431L224.994 147.203Z" fill="#787878" stroke="#263238" stroke-linecap="round" stroke-linejoin="round"/>
<path d="M52.7796 235.789L62.2166 231.255L62.2492 233.506V238.855L55.8347 242.008C53.3993 243.204 52.4752 246.302 53.769 248.933C55.0628 251.554 58.0852 252.728 60.5097 251.532L62.2492 250.673V258.273C56.911 260.056 50.7574 257.349 48.0067 251.76C45.0386 245.704 47.1696 238.54 52.7796 235.789Z" fill="#787878" stroke="#263238" stroke-linecap="round" stroke-linejoin="round"/>
<path d="M91.0928 231.191C94.0609 237.246 91.9299 244.411 86.3199 247.162L77.557 251.467C71.9578 254.218 64.9779 251.532 61.9989 245.477C59.0308 239.421 61.1618 232.256 66.7718 229.505L75.5347 225.2C81.1339 222.449 88.1138 225.135 91.0928 231.191ZM83.2648 240.943C85.6893 239.747 86.6243 236.648 85.3305 234.017C84.0367 231.397 81.0143 230.223 78.5898 231.419L69.8269 235.724C67.3915 236.92 66.4674 240.019 67.7612 242.65C69.0549 245.27 72.0774 246.444 74.5019 245.248L83.2648 240.943Z" fill="#787878" stroke="#263238" stroke-linecap="round" stroke-linejoin="round"/>
<path d="M123.364 215.35C126.332 221.406 124.201 228.57 118.591 231.321L109.828 235.626C104.229 238.377 97.2494 235.692 94.2704 229.636C91.3023 223.58 93.4333 216.415 99.0433 213.665L107.806 209.359C113.405 206.609 120.385 209.294 123.364 215.35ZM115.536 225.102C117.961 223.906 118.896 220.808 117.602 218.177C116.308 215.556 113.286 214.382 110.861 215.578L102.098 219.884C99.6739 221.079 98.7389 224.178 100.033 226.809C101.326 229.429 104.349 230.603 106.773 229.408L115.536 225.102Z" fill="#787878" stroke="#263238" stroke-linecap="round" stroke-linejoin="round"/>
<path d="M94.0179 233.615L82.4717 239.279C80.8844 240.062 78.9057 239.301 78.0685 237.583C77.2205 235.865 77.8293 233.843 79.4166 233.06L90.9629 227.396L91.6043 227.08L102.911 221.525C104.499 220.742 106.477 221.503 107.315 223.221C108.163 224.939 107.554 226.961 105.966 227.744L94.6594 233.299L94.0179 233.615Z" fill="#787878" stroke="#263238" stroke-linecap="round" stroke-linejoin="round"/>
<path d="M60.9897 249.847L49.4435 255.511C47.8561 256.294 45.8774 255.533 45.0403 253.815C44.2031 252.097 44.8011 250.075 46.3884 249.292L57.9346 243.628L58.5761 243.312L69.8831 237.757C71.4704 236.974 73.4492 237.735 74.2863 239.453C75.1343 241.171 74.5255 243.193 72.9382 243.976L61.6311 249.531L60.9897 249.847Z" fill="#787878" stroke="#263238" stroke-linecap="round" stroke-linejoin="round"/>
<path d="M155.62 199.498C158.588 205.554 156.457 212.719 150.847 215.469L142.084 219.775C136.485 222.525 129.505 219.84 126.526 213.784C123.558 207.728 125.689 200.564 131.299 197.813L140.062 193.508C145.661 190.757 152.641 193.442 155.62 199.498ZM147.792 209.251C150.217 208.055 151.152 204.956 149.858 202.325C148.564 199.705 145.542 198.531 143.117 199.727L134.354 204.032C131.93 205.228 130.995 208.326 132.289 210.958C133.582 213.578 136.605 214.752 139.029 213.556L147.792 209.251Z" fill="#787878" stroke="#263238" stroke-linecap="round" stroke-linejoin="round"/>
<path d="M123.872 211.24L135.179 205.684C136.766 204.902 138.745 205.663 139.582 207.381C140.43 209.098 139.821 211.121 138.234 211.903L126.927 217.459L126.286 217.774L114.739 223.439C113.152 224.221 111.173 223.46 110.336 221.743C109.488 220.025 110.097 218.003 111.684 217.22L123.23 211.555L123.872 211.24Z" fill="#787878" stroke="#263238" stroke-linecap="round" stroke-linejoin="round"/>
<path d="M187.888 183.657C190.856 189.713 188.725 196.878 183.115 199.629L174.352 203.934C168.753 206.685 161.773 203.999 158.794 197.943C155.826 191.888 157.957 184.723 163.567 181.972L172.33 177.667C177.929 174.916 184.909 177.602 187.888 183.657ZM180.06 193.41C182.484 192.214 183.419 189.115 182.125 186.484C180.832 183.864 177.809 182.69 175.385 183.886L166.622 188.191C164.197 189.387 163.262 192.486 164.556 195.117C165.85 197.737 168.872 198.911 171.297 197.715L180.06 193.41Z" fill="#787878" stroke="#263238" stroke-linecap="round" stroke-linejoin="round"/>
<path d="M158.543 201.922L146.997 207.587C145.41 208.369 143.431 207.608 142.594 205.891C141.746 204.173 142.355 202.151 143.942 201.368L155.488 195.703L156.13 195.388L167.437 189.832C169.024 189.05 171.003 189.811 171.84 191.528C172.688 193.246 172.079 195.269 170.492 196.051L159.185 201.607L158.543 201.922Z" fill="#787878" stroke="#263238" stroke-linecap="round" stroke-linejoin="round"/>
<path d="M220.159 167.805C223.127 173.861 220.996 181.026 215.386 183.777L206.623 188.082C201.024 190.833 194.044 188.147 191.065 182.091C188.097 176.036 190.228 168.871 195.838 166.12L204.601 161.815C210.2 159.064 217.18 161.75 220.159 167.805ZM212.331 177.558C214.756 176.362 215.691 173.252 214.397 170.632C213.103 168.012 210.081 166.838 207.656 168.034L198.893 172.339C196.469 173.535 195.534 176.634 196.828 179.265C198.121 181.885 201.144 183.059 203.568 181.863L212.331 177.558Z" fill="#787878" stroke="#263238" stroke-linecap="round" stroke-linejoin="round"/>
<path d="M190.815 186.082L179.269 191.746C177.681 192.529 175.703 191.768 174.865 190.05C174.017 188.332 174.626 186.31 176.214 185.527L187.76 179.863L188.401 179.548L199.708 173.992C201.296 173.209 203.274 173.97 204.111 175.688C204.959 177.406 204.351 179.428 202.763 180.211L191.456 185.767L190.815 186.082Z" fill="#787878" stroke="#263238" stroke-linecap="round" stroke-linejoin="round"/>
<path d="M223.139 170.002L211.593 175.666C210.005 176.449 208.027 175.688 207.19 173.97C206.342 172.252 206.95 170.23 208.538 169.447L220.084 163.783L220.725 163.468L232.032 157.912C233.62 157.129 235.598 157.89 236.436 159.608C237.284 161.326 236.675 163.348 235.088 164.131L223.78 169.687L223.139 170.002Z" fill="#787878" stroke="#263238" stroke-linecap="round" stroke-linejoin="round"/>
<path d="M500.239 446.557L443.964 367.745C443.964 367.745 440.061 349.795 439.8 348.24C439.539 346.675 437.463 311.047 437.463 311.047C437.463 311.047 438.246 306.361 440.583 303.501C442.921 300.642 455.413 284.519 455.924 282.431C456.446 280.355 452.021 265.264 451.238 260.067C450.455 254.87 447.857 252.522 447.857 252.522C447.857 252.522 449.933 235.355 449.933 231.191C449.933 227.027 447.335 222.863 443.171 219.743C439.007 216.622 434.593 212.197 433.027 212.197C431.461 212.197 429.124 214.796 429.646 217.144C430.168 219.482 434.593 226.244 434.593 228.592C434.593 230.941 433.549 240.041 433.288 243.683C433.027 247.325 429.124 255.642 426.786 257.469C424.449 259.284 418.98 267.873 418.98 267.873C418.98 267.873 416.643 266.308 415.599 263.449C414.555 260.589 414.555 254.87 414.555 252.783C414.555 250.695 416.121 232.496 416.121 229.897C416.121 227.299 416.121 224.178 414.555 222.352C412.99 220.536 408.315 215.589 405.455 212.73C402.596 209.871 398.171 206.75 394.79 207.783C391.409 208.827 389.593 211.164 391.148 214.546C392.713 217.927 397.649 225.994 397.649 225.994C397.649 225.994 398.432 246.281 397.91 248.097C397.388 249.913 388.549 268.124 388.549 268.124C388.549 268.124 385.69 268.906 385.168 266.819C384.646 264.731 383.352 245.749 383.352 243.15C383.352 240.552 383.874 235.344 381.787 233.267C379.71 231.191 369.045 216.1 366.446 214.024C363.848 211.947 357.346 214.024 357.346 219.482C357.346 224.939 364.369 236.649 364.369 236.649C364.369 236.649 364.891 242.889 364.63 248.097C364.369 253.294 365.413 275.408 364.63 280.605C363.848 285.802 351.105 310.514 349.801 310.775C348.496 311.036 340.701 308.176 339.918 307.133C339.135 306.089 337.841 302.186 336.798 296.989C335.754 291.792 331.851 286.063 328.731 283.203C325.61 280.344 318.326 282.942 316.51 284.247C314.695 285.552 313.651 288.15 315.206 292.053C316.76 295.956 318.326 310.003 318.326 313.123C318.326 316.244 327.948 322.745 333.417 328.725C338.874 334.705 352.66 354.992 356.563 358.373C360.466 361.754 373.209 367.212 376.068 370.333C378.927 373.453 387.516 386.195 387.516 386.195L430.766 517.759" fill="white"/>
<path d="M500.239 446.557L443.964 367.745C443.964 367.745 440.061 349.795 439.8 348.24C439.539 346.675 437.463 311.047 437.463 311.047C437.463 311.047 438.246 306.361 440.583 303.501C442.921 300.642 455.413 284.519 455.924 282.431C456.446 280.355 452.021 265.264 451.238 260.067C450.455 254.87 447.857 252.522 447.857 252.522C447.857 252.522 449.933 235.355 449.933 231.191C449.933 227.027 447.335 222.863 443.171 219.743C439.007 216.622 434.593 212.197 433.027 212.197C431.461 212.197 429.124 214.796 429.646 217.144C430.168 219.482 434.593 226.244 434.593 228.592C434.593 230.941 433.549 240.041 433.288 243.683C433.027 247.325 429.124 255.642 426.786 257.469C424.449 259.284 418.98 267.873 418.98 267.873C418.98 267.873 416.643 266.308 415.599 263.449C414.555 260.589 414.555 254.87 414.555 252.783C414.555 250.695 416.121 232.496 416.121 229.897C416.121 227.299 416.121 224.178 414.555 222.352C412.99 220.536 408.315 215.589 405.455 212.73C402.596 209.871 398.171 206.75 394.79 207.783C391.409 208.827 389.593 211.164 391.148 214.546C392.713 217.927 397.649 225.994 397.649 225.994C397.649 225.994 398.432 246.281 397.91 248.097C397.388 249.913 388.549 268.124 388.549 268.124C388.549 268.124 385.69 268.906 385.168 266.819C384.646 264.731 383.352 245.749 383.352 243.15C383.352 240.552 383.874 235.344 381.787 233.267C379.71 231.191 369.045 216.1 366.446 214.024C363.848 211.947 357.346 214.024 357.346 219.482C357.346 224.939 364.369 236.649 364.369 236.649C364.369 236.649 364.891 242.889 364.63 248.097C364.369 253.294 365.413 275.408 364.63 280.605C363.848 285.802 351.105 310.514 349.801 310.775C348.496 311.036 340.701 308.176 339.918 307.133C339.135 306.089 337.841 302.186 336.798 296.989C335.754 291.792 331.851 286.063 328.731 283.203C325.61 280.344 318.326 282.942 316.51 284.247C314.695 285.552 313.651 288.15 315.206 292.053C316.76 295.956 318.326 310.003 318.326 313.123C318.326 316.244 327.948 322.745 333.417 328.725C338.874 334.705 352.66 354.992 356.563 358.373C360.466 361.754 373.209 367.212 376.068 370.333C378.927 373.453 387.516 386.195 387.516 386.195L430.766 517.759" stroke="#263238" stroke-linecap="round" stroke-linejoin="round"/>
<path d="M447.868 252.522C447.868 252.522 448.911 260.589 448.128 262.666C447.346 264.742 437.463 281.648 437.463 281.648" stroke="#263238" stroke-linecap="round" stroke-linejoin="round"/>
<path d="M438.247 285.291C438.247 285.291 437.986 290.488 436.682 292.314C435.377 294.13 430.963 298.033 430.963 298.033" stroke="#263238" stroke-linecap="round" stroke-linejoin="round"/>
<path d="M419.514 281.909C419.514 281.909 420.296 284.247 418.47 286.595C416.654 288.933 415.35 292.053 415.35 292.053" stroke="#263238" stroke-linecap="round" stroke-linejoin="round"/>
<path d="M389.863 280.094C389.863 280.094 389.863 283.736 387.525 287.639" stroke="#263238" stroke-linecap="round" stroke-linejoin="round"/>
<path d="M349.811 310.786L345.125 318.32" stroke="#263238" stroke-linecap="round" stroke-linejoin="round"/>
<path d="M1 497.526L43.1295 439.871C43.1295 439.871 47.0326 421.921 47.2936 420.366C47.5545 418.801 49.6311 383.173 49.6311 383.173C49.6311 383.173 48.8483 378.487 46.5108 375.627C44.1733 372.768 31.6812 356.645 31.1702 354.557C30.6483 352.481 35.0733 337.39 35.8561 332.193C36.6389 326.996 39.2373 324.648 39.2373 324.648C39.2373 324.648 37.1607 307.481 37.1607 303.317C37.1607 299.153 39.7592 294.989 43.9232 291.868C48.0872 288.748 52.5013 284.323 54.0669 284.323C55.6325 284.323 57.97 286.922 57.4481 289.27C56.9263 291.608 52.5013 298.37 52.5013 300.718C52.5013 303.067 53.545 312.167 53.806 315.809C54.0669 319.451 57.97 327.768 60.3075 329.595C62.645 331.41 68.1137 339.999 68.1137 339.999C68.1137 339.999 70.4512 338.434 71.4949 335.575C72.5387 332.715 72.5387 326.996 72.5387 324.909C72.5387 322.821 70.9731 304.622 70.9731 302.023C70.9731 299.425 70.9731 296.304 72.5387 294.478C74.1043 292.651 78.7793 287.715 81.6386 284.856C84.498 281.997 88.923 278.876 92.3042 279.909C95.6855 280.953 97.5011 283.29 95.9464 286.672C94.3808 290.053 89.4448 298.12 89.4448 298.12C89.4448 298.12 88.6621 318.407 89.1839 320.223C89.7058 322.039 98.5448 340.25 98.5448 340.25C98.5448 340.25 101.404 341.032 101.926 338.945C102.448 336.868 103.742 317.875 103.742 315.276C103.742 312.678 103.22 307.47 105.307 305.393C107.384 303.317 118.049 288.226 120.648 286.15C123.246 284.073 129.748 286.15 129.748 291.608C129.748 297.065 122.724 308.775 122.724 308.775C122.724 308.775 122.203 315.015 122.464 320.223C122.724 325.42 121.681 347.534 122.464 352.731C123.246 357.928 135.988 382.64 137.293 382.901C138.598 383.162 146.393 380.302 147.176 379.259C147.959 378.215 149.252 374.312 150.296 369.115C151.34 363.918 155.243 358.189 158.363 355.329C161.484 352.47 168.768 355.068 170.584 356.373C172.399 357.678 173.443 360.276 171.888 364.179C170.323 368.082 168.768 382.129 168.768 385.249C168.768 388.37 159.146 394.871 153.677 400.851C148.22 406.831 134.434 427.118 130.531 430.499C126.628 433.88 113.885 439.338 111.026 442.458C108.167 445.579 99.5777 458.321 99.5777 458.321L81.1494 510.703" fill="white"/>
<path d="M1 497.526L43.1295 439.871C43.1295 439.871 47.0326 421.921 47.2936 420.366C47.5545 418.801 49.6311 383.173 49.6311 383.173C49.6311 383.173 48.8483 378.487 46.5108 375.627C44.1733 372.768 31.6812 356.645 31.1702 354.557C30.6483 352.481 35.0733 337.39 35.8561 332.193C36.6389 326.996 39.2373 324.648 39.2373 324.648C39.2373 324.648 37.1607 307.481 37.1607 303.317C37.1607 299.153 39.7592 294.989 43.9232 291.868C48.0872 288.748 52.5013 284.323 54.0669 284.323C55.6325 284.323 57.97 286.922 57.4481 289.27C56.9263 291.608 52.5013 298.37 52.5013 300.718C52.5013 303.067 53.545 312.167 53.806 315.809C54.0669 319.451 57.97 327.768 60.3075 329.595C62.645 331.41 68.1137 339.999 68.1137 339.999C68.1137 339.999 70.4512 338.434 71.4949 335.575C72.5387 332.715 72.5387 326.996 72.5387 324.909C72.5387 322.821 70.9731 304.622 70.9731 302.023C70.9731 299.425 70.9731 296.304 72.5387 294.478C74.1043 292.651 78.7793 287.715 81.6387 284.856C84.498 281.997 88.923 278.876 92.3042 279.909C95.6855 280.953 97.5011 283.29 95.9464 286.672C94.3808 290.053 89.4448 298.12 89.4448 298.12C89.4448 298.12 88.6621 318.407 89.1839 320.223C89.7058 322.039 98.5448 340.25 98.5448 340.25C98.5448 340.25 101.404 341.032 101.926 338.945C102.448 336.868 103.742 317.875 103.742 315.276C103.742 312.678 103.22 307.47 105.307 305.393C107.384 303.317 118.049 288.226 120.648 286.15C123.246 284.073 129.748 286.15 129.748 291.608C129.748 297.065 122.724 308.775 122.724 308.775C122.724 308.775 122.203 315.015 122.464 320.223C122.724 325.42 121.681 347.534 122.464 352.731C123.246 357.928 135.988 382.64 137.293 382.901C138.598 383.162 146.393 380.302 147.176 379.259C147.959 378.215 149.252 374.312 150.296 369.115C151.34 363.918 155.243 358.189 158.363 355.329C161.484 352.47 168.768 355.068 170.584 356.373C172.399 357.678 173.443 360.276 171.888 364.179C170.323 368.082 168.768 382.129 168.768 385.249C168.768 388.37 159.146 394.871 153.677 400.851C148.22 406.831 134.434 427.118 130.531 430.499C126.628 433.88 113.885 439.338 111.026 442.458C108.167 445.579 99.5777 458.321 99.5777 458.321L81.1494 510.703" stroke="#263238" stroke-linecap="round" stroke-linejoin="round"/>
<path d="M39.2356 324.659C39.2356 324.659 38.1919 332.726 38.9747 334.802C39.7575 336.879 49.6403 353.785 49.6403 353.785" stroke="#263238" stroke-linecap="round" stroke-linejoin="round"/>
<path d="M48.8594 357.428C48.8594 357.428 49.1203 362.625 50.425 364.451C51.7296 366.267 56.1437 370.17 56.1437 370.17" stroke="#263238" stroke-linecap="round" stroke-linejoin="round"/>
<path d="M67.5808 354.047C67.5808 354.047 66.798 356.384 68.6245 358.733C70.4402 361.07 71.7448 364.191 71.7448 364.191" stroke="#263238" stroke-linecap="round" stroke-linejoin="round"/>
<path d="M97.2285 352.22C97.2285 352.22 97.2285 355.862 99.566 359.765" stroke="#263238" stroke-linecap="round" stroke-linejoin="round"/>
<path d="M137.293 382.912L141.968 390.457" stroke="#263238" stroke-linecap="round" stroke-linejoin="round"/>
</svg>
