<svg width="106" height="107" viewBox="0 0 106 107" fill="none" xmlns="http://www.w3.org/2000/svg">
<path d="M20.44 46.3106C20.44 42.2513 20.467 38.165 20.44 34.0921C20.3929 33.5104 20.5324 32.9288 20.8381 32.4317C21.1438 31.9346 21.6 31.5478 22.1404 31.3273C28.8487 27.9807 35.539 24.6055 42.2113 21.2017C42.6842 20.9353 43.2178 20.7954 43.7605 20.7954C44.3033 20.7954 44.8369 20.9353 45.3098 21.2017C51.9851 24.6025 58.6739 27.9792 65.3762 31.3318C66.3053 31.7829 67.0586 32.3737 67.0856 33.5058C67.1127 34.6379 66.3369 35.3099 65.3717 35.797C59.2151 38.8911 53.0721 42.0122 46.8794 45.0793C46.57 45.1926 46.3078 45.4069 46.1351 45.6876C45.9624 45.9683 45.8894 46.299 45.9277 46.6263C45.9548 53.942 45.9277 61.2622 45.9277 68.578C45.9277 68.9162 45.9277 69.259 45.9277 69.5973C45.7969 71.4375 44.295 72.3892 42.6578 71.5683C35.6518 68.0653 28.6578 64.5397 21.6758 60.9916C20.7151 60.509 20.4174 59.6927 20.4219 58.6553C20.4535 54.5329 20.44 50.424 20.44 46.3106ZM24.7834 37.0915C24.7834 43.893 24.7834 50.451 24.8195 57.0135C24.8667 57.2297 24.9612 57.4328 25.0961 57.6082C25.231 57.7837 25.403 57.9271 25.5998 58.0284C30.5927 60.5902 35.6036 63.107 40.6146 65.6327C40.8672 65.759 41.1468 65.8447 41.4445 65.9575C41.4874 65.83 41.5176 65.6985 41.5347 65.5651C41.5347 59.1153 41.5347 52.6701 41.5121 46.2204C41.4723 46.0015 41.3846 45.7941 41.2551 45.6132C41.1257 45.4323 40.9578 45.2823 40.7635 45.174C38.3324 43.893 35.8652 42.6798 33.4116 41.4439L24.7834 37.0915ZM59.9909 33.5735C59.5128 33.3119 59.1881 33.1224 58.8453 32.9465C54.141 30.5696 49.4232 28.2152 44.7325 25.8067C44.4346 25.6264 44.093 25.5311 43.7448 25.5311C43.3965 25.5311 43.0549 25.6264 42.757 25.8067C38.1971 28.143 33.6146 30.4298 29.0411 32.7345C28.5901 32.9601 28.1391 33.1856 27.688 33.4472C27.7873 33.596 27.8143 33.6817 27.873 33.7133C33.0147 36.3112 38.1595 38.9016 43.3072 41.4845C43.4534 41.5469 43.6106 41.5791 43.7695 41.5791C43.9285 41.5791 44.0857 41.5469 44.2319 41.4845C49.4232 38.9092 54.5966 36.2932 59.9909 33.5735Z" fill="#E43C5C"/>
<path d="M81.419 71.979C82.8397 73.3726 84.1612 74.6491 85.4782 75.948C87.0027 77.4635 87.0028 78.4828 85.5053 80.0073C83.7463 81.7723 81.9858 83.5314 80.2238 85.2844C78.8346 86.669 77.7521 86.669 76.3494 85.2844C75.0279 83.9628 73.7244 82.6233 72.2901 81.1529C71.9248 82.055 71.6542 82.7541 71.388 83.4396C70.9866 84.4364 70.3146 85.0769 69.1735 85.0318C68.0324 84.9867 67.4055 84.3282 67.0943 83.2818C66.2734 80.5395 65.4435 77.8018 64.6046 75.0685C64.4873 74.6806 64.3475 74.3018 64.1535 73.8056L57.0363 77.3868C56.1973 77.8063 55.363 78.2528 54.515 78.6542C52.6838 79.5247 51.1277 78.5956 51.0962 76.5659C51.0556 74.1123 51.0962 71.6632 51.0962 69.2096C51.0962 63.5176 51.1232 57.8211 51.0962 52.1291C51.0411 51.4922 51.1919 50.8544 51.5264 50.3096C51.861 49.7648 52.3615 49.3417 52.9544 49.1027C59.5936 45.8011 66.2057 42.4319 72.8269 39.0898C75.1812 37.9036 76.6335 38.8056 76.6335 41.4487C76.6335 48.8411 76.6335 56.2335 76.6335 63.6259C76.6335 64.4152 76.8049 64.8211 77.6393 65.0421C79.6058 65.5518 81.5362 66.1967 83.5027 66.765C84.5897 67.0808 85.3069 67.7167 85.361 68.8894C85.4151 70.0621 84.698 70.7522 83.6471 71.1446C82.9209 71.3656 82.2714 71.6362 81.419 71.979ZM72.2044 44.3488C71.8436 44.4931 71.6316 44.5563 71.4376 44.651C66.3681 47.2083 61.303 49.7837 56.2154 52.3185C55.9616 52.4251 55.7509 52.6136 55.6168 52.8539C55.4827 53.0943 55.4331 53.3726 55.4757 53.6445C55.4757 59.8237 55.4757 66.0028 55.4757 72.1819C55.4757 72.4706 55.5118 72.7637 55.5433 73.2012C57.9112 72.0105 60.1935 70.8829 62.4441 69.6967C62.629 69.5975 62.7148 69.0473 62.6381 68.7631C62.181 67.0943 61.6879 65.4405 61.1587 63.8018C60.998 63.3971 60.9596 62.9542 61.0484 62.5279C61.1371 62.1017 61.3491 61.7108 61.6579 61.4039C61.9667 61.097 62.3589 60.8875 62.7857 60.8014C63.2125 60.7153 63.6551 60.7565 64.0588 60.9197C66.138 61.5737 68.2353 62.1826 70.3236 62.805C70.919 62.9809 71.5189 63.1342 72.1954 63.3192L72.2044 44.3488ZM66.4944 66.2103L69.4396 76.0427C71.2122 74.6897 72.0375 74.7708 73.5395 76.2818C75.0414 77.7927 76.6471 79.439 78.158 80.959L81.2837 77.91C79.7412 76.3855 78.2167 74.8791 76.7012 73.3681C75.0504 71.7264 74.9873 71.0904 76.2862 69.16L66.4944 66.2103Z" fill="#E43C5C"/>
<path d="M105.991 9.99818C105.991 11.464 105.991 12.9344 105.991 14.4048C105.955 17.0343 104.277 18.9151 101.688 18.9827C98.5628 19.0774 95.4326 19.0729 92.307 18.9827C89.7542 18.9106 88.0267 17.1064 87.9771 14.5446C87.923 11.5377 87.923 8.52181 87.9771 5.49689C88.0267 2.79071 89.885 1.03169 92.6137 1.01365C95.5124 0.989592 98.414 0.989592 101.319 1.01365C104.147 1.01365 105.964 2.85836 105.991 5.69535C106.005 7.13414 105.996 8.56391 105.991 9.99818ZM101.612 14.5446C101.612 11.667 101.612 8.84805 101.576 6.02911C101.576 5.81713 101.057 5.45179 100.773 5.44277C99.077 5.38414 97.3766 5.4112 95.6807 5.4112H92.4333V14.5446H101.612Z" fill="#004999"/>
<path d="M9.93974 105.978C8.47389 105.978 7.00352 106 5.53316 105.978C2.90365 105.928 1.05443 104.097 1.02285 101.467C0.989778 98.4605 0.989778 95.4536 1.02285 92.4467C1.05443 89.9751 2.76834 88.1123 5.24901 88.0356C8.40623 87.9364 11.5634 87.9409 14.7207 88.0356C17.2194 88.1033 18.9378 89.8803 19.001 92.4016C19.0686 95.4506 19.0686 98.5086 19.001 101.558C18.9469 104.21 17.0886 105.964 14.4366 106C12.9437 106.014 11.4462 105.978 9.93974 105.978ZM14.5583 101.508V92.4828H5.46104V101.503L14.5583 101.508Z" fill="#004999"/>
<path d="M105.991 96.9209C105.991 98.4273 105.991 99.9383 105.991 101.431C105.946 104.07 104.129 105.942 101.508 105.942C98.5011 105.984 95.4943 105.984 92.4874 105.942C89.9526 105.914 88.0853 104.169 88.0177 101.643C87.932 98.5175 87.9365 95.3829 88.0177 92.2572C88.0117 91.6967 88.1172 91.1406 88.328 90.6212C88.5388 90.1018 88.8506 89.6295 89.2455 89.2317C89.6404 88.8339 90.1104 88.5185 90.6282 88.3038C91.146 88.0892 91.7014 87.9796 92.2619 87.9815C95.4191 87.8913 98.5763 87.8867 101.734 87.9815C104.264 88.0627 105.951 89.9299 105.991 92.4918C106.014 93.9802 105.991 95.4505 105.991 96.9209ZM101.544 101.503V92.4467H92.4468V101.503H101.544Z" fill="#004999"/>
<path d="M1.01839 9.94364C1.01839 8.47328 1.01839 7.00292 1.01839 5.53256C1.00093 4.93552 1.10562 4.3412 1.32611 3.78609C1.54659 3.23098 1.87816 2.72678 2.30051 2.30443C2.72287 1.88207 3.22711 1.55048 3.78222 1.33C4.33733 1.10951 4.93166 1.00479 5.5287 1.02225C8.5055 0.995188 11.4823 0.995188 14.4591 1.02225C17.1111 1.02225 18.9694 2.82637 19.019 5.46941C19.0866 8.4823 19.0776 11.4952 19.019 14.49C18.9739 17.115 17.2149 18.9146 14.6169 18.9733C11.5319 19.0454 8.43784 19.0545 5.35279 18.9733C2.75485 18.9011 1.04544 17.0384 1.00936 14.4314C1.00034 12.9385 1.01839 11.432 1.01839 9.94364ZM14.5854 5.51903H5.46103V14.5396H14.5854V5.51903Z" fill="#004999"/>
<path d="M12.2308 34.1686H7.91895V29.8252C9.19536 29.8252 10.4943 29.8252 11.7933 29.8523C11.9421 29.8523 12.2037 30.186 12.2128 30.3709C12.2489 31.5932 12.2308 32.8336 12.2308 34.1686Z" fill="#004999"/>
<path d="M39.6582 7.85107H43.8753V12.1088H39.6582V7.85107Z" fill="#004999"/>
<path d="M99.1497 29.8887V34.1284H94.8965V29.8887H99.1497Z" fill="#004999"/>
<path d="M99.0905 67.3737H94.8779V63.0889H99.0905V67.3737Z" fill="#004999"/>
<path d="M72.8271 12.1991V7.90527H77.1796C77.1796 9.15463 77.1796 10.4491 77.1525 11.7435C77.1525 11.9059 76.7601 12.1946 76.5436 12.1946C75.3484 12.2307 74.1532 12.1991 72.8271 12.1991Z" fill="#004999"/>
<path d="M7.90527 63.0845H12.2217C12.2217 64.4015 12.2216 65.705 12.1991 67.0039C12.1991 67.1528 11.8608 67.4144 11.6759 67.4189C10.4446 67.4595 9.21326 67.4189 7.90527 67.4189V63.0845Z" fill="#004999"/>
<path d="M39.5771 99.1129C39.5771 97.8184 39.5771 96.551 39.5771 95.2836C39.6066 95.1732 39.6633 95.0719 39.7421 94.9891C39.8209 94.9064 39.9193 94.8448 40.0282 94.81C41.2956 94.7694 42.5629 94.81 43.8709 94.81V99.1354L39.5771 99.1129Z" fill="#004999"/>
<path d="M77.1204 94.8687V99.1083H72.8672V94.8687H77.1204Z" fill="#004999"/>
<path d="M94.8555 46.5137H99.1132V50.7173H94.8555V46.5137Z" fill="#004999"/>
<path d="M7.89258 59.0793V54.772C9.20959 54.772 10.468 54.772 11.7309 54.7945C11.8373 54.8268 11.9342 54.8849 12.0129 54.9636C12.0915 55.0422 12.1496 55.1391 12.1819 55.2456C12.2225 56.5084 12.2044 57.7758 12.2044 59.0703L7.89258 59.0793Z" fill="#004999"/>
<path d="M7.98242 71.4238H12.177V75.65H7.98242V71.4238Z" fill="#004999"/>
<path d="M94.873 71.4331H99.1262V75.6593H94.873V71.4331Z" fill="#004999"/>
<path d="M27.2681 7.87793V12.1176H23.0059V7.87793H27.2681Z" fill="#004999"/>
<path d="M7.91504 79.7588H12.1728V83.9895H7.91504V79.7588Z" fill="#004999"/>
<path d="M99.0907 84.0035H94.8555V79.7773H99.0907V84.0035Z" fill="#004999"/>
<path d="M31.3506 7.85107H35.5542V12.1494H31.3506V7.85107Z" fill="#004999"/>
<path d="M60.4827 7.87402V12.1272H56.2881V7.87402H60.4827Z" fill="#004999"/>
<path d="M81.1709 7.86035H85.3474V12.1406H81.1709V7.86035Z" fill="#004999"/>
<path d="M12.1903 21.5986V25.8068H7.89648V21.5986H12.1903Z" fill="#004999"/>
<path d="M94.8418 25.8292V21.6211H99.1266V25.8292H94.8418Z" fill="#004999"/>
<path d="M27.2503 94.8779V99.1041H23.0332V94.8779H27.2503Z" fill="#004999"/>
<path d="M31.3545 99.104V94.8418H35.5806V99.104H31.3545Z" fill="#004999"/>
<path d="M7.90137 38.1562H12.1546V42.4185H7.90137V38.1562Z" fill="#004999"/>
<path d="M56.2695 99.113V94.8643H60.4551V99.113H56.2695Z" fill="#004999"/>
<path d="M68.8043 99.1127H64.5781V94.855H68.8043V99.1127Z" fill="#004999"/>
<path d="M12.145 50.7484H7.90527V46.5312H12.145V50.7484Z" fill="#004999"/>
<path d="M85.3836 94.8418V99.0995H81.1846V94.8418H85.3836Z" fill="#004999"/>
<path d="M47.957 94.8457H52.1832V99.0944H47.9661L47.957 94.8457Z" fill="#004999"/>
<path d="M99.1223 38.1963V42.4179H94.8691V38.1963H99.1223Z" fill="#004999"/>
<path d="M64.5684 7.86035H68.8081V12.1181H64.5684V7.86035Z" fill="#004999"/>
<path d="M47.9531 7.87402H52.1838V12.1318H47.9576L47.9531 7.87402Z" fill="#004999"/>
<path d="M94.8867 54.8262H99.1174V59.0614H94.8867V54.8262Z" fill="#004999"/>
</svg>
