<svg width="74" height="70" viewBox="0 0 74 70" fill="none" xmlns="http://www.w3.org/2000/svg">
<path d="M16.278 16.6459C15.7024 14.5847 15.378 12.4925 15.68 10.3577C16.1669 6.89196 17.976 4.22657 20.9813 2.45838C25.2883 -0.0760802 29.8918 -0.690184 34.7142 0.799366C36.0598 1.21535 37.227 1.94952 38.0907 3.08484C38.2622 3.31012 38.4132 3.35706 38.6952 3.31852C39.4164 3.21971 40.146 3.13324 40.8722 3.13275C44.324 3.12879 46.3205 5.05162 46.3938 8.47981C46.4486 11.0251 45.7105 13.4232 44.8762 15.7947C44.7735 16.0866 44.6733 16.3796 44.5772 16.6632C44.7631 16.802 44.932 16.7171 45.0915 16.7156C46.1221 16.7052 46.8358 17.2625 47.082 18.2634C47.1812 18.6633 47.1907 19.0798 47.1099 19.4837C46.7744 21.1338 46.4222 22.7807 46.0534 24.4242C45.9699 24.7755 45.8449 25.1157 45.6811 25.438C45.1782 26.4552 44.2856 26.7561 43.254 26.2734C43.0367 26.1721 42.8303 26.0491 42.5766 25.9137C42.2482 26.8811 41.9492 27.8301 41.6048 28.7629C40.9111 30.6403 39.8869 32.32 38.4097 33.7034C38.011 34.0779 37.8156 34.4548 37.9178 35.0299C38.0773 35.9295 38.145 36.8455 38.2452 37.7555C38.2781 38.0569 38.2886 38.3405 38.7381 38.2575C38.9943 38.2105 39.1906 38.3924 39.3825 38.5435C39.8964 38.9487 40.459 39.3034 40.921 39.7599C42.775 41.5918 45.1927 42.3521 47.536 43.2637C47.8296 43.3778 47.9462 43.357 48.0559 43.0329C48.311 42.281 48.8124 41.6931 49.4628 41.2356C50.2981 40.6477 50.6848 39.8429 50.485 38.8548C49.9368 36.1469 52.4785 33.9109 54.9594 34.4726C55.9961 34.7073 56.7606 34.1762 57.3921 33.3664C58.479 31.9717 60.0938 31.5039 61.6781 32.0567C62.4656 32.3319 63.0532 32.8581 63.5396 33.5087C64.1501 34.3259 64.958 34.6134 65.9662 34.4756C68.6191 34.1134 70.5718 35.9636 70.357 38.6132C70.3276 38.9714 70.2468 39.3207 70.3106 39.6907C70.4307 40.3824 70.8474 40.8453 71.3762 41.2657C73.5312 42.9786 73.5546 45.6 71.4041 47.3064C70.5424 47.9902 70.1965 48.7747 70.3291 49.8799C70.6475 52.5339 68.7312 54.4454 66.0759 54.146C65.5466 54.0862 65.5356 54.2616 65.5561 54.6603C65.7783 58.971 65.9943 63.2818 66.2039 67.5925C66.2114 67.7372 66.2239 67.8815 66.2368 68.0253C66.2697 68.3834 66.2074 68.7194 65.868 68.9042C65.5017 69.1018 65.1847 68.9689 64.8763 68.711C63.557 67.6073 62.2059 66.5397 60.9081 65.4122C60.504 65.061 60.2812 65.0926 59.8989 65.4221C58.633 66.5125 57.3268 67.5579 56.0434 68.6285C55.7319 68.8884 55.4145 69.1171 54.9968 68.9373C54.5538 68.7471 54.5692 68.3444 54.5897 67.9492C54.6814 66.1672 54.7392 64.3827 54.8762 62.6046C54.9261 61.951 54.7511 61.8235 54.1137 61.8245C36.5746 61.8426 19.0354 61.8475 1.49602 61.8393C0.121984 61.8393 0.000875278 61.7331 0.0203122 60.3572C0.0477232 58.4304 -0.0708918 56.4996 0.0980596 54.5734C0.35672 51.6234 1.77811 49.3444 4.16735 47.6236C6.50974 45.9389 9.17011 44.8886 11.823 43.8195C12.8786 43.3951 13.9162 42.907 15.0096 42.5982C17.4846 41.8981 19.2758 40.1739 21.23 38.6853C21.517 38.4665 21.7722 38.1819 22.1883 38.2614C22.4983 38.3212 22.4659 38.0989 22.5038 37.9156C22.7256 36.8287 22.7899 35.7181 22.9085 34.6164C22.9304 34.4128 22.897 34.2399 22.7376 34.0956C20.3453 31.9352 19.1178 29.1399 18.302 26.1183C18.2733 26.0473 18.2374 25.9794 18.1948 25.9157C18.0418 26.0012 17.8958 26.0852 17.7488 26.1627C16.4958 26.8391 15.5559 26.5214 15.0017 25.1988C14.3727 23.6964 14.3722 22.0409 13.8773 20.5024C13.7677 20.1615 13.7278 19.7955 13.6859 19.4378C13.4552 17.551 14.299 16.6434 16.1779 16.7457L16.2721 16.8218C16.2706 16.762 16.2745 16.7042 16.278 16.6459ZM41.4613 15.1588C41.231 15.4291 41.0735 15.6376 40.8916 15.8228C40.5791 16.1425 40.3289 16.601 39.7698 16.4873C39.1867 16.3687 39.1971 15.8574 39.0835 15.4167C38.8233 14.4074 38.4775 13.4302 37.7468 12.6456C37.6143 12.5028 37.4667 12.1516 37.1847 12.4865C36.0683 13.817 34.5333 13.9652 32.9484 13.9746C30.6384 13.9884 28.3359 13.6614 26.0209 13.8229C22.9778 14.0354 20.5128 15.2522 18.8392 17.8642C18.5955 18.2451 18.4689 18.6107 18.5208 19.0781C18.7251 20.9234 19.0969 22.7395 19.4178 24.566C20.307 29.668 23.361 33.3071 27.3605 36.3292C27.981 36.7981 28.6499 37.052 29.4667 36.8618C30.0385 36.7241 30.6348 36.7209 31.2081 36.8524C32.1659 37.0856 32.914 36.7324 33.6322 36.1825C35.1204 35.0422 36.3967 33.6831 37.701 32.3507C38.8039 31.2237 39.5819 29.9076 40.153 28.4581C41.2933 25.5654 41.8062 22.535 42.2258 19.4748C42.4321 17.9522 42.1042 16.5842 41.4613 15.1613V15.1588ZM68.8992 50.1561C68.514 48.4591 69.2451 47.1147 70.7043 45.9784C71.8681 45.0724 71.8202 43.4558 70.6221 42.5433C69.2077 41.4658 68.6625 40.1536 68.8778 38.3933C69.0771 36.7348 67.8247 35.6623 66.1456 35.9024C64.6176 36.1212 63.3831 35.644 62.4172 34.441C61.1523 32.8645 59.6906 32.8546 58.4187 34.4153C57.4309 35.6277 56.187 36.1301 54.625 35.8974C52.944 35.6474 51.704 36.8391 51.9338 38.5035C52.159 40.1339 51.6392 41.4184 50.319 42.4292C48.9201 43.5028 48.9101 45.0971 50.2996 46.1538C51.6517 47.181 52.1625 48.4842 51.9293 50.1413C51.7115 51.6871 52.9011 52.9425 54.4546 52.7138C56.2418 52.4509 57.5535 53.0468 58.635 54.4395C59.578 55.6534 61.2356 55.6346 62.2034 54.4004C63.275 53.0344 64.5727 52.4569 66.328 52.7128C67.8416 52.9346 68.9585 51.8196 68.8992 50.1561ZM43.3138 15.7542C44.2383 13.032 45.1209 10.501 44.8234 7.73874C44.6579 6.20127 43.8695 5.17811 42.3609 4.7967C41.5948 4.60304 40.8159 4.4573 39.9945 4.65245C39.389 4.7972 38.7461 4.78238 38.1216 4.85402C37.68 4.90343 37.3401 4.7389 37.1508 4.36441C36.5592 3.19105 35.4857 2.63179 34.3289 2.23309C30.776 1.00835 27.2708 1.35764 23.818 2.6634C21.9686 3.36297 20.3927 4.46421 19.1363 5.98143C17.4059 8.07075 16.8746 10.5266 17.0984 13.1525C17.1906 14.2932 17.4364 15.4166 17.829 16.4928C18.0986 16.4325 18.2013 16.2561 18.3149 16.1084C20.7665 12.9213 24.2701 12.2701 27.981 12.2835C29.8893 12.2904 31.8001 12.5705 33.7124 12.4969C34.6015 12.4628 35.524 12.2993 36.0738 11.4594C36.6918 10.5108 37.1094 10.4017 38.0797 11.0034C38.5592 11.2998 38.9375 11.6886 39.2709 12.1481C39.6756 12.7049 39.9158 13.3501 40.2911 14.0161C40.4087 13.8219 40.5074 13.7286 40.5208 13.6238C40.5756 13.1975 40.76 12.8828 41.2186 12.8269C41.6671 12.7746 41.9123 13.0611 42.1431 13.402C42.6031 14.0813 42.9649 14.81 43.3138 15.7542ZM19.8599 60.3932C19.3426 59.1606 18.8686 58.0337 18.3957 56.9062C16.8008 53.1041 15.206 49.3017 13.6112 45.4992C13.4617 45.1405 13.365 44.7581 12.8003 44.9899C10.3044 46.0046 7.77314 46.9453 5.507 48.4329C3.26428 49.9066 1.82695 51.8877 1.56181 54.6193C1.40083 56.2818 1.54885 57.9457 1.46213 59.6052C1.42874 60.243 1.61164 60.4125 2.26353 60.4095C7.73775 60.3819 13.212 60.3937 18.6857 60.3932H19.8599ZM47.9053 60.3873V60.3937C49.9986 60.3937 52.0893 60.369 54.1805 60.409C54.7935 60.4209 54.9913 60.2055 55.0093 59.6423C55.0591 58.0767 55.1045 56.5095 55.2141 54.9488C55.26 54.2967 55.0855 54.1445 54.4232 54.1757C51.8909 54.2932 50.1321 52.3477 50.4775 49.8775C50.6016 48.9882 50.4616 48.1671 49.718 47.5895C48.8951 46.9502 48.1829 46.2556 47.9238 45.2092C47.8789 45.0264 47.7698 44.896 47.5854 44.8792C47.3531 44.8584 47.3502 45.0768 47.2893 45.2201C45.2516 50.0647 43.2119 54.9087 41.1702 59.752C40.9415 60.2915 41.0855 60.4036 41.6282 60.3982C43.7214 60.3749 45.8136 60.3873 47.9053 60.3873ZM26.2656 51.453C25.9377 51.8275 25.6675 52.1649 25.3685 52.4747C24.5586 53.3096 24.2487 53.2696 23.6027 52.2706C21.7587 49.4145 19.8918 46.5703 18.0827 43.6915C17.7423 43.148 17.4522 43.112 16.9364 43.3565C16.3703 43.6311 15.7848 43.8644 15.1846 44.0546C14.7201 44.1974 14.736 44.395 14.897 44.7769C17.0234 49.8043 19.1381 54.837 21.2409 59.875C21.4109 60.2826 21.6282 60.3942 22.0478 60.3858C23.3112 60.3596 24.5776 60.3364 25.839 60.3927C26.441 60.4189 26.6229 60.2164 26.6828 59.6561C26.8986 57.6454 27.1567 55.6385 27.4034 53.6312C27.4333 53.3842 27.4353 53.1658 27.2768 52.947C26.9549 52.5013 26.6588 52.0379 26.2656 51.453ZM36.7212 60.3764C37.4264 60.3764 38.1316 60.3611 38.8358 60.3829C39.1712 60.3937 39.3546 60.2999 39.4912 59.9733C41.6232 54.8714 43.7663 49.7735 45.9203 44.6796C46.0783 44.3066 45.9607 44.1856 45.6213 44.066C45.0282 43.858 44.4341 43.6401 43.8695 43.3674C43.3272 43.1056 43.0222 43.1698 42.6768 43.7236C40.8936 46.5609 39.0556 49.3646 37.237 52.1802C36.4994 53.3219 36.2577 53.3432 35.2803 52.3536C35.076 52.1471 34.8737 51.9391 34.6678 51.7341C34.5851 51.6516 34.4555 51.5167 34.3783 51.6674C34.0384 52.3279 33.2878 52.7844 33.3994 53.6732C33.6611 55.7517 33.9153 57.8306 34.1405 59.913C34.1824 60.2969 34.319 60.3947 34.6783 60.3829C35.3596 60.3601 36.0409 60.3764 36.7212 60.3764ZM64.6804 66.6316C64.481 62.5557 64.2857 58.6236 64.0788 54.434C63.0756 55.8322 62.021 56.7734 60.4068 56.7778C58.7925 56.7822 57.7519 55.8174 56.802 54.5966C56.6525 55.3762 56.1541 65.7413 56.2159 66.5634C57.3482 65.6331 58.4486 64.7324 59.5446 63.8264C60.3285 63.1782 60.481 63.1693 61.2849 63.8264C62.3684 64.7142 63.4484 65.6133 64.6779 66.6316H64.6804ZM36.477 35.7309C35.7194 36.3485 35.0431 36.9305 34.3339 37.47C33.3935 38.1844 32.3623 38.5776 31.1388 38.3074C30.5936 38.1868 30.0179 38.2086 29.4697 38.3266C28.5228 38.5277 27.6915 38.2639 26.9065 37.7797C26.1216 37.2956 25.4248 36.6899 24.7346 36.0802C24.6075 35.9686 24.5228 35.7344 24.2736 35.8332C24.1739 36.8707 24.0458 37.8973 23.8086 38.9072C23.7323 39.2312 23.7478 39.4773 24.0393 39.7312C26.0471 41.4815 28.043 43.2457 30.0269 45.0239C30.29 45.2591 30.459 45.2981 30.7461 45.0412C32.7481 43.2474 34.7655 41.4708 36.7815 39.6922C36.9728 39.5237 37.1084 39.376 37.0262 39.0806C36.7246 38.0095 36.6534 36.8994 36.4745 35.7309H36.477ZM24.4365 50.8606C25.9755 49.4496 27.5425 48.0105 29.1134 46.5762C29.3127 46.3949 29.2574 46.2798 29.078 46.1197C26.8233 44.1366 24.5729 42.1491 22.3269 40.1571C22.1101 39.9644 21.9571 39.9348 21.7134 40.1349C20.909 40.7936 20.0907 41.4368 19.2584 42.0646C18.9827 42.2716 18.9698 42.4228 19.1542 42.7069C20.9688 45.4923 22.7715 48.2891 24.4341 50.8606H24.4365ZM36.3354 50.8789C38.014 48.2807 39.8281 45.4617 41.6591 42.6535C41.8465 42.366 41.7444 42.2346 41.5276 42.0676C40.7027 41.4317 39.8774 40.7959 39.0675 40.1408C38.8418 39.9575 38.7067 39.9323 38.4695 40.1408C36.2457 42.1239 34.0125 44.0966 31.7697 46.059C31.4956 46.2986 31.4956 46.4414 31.7553 46.678C33.2783 48.0648 34.7914 49.4634 36.3329 50.8809L36.3354 50.8789ZM30.3189 60.4051V60.4125C30.9499 60.4125 31.5823 60.3908 32.2128 60.4199C32.6613 60.4407 32.7481 60.2534 32.6972 59.8602C32.454 57.9768 32.2123 56.0931 32.003 54.2058C31.9596 53.816 31.7981 53.731 31.4508 53.7399C30.7476 53.7587 30.0423 53.7695 29.3396 53.7439C28.9195 53.7285 28.8039 53.9173 28.7625 54.2908C28.5527 56.1775 28.3349 58.0633 28.0907 59.9456C28.0408 60.3211 28.1545 60.4165 28.4994 60.409C29.1024 60.3957 29.7079 60.4051 30.3165 60.4051H30.3189ZM30.4186 52.3116C30.8313 52.3116 31.2434 52.3151 31.6561 52.3116C32.1121 52.3067 33.369 50.8996 33.3008 50.454C33.2848 50.3483 33.1941 50.2416 33.1134 50.1576C32.3254 49.3414 31.5275 48.5331 30.7426 47.714C30.5083 47.47 30.3199 47.4616 30.0792 47.7096C29.2708 48.5406 28.4545 49.364 27.6302 50.1798C27.4348 50.373 27.4707 50.5256 27.5853 50.7475C28.1335 51.8116 28.7969 52.6589 30.1988 52.3141C30.2705 52.3057 30.3429 52.3055 30.4146 52.3136L30.4186 52.3116ZM17.8235 24.0927C17.7831 23.9237 17.7473 23.8076 17.7283 23.689C17.511 22.3339 17.2225 20.9841 17.1108 19.6206C17.0515 18.8943 16.7659 18.5361 16.135 18.3084C15.3471 18.0243 14.9683 18.259 15.1218 19.084C15.4527 20.8572 15.8494 22.6194 16.2551 24.3777C16.3129 24.6272 16.3548 25.1139 16.8108 24.9681C17.2539 24.8258 17.6875 24.5793 17.8195 24.0927H17.8235ZM45.6885 19.0505C45.6816 18.5974 45.6656 18.2713 45.2669 18.1819C44.7222 18.0599 43.7992 18.712 43.7359 19.2797C43.5674 20.7821 43.3322 22.2741 43.0531 23.7597C42.9594 24.2572 43.407 24.9 43.9532 24.9721C44.5338 25.0482 44.5069 24.5087 44.5826 24.194C44.937 22.7271 45.2405 21.2475 45.558 19.7717C45.6143 19.4911 45.6561 19.2066 45.6846 19.0505H45.6885Z" fill="#050504"/>
<path d="M41.4614 15.1612C42.1043 16.5865 42.4322 17.9545 42.2234 19.4772C41.8038 22.5373 41.2909 25.5678 40.1506 28.4604C39.5795 29.91 38.8015 31.2271 37.6986 32.353C36.3943 33.687 35.118 35.0446 33.6298 36.1849C32.9116 36.7347 32.1636 37.088 31.2057 36.8548C30.6324 36.7233 30.0361 36.7265 29.4643 36.8642C28.6475 37.0544 27.9786 36.8004 27.3582 36.3316C23.3586 33.3095 20.3046 29.6704 19.4154 24.5684C19.097 22.7404 18.7252 20.9258 18.5184 19.0805C18.4685 18.6131 18.5931 18.2475 18.8368 17.8666C20.5104 15.2546 22.9734 14.0378 26.0185 13.8253C28.332 13.6638 30.6345 13.9908 32.946 13.977C34.5324 13.9676 36.0674 13.8194 37.1823 12.4889C37.4643 12.1525 37.6119 12.5052 37.7444 12.648C38.4751 13.4325 38.8209 14.4098 39.0811 15.4191C39.1947 15.8598 39.1843 16.3711 39.7674 16.4897C40.3266 16.6033 40.5767 16.1439 40.8892 15.8252C41.0736 15.6375 41.2311 15.429 41.4614 15.1612Z" fill="#FBD6AC"/>
<path d="M68.8993 50.1562C68.9586 51.8211 67.8417 52.9347 66.3271 52.7138C64.5718 52.4579 63.274 53.0354 62.2025 54.4015C61.2347 55.6366 59.577 55.6544 58.6341 54.4405C57.5526 53.0478 56.2419 52.452 54.4537 52.7148C52.9002 52.9436 51.7126 51.6882 51.9284 50.1423C52.1616 48.4853 51.6508 47.182 50.2987 46.1549C48.9092 45.0986 48.9192 43.5038 50.3181 42.4302C51.6383 41.417 52.1581 40.1364 51.9329 38.5046C51.7026 36.8401 52.9426 35.6485 54.6241 35.8985C56.1861 36.1312 57.43 35.6287 58.4178 34.4163C59.6897 32.8556 61.1514 32.8655 62.4163 34.442C63.3822 35.645 64.6167 36.1218 66.1447 35.9034C67.8238 35.6633 69.0782 36.7359 68.8769 38.3944C68.663 40.1537 69.2083 41.4659 70.6212 42.5444C71.8173 43.4569 71.8672 45.0734 70.7034 45.9795C69.2452 47.1148 68.514 48.4601 68.8993 50.1562ZM64.9765 44.277C64.968 41.7737 62.8833 39.7258 60.3635 39.7486C57.8776 39.7718 55.8227 41.8181 55.8113 44.2834C55.7993 46.7739 57.884 48.8415 60.4054 48.8395C62.9267 48.8375 64.985 46.7902 64.9765 44.2785V44.277Z" fill="#FBC52D"/>
<path d="M43.3139 15.7542C42.965 14.81 42.6032 14.0813 42.1422 13.3995C41.9115 13.0586 41.6643 12.7721 41.2177 12.8245C40.7612 12.8783 40.5768 13.195 40.52 13.6214C40.5065 13.7261 40.4078 13.819 40.2902 14.0136C39.9149 13.3477 39.6747 12.7024 39.27 12.1456C38.9366 11.6862 38.5583 11.2984 38.0789 11.0009C37.1085 10.3992 36.6909 10.5069 36.0729 11.457C35.5247 12.3008 34.6007 12.4628 33.7116 12.4944C31.7983 12.5681 29.8875 12.2879 27.9802 12.281C24.2692 12.2677 20.7656 12.9188 18.3141 16.1059C18.2004 16.2541 18.0978 16.43 17.8281 16.4903C17.4355 15.4141 17.1898 14.2908 17.0975 13.1501C16.8737 10.5222 17.405 8.06829 19.1354 5.97897C20.3918 4.46175 21.9677 3.36052 23.8172 2.66095C27.27 1.35518 30.7751 1.00589 34.3281 2.23064C35.4848 2.62933 36.5583 3.1886 37.1499 4.36196C37.3393 4.73645 37.6792 4.90243 38.1208 4.85154C38.7452 4.7799 39.3881 4.79475 39.9937 4.64999C40.813 4.45484 41.594 4.60058 42.36 4.79425C43.8686 5.17565 44.657 6.19881 44.8225 7.73629C45.121 10.501 44.2384 13.032 43.3139 15.7542Z" fill="#2C3033"/>
<path d="M19.86 60.3932H18.6828C13.2091 60.3932 7.73488 60.3818 2.26065 60.4095C1.60976 60.4125 1.42586 60.243 1.45925 59.6052C1.54746 57.9457 1.39944 56.2817 1.55892 54.6193C1.82406 51.8877 3.2599 49.9065 5.50412 48.4328C7.77026 46.9452 10.3015 46.0046 12.7974 44.9898C13.3621 44.7601 13.4578 45.138 13.6083 45.4992C15.2031 49.3017 16.7979 53.104 18.3928 56.9062C18.8687 58.0336 19.3417 59.1605 19.86 60.3932Z" fill="#004999"/>
<path d="M47.9055 60.3872C45.8123 60.3872 43.7191 60.3749 41.6299 60.3956C41.0871 60.4011 40.9431 60.2889 41.1719 59.7494C43.2222 54.9097 45.2619 50.0658 47.291 45.2175C47.3518 45.0728 47.3548 44.8559 47.587 44.8766C47.7714 44.8934 47.8806 45.0248 47.9254 45.2066C48.1831 46.2521 48.8953 46.9477 49.7196 47.587C50.4632 48.1645 50.6032 48.9851 50.4791 49.8749C50.1338 52.3451 51.8926 54.2922 54.4248 54.1731C55.0872 54.142 55.2616 54.2941 55.2158 54.9463C55.1061 56.508 55.0598 58.0751 55.0109 59.6397C54.993 60.2029 54.7951 60.4183 54.1821 60.4065C52.0889 60.3665 49.9987 60.3912 47.907 60.3912L47.9055 60.3872Z" fill="#004999"/>
<path d="M26.2657 51.453C26.659 52.0379 26.955 52.5014 27.2764 52.947C27.4349 53.1658 27.4329 53.3862 27.403 53.6312C27.1538 55.6385 26.8982 57.6454 26.6824 59.6561C26.6226 60.2164 26.4407 60.4189 25.8386 60.3928C24.5772 60.3384 23.3108 60.3596 22.0474 60.3858C21.6278 60.3942 21.4105 60.2826 21.2405 59.875C19.1414 54.8357 17.0267 49.803 14.8966 44.7769C14.7352 44.395 14.7197 44.1974 15.1842 44.0546C15.7845 43.8644 16.3699 43.6311 16.936 43.3566C17.4504 43.112 17.7404 43.1495 18.0823 43.6915C19.8914 46.5703 21.7559 49.4145 23.6024 52.2706C24.2503 53.2696 24.5583 53.3081 25.3681 52.4747C25.6667 52.1654 25.9378 51.8275 26.2657 51.453Z" fill="#FEFEFE"/>
<path d="M36.7213 60.3765C36.041 60.3765 35.3597 60.3602 34.6779 60.3829C34.3186 60.3948 34.1796 60.2969 34.1402 59.9131C33.9149 57.8307 33.6607 55.7517 33.3991 53.6733C33.2875 52.784 34.038 52.328 34.3779 51.6674C34.4552 51.5167 34.5847 51.6516 34.6675 51.7341C34.8733 51.9392 35.0756 52.1472 35.28 52.3537C36.2573 53.3418 36.499 53.322 37.2366 52.1803C39.0552 49.3642 40.8933 46.561 42.6765 43.7237C43.0253 43.1698 43.3244 43.1056 43.8691 43.3674C44.4338 43.6402 45.0278 43.858 45.6209 44.066C45.9578 44.1841 46.0754 44.3066 45.9199 44.6796C43.7663 49.7733 41.6232 54.8712 39.4908 59.9733C39.3543 60.2999 39.1709 60.3938 38.8354 60.3829C38.1307 60.3612 37.4265 60.3765 36.7213 60.3765Z" fill="#FEFEFE"/>
<path d="M64.678 66.6316C63.4465 65.6134 62.3685 64.7152 61.2825 63.8274C60.4786 63.1693 60.3261 63.1782 59.5422 63.8274C58.4458 64.7335 57.3458 65.6341 56.2135 66.5644C56.1507 65.7423 56.6506 55.3772 56.7996 54.5976C57.7495 55.8184 58.7931 56.7833 60.4044 56.7788C62.0157 56.7744 63.0732 55.8332 64.0765 54.4351C64.2833 58.6236 64.4772 62.5557 64.678 66.6316Z" fill="#FBC52D"/>
<path d="M36.4746 35.731C36.6535 36.8984 36.7238 38.0095 37.0228 39.0796C37.1051 39.376 36.9695 39.5242 36.7781 39.6912C34.7622 41.4698 32.7447 43.2484 30.7427 45.0403C30.4556 45.2972 30.2867 45.2581 30.0235 45.023C28.0367 43.2484 26.0408 41.4841 24.036 39.7303C23.7444 39.4763 23.729 39.2303 23.8052 38.9062C24.0425 37.8964 24.1695 36.8692 24.2702 35.8322C24.5194 35.7364 24.6041 35.9686 24.7312 36.0793C25.4215 36.6889 26.1162 37.2931 26.9032 37.7788C27.6901 38.2644 28.5199 38.5268 29.4664 38.3257C30.0146 38.2096 30.5902 38.1859 31.1354 38.3064C32.359 38.5767 33.3901 38.1834 34.3306 37.469C35.0408 36.9305 35.7171 36.3485 36.4746 35.731Z" fill="#FBD6AC"/>
<path d="M24.4342 50.8606C22.7716 48.2891 20.9689 45.4923 19.1513 42.7049C18.9669 42.4228 18.9799 42.2716 19.2555 42.0626C20.0861 41.4369 20.9045 40.7936 21.7105 40.1329C21.9542 39.9353 22.1092 39.9625 22.324 40.1551C24.5697 42.1481 26.8201 44.1357 29.0751 46.1178C29.2545 46.2759 29.3088 46.393 29.1105 46.5743C27.5401 48.0105 25.9732 49.4482 24.4342 50.8606Z" fill="#FEFEFE"/>
<path d="M36.3331 50.8808C34.7921 49.4653 33.2785 48.0677 31.7544 46.6814C31.4948 46.4447 31.4948 46.302 31.7689 46.0623C34.0116 44.1003 36.2449 42.1276 38.4686 40.1442C38.7044 39.9337 38.8394 39.9589 39.0667 40.1442C39.8766 40.7993 40.7019 41.4351 41.5267 42.0709C41.7435 42.2379 41.8457 42.3674 41.6583 42.6569C39.8252 45.4616 38.0116 48.2806 36.3331 50.8808Z" fill="#FEFEFE"/>
<path d="M30.3166 60.405C29.7096 60.405 29.1025 60.3957 28.496 60.409C28.1511 60.4164 28.0385 60.3211 28.0873 59.9456C28.3315 58.0633 28.5493 56.1775 28.7591 54.2907C28.8005 53.9172 28.9161 53.7285 29.3363 53.7438C30.039 53.7695 30.7442 53.7586 31.4474 53.7399C31.7963 53.731 31.9563 53.8159 31.9996 54.2058C32.2089 56.093 32.4482 57.9768 32.6939 59.8601C32.7437 60.2553 32.6555 60.4406 32.2094 60.4199C31.58 60.3907 30.9475 60.4125 30.3156 60.4125L30.3166 60.405Z" fill="#E33C5C"/>
<path d="M30.4148 52.3136C30.3424 52.3052 30.2693 52.3052 30.197 52.3136C28.795 52.6594 28.1307 51.8111 27.5835 50.747C27.4688 50.5246 27.434 50.3725 27.6283 50.1793C28.4523 49.3631 29.2687 48.5397 30.0774 47.7091C30.3181 47.462 30.5065 47.4694 30.7407 47.7135C31.5257 48.5326 32.3236 49.3409 33.1115 50.1571C33.1923 50.2406 33.283 50.3473 33.2989 50.4535C33.3652 50.8981 32.1083 52.3062 31.6543 52.3111C31.2396 52.3136 30.8274 52.3136 30.4148 52.3136Z" fill="#E33C5C"/>
<path d="M17.8197 24.0926C17.6876 24.5792 17.254 24.8257 16.8069 24.968C16.3489 25.1138 16.3086 24.6271 16.2513 24.3776C15.8456 22.6193 15.4489 20.8571 15.1179 19.0839C14.9644 18.2609 15.3432 18.0242 16.1311 18.3083C16.7621 18.536 17.0477 18.8942 17.107 19.6205C17.2186 20.984 17.5057 22.3338 17.7245 23.6889C17.7434 23.807 17.7793 23.9236 17.8197 24.0926Z" fill="#FBD6AC"/>
<path d="M45.6847 19.0504C45.6568 19.2065 45.6144 19.4911 45.5541 19.7717C45.2367 21.2474 44.9331 22.7271 44.5788 24.1939C44.503 24.5086 44.529 25.0481 43.9493 24.972C43.4011 24.8999 42.9556 24.2572 43.0493 23.7596C43.3283 22.2741 43.5636 20.782 43.732 19.2796C43.7953 18.712 44.7183 18.0598 45.2631 18.1819C45.6618 18.2738 45.6777 18.5974 45.6847 19.0504Z" fill="#FBD6AC"/>
<path d="M16.2781 16.646C16.2747 16.7043 16.2707 16.7621 16.2667 16.8199L16.1725 16.7438C16.2064 16.7097 16.2413 16.6771 16.2781 16.646Z" fill="#FEFEFE"/>
<path d="M64.9766 44.2784C64.985 46.7901 62.9332 48.8394 60.4054 48.8409C57.8776 48.8424 55.7994 46.7753 55.8113 44.2848C55.8228 41.8195 57.8776 39.7732 60.3636 39.7499C62.8819 39.7272 64.9681 41.775 64.9766 44.2784ZM63.5073 44.3209C63.5142 43.5052 63.1958 42.7198 62.6216 42.1355C62.0473 41.5513 61.2636 41.2154 60.4408 41.201C58.7259 41.1728 57.2671 42.6075 57.2771 44.3135C57.2865 46.0001 58.695 47.3909 60.3949 47.3923C61.2177 47.3914 62.0067 47.068 62.5898 46.4926C63.1729 45.9171 63.5027 45.1365 63.5073 44.3209Z" fill="#050504"/>
<path d="M63.5073 44.321C63.5026 45.1365 63.1727 45.9171 62.5896 46.4924C62.0065 47.0677 61.2176 47.3911 60.3949 47.392C58.6949 47.392 57.2865 45.9998 57.277 44.3131C57.2671 42.6076 58.7258 41.1729 60.4408 41.2006C61.2636 41.215 62.0474 41.5509 62.6217 42.1353C63.196 42.7197 63.5143 43.5052 63.5073 44.321Z" fill="#FEFEFE"/>
</svg>
