<svg width="77" height="52" viewBox="0 0 77 52" fill="none" xmlns="http://www.w3.org/2000/svg">
<g clip-path="url(#clip0_749_455)">
<path d="M77.0013 25.1574L65.4099 28.3046C66.6769 29.994 67.8061 31.4918 68.9274 32.9948C70.7596 35.4521 72.5891 37.9116 74.4158 40.3733C75.593 41.9561 75.5367 42.2003 73.6304 42.8849C66.4924 45.4483 59.3499 48.0002 52.2028 50.5404C51.2264 50.8889 50.253 51.2488 49.2651 51.5613C46.6607 52.385 46.0333 52.175 44.651 49.8106C42.5832 46.2754 40.5885 42.6982 38.5357 39.1525C37.8374 37.9471 37.303 36.2354 36.2416 35.7699C35.2541 35.336 33.6658 36.2389 32.3473 36.5729C28.3327 37.5903 24.3244 38.6296 20.3068 39.6347C18.3984 40.1125 17.1679 39.5799 16.3517 37.8261C11.0953 26.5303 5.85368 15.2272 0.626899 3.91705C0.412944 3.45504 0.209112 2.98821 0 2.52358V1.95813C1.07726 0.643132 2.66035 1.16213 3.98326 1.01617C8.11092 0.561175 12.2712 0.406432 16.4076 0.0193834C18.0365 -0.132719 18.8699 0.553704 19.6539 1.87353C25.333 11.434 31.1164 20.9367 36.7743 30.5108C37.5759 31.8696 38.3265 32.126 39.8049 31.7574C46.5669 30.0733 53.3606 28.5128 60.1403 26.8998C60.4986 26.8143 60.8398 26.6574 61.3729 26.4689C59.7986 24.2242 58.2913 22.0711 56.7813 19.9233C55.8308 18.5727 54.8535 17.2411 53.9197 15.8801C53.2356 14.885 53.3998 14.4301 54.5519 14.2381C58.1315 13.6411 61.7189 13.0936 65.3003 12.508C66.5008 12.312 67.2651 12.9253 67.9518 13.7765C70.5304 16.9734 73.1173 20.1635 75.7123 23.3466C76.0865 23.806 77.0013 24.9689 77.0013 25.1574ZM3.43781 3.05878C3.61038 3.60758 3.68346 4.0091 3.85603 4.3624C8.96278 14.7983 14.0695 25.2343 19.1763 35.6704C19.5483 36.4335 19.9119 36.5348 20.71 36.334C24.5934 35.3579 28.4991 34.4702 32.3939 33.5375C33.1863 33.3477 33.9638 33.0991 34.8403 32.8528C34.636 32.4079 34.5577 32.1905 34.4441 31.9941C28.7686 22.2721 23.0996 12.5457 17.4373 2.81464C16.8857 1.86214 16.1778 1.84767 15.3044 1.92614C13.1406 2.12032 10.9751 2.28951 8.81266 2.49334C7.08473 2.65727 5.36076 2.8554 3.43781 3.05878ZM39.2999 34.7446C41.9189 39.1648 44.4155 43.3732 46.905 47.5878C47.3893 48.4053 48.014 48.3803 48.835 48.0985C55.7427 45.7289 62.6633 43.3965 69.578 41.0474C70.1865 40.841 70.7821 40.5964 71.556 40.3023C71.2104 39.7658 70.9837 39.3704 70.7165 39.0039C68.4383 35.8782 66.1165 32.7827 63.8928 29.6183C63.2805 28.7465 62.6919 28.654 61.7467 28.9095C57.8827 29.9484 53.9985 30.9114 50.1244 31.9143C46.6206 32.8221 43.119 33.7457 39.2999 34.7446ZM73.2862 23.6574C71.9313 21.5257 70.4618 19.4685 68.8838 17.4949C68.0148 16.4087 67.1471 15.3909 66.2908 14.4379C66.2255 14.3653 66.1428 14.3104 66.0504 14.2783C65.9581 14.2462 65.859 14.2379 65.7625 14.2543C64.6135 14.4518 63.4557 14.6578 62.2891 14.8723C60.2584 15.2449 58.2612 15.6318 56.2974 16.033C56.7121 16.6594 56.9481 17.0504 57.2175 17.4164C58.5853 19.2758 59.9668 21.1252 61.3342 22.9833C63.6001 26.0665 63.6001 26.0818 67.2571 25.1982C69.2893 24.7081 71.3113 24.1641 73.2862 23.6574Z" fill="#E43C5C"/>
</g>
<defs>
<clipPath id="clip0_749_455">
<rect width="77" height="52" fill="white"/>
</clipPath>
</defs>
</svg>
