<svg width="75" height="74" viewBox="0 0 75 74" fill="none" xmlns="http://www.w3.org/2000/svg">
<g clip-path="url(#clip0_749_722)">
<path d="M71.8491 16.1333H3.16256V17.9895C3.16256 29.3818 3.16256 40.7745 3.16256 52.1675C3.16256 55.446 4.09769 56.3544 7.38591 56.3555C13.3147 56.3555 19.2432 56.3555 25.1713 56.3555C25.5488 56.3555 25.9264 56.3625 26.3028 56.3555C27.4542 56.337 28.4443 56.6583 28.3987 57.989C28.3578 59.2071 27.4168 59.482 26.3238 59.4774C22.4441 59.4612 18.5632 59.4774 14.6836 59.4774C11.9342 59.4774 9.18959 59.4948 6.43675 59.4693C2.77331 59.4368 0.0344836 56.8439 0.026301 53.2267C-0.00876701 37.5544 -0.00876701 21.8825 0.026301 6.2109C0.0356525 2.40922 2.78266 0.00314619 6.93354 0.00198608C26.1742 -0.0065214 45.4148 -0.0065214 64.6555 0.00198608C65.7333 0.00198608 66.811 0.00198608 67.8888 0.00198608C72.5423 0.0159074 74.9889 2.41734 74.9948 6.99978C75.0018 14.1151 75.0018 21.2305 74.9948 28.3458C74.9948 36.4225 74.9948 44.4992 74.9948 52.5759C74.9948 56.9484 72.471 59.4716 68.1074 59.4774C61.8021 59.4844 55.4965 59.4844 49.1905 59.4774C49.083 59.4774 48.9754 59.4774 48.8679 59.4774C47.6919 59.525 46.5558 59.3393 46.5943 57.8834C46.6329 56.4275 47.8088 56.3451 48.9567 56.3532C51.166 56.3683 53.3765 56.3532 55.5858 56.3532C59.7355 56.3532 63.8852 56.3637 68.0349 56.3532C70.7901 56.3451 71.8375 55.2952 71.8386 52.5631C71.8456 41.0092 71.8487 29.456 71.848 17.9037L71.8491 16.1333ZM30.5191 12.805H71.8339C71.8339 10.7423 71.841 8.81999 71.8339 6.89769C71.8211 4.17607 70.7468 3.08324 68.0384 3.08092C56.1324 3.07009 44.2268 3.06739 32.3216 3.0728C31.7442 3.0728 31.1667 3.12152 30.5203 3.15169L30.5191 12.805ZM27.2695 3.09948C20.0724 3.09948 13.0248 3.0554 5.97851 3.13545C4.51032 3.15285 3.35427 4.1401 3.25491 5.64477C3.09827 8.02067 3.21282 10.4151 3.21282 12.8456H27.2695V3.09948Z" fill="#004999"/>
<path d="M31.7071 60.7366C31.7071 58.4941 31.6323 56.247 31.7364 54.008C31.7936 52.7852 31.4792 52.1646 30.2694 51.617C23.5491 48.574 19.68 41.7212 20.4 34.4102C21.0827 27.467 26.3289 21.4309 33.1905 19.6919C41.7822 17.5155 50.6649 22.149 53.6527 30.3649C56.6826 38.698 52.866 47.9046 44.7244 51.6216C43.5192 52.1727 43.1978 52.7585 43.2562 53.9952C43.4725 58.5312 43.635 63.0719 43.6981 67.6114C43.7519 71.3818 40.999 74.0663 37.3449 73.992C35.767 73.9694 34.2584 73.3449 33.1319 72.2481C32.0054 71.1513 31.3475 69.6663 31.2945 68.101C31.2863 67.8875 31.2945 67.6729 31.2945 67.4595V60.7308L31.7071 60.7366ZM51.5475 36.1945C51.5458 34.3598 51.1797 32.5434 50.4701 30.8492C49.7604 29.155 48.7213 27.6163 47.4119 26.3211C46.1026 25.0259 44.5488 23.9995 42.8395 23.3007C41.1302 22.602 39.2988 22.2445 37.4501 22.2488C29.6942 22.272 23.3902 28.5923 23.4451 36.2861C23.4581 38.1217 23.8354 39.9367 24.5554 41.6275C25.2753 43.3182 26.3239 44.8517 27.6412 46.1402C28.9585 47.4287 30.5187 48.447 32.2326 49.1369C33.9466 49.8268 35.7806 50.1748 37.6301 50.161C45.2925 50.1158 51.565 43.8222 51.5475 36.1945ZM34.8785 53.2156C34.716 57.9315 34.5348 62.6125 34.4015 67.3075C34.3384 69.5117 35.6687 70.9874 37.5693 70.9398C39.47 70.8922 40.6834 69.3806 40.6086 67.1671C40.4582 63.0023 40.3066 58.8375 40.1539 54.6727C40.1352 54.1704 40.0756 53.6681 40.037 53.2156H34.8785Z" fill="#004999"/>
<path d="M65.5559 31.5435V22.2418H58.6054C56.7223 22.2418 54.8403 22.2487 52.9571 22.2418C51.9366 22.2418 51.157 21.6826 51.3206 20.722C51.42 20.1327 52.2557 19.229 52.7794 19.2139C57.1863 19.0979 61.6002 19.084 66.0071 19.2034C67.6225 19.2475 68.7073 20.5747 68.7424 22.2615C68.8055 25.3567 68.8137 28.4553 68.7295 31.5505C68.6793 33.3939 67.5103 34.5471 65.6611 34.6294C63.5675 34.7234 61.4529 34.771 59.3745 34.59C58.7492 34.5355 57.8129 33.7269 57.6936 33.1317C57.4856 32.0876 58.3564 31.5493 59.4283 31.5447C61.4097 31.5389 63.3957 31.5435 65.5559 31.5435Z" fill="#E43C5C"/>
<path d="M9.43197 22.2426V31.5536C11.3899 31.5536 13.3058 31.5803 15.2205 31.5432C16.3895 31.5212 17.3609 31.8123 17.3609 33.1244C17.3609 34.3472 16.4117 34.6697 15.3257 34.6651C13.4391 34.6581 11.5524 34.6975 9.66693 34.6477C7.46699 34.5897 6.29922 33.4168 6.26883 31.2207C6.22752 28.3869 6.2256 25.5524 6.263 22.7171C6.2969 20.333 7.47051 19.1544 9.8528 19.1335C13.7874 19.0975 17.7209 19.1335 21.659 19.1254C22.8174 19.1254 23.7958 19.4525 23.7467 20.7727C23.7 21.9839 22.766 22.2588 21.6649 22.2519C17.6332 22.2275 13.6039 22.2426 9.43197 22.2426Z" fill="#E43C5C"/>
<path d="M65.5503 43.9738V40.8716C63.9653 40.8716 62.372 40.8716 60.7787 40.8716C60.2399 40.8716 59.5993 41.0387 59.1867 40.8101C58.5706 40.4621 57.7091 39.8449 57.7021 39.331C57.6951 38.8171 58.5788 37.8751 59.1212 37.8379C61.424 37.6802 63.7595 37.6338 66.0565 37.8379C68.288 38.0398 69.0221 39.8763 68.7509 43.8241C68.6118 45.8358 67.4756 46.9854 65.4662 47.0214C62.8817 47.0666 60.296 47.0295 57.7103 47.0504C56.5986 47.0585 55.6997 46.7024 55.7231 45.4842C55.7465 44.2661 56.6758 43.9575 57.7699 43.9657C60.3369 43.9854 62.9074 43.9738 65.5503 43.9738Z" fill="#E43C5C"/>
<path d="M9.45045 40.8672V43.9821H16.2384C16.7761 43.9821 17.4343 43.8034 17.8223 44.0459C18.4138 44.4148 19.1187 45.0401 19.1982 45.6329C19.252 46.0297 18.3203 46.9439 17.7955 46.9659C14.8451 47.0877 11.8865 47.0123 8.93025 46.9984C8.77074 46.9914 8.61315 46.9609 8.46268 46.9079C6.58069 46.3278 5.90621 44.4601 6.26741 40.8278C6.44275 39.0621 7.48194 37.8799 9.22248 37.7906C11.3675 37.6746 13.5312 37.6421 15.6657 37.8219C16.2817 37.873 17.218 38.7164 17.315 39.3092C17.4857 40.3451 16.6078 40.8672 15.5371 40.8672H9.45045Z" fill="#E43C5C"/>
<path d="M15.0054 50.175C17.2673 50.175 19.5292 50.1877 21.7852 50.175C22.8372 50.1668 23.6649 50.5114 23.721 51.6332C23.7817 52.8502 22.9413 53.2991 21.8226 53.3015C17.3027 53.3076 12.7798 53.3076 8.25365 53.3015C7.14433 53.3015 6.26645 52.878 6.31437 51.6657C6.3623 50.4534 7.28341 50.1576 8.37753 50.1703C10.5903 50.1924 12.7973 50.175 15.0054 50.175Z" fill="#E43C5C"/>
<path d="M59.8608 53.293C57.6597 53.293 55.4586 53.293 53.2587 53.293C52.1587 53.293 51.2715 52.9287 51.2715 51.7175C51.2715 50.5064 52.1447 50.1595 53.2587 50.1641C57.7147 50.1812 62.1702 50.1812 66.6254 50.1641C67.7196 50.1583 68.6582 50.4461 68.6991 51.6445C68.7447 52.9345 67.7932 53.3092 66.6254 53.3011C64.3717 53.286 62.1169 53.3011 59.862 53.3011L59.8608 53.293Z" fill="#E43C5C"/>
<path d="M51.1557 9.55681C46.9569 9.55681 42.758 9.54521 38.5592 9.56609C37.3622 9.57189 36.2541 9.35147 36.3044 7.93381C36.3511 6.62753 37.4359 6.46743 38.5592 6.46975C46.9569 6.48831 55.3545 6.48831 63.7521 6.46975C64.9269 6.46975 66.0304 6.5962 65.9836 8.09391C65.9392 9.48604 64.831 9.55913 63.7533 9.55797C59.5529 9.55719 55.3537 9.55681 51.1557 9.55681Z" fill="#E43C5C"/>
<path d="M34.5436 40.1839C37.5677 37.1536 40.2223 34.4993 42.8629 31.8427C43.6368 31.0619 44.4878 30.389 45.4849 31.3357C46.5369 32.3392 45.9022 33.2429 45.0629 34.0689C42.4655 36.6212 39.8974 39.2117 37.2906 41.7605C35.5127 43.5006 33.9113 43.4647 32.1146 41.7164C31.2695 40.8938 30.429 40.0667 29.6026 39.2244C28.8615 38.4692 28.6826 37.6096 29.4927 36.8323C30.2537 36.1026 31.0649 36.3288 31.7733 37.0144C32.2748 37.4994 32.7949 37.968 33.2543 38.4889C33.6798 38.9669 34.0375 39.5087 34.5436 40.1839Z" fill="#E43C5C"/>
<path d="M7.61078 9.73449C8.67406 9.73449 9.53602 8.87904 9.53602 7.82379C9.53602 6.76854 8.67406 5.91309 7.61078 5.91309C6.5475 5.91309 5.68555 6.76854 5.68555 7.82379C5.68555 8.87904 6.5475 9.73449 7.61078 9.73449Z" fill="#E43C5C"/>
<path d="M15.4096 9.73449C16.4729 9.73449 17.3348 8.87904 17.3348 7.82379C17.3348 6.76854 16.4729 5.91309 15.4096 5.91309C14.3463 5.91309 13.4844 6.76854 13.4844 7.82379C13.4844 8.87904 14.3463 9.73449 15.4096 9.73449Z" fill="#E43C5C"/>
<path d="M23.2104 9.73449C24.2737 9.73449 25.1356 8.87904 25.1356 7.82379C25.1356 6.76854 24.2737 5.91309 23.2104 5.91309C22.1471 5.91309 21.2852 6.76854 21.2852 7.82379C21.2852 8.87904 22.1471 9.73449 23.2104 9.73449Z" fill="#E43C5C"/>
</g>
<defs>
<clipPath id="clip0_749_722">
<rect width="75" height="74" fill="white"/>
</clipPath>
</defs>
</svg>
