<svg width="431" height="390" viewBox="0 0 431 390" fill="none" xmlns="http://www.w3.org/2000/svg">
<path d="M135.028 7.55496C135.028 7.55496 203.484 -16.8185 270.693 21.9913C337.902 60.801 371.807 137.827 400.927 199.558C430.047 261.288 413.311 324.038 362.006 352.653C310.702 381.269 275.779 339.059 203.829 337.004C131.879 334.949 112.507 345.249 52.7905 304.544C-6.92621 263.839 -17.7267 167.674 29.385 96.5729C76.4968 25.4719 135.028 7.55496 135.028 7.55496Z" fill="#EFEFEF" fill-opacity="0.54"/>
<path d="M18.5836 208.583L235.867 208.583L235.867 43.9201L18.5836 43.9201L18.5836 208.583Z" stroke="#263238" stroke-linecap="round" stroke-linejoin="round"/>
<path d="M23.6524 204.225L230.79 204.225L230.79 48.2865L23.6524 48.2865L23.6524 204.225Z" stroke="#263238" stroke-linecap="round" stroke-linejoin="round"/>
<path d="M167.659 71.1369C167.659 71.1369 201.502 68.6925 204.351 73.9976C207.199 79.3027 205.173 176.469 203.537 177.691C201.901 178.913 156.239 179.728 151.755 178.098C147.27 176.469 153.391 77.6731 153.391 74.8124C153.391 71.9517 164.006 70.7295 164.006 70.7295" stroke="#263238" stroke-width="2" stroke-linecap="round" stroke-linejoin="round"/>
<path d="M200.857 151.599C200.786 164.406 200.512 173.794 199.866 174.051C197.832 174.866 154.612 178.541 153.392 174.458C152.171 170.375 156.647 78.1157 156.647 78.1157" stroke="#263238" stroke-width="2" stroke-linecap="round" stroke-linejoin="round"/>
<path d="M158.283 77.7084C158.283 77.7084 199.46 76.0788 199.858 78.1158C200.123 79.4178 200.875 117.67 200.866 145.47" stroke="#263238" stroke-width="2" stroke-linecap="round" stroke-linejoin="round"/>
<path d="M198.645 85.0508H158.689" stroke="#263238" stroke-width="2" stroke-linecap="round" stroke-linejoin="round"/>
<path d="M162.36 83.2085C164.802 85.7947 162.36 83.2085 160.724 79.5153C159.087 75.8221 162.36 80.2504 166.031 83.2085C169.702 86.1667 167.659 83.9436 166.438 79.8784C165.217 75.8133 167.659 79.8784 170.923 82.4646C174.187 85.0507 172.55 83.9436 171.33 79.5153C170.109 75.087 171.33 79.5153 176.221 82.4646C181.113 85.4138 178.672 85.4227 176.221 80.9944C173.771 76.5661 177.849 80.9944 182.334 82.4646C186.818 83.9348 182.334 82.4646 180.706 78.3994C179.079 74.3342 183.563 79.5153 186.818 81.7295C190.074 83.9436 186.818 81.7295 186.005 79.1433C185.191 76.5572 188.048 79.8785 191.312 83.2085C194.576 86.5386 191.312 83.2085 190.905 80.2504C190.498 77.2923 194.576 85.0596 194.576 85.0596C194.576 85.0596 193.355 77.6643 194.169 79.5153C194.712 80.702 195.398 81.8174 196.212 82.8366" stroke="#C43E5B" stroke-width="1.5" stroke-linecap="round" stroke-linejoin="round"/>
<path d="M176.619 112.816H196.602V91.994H176.619V112.816Z" stroke="#C43E5B" stroke-width="2" stroke-linecap="round" stroke-linejoin="round"/>
<path d="M192.524 91.9941L195.788 95.6696L188.854 93.2164L195.788 99.7525L184.369 92.4015L195.788 104.65L180.291 93.2164L196.602 108.326L177.036 94.8548L196.602 112.816L177.036 99.7525L190.897 111.992L176.629 104.243L185.598 111.585L177.036 108.733L178.663 111.585" stroke="#C43E5B" stroke-width="1.5" stroke-linecap="round" stroke-linejoin="round"/>
<path d="M159.406 171.598H174.683V155.673H159.406V171.598Z" stroke="#C43E5B" stroke-width="2" stroke-linecap="round" stroke-linejoin="round"/>
<path d="M171.569 155.682L174.063 158.49L168.756 156.612L174.063 161.607L165.333 155.992L174.063 165.354L162.21 156.612L174.683 168.161L159.716 157.861L174.683 171.597L159.716 161.607L170.313 170.978L159.406 165.044L166.262 170.659L159.716 168.48L160.963 170.659" stroke="#C43E5B" stroke-width="1.5" stroke-linecap="round" stroke-linejoin="round"/>
<path d="M197.009 120.565H157.867" stroke="#263238" stroke-width="2" stroke-linecap="round" stroke-linejoin="round"/>
<path d="M197.416 124.241L158.689 124.649" stroke="#263238" stroke-width="2" stroke-linecap="round" stroke-linejoin="round"/>
<path d="M172.551 93.2163H159.91" stroke="#263238" stroke-width="2" stroke-linecap="round" stroke-linejoin="round"/>
<path d="M172.551 98.1138H159.91" stroke="#263238" stroke-width="2" stroke-linecap="round" stroke-linejoin="round"/>
<path d="M172.551 103.012H159.91" stroke="#263238" stroke-width="2" stroke-linecap="round" stroke-linejoin="round"/>
<path d="M172.551 107.918H159.91" stroke="#263238" stroke-width="2" stroke-linecap="round" stroke-linejoin="round"/>
<path d="M158.68 145.063H196.602V126.694H158.68V145.063Z" stroke="#C43E5B" stroke-width="2" stroke-linecap="round" stroke-linejoin="round"/>
<path d="M197.009 130.37L191.71 127.102L197.831 136.49L187.632 127.102L196.602 140.573L180.706 126.694L194.567 143.026L177.442 127.102L190.489 143.026L171.737 126.694L186.818 144.656L168.066 127.102L182.334 143.841L163.174 126.694L177.849 144.656L158.689 126.694L172.551 144.248L159.503 132.814L168.066 143.433L159.503 137.712L161.184 140.449L162.758 143.026" stroke="#C43E5B" stroke-width="1.5" stroke-linecap="round" stroke-linejoin="round"/>
<path d="M194.974 149.961H159.91" stroke="#263238" stroke-width="2" stroke-linecap="round" stroke-linejoin="round"/>
<path d="M195.788 154.451H184.368" stroke="#263238" stroke-width="2" stroke-linecap="round" stroke-linejoin="round"/>
<path d="M151.755 80.1527L123.768 76.7163" stroke="#263238" stroke-width="2" stroke-linecap="round" stroke-linejoin="round"/>
<path d="M156.239 100.16H126.881" stroke="#263238" stroke-width="2" stroke-linecap="round" stroke-linejoin="round"/>
<path d="M202.723 137.305L215.363 141.795" stroke="#263238" stroke-width="2" stroke-linecap="round" stroke-linejoin="round"/>
<path d="M166.845 174.458C166.845 174.458 169.287 187.114 152.577 190.4" stroke="#263238" stroke-width="2" stroke-linecap="round" stroke-linejoin="round"/>
<path d="M155.019 187.114L150.941 190.79L156.647 192.419" stroke="#263238" stroke-width="2" stroke-linecap="round" stroke-linejoin="round"/>
<path d="M130.551 96.4844L124.032 100.567L129.738 103.012" stroke="#263238" stroke-width="2" stroke-linecap="round" stroke-linejoin="round"/>
<path d="M129.066 75.4854L122.131 76.309L127.022 80.7905" stroke="#263238" stroke-width="2" stroke-linecap="round" stroke-linejoin="round"/>
<path d="M213.727 137.712L220.662 143.433L212.1 143.841" stroke="#263238" stroke-width="2" stroke-linecap="round" stroke-linejoin="round"/>
<path d="M106.492 112.816H121.989V96.4843H106.492V112.816Z" fill="#2A4A94"/>
<path d="M118.318 100.16L109.349 100.567" stroke="#263238" stroke-width="2" stroke-linecap="round" stroke-linejoin="round"/>
<path d="M118.318 103.428L109.349 103.835" stroke="#263238" stroke-width="2" stroke-linecap="round" stroke-linejoin="round"/>
<path d="M118.318 106.687L109.349 107.094" stroke="#263238" stroke-width="2" stroke-linecap="round" stroke-linejoin="round"/>
<path d="M129.266 134.668L144.656 136.486L146.568 120.267L131.177 118.449L129.266 134.668Z" fill="#C43E5B"/>
<path d="M142.466 123.523L133.506 122.877" stroke="#263238" stroke-width="2" stroke-linecap="round" stroke-linejoin="round"/>
<path d="M142.087 126.774L133.126 126.127" stroke="#263238" stroke-width="2" stroke-linecap="round" stroke-linejoin="round"/>
<path d="M141.706 130.016L132.745 129.369" stroke="#263238" stroke-width="2" stroke-linecap="round" stroke-linejoin="round"/>
<path d="M209.583 162.419L224.974 164.238L226.885 148.019L211.494 146.2L209.583 162.419Z" fill="#C43E5B"/>
<path d="M222.785 151.289L213.833 150.643" stroke="#263238" stroke-width="2" stroke-linecap="round" stroke-linejoin="round"/>
<path d="M222.405 154.531L213.453 153.884" stroke="#263238" stroke-width="2" stroke-linecap="round" stroke-linejoin="round"/>
<path d="M222.024 157.772L213.063 157.125" stroke="#263238" stroke-width="2" stroke-linecap="round" stroke-linejoin="round"/>
<path d="M133.068 196.516L148.479 194.875L146.754 178.635L131.343 180.276L133.068 196.516Z" fill="#2A4A94"/>
<path d="M143.511 182.624L134.63 183.979" stroke="#263238" stroke-width="2" stroke-linecap="round" stroke-linejoin="round"/>
<path d="M143.856 185.875L134.975 187.23" stroke="#263238" stroke-width="2" stroke-linecap="round" stroke-linejoin="round"/>
<path d="M144.2 189.116L135.319 190.471" stroke="#263238" stroke-width="2" stroke-linecap="round" stroke-linejoin="round"/>
<path d="M18.5925 214.154L235.867 214.154V208.592L18.5925 208.592V214.154Z" fill="#263238" stroke="#263238" stroke-linecap="round" stroke-linejoin="round"/>
<path d="M287.791 247.879V237.5H256.584V247.879C256.579 251.278 255.412 254.573 253.275 257.214L251.896 258.897H292.461L291.09 257.206C288.959 254.565 287.795 251.274 287.791 247.879Z" fill="#263238" stroke="#263238" stroke-linecap="round" stroke-linejoin="round"/>
<path d="M286.022 247.879V237.5H254.815V247.879C254.811 251.278 253.643 254.573 251.507 257.214L250.127 258.897H290.693L289.322 257.206C287.19 254.565 286.026 251.274 286.022 247.879Z" fill="white" stroke="#263238" stroke-linecap="round" stroke-linejoin="round"/>
<path d="M286.261 240.431H254.938V243.611H286.261V240.431Z" fill="#263238"/>
<path d="M325.606 148.579H215.213C211.07 148.579 207.712 151.942 207.712 156.09V233.257C207.712 237.405 211.07 240.768 215.213 240.768H325.606C329.749 240.768 333.107 237.405 333.107 233.257V156.09C333.107 151.942 329.749 148.579 325.606 148.579Z" fill="#263238" stroke="#263238" stroke-linecap="round" stroke-linejoin="round"/>
<path d="M328.976 148.579H218.583C214.44 148.579 211.082 151.942 211.082 156.09V233.257C211.082 237.405 214.44 240.768 218.583 240.768H328.976C333.119 240.768 336.477 237.405 336.477 233.257V156.09C336.477 151.942 333.119 148.579 328.976 148.579Z" fill="#263238" stroke="#263238" stroke-linecap="round" stroke-linejoin="round"/>
<path d="M207.712 226.438H333.116V233.257C333.116 235.249 332.326 237.159 330.919 238.568C329.512 239.976 327.604 240.768 325.615 240.768H215.222C213.232 240.768 211.324 239.976 209.918 238.568C208.511 237.159 207.721 235.249 207.721 233.257V226.438H207.712Z" fill="white" stroke="#263238" stroke-linecap="round" stroke-linejoin="round"/>
<path d="M326.8 154.318H214.019V219.449H326.8V154.318Z" fill="white"/>
<path d="M253.267 161.102H231.083C229.597 161.102 228.394 162.307 228.394 163.794V209.672C228.394 211.159 229.597 212.364 231.083 212.364H253.267C254.753 212.364 255.956 211.159 255.956 209.672V163.794C255.956 162.307 254.753 161.102 253.267 161.102Z" fill="#263238"/>
<path d="M253.648 165.398H230.711V208.051H253.648V165.398Z" fill="#C43E5B"/>
<path d="M283.882 166.115H263.121V168.267H283.882V166.115Z" fill="#263238"/>
<path d="M273.152 170.783H263.483V180.817H273.152V170.783Z" fill="#C43E5B"/>
<path d="M282.448 201.604H277.273V206.979H282.448V201.604Z" fill="#C43E5B"/>
<path d="M283.413 187.982H263.723V198.016H283.413V187.982Z" fill="#2A4A94"/>
<path d="M274.938 171.491H282.811" stroke="#263238" stroke-linecap="round" stroke-linejoin="round"/>
<path d="M274.938 174.006H282.811" stroke="#263238" stroke-linecap="round" stroke-linejoin="round"/>
<path d="M274.938 176.513H282.811" stroke="#263238" stroke-linecap="round" stroke-linejoin="round"/>
<path d="M274.938 179.019H282.811" stroke="#263238" stroke-linecap="round" stroke-linejoin="round"/>
<path d="M264.076 184.758H283.05" stroke="#263238" stroke-linecap="round" stroke-linejoin="round"/>
<path d="M264.076 200.532H283.05" stroke="#263238" stroke-linecap="round" stroke-linejoin="round"/>
<path d="M285.677 163.972H261.334V209.14H285.677V163.972Z" stroke="#263238" stroke-linecap="round" stroke-linejoin="round"/>
<path d="M315.39 163.972H292.479V180.817H315.39V163.972Z" fill="#BFBFBF"/>
<path d="M315.39 163.972H292.479V167.559H315.39V163.972Z" fill="#2A4A94"/>
<path d="M300.246 170.163H294.258V175.964H300.246V170.163Z" stroke="#263238" stroke-linecap="round" stroke-linejoin="round"/>
<path d="M312.223 170.163H306.234V175.964H312.223V170.163Z" stroke="#263238" stroke-linecap="round" stroke-linejoin="round"/>
<path d="M313.196 166.009C313.196 166.184 313.144 166.355 313.047 166.501C312.95 166.646 312.811 166.76 312.65 166.827C312.488 166.894 312.31 166.912 312.139 166.877C311.967 166.843 311.81 166.759 311.686 166.635C311.562 166.511 311.478 166.353 311.444 166.182C311.41 166.01 311.427 165.832 311.494 165.67C311.561 165.508 311.674 165.37 311.82 165.272C311.965 165.175 312.136 165.123 312.311 165.123C312.546 165.123 312.771 165.216 312.937 165.382C313.103 165.549 313.196 165.774 313.196 166.009Z" fill="white"/>
<path d="M308.163 166.877C308.642 166.877 309.03 166.488 309.03 166.009C309.03 165.53 308.642 165.141 308.163 165.141C307.684 165.141 307.296 165.53 307.296 166.009C307.296 166.488 307.684 166.877 308.163 166.877Z" fill="white"/>
<path d="M313.558 189.948H296.018V202.852H313.558V189.948Z" fill="#BFBFBF"/>
<path d="M313.558 189.948H296.018V192.694H313.558V189.948Z" fill="#2A4A94"/>
<path d="M311.878 191.507C311.878 191.683 311.808 191.852 311.683 191.977C311.559 192.101 311.39 192.171 311.214 192.171C311.038 192.171 310.87 192.101 310.745 191.977C310.621 191.852 310.551 191.683 310.551 191.507C310.551 191.331 310.621 191.162 310.745 191.037C310.87 190.913 311.038 190.843 311.214 190.843C311.39 190.843 311.559 190.913 311.683 191.037C311.808 191.162 311.878 191.331 311.878 191.507Z" fill="white"/>
<path d="M308.702 191.507C308.704 191.641 308.666 191.772 308.593 191.883C308.52 191.995 308.416 192.083 308.293 192.135C308.17 192.187 308.035 192.202 307.904 192.177C307.773 192.152 307.652 192.089 307.557 191.995C307.463 191.901 307.398 191.781 307.371 191.65C307.344 191.52 307.357 191.384 307.408 191.26C307.458 191.137 307.545 191.031 307.655 190.957C307.766 190.882 307.896 190.843 308.03 190.843C308.206 190.843 308.376 190.912 308.502 191.037C308.628 191.161 308.7 191.33 308.702 191.507Z" fill="white"/>
<path d="M225.103 157.737H217.734V215.597H225.103V157.737Z" fill="#BFBFBF"/>
<path d="M225.103 157.737H217.734V160.394H225.103V157.737Z" fill="#263238"/>
<path d="M223.041 162.165H219.503V166.301H223.041V162.165Z" stroke="#263238" stroke-linecap="round" stroke-linejoin="round"/>
<path d="M223.041 168.949H219.503V173.085H223.041V168.949Z" stroke="#263238" stroke-linecap="round" stroke-linejoin="round"/>
<path d="M223.041 175.742H219.503V179.878H223.041V175.742Z" stroke="#263238" stroke-linecap="round" stroke-linejoin="round"/>
<path d="M223.041 182.535H219.503V186.671H223.041V182.535Z" stroke="#263238" stroke-linecap="round" stroke-linejoin="round"/>
<path d="M223.041 189.319H219.503V193.455H223.041V189.319Z" stroke="#263238" stroke-linecap="round" stroke-linejoin="round"/>
<path d="M223.041 196.112H219.503V200.248H223.041V196.112Z" stroke="#263238" stroke-linecap="round" stroke-linejoin="round"/>
<path d="M223.041 202.906H219.503V207.042H223.041V202.906Z" stroke="#263238" stroke-linecap="round" stroke-linejoin="round"/>
<path d="M223.041 209.69H219.503V213.826H223.041V209.69Z" stroke="#263238" stroke-linecap="round" stroke-linejoin="round"/>
<path d="M323.59 157.144H229.826V159.508H323.59V157.144Z" fill="#BFBFBF"/>
<path d="M323.59 214.419H229.826V216.784H323.59V214.419Z" fill="#BFBFBF"/>
<path d="M290.702 258.906H250.136V260.757H290.702V258.906Z" fill="#263238" stroke="#263238" stroke-linecap="round" stroke-linejoin="round"/>
<path d="M317.221 257.392H223.042V260.757H317.221V257.392Z" fill="white" stroke="#263238" stroke-linecap="round" stroke-linejoin="round"/>
<path d="M138.654 388.762H134.815L132.904 271.261H140.565L138.654 388.762Z" fill="white" stroke="#263238" stroke-linecap="round" stroke-linejoin="round"/>
<path d="M138.654 388.762H136.956L137.186 271.261H140.565L138.654 388.762Z" fill="#263238" stroke="#263238" stroke-linecap="round" stroke-linejoin="round"/>
<path d="M193.25 388.762H189.419L187.5 271.261H195.169L193.25 388.762Z" fill="white" stroke="#263238" stroke-linecap="round" stroke-linejoin="round"/>
<path d="M193.249 388.762H191.56L191.79 271.261H195.169L193.249 388.762Z" fill="#263238" stroke="#263238" stroke-linecap="round" stroke-linejoin="round"/>
<path d="M173.701 388.762H169.871L167.951 271.261H175.62L173.701 388.762Z" fill="#263238" stroke="#263238" stroke-linecap="round" stroke-linejoin="round"/>
<path d="M173.7 388.762H172.011L172.232 271.261H175.62L173.7 388.762Z" fill="#263238" stroke="#263238" stroke-linecap="round" stroke-linejoin="round"/>
<path d="M210.595 388.762H206.756L204.846 271.261H212.506L210.595 388.762Z" fill="#263238" stroke="#263238" stroke-linecap="round" stroke-linejoin="round"/>
<path d="M210.596 388.762H208.897L209.127 271.261H212.506L210.596 388.762Z" fill="#263238" stroke="#263238" stroke-linecap="round" stroke-linejoin="round"/>
<path d="M213.47 273.05H153.338V346.56H213.47V273.05Z" fill="#263238" stroke="#263238" stroke-linecap="round" stroke-linejoin="round"/>
<path d="M196.868 273.05H136.735V346.56H196.868V273.05Z" fill="white" stroke="#263238" stroke-linecap="round" stroke-linejoin="round"/>
<path d="M318.327 388.762H314.488L312.577 271.261H320.237L318.327 388.762Z" fill="white" stroke="#263238" stroke-linecap="round" stroke-linejoin="round"/>
<path d="M318.326 388.762H316.628L316.858 271.261H320.237L318.326 388.762Z" fill="#263238" stroke="#263238" stroke-linecap="round" stroke-linejoin="round"/>
<path d="M353.373 388.762H349.534L347.623 271.261H355.283L353.373 388.762Z" fill="#263238" stroke="#263238" stroke-linecap="round" stroke-linejoin="round"/>
<path d="M353.373 388.762H351.684L351.905 271.261H355.284L353.373 388.762Z" fill="#263238" stroke="#263238" stroke-linecap="round" stroke-linejoin="round"/>
<path d="M357.707 266.833H127.845V274.919H357.707V266.833Z" fill="white" stroke="#263238" stroke-linecap="round" stroke-linejoin="round"/>
<path d="M357.707 266.833H127.845V270.871H357.707V266.833Z" fill="#263238" stroke="#263238" stroke-linecap="round" stroke-linejoin="round"/>
<path d="M357.707 266.833H323.775V274.919H357.707V266.833Z" fill="#263238" stroke="#263238" stroke-linecap="round" stroke-linejoin="round"/>
<path d="M365.138 260.332H121.609V268.418H365.138V260.332Z" fill="white" stroke="#263238" stroke-linecap="round" stroke-linejoin="round"/>
<path d="M365.138 260.332H331.206V268.418H365.138V260.332Z" fill="#263238" stroke="#263238" stroke-linecap="round" stroke-linejoin="round"/>
<path d="M193.188 280.118H140.557V305.802H193.188V280.118Z" fill="white" stroke="#263238" stroke-linecap="round" stroke-linejoin="round"/>
<path d="M172.621 290.303H161.122V294.288H172.621V290.303Z" fill="#263238" stroke="#263238" stroke-linecap="round" stroke-linejoin="round"/>
<path d="M193.188 312.444H140.557V338.129H193.188V312.444Z" fill="white" stroke="#263238" stroke-linecap="round" stroke-linejoin="round"/>
<path d="M172.621 322.629H161.122V326.615H172.621V322.629Z" fill="#263238" stroke="#263238" stroke-linecap="round" stroke-linejoin="round"/>
<path d="M274.213 320.096H289.94V288.425H274.213V320.096Z" fill="#AA2246"/>
<path d="M278.141 352.707H286.005V308.849H278.141V352.707Z" fill="#263238"/>
<path d="M285.279 349.341C285.279 349.341 291.878 356.842 308.861 359.455C317.84 360.846 327.172 362.564 335.274 366.859C340.493 369.622 350.869 375.663 350.869 382.571C350.877 383.585 350.637 384.587 350.168 385.486C349.7 386.386 349.018 387.157 348.182 387.731C347.347 388.305 346.384 388.666 345.377 388.78C344.37 388.895 343.35 388.76 342.408 388.388C341.465 388.016 340.628 387.418 339.969 386.647C339.311 385.875 338.852 384.954 338.633 383.963C338.413 382.973 338.44 381.944 338.71 380.966C338.981 379.988 339.487 379.091 340.184 378.355C335.941 371.965 329.363 367.497 321.864 365.912C308.941 363.104 299.512 364.247 281.343 352.148L285.279 349.341Z" fill="#263238"/>
<path d="M279.653 349.341C279.653 349.341 273.045 356.842 256.07 359.455C247.092 360.846 237.76 362.564 229.649 366.859C224.439 369.622 214.063 375.663 214.063 382.571C214.055 383.585 214.295 384.587 214.764 385.486C215.232 386.386 215.914 387.157 216.75 387.731C217.585 388.305 218.548 388.666 219.555 388.78C220.562 388.895 221.582 388.76 222.524 388.388C223.467 388.016 224.304 387.418 224.963 386.647C225.621 385.875 226.08 384.954 226.299 383.963C226.519 382.973 226.492 381.944 226.222 380.966C225.951 379.988 225.445 379.091 224.748 378.355C228.987 371.968 235.558 367.501 243.05 365.912C255.964 363.104 265.394 364.247 283.571 352.148L279.653 349.341Z" fill="#263238"/>
<path d="M279.388 388.762H285.323C285.646 388.762 285.907 388.5 285.907 388.177V377.726C285.907 377.404 285.646 377.142 285.323 377.142H279.388C279.066 377.142 278.804 377.404 278.804 377.726V388.177C278.804 388.5 279.066 388.762 279.388 388.762Z" fill="#263238"/>
<path d="M280.671 388.762H284.041V350.386H280.671V388.762Z" fill="#263238"/>
<path d="M320.166 196.98C318.203 207.465 317.02 218.081 316.628 228.74C316.38 236.959 316.239 244 316.124 250.218C315.744 269.507 315.54 280.206 312.497 283.093C312.108 283.35 309.605 284.909 304.342 285.343C302.873 285.467 298.212 285.529 291.86 285.564C271.719 285.502 250.543 285.334 250.206 285.334H248.977C248.924 285.334 248.888 285.432 248.835 285.476C236.743 285.414 233.621 285.334 233.4 285.334H232.17C229.64 287.539 231.153 290.374 233.356 290.4C235.019 290.4 263.846 290.648 283.554 290.648C287.093 290.648 290.33 290.648 293.285 290.648H306.553C316.876 290.648 325.429 290.586 327.782 290.391C335.071 289.78 338.344 287.309 338.698 287.035C343.563 282.704 343.749 273.227 344.191 250.315C344.315 244.115 344.448 237.083 344.695 228.9C345.102 218.196 346.314 207.537 348.322 197.016L320.166 196.98Z" fill="#C43E5B" stroke="#263238" stroke-linecap="round" stroke-linejoin="round"/>
<path d="M355.351 227.778C355.351 227.778 357.005 230.905 355.537 233.836C354.068 236.768 352.237 239.708 353.334 241.178C354.431 242.649 357.757 244.482 357.368 247.599C356.979 250.717 352.609 256.961 355.351 260.45C358.093 263.94 362.684 263.754 362.87 267.607C363.056 271.459 358.447 274.577 359.747 278.066C361.048 281.556 368.549 282.291 368.549 284.673C368.549 287.056 365.612 289.624 368 292.201C370.389 294.779 381.914 301.465 383.56 298.72C385.205 295.974 388.531 288.34 386.346 277.535C385.974 275.719 383.392 275.312 383.029 272.743C382.666 270.175 383.763 265.587 381.932 263.001C380.101 260.415 374.228 259.512 373.865 257.492C373.502 255.473 376.067 250.522 373.493 247.396C370.919 244.269 364.887 242.808 364.887 240.789C364.887 238.769 366.718 236.201 364.152 233.455C361.587 230.71 355.351 227.778 355.351 227.778Z" fill="#2A4A94"/>
<path d="M364.135 249.433C367.956 260.946 374.643 276.596 377.403 284.151C380.703 293.326 383.595 299.969 385.037 309.144C386.479 318.319 387.301 379.776 387.301 379.776" stroke="#263238" stroke-linecap="round" stroke-linejoin="round"/>
<path d="M356.279 228.886C356.279 228.886 359.393 231.454 362.144 242.649C362.321 243.366 362.524 244.128 362.754 244.925" stroke="#263238" stroke-linecap="round" stroke-linejoin="round"/>
<path d="M412.652 248.688C412.28 249.437 412.074 250.259 412.049 251.095C412.025 251.932 412.182 252.764 412.511 253.533C413.678 255.889 415.165 258.236 414.28 259.414C413.395 260.592 410.742 262.071 411.051 264.551C411.361 267.031 414.864 272.043 412.661 274.833C410.459 277.623 406.797 277.49 406.646 280.563C406.496 283.637 410.184 286.143 409.141 288.933C408.097 291.723 402.064 292.307 402.064 294.247C402.064 296.187 404.417 298.215 402.507 300.269C400.596 302.324 391.379 307.691 390.052 305.486C388.725 303.281 386.08 297.187 387.823 288.534C388.124 287.082 390.185 286.763 390.476 284.7C390.768 282.636 389.893 278.969 391.361 276.915C392.829 274.86 397.553 274.125 397.809 272.486C398.066 270.848 396.04 266.898 398.11 264.409C400.18 261.92 405.001 260.733 405.001 259.095C405.001 257.457 403.533 255.419 405.585 253.214C407.637 251.009 412.652 248.688 412.652 248.688Z" fill="#2A4A94"/>
<path d="M405.629 265.995C402.577 275.232 397.226 287.738 395.014 293.778C392.361 301.12 390.079 306.443 388.911 313.785C387.743 321.127 387.098 370.308 387.098 370.308" stroke="#263238" stroke-linecap="round" stroke-linejoin="round"/>
<path d="M411.963 249.574C411.963 249.574 409.477 251.629 407.275 260.583C407.133 261.168 406.965 261.77 406.788 262.416" stroke="#263238" stroke-linecap="round" stroke-linejoin="round"/>
<path d="M362.214 290.279C362.527 290.905 362.7 291.59 362.722 292.289C362.743 292.988 362.612 293.684 362.338 294.327C361.356 296.293 360.127 298.25 360.861 299.233C361.595 300.216 363.807 301.439 363.515 303.529C363.223 305.619 360.33 309.79 362.17 312.12C364.01 314.449 367.071 314.325 367.194 316.902C367.318 319.48 364.249 321.57 365.107 323.899C365.965 326.228 370.989 326.724 370.989 328.327C370.989 329.93 369.034 331.64 370.627 333.358C372.219 335.076 379.923 339.558 381.029 337.715C382.135 335.873 384.355 330.781 382.895 323.545C382.648 322.331 380.923 322.057 380.675 320.339C380.427 318.621 381.162 315.556 379.941 313.838C378.72 312.12 374.793 311.509 374.545 310.154C374.297 308.799 376.013 305.495 374.306 303.405C372.599 301.315 368.539 300.34 368.539 298.977C368.539 297.613 369.768 295.912 368.052 294.07C366.336 292.228 362.214 290.279 362.214 290.279Z" fill="#2A4A94"/>
<path d="M368.079 304.733C370.635 312.448 375.103 322.898 376.925 327.947C379.136 334.084 381.056 338.521 382.029 344.659C383.002 350.797 383.55 373.567 383.55 373.567" stroke="#263238" stroke-linecap="round" stroke-linejoin="round"/>
<path d="M362.825 291.059C362.825 291.059 364.913 292.777 366.744 300.261C366.868 300.739 367 301.253 367.151 301.784" stroke="#263238" stroke-linecap="round" stroke-linejoin="round"/>
<path d="M425.346 287.224C424.897 287.76 424.571 288.386 424.389 289.061C424.207 289.735 424.175 290.441 424.293 291.13C424.806 293.273 425.549 295.461 424.603 296.249C423.656 297.037 421.241 297.728 421.003 299.792C420.764 301.855 422.674 306.62 420.348 308.462C418.022 310.304 415.041 309.49 414.368 312.005C413.696 314.52 416.137 317.222 414.793 319.294C413.448 321.366 408.424 320.693 408.061 322.243C407.699 323.793 409.211 325.919 407.265 327.229C405.319 328.54 396.792 331.135 396.138 329.089C395.483 327.044 394.492 321.57 397.562 314.875C398.084 313.75 399.826 313.883 400.454 312.262C401.082 310.641 401.073 307.497 402.657 306.062C404.24 304.627 408.203 304.973 408.751 303.715C409.3 302.458 408.38 298.844 410.52 297.206C412.661 295.567 416.827 295.54 417.137 294.221C417.447 292.901 416.642 290.953 418.738 289.553C420.835 288.154 425.346 287.224 425.346 287.224Z" fill="#2A4A94"/>
<path d="M416.324 299.916C412.078 306.842 405.337 315.991 402.418 320.49C398.88 325.955 394.608 329.453 393.626 335.591C392.644 341.728 392.113 364.499 392.113 364.499" stroke="#263238" stroke-linecap="round" stroke-linejoin="round"/>
<path d="M424.576 287.8C424.576 287.8 422.152 288.995 418.658 295.859C418.428 296.302 418.18 296.745 417.906 297.25" stroke="#263238" stroke-linecap="round" stroke-linejoin="round"/>
<path d="M381.808 386.711H395.439C402.613 383.009 407.708 373.629 407.708 362.647C407.825 356.058 405.814 349.606 401.976 344.252H375.271C371.434 349.592 369.412 356.025 369.504 362.603C369.504 373.585 374.634 382.964 381.808 386.711Z" fill="white" stroke="#263238" stroke-linecap="round" stroke-linejoin="round"/>
<path d="M395.686 386.666H381.808V388.703H395.686V386.666Z" fill="white" stroke="#263238" stroke-linecap="round" stroke-linejoin="round"/>
<path d="M55.4086 362.919L53.4183 373.325C53.4183 373.325 55.1874 377.089 62.0428 380.189C68.8981 383.289 72.2152 384.617 72.2152 385.503C72.2152 386.389 72.6575 388.381 70.8884 389.046C69.1192 389.71 31.5254 389.046 31.5254 389.046C31.5254 389.046 29.5352 388.16 29.5352 383.953C29.5352 379.746 31.3043 371.997 31.3043 370.225C31.3043 368.454 32.5515 364.185 32.5515 363.583C32.5515 362.981 47.6687 363.804 47.6687 363.804C47.6687 363.804 52.0915 359.597 55.4086 362.919Z" fill="white" stroke="#263238" stroke-linecap="round" stroke-linejoin="round"/>
<path d="M47.6681 363.804C47.6681 363.804 46.5624 373.767 45.899 374.432C45.2355 375.096 31.3037 375.096 31.3037 375.096" fill="white"/>
<path d="M47.6681 363.804C47.6681 363.804 46.5624 373.767 45.899 374.432C45.2355 375.096 31.3037 375.096 31.3037 375.096" stroke="#263238" stroke-linecap="round" stroke-linejoin="round"/>
<path d="M31.3037 370.216L46.7835 370.438" stroke="#263238" stroke-linecap="round" stroke-linejoin="round"/>
<path d="M72.2153 387.265H29.9775" stroke="#263238" stroke-linecap="round" stroke-linejoin="round"/>
<path d="M27.7656 238.111C27.7656 238.111 40.0256 279.436 41.5205 285.122C43.0154 290.808 34.3468 340.821 34.3468 341.725C34.3468 342.628 33.1526 345.32 33.1526 348.314C33.1526 351.307 34.3468 352.202 33.7453 353.105C33.1438 354.009 31.0916 356.099 31.3569 357.897C31.449 359.28 32.0853 360.57 33.1261 361.484C33.7827 362.177 34.6045 362.692 35.5144 362.98H42.697C42.697 362.98 44.4661 349.509 49.2781 313.87C54.0902 278.231 46.2795 257.879 44.7846 251.29C43.7667 247.039 42.2618 242.919 40.2998 239.014L27.7656 238.111Z" fill="#263238" stroke="#263238" stroke-linecap="round" stroke-linejoin="round"/>
<path d="M65.5804 362.919L63.5902 373.325C63.5902 373.325 65.3593 377.089 72.2146 380.189C79.07 383.289 82.3871 384.617 82.3871 385.503C82.3871 386.389 82.8294 388.381 81.0602 389.046C79.2911 389.71 41.6973 389.046 41.6973 389.046C41.6973 389.046 39.707 388.16 39.707 383.953C39.707 379.746 41.4762 371.997 41.4762 370.225C41.4762 368.454 42.7234 364.185 42.7234 363.583C42.7234 362.981 57.8405 363.804 57.8405 363.804C57.8405 363.804 62.2633 359.597 65.5804 362.919Z" fill="white" stroke="#263238" stroke-linecap="round" stroke-linejoin="round"/>
<path d="M57.8409 363.804C57.8409 363.804 56.7352 373.767 56.0718 374.432C55.4084 375.096 41.4766 375.096 41.4766 375.096" fill="white"/>
<path d="M57.8409 363.804C57.8409 363.804 56.7352 373.767 56.0718 374.432C55.4084 375.096 41.4766 375.096 41.4766 375.096" stroke="#263238" stroke-linecap="round" stroke-linejoin="round"/>
<path d="M41.4766 370.216L56.9564 370.438" stroke="#263238" stroke-linecap="round" stroke-linejoin="round"/>
<path d="M82.3872 387.265H40.1494" stroke="#263238" stroke-linecap="round" stroke-linejoin="round"/>
<path d="M77.1154 238.111C77.1154 238.111 77.4162 264.167 75.9213 275.247C74.4263 286.326 68.7386 312.073 67.8452 326.155C66.9518 340.237 65.448 346.817 65.448 346.817C65.448 346.817 67.5445 348.588 67.5445 350.404C67.5445 352.22 66.3503 352.175 66.6599 354.903C66.9695 357.631 68.1548 358.49 67.2526 359.686C66.3503 360.881 65.7577 363.282 62.7678 363.884C59.778 364.486 45.7223 364.185 42.7325 363.583C39.7427 362.98 38.2478 359.987 38.2478 357.596C38.2478 355.204 39.1323 353.398 39.1323 350.705C39.1323 348.013 37.6375 345.613 37.6375 343.815C37.6375 342.017 38.239 341.158 38.239 339.324C38.239 337.491 42.1222 308.787 42.1222 302.791C42.1222 296.795 42.4229 276.442 41.5207 271.35C40.6184 266.257 36.1426 242.008 36.1426 242.008L77.1154 238.111Z" fill="#C43E5B" stroke="#263238" stroke-linecap="round" stroke-linejoin="round"/>
<path d="M58.1766 246.897C54.6247 248.116 50.9219 248.841 47.1727 249.049C44.2918 249.123 41.4193 249.393 38.5748 249.855L36.9648 242.327L58.1766 246.897Z" fill="#263238" stroke="#263238" stroke-linecap="round" stroke-linejoin="round"/>
<path d="M61.4411 248.189C61.4411 248.189 59.9727 289.337 57.0183 303.056C54.0638 316.775 50.1717 339.306 51.1448 342.247C52.1178 345.187 53.595 352.042 53.595 352.042C53.595 352.042 48.208 351.059 48.208 354C48.208 356.94 56.0364 358.897 54.0815 360.367C52.1266 361.838 50.1806 363.458 50.1806 363.458" stroke="#263238" stroke-linecap="round" stroke-linejoin="round"/>
<path d="M44.024 353.353C44.024 353.353 60.2646 356.01 55.656 356.896C51.0475 357.782 42.2638 356.674 41.8215 355.576C41.3792 354.478 42.7414 353.132 44.024 353.353Z" fill="#263238" stroke="#263238" stroke-linecap="round" stroke-linejoin="round"/>
<path d="M115.745 68.8605L116.187 87.2469L98.876 87.0963L98.7256 68.71L115.745 68.8605Z" fill="#C43E5B"/>
<path d="M96.0362 102.79C96.0362 102.79 99.769 99.0529 101.414 95.6165C103.06 92.1802 105.439 90.09 105.439 87.6987C105.439 85.3074 104.395 79.772 104.846 77.5313C105.298 75.2906 104.846 70.6586 103.352 70.6586C103.004 70.6585 102.662 70.7372 102.349 70.8887C102.037 71.0401 101.763 71.2605 101.547 71.5331C101.332 71.8058 101.181 72.1237 101.106 72.4631C101.031 72.8025 101.033 73.1545 101.114 73.4927C101.414 74.9895 100.229 80.2237 100.229 80.2237C100.229 80.2237 99.0349 70.2069 98.8845 69.5958C98.7341 68.9846 96.6465 69.0024 95.7443 69.4541C94.842 69.9057 93.8071 69.7463 93.8071 71.6948C93.8071 73.6432 94.2582 75.8751 94.2582 76.3268C94.2582 76.7785 90.0743 79.1698 89.9239 80.9588C89.7735 82.7478 90.2246 87.0876 91.2684 88.9298C91.9823 90.0442 92.5754 91.2319 93.0375 92.4724C93.1879 93.0658 89.0039 99.3452 89.0039 99.3452L96.0362 102.79Z" fill="white" stroke="#263238" stroke-linecap="round" stroke-linejoin="round"/>
<path d="M89.0744 96.4668L99.2468 104.261C99.2468 104.261 81.9006 140.219 81.2991 141.388C80.6976 142.557 68.1457 150.368 68.1457 150.368L49.3311 127.013C49.3311 127.013 72.9577 119.529 73.5503 118.626C74.143 117.723 89.0744 96.4668 89.0744 96.4668Z" fill="#2A4A94" stroke="#263238" stroke-linecap="round" stroke-linejoin="round"/>
<path d="M77.0802 228.519L77.9647 242.468C77.9647 242.468 66.4654 247.339 54.0816 247.118C41.6977 246.896 25.1122 242.07 25.1122 242.07L22.6797 228.342C22.6797 228.342 52.5336 230.777 61.6004 229.892C70.6671 229.006 77.0802 228.519 77.0802 228.519Z" fill="white" stroke="#263238" stroke-linecap="round" stroke-linejoin="round"/>
<path d="M85.9253 224.091L86.5887 228.076C86.5887 228.076 77.2212 233.195 56.5137 235.162C43.7695 236.338 30.9189 234.983 18.6987 231.176L18.4775 224.312C29.4898 226.941 40.77 228.278 52.0909 228.298C63.479 228.002 74.811 226.593 85.9253 224.091Z" fill="#2A4A94" stroke="#263238" stroke-linecap="round" stroke-linejoin="round"/>
<path d="M69.1188 141.724C69.1188 141.724 76.4164 154.566 78.8489 164.53C81.2815 174.494 86.1466 220.548 86.81 223.205C87.4734 225.862 71.9936 231.176 61.8211 231.397C51.6487 231.619 28.8713 232.062 24.8907 230.512C20.9102 228.962 17.1508 226.748 17.1508 224.312C17.1508 221.877 16.9297 212.799 16.9297 205.492C16.9297 198.185 19.1411 159.659 21.1314 150.802C23.1216 141.945 24.4485 135.746 25.1119 134.639C25.7753 133.532 30.6404 128.218 40.5917 128.882C48.3587 129.455 55.9064 131.722 62.7057 135.524C65.2283 137.15 67.4073 139.257 69.1188 141.724Z" fill="#2A4A94" stroke="#263238" stroke-linecap="round" stroke-linejoin="round"/>
<path d="M135.815 156.036C135.815 156.036 139.406 157.533 139.698 161.129C139.99 164.725 133.418 168.311 129.535 173.705C125.651 179.099 120.565 184.785 120.565 184.785L112.781 195.563L103.511 187.778L127.394 159.924C127.394 159.924 126.2 157.267 127.695 156.337C128.96 155.748 130.33 155.418 131.724 155.366C133.119 155.314 134.51 155.542 135.815 156.036Z" fill="white" stroke="#263238" stroke-linecap="round" stroke-linejoin="round"/>
<path d="M135.214 164.424L108.296 155.434C108.296 155.434 106.527 162.927 98.4335 170.712C93.5817 175.402 88.3801 179.716 82.874 183.616L107.102 197.388L135.214 164.424Z" fill="white" stroke="#263238" stroke-linecap="round" stroke-linejoin="round"/>
<path d="M135.214 164.424C134.027 163.09 133.295 161.411 133.126 159.632C133.044 158.81 133.27 157.987 133.761 157.322C134.251 156.658 134.971 156.199 135.78 156.036L109.164 148.251C109.164 148.251 104.077 150.023 108.279 155.434L135.214 164.424Z" fill="white" stroke="#263238" stroke-linecap="round" stroke-linejoin="round"/>
<path d="M99.5477 192.898C99.5477 192.898 105.527 192.012 105.828 190.196C106.129 188.381 107.323 184.51 108.482 183.014C109.641 181.517 115.364 178.523 117.159 176.424C118.955 174.325 120.149 171.332 121.343 171.633C122.537 171.934 124.333 173.13 123.74 174.29C123.148 175.45 120.45 180.578 120.45 180.578L119.848 182.677C119.848 182.677 125.235 181.791 126.129 181.481C126.389 181.407 126.664 181.398 126.929 181.456C127.194 181.513 127.44 181.634 127.647 181.809C127.854 181.984 128.015 182.207 128.116 182.459C128.217 182.71 128.254 182.983 128.225 183.253C128.225 184.75 129.419 184.75 127.924 185.644C126.429 186.539 124.634 187.743 124.634 187.743C124.634 187.743 122.537 192.535 121.98 193.429C121.423 194.324 116.593 196.423 115.7 197.025C114.806 197.627 110.012 199.124 107.624 199.682C105.235 200.24 99.8484 202.383 99.8484 202.383L98.3535 195.493L99.5477 192.898Z" fill="white" stroke="#263238" stroke-linecap="round" stroke-linejoin="round"/>
<path d="M36.1426 151.573C36.1426 151.573 36.7352 177.027 36.7352 178.222C36.7352 179.418 35.8507 203.977 38.5043 206.067C41.158 208.158 54.3557 210.859 73.4976 210.265C92.6395 209.672 101.016 205.474 101.016 205.474L99.5213 192.898L63.0332 190.196C63.0332 190.196 66.9164 162.351 66.3238 152.768C65.7311 143.185 57.947 138.093 57.947 138.093" fill="#2A4A94"/>
<path d="M36.1426 151.573C36.1426 151.573 36.7352 177.026 36.7352 178.222C36.7352 179.418 35.8507 203.977 38.5043 206.067C41.158 208.158 54.3557 210.859 73.4976 210.265C92.6395 209.672 101.016 205.474 101.016 205.474L99.5213 192.898L63.0332 190.196C63.0332 190.196 66.9164 162.351 66.3238 152.768C65.7311 143.185 57.947 138.093 57.947 138.093" stroke="#263238" stroke-linecap="round" stroke-linejoin="round"/>
<path d="M75.9476 74.1479C75.9476 74.1479 80.963 82.8274 79.9988 83.9876C79.0347 85.1478 79.8043 87.2734 79.8043 87.2734C79.8043 87.2734 84.8197 91.1349 84.4305 92.4811C84.0413 93.8273 80.0077 97.5028 80.0077 97.5028C80.0077 97.5028 79.2381 107.927 78.2386 108.892C77.239 109.858 70.7198 111.009 69.393 111.204C68.6607 111.295 67.9456 111.492 67.2701 111.789L63.4222 132.628L41.8301 113.144L45.2975 103.906C45.2975 103.906 47.2259 91.5069 47.0667 85.7589C46.9074 80.011 56.903 73.0231 62.8738 71.2872C68.8445 69.5513 75.9476 74.1479 75.9476 74.1479Z" fill="white" stroke="#263238" stroke-linecap="round" stroke-linejoin="round"/>
<path d="M71.8964 62.3684C71.8964 62.3684 76.9119 57.1607 82.8915 61.2171C88.8711 65.2734 87.1286 71.845 81.7327 74.1477C76.3369 76.4505 69.9769 74.7234 72.091 77.0439C74.2051 79.3643 74.7447 84.3771 71.5161 85.3425C68.2874 86.3079 68.8182 89.9745 68.8182 91.5421C68.8182 93.1098 66.1645 92.8972 65.5364 91.5421C64.9084 90.1871 63.4224 86.5293 59.7514 88.0704C56.0805 89.6114 56.2839 98.1049 57.6373 100.231C58.9907 102.356 60.3352 102.161 60.3352 102.161C60.3352 102.161 58.2123 102.932 59.5656 105.438L60.9102 107.953C60.9102 107.953 57.8319 111.62 50.1185 110.265C42.4052 108.91 40.6714 105.438 41.8302 102.542C42.989 99.646 45.6869 99.2651 42.7944 95.014C39.9018 90.7628 32.7634 85.7499 33.3473 76.1051C33.7276 69.7371 48.7651 63.7058 48.7651 63.7058C48.7651 63.7058 45.2977 57.9135 53.1879 54.2469C61.0782 50.5803 70.1539 54.8226 69.5789 58.6752C69.0039 62.5278 71.8964 62.3684 71.8964 62.3684Z" fill="#263238" stroke="#263238" stroke-linecap="round" stroke-linejoin="round"/>
<path d="M80.0522 83.2879C80.0522 83.2879 82.5024 82.6413 82.7058 83.7927C82.9093 84.944 82.7058 90.7451 82.7058 90.7451C81.8434 91.2822 80.8154 91.4868 79.8134 91.3208C78.46 90.94 79.2384 86.1131 79.2384 86.1131" stroke="#263238" stroke-linecap="round" stroke-linejoin="round"/>
<path d="M64.7666 89.78L82.5197 86.8396L82.502 85.7236L64.7666 89.78Z" fill="#263238" stroke="#263238" stroke-linecap="round" stroke-linejoin="round"/>
<path d="M39.318 107.148C39.318 107.148 49.1543 114.295 55.9035 121.628C62.6527 128.961 70.7464 137.065 71.1268 139.581C71.5072 142.096 70.7464 145.948 66.8897 141.892C63.033 137.836 55.9035 132.433 50.4988 132.052C45.0942 131.672 36.8147 134.364 32.5776 134.948C28.3406 135.533 25.6338 136.72 24.0947 134.364C22.5555 132.008 26.598 126.836 26.598 124.135C26.598 121.433 26.023 116.801 27.9514 113.507C29.8797 110.212 36.0628 106.182 39.318 107.148Z" fill="#5074BC" stroke="#263238" stroke-linecap="round" stroke-linejoin="round"/>
<path d="M26.7224 116.713C27.2699 118.589 28.0172 120.4 28.9515 122.115C30.0749 123.789 45.8819 126.951 45.8819 126.951C45.8819 126.951 32.8613 126.207 30.4464 126.207C28.0316 126.207 25.2363 128.448 25.2363 128.448L26.5366 124.905C26.5366 124.905 25.9794 118.387 26.7224 116.713Z" fill="#2A4A94" stroke="#263238" stroke-linecap="round" stroke-linejoin="round"/>
<path d="M25.7578 388.762H430.002" stroke="#263238" stroke-linecap="round" stroke-linejoin="round"/>
</svg>
