<svg width="70" height="87" viewBox="0 0 70 87" fill="none" xmlns="http://www.w3.org/2000/svg">
<path d="M34.8335 24.9619C38.6777 25.0531 42.2747 26.0151 45.4579 28.2495C50.4846 31.7793 53.2996 36.6372 53.7887 42.8395C53.8626 43.773 53.8491 43.7744 54.7857 43.7744C56.4196 43.7744 58.0535 43.8002 59.6874 43.7608C60.2396 43.7472 60.3592 43.935 60.3485 44.4548C60.3149 45.7461 60.3633 47.0402 60.3243 48.3302C60.3082 48.8595 60.4882 48.9643 60.972 48.9602C63.3449 48.9357 65.7178 48.9602 68.0934 48.9371C68.6134 48.9371 68.7814 49.0732 68.7787 49.6175C68.7545 53.3795 68.7545 57.1443 68.7787 60.9118C68.7787 61.4669 68.6067 61.5812 68.0975 61.5744C66.4017 61.5513 66.4017 61.5744 66.4017 59.8463C66.4017 57.2173 66.3896 54.5869 66.4125 51.9539C66.4125 51.4708 66.2781 51.3429 65.8119 51.3511C64.1995 51.3796 62.587 51.3892 60.9746 51.3511C60.421 51.3375 60.3243 51.528 60.327 52.0314C60.3431 57.0662 60.2988 62.1011 60.3579 67.1359C60.378 68.8395 59.3031 70.3404 57.1962 70.32C50.0103 70.2533 42.8189 70.2942 35.6397 70.2955C35.3709 70.2955 35.1022 70.3146 34.8335 70.3255C34.5647 70.3146 34.296 70.2955 34.0273 70.2955H12.6078C10.5842 70.2955 9.56031 69.2573 9.55897 67.2012C9.55897 62.1446 9.54957 57.0894 9.56973 52.0342C9.56973 51.5035 9.43537 51.347 8.90596 51.3538C6.55588 51.3851 4.20311 51.3538 1.85437 51.3796C1.33974 51.3864 1.22685 51.2313 1.22954 50.7333C1.24835 46.1974 1.24835 41.6616 1.22954 37.1257C1.22954 36.6739 1.31554 36.4535 1.81136 36.5025C2.21352 36.542 2.61851 36.542 3.02067 36.5025C3.51514 36.4535 3.61052 36.6712 3.60783 37.1243C3.59305 40.8202 3.60785 44.5146 3.58635 48.2104C3.58635 48.8092 3.73684 48.9833 4.33209 48.967C5.87597 48.9235 7.42254 48.9357 8.96642 48.967C9.44074 48.9752 9.57644 48.8187 9.56569 48.3479C9.53882 47.0565 9.5872 45.7624 9.54286 44.4724C9.52271 43.8819 9.72558 43.7608 10.2657 43.7703C11.9883 43.8043 13.7136 43.7703 15.4362 43.7934C15.8998 43.8002 16.0314 43.6642 16.0503 43.1879C16.3983 34.5103 22.8533 26.9867 31.3023 25.362C32.4726 25.1347 33.6537 25.0612 34.8335 24.9619ZM29.2384 32.1127C27.4768 32.0392 25.9854 33.4734 25.9209 35.3077C25.8991 36.1772 26.2178 37.0201 26.8073 37.6525C27.3968 38.285 28.2094 38.6557 29.0678 38.6838C30.8145 38.7464 32.3436 37.2754 32.4014 35.4778C32.4592 33.6803 31.0497 32.1889 29.2384 32.1127ZM37.498 35.4044C37.4962 35.8352 37.5786 36.2621 37.7405 36.6605C37.9023 37.0589 38.1404 37.421 38.4411 37.7258C38.7417 38.0307 39.0989 38.2722 39.4921 38.4366C39.8853 38.601 40.3068 38.685 40.7322 38.6838C41.5899 38.6699 42.4081 38.316 43.011 37.698C43.614 37.08 43.9536 36.2472 43.957 35.3785C43.9499 34.5094 43.6038 33.6784 42.9942 33.0666C42.3846 32.4548 41.5609 32.1119 40.7026 32.1127C40.2782 32.1137 39.8582 32.1999 39.4669 32.3663C39.0756 32.5326 38.7207 32.7759 38.4227 33.0819C38.1247 33.388 37.8896 33.7508 37.7309 34.1495C37.5722 34.5481 37.493 34.9746 37.498 35.4044ZM49.0186 50.1944C49.0062 49.8289 48.8549 49.4824 48.5963 49.2271C48.3377 48.9718 47.9917 48.8274 47.6306 48.8241C47.2803 48.8409 46.9493 48.9914 46.7042 49.2454C46.4592 49.4994 46.3182 49.838 46.3098 50.1931C46.3172 50.5589 46.4668 50.9071 46.7262 51.1618C46.9856 51.4166 47.3338 51.5575 47.6951 51.5538C48.0448 51.5394 48.3761 51.391 48.6218 51.1387C48.8675 50.8863 49.0094 50.5487 49.0186 50.1944ZM53.2579 50.1822C53.2604 49.8266 53.1245 49.4843 52.8795 49.2296C52.6345 48.9749 52.3002 48.8282 51.9492 48.8214C51.5876 48.8252 51.2418 48.9716 50.9852 49.2295C50.7285 49.4874 50.5812 49.8365 50.5746 50.2026C50.5869 50.5687 50.7403 50.9154 51.0021 51.1683C51.2638 51.4211 51.613 51.56 51.9747 51.5552C52.3236 51.5452 52.6545 51.3958 52.8949 51.1395C53.1354 50.8833 53.2659 50.541 53.2579 50.1876V50.1822ZM57.1546 50.1971C57.1573 50.0156 57.1239 49.8353 57.0563 49.6671C56.9887 49.4989 56.8883 49.3462 56.7611 49.2181C56.6339 49.0901 56.4826 48.9893 56.3161 48.9219C56.1496 48.8544 55.9714 48.8216 55.7921 48.8255C55.4428 48.8412 55.1124 48.9903 54.8674 49.2428C54.6223 49.4952 54.4808 49.8324 54.4712 50.1863C54.4772 50.553 54.6258 50.9025 54.8846 51.159C55.1434 51.4155 55.4917 51.5584 55.8539 51.5565C56.2033 51.5476 56.5353 51.4002 56.7785 51.146C57.0218 50.8918 57.1568 50.5511 57.1546 50.1971Z" fill="#E43C5C"/>
<path d="M34.8342 72.1035C35.8393 72.113 36.8497 72.1294 37.8508 72.1307C42.86 72.1307 47.8683 72.128 52.8757 72.1226C53.3675 72.1226 53.5234 72.1784 53.389 72.7458C51.6785 79.9578 45.374 85.7437 38.1047 86.7548C37.0194 86.8975 35.9271 86.9793 34.8329 86.9997C31.256 86.7874 27.9264 85.8036 24.9542 83.7339C21.1391 81.0723 18.6174 77.4771 17.3893 72.9485C17.1703 72.1403 17.1797 72.1321 17.9886 72.1321C23.3346 72.1321 28.682 72.1321 34.0307 72.1321C34.2981 72.1307 34.5669 72.113 34.8342 72.1035Z" fill="#E43C5C"/>
<path d="M34.8321 6.88379C36.1314 6.9668 36.1314 6.96681 36.1314 8.28946V21.6807C36.1314 22.6332 36.1314 22.6332 35.168 22.6509C35.0565 22.6509 34.945 22.6686 34.8348 22.6767C33.7599 22.6073 33.7599 22.6073 33.7599 21.4643V8.09894C33.7585 6.95318 33.7585 6.95319 34.8321 6.88379Z" fill="#E43C5C"/>
<path d="M34.8352 0C36.9851 0.0421835 37.8047 2.15138 37.1437 3.49445C36.664 4.46875 35.8618 4.89465 34.8339 4.97221C33.4105 4.63928 32.645 3.90812 32.5375 2.77869C32.3938 1.30227 33.2201 0.302088 34.8352 0Z" fill="#E43C5C"/>
<path d="M2.39565 33.0923C3.07824 33.0923 3.72724 33.212 4.29024 33.6366C4.99298 34.1659 5.02525 34.8844 4.37357 35.4586C3.433 36.2887 1.37045 36.2751 0.433908 35.445C-0.151934 34.9211 -0.143885 34.2203 0.45405 33.6978C0.900149 33.3141 1.58139 33.095 2.39565 33.0923Z" fill="#E43C5C"/>
<path d="M67.5522 62.1826C68.2241 62.1935 68.9255 62.3106 69.5126 62.7855C70.1616 63.3093 70.1603 64.0278 69.5247 64.5694C68.5842 65.3777 66.5982 65.3859 65.6281 64.5871C64.9952 64.0618 64.9912 63.327 65.616 62.7936C66.0513 62.4262 66.7178 62.2098 67.5522 62.1826Z" fill="#E43C5C"/>
</svg>
