<svg width="90" height="55" viewBox="0 0 90 55" fill="none" xmlns="http://www.w3.org/2000/svg">
<g clip-path="url(#clip0_749_445)">
<path d="M60.6614 0.000157196C62.36 0.947118 64.0551 1.90005 65.7594 2.83682C66.2319 3.09649 66.4416 3.45771 66.4409 3.99637C66.4343 12.1291 66.4343 20.2617 66.4409 28.3942C66.4409 28.9477 66.2319 29.3155 65.7534 29.5889C62.9622 31.1863 60.1762 32.7918 57.3953 34.4056C56.9731 34.6491 56.5742 34.6456 56.153 34.4021C53.3447 32.7771 50.5341 31.1559 47.7211 29.5387C47.3108 29.3029 47.1145 28.9687 47.1152 28.494C47.1202 25.241 47.1202 21.9879 47.1152 18.7349C47.1152 18.2739 47.3084 17.945 47.7053 17.7159C50.5333 16.0897 53.3596 14.4617 56.1843 12.8317C56.5823 12.6023 56.9675 12.5991 57.3633 12.8289C58.0254 13.2133 58.7003 13.5777 59.3504 13.9818C59.6822 14.1877 60.0049 14.0145 60.0038 13.609C59.9918 9.30287 59.9985 4.99639 59.9922 0.690267C59.9922 0.371568 60.083 0.136841 60.3792 -0.00195312L60.6614 0.000157196ZM53.5343 23.6081C53.5343 24.1464 53.5382 24.6847 53.5319 25.2245C53.5298 25.4026 53.5935 25.5165 53.7511 25.6061C54.6862 26.1373 55.6186 26.6735 56.5481 27.2147C56.6984 27.3022 56.8254 27.2979 56.9724 27.2126C57.9027 26.6724 58.8349 26.1358 59.7691 25.6029C59.9207 25.5165 59.9802 25.4044 59.9802 25.2343C59.976 24.1582 59.9754 23.0818 59.9785 22.0051C59.9785 21.8421 59.9211 21.7346 59.7747 21.6513C58.8354 21.1156 57.8986 20.5753 56.9643 20.0304C56.8148 19.9433 56.6899 19.9471 56.5421 20.0339C55.618 20.5727 54.6915 21.1066 53.7627 21.6355C53.6001 21.7279 53.5326 21.8463 53.5351 22.0304C53.5389 22.5554 53.5343 23.0818 53.5343 23.6081Z" fill="#E43C5C"/>
<path d="M0 18.2223C0.0992158 17.8119 0.373293 17.5649 0.732511 17.3601C3.50985 15.7751 6.28332 14.1829 9.05292 12.5834C9.45541 12.3515 9.84277 12.342 10.247 12.5747C13.0804 14.2041 15.9144 15.8322 18.749 17.4588C19.1254 17.6752 19.3119 18.0003 19.3119 18.4395C19.3067 22.8394 19.3026 27.2393 19.2996 31.639C19.2996 32.146 18.8989 32.3821 18.4636 32.1341C16.8037 31.1856 15.1438 30.2369 13.4839 29.2879C13.0655 29.05 12.8717 28.7036 12.8727 28.226C12.8769 26.2306 12.8689 24.2355 12.8784 22.2403C12.8808 21.7365 12.6803 21.3844 12.2426 21.1409C11.5741 20.7684 10.9106 20.3847 10.2495 19.9978C9.84628 19.7621 9.45716 19.768 9.05573 20.0038C8.38514 20.3978 7.71104 20.7854 7.03341 21.1665C6.62599 21.3956 6.4353 21.7329 6.4353 22.1978C6.43882 24.2045 6.43214 26.2113 6.44023 28.2183C6.44023 28.7145 6.23863 29.0616 5.81045 29.3048C4.15299 30.2458 2.5001 31.1948 0.84439 32.1386C0.470747 32.3516 0.126304 32.2089 0.0323655 31.8073C0.0355361 31.7901 0.0376572 31.7727 0.0387046 31.7553C0.0365937 29.4128 0.033897 27.0695 0.0306133 24.7256C0.0306133 24.6754 0.0474969 24.6202 0 24.5773V18.2223Z" fill="#E43C5C"/>
<path d="M40.8278 22.2525C40.8278 22.2198 40.8278 22.187 40.8278 22.1543C40.8271 21.1372 40.8265 20.1164 40.8291 19.0964C38.2903 17.6374 35.7529 16.1753 33.2169 14.7102C32.6972 15.0122 32.1749 15.3121 31.6579 15.6089C31.3722 15.7729 31.0883 15.936 30.8073 16.0979C29.0737 17.1028 27.3377 18.1033 25.5993 19.0992C25.6029 20.2272 25.6022 21.3563 25.6014 22.4808C25.6011 22.9404 25.6008 23.3993 25.6008 23.857V23.8658V23.8745V23.8833V23.892V23.9007V23.9095V23.9182V23.927V23.9357V23.9445V23.9532V23.962V23.9707V23.9794V23.9882V23.9969V24.0057V24.0144V24.0232V24.0319V24.0406V24.0494V24.0581V24.0669V24.0756V24.0844V24.0931V24.1018V24.1106V24.1193V24.1281V24.1368V24.1456V24.1543V24.163V24.1718V24.1805V24.1893V24.198V24.2068V24.2155V24.2242V24.233V24.2417V24.2505V24.2592V24.268V24.2767V24.2855V24.2942V24.3029V24.3117V24.3204V24.3292V24.3379V24.3467V24.3554V24.3641V24.3729V24.3816V24.3904V24.3991V24.4079V24.4166V24.4253V24.4341V24.4428V24.4516V24.4603V24.4691V24.4778V24.4865V24.4953V24.504V24.5128V24.5215V24.5303V24.539V24.5477V24.5565V24.5652V24.574V24.5827V24.5915V24.6002V24.609V24.6177V24.6264V24.6352V24.6439V24.6527V24.6614V24.6702V24.6789V24.6876V24.6964V24.7051V24.7139V24.7226V24.7314V24.7401V24.7488V24.7576V24.7663V24.7751V24.7838V24.7926V24.8013V24.81V24.8188V24.8275V24.8363V24.845V24.8538V24.8625V24.8713V24.88V24.8887V24.8975V24.9062V24.915V24.9237V24.9325V24.9412V24.9499V24.9587V24.9674V24.9762V24.9849V24.9937V25.0024V25.0111V25.0199V25.0286V25.0374V25.0461V25.0549V25.0636V25.0723V25.0811V25.0898V25.0986V25.1073V25.1161V25.1248V25.1335V25.1423V25.151V25.1598V25.1685V25.1773V25.186V25.1948V25.2035V25.2122V25.221V25.2297V25.2385V25.2472V25.256V25.2647V25.2734V25.2822V25.2909V25.2997V25.3084V25.3172V25.3259V25.3346V25.3434V25.3521V25.3609V25.3696V25.3784V25.3871V25.3958V25.4046V25.4133V25.4221V25.4308V25.4396V25.4483V25.457V25.4658V25.4745V25.4833V25.492V25.5008V25.5095V25.5183V25.527V25.5357V25.5445V25.5532V25.562V25.5707V25.5795V25.5882V25.5969V25.6057V25.6144V25.6232V25.6319V25.6407V25.6494V25.6581V25.6669V25.6756V25.6844V25.6931V25.7019V25.7106V25.7193V25.7281V25.7368V25.7456V25.7543V25.7631V25.7718V25.7805V25.7893V25.798V25.8068V25.8155V25.8243V25.833V25.8418V25.8505V25.8592V25.868V25.8767V25.8855V25.8942V25.903V25.9117V25.9204V25.9292V25.9379V25.9467V25.9554V25.9642V25.9729V25.9816V25.9904V25.9991V26.0079V26.0166V26.0254V26.0341V26.0428V26.0516V26.0603V26.0691V26.0778V26.0866V26.0953V26.104V26.1128V26.1215V26.1303V26.139V26.1478V26.1565V26.1653V26.174V26.1827V26.1915V26.2002V26.209V26.2177V26.2265V26.2352V26.2439V26.2527V26.2614V26.2702V26.2789V26.2877V26.2964V26.3051V26.3139V26.3226V26.3314V26.3401V26.3489V26.3576V26.3663V26.3751V26.3838V26.3926V26.4013V26.4101V26.4188V26.4275V26.4363V26.445V26.4538V26.4625V26.4713V26.48V26.4888V26.4975V26.5062V26.515V26.5237V26.5325V26.5412V26.55V26.5587V26.5674V26.5762V26.5849V26.5937V26.6024V26.6112V26.6199V26.6286V26.6374V26.6461V26.6549V26.6636V26.6724V26.6811V26.6898V26.6986V26.7073V26.7161V26.7248V26.7336V26.7423V26.751V26.7598V26.7685V26.7773V26.786V26.7948V26.8035V26.8123V26.821V26.8297V26.8385V26.8472V26.856V26.8647V26.8735V26.8822V26.8909V26.8997V26.9084V26.9172V26.9259V26.9347V26.9434V26.9521V26.9609V26.9696V26.9784V26.9871V26.9959V27.0046V27.0133V27.0221V27.0308V27.0396V27.0483V27.0571V27.0658V27.0745V27.0833V27.092V27.1008V27.1095V27.1183V27.127V27.1358V27.1445V27.1532V27.162V27.1707V27.1795V27.1882V27.197V27.2057V27.2144V27.2232V27.2319V27.2407V27.2494V27.2582V27.2669V27.2756V27.2844V27.2931V27.3019V27.3106V27.3194V27.3281V27.3368V27.3456V27.3543V27.3631V27.3718V27.3806V27.3893V27.3981V27.4068V27.4155V27.4243V27.433V27.4418V27.4505V27.4593V27.468V27.4767V27.4855V27.4942V27.503V27.5117V27.5205V27.5292V27.5379V27.5467V27.5554V27.5642V27.5729V27.5817V27.5904V27.5991V27.6079V27.6166V27.6254V27.6341V27.6429V27.6516V27.6603V27.6691V27.6778V27.6866V27.6953V27.7041V27.7128V27.7215V27.7303V27.739V27.7478V27.7565V27.7653V27.774V27.7828V27.7915V27.8002V27.809V27.8177V27.8265V27.8352V27.844V27.8527V27.8614V27.8702V27.8733C28.1375 29.3332 30.6733 30.7945 33.208 32.2571C33.5164 32.0751 33.8532 31.8773 34.1815 31.6977L40.8278 22.2525ZM40.8278 22.2525L40.8276 22.2526V23.4902C40.8276 23.9292 40.827 24.3706 40.8264 24.8136C40.825 25.8278 40.8236 26.8503 40.8294 27.8708C40.5229 28.0443 40.2168 28.2227 39.9241 28.3932C39.7393 28.5008 39.5599 28.6054 39.3891 28.7036L39.3876 28.7044C38.9154 28.9766 38.443 29.2483 37.9705 29.5195C37.6986 29.6751 37.4213 29.8331 37.142 29.9923C36.7084 30.2394 36.27 30.4892 35.8395 30.7372C35.8393 30.7373 35.839 30.7375 35.8387 30.7376L40.8278 22.2525ZM40.8322 28.2976C40.8322 28.2973 40.8322 28.2969 40.8322 28.2964C40.8322 28.2968 40.8322 28.2972 40.8322 28.2976ZM40.8322 28.2976L41.5684 28.2921L41.5749 28.292L42.8322 28.2826M40.8322 28.2976C40.8322 28.2977 40.8322 28.2979 40.8322 28.298L41.5685 28.2924L41.5751 28.2923L42.8322 28.2826M42.8322 28.2826C42.8233 27.1302 42.8248 25.9776 42.8264 24.825C42.827 24.3801 42.8276 23.9351 42.8276 23.4902L42.1806 29.407C42.6334 29.1611 42.836 28.8002 42.8322 28.2826ZM25.6008 28.3352V28.3336C25.6008 28.3341 25.6008 28.3347 25.6008 28.3352Z" stroke="#E43C5C" stroke-width="4"/>
<path d="M70.7298 23.4714C70.7298 21.8737 70.7361 20.2764 70.7266 18.679C70.7234 18.1569 70.9377 17.803 71.393 17.5419C74.1841 15.9448 76.9706 14.3394 79.7524 12.7256C80.1859 12.4747 80.5905 12.4677 81.025 12.7207C83.7995 14.3349 86.577 15.9442 89.3574 17.5486C89.7978 17.803 90.0103 18.1516 89.9991 18.6632C89.9836 19.3941 89.9907 20.126 89.997 20.8572C90.0009 21.3105 89.8091 21.6397 89.4193 21.8656C87.734 22.8408 86.0492 23.8168 84.3649 24.7937C83.9322 25.0442 83.5282 24.8046 83.5268 24.3017C83.5247 23.541 83.5209 22.7803 83.529 22.0178C83.5321 21.7483 83.4287 21.5666 83.194 21.4334C82.3344 20.946 81.4783 20.4533 80.6257 19.9556C80.4121 19.8319 80.2101 19.8315 79.9966 19.9556C79.1318 20.4569 78.2654 20.9558 77.3973 21.4524C77.1883 21.5722 77.0898 21.7451 77.0901 21.983C77.0915 22.9837 77.0915 23.9843 77.0901 24.9848C77.0901 25.2399 77.2059 25.4093 77.4258 25.5347C80.2125 27.1276 82.9983 28.7224 85.7831 30.3191C85.8591 30.363 85.9362 30.4048 86.0108 30.4508C86.389 30.6856 86.3872 31.1515 85.9998 31.3753C85.5847 31.6149 85.1622 31.8416 84.7431 32.0742C83.4804 32.7748 82.2149 33.4706 80.9567 34.1786C80.5345 34.4168 80.1394 34.4158 79.7155 34.1733C76.9283 32.5804 74.1382 30.9932 71.3451 29.4118C70.9264 29.1743 70.7287 28.8296 70.7301 28.3514C70.7326 26.7248 70.7298 25.098 70.7298 23.4714Z" fill="#E43C5C"/>
<path d="M34.6408 43.9382C34.6408 42.4108 34.6432 40.8837 34.6408 39.3566C34.639 38.6293 34.9493 38.0945 35.5819 37.7315C38.2359 36.207 40.8883 34.6797 43.5393 33.1496C44.1726 32.7841 44.8058 32.7841 45.4391 33.1496C48.0755 34.6699 50.712 36.1896 53.3486 37.7087C54.0128 38.0896 54.3267 38.6458 54.3256 39.4055C54.3212 42.4308 54.3212 45.4561 54.3256 48.4812C54.3256 49.249 54.0002 49.801 53.3296 50.1847C50.7141 51.6818 48.1028 53.1867 45.4958 54.6995C44.8104 55.0962 44.1423 55.1032 43.4597 54.6897C42.6189 54.1802 41.7671 53.6886 40.9223 53.1858C40.8263 53.1289 40.6761 53.0863 40.6961 52.9493C40.7123 52.8337 40.8573 52.833 40.953 52.7993C41.2963 52.6791 41.6323 52.54 41.9381 52.3453C42.1013 52.242 42.2312 52.2578 42.3888 52.3534C42.9992 52.7237 43.6184 53.0793 44.2281 53.4514C44.404 53.5589 44.5501 53.5642 44.7313 53.4595C47.3613 51.939 49.9927 50.4229 52.6256 48.9113C52.792 48.8157 52.8627 48.7005 52.8624 48.5054C52.8572 45.4627 52.8572 42.4201 52.8624 39.3774C52.8624 39.1802 52.792 39.0675 52.6245 38.9722C50.0008 37.4653 47.3795 35.9544 44.7605 34.4395C44.5627 34.3249 44.4086 34.3267 44.2116 34.4412C41.5933 35.9573 38.9719 37.4682 36.3475 38.974C36.1815 39.0692 36.1083 39.1802 36.1086 39.3781C36.1143 42.4205 36.1143 45.4632 36.1086 48.5061C36.1086 48.6945 36.1709 48.808 36.3338 48.9C37.0269 49.2911 37.7116 49.697 38.405 50.0877C38.7692 50.2929 39.1586 50.4113 39.584 50.3178C39.8126 50.2705 40.0184 50.1471 40.1676 49.9678C40.3169 49.7885 40.4007 49.5639 40.4055 49.3308C40.408 49.2549 40.4055 49.1787 40.4055 49.1028C40.4055 46.1362 40.4055 43.1695 40.4055 40.2028C40.4055 39.8837 40.4653 39.8233 40.7823 39.8229C41.0462 39.8229 41.3101 39.8229 41.5736 39.8229C41.8371 39.8229 41.9096 39.8999 41.9096 40.1585C41.9096 41.7326 41.9096 43.3067 41.9096 44.8806C41.9096 46.3318 41.9096 47.783 41.9096 49.2342C41.9148 49.5678 41.8748 49.9005 41.7907 50.2233C41.5261 51.1822 40.7827 51.7557 39.787 51.8302C38.975 51.891 38.2453 51.6699 37.5529 51.2859C36.8876 50.9169 36.2346 50.5266 35.5738 50.1492C34.9479 49.7922 34.638 49.2574 34.6387 48.5378C34.6417 47.0046 34.6424 45.4714 34.6408 43.9382Z" fill="#E43C5C"/>
<path d="M46.9363 39.5863C47.583 39.6035 48.2212 39.6752 48.8362 39.8899C49.9899 40.2922 50.5845 41.1271 50.7072 42.3204C50.7357 42.5983 50.6555 42.6805 50.3737 42.6819C50.0806 42.6819 49.7875 42.6819 49.4941 42.6819C49.3228 42.6819 49.2193 42.6117 49.1817 42.4398C49.1417 42.2572 49.0793 42.0802 48.9959 41.9128C48.7352 41.3857 48.2659 41.1714 47.7248 41.0881C47.0144 40.9788 46.302 40.97 45.593 41.1127C45.4264 41.1454 45.2649 41.2006 45.1132 41.2768C44.6794 41.4981 44.4873 41.8998 44.5935 42.3741C44.6456 42.6067 44.8257 42.7167 45.0266 42.7958C45.3432 42.923 45.6778 42.9834 46.0117 43.0417C46.8913 43.1999 47.7871 43.2722 48.6631 43.4634C49.1099 43.5604 49.5487 43.6809 49.9585 43.8907C50.6492 44.242 50.9831 44.8162 51.0278 45.5794C51.1164 47.0903 50.2185 47.9603 48.8872 48.3405C48.0076 48.5914 47.1091 48.6033 46.2056 48.5348C45.548 48.4846 44.9038 48.3693 44.3011 48.0928C43.2569 47.6139 42.7207 46.7962 42.6936 45.6486C42.688 45.4227 42.7703 45.3355 42.9913 45.3324C43.296 45.3292 43.6006 45.3299 43.906 45.3324C44.1076 45.3324 44.1741 45.3911 44.2174 45.5896C44.2297 45.6465 44.2385 45.7041 44.2498 45.7618C44.3778 46.4143 44.7648 46.8282 45.4129 46.9744C46.4378 47.2052 47.4686 47.2203 48.4921 46.9708C48.9111 46.8682 49.2595 46.6521 49.3861 46.1939C49.537 45.6476 49.3808 45.3155 48.8541 45.1047C48.3616 44.9065 47.8381 44.8345 47.3163 44.7656C46.4701 44.6546 45.6128 44.6138 44.787 44.3749C44.2515 44.2203 43.7459 44.007 43.386 43.5555C42.6092 42.5804 42.8998 40.977 43.9841 40.2448C44.5119 39.8899 45.1047 39.7233 45.726 39.6408C46.1272 39.5883 46.5321 39.5701 46.9363 39.5863Z" fill="#E43C5C"/>
<path d="M78.5163 23.4325C78.5163 23.1401 78.5208 22.8478 78.5141 22.554C78.511 22.4202 78.5627 22.3386 78.6784 22.2729C79.1925 21.9827 79.704 21.6868 80.2145 21.3903C80.2582 21.3607 80.3096 21.3445 80.3624 21.3438C80.4151 21.343 80.467 21.3577 80.5115 21.3861C81.0324 21.6882 81.5543 21.989 82.0771 22.2884C82.1798 22.3471 82.221 22.429 82.2203 22.5463C82.2168 23.143 82.2168 23.7395 82.2203 24.3359C82.2203 24.4638 82.1679 24.5414 82.0609 24.6026C81.5529 24.8926 81.0464 25.1854 80.5414 25.481C80.4151 25.5548 80.3088 25.5488 80.1832 25.4747C79.6846 25.1802 79.1831 24.8909 78.6788 24.6068C78.563 24.5414 78.511 24.4606 78.5138 24.3257C78.5208 24.0291 78.5163 23.7308 78.5163 23.4325Z" fill="#E43C5C"/>
<path d="M58.6963 38.7666C58.7001 39.6211 57.9845 40.3316 57.1268 40.3253C56.2757 40.3193 55.571 39.6162 55.5664 38.769C55.5676 38.3518 55.7339 37.9519 56.029 37.6566C56.3241 37.3613 56.7241 37.1944 57.1419 37.1924C58 37.1941 58.6924 37.8969 58.6963 38.7666ZM57.1264 40.0666C57.4725 40.0684 57.8053 39.9337 58.0525 39.6918C58.2997 39.4499 58.4413 39.1203 58.4465 38.7746C58.4492 38.602 58.4174 38.4305 58.3531 38.2702C58.2887 38.1099 58.193 37.9641 58.0715 37.8411C57.9501 37.7182 57.8053 37.6207 57.6457 37.5542C57.4861 37.4878 57.3148 37.4538 57.1419 37.4542C56.7985 37.4482 56.4667 37.5784 56.2192 37.8162C55.9716 38.054 55.8285 38.38 55.8211 38.723C55.8171 38.8971 55.8478 39.0704 55.9114 39.2326C55.9751 39.3948 56.0705 39.5427 56.192 39.6677C56.3134 39.7927 56.4587 39.8923 56.6191 39.9607C56.7795 40.029 56.952 40.0648 57.1264 40.0659V40.0666Z" fill="#E43C5C"/>
<path d="M57.5148 38.7777C57.6577 38.8388 57.6988 38.9587 57.7154 39.0985C57.7333 39.2489 57.7565 39.3993 57.7892 39.5472C57.8047 39.6175 57.797 39.6344 57.7231 39.6407C57.4599 39.6621 57.4515 39.6586 57.4219 39.4021C57.4117 39.3153 57.3998 39.2285 57.3896 39.1417C57.3734 39.0068 57.3129 38.9337 57.1623 38.9341C56.8942 38.9341 56.8942 38.9281 56.8942 39.2029C56.8885 39.2848 56.8892 39.367 56.8963 39.4488C56.9241 39.6228 56.8393 39.6477 56.6905 39.6449C56.5716 39.6428 56.5455 39.6041 56.5469 39.4938C56.5521 39.0019 56.5521 38.5109 56.5469 38.0208C56.5469 37.9154 56.5712 37.8754 56.6827 37.8803C56.8523 37.8894 57.0222 37.8803 57.1922 37.8831C57.4152 37.8848 57.6344 37.9045 57.7351 38.1491C57.8286 38.3768 57.7586 38.5704 57.5148 38.7777ZM56.8875 38.4063C56.8875 38.6523 56.8875 38.6523 57.0564 38.6523C57.3065 38.6523 57.4195 38.5757 57.4223 38.4C57.4247 38.2295 57.3403 38.1628 57.1123 38.1642C56.8527 38.1663 56.8935 38.1329 56.8875 38.4063Z" fill="#E43C5C"/>
</g>
<defs>
<clipPath id="clip0_749_445">
<rect width="90" height="55" fill="white"/>
</clipPath>
</defs>
</svg>
