<svg width="125" height="124" viewBox="0 0 125 124" fill="none" xmlns="http://www.w3.org/2000/svg">
<g clip-path="url(#clip0_331_355)">
<path d="M0 79.3511C4.33639 73.052 9.95095 67.8595 14.9565 62.1396C16.6634 60.1924 19.0038 59.7949 21.427 60.7701C23.7917 61.7226 25.0747 63.5465 25.1624 66.1119C25.2225 67.7735 25.2485 69.4432 25.1624 71.1032C25.1104 72.1449 25.3541 72.4905 26.4796 72.4711C30.6649 72.3932 34.8503 72.4256 39.0372 72.4451C41.5968 72.4565 44.1629 72.4159 46.7128 72.5928C49.2626 72.7696 51.7199 73.495 54.2162 74.4994V73.0714C54.2162 64.1793 54.2162 55.2872 54.2162 46.395C54.2162 44.6653 54.5118 44.2612 56.1002 43.7468C57.4238 44.0486 57.9549 44.8827 57.8867 46.2246C57.8185 47.7256 57.8721 49.2314 57.8721 50.734V61.5149C60.2985 58.0911 63.0806 55.1865 66.5449 52.9619C66.9574 52.6974 66.985 52.3339 66.985 51.912C66.985 50.4906 67.0288 49.0691 67.0305 47.6477C67.0305 39.7248 67.0305 31.8014 67.0305 23.8774C67.0305 22.2256 67.6623 21.6057 69.3172 21.596C71.8389 21.583 74.3606 21.583 76.8823 21.596C78.0192 21.596 78.8508 21.1741 79.2844 20.0966C79.7181 19.0192 79.3477 18.1121 78.5227 17.369C73.7803 13.0992 69.033 8.83488 64.2808 4.57595C62.9816 3.41251 61.9031 3.42387 60.6055 4.57595C55.8804 8.80459 51.1629 13.0414 46.4529 17.2862C45.5922 18.0586 45.1423 18.9381 45.6084 20.095C46.0745 21.252 46.9662 21.6041 48.1371 21.5911C50.6188 21.5635 53.0988 21.5732 55.5805 21.5911C57.2289 21.5911 57.8542 22.2256 57.8542 23.8791C57.864 28.5523 57.864 33.225 57.8542 37.8972C57.8542 39.4046 57.5197 39.8038 56.058 40.1916C54.5962 39.8314 54.2016 39.3478 54.1983 37.8063C54.1886 33.9882 54.161 30.1685 54.2194 26.3504C54.2341 25.419 53.9742 25.1885 53.0728 25.2258C51.2863 25.3005 49.4998 25.2859 47.7132 25.234C45.1147 25.1593 43.2096 23.9066 42.2302 21.5019C41.2509 19.0971 41.6683 16.7832 43.5815 15.0194C48.5708 10.4207 53.6169 5.88326 58.7199 1.4069C59.7607 0.497066 61.0987 -0.00104158 62.4817 0.00643052C63.8647 0.0139026 65.1972 0.526438 66.2282 1.44747C71.2976 5.89895 76.3139 10.4094 81.2772 14.9788C83.1888 16.7377 83.6046 19.0143 82.6886 21.4597C81.8197 23.7784 79.6937 25.2031 77.1081 25.2453C75.2371 25.2745 73.3726 25.2794 71.4968 25.2453C70.8471 25.2323 70.675 25.4319 70.6847 26.0664C70.7042 34.0304 70.7042 41.9938 70.6847 49.9567C70.6847 50.7064 70.917 50.7388 71.5293 50.4971C75.0585 49.1048 78.742 48.6667 82.5148 48.6927C87.8744 48.7316 93.2502 48.6781 98.6179 48.7268C99.555 48.7268 99.7856 48.4704 99.7548 47.5698C99.6865 45.8255 99.6947 44.0746 99.7645 42.3303C99.8652 39.8119 101.147 38.0075 103.459 37.081C105.808 36.1398 108.117 36.4433 109.862 38.3272C114.526 43.3671 119.123 48.4682 123.654 53.6304C125.466 55.6961 125.406 58.7969 123.634 60.9324C121.953 62.9672 120.131 64.8868 118.356 66.8421C117.563 67.7167 116.644 67.6047 115.7 67.0984C114.859 65.7192 114.911 65.2113 116.025 63.9813C117.521 62.3214 119.033 60.6744 120.508 58.9949C121.524 57.838 121.563 56.7232 120.571 55.6117C116.267 50.794 111.932 46.0023 107.619 41.1944C106.854 40.3409 105.939 40.0488 104.879 40.4447C103.791 40.8504 103.39 41.7153 103.403 42.8527C103.43 45.1245 103.412 47.3962 103.403 49.6776C103.403 51.8195 102.878 52.3518 100.755 52.3518C94.4125 52.3518 88.0703 52.3518 81.7287 52.3518C79.6964 52.3463 77.6698 52.5684 75.687 53.0138C66.6228 55.0665 59.0691 63.3696 58.205 72.2569C57.9679 73.3278 57.9111 74.4166 57.8542 75.5022C57.8217 76.1512 58.0507 76.5374 58.5916 76.8895C61.732 78.9386 64.3995 81.6325 66.4166 84.7919C66.5465 84.9931 66.6066 85.3776 67.0045 85.2251V78.6453C67.1214 76.9042 66.8908 75.1452 67.1912 73.4171C68.4272 66.2887 74.0125 61.562 81.3519 61.5035C87.8955 61.45 94.4407 61.4873 100.984 61.4938C102.795 61.4938 103.394 62.0958 103.401 63.9034C103.412 66.4624 103.425 69.0213 103.401 71.5786C103.388 72.7583 103.774 73.6524 104.921 74.084C106.068 74.5156 106.967 74.0645 107.731 73.198C108.616 72.1903 109.517 71.1956 110.414 70.2026C111.406 69.1073 112.111 69.0148 113.389 69.7969C114.182 70.8062 114.008 71.7295 113.173 72.6268C112.121 73.7627 111.137 74.9521 110.047 76.0441C108.21 77.8875 105.999 78.4262 103.565 77.4705C101.13 76.5147 99.8295 74.6665 99.7613 72.0459C99.7039 70.0565 99.7039 68.0661 99.7613 66.0746C99.7824 65.3005 99.5241 65.1302 98.7868 65.1334C92.9725 65.161 87.1581 65.1091 81.3438 65.1594C75.0471 65.2146 70.7172 69.6395 70.7107 76.002C70.6934 91.0321 70.6934 106.063 70.7107 121.094C70.7107 123.572 70.2852 123.995 67.81 123.997C64.1103 123.997 60.41 123.997 56.7092 123.997C54.8139 123.997 54.2292 123.421 54.2276 121.535C54.2211 114.344 54.2211 107.153 54.2276 99.9637C54.2276 93.1988 49.8717 88.8582 43.1008 88.8517C37.4911 88.8517 31.8797 88.868 26.2684 88.8323C25.4418 88.8323 25.1429 88.9945 25.177 89.887C25.2469 91.7514 25.2225 93.6191 25.19 95.4917C25.1429 98.2128 23.7511 100.288 21.4139 101.21C19.0427 102.143 16.5172 101.562 14.6576 99.5175C10.2823 94.7095 5.9605 89.8529 1.58514 85.0434C0.893265 84.2824 0.65777 83.2779 0.0032514 82.5185L0 79.3511ZM57.89 108.734C57.89 112.268 57.9127 115.802 57.8721 119.335C57.8623 120.132 58.0783 120.375 58.8904 120.356C61.2064 120.3 63.5256 120.296 65.8416 120.356C66.7641 120.38 67.0808 120.174 67.0727 119.173C67.024 112.633 67.0727 106.094 67.0337 99.5548C67.0445 98.2551 66.9423 96.957 66.7284 95.675C64.6057 83.8735 55.2881 76.1123 43.2794 76.1026C36.8912 76.0961 30.5084 76.0961 24.1311 76.1026C22.0993 76.1026 21.5325 75.5216 21.5325 73.4706C21.5325 71.1567 21.5163 68.8412 21.5325 66.5257C21.5325 65.3898 21.1086 64.5525 20.0221 64.1371C18.9356 63.7217 18.0488 64.0787 17.2984 64.9144C13.0075 69.6893 8.71608 74.4637 4.42409 79.2375C3.36354 80.4237 3.37005 81.5206 4.43547 82.71C8.69227 87.4611 12.9751 92.1896 17.227 96.9439C18.0196 97.8299 18.9307 98.2064 20.0481 97.7926C21.185 97.3674 21.552 96.4377 21.5374 95.2645C21.5065 92.7056 21.5195 90.1466 21.5374 87.5877C21.5374 85.8401 22.1659 85.1975 23.8582 85.1959C30.4846 85.1878 37.111 85.1488 43.7374 85.2056C51.8012 85.2738 57.838 91.3944 57.89 99.4753C57.9062 102.568 57.8883 105.651 57.89 108.734Z" fill="#040403"/>
<path d="M113.396 69.8003C112.117 69.0182 111.413 69.1107 110.42 70.206C109.52 71.199 108.622 72.1937 107.737 73.2014C106.974 74.0679 106.081 74.5206 104.927 74.0873C103.774 73.6541 103.394 72.7616 103.407 71.582C103.437 69.0247 103.424 66.4657 103.407 63.9068C103.407 62.0992 102.801 61.4988 100.991 61.4972C94.4471 61.4972 87.9019 61.4534 81.3583 61.5069C74.0173 61.5653 68.4336 66.2921 67.1976 73.4204C66.8972 75.1486 67.1278 76.9075 67.0109 78.647C65.9633 78.1375 65.3721 77.1266 64.526 76.3948C62.603 74.7348 60.6411 73.1413 58.2114 72.2537C59.0755 63.3665 66.6292 55.0633 75.6934 53.0107C77.6762 52.5653 79.7028 52.3432 81.7351 52.3486C88.0767 52.3486 94.4189 52.3486 100.762 52.3486C102.884 52.3486 103.406 51.8164 103.409 49.6745C103.409 47.4028 103.43 45.1311 103.409 42.8496C103.396 41.7138 103.797 40.8473 104.885 40.4416C105.946 40.0457 106.86 40.3378 107.625 41.1913C111.939 45.9992 116.274 50.7909 120.577 55.6085C121.57 56.7184 121.531 57.8348 120.514 58.9918C119.039 60.6712 117.527 62.3182 116.032 63.9782C114.924 65.2082 114.872 65.7161 115.707 67.0953C114.947 68.0056 114.014 68.7667 113.396 69.8003Z" fill="#E33C5C"/>
<path d="M56.0891 40.1898C57.5508 39.8019 57.8756 39.4028 57.8853 37.8953C57.8951 33.2242 57.8951 28.5516 57.8853 23.8772C57.8853 22.2237 57.2519 21.6055 55.6116 21.5893C53.1299 21.5763 50.6499 21.5666 48.1682 21.5893C46.9973 21.6023 46.0991 21.2339 45.6395 20.0932C45.1799 18.9525 45.6233 18.0568 46.484 17.2844C51.2037 13.0493 55.9212 8.81249 60.6366 4.57412C61.9359 3.41392 63.011 3.40256 64.3119 4.57412C69.0684 8.82764 73.8157 13.092 78.5538 17.3671C79.3789 18.1103 79.7573 18.9898 79.3155 20.0948C78.8738 21.1998 78.0503 21.6023 76.9135 21.5941C74.3907 21.5758 71.869 21.5758 69.3483 21.5941C67.6934 21.5941 67.0632 22.2237 67.0616 23.8756C67.0529 31.7985 67.0529 39.7219 67.0616 47.6459C67.0616 49.0673 67.021 50.4888 67.0161 51.9102C67.0161 52.3321 66.9885 52.6956 66.576 52.9601C63.1117 55.1831 60.3296 58.0893 57.9032 61.5131V50.7386C57.9032 49.2361 57.8496 47.7302 57.9178 46.2293C57.9795 44.8792 57.4484 44.0533 56.1313 43.7515C56.1107 42.5626 56.0966 41.3754 56.0891 40.1898Z" fill="#FFC627"/>
<path d="M57.8898 108.734C57.8898 105.651 57.906 102.568 57.8898 99.4734C57.8378 91.3926 51.801 85.2719 43.7372 85.2038C37.1108 85.147 30.4844 85.1859 23.8581 85.194C22.1657 85.194 21.5453 85.8431 21.5372 87.5858C21.5258 90.1447 21.5128 92.7037 21.5372 95.2626C21.5518 96.4358 21.1913 97.372 20.0479 97.7907C18.9305 98.2045 18.0194 97.828 17.2268 96.942C12.9749 92.1877 8.69207 87.4592 4.43527 82.7081C3.36985 81.5187 3.36334 80.4218 4.42389 79.2356C8.70614 74.4531 12.9981 69.682 17.2999 64.9222C18.0502 64.0865 18.9337 63.7295 20.0235 64.1449C21.1133 64.5603 21.5421 65.3944 21.5339 66.5335C21.5144 68.849 21.5339 71.1645 21.5339 73.4785C21.5339 75.5295 22.1024 76.1088 24.1325 76.1104C30.5153 76.1104 36.8981 76.1104 43.2808 76.1104C55.2895 76.1201 64.6071 83.8813 66.7298 95.6829C66.9437 96.9649 67.0459 98.263 67.0351 99.5626C67.066 106.102 67.0254 112.641 67.0741 119.181C67.0822 120.182 66.7655 120.388 65.843 120.363C63.5271 120.302 61.2078 120.307 58.8918 120.363C58.0798 120.383 57.8638 120.14 57.8735 119.343C57.9125 115.804 57.8898 112.27 57.8898 108.734Z" fill="#004999"/>
<path d="M58.2166 72.2534C60.6528 73.141 62.6017 74.7345 64.5312 76.3944C65.3773 77.1263 65.9685 78.1372 67.0161 78.6467V85.2282C66.6182 85.3807 66.5581 84.9961 66.4281 84.7949C64.4111 81.6355 61.7436 78.9416 58.6031 76.8926C58.0623 76.5405 57.8333 76.151 57.8658 75.5052C57.9227 74.4132 57.9795 73.3244 58.2166 72.2534Z" fill="#CE214A"/>
</g>
<defs>
<clipPath id="clip0_331_355">
<rect width="125" height="124" fill="white"/>
</clipPath>
</defs>
</svg>
