<svg width="59" height="65" viewBox="0 0 59 65" fill="none" xmlns="http://www.w3.org/2000/svg">
<g clip-path="url(#clip0_735_1449)">
<path d="M43.4422 12.7088C42.3365 12.5557 41.3088 12.4195 40.2851 12.2703C39.169 12.1056 38.0425 10.8434 38.1778 9.63306C38.2376 9.10509 38.1882 8.56675 38.1882 7.99727H5.0771V8.72371C5.0771 23.4645 5.07363 38.2057 5.06669 52.9474C5.06669 53.4948 5.17986 53.6894 5.77564 53.6894C16.3357 53.6712 26.8958 53.6665 37.4558 53.6751H38.1791V49.0051C39.7401 49.2944 41.2035 49.5409 42.6565 49.8457C43.2171 49.9638 43.4708 50.3438 43.4643 50.9821C43.4357 53.6154 43.4708 56.2488 43.4734 58.8822C43.4734 62.5144 41.0136 64.9869 37.3739 64.9882C26.9439 64.9882 16.5139 64.9882 6.08393 64.9882C2.42603 64.9882 0 62.5948 0 58.9613C0 41.3061 0.00476777 23.6513 0.0143071 5.99695C0.0143071 3.73978 0.699839 1.78875 2.83969 0.712058C3.66546 0.288852 4.57572 0.0552665 5.50377 0.0284201C16.2798 -0.01828 27.0562 -0.025197 37.833 0.00766602C40.9927 0.0167466 43.4435 2.54244 43.4695 5.68821C43.4877 7.82474 43.4695 9.96126 43.4695 12.0978C43.4747 12.2781 43.4591 12.4467 43.4422 12.7088ZM21.6821 55.8947C20.763 55.8877 19.8784 56.2429 19.2207 56.8831C18.5629 57.5232 18.1853 58.3965 18.1699 59.3129C18.1746 60.2288 18.5361 61.107 19.1781 61.7621C19.8202 62.4171 20.6924 62.7976 21.6105 62.8231C23.5188 62.8491 25.0993 61.2665 25.1019 59.3206C25.1037 58.4142 24.7444 57.5441 24.1031 56.9017C23.4619 56.2593 22.591 55.8971 21.6821 55.8947Z" fill="#E43C5C"/>
<path d="M59.0003 32.5809C58.8481 33.2878 58.6777 34.1505 58.4709 35.0054C58.3642 35.4425 58.0807 35.6825 57.5863 35.7059C56.7772 35.7461 56.0969 36.1067 55.505 36.6438C53.451 38.4962 51.8627 40.7365 50.2718 42.9651C49.6865 43.785 49.464 44.7618 49.5525 45.797C49.5561 45.918 49.5339 46.0385 49.4872 46.1503C49.4406 46.2621 49.3706 46.3628 49.2819 46.4456C48.2178 47.2732 46.9717 47.687 45.6552 47.8881C45.5635 47.8924 45.4719 47.876 45.3875 47.8401C45.303 47.8041 45.2278 47.7496 45.1674 47.6805C44.3648 46.5597 43.2162 46.0992 41.9154 45.8994C39.8015 45.5764 37.6942 45.2028 35.5791 44.8993C34.4733 44.7384 33.3481 45.0139 32.4428 45.6672C32.2438 45.8048 31.8106 45.8592 31.6376 45.7373C30.6919 45.0679 29.7722 44.3558 28.8968 43.5982C28.7185 43.4438 28.6366 42.9742 28.7303 42.7459C29.2363 41.5628 29.2142 40.3746 28.8031 39.2071C28.1176 37.2612 27.3943 35.3154 26.6177 33.4007C26.1078 32.1385 25.2258 31.1656 23.9094 30.6765C23.4606 30.5105 23.3657 30.1369 23.4073 29.8035C23.5517 28.6736 23.7429 27.5489 23.9914 26.4385C24.0369 26.2335 24.4206 25.991 24.6691 25.965C26.2379 25.8016 27.4216 25.009 28.379 23.8207C29.4366 22.5092 30.5007 21.2029 31.5231 19.8642C32.4337 18.6629 32.9644 17.332 32.7602 15.7662C32.7264 15.5068 32.9748 15.0631 33.209 14.9555C34.2074 14.5008 35.2316 14.1044 36.2763 13.7685C36.5014 13.6946 36.9592 13.8593 37.0958 14.0591C37.9583 15.3265 39.2097 15.8544 40.6523 16.0568C42.4916 16.3163 44.3323 16.564 46.1743 16.8131C47.5063 16.9947 48.7759 16.8637 49.8387 15.9466C50.2289 15.6093 50.6035 15.7779 50.9027 15.9958C51.7437 16.5988 52.5534 17.2439 53.3288 17.9287C53.5265 18.1051 53.6644 18.589 53.5642 18.8121C53.3108 19.3522 53.168 19.9374 53.1443 20.5333C53.1207 21.1292 53.2165 21.7238 53.4263 22.2822C54.2068 24.4045 55.0524 26.5034 55.946 28.5789C56.1765 29.1177 56.5118 29.6055 56.9324 30.0143C57.3531 30.4231 57.8508 30.7447 58.3968 30.9606C59.0953 31.2512 58.8403 31.8933 59.0003 32.5809ZM41.1362 20.793C35.5739 20.7995 31.0379 25.2995 31.0275 30.8231C31.0171 36.3778 35.57 40.9311 41.1349 40.9285C43.8065 40.9197 46.3669 39.8604 48.2602 37.9806C50.1535 36.1008 51.2269 33.5522 51.2475 30.888C51.2696 25.3346 46.7167 20.7878 41.1362 20.793Z" fill="#E43C5C"/>
<path d="M41.1368 38.1591C37.1264 38.1669 33.795 34.8239 33.8067 30.8038C33.819 28.8617 34.6004 27.0032 35.9807 25.633C37.361 24.2629 39.2283 23.4922 41.1758 23.4888C45.1667 23.4823 48.4864 26.7824 48.5072 30.7753C48.5097 32.7285 47.735 34.6029 46.3532 35.9872C44.9714 37.3715 43.0954 38.1526 41.1368 38.1591ZM47.2689 30.835C47.2793 27.5037 44.5605 24.738 41.2513 24.7211C40.4444 24.7098 39.6432 24.8576 38.8938 25.1561C38.1444 25.4545 37.4616 25.8977 36.8845 26.4602C36.3074 27.0227 35.8475 27.6934 35.5311 28.4337C35.2148 29.174 35.0483 29.9693 35.0411 30.774C35.0216 34.1143 37.7312 36.8956 41.0249 36.9163C44.4968 36.9384 47.2598 34.248 47.2689 30.835Z" fill="#E43C5C"/>
</g>
<defs>
<clipPath id="clip0_735_1449">
<rect width="59" height="65" fill="white"/>
</clipPath>
</defs>
</svg>
