<svg width="65" height="65" viewBox="0 0 65 65" fill="none" xmlns="http://www.w3.org/2000/svg">
<path d="M36.0284 57.1745C34.9134 57.252 33.7335 56.7961 32.5347 56.4556C30.0916 55.7609 27.6523 55.0502 25.2169 54.3235C23.9118 53.9315 22.6793 54.0042 21.4618 54.6403C20.3935 55.1989 19.3021 55.7141 18.2083 56.2206C17.8819 56.3718 17.8019 56.5153 17.9704 56.8466C18.2036 57.3081 18.4125 57.7814 18.5963 58.2647C19.1259 59.6447 18.578 61.1475 17.2483 61.7764C15.7504 62.4849 14.2328 63.1508 12.6954 63.7742C11.2261 64.3713 9.72015 63.7771 9.07552 62.3229C6.44947 56.3983 3.8422 50.4652 1.25371 44.5236C0.60763 43.041 1.2253 41.5204 2.69126 40.8501C4.14036 40.1882 5.59959 39.549 7.06892 38.9327C8.49203 38.338 10.0268 38.9038 10.6797 40.2848C10.8963 40.7442 11.0499 40.8077 11.5063 40.5853C14.4483 39.1518 17.4255 37.7901 20.3545 36.3301C24.1722 34.4267 27.8807 34.4705 31.4274 36.9016C32.7032 37.7761 34.133 38.079 35.5562 38.4728C37.3196 38.9611 39.0903 39.4243 40.8586 39.8957C42.0791 40.2212 43.0515 40.9069 43.7111 41.9778C43.9412 42.3515 44.13 42.3914 44.5295 42.2725C48.4508 41.1087 52.374 39.9511 56.3087 38.8349C57.83 38.4016 59.387 38.2176 60.9786 38.4589C63.9153 38.9038 65.5498 41.2469 64.8262 44.1225C64.3125 46.1646 63.1036 47.6982 61.111 48.4735C54.472 51.0567 47.8249 53.6187 41.1696 56.1595C39.5785 56.7643 37.9238 57.1745 36.0284 57.1745ZM36.3004 55.3544C37.6874 55.363 39.0706 55.0077 40.3998 54.5007C47.0985 51.946 53.7889 49.3698 60.4712 46.7718C61.8991 46.2171 62.7339 45.0865 63.0776 43.6087C63.4801 41.8873 62.6347 40.631 60.903 40.2887C59.6648 40.0445 58.4304 40.1442 57.248 40.4745C53.1009 41.6335 48.9741 42.8657 44.8353 44.0546C44.4501 44.1654 44.4982 44.4177 44.4795 44.6979C44.2777 47.9299 41.4301 50.0004 38.3003 49.176C35.0516 48.3204 31.8087 47.4426 28.5634 46.5758C28.1469 46.4646 27.7204 46.3832 27.3189 46.2306C26.8418 46.051 26.5967 45.686 26.7204 45.1587C26.837 44.6628 27.289 44.3984 27.8133 44.4986C27.9818 44.5303 28.1469 44.5833 28.3135 44.6276C31.8515 45.5695 35.3852 46.5272 38.9286 47.4459C39.305 47.5463 39.6976 47.5716 40.0838 47.5203C40.47 47.4689 40.8423 47.342 41.1795 47.1468C41.5167 46.9515 41.8121 46.6917 42.0489 46.3822C42.2857 46.0728 42.4592 45.7197 42.5595 45.3431C42.9769 43.7541 42.0978 42.1815 40.4894 41.6865C39.7489 41.4583 38.9926 41.2825 38.2469 41.0711C35.1975 40.2082 32.0696 39.6497 29.3245 37.8363C27.3415 36.5256 25.0398 36.4399 22.7968 37.3201C19.0854 38.7805 15.5979 40.7288 11.9646 42.364C11.6757 42.4935 11.7359 42.6529 11.8351 42.8783C13.5214 46.7005 15.2017 50.5257 16.8761 54.3538C17.0317 54.7106 17.1761 54.7274 17.502 54.5628C18.5766 54.0162 19.6742 53.5145 20.7521 52.9738C22.3096 52.1923 23.9065 52.0483 25.5814 52.5491C27.7883 53.2094 30.0016 53.8485 32.2213 54.4665C33.5428 54.8276 34.8249 55.4025 36.3004 55.352V55.3544ZM16.9618 59.298C16.9768 59.0741 16.894 58.8757 16.8068 58.6773C14.2639 52.903 11.721 47.1283 9.17806 41.3533C8.80736 40.5121 8.36926 40.3421 7.53542 40.7042C6.31162 41.2377 5.09263 41.7818 3.87028 42.3187C2.73892 42.8161 2.61327 43.1339 3.10626 44.2539C4.63303 47.7234 6.15932 51.1928 7.68514 54.662C8.66437 56.8895 9.63782 59.1199 10.6219 61.3454C10.968 62.1293 11.3975 62.3523 12.0854 62.0619C13.5138 61.46 14.9316 60.8321 16.348 60.2023C16.7264 60.0318 16.97 59.7405 16.9618 59.2956V59.298Z" fill="black"/>
<path d="M30.9017 22.5573C29.5301 22.3647 28.1859 22.1721 26.9222 21.6424C26.9024 21.6342 26.8798 21.6332 26.8601 21.625C24.5285 20.6996 23.7635 19.3099 24.2315 16.8494C25.0436 12.5773 28.7184 9.50475 33.008 9.51198C37.3067 9.51872 40.9545 12.5817 41.77 16.8681C42.2264 19.2757 41.5514 20.557 39.2983 21.5528C37.9831 22.134 36.5802 22.3608 35.0824 22.5534C35.2269 22.9309 35.3602 23.2757 35.4864 23.6238C35.5745 23.8646 35.7786 23.8347 35.9678 23.8463C37.3023 23.9296 38.6364 24.0235 39.9714 24.0923C40.4827 24.1183 40.9193 24.2267 41.0931 24.7737C41.2626 25.3034 40.9371 25.6212 40.5736 25.9197C39.5573 26.7551 38.5516 27.605 37.5233 28.4236C37.2402 28.6485 37.1829 28.857 37.2744 29.1916C37.6215 30.4585 37.9455 31.7311 38.2739 33.0028C38.3913 33.4559 38.4534 33.9091 38.0163 34.2437C37.5531 34.5986 37.1362 34.406 36.7126 34.1301C35.6655 33.4478 34.5943 32.8011 33.5602 32.1C33.1692 31.8352 32.8861 31.801 32.4784 32.0803C31.4284 32.7963 30.336 33.4492 29.2682 34.1387C28.8652 34.3988 28.4661 34.5861 28.0165 34.2726C27.535 33.9384 27.5962 33.4689 27.7204 32.9898C28.0285 31.8019 28.2981 30.602 28.6616 29.4309C28.833 28.8772 28.6929 28.5762 28.2615 28.243C27.2727 27.4774 26.3252 26.6588 25.3575 25.8663C25.0022 25.5773 24.735 25.247 24.9026 24.7588C25.0749 24.2551 25.4803 24.1217 25.9752 24.0967C27.1788 24.036 28.3862 23.8891 29.5908 23.8978C30.2922 23.9031 30.6075 23.6282 30.752 23.0104C30.7842 22.865 30.8434 22.7277 30.9017 22.5573ZM35.8421 31.3613L35.9148 31.4418C35.9716 31.3893 35.9548 31.3411 35.9057 31.2949C35.7189 30.5221 35.5644 29.7391 35.3357 28.9788C35.1397 28.3278 35.2967 27.8679 35.8359 27.461C36.494 26.9641 37.1122 26.4133 37.8497 25.8008C36.9263 25.743 36.157 25.6563 35.3882 25.6563C34.6097 25.6563 34.148 25.3419 33.9063 24.5922C33.6656 23.8526 33.3421 23.1413 32.9974 22.2732C32.6517 23.1399 32.3277 23.8208 32.1077 24.5363C31.8588 25.3438 31.3663 25.6684 30.5363 25.6616C29.7819 25.6558 29.0265 25.7517 28.1489 25.8114C28.8792 26.4176 29.4699 26.9579 30.1126 27.4264C30.7082 27.8597 30.8569 28.361 30.6422 29.0539C30.4015 29.8277 30.2253 30.6227 29.9918 31.5212C30.8237 30.9915 31.5632 30.5519 32.2714 30.0651C32.7904 29.7088 33.2492 29.7372 33.76 30.0767C34.4378 30.5269 35.146 30.9347 35.8421 31.3613ZM33.0056 11.3408C31.2742 11.3378 29.602 11.9707 28.3063 13.1192C27.0107 14.2678 26.1817 15.8522 25.9767 17.5716C25.8279 18.8159 26.0392 19.2227 27.1677 19.7683C28.2875 20.3091 29.5041 20.4858 30.712 20.7116C31.4183 20.8431 31.8087 20.6485 31.956 19.9474C31.9912 19.7813 32.0706 19.6234 32.139 19.4659C32.2993 19.0971 32.5723 18.8823 32.9858 18.8794C33.3994 18.8765 33.682 19.0764 33.8399 19.4515C33.9814 19.7885 34.1201 20.1256 34.2448 20.4708C34.3102 20.6514 34.3892 20.7665 34.6092 20.7468C36.2942 20.5946 37.9532 20.3582 39.4115 19.412C39.8236 19.1447 40.0927 18.7754 40.0802 18.2342C39.994 14.4326 36.83 11.3461 33.0056 11.3408Z" fill="black"/>
<path d="M14.4964 10.333C14.6943 10.501 14.9451 10.4712 15.1704 10.5212C18.4259 11.2377 20.86 14.1268 21.0709 17.4623C21.1532 18.7663 20.573 19.6532 19.5048 20.2821C18.2708 21.0082 16.9007 21.2933 15.4992 21.4339C13.3588 21.6467 11.2338 21.5711 9.15062 20.9711C8.86191 20.8846 8.57877 20.7804 8.30282 20.6591C6.32029 19.8116 5.7079 18.6685 6.09834 16.5585C6.67077 13.4652 9.04134 11.0841 12.1456 10.4813C12.29 10.4529 12.4345 10.4105 12.7147 10.3402C11.5717 9.9858 10.7138 9.43542 10.1515 8.50416C9.5892 7.57291 9.40866 6.58772 9.6619 5.52357C10.0986 3.68947 11.6733 2.44185 13.5548 2.45197C15.4136 2.46063 17.0004 3.7458 17.4139 5.57798C17.8655 7.5782 16.8646 9.21151 14.4964 10.333ZM13.4893 19.6889C13.8985 19.6889 14.3101 19.7163 14.7164 19.6836C16.0086 19.5805 17.2858 19.3947 18.4543 18.7822C18.9545 18.5193 19.3059 18.186 19.2616 17.5235C19.0744 14.7413 16.7582 12.3635 14.0217 12.1825C11.0422 11.986 8.43714 13.9501 7.89746 16.8017C7.64856 18.1148 7.86905 18.5438 9.11403 19.0258C10.5193 19.5704 11.9925 19.7259 13.4893 19.6889ZM13.5451 4.26873C12.9796 4.25982 12.4334 4.47519 12.0262 4.86776C11.6189 5.26033 11.3835 5.7982 11.3715 6.36382C11.3643 6.6493 11.4142 6.93333 11.5183 7.19925C11.6223 7.46518 11.7784 7.70764 11.9775 7.9124C12.1765 8.11715 12.4144 8.28008 12.6772 8.39162C12.9401 8.50317 13.2225 8.56107 13.5081 8.56194C14.7049 8.57013 15.6485 7.6538 15.6673 6.46541C15.687 5.23272 14.767 4.27788 13.5451 4.26873Z" fill="black"/>
<path d="M51.5349 10.3228C48.8153 9.37808 48.2703 7.26084 48.5736 5.6179C48.9106 3.7838 50.5734 2.4553 52.4626 2.45337C54.4085 2.45337 55.9943 3.78332 56.3771 5.74166C56.7622 7.71299 55.655 9.41419 53.3922 10.3272C53.6329 10.5125 53.9285 10.4817 54.1962 10.5458C55.836 10.9377 57.2979 11.8663 58.3498 13.1841C59.4017 14.5019 59.9833 16.1334 60.0023 17.8196C60.0158 18.9945 59.3596 19.7529 58.4136 20.3023C57.1965 21.0087 55.8475 21.2961 54.4658 21.43C52.2161 21.6481 49.9847 21.5884 47.811 20.8729C47.6887 20.8329 47.5669 20.7896 47.4466 20.7429C45.2214 19.8723 44.519 18.5967 45.1044 16.2763C45.9021 13.1161 47.9184 11.1722 51.116 10.4788C51.2003 10.4605 51.285 10.4432 51.3673 10.4182C51.4259 10.3914 51.4819 10.3595 51.5349 10.3228ZM52.4578 19.6898C52.867 19.6898 53.2762 19.7182 53.6845 19.6845C54.9757 19.5771 56.2481 19.3831 57.4189 18.7735C57.9687 18.487 58.2239 18.0931 58.1714 17.4252C57.9552 14.6676 55.6482 12.3375 52.9238 12.181C49.9293 12.0086 47.3392 13.9954 46.8472 16.8387C46.6122 18.2014 46.7894 18.538 48.083 19.0349C49.4893 19.5757 50.962 19.7264 52.4578 19.6883V19.6898ZM52.4578 8.56238C52.7432 8.56489 53.0264 8.51045 53.2906 8.40223C53.5548 8.29402 53.7948 8.13421 53.9965 7.93214C54.1982 7.73007 54.3576 7.4898 54.4654 7.22538C54.5732 6.96097 54.6272 6.67772 54.6242 6.39219C54.6164 5.82686 54.3864 5.28732 53.9841 4.89016C53.5818 4.493 53.0394 4.27011 52.4741 4.26965C51.2739 4.26965 50.3419 5.18213 50.326 6.37485C50.3091 7.60465 51.2378 8.55805 52.4563 8.56094L52.4578 8.56238Z" fill="black"/>
<path d="M48.0339 33.4462C48.2462 32.6127 48.4229 31.6756 48.731 30.7843C48.9809 30.0621 48.8629 29.6027 48.213 29.1761C47.5871 28.7639 47.0393 28.2289 46.4543 27.7513C46.074 27.4412 45.7235 27.1224 45.919 26.5561C46.1087 26.0053 46.5525 25.9239 47.0575 25.9042C47.9626 25.869 48.8663 25.7871 49.7714 25.7597C50.1772 25.7477 50.3732 25.5859 50.5084 25.2031C50.8238 24.3108 51.1969 23.4388 51.5363 22.5547C51.7043 22.117 51.9696 21.7872 52.4659 21.7901C52.9623 21.7929 53.2203 22.1185 53.3869 22.5605C53.7191 23.447 54.0956 24.3171 54.4162 25.2088C54.5529 25.5892 54.7532 25.7491 55.1624 25.7607C56.0459 25.7847 56.9278 25.8704 57.8103 25.8993C58.3375 25.9167 58.8305 25.9831 59.0139 26.5576C59.1973 27.132 58.83 27.4768 58.4212 27.8013C57.7294 28.3522 57.0694 28.9445 56.3646 29.477C56.0276 29.7308 55.9833 29.9841 56.0892 30.3592C56.3299 31.2081 56.5316 32.0685 56.7632 32.9208C56.8975 33.4202 56.9967 33.9108 56.497 34.2691C56.0223 34.6095 55.6087 34.3793 55.1933 34.1044C54.4918 33.6412 53.749 33.2377 53.0774 32.7345C52.6133 32.3868 52.2844 32.4345 51.8372 32.7537C51.0842 33.2916 50.2889 33.7722 49.4936 34.2465C48.8042 34.6591 48.0531 34.2773 48.0339 33.4462ZM54.3657 31.3597C54.3888 31.3867 54.4138 31.4142 54.4345 31.4416C54.4923 31.3877 54.474 31.3429 54.4186 31.302C54.3252 30.8835 54.2458 30.4612 54.1356 30.0471C53.9757 29.4443 54.085 28.9623 54.6136 28.5669C54.9752 28.2968 55.3733 28.0435 55.6612 27.6164C55.1422 27.5683 54.6921 27.4922 54.2434 27.4989C53.5752 27.509 53.2126 27.1831 53.0124 26.5792C52.8703 26.1517 52.6845 25.7385 52.4688 25.1944C52.2185 25.8117 52.0144 26.2831 51.8367 26.7641C51.6591 27.2452 51.323 27.4715 50.8089 27.4898C50.2947 27.5081 49.7979 27.5707 49.1595 27.6251C49.6111 27.9968 49.9587 28.3074 50.3308 28.5848C50.8238 28.9517 50.9788 29.3899 50.806 29.9951C50.6803 30.4348 50.4863 30.8725 50.5205 31.4363C50.9749 31.1527 51.3803 30.9158 51.7688 30.6538C52.2329 30.3409 52.6715 30.3351 53.1501 30.6394C53.5468 30.8917 53.9098 31.2061 54.3657 31.3597Z" fill="black"/>
<path d="M17.0519 34.4429C16.7784 34.4429 16.5603 34.2984 16.3422 34.1598C15.5421 33.6508 14.7304 33.1577 13.949 32.6213C13.6294 32.4013 13.4055 32.4249 13.0969 32.6329C12.2934 33.1755 11.4634 33.6782 10.6474 34.2026C10.2762 34.4434 9.89972 34.5493 9.5035 34.2777C9.07936 33.9888 9.05722 33.5714 9.17421 33.1221C9.4183 32.1841 9.65564 31.2442 9.91658 30.311C10.0129 29.959 9.95606 29.7255 9.64361 29.4866C8.87332 28.8982 8.14394 28.254 7.38521 27.6482C7.00488 27.3444 6.83012 26.9741 6.99285 26.5147C7.14835 26.0751 7.51953 25.9287 7.96726 25.9085C8.91568 25.8661 9.86266 25.7905 10.8111 25.7597C11.2063 25.7472 11.4263 25.6191 11.566 25.2242C11.8895 24.3118 12.278 23.4229 12.6217 22.5171C12.7825 22.0939 13.042 21.7978 13.5061 21.7872C14.0044 21.7756 14.2798 22.0963 14.4492 22.534C14.7988 23.4373 15.1748 24.3315 15.4992 25.244C15.6292 25.6104 15.829 25.7419 16.2017 25.7558C17.1501 25.7905 18.0971 25.8642 19.0455 25.9075C19.511 25.9287 19.8971 26.052 20.0661 26.5369C20.2351 27.0217 20.0151 27.3651 19.6526 27.6607C18.9333 28.2467 18.2304 28.853 17.4977 29.4211C17.1525 29.6893 17.0162 29.9296 17.1645 30.3938C17.463 31.3366 17.6854 32.305 17.9151 33.2685C18.0629 33.892 17.6445 34.4371 17.0519 34.4429ZM11.5313 31.4334C12.2361 31.1695 12.7151 30.4757 13.4719 30.4251C14.2697 30.3712 14.7391 31.1681 15.5421 31.3824C15.4155 30.8734 15.3192 30.415 15.1849 29.9677C15.0144 29.399 15.1632 28.9642 15.6355 28.6088C16.0206 28.3199 16.3827 27.9987 16.8391 27.6232C16.2132 27.5697 15.7217 27.4989 15.2316 27.4936C14.6539 27.4879 14.3169 27.2119 14.118 26.6914C13.9394 26.2268 13.8166 25.7327 13.4922 25.2734C13.2895 25.7871 13.0984 26.2426 12.9289 26.7064C12.7363 27.236 12.3829 27.4893 11.8081 27.4956C11.3156 27.5009 10.8236 27.5784 10.3008 27.6265C10.8125 28.2573 11.6488 28.487 11.8774 29.2232C12.1066 29.9686 11.5626 30.6683 11.5313 31.4334Z" fill="black"/>
<path d="M32.9685 2.7747e-05C34.1902 -0.00420548 35.3637 0.476097 36.232 1.3357C37.1003 2.1953 37.5925 3.3641 37.6008 4.586C37.6124 7.0899 35.56 9.17679 33.0614 9.19894C30.4891 9.22157 28.378 7.13275 28.3949 4.58215C28.4117 2.06911 30.4641 0.0125472 32.9685 2.7747e-05ZM30.2359 4.57781C30.2258 6.1153 31.4245 7.35713 32.9439 7.38314C33.3112 7.39096 33.6763 7.32535 34.0179 7.19014C34.3595 7.05493 34.6707 6.85286 34.9331 6.59578C35.1956 6.33869 35.4041 6.03176 35.5464 5.69301C35.6887 5.35426 35.7619 4.9905 35.7617 4.62307C35.7723 3.06295 34.5355 1.81053 32.9892 1.81583C32.2583 1.81838 31.5582 2.11044 31.0422 2.6281C30.5262 3.14575 30.2362 3.84682 30.2359 4.57781Z" fill="black"/>
<path d="M16.9628 59.2931C16.97 59.7385 16.7264 60.0298 16.348 60.1978C14.9317 60.8277 13.5139 61.4556 12.0854 62.0575C11.3975 62.3464 10.968 62.1249 10.6219 61.341C9.63784 59.1154 8.66439 56.885 7.68516 54.6575C6.15934 51.1877 4.63305 47.7183 3.10627 44.2495C2.61329 43.1295 2.73894 42.8117 3.8703 42.3143C5.09265 41.7774 6.31164 41.2333 7.53544 40.6997C8.36928 40.3367 8.80737 40.5071 9.17808 41.3488C11.7229 47.1225 14.2658 52.8972 16.8068 58.6729C16.894 58.8732 16.9768 59.0716 16.9628 59.2931Z" fill="#004999"/>
<path d="M35.8421 31.3614C35.146 30.9347 34.4378 30.5269 33.758 30.0757C33.2472 29.7386 32.7884 29.7078 32.2694 30.0641C31.5613 30.551 30.8218 30.9925 29.9899 31.5203C30.2234 30.6217 30.3981 29.8268 30.6403 29.053C30.8569 28.3601 30.7082 27.8598 30.1107 27.4254C29.468 26.9569 28.8773 26.4166 28.1469 25.8104C29.0246 25.7507 29.78 25.6549 30.5344 25.6607C31.3644 25.6674 31.8568 25.3429 32.1057 24.5354C32.3258 23.8213 32.6498 23.1389 32.9954 22.2722C33.3401 23.1389 33.6656 23.8516 33.9044 24.5912C34.1451 25.3409 34.6078 25.6558 35.3862 25.6554C36.1565 25.6554 36.9268 25.7416 37.8478 25.7998C37.1102 26.4123 36.4921 26.9632 35.834 27.4601C35.2948 27.867 35.1378 28.3268 35.3337 28.9778C35.5624 29.7382 35.7189 30.5187 35.9038 31.2939C35.884 31.3171 35.8624 31.3382 35.8421 31.3614Z" fill="#E33C5C"/>
<path d="M35.9057 31.2949C35.9538 31.3431 35.9716 31.3912 35.9148 31.4418L35.8421 31.3614C35.8624 31.3383 35.884 31.3171 35.9057 31.2949Z" fill="#A3D2FD"/>
<path d="M13.5451 4.26858C14.7646 4.27773 15.687 5.23161 15.6673 6.46526C15.6485 7.65364 14.7044 8.56997 13.5081 8.56179C13.2225 8.56091 12.9401 8.50301 12.6772 8.39147C12.4144 8.27993 12.1765 8.117 11.9775 7.91224C11.7784 7.70749 11.6223 7.46503 11.5183 7.1991C11.4142 6.93317 11.3643 6.64914 11.3715 6.36366C11.3835 5.79805 11.6189 5.26018 12.0262 4.86761C12.4335 4.47503 12.9796 4.25967 13.5451 4.26858Z" fill="#004999"/>
<path d="M52.4563 8.5608C51.2378 8.55791 50.3091 7.6045 50.3255 6.37326C50.3414 5.18054 51.2734 4.2671 52.4736 4.26807C53.0389 4.26852 53.5813 4.49141 53.9836 4.88857C54.3859 5.28574 54.6159 5.82528 54.6237 6.3906C54.6267 6.67622 54.5726 6.95955 54.4648 7.22403C54.357 7.48851 54.1975 7.72881 53.9956 7.9309C53.7938 8.13298 53.5537 8.29277 53.2894 8.40093C53.0251 8.50909 52.7419 8.56344 52.4563 8.5608Z" fill="#004999"/>
<path d="M54.3657 31.3599C53.9097 31.2063 53.5472 30.8919 53.15 30.6376C52.6715 30.3333 52.2329 30.3391 51.7688 30.6521C51.3803 30.914 50.9749 31.1509 50.5205 31.4345C50.4863 30.8707 50.6803 30.433 50.806 29.9934C50.9788 29.3881 50.8238 28.9499 50.3308 28.583C49.9586 28.3056 49.611 27.9951 49.1595 27.6233C49.7959 27.5689 50.3014 27.5058 50.8088 27.488C51.3163 27.4702 51.6566 27.2473 51.8367 26.7624C52.0168 26.2775 52.2185 25.8099 52.4688 25.1926C52.6845 25.7367 52.8703 26.1499 53.0123 26.5775C53.2126 27.1813 53.5751 27.5073 54.2434 27.4972C54.6921 27.4904 55.1422 27.5684 55.6612 27.6147C55.3723 28.0418 54.9751 28.295 54.6136 28.5652C54.084 28.9605 53.9757 29.4425 54.1355 30.0454C54.2458 30.4595 54.3252 30.8818 54.4186 31.3002L54.3657 31.3599Z" fill="#E33C5C"/>
<path d="M54.4186 31.302C54.474 31.3429 54.4923 31.3877 54.4345 31.4416C54.4119 31.4142 54.3888 31.3867 54.3657 31.3598L54.4186 31.302Z" fill="#A3D2FD"/>
<path d="M11.5313 31.4335C11.5626 30.6684 12.1066 29.9687 11.8755 29.2233C11.6473 28.4871 10.8106 28.2574 10.2988 27.6266C10.8217 27.5785 11.3137 27.5009 11.8062 27.4956C12.381 27.4894 12.7339 27.2356 12.927 26.7064C13.0964 26.2427 13.2876 25.7872 13.4902 25.2734C13.8138 25.7328 13.9365 26.2268 14.1161 26.6915C14.3159 27.212 14.6515 27.4879 15.2297 27.4937C15.7197 27.499 16.2094 27.5698 16.8371 27.6232C16.3817 27.9988 16.0187 28.319 15.6336 28.6089C15.1613 28.9643 15.0125 29.3991 15.1829 29.9678C15.3173 30.4151 15.4136 30.8735 15.5402 31.3825C14.7391 31.1682 14.2697 30.3713 13.47 30.4252C12.7151 30.4758 12.2361 31.1696 11.5313 31.4335Z" fill="#E33C5C"/>
<path d="M30.2359 4.57791C30.2363 3.84692 30.5262 3.14586 31.0422 2.6282C31.5582 2.11055 32.2583 1.81848 32.9892 1.81593C34.5355 1.81064 35.7723 3.06306 35.7617 4.62317C35.7619 4.99061 35.6887 5.35437 35.5464 5.69312C35.4041 6.03187 35.1956 6.3388 34.9331 6.59588C34.6707 6.85297 34.3595 7.05504 34.0179 7.19024C33.6763 7.32545 33.3112 7.39106 32.9439 7.38324C31.4245 7.35724 30.2258 6.1154 30.2359 4.57791Z" fill="#004999"/>
</svg>
