<svg width="82" height="77" viewBox="0 0 82 77" fill="none" xmlns="http://www.w3.org/2000/svg">
<g clip-path="url(#clip0_799_26)">
<path d="M64.9894 77H17.0656V44.1672H64.9894V77ZM34.5635 69.7536L37.8005 70.8338C40.162 64.3004 42.4531 57.9649 44.8062 51.4565L41.599 50.3287C39.2447 56.8299 36.9465 63.1761 34.5635 69.7536ZM31.1485 68.2264L33.4885 65.6214L27.2772 59.9702L33.1182 54.908L31.0876 52.4484L23.204 60.2778L31.1485 68.2264ZM55.0919 60.4829L48.6679 65.8288L50.8574 68.1906L58.79 60.2873L51.168 52.6857L48.7791 54.6851L55.0919 60.4829Z" fill="#E33B5C"/>
<path d="M72.284 54.8734L71.0896 51.9417C71.4825 51.6842 71.8469 51.4219 72.2327 51.1978C80.5188 46.4074 80.8592 34.6151 72.8001 29.4086C71.6271 28.6515 71.4551 27.9052 71.6247 26.6534C73.1572 15.3546 64.9511 4.80819 53.6155 3.63504C48.0707 3.06039 43.2462 4.96795 39.1515 8.68293C38.1207 9.61883 37.22 10.6978 36.1331 11.8435C33.4204 10.3365 30.519 9.3315 27.27 9.69751C21.0647 10.4069 16.2091 14.966 14.9668 21.3527C14.7769 22.3292 14.6766 23.1268 13.414 23.5691C7.47027 25.6483 4.18543 30.0572 3.5416 36.1828C2.92405 42.0486 5.11953 46.8735 10.0432 50.325C10.3147 50.5158 10.5815 50.7117 10.8435 50.9128C10.8913 50.9498 10.908 51.032 11.0465 51.2884C10.6225 52.0776 10.1363 52.9825 9.5821 54.0114C4.20694 50.9772 1.13712 46.5004 0.243652 40.6501C-1.03205 32.2795 2.93959 24.8817 10.478 20.9664C11.1254 20.6302 11.7083 19.8124 11.94 19.0958C15.2117 8.97383 24.0927 4.22519 34.2828 7.15211C34.8347 7.31068 35.7425 7.12469 36.1569 6.74318C43.5818 -0.0763645 52.0782 -1.99943 61.2578 2.2294C70.705 6.58222 75.0994 14.5344 75.1329 24.8543C75.1329 26.1896 75.5211 27.0003 76.5089 27.8694C85.3612 35.675 83.198 50.3334 72.284 54.8734Z" fill="#E33B5C"/>
<path d="M26.9678 35.4019H23.3521V32.2461H26.9678V35.4019Z" fill="#E33B5C"/>
<path d="M31.213 32.2009H34.9159V35.3258H31.213V32.2009Z" fill="#E33B5C"/>
<path d="M42.9105 32.27V35.3555H39.1407V32.27H42.9105Z" fill="#E33B5C"/>
<path d="M47.1677 32.2139H50.818V35.3315H47.1677V32.2139Z" fill="#E33B5C"/>
<path d="M55.0835 32.2151H58.6944V35.3697H55.0835V32.2151Z" fill="#E33B5C"/>
</g>
<defs>
<clipPath id="clip0_799_26">
<rect width="82" height="77" fill="white"/>
</clipPath>
</defs>
</svg>
