<svg width="75" height="68" viewBox="0 0 75 68" fill="none" xmlns="http://www.w3.org/2000/svg">
<g clip-path="url(#clip0_775_438)">
<path d="M36.9658 53.1994C37.4791 53.1994 37.9924 53.1994 38.4968 53.1994C38.8882 53.1994 39.1936 53.3572 39.218 53.757C39.2462 54.209 38.9049 54.3821 38.5045 54.3872C37.4419 54.4008 36.3789 54.4008 35.3155 54.3872C34.9447 54.3872 34.6238 54.2255 34.629 53.7978C34.629 53.3381 34.9678 53.2057 35.372 53.2019C35.9033 53.1968 36.4346 53.1994 36.9658 53.1994Z" fill="#E33B5C"/>
<path d="M42.6846 54.3913C42.1533 54.3913 41.6221 54.4015 41.0908 54.3913C40.6814 54.3811 40.3555 54.1965 40.3824 53.7547C40.4055 53.3588 40.7109 53.1996 41.1049 53.2022C42.1469 53.2022 43.1877 53.2022 44.2297 53.2022C44.6314 53.2022 44.9791 53.3422 44.9701 53.798C44.9612 54.2538 44.6147 54.385 44.2143 54.39C43.701 54.3977 43.1902 54.3926 42.6846 54.3913Z" fill="#E33B5C"/>
<path d="M29.1564 54.3173C28.8035 53.9684 28.7444 53.6209 29.1564 53.272C30.3896 53.1129 31.628 53.2249 32.8651 53.2109C32.9412 53.2051 33.0177 53.2149 33.0899 53.2397C33.1621 53.2645 33.2284 53.3037 33.2846 53.3549C33.3409 53.4061 33.3861 53.4682 33.4172 53.5374C33.4483 53.6065 33.4648 53.6813 33.4656 53.7571C33.4728 53.838 33.4623 53.9196 33.4348 53.9961C33.4073 54.0727 33.3635 54.1425 33.3064 54.2007C33.2493 54.2589 33.1802 54.3043 33.1038 54.3336C33.0274 54.363 32.9455 54.3756 32.8638 54.3708C31.628 54.3822 30.3896 54.4764 29.1564 54.3173Z" fill="#E33B5C"/>
<path d="M48.268 31.5377C47.9947 31.5504 47.8458 31.3786 47.7059 31.18C47.1169 30.3486 46.5279 29.5172 45.9286 28.6935C45.686 28.3599 45.5821 28.0301 45.9607 27.7526C46.3392 27.475 46.6331 27.6826 46.868 28.0072C47.4728 28.856 48.0789 29.7018 48.6864 30.5446C48.8403 30.7598 48.9533 30.9788 48.7967 31.2462C48.7481 31.3417 48.6717 31.4205 48.5775 31.4725C48.4832 31.5244 48.3754 31.5472 48.268 31.5377Z" fill="#E33B5C"/>
<path d="M49.5993 32.2915C49.8713 32.2724 50.0356 32.4405 50.1742 32.634C50.7953 33.4964 51.4138 34.3604 52.0298 35.2262C52.2595 35.5483 52.2865 35.8628 51.9272 36.1098C51.5678 36.3568 51.2855 36.1811 51.0622 35.8691C50.4437 35.0059 49.8251 34.1423 49.2066 33.2782C49.0449 33.0542 48.9705 32.8237 49.1283 32.5716C49.1732 32.4864 49.241 32.4152 49.3241 32.3658C49.4072 32.3164 49.5024 32.2907 49.5993 32.2915Z" fill="#E33B5C"/>
<path d="M55.5396 40.2867C55.5392 40.4019 55.5042 40.5143 55.4391 40.6096C55.3739 40.7048 55.2816 40.7786 55.1739 40.8215C55.069 40.8816 54.9454 40.9011 54.8269 40.8762C54.7085 40.8512 54.6035 40.7837 54.5322 40.6865C53.829 39.7308 53.1377 38.7653 52.4584 37.7901C52.42 37.738 52.3923 37.679 52.377 37.6162C52.3618 37.5535 52.3592 37.4884 52.3694 37.4247C52.3797 37.361 52.4026 37.2999 52.4368 37.2451C52.4711 37.1902 52.5159 37.1426 52.5688 37.1051C52.7857 36.9179 53.1001 36.8657 53.2695 37.0644C54.0837 38.0419 54.8297 39.0735 55.5024 40.1518C55.5214 40.1947 55.5339 40.2402 55.5396 40.2867Z" fill="#E33B5C"/>
<path d="M19.3285 40.9465C19.1553 40.3685 19.4171 39.9279 19.7443 39.4785C20.232 38.8127 20.6734 38.1124 21.138 37.43C21.3561 37.1104 21.6192 36.8431 22.0363 37.1091C22.4533 37.3752 22.3635 37.7279 22.112 38.0882C21.5987 38.8165 21.0777 39.5384 20.6247 40.301C20.3141 40.823 19.933 41.0649 19.3414 40.9478L19.3285 40.9465Z" fill="#E33B5C"/>
<path d="M28.7447 28.1612C28.6942 28.2904 28.6337 28.4156 28.5638 28.5355C27.9837 29.3962 27.3973 30.2518 26.8134 31.1099C26.5888 31.4409 26.3116 31.6764 25.9151 31.4014C25.5185 31.1264 25.6315 30.7878 25.8573 30.4567C26.4425 29.5986 27.026 28.7401 27.6077 27.8811C27.7938 27.6087 28.0415 27.4737 28.3777 27.5883C28.6292 27.6749 28.7216 27.8875 28.7447 28.1612Z" fill="#E33B5C"/>
<path d="M25.5328 32.9088C25.4694 33.0505 25.3975 33.1883 25.3172 33.3213C24.7525 34.168 24.1763 35.0057 23.613 35.8524C23.3833 36.1974 23.0997 36.3922 22.7147 36.135C22.3631 35.8982 22.4054 35.5685 22.6236 35.2438C23.2224 34.3679 23.817 33.4915 24.4073 32.6147C24.5921 32.3423 24.836 32.1933 25.1696 32.3181C25.407 32.4097 25.5187 32.6083 25.5328 32.9088Z" fill="#E33B5C"/>
<path d="M0.048771 46.1831L4.61981 48.0585C7.41865 49.2043 10.2111 50.3667 13.0189 51.496C13.4526 51.6705 13.5745 51.8958 13.5733 52.3389C13.5587 57.3645 13.5587 62.3893 13.5733 67.4132C13.5733 67.9632 13.5078 68.1109 12.9239 67.8665C8.80587 66.1324 4.66344 64.4276 0.526147 62.7318C0.211744 62.6045 -0.00127751 62.5026 5.76635e-06 62.0786C0.0179717 56.8841 0.0115534 51.6896 0.01412 46.4963C0.0203959 46.3914 0.0319624 46.2869 0.048771 46.1831Z" fill="#E33B5C"/>
<path d="M28.1249 46.1895V50.9753C28.1249 54.6217 28.1249 58.268 28.1351 61.9144C28.1351 62.3523 28.0248 62.5713 27.5898 62.7483C23.4508 64.4365 19.3169 66.1447 15.1881 67.8728C14.6466 68.1007 14.5632 67.9759 14.5645 67.4463C14.5799 62.4011 14.5799 57.3556 14.5645 52.3096C14.5645 51.9416 14.6094 51.6946 15.0188 51.5279C19.2621 49.8048 23.4999 48.0691 27.7322 46.3206C27.8323 46.2811 27.9337 46.2544 28.1249 46.1895Z" fill="#E33B5C"/>
<path d="M0.873047 45.3746L9.17201 41.9638C10.6516 41.3578 12.1325 40.7568 13.6096 40.1457C13.8663 40.0362 14.1075 39.9624 14.3988 40.0833C18.5746 41.8089 22.7521 43.5298 26.9313 45.246C27.0032 45.2753 27.102 45.2842 27.1097 45.4166C26.9891 45.5936 26.7671 45.6216 26.581 45.698C22.584 47.3506 18.584 49.0023 14.581 50.6532C14.2782 50.7805 14.0125 50.8594 13.675 50.7194C9.5634 49.0099 5.44793 47.3077 1.3286 45.6127C1.22209 45.5669 1.11815 45.5019 0.873047 45.3746Z" fill="#E33B5C"/>
<path d="M46.8574 46.1587C48.5577 46.8577 50.1682 47.521 51.78 48.1818C54.5006 49.2983 57.2186 50.4187 59.9443 51.5187C60.3177 51.669 60.446 51.8599 60.4447 52.2635C60.4302 57.3562 60.4302 62.4455 60.4447 67.5314C60.4447 68.0407 60.3267 68.0865 59.884 67.9019C55.6919 66.1576 51.4999 64.4236 47.3078 62.6997C47.0345 62.5877 46.8522 62.4769 46.8535 62.1204C46.8612 56.8406 46.8574 51.5608 46.8574 46.1587Z" fill="#E33B5C"/>
<path d="M61.4479 59.8935C61.4479 57.3472 61.4568 54.8008 61.4389 52.2608C61.4389 51.8636 61.5569 51.6637 61.933 51.5109C66.0771 49.827 70.2152 48.1294 74.3474 46.4183C74.8299 46.2184 75.0032 46.2273 75.0006 46.8244C74.9818 51.8704 74.9818 56.9156 75.0006 61.9598C75.0006 62.3953 74.8543 62.5799 74.4591 62.7416C70.3012 64.4451 66.1481 66.1622 61.9997 67.8928C61.5518 68.08 61.4337 68.029 61.4376 67.5249C61.4594 64.9811 61.4479 62.4373 61.4479 59.8935Z" fill="#E33B5C"/>
<path d="M74.1345 45.4151L64.0364 49.5873C64.0171 49.5962 63.9953 49.5988 63.9761 49.6077C62.9494 50.0202 61.9228 50.7535 60.8962 50.7535C59.8696 50.7535 58.843 50.0087 57.824 49.586L48.3816 45.68C48.2084 45.6087 48.0378 45.5297 47.8594 45.4521C47.9338 45.1974 48.1545 45.1974 48.3149 45.1376C52.3504 43.4765 56.3868 41.8172 60.424 40.1595C60.7332 40.0322 60.9989 39.9761 61.3338 40.1137C65.4839 41.8316 69.6375 43.541 73.7944 45.242C73.8689 45.2738 73.9395 45.3146 74.1345 45.4151Z" fill="#E33B5C"/>
<path d="M51.577 14.3396C51.577 16.8618 51.5667 19.3839 51.5885 21.9061C51.5885 22.3301 51.4705 22.5427 51.0688 22.7031C46.9076 24.3956 42.7515 26.102 38.6005 27.8225C38.032 28.0593 37.9909 27.8785 37.9922 27.3807C38.005 22.3364 38.005 17.2921 37.9922 12.2478C37.9922 11.7818 38.1578 11.5909 38.5658 11.4241C42.6894 9.74859 46.8079 8.06249 50.9212 6.36578C51.5796 6.09586 51.5809 6.09714 51.5809 6.83685C51.58 9.33736 51.5787 11.8383 51.577 14.3396Z" fill="#E33B5C"/>
<path d="M36.9857 19.8158C36.9857 22.3621 36.9754 24.9084 36.9934 27.4484C36.9934 27.9284 36.9074 28.0315 36.4313 27.8304C32.2607 26.0997 28.0836 24.3839 23.9001 22.6829C23.5395 22.5365 23.4343 22.3417 23.4356 21.9725C23.4458 16.8849 23.4458 11.7965 23.4356 6.70719C23.4356 6.21702 23.5459 6.1279 24.0105 6.32524C28.1811 8.05336 32.3582 9.76874 36.5417 11.4714C36.9113 11.6216 36.9947 11.8228 36.9934 12.1831C36.9793 14.7269 36.9857 17.272 36.9857 19.8158Z" fill="#E33B5C"/>
<path d="M50.7061 5.38682L43.3824 8.38896C41.5687 9.13334 39.7562 9.88027 37.9451 10.6297C37.6885 10.7392 37.4536 10.794 37.1572 10.6718C32.9651 8.93685 28.7675 7.21128 24.5644 5.49504C24.4846 5.45058 24.4083 5.40036 24.3359 5.34481C25.0764 5.03416 25.7694 4.73878 26.4649 4.45359C29.9725 3.01067 33.4802 1.57029 36.9878 0.132452C37.2868 0.00513546 37.5524 -0.0636174 37.8963 0.0789776C42.0507 1.8003 46.2086 3.5106 50.3698 5.20985C50.4686 5.24805 50.5559 5.30661 50.7061 5.38682Z" fill="#E33B5C"/>
</g>
<defs>
<clipPath id="clip0_775_438">
<rect width="75" height="68" fill="white"/>
</clipPath>
</defs>
</svg>
