<svg width="64" height="60" viewBox="0 0 64 60" fill="none" xmlns="http://www.w3.org/2000/svg">
<path d="M0.825195 43.9495V5.70075C1.00908 5.11663 1.11878 4.49543 1.38766 3.95459C2.46936 1.76338 4.31133 0.766682 6.72351 0.765137H40.8958C46.6525 0.765137 52.4092 0.765137 58.1659 0.765137C61.6026 0.765137 63.9916 3.14949 63.9947 6.58001C64.0019 18.7527 64.0019 30.9249 63.9947 43.0965C63.9947 44.3822 63.6856 45.569 62.8913 46.6167C61.6968 48.1944 60.0789 48.882 58.1319 48.882C53.1149 48.882 48.0979 48.882 43.0808 48.882H42.3824C43.1921 51.3112 43.9617 53.6492 44.7652 55.9749C44.8178 56.1294 45.1268 56.27 45.3184 56.2716C47.1063 56.2947 48.8957 56.2808 50.6852 56.287C51.9322 56.287 52.7729 57.0519 52.7636 58.1522C52.7543 59.2339 51.9245 59.9849 50.7161 59.9849C38.5022 59.9849 26.2888 59.9849 14.076 59.9849C12.8784 59.9849 12.0485 59.203 12.0563 58.1305C12.064 57.0581 12.8938 56.3009 14.1022 56.2947C15.6027 56.287 17.1032 56.2947 18.6052 56.2947C19.9712 56.2947 19.9727 56.2947 20.3946 55.0292C21.0683 53.0079 21.739 50.9852 22.4359 48.8913H6.65708C4.70694 48.8913 3.03493 48.2268 1.9347 46.5873C1.41703 45.8038 1.18834 44.8319 0.825195 43.9495ZM12.0532 37.7483V37.039C12.0532 35.4752 12.0439 33.9129 12.0532 32.3506C12.064 31.1422 12.8181 30.4005 14.0265 30.3789C14.5395 30.3696 15.0541 30.3789 15.5718 30.3789C16.7817 30.3789 16.7678 30.3789 17.233 29.2817C17.3875 28.9309 17.3659 28.6945 17.0784 28.4256C16.519 27.911 15.9859 27.3656 15.4605 26.8154C14.6879 25.9995 14.6338 24.9611 15.4095 24.1653C17.132 22.3985 18.8761 20.6534 20.6419 18.9299C21.4361 18.1573 22.4776 18.1959 23.2951 18.9639C23.6845 19.3301 24.0538 19.718 24.4309 20.0966C25.2993 20.965 25.2931 20.948 26.4397 20.4752C26.7936 20.3299 26.8802 20.1321 26.8709 19.7813C26.8492 19.001 26.8477 18.2191 26.8709 17.4371C26.9002 16.3725 27.6435 15.5921 28.702 15.5828C31.1745 15.5601 33.6418 15.5601 36.1039 15.5828C37.1856 15.5921 37.9335 16.374 37.9583 17.4758C37.9737 18.0305 37.9583 18.5853 37.9583 19.14C37.9583 20.3006 37.9583 20.2836 39.04 20.7502C39.4232 20.9171 39.658 20.8677 39.9439 20.5586C40.4554 19.9977 40.9994 19.463 41.5541 18.9422C42.3453 18.199 43.3884 18.1696 44.1595 18.916C45.9396 20.6529 47.6982 22.4124 49.4351 24.1947C50.1706 24.9503 50.132 25.9779 49.4196 26.7536C49.0302 27.177 48.6114 27.5726 48.2035 27.9806C47.3829 28.8027 47.3999 28.795 47.831 29.8859C47.9856 30.2753 48.1834 30.4113 48.6037 30.3912C49.3423 30.3526 50.0841 30.3696 50.8243 30.3835C51.9909 30.4051 52.7481 31.1561 52.7589 32.3275C52.7744 33.8727 52.7589 35.418 52.7589 36.9633V37.7468H60.2845V6.79326C60.2845 5.129 59.6308 4.47534 57.9835 4.47534H6.85488C5.18907 4.47534 4.52768 5.129 4.52768 6.77627V37.756L12.0532 37.7483ZM49.0425 34.1262C48.9848 34.1085 48.9259 34.0946 48.8664 34.0844C48.2282 34.0844 47.5915 34.0844 46.9549 34.0844C45.8036 34.0736 45.2551 33.6348 44.8548 32.5515C44.4798 31.5347 44.0631 30.5334 43.6047 29.5475C43.101 28.4658 43.1766 27.8013 44.0358 26.9375C44.5102 26.46 45.0032 26.0011 45.4482 25.5715L42.778 22.8765C42.3268 23.3401 41.8508 23.8578 41.3625 24.3445C40.5373 25.1574 39.8497 25.2254 38.7942 24.7309C37.83 24.2812 36.8487 23.8593 35.8489 23.4946C34.6931 23.0728 34.2697 22.5443 34.2635 21.3112C34.2635 20.6405 34.2635 19.9714 34.2635 19.3131H30.5625C30.5625 20.0394 30.5625 20.7162 30.5625 21.3946C30.5502 22.5149 30.1129 23.0759 29.0745 23.4668C28.036 23.8578 27.0146 24.275 26.0117 24.7355C24.9516 25.2238 24.2841 25.1512 23.4465 24.3291C22.9551 23.8439 22.4792 23.3417 22.0558 22.9043L19.3871 25.5715C19.8182 25.9841 20.3019 26.4291 20.7655 26.8943C21.6695 27.7982 21.739 28.4658 21.1904 29.6093C20.7466 30.5316 20.3515 31.4766 20.0067 32.4403C19.5802 33.6363 19.0518 34.0644 17.7908 34.0705C17.1217 34.0705 16.4526 34.0705 15.7928 34.0705V37.7236H23.3013C23.0584 36.4379 23.0887 35.1156 23.3903 33.8425C23.692 32.5693 24.2581 31.3739 25.052 30.3339C25.8458 29.2939 26.8496 28.4325 27.9982 27.8059C29.1467 27.1792 30.4142 26.8012 31.7184 26.6965C34.1816 26.5203 36.413 27.2033 38.2982 28.8011C41.0581 31.1422 42.0548 34.1756 41.5247 37.7359H49.0487L49.0425 34.1262ZM4.52768 41.5018V42.7936C4.52768 44.5444 5.15815 45.1826 6.88732 45.1826H57.9464C58.1519 45.1826 58.359 45.1826 58.5645 45.1734C59.4052 45.1038 60.1346 44.5274 60.2365 43.7007C60.3262 42.9822 60.2551 42.2435 60.2551 41.5018H4.52768ZM23.8916 56.2422H40.9314C40.1356 53.8547 39.3645 51.5183 38.5655 49.1926C38.5122 49.108 38.4396 49.0371 38.3537 48.9858C38.2677 48.9345 38.1709 48.9043 38.0711 48.8975C34.2903 48.88 30.509 48.88 26.7271 48.8975C26.5726 48.8975 26.3115 49.0288 26.2636 49.1571C25.4647 51.5013 24.6874 53.8547 23.8916 56.2422ZM32.3906 37.7792C33.9513 37.7792 35.5136 37.7591 37.0728 37.7931C37.5364 37.8024 37.7126 37.6386 37.8053 37.209C38.1165 35.8334 37.9009 34.3911 37.2011 33.1666C35.886 30.793 32.8171 29.7468 30.2659 30.8146C27.7563 31.8639 26.3563 34.7041 27.0362 37.294C27.1428 37.705 27.3221 37.7931 27.7084 37.7885C29.2722 37.7684 30.833 37.7792 32.3937 37.7792H32.3906Z" fill="#E33C5C"/>
</svg>
