<svg width="68" height="68" viewBox="0 0 68 68" fill="none" xmlns="http://www.w3.org/2000/svg">
<g clip-path="url(#clip0_775_335)">
<path d="M17.4904 35.4924H13.5813V36.3559C13.5813 41.0571 13.5813 45.7584 13.5813 50.4596C13.5813 52.65 12.9103 53.7438 10.8915 54.5151C10.0491 54.8375 9.6608 55.2491 9.50946 56.1932C9.35369 57.1003 8.89447 57.9264 8.20819 58.5338C7.52192 59.1413 6.64998 59.4936 5.73746 59.532C4.82217 59.5978 3.91064 59.3601 3.14186 58.8551C2.37308 58.3501 1.78922 57.6055 1.47932 56.7349C1.16942 55.8642 1.1505 54.9153 1.4254 54.0328C1.7003 53.1504 2.25396 52.3827 3.00196 51.8469C3.75218 51.3014 4.66199 51.0249 5.58631 51.0614C6.51062 51.0979 7.39619 51.4454 8.10174 52.0484C8.23827 52.2018 8.42469 52.3008 8.62734 52.3278C8.82999 52.3547 9.03551 52.3077 9.20679 52.1952C9.50946 52.0369 9.88068 51.9793 10.1291 51.7692C10.3775 51.5591 10.7345 51.1936 10.7345 50.8856C10.7716 45.8399 10.7602 40.8115 10.7544 35.7515C10.7379 35.6529 10.7111 35.5565 10.6745 35.4636C9.95207 35.4344 9.22863 35.444 8.50723 35.4924C8.28736 35.5154 8.05606 35.8522 7.91043 36.094C6.95672 37.6569 5.58612 38.4628 3.77007 38.2671C2.02827 38.0771 0.823279 37.0755 0.237918 35.4089C-0.095321 34.4251 -0.0560246 33.3519 0.348255 32.3955C0.752535 31.4391 1.49326 30.6672 2.42802 30.228C3.35591 29.7647 4.42381 29.6744 5.4153 29.9753C6.4068 30.2762 7.24772 30.9458 7.76766 31.8485C8.14743 32.5306 8.56432 32.6976 9.24677 32.6342C9.7122 32.5882 10.1862 32.6342 10.7716 32.6342V31.8341C10.7716 27.0791 10.7573 22.3357 10.7887 17.5721C10.7887 16.8093 10.5032 16.4466 9.8407 16.1329C9.05261 15.776 8.47866 15.7012 7.69056 16.3114C6.20574 17.4627 4.09559 17.2238 2.68502 15.9717C1.99871 15.369 1.52506 14.5579 1.3353 13.6605C1.14553 12.7631 1.2499 11.8279 1.63272 10.9954C2.01555 10.1629 2.65613 9.47823 3.45814 9.04425C4.26016 8.61027 5.18027 8.45048 6.08012 8.58888C7.00948 8.72079 7.86673 9.16728 8.51116 9.85506C9.1556 10.5428 9.54892 11.431 9.62655 12.3738C9.67223 12.9265 9.86926 13.1654 10.3433 13.3122C10.6288 13.4043 10.9143 13.5568 11.1999 13.6777C12.8161 14.3455 13.5784 15.5832 13.5784 17.3216C13.5784 22.1035 13.5784 26.8834 13.5784 31.6614V32.568H17.4875V31.6355C17.4875 22.3903 17.5332 13.1452 17.459 3.9001C17.439 1.56004 18.8867 -0.0201534 21.3281 -0.00576188C31.2078 0.0546826 41.0847 0.0201506 50.9645 0.0201506H51.8896V1.05922C51.8896 4.25701 51.8896 7.45193 51.8896 10.6469C51.8896 13.9799 53.8713 15.9487 57.1836 15.9487H67.0605C67.0748 16.3027 67.1005 16.5848 67.1005 16.864C67.1005 32.6352 67.1005 48.4045 67.1005 64.1719C67.1005 66.6961 65.8327 67.9914 63.3427 67.9914C49.2998 67.9914 35.2559 67.9914 21.211 67.9914C18.761 67.9914 17.4989 66.6932 17.4989 64.2237C17.4989 54.9785 17.4989 45.7344 17.4989 36.4912L17.4904 35.4924ZM51.7012 54.5123C51.547 54.4921 51.4699 54.4691 51.3928 54.4691C44.4046 54.5075 37.4174 54.5477 30.4311 54.59C30.0929 54.5947 29.76 54.6764 29.4575 54.8289C28.3867 55.3844 27.3359 55.9802 26.2879 56.5702C25.674 56.9214 25.6911 57.1891 26.3393 57.5517C27.1901 58.0684 28.0669 58.5402 28.9663 58.965C29.6192 59.2761 30.3266 59.4541 31.0479 59.4888C36.8815 59.4888 42.718 59.4457 48.5545 59.414C49.591 59.414 50.6276 59.414 51.6955 59.414L51.7012 54.5123ZM42.3668 35.5989C47.4723 35.5989 52.5788 35.5989 57.6861 35.5989C58.6741 35.5989 59.3252 34.9973 59.3023 34.1597C59.2795 33.3222 58.6541 32.7983 57.7061 32.7667C57.5748 32.7667 57.4434 32.7667 57.3121 32.7667H27.2988C27.0126 32.7515 26.7256 32.765 26.4421 32.8069C26.2297 32.8473 26.0295 32.9369 25.8574 33.0687C25.6852 33.2005 25.5459 33.3709 25.4503 33.5663C25.3547 33.7618 25.3056 33.9769 25.3068 34.1948C25.3079 34.4127 25.3594 34.6273 25.457 34.8218C25.7911 35.4694 26.3765 35.6047 27.0503 35.6018C32.152 35.5941 37.2575 35.5922 42.3668 35.596V35.5989ZM42.3668 39.3839H27.3644C27.1017 39.3839 26.839 39.3839 26.5792 39.3839C26.2519 39.4096 25.9445 39.5522 25.7121 39.7859C25.4798 40.0197 25.3378 40.3293 25.3116 40.6591C25.2855 40.989 25.3769 41.3174 25.5695 41.5854C25.762 41.8534 26.0431 42.0434 26.3622 42.1211C26.6961 42.1856 27.036 42.2126 27.3758 42.2017H57.2293C57.5148 42.2017 57.8517 42.2679 58.0859 42.1413C58.4942 41.9139 58.9854 41.6376 59.1767 41.2519C59.6478 40.2963 58.8911 39.3752 57.6976 39.3724C52.5845 39.3743 47.4752 39.3772 42.3697 39.381L42.3668 39.3839ZM42.284 28.9961H57.2093C58.637 28.9961 59.3252 28.5096 59.3023 27.5569C59.2795 26.6042 58.617 26.1839 57.2293 26.1839H27.3787C27.0928 26.1751 26.8067 26.1847 26.5221 26.2127C26.193 26.2445 25.887 26.3974 25.6626 26.6422C25.4383 26.8869 25.3112 27.2064 25.3057 27.5396C25.2896 27.886 25.4044 28.2257 25.627 28.4901C25.8495 28.7545 26.1633 28.924 26.5049 28.9644C26.8171 28.9952 27.1309 29.0057 27.4444 28.9961H42.284ZM42.284 48.8074H57.2093C58.637 48.8074 59.3223 48.321 59.2994 47.3683C59.2766 46.4156 58.6084 45.9953 57.2236 45.9953H27.3787C27.0928 45.9864 26.8067 45.996 26.5221 46.0241C26.1864 46.0621 25.8764 46.2234 25.6513 46.4772C25.4262 46.731 25.3018 47.0595 25.3018 47.4C25.3018 47.7404 25.4262 48.0689 25.6513 48.3227C25.8764 48.5765 26.1864 48.7378 26.5221 48.7758C26.8342 48.8075 27.1479 48.8191 27.4615 48.8103L42.284 48.8074ZM42.9607 14.3167C42.304 13.9368 41.7015 13.5741 41.0876 13.2344C40.2567 12.7739 39.46 12.9466 39.0459 13.6691C38.6319 14.3915 38.8718 15.1629 39.6998 15.6839C40.5279 16.2049 41.4559 16.7316 42.3354 17.2468C43.5061 17.9347 44.0972 17.7994 44.8196 16.6568C46.0969 14.6343 47.3705 12.6079 48.6402 10.5778C49.3597 9.42646 49.3198 8.59175 48.5202 8.0938C47.7207 7.59585 47.0012 7.88943 46.2559 9.07817C45.1737 10.8023 44.0858 12.535 42.9665 14.3138L42.9607 14.3167ZM30.9908 15.7875C32.4185 15.7875 33.8205 15.7875 35.2368 15.7875C36.182 15.7875 36.813 15.2118 36.833 14.4002C36.853 13.5885 36.1962 12.961 35.2111 12.961C32.4318 12.9495 29.6545 12.9495 26.879 12.961C25.9224 12.961 25.3085 13.5367 25.2942 14.3512C25.28 15.1658 25.9025 15.7904 26.9047 15.7904C28.2725 15.7933 29.6345 15.7846 30.9965 15.7846L30.9908 15.7875ZM31.0393 22.4076C32.4813 22.4076 33.9233 22.4364 35.3625 22.4076C35.5535 22.4134 35.7438 22.3804 35.922 22.3107C36.1002 22.241 36.2627 22.1359 36.3998 22.0017C36.5369 21.8675 36.646 21.7068 36.7204 21.5294C36.7948 21.3519 36.8331 21.1611 36.833 20.9685C36.833 20.1827 36.2048 19.5984 35.3196 19.5955C32.4642 19.5955 29.6088 19.5955 26.7534 19.5955C26.0024 19.5955 25.5027 19.9495 25.3256 20.7008C25.1172 21.6449 25.7682 22.3932 26.8647 22.4278C28.2696 22.422 29.6573 22.399 31.0451 22.399L31.0393 22.4076ZM31.0393 9.1674C32.4271 9.1674 33.8148 9.1674 35.2026 9.1674C36.2105 9.1674 36.8501 8.59175 36.8416 7.75704C36.833 6.92233 36.2248 6.36394 35.2597 6.35819C32.4556 6.339 29.6526 6.339 26.8505 6.35819C25.8882 6.35819 25.2914 6.95975 25.3 7.79734C25.3085 8.63493 25.911 9.17317 26.8761 9.18181C28.261 9.17605 29.6488 9.1674 31.0365 9.1674H31.0393ZM54.5966 54.4604V59.3823C55.4218 59.3823 56.1813 59.4198 56.9352 59.3823C57.55 59.3366 58.1246 59.0574 58.543 58.601C58.9614 58.1446 59.1923 57.5451 59.189 56.9237C59.1857 56.3023 58.9486 55.7053 58.5254 55.2534C58.1023 54.8015 57.5247 54.5284 56.9095 54.4892C56.1642 54.4259 55.4047 54.4604 54.5966 54.4604Z" fill="#E33B5C"/>
<path d="M66.302 13.1195H60.9881C59.6003 13.1195 58.2097 13.1338 56.822 13.1195C55.5856 13.0993 54.7461 12.3596 54.7261 11.1277C54.6804 7.85502 54.7061 4.57951 54.709 1.30687C54.709 1.23492 54.7661 1.16584 54.8346 1.01904L66.302 13.1195Z" fill="#E33B5C"/>
</g>
<defs>
<clipPath id="clip0_775_335">
<rect width="67.1053" height="68" fill="white"/>
</clipPath>
</defs>
</svg>
