<svg width="135" height="122" viewBox="0 0 135 122" fill="none" xmlns="http://www.w3.org/2000/svg">
<g clip-path="url(#clip0_419_2019)">
<path d="M0 62.0998C0.0921856 62.0135 0.169578 61.9123 0.229001 61.8004C1.70512 57.3484 5.02726 55.2988 9.59302 56.0723C10.9282 56.3004 12.2423 56.6319 13.4401 56.8886C13.6867 53.481 13.6938 50.0448 14.2187 46.6907C17.0828 28.4622 26.7146 14.9672 42.7159 6.28782C55.0463 -0.399068 68.1588 -1.64662 81.68 2.0497C82.4461 2.27857 83.1013 2.78652 83.5189 3.47548C83.7585 3.92816 83.5189 5.04739 83.1173 5.3575C82.7931 5.58512 82.4277 5.74574 82.042 5.83015C81.6563 5.91457 81.2579 5.9211 80.8697 5.84939C76.7005 4.75155 72.4169 4.16044 68.1095 4.08855C56.1032 4.0137 45.4321 7.81339 36.0505 15.3843C35.8461 15.5482 35.6665 15.7407 35.3459 16.0472C36.2196 16.1756 36.97 16.2647 37.7098 16.4037C40.5881 16.9241 42.3672 18.7063 42.9414 21.5293C44.0696 26.998 43.7783 32.6691 42.0959 37.9899C41.2363 40.7381 39.5946 42.4383 36.5296 42.8946C34.2327 43.251 31.9815 44.1849 29.836 45.1437C28.0217 45.9493 27.842 46.7228 28.92 48.3517C30.2558 50.4271 31.732 52.4066 33.3378 54.2758C34.5004 55.5947 34.9795 55.4343 36.2654 54.2046C38.0697 52.4155 40.4238 51.3038 42.9379 51.0536C47.5565 50.5866 50.8258 53.4738 50.8469 58.1825C50.7911 59.4814 50.663 60.7762 50.4629 62.0606C53.7604 61.3477 57.065 60.4708 60.4224 59.9219C66.8702 58.9237 73.4511 59.2596 79.7669 60.9093C80.7992 61.1695 81.4827 61.116 82.0252 60.1108C82.3352 59.5334 82.8848 59.095 83.2477 58.5425C84.8436 56.1115 87.2039 55.06 89.9413 54.896C93.9751 54.6608 98.0194 54.5931 102.053 54.4006C103.189 54.3332 104.317 54.1687 105.425 53.9087C106.464 53.6734 106.975 52.9107 106.816 51.8199C106.738 51.0269 106.561 50.2472 106.288 49.4995C104.981 46.4448 103.614 43.4186 102.243 40.3924C101.989 39.9268 101.701 39.4811 101.38 39.0593C100.884 39.3444 100.433 39.5832 99.9994 39.8506C98.2068 40.9892 96.1267 41.5785 94.0103 41.5472C91.6746 41.508 91.1391 41.9251 90.7199 44.2455C90.3358 46.3664 89.1591 47.7636 87.3307 48.7011C84.4831 50.112 81.3859 50.9336 78.2204 51.1177C75.3245 51.3352 73.2495 50.0199 71.717 47.6353C70.0048 44.9762 69.124 42.007 68.6625 38.9096C67.9579 34.176 68.2363 29.5921 71.0511 25.4823C74.2605 20.7879 79.3794 18.8881 84.7907 20.4743C85.4037 20.6714 86.0592 20.69 86.6822 20.528C87.3052 20.366 87.8705 20.03 88.3136 19.5582C90.5965 17.3091 92.7526 14.9244 95.1447 12.4044C93.2 11.2994 91.6217 10.3762 90.0047 9.48155C88.5955 8.69381 88.1058 7.59596 88.7153 6.48029C89.3248 5.36462 90.4169 5.16858 91.8191 5.93137C108.789 15.1312 118.615 29.3604 121.06 48.7046C121.412 51.3851 121.363 54.1119 121.507 56.9028C122.479 56.6818 123.529 56.4608 124.572 56.1899C131.146 54.5503 136.469 59.3623 134.641 66.9866C133.284 72.6469 130.371 77.1595 125.689 80.4958C125.315 80.7354 125.002 81.0606 124.776 81.4451C124.549 81.8297 124.416 82.2628 124.385 82.7093C123.247 91.4458 118.502 97.4269 110.526 100.827C109.737 101.162 109.399 101.59 109.046 102.414C108.423 103.879 107.616 105.447 106.453 106.463C101.472 110.819 95.5851 112.234 89.1239 111.264C88.1798 111.121 87.5246 111.243 86.7918 111.952C82.4476 116.132 77.2655 119.317 71.5972 121.291C67.9333 122.61 64.4386 121.883 60.9896 120.346C56.1631 118.208 51.7347 115.445 47.9546 111.692C47.2887 111.025 46.6581 111.168 45.9183 111.275C39.503 112.216 33.7112 110.769 28.6558 106.609C27.2733 105.556 26.3057 104.04 25.9255 102.332C25.8821 101.988 25.7371 101.666 25.5095 101.408C25.2818 101.15 24.9823 100.967 24.6502 100.884C21.0433 99.5424 17.8632 97.2365 15.4482 94.2118C14.2962 92.8038 14.2292 91.6882 15.2192 90.8363C16.2091 89.9844 17.333 90.2517 18.4603 91.6276C20.5126 94.1791 23.2108 96.1194 26.2672 97.2416C27.9371 94.3615 30.5899 92.6648 33.4787 91.2997C34.2538 90.9432 34.1058 90.4763 33.8944 89.9131C31.5622 83.6896 27.2924 79.6546 20.8595 78.0898C20.0884 77.9129 19.3031 77.8067 18.5132 77.7726C16.0718 77.6514 14.4442 79.3124 14.5358 81.8111C14.5569 82.385 14.6943 82.9553 14.7331 83.5292C14.7824 84.0441 14.6379 84.5589 14.3283 84.9706C14.0186 85.3823 13.5668 85.6606 13.0631 85.7498C12.052 85.9245 10.8719 85.2294 10.886 84.128C10.9106 81.8468 9.60715 80.6883 7.99363 79.4051C3.76607 76.0367 1.20487 71.5634 0.281854 66.1668C0.213848 65.8672 0.127972 65.572 0.0246848 65.2828L0 62.0998ZM98.0934 14.6928C97.5614 15.3593 97.1845 15.9082 96.7336 16.3859C94.6198 18.6243 92.5976 20.9947 90.2971 23.0229C89.3962 23.8598 88.2795 24.4215 87.0762 24.6429C85.8729 24.8643 84.6322 24.7364 83.4978 24.274C82.9164 24.0724 82.3083 23.9606 81.694 23.9425C77.639 23.725 73.8449 26.5766 72.862 31.025C72.3652 33.267 72.4145 35.698 72.5836 38.0149C72.7599 40.6889 73.6088 43.2729 75.0497 45.5216C75.7825 46.6515 76.7337 47.3929 78.1182 47.1184C80.1791 46.7085 82.2295 46.2523 84.2622 45.7176C85.8088 45.3148 86.6967 44.3631 87.056 42.6237C87.7254 39.3622 89.8427 37.6335 93.1261 37.6085C95.1907 37.5958 97.2104 36.9982 98.9565 35.8833C101.313 34.4576 103.448 34.8425 104.879 37.2164C107.39 41.3904 109.596 45.7711 110.646 50.5795C111.35 53.8303 110.022 56.4323 107.179 57.5159C105.905 57.9951 104.566 58.2775 103.209 58.3536C99.5695 58.5496 95.9197 58.6138 92.2876 58.6743C89.2649 58.7278 86.6508 59.4657 85.3368 62.6238L87.6901 63.7145C92.4461 65.8995 94.7185 69.6279 94.6374 74.9139C94.5705 79.3124 94.6374 83.7181 94.6374 88.1023C94.6374 88.5693 94.6867 89.0362 94.7114 89.4889C95.2293 89.5495 95.578 89.578 95.9233 89.6279C96.2685 89.6778 96.5997 89.742 96.9802 89.8061C97.0999 89.5032 97.2126 89.2679 97.2901 89.022C98.8367 84.1423 101.803 80.3497 105.893 77.3805C106.418 76.9793 106.772 76.3923 106.887 75.7373C107.662 68.8152 110.952 63.4614 116.54 59.4692C116.97 59.1388 117.254 58.6492 117.329 58.1076C118.111 44.8051 114.419 32.9249 106.122 22.5488C103.763 19.6158 101.068 16.9763 98.0934 14.6856V14.6928ZM40.4049 89.4497V87.9812C40.4049 83.3474 40.4049 78.7314 40.4049 74.1084C40.3827 72.547 40.6905 70.999 41.3078 69.5678C41.9251 68.1367 42.8376 66.8556 43.9842 65.8104C46.4714 63.465 46.9611 60.4245 46.7532 57.1951C46.6722 55.9547 45.8338 55.3238 44.6747 55.1349C43.6722 54.9407 42.637 55.0127 41.6701 55.3438C40.7033 55.6749 39.8377 56.2538 39.1578 57.024C36.3394 60.1714 33.2251 59.6154 30.4948 57.1488C27.9266 54.8283 26.1263 51.934 24.6819 48.8187C24.2505 47.9767 24.1011 47.0157 24.2561 46.0804C24.4111 45.1451 24.8622 44.286 25.5415 43.6324C26.5208 42.5579 27.7 41.6895 29.0116 41.0767C31.2424 40.1649 33.5467 39.4493 35.899 38.9381C37.1814 38.6458 37.9106 38.1218 38.3052 36.8885C39.7448 32.2912 40.0317 27.4038 39.1401 22.6664C38.8407 20.9733 38.0233 20.2711 36.3218 20.2675C34.6558 20.2896 32.9935 20.4313 31.3473 20.6917C30.7643 20.8005 30.2338 21.1028 29.8395 21.5507C20.9334 32.073 16.8938 44.255 17.7205 58.0969C17.7526 58.3653 17.8366 58.6246 17.9678 58.8601C18.0989 59.0955 18.2747 59.3025 18.485 59.4692C24.0759 63.4578 27.3734 68.8045 28.152 75.7266C28.2658 76.3858 28.6189 76.9782 29.1419 77.3876C33.2286 80.3604 36.1879 84.1601 37.7521 89.0255C37.8588 89.2941 37.9835 89.5549 38.1255 89.8061L40.4049 89.4497ZM44.3612 84.6306C44.3612 87.8386 44.3858 91.0466 44.3612 94.2296C44.2776 98.4882 45.6544 102.645 48.2576 105.992C52.6754 111.777 58.601 115.367 65.3334 117.694C67.0385 118.286 68.8071 118.09 70.5051 117.466C74.8541 115.892 78.898 113.561 82.455 110.58C87.9508 105.946 90.9946 100.179 90.7128 92.7112C90.4944 86.8976 90.5684 81.0662 90.7128 75.2454C90.8079 71.2818 89.2015 68.694 85.6257 67.1042C81.0745 65.0869 76.2128 63.881 71.2555 63.5398C63.3746 62.9695 55.7544 64.021 48.5676 67.5355C45.6928 68.9399 44.34 71.2568 44.3717 74.4719C44.3823 77.8582 44.3612 81.2515 44.3612 84.6306ZM100.848 90.9396C104.019 92.5116 106.982 94.1476 108.803 97.3556C115.367 94.4114 119.534 89.6636 120.457 82.36C120.831 79.4194 119.115 77.6265 116.254 77.8154C113.339 77.999 110.533 79.0027 108.151 80.7133C104.607 83.2226 102.057 86.5055 100.848 90.9396ZM23.8928 74.7571C23.1882 67.4536 15.8428 60.4993 8.45511 59.9718C5.31263 59.7473 3.5864 61.6328 4.03029 64.8088C4.08666 65.2044 4.14653 65.5965 4.22756 65.9886C5.18933 70.7792 7.72939 74.4898 11.6786 77.3306C14.9902 72.704 19.3446 73.4953 23.8998 74.7571H23.8928ZM111.047 74.782C115.648 73.4739 120.042 72.7075 123.339 77.3342C127.524 74.2652 130.131 70.3015 130.917 65.1474C131.47 61.5116 129.694 59.5869 126.101 60.0075C118.773 60.8701 112.323 67.1078 111.065 74.782H111.047ZM90.9383 107.482C95.9797 107.956 100.559 106.63 104.378 103.03C105.036 102.411 105.424 101.554 105.458 100.646C105.492 99.7387 105.17 98.8541 104.562 98.1861C101.898 95.413 98.5726 93.9801 94.8875 93.5524C94.5071 96.0118 94.3661 98.4321 93.7214 100.703C93.0767 102.973 91.9071 105.194 90.9453 107.482H90.9383ZM40.4084 93.5417C37.0664 93.8188 33.8912 95.1362 31.3192 97.3129C28.9975 99.2305 29.0328 101.79 31.3791 103.729C33.3203 105.344 35.5999 106.49 38.0445 107.079C40.1092 107.611 42.2585 107.718 44.3647 107.393C41.5978 103.331 40.2094 98.4705 40.4084 93.5417Z" fill="#004999"/>
<path d="M49.5046 85.1295C49.5046 81.7504 49.5751 78.3571 49.4729 74.9958C49.4271 73.3597 50.0754 72.4544 51.5022 71.8306C57.4207 69.2321 63.6106 68.2662 70.0153 68.6476C74.4933 68.8865 78.8996 69.8854 83.0503 71.6025C84.8118 72.3403 85.6009 73.3669 85.5622 75.4022C85.4377 81.5805 85.4318 87.7589 85.5446 93.9372C85.6185 97.9579 84.2269 101.319 81.6129 104.217C78.0441 108.181 73.5947 110.808 68.6555 112.604C67.9085 112.854 67.102 112.854 66.355 112.604C61.5814 110.883 57.2833 108.327 53.7533 104.609C50.9103 101.597 49.3073 98.0827 49.4799 93.7982C49.5997 90.911 49.5046 88.0167 49.5046 85.1295ZM53.4609 85.9814C53.4609 88.694 53.5279 91.4065 53.4398 94.1119C53.3564 96.6257 54.226 99.0766 55.8706 100.963C58.851 104.574 62.7193 106.873 66.9715 108.584C67.3306 108.712 67.7222 108.712 68.0812 108.584C72.0093 107.029 75.5887 104.905 78.4845 101.758C80.246 99.8328 81.5601 97.6514 81.5601 94.8889C81.5601 88.7118 81.5601 82.5346 81.5812 76.3539C81.6184 76.0326 81.5362 75.7087 81.3506 75.4453C81.1651 75.1818 80.8894 74.9975 80.5771 74.9281C72.1326 71.7752 62.8532 71.7752 54.4086 74.9281C53.6653 75.199 53.4327 75.616 53.4433 76.3966C53.482 79.5833 53.4609 82.7841 53.4609 85.9814Z" fill="#E33C5C"/>
<path d="M64.28 91.0856L72.0658 83.1797C72.3609 82.8507 72.6787 82.5434 73.0169 82.2601C73.9082 81.5864 74.8312 81.5828 75.6345 82.3777C76.4377 83.1726 76.4483 84.1314 75.779 85.0225C75.3546 85.5287 74.8967 86.005 74.4085 86.4483C71.7099 89.181 69.009 91.9137 66.3057 94.6465C64.8965 96.0723 64.0263 96.0723 62.6277 94.6679C61.7223 93.7661 60.7993 92.8857 59.9362 91.9304C59.0731 90.9751 59.1083 89.8701 59.9045 89.0788C60.7007 88.2875 61.821 88.2697 62.7228 89.1466C63.2778 89.7625 63.7977 90.4099 64.28 91.0856Z" fill="#E33C5C"/>
</g>
<defs>
<clipPath id="clip0_419_2019">
<rect width="135" height="122" fill="white"/>
</clipPath>
</defs>
</svg>
