<svg width="107" height="104" viewBox="0 0 107 104" fill="none" xmlns="http://www.w3.org/2000/svg">
<path d="M106.01 96.3472C105.942 96.541 105.857 96.7306 105.803 96.9286C104.884 100.587 101.885 102.985 98.1292 102.992C88.4339 103.006 78.7387 103.006 69.0434 102.992C48.8565 102.992 28.6696 102.992 8.48266 102.992C3.19189 102.992 0 99.7705 0 94.4325C0 92.3948 0 90.3571 0 88.2339H3.67097V64.8295H6.811V88.1818H14.07V91.3072H3.00937C3.13174 93.1636 3.06537 94.9742 3.42417 96.6973C3.79542 98.4975 5.62261 99.7268 7.49543 99.8622C7.66758 99.8747 7.83972 99.8747 8.01186 99.8747C37.995 99.8747 67.9788 99.8747 97.9632 99.8747C100.616 99.8747 102.667 98.1287 102.86 95.6347C102.966 94.2616 102.879 92.8719 102.879 91.3947C102.512 91.3759 102.182 91.3426 101.842 91.3426C91.2145 91.3426 80.5873 91.3377 69.9601 91.328C69.313 91.328 68.9231 91.4718 68.5788 92.0906C67.7679 93.5282 66.4322 94.2366 64.8042 94.2408C56.9368 94.263 49.0701 94.263 41.2041 94.2408C39.211 94.2408 37.8422 93.1594 36.9649 91.3426H17.3407V88.2735H39.8208C39.8208 88.7111 39.8 89.1444 39.8208 89.5757C39.883 90.6175 40.3496 91.1175 41.3783 91.1196C49.1075 91.1349 56.8365 91.1349 64.5656 91.1196C65.6545 91.1196 66.1253 90.6196 66.1813 89.5278C66.2041 89.1215 66.1813 88.7152 66.1813 88.1985H99.1019V74.0575H94.0144V82.9355H26.7421V79.8997H90.8163V74.0387H89.6196C85.0651 74.0387 80.5106 74.0387 75.9561 74.0387C70.9266 74.0387 67.6601 70.7738 67.6601 65.7191C67.649 55.25 67.649 44.7802 67.6601 34.3097V32.9679H42.0876V29.8551H67.5978V24.6462H51.6446V21.5209H67.6704V20.2979C67.6704 16.3808 67.7845 12.4575 67.6414 8.5467C67.4506 3.36284 71.4824 -0.172938 76.0971 0.020832C79.5068 0.162513 82.9268 0.0479191 86.3426 0.0479191H87.5269V3.17324H86.4712C82.9164 3.17324 79.3616 3.17324 75.8088 3.17324C72.6854 3.18365 70.8063 5.08593 70.7856 8.23833C70.7856 9.6218 70.7856 11.0074 70.7856 12.4679H102.74C102.74 10.5386 102.947 8.55503 102.682 6.63401C102.389 4.5838 100.452 3.21907 98.3262 3.17949C96.1526 3.13781 93.9708 3.16698 91.8056 3.1649H90.7499V0.0395832H92.1561C94.1927 0.0395832 96.2273 0.0208313 98.264 0.0395832C101.904 0.0854211 104.901 2.46483 105.807 6.00686C105.867 6.23813 105.952 6.46315 106.027 6.69026V19.5874H102.891V15.7078H70.8499V52.0428H102.935V22.7065H106.012V67.4381C105.471 69.4112 104.594 71.1614 102.935 72.4636C102.571 72.781 102.347 73.2306 102.312 73.7137C102.269 78.2538 102.283 82.7959 102.288 87.3359C102.288 87.6026 102.325 87.8672 102.352 88.2423H106.015L106.01 96.3472ZM102.881 55.3535H70.8105C70.7918 55.6577 70.7669 55.8932 70.7669 56.1286C70.7669 59.4185 70.7462 62.7105 70.7669 66.0004C70.7856 68.9424 72.6916 70.8572 75.6304 70.9155C77.0097 70.9447 78.3889 70.9155 79.7784 70.9155C85.8117 70.9155 91.8449 70.9155 97.8803 70.9155C100.635 70.9155 102.769 69.1903 102.858 66.6609C102.976 62.923 102.881 59.1852 102.881 55.3535Z" fill="#004999"/>
<path d="M12.0938 29.8822H38.8608V32.92H15.2172V79.881H23.5132V82.9355H12.0938V29.8822Z" fill="#004999"/>
<path d="M6.85026 61.5687H3.73926V60.4124C3.73926 50.2613 3.73926 40.1096 3.73926 29.9572C3.73926 24.7817 6.98922 21.4918 12.1141 21.4897C23.8377 21.4897 35.562 21.4897 47.287 21.4897H48.3613V24.615H12.4127C8.61937 24.615 6.85026 26.3964 6.85026 30.2114V61.575V61.5687Z" fill="#004999"/>
<path d="M55.3927 53.322C55.3616 61.0937 49.0339 67.411 41.331 67.363C33.6282 67.3151 27.3253 60.9291 27.3792 53.1949C27.4185 49.4811 28.9114 45.932 31.5351 43.3153C34.1588 40.6986 37.7024 39.2247 41.3995 39.2123C45.1165 39.2228 48.6775 40.7144 51.301 43.3597C53.9245 46.005 55.3961 49.5879 55.3927 53.322ZM52.2672 53.2866C52.2651 50.3927 51.1227 47.6172 49.0899 45.5668C47.057 43.5163 44.2988 42.3576 41.4181 42.3438C35.4595 42.3251 30.5442 47.2256 30.4944 53.2345C30.4446 59.2435 35.4264 64.2502 41.4181 64.2315C44.2988 64.2166 47.0567 63.0573 49.0894 61.0066C51.1221 58.956 52.2645 56.1806 52.2672 53.2866Z" fill="#004999"/>
<path d="M90.8992 6.35687V9.34676H82.709V6.35687H90.8992Z" fill="#E33C5C"/>
<path d="M7.88281 94.1074H16.0274V97.1119H7.88281V94.1074Z" fill="#E33C5C"/>
<path d="M76.5205 6.32562H79.4801V9.35093H76.5205V6.32562Z" fill="#E33C5C"/>
<path d="M97.1292 9.34886H94.124V6.3548H97.1292V9.34886Z" fill="#E33C5C"/>
<path d="M19.2754 97.089V94.122H22.2682V97.089H19.2754Z" fill="#E33C5C"/>
<path d="M36.6556 70.5634V73.5616H33.6836V70.5634H36.6556Z" fill="#E33C5C"/>
<path d="M39.916 70.5384H42.8507V73.5554H39.9202L39.916 70.5384Z" fill="#E33C5C"/>
<path d="M49.094 73.572H46.124V70.5884H49.094V73.572Z" fill="#E33C5C"/>
<path d="M86.7906 46.9131C85.0897 46.9104 83.4059 46.5705 81.8359 45.9131C80.2659 45.2556 78.8404 44.2934 77.6411 43.0816C76.4418 41.8699 75.4922 40.4323 74.8468 38.8512C74.2015 37.2702 73.8729 35.5768 73.88 33.868C73.8921 30.4173 75.2642 27.1118 77.6962 24.6748C80.1282 22.2379 83.422 20.8679 86.857 20.8646C94.004 20.8813 99.8444 26.8298 99.7905 34.0389C99.7386 41.1417 93.8713 46.9443 86.7906 46.9131ZM86.801 43.7878C88.0967 43.7908 89.3802 43.5371 90.5782 43.0413C91.7761 42.5455 92.865 41.8172 93.7826 40.8982C94.7001 39.9791 95.4282 38.8874 95.9253 37.6854C96.4224 36.4833 96.6787 35.1946 96.6795 33.893C96.6647 31.267 95.6183 28.753 93.768 26.898C91.9176 25.0431 89.413 23.9972 86.7989 23.9879C84.2023 24.0026 81.7162 25.0459 79.8807 26.8911C78.0451 28.7363 77.0082 31.2344 76.9951 33.843C76.9828 35.1442 77.2274 36.435 77.7147 37.6407C78.2021 38.8464 78.9225 39.943 79.8344 40.8672C80.7463 41.7914 81.8315 42.5248 83.0273 43.0251C84.2231 43.5253 85.5057 43.7824 86.801 43.7815V43.7878Z" fill="#E33C5C"/>
<path d="M82.2441 58.4788H91.4485V67.7089H82.2441V58.4788ZM85.3427 64.5753H88.3189V61.6H85.3427V64.5753Z" fill="#E33C5C"/>
<path d="M34.0693 54.7284L36.1288 52.6449L38.91 55.7389L46.6295 47.9611L48.747 50.1884L39.1631 59.8289L34.0693 54.7284Z" fill="#E33C5C"/>
<path d="M79.9111 34.8744L82.0059 32.7908L84.839 35.9432L91.5898 29.1238L93.612 31.124L84.8742 39.902L79.9111 34.8744Z" fill="#004999"/>
</svg>
