<svg width="117" height="117" viewBox="0 0 117 117" fill="none" xmlns="http://www.w3.org/2000/svg">
<path d="M0.0126354 76.9906C0.460754 76.7229 0.2903 76.2378 0.362882 75.8661C0.817855 73.3432 2.01925 71.0141 3.81219 69.1787C6.67132 66.2808 9.57146 63.4238 12.4842 60.5227C16.9875 65.024 21.4497 69.5032 25.9436 73.9478C26.4674 74.4675 26.2591 74.7101 25.8583 75.1069C23.6872 77.2468 21.5286 79.3972 19.3827 81.558C18.1425 82.7991 18.1204 83.7378 19.3575 84.9726C21.333 86.9634 23.3117 88.9478 25.4134 91.0583C25.7006 90.1952 25.9089 89.518 26.1519 88.8533C28.0801 83.5677 31.9111 80.6477 37.4148 79.7468C40.9429 79.1704 44.4616 78.512 47.9771 77.8569C48.3243 77.7907 48.8576 77.9324 48.9807 77.356C49.1037 76.7796 48.6998 76.5181 48.2643 76.2315C44.132 73.6124 41.1939 69.4797 40.0814 64.7216C40.05 64.5042 39.9547 64.3011 39.8075 64.1379C39.6603 63.9747 39.4679 63.8588 39.2546 63.8049C35.7107 62.5449 33.8898 59.9588 33.8898 56.2041C33.8898 52.021 33.8898 47.8357 33.8898 43.6484C33.9245 31.5904 42.0475 21.7248 53.9068 19.315C67.0506 16.647 80.4973 25.9299 82.6243 39.1156C82.898 40.806 83.0352 42.5156 83.0346 44.228C83.0346 51.2671 83.0346 58.302 83.0346 65.3327C83.0346 69.3835 80.7087 71.7995 76.6599 71.6577C74.5928 71.5853 72.9519 71.8877 71.6895 73.721C70.97 74.7699 69.7961 75.4692 68.7074 76.1748C68.3066 76.4362 67.7953 76.6095 67.9184 77.2647C68.0541 77.986 68.6821 77.775 69.0924 77.8506C72.9045 78.575 76.7356 79.2019 80.5415 79.961C85.3951 80.9281 88.8222 83.741 90.5421 88.3682C92.12 92.564 93.3823 96.8731 94.8403 101.094C95.1874 102.096 94.5594 101.859 94.0735 101.859C85.0774 101.859 76.0814 101.859 67.0853 101.859H54.6958C55.3269 102.804 56.1569 103.434 56.8859 104.168C57.2835 104.562 57.3498 104.798 56.8859 105.214C53.6891 108.096 50.5743 111.067 47.3239 113.889C42.4766 118.094 34.8712 118.031 30.1912 113.574C24.8611 108.512 19.7362 103.239 14.526 98.0512C11.2345 94.7752 7.98093 91.4583 4.6516 88.217C2.25321 85.8798 0.662708 83.1771 0.233524 79.813C0.214589 79.6555 0.179879 79.52 0 79.4759L0.0126354 76.9906ZM79.1782 49.8727C79.0456 46.7448 79.4369 43.6169 78.9415 40.5237C77.6508 32.4724 73.1538 26.8308 65.5674 23.999C57.8926 21.1326 50.7605 22.6477 44.5878 28.0026C37.8219 33.8678 37.0835 41.686 37.8251 49.9073C39.0116 49.7089 39.8573 49.2521 39.5796 47.7906C39.4376 47.0535 40.0404 47.1606 40.479 47.1606C42.6134 47.2069 44.7447 46.975 46.819 46.4708C51.2213 45.3368 54.7305 42.8231 57.7411 39.5409C58.2712 38.9644 58.5836 38.9109 59.1454 39.5409C60.758 41.267 62.4747 42.8798 64.5102 44.124C68.1267 46.329 72.084 47.274 76.2749 47.2173C76.7419 47.2173 77.5088 46.9685 77.3479 47.8851C77.1049 49.3057 77.9664 49.6774 79.1782 49.8727ZM89.7595 98.0669C88.8127 95.232 87.986 92.5671 87.0424 89.9401C85.7801 86.4247 83.2334 84.3457 79.5696 83.6402C75.5712 82.8842 71.5665 82.1786 67.5776 81.4037C67.2906 81.3243 66.9866 81.3287 66.702 81.4164C66.4173 81.504 66.1637 81.6712 65.9713 81.8982C63.7339 84.182 61.4397 86.409 59.2117 88.7021C58.6405 89.288 58.3312 89.3762 57.7096 88.7336C55.4658 86.4027 53.1336 84.1568 50.8678 81.8478C50.6849 81.6369 50.4457 81.4823 50.178 81.402C49.9104 81.3217 49.6253 81.319 49.3562 81.3942C45.6955 82.0841 42.0348 82.7991 38.3521 83.3756C34.3663 84.0056 31.3557 85.8294 29.8662 89.7196C29.4213 90.885 29.0773 92.0946 28.6512 93.2696C28.5481 93.4884 28.5231 93.7359 28.5805 93.9709C28.6379 94.2059 28.7743 94.4142 28.9668 94.561C30.0461 95.5816 31.0749 96.6526 32.1226 97.6952C33.3849 98.9552 34.2337 98.9836 35.556 97.796C37.9039 95.6824 40.2897 93.594 42.5744 91.4268C43.2466 90.7968 43.5938 90.8756 44.1839 91.4898C46.0584 93.4365 48.015 95.3013 49.8959 97.2448C50.1443 97.5221 50.4518 97.7402 50.7959 97.883C51.14 98.0259 51.5118 98.0898 51.8839 98.0701C62.2475 98.0428 72.611 98.0365 82.9746 98.0512L89.7595 98.0669ZM68.193 71.7081H61.2503C58.3817 71.7081 58.4101 71.7081 58.4101 68.8732C58.4101 68.0574 58.6594 67.8621 59.4452 67.8684C63.1785 67.8999 66.9149 67.8684 70.6514 67.8684C70.9267 67.9008 71.205 67.8391 71.4406 67.6932C71.6762 67.5472 71.8552 67.3258 71.9483 67.0651C72.98 64.9791 73.5197 62.6852 73.5262 60.3589C73.5262 57.505 73.4978 54.6512 73.5452 51.7973C73.5452 51.0445 73.2864 50.8303 72.5984 50.7515C67.5634 50.21 62.8307 48.0868 59.0823 44.6879C58.5363 44.1996 58.2744 44.3193 57.7948 44.7414C54.0314 48.1218 49.2873 50.218 44.2502 50.7263C43.5401 50.7988 43.3034 51.0413 43.3034 51.7816C43.3508 54.6165 43.2561 57.4893 43.3382 60.3431C43.5054 66.2052 46.1184 70.6844 51.2528 73.5729C56.6113 76.6378 63.9517 75.8314 68.193 71.7113V71.7081ZM39.4093 113.146C41.855 113.193 44.1776 111.886 46.1942 109.87C46.5539 109.511 46.5381 109.287 46.1942 108.947C43.598 106.376 41.0103 103.797 38.4309 101.207C38.1154 100.892 37.9039 100.845 37.4842 101.138C34.644 103.135 31.9711 102.88 29.4969 100.414C25.2114 96.1423 20.928 91.8657 16.6467 87.5839C14.2325 85.1679 13.9959 82.481 15.9714 79.6933C16.2459 79.3058 16.2869 79.1011 15.9429 78.7483C13.3426 76.1779 10.7548 73.5971 8.17972 71.0057C7.84521 70.6687 7.64959 70.6624 7.2709 71.0057C3.13369 74.6124 2.70133 80.8462 6.54506 84.7332C15.1098 93.3956 23.7598 101.973 32.4034 110.563C34.1801 112.324 36.3923 113.161 39.4093 113.149V113.146ZM51.7862 104.499C51.6031 104.301 51.4074 104.071 51.196 103.869L44.976 97.648C43.2498 95.9187 43.2687 95.9407 41.4762 97.5598C40.924 98.0543 40.864 98.3315 41.4289 98.8796C43.5938 100.968 45.6987 103.116 47.8288 105.239C49.4982 106.903 49.4982 106.903 51.2308 105.239C51.4422 105.038 51.742 104.893 51.7862 104.502V104.499ZM21.1121 74.5274C20.8407 74.2376 20.645 74.0139 20.4336 73.806C18.2056 71.5759 15.9756 69.3488 13.7434 67.125C12.4464 65.8303 12.4811 65.865 11.1209 67.125C10.4898 67.7203 10.5276 68.0385 11.1209 68.6243C13.5193 70.949 15.8546 73.3493 18.2404 75.6802C18.5149 75.9511 18.7516 76.6252 19.2628 76.263C19.9203 75.7308 20.5383 75.1518 21.1121 74.5305V74.5274ZM63.8191 78.7483C60.2643 79.5028 56.5857 79.4555 53.0516 78.6097C54.7084 80.4272 56.4314 82.1187 58.145 83.8197C58.4038 84.0812 58.5553 84.0118 58.7762 83.7851C60.4393 82.0935 62.1371 80.4209 63.8191 78.7483ZM75.9025 67.8243C79.1467 68.2842 79.6169 66.9076 79.0173 63.282C78.5944 63.4458 78.1652 63.597 77.755 63.7734C77.4394 63.9215 77.0102 63.8648 76.8808 64.3719C76.5905 65.5185 76.2402 66.621 75.9025 67.8243ZM39.485 59.6911V53.4888C37.0866 55.0922 37.0677 58.1539 39.485 59.6911ZM77.3952 53.3912V59.7667C78.6354 58.9414 79.194 57.9177 79.194 56.5821C79.194 55.2465 78.5912 54.2417 77.3952 53.4007V53.3912Z" fill="#030303"/>
<path d="M112.336 0.0332031C112.724 0.439547 113.302 0.304106 113.762 0.552953C115.933 1.74363 117.01 3.5391 117 6.02126C116.981 10.7745 117 15.5278 117 20.2811C117 24.1429 114.662 26.6282 110.812 26.3857C107.514 26.1778 104.816 27.1165 102.13 28.934C97.6048 31.9926 92.8805 34.7614 88.0143 37.798C88.3299 35.908 88.6076 34.2228 88.8948 32.5375C89.2104 30.7421 89.4881 28.9435 89.8415 27.1543C89.9583 26.5652 89.8005 26.4266 89.2388 26.4392C87.9071 26.4676 86.5722 26.4613 85.2405 26.4392C81.6208 26.3983 79.2445 24.0295 79.2192 20.4197C79.2192 15.6948 79.2192 10.9887 79.2192 6.27325C79.2192 3.2241 80.4027 1.45383 83.1987 0.288348C83.3407 0.231649 83.489 0.21275 83.5143 0.0332031H112.336ZM93.1551 30.1152C95.6166 28.5812 97.9582 27.3559 100.032 25.7778C103.301 23.2893 106.807 22.0955 110.932 22.6026C112.509 22.7979 113.219 21.9726 113.223 20.3504C113.235 15.5898 113.235 10.8323 113.223 6.07796C113.223 4.51873 112.557 3.8415 110.995 3.8415C102.417 3.8289 93.8388 3.8289 85.2593 3.8415C83.6815 3.8415 83.0503 4.47149 83.0503 6.04647C83.0503 10.8407 83.0503 15.636 83.0503 20.4323C83.0503 21.9852 83.713 22.6372 85.2909 22.6372C87.9986 22.6372 90.7062 22.6876 93.4107 22.6152C94.3417 22.5931 94.4521 22.8703 94.2912 23.6862C93.8904 25.7274 93.5559 27.7843 93.1551 30.1152Z" fill="#030303"/>
<path d="M10.8935 46.675C12.4304 45.7552 13.7968 44.9615 15.138 44.1204C15.6713 43.7834 16.0122 43.6763 16.3435 44.3787C16.7443 45.2324 17.7131 46.0923 17.6058 46.8294C17.4986 47.5665 16.17 47.8972 15.3747 48.3854C12.7807 49.9604 10.1456 51.4944 7.56102 53.1104C6.90462 53.5167 6.65531 53.3939 6.29871 52.7733C4.43049 49.5982 2.53176 46.4409 0.602533 43.3014C0.211218 42.6714 0.204907 42.3564 0.91811 42.0414C1.77648 41.6729 2.57179 40.5767 3.34811 40.8287C4.01398 41.0429 4.36426 42.243 4.84078 43.0148C5.51296 44.1047 6.1725 45.2197 6.95513 46.4797C7.82928 42.977 8.84856 39.7451 10.3128 36.6834C18.0918 20.4612 30.778 10.3782 48.4282 6.69587C56.7342 4.96025 65.0117 5.45793 73.1852 7.76999C73.9867 7.99679 74.113 8.28658 73.8384 8.98902C73.5229 9.83006 73.4629 11.0932 72.8696 11.4334C72.2763 11.7736 71.1782 11.1562 70.3103 10.9294C44.818 4.31451 17.7699 20.1367 11.0986 45.5788C11.0323 45.856 11.0008 46.1521 10.8935 46.675Z" fill="#030303"/>
<path d="M108.773 42.1614C110.862 48.6587 111.682 55.4962 111.187 62.3022C110.431 72.8335 106.53 82.8969 99.9873 91.1935C99.6496 91.625 99.4224 91.6849 99.0027 91.3132C98.2926 90.6832 97.1724 90.2296 96.901 89.4642C96.5854 88.6011 97.7656 87.9333 98.2831 87.1805C107.525 73.7743 109.848 59.2709 105.251 43.6702C105.166 43.3867 105.055 43.1095 104.91 42.7C103.916 44.3506 102.954 45.8909 102.054 47.4691C101.739 48.0423 101.448 48.099 100.915 47.7336C100.139 47.195 98.8859 46.88 98.6272 46.1807C98.3684 45.4814 99.3908 44.5648 99.8673 43.7584C101.411 41.1376 103.023 38.5578 104.538 35.9276C104.923 35.263 105.197 35.2409 105.8 35.6126C108.956 37.5383 112.12 39.4283 115.293 41.2825C115.924 41.6542 116.101 41.9346 115.608 42.5425C115.031 43.2859 114.816 44.6152 114.03 44.7821C113.374 44.9207 112.49 43.9946 111.705 43.5442L108.94 41.9692C108.902 41.8716 108.836 41.7708 108.735 41.8621C108.722 41.9314 108.763 42.07 108.773 42.1614Z" fill="#030303"/>
<path d="M79.1781 49.8713C77.9663 49.676 77.1049 49.3043 77.351 47.8648C77.512 46.9482 76.7451 47.1907 76.278 47.197C72.0714 47.238 68.1298 46.3087 64.5133 44.1038C62.4747 42.8595 60.7579 41.2467 59.1485 39.5206C58.5868 38.9189 58.2744 38.9599 57.7442 39.5206C54.7336 42.8091 51.2244 45.3228 46.8221 46.4505C44.7479 46.9547 42.6165 47.1866 40.4822 47.1403C40.0435 47.1403 39.4407 47.0301 39.5827 47.7703C39.8604 49.2319 39.0148 49.6886 37.8282 49.8871C37.0866 41.6657 37.8282 33.8475 44.591 27.9823C50.7637 22.6274 57.8957 21.1123 65.5705 23.9787C73.1444 26.8137 77.6539 32.4521 78.9446 40.5034C79.4369 43.6155 79.0582 46.7434 79.1781 49.8713Z" fill="#D29F6B"/>
<path d="M89.7593 98.0689H82.9838C72.6203 98.0689 62.2567 98.0752 51.8932 98.0878C51.5211 98.1075 51.1493 98.0436 50.8052 97.9007C50.4611 97.7579 50.1535 97.5398 49.9051 97.2625C48.0117 95.319 46.0677 93.4542 44.1932 91.5075C43.603 90.8933 43.2464 90.8082 42.5837 91.4445C40.2863 93.6117 37.9132 95.7001 35.5653 97.8137C34.243 99.0013 33.4036 98.9729 32.1318 97.7129C31.0778 96.6703 30.049 95.5993 28.9761 94.5787C28.7835 94.4319 28.6472 94.2236 28.5898 93.9886C28.5323 93.7536 28.5573 93.5061 28.6605 93.2873C29.0865 92.1123 29.4304 90.9027 29.8754 89.7373C31.3649 85.8471 34.3756 84.0169 38.3613 83.3933C42.0441 82.8168 45.7047 82.1018 49.3654 81.4119C49.6346 81.3367 49.9196 81.3394 50.1873 81.4197C50.4549 81.5 50.6941 81.6546 50.8771 81.8655C53.1429 84.1744 55.475 86.4204 57.7187 88.7513C58.3499 89.3813 58.6655 89.3057 59.2209 88.7198C61.4489 86.4267 63.7432 84.1996 65.9806 81.9159C66.173 81.6889 66.4265 81.5217 66.7112 81.434C66.9959 81.3464 67.2997 81.342 67.5868 81.4214C71.582 82.1963 75.5867 82.9019 79.5787 83.6579C83.2426 84.3477 85.7893 86.4267 87.0517 89.9578C87.9858 92.5691 88.8188 95.2402 89.7593 98.0689Z" fill="#004999"/>
<path d="M68.1932 71.7102C63.9519 75.8303 56.6116 76.6367 51.2436 73.6002C46.1092 70.7054 43.4962 66.2261 43.3289 60.3704C43.2469 57.5165 43.3289 54.6595 43.2942 51.8088C43.2942 51.0654 43.5246 50.826 44.2409 50.7536C49.278 50.2453 54.0222 48.149 57.7855 44.7687C58.2652 44.3466 58.5271 44.2269 59.073 44.7151C62.8214 48.114 67.5542 50.2372 72.5892 50.7788C73.2835 50.8575 73.5549 51.0717 73.5359 51.8246C73.4886 54.6784 73.5138 57.5323 73.517 60.3861C73.5105 62.7124 72.9708 65.0064 71.9391 67.0924C71.846 67.3531 71.667 67.5745 71.4314 67.7204C71.1958 67.8663 70.9175 67.9281 70.6421 67.8956C66.9057 67.8704 63.1693 67.9145 59.436 67.8956C58.6502 67.8956 58.3977 68.0846 58.4009 68.9004C58.4009 71.7354 58.3756 71.7354 61.2411 71.7354L68.1932 71.7102Z" fill="#F7DEA5"/>
<path d="M39.4093 113.148C36.3924 113.148 34.1801 112.322 32.4034 110.558C23.7598 101.971 15.1098 93.3942 6.54507 84.7287C2.70135 80.8416 3.13371 74.6079 7.27092 71.0012C7.64961 70.6673 7.84523 70.6862 8.17974 71.0012C10.7591 73.6031 13.3468 76.185 15.943 78.7469C16.2932 79.0934 16.2586 79.2982 15.9714 79.6919C13.9959 82.4796 14.2325 85.1665 16.6467 87.5825C20.9238 91.8665 25.2072 96.143 29.497 100.412C31.9711 102.879 34.644 103.134 37.4842 101.137C37.9008 100.844 38.1154 100.885 38.431 101.206C41.0124 103.791 43.6001 106.371 46.1942 108.945C46.5413 109.286 46.5571 109.509 46.1942 109.868C44.1776 111.884 41.855 113.195 39.4093 113.148Z" fill="#E43C5C"/>
<path d="M51.7859 104.502C51.7418 104.895 51.442 105.037 51.2274 105.242C49.4949 106.902 49.4948 106.902 47.8254 105.242C45.6953 103.119 43.5904 100.971 41.4255 98.8821C40.8607 98.334 40.9206 98.0568 41.4728 97.5623C43.2653 95.9432 43.2464 95.9211 44.9726 97.6505L51.1958 103.865C51.4072 104.073 51.6029 104.303 51.7859 104.502Z" fill="#F85867"/>
<path d="M21.112 74.5303C20.5428 75.1565 19.9291 75.7408 19.2754 76.2785C18.7641 76.6439 18.5275 75.9635 18.2529 75.6958C15.8703 73.3554 13.5192 70.9709 11.1335 68.6399C10.5276 68.054 10.4802 67.7359 11.1335 67.1405C12.4968 65.8805 12.4589 65.8333 13.7559 67.1405C15.986 69.3644 18.2161 71.5914 20.4462 73.8216C20.645 74.0232 20.8406 74.2405 21.112 74.5303Z" fill="#F85867"/>
<path d="M63.8187 78.7478C62.1367 80.4267 60.4515 82.0993 58.7694 83.7877C58.5454 84.0145 58.3939 84.0838 58.1383 83.8223C56.4247 82.1213 54.7017 80.4298 53.0449 78.6123C56.5812 79.458 60.2621 79.5043 63.8187 78.7478Z" fill="#F7DEA5"/>
<path d="M39.4847 59.6905C37.0673 58.1534 37.0705 55.0916 39.4847 53.4883V59.6905Z" fill="#F7DEA5"/>
<path d="M77.395 53.3994C78.5911 54.2405 79.1938 55.2453 79.1938 56.5903C79.1938 57.9353 78.6352 58.9496 77.395 59.7749V53.3994Z" fill="#F7DEA5"/>
<path d="M93.1549 30.1157C93.5557 27.7848 93.8776 25.7279 94.2784 23.6835C94.4393 22.8677 94.3289 22.5905 93.3979 22.6126C90.6934 22.685 87.9858 22.6441 85.2781 22.6346C83.7003 22.6346 83.0408 22.0046 83.0376 20.4296C83.0376 15.6354 83.0376 10.8402 83.0376 6.04383C83.0376 4.46886 83.6688 3.83887 85.2466 3.83887C93.8282 3.83887 102.407 3.83887 110.982 3.83887C112.56 3.83887 113.207 4.5161 113.21 6.07532C113.222 10.8317 113.222 15.5892 113.21 20.3477C113.21 21.9574 112.503 22.7953 110.919 22.6C106.794 22.0928 103.288 23.2867 100.019 25.7751C97.958 27.3564 95.6164 28.5817 93.1549 30.1157ZM98.0401 7.56211H89.4722C86.7203 7.56211 86.7645 7.5621 86.7235 10.3467C86.7235 11.2475 87.017 11.3987 87.8312 11.3956C94.0765 11.3641 100.322 11.3767 106.567 11.3767C109.533 11.3767 109.502 11.3767 109.477 8.3937C109.477 7.63771 109.205 7.5432 108.552 7.5495C105.046 7.57785 101.543 7.55896 98.0401 7.55896V7.56211ZM94.2531 15.1031H89.5732C86.6762 15.1031 86.7077 15.1031 86.7172 18.0073C86.7172 18.798 86.9949 18.9523 87.7049 18.9523C91.4729 18.924 95.2409 18.9523 99.0057 18.9523C101.96 18.9523 101.928 18.9523 101.906 15.9693C101.906 15.2228 101.653 15.1031 100.991 15.1157C98.7501 15.1188 96.5064 15.1188 94.2594 15.1188L94.2531 15.1031ZM107.63 15.1031C105.668 15.1031 105.668 15.1031 105.668 17.0372V17.1506C105.668 18.924 105.668 18.924 107.473 18.924C109.445 18.924 109.445 18.924 109.445 16.9647C109.451 15.1188 109.451 15.1188 107.637 15.1188L107.63 15.1031Z" fill="#FDFDFD"/>
<path d="M108.773 42.1597C108.773 42.0686 108.71 41.9305 108.751 41.8928C108.852 41.8017 108.918 41.8928 108.956 41.9996L108.773 42.1597Z" fill="#FDFDFD"/>
<path d="M98.0403 7.55859C101.543 7.55859 105.046 7.55859 108.549 7.55859C109.202 7.55859 109.467 7.64679 109.474 8.40278C109.499 11.3858 109.53 11.3858 106.564 11.3858C100.319 11.3858 94.0735 11.3858 87.8283 11.4047C87.0141 11.4047 86.708 11.2566 86.7206 10.3558C86.7616 7.5712 86.7206 7.57119 89.4692 7.57119L98.0403 7.55859Z" fill="#030303"/>
<path d="M94.2596 15.1182C96.5065 15.1182 98.7503 15.1434 100.997 15.1025C101.66 15.1025 101.906 15.2095 101.912 15.9561C101.934 18.9391 101.966 18.9391 99.0122 18.9391C95.2474 18.9391 91.4794 18.9233 87.7114 18.9391C87.0013 18.9391 86.7268 18.8005 86.7237 17.9941C86.7237 15.0899 86.6827 15.0898 89.5796 15.0898L94.2596 15.1182Z" fill="#030303"/>
<path d="M107.637 15.1182C109.451 15.1182 109.451 15.1182 109.451 16.9798C109.451 18.939 109.451 18.9391 107.479 18.9391C105.674 18.9391 105.674 18.9391 105.674 17.1656V17.0522C105.674 15.1182 105.674 15.1182 107.637 15.1182Z" fill="#030303"/>
</svg>
