<svg width="76" height="71" viewBox="0 0 76 71" fill="none" xmlns="http://www.w3.org/2000/svg">
<path d="M75.5077 53.768C75.449 53.952 75.3844 54.1339 75.3316 54.3198C75.048 55.3255 74.4594 56.2184 73.647 56.8758C72.8346 57.5331 71.8382 57.9225 70.7953 57.9901C69.764 58.0447 68.7412 57.7782 67.8678 57.2273C66.9944 56.6765 66.3133 55.8684 65.9184 54.9145C65.8323 54.7189 65.754 54.5095 65.6425 54.2317C64.8107 54.2317 63.9653 54.2415 63.1179 54.2317C60.838 54.2043 59.2744 52.6313 59.2548 50.3443C59.2431 49.1704 59.2548 47.9965 59.2548 46.8226C59.2392 45.322 58.2431 44.3106 56.742 44.2421C53.0903 44.0738 50.5579 41.4835 50.5051 37.8288C50.4797 36.0974 50.5051 34.3639 50.5051 32.6305L50.5051 31.8029L43.0098 31.8029L43.0098 50.0586C43.0098 51.9857 43.8963 52.9052 45.8494 53.0148C47.0671 53.0827 48.2159 53.601 49.0725 54.4689C49.929 55.3368 50.432 56.4922 50.4836 57.7103C50.5364 59.3185 50.4992 60.9306 50.507 62.5428C50.507 63.8027 50.92 64.2155 52.1666 64.2312C52.239 64.2312 52.3134 64.2312 52.3858 64.2312C53.6304 64.3818 54.4856 64.1881 55.153 62.8049C56.1315 60.7584 58.6893 60.0169 60.8537 60.7447C63.0729 61.4902 64.4213 63.5718 64.2393 65.9743C64.0749 68.1401 62.3293 70.0105 60.1022 70.4077C59.0098 70.5981 57.8851 70.4127 56.9116 69.8819C55.9381 69.351 55.1733 68.506 54.742 67.4847C54.4915 66.8802 54.1999 66.663 53.5678 66.7237C52.9814 66.7631 52.3929 66.7631 51.8065 66.7237C49.556 66.6337 48.0314 65.0783 48.0021 62.8245C47.9825 61.2887 48.0021 59.7509 48.0021 58.2131C48.0021 56.5208 47.1058 55.5836 45.4306 55.4741C42.5088 55.296 40.5185 53.1968 40.5146 50.2523C40.5055 44.3947 40.5055 38.5377 40.5146 32.6814L40.5146 31.7775L35.5243 31.7775L35.5243 32.6129C35.5243 38.0296 35.5243 43.4471 35.5243 48.8652C35.5243 52.017 33.6103 54.0243 30.4517 54.2102C30.1596 54.2279 29.8692 54.2671 29.5828 54.3276C28.5026 54.5604 28.0427 55.1102 28.0368 56.2156C28.0368 58.3148 28.0368 60.4141 28.0368 62.5114C28.0368 65.2055 26.5162 66.7452 23.8077 66.71C22.5239 66.6924 21.5572 66.6904 20.835 68.2028C19.8565 70.2531 17.2753 70.9301 15.1128 70.1592C12.9503 69.3884 11.6156 67.3145 11.8054 64.9472C11.9816 62.7521 13.7625 60.8934 16.0267 60.5139C17.1088 60.3424 18.2172 60.5383 19.1749 61.0702C20.1327 61.6021 20.8846 62.4395 21.3106 63.4486C21.5572 64.0512 21.8409 64.2859 22.475 64.2135C22.9819 64.1568 23.5005 64.2136 24.0112 64.1999C25.0798 64.1744 25.5299 63.7362 25.5358 62.6738C25.5475 60.6489 25.6101 58.62 25.524 56.5971C25.3811 53.3083 27.6043 51.8722 30.1504 51.7059C32.2619 51.567 33.035 50.7277 33.035 48.5991L33.035 31.7833L26.7726 31.7833C26.7726 32.0514 26.7726 32.3331 26.7726 32.6148C26.7276 34.4656 26.8626 36.3439 26.5906 38.1614C26.0857 41.5324 23.0484 44.0504 19.6354 44.1971C17.7195 44.2793 16.9426 45.0344 16.7801 46.9713C16.6138 48.9434 15.0775 50.3775 13.0207 50.4597C12.3866 50.4969 11.7508 50.4969 11.1166 50.4597C10.5686 50.4147 10.3201 50.5986 10.1087 51.1229C9.68121 52.1857 8.89644 53.0663 7.88949 53.613C6.88255 54.1598 5.71646 54.3384 4.59195 54.1183C3.46824 53.8982 2.45351 53.3007 1.71602 52.425C0.978513 51.5493 0.562551 50.4479 0.537061 49.3034C0.517568 48.1462 0.900457 47.0182 1.62037 46.1119C2.34027 45.2056 3.35251 44.5772 4.48431 44.334C5.61475 44.0769 6.79986 44.2311 7.82679 44.769C8.8537 45.3069 9.65515 46.1932 10.0872 47.2687C10.324 47.8556 10.6156 48.0376 11.2047 47.9887C11.7605 47.9417 12.326 47.9887 12.8877 47.971C13.7918 47.9339 14.2263 47.5054 14.2947 46.6211C14.5276 43.6747 16.422 41.8434 19.3653 41.73C22.1834 41.6145 24.2578 39.4918 24.2735 36.6628C24.2891 35.0565 24.2735 33.4483 24.2735 31.7912C23.9056 31.7599 23.5807 31.7325 23.0993 31.6914C23.385 31.4429 23.5748 31.2786 23.7627 31.1045C26.4477 28.7039 27.8607 25.7007 28.0407 22.1048C28.0524 21.9589 28.0524 21.8124 28.0407 21.6665C28.0217 21.3475 27.881 21.048 27.6476 20.8296C27.4142 20.6112 27.1059 20.4906 26.7863 20.4926C26.1033 20.4926 25.6453 20.9505 25.5573 21.6861C25.4575 22.5313 25.4203 23.396 25.2109 24.2158C24.0367 28.7685 20.0777 31.5956 15.1891 31.7756C10.78 31.9379 5.86597 28.4222 5.55089 22.6408C5.26517 17.3799 9.32593 12.9466 14.694 12.6277C15.9602 12.5514 16.2596 12.2462 16.3398 10.9843C16.6099 6.24381 21.4652 3.19957 25.8117 5.11494C28.6102 6.34751 30.2854 8.4957 30.5457 11.6221C30.6181 12.483 31.1328 13.017 31.8588 12.972C32.5849 12.927 33.0898 12.3479 33.033 11.4871C32.8119 7.9772 31.0486 5.39663 28.1581 3.51061C27.8568 3.31496 27.5378 3.14283 27.2227 2.95696C28.438 1.5131 30.9977 1.47789 32.5692 2.8611C32.7324 3.00769 32.8849 3.16591 33.0252 3.33455C34.0037 4.47125 34.9059 4.34996 35.5184 3C36.5713 0.679646 39.2171 -0.232089 41.3248 1.06504C41.8899 1.44221 42.3786 1.9228 42.7652 2.48151C43.548 3.56148 44.4678 3.60455 45.1977 2.51285C46.8592 0.0320618 49.5931 -0.226211 51.6402 1.95328C52.5365 2.90803 53.3056 3.95277 52.875 5.41619C52.4601 6.83071 51.4229 7.74047 49.9571 7.92047C49.7164 7.94981 49.4718 7.96354 49.2291 7.99875C48.4718 8.10636 47.9884 8.6483 48.0549 9.31936C48.1215 9.99042 48.6557 10.4932 49.4248 10.4736C50.7712 10.4463 52.0335 10.1117 53.1275 9.29978C54.3007 8.43518 55.1005 7.15639 55.3643 5.72337C55.5404 4.87231 55.8653 4.71386 56.6872 5.06211C57.0012 5.19806 57.2845 5.39592 57.5202 5.64384C57.7559 5.89177 57.9392 6.18463 58.059 6.505C58.1789 6.82536 58.2328 7.16665 58.2177 7.50835C58.2026 7.85006 58.1187 8.1852 57.971 8.49374C57.6266 9.19415 57.2019 9.86326 57.9182 10.5461C58.5934 11.1897 59.2548 10.7808 59.93 10.456C60.9071 9.99357 62.0012 9.83673 63.0689 10.006C64.1367 10.1753 65.1284 10.6629 65.9145 11.4049C66.7189 12.1296 67.2806 13.0844 67.5233 14.1394C67.7659 15.1944 67.6777 16.2985 67.2707 17.3017C66.5192 19.1094 64.983 19.9566 63.161 20.344C62.7287 20.4191 62.2921 20.4668 61.8537 20.4868C61.0709 20.5533 60.5915 21.0111 60.5876 21.7213C60.5836 22.4315 61.1042 22.993 61.9085 22.9735C64.6288 22.903 66.9458 21.9385 68.6993 19.7923C68.8226 19.6416 68.9361 19.4851 69.0476 19.3384C71.7131 20.2148 73.4215 22.9578 73.0164 25.689C72.4763 29.3319 69.7228 31.7129 65.9889 31.7344C62.0103 31.756 58.0297 31.7344 54.0512 31.7344L53.1275 31.7344C53.0938 31.9333 53.071 32.1338 53.059 32.3351C53.059 34.1409 53.0394 35.9467 53.059 37.7525C53.0864 40.1139 54.5874 41.64 56.9338 41.73C58.2305 41.755 59.466 42.2863 60.3759 43.2102C61.2858 44.1341 61.798 45.3774 61.8028 46.6739C61.8205 47.8478 61.8028 49.0217 61.8028 50.1956C61.8028 51.2638 62.2549 51.7001 63.3195 51.7157C63.3919 51.7157 63.4663 51.7157 63.5387 51.7157C64.8147 51.8096 65.7853 51.7588 66.5036 50.2406C67.3725 48.3956 69.2629 47.7578 71.3021 48.0532C73.2591 48.335 74.5664 49.4854 75.2709 51.3244C75.3746 51.5925 75.4666 51.8664 75.5605 52.1383L75.5077 53.768ZM37.9803 27.9878C39.3079 27.9928 40.6023 27.5735 41.6747 26.7911C42.747 26.0087 43.5412 24.9041 43.9413 23.6386C44.1192 23.0311 44.2178 22.4031 44.2349 21.7702C44.243 21.6099 44.2189 21.4496 44.1638 21.2988C44.1088 21.148 44.0239 21.0098 43.9144 20.8925C43.8048 20.7751 43.6728 20.681 43.5262 20.6157C43.3795 20.5504 43.2212 20.5152 43.0607 20.5122C42.3777 20.477 41.8865 20.9035 41.7651 21.6294C41.7319 21.8465 41.7162 22.0657 41.6849 22.2828C41.6081 22.8279 41.4114 23.3491 41.1092 23.8092C40.807 24.2693 40.4066 24.6568 39.9369 24.9439C39.4671 25.231 38.9396 25.4105 38.3922 25.4697C37.8448 25.5288 37.2912 25.4661 36.7709 25.286C35.9682 25.0101 35.2835 24.4692 34.8296 23.7522C34.3757 23.0352 34.1796 22.185 34.2738 21.3418C34.3635 20.4724 34.7568 19.6625 35.3846 19.0543C36.0123 18.446 36.8344 18.0783 37.7063 18.0158C38.7533 17.9356 39.2856 17.4504 39.2171 16.6345C39.1506 15.8519 38.585 15.4802 37.5576 15.5252C34.3579 15.6602 31.6749 18.5538 31.7316 21.8054C31.7562 23.4486 32.4244 25.0166 33.5928 26.1726C34.7612 27.3286 36.3365 27.9803 37.9803 27.9878ZM53.0022 15.4665C52.5419 15.5196 52.0846 15.5966 51.6323 15.6974C50.6161 15.988 49.7176 16.5919 49.065 17.4232C48.4124 18.2544 48.0391 19.2705 47.9982 20.3264C47.9845 21.0894 48.4326 21.6489 49.1098 21.7154C49.8573 21.7898 50.3681 21.3476 50.4796 20.5318C50.511 20.3146 50.5345 20.0955 50.5853 19.8823C50.6674 19.5496 50.8175 19.2375 51.0262 18.9656C51.2349 18.6937 51.4976 18.468 51.7978 18.3026C52.0979 18.1372 52.4291 18.0357 52.7705 18.0046C53.1118 17.9734 53.4559 18.0132 53.7811 18.1214C54.32 18.2956 54.7822 18.6504 55.0896 19.126C55.397 19.6016 55.5307 20.1686 55.468 20.7313C55.3624 21.9169 54.4602 22.7993 53.2332 22.9891C52.8418 23.0497 52.3192 23.1398 52.1353 23.4078C51.8858 23.7998 51.8014 24.2745 51.9004 24.7284C52.0961 25.4132 52.738 25.5246 53.3975 25.4738C54.6757 25.3643 55.8633 24.7697 56.7164 23.812C57.5696 22.8543 58.0234 21.6063 57.9847 20.3244C57.9395 19.0292 57.3962 17.8013 56.4681 16.8964C55.54 15.9915 54.2986 15.4793 53.0022 15.4665ZM23.0034 17.8749C23.0034 15.8128 21.3321 14.2163 19.2146 14.2398C17.0972 14.2633 15.4963 15.8578 15.4963 17.8867C15.4963 18.6106 15.9425 19.1466 16.5942 19.2151C17.3144 19.2933 17.8271 18.8825 17.9641 18.1156C17.9817 18.0197 17.9915 17.9199 18.0091 17.826C18.1794 16.8908 19.1833 16.3841 19.927 16.9495C20.2401 17.1863 20.3889 17.7086 20.5004 18.1234C20.6961 18.8727 21.1814 19.2973 21.9016 19.2073C22.565 19.1466 22.9995 18.6106 22.9956 17.8828L23.0034 17.8749ZM12.9014 26.7357C14.9445 26.7983 16.5453 25.4073 16.743 23.3941C16.831 22.4922 16.4142 21.8661 15.6588 21.7683C14.9034 21.6704 14.3887 22.1459 14.2595 23.0889C14.1852 23.6425 13.966 24.0671 13.3671 24.1923C12.4434 24.388 11.9098 23.9967 11.7663 23.0185C11.645 22.1948 11.1283 21.7135 10.4219 21.7663C9.71538 21.8191 9.26332 22.3728 9.27507 23.1926C9.29855 25.1881 10.8191 26.6789 12.8838 26.7435L12.9014 26.7357Z" fill="#E43C5C"/>
</svg>
