<svg width="103" height="90" viewBox="0 0 103 90" fill="none" xmlns="http://www.w3.org/2000/svg">
<g clip-path="url(#clip0_418_2015)">
<path d="M103.003 81.7757C102.196 83.482 100.818 84.0374 99.0039 83.9119C97.808 83.8345 96.6014 83.8959 95.2416 83.8959C95.2416 85.004 95.2551 86.0321 95.2416 87.0441C95.2121 89.0788 94.3145 89.9813 92.2856 89.9813C88.9354 89.992 85.5834 89.992 82.2296 89.9813C80.327 89.9813 79.3945 89.0601 79.3515 87.1722C79.33 86.1415 79.3515 85.1108 79.3515 83.9893H23.6485C23.6485 85.0254 23.6485 86.0454 23.6485 87.0681C23.6162 89.0815 22.7052 89.9787 20.6736 89.984C17.3556 89.984 14.0413 89.984 10.7305 89.984C8.70153 89.984 7.80127 89.0815 7.7744 87.0467C7.76096 86.0508 7.7744 85.0574 7.7744 83.8905C6.77203 83.8905 5.85301 83.8905 4.93394 83.8905C4.32929 83.8905 3.72464 83.9092 3.12268 83.8905C1.17168 83.8104 0.0349345 82.6542 0.0295599 80.7023C0.0295599 75.5728 0.0295599 70.4433 0.0295599 65.3138C0.0295599 60.6516 0.0295599 55.9893 0.0295599 51.3271C0.00698482 51.0279 0.0168587 50.7271 0.0590838 50.4299C0.228386 49.6636 0.70672 49.1883 1.52636 49.1829C2.34599 49.1776 2.83509 49.6449 3.00977 50.4086C3.0578 50.7383 3.06955 51.0723 3.04474 51.4046V80.8438H99.9498V18.4219H94.1909C93.1509 18.4219 92.1136 18.4219 91.0736 18.4219C89.8347 18.4219 89.1226 17.8451 89.1414 16.8945C89.1602 15.9439 89.8482 15.4419 91.0225 15.4259C91.3585 15.4259 91.6917 15.4259 92.0276 15.4259C94.4462 15.4259 96.8648 15.4927 99.2672 15.4046C101.054 15.3405 102.304 15.9706 103.005 17.6182L103.003 81.7757ZM10.8272 86.9453H20.558V83.9813H10.8326L10.8272 86.9453ZM92.1969 83.9653H82.4661V86.9319H92.1969V83.9653Z" fill="#004999"/>
<path d="M27.9081 15.4233C27.9081 13.1776 27.9081 11.0842 27.9081 8.99072C27.9081 5.7277 29.6414 4.02409 32.9388 4.01608H35.8169C35.8169 3.58885 35.8169 3.26308 35.8169 2.94799C35.8438 1.02276 36.8569 0.0107422 38.8186 0.0107422C45.5567 0.0107422 52.2938 0.0107422 59.03 0.0107422C60.7069 0.0107422 62.3812 0.0107422 64.0581 0.0107422C66.2079 0.0107422 67.1619 0.969356 67.1888 3.12156C67.1888 3.38858 67.1888 3.6556 67.1888 4.02409H70.2416C73.3212 4.04011 75.0788 5.79178 75.0976 8.87323C75.0976 10.705 75.0976 12.5368 75.0976 14.3686C75.0976 14.6917 75.1245 15.0174 75.1433 15.4366H81.4263C82.1303 15.4366 82.8371 15.4126 83.5385 15.4366C84.4683 15.4794 85.0918 16.1095 85.0837 16.94C85.0757 17.7704 84.4468 18.3632 83.5089 18.4166C83.173 18.438 82.8371 18.4166 82.5039 18.4166H3.02609V42.7931C3.02609 43.0949 3.0449 43.3966 3.02609 43.693C3.03143 44.0882 2.87858 44.4692 2.60114 44.7524C2.3237 45.0356 1.94438 45.1977 1.54668 45.203C1.14898 45.2083 0.765469 45.0564 0.480472 44.7808C0.195476 44.5051 0.0323965 44.1282 0.027051 43.733C0.0149291 43.5 0.0149291 43.2665 0.027051 43.0334C0.027051 35.0103 0.027051 26.9845 0.027051 18.956C0.027051 16.4941 1.10196 15.426 3.56893 15.4233H27.9242H27.9081ZM30.9528 15.3672H72.069C72.069 12.964 72.1254 10.6089 72.0152 8.26175C71.9964 7.83985 71.3407 7.1536 70.9108 7.09753C69.7068 6.93731 68.4679 7.04145 67.2345 7.04145C67.2183 7.32182 67.2049 7.48738 67.2022 7.65293C67.1619 10.1977 66.3046 11.0334 63.7329 11.0334H51.7715C47.4476 11.0334 43.1264 11.0334 38.8025 11.0334C36.8676 11.0334 35.8465 9.99739 35.8277 8.06415C35.8277 7.74372 35.8277 7.42062 35.8277 7.03077C34.5512 7.03077 33.3821 6.99072 32.2212 7.04679C32.0589 7.0414 31.8973 7.0686 31.7458 7.12677C31.5944 7.18494 31.4563 7.27288 31.3399 7.38532C31.2235 7.49776 31.1311 7.63239 31.0683 7.78115C31.0055 7.92991 30.9735 8.08974 30.9743 8.25106C30.9286 10.6009 30.9528 12.9587 30.9528 15.3672ZM38.8912 3.0281V7.96535H64.093V3.0281H38.8912Z" fill="#004999"/>
<path d="M29.8402 39.4847C29.8402 39.1162 29.8079 38.5154 29.8402 37.9173C29.9584 35.8906 31.4203 34.4032 33.4654 34.3712C39.5575 34.2831 44.8489 32.2697 49.3206 28.1122C50.6965 26.8305 52.4379 26.94 53.9213 28.3044C57.2559 31.4362 61.4891 33.4586 66.0331 34.0908C67.1591 34.2537 68.3012 34.2938 69.4379 34.3578C71.6792 34.47 73.2405 35.976 73.1626 38.219C72.6628 52.9747 66.0008 64.1006 53.1769 71.5968C52.0348 72.2617 50.8873 72.211 49.7452 71.5514C38.5391 65.0735 31.9578 55.4954 30.1572 42.713C30.0175 41.709 29.9638 40.7103 29.8402 39.4847ZM33.2342 42.0454C33.209 42.1848 33.1938 42.3258 33.1886 42.4673C33.1903 42.6666 33.2055 42.8655 33.2342 43.0628C35.1154 54.3205 40.9549 62.8866 50.8631 68.6729C51.0696 68.7724 51.2961 68.8241 51.5256 68.8241C51.7551 68.8241 51.9815 68.7724 52.188 68.6729C54.1632 67.3645 56.1921 66.1015 57.9846 64.5688C59.8361 62.9667 61.4378 61.0975 63.2168 59.2791C62.7331 58.98 62.5127 58.8358 62.2843 58.705L47.6732 50.3258C46.867 49.8585 46.0286 49.4233 45.2546 48.8972C44.5532 48.4139 44.4136 47.6876 44.8382 46.9586C45.2628 46.2297 45.9372 46.0187 46.7381 46.3578C46.9811 46.47 47.2172 46.5966 47.4449 46.737L58.2318 52.9186L64.6814 56.6169C64.8157 56.5181 64.8856 56.4914 64.9179 56.438C65.097 56.1585 65.269 55.8728 65.4338 55.5808C68.382 50.4794 70.0022 44.7274 70.1474 38.8465C70.1904 37.466 70.1259 37.3939 68.7016 37.3458C62.7008 37.1482 57.3826 35.1669 52.7792 31.3191C52.3519 30.964 51.9327 30.5955 51.5377 30.251C51.4448 30.2937 51.355 30.3428 51.2689 30.3979C46.3672 34.9186 40.5653 37.2123 33.8873 37.3805C33.546 37.3805 33.2128 37.757 32.8742 37.9573C33.1133 38.2243 33.3014 38.5982 33.6024 38.7744C35.9431 40.1442 38.2945 41.4633 40.6405 42.8331C41.5058 43.3405 41.7369 44.2137 41.2881 44.9693C40.8394 45.725 40.0386 45.8772 39.1786 45.442C38.6116 45.1562 38.0688 44.8225 37.5179 44.5074L33.2342 42.0454Z" fill="#E33C5C"/>
</g>
<defs>
<clipPath id="clip0_418_2015">
<rect width="103" height="90" fill="white"/>
</clipPath>
</defs>
</svg>
