<svg width="82" height="83" viewBox="0 0 82 83" fill="none" xmlns="http://www.w3.org/2000/svg">
<g clip-path="url(#clip0_749_536)">
<path d="M53.2833 64.7023C53.181 64.5989 53.0497 64.5297 52.9072 64.5039C52.7648 64.4781 52.6179 64.497 52.4863 64.558C40.3948 70.1049 29.931 67.8801 23.5121 58.4967C17.659 49.9543 18.7943 38.2265 26.1793 30.9578C29.8037 27.4028 34.5616 25.2651 39.6029 24.9268C44.6442 24.5884 49.6404 26.0714 53.6987 29.1108C61.3205 34.8057 65.435 46.3019 59.0331 57.8703C58.9554 58.0067 58.9247 58.1653 58.9458 58.3212C58.9669 58.4772 59.0386 58.6216 59.1496 58.7321C61.5517 61.1221 64.0215 63.5671 66.4801 66.0292C69.3622 68.926 72.2398 71.8317 75.1131 74.7463C77.6487 77.3166 77.9833 79.885 76.053 81.8004C74.1226 83.7158 71.6922 83.3399 69.0777 80.6956C63.7828 75.3518 58.5105 70.0005 53.2833 64.7023ZM41.0264 27.6852C36.1262 27.6876 31.4264 29.6497 27.9548 33.1424C24.4832 36.635 22.5223 41.3739 22.5009 46.3228C22.4652 56.5509 30.8219 65.0003 40.9925 65.0155C51.1631 65.0307 59.4917 56.6288 59.5123 46.3551C59.533 36.0814 51.2007 27.67 41.0264 27.6757V27.6852ZM55.4994 61.9839C55.4209 62.0465 55.3564 62.1251 55.3102 62.2147C55.2641 62.3043 55.2373 62.4028 55.2316 62.5037C55.2259 62.6045 55.2415 62.7054 55.2772 62.7997C55.313 62.894 55.3683 62.9796 55.4392 63.0507C60.8318 68.478 66.0196 73.7515 71.3107 78.915C71.7223 79.3174 72.4121 79.4275 73.1095 79.53C73.2217 79.5466 73.3363 79.5357 73.4435 79.4982C73.5507 79.4607 73.6474 79.3976 73.7253 79.3144C73.8033 79.2312 73.8603 79.1302 73.8915 79.02C73.9227 78.9099 73.9272 78.7938 73.9046 78.6815C73.7655 77.981 73.617 77.2881 73.2035 76.8553C68.5796 72.026 63.8054 67.3352 59.1571 62.5363C58.7323 62.1016 58.4523 61.5226 58.1816 60.9341C58.1321 60.8268 58.057 60.7336 57.963 60.6629C57.8691 60.5922 57.7591 60.5463 57.6432 60.5291C57.5272 60.512 57.4089 60.5242 57.2988 60.5648C57.1887 60.6053 57.0903 60.6729 57.0125 60.7614V60.7709C56.9846 60.8028 56.9537 60.8321 56.9204 60.8582L55.4994 61.9839Z" fill="#004999"/>
<path d="M11.9421 69.5503C18.1242 69.5674 23.4529 74.3227 23.8251 80.3233C23.8316 80.4471 23.824 80.5713 23.8025 80.6934C23.5732 82.0223 21.7349 82.2709 21.2387 81.0123C21.2033 80.9222 21.1768 80.8287 21.1598 80.7333C20.2782 75.6686 16.6487 72.2459 11.9121 72.244C7.17544 72.2421 3.55719 75.6876 2.68129 80.7561C2.67415 80.801 2.6641 80.8454 2.65121 80.889C2.26401 82.2539 0.267859 82.0621 0.0460647 80.6593C0.0264246 80.5382 0.0207543 80.4153 0.0291546 80.2929C0.455827 74.2411 5.75634 69.5351 11.9421 69.5503Z" fill="#004999"/>
<path d="M12.1054 14.3381C18.2029 14.4064 23.571 19.3306 23.8285 25.2837C23.8332 25.4176 23.8174 25.5515 23.7815 25.6805C23.4413 26.9922 21.5448 27.0435 21.182 25.7374C21.1708 25.6957 21.1595 25.6539 21.152 25.6102C20.2122 20.4032 16.7838 17.1608 11.9757 17.1343C7.08871 17.1077 3.66218 20.3519 2.67162 25.7507C2.64733 25.8783 2.60356 26.0012 2.54192 26.1152C1.97803 27.184 0.386007 26.9903 0.0589546 25.8305C0.0172749 25.6921 -0.00178082 25.5479 0.00255701 25.4033C0.209314 19.2737 5.75793 14.2716 12.1054 14.3381Z" fill="#004999"/>
<path d="M70.273 14.3378C76.3535 14.3928 81.7067 19.3057 81.9999 25.2778C82.0058 25.4187 81.9893 25.5597 81.951 25.6954C81.5958 27.0033 79.7124 27.0584 79.3553 25.7523C79.344 25.7087 79.3346 25.6669 79.3271 25.6252C78.4437 20.4504 74.9814 17.1663 70.164 17.1378C65.3465 17.1093 61.7527 20.4086 60.8712 25.4904C60.855 25.5873 60.8285 25.6821 60.7922 25.7732C60.3073 27.0413 58.4202 26.823 58.2115 25.4809C58.1944 25.3781 58.1894 25.2736 58.1965 25.1696C58.5705 19.0836 64.0082 14.2884 70.273 14.3378Z" fill="#004999"/>
<path d="M11.872 13.4512C8.13528 13.4228 5.24632 10.5013 5.25196 6.75209C5.25863 5.86785 5.43768 4.99361 5.77888 4.17926C6.12009 3.36491 6.61676 2.62641 7.24056 2.00592C7.86436 1.38544 8.60306 0.895112 9.41448 0.562949C10.2259 0.230787 11.0942 0.0632885 11.9697 0.0700193C12.8452 0.0767501 13.7109 0.257578 14.5172 0.602178C15.3235 0.946777 16.0547 1.4484 16.6691 2.07841C17.2835 2.70841 17.769 3.45446 18.0979 4.27396C18.4267 5.09346 18.5926 5.97036 18.5859 6.8546C18.522 10.6265 15.6199 13.4778 11.872 13.4512ZM15.8511 6.84321C15.8728 5.80647 15.4875 4.80316 14.7793 4.05235C14.0711 3.30154 13.0976 2.86421 12.0712 2.83586C11.5629 2.80855 11.0543 2.88337 10.5748 3.05598C10.0953 3.2286 9.65458 3.49558 9.27801 3.84147C8.90144 4.18736 8.59655 4.60527 8.38104 5.071C8.16553 5.53674 8.04367 6.04103 8.02251 6.55466C8.00167 7.08715 8.08589 7.61851 8.27029 8.11782C8.45468 8.61712 8.73556 9.0744 9.09659 9.46304C9.45761 9.85168 9.89159 10.1639 10.3732 10.3816C10.8548 10.5993 11.3745 10.718 11.902 10.731C13.9696 10.7594 15.8098 8.94654 15.8511 6.84321Z" fill="#004999"/>
<path d="M69.957 13.4474C66.1977 13.3829 63.3783 10.4272 63.4384 6.60213C63.4501 5.71628 63.6359 4.84159 63.9851 4.0289C64.3344 3.21621 64.8401 2.48173 65.4728 1.86813C66.1056 1.25453 66.8527 0.774049 67.6709 0.454613C68.4891 0.135178 69.362 -0.0168427 70.2389 0.00738314C73.9699 0.090909 76.8082 3.08645 76.763 6.88877C76.7161 10.6493 73.7444 13.5139 69.957 13.4474ZM70.1919 2.84157C69.1667 2.803 68.1681 3.17594 67.4143 3.87884C66.6606 4.58174 66.213 5.55744 66.1695 6.59263C66.0661 8.77759 67.9364 10.7442 70.1167 10.7386C72.1956 10.7386 73.9887 8.91807 74.0094 6.79576C74.0171 6.28262 73.9243 5.773 73.7364 5.29619C73.5485 4.81937 73.2691 4.38476 72.9144 4.01732C72.5597 3.64988 72.1365 3.35685 71.6693 3.15508C71.2021 2.9533 70.7 2.84676 70.1919 2.84157Z" fill="#004999"/>
<path d="M11.9586 55.2086C15.6934 55.2257 18.5842 58.1453 18.5842 61.8982C18.5747 63.6835 17.8634 65.3919 16.6068 66.6475C15.3502 67.9031 13.6511 68.6032 11.8834 68.5936C10.1157 68.584 8.42416 67.8656 7.1809 66.5965C5.93765 65.3273 5.24453 63.6114 5.254 61.8261C5.29347 58.0883 8.22942 55.1915 11.9586 55.2086ZM12.0356 65.8391C13.0623 65.8192 14.0398 65.3909 14.7556 64.6473C15.4715 63.9037 15.8679 62.9049 15.8588 61.8679C15.8306 59.7664 14.0186 57.9459 11.9379 57.9251C9.7801 57.9042 7.91552 59.8822 8.0095 62.0881C8.05347 63.1234 8.50183 64.0991 9.25639 64.8014C10.011 65.5037 11.0103 65.8755 12.0356 65.8353V65.8391Z" fill="#004999"/>
<path d="M40.9016 48.4106C36.2683 48.4486 32.5467 51.9073 31.7347 56.731C31.7234 56.7917 31.7103 56.8487 31.6952 56.9075C31.3362 58.2116 29.466 58.1319 29.1841 56.8069C29.1494 56.6532 29.1386 56.495 29.1521 56.338C29.7292 50.2767 34.8624 45.66 40.8715 45.5917C46.984 45.5195 52.2601 50.1476 52.8503 56.3114C52.862 56.438 52.8582 56.5655 52.839 56.6911C52.6266 58.149 50.5478 58.2477 50.2846 56.7974C50.2836 56.7892 50.2836 56.7809 50.2846 56.7727C49.467 51.8333 45.672 48.3708 40.9016 48.4106Z" fill="#E43C5C"/>
<path d="M34.2925 37.7459C34.4917 34.0651 37.6758 31.1132 41.2583 31.2765C44.9142 31.4454 47.8633 34.6156 47.7355 38.2414C47.6021 42.0039 44.277 45.0962 40.6418 44.8399C37.0067 44.5837 34.097 41.3432 34.2925 37.7459ZM40.9726 41.9963C41.7488 42.0023 42.5092 41.7749 43.157 41.3432C43.8048 40.9114 44.3108 40.2948 44.6106 39.5717C44.9103 38.8486 44.9903 38.0518 44.8404 37.2827C44.6904 36.5136 44.3173 35.8069 43.7684 35.2526C43.2196 34.6983 42.5199 34.3215 41.7583 34.17C40.9968 34.0186 40.2079 34.0994 39.4919 34.4021C38.776 34.7049 38.1654 35.2159 37.7379 35.8702C37.3104 36.5244 37.0853 37.2924 37.0913 38.0762C37.0991 39.1134 37.5106 40.1059 38.2368 40.8393C38.963 41.5728 39.9457 41.9883 40.9726 41.9963Z" fill="#E43C5C"/>
</g>
<defs>
<clipPath id="clip0_749_536">
<rect width="82" height="83" fill="white"/>
</clipPath>
</defs>
</svg>
