<svg width="115" height="126" viewBox="0 0 115 126" fill="none" xmlns="http://www.w3.org/2000/svg">
<g clip-path="url(#clip0_694_21)">
<path d="M64.5186 18.8745H97.2542C99.6661 18.8745 100.269 19.4789 100.269 21.8964V74.8638C100.269 77.2813 99.6661 77.8856 97.2542 77.8856H31.7769C29.3649 77.8856 28.762 77.2813 28.762 74.8638V21.8964C28.762 19.4789 29.3649 18.8745 31.7769 18.8745H64.5186ZM79.1468 73.6308V23.1595H64.5186C64.5186 25.7583 64.5186 28.2907 64.5186 30.823C64.5186 32.9564 63.8311 33.6333 61.6665 33.6333H50.626C48.3166 33.6333 47.6955 32.9927 47.6895 30.6115V23.1595H33.025V73.6308H79.1468ZM96.0302 23.1656H83.5546V73.5946H96.0422L96.0302 23.1656ZM60.2917 23.1656H52.0008V29.2939H60.2917V23.1656Z" fill="#E43C5C"/>
<path d="M31.9518 97.0383L36.7756 92.2033C38.5827 90.3077 40.7631 88.8094 43.1785 87.8033C45.594 86.7972 48.1917 86.3054 50.8069 86.359C53.3454 86.359 55.89 86.4013 58.4285 86.359C59.0574 86.3409 59.6656 86.13 60.1711 85.7546C64.5625 82.0278 70.1494 80.0167 75.9029 80.0916C77.4767 80.0916 79.0564 80.0916 80.6302 80.0916C81.7457 80.0916 82.7527 80.2125 83.2592 81.3789C83.7657 82.5454 83.1085 83.4519 82.2944 84.2618C80.2383 86.2864 78.2002 88.3353 76.2647 90.6319C76.6927 90.5909 77.1177 90.5223 77.5369 90.4264C81.6191 89.2781 85.7073 88.1358 89.7714 86.915C90.4127 86.6807 90.9807 86.2803 91.4175 85.7546C94.0038 82.7539 97.1856 80.3264 100.76 78.6271C104.335 76.9278 108.223 75.994 112.178 75.8852C113.245 75.8368 114.198 75.9758 114.771 77.0214C115.344 78.067 114.879 78.8345 114.319 79.7048C110.327 85.6881 106.365 91.6896 102.343 97.6547C101.896 98.2904 101.283 98.7902 100.571 99.0992C92.531 102.52 84.4592 105.898 76.3551 109.235C75.6617 109.495 74.9245 109.618 74.1843 109.597C66.9486 109.597 59.7129 109.646 52.4771 109.597C51.8993 109.539 51.3161 109.624 50.7795 109.847C50.2429 110.069 49.7696 110.422 49.402 110.872C48.7639 111.534 48.0874 112.158 47.376 112.74C48.5819 113.894 49.7457 114.958 50.8612 116.046C55.1242 120.204 55.082 119.956 50.8612 124.169C50.3511 124.739 49.8816 125.345 49.4562 125.982L46.2906 122.537L48.9618 120.512L28.5027 100.084L2.91236 125.746L0 122.766C0.337668 122.41 0.681354 122.035 1.04314 121.673L26.4164 96.2405C28.4002 94.2581 29.0756 94.2581 31.0714 96.2405C31.3126 96.4581 31.5719 96.6877 31.9518 97.0383ZM44.7108 109.73C45.6876 108.691 46.6825 107.705 47.5991 106.654C47.9772 106.203 48.456 105.848 48.9965 105.617C49.537 105.386 50.1241 105.286 50.7104 105.324C58.3321 105.373 65.9597 105.354 73.5814 105.324C74.1988 105.342 74.8136 105.238 75.3903 105.016C82.9517 101.885 90.501 98.7305 98.0382 95.5515C98.6186 95.2864 99.1166 94.8687 99.4793 94.3428C102.331 90.1121 105.135 85.8815 107.921 81.6509C108.12 81.3487 108.283 81.0465 108.566 80.5268C107.963 80.6174 107.65 80.6476 107.318 80.7322C102.034 81.998 97.3222 84.9922 93.9258 89.2418C93.3636 89.8897 92.6393 90.3757 91.8275 90.65C89.2528 91.4962 86.6178 92.167 84.025 92.9587C80.2142 94.1252 76.4033 95.2433 72.3272 94.8504C71.8634 94.8916 71.4324 95.1076 71.1212 95.4548C70.1203 96.4218 69.1917 97.4553 68.3113 98.386L64.9709 95.2735C68.6611 91.5989 72.291 87.9787 75.9933 84.2799C70.9103 84.1523 65.9819 86.0371 62.2755 89.5259C61.9229 89.8805 61.5009 90.1581 61.0359 90.3411C60.571 90.5242 60.0733 90.6088 59.5742 90.5896C56.9452 90.5412 54.3042 90.7165 51.6873 90.5473C43.9692 90.0396 39.5252 95.0861 35.0451 100.048L44.7108 109.73Z" fill="#004999"/>
<path d="M27.8093 15.5143L25.319 18.0406L19.0662 11.7793L21.665 9.33154L27.8093 15.5143Z" fill="#004999"/>
<path d="M105.823 18.0648L103.308 15.4478L109.483 9.2832C110.212 10.0628 111.117 11.0419 111.949 11.9243C109.977 13.9006 107.921 15.9676 105.823 18.0648Z" fill="#004999"/>
<path d="M62.4504 8.25576V0H66.5085V8.25576H62.4504Z" fill="#004999"/>
<path d="M24.4629 44.2463V48.2956H16.196V44.2463H24.4629Z" fill="#004999"/>
<path d="M112.793 48.3681H104.593V44.2644H112.793V48.3681Z" fill="#004999"/>
<path d="M66.6291 54.72C69.2581 54.72 71.8871 54.72 74.5161 54.72C76.3973 54.72 77.133 55.4633 77.139 57.3611C77.139 61.2291 77.139 65.0951 77.139 68.959C77.139 70.8447 76.3913 71.576 74.4979 71.582H58.7181C56.8368 71.582 56.1071 70.8326 56.1011 68.9349C56.1011 65.0709 56.1011 61.2069 56.1011 57.343C56.1011 55.4513 56.8427 54.726 58.7421 54.72C61.3711 54.7079 64.0001 54.72 66.6291 54.72ZM60.3642 67.2728H72.8277V59.005H60.3642V67.2728Z" fill="#E43C5C"/>
</g>
<defs>
<clipPath id="clip0_694_21">
<rect width="115" height="126" fill="white"/>
</clipPath>
</defs>
</svg>
