<svg width="105" height="104" viewBox="0 0 105 104" fill="none" xmlns="http://www.w3.org/2000/svg">
<path d="M104.004 102.192C103.256 103.614 102.049 104.004 100.49 104C89.4947 103.956 78.4998 103.976 67.5009 103.976C65.018 103.976 64.1744 103.128 64.1744 100.628C64.1744 100.022 64.1744 99.4331 64.1744 98.808C64.1744 98.0992 64.3064 97.4343 63.3988 96.9645C62.5991 96.5663 62.6951 95.2006 63.5027 94.7348C64.1344 94.3724 64.1944 93.9385 64.1784 93.3452C64.1584 92.4692 64.1784 91.5933 64.1784 90.7134C64.1784 88.8261 65.166 87.8426 67.0531 87.8426C71.8229 87.8426 76.5927 87.8426 81.3665 87.8426H82.502V84.8007H67.309C65.122 84.8007 64.1984 83.8969 64.1944 81.7587C64.1944 78.385 64.1944 75.0139 64.1944 71.6455C64.1944 69.6308 65.15 68.6752 67.177 68.6712C71.8469 68.6712 76.5167 68.6712 81.1706 68.6712H82.4619V65.6213H67.269C65.078 65.6213 64.1984 64.7374 64.1944 62.5515C64.1944 59.2176 64.1944 55.8823 64.1944 52.5457C64.1944 50.4395 65.094 49.5277 67.225 49.5237C71.9628 49.5237 76.6966 49.5237 81.4344 49.5237H82.5699C82.5699 48.4168 82.5459 47.4135 82.5699 46.4101C82.6019 45.2992 83.2016 44.6781 84.1452 44.706C85.0888 44.7338 85.5725 45.3191 85.6005 46.4141C85.6245 47.3856 85.6005 48.3611 85.6005 49.468C85.9204 49.468 86.3042 49.5237 86.688 49.5237C91.3579 49.5237 96.0277 49.5595 100.682 49.5237C102.237 49.5237 103.376 49.9776 103.996 51.4508V63.7938C103.34 65.2271 102.221 65.7009 100.658 65.6771C96.0237 65.6054 91.3938 65.6492 86.76 65.6532C86.4041 65.6532 86.0443 65.681 85.6445 65.701V68.6991H86.784C91.3499 68.6991 95.9158 68.7389 100.478 68.6792C102.033 68.6553 103.248 69.0415 103.996 70.4709V83.0129C103.296 84.4065 102.177 84.9599 100.618 84.8485C99.4421 84.7649 98.2507 84.8485 97.0672 84.8286C95.8838 84.8086 95.1921 84.2751 95.1841 83.3275C95.1761 82.3799 95.8558 81.8105 97.0392 81.7986C98.3147 81.7986 99.5901 81.7986 100.889 81.7986V71.8047H67.289V81.7986H68.5524C75.4559 81.7986 82.3593 81.7986 89.2628 81.7986C90.3943 81.7986 91.05 82.348 91.078 83.2638C91.106 84.1796 90.4343 84.8126 89.2588 84.8246C88.0834 84.8365 86.8999 84.8246 85.6605 84.8246V87.8665H86.8159C91.4178 87.8665 96.0117 87.9103 100.622 87.8426C102.173 87.8187 103.3 88.2886 104.004 89.6782V102.192ZM67.277 90.9244V100.878H100.905V90.9244H67.277ZM100.901 52.6214H67.317V62.5475H100.901V52.6214Z" fill="#014999"/>
<path d="M44.5634 40.3146C42.7762 41.3498 41.4528 40.6689 40.2733 39.4824C39.3458 38.5507 38.3942 37.631 37.5466 36.6276C36.5231 35.4092 36.611 34.0555 37.7025 32.8929C38.4182 32.1284 39.1619 31.3878 39.9295 30.6791C40.0191 30.619 40.0956 30.5414 40.1543 30.4511C40.213 30.3607 40.2527 30.2595 40.271 30.1534C40.2894 30.0474 40.2859 29.9387 40.2609 29.834C40.2358 29.7293 40.1897 29.6308 40.1254 29.5443C39.9692 29.2844 39.8533 29.0026 39.7816 28.7082C39.7677 28.5843 39.7278 28.4647 39.6645 28.3572C39.6011 28.2497 39.5158 28.1567 39.4139 28.0842C39.3121 28.0117 39.1961 27.9614 39.0734 27.9365C38.9508 27.9116 38.8243 27.9127 38.7021 27.9397C37.7905 27.9955 36.8749 27.9397 35.9593 27.9397C34.0242 27.9397 33.1087 27.1156 32.8608 25.2084C32.8288 24.9456 32.7688 24.6828 32.7008 24.3046H31.7173C25.2163 24.3046 18.7193 24.3046 12.2183 24.3046C11.9036 24.2893 11.5893 24.3431 11.2978 24.4621C11.0062 24.5811 10.7445 24.7625 10.5311 24.9934C8.25211 27.3027 5.92918 29.5642 3.66623 31.8895C3.31453 32.2705 3.10801 32.7622 3.08251 33.2791C3.05586 47.4376 3.04385 61.5962 3.04652 75.7548C3.04652 76.5511 3.23043 76.9094 4.11802 76.9055C13.4257 76.8816 22.7334 76.8816 32.0411 76.9055C32.1731 76.9055 32.309 76.8816 32.5169 76.8656C32.8888 69.1573 36.8869 64.4908 44.5634 62.8624C44.5634 60.9631 44.5634 59.048 44.5634 57.1328C44.5493 56.7624 44.5574 56.3915 44.5874 56.022C44.593 55.8271 44.6376 55.6353 44.7186 55.4578C44.7996 55.2803 44.9153 55.1207 45.059 54.9883C45.2028 54.8559 45.3716 54.7534 45.5556 54.6869C45.7396 54.6203 45.9351 54.5909 46.1306 54.6005C46.3266 54.5953 46.5215 54.6306 46.7031 54.7041C46.8847 54.7776 47.0491 54.8878 47.1858 55.0277C47.3225 55.1676 47.4287 55.3342 47.4976 55.5169C47.5664 55.6997 47.5965 55.8947 47.586 56.0897C47.626 57.9093 47.586 59.7328 47.586 61.5524C47.586 61.9864 47.586 62.4244 47.586 62.9181C48.2897 63.0774 48.9454 63.2088 49.5851 63.376C55.6063 64.9487 59.7883 70.73 59.4685 77.0249C59.1566 83.2123 54.3348 88.5715 48.2377 89.4833C45.1198 90.0051 41.9171 89.412 39.196 87.809C36.4749 86.206 34.4108 83.6963 33.3685 80.7238C33.1446 80.0947 32.8728 79.8877 32.229 79.9275C31.1855 79.9793 30.138 79.9275 29.0305 79.9275C28.7826 81.1459 29.3304 82.9734 27.3353 82.9097C25.5002 82.846 26.0079 81.1459 25.836 79.9275H4.09003C1.41927 79.9275 0.0159077 78.5379 0.0119095 75.8902C0.0119095 61.6281 0.0119095 47.3673 0.0119095 33.1079C-0.00724946 32.5029 0.102182 31.9008 0.333002 31.3408C0.563821 30.7809 0.910834 30.2759 1.35131 29.8589C3.7502 27.4978 6.14909 25.1208 8.54799 22.692C8.99958 22.2151 9.54898 21.8406 10.1588 21.594C10.7687 21.3473 11.4247 21.2343 12.0823 21.2626C18.5793 21.2945 25.0763 21.2626 31.5773 21.2626H32.6448C32.7288 21.1551 32.7888 21.1073 32.8008 21.0476C33.3805 18.2883 33.9123 17.8623 36.759 17.8623H37.7745C39.6936 17.8623 39.7096 17.8623 40.2413 16.0308C40.257 15.8814 40.2401 15.7305 40.1918 15.5882C40.1435 15.446 40.065 15.3158 39.9615 15.2066C39.2778 14.4581 38.5301 13.7732 37.8265 13.0446C36.627 11.8023 36.5071 10.4366 37.6346 9.16253C38.73 7.9276 39.9039 6.76391 41.1489 5.67863C42.2964 4.67527 43.6918 4.77878 44.8192 5.81002C45.5082 6.40857 46.1536 7.05522 46.7504 7.74507C47.3221 8.43787 47.8179 8.43787 48.6415 8.12333C49.593 7.75702 49.9529 7.29914 49.8409 6.29976C49.7849 5.49246 49.7849 4.68227 49.8409 3.87497C49.8809 2.20269 50.8524 1.11969 52.5157 1.04404C54.1149 0.968392 55.6902 0.968392 57.2735 1.04404C58.8568 1.11969 59.8803 2.17481 59.9443 3.7794C59.9842 4.82258 59.9802 5.86974 59.9443 6.91292C59.9089 7.1243 59.9553 7.34116 60.0739 7.51991C60.1926 7.69867 60.3748 7.82606 60.584 7.87647C62.1832 8.50158 62.1832 8.52547 63.4386 7.29117C63.9184 6.81736 64.3862 6.32365 64.878 5.86577C66.0375 4.78277 67.4408 4.67129 68.6243 5.69057C69.8908 6.80259 71.086 7.99277 72.2026 9.2541C73.1981 10.3769 73.0902 11.8023 72.0587 12.9132C71.327 13.7095 70.5034 14.4182 69.7917 15.2305C69.6879 15.3735 69.6172 15.5377 69.5847 15.7112C69.5522 15.8847 69.5587 16.0632 69.6038 16.2338C70.2315 17.8703 70.2555 17.8623 72.0027 17.8623C72.5784 17.8623 73.1542 17.8623 73.7259 17.8623C75.693 17.8902 76.6286 18.7303 76.8725 20.6733C76.8725 20.8366 76.9324 20.9998 76.9724 21.1989C78.2078 21.4657 80.1709 20.7092 80.0989 22.899C80.019 24.8381 78.2238 24.1333 76.9844 24.3643C76.9404 24.7147 76.8885 25.073 76.8445 25.4353C76.8024 26.1165 76.4986 26.7555 75.9961 27.2196C75.4936 27.6837 74.831 27.9373 74.1457 27.9278C73.2671 27.9875 72.3855 27.9875 71.5069 27.9278C70.5394 27.8283 70.1236 28.2105 69.7557 29.0825C69.3879 29.9544 69.4239 30.4641 70.1555 31.0454C70.7691 31.5768 71.3487 32.1459 71.8907 32.7495C73.1142 34.0117 73.2421 35.4212 72.0987 36.7311C71.0496 37.9191 69.9252 39.0389 68.7322 40.0836C67.4048 41.2383 66.0414 41.1109 64.734 39.8766C64.225 39.4327 63.7492 38.9523 63.3107 38.4392C62.599 37.4996 61.8674 37.2447 60.7639 37.8699C60.1961 38.1884 59.8643 38.4114 59.9123 39.1161C59.9642 40.0922 59.9642 41.0704 59.9123 42.0466C59.8523 43.6392 58.9567 44.6744 57.3614 44.7779C55.6773 44.8874 53.9879 44.8874 52.3038 44.7779C50.7325 44.6704 49.8489 43.5835 49.8089 41.9908C49.785 41.1149 49.761 40.2349 49.8089 39.363C49.8609 38.5666 49.709 37.9973 48.7974 37.842C48.3922 37.726 47.9987 37.5727 47.6219 37.3841V38.6861C47.6219 41.9908 47.6219 45.2942 47.6219 48.5963C47.6219 49.3926 47.478 50.0934 46.6304 50.4C45.5509 50.7981 44.5993 50.0536 44.5834 48.7516C44.5514 46.3626 44.5834 43.9737 44.5834 41.5847L44.5634 40.3146ZM73.7699 24.9177V20.9083C72.4025 20.9083 71.1871 20.9083 69.9716 20.9083C69.4084 20.9318 68.8528 20.7715 68.3894 20.4516C67.9261 20.1318 67.5803 19.67 67.4048 19.1364C67.1169 18.4197 66.8251 17.7031 66.5132 16.9983C65.8935 15.5968 66.0494 14.6094 67.1449 13.5104C67.9726 12.6823 68.8441 11.8979 69.7357 11.0538L66.7731 8.02379C65.8415 9.01919 65.0379 9.92699 64.1903 10.787C63.2547 11.7346 62.1472 11.878 60.9318 11.3604C60.2481 11.0697 59.5644 10.783 58.8728 10.5163C57.4294 9.95487 56.8737 9.1665 56.8737 7.59775C56.8737 6.43513 56.8737 5.26852 56.8737 4.01431H52.8275C52.8275 5.36806 52.8275 6.61032 52.8275 7.85258C52.8445 8.39651 52.6881 8.93183 52.3806 9.38174C52.0732 9.83166 51.6306 10.1731 51.1163 10.357C50.3687 10.6676 49.613 10.9662 48.8734 11.2887C47.482 11.8939 46.4745 11.7267 45.367 10.6477C44.5314 9.82347 43.7277 8.97141 42.8801 8.09944L39.8535 10.9463C40.8851 11.9218 41.7726 12.742 42.6522 13.5861C43.6118 14.5218 43.7597 15.6167 43.248 16.8311C42.9601 17.5119 42.6642 18.1888 42.3924 18.8776C41.8206 20.3349 41.053 20.8684 39.4737 20.8923C38.3062 20.8923 37.1348 20.8923 35.8754 20.8923V24.7744C36.0353 24.8381 36.0953 24.8859 36.1592 24.8859C37.2747 24.8859 38.3902 24.8859 39.5057 24.9058C40.989 24.9058 41.8046 25.499 42.3564 26.8966C42.6163 27.5535 42.8841 28.2105 43.156 28.8555C43.7757 30.265 43.6278 31.2445 42.5403 32.3474C41.7047 33.1756 40.8211 33.9599 39.9815 34.7363L42.8162 37.8101C43.7997 36.7948 44.6113 35.9428 45.4389 35.0987C45.8462 34.6388 46.3974 34.3293 47.0033 34.2202C47.6091 34.1111 48.2342 34.2088 48.7774 34.4974C49.4571 34.7974 50.1421 35.0827 50.8325 35.3535C52.2398 35.9109 52.8076 36.6953 52.8316 38.1804C52.8316 39.355 52.8316 40.5296 52.8316 41.7917H56.8657C56.8657 40.438 56.8657 39.1957 56.8657 37.9495C56.8546 37.4092 57.0148 36.8791 57.3234 36.4345C57.632 35.99 58.0734 35.6535 58.5849 35.4729C59.2966 35.1664 60.0282 34.9075 60.7399 34.597C62.2352 33.94 63.1828 34.0754 64.3382 35.2181C65.1658 36.0463 65.9375 36.9302 66.7611 37.8181C67.8686 36.759 68.7882 35.887 69.8397 34.8876C68.8202 33.9281 67.9206 33.1119 67.041 32.2638C66.5984 31.8625 66.3007 31.3274 66.1938 30.741C66.0868 30.1545 66.1766 29.5494 66.4493 29.0188C66.7531 28.3061 67.057 27.5934 67.3448 26.8767C67.8926 25.507 68.7042 24.9456 70.2155 24.9336C71.359 24.9098 72.5065 24.9177 73.7699 24.9177ZM46.0507 65.9282C44.6847 65.925 43.3315 66.1907 42.0689 66.7098C40.8062 67.2289 39.659 67.9913 38.6931 68.9532C37.7272 69.9152 36.9616 71.0576 36.4403 72.315C35.919 73.5724 35.6523 74.92 35.6555 76.2803C35.6555 79.0259 36.7507 81.659 38.7002 83.6004C40.6496 85.5418 43.2937 86.6325 46.0507 86.6325C48.8044 86.622 51.4423 85.528 53.3895 83.5888C55.3367 81.6497 56.4353 79.0227 56.4459 76.2803C56.4464 74.9205 56.1779 73.574 55.6557 72.3175C55.1336 71.0611 54.3679 69.9194 53.4026 68.9577C52.4373 67.996 51.2911 67.2331 50.0297 66.7126C48.7682 66.1921 47.4161 65.9242 46.0507 65.9242V65.9282Z" fill="#014999"/>
<path d="M23.7612 38.5066H13.7139C12.4025 38.5066 11.7548 37.9889 11.7628 36.9896C11.7708 35.9902 12.4385 35.4766 13.7339 35.4766C20.4667 35.4766 27.197 35.4766 33.9245 35.4766C35.4238 35.4766 36.2595 36.46 35.7597 37.5987C35.4239 38.3672 34.7682 38.5145 34.0045 38.5105C30.5901 38.5026 27.1757 38.5012 23.7612 38.5066Z" fill="#E43B5C"/>
<path d="M23.8807 50.169C27.2311 50.169 30.5789 50.169 33.924 50.169C35.2034 50.169 35.9231 50.7264 35.9231 51.682C35.9231 52.6376 35.1834 53.199 33.924 53.199H13.7333C13.6334 53.199 13.5294 53.199 13.4295 53.199C12.39 53.1353 11.7782 52.5619 11.7822 51.6621C11.7862 50.7622 12.386 50.1809 13.4495 50.1769C16.9159 50.161 20.3983 50.169 23.8807 50.169Z" fill="#E43B5C"/>
<path d="M23.773 60.5574C20.3586 60.5574 16.9441 60.5574 13.5257 60.5574C12.3263 60.5574 11.6506 59.8806 11.7705 58.8613C11.8665 58.0411 12.4822 57.5473 13.5177 57.5354C15.2769 57.5354 17.0321 57.5354 18.7913 57.5354H33.5045C33.8081 57.5194 34.1124 57.5194 34.4161 57.5354C34.8089 57.5552 35.1799 57.7213 35.4554 58.0009C35.7309 58.2804 35.8908 58.6529 35.9034 59.0444C35.9032 59.2492 35.861 59.4517 35.7793 59.6396C35.6976 59.8275 35.5782 59.9967 35.4284 60.137C35.2787 60.2772 35.1016 60.3854 34.9083 60.455C34.7149 60.5245 34.5093 60.554 34.3041 60.5415C33.3605 60.5734 32.413 60.5415 31.4654 60.5415L23.773 60.5574Z" fill="#E43B5C"/>
<path d="M23.8887 42.8548C27.3392 42.8548 30.7896 42.8548 34.236 42.8548C35.2115 42.8548 35.8352 43.4441 35.9032 44.2683C35.9712 45.0925 35.2955 45.7813 34.3039 45.8609C34.0041 45.8888 33.6962 45.8609 33.3924 45.8609H17.7636C16.3442 45.8609 14.9209 45.8609 13.5015 45.8609C12.602 45.8609 11.9023 45.5145 11.7743 44.5151C11.6464 43.5157 12.3141 42.8468 13.5455 42.8389C16.9919 42.8468 20.4423 42.8548 23.8887 42.8548Z" fill="#E43B5C"/>
<path d="M18.052 64.9047C19.5033 64.9047 20.9587 64.9047 22.414 64.9047C23.6134 64.9047 24.1972 65.4223 24.2172 66.362C24.2372 67.3016 23.6174 67.9148 22.494 67.9228C19.482 67.952 16.4714 67.952 13.4621 67.9228C12.3506 67.9228 11.7309 67.2857 11.7629 66.3301C11.7949 65.3746 12.3786 64.9127 13.4821 64.8968C15.0054 64.8888 16.5287 64.9047 18.052 64.9047Z" fill="#E43B5C"/>
<path d="M30.8133 95.3763C30.8133 96.7699 29.7098 97.4547 28.6423 97.0128C28.109 96.7922 27.6256 96.467 27.2211 96.0566C26.8165 95.6462 26.499 95.1589 26.2874 94.6238C26.1156 94.2734 26.0867 93.8705 26.2067 93.4993C26.3267 93.1282 26.5863 92.8178 26.9311 92.633C27.6907 92.2348 28.4544 92.4897 29.0141 93.274C29.294 93.6722 29.7098 93.9708 30.0256 94.3411C30.3415 94.7114 30.6494 95.1613 30.8133 95.3763Z" fill="#014999"/>
<path d="M85.824 25.7258C85.5961 26.9203 85.0484 27.617 84.1408 27.6529C83.2332 27.6887 82.7214 27.0955 82.5415 26.0602C82.4447 25.5758 82.2847 25.106 82.0657 24.6627C81.7019 23.8863 81.8058 23.2214 82.4655 22.6918C82.6153 22.566 82.7901 22.4731 82.9784 22.4192C83.1668 22.3653 83.3644 22.3516 83.5584 22.379C83.7525 22.4064 83.9384 22.4744 84.1042 22.5784C84.2701 22.6824 84.4119 22.8201 84.5206 22.9825C85.015 23.8675 85.4504 24.7839 85.824 25.7258Z" fill="#014999"/>
<path d="M85.6124 32.5027C85.6126 32.9708 85.5886 33.4386 85.5405 33.9042C85.5063 34.2442 85.3443 34.5587 85.087 34.7847C84.8297 35.0106 84.4961 35.1314 84.1531 35.1226C83.4055 35.1585 82.7537 34.8001 82.6698 34.0396C82.5567 32.9808 82.5567 31.9131 82.6698 30.8543C82.7537 30.058 83.4094 29.6837 84.2211 29.7435C84.5644 29.742 84.8952 29.8723 85.1447 30.1074C85.3941 30.3424 85.543 30.6641 85.5604 31.0056C85.5884 31.5083 85.5884 32.0121 85.5604 32.5147L85.6124 32.5027Z" fill="#014999"/>
<path d="M85.5679 39.9639C85.5679 40.3979 85.5998 40.8398 85.5679 41.2698C85.5595 41.6296 85.4093 41.9717 85.1496 42.222C84.89 42.4724 84.5419 42.6109 84.1805 42.6077C83.3809 42.6554 82.7372 42.2613 82.6532 41.449C82.5453 40.4179 82.5453 39.3784 82.6532 38.3473C82.7412 37.551 83.3809 37.1529 84.1925 37.2166C84.5359 37.2087 84.869 37.3338 85.1218 37.5655C85.3745 37.7971 85.5273 38.1174 85.5479 38.4588C85.5779 38.9601 85.5779 39.4626 85.5479 39.9639H85.5679Z" fill="#014999"/>
<path d="M25.9004 87.6991C25.8996 87.1962 25.929 86.6936 25.9884 86.1941C26.0285 85.8535 26.1969 85.5407 26.4596 85.319C26.7223 85.0973 27.0598 84.9832 27.4037 84.9996C28.1674 84.9797 28.7791 85.3659 28.8591 86.1184C28.963 87.1511 28.963 88.1915 28.8591 89.2241C28.844 89.4027 28.7924 89.5764 28.7076 89.7345C28.6228 89.8927 28.5064 90.0319 28.3657 90.1437C28.225 90.2555 28.0628 90.3376 27.8892 90.3848C27.7155 90.4321 27.534 90.4436 27.3557 90.4186C26.9946 90.4262 26.6449 90.2924 26.3817 90.0459C26.1185 89.7995 25.963 89.4601 25.9484 89.1007C25.9224 88.6312 25.9224 88.1606 25.9484 87.6912L25.9004 87.6991Z" fill="#014999"/>
<path d="M35.5556 97.3745C35.0855 97.4004 34.6143 97.4004 34.1442 97.3745C33.8014 97.3604 33.477 97.2166 33.237 96.9724C32.9971 96.7283 32.8596 96.4022 32.8528 96.0606C32.7808 95.2643 33.1367 94.5914 33.9443 94.4998C35.007 94.379 36.0801 94.379 37.1428 94.4998C37.9425 94.5914 38.3103 95.2523 38.2423 96.0566C38.2376 96.3983 38.1022 96.7253 37.8637 96.9709C37.6252 97.2165 37.3016 97.3623 36.9589 97.3785C36.4914 97.4027 36.0229 97.4014 35.5556 97.3745Z" fill="#014999"/>
<path d="M43.0318 97.3706C42.5617 97.3985 42.0904 97.3985 41.6204 97.3706C41.2782 97.3491 40.9574 97.1974 40.7245 96.9469C40.4915 96.6964 40.3642 96.3662 40.369 96.0248C40.317 95.2285 40.6929 94.5755 41.5005 94.4879C42.5356 94.3764 43.5799 94.3764 44.615 94.4879C45.4147 94.5715 45.8145 95.2006 45.7745 96.0049C45.7788 96.183 45.7477 96.3602 45.683 96.5263C45.6183 96.6924 45.5214 96.8442 45.3977 96.973C45.274 97.1017 45.126 97.2048 44.9622 97.2765C44.7984 97.3481 44.622 97.3869 44.4431 97.3905C43.973 97.4144 43.5019 97.4144 43.0318 97.3905V97.3706Z" fill="#014999"/>
<path d="M50.5763 97.3869C50.1365 97.3869 49.6967 97.4147 49.2649 97.3869C49.0774 97.3882 48.8916 97.3514 48.7189 97.2786C48.5462 97.2058 48.3903 97.0986 48.2607 96.9636C48.1312 96.8286 48.0307 96.6687 47.9655 96.4936C47.9003 96.3185 47.8717 96.132 47.8815 95.9455C47.857 95.7687 47.869 95.5888 47.9168 95.4168C47.9646 95.2448 48.0472 95.0844 48.1595 94.9453C48.2719 94.8062 48.4115 94.6915 48.57 94.6081C48.7284 94.5247 48.9023 94.4744 49.081 94.4604C50.0847 94.3609 51.0958 94.3609 52.0996 94.4604C52.8992 94.54 53.319 95.1492 53.299 95.9575C53.3071 96.1351 53.2798 96.3125 53.2188 96.4796C53.1577 96.6467 53.0642 96.8002 52.9434 96.9311C52.8227 97.0621 52.6772 97.168 52.5152 97.2428C52.3532 97.3176 52.178 97.3598 51.9996 97.367C51.5295 97.3928 51.0583 97.3928 50.5883 97.367L50.5763 97.3869Z" fill="#014999"/>
<path d="M58.0648 97.3706C57.5947 97.3985 57.1235 97.3985 56.6534 97.3706C56.3112 97.3502 55.99 97.1995 55.7563 96.9497C55.5226 96.6999 55.3943 96.3702 55.398 96.0288C55.342 95.2325 55.7179 94.5795 56.5255 94.4879C57.5607 94.3764 58.6049 94.3764 59.6401 94.4879C60.4397 94.5675 60.8395 95.1926 60.8035 96.0009C60.8083 96.1787 60.7779 96.3557 60.714 96.5218C60.65 96.6878 60.5539 96.8397 60.431 96.9688C60.3081 97.0978 60.1608 97.2015 59.9977 97.2738C59.8345 97.3462 59.6587 97.3858 59.4801 97.3905C59.0087 97.4144 58.5363 97.4144 58.0648 97.3905V97.3706Z" fill="#014999"/>
<path d="M84.0895 75.2375H94.5367C94.8731 75.2207 95.2103 75.2341 95.5442 75.2773C95.8696 75.3156 96.1701 75.4696 96.3905 75.711C96.6109 75.9525 96.7363 76.265 96.7437 76.5912C96.8015 76.9116 96.74 77.2421 96.5708 77.5206C96.4015 77.7991 96.136 78.0066 95.8241 78.1042C95.4035 78.2253 94.9662 78.2791 94.5287 78.2635C87.5639 78.2635 80.6005 78.2635 73.6383 78.2635C73.4664 78.2635 73.2985 78.2635 73.1306 78.2635C72.0471 78.1998 71.3834 77.5826 71.4194 76.6708C71.4553 75.759 72.0831 75.2414 73.1506 75.2375C76.7889 75.2335 80.4392 75.2414 84.0895 75.2375Z" fill="#E43B5C"/>
<path d="M84.0134 97.4064H73.6702C73.3324 97.4177 72.9942 97.4031 72.6587 97.3626C72.3159 97.3324 71.9973 97.1739 71.7673 96.9189C71.5372 96.664 71.4129 96.3316 71.4193 95.989C71.3756 95.6489 71.462 95.3049 71.6612 95.0254C71.8605 94.7458 72.158 94.5511 72.4948 94.4799C72.8569 94.4005 73.2277 94.3671 73.5983 94.3804C80.595 94.3804 87.5918 94.3804 94.5886 94.3804C94.9264 94.3668 95.2647 94.3935 95.5961 94.46C95.9529 94.5188 96.2721 94.7151 96.4846 95.0064C96.6971 95.2978 96.7858 95.6608 96.7316 96.0168C96.7325 96.3593 96.6031 96.6893 96.3694 96.9405C96.1357 97.1917 95.8151 97.3454 95.4722 97.3706C95.1363 97.4064 94.7982 97.4184 94.4606 97.4064H84.0134Z" fill="#E43B5C"/>
<path d="M84.1416 56.0662C87.7266 56.0662 91.3103 56.0662 94.8926 56.0662C96.0921 56.0662 96.7518 56.6236 96.7478 57.5832C96.7438 58.5428 96.0641 59.0962 94.8686 59.0962H73.2786C72.1791 59.0962 71.5274 58.6144 71.4394 57.7584C71.3771 57.4044 71.4517 57.04 71.6483 56.7386C71.8449 56.4372 72.1488 56.2211 72.499 56.1339C72.8281 56.0611 73.1664 56.0383 73.5025 56.0662C77.0448 56.0609 80.5912 56.0609 84.1416 56.0662Z" fill="#E43B5C"/>
<path d="M54.043 33.6216C50.2488 33.3867 46.8464 31.3521 45.0192 27.1993C43.232 23.1341 43.8198 19.2361 46.7864 15.8955C49.753 12.555 53.6192 11.4839 58.0092 12.7102C59.3566 13.0845 59.8404 13.7773 59.5565 14.7568C59.2726 15.7363 58.461 15.9951 57.1576 15.6049C56.1872 15.3009 55.1659 15.1918 54.1529 15.2837C53.1398 15.3757 52.1552 15.667 51.256 16.1406C50.3568 16.6143 49.5609 17.2609 48.9144 18.0431C48.268 18.8253 47.7839 19.7275 47.4901 20.6973C47.19 21.6583 47.0842 22.6689 47.1786 23.6707C47.2731 24.6726 47.5659 25.646 48.0403 26.5345C48.5147 27.423 49.1611 28.2091 49.9423 28.8474C50.7235 29.4857 51.624 29.9635 52.5917 30.2532C55.5343 31.1291 58.1891 30.4761 60.3321 28.2942C62.4751 26.1123 63.0749 23.4088 62.1433 20.4545C61.6475 18.8618 61.8314 18.1053 62.867 17.7788C63.9025 17.4523 64.5102 17.9938 65.03 19.4909C67.4129 26.4149 62.1593 33.6614 54.043 33.6216Z" fill="#E43B5C"/>
<path d="M59.5444 22.9466C59.5454 23.5614 59.4243 24.1703 59.188 24.7382C58.9516 25.3061 58.6047 25.8219 58.1672 26.2557C57.7298 26.6895 57.2104 27.0327 56.6391 27.2657C56.0678 27.4986 55.4559 27.6167 54.8385 27.613C54.2112 27.6186 53.5892 27.4982 53.0096 27.2589C52.4301 27.0196 51.905 26.6664 51.4657 26.2203C51.0264 25.7743 50.6819 25.2446 50.4529 24.6629C50.2238 24.0813 50.115 23.4596 50.1327 22.8351C50.1379 22.2203 50.2653 21.6126 50.5075 21.047C50.7496 20.4814 51.1018 19.9692 51.5437 19.5398C51.9857 19.1105 52.5086 18.7725 53.0823 18.5453C53.656 18.3182 54.2692 18.2064 54.8865 18.2164C55.5051 18.2195 56.1169 18.3447 56.6866 18.5846C57.2564 18.8245 57.7727 19.1745 58.2058 19.6144C58.6389 20.0542 58.9802 20.5751 59.2099 21.1471C59.4397 21.719 59.5534 22.3306 59.5444 22.9466ZM56.4938 22.8829C56.4929 22.6653 56.448 22.4501 56.3617 22.2501C56.2755 22.0502 56.1497 21.8696 55.9919 21.7191C55.8341 21.5686 55.6474 21.4513 55.4431 21.3742C55.2388 21.2971 55.0209 21.2618 54.8026 21.2703C54.5852 21.2733 54.3707 21.3197 54.1717 21.4068C53.9728 21.4939 53.7934 21.6199 53.6442 21.7774C53.4951 21.9348 53.3792 22.1205 53.3034 22.3234C53.2277 22.5263 53.1937 22.7423 53.2033 22.9585C53.203 23.1756 53.2471 23.3905 53.3332 23.5899C53.4193 23.7894 53.5454 23.9692 53.7037 24.1183C53.8621 24.2675 54.0495 24.3828 54.2542 24.4573C54.459 24.5317 54.6769 24.5636 54.8945 24.5512C55.1111 24.5514 55.3254 24.5078 55.5246 24.4231C55.7238 24.3384 55.9036 24.2143 56.0531 24.0583C56.2026 23.9023 56.3188 23.7177 56.3946 23.5156C56.4703 23.3136 56.5041 23.0983 56.4938 22.8829Z" fill="#014999"/>
<path d="M45.2551 77.5342L49.7011 73.0986C49.9296 72.8511 50.1726 72.6171 50.4287 72.3979C50.7175 72.1314 51.0999 71.9888 51.4933 72.0007C51.8868 72.0126 52.2598 72.1782 52.5318 72.4616C53.1155 73.1026 53.1834 73.8551 52.5877 74.4524C50.5167 76.5759 48.4123 78.6729 46.2746 80.7433C45.6109 81.3804 44.8273 81.2569 44.1836 80.6279C42.6643 79.1427 41.153 77.6416 39.6657 76.1207C39.5131 75.9864 39.3896 75.8225 39.3026 75.6391C39.2157 75.4557 39.1672 75.2566 39.1601 75.054C39.153 74.8513 39.1874 74.6493 39.2613 74.4603C39.3352 74.2713 39.4469 74.0993 39.5897 73.9547C40.2294 73.2977 41.085 73.2937 41.8367 74.0264C42.9682 75.1452 44.0517 76.2999 45.2551 77.5342Z" fill="#E43B5C"/>
</svg>
