<svg width="79" height="59" viewBox="0 0 79 59" fill="none" xmlns="http://www.w3.org/2000/svg">
<path d="M34.0996 0.0311799C37.6039 0.0311799 40.9405 0.0467552 44.2753 0.0136719C44.8532 0.0136719 45.0266 0.346453 45.254 0.7454C48.8873 7.14411 52.5251 13.5402 56.1675 19.9337L71.6256 47.1263L77.8135 58.0049C77.9696 58.2793 78.1198 58.5576 78.351 58.9779H74.2437C72.2864 58.9779 70.3291 58.9448 68.3737 58.9954C67.7284 59.0129 67.422 58.7814 67.1138 58.2365C58.1993 42.5238 49.2732 26.8177 40.3356 11.118C38.3424 7.61505 36.3516 4.10822 34.3635 0.597496C34.2922 0.453486 34.2345 0.313361 34.0996 0.0311799Z" fill="#E43C5C"/>
<path d="M61.5098 58.9624C57.9554 58.9624 54.6188 58.9449 51.284 58.976C50.6772 58.976 50.5481 58.5868 50.3208 58.1976C46.9674 52.3049 43.6141 46.4122 40.2607 40.5194C35.5421 32.2162 30.8202 23.9207 26.0952 15.633C25.7253 14.9888 25.7349 14.5256 26.1106 13.8815C27.7577 11.085 29.3452 8.24954 31.0347 5.28955L61.5098 58.9624Z" fill="#E43C5C"/>
<path d="M0.700195 58.7695C2.88355 54.8917 5.07076 51.0131 7.26182 47.1339C12.227 38.3883 17.1967 29.6458 22.1709 20.9066C22.3096 20.6595 22.4695 20.424 22.6949 20.064C22.8875 20.3831 23.0321 20.6108 23.165 20.8424C24.7293 23.5903 26.2762 26.3518 27.8695 29.0841C28.2027 29.6562 28.2085 30.0727 27.8695 30.6526C24.5597 36.413 21.2693 42.1864 17.9981 47.9727C17.8247 48.2782 17.6552 48.5857 17.451 48.9457C17.8016 49.1403 18.1523 49.0605 18.4778 49.0605C25.0561 49.0605 31.6338 49.0644 38.2108 49.0722C38.548 49.0722 38.9159 48.938 39.228 49.1948C32.2747 49.2026 25.3213 49.2026 18.368 49.1948C17.6316 49.1737 16.9036 49.3582 16.2643 49.7281C13.1973 51.5399 10.1284 53.3517 7.04025 55.1304C4.9346 56.3603 2.89061 57.6953 0.700195 58.7695Z" fill="#E43C5C"/>
<path d="M0.699967 58.7697C2.89038 57.6955 4.93823 56.3605 7.0458 55.1442C10.1282 53.3655 13.2106 51.5537 16.2699 49.7419C16.9092 49.3721 17.6371 49.1876 18.3736 49.2087C25.3282 49.2203 32.2815 49.2203 39.2336 49.2087C40.9539 51.8514 42.366 54.6771 43.9785 57.3822C44.2578 57.8512 44.5083 58.3338 44.7742 58.8145C44.5815 59.1045 44.2944 58.9682 44.071 58.9682C29.8599 58.976 15.6489 58.976 1.43783 58.9682C1.18546 58.9682 0.931125 58.9332 0.678755 58.9118C0.667196 58.9118 0.646023 58.871 0.649876 58.8554C0.663024 58.8249 0.67985 58.7961 0.699967 58.7697Z" fill="#E43C5C"/>
</svg>
