<svg width="69" height="69" viewBox="0 0 69 69" fill="none" xmlns="http://www.w3.org/2000/svg">
<g clip-path="url(#clip0_749_457)">
<path d="M68.9995 31.5362V37.466C68.9151 37.8536 68.7974 38.2371 68.7507 38.6294C66.4261 58.1259 48.2202 71.7668 28.8459 68.5221C12.7969 65.8345 0.629456 52.1727 0.0260386 36.1621C-0.602736 19.481 10.2132 4.98797 26.2765 1.02969C28.0087 0.602564 29.7813 0.339472 31.5353 -0.000488281H37.4649C37.7624 0.0811338 38.0548 0.202378 38.3575 0.237246C52.5277 1.90376 64.0569 11.7697 67.774 25.4886C68.3105 27.4705 68.5973 29.519 68.9995 31.5362ZM41.1167 31.4173C41.6345 31.4438 42.1175 31.4775 42.6009 31.4926C45.0692 31.5718 47.4551 31.2525 49.5511 29.8284C50.7702 28.9995 51.7638 27.9579 51.8142 26.3583C51.8494 25.2362 51.4457 24.1668 50.3316 23.9144C49.6335 23.7559 48.6529 24.0689 48.036 24.5056C47.0851 25.1791 47.1925 26.2002 47.8149 27.1428C48.4884 28.1611 48.074 28.8216 47.0954 29.2761C45.2768 30.1205 43.3826 30.1514 41.3144 29.857C41.6674 28.0014 41.9507 26.2347 42.3505 24.4945C42.732 22.8355 43.131 21.1662 43.7185 19.5734C44.1627 18.3704 44.7182 17.089 45.587 16.1952C46.4702 15.2858 47.7424 14.6622 48.9548 14.2061C49.5285 13.9902 50.3589 14.4569 51.0729 14.6142C50.933 15.1911 50.8748 15.8049 50.637 16.3382C49.8022 18.2159 50.8898 19.9597 52.9449 19.9815C54.1007 19.9942 54.9386 19.4715 55.4367 18.4604C56.0634 17.1881 56.1221 15.7886 55.0856 14.8234C54.1819 13.9779 52.9715 13.2247 51.7829 12.9691C47.7784 12.1089 44.4785 13.7013 41.6797 16.463C38.9784 19.1296 37.2248 22.4064 35.8599 25.9082C35.6863 26.3543 35.5132 26.8009 35.2893 27.3766C34.7255 26.8698 34.283 26.495 33.8658 26.0932C32.0349 24.33 30.0666 22.8046 27.519 22.2019C23.8763 21.3374 19.8837 22.8961 18.129 25.8975C16.4372 28.7935 17.0263 32.1713 19.7415 35.1295C20.5002 35.9568 21.3089 36.7429 22.0129 37.6142C23.2178 39.1052 22.9698 40.9425 21.4729 42.1312C20.0153 43.287 17.415 43.2747 16.1242 41.9537C15.7727 41.5931 15.7208 40.7753 15.7977 40.2032C15.8956 39.4725 16.415 38.7918 16.4835 38.0635C16.6337 36.4703 15.598 35.3296 14.0916 35.2262C12.6213 35.1236 11.6352 36.0341 11.5025 37.6919C11.344 39.6587 12.2053 41.1977 13.7212 42.344C16.1729 44.1983 18.98 44.8425 21.9927 44.35C27.2111 43.4966 31.0824 37.9942 26.5324 32.5354C25.6128 31.4324 24.6279 30.3839 23.7016 29.2864C22.8129 28.2332 22.5771 27.0323 23.1905 25.7766C23.7943 24.5412 24.8628 23.7519 26.2202 23.9584C27.6069 24.1692 29.0729 24.5222 30.2548 25.2314C31.7742 26.1428 33.0698 27.4444 34.3955 28.6501C34.6221 28.8565 34.6269 29.4485 34.5484 29.8233C34.2081 31.4478 33.7786 33.0513 33.4184 34.6707C32.2504 39.923 31.1712 45.1964 29.9065 50.4253C29.3657 52.6608 28.313 54.7672 26.5249 56.2962C25.6414 57.0522 24.4845 57.5328 23.383 57.9643C23.0304 58.1026 22.4599 57.6838 21.9888 57.5197C22.2 57.1203 22.3117 56.5791 22.6413 56.3489C23.4844 55.7589 23.8299 55.0196 23.6596 54.0417C23.4698 52.9382 22.839 52.1628 21.7768 51.778C20.28 51.236 18.4626 51.9789 17.6337 53.4549C16.8017 54.9387 17.1912 56.9155 18.5846 58.0907C19.9424 59.2314 21.5688 59.5064 23.2693 59.3689C27.0847 59.0602 29.9917 57.051 32.4759 54.3123C35.9137 50.5224 37.9039 45.9916 39.0608 41.0752C39.8124 37.8952 40.4269 34.685 41.1167 31.4161V31.4173Z" fill="#E43C5C"/>
</g>
<defs>
<clipPath id="clip0_749_457">
<rect width="69" height="69" fill="white"/>
</clipPath>
</defs>
</svg>
