<svg width="93" height="90" viewBox="0 0 93 90" fill="none" xmlns="http://www.w3.org/2000/svg">
<g clip-path="url(#clip0_735_1269)">
<path d="M0 65.8619V1.33021C0.432668 0.373533 1.16401 -0.00089416 2.23391 1.60305e-06C31.7422 0.0155282 61.2538 0.0203086 90.7688 0.0143369C92.3926 0.0143369 92.9991 0.632408 92.9991 2.25911C92.9991 22.9871 92.9952 43.715 92.9873 64.443C92.9913 65.1905 92.8942 65.9353 92.6986 66.6573C91.778 69.9537 88.9602 71.9056 85.1522 71.911C78.0696 71.9211 70.9867 71.9211 63.9035 71.911H62.7848C62.8943 72.2505 62.9441 72.4189 63.0038 72.5837C64.3483 76.3632 65.6942 80.1418 67.0417 83.9196C67.3269 84.715 67.1893 85.411 66.5638 85.9637C65.9384 86.5164 65.1934 86.5397 64.4503 86.1733C63.7469 85.8257 63.0554 85.4567 62.3584 85.0984C61.2722 84.5403 60.186 83.9841 59.051 83.3964C58.3268 85.145 57.6489 86.7717 56.9926 88.4127C56.6351 89.3085 56.1544 90.017 55.0519 89.9982C54.1468 89.983 53.6372 89.5208 53.2064 88.3169C51.3318 83.074 49.4499 77.8364 47.5943 72.5828C47.3934 72.014 47.1644 71.7641 46.5082 71.8402C45.7557 71.914 44.9977 71.914 44.2452 71.8402C43.7022 71.7954 43.4306 71.9405 43.2568 72.4672C42.7291 74.0572 42.1489 75.6311 41.5858 77.2094C40.248 80.9603 38.909 84.7099 37.5687 88.4584C37.1678 89.5781 36.5622 90.0439 35.6136 89.9911C34.7492 89.9427 34.2559 89.4357 33.949 88.6805C33.2376 86.9401 32.5116 85.205 31.764 83.3955C30.0279 84.2913 28.3651 85.1297 26.7195 86.0004C25.884 86.4429 25.0603 86.6355 24.2755 85.9735C23.4908 85.3116 23.5514 84.4911 23.8773 83.5971C25.1671 80.0526 26.4235 76.4964 27.6916 72.9438C27.8002 72.641 27.9007 72.3347 28.0473 71.9047H8.41982C3.70574 71.9047 1.54056 70.3505 0.066959 65.9129C0.0588126 65.8968 0.0226291 65.8816 0 65.8619ZM3.63241 18.0281V64.0166C3.63241 66.9457 5.00189 68.3163 7.95 68.3163C14.7604 68.3163 21.5709 68.3109 28.3813 68.327C29.015 68.327 29.4105 68.2554 29.6594 67.5468C29.9084 66.8383 29.7192 66.5113 29.1915 66.0598C22.2 60.0717 19.107 52.4926 20.2204 43.4159C22.0307 28.6823 36.8012 18.6372 51.4032 22.3179C61.3808 24.8332 67.8455 31.2559 70.1401 41.1854C72.4075 51.0173 69.3056 59.3694 61.6588 66.0356C61.1066 66.5167 60.9427 66.8741 61.179 67.5987C61.4297 68.3646 61.9149 68.3207 62.4987 68.3154C70.0043 68.3112 77.5105 68.3112 85.0174 68.3154C87.9872 68.3154 89.3712 66.9547 89.3712 64.0497C89.3712 49.0427 89.3712 34.0363 89.3712 19.0305V18.0272L3.63241 18.0281ZM3.66136 14.3188H89.3115V3.6798H3.66136V14.3188ZM45.4509 68.3019C57.5095 68.2545 67.2653 58.5327 67.2056 46.6245C67.1476 34.7413 57.323 25.1145 45.3224 25.1808C33.2837 25.248 23.5831 34.9061 23.6139 46.7974C23.6446 58.6599 33.4838 68.3512 45.4509 68.3037V68.3019ZM35.4869 82.8832L35.6996 82.8921C37.0718 79.0529 38.4432 75.2145 39.7873 71.4523L32.9986 68.8824C31.6182 72.7485 30.1998 76.7212 28.7018 80.9188C29.8441 80.3267 30.7402 79.8438 31.6535 79.396C32.8963 78.7833 33.9055 79.1487 34.4595 80.4073C34.8207 81.2251 35.1465 82.0582 35.4869 82.885V82.8832ZM51.0303 71.4613L55.2158 83.1465L56.2595 80.6662C56.9329 79.0645 57.848 78.7295 59.3985 79.5151C60.2322 79.937 61.0649 80.3598 62.114 80.8901L57.8199 68.8869L51.0303 71.4613Z" fill="white"/>
<path d="M23.5971 7.2214C23.832 7.21485 24.0659 7.25445 24.2853 7.3379C24.5047 7.42135 24.7052 7.547 24.8752 7.70759C25.0453 7.86818 25.1814 8.06053 25.2758 8.27351C25.3703 8.48649 25.4212 8.71588 25.4255 8.94844C25.4313 9.41767 25.2533 9.8709 24.9288 10.2131C24.6042 10.5553 24.1584 10.7598 23.6849 10.7839C23.4425 10.7891 23.2014 10.7468 22.9756 10.6594C22.7498 10.5721 22.5436 10.4414 22.3691 10.2749C22.1945 10.1084 22.0549 9.90932 21.9584 9.6892C21.8619 9.46908 21.8103 9.23225 21.8067 8.99233C21.8058 8.75946 21.8516 8.52873 21.9413 8.31344C22.031 8.09815 22.1628 7.90255 22.3292 7.73793C22.4957 7.57331 22.6934 7.44291 22.911 7.35426C23.1286 7.26561 23.3618 7.22045 23.5971 7.2214Z" fill="white"/>
<path d="M9.05918 10.767C8.5865 10.7546 8.13688 10.5623 7.80389 10.2301C7.47089 9.8979 7.28017 9.45139 7.27148 8.98354C7.27334 8.74419 7.32385 8.50765 7.41999 8.28801C7.51613 8.06837 7.65595 7.87012 7.83111 7.70505C8.00627 7.53999 8.2132 7.41149 8.43958 7.3272C8.66595 7.2429 8.90715 7.20455 9.14881 7.21441C9.62102 7.2319 10.0676 7.43142 10.3931 7.77034C10.7187 8.10927 10.8975 8.56074 10.8912 9.02833C10.8707 9.49579 10.6689 9.93742 10.3276 10.2613C9.98635 10.5851 9.532 10.7663 9.05918 10.767Z" fill="white"/>
<path d="M16.3816 10.7673C15.909 10.7702 15.4534 10.5923 15.1101 10.2709C14.7667 9.94944 14.562 9.50922 14.5387 9.04204C14.5264 8.57457 14.7003 8.12105 15.0229 7.77936C15.3455 7.43766 15.7909 7.23517 16.2631 7.21558C16.5046 7.20515 16.7457 7.24251 16.9724 7.32549C17.1991 7.40847 17.4068 7.53538 17.5834 7.69881C17.7599 7.86224 17.9017 8.05889 18.0004 8.27723C18.0992 8.49557 18.1529 8.73122 18.1585 8.97037C18.1657 9.91361 17.3402 10.7467 16.3816 10.7673Z" fill="white"/>
<path d="M45.4473 64.7088C35.4814 64.7456 27.2779 56.6801 27.2462 46.8133C27.2367 44.4503 27.6983 42.1086 28.6045 39.9224C29.5107 37.7362 30.8437 35.7483 32.5273 34.0726C34.2109 32.397 36.212 31.0664 38.4159 30.1571C40.6199 29.2478 42.9834 28.7776 45.3712 28.7735C55.3769 28.7484 63.5351 36.761 63.5722 46.6485C63.6102 56.5753 55.4855 64.6712 45.4473 64.7088ZM45.3957 61.1132C53.372 61.1267 59.9208 54.6754 59.9398 46.7882C59.9472 44.8969 59.5771 43.0227 58.8508 41.2732C58.1245 39.5237 57.0563 37.9334 55.7075 36.5935C54.3586 35.2535 52.7556 34.1904 50.9906 33.465C49.2255 32.7396 47.3331 32.3663 45.4219 32.3664C37.414 32.3592 30.9022 38.7639 30.8796 46.67C30.8569 54.6207 37.3696 61.1007 45.4002 61.1132H45.3957Z" fill="white"/>
<path d="M50.4198 56.0381C49.3708 55.8061 48.0926 55.5669 46.8399 55.2319C45.8795 54.9766 44.9671 54.9434 44.0031 55.2256C42.9622 55.5311 41.8905 55.7407 40.8242 55.9521C39.2936 56.2549 38.4472 55.6009 38.3124 54.062C38.1947 52.7184 38.0888 51.3747 37.9331 50.0391C37.8773 49.6594 37.7466 49.2941 37.5484 48.9642C36.8732 47.7997 36.1472 46.6567 35.4665 45.4922C34.7134 44.205 35.0212 43.0862 36.4532 42.6168C39.5054 41.6154 41.9511 39.8955 43.852 37.3139C44.7716 36.0599 46.0424 36.0536 46.9549 37.2951C48.8557 39.8785 51.2996 41.5885 54.35 42.5989C55.8218 43.0871 56.2201 44.3009 55.3014 45.537C53.3688 48.1428 52.4727 51.0146 52.48 54.2259C52.4827 55.3591 51.6943 56.0381 50.4198 56.0381ZM41.6995 52.0331C43.0844 51.7644 44.2665 51.3478 45.4496 51.347C46.6326 51.3461 47.7967 51.7626 49.1272 52.0268C48.9462 49.4587 49.7147 47.2202 51.4327 45.1411C48.7733 44.4809 46.8761 43.0809 45.4088 40.8173C43.956 43.1221 42.0063 44.4899 39.3705 45.1707C41.141 47.2381 41.8506 49.4721 41.6995 52.0331Z" fill="white"/>
</g>
<defs>
<clipPath id="clip0_735_1269">
<rect width="93" height="90" fill="white"/>
</clipPath>
</defs>
</svg>
