<svg width="96" height="95" viewBox="0 0 96 95" fill="none" xmlns="http://www.w3.org/2000/svg">
<path d="M77.5135 60.1445H91.8431V59.0664C91.8431 44.3625 91.8431 29.6534 91.8431 14.9389C91.8431 13.1183 91.4044 12.6876 89.5574 12.6876H62.6528C62.3225 12.6876 61.9922 12.7061 61.6646 12.6744C61.4576 12.6704 61.2536 12.624 61.0651 12.5383C60.8766 12.4525 60.7076 12.3292 60.5685 12.1757C60.4295 12.0223 60.3233 11.8421 60.2564 11.6461C60.1895 11.4502 60.1634 11.2426 60.1796 11.0361C60.1709 10.8365 60.2039 10.6373 60.2767 10.4512C60.3494 10.2651 60.4602 10.0962 60.602 9.9554C60.7438 9.81461 60.9135 9.70498 61.1001 9.63354C61.2867 9.5621 61.4862 9.53044 61.6857 9.54056C71.3436 9.52471 81.0041 9.49828 90.6645 9.56434C92.966 9.5802 94.8395 11.6439 94.9928 13.9507C95.0166 14.2783 94.9928 14.6086 94.9928 14.9389C94.9928 33.4707 94.9928 52.0007 94.9928 70.529C94.9928 74.149 93.1431 75.9961 89.5072 75.9961C61.5193 75.9961 33.5296 75.9961 5.53813 75.9961C1.90487 75.9961 0.0419922 74.1464 0.0419922 70.5396V14.9627C0.0419922 11.4008 1.90487 9.53792 5.46678 9.53528H32.5669C32.8957 9.51534 33.2256 9.52595 33.5525 9.56699C34.4139 9.73346 34.8737 10.2778 34.8737 11.1524C34.8895 11.5365 34.7534 11.9114 34.4947 12.1958C34.236 12.4802 33.8756 12.6512 33.4917 12.6718C33.1629 12.6964 32.833 12.7026 32.5035 12.6903H5.50645C3.65679 12.6903 3.22077 13.1236 3.22077 14.9416V60.1049H17.5635C18.8239 54.2917 24.6292 50.5791 30.7754 52.9705C31.7187 51.8713 32.5299 50.6954 33.5736 49.7785C34.4166 49.0386 35.5052 48.5472 36.541 48.0715C36.7254 47.976 36.9276 47.9198 37.1348 47.9065C37.3421 47.8933 37.5499 47.9233 37.7449 47.9946C37.94 48.0659 38.118 48.177 38.2678 48.3208C38.4177 48.4646 38.536 48.6379 38.6152 48.8299C38.7082 49.025 38.7591 49.2376 38.7644 49.4536C38.7697 49.6697 38.7294 49.8845 38.6461 50.084C38.5629 50.2834 38.4385 50.4631 38.2811 50.6112C38.1237 50.7594 37.9369 50.8727 37.7327 50.9438C35.3916 51.8396 33.9832 53.4831 33.3675 55.9114C33.0452 57.1798 31.8878 57.4651 30.7014 56.6513C29.0578 55.5257 27.2848 55.1504 25.3479 55.6393C23.1363 56.1968 21.2628 58.1363 20.996 60.1471H74.1075C73.7085 57.2009 70.2365 54.8756 67.1132 55.5415C66.159 55.7765 65.2478 56.1599 64.4127 56.6777C63.0572 57.4704 62.0213 57.1401 61.6329 55.6208C61.3953 54.5868 60.9028 53.6286 60.2004 52.8334C59.4981 52.0383 58.608 51.4314 57.6112 51.068C56.4856 50.6161 56.0628 49.7468 56.4618 48.8325C56.8317 47.9817 57.7248 47.7148 58.8267 48.1482C60.8759 48.9364 62.593 50.4035 63.6913 52.3046L64.093 52.9784C64.093 53.0022 64.1484 53.0075 64.1775 53.0233C70.4505 50.5924 76.2478 54.2996 77.5135 60.1445ZM91.8352 63.4184H3.22077V70.3995C3.22077 72.4526 3.59864 72.8384 5.61741 72.8384H89.4623C89.7266 72.8384 89.9908 72.8516 90.255 72.8384C91.2169 72.7697 91.814 72.2333 91.8246 71.2768C91.8589 68.6741 91.8352 66.074 91.8352 63.4184Z" fill="#004999"/>
<path d="M55.587 36.9208C54.9766 38.0253 54.4164 39.0347 53.8695 40.0362C53.692 40.4097 53.4059 40.7209 53.0484 40.9288C52.691 41.1368 52.279 41.2318 51.8666 41.2014C48.967 41.1715 46.0674 41.1715 43.1679 41.2014C42.7724 41.2333 42.3764 41.1461 42.0308 40.9512C41.6852 40.7563 41.4058 40.4624 41.2284 40.1075C40.6603 39.0717 40.0842 38.0412 39.4739 36.9367C36.8473 37.6792 34.8603 39.2434 33.3647 41.4815C33.1824 41.7458 33.0608 42.1685 32.8098 42.2742C32.3051 42.4936 31.6499 42.7631 31.2033 42.6045C30.7567 42.446 30.178 41.788 30.1807 41.3494C30.2097 35.1795 31.1583 29.3161 36.0361 24.8478C36.3115 24.5518 36.462 24.1608 36.4563 23.7565C36.1418 14.8121 39.5532 7.40029 45.7363 1.1326C47.2292 -0.384116 47.8502 -0.37619 49.3431 1.14846C55.521 7.42407 58.9164 14.8412 58.5914 23.783C58.58 24.1576 58.7156 24.5217 58.9692 24.7976C62.3541 27.7254 63.81 31.6176 64.5182 35.8665C64.7824 37.4519 64.8089 39.077 64.9384 40.6862C65.0176 41.6295 64.7693 42.4222 63.7625 42.7023C62.7981 42.9665 62.2537 42.4011 61.7781 41.6454C60.3922 39.3388 58.1775 37.6488 55.587 36.9208ZM47.512 11.1181C46.0957 11.1181 44.6793 11.1604 43.2657 11.1023C42.5628 11.0732 42.2378 11.3216 41.9445 11.9504C39.7064 16.7278 39.2202 21.7272 39.9099 26.901C40.3908 30.5184 41.3288 33.9878 43.1679 37.1798C43.5167 37.7875 43.8945 38.0649 44.6291 38.0438C46.5668 37.9892 48.5099 37.9892 50.4582 38.0438C51.1558 38.0649 51.5151 37.8086 51.856 37.2511C53.7427 34.0063 54.686 30.4681 55.1669 26.7847C55.8381 21.6479 55.3281 16.6776 53.1058 11.9346C52.8416 11.348 52.5404 11.0864 51.8613 11.1155C50.4133 11.1683 48.9626 11.1181 47.512 11.1181ZM36.8975 28.4837C34.9818 30.8619 34.1892 33.4857 33.695 36.2364L38.2531 33.8187L36.8975 28.4837ZM58.1528 28.4837C57.6692 30.4179 57.2279 32.183 56.8157 33.8292L61.3791 36.2496C60.8427 33.4487 60.0711 30.809 58.1528 28.4732V28.4837ZM50.9946 7.93669L47.5199 3.68513L44.0848 7.93669H50.9946Z" fill="#E33C5C"/>
<path d="M37.4315 85.4768H57.7408C57.5215 85.1677 57.3497 84.9484 57.1991 84.7185C56.4988 83.6457 55.7537 82.6046 55.1221 81.4842C54.6227 80.6017 54.9081 79.6848 55.6771 79.2593C56.4909 78.8075 57.3206 79.1616 57.9257 80.0309C58.9827 81.5371 60.1004 82.9904 61.2155 84.4463C61.8575 85.2892 62.7005 85.6248 63.7944 85.5323C64.6139 85.4609 65.4396 85.5242 66.2386 85.7199C67.1856 85.9745 68.0279 86.522 68.6449 87.2842C69.2619 88.0465 69.622 88.9843 69.6737 89.9636C69.7239 91.0813 69.7107 92.2069 69.6737 93.3247C69.6472 94.3816 69.0475 94.9418 67.9932 94.9999C67.7633 94.9999 67.5334 94.9999 67.3008 94.9999H27.7526C25.8078 94.9999 25.3744 94.5692 25.3744 92.6218C25.3744 91.7974 25.3559 90.973 25.3744 90.1485C25.4563 87.5643 27.5227 85.3262 30.0779 85.572C32.456 85.7992 33.8749 84.7343 35.1221 83.0644C35.8276 82.1184 36.4671 81.1196 37.0801 80.1102C37.6509 79.1722 38.4568 78.8101 39.2918 79.2144C40.1267 79.6187 40.4412 80.5937 39.8783 81.5741C39.1411 82.882 38.2903 84.1266 37.4315 85.4768ZM66.4606 91.8027C66.6878 89.0599 66.339 88.6715 63.7442 88.6715H30.9287C30.6327 88.6715 30.3341 88.6556 30.0408 88.6715C29.1636 88.7534 28.6509 89.2528 28.5664 90.1195C28.5385 90.6758 28.5385 91.2331 28.5664 91.7894L66.4606 91.8027Z" fill="#004999"/>
<path d="M47.5546 53.314C49.483 51.4491 50.6186 48.9129 50.7255 46.2325C50.7572 45.704 50.9897 44.9905 51.3728 44.7052C51.6134 44.5603 51.8849 44.4745 52.1651 44.4547C52.4453 44.435 52.7261 44.4819 52.9847 44.5915C53.225 44.7626 53.425 44.9841 53.5707 45.2407C53.7163 45.4972 53.804 45.7825 53.8276 46.0766C53.8679 49.069 52.8423 51.9782 50.9342 54.2837C50.2525 55.0853 49.5104 55.8335 48.7146 56.5218C47.98 57.193 47.1689 57.1903 46.392 56.5535C43.1234 53.8821 41.3715 50.447 41.2235 46.2166C41.1839 45.0328 41.7837 44.3669 42.7851 44.3669C43.7866 44.3669 44.3336 44.9879 44.3838 46.2007C44.4895 49.0281 45.5517 51.4485 47.5546 53.314Z" fill="#E33C5C"/>
<path d="M47.6024 69.6729C46.5851 69.6729 45.5678 69.6888 44.5504 69.6729C43.5331 69.6571 42.8647 69.0652 42.8303 68.1615C42.796 67.2578 43.4883 66.5391 44.5399 66.5285C46.5745 66.5056 48.61 66.5056 50.6464 66.5285C51.7298 66.5285 52.401 67.1759 52.401 68.1139C52.401 69.052 51.7562 69.665 50.657 69.6809C49.6397 69.6835 48.6223 69.6729 47.6024 69.6729Z" fill="#E33C5C"/>
<path d="M52.2785 22.1923C52.2673 23.4571 51.7572 24.6664 50.8591 25.5571C49.961 26.4478 48.7475 26.9479 47.4826 26.9486C46.2339 26.9258 45.0436 26.4155 44.1662 25.5267C43.2888 24.6379 42.7938 23.4412 42.7871 22.1923C42.7871 21.5648 42.9113 20.9435 43.1524 20.3642C43.3936 19.7849 43.747 19.259 44.1923 18.8169C44.6377 18.3748 45.166 18.0252 45.7471 17.7882C46.3281 17.5512 46.9503 17.4315 47.5778 17.436C48.827 17.4588 50.0178 17.9689 50.8961 18.8575C51.7743 19.7462 52.2704 20.9429 52.2785 22.1923ZM47.5222 23.7777C47.9359 23.7778 48.3333 23.6163 48.6295 23.3275C48.9257 23.0386 49.0973 22.6455 49.1076 22.2319C49.1128 22.0185 49.0743 21.8064 48.9945 21.6084C48.9148 21.4104 48.7954 21.2308 48.6437 21.0806C48.4921 20.9304 48.3113 20.8128 48.1125 20.735C47.9138 20.6572 47.7012 20.6207 47.4879 20.628C47.2832 20.6311 47.0811 20.6746 46.8932 20.7561C46.7054 20.8375 46.5355 20.9553 46.3933 21.1027C46.2512 21.25 46.1395 21.424 46.0648 21.6146C45.9901 21.8052 45.9537 22.0087 45.9579 22.2134C45.9583 22.4185 45.9991 22.6215 46.0779 22.8108C46.1567 23.0002 46.2719 23.1721 46.4172 23.3169C46.5625 23.4617 46.7349 23.5764 46.9245 23.6546C47.114 23.7327 47.3171 23.7728 47.5222 23.7724V23.7777Z" fill="#004999"/>
</svg>
