<svg width="63" height="57" viewBox="0 0 63 57" fill="none" xmlns="http://www.w3.org/2000/svg">
<g clip-path="url(#clip0_775_436)">
<path d="M31.4707 57H3.2644C0.954678 57 0 56.053 0 53.7744C0 37.7187 0 21.6626 0 5.60586C0 2.89258 1.42741 0.875488 3.84954 0.224911C4.41861 0.0785926 5.00455 0.00603448 5.5926 0.00906505C22.8601 -0.00106856 40.1281 -0.00106856 57.3966 0.00906505C60.7673 0.00906505 63.0015 2.20248 63.0031 5.51465C63.0031 21.697 63.0031 37.8794 63.0031 54.0617C63.0031 55.9618 61.9375 57.003 59.9927 57.0045C50.4839 57.0035 40.9765 57.002 31.4707 57ZM57.7092 25.9151H56.8453C52.0719 25.9151 47.3139 25.9242 42.5482 25.9045C42.2982 25.8908 42.0483 25.9319 41.8164 26.0249C41.5845 26.118 41.3764 26.2606 41.207 26.4426C35.6637 31.9451 30.0834 37.4218 24.54 42.9305C24.1909 43.298 23.7661 43.5874 23.294 43.7791C22.822 43.9708 22.3138 44.0603 21.8038 44.0416C16.6023 44.0127 11.4008 44.0279 6.20083 44.0279H5.30928V51.7573H57.6984V36.2529C55.632 36.2529 53.6133 36.2286 51.5977 36.2757C51.1838 36.3074 50.7923 36.4737 50.4844 36.7484C49.6483 37.4917 48.9138 38.349 48.0669 39.0802C47.3616 39.6882 47.1137 40.3069 47.1707 41.2782C47.3509 44.3183 44.8363 46.7199 41.7813 46.5983C38.8003 46.4828 36.4767 43.9094 36.7523 41.0258C36.8128 40.3181 37.0194 39.63 37.3594 39.004C37.6995 38.378 38.1657 37.8273 38.7294 37.3859C39.2931 36.9445 39.9424 36.6216 40.6373 36.4372C41.3322 36.2528 42.058 36.2108 42.7699 36.3137C43.1289 36.3429 43.485 36.2303 43.76 36.0006C45.1458 34.6903 46.4993 33.3405 47.8467 31.9877C48.1383 31.6861 48.4914 31.4489 48.8826 31.2918C49.2738 31.1346 49.6943 31.0609 50.1164 31.0757C52.3707 31.0909 54.625 31.0757 56.8808 31.0757H57.703L57.7092 25.9151ZM5.27387 38.8461H6.17157C10.9358 38.8461 15.7015 38.837 20.4657 38.8583C20.7159 38.8693 20.9654 38.8259 21.1967 38.7311C21.4279 38.6363 21.6352 38.4923 21.8038 38.3095C27.3533 32.81 32.9094 27.3161 38.4723 21.8277C38.81 21.4682 39.2218 21.1841 39.6799 20.9945C40.138 20.805 40.6319 20.7144 41.1285 20.7287C46.3546 20.7591 51.5807 20.7424 56.8069 20.7424H57.7092V13.0343H5.30158V28.5007C6.40409 28.5007 7.45732 28.5007 8.49977 28.5007C9.67773 28.5007 10.9866 28.8047 11.9952 28.3852C13.0037 27.9657 13.6797 26.8104 14.5589 26.0398C15.4382 25.2691 16.1865 24.462 15.7908 23.1654C15.787 23.1402 15.787 23.1146 15.7908 23.0894C15.8924 20.1374 18.4531 17.9501 21.5405 18.1781C24.3291 18.3833 26.5741 21.086 26.2338 23.8296C25.8612 26.8393 23.1419 28.9035 20.207 28.4505C20.0309 28.4358 19.8535 28.4559 19.6854 28.5097C19.5172 28.5635 19.3616 28.6498 19.2277 28.7637C17.8572 30.0557 16.5222 31.3842 15.1964 32.7158C14.9017 33.0314 14.5417 33.2809 14.1408 33.4471C13.7399 33.6134 13.3075 33.6926 12.8729 33.6795C10.6201 33.6536 8.36427 33.6704 6.10999 33.6795C5.84206 33.6795 5.57259 33.7023 5.28156 33.716L5.27387 38.8461Z" fill="#E33B5C"/>
</g>
<defs>
<clipPath id="clip0_775_436">
<rect width="63" height="57" fill="white"/>
</clipPath>
</defs>
</svg>
