<svg width="81" height="83" viewBox="0 0 81 83" fill="none" xmlns="http://www.w3.org/2000/svg">
<path d="M52.7626 68.4484C57.7123 65.9881 62.5649 63.5697 67.4167 61.1527C68.9734 60.377 70.5213 59.5825 72.0845 58.8212C75.1474 57.3305 78.249 58.3508 79.8539 61.338C80.6158 62.757 81.2418 64.1884 80.9043 65.86C80.5391 67.6756 79.5412 69.0186 77.886 69.861C71.4534 73.1356 65.0178 76.4038 58.5794 79.6655C57.0023 80.4665 55.4215 81.2574 53.8488 82.0665C52.6327 82.692 51.2803 83.0126 49.91 82.9999C33.9125 82.9889 17.915 82.9862 1.91751 82.992C0.434636 82.992 0 82.5578 0 81.0888C0 74.0595 0 67.0301 0 60.0007C0 58.5252 0.431728 58.0954 1.91387 58.0954C11.396 58.0954 20.8783 58.0935 30.3609 58.0896C32.6101 58.0896 34.4925 58.8429 36.0273 60.4906C36.2399 60.7186 36.6745 60.843 37.0076 60.8459C40.3525 60.8713 43.698 60.8597 47.0429 60.8618C51.3301 60.8618 53.7984 63.9735 52.7874 68.0982C52.771 68.2142 52.7627 68.3312 52.7626 68.4484ZM18.1714 80.2263H18.8406C29.2864 80.2263 39.7323 80.24 50.1781 80.1988C50.9817 80.1951 51.8458 79.9209 52.5821 79.5685C55.0417 78.394 57.4566 77.1284 59.8869 75.8953C65.3948 73.1007 70.9031 70.3072 76.4119 67.5149C77.425 67.0033 78.1504 66.2573 78.1709 65.132C78.1986 63.616 77.509 62.3185 76.3198 61.3973C75.2482 60.5673 74.1035 60.8987 72.964 61.4697C66.2786 64.8269 59.5826 68.1607 52.8758 71.471C52.3086 71.7473 51.6867 71.8956 51.0547 71.9052C44.945 71.9363 38.8352 71.924 32.7255 71.9233C32.4633 71.9233 32.1944 71.9486 31.9417 71.9001C31.1922 71.7554 30.7401 71.2952 30.7466 70.5252C30.7532 69.7553 31.2105 69.3067 31.9636 69.1742C32.2178 69.1294 32.4859 69.1547 32.7474 69.1547C37.5774 69.1547 42.4071 69.1559 47.2365 69.1583C48.4878 69.1583 49.4469 68.6923 49.9977 67.5583C50.9035 65.6943 49.585 63.6457 47.441 63.6305C43.6294 63.603 39.8177 63.6131 36.0061 63.6305C35.2851 63.6305 34.7044 63.4698 34.2902 62.8345C33.3727 61.4321 32.0418 60.838 30.369 60.8474C26.5873 60.8684 22.8049 60.8539 19.0224 60.8539H18.1787L18.1714 80.2263ZM15.3225 60.9226H2.86057V80.18H15.3225V60.9226Z" fill="#004999"/>
<path d="M12.5684 27.6233C12.5925 12.3864 25.1327 -0.0108474 40.5158 7.12235e-06C55.9341 0.010138 68.4844 12.4841 68.4297 27.7434C68.3756 42.986 55.8114 55.3666 40.4377 55.3276C25.053 55.2878 12.5436 42.8528 12.5684 27.6233ZM40.4377 52.5611C54.2941 52.5966 65.6137 41.4287 65.6392 27.7007C65.6619 14.0074 54.4344 2.82435 40.6057 2.76646C26.7477 2.70856 15.4107 13.854 15.3639 27.5813C15.3172 41.3086 26.5768 52.5257 40.4377 52.5611Z" fill="#004999"/>
<path d="M40.4822 5.53227C43.4267 5.53416 46.3418 6.11174 49.0605 7.23189C51.7792 8.35205 54.248 9.99277 56.3253 12.06C58.4027 14.1272 60.0477 16.5802 61.1661 19.2785C62.2846 21.9768 62.8544 24.8671 62.8429 27.784C62.8145 39.9367 52.7265 49.8396 40.4216 49.7955C28.0728 49.7506 18.123 39.8093 18.1544 27.5459C18.1843 15.4244 28.2438 5.50695 40.4822 5.53227ZM21.0025 26.2405C22.1464 26.3577 23.6578 25.9597 23.6892 27.6197C23.7228 29.3898 22.1077 28.949 21.0317 29.0873C21.2845 33.212 23.3021 37.9626 25.7382 40.2507C27.3555 38.9128 27.9961 38.7347 28.6667 39.4381C29.3117 40.1147 29.1218 40.7284 27.7478 42.3225C31.0064 45.0723 34.748 46.6252 39.0848 46.9653C39.1622 45.8292 38.7875 44.3451 40.4552 44.3125C42.2412 44.2785 41.7985 45.877 41.9337 46.9436C46.1076 46.6882 50.8916 44.696 53.2079 42.282C51.8595 40.6813 51.679 40.0438 52.3876 39.3824C53.0706 38.7441 53.6842 38.9308 55.2993 40.2927C58.0751 37.0653 59.6413 33.3596 59.9846 29.0858C58.8472 28.97 57.3388 29.3651 57.3081 27.7044C57.2745 25.9279 58.8947 26.3852 59.9649 26.2369C59.7063 22.1049 57.6901 17.3572 55.2576 15.0756C53.6725 16.3984 53.0728 16.5807 52.3912 15.9439C51.6754 15.2775 51.8565 14.6363 53.2094 13.045C50.8718 10.5919 45.2311 8.28137 41.9264 8.44202C41.8205 9.48622 42.2135 10.9805 40.5385 11.0109C38.7546 11.0442 39.1929 9.44714 39.0629 8.34939C34.7217 8.71844 30.986 10.2497 27.7478 12.998C29.1203 14.6052 29.3074 15.2073 28.6675 15.8831C27.9976 16.5901 27.3431 16.4085 25.6944 15.0336C22.9193 18.2429 21.3751 21.9443 21.0025 26.2405Z" fill="#E43C5C"/>
<path d="M48.9176 29.0466C47.6386 29.0466 46.361 29.0162 45.0812 29.0697C44.789 29.082 44.3887 29.3114 44.2382 29.5596C43.2564 31.1842 41.58 32.0584 39.8619 31.7682C38.9801 31.6254 38.1661 31.211 37.5356 30.5838C36.9052 29.9566 36.4902 29.1486 36.3497 28.2745C36.0678 26.5689 36.9517 24.9248 38.5996 23.9479C38.8472 23.8032 39.0715 23.3972 39.0803 23.1063C39.1263 21.4948 39.0956 19.8818 39.1044 18.2688C39.1102 17.2405 39.6267 16.6233 40.4674 16.6044C41.3389 16.5849 41.8875 17.2239 41.8933 18.2956C41.9014 19.9078 41.8707 21.5215 41.9189 23.1331C41.9269 23.4225 42.1972 23.7366 42.4186 23.9739C43.0029 24.5977 43.6041 25.2041 44.2338 25.7787C44.4719 25.9958 44.8014 26.2541 45.0928 26.2584C47.6218 26.2961 50.1514 26.2773 52.6811 26.2816C53.7987 26.2816 54.4342 26.7708 54.4569 27.6254C54.4824 28.5097 53.8192 29.0408 52.6686 29.0459C51.4188 29.0502 50.1711 29.0466 48.9176 29.0466ZM40.4302 29.0401C40.7942 29.0522 41.1489 28.9246 41.4202 28.6839C41.6916 28.4433 41.8587 28.1081 41.8868 27.7484C41.8966 27.5628 41.8688 27.3772 41.805 27.2024C41.7413 27.0276 41.6428 26.8672 41.5155 26.7307C41.3882 26.5942 41.2346 26.4844 41.0638 26.4076C40.8929 26.3308 40.7083 26.2887 40.5208 26.2838C40.1567 26.2819 39.8061 26.4199 39.5425 26.6687C39.279 26.9175 39.123 27.2578 39.1073 27.6181C39.0993 27.9787 39.2326 28.3282 39.4793 28.5934C39.726 28.8585 40.0668 29.0186 40.4302 29.0401Z" fill="#004999"/>
</svg>
