<svg width="498" height="488" viewBox="0 0 498 488" fill="none" xmlns="http://www.w3.org/2000/svg">
<path d="M37.2367 257.503C37.2367 257.503 52.0324 337.237 127.076 380.483C202.119 423.728 295.381 413.446 371.185 407.018C446.989 400.59 498.158 349.37 497.068 283.823C495.978 218.276 435.756 208.171 393.499 139.822C351.242 71.473 350.341 47.0291 277.732 12.1256C205.124 -22.7779 106.22 20.4933 63.9754 105.73C21.7311 190.966 37.2367 257.503 37.2367 257.503Z" fill="#F7F7F7"/>
<path d="M216.242 487.564C324.9 487.564 412.985 481.195 412.985 473.339C412.985 465.483 324.9 459.114 216.242 459.114C107.584 459.114 19.4995 465.483 19.4995 473.339C19.4995 481.195 107.584 487.564 216.242 487.564Z" fill="#C6FF00"/>
<path d="M216.242 487.564C324.9 487.564 412.985 481.195 412.985 473.339C412.985 465.483 324.9 459.114 216.242 459.114C107.584 459.114 19.4995 465.483 19.4995 473.339C19.4995 481.195 107.584 487.564 216.242 487.564Z" fill="#F4F4F4"/>
<path d="M465.372 17.8311H169.104C162.102 17.8311 156.426 23.5073 156.426 30.5094V421.447C156.426 428.449 162.102 434.125 169.104 434.125H465.372C472.374 434.125 478.05 428.449 478.05 421.447V30.5094C478.05 23.5073 472.374 17.8311 465.372 17.8311Z" stroke="#263238" stroke-width="1.02" stroke-linecap="round" stroke-linejoin="round"/>
<path d="M291.463 132.228V133.533H290.17" stroke="#263238" stroke-width="1.02" stroke-linecap="round" stroke-linejoin="round"/>
<path d="M287.609 133.533H212.186" stroke="#263238" stroke-width="1.02" stroke-linecap="round" stroke-linejoin="round" stroke-dasharray="2.02 2.02"/>
<path d="M210.905 133.533H209.612V132.228" stroke="#263238" stroke-width="1.02" stroke-linecap="round" stroke-linejoin="round"/>
<path d="M209.612 129.73V71.0674" stroke="#263238" stroke-width="1.02" stroke-linecap="round" stroke-linejoin="round" stroke-dasharray="1.97 1.97"/>
<path d="M209.612 69.8244V68.5186H210.905" stroke="#263238" stroke-width="1.02" stroke-linecap="round" stroke-linejoin="round"/>
<path d="M213.466 68.5186H288.889" stroke="#263238" stroke-width="1.02" stroke-linecap="round" stroke-linejoin="round" stroke-dasharray="2.02 2.02"/>
<path d="M290.17 68.5186H291.463V69.8244" stroke="#263238" stroke-width="1.02" stroke-linecap="round" stroke-linejoin="round"/>
<path d="M291.463 72.3223V130.985" stroke="#263238" stroke-width="1.02" stroke-linecap="round" stroke-linejoin="round" stroke-dasharray="1.97 1.97"/>
<path d="M278.404 78.9023H222.683V123.15H278.404V78.9023Z" fill="white" stroke="#263238" stroke-width="1.02" stroke-linecap="round" stroke-linejoin="round"/>
<path d="M219.399 75.619L200.28 60.874" stroke="#263238" stroke-width="1.02" stroke-linecap="round" stroke-linejoin="round"/>
<path d="M282.221 125.331L298.614 139.543" stroke="#263238" stroke-width="1.02" stroke-linecap="round" stroke-linejoin="round"/>
<path d="M199.532 65.7426L198.962 59.4668H205.517" stroke="#263238" stroke-width="1.02" stroke-linecap="round" stroke-linejoin="round"/>
<path d="M299.057 133.609L300.198 140.456L292.211 140.735" stroke="#263238" stroke-width="1.02" stroke-linecap="round" stroke-linejoin="round"/>
<path d="M347.4 300.38H320.344V310.143H347.4V300.38Z" fill="#E43B5C"/>
<path d="M358.392 305.262L341.048 295.246V315.277L358.392 305.262Z" fill="#E43B5C"/>
<path d="M300.832 233.046H238.607C233.754 233.046 229.821 236.98 229.821 241.832V380.001C229.821 384.853 233.754 388.787 238.607 388.787H300.832C305.685 388.787 309.618 384.853 309.618 380.001V241.832C309.618 236.98 305.685 233.046 300.832 233.046Z" fill="#014999"/>
<path d="M306.081 243.62H233.371V379.532H306.081V243.62Z" fill="white" stroke="#263238" stroke-width="0.83" stroke-linecap="round" stroke-linejoin="round"/>
<path d="M292.604 410.226L298.157 388.673C298.764 386.351 299.071 383.96 299.07 381.56V355.709C299.17 355.375 299.225 355.03 299.235 354.682C299.16 353.53 298.633 352.455 297.768 351.69C296.904 350.926 295.772 350.534 294.62 350.6C293.375 350.575 292.168 351.029 291.247 351.867C291.08 350.789 290.52 349.811 289.675 349.121C288.83 348.431 287.76 348.077 286.67 348.127C285.917 348.112 285.171 348.277 284.494 348.608C283.818 348.938 283.229 349.426 282.778 350.029C282.594 348.966 282.03 348.007 281.19 347.33C280.349 346.653 279.292 346.306 278.214 346.352C277.458 346.341 276.711 346.508 276.032 346.841C275.353 347.174 274.763 347.662 274.309 348.267C274.309 344.844 274.309 328.425 273.739 327.081C272.065 322.758 263.596 324.736 265.105 329.325V367.297C265.105 364.635 263.127 361.123 262.303 358.536C261.479 355.95 261.035 353.465 259.463 351.31C256.851 347.582 252.249 349.636 252.515 353.516C252.731 356.926 255.203 359.614 256.534 362.707C258.994 368.413 257.523 374.384 259.843 380.115C261.77 383.747 263.912 387.261 266.258 390.638C267.523 392.854 268.523 395.212 269.238 397.662L267.082 410.226" fill="white"/>
<path d="M292.604 410.226L298.157 388.673C298.764 386.351 299.071 383.96 299.07 381.56V355.709C299.17 355.375 299.225 355.03 299.235 354.682C299.16 353.53 298.633 352.455 297.768 351.69C296.904 350.926 295.772 350.534 294.62 350.6C293.375 350.575 292.168 351.029 291.247 351.867C291.08 350.789 290.52 349.811 289.675 349.121C288.83 348.431 287.76 348.077 286.67 348.127C285.917 348.112 285.171 348.277 284.494 348.608C283.818 348.938 283.229 349.426 282.778 350.029C282.594 348.966 282.03 348.007 281.19 347.33C280.349 346.653 279.292 346.306 278.214 346.352C277.458 346.341 276.711 346.508 276.032 346.841C275.353 347.174 274.763 347.662 274.309 348.267C274.309 344.844 274.309 328.425 273.739 327.081C272.065 322.758 263.596 324.736 265.105 329.325V367.297C265.105 364.635 263.127 361.123 262.303 358.536C261.479 355.95 261.035 353.465 259.463 351.31C256.851 347.582 252.249 349.636 252.515 353.516C252.731 356.926 255.203 359.614 256.534 362.707C258.994 368.413 257.523 374.384 259.843 380.115C261.77 383.747 263.912 387.261 266.258 390.638C267.523 392.854 268.523 395.212 269.238 397.662L267.082 410.226" stroke="#263238" stroke-width="1.02" stroke-linecap="round" stroke-linejoin="round"/>
<path d="M269.796 313.997V321.097" stroke="#263238" stroke-width="1.02" stroke-linecap="round" stroke-linejoin="round"/>
<path d="M277.771 327.753H283.539" stroke="#263238" stroke-width="1.02" stroke-linecap="round" stroke-linejoin="round"/>
<path d="M253.821 327.753H259.59" stroke="#263238" stroke-width="1.02" stroke-linecap="round" stroke-linejoin="round"/>
<path d="M261.809 320.209L264.027 323.759" stroke="#263238" stroke-width="1.02" stroke-linecap="round" stroke-linejoin="round"/>
<path d="M275.108 324.203L278.214 320.209" stroke="#263238" stroke-width="1.02" stroke-linecap="round" stroke-linejoin="round"/>
<path d="M303.495 296.26H236.084V304.691H303.495V296.26Z" stroke="#263238" stroke-width="1.02" stroke-linecap="round" stroke-linejoin="round"/>
<path d="M270.683 251.024H238.303V289.604H270.683V251.024Z" stroke="#263238" stroke-width="1.02" stroke-linecap="round" stroke-linejoin="round"/>
<path d="M238.303 251.024L270.683 289.604" stroke="#263238" stroke-width="1.02" stroke-linecap="round" stroke-linejoin="round"/>
<path d="M237.416 364.115V309.116H303.051V363.671" stroke="#263238" stroke-width="1.02" stroke-linecap="round" stroke-linejoin="round"/>
<path d="M435.046 233.046H372.82C367.968 233.046 364.034 236.98 364.034 241.832V380.001C364.034 384.853 367.968 388.787 372.82 388.787H435.046C439.898 388.787 443.832 384.853 443.832 380.001V241.832C443.832 236.98 439.898 233.046 435.046 233.046Z" fill="#014999"/>
<path d="M440.294 243.62H367.584V379.532H440.294V243.62Z" fill="white" stroke="#263238" stroke-width="0.83" stroke-linecap="round" stroke-linejoin="round"/>
<path d="M436.985 250.136H371.35V321.984H436.985V250.136Z" stroke="#263238" stroke-width="1.02" stroke-linecap="round" stroke-linejoin="round"/>
<path d="M371.35 328.641H436.985" stroke="#263238" stroke-width="1.02" stroke-linecap="round" stroke-linejoin="round"/>
<path d="M371.35 333.953H436.985" stroke="#263238" stroke-width="1.02" stroke-linecap="round" stroke-linejoin="round"/>
<path d="M371.35 339.278H436.985" stroke="#263238" stroke-width="1.02" stroke-linecap="round" stroke-linejoin="round"/>
<path d="M371.35 344.603H436.985" stroke="#263238" stroke-width="1.02" stroke-linecap="round" stroke-linejoin="round"/>
<path d="M371.35 349.928H436.985" stroke="#263238" stroke-width="1.02" stroke-linecap="round" stroke-linejoin="round"/>
<path d="M371.35 355.24H436.985" stroke="#263238" stroke-width="1.02" stroke-linecap="round" stroke-linejoin="round"/>
<path d="M371.35 360.565H436.985" stroke="#263238" stroke-width="1.02" stroke-linecap="round" stroke-linejoin="round"/>
<path d="M371.35 321.984L436.985 250.136" stroke="#263238" stroke-width="1.02" stroke-linecap="round" stroke-linejoin="round"/>
<path d="M435.046 54.2686H372.82C367.968 54.2686 364.034 58.2022 364.034 63.0547V201.223C364.034 206.076 367.968 210.01 372.82 210.01H435.046C439.898 210.01 443.832 206.076 443.832 201.223V63.0547C443.832 58.2022 439.898 54.2686 435.046 54.2686Z" fill="#014999"/>
<path d="M440.294 64.8418H367.584V200.754H440.294V64.8418Z" fill="white" stroke="#263238" stroke-width="0.83" stroke-linecap="round" stroke-linejoin="round"/>
<path d="M283.628 228.406V186.985H341.91" stroke="#263238" stroke-width="1.02" stroke-linecap="round" stroke-linejoin="round"/>
<path d="M340.021 193.451L351.216 186.985L340.021 180.519V193.451Z" fill="#263238"/>
<path d="M402.449 227.315V195.53" stroke="#263238" stroke-width="1.02" stroke-linecap="round" stroke-linejoin="round"/>
<path d="M408.915 197.42L402.449 186.225L395.983 197.42H408.915Z" fill="#263238"/>
<path d="M372.402 402.961H401.803" stroke="#263238" stroke-width="1.02" stroke-linecap="round" stroke-linejoin="round"/>
<path d="M372.402 409.58H401.803" stroke="#263238" stroke-width="1.02" stroke-linecap="round" stroke-linejoin="round"/>
<path d="M372.402 416.197H401.803" stroke="#263238" stroke-width="1.02" stroke-linecap="round" stroke-linejoin="round"/>
<path d="M301.111 402.961H330.512" stroke="#263238" stroke-width="1.02" stroke-linecap="round" stroke-linejoin="round"/>
<path d="M301.111 409.58H330.512" stroke="#263238" stroke-width="1.02" stroke-linecap="round" stroke-linejoin="round"/>
<path d="M301.111 416.197H330.512" stroke="#263238" stroke-width="1.02" stroke-linecap="round" stroke-linejoin="round"/>
<path d="M293.022 200.107H322.424" stroke="#263238" stroke-width="1.02" stroke-linecap="round" stroke-linejoin="round"/>
<path d="M293.022 206.726H322.424" stroke="#263238" stroke-width="1.02" stroke-linecap="round" stroke-linejoin="round"/>
<path d="M293.022 213.344H322.424" stroke="#263238" stroke-width="1.02" stroke-linecap="round" stroke-linejoin="round"/>
<path d="M315.07 119.993H344.471" stroke="#263238" stroke-width="1.02" stroke-linecap="round" stroke-linejoin="round"/>
<path d="M315.07 126.61H344.471" stroke="#263238" stroke-width="1.02" stroke-linecap="round" stroke-linejoin="round"/>
<path d="M315.07 133.229H344.471" stroke="#263238" stroke-width="1.02" stroke-linecap="round" stroke-linejoin="round"/>
<path d="M209.244 142.775H238.633" stroke="#263238" stroke-width="1.02" stroke-linecap="round" stroke-linejoin="round"/>
<path d="M209.244 149.395H238.633" stroke="#263238" stroke-width="1.02" stroke-linecap="round" stroke-linejoin="round"/>
<path d="M209.244 156.012H238.633" stroke="#263238" stroke-width="1.02" stroke-linecap="round" stroke-linejoin="round"/>
<path d="M65.8012 240.336C65.8012 240.336 65.8012 234.859 58.1181 227.176C50.435 219.493 45.4397 215.106 45.4397 215.106C45.4397 215.106 41.6362 227.784 48.7234 235.391C53.9711 240.794 59.6625 245.748 65.7378 250.2L65.8012 240.336Z" fill="#E43B5C"/>
<path d="M54.6567 274.643C54.6567 274.643 54.6567 269.154 46.9736 261.471C39.2905 253.788 34.3079 249.401 34.3079 249.401C34.3079 249.401 30.5044 262.079 37.5916 269.686C42.8431 275.085 48.5342 280.038 54.606 284.495L54.6567 274.643Z" fill="#014999"/>
<path d="M65.3194 249.718C65.3194 249.718 65.9026 244.266 74.3464 237.445C82.7902 230.624 88.1658 226.77 88.1658 226.77C88.1658 226.77 90.7015 239.727 82.7522 246.612C76.9671 251.431 70.788 255.757 64.2798 259.544L65.3194 249.718Z" fill="#014999"/>
<path d="M51.8546 290.187C51.8546 290.187 52.9957 284.824 62.1241 278.929C71.2525 273.033 76.9832 269.762 76.9832 269.762C76.9832 269.762 78.0988 282.91 69.5156 288.919C63.2529 293.108 56.6497 296.764 49.7754 299.848L51.8546 290.187Z" fill="#E43B5C"/>
<path d="M54.3779 334.308C54.3779 334.308 54.3779 328.818 62.061 321.135C69.7441 313.452 74.7394 309.065 74.7394 309.065C74.7394 309.065 78.5429 321.744 71.4557 329.351C66.2065 334.756 60.5152 339.713 54.4413 344.172L54.3779 334.308Z" fill="#014999"/>
<path d="M54.2509 345.072C54.2509 345.072 55.0369 339.645 48.5203 330.948C42.0036 322.251 37.7437 317.205 37.7437 317.205C37.7437 317.205 32.1525 329.16 38.124 337.769C42.5444 343.867 47.4728 349.58 52.8563 354.847L54.2509 345.072Z" fill="#E43B5C"/>
<path d="M46.6821 376.996C46.6821 376.996 46.6821 371.506 54.3652 363.823C62.0483 356.14 67.0436 351.753 67.0436 351.753C67.0436 351.753 70.8471 364.368 63.7472 372.039C58.5056 377.443 52.8183 382.397 46.7455 386.847L46.6821 376.996Z" fill="#E43B5C"/>
<path d="M51.8044 405.928C51.8044 405.928 50.4224 400.616 55.8614 391.209C61.3004 381.801 65.0152 376.337 65.0152 376.337C65.0152 376.337 71.9249 387.57 66.9803 396.8C63.2823 403.355 59.0413 409.59 54.302 415.437L51.8044 405.928Z" fill="#014999"/>
<path d="M66.4982 238.979C66.106 244.689 65.4034 250.373 64.3936 256.007C61.3508 271.69 53.7691 281.82 50.7263 295.981C47.6835 310.143 56.4062 328.413 54.0734 346.606C51.7406 364.8 44.6534 374.93 46.6819 387.075C48.7104 399.221 59.3603 432.109 59.3603 432.109" stroke="#263238" stroke-width="1.03" stroke-linecap="round" stroke-linejoin="round"/>
<path d="M65.2432 253.369L73.5221 247.018" stroke="#263238" stroke-width="1.03" stroke-linecap="round" stroke-linejoin="round"/>
<path d="M65.6238 246.054L62.1626 239.905" stroke="#263238" stroke-width="1.03" stroke-linecap="round" stroke-linejoin="round"/>
<path d="M51.1831 295.335C51.1831 295.335 58.1182 290.137 65.2434 284.938" stroke="#263238" stroke-width="1.03" stroke-linecap="round" stroke-linejoin="round"/>
<path d="M54.6569 284.52C54.6569 284.52 48.8755 273.198 42.3335 265.693" stroke="#263238" stroke-width="1.03" stroke-linecap="round" stroke-linejoin="round"/>
<path d="M54.6567 342.118C58.6085 334.824 63.6012 328.144 69.4777 322.289" stroke="#263238" stroke-width="1.03" stroke-linecap="round" stroke-linejoin="round"/>
<path d="M53.3256 349.813C51.2172 344.864 48.7025 340.097 45.8073 335.563C41.7756 329.604 41.1924 328.831 41.1924 328.831" stroke="#263238" stroke-width="1.03" stroke-linecap="round" stroke-linejoin="round"/>
<path d="M46.6821 387.075C48.4361 382.697 50.5214 378.458 52.9199 374.397C55.3191 370.651 58.0246 367.11 61.0087 363.811" stroke="#263238" stroke-width="1.03" stroke-linecap="round" stroke-linejoin="round"/>
<path d="M54.3144 415.475C53.913 411.315 54.6263 407.122 56.381 403.329C59.2717 397.738 62.5427 390.435 63.8993 387.544" stroke="#263238" stroke-width="1.03" stroke-linecap="round" stroke-linejoin="round"/>
<path d="M15.5062 313.667C15.5062 313.667 14.9104 310.231 18.8914 304.577C22.8724 298.922 25.4968 295.639 25.4968 295.639C25.4968 295.639 29.3003 303.144 25.6363 308.735C22.9283 312.694 19.8916 316.418 16.5585 319.867L15.5062 313.667Z" fill="#E43B5C"/>
<path d="M26.2067 333.953C26.2067 333.953 25.6235 330.504 29.6045 324.863C33.5855 319.221 36.1972 315.924 36.1972 315.924C36.1972 315.924 40.0008 323.417 36.3367 329.008C33.6351 332.965 30.6071 336.689 27.2844 340.14L26.2067 333.953Z" fill="#014999"/>
<path d="M16.8246 319.487C16.8246 319.487 15.861 316.127 9.82612 312.755C3.79122 309.382 0.000390031 307.531 0.000390031 307.531C0.000390031 307.531 -0.151749 315.924 5.55351 319.386C9.70256 321.778 14.0454 323.818 18.5361 325.484L16.8246 319.487Z" fill="#014999"/>
<path d="M29.6552 343.398C29.6552 343.398 28.3874 340.152 22.0482 337.439C15.709 334.726 11.728 333.319 11.728 333.319C11.728 333.319 12.4634 341.674 18.4983 344.514C22.8777 346.458 27.411 348.036 32.0514 349.23L29.6552 343.398Z" fill="#E43B5C"/>
<path d="M32.8626 371.328C32.8626 371.328 32.2668 367.893 26.6122 363.912C20.9577 359.931 17.3951 357.712 17.3951 357.712C17.3951 357.712 16.3554 366.042 21.655 370.086C25.5313 372.904 29.6365 375.394 33.9276 377.528L32.8626 371.328Z" fill="#014999"/>
<path d="M34.1052 378.074C34.1052 378.074 33.0402 374.727 36.1718 368.59C39.3033 362.454 41.4333 358.803 41.4333 358.803C41.4333 358.803 46.2384 365.687 43.4365 371.747C41.3193 376.045 38.8469 380.159 36.045 384.045L34.1052 378.074Z" fill="#E43B5C"/>
<path d="M43.7535 405.827C43.7535 405.827 44.1465 402.353 49.5601 398.055C54.9738 393.757 58.435 391.348 58.435 391.348C58.435 391.348 59.9564 399.602 54.8851 403.938C51.1748 406.971 47.2181 409.689 43.0562 412.065L43.7535 405.827Z" fill="#E43B5C"/>
<path d="M42.3209 397.269C42.3209 397.269 41.725 393.82 36.0831 389.839C30.4412 385.858 26.8533 383.602 26.8533 383.602C26.8533 383.602 25.8136 391.931 31.1259 395.976C35.0003 398.797 39.1057 401.287 43.3985 403.418L42.3209 397.269Z" fill="#E43B5C"/>
<path d="M42.2446 415.969C42.2446 415.969 42.5489 412.483 38.0861 407.196C33.6233 401.909 30.7326 398.866 30.7326 398.866C30.7326 398.866 27.6137 406.663 31.7342 411.925C34.769 415.631 38.1064 419.079 41.7121 422.232L42.2446 415.969Z" fill="#014999"/>
<path d="M14.9102 312.869C15.7815 316.405 16.8395 319.892 18.0797 323.316C21.6931 332.825 27.5505 338.353 30.9863 346.911C34.4221 355.468 30.9863 367.855 34.3841 379.012C37.7819 390.169 43.3731 395.748 43.4111 403.583C43.4491 411.418 40.3683 433.199 40.3683 433.199" stroke="#263238" stroke-width="1.03" stroke-linecap="round" stroke-linejoin="round"/>
<path d="M17.2685 321.769L11.3857 318.676" stroke="#263238" stroke-width="1.03" stroke-linecap="round" stroke-linejoin="round"/>
<path d="M16.2285 317.217L17.7372 312.983" stroke="#263238" stroke-width="1.03" stroke-linecap="round" stroke-linejoin="round"/>
<path d="M30.6312 346.555C30.6312 346.555 25.7247 344.019 20.6914 341.56" stroke="#263238" stroke-width="1.03" stroke-linecap="round" stroke-linejoin="round"/>
<path d="M27.2842 340.14C28.7288 335.577 30.6319 331.172 32.9641 326.992" stroke="#263238" stroke-width="1.03" stroke-linecap="round" stroke-linejoin="round"/>
<path d="M33.5345 376.26C30.2763 372.117 26.4325 368.47 22.124 365.433" stroke="#263238" stroke-width="1.03" stroke-linecap="round" stroke-linejoin="round"/>
<path d="M35.2207 380.939C35.999 377.606 37.055 374.345 38.3776 371.189C40.2667 367.018 40.5456 366.46 40.5456 366.46" stroke="#263238" stroke-width="1.03" stroke-linecap="round" stroke-linejoin="round"/>
<path d="M43.1831 409.528C45.099 407.157 47.2203 404.96 49.5223 402.961C50.986 401.887 52.3598 400.696 53.6301 399.398" stroke="#263238" stroke-width="1.03" stroke-linecap="round" stroke-linejoin="round"/>
<path d="M43.4109 403.582C41.8412 401.041 40.0779 398.625 38.1367 396.356C36.2265 394.262 34.1442 392.332 31.9116 390.587" stroke="#263238" stroke-width="1.03" stroke-linecap="round" stroke-linejoin="round"/>
<path d="M41.712 422.232C41.5125 419.577 40.6112 417.021 39.1003 414.828C36.6787 411.646 33.8261 407.411 32.6724 405.75" stroke="#263238" stroke-width="1.03" stroke-linecap="round" stroke-linejoin="round"/>
<path d="M24.6851 429.408H74.9294V467.202C74.9294 468.211 74.5287 469.179 73.8154 469.892C73.1021 470.605 72.1346 471.006 71.1259 471.006H28.5393C27.5305 471.006 26.5631 470.605 25.8498 469.892C25.1365 469.179 24.7358 468.211 24.7358 467.202V429.408H24.6851Z" fill="#263238"/>
<path d="M74.4858 435.963H24.6852C24.168 435.963 23.6559 435.861 23.1782 435.662C22.7005 435.464 22.2667 435.173 21.9016 434.807C21.5364 434.441 21.2472 434.006 21.0504 433.528C20.8537 433.049 20.7532 432.537 20.7549 432.02C20.7549 430.977 21.169 429.978 21.9061 429.24C22.6431 428.503 23.6428 428.089 24.6852 428.089H74.4858C75.5282 428.089 76.5279 428.503 77.2649 429.24C78.002 429.978 78.4161 430.977 78.4161 432.02C78.4177 432.537 78.3173 433.049 78.1205 433.528C77.9238 434.006 77.6345 434.441 77.2694 434.807C76.9043 435.173 76.4704 435.464 75.9928 435.662C75.5151 435.861 75.003 435.963 74.4858 435.963Z" fill="#263238"/>
<path d="M90.0927 458.403C90.0927 458.403 87.3668 468.901 87.3668 471.551C87.3668 474.201 86.7075 475.976 92.4382 477.079C98.1688 478.182 101.947 477.522 102.834 474.873C103.722 472.223 104.381 458.936 104.381 458.936L90.435 456.273L90.0927 458.403Z" fill="white" stroke="#263238" stroke-width="1.03" stroke-linecap="round" stroke-linejoin="round"/>
<path d="M102.771 474.886C102.951 474.281 103.079 473.662 103.152 473.035C97.8342 473.062 92.524 472.638 87.2783 471.767C87.2783 474.303 86.7839 476.014 92.3497 477.079C97.9155 478.144 101.922 477.536 102.771 474.886Z" fill="white" stroke="#263238" stroke-width="1.03" stroke-linecap="round" stroke-linejoin="round"/>
<path d="M224.547 459.392C224.547 459.392 228.972 460.939 235.4 462.929C241.828 464.92 254.912 467.139 256.179 467.354C257.447 467.57 257.447 470.232 256.395 471.348C255.343 472.463 249.536 475.773 242.677 477.535C235.818 479.297 212.566 480.857 210.575 479.538C208.914 478.422 209.472 467.582 210.132 465.148C210.791 462.714 224.547 459.392 224.547 459.392Z" fill="white" stroke="#263238" stroke-width="1.03" stroke-linecap="round" stroke-linejoin="round"/>
<path d="M256.42 471.348C256.782 470.927 257.032 470.422 257.147 469.88C257.262 469.337 257.239 468.774 257.08 468.242C252.592 471.817 243.628 475.748 234.512 476.661C226.238 477.25 217.931 477.208 209.663 476.534C209.827 478.055 210.119 479.209 210.601 479.539C212.591 480.806 235.831 479.31 242.702 477.535C249.574 475.76 255.317 472.451 256.42 471.348Z" fill="white" stroke="#263238" stroke-width="1.03" stroke-linecap="round" stroke-linejoin="round"/>
<path d="M117.478 266.415C117.478 266.415 113.675 289.566 116.616 302.422C116.616 302.422 111.05 353.414 110.188 376.134C110.188 376.134 98.1942 415.994 96.47 428.419C94.8464 438.514 92.718 448.521 90.0928 458.403C92.7606 459.879 95.658 460.895 98.6633 461.408C104.673 462.676 105.522 457.972 105.522 457.972C105.522 457.972 138.486 382.118 141.098 370.973C143.71 359.829 152.217 319.994 152.217 319.994L187.716 385.135C187.716 385.135 189.44 407.424 194.575 420.28C199.71 433.135 209.574 468.698 209.574 468.698C213.476 468.916 217.387 468.487 221.149 467.43C226.296 465.719 226.296 463.145 226.296 463.145C226.296 463.145 218.575 434.429 218.575 425.009C218.575 415.589 215.583 383.436 213.441 374.435C211.298 365.433 196.718 318.295 194.575 313.147C192.432 308 187.716 291.721 187.716 291.721L184.724 266.428C184.724 266.428 147.906 276.71 117.478 266.415Z" fill="#014999"/>
<path d="M144.673 157.191C144.673 157.191 142.695 152.918 142.695 150.294C142.695 147.67 141.428 135.194 141.428 135.194C141.428 135.194 160.445 100.747 165.707 94.1796C169.139 89.9734 172.987 86.125 177.193 82.693C177.193 82.693 189.998 80.0686 192.623 80.0686C195.247 80.0686 198.201 78.8007 198.201 77.1145C198.201 75.4283 193.929 75.8467 191.304 75.8467C188.68 75.8467 185.396 73.5519 185.396 73.5519C185.396 73.5519 189.669 61.3173 190.975 56.4868C191.672 53.9511 193.929 48.6136 192.242 48.6136C190.556 48.6136 190.277 49.8814 189.288 51.8973C188.299 53.9131 184.04 60.4298 184.04 60.4298L185.016 45.9891C185.016 45.9891 183.748 44.0113 182.721 46.3188C181.42 49.8622 180.324 53.4772 179.437 57.1461C179.133 58.2952 178.574 59.3612 177.802 60.265L176.534 49.501C176.534 49.501 174.303 47.1302 173.91 51.238C173.694 53.5201 173.91 61.0891 173.91 62.3949C173.91 63.7008 172.642 60.5312 172.642 60.5312C172.642 60.5312 171.868 56.9686 171.006 56.4868C170.144 56.005 169.371 57.1461 169.738 59.7705C170.106 62.3949 169.409 73.2222 169.409 73.2222C169.409 73.2222 167.444 75.8467 164.49 79.46C161.535 83.0733 137.865 104.398 128.99 111.295C120.115 118.192 119.152 123.771 117.833 130.655C116.515 137.54 115.209 177.565 115.209 192.031C115.209 206.497 116.477 229.432 117.504 236.989C118.53 244.545 116.717 254.282 115.45 259.581C114.182 264.881 115.45 269.42 119.063 272.044C122.676 274.669 138.081 276.317 150.886 276.317C163.691 276.317 176.813 275.049 180.756 273.692C184.699 272.336 187.716 272.032 187.716 266.795C187.716 261.559 185.092 251.049 185.092 248.095C185.092 245.141 190.353 214.624 190.353 214.624C190.353 214.624 223.824 224.767 230.062 222.497C236.3 220.228 288.471 170.972 288.471 170.972C288.471 170.972 296.674 167.689 300.947 167.029C305.219 166.37 311.774 163.429 312.104 162.44C312.433 161.451 311.444 161.781 308.82 161.781C306.48 161.94 304.166 162.366 301.923 163.048C301.923 163.048 310.887 157.368 312.433 156.811C313.498 156.418 315.337 153.996 312.763 154.516C309.53 155.162 301.606 157.47 301.606 157.47L312.104 150.903C312.104 150.903 313.739 148.278 311.774 148.278C309.809 148.278 299.958 154.186 299.958 154.186L307.565 147.061C309.048 145.692 307.806 143.752 306.056 144.766L297.181 149.838C295.017 151.103 292.722 152.127 290.335 152.893L288.699 153.882C289.026 152.147 289.246 150.395 289.359 148.633C289.359 146.985 288.37 142.725 286.075 142.395C283.78 142.066 285.745 145.349 285.745 146.985C285.745 148.62 282.462 157.128 282.462 158.472V162.414C282.462 162.414 271.305 172.253 261.137 177.514C250.969 182.776 227.983 200.158 227.983 200.158C227.983 200.158 201.739 186.694 195.83 181.774C189.922 176.855 183.355 170.947 176.813 165.698C173.416 162.873 169.795 160.329 165.986 158.091L144.673 157.191Z" fill="white" stroke="#263238" stroke-width="1.03" stroke-linecap="round" stroke-linejoin="round"/>
<path d="M254.341 181.571C243.197 188.697 228.021 200.183 228.021 200.183C228.021 200.183 201.777 186.719 195.868 181.799C189.96 176.88 183.393 170.972 176.851 165.723C173.454 162.898 169.833 160.354 166.024 158.116L144.699 157.14C144.699 157.14 142.721 152.867 142.721 150.243C142.721 147.619 141.453 135.143 141.453 135.143C141.453 135.143 151.279 117.393 158.759 104.905L158.163 104.297C154.486 100.633 149.402 98.6548 144.965 97.5771C138.778 103.067 132.629 108.354 128.977 111.194C120.103 118.078 119.139 123.669 117.82 130.554C116.502 137.438 115.196 177.464 115.196 191.93C115.196 206.396 116.464 229.331 117.491 236.887C118.518 244.443 116.717 254.282 115.45 259.581C114.182 264.881 115.45 269.42 119.063 272.044C122.676 274.668 138.081 276.317 150.886 276.317C163.691 276.317 176.813 275.049 180.756 273.692C184.699 272.336 187.716 272.031 187.716 266.795C187.716 261.559 185.092 251.049 185.092 248.095C185.092 245.141 190.353 214.624 190.353 214.624C190.353 214.624 223.824 224.766 230.062 222.497C233.384 221.229 249.84 206.649 264.433 193.337C261.777 188.859 258.362 184.878 254.341 181.571Z" fill="#E43B5C"/>
<path d="M180.109 171.568C180.109 171.568 166.898 175.169 166.163 185.172" stroke="#263238" stroke-width="1.03" stroke-linecap="round" stroke-linejoin="round"/>
<path d="M190.252 214.624C190.252 214.624 174.86 210.39 166.86 202.377" stroke="#263238" stroke-width="1.03" stroke-linecap="round" stroke-linejoin="round"/>
<path d="M181.707 212.443C181.707 212.443 168.496 216.044 156.489 211.251" stroke="#263238" stroke-width="1.03" stroke-linecap="round" stroke-linejoin="round"/>
<path d="M125.973 191.182C125.973 191.182 130.144 220.342 150.252 234.871" stroke="#263238" stroke-width="1.03" stroke-linecap="round" stroke-linejoin="round"/>
<path d="M156.591 242.872C158.125 243.29 159.71 243.658 161.345 243.949" stroke="#263238" stroke-width="1.03" stroke-linecap="round" stroke-linejoin="round"/>
<path d="M125.973 220.304C131.596 228.693 139.368 235.418 148.477 239.778" stroke="#263238" stroke-width="1.03" stroke-linecap="round" stroke-linejoin="round"/>
<path d="M122.08 155.569C122.08 155.569 134.885 149.229 142.492 155.163" stroke="#263238" stroke-width="1.03" stroke-linecap="round" stroke-linejoin="round"/>
<path d="M125.681 126.357C125.681 126.357 137.295 130.364 140.489 138.364" stroke="#263238" stroke-width="1.03" stroke-linecap="round" stroke-linejoin="round"/>
<path d="M133.288 123.556C136.066 125.798 138.034 128.888 138.892 132.354" stroke="#263238" stroke-width="1.03" stroke-linecap="round" stroke-linejoin="round"/>
<path d="M187.982 104.678C187.982 104.678 189.96 115.835 189.96 118.789C189.96 121.743 186.676 122.732 187.982 126.662C189.288 130.592 192.255 130.935 191.596 134.269C190.936 137.603 186.676 139.518 186.676 139.518C186.676 139.518 184.382 148.71 182.074 152.64C179.767 156.57 171.247 153.629 171.247 153.629L170.588 164.126C170.588 164.126 167.634 168.399 156.806 167.081C150.573 166.392 144.485 164.733 138.765 162.161L137.117 159.867C137.117 159.867 145.649 155.594 145.992 152.64C146.334 149.686 145.992 142.801 145.992 132.95C145.992 123.099 143.037 104.069 159.114 99.1499C175.19 94.2307 187.982 104.678 187.982 104.678Z" fill="white" stroke="#263238" stroke-width="1.03" stroke-linecap="round" stroke-linejoin="round"/>
<path d="M167.938 131.619C167.938 131.619 164.236 123.124 160.09 127.98C157.402 131.137 160.749 140.456 162.385 141.761C164.02 143.067 167.634 142.421 167.634 142.421C167.634 142.421 162.385 147.669 156.806 147.669C151.228 147.669 146.309 142.421 142.695 133.229C139.082 124.037 136.458 108.291 140.4 98.7691C144.343 89.2476 164.692 88.9307 169.282 88.9307C173.871 88.9307 180.768 91.5551 180.768 91.5551C180.768 91.5551 195.539 90.2872 195.868 95.1684C196.198 100.05 193.89 100.417 193.89 100.417C193.89 100.417 204.401 105.996 199.469 108.291C194.537 110.585 187.006 109.279 182.074 109.279C180.754 109.203 179.438 109.5 178.279 110.137C177.12 110.774 176.163 111.724 175.52 112.88C175.52 112.88 180.109 115.834 178.474 117.153C176.838 118.471 170.867 121.083 170.271 123.39C169.675 125.698 172.565 129.299 170.588 130.997C168.61 132.696 167.938 131.619 167.938 131.619Z" fill="#263238" stroke="#263238" stroke-width="1.03" stroke-linecap="round" stroke-linejoin="round"/>
<path d="M186.195 127.65C186.195 129.324 185.497 130.68 184.648 130.68C183.798 130.68 183.114 129.324 183.114 127.65C183.114 125.977 183.811 124.62 184.648 124.62C185.485 124.62 186.195 125.977 186.195 127.65Z" fill="#263238"/>
<path d="M180.819 123.784C180.819 123.784 182.937 118.839 186.296 121.489" stroke="#263238" stroke-width="1.03" stroke-linecap="round" stroke-linejoin="round"/>
<path d="M152.191 319.994L149.186 314.428L134.188 310.561" stroke="white" stroke-width="1.03" stroke-linecap="round" stroke-linejoin="round"/>
</svg>
