<svg width="92" height="92" viewBox="0 0 92 92" fill="none" xmlns="http://www.w3.org/2000/svg">
<g clip-path="url(#clip0_735_1283)">
<path d="M91.9989 44.1597V47.8426C90.3311 49.8148 88.7228 51.8426 86.9757 53.7427C85.3894 55.4654 84.7563 57.306 85.4022 59.6142C85.8743 61.3016 86.2656 63.031 86.4771 64.7672C86.9439 68.5838 85.6787 70.6771 82.0831 72.0991C80.5187 72.7177 78.8795 73.1611 77.2554 73.6151C75.0648 74.2276 73.7157 75.5963 73.0744 77.7684C72.5343 79.5978 71.9829 81.4408 71.2237 83.186C70.0008 85.9962 68.0005 87.0823 64.945 86.6501C63.1227 86.3839 61.3196 86.0005 59.5471 85.5024C57.2099 84.8561 55.4234 85.5776 53.6868 87.156C51.7757 88.8937 49.6493 90.3969 47.6173 92.0023H44.3813C42.2791 90.2436 40.1512 88.5164 38.0844 86.717C36.5858 85.4107 34.9768 84.8906 32.9834 85.3581C30.8184 85.8654 28.6271 86.3352 26.4199 86.578C23.5653 86.8959 21.5099 85.5678 20.3579 82.9703C19.8292 81.7858 19.3125 80.5584 19.0738 79.2972C18.36 75.564 16.2887 73.3182 12.4687 72.6215C11.202 72.3907 9.96542 71.8623 8.78325 71.3219C6.15755 70.1194 5.06149 68.2817 5.40443 65.4466C5.63269 63.625 6.00473 61.8242 6.51711 60.0607C7.19695 57.6751 6.65157 55.7607 4.93686 53.9794C3.19948 52.1756 1.63962 50.2034 0.00195312 48.3048V44.165C1.67361 42.0861 3.25689 39.9275 5.04411 37.9515C6.56092 36.2739 7.27324 34.5437 6.63041 32.3002C6.15945 30.6816 5.78763 29.0361 5.51698 27.3727C4.96782 23.8627 6.14395 21.789 9.42305 20.4745C10.9226 19.8746 12.4622 19.3794 14.0309 18.9923C16.547 18.3722 17.9702 16.8127 18.6334 14.3692C19.0942 12.6736 19.6154 10.9757 20.3126 9.36503C21.6141 6.34734 23.6106 5.12824 26.8844 5.45669C28.9413 5.66188 30.9793 6.14441 32.9962 6.62544C34.97 7.09519 36.6099 6.66451 38.1169 5.33342C40.1693 3.5198 42.2881 1.7791 44.3783 0.00756836H47.6143C49.6992 1.6844 51.8663 3.27028 53.8424 5.06511C55.5277 6.59613 57.2696 7.23348 59.5236 6.63445C61.4506 6.12261 63.4161 5.6506 65.3944 5.45443C68.2755 5.16807 70.0899 6.28871 71.2502 8.94262C71.9443 10.5589 72.5142 12.2252 72.955 13.9273C73.6115 16.4038 75.1524 17.8612 77.5953 18.5331C79.2262 18.984 80.8586 19.4636 82.4237 20.0934C85.5691 21.3584 86.8571 23.3787 86.5111 26.7421C86.3003 28.788 85.8041 30.8128 85.3244 32.821C84.8545 34.7835 85.3002 36.4062 86.6471 37.9049C88.4819 39.9478 90.22 42.0718 91.9989 44.1597ZM83.9473 26.479C84.0682 24.6 83.2562 23.3223 81.555 22.6459C80.1954 22.107 78.8236 21.5651 77.4072 21.2389C73.3909 20.3151 71.1059 17.8935 69.9924 13.9325C68.1304 7.3109 67.8124 7.11998 61.1454 8.90203C57.0369 9.99937 53.8666 9.10046 50.9236 6.07075C46.3158 1.33038 45.8165 1.33565 41.1468 5.99935C38.2476 8.89452 35.1037 9.78667 31.0896 8.8637C23.4943 7.11772 23.4014 7.21018 21.1866 14.7337C20.1359 18.3023 18.02 20.5887 14.3882 21.4921C13.2687 21.7702 12.1583 22.1017 11.0698 22.482C8.06715 23.5343 7.42734 24.6354 8.05581 27.6846C8.3489 29.1127 8.72131 30.5189 9.06123 31.9349C9.74107 34.7692 9.11335 37.2352 7.02623 39.3254C5.83349 40.5205 4.60902 41.7005 3.54696 43.0083C1.93724 44.9858 1.96066 46.8963 3.58548 48.8565C4.61129 50.0952 5.77079 51.2286 6.90386 52.3763C9.08917 54.5897 9.81056 57.164 9.0008 60.1809C8.58458 61.7337 8.24542 63.3091 7.91003 64.8822C7.44774 67.0265 8.28394 68.4674 10.3711 69.1588C11.6854 69.5948 13.0005 70.0412 14.3413 70.3802C17.7896 71.2528 19.9825 73.358 20.9328 76.7688C21.2818 78.0232 21.6572 79.2731 22.0923 80.5005C23.1627 83.5242 24.2935 84.2164 27.4978 83.7467C29.1717 83.5009 30.8283 83.1349 32.4878 82.7989C35.3424 82.2209 37.8208 82.9207 39.9465 84.9034C41.1264 86.0038 42.3078 87.1033 43.5224 88.1661C45.225 89.6565 46.9609 89.7445 48.6711 88.1624C49.9673 86.9598 51.2333 85.7287 52.5447 84.5449C54.4928 82.7861 56.7325 82.0338 59.3643 82.6599C61.085 83.0695 62.8073 83.4866 64.5477 83.7971C67.267 84.2818 68.1614 83.767 69.1222 81.1965C69.5691 79.9728 69.9496 78.7261 70.2621 77.4618C71.1648 73.9293 73.3682 71.7601 76.9268 70.8838C78.3439 70.5343 79.7338 70.0645 81.1154 69.5902C83.1308 68.8973 84.1211 67.491 83.7751 65.3489C83.4828 63.5368 83.1534 61.7232 82.704 59.9442C81.9146 56.8182 82.7538 54.2207 84.9837 51.9576C86.1682 50.7551 87.3103 49.5059 88.3905 48.2109C89.587 46.7761 89.5727 45.2428 88.3648 43.8178C87.2249 42.4724 86.0231 41.1721 84.8062 39.8967C82.6677 37.6629 81.9101 35.1052 82.6987 32.08C83.1784 30.2265 83.5349 28.3438 83.9473 26.479Z" fill="#004999"/>
<path d="M45.8812 19.1651C61.016 19.1395 73.226 31.2531 73.232 46.298C73.2388 61.33 61.022 73.4639 45.8827 73.4587C30.9466 73.4534 18.6301 61.2398 18.6075 46.4115C18.584 31.3794 30.7842 19.1884 45.8812 19.1651ZM21.2558 46.198C21.1999 59.7509 32.2617 70.807 45.8948 70.8235C59.4289 70.8408 70.527 59.932 70.6342 46.5062C70.743 32.9773 59.7288 21.8656 46.0904 21.7408C32.5276 21.6176 21.314 32.6601 21.2588 46.198H21.2558Z" fill="#004999"/>
<path d="M40.6844 48.3881L54.631 34.8044C55.2912 34.1618 55.9151 33.4771 56.6199 32.8871C58.6314 31.2012 61.3546 31.2674 63.101 33.0013C64.892 34.7796 65.0408 37.4591 63.237 39.4178C61.1068 41.7304 58.8135 43.8951 56.5897 46.1206C52.0823 50.6249 47.5334 55.0879 43.088 59.6494C41.7019 61.0715 40.6753 61.1383 39.2726 59.6998C36.004 56.3469 32.6018 53.1233 29.3015 49.8012C26.8843 47.366 26.7144 44.4482 28.7856 42.5023C30.7957 40.6136 33.6782 40.812 35.9617 43.1329C37.6115 44.818 39.1253 46.6459 40.6844 48.3881ZM40.9208 58.062C47.9202 51.0796 54.3341 44.6835 60.7427 38.2806C61.0132 38.0108 61.418 37.7146 61.4498 37.3997C61.5253 36.6308 61.724 35.5162 61.3161 35.1449C60.7805 34.6556 59.6603 34.4993 58.886 34.6586C58.2296 34.7932 57.6721 35.5432 57.1313 36.0821C52.3973 40.7977 47.6444 45.496 42.9709 50.2717C41.6558 51.6163 40.6768 51.7095 39.3715 50.2777C37.5586 48.2934 35.6974 46.328 33.6306 44.6271C33.0105 44.1175 31.6342 44.5174 30.6046 44.5009C30.6476 45.4704 30.2956 46.7895 30.7987 47.3569C34.0053 50.9504 37.4015 54.3822 40.9208 58.062Z" fill="#E43C5C"/>
</g>
<defs>
<clipPath id="clip0_735_1283">
<rect width="92" height="92" fill="white"/>
</clipPath>
</defs>
</svg>
