<svg width="98" height="91" viewBox="0 0 98 91" fill="none" xmlns="http://www.w3.org/2000/svg">
<g clip-path="url(#clip0_420_2032)">
<path d="M24.9294 41.3046C24.9294 38.6864 24.9294 36.0683 24.9294 33.4502C24.9294 32.5065 25.3928 31.9969 26.3169 31.9106C34.1594 31.1974 41.8294 29.1639 49.0107 25.8939C49.6312 25.6108 50.1811 25.6444 50.7842 25.9195C57.0766 28.7767 63.7463 30.6914 70.5834 31.6033C71.4795 31.7259 72.3823 31.819 73.2837 31.9053C74.3489 32.0077 74.7989 32.4593 74.8002 33.523C74.8002 38.3117 74.8388 43.0949 74.7896 47.8889C74.6351 62.9599 64.9499 76.0113 50.7017 80.4224C50.1578 80.6044 49.5701 80.6016 49.028 80.4143C36.9958 76.4013 29.3007 68.2127 25.9427 55.8484C25.1931 53.0981 24.9281 50.267 24.9294 47.4144V41.3046ZM27.5818 34.4924V35.0316C27.5818 39.2823 27.5352 43.5344 27.6084 47.7837C27.639 49.5876 27.7655 51.4237 28.1157 53.1763C30.535 65.3717 37.6291 73.4875 49.1864 77.6223C49.6377 77.7652 50.1213 77.7652 50.5725 77.6223C63.444 73.3675 71.9948 61.5793 72.1426 47.8862C72.1879 43.591 72.1533 39.2945 72.1519 34.9993C72.1519 34.828 72.1213 34.6568 72.104 34.4775C71.5541 34.4155 71.0495 34.367 70.5462 34.3009C63.6371 33.3774 56.965 31.5763 50.5739 28.7452C50.3595 28.6434 50.126 28.5892 49.8892 28.5865C49.6524 28.5837 49.4178 28.6323 49.2011 28.729C46.3091 29.8183 43.4291 30.9521 40.4892 31.8945C36.3123 33.2332 32.0063 33.9949 27.5818 34.4924Z" fill="#E33C5C"/>
<path d="M56.0183 46.7025C55.5456 46.2509 55.0277 45.7656 54.523 45.2668C54.0916 44.8407 53.9106 44.3379 54.1569 43.7447C54.4032 43.1515 54.8892 42.9008 55.5283 42.9035C58.3804 42.9116 61.2311 42.9035 64.0831 42.9035C65.0884 42.9035 65.5824 43.4104 65.585 44.4377C65.585 47.3025 65.585 50.1673 65.585 53.0321C65.585 53.6752 65.3787 54.1767 64.7861 54.4503C64.151 54.7429 63.6251 54.5137 63.175 54.0351C62.705 53.5363 62.243 53.0321 61.6372 52.3877C61.4308 52.6856 61.3163 52.9121 61.1485 53.0833C58.2192 56.0636 55.282 59.0403 52.3368 62.0135C51.3874 62.972 50.7749 62.9666 49.8069 61.9946L44.6448 56.7638C44.4583 56.9377 44.2813 57.0914 44.1122 57.2572C42.2978 59.0907 40.4838 60.9255 38.6704 62.7617C37.8116 63.6285 37.1525 63.6272 36.2924 62.7617C35.1952 61.6571 34.1011 60.5494 33.0102 59.4385C32.1927 58.6053 32.182 57.9461 32.9863 57.1305C36.4845 53.5821 39.9859 50.037 43.4904 46.4949C44.2893 45.6941 44.955 45.7049 45.7712 46.5259C47.5194 48.2974 49.261 50.077 50.9879 51.8336L56.0183 46.7025ZM58.7558 45.624C59.5055 46.867 59.4615 47.2094 58.4376 48.2462C56.3747 50.3349 54.3114 52.4227 52.2476 54.5097C51.4127 55.3509 50.7576 55.3509 49.9188 54.5097C48.321 52.9 46.7267 51.2871 45.1361 49.6712C44.9723 49.5053 44.7979 49.349 44.6847 49.2411L35.7451 58.2616L37.6491 60.1867C37.7687 59.9869 37.9046 59.7975 38.0552 59.6205C39.8767 57.7637 41.7039 55.9122 43.537 54.0661C44.2919 53.3058 44.9696 53.3085 45.7272 54.0661C46.9211 55.2606 48.1084 56.4631 49.289 57.6738C49.8735 58.2737 50.4314 58.9019 51.0199 59.5356C51.2862 59.2848 51.4433 59.1311 51.5978 58.9788L60.319 50.1524C61.3429 49.1157 61.6771 49.0739 62.8914 49.8235V45.6308L58.7558 45.624Z" fill="#E33C5C"/>
<path d="M48.9747 90.9987H5.06367C1.5339 90.9987 0.00402832 89.4294 0.00402832 85.8258C0.00402832 58.9231 0.00402832 32.0208 0.00402832 5.11893C0.00402832 1.55308 1.55389 -0.00402832 5.11295 -0.00402832H92.9351C96.4675 -0.00402832 97.9947 1.56252 97.9947 5.16612C97.9947 32.0671 97.9947 58.9689 97.9947 85.8717C97.9947 89.4375 96.4395 90.9946 92.8818 90.9946L48.9747 90.9987ZM49.0027 86.5606H91.8393C93.6102 86.5606 93.6141 86.5606 93.6141 84.7581C93.6141 64.0586 93.6141 43.3592 93.6141 22.6597C93.6141 20.9179 93.6141 20.9152 91.9165 20.9071C81.9303 20.9071 71.9442 20.8909 61.9674 20.9233C60.4562 20.9233 59.4895 20.384 58.9489 18.9253C58.375 17.3817 57.6547 15.8947 57.0489 14.3632C56.5961 13.2199 55.8585 12.6537 54.6016 12.6659C50.8628 12.7009 47.124 12.7009 43.3852 12.6659C42.1868 12.6564 41.4385 13.166 40.9885 14.2648C40.3853 15.7477 39.6663 17.201 39.1377 18.7137C38.5545 20.3813 37.4773 20.9381 35.7717 20.93C25.9094 20.8774 16.0444 20.9044 6.18078 20.9044C4.38061 20.9044 4.37664 20.9044 4.37664 22.657C4.37664 43.3565 4.37664 64.0559 4.37664 84.7554C4.37664 86.543 4.37663 86.5457 6.16348 86.5457L49.0027 86.5606ZM78.0051 16.4569C82.7758 16.4569 87.5478 16.4366 92.3186 16.4744C93.3079 16.4744 93.6501 16.1373 93.6301 15.1438C93.5848 12.2857 93.6154 9.42762 93.6141 6.56954C93.6141 4.44351 93.6141 4.44351 91.5623 4.44351H6.39516C6.11688 4.44351 5.83726 4.46508 5.56031 4.44351C4.6842 4.36667 4.36199 4.76707 4.37264 5.64607C4.40193 8.86724 4.40193 12.088 4.37264 15.3082C4.36332 16.2277 4.75877 16.504 5.59893 16.469C6.63083 16.4272 7.66674 16.4609 8.69997 16.4609C17.0497 16.4609 25.3994 16.4312 33.7492 16.4919C34.9901 16.5013 35.6586 16.132 36.026 14.9456C36.3216 13.9898 36.7584 13.0744 37.1844 12.1671C38.3455 9.68781 40.2908 8.29922 43.003 8.25743C46.9788 8.18732 50.9551 8.18732 54.9318 8.25743C57.7359 8.30326 59.7544 9.68646 60.8929 12.314C61.3243 13.3089 61.7983 14.2904 62.1405 15.3163C62.4507 16.2479 63.0086 16.4933 63.9313 16.4852C68.6235 16.4366 73.3156 16.4569 78.0078 16.4569H78.0051Z" fill="#004999"/>
<path d="M31.5948 12.6577C31.3167 12.6719 31.0381 12.6719 30.76 12.6577C29.4285 12.5229 28.5058 11.6061 28.5098 10.4373C28.5098 9.20779 29.4751 8.30589 30.8825 8.24118C31.4377 8.21557 31.9969 8.21287 32.5508 8.24118C33.8823 8.31398 34.825 9.19702 34.8503 10.3807C34.8756 11.5644 34.0048 12.5013 32.6667 12.651C32.3119 12.671 31.9563 12.671 31.6015 12.651L31.5948 12.6577Z" fill="#E33C5C"/>
<path d="M13.4001 8.23315C15.4213 8.23315 16.4865 8.96924 16.5331 10.3902C16.581 11.8543 15.4546 12.6686 13.3908 12.682C12.4242 12.682 11.4628 12.6821 10.7465 11.8813C9.75185 10.7677 10.2299 8.94632 11.6346 8.4111C12.2125 8.18866 12.8076 8.24394 13.4001 8.23315Z" fill="#E33C5C"/>
<path d="M22.4755 12.6712C22.2372 12.6712 21.9988 12.6834 21.7618 12.6712C20.3558 12.589 19.3878 11.7087 19.3651 10.4953C19.3358 9.23481 20.3371 8.2965 21.7964 8.23583C22.3104 8.21561 22.8283 8.21157 23.3436 8.23583C24.7457 8.31403 25.6977 9.22941 25.6764 10.4549C25.6551 11.6803 24.723 12.5742 23.3143 12.6645C23.0387 12.682 22.7538 12.6699 22.4755 12.6712Z" fill="#E33C5C"/>
</g>
<defs>
<clipPath id="clip0_420_2032">
<rect width="98" height="91" fill="white"/>
</clipPath>
</defs>
</svg>
