<svg width="546" height="486" viewBox="0 0 546 486" fill="none" xmlns="http://www.w3.org/2000/svg">
<g clip-path="url(#clip0_910_514)">
<path d="M476.166 349.483C471.048 354.135 465.818 358.62 460.532 362.97C423.987 392.948 381.685 415.101 333.928 419.384C332.75 419.485 331.582 419.586 330.404 419.675C241.175 426.211 242.814 319.919 232.174 293.753C221.534 267.586 40.6301 248.785 9.51794 185.824C-17.0935 131.966 15.7359 82.5808 62.7296 54.5195C95.1886 35.1468 131.98 23.3639 168.558 14.5856C276.923 -11.4241 392.561 -8.03831 479.893 69.5311C490.499 78.9484 498.659 88.9038 506.83 100.384C529.659 132.436 544.788 170.689 545.944 210.286C547.549 265.456 516.864 312.15 477.468 348.294C477.042 348.687 476.604 349.079 476.178 349.483H476.166Z" fill="#FAFAFA"/>
<path d="M445.144 241.733V374.696H295.52L296.531 241.733L297.148 240.444L324.556 182.886L337.654 155.374L340.325 149.78L370.843 85.675L371.471 86.998L412.831 173.861L445.144 241.733Z" fill="#DBDBDB"/>
<path d="M448.623 368.99L445.144 369.629L417.78 374.696H350.494L301.66 271.577L297.148 240.444L324.556 182.886L337.654 155.374L340.325 149.78L370.843 85.675L371.471 86.998L351.785 233.168L368.957 194.064L368.272 270.209L391.618 240.713V283.248L383.38 268.842L375.826 333.316L417.028 235.915L445.144 354.337L448.623 368.99Z" fill="#B8B8B8"/>
<path d="M337.654 155.374L335.308 160.296L362.088 128.894L371.011 165.935L381.314 134.376L392.314 148.737L396.399 139.354L371.471 86.998L370.843 85.675L340.325 149.78L337.654 155.374Z" fill="white" stroke="#263238" stroke-linecap="round" stroke-linejoin="round"/>
<path d="M445.144 241.733V374.696H295.52L296.531 241.733L297.148 240.444L324.556 182.886L337.654 155.374L340.325 149.78L370.843 85.675L371.471 86.998L412.831 173.861L445.144 241.733Z" stroke="#263238" stroke-linecap="round" stroke-linejoin="round"/>
<path d="M519.579 396.838L491.329 377.88L487.356 413.15L460.43 402.567L453.82 441.358L407.915 411.39H369.081L371.28 372.152L414.492 279.346L416.445 275.165L441.9 220.499L462.204 259.301L465.683 267.642L470.565 279.346L519.579 396.838Z" fill="#DBDBDB"/>
<path d="M488.826 357.263L491.688 378.116L502.082 385.089L488.826 357.263Z" fill="#B8B8B8"/>
<path d="M460.43 402.567L481.733 410.942L479.196 402.814L471.486 389.988L477.266 381.647L476.166 349.483L455.425 378.441L454.145 316.836L433.583 357.902L444.493 225.455L441.9 220.499L416.445 275.165L414.492 279.346L371.28 372.152L369.081 411.39H407.915L453.82 441.358L460.43 402.567Z" fill="#B8B8B8"/>
<path d="M522.52 402.825L444.302 214.154L355.859 404.54" stroke="#263238" stroke-linecap="round" stroke-linejoin="round"/>
<path d="M452.08 284.705L457.86 279.447L472.058 295.199L473.237 283.954L444.302 214.154L410.586 286.723L410.552 287.329L440.52 255.825L452.08 284.705Z" fill="white" stroke="#263238" stroke-linecap="round" stroke-linejoin="round"/>
<path d="M391.113 443.79L393.739 474.766L372.504 464.306L344.691 450.607L318.046 437.49L303.848 448.521L264.958 432.243L230.266 465.842L202.925 442.221L170.342 449.037L172.441 417.534L228.447 292.385L235.72 276.117L285.453 164.993L301.75 202.27L316.991 222.226L384.019 384.45L396.668 368.385L437.893 464.789L391.113 443.79Z" fill="#DBDBDB"/>
<path d="M293.41 358.014L280.357 341.556L288.607 259.234L250.828 334L283.792 193.38L285.879 165.98L285.453 164.993L235.72 276.117L228.447 292.385L172.441 417.534L170.342 449.037L202.925 442.221L230.266 465.842L264.958 432.243L276.665 437.142L279.672 389.574L303.029 406.726L300.279 341.556L293.41 358.014Z" fill="#B8B8B8"/>
<path d="M443.213 477.446L396.657 368.373L384.019 384.45L288.966 155.206L175.988 410.28" stroke="#263238" stroke-linecap="round" stroke-linejoin="round"/>
<path d="M322.626 236.385L288.966 155.206L249.57 244.143L280.211 210.062L298.989 223.044L301.884 213.661L322.626 236.385Z" fill="white" stroke="#263238" stroke-linecap="round" stroke-linejoin="round"/>
<path d="M372.504 464.307L344.691 450.607L325.566 365.346L372.504 464.307Z" fill="#B8B8B8"/>
<path d="M395.03 155.374H337.654L340.325 149.78C340.382 149.78 340.438 149.78 340.494 149.769C343.165 149.5 343.434 147.639 347.172 147.101C350.921 146.562 353.592 148.704 356.532 147.37C359.473 146.035 361.347 140.957 367.229 141.764C373.11 142.56 381.393 151.103 381.393 151.103C384.603 151.103 385.939 150.307 389.418 151.641C392.886 152.975 395.03 155.374 395.03 155.374Z" fill="#263238" stroke="#263238" stroke-linecap="round" stroke-linejoin="round"/>
<path d="M384.289 148.199C384.289 148.199 376.006 139.656 370.124 138.849C364.243 138.053 362.369 143.121 359.428 144.455C356.488 145.789 353.816 143.659 350.068 144.186C346.33 144.724 346.061 146.585 343.378 146.854C340.696 147.123 338.833 145.251 335.892 145.789C332.951 146.327 331.347 149.522 329.742 149.522C328.137 149.522 325.465 147.65 322.525 147.65C319.584 147.65 315.038 150.318 315.038 150.318L296.856 152.459H397.914C397.914 152.459 395.771 150.06 392.302 148.726C388.823 147.392 387.488 148.188 384.278 148.188L384.289 148.199Z" fill="white" stroke="#263238" stroke-linecap="round" stroke-linejoin="round"/>
<path d="M487.524 126.573C487.524 126.573 479.241 118.03 473.36 117.223C467.479 116.427 465.605 121.494 462.664 122.829C459.723 124.163 457.052 122.033 453.303 122.559C449.566 123.098 449.296 124.959 446.614 125.228C443.943 125.497 442.068 123.625 439.128 124.163C436.187 124.701 434.582 127.896 432.977 127.896C431.372 127.896 428.701 126.024 425.76 126.024C422.82 126.024 418.274 128.692 418.274 128.692L400.092 130.833H501.15C501.15 130.833 499.006 128.434 495.538 127.1C492.07 125.766 490.723 126.562 487.513 126.562L487.524 126.573Z" fill="white" stroke="#263238" stroke-linecap="round" stroke-linejoin="round"/>
<path d="M436.434 309.818C436.434 309.818 421.585 294.504 411.046 293.069C400.507 291.634 397.151 300.726 391.887 303.114C386.612 305.502 381.831 301.679 375.119 302.632C368.407 303.585 367.936 306.937 363.143 307.419C358.351 307.901 354.995 304.549 349.731 305.502C344.456 306.455 341.583 312.206 338.709 312.206C335.836 312.206 331.043 308.854 325.78 308.854C320.516 308.854 312.367 313.641 312.367 313.641L279.785 317.464H460.879C460.879 317.464 457.052 313.159 450.823 310.76C444.594 308.372 442.203 309.807 436.445 309.807L436.434 309.818Z" fill="#263238" stroke="#263238" stroke-linecap="round" stroke-linejoin="round"/>
<path d="M442.091 306.993C442.091 306.993 427.242 291.679 416.703 290.244C406.164 288.808 402.808 297.901 397.544 300.289C392.269 302.677 387.488 298.854 380.776 299.807C374.064 300.759 373.593 304.112 368.8 304.594C364.007 305.076 360.652 301.724 355.388 302.677C350.113 303.63 347.239 309.381 344.366 309.381C341.493 309.381 336.7 306.029 331.436 306.029C326.172 306.029 318.024 310.816 318.024 310.816L285.441 314.639H466.536C466.536 314.639 462.709 310.334 456.48 307.935C450.251 305.547 447.86 306.982 442.102 306.982L442.091 306.993Z" fill="white" stroke="#263238" stroke-linecap="round" stroke-linejoin="round"/>
<path d="M470.565 279.346H414.492L416.445 275.165C418.05 275.703 419.43 276.409 420.418 276.409C422.023 276.409 423.628 273.203 426.568 272.676C429.509 272.138 431.383 274.01 434.055 273.741C436.726 273.472 436.995 271.599 440.744 271.073C444.482 270.534 447.153 272.676 450.093 271.33C453.034 269.996 454.908 264.929 460.79 265.725C462.316 265.938 464.022 266.667 465.683 267.642L470.565 279.346Z" fill="#263238" stroke="#263238" stroke-linecap="round" stroke-linejoin="round"/>
<path d="M477.479 271.543C477.479 271.543 469.196 263.001 463.315 262.193C457.434 261.397 455.559 266.465 452.619 267.799C449.678 269.133 447.007 267.003 443.258 267.53C439.521 268.068 439.251 269.929 436.58 270.198C433.909 270.467 432.034 268.595 429.094 269.133C426.153 269.671 424.548 272.866 422.943 272.866C421.338 272.866 418.667 270.994 415.726 270.994C412.786 270.994 408.24 273.662 408.24 273.662L390.058 275.804H491.116C491.116 275.804 488.972 273.404 485.504 272.07C482.025 270.736 480.689 271.532 477.479 271.532V271.543Z" fill="white" stroke="#263238" stroke-linecap="round" stroke-linejoin="round"/>
<path d="M324.163 292.385H228.447L235.72 276.118C237.763 276.331 239.772 276.196 241.837 275.254C248.134 272.407 252.129 261.554 264.711 263.27C277.282 264.985 295.004 283.248 295.004 283.248C301.862 283.248 304.724 281.544 312.154 284.391C319.584 287.25 324.163 292.385 324.163 292.385Z" fill="#263238" stroke="#263238" stroke-linecap="round" stroke-linejoin="round"/>
<path d="M299.067 279.772C299.067 279.772 281.345 261.498 268.763 259.783C256.181 258.068 252.186 268.92 245.9 271.779C239.615 274.638 233.891 270.064 225.888 271.207C217.886 272.351 217.314 276.342 211.601 276.913C205.888 277.485 201.881 273.483 195.596 274.626C189.31 275.77 185.876 282.62 182.441 282.62C179.007 282.62 173.294 278.618 167.009 278.618C160.724 278.618 151.004 284.324 151.004 284.324L112.125 288.887H328.215C328.215 288.887 323.647 283.752 316.206 280.893C308.776 278.035 305.914 279.75 299.056 279.75L299.067 279.772Z" fill="white" stroke="#263238" stroke-linecap="round" stroke-linejoin="round"/>
<path d="M247.966 83.1189C247.966 83.1189 230.243 64.8448 217.661 63.1295C205.08 61.4142 201.084 72.2665 194.799 75.1254C188.514 77.9842 182.789 73.4101 174.787 74.5536C166.784 75.6971 166.212 79.6883 160.499 80.26C154.786 80.8318 150.779 76.8294 144.494 77.973C138.209 79.1165 134.774 85.9665 131.34 85.9665C127.905 85.9665 122.193 81.9641 115.907 81.9641C109.622 81.9641 99.9023 87.6705 99.9023 87.6705L61.0233 92.2335H277.113C277.113 92.2335 272.545 87.0988 265.104 84.24C257.674 81.3811 254.812 83.0964 247.954 83.0964L247.966 83.1189Z" fill="white" stroke="#263238" stroke-linecap="round" stroke-linejoin="round"/>
<path d="M485.19 444.62C485.19 444.62 459.701 418.341 441.608 415.875C423.516 413.408 417.758 429.014 408.723 433.117C399.676 437.221 391.461 430.651 379.945 432.299C368.43 433.947 367.61 439.687 359.383 440.517C351.156 441.335 345.41 435.584 336.363 437.232C327.317 438.88 322.39 448.734 317.452 448.734C312.513 448.734 304.297 442.983 295.251 442.983C286.205 442.983 272.231 451.201 272.231 451.201L216.315 457.771H527.133C527.133 457.771 520.556 450.382 509.871 446.268C499.186 442.165 495.067 444.62 485.201 444.62H485.19Z" fill="white" stroke="#263238" stroke-linecap="round" stroke-linejoin="round"/>
<path d="M370.831 85.6751V39.6873" stroke="#263238" stroke-linecap="round" stroke-linejoin="round"/>
<path d="M400.181 77.8835V69.3743C400.181 69.3743 403.212 70.9775 404.548 73.4103C404.738 73.7578 404.895 74.1165 404.996 74.4977C404.996 74.4977 401.001 73.9484 400.181 77.8947V77.8835Z" fill="#263238" stroke="#263238" stroke-linecap="round" stroke-linejoin="round"/>
<path d="M381.775 44.7883C375.13 45.035 371.617 42.4452 370.798 41.7614V54.4299L371.011 69.1164C372.998 72.233 386.87 72.233 394.794 72.233C402.718 72.233 404.985 74.4977 404.985 74.4977V46.7839C400.743 42.8264 389.407 44.5193 381.763 44.7996L381.775 44.7883Z" fill="#E43C5C" stroke="#263238" stroke-linecap="round" stroke-linejoin="round"/>
<path d="M404.996 47.9835C403.796 47.1315 402.449 46.6382 401.023 46.6382C396.119 46.6382 392.134 52.2886 392.134 59.2506C392.134 66.2127 396.119 71.8631 401.023 71.8631C402.449 71.8631 403.796 71.3698 404.996 70.5178V47.9723V47.9835Z" fill="white" stroke="#263238" stroke-linecap="round" stroke-linejoin="round"/>
<path d="M404.996 74.4864C404.996 74.4864 400.047 74.1053 400.182 77.8834C400.249 79.666 402.449 81.0001 410.373 80.4283C418.297 79.8678 430.508 81.6503 430.508 81.6503L422.865 68.0737L434.189 63.5444C434.189 63.5444 428.78 59.217 420.564 56.672C412.348 54.1271 404.952 54.5644 404.952 54.5644L404.985 74.4977L404.996 74.4864Z" fill="#E43C5C" stroke="#263238" stroke-linecap="round" stroke-linejoin="round"/>
<path d="M401.27 70.1814V68.6791C400.002 68.5446 399.059 67.984 398.442 66.9862C397.825 65.9885 397.488 64.7552 397.42 63.2529L399.272 62.8269C399.306 63.4548 399.396 64.0601 399.519 64.6543C399.654 65.2485 399.856 65.7306 400.159 66.1342C400.451 66.5266 400.866 66.7508 401.405 66.7957C401.944 66.8405 402.359 66.6947 402.639 66.3696C402.92 66.0333 403.055 65.54 403.055 64.8786C403.055 64.0826 402.898 63.4323 402.595 62.9166C402.292 62.4009 401.899 61.8852 401.427 61.3583L398.913 58.5443C398.588 58.1743 398.318 57.7819 398.105 57.3896C397.892 56.9972 397.724 56.5599 397.622 56.1003C397.521 55.6406 397.465 55.1137 397.465 54.5307C397.465 53.2751 397.768 52.3222 398.374 51.6607C398.981 51.0105 399.8 50.7078 400.832 50.7526V49.2952L401.483 49.3512V50.8087C402 50.8983 402.46 51.0553 402.842 51.3019C403.234 51.5486 403.56 51.8625 403.818 52.2661C404.087 52.6697 404.289 53.1406 404.447 53.7011C404.604 54.2617 404.705 54.9007 404.75 55.6294L402.976 56.0442C402.943 55.4613 402.864 54.9119 402.752 54.4074C402.639 53.9029 402.449 53.4769 402.168 53.1518C401.888 52.8267 401.495 52.6585 400.978 52.6585C400.462 52.6585 400.058 52.793 399.766 53.0733C399.474 53.3536 399.329 53.8132 399.329 54.4523C399.329 54.9904 399.407 55.4276 399.564 55.7864C399.721 56.1339 399.968 56.5151 400.316 56.9187L402.853 59.7327C403.223 60.1587 403.571 60.6183 403.897 61.1341C404.222 61.6498 404.491 62.2103 404.693 62.8157C404.895 63.4211 404.996 64.105 404.996 64.8337C404.996 65.6297 404.862 66.3136 404.604 66.8965C404.345 67.4795 403.986 67.9168 403.526 68.2307C403.066 68.5334 402.527 68.7015 401.91 68.724V70.2487L401.281 70.1926L401.27 70.1814Z" fill="#263238"/>
<path d="M393.212 8.12805V22.5455" stroke="#263238" stroke-linecap="round" stroke-linejoin="round"/>
<path d="M393.212 93.2986V107.727" stroke="#263238" stroke-linecap="round" stroke-linejoin="round"/>
<path d="M339.573 28.0502L356.072 41.0999" stroke="#263238" stroke-linecap="round" stroke-linejoin="round"/>
<path d="M444.089 28.0502L427.59 41.0999" stroke="#263238" stroke-linecap="round" stroke-linejoin="round"/>
<path d="M444.089 102.682L427.59 89.6326" stroke="#263238" stroke-linecap="round" stroke-linejoin="round"/>
<path d="M338.878 102.682L355.388 89.6326" stroke="#263238" stroke-linecap="round" stroke-linejoin="round"/>
<path d="M349.192 65.1364H327.194" stroke="#263238" stroke-linecap="round" stroke-linejoin="round"/>
<path d="M461.968 65.1364H439.97" stroke="#263238" stroke-linecap="round" stroke-linejoin="round"/>
<path d="M163.395 485.44L171.51 466.65C171.51 466.65 174.753 458.219 176.706 455.618C178.659 453.028 181.252 447.838 181.252 447.838L191.645 432.265L202.038 400.482L173.204 410.079L151.038 427.108L120.778 442.008L15.9152 463.298" fill="white"/>
<path d="M163.395 485.44L171.51 466.65C171.51 466.65 174.753 458.219 176.706 455.618C178.659 453.028 181.252 447.838 181.252 447.838L191.645 432.265L202.038 400.482L173.204 410.079L151.038 427.108L120.778 442.008L15.9152 463.298" stroke="#263238" stroke-linecap="round" stroke-linejoin="round"/>
<path d="M16.9366 383.609H144.876L202.027 400.471L196.191 409.552L184.495 413.442L171.51 416.693L161.116 431.615L152.676 438.745L124.752 443.286L13.6929 467.939" fill="white"/>
<path d="M16.9366 383.609H144.876L202.027 400.471L196.191 409.552L184.495 413.442L171.51 416.693L161.116 431.615L152.676 438.745L124.752 443.286L13.6929 467.939" stroke="#263238" stroke-linecap="round" stroke-linejoin="round"/>
<path d="M171.51 416.693L172.812 440.696L165.662 454.318L160.465 462.748L146.346 485.44" fill="white"/>
<path d="M171.51 416.693L172.812 440.696L165.662 454.318L160.465 462.748L146.346 485.44" stroke="#263238" stroke-linecap="round" stroke-linejoin="round"/>
<path d="M152.676 438.745L150.723 458.858L140.981 464.699L127.995 472.479" fill="white"/>
<path d="M152.676 438.745L150.723 458.858L140.981 464.699L127.995 472.479" stroke="#263238" stroke-linecap="round" stroke-linejoin="round"/>
<path opacity="0.21" d="M136.323 410.718C136.323 414.619 115.245 417.792 89.2397 417.792C63.2344 417.792 42.1563 414.63 42.1563 410.718C42.1563 406.805 63.2344 403.643 89.2397 403.643C115.245 403.643 136.323 406.805 136.323 410.718Z" fill="black"/>
<path d="M162.553 149.623C162.553 149.623 165.539 147.179 167.301 145.957C169.063 144.735 172.194 141.349 172.464 139.993C172.733 138.636 174.226 130.497 174.226 130.497C174.226 130.497 173.137 130.362 171.106 130.766C169.074 131.17 167.301 131.719 167.301 131.719L161.868 138.233L162.542 149.623H162.553Z" fill="white" stroke="#263238" stroke-miterlimit="10"/>
<path d="M169.893 131.035C169.893 131.035 169.489 133.344 170.297 134.017C171.117 134.701 175.73 134.836 176.403 133.479C177.077 132.122 177.222 129.813 176.403 129.813C175.584 129.813 169.882 131.035 169.882 131.035H169.893Z" fill="white" stroke="#263238" stroke-miterlimit="10"/>
<path d="M173.283 135.105C173.283 135.105 166.897 135.374 166.627 136.192C166.358 137.011 165.954 138.636 166.358 138.905C166.762 139.174 173.418 139.174 174.102 138.367C174.776 137.549 175.73 134.297 173.283 135.116V135.105Z" fill="white" stroke="#263238" stroke-miterlimit="10"/>
<path d="M172.879 138.771C172.879 138.771 166.493 139.04 166.223 139.858C165.954 140.677 165.55 142.302 165.954 142.571C166.358 142.84 173.014 142.84 173.698 142.033C174.372 141.215 175.326 137.963 172.879 138.782V138.771Z" fill="white" stroke="#263238" stroke-miterlimit="10"/>
<path d="M171.005 142.268C171.005 142.268 166.178 142.47 165.976 143.087C165.774 143.703 165.46 144.937 165.774 145.138C166.077 145.34 171.106 145.34 171.622 144.724C172.138 144.107 172.856 141.652 171.005 142.268Z" fill="white" stroke="#263238" stroke-miterlimit="10"/>
<path d="M199.356 125.945L155.572 132.549C155.392 132.571 155.213 132.593 155.033 132.593C154.898 132.593 154.753 132.593 154.618 132.571C153.024 132.38 151.688 131.147 151.442 129.499C151.139 127.515 152.508 125.665 154.494 125.362L196.494 119.039L198.278 118.77C200.265 118.467 202.105 119.835 202.408 121.82C202.711 123.804 201.342 125.642 199.356 125.945Z" fill="white" stroke="#263238" stroke-miterlimit="10"/>
<path d="M196.247 126.293L154.629 132.571C153.035 132.38 151.7 131.147 151.453 129.499C151.15 127.515 152.519 125.665 154.506 125.362L196.505 119.039C197.953 119.364 199.12 120.541 199.356 122.089C199.659 124.107 198.267 125.99 196.247 126.293Z" fill="#B5B5B5" stroke="#263238" stroke-miterlimit="10"/>
<path d="M124.942 136.08C123.674 136.08 122.574 135.161 122.372 133.871C122.159 132.459 123.135 131.136 124.55 130.923L154.652 126.394C156.077 126.181 157.39 127.156 157.603 128.569C157.817 129.981 156.84 131.304 155.426 131.517L125.324 136.046C125.189 136.069 125.066 136.08 124.931 136.08H124.942Z" fill="#B5B5B5" stroke="#263238" stroke-miterlimit="10"/>
<path d="M154.955 151.518C154.955 151.518 158.49 139.578 158.759 137.414C159.029 135.25 161.476 133.345 161.476 133.345C161.476 133.345 165.954 129.678 167.043 127.784C168.131 125.889 169.074 128.187 169.074 129.813C169.074 131.439 163.776 136.461 163.776 136.461C163.776 136.461 164.73 140.934 164.73 143.244C164.73 145.553 162.968 148.67 162.968 148.67L160.387 156.125L154.955 151.518Z" fill="white" stroke="#263238" stroke-miterlimit="10"/>
<path d="M153.597 149.758L163.776 157.224L160.118 163.457L150.746 155.587L153.597 149.758Z" fill="white" stroke="#263238" stroke-miterlimit="10"/>
<path d="M151.015 154.231L163.642 164.399C163.642 164.399 137.165 203.47 135.526 204.557C133.899 205.645 130.779 206.317 130.779 206.317L124.527 187.057L151.004 154.231H151.015Z" fill="#004999" stroke="#263238" stroke-linecap="round" stroke-linejoin="round"/>
<path d="M114.617 158.984L120.868 162.919H117.602L115.975 164.41L112.989 164.141L111.9 160.61L114.617 158.984Z" fill="white" stroke="#263238" stroke-linecap="round" stroke-linejoin="round"/>
<path d="M122.496 118.288C122.496 118.288 126.3 127.784 125.75 128.737C125.201 129.69 124.392 131.181 124.662 132.123C124.931 133.064 128.736 137.683 128.332 138.502C127.928 139.32 125.346 142.437 125.346 142.437C125.346 142.437 123.988 148.536 124.258 149.085C124.527 149.634 125.75 151.125 124.931 152.616C124.112 154.107 121.946 154.376 120.588 154.376C119.23 154.376 117.467 154.107 117.467 154.107L113.528 161.563L91.3947 153.154L94.7843 145.699C94.7843 145.699 92.3375 140.273 94.1109 133.356C95.873 126.438 109.184 118.434 114.751 117.615C120.318 116.797 122.496 118.299 122.496 118.299V118.288Z" fill="white" stroke="#263238" stroke-linecap="round" stroke-linejoin="round"/>
<path d="M117.333 120.048C117.333 120.048 120.868 124.656 120.184 126.012C119.51 127.369 116.109 130.62 116.109 130.62C116.109 130.62 117.198 135.363 116.648 135.912C116.109 136.45 114.617 136.865 114.067 136.585C113.517 136.304 110.127 129.802 107.961 131.293C105.784 132.784 105.379 136.315 106.333 138.345C107.287 140.374 108.096 141.461 108.096 141.461C108.096 141.461 102.663 146.484 99.6778 147.022C96.6923 147.56 94.3802 147.84 93.5721 146.618C92.764 145.396 87.7358 134.41 87.6011 126.674C87.4664 118.938 92.6293 112.436 95.7495 110.934C98.8697 109.443 104.852 109.308 104.852 109.308C104.852 109.308 105.256 105.776 109.465 105.922C113.674 106.057 118.017 109.454 118.017 109.454C118.017 109.454 116.659 104.566 119.914 107.425C123.169 110.272 125.481 111.898 124.808 116.382C124.134 120.867 117.344 120.048 117.344 120.048H117.333Z" fill="#263238" stroke="#263238" stroke-linecap="round" stroke-linejoin="round"/>
<path d="M108.096 141.484L111.092 142.302L112.316 144.735" stroke="#263238" stroke-linecap="round" stroke-linejoin="round"/>
<path d="M120.599 154.377C120.599 154.377 118.971 153.558 117.883 152.751C116.794 151.944 114.347 150.172 114.347 150.172L115.705 156.686L117.467 154.107L120.588 154.377H120.599Z" fill="#263238" stroke="#263238" stroke-linecap="round" stroke-linejoin="round"/>
<path d="M86.0971 151.114L84.8737 156.809L111.766 164.276L124.808 175.532L114.347 163.054L112.72 159.119L86.0971 151.114Z" fill="white" stroke="#263238" stroke-linecap="round" stroke-linejoin="round"/>
<path d="M115.975 164.41C115.975 164.41 123.517 167.011 129.264 182.561C135.01 198.111 151.139 260.03 151.139 260.03L142.238 262.328C142.238 262.328 138.343 239.749 131.306 218.089C124.269 196.429 115.986 164.41 115.986 164.41H115.975Z" fill="#004999" stroke="#263238" stroke-linecap="round" stroke-linejoin="round"/>
<path d="M143.529 256.778C143.529 256.778 140.487 289.672 139.208 305.435C137.928 321.197 125.346 363.811 123.854 369.562C122.361 375.313 121.721 392.993 121.721 392.993L123.854 394.484V396.188L131.104 400.874C131.104 400.874 141.767 404.709 139.421 407.052C137.075 409.395 132.81 408.543 126.839 408.543C120.868 408.543 114.471 406.413 112.551 406.413C110.632 406.413 108.713 406.413 107.86 406.2C107.007 405.987 105.088 406.839 105.088 404.922C105.088 403.004 103.595 395.762 103.595 395.762C103.595 395.762 101.889 393.206 101.889 391.502C101.889 389.798 102.315 384.047 103.168 381.916C104.021 379.786 105.301 371.266 105.301 371.266L106.58 348.9L99.1166 365.089L92.7191 391.928C92.7191 391.928 95.9179 392.993 95.9179 393.845C95.9179 394.697 95.2781 398.531 95.2781 398.531C95.2781 398.531 99.3299 402.578 101.249 404.07C103.168 405.561 112.338 410.46 112.978 410.673C113.618 410.886 116.39 413.229 114.684 414.294C112.978 415.359 104.448 415.998 97.6239 415.998C90.7998 415.998 82.0566 413.016 82.0566 413.016L80.1373 414.294C80.1373 414.294 73.953 412.803 73.1 412.59C72.247 412.377 71.8205 408.543 72.0338 407.052C72.247 405.561 72.0338 403.857 72.0338 403.004C72.0338 402.152 71.394 397.679 71.8205 396.188C72.247 394.697 73.7398 390.65 73.7398 390.65C73.7398 390.65 76.9386 356.142 77.7916 350.806C78.6446 345.48 84.4023 333.765 84.4023 333.765C84.4023 333.765 87.3878 312.89 87.8143 308.843C88.2408 304.795 88.4541 289.459 88.4541 289.459C88.4541 289.459 84.8288 280.299 83.5493 273.483C82.2698 266.667 83.3361 265.176 83.3361 265.176L86.1083 254.525L143.54 256.778H143.529Z" fill="#263238" stroke="#263238" stroke-linecap="round" stroke-linejoin="round"/>
<path d="M110.722 343.305C110.722 343.305 117.22 321.668 118.298 315.188C119.375 308.697 126.603 284.178 126.603 284.178L133.461 279.492" stroke="#8C8C8C" stroke-linecap="round" stroke-linejoin="round"/>
<path d="M85.8165 340.065C85.8165 340.065 101.339 330.693 110.363 314.471" stroke="#8C8C8C" stroke-linecap="round" stroke-linejoin="round"/>
<path d="M112.529 304.728C112.529 304.728 103.146 319.146 96.6474 324.919" stroke="#8C8C8C" stroke-linecap="round" stroke-linejoin="round"/>
<path d="M129.017 185.981C129.017 185.981 140.016 238.269 141.497 245.298C142.979 252.328 143.54 256.778 143.54 256.778C143.54 256.778 138.725 257.709 136.682 257.709C134.64 257.709 130.195 257.518 130.195 257.518L123.528 183.11L129.028 185.981H129.017Z" fill="white" stroke="#263238" stroke-linecap="round" stroke-linejoin="round"/>
<path d="M81.6188 154.78V160.475C81.6188 160.475 75.3672 185.431 76.1866 193.301C77.0059 201.171 84.739 226.396 84.739 226.396C84.739 226.396 82.8422 229.513 82.7076 229.928C82.5729 230.343 83.381 233.459 83.381 233.459L76.4559 267.642C76.4559 267.642 102.933 273.203 120.318 271.712C137.704 270.22 138.927 269.267 138.927 269.267C138.927 269.267 136.615 236.98 136.75 229.39C136.884 221.8 130.498 189.646 129.005 185.98C127.513 182.314 124.796 175.532 124.796 175.532L111.755 164.276L81.6076 154.78H81.6188Z" fill="#004999" stroke="#263238" stroke-linecap="round" stroke-linejoin="round"/>
<path d="M101.721 195.476C101.721 195.476 87.3205 208.504 85.289 209.311" stroke="#263238" stroke-linecap="round" stroke-linejoin="round"/>
<path d="M105.929 195.062C105.929 195.062 101.855 201.71 100.093 204.692" stroke="#263238" stroke-linecap="round" stroke-linejoin="round"/>
<path d="M104.167 205.376L99.8125 213.65" stroke="#263238" stroke-linecap="round" stroke-linejoin="round"/>
<path d="M130.509 145.419C130.509 145.419 130.913 135.789 131.329 134.163C131.733 132.537 135.268 125.62 135.268 125.62C135.268 125.62 137.446 123.86 138.388 124.533C139.342 125.205 139.208 126.842 139.208 126.842C139.208 126.842 140.835 124.533 141.789 124.813C142.743 125.093 143.686 126.988 143.686 126.988C143.686 126.988 145.583 126.45 146.671 126.853C147.76 127.257 148.568 126.988 148.299 128.21C148.03 129.432 145.313 136.08 145.313 136.08C145.313 136.08 151.015 133.905 151.015 134.993C151.015 136.08 150.061 136.484 148.838 137.302C147.614 138.12 143.136 140.419 143.136 140.419L139.746 143.804L139.208 146.921L130.521 145.43L130.509 145.419Z" fill="white" stroke="#263238" stroke-linecap="round" stroke-linejoin="round"/>
<path d="M131.048 150.441L130.509 145.419C130.509 145.419 132.541 144.735 134.449 144.881C136.357 145.026 140.555 146.372 140.555 146.372L140.824 151.529L131.048 150.441Z" fill="white" stroke="#263238" stroke-linecap="round" stroke-linejoin="round"/>
<path d="M84.8737 171.059C84.8737 171.059 90.306 169.568 91.9334 169.433C93.5609 169.298 128.601 172.55 128.601 172.55L130.363 148.67C130.363 148.67 132.395 148.266 134.303 148.805C136.211 149.343 144.214 151.652 144.214 151.652C144.214 151.652 144.752 176.339 144.752 181.9V190.992C144.752 190.992 142.99 191.665 141.497 191.945C140.005 192.225 102.933 195.331 96.1423 195.331C89.352 195.331 82.1576 195.869 80.5302 188.951" fill="#004999"/>
<path d="M84.8737 171.059C84.8737 171.059 90.306 169.568 91.9334 169.433C93.5609 169.298 128.601 172.55 128.601 172.55L130.363 148.67C130.363 148.67 132.395 148.266 134.303 148.805C136.211 149.343 144.214 151.652 144.214 151.652C144.214 151.652 144.752 176.339 144.752 181.9V190.992C144.752 190.992 142.99 191.665 141.497 191.945C140.005 192.225 102.933 195.331 96.1423 195.331C89.352 195.331 82.1576 195.869 80.5302 188.951" stroke="#263238" stroke-linecap="round" stroke-linejoin="round"/>
</g>
<defs>
<clipPath id="clip0_910_514">
<rect width="546" height="486" fill="white"/>
</clipPath>
</defs>
</svg>
