<svg width="59" height="59" viewBox="0 0 59 59" fill="none" xmlns="http://www.w3.org/2000/svg">
<path d="M39.9999 56.359C40.1085 58.082 39.2757 58.9982 37.6664 58.999C25.903 58.999 14.1401 58.999 2.37779 58.999C0.848958 58.999 0.00488281 58.1608 0.00488281 56.647C0.00488281 38.5451 0.00488281 20.4432 0.00488281 2.34137C0.00488281 0.858082 0.849761 0.0158957 2.33112 0.0126782C4.65735 0.00865625 6.98359 0.024742 9.30983 0.000610439C9.74917 -0.00421587 9.96481 0.133336 10.1571 0.525876C11.3046 2.86664 12.497 5.18567 13.638 7.53045C13.9599 8.19246 14.4024 8.45469 15.1331 8.44906C18.4021 8.42493 21.6719 8.42493 24.9425 8.44906C25.6466 8.45389 26.0787 8.19568 26.3909 7.56424C27.5448 5.20096 28.7421 2.85939 29.9016 0.499325C30.0818 0.132526 30.2942 0.00302006 30.7062 0.00704198C33.0542 0.0271516 35.403 0.0118695 37.7509 0.0183045C39.1784 0.0183045 40.0353 0.884625 40.0417 2.31884C40.0482 3.80454 40.0417 5.29024 40.0417 6.84592C39.0086 6.42121 38.0181 6.15897 36.9752 6.46142C36.5758 6.57668 36.1847 6.71885 35.8045 6.88695C29.7138 9.58807 23.6259 12.29 17.5406 14.9927C15.6392 15.8333 14.6953 17.2555 14.7541 19.3276C15.1339 32.7211 20.4596 43.7227 30.7312 52.3323C32.0275 53.4142 33.4082 54.3963 34.6876 55.4975C36.2848 56.869 37.9907 57.3412 39.9999 56.359ZM6.2586 18.2143C6.0494 17.9311 5.92951 17.714 5.75892 17.5483C4.83679 16.6538 3.55096 16.6425 2.7085 17.5064C1.88534 18.3502 1.90949 19.6099 2.78253 20.5108C3.40774 21.1543 4.04824 21.7866 4.68713 22.418C5.738 23.4565 6.91359 23.4541 7.97492 22.4019C9.28274 21.1052 10.5844 19.8032 11.8799 18.4958C12.8366 17.5306 12.8937 16.2701 12.0408 15.3965C11.167 14.5037 9.87872 14.5543 8.89544 15.5357C8.05619 16.3706 7.23464 17.2209 6.2586 18.2143ZM6.26263 30.8278C6.05262 30.5576 5.92468 30.3452 5.75248 30.1843C4.84806 29.3124 3.5912 29.2874 2.74793 30.1103C1.88454 30.9533 1.8958 32.2403 2.78896 33.1614C3.41498 33.8049 4.05467 34.4379 4.69437 35.0686C5.72432 36.0853 6.90957 36.0974 7.93549 35.0838C9.26101 33.7748 10.5782 32.4575 11.8871 31.1319C12.8398 30.1666 12.8913 28.9013 12.0312 28.0326C11.1525 27.1478 9.87389 27.2025 8.88578 28.1854C8.04814 29.0156 7.22177 29.8602 6.26263 30.8278ZM6.3431 43.3762C6.1017 43.1494 5.91985 42.9741 5.73156 42.7931C4.82231 41.9396 3.55901 41.9284 2.72459 42.7649C1.89017 43.6015 1.89742 44.8692 2.76241 45.7693C3.38521 46.4128 4.02812 47.045 4.66701 47.6773C5.72673 48.723 6.90152 48.7383 7.954 47.6958C9.26235 46.4007 10.5643 45.099 11.8598 43.7905C12.843 42.7995 12.8969 41.5181 12.0078 40.6446C11.1187 39.771 9.85941 39.845 8.86164 40.84C8.02883 41.6758 7.20326 42.5164 6.34551 43.3803L6.3431 43.3762Z" fill="#E43C5C"/>
<path d="M36.3183 52.7948C36.847 53.2302 37.3968 53.5008 37.9987 53.5C38.5989 53.4992 39.151 53.2287 39.6852 52.7981L39.6854 52.7978C40.8676 51.8434 42.0544 50.885 43.2256 49.912L43.2259 49.9117C52.2413 42.409 56.8751 32.6232 57.4965 20.7847L57.4972 20.7716V20.7585C57.4972 20.6694 57.4966 20.5839 57.496 20.5004C57.4948 20.3215 57.4936 20.1519 57.4984 19.9772C57.515 19.4073 57.3997 18.8899 57.1246 18.4476C56.8493 18.005 56.4383 17.6765 55.9295 17.444L55.9292 17.4439C50.3324 14.8906 44.739 12.3307 39.149 9.76396L39.1486 9.76377C38.372 9.40804 37.617 9.41463 36.8456 9.76834L36.8451 9.76857C31.2742 12.3307 25.6984 14.8826 20.1177 17.4243C19.5872 17.6658 19.1526 18.003 18.866 18.4623C18.5778 18.9242 18.4665 19.4659 18.5087 20.0665L18.5088 20.0677C18.5429 20.537 18.5723 21.0118 18.6018 21.4898C18.688 22.883 18.7758 24.3034 18.9884 25.695C20.134 33.1968 23.232 39.7678 28.125 45.4452C30.1451 47.7892 32.5207 49.713 34.8576 51.6054C35.3474 52.002 35.8355 52.3973 36.3183 52.7948ZM36.3183 52.7948L36.6361 52.4088M36.3183 52.7948C36.3183 52.7948 36.3183 52.7948 36.3183 52.7948L36.6361 52.4088M36.6361 52.4088C36.1466 52.0058 35.6539 51.6067 35.1614 51.2077C32.8257 49.3159 30.4918 47.4256 28.5038 45.1188L56.9972 20.7585C56.3827 32.4669 51.8075 42.1195 42.9061 49.5274C41.738 50.4978 40.554 51.4541 39.3714 52.4088C38.3963 53.1948 37.596 53.1993 36.6361 52.4088ZM36.5768 36.649L36.3444 36.7962L36.2065 36.8836L35.8326 37.1205L35.5521 36.7781C35.5029 36.718 35.4487 36.647 35.4021 36.586C35.3793 36.5562 35.3584 36.5287 35.3408 36.5062C35.2775 36.4252 35.2252 36.3639 35.1734 36.3149L35.1733 36.3148C34.5668 35.7419 33.7454 35.7686 33.2098 36.3295L33.209 36.3304C32.67 36.8922 32.6474 37.7655 33.1895 38.3404L33.1895 38.3405C34.4667 39.6953 35.7645 41.0295 37.0827 42.3431L37.0883 42.3487L37.0883 42.3488C37.3311 42.5986 37.6572 42.7367 37.9943 42.7377C38.3314 42.7387 38.6582 42.6025 38.9023 42.3542L38.9069 42.3496L38.9069 42.3496C40.2413 41.0268 41.5516 39.6782 42.8378 38.3038L42.8382 38.3033C43.3643 37.7425 43.3266 36.8614 42.7657 36.3048L42.7648 36.3039C42.2407 35.7809 41.4454 35.7565 40.8682 36.2721C40.7488 36.3792 40.6378 36.4877 40.5012 36.6212C40.4344 36.6864 40.3614 36.7577 40.2784 36.8377L39.4315 37.6538V36.4776V31.5226V31.0226H39.9315H44.7475H45.8734L45.1184 31.8579C45.0157 31.9715 44.9276 32.0674 44.848 32.154L44.8306 32.1729C44.7579 32.252 44.693 32.3226 44.6286 32.3939C44.0527 33.0334 44.0665 33.8959 44.6072 34.4627L44.6121 34.4678L44.6121 34.4679C44.7383 34.604 44.8889 34.7119 45.0547 34.786C45.2205 34.86 45.3984 34.8989 45.5781 34.9008C45.7577 34.9027 45.9363 34.8676 46.1035 34.7972C46.2706 34.7267 46.4233 34.6221 46.5521 34.4887L46.5582 34.4824L46.5583 34.4825C47.8607 33.1812 49.1438 31.8602 50.4077 30.5197C50.9484 29.9445 50.9493 29.1219 50.4184 28.5548C49.1442 27.1982 47.8476 25.8639 46.5285 24.5518C45.9827 24.0109 45.1554 24.035 44.6167 24.5881C44.0811 25.138 44.0517 25.9988 44.5832 26.6171C44.6847 26.7351 44.7867 26.8437 44.9086 26.9734C44.9712 27.04 45.039 27.1122 45.1147 27.1941L45.8902 28.0334H44.7475H39.9445H39.4445V27.5334V22.6642V22.3985L39.6647 22.2498L39.804 22.1558L40.2048 21.8852L40.4886 22.2767C40.5359 22.3419 40.5896 22.4238 40.6329 22.4898C40.6528 22.5201 40.6705 22.5471 40.6844 22.5676C40.7409 22.6511 40.7832 22.7048 40.8228 22.7427L40.823 22.7429C41.4241 23.3189 42.2447 23.2969 42.783 22.7349L42.7838 22.7341C43.326 22.1706 43.3499 21.2974 42.8111 20.7249L42.8111 20.7249C41.5353 19.3691 40.2378 18.0351 38.9186 16.7229L36.5768 36.649ZM36.5768 36.649V36.3739M36.5768 36.649V36.3739M36.5768 36.3739V31.5293V31.0293H36.0768H31.2557H30.1189L30.8871 31.8672C30.9594 31.946 31.0247 32.0161 31.0853 32.0813C31.2073 32.2123 31.3103 32.323 31.4127 32.4426L31.4128 32.4427C31.9453 33.0646 31.9166 33.9225 31.3803 34.472C30.8391 35.0266 30.0128 35.0499 29.4682 34.5102C28.1497 33.1974 26.853 31.8624 25.578 30.5054C25.048 29.9413 25.0506 29.1122 25.5889 28.5409C26.8528 27.2008 28.1359 25.8798 29.4384 24.578L29.4384 24.578L29.4445 24.5718C29.5734 24.4384 29.726 24.3338 29.8932 24.2633C30.0603 24.1929 30.2389 24.1578 30.4186 24.1597C30.5983 24.1617 30.7762 24.2007 30.9419 24.2748L31.146 23.8184L30.9419 24.2748C31.1076 24.3489 31.2582 24.4569 31.3843 24.5932L31.3843 24.5932L31.3902 24.5994C31.9191 25.1513 31.9422 26.0083 31.4026 26.6302L31.402 26.6308C31.3085 26.739 31.2152 26.8395 31.1006 26.9631C31.0351 27.0336 30.9627 27.1116 30.8794 27.2028L30.114 28.0402H31.2484H36.0688H36.5688V27.5402V22.5851V21.4231L35.725 22.2221C35.6186 22.3228 35.5311 22.408 35.4528 22.4841C35.3348 22.599 35.2377 22.6934 35.1285 22.7901L35.1279 22.7907C34.5362 23.3167 33.7192 23.2767 33.2003 22.722L33.2002 22.722C32.6729 22.1584 32.652 21.2979 33.1642 20.752L33.1642 20.752C34.4507 19.3807 35.7609 18.032 37.0946 16.7059L37.0946 16.7059M36.5768 36.3739L37.0946 16.7059M37.0946 16.7059C37.6094 16.194 38.383 16.1923 38.9186 16.7229L37.0946 16.7059ZM39.9445 22.6712L39.679 22.8636C39.7148 22.913 39.7419 22.9546 39.7745 23.0046C39.7974 23.0397 39.823 23.0791 39.8564 23.1283C39.8826 23.167 39.9118 23.209 39.9445 23.2523V27.0334V27.5334V22.6712ZM39.9445 22.6712V22.6642L40.0838 22.5702C40.1061 22.6009 40.1277 22.6324 40.149 22.6642H40.4445V23.0713C40.4551 23.0824 40.466 23.0933 40.4771 23.1039M39.9445 22.6712L40.4771 23.1039M40.4771 23.1039C41.2693 23.8631 42.4069 23.8504 43.1441 23.0808L40.4771 23.1039ZM31.2557 31.5293V32.0293H31.7157C31.7416 32.0586 31.7672 32.0879 31.7926 32.1175C32.4862 32.9274 32.4629 34.0785 31.7382 34.8212C31.0134 35.564 29.8678 35.611 29.1154 34.8645L31.2557 31.5293Z" stroke="#E43C5C"/>
<path d="M12.333 0.0444336H27.7758L26.111 3.37458C25.6813 4.23607 25.2693 5.10722 24.8067 5.94861C24.7077 6.12799 24.4244 6.313 24.2249 6.31461C21.4199 6.33767 18.6152 6.33767 15.8107 6.31461C15.6216 6.31461 15.3424 6.16419 15.2595 6.00412C14.2794 4.09692 13.3284 2.17444 12.3732 0.254377C12.3514 0.186278 12.3379 0.115783 12.333 0.0444336Z" fill="#E43C5C"/>
</svg>
