<svg width="82" height="63" viewBox="0 0 82 63" fill="none" xmlns="http://www.w3.org/2000/svg">
<g clip-path="url(#clip0_800_65)">
<path d="M57.4818 56.1357C53.8604 51.7825 50.4511 47.6856 47.039 43.5915C44.1871 40.175 41.3381 36.7386 38.4579 33.342C37.827 32.599 37.5752 31.9641 37.9487 30.9477C41.2419 21.931 44.473 12.8915 47.8313 3.55029L82.0001 63.0028H20.2602L20.2178 62.8462L57.4818 56.1357Z" fill="#E33B5C"/>
<path d="M0.00012207 55.8966C2.46439 51.5889 4.78711 47.5176 7.11841 43.4463C11.3849 35.9889 15.6542 28.5324 19.9264 21.0769C20.3715 20.2325 20.9648 19.4763 21.6777 18.8448C28.9979 12.7217 36.3068 6.58243 43.6043 0.427061C43.7939 0.270472 44.0175 0.142354 44.2495 0C44.6908 0.597885 44.2014 0.982245 44.0203 1.37514C35.8494 19.1143 27.6673 36.8478 19.4738 54.5755C19.1909 55.1706 19.1145 55.9165 18.1299 55.9108C12.1829 55.8795 6.23295 55.8966 0.00012207 55.8966Z" fill="#E33B5C"/>
</g>
<defs>
<clipPath id="clip0_800_65">
<rect width="82" height="63" fill="white"/>
</clipPath>
</defs>
</svg>
