<svg width="68" height="82" viewBox="0 0 68 82" fill="none" xmlns="http://www.w3.org/2000/svg">
<g clip-path="url(#clip0_775_457)">
<path d="M60.947 12.9126L50.4806 17.2327C51.1605 22.3526 51.8572 27.6054 52.5708 32.9911H67.9706C68.3841 27.2653 64.8885 17.4155 60.947 12.9126Z" fill="#E33B5C"/>
<path d="M-0.000778198 33.0342H15.4894L17.584 17.2293L7.07232 12.8926C2.73347 18.6394 0.34383 25.3655 -0.000778198 33.0342Z" fill="#E33B5C"/>
<path d="M7.19981 55.8923C8.68271 55.1512 10.1128 54.4744 11.4988 53.7123C11.7454 53.576 11.922 53.0908 11.9296 52.7596C11.9769 51.3982 12.0071 50.0302 11.9296 48.6721C11.8682 47.6242 12.2645 46.892 13.0528 46.3304C13.5428 45.9804 14.0489 45.6492 14.568 45.3457C16.4644 44.2379 16.4461 44.2379 16.2296 41.9693C16.0315 39.8802 15.884 37.7855 15.7084 35.6177H0.0157681C0.305454 43.1823 2.71882 49.8973 7.19981 55.8923Z" fill="#E33B5C"/>
<path d="M52.3642 35.6289C52.1337 38.355 51.8914 40.9338 51.7277 43.517C51.7051 43.8825 51.9647 44.453 52.2597 44.6247C57.1338 47.456 56.0289 46.7482 56.0698 51.6919C56.0817 53.0677 56.3929 53.8487 57.6852 54.3128C58.7621 54.6972 59.7474 55.3441 60.7619 55.8691C64.7917 51.4383 68.3444 41.4799 67.9642 35.6289H52.3642Z" fill="#E33B5C"/>
<path d="M14.5112 62.7134C14.5112 64.0238 14.3044 65.2888 14.5737 66.4375C14.8052 67.4267 15.3996 68.4946 16.1448 69.157C18.4753 71.2284 21.4002 72.0171 24.3444 72.6131C31.6577 74.0941 38.9547 74.0321 46.1603 71.9739C47.906 71.4754 49.5956 70.6446 51.1927 69.7496C52.8177 68.8357 53.8063 67.3946 53.5683 65.3088C53.4757 64.4946 53.5533 63.6605 53.5533 62.7167C47.6303 67.0501 40.9169 67.7912 34.0968 67.8C27.2768 67.8089 20.5397 67.0811 14.5112 62.7134Z" fill="#E33B5C"/>
<path d="M53.5524 54.2739C43.4468 61.2238 25.6606 61.2271 14.6041 54.3847C14.6041 55.7394 14.4963 57.0942 14.6353 58.419C14.7871 59.8358 15.8349 60.6943 16.9312 61.4309C19.4156 63.1002 22.2414 63.8391 25.0952 64.3675C31.981 65.6424 38.8677 65.5616 45.6544 63.7261C47.567 63.2088 49.4128 62.306 51.1735 61.3545C52.8147 60.4683 53.8012 59.0194 53.5675 56.9302C53.4759 56.1127 53.5524 55.272 53.5524 54.2739Z" fill="#E33B5C"/>
<path d="M53.4795 71.1201C45.5568 77.9703 22.2052 77.8406 14.7002 71.1921C14.1521 75.623 14.3449 76.7739 17.875 78.7711C20.9517 80.5114 24.3665 81.186 27.8159 81.5958C34.5497 82.3967 41.2061 82.0921 47.7041 79.8999C47.9066 79.8312 48.1069 79.7537 48.3061 79.6784C52.9131 77.8971 53.8705 76.3375 53.4795 71.1201Z" fill="#E33B5C"/>
<path d="M47.865 17.8774L35.3051 19.3175V33H49.8691C49.797 27.8281 49.1713 22.7791 47.865 17.8774Z" fill="#E33B5C"/>
<path d="M32.7695 33.0122V19.3152L20.2204 17.8818C18.8613 22.6938 18.3186 27.7693 18.1743 33.0122H32.7695Z" fill="#E33B5C"/>
<path d="M35.297 0.716797V16.833L47.0234 15.5458C45.3381 8.61926 40.113 0.917294 35.297 0.716797Z" fill="#E33B5C"/>
<path d="M32.7734 0.601562C30.7413 0.902862 29.1712 1.93083 27.7831 3.26009C24.365 6.52343 22.5062 10.7339 20.8737 15.5137L32.7734 16.8573V0.601562Z" fill="#E33B5C"/>
<path d="M33.9965 58.018C38.8264 57.8408 43.581 57.3733 48.1158 55.5921C49.512 55.05 50.8249 54.3038 52.0142 53.3767C54.1314 51.7007 54.0829 49.4664 52.0142 47.7195C49.6278 45.7079 46.7374 44.8672 43.7942 44.2646C36.4777 42.7702 29.1688 42.7979 21.9664 44.8849C19.9593 45.4743 18.0524 46.3781 16.3127 47.5645C13.81 49.2759 13.9004 51.7372 16.3127 53.6104C19.1288 55.8003 22.4672 56.6278 25.8519 57.1673C28.5377 57.6004 31.2784 57.7455 33.9965 58.018ZM34.0471 44.7254C38.7317 44.7176 43.3527 45.1873 47.7572 46.9408C48.9881 47.433 50.144 48.1045 51.1893 48.9347C52.543 50.0125 52.5634 51.1424 51.2044 52.1836C50.0273 53.0875 48.6941 53.8995 47.3071 54.3692C39.4392 57.0343 31.4335 57.1063 23.4289 55.1723C21.3095 54.6605 19.229 53.6968 17.3336 52.5702C15.3499 51.3894 15.4006 49.9117 17.2927 48.5824C18.4236 47.7992 19.6477 47.1685 20.9348 46.706C25.1702 45.1596 29.5801 44.7043 34.0471 44.7276V44.7254Z" fill="#E33B5C"/>
<path d="M18.5226 14.9788C20.5687 9.07686 22.9896 3.8451 27.7656 0.119843C23.2965 -0.314383 12.4391 5.8534 8.76364 11.0242L18.5226 14.9788Z" fill="#E33B5C"/>
<path d="M49.5313 14.9785L59.4453 10.963C54.0446 5.00347 47.8395 1.39009 40.3766 -0.00341797C45.0331 3.81932 47.5111 9.03335 49.5313 14.9785Z" fill="#E33B5C"/>
<path d="M18.6314 42.7513L32.7539 40.2988V35.6187H18.1274C18.3019 38.0944 18.4731 40.5181 18.6314 42.7513Z" fill="#E33B5C"/>
<path d="M49.9492 35.6211H35.3399V40.5372C37.7479 40.8163 40.1311 40.9802 42.4755 41.3934C44.7715 41.7944 47.0265 42.4413 49.4129 43.0074C49.5885 40.5848 49.7651 38.1511 49.9492 35.6211Z" fill="#E33B5C"/>
<path d="M56.1824 61.0732L59.0039 57.6814L56.1824 56.228V61.0732Z" fill="#E33B5C"/>
<path d="M8.79853 57.8105L11.8516 60.9819V56.252L8.79853 57.8105Z" fill="#E33B5C"/>
</g>
<defs>
<clipPath id="clip0_775_457">
<rect width="68" height="82" fill="white" transform="matrix(-1 0 0 1 68 0)"/>
</clipPath>
</defs>
</svg>
