<svg width="413" height="482" viewBox="0 0 413 482" fill="none" xmlns="http://www.w3.org/2000/svg">
<path d="M394.118 128.37C407.293 167.179 410.557 218.495 385.583 255.651C347.787 311.811 374.041 354.889 281.987 426.704C268.606 437.222 254.178 446.333 238.931 453.893C231.485 457.56 223.822 460.767 215.984 463.497C147.026 487.453 82.6342 466.314 41.4025 422.094C-12.8442 363.938 7.26501 297.363 21.9015 255.96C36.5379 214.558 15.9807 119.449 105.944 48.2213C119.627 37.3098 134.462 27.9278 150.184 20.2424C186.06 2.91306 230.194 -5.64492 268.31 4.15087C271.169 4.88715 274.018 5.70881 276.845 6.62649C331.817 24.4787 376.153 75.4425 394.118 128.37Z" fill="#F5F4F4"/>
<path d="M289.177 477.188H412.467" stroke="#263238" stroke-linecap="round" stroke-linejoin="round"/>
<path d="M20.4287 477.188H307.6" stroke="#263238" stroke-linecap="round" stroke-linejoin="round"/>
<path d="M29.1557 256.963C29.1557 256.963 25.4966 267.026 17.7196 268.403C9.94269 269.779 -3.787 254.669 4.91807 246.89C13.6231 239.111 25.4966 251.468 29.1557 256.963Z" fill="#014999" stroke="#263238" stroke-linecap="round" stroke-linejoin="round"/>
<path d="M41.0499 207.537C41.0499 207.537 29.6138 235.451 34.1903 249.153C38.7669 262.854 67.1331 272.949 75.3688 255.096C83.6044 237.244 65.3089 212.082 58.4387 206.587C51.5685 201.091 43.3435 202.959 41.0499 207.537Z" fill="#E43B5C" stroke="#263238" stroke-linecap="round" stroke-linejoin="round"/>
<path d="M107.853 219.434C107.853 219.434 88.1814 237.287 85.8984 255.128C83.6155 272.97 96.8757 279.383 110.605 277.099C124.335 274.816 131.195 240.029 127.077 224.012C122.959 207.995 107.853 219.434 107.853 219.434Z" fill="#014999" stroke="#263238" stroke-linecap="round" stroke-linejoin="round"/>
<path d="M111.512 318.289C111.512 318.289 89.5574 319.207 88.6399 329.728C87.7225 340.25 98.2411 342.533 108.77 333.388C119.3 324.243 120.665 318.748 111.512 318.289Z" fill="#014999" stroke="#263238" stroke-linecap="round" stroke-linejoin="round"/>
<path d="M89.0029 332.236C89.0029 332.236 106.306 324.318 114.105 322.941" stroke="#263238" stroke-miterlimit="10"/>
<path d="M116.409 387.168C116.409 387.168 100.279 372.229 92.1718 379.005C84.0642 385.781 89.8569 394.83 103.768 395.897C117.679 396.964 122.544 393.976 116.409 387.168Z" fill="#E43B5C" stroke="#263238" stroke-linecap="round" stroke-linejoin="round"/>
<path d="M90.6455 381.033C90.6455 381.033 108.472 387.724 114.936 392.28" stroke="#263238" stroke-miterlimit="10"/>
<path d="M31.2896 382.772C31.2896 382.772 53.5216 362.178 64.7017 371.515C75.8817 380.852 67.9021 393.368 48.6997 394.756C29.4973 396.143 22.8725 392.163 31.2896 382.772Z" fill="#E43B5C" stroke="#263238" stroke-linecap="round" stroke-linejoin="round"/>
<path d="M66.8344 374.311C66.8344 374.311 42.2981 383.541 33.3477 389.826" stroke="#263238" stroke-miterlimit="10"/>
<path d="M57.0737 340.26C57.0737 340.26 54.7587 351.24 46.5444 355.349C38.3301 359.457 23.6723 350.771 31.4493 337.496C39.2262 324.222 52.9558 334.765 57.0737 340.26Z" fill="#014999" stroke="#263238" stroke-linecap="round" stroke-linejoin="round"/>
<path d="M37.8501 305.931C37.8501 305.931 33.7323 296.776 17.7197 302.73C1.70703 308.684 -4.68311 317.829 5.36613 321.031C15.4154 324.232 37.8501 305.931 37.8501 305.931Z" fill="#E43B5C" stroke="#263238" stroke-linecap="round" stroke-linejoin="round"/>
<path d="M34.7879 305.516C34.7879 305.516 17.8258 307.351 8.65137 315.119" stroke="#263238" stroke-miterlimit="10"/>
<path d="M83.5625 196.097C83.5625 196.097 86.3041 202.5 91.7981 201.123C97.2922 199.747 98.6577 191.52 107.352 193.803C116.046 196.087 123.354 206.16 123.354 201.582C123.354 197.004 112.377 185.106 100.023 185.106C87.6697 185.106 84.0639 190.143 83.5625 196.097Z" fill="#E43B5C" stroke="#263238" stroke-linecap="round" stroke-linejoin="round"/>
<path d="M37.8496 305.932C37.8496 305.932 57.5533 302.154 65.757 324.072C66.5676 326.266 67.255 328.503 67.8159 330.773" stroke="#263238" stroke-miterlimit="10"/>
<path d="M120.079 284.729C120.079 284.729 124.197 275.584 140.21 281.527C156.222 287.471 162.612 296.627 152.563 299.839C142.514 303.05 120.079 284.729 120.079 284.729Z" fill="#92E3A9" stroke="#263238" stroke-linecap="round" stroke-linejoin="round"/>
<path d="M123.738 285.337C123.738 285.337 140.242 284.419 148.029 294.044" stroke="#263238" stroke-miterlimit="10"/>
<path d="M120.079 284.729C115.447 284.082 110.726 284.725 106.435 286.585" stroke="#263238" stroke-miterlimit="10"/>
<path d="M48.3581 268.318C38.6929 258.447 29.1557 256.964 29.1557 256.964C29.1557 256.964 15.074 253.229 9.56934 258.276" stroke="#263238" stroke-miterlimit="10"/>
<path d="M50.3105 217.62L49.457 213.789" stroke="#263238" stroke-miterlimit="10"/>
<path d="M72.5954 419.938C72.5954 419.938 74.6436 341.124 72.5954 317.189C70.5471 293.255 60.9673 265.222 60.9673 265.222L51.2168 221.675" stroke="#263238" stroke-miterlimit="10"/>
<path d="M113.251 234.533L115.022 230.756" stroke="#263238" stroke-miterlimit="10"/>
<path d="M77.375 419.853C77.375 419.853 78.0684 347.964 80.7994 327.455C83.5304 306.946 94.4757 274.795 94.4757 274.795L111.299 238.823" stroke="#263238" stroke-miterlimit="10"/>
<path d="M89.0033 332.235C89.0033 332.235 84.2134 373.457 81.4824 419.96" stroke="#263238" stroke-miterlimit="10"/>
<path d="M65.7572 419.853C65.7572 419.853 67.1227 354.121 64.3917 345.232C61.6607 336.343 57.0734 340.26 57.0734 340.26C57.0734 340.26 44.4105 341.743 39.834 349.084" stroke="#263238" stroke-miterlimit="10"/>
<path d="M68.8936 335.853C72.478 355.892 69.1709 419.928 69.1709 419.928" stroke="#263238" stroke-miterlimit="10"/>
<path d="M102.562 288.741C98.6042 291.452 94.7957 295.827 92.1714 302.837C83.9678 324.713 84.8959 419.96 84.8959 419.96" stroke="#263238" stroke-miterlimit="10"/>
<path d="M50.7373 270.921C55.8758 277.128 59.812 284.239 62.3441 291.889C73.2787 323.336 77.3753 404.807 75.327 419.853" stroke="#263238" stroke-miterlimit="10"/>
<path d="M78.5165 300.361C77.8551 340.067 77.375 419.874 77.375 419.874" stroke="#263238" stroke-miterlimit="10"/>
<path d="M78.6016 295.421C79.0496 269.171 79.5831 243.476 80.1165 229.657C81.482 194.102 83.6048 196.097 83.6048 196.097C83.6048 196.097 86.1332 188.105 100.354 189.023" stroke="#263238" stroke-miterlimit="10"/>
<path d="M61.0959 325.406C61.0959 325.406 49.6491 315.205 54.2257 310.179C58.8023 305.153 87.1684 301.482 95.4041 308.045C103.64 314.607 85.3442 323.763 78.4847 325.769C71.6251 327.775 63.3788 327.071 61.0959 325.406Z" fill="#014999" stroke="#263238" stroke-linecap="round" stroke-linejoin="round"/>
<path d="M71.6565 317.051C71.494 318.057 71.4084 319.073 71.4004 320.092" stroke="#263238" stroke-miterlimit="10"/>
<path d="M75.5938 305.195C74.4153 307.64 73.4308 310.173 72.6494 312.772" stroke="#263238" stroke-miterlimit="10"/>
<path d="M61.0959 392.109C61.0959 392.109 49.6491 381.908 54.2257 376.893C58.8023 371.877 87.1684 368.196 95.4041 374.759C103.64 381.321 85.3442 390.487 78.4847 392.493C71.6251 394.5 63.3788 393.763 61.0959 392.109Z" fill="#014999" stroke="#263238" stroke-linecap="round" stroke-linejoin="round"/>
<path d="M75.593 371.846C75.593 371.846 71.4004 380.222 71.4004 386.785" stroke="#263238" stroke-miterlimit="10"/>
<path d="M69.6084 363.885C69.6084 363.885 61.8421 356.959 64.9465 353.555C68.0508 350.151 87.3492 347.644 92.9072 352.083C98.4653 356.522 86.069 362.753 81.4071 364.119C76.7452 365.485 71.1659 365.037 69.6084 363.885Z" fill="#E43B5C" stroke="#263238" stroke-linecap="round" stroke-linejoin="round"/>
<path d="M79.4548 350.141C79.4548 350.141 76.6064 355.828 76.6064 360.299" stroke="#263238" stroke-miterlimit="10"/>
<path d="M89.8247 408.51H58.8662V477.187H89.8247V408.51Z" fill="white" stroke="#263238" stroke-linecap="round" stroke-linejoin="round"/>
<path d="M262.368 342.521H165.204C162.629 342.521 160.542 344.609 160.542 347.185V431.495C160.542 434.07 162.629 436.158 165.204 436.158H262.368C264.943 436.158 267.03 434.07 267.03 431.495V347.185C267.03 344.609 264.943 342.521 262.368 342.521Z" fill="#263238" stroke="#263238" stroke-linecap="round" stroke-linejoin="round"/>
<path d="M258.986 337.453H161.822C159.247 337.453 157.16 339.541 157.16 342.116V426.426C157.16 429.002 159.247 431.089 161.822 431.089H258.986C261.561 431.089 263.648 429.002 263.648 426.426V342.116C263.648 339.541 261.561 337.453 258.986 337.453Z" fill="white" stroke="#263238" stroke-linecap="round" stroke-linejoin="round"/>
<path d="M263.659 349.287V342.116C263.659 341.503 263.538 340.896 263.303 340.329C263.068 339.763 262.723 339.248 262.289 338.815C261.855 338.382 261.34 338.039 260.773 337.805C260.207 337.571 259.599 337.452 258.986 337.453H161.833C161.22 337.452 160.613 337.571 160.047 337.805C159.481 338.039 158.966 338.382 158.533 338.816C158.1 339.249 157.757 339.764 157.523 340.33C157.289 340.896 157.17 341.504 157.171 342.116V349.287H263.659Z" fill="#E43B5C" stroke="#263238" stroke-linecap="round" stroke-linejoin="round"/>
<path d="M235.559 346.523C237.132 346.523 238.408 345.248 238.408 343.674C238.408 342.101 237.132 340.825 235.559 340.825C233.986 340.825 232.711 342.101 232.711 343.674C232.711 345.248 233.986 346.523 235.559 346.523Z" fill="white" stroke="#263238" stroke-linecap="round" stroke-linejoin="round"/>
<path d="M247.444 343.674C247.444 343.111 247.277 342.56 246.964 342.091C246.651 341.623 246.206 341.258 245.685 341.042C245.165 340.826 244.592 340.77 244.04 340.88C243.487 340.99 242.98 341.261 242.581 341.66C242.183 342.058 241.912 342.566 241.802 343.118C241.692 343.671 241.748 344.244 241.964 344.765C242.179 345.285 242.545 345.73 243.013 346.043C243.481 346.356 244.032 346.523 244.595 346.523C244.97 346.525 245.341 346.452 245.687 346.309C246.033 346.167 246.348 345.957 246.613 345.692C246.877 345.427 247.087 345.113 247.23 344.766C247.372 344.42 247.445 344.049 247.444 343.674Z" fill="white" stroke="#263238" stroke-linecap="round" stroke-linejoin="round"/>
<path d="M253.621 346.523C255.194 346.523 256.469 345.248 256.469 343.674C256.469 342.101 255.194 340.825 253.621 340.825C252.048 340.825 250.772 342.101 250.772 343.674C250.772 345.248 252.048 346.523 253.621 346.523Z" fill="white" stroke="#263238" stroke-linecap="round" stroke-linejoin="round"/>
<path d="M250.463 355.711H171.637C170.99 355.714 170.37 355.972 169.913 356.43C169.455 356.887 169.197 357.507 169.194 358.155V388.033L174.891 379.123H250.463C251.111 379.123 251.732 378.865 252.19 378.407C252.649 377.949 252.906 377.327 252.906 376.679V358.112C252.892 357.472 252.629 356.863 252.172 356.415C251.716 355.966 251.103 355.714 250.463 355.711Z" stroke="#263238" stroke-miterlimit="10"/>
<path d="M171.637 393.123H250.463C251.11 393.126 251.73 393.384 252.187 393.842C252.645 394.3 252.903 394.919 252.906 395.567V425.445L247.22 416.535H171.637C170.989 416.535 170.368 416.277 169.91 415.819C169.452 415.361 169.194 414.739 169.194 414.091V395.524C169.208 394.884 169.471 394.275 169.928 393.827C170.384 393.378 170.998 393.126 171.637 393.123Z" stroke="#263238" stroke-miterlimit="10"/>
<path d="M183.585 374.417C187.521 374.417 190.711 371.226 190.711 367.289C190.711 363.353 187.521 360.161 183.585 360.161C179.649 360.161 176.459 363.353 176.459 367.289C176.459 371.226 179.649 374.417 183.585 374.417Z" fill="#E43B5C" stroke="#263238" stroke-linecap="round" stroke-linejoin="round"/>
<path d="M183.585 368.174C185.223 368.174 186.551 366.846 186.551 365.208C186.551 363.569 185.223 362.241 183.585 362.241C181.947 362.241 180.619 363.569 180.619 365.208C180.619 366.846 181.947 368.174 183.585 368.174Z" fill="white" stroke="#263238" stroke-linecap="round" stroke-linejoin="round"/>
<path d="M183.596 374.417C185.092 374.42 186.549 373.945 187.757 373.062C187.757 371.958 187.318 370.9 186.538 370.119C185.758 369.339 184.7 368.9 183.596 368.9C182.493 368.9 181.434 369.339 180.654 370.119C179.874 370.9 179.436 371.958 179.436 373.062C180.642 373.946 182.1 374.421 183.596 374.417Z" fill="white" stroke="#263238" stroke-linecap="round" stroke-linejoin="round"/>
<path d="M195.768 361.355H219.973" stroke="#263238" stroke-miterlimit="10"/>
<path d="M196.27 368.249H246.206" stroke="#263238" stroke-miterlimit="10"/>
<path d="M196.27 372.624H246.206" stroke="#263238" stroke-miterlimit="10"/>
<path d="M183.585 412.597C187.521 412.597 190.711 409.406 190.711 405.469C190.711 401.532 187.521 398.341 183.585 398.341C179.649 398.341 176.459 401.532 176.459 405.469C176.459 409.406 179.649 412.597 183.585 412.597Z" fill="#014999" stroke="#263238" stroke-linecap="round" stroke-linejoin="round"/>
<path d="M183.585 406.355C185.223 406.355 186.551 405.027 186.551 403.388C186.551 401.75 185.223 400.422 183.585 400.422C181.947 400.422 180.619 401.75 180.619 403.388C180.619 405.027 181.947 406.355 183.585 406.355Z" fill="white" stroke="#263238" stroke-linecap="round" stroke-linejoin="round"/>
<path d="M183.596 412.597C185.091 412.594 186.547 412.12 187.757 411.242C187.757 410.138 187.318 409.079 186.538 408.299C185.758 407.519 184.7 407.08 183.596 407.08C182.493 407.08 181.434 407.519 180.654 408.299C179.874 409.079 179.436 410.138 179.436 411.242C180.645 412.121 182.101 412.596 183.596 412.597Z" fill="white" stroke="#263238" stroke-linecap="round" stroke-linejoin="round"/>
<path d="M195.768 399.536H219.973" stroke="#263238" stroke-miterlimit="10"/>
<path d="M196.27 406.43H246.206" stroke="#263238" stroke-miterlimit="10"/>
<path d="M196.27 410.805H246.206" stroke="#263238" stroke-miterlimit="10"/>
<path d="M125.338 228.601H261.12C261.703 228.601 262.262 228.832 262.674 229.244C263.086 229.657 263.318 230.216 263.318 230.799V303.883C263.318 304.859 262.93 305.796 262.24 306.486C261.55 307.177 260.613 307.565 259.637 307.565H126.821C125.845 307.565 124.909 307.177 124.219 306.486C123.528 305.796 123.141 304.859 123.141 303.883V230.799C123.141 230.216 123.372 229.657 123.784 229.244C124.196 228.832 124.755 228.601 125.338 228.601Z" fill="#263238" stroke="#263238" stroke-linecap="round" stroke-linejoin="round"/>
<path d="M125.338 228.601H261.12C261.703 228.601 262.262 228.832 262.674 229.244C263.086 229.657 263.318 230.216 263.318 230.799V241.47H123.141V230.799C123.141 230.216 123.372 229.657 123.784 229.244C124.196 228.832 124.755 228.601 125.338 228.601Z" fill="#263238" stroke="#263238" stroke-linecap="round" stroke-linejoin="round"/>
<path d="M234.621 238.076C236.194 238.076 237.469 236.801 237.469 235.227C237.469 233.654 236.194 232.378 234.621 232.378C233.048 232.378 231.772 233.654 231.772 235.227C231.772 236.801 233.048 238.076 234.621 238.076Z" fill="#263238" stroke="#263238" stroke-linecap="round" stroke-linejoin="round"/>
<path d="M243.646 238.076C245.219 238.076 246.495 236.801 246.495 235.227C246.495 233.654 245.219 232.378 243.646 232.378C242.073 232.378 240.798 233.654 240.798 235.227C240.798 236.801 242.073 238.076 243.646 238.076Z" fill="#263238" stroke="#263238" stroke-linecap="round" stroke-linejoin="round"/>
<path d="M252.681 238.076C254.254 238.076 255.53 236.801 255.53 235.227C255.53 233.654 254.254 232.378 252.681 232.378C251.108 232.378 249.833 233.654 249.833 235.227C249.833 236.801 251.108 238.076 252.681 238.076Z" fill="#263238" stroke="#263238" stroke-linecap="round" stroke-linejoin="round"/>
<path d="M166.954 253.783H138.172V281.293H166.954V253.783Z" fill="#263238" stroke="#263238" stroke-miterlimit="10"/>
<path d="M176.555 256.984H252.041" stroke="#263238" stroke-miterlimit="10"/>
<path d="M176.555 265.948H252.041" stroke="#263238" stroke-miterlimit="10"/>
<path d="M176.555 274.901H252.041" stroke="#263238" stroke-miterlimit="10"/>
<path d="M176.555 283.864H252.041" stroke="#263238" stroke-miterlimit="10"/>
<path d="M121.956 223.532H257.738C258.321 223.532 258.88 223.764 259.292 224.176C259.704 224.588 259.936 225.147 259.936 225.73V298.783C259.936 299.759 259.548 300.695 258.858 301.386C258.168 302.076 257.232 302.464 256.256 302.464H123.439C122.463 302.464 121.527 302.076 120.837 301.386C120.147 300.695 119.759 299.759 119.759 298.783V225.73C119.759 225.147 119.99 224.588 120.402 224.176C120.815 223.764 121.374 223.532 121.956 223.532Z" fill="white" stroke="#263238" stroke-linecap="round" stroke-linejoin="round"/>
<path d="M121.956 223.532H257.738C258.321 223.532 258.88 223.764 259.292 224.176C259.704 224.588 259.936 225.147 259.936 225.73V236.401H119.759V225.73C119.759 225.147 119.99 224.588 120.402 224.176C120.815 223.764 121.374 223.532 121.956 223.532Z" fill="#E43B5C" stroke="#263238" stroke-linecap="round" stroke-linejoin="round"/>
<path d="M231.239 233.008C232.812 233.008 234.087 231.732 234.087 230.159C234.087 228.585 232.812 227.31 231.239 227.31C229.666 227.31 228.391 228.585 228.391 230.159C228.391 231.732 229.666 233.008 231.239 233.008Z" fill="white" stroke="#263238" stroke-linecap="round" stroke-linejoin="round"/>
<path d="M240.264 233.008C241.837 233.008 243.113 231.732 243.113 230.159C243.113 228.585 241.837 227.31 240.264 227.31C238.691 227.31 237.416 228.585 237.416 230.159C237.416 231.732 238.691 233.008 240.264 233.008Z" fill="white" stroke="#263238" stroke-linecap="round" stroke-linejoin="round"/>
<path d="M249.3 233.008C250.873 233.008 252.148 231.732 252.148 230.159C252.148 228.585 250.873 227.31 249.3 227.31C247.726 227.31 246.451 228.585 246.451 230.159C246.451 231.732 247.726 233.008 249.3 233.008Z" fill="white" stroke="#263238" stroke-linecap="round" stroke-linejoin="round"/>
<path d="M163.583 248.715H134.801V276.224H163.583V248.715Z" stroke="#263238" stroke-miterlimit="10"/>
<path d="M173.173 251.916H248.659" stroke="#263238" stroke-miterlimit="10"/>
<path d="M173.173 260.88H248.659" stroke="#263238" stroke-miterlimit="10"/>
<path d="M173.173 269.832H248.659" stroke="#263238" stroke-miterlimit="10"/>
<path d="M173.173 278.796H248.659" stroke="#263238" stroke-miterlimit="10"/>
<path d="M118.084 57.1631H20.9197C18.345 57.1631 16.2578 59.2508 16.2578 61.8262V146.136C16.2578 148.712 18.345 150.799 20.9197 150.799H118.084C120.658 150.799 122.746 148.712 122.746 146.136V61.8262C122.746 59.2508 120.658 57.1631 118.084 57.1631Z" fill="#263238" stroke="#263238" stroke-linecap="round" stroke-linejoin="round"/>
<path d="M114.702 52.0947H17.5379C14.9632 52.0947 12.876 54.1825 12.876 56.7579V141.068C12.876 143.643 14.9632 145.731 17.5379 145.731H114.702C117.276 145.731 119.364 143.643 119.364 141.068V56.7579C119.364 54.1825 117.276 52.0947 114.702 52.0947Z" fill="white" stroke="#263238" stroke-linecap="round" stroke-linejoin="round"/>
<path d="M36.2608 89.5811H26.4355V135.007H36.2608V89.5811Z" fill="#014999" stroke="#263238" stroke-linecap="round" stroke-linejoin="round"/>
<path d="M50.1719 96.9551H40.3467V135.018H50.1719V96.9551Z" fill="#E43B5C" stroke="#263238" stroke-linecap="round" stroke-linejoin="round"/>
<path d="M64.083 103.091H54.2578V135.018H64.083V103.091Z" fill="white" stroke="#263238" stroke-linecap="round" stroke-linejoin="round"/>
<path d="M77.9932 84.2676H68.168V135.018H77.9932V84.2676Z" fill="#014999" stroke="#263238" stroke-linecap="round" stroke-linejoin="round"/>
<path d="M91.9043 90.4033H82.0791V135.018H91.9043V90.4033Z" fill="#E43B5C" stroke="#263238" stroke-linecap="round" stroke-linejoin="round"/>
<path d="M105.815 69.1152H95.9902V135.007H105.815V69.1152Z" fill="white" stroke="#263238" stroke-linecap="round" stroke-linejoin="round"/>
<path d="M27.0967 64.3877H36.9219" stroke="#263238" stroke-miterlimit="10"/>
<path d="M27.0967 68.4746H36.9219" stroke="#263238" stroke-miterlimit="10"/>
<path d="M27.0967 72.5723H36.9219" stroke="#263238" stroke-miterlimit="10"/>
<path d="M40.1865 64.3877H79.8821" stroke="#263238" stroke-miterlimit="10"/>
<path d="M40.1865 68.4746H79.8821" stroke="#263238" stroke-miterlimit="10"/>
<path d="M40.1865 72.5723H79.8821" stroke="#263238" stroke-miterlimit="10"/>
<path d="M383.162 59.6924H285.998C283.423 59.6924 281.336 61.7801 281.336 64.3555V148.666C281.336 151.241 283.423 153.329 285.998 153.329H383.162C385.736 153.329 387.824 151.241 387.824 148.666V64.3555C387.824 61.7801 385.736 59.6924 383.162 59.6924Z" fill="#263238" stroke="#263238" stroke-linecap="round" stroke-linejoin="round"/>
<path d="M379.78 54.624H282.616C280.041 54.624 277.954 56.7118 277.954 59.2872V143.597C277.954 146.173 280.041 148.26 282.616 148.26H379.78C382.355 148.26 384.442 146.173 384.442 143.597V59.2872C384.442 56.7118 382.355 54.624 379.78 54.624Z" fill="white" stroke="#263238" stroke-linecap="round" stroke-linejoin="round"/>
<path d="M328.584 129.394C345.081 129.394 358.455 116.017 358.455 99.5159C358.455 83.0146 345.081 69.6377 328.584 69.6377C312.087 69.6377 298.714 83.0146 298.714 99.5159C298.714 116.017 312.087 129.394 328.584 129.394Z" fill="white" stroke="#263238" stroke-linecap="round" stroke-linejoin="round"/>
<path d="M357.58 92.3135C356.308 87.1727 353.692 82.4625 350.002 78.6653C346.311 74.868 341.678 72.1203 336.576 70.7034C331.475 69.2865 326.088 69.2515 320.969 70.6018C315.849 71.9521 311.18 74.6393 307.44 78.3881L328.563 99.5163L357.58 92.3135Z" fill="#014999" stroke="#263238" stroke-linecap="round" stroke-linejoin="round"/>
<path d="M357.58 92.3135L328.595 99.5163L319.965 128.125C325.016 129.649 330.381 129.808 335.514 128.585C340.646 127.362 345.363 124.801 349.185 121.162C353.007 117.524 355.797 112.937 357.272 107.87C358.746 102.803 358.853 97.4353 357.58 92.3135Z" fill="#E43B5C" stroke="#263238" stroke-linecap="round" stroke-linejoin="round"/>
<path d="M340.458 80.6925L350.273 68.0049H356.417" stroke="#263238" stroke-miterlimit="10"/>
<path d="M362.135 68.4102H371.96" stroke="#263238" stroke-miterlimit="10"/>
<path d="M362.135 72.5078H371.96" stroke="#263238" stroke-miterlimit="10"/>
<path d="M362.135 76.5947H371.96" stroke="#263238" stroke-miterlimit="10"/>
<path d="M362.135 121.615H371.96" stroke="#263238" stroke-miterlimit="10"/>
<path d="M362.135 125.713H371.96" stroke="#263238" stroke-miterlimit="10"/>
<path d="M362.135 129.8H371.96" stroke="#263238" stroke-miterlimit="10"/>
<path d="M286.029 120.793H295.854" stroke="#263238" stroke-miterlimit="10"/>
<path d="M286.029 124.891H295.854" stroke="#263238" stroke-miterlimit="10"/>
<path d="M286.029 128.988H295.854" stroke="#263238" stroke-miterlimit="10"/>
<path d="M311.814 119.566L308.134 128.989H298.309" stroke="#263238" stroke-miterlimit="10"/>
<path d="M351.499 108.105H367.864V113.43" stroke="#263238" stroke-miterlimit="10"/>
<path d="M255.402 60.0449H158.238C155.663 60.0449 153.576 62.1327 153.576 64.7081V149.018C153.576 151.593 155.663 153.681 158.238 153.681H255.402C257.977 153.681 260.064 151.593 260.064 149.018V64.7081C260.064 62.1327 257.977 60.0449 255.402 60.0449Z" fill="#263238" stroke="#263238" stroke-linecap="round" stroke-linejoin="round"/>
<path d="M250.889 54.624H153.725C151.151 54.624 149.063 56.7118 149.063 59.2872V143.597C149.063 146.173 151.151 148.26 153.725 148.26H250.889C253.464 148.26 255.551 146.173 255.551 143.597V59.2872C255.551 56.7118 253.464 54.624 250.889 54.624Z" fill="white" stroke="#263238" stroke-linecap="round" stroke-linejoin="round"/>
<path d="M160.115 130.536V134.154" stroke="#263238" stroke-miterlimit="10"/>
<path d="M168.789 130.536V134.154" stroke="#263238" stroke-miterlimit="10"/>
<path d="M177.462 130.536V134.154" stroke="#263238" stroke-miterlimit="10"/>
<path d="M186.135 130.536V134.154" stroke="#263238" stroke-miterlimit="10"/>
<path d="M194.808 130.536V134.154" stroke="#263238" stroke-miterlimit="10"/>
<path d="M203.471 130.536V134.154" stroke="#263238" stroke-miterlimit="10"/>
<path d="M212.144 130.536V134.154" stroke="#263238" stroke-miterlimit="10"/>
<path d="M220.816 130.536V134.154" stroke="#263238" stroke-miterlimit="10"/>
<path d="M229.489 130.536V134.154" stroke="#263238" stroke-miterlimit="10"/>
<path d="M238.162 130.536V134.154" stroke="#263238" stroke-miterlimit="10"/>
<path d="M246.836 130.536V134.154" stroke="#263238" stroke-miterlimit="10"/>
<path d="M243.23 79.9345L233.831 84.9925L226.235 69.8079L216.485 82.4635L207.812 74.8766L199.501 65.4756L190.828 75.5915L182.155 100.177L172.757 91.1389L163.358 98.0002V120.782H243.23V79.9345Z" fill="#E43B5C" stroke="#263238" stroke-linecap="round" stroke-linejoin="round"/>
<path d="M163.583 65.2734H173.398" stroke="#263238" stroke-miterlimit="10"/>
<path d="M163.583 69.3604H173.398" stroke="#263238" stroke-miterlimit="10"/>
<path d="M163.583 73.458H173.398" stroke="#263238" stroke-miterlimit="10"/>
<path d="M243.23 99.9532L233.831 103.432L226.235 86.54L216.485 98.3633L207.812 95.4715L199.501 113.548L190.828 89.3358L182.155 113.548L172.757 104.51L163.358 116.44V125.115H243.23V99.9532Z" fill="#014999" stroke="#263238" stroke-linecap="round" stroke-linejoin="round"/>
<path d="M328.126 106.815C328.126 106.815 324.574 97.4458 314.46 98.4595C304.347 99.4732 299.781 107.572 301.552 112.886C302.283 115.324 303.215 117.698 304.336 119.983C304.336 119.983 301.04 118.457 302.053 123.771C303.067 129.085 310.662 128.039 311.921 127.569C313.18 127.1 318.759 112.886 328.126 106.815Z" fill="#263238" stroke="#263238" stroke-linecap="round" stroke-linejoin="round"/>
<path d="M263.669 197.644L245.715 206.629C245.392 206.793 245.12 207.041 244.926 207.348C244.733 207.654 244.627 208.007 244.618 208.37C244.609 208.732 244.698 209.09 244.877 209.405C245.055 209.72 245.315 209.982 245.63 210.161L293.572 237.126C293.972 237.353 294.44 237.433 294.893 237.354C295.347 237.274 295.758 237.039 296.057 236.689L307.312 223.585C307.506 223.361 307.648 223.097 307.727 222.811C307.805 222.526 307.819 222.226 307.767 221.934C307.715 221.643 307.598 221.366 307.425 221.126C307.252 220.885 307.028 220.686 306.768 220.544L265.547 197.687C265.261 197.527 264.941 197.44 264.614 197.432C264.286 197.425 263.962 197.498 263.669 197.644Z" fill="#263238" stroke="#263238" stroke-linecap="round" stroke-linejoin="round"/>
<path d="M307.473 213.843L299.909 208.935C299.909 208.935 294.255 202.532 292.121 201.465C289.988 200.398 275.735 202.959 275.735 202.959L307.078 220.694L307.473 213.843Z" fill="white" stroke="#263238" stroke-linecap="round" stroke-linejoin="round"/>
<path d="M292.025 206.096C292.025 206.096 286.457 206.342 283.022 204.88C279.587 203.418 277.613 204.101 279.405 207.014C281.197 209.927 286.755 209.65 286.755 209.65C286.755 209.65 291.62 215.561 297.509 213.246" fill="white"/>
<path d="M292.025 206.096C292.025 206.096 286.457 206.342 283.022 204.88C279.587 203.418 277.613 204.101 279.405 207.014C281.197 209.927 286.755 209.65 286.755 209.65C286.755 209.65 291.62 215.561 297.509 213.246" stroke="#263238" stroke-linecap="round" stroke-linejoin="round"/>
<path d="M368.653 460.989C368.653 460.989 371.854 473.165 371.566 475.277C371.278 477.39 364.685 479.247 360.983 479.247C357.254 479.456 353.541 479.898 349.867 480.57L350.134 460.989H368.653Z" fill="white" stroke="#263238" stroke-linecap="round" stroke-linejoin="round"/>
<path d="M371.597 475.256C371.602 474.179 371.484 473.105 371.245 472.055C368.664 473.464 365.948 474.611 363.138 475.48C358.636 476.761 352.224 476.835 349.952 476.814V480.506C353.626 479.834 357.339 479.392 361.068 479.183C364.685 479.225 371.299 477.379 371.597 475.256Z" fill="white" stroke="#263238" stroke-linecap="round" stroke-linejoin="round"/>
<path d="M346.165 343.984C346.165 343.984 349.61 372.796 350.933 378.398C352.256 384 358.87 393.476 361.516 408.276C364.162 423.076 369.186 457.5 369.186 458.301C369.186 459.101 369.72 461.502 369.976 463.06C369.976 463.06 364.162 465.439 359.926 464.917C357.248 464.566 354.596 464.035 351.989 463.327C351.989 463.327 353.835 451.952 349.856 431.57C345.877 411.189 341.919 390.018 339.54 375.196C337.161 360.375 346.165 343.984 346.165 343.984Z" fill="#999999" stroke="#263238" stroke-linecap="round" stroke-linejoin="round"/>
<path d="M332.67 457.788C330.955 460.262 328.909 462.488 326.589 464.404C322.087 468.374 313.627 472.61 311.238 473.666C308.848 474.723 306.971 474.733 307.536 477.113C308.101 479.492 312.038 481.381 323.943 481.381C335.849 481.381 348.544 480.848 349.866 480.581C351.189 480.314 355.2 480.314 355.2 477.38C355.2 474.445 353.878 462.814 353.878 462.814L332.67 457.788Z" fill="white" stroke="#263238" stroke-linecap="round" stroke-linejoin="round"/>
<path d="M349.867 480.549C351.19 480.282 355.201 480.282 355.201 477.347C355.201 476.91 355.201 476.28 355.126 475.555C350.603 476.142 340.33 477.422 328.744 478.404C321.593 479.168 314.361 478.442 307.505 476.27C307.491 476.556 307.516 476.843 307.579 477.123C308.113 479.503 312.081 481.392 323.987 481.392C335.892 481.392 348.544 480.815 349.867 480.549Z" fill="white" stroke="#263238" stroke-linecap="round" stroke-linejoin="round"/>
<path d="M304.624 283.118C304.61 297.987 305.493 312.843 307.27 327.605C310.182 351.155 318.653 379.742 318.653 379.742C318.653 379.742 322.92 402.759 324.211 410.687C325.501 418.616 332.414 449.86 332.414 449.86L329.502 453.829L330.025 460.712L340.661 463.124C344.987 464.203 349.431 464.737 353.889 464.714C353.889 464.714 354.422 450.948 354.156 449.102C353.889 447.256 352.31 438.517 352.022 435.604C351.734 432.691 352.545 400.39 350.699 392.995C348.854 385.6 345.675 374.727 345.675 365.198C345.675 355.669 352.811 309.091 352.811 309.091C352.811 309.091 360.492 298.249 360.492 291.889C360.577 288.693 360.309 285.498 359.692 282.36L304.624 283.118Z" fill="#BDBDBD" stroke="#263238" stroke-linecap="round" stroke-linejoin="round"/>
<path d="M342.143 440.886C342.73 446.733 342.986 450.628 342.986 450.628C342.986 450.628 341.29 451.471 342.132 454.448C342.975 457.425 343.413 459.56 343.413 459.56" stroke="#263238" stroke-width="0.75" stroke-linecap="round" stroke-linejoin="round"/>
<path d="M325.042 313.22C324.162 326.57 324.619 339.976 326.408 353.235C330.675 383.007 337.886 409.79 340.009 423.833C340.649 428.102 341.172 432.167 341.599 435.849" stroke="#263238" stroke-width="0.75" stroke-linecap="round" stroke-linejoin="round"/>
<path d="M326.792 296.243C326.792 296.243 325.981 300.928 325.341 308.525" stroke="#263238" stroke-width="0.75" stroke-linecap="round" stroke-linejoin="round"/>
<path d="M355.702 115.426C355.702 115.426 358.999 102.259 378.734 103.774C398.47 105.289 398.267 123.269 398.267 123.269L394 121.242C394 121.242 397.542 131.625 393.499 139.211C389.456 146.798 379.065 151.109 372.238 149.882C365.41 148.655 358.07 142.285 357.057 138.742C356.044 135.199 359.756 122.725 355.702 115.426Z" fill="#263238" stroke="#263238" stroke-linecap="round" stroke-linejoin="round"/>
<path d="M316.476 113.901C316.476 113.901 314.961 116.43 311.921 121.754C308.881 127.079 310.15 131.87 308.134 134.41C306.118 136.949 300.538 136.683 301.296 139.212C302.053 141.741 305.35 143.48 305.35 143.48C305.35 143.48 305.35 157.651 306.864 159.422C308.379 161.194 320.029 158.152 320.029 158.152C320.029 158.152 322.301 161.695 320.786 169.549C319.271 177.402 305.595 199.16 303.824 210.098C302.053 221.035 308.091 248.064 308.091 248.064L302.267 287.546C312.598 291.052 323.532 292.428 334.409 291.591C351.862 290.075 362.498 286.533 362.498 286.533L350.849 240.712C350.849 240.712 351.862 208.316 349.59 190.346C347.317 172.377 341.493 168.066 341.493 161.535C341.493 155.004 349.846 151.408 355.158 145.081C358.078 141.159 359.859 136.508 360.305 131.639C360.752 126.77 359.845 121.873 357.687 117.486C353.537 108.533 340.223 105.086 331.113 104.83C322.002 104.574 316.476 113.901 316.476 113.901Z" fill="white" stroke="#263238" stroke-linecap="round" stroke-linejoin="round"/>
<path d="M320.028 158.195L325.576 156.957L322.109 163.872C321.706 161.885 321.005 159.971 320.028 158.195Z" fill="#263238" stroke="#263238" stroke-linecap="round" stroke-linejoin="round"/>
<path d="M362.541 286.532L350.891 240.712C350.891 240.712 351.905 208.315 349.632 190.346C349.156 186.374 348.353 182.448 347.232 178.608C343.52 175.716 337.77 172.067 331.913 171.619C325.128 171.096 318.333 178.96 314.759 183.922C310.31 192.971 304.902 203.514 303.824 210.087C302.053 220.971 308.091 248.053 308.091 248.053L302.267 287.535C312.598 291.041 323.532 292.417 334.409 291.58C351.905 290.075 362.541 286.532 362.541 286.532Z" fill="#E43B5C" stroke="#263238" stroke-linecap="round" stroke-linejoin="round"/>
<path d="M331.155 104.787C322.044 104.542 316.476 113.9 316.476 113.9C316.476 113.9 315.686 115.223 314.107 117.955C315.686 116.077 321.426 109.92 323.815 116.429C325.213 120.238 321.799 125.542 323.57 127.313C325.341 129.084 328.904 133.139 328.37 133.897C327.985 134.694 327.73 135.548 327.613 136.426C327.613 136.426 332.168 129.853 335.71 133.897C339.252 137.941 334.451 145.539 334.451 145.539L331.411 146.606C331.411 146.606 341.279 157.746 343.05 157.746C343.54 157.746 344.821 153.947 347.103 153.19C349.988 150.682 352.693 147.975 355.2 145.091C358.12 141.169 359.901 136.518 360.348 131.649C360.794 126.78 359.887 121.883 357.729 117.496C353.579 108.49 340.265 105.043 331.155 104.787Z" fill="#263238" stroke="#263238" stroke-linecap="round" stroke-linejoin="round"/>
<path d="M313.926 133.727C313.649 135.028 312.977 135.989 312.433 135.861C311.888 135.733 311.675 134.591 311.953 133.3C312.23 132.009 312.891 131.038 313.435 131.166C313.979 131.294 314.203 132.435 313.926 133.727Z" fill="#263238"/>
<path d="M311.921 127.569C311.921 127.569 314.705 124.528 316.476 128.327" stroke="#263238" stroke-linecap="round" stroke-linejoin="round"/>
<path d="M307.365 146.553C307.365 146.553 307.877 147.569 310.662 146.553" stroke="#263238" stroke-linecap="round" stroke-linejoin="round"/>
<path d="M324.071 185.277C324.071 185.277 320.274 190.613 318.737 200.473C317.201 210.332 318.481 242.484 318.481 242.484C318.481 242.484 296.975 236.412 289.891 232.88C286.685 231.354 283.559 229.665 280.525 227.822C280.525 227.822 278.252 222.486 276.482 220.48C274.711 218.474 269.899 217.941 268.129 216.681C266.358 215.422 265.088 211.346 262.795 212.883C262.411 213.08 262.086 213.374 261.85 213.736C261.615 214.097 261.478 214.513 261.452 214.944C261.426 215.375 261.513 215.804 261.703 216.191C261.894 216.578 262.182 216.909 262.539 217.151C263.605 217.909 267.35 221.707 267.35 221.707L257.749 217.439C257.749 217.439 256.991 221.238 258.261 222.497C259.53 223.756 262.048 226.05 262.048 226.05C262.048 226.05 265.846 231.386 268.129 232.624C270.406 233.686 272.777 234.533 275.212 235.153C277.484 235.91 279.757 237.852 281.784 239.08C286.051 241.697 290.353 244.312 294.692 246.923C301.367 250.941 308.434 254.269 315.782 256.857C320.391 258.479 331.667 263.43 335.667 258.468C337.396 256.334 336.862 249.932 337.31 247.264C340.137 230.287 343.786 213.203 343.786 195.927" fill="#E43B5C"/>
<path d="M324.071 185.277C324.071 185.277 320.274 190.613 318.737 200.473C317.201 210.332 318.481 242.484 318.481 242.484C318.481 242.484 296.975 236.412 289.891 232.88C286.685 231.354 283.559 229.665 280.525 227.822C280.525 227.822 278.252 222.486 276.482 220.48C274.711 218.474 269.899 217.941 268.129 216.681C266.358 215.422 265.088 211.346 262.795 212.883C262.411 213.08 262.086 213.374 261.85 213.736C261.615 214.097 261.478 214.513 261.452 214.944C261.426 215.375 261.513 215.804 261.703 216.191C261.894 216.578 262.182 216.909 262.539 217.151C263.605 217.909 267.35 221.707 267.35 221.707L257.749 217.439C257.749 217.439 256.991 221.238 258.261 222.497C259.53 223.756 262.048 226.05 262.048 226.05C262.048 226.05 265.846 231.386 268.129 232.624C270.406 233.686 272.777 234.533 275.212 235.153C277.484 235.91 279.757 237.852 281.784 239.08C286.051 241.697 290.353 244.312 294.692 246.923C301.367 250.941 308.434 254.269 315.782 256.857C320.391 258.479 331.667 263.43 335.667 258.468C337.396 256.334 336.862 249.932 337.31 247.264C340.137 230.287 343.786 213.203 343.786 195.927" stroke="#263238" stroke-linecap="round" stroke-linejoin="round"/>
<path d="M310.791 240.232C303.888 238.097 294.191 235.035 289.871 232.869C286.665 231.343 283.539 229.654 280.504 227.811C280.504 227.811 278.232 222.475 276.461 220.469C274.69 218.463 269.879 217.93 268.108 216.67C266.337 215.411 265.068 211.335 262.774 212.872C262.391 213.069 262.065 213.363 261.83 213.725C261.595 214.086 261.457 214.502 261.431 214.933C261.406 215.363 261.492 215.793 261.683 216.18C261.873 216.567 262.161 216.898 262.518 217.14C263.585 217.898 267.329 221.696 267.329 221.696L257.728 217.428C257.728 217.428 256.971 221.227 258.24 222.486C259.51 223.745 262.027 226.039 262.027 226.039C262.027 226.039 265.825 231.375 268.108 232.613C270.385 233.675 272.757 234.522 275.192 235.142C277.464 235.899 279.736 237.841 281.763 239.068C286.03 241.686 290.333 244.301 294.671 246.911C298.832 249.413 303.147 251.647 307.59 253.602L310.791 240.232Z" fill="white" stroke="#263238" stroke-linecap="round" stroke-linejoin="round"/>
<path d="M325.843 249.825L318.503 242.483L320.53 249.323" stroke="#263238" stroke-linecap="round" stroke-linejoin="round"/>
<path d="M109.283 352.339C109.283 352.339 104.707 379.785 98.7325 405.117C92.7584 430.45 94.4653 465.631 94.4653 465.631C94.4653 465.631 91.265 472.311 94.1133 475.48C96.9617 478.65 101.506 477.615 102.562 477.615C103.618 477.615 111.001 477.262 111.001 477.262C111.001 477.262 116.633 443.82 118.767 413.558C120.901 383.295 119.119 337.208 117.007 338.969C114.894 340.73 110.329 349.874 110.329 349.874L109.283 352.339Z" fill="#002C6D" stroke="#263238" stroke-linecap="round" stroke-linejoin="round"/>
<path d="M94.8599 263.323C94.8599 263.323 90.5927 287.951 91.6595 294.983C92.5972 300.342 93.8909 305.632 95.5319 310.819C95.5319 310.819 105.026 353.043 106.083 356.202C107.139 359.36 106.083 397.018 103.949 413.557C101.815 430.097 105.357 441.003 106.083 446.274C106.808 451.545 106.435 468.8 106.435 468.8L105.731 478.649C105.731 478.649 110.659 480.41 119.45 480.41C128.24 480.41 146.888 481.477 146.888 481.477C146.888 481.477 158.142 481.125 157.086 476.142C156.03 471.158 143.367 468.757 139.857 465.588C137.757 463.701 135.759 461.703 133.873 459.602C133.873 459.602 134.225 456.091 133.521 454.331C132.817 452.57 130 452.57 130.32 450.062C130.64 447.555 136.657 391.661 141.234 377.234C145.81 362.807 149.32 303.691 148.968 293.49C148.616 283.288 146.568 267.848 146.568 267.848L94.8599 263.323Z" fill="#014999" stroke="#263238" stroke-linecap="round" stroke-linejoin="round"/>
<path d="M98.4973 167.275C98.4973 167.275 88.1173 189.353 86.6024 204.495C85.0876 219.637 93.302 257.305 93.302 257.305C93.302 257.305 90.1016 266.823 92.4379 268.339C94.7742 269.854 147.826 272.671 147.826 272.671C147.826 272.671 151.026 272.233 151.026 269.47C151.026 266.706 150.162 264.71 149.725 262.331C149.288 259.951 150.376 211.26 145.618 200.44C140.86 189.62 131.12 176.42 131.12 176.42L98.4973 167.275Z" fill="#FCFCFC" stroke="#263238" stroke-linecap="round" stroke-linejoin="round"/>
<path d="M107.885 256.707C113.763 248.949 122.596 237.041 128.869 227.373" stroke="#263238" stroke-linecap="round" stroke-linejoin="round"/>
<path d="M101.698 264.796C101.698 264.796 102.872 263.312 104.781 260.826" stroke="#263238" stroke-linecap="round" stroke-linejoin="round"/>
<path d="M128.016 222.699C128.016 222.699 107.608 236.731 105.059 237.585" stroke="#263238" stroke-linecap="round" stroke-linejoin="round"/>
<path d="M142.865 107.978C142.865 107.978 146.332 96.5174 146.983 93.0387C147.478 90.7066 148.278 88.4499 149.362 86.3268V94.7674C149.362 94.7674 151.954 91.7369 154.771 88.0661C157.587 84.3953 160.179 84.5981 159.038 88.4929C157.896 92.3878 155.144 96.7201 154.931 97.371C154.256 100.166 153.39 102.912 152.338 105.588C151.073 107.918 149.548 110.098 147.794 112.086L142.865 107.978Z" fill="white" stroke="#263238" stroke-linecap="round" stroke-linejoin="round"/>
<path d="M128.805 116.642L142.865 107.977C142.865 107.977 146.759 107.551 147.847 112.096C148.935 116.642 148.274 114.038 148.274 114.038L137.243 129.618L128.805 116.642Z" fill="white" stroke="#263238" stroke-linecap="round" stroke-linejoin="round"/>
<path d="M126.863 110.987C126.863 110.987 116.259 99.9535 113.667 100.818C111.074 101.682 112.365 106.228 112.365 106.228C112.365 106.228 106.093 103.848 105.868 105.577L105.655 107.316C105.655 107.316 94.4111 114.018 91.3814 121.188C88.3517 128.359 87.9143 135.252 91.3814 139.147C94.8485 143.042 103.276 156.871 103.276 156.871L103.49 163.573L124.911 168.983L126.863 159.902C126.863 159.902 137.03 159.902 137.894 158.387C138.758 156.871 139.195 140.246 139.195 140.246L143.74 134.623C143.74 134.623 135.515 125.105 134.213 122.287C132.129 118.295 129.667 114.511 126.863 110.987Z" fill="white" stroke="#263238" stroke-linecap="round" stroke-linejoin="round"/>
<path d="M137.883 144.44C137.883 144.44 136.87 145.795 134.182 143.096" stroke="#263238" stroke-linecap="round" stroke-linejoin="round"/>
<path d="M126.863 110.987C126.863 110.987 116.259 99.9535 113.667 100.818C111.074 101.682 112.365 106.228 112.365 106.228C112.365 106.228 106.093 103.848 105.869 105.577L105.655 107.316C105.655 107.316 94.4111 114.018 91.3814 121.188C88.3517 128.359 87.9143 135.252 91.3814 139.147C94.0591 142.156 99.7025 151.109 102.124 155.025C103.586 155.206 105.066 155.177 106.519 154.94C112.579 153.873 116.686 146.937 116.686 146.937C116.686 146.937 112.579 145.635 112.419 140.225C112.259 134.815 115.619 133.737 115.619 133.737C115.619 133.737 118.649 137.195 121.241 135.679C123.833 134.164 118.041 131.411 117.134 129.191C116.227 126.972 118.435 123.995 118.862 122.48C119.289 120.964 114.755 121.412 113.027 120.537C111.299 119.662 120.601 115.341 122.543 114.039C124.484 112.737 120.409 113.612 117.998 112.31C115.587 111.008 126.863 110.987 126.863 110.987Z" fill="#263238" stroke="#263238" stroke-linecap="round" stroke-linejoin="round"/>
<path d="M132.859 127.463C133.285 128.637 133.211 129.747 132.709 129.928C132.208 130.109 131.45 129.288 131.024 128.114C130.597 126.94 130.672 125.82 131.184 125.638C131.696 125.457 132.442 126.279 132.859 127.463Z" fill="#263238"/>
<path d="M127.941 123.995C127.941 123.995 128.806 117.934 132.699 120.538" stroke="#263238" stroke-linecap="round" stroke-linejoin="round"/>
<path d="M116.687 146.937L120.794 145.859L121.882 149.103" stroke="#263238" stroke-linecap="round" stroke-linejoin="round"/>
<path d="M97.868 159.485C98.5188 159.485 132.272 170.092 132.272 170.092L132.923 180.048L97.0039 169.228L97.868 159.485Z" fill="#D4D4D4" stroke="#263238" stroke-linecap="round" stroke-linejoin="round"/>
<path d="M104.141 207.313C104.141 207.313 144.37 224.845 155.422 225.923C166.474 227 216.432 175.066 216.432 175.066L210.586 167.489C210.586 167.489 169.696 188.489 164.714 190.218C159.732 191.947 118.415 178.747 115.385 178.096C112.355 177.445 105.645 178.534 103.053 181.991" fill="#FCFCFC"/>
<path d="M104.141 207.313C104.141 207.313 144.37 224.845 155.422 225.923C166.474 227 216.432 175.066 216.432 175.066L210.586 167.489C210.586 167.489 169.696 188.489 164.714 190.218C159.732 191.947 118.415 178.747 115.385 178.096C112.355 177.445 105.645 178.534 103.053 181.991" stroke="#263238" stroke-linecap="round" stroke-linejoin="round"/>
<path d="M117.123 212.936L101.324 214.237" stroke="#263238" stroke-linecap="round" stroke-linejoin="round"/>
<path d="M205.604 171.17L212.1 179.184" stroke="#263238" stroke-linecap="round" stroke-linejoin="round"/>
<path d="M210.586 167.543L216.645 159.113L219.238 151.312C219.675 150.021 223.782 147.204 225.084 145.475C226.385 143.747 227.676 139.852 228.978 140.93C230.279 142.007 230.044 144.398 229.628 145.475C229.212 146.553 227.025 148.933 226.812 150.021C226.599 151.11 239.795 147.642 239.795 147.642C239.795 147.642 241.928 148.293 241.31 150.021C240.536 151.633 239.592 153.157 238.493 154.567C238.493 154.567 235.901 162.783 233.949 164.736C231.997 166.689 222.918 169.282 222.918 169.282L216.432 175.119L210.586 167.543Z" fill="white" stroke="#263238" stroke-linecap="round" stroke-linejoin="round"/>
</svg>
