<svg width="60" height="60" viewBox="0 0 60 60" fill="none" xmlns="http://www.w3.org/2000/svg">
<path d="M59.9959 4.91903V48.3886C59.8009 48.4712 59.8199 48.6708 59.7643 48.8258C59.3156 50.0771 58.4664 50.927 57.2166 51.3754C56.5024 51.6325 55.7601 51.6211 55.0211 51.6039C54.6882 51.5956 54.5949 51.6957 54.5983 52.0286C54.6143 53.7652 54.6143 55.5017 54.5983 57.2383C54.5949 57.5746 54.6947 57.6572 55.0204 57.653C56.1128 57.6332 57.207 57.6766 58.2983 57.6347C59.0395 57.6062 59.6242 57.7913 59.9963 58.4654V59.2859C59.4916 59.9474 58.7938 59.9996 58.0244 59.9989C44.4953 59.9849 30.9663 59.9815 17.4375 59.9886C12.147 59.9886 6.85643 59.9886 1.56591 59.9886C0.571791 59.9886 -0.00258368 59.5502 0.00770027 58.8048C0.0179842 58.0594 0.583985 57.6469 1.59143 57.6462C2.704 57.6462 3.81733 57.6264 4.92914 57.6565C5.32907 57.6675 5.40373 57.5346 5.39878 57.1682C5.37897 55.6652 5.3904 54.1623 5.3904 52.659C5.3904 51.6238 5.39039 51.6238 4.37533 51.6116C1.74492 51.5792 0.00427712 49.8866 0.00313446 47.3137C-0.00295973 33.513 -0.000167677 19.7126 0.0115129 5.91236C0.0153217 3.60729 1.09513 1.86669 3.11002 0.706539C3.6844 0.375556 4.34867 0.3127 4.92153 0H54.9571C54.9952 0.0380877 55.028 0.0982768 55.0714 0.105894C56.9838 0.434972 58.3737 1.47133 59.3168 3.16205C59.6291 3.72155 59.6874 4.36561 59.9959 4.91903ZM45.9335 38.3269C45.0331 38.0938 44.7657 37.7648 44.7638 36.8537C44.7595 35.1156 44.7595 33.3778 44.7638 31.6403C44.7638 30.4512 45.1531 30.0539 46.3346 30.052C48.561 30.0482 50.7872 30.0482 53.0131 30.052C54.2236 30.0539 54.6067 30.4473 54.6067 31.6761C54.6067 37.2409 54.6067 42.8057 54.6067 48.3703C54.6067 49.2715 54.6067 49.2715 55.5311 49.2669C56.996 49.2596 57.6531 48.6148 57.6531 47.1759C57.6531 35.2265 57.6572 23.2769 57.6656 11.3273C57.6656 10.8539 57.5281 10.7674 57.0882 10.7682C49.6876 10.7819 42.2867 10.7852 34.8855 10.7781C24.2232 10.7781 13.5612 10.7773 2.89939 10.7758C2.5844 10.7758 2.33073 10.713 2.33149 11.2195C2.34825 23.2667 2.3532 35.3139 2.34634 47.3613C2.34634 48.5238 3.02319 49.2124 4.18337 49.2657C4.45647 49.2779 4.73146 49.2513 5.00341 49.2726C5.29936 49.2958 5.40754 49.2082 5.39916 48.8894C5.37592 48.0309 5.38964 47.1713 5.39154 46.3124C5.39383 45.1595 5.79071 44.7596 6.9387 44.7588C9.16486 44.757 11.391 44.757 13.6172 44.7588C14.8558 44.7588 15.2337 45.1332 15.234 46.3604C15.234 49.9532 15.2409 53.5457 15.2249 57.1392C15.2249 57.5342 15.2954 57.682 15.7239 57.6584C16.4453 57.6165 17.1685 57.6165 17.89 57.6584C18.3851 57.6888 18.5314 57.5727 18.5299 57.0398C18.509 49.1514 18.5043 41.263 18.5158 33.3748C18.5158 32.2055 18.9214 31.8006 20.1033 31.7987C22.3295 31.7957 24.5556 31.7957 26.7818 31.7987C27.956 31.8006 28.3579 32.2089 28.3583 33.3862C28.3583 38.6971 28.3583 44.008 28.3583 49.3187C28.3583 51.9353 28.3651 54.5515 28.3503 57.1682C28.348 57.5327 28.4165 57.6763 28.8188 57.6568C29.5599 57.6174 30.3027 57.6174 31.0439 57.6568C31.5196 57.6846 31.6533 57.5681 31.6533 57.0669C31.6305 52.4583 31.6392 47.8496 31.6404 43.241C31.6404 42.1201 32.0445 41.7107 33.151 41.7095C35.3967 41.707 37.6424 41.707 39.8881 41.7095C41.11 41.7095 41.4829 42.0904 41.4829 43.3332C41.4829 47.9018 41.4947 52.4708 41.4676 57.0398C41.4646 57.5807 41.6234 57.6839 42.1113 57.6546C42.8136 57.6176 43.5172 57.6168 44.2196 57.6523C44.6241 57.6702 44.781 57.6066 44.7779 57.132C44.7536 53.2272 44.7635 49.3221 44.7646 45.417C44.7646 44.3977 44.9745 44.114 45.9358 43.8196C46.896 44.1163 47.1071 44.4015 47.1074 45.4173C47.1074 49.3194 47.1132 53.2215 47.0994 57.1232C47.0994 57.5106 47.1638 57.6637 47.5976 57.6565C49.002 57.6268 50.4074 57.6336 51.8122 57.6534C52.1649 57.6584 52.2726 57.5734 52.2723 57.2036C52.2608 49.0876 52.2608 40.9715 52.2723 32.8553C52.2723 32.4949 52.1725 32.3906 51.8152 32.3955C50.4105 32.4146 49.005 32.4214 47.6007 32.3925C47.1611 32.3833 47.0964 32.5509 47.1025 32.9333C47.1234 34.2401 47.1139 35.5477 47.1093 36.8564C47.1017 37.7644 46.8317 38.0977 45.9335 38.3269ZM30.0003 8.43415H56.8875C57.0242 8.43415 57.1625 8.42083 57.2973 8.43682C57.5837 8.47034 57.666 8.34654 57.6576 8.07079C57.6401 7.50519 57.6527 6.93883 57.6523 6.37246C57.6523 3.72613 56.2613 2.34163 53.6023 2.34163C37.8646 2.34163 22.1266 2.34163 6.38832 2.34163C6.21273 2.34163 6.03676 2.33822 5.86117 2.34431C3.86685 2.41173 2.41186 3.85829 2.34863 5.85028C2.32806 6.49396 2.38177 7.14184 2.33149 7.7821C2.2896 8.32066 2.46442 8.44786 2.99576 8.44672C11.9974 8.4292 20.9989 8.42501 30.0003 8.43415ZM20.859 45.8687C20.859 49.6158 20.8666 53.3628 20.8483 57.1099C20.8464 57.5422 20.9424 57.6668 21.3877 57.6565C22.7729 57.6241 24.1594 57.6298 25.5447 57.6542C25.9339 57.661 26.0234 57.5449 26.0231 57.1682C26.0121 49.6547 26.0129 42.141 26.0253 34.6271C26.0253 34.1864 25.8684 34.1243 25.486 34.132C24.1201 34.1525 22.7531 34.1609 21.3877 34.1281C20.9306 34.1171 20.8472 34.263 20.8491 34.6873C20.8651 38.4134 20.8578 42.1399 20.8578 45.8687H20.859ZM33.9832 50.8528C33.9832 52.9602 33.9935 55.0673 33.9741 57.1754C33.9703 57.562 34.0788 57.6606 34.4578 57.6546C35.8625 57.6321 37.2676 57.6378 38.6723 57.6515C38.9934 57.6546 39.1507 57.626 39.1492 57.2261C39.1327 52.9727 39.1317 48.7196 39.1461 44.4667C39.1461 44.133 39.0505 44.0439 38.723 44.0477C37.2988 44.0645 35.8739 44.0702 34.4498 44.0451C34.056 44.0378 33.9718 44.1616 33.9748 44.5333C33.9912 46.6384 33.9821 48.7458 33.9821 50.8528H33.9832ZM7.73362 52.3093C7.73362 53.9273 7.74466 55.5468 7.72562 57.1629C7.72143 57.5331 7.80523 57.6622 8.20135 57.6549C9.60454 57.6298 11.0085 57.6321 12.412 57.6549C12.7903 57.661 12.9 57.5609 12.8981 57.1743C12.8826 53.9774 12.8826 50.7806 12.8981 47.5838C12.8981 47.2143 12.8185 47.0848 12.4223 47.0917C11.0197 47.1171 9.61621 47.1171 8.212 47.0917C7.8334 47.086 7.71991 47.1858 7.72524 47.5727C7.74657 49.1507 7.73362 50.7298 7.73362 52.3093Z" fill="#010000"/>
<path d="M30 8.43429C20.9986 8.43429 11.997 8.43848 2.99508 8.44686C2.46374 8.44686 2.28892 8.3208 2.33081 7.78224C2.38109 7.14199 2.32738 6.4941 2.34795 5.85042C2.41118 3.85843 3.86617 2.41187 5.86049 2.34445C6.03608 2.33836 6.21205 2.34177 6.38764 2.34177C22.1259 2.34177 37.8639 2.34177 53.6016 2.34177C56.2606 2.34177 57.6512 3.72627 57.6516 6.3726C57.6516 6.93897 57.6394 7.50533 57.6569 8.07093C57.6653 8.34668 57.5831 8.47048 57.2966 8.43697C57.1618 8.42097 57.0235 8.43429 56.8868 8.43429H30ZM39.2529 4.21646C34.9968 4.21646 30.7407 4.21646 26.4844 4.21646C25.4347 4.21646 24.8508 4.63961 24.8553 5.39337C24.8599 6.14713 25.4392 6.55923 26.4954 6.55923C35.008 6.55923 43.5204 6.55923 52.0328 6.55923C52.2274 6.55923 52.4255 6.56723 52.6167 6.5379C53.228 6.44496 53.6626 5.95403 53.6592 5.38271C53.6557 4.8114 53.2208 4.32615 52.606 4.23664C52.4156 4.20845 52.2167 4.2176 52.0217 4.2176C47.7654 4.21633 43.5092 4.21595 39.2529 4.21646ZM7.48689 4.22407C6.87747 4.2313 6.32709 4.7954 6.33432 5.39947C6.34156 6.00354 6.90565 6.55923 7.51012 6.55199C8.11458 6.54476 8.66992 5.98068 8.66268 5.37661C8.65544 4.77254 8.09326 4.21645 7.48727 4.22407H7.48689ZM12.1585 4.22407C11.5464 4.24121 11.0044 4.8091 11.0215 5.41507C11.039 6.02714 11.6069 6.56913 12.2129 6.55199C12.825 6.53447 13.367 5.96659 13.3499 5.36099C13.3327 4.74892 12.7648 4.20693 12.1588 4.22407H12.1585ZM18.0375 5.38537C18.0375 4.77978 17.4772 4.2218 16.8723 4.22256C16.2675 4.22332 15.7083 4.78245 15.7091 5.38766C15.7099 5.99287 16.2694 6.55123 16.8746 6.55047C17.4798 6.54971 18.0382 5.99173 18.0375 5.38537Z" fill="#E33C5C"/>
<path d="M45.9332 40.1378V38.3267C46.8314 38.0982 47.1014 37.7642 47.1049 36.8539C47.1094 35.5467 47.1189 34.2392 47.098 32.9309C47.0919 32.55 47.1566 32.3809 47.5962 32.39C49.0005 32.4189 50.406 32.4121 51.8107 32.393C52.1695 32.3881 52.2678 32.4925 52.2678 32.8528C52.2579 40.969 52.2579 49.0851 52.2678 57.2011C52.2678 57.5709 52.1604 57.6559 51.8077 57.6509C50.403 57.6311 48.9975 57.6243 47.5932 57.654C47.1593 57.6627 47.0938 57.5096 47.0949 57.1208C47.1087 53.219 47.1041 49.317 47.1029 45.4149C47.1029 44.3991 46.8916 44.1138 45.9313 43.8171C45.9313 43.3821 45.9313 42.9474 45.9313 42.513C46.727 42.2711 47.1121 41.8655 47.0949 41.2861C47.0812 40.6954 46.6802 40.2993 45.9332 40.1378Z" fill="#004999"/>
<path d="M20.8575 45.8687C20.8575 42.1411 20.8648 38.4135 20.8476 34.6858C20.8457 34.2615 20.9299 34.1145 21.3862 34.1267C22.7517 34.1594 24.1187 34.151 25.4846 34.1305C25.8655 34.1244 26.0247 34.1865 26.0239 34.6256C26.0094 42.1393 26.0087 49.653 26.0216 57.1667C26.0216 57.5434 25.9325 57.6596 25.5432 57.6527C24.1579 57.6283 22.7715 57.6226 21.3862 57.655C20.941 57.6653 20.845 57.5407 20.8469 57.1084C20.8652 53.3629 20.8575 49.6158 20.8575 45.8687Z" fill="#004999"/>
<path d="M33.9817 50.8526C33.9817 48.7456 33.9909 46.6382 33.9734 44.5301C33.9703 44.1583 34.0545 44.0349 34.4483 44.0418C35.8725 44.0669 37.2974 44.0612 38.7215 44.0444C39.0491 44.0402 39.1454 44.1294 39.1447 44.4634C39.1335 48.7168 39.1345 52.9699 39.1477 57.2228C39.1477 57.6227 38.9919 57.6513 38.6708 57.6482C37.2661 57.6345 35.861 57.6288 34.4563 57.6513C34.0754 57.6574 33.9688 57.5587 33.9726 57.1721C33.992 55.067 33.9817 52.96 33.9817 50.8526Z" fill="#004999"/>
<path d="M7.73332 52.3092C7.73332 50.7305 7.74627 49.1514 7.72418 47.5726C7.71884 47.1857 7.83235 47.0859 8.21095 47.0916C9.61414 47.1137 11.0176 47.1137 12.4213 47.0916C12.8174 47.0847 12.8985 47.2142 12.897 47.5837C12.8833 50.7805 12.8833 53.9773 12.897 57.1742C12.8989 57.5608 12.7892 57.6609 12.411 57.6548C11.0074 57.6331 9.60347 57.6308 8.20029 57.6548C7.80416 57.6621 7.72037 57.533 7.72456 57.1627C7.74436 55.5444 7.73332 53.9264 7.73332 52.3092Z" fill="#004999"/>
<path d="M10.1485 37.1729C8.07038 37.1078 6.32021 35.5249 6.07301 33.59C5.7744 31.2564 7.27967 29.328 9.32351 28.8641C10.1935 28.6668 11.0756 28.7171 11.8983 29.1098C12.1706 29.24 12.331 29.2278 12.5458 29.0103C14.664 26.8774 16.7897 24.751 18.9226 22.631C19.1165 22.4379 19.1458 22.2993 19.0216 22.0346C18.0729 20.0121 18.7223 17.6979 20.5242 16.5922C22.4462 15.4115 24.7871 15.8305 26.1538 17.6587C27.0885 18.908 27.2263 20.3088 26.6581 21.7569C26.5373 22.0639 26.5126 22.2433 26.7723 22.4992C29.2839 24.9856 31.7835 27.4839 34.2712 29.9941C34.5192 30.2444 34.7127 30.2741 35.0311 30.1553C36.0789 29.7641 37.1347 29.7744 38.1567 30.2501C38.4233 30.3735 38.5661 30.324 38.7577 30.1317C41.17 27.7103 43.5871 25.295 46.009 22.8858C46.2109 22.6851 46.2246 22.5526 46.078 22.2962C45.181 20.7282 45.3017 18.8885 46.3556 17.5795C47.4602 16.206 49.2058 15.6206 50.7983 16.0879C52.518 16.5934 53.6732 17.9687 53.8736 19.7512C54.1943 22.599 51.4153 24.9692 48.6276 24.204C48.2536 24.1016 48.0331 24.1565 47.7641 24.428C45.3455 26.8692 42.9165 29.3001 40.477 31.7207C40.2424 31.9541 40.1757 32.1274 40.3201 32.4649C41.0982 34.2878 40.5105 36.3186 38.9017 37.5142C37.4345 38.6035 35.2711 38.5475 33.8397 37.3824C32.278 36.1126 31.7958 34.0749 32.6707 32.2786C32.8353 31.9408 32.766 31.774 32.5294 31.5386C30.0636 29.0891 27.6054 26.632 25.1551 24.1675C24.9151 23.926 24.7361 23.8628 24.4063 24.0151C23.4232 24.4703 22.399 24.4722 21.3927 24.0966C21.0442 23.9671 20.8385 24.0155 20.5802 24.2764C18.4777 26.3987 16.3645 28.5104 14.2404 30.6115C13.9924 30.8564 13.9738 31.0305 14.1093 31.3535C15.2855 34.1499 13.1548 37.267 10.1485 37.1729ZM51.5555 20.1572C51.5563 19.6646 51.3635 19.1914 51.0186 18.8396C50.6738 18.4878 50.2045 18.2855 49.712 18.2765C49.4631 18.2734 49.216 18.3199 48.9852 18.4132C48.7544 18.5065 48.5445 18.6448 48.3677 18.8201C48.1909 18.9953 48.0507 19.204 47.9553 19.434C47.8599 19.6639 47.8113 19.9106 47.8121 20.1595C47.8201 21.1749 48.6703 22.0186 49.685 22.0178C50.6996 22.0171 51.5486 21.1726 51.5555 20.1572ZM38.3174 34.1C38.3173 33.6076 38.1238 33.1349 37.7785 32.7837C37.4333 32.4325 36.964 32.2309 36.4716 32.2223C35.4322 32.2105 34.5607 33.0815 34.5756 34.1171C34.59 35.1337 35.4436 35.9709 36.4594 35.9656C36.952 35.9607 37.4229 35.7623 37.7705 35.4133C38.1181 35.0643 38.3145 34.5926 38.3174 34.1ZM24.6325 20.174C24.6451 19.1365 23.8444 18.2982 22.8195 18.2765C21.7755 18.254 20.904 19.1026 20.9021 20.1428C20.9021 21.1536 21.7465 22.0091 22.7597 22.0178C23.7728 22.0266 24.6203 21.1982 24.6325 20.174ZM12.091 32.9608C12.092 32.7171 12.0447 32.4756 11.9516 32.2504C11.8586 32.0252 11.7218 31.8206 11.5491 31.6487C11.3764 31.4767 11.1713 31.3408 10.9456 31.2487C10.72 31.1567 10.4783 31.1103 10.2346 31.1124C9.74239 31.1136 9.27026 31.3076 8.91939 31.6527C8.56852 31.9979 8.36683 32.4668 8.35757 32.9589C8.34424 33.9938 9.20809 34.8435 10.262 34.8309C11.298 34.818 12.0979 34.0006 12.091 32.9608Z" fill="#030303"/>
<path d="M9.34638 17.1066C8.47034 17.1066 7.59431 17.1161 6.71598 17.1035C5.92259 17.0925 5.38782 16.6019 5.39697 15.9228C5.40573 15.2635 5.92183 14.7741 6.6836 14.7676C8.47555 14.7526 10.2679 14.7526 12.0606 14.7676C12.8224 14.7737 13.3396 15.2601 13.3507 15.9194C13.3621 16.5985 12.8273 17.0925 12.0351 17.1039C11.1388 17.1161 10.2426 17.1066 9.34638 17.1066Z" fill="#020202"/>
<path d="M9.34256 22.7308C8.48518 22.7308 7.62857 22.7373 6.77081 22.7289C5.93286 22.7209 5.38514 22.2406 5.39695 21.5432C5.40837 20.8645 5.93933 20.3945 6.74566 20.3899C8.49774 20.3798 10.2512 20.3798 12.0061 20.3899C12.8105 20.3945 13.3419 20.8683 13.3506 21.547C13.3598 22.2448 12.8124 22.7213 11.9726 22.7278C11.0962 22.7369 10.2194 22.7308 9.34256 22.7308Z" fill="#020202"/>
<path d="M16.5577 17.1004C15.9551 17.1034 15.3979 16.5588 15.3842 15.9539C15.3701 15.3339 15.9555 14.7523 16.5775 14.7679C17.1995 14.7835 17.7091 15.3156 17.7046 15.9444C17.7 16.5732 17.1782 17.0977 16.5577 17.1004Z" fill="#030303"/>
<path d="M45.9332 40.1382C46.6801 40.2997 47.0812 40.6958 47.0991 41.2896C47.1163 41.8685 46.7312 42.2745 45.9355 42.5164C45.5203 42.4067 45.1242 42.2742 44.9071 41.8502C44.5209 41.095 44.9654 40.3477 45.9332 40.1382Z" fill="#050202"/>
<path d="M39.2529 4.21626C43.5094 4.21626 47.7657 4.21626 52.0217 4.21626C52.2167 4.21626 52.4144 4.20712 52.606 4.2353C53.2208 4.32481 53.6557 4.80661 53.6592 5.38136C53.6626 5.9561 53.228 6.44363 52.6167 6.53656C52.4262 6.56589 52.2274 6.55789 52.0328 6.55789C43.5202 6.55789 35.0078 6.55789 26.4954 6.55789C25.4392 6.55789 24.8599 6.14503 24.8553 5.39203C24.8508 4.63904 25.4347 4.21511 26.4844 4.21511C30.7404 4.21561 34.9966 4.216 39.2529 4.21626Z" fill="black"/>
<path d="M7.48727 4.22371C8.09326 4.21609 8.65544 4.76761 8.66306 5.37626C8.67068 5.9849 8.11915 6.54402 7.5105 6.55164C6.90184 6.55926 6.34232 6.00775 6.3347 5.39911C6.32709 4.79047 6.87861 4.23095 7.48727 4.22371Z" fill="#050202"/>
<path d="M12.1588 4.22403C12.7648 4.20689 13.3327 4.74888 13.3502 5.36095C13.3674 5.96655 12.8254 6.53444 12.2133 6.55196C11.6073 6.56909 11.0394 6.0271 11.0219 5.41503C11.0047 4.80906 11.5467 4.24269 12.1588 4.22403Z" fill="#050202"/>
<path d="M18.0374 5.38498C18.0374 5.98981 17.4802 6.54932 16.8746 6.55008C16.269 6.55084 15.7098 5.99248 15.7091 5.38727C15.7083 4.78205 16.2663 4.22293 16.8723 4.22217C17.4783 4.22141 18.0367 4.78091 18.0374 5.38498Z" fill="#050202"/>
<path d="M38.3174 34.0997C38.3147 34.5925 38.1184 35.0643 37.7708 35.4135C37.4231 35.7627 36.9521 35.9612 36.4594 35.966C35.4436 35.9714 34.59 35.1342 34.5756 34.1176C34.5607 33.082 35.4322 32.211 36.4716 32.2228C36.9639 32.2314 37.4331 32.4329 37.7783 32.7839C38.1235 33.1349 38.3171 33.6074 38.3174 34.0997Z" fill="#E33C5C"/>
<path d="M12.0911 32.9608C12.0979 34.0017 11.298 34.8191 10.2609 34.8309C9.20811 34.8435 8.34426 33.993 8.35645 32.9589C8.36571 32.4668 8.5674 31.9979 8.91827 31.6527C9.26914 31.3075 9.74127 31.1136 10.2335 31.1124C10.4773 31.1102 10.7191 31.1564 10.9448 31.2484C11.1706 31.3404 11.3759 31.4763 11.5487 31.6483C11.7215 31.8202 11.8584 32.0248 11.9515 32.2501C12.0447 32.4754 12.0921 32.717 12.0911 32.9608Z" fill="#004999"/>
</svg>
