<svg width="71" height="72" viewBox="0 0 71 72" fill="none" xmlns="http://www.w3.org/2000/svg">
<g clip-path="url(#clip0_789_1102)">
<path d="M12.4445 19.8348V24.6131C11.4642 24.6131 10.489 24.623 9.51379 24.6131C8.46036 24.5994 7.43469 24.8668 7.49524 26.0462C7.54571 27.1253 8.59535 27.3147 9.55921 27.3159C14.1438 27.3159 18.7276 27.3159 23.3106 27.3159C35.6103 27.3159 47.9096 27.3159 60.2084 27.3159C65.381 27.3159 68.4088 30.2861 68.4252 35.3454C68.4252 36.7067 68.4252 38.0755 68.4252 39.5878H66.775C63.0079 39.5878 59.2412 39.5857 55.4749 39.5816C49.6502 39.5742 45.0655 43.9874 45.0125 49.658C44.9621 55.1962 49.6729 59.722 55.5014 59.7282C59.2685 59.7282 63.0352 59.7282 66.8015 59.7282H68.2196C68.2196 62.0363 68.516 64.2478 68.154 66.3505C67.556 69.8157 64.3301 72 60.4406 72C48.5513 72 36.6625 71.9976 24.774 71.9926C19.1927 71.9926 13.611 71.9926 8.0289 71.9926C3.24493 71.9852 0.0417541 68.9395 0.0291381 64.2528C-0.00450438 52.0502 -0.00450438 39.8481 0.0291381 27.6464C0.0430157 22.8718 3.07966 19.9313 7.94941 19.8397C9.3952 19.8125 10.8397 19.8348 12.4445 19.8348Z" fill="#E33B5C"/>
<path d="M58.8663 24.6155C59.3937 23.3186 59.8251 22.2641 60.2541 21.2221C55.6985 17.9215 54.7359 15.5713 56.0744 10.9069L48.7433 7.82528C46.4371 12.0714 42.9273 13.3783 38.2809 12.0405C36.5941 15.924 34.896 19.7444 33.2938 23.6032C32.9557 24.4163 32.5444 24.6663 31.7042 24.6292C30.3568 24.5685 29.0031 24.6118 27.4375 24.6118C28.1945 22.7753 28.858 21.1008 29.5683 19.4462C31.7988 14.2483 34.0596 9.06286 36.2787 3.86007C36.984 2.20666 37.8318 0.623792 39.7406 0.21539C40.876 -0.032126 42.2637 -0.134846 43.2894 0.278506C50.748 3.26108 58.1598 6.35627 65.549 9.49849C68.0041 10.543 69.0688 13.3016 68.0305 15.8101C66.9102 18.5254 65.6335 21.1775 64.358 23.8284C64.1902 24.1774 63.6654 24.5537 63.2832 24.5784C61.8828 24.67 60.4786 24.6155 58.8663 24.6155Z" fill="#E33B5C"/>
<path d="M61.9446 57.0252C60.0408 57.0252 58.1371 57.0388 56.2334 57.0252C52.0411 56.9918 48.6423 53.8719 48.6184 50.0515C48.5894 45.4724 51.6538 42.3166 56.2157 42.2881C60.1594 42.2634 64.1044 42.2708 68.0482 42.2881C70.155 42.2968 70.9839 43.1346 70.9915 45.2249C71.0033 48.1126 71.0033 51.0044 70.9915 53.9003C70.9814 56.2196 70.1374 57.0302 67.7921 57.0265C65.8433 57.0256 63.8942 57.0252 61.9446 57.0252ZM55.4688 49.5812C55.4537 51.3583 56.5879 52.5402 58.3453 52.5786C59.1207 52.5918 59.8705 52.3066 60.4341 51.784C60.9977 51.2614 61.3302 50.5431 61.3605 49.7829C61.4109 48.0503 60.2175 46.8127 58.4853 46.7979C56.5664 46.7781 55.484 47.7768 55.4688 49.5824V49.5812Z" fill="#E33B5C"/>
<path d="M37.4033 24.5289C37.6922 20.6454 40.5573 18.1108 44.8127 17.846C48.7842 17.5985 52.9676 20.1206 54.5004 23.696C54.5988 23.9274 54.6581 24.175 54.7742 24.5314L37.4033 24.5289Z" fill="#E33B5C"/>
<path d="M33.1991 2.81924C31.5905 6.57035 30.0148 10.2522 28.4327 13.9315C27.1131 17.0015 25.7906 20.0703 24.465 23.1378C23.727 24.8296 23.5819 24.8804 21.4688 24.4027C22.2139 21.6651 22.9587 18.9288 23.703 16.1938C24.6227 12.8016 25.4592 9.38708 26.4785 6.02086C27.3667 3.07789 29.9593 1.86135 33.1991 2.81924Z" fill="#E33B5C"/>
<path d="M22.9727 5.11242C21.3326 11.1568 19.6685 17.0947 18.1521 23.0697C17.785 24.5152 17.1428 24.8927 15.6289 24.4657C15.8623 22.7207 16.0982 20.9386 16.3404 19.1577C16.8022 15.7717 17.2236 12.3783 17.7433 8.99966C18.118 6.55915 20.3826 4.89832 22.9727 5.11242Z" fill="#E33B5C"/>
</g>
<defs>
<clipPath id="clip0_789_1102">
<rect width="71" height="72" fill="white"/>
</clipPath>
</defs>
</svg>
