<svg width="87" height="61" viewBox="0 0 87 61" fill="none" xmlns="http://www.w3.org/2000/svg">
<path d="M0 36.4216C1.04429 33.821 1.75754 31.0204 3.21135 28.6652C5.57294 24.8426 9.52484 22.9043 13.7788 21.7259C15.0551 21.3746 15.5738 20.7677 15.9441 19.5742C19.4558 8.27419 30.5658 0.781787 43.6979 2.1636C43.9905 2.21294 44.28 2.27917 44.5647 2.36197C44.6142 3.50339 44.1706 4.2481 43.2935 5.05163C42.0035 6.23677 40.7903 6.96298 38.9099 7.1563C28.5626 8.21872 22.0307 14.1713 19.9865 24.2155C19.7612 25.3233 19.3261 25.6982 18.2579 25.8663C14.9084 26.3925 11.7038 27.3473 9.08119 29.6117C3.45024 34.4766 3.8427 43.7879 9.94801 48.8193C10.8319 49.5471 11.1783 50.2515 11.2175 51.3408C11.2636 52.6436 11.5725 53.938 11.8523 55.7872C10.1357 54.8273 8.7604 54.2289 7.58643 53.3665C3.48095 50.3625 1.08012 46.3061 0.28496 41.3302C0.226944 40.9705 0.098968 40.6191 0.00511884 40.2644L0 36.4216Z" fill="#E33B5C"/>
<path d="M86 38.3481C85.6792 39.8492 85.442 41.3739 85.0257 42.8499C83.5019 48.246 79.8725 51.8334 74.7876 54.2642C74.5265 53.39 74.1648 52.6134 74.0812 51.8082C73.9327 50.4028 73.8525 49.1017 75.3968 48.0662C79.8964 45.0403 81.0465 40.4796 80.9117 35.4399C80.8008 31.2961 79.4476 27.6129 76.4547 24.5333L80.3912 21.6755L80.0124 20.8198C80.9339 22.015 81.9355 23.1598 82.7614 24.4173C84.6486 27.275 85.4437 30.5363 86.0034 33.8563L86 38.3481Z" fill="#E33B5C"/>
<path d="M69.0406 21.1913C69.044 21.2408 69.0567 21.2893 69.0781 21.3342C71.5796 24.624 70.3067 24.3702 68.0168 26.2748C67.0134 27.1153 66.0135 27.0144 65.4573 25.8831C64.6689 24.2827 63.4745 24.7064 62.2152 24.9299C60.9866 25.1502 61.362 26.1067 61.2238 26.8245C61.0003 27.9541 60.3928 28.5307 59.1762 28.3189C58.7496 28.245 58.323 28.1508 57.8947 28.1105C55.6765 27.8684 55.3352 27.6247 55.7242 25.5519C56.1133 23.4792 54.1885 23.5885 53.4275 22.6353C50.1052 24.9535 50.4926 24.4845 48.3357 21.8318C47.4246 20.7139 47.457 19.7086 48.7453 19.0564C50.3151 18.2646 49.7503 17.1518 49.5558 15.9582C49.3527 14.7008 48.3801 15.0689 47.6788 14.9496C46.6362 14.7815 46.1277 14.2772 46.2233 13.2232C46.2711 12.6903 46.3103 12.1557 46.3939 11.6295C46.7591 9.42065 47.027 9.09116 49.2333 9.54C50.9123 9.87621 50.9396 8.54146 51.4652 7.79171C51.6904 7.47231 51.455 6.63516 51.1649 6.20649C50.1206 4.66497 50.1291 4.26657 51.5625 3.15876C51.9037 2.89483 52.2535 2.64268 52.6016 2.38884C54.0605 1.32474 54.5503 1.39199 55.673 2.81079C55.9392 3.147 56.2003 3.4832 56.5262 3.90682C57.0108 3.80932 57.5261 3.71687 58.0363 3.60087C58.5039 3.49497 58.9646 3.36217 59.4014 3.24954C60.0618 -0.0116867 61.1248 -0.61686 64.3055 0.546422C64.7713 0.714526 65.4095 1.60211 65.2986 1.94169C64.5614 4.17411 65.9555 5.01799 67.6346 5.75093C70.5951 3.85303 71.2008 3.96566 72.844 7.07223C73.1034 7.56309 72.943 8.80538 72.6017 8.97853C70.6326 9.97707 70.9449 11.4345 71.5779 13.0988C71.6104 13.1563 71.6632 13.2 71.7264 13.2215C74.7927 13.8351 75.5281 15.1799 74.233 18.1167C74.0351 18.5622 73.1051 19.1354 72.7638 19.006C70.4995 18.157 69.8119 19.6952 69.0406 21.1913ZM66.1483 14.2368C66.1483 11.142 63.6178 8.58517 60.5174 8.54314C57.3521 8.50111 54.7158 11.0899 54.7158 14.2335C54.7139 15.7197 55.3017 17.1479 56.3537 18.2131C57.4057 19.2784 58.8386 19.8965 60.3467 19.9356C63.524 19.9927 66.1586 17.4056 66.1483 14.2368Z" fill="#E33B5C"/>
<path d="M42.8055 33.2964C44.9777 35.0884 44.9555 35.1355 43.5221 36.9561C42.9283 37.7109 42.4318 37.7529 41.6178 37.2637C41.1793 37.0015 40.3825 36.914 39.9661 37.1393C39.5498 37.3646 39.1334 38.1059 39.1846 38.5732C39.345 40.0509 38.3109 40.0862 37.3622 40.2543C36.4135 40.4224 35.5876 40.4543 35.3487 39.1229C35.1064 37.763 33.5554 37.2503 32.8319 38.2538C31.7859 39.7046 30.9412 38.854 29.9823 38.2538C28.8288 37.5209 29.0779 36.7308 29.8116 35.8752C29.9364 35.6976 30.0433 35.5084 30.1307 35.3103L29.1598 33.7184C26.8596 33.9571 26.8357 33.905 26.4433 31.8238C26.2385 30.7362 26.6651 30.2941 27.6838 29.9949C27.9534 29.8953 28.1984 29.7404 28.4025 29.5404C28.6067 29.3404 28.7654 29.1 28.868 28.835C28.9892 28.4399 28.7076 27.6902 28.3561 27.4296C27.032 26.458 27.9278 25.6998 28.4568 24.8627C29.0369 23.9448 29.6205 23.6859 30.7143 24.3163C31.3013 24.6525 32.2602 24.3768 33.2994 24.3768C32.6561 22.368 32.9462 21.3913 34.8692 21.2635C36.0637 21.1828 36.6165 21.3577 36.9169 22.6084C37.0551 23.1984 38.0021 23.6052 38.642 24.1482C39.647 22.9496 40.2852 21.6855 41.884 23.0337C42.8754 23.8742 43.3788 24.4205 42.4488 25.6074C41.7919 26.4479 42.64 27.8717 43.7201 27.7356C45.1159 27.5674 45.4503 28.1777 45.6909 29.3796C45.9639 30.7429 45.5868 31.2842 44.2354 31.6238C43.6638 31.7684 43.3054 32.6761 42.8055 33.2964ZM36.091 27.87C35.3264 27.8867 34.5988 28.1972 34.0635 28.7353C33.5282 29.2733 33.2276 29.9963 33.226 30.7497C33.226 32.4004 34.4205 33.5856 36.0688 33.5889C36.8346 33.5861 37.569 33.2894 38.1164 32.7618C38.6637 32.2342 38.9808 31.5173 39.0003 30.7631C39.0071 29.272 37.5738 27.8448 36.091 27.87Z" fill="#E33B5C"/>
<path d="M57.6729 60.331C57.8009 58.7643 57.8913 57.6414 57.9851 56.4882H64.5631L64.6382 55.957C63.7458 55.7687 62.8568 55.572 61.9644 55.3938C58.4424 54.6894 57.4698 53.4825 57.6388 50.0145C57.7684 47.3803 59.0482 45.911 61.7169 45.7446C64.186 45.5916 66.6653 45.7127 69.2454 45.7127V49.9153H62.9165C62.8892 50.0346 62.8602 50.1523 62.8312 50.2717C63.1724 50.4532 63.4967 50.6936 63.855 50.8029C64.6297 51.0349 65.4317 51.171 66.2097 51.3912C69.474 52.3209 70.1753 53.4303 69.7624 56.9521C69.4774 59.3863 67.9042 60.7816 65.0255 60.7883C62.6281 60.795 60.2205 60.5025 57.6729 60.331Z" fill="#E33B5C"/>
<path d="M16.0516 60.3193C16.1608 58.7711 16.2427 57.6145 16.3263 56.4092L22.8821 56.7017C22.918 56.5336 22.9521 56.3772 22.9879 56.2159C22.7166 56.0478 22.4658 55.8057 22.1706 55.73C21.5444 55.5619 20.8925 55.5031 20.2561 55.3753C16.3212 54.5886 14.7292 51.3728 16.5021 47.8107C17.2358 46.3364 18.6009 45.7934 20.0974 45.7363C22.5682 45.632 25.0458 45.7077 27.59 45.7077V49.9103H21.2355L21.1485 50.428C22.3429 50.7642 23.5527 51.0769 24.7506 51.4199C27.5951 52.2352 28.3663 53.3194 28.1633 56.1806C27.9415 59.2602 26.5047 60.7396 23.2985 60.7749C20.9403 60.8034 18.5736 60.4908 16.0516 60.3193Z" fill="#E33B5C"/>
<path d="M36.4169 52.9579H30.7245V49.6412C33.4649 48.8595 36.3452 48.3704 39.1727 49.4025C40.0583 49.727 41.0497 50.8482 41.2203 51.756C41.6691 54.0103 41.7424 56.3469 41.8482 58.6483C41.9404 60.6756 40.7698 61.4909 38.584 60.6924C37.5004 60.2974 36.6746 60.4823 35.6832 60.7126C31.7978 61.6187 29.3356 59.5039 30.1956 56.0527C30.5675 54.5583 31.7859 53.8674 34.185 53.7362C34.9341 53.6976 35.6798 53.6135 36.4272 53.5497L36.4169 52.9579ZM36.3862 55.7249C35.2754 55.7703 34.0417 55.5434 34.0195 57.0311C34.0195 57.3774 34.8385 58.0565 35.2395 58.0263C36.608 57.922 36.7667 56.9739 36.3862 55.7249Z" fill="#E33B5C"/>
<path d="M55.6765 60.5679C54.9444 60.6654 54.3114 60.9294 53.7858 60.7865C51.67 60.2082 49.5967 60.7629 47.5031 60.8201C45.3718 60.8789 44.116 59.7711 43.9197 57.9119C43.6518 55.4055 44.3071 54.4355 46.7659 53.9413C47.8563 53.7211 48.9842 53.6992 50.3885 53.558C49.566 52.2535 48.4893 52.7461 47.6071 52.7309C46.6379 52.7158 45.667 52.8015 44.4999 52.852C44.4316 51.766 44.3702 50.7792 44.3002 49.6832C47.1498 48.8881 49.9756 48.4123 52.7723 49.347C53.651 49.6378 54.7806 50.6279 54.9052 51.4332C55.3591 54.3767 55.4393 57.3824 55.6765 60.5679ZM50.2162 55.6559C49.2469 55.8728 47.9604 55.3786 47.8785 56.9268C47.858 57.2983 48.5883 58.0565 48.9415 58.038C50.2298 57.9758 50.6462 57.1369 50.2162 55.6593V55.6559Z" fill="#E33B5C"/>
</svg>
