<svg width="59" height="59" viewBox="0 0 59 59" fill="none" xmlns="http://www.w3.org/2000/svg">
<g clip-path="url(#clip0_428_2127)">
<path d="M42.7052 57.9834H40.7081C40.4939 57.1801 40.2352 56.9683 39.4247 56.9674C36.9662 56.9638 34.508 56.9638 32.0502 56.9674C30.4986 56.9674 30.445 56.9557 30.7848 55.4028C31.7937 50.7943 34.4846 47.5652 38.8537 45.7451C39.1061 45.6399 39.3095 45.621 39.5683 45.7528C42.347 47.1686 45.1347 47.1551 47.9161 45.7591C48.1411 45.6453 48.336 45.6116 48.574 45.7141C53.3085 47.7222 56.0746 51.2526 56.8603 56.3414C56.948 56.9121 56.7703 56.9859 56.2577 56.9809C53.524 56.9557 50.7903 56.967 48.0565 56.9706C47.2466 56.9706 46.9856 57.1842 46.7741 57.9865H44.777C44.6771 57.3794 44.3616 56.9661 43.7096 56.9822C43.0913 56.9944 42.7947 57.4032 42.7052 57.9834Z" fill="#E33C5C"/>
<path d="M21.684 15.7026C26.0355 17.8716 28.8592 21.2177 30.0724 25.8792C30.3659 27.0066 30.5144 28.1669 30.5143 29.3318C30.5143 30.1521 30.139 30.5331 29.3101 30.5335C19.9463 30.5365 10.5823 30.5365 1.21816 30.5335C0.363169 30.5335 -0.0301285 30.1512 0.0076712 29.2797C0.267169 23.2832 3.03945 18.8515 8.32451 15.9846C8.71646 15.7723 8.87216 15.7084 8.48201 15.2848C5.86303 12.4402 5.36263 8.2383 7.19412 4.84774C9.01796 1.47202 12.8452 -0.482536 16.4857 0.103021C20.5239 0.750191 23.5767 3.6321 24.258 7.51153C24.771 10.4393 24.0051 13.0388 22.0566 15.287C21.9477 15.4116 21.8343 15.5348 21.684 15.7026ZM15.2293 28.5021C19.4448 28.5021 23.6604 28.4958 27.8742 28.512C28.3147 28.512 28.4479 28.427 28.38 27.9619C27.6339 22.8399 24.87 19.2861 20.1153 17.2582C19.8512 17.1458 19.6455 17.1876 19.3998 17.3099C16.6378 18.687 13.8694 18.6942 11.11 17.3032C10.8584 17.1764 10.6559 17.1566 10.3967 17.2663C5.65678 19.2736 2.90295 22.819 2.13526 27.9026C2.05246 28.4449 2.23426 28.5129 2.7081 28.5111C6.88182 28.4958 11.056 28.5021 15.2293 28.5021ZM8.13912 9.20838C8.13912 13.104 11.357 16.3034 15.2689 16.2985C19.1807 16.2935 22.3743 13.095 22.3761 9.18589C22.3761 5.26914 19.1942 2.07736 15.2783 2.07062C14.34 2.06836 13.4104 2.25144 12.5431 2.60936C11.6757 2.96727 10.8877 3.49295 10.2243 4.15619C9.5609 4.81943 9.03516 5.60716 8.67731 6.4741C8.31947 7.34105 8.13656 8.27012 8.13912 9.20793V9.20838Z" fill="#010101"/>
<path d="M46.774 57.9832C46.9855 57.1809 47.2452 56.9682 48.0565 56.9673C50.7902 56.9637 53.524 56.9525 56.2577 56.9776C56.7702 56.9826 56.948 56.9088 56.8602 56.3381C56.0745 51.2494 53.3084 47.7189 48.574 45.7108C48.3359 45.6101 48.1429 45.6438 47.9161 45.7558C45.1347 47.15 42.3469 47.1653 39.5682 45.7495C39.3095 45.6178 39.1061 45.6366 38.8536 45.7419C34.4846 47.562 31.7936 50.7911 30.7847 55.3995C30.445 56.9525 30.4985 56.9642 32.0501 56.9642C34.5083 56.9642 36.9665 56.9642 39.4247 56.9642C40.2347 56.9642 40.4938 57.1769 40.708 57.9801C40.4934 58.782 40.2342 58.9943 39.4242 58.9947C36.204 58.998 32.9835 58.998 29.7628 58.9947C28.8236 58.9947 28.4456 58.6309 28.4906 57.6752C28.7726 51.7054 31.5457 47.2953 36.8097 44.4448C37.2147 44.2249 37.3412 44.1557 36.9609 43.7424C34.3451 40.9014 33.8456 36.6918 35.6816 33.3067C37.5113 29.9292 41.3344 27.98 44.9767 28.5678C49.0141 29.219 52.0732 32.1099 52.7441 35.9831C53.2513 38.9122 52.5016 41.5238 50.5216 43.7455C50.1503 44.162 50.2696 44.2294 50.6741 44.4484C55.9328 47.2926 58.7058 51.7028 58.9932 57.6792C59.0382 58.6322 58.6593 58.997 57.7202 58.9979C54.4994 59.0012 51.2789 59.0012 48.0587 58.9979C47.2465 58.9974 46.9855 58.7838 46.774 57.9832ZM43.7788 30.5345C39.8508 30.5206 36.6396 33.6853 36.6239 37.5873C36.6068 41.5449 39.786 44.7471 43.7338 44.7511C47.6587 44.7547 50.8505 41.5796 50.8582 37.6642C50.8663 33.742 47.6965 30.5484 43.7788 30.5345Z" fill="#010101"/>
<path d="M45.7859 2.07215C49.7269 2.07215 53.6679 2.07215 57.6086 2.07215C58.6886 2.07215 58.9991 2.38698 58.9996 3.47264C58.9996 8.63861 58.9996 13.8049 58.9996 18.9714C58.9996 20.0549 58.6846 20.3697 57.6046 20.3697C53.9179 20.3697 50.2312 20.3685 46.5446 20.3661C46.2091 20.3608 45.8775 20.438 45.5789 20.5909C43.1867 21.7992 40.7885 22.9958 38.3843 24.1807C37.2841 24.7254 36.6235 24.3076 36.6194 23.0766C36.6194 22.3121 36.6046 21.5516 36.6262 20.7902C36.6352 20.4673 36.5551 20.3512 36.2104 20.362C35.3851 20.3881 34.558 20.3778 33.7318 20.3683C32.9402 20.3598 32.5537 19.9879 32.5532 19.2053C32.5478 13.8906 32.5478 8.57595 32.5532 3.26126C32.5532 2.42206 32.938 2.07395 33.8353 2.0735C37.8193 2.07111 41.8028 2.07065 45.7859 2.07215ZM38.6552 21.7774C40.7108 20.7493 42.6953 19.7733 44.6618 18.7641C45.2208 18.4691 45.845 18.3191 46.4771 18.3279C49.8012 18.3499 53.1262 18.331 56.4508 18.3472C56.8558 18.3495 56.9768 18.2573 56.9755 17.8332C56.9587 13.4318 56.9563 9.03003 56.9683 4.62801C56.9683 4.31319 56.9971 4.09373 56.5309 4.09463C49.3522 4.11172 42.1736 4.11321 34.9949 4.09912C34.6511 4.09912 34.5791 4.20571 34.58 4.52682C34.5896 8.9921 34.5896 13.4572 34.58 17.9222C34.58 18.2519 34.6642 18.3558 35.0003 18.3459C35.8256 18.322 36.6523 18.331 37.478 18.3405C38.2678 18.349 38.6431 18.7214 38.6539 19.5062C38.6629 20.2357 38.6552 20.9669 38.6552 21.7774Z" fill="#010101"/>
<path d="M13.2893 34.6013C17.2088 34.6013 21.1281 34.6013 25.0473 34.6013C26.1327 34.6013 26.4477 34.9161 26.4481 35.9914C26.4481 41.1784 26.4481 46.3653 26.4481 51.5523C26.4481 52.5584 26.1169 52.8939 25.1301 52.8979C24.4101 52.9006 23.686 52.9393 22.9701 52.8849C22.4359 52.8444 22.3486 53.0544 22.3707 53.5186C22.4058 54.2579 22.3869 55.0027 22.3783 55.7411C22.3657 56.7958 21.6705 57.2293 20.7197 56.7585C18.2972 55.5592 15.8795 54.3501 13.4666 53.1313C13.1488 52.9688 12.7958 52.8871 12.4388 52.8934C8.75243 52.9015 5.06606 52.903 1.37968 52.8979C0.33254 52.8979 0.00179277 52.575 0.00134277 51.5487C0.00134277 46.3408 0.00134277 41.1325 0.00134277 35.924C0.00134277 34.9345 0.34019 34.6008 1.34053 34.6004C5.32331 34.5998 9.30623 34.6001 13.2893 34.6013ZM20.3448 54.2997C20.3448 53.4799 20.3372 52.7607 20.3471 52.0421C20.3579 51.251 20.7273 50.8804 21.517 50.8728C22.3005 50.8624 23.0857 50.8417 23.8678 50.8809C24.325 50.9038 24.4236 50.7522 24.4218 50.3155C24.4056 45.9549 24.4056 41.5942 24.4218 37.2336C24.4218 36.7839 24.3457 36.6251 23.8449 36.626C16.77 36.6449 9.69533 36.6456 2.62077 36.6283C2.15638 36.6283 2.01868 36.7272 2.02093 37.2129C2.04223 41.5733 2.04223 45.9338 2.02093 50.2944C2.01868 50.7801 2.15593 50.8831 2.62032 50.8791C5.9881 50.8584 9.35588 50.8741 12.7241 50.8611C13.209 50.8547 13.6881 50.9676 14.1191 51.1898C16.1553 52.2193 18.2001 53.2289 20.3448 54.2979V54.2997Z" fill="#010101"/>
<path d="M42.7051 57.9832C42.7951 57.4031 43.0912 56.9938 43.7095 56.979C44.3616 56.9628 44.677 57.3761 44.7769 57.9832C44.677 58.5904 44.3593 59.0019 43.7095 58.9857C43.093 58.9709 42.7951 58.5629 42.7051 57.9832Z" fill="#010101"/>
<path d="M15.2293 28.5019C11.056 28.5019 6.88318 28.4956 2.70991 28.5113C2.23606 28.5113 2.05427 28.4452 2.13707 27.9028C2.91346 22.8163 5.66729 19.2709 10.3986 17.2666C10.6578 17.1568 10.8603 17.1766 11.1118 17.3034C13.8712 18.6945 16.6396 18.6873 19.4016 17.3102C19.6473 17.1879 19.8516 17.146 20.1171 17.2585C24.8718 19.2859 27.6357 22.8397 28.3818 27.9622C28.4497 28.4272 28.3165 28.514 27.876 28.5122C23.6604 28.4956 19.4449 28.5019 15.2293 28.5019Z" fill="#004999"/>
<path d="M8.13907 9.2081C8.13645 8.27025 8.31931 7.34112 8.67713 6.47412C9.03495 5.60713 9.56068 4.81935 10.2241 4.15606C10.8875 3.49277 11.6756 2.96706 12.5429 2.60912C13.4103 2.25118 14.3399 2.06808 15.2783 2.07033C19.1932 2.07708 22.3783 5.26886 22.3761 9.18561C22.3761 13.0947 19.1779 16.2937 15.2688 16.2982C11.3597 16.3027 8.14177 13.1037 8.13907 9.2081Z" fill="#004999"/>
<path d="M43.7788 30.5342C47.6938 30.5482 50.8663 33.7417 50.8587 37.6639C50.851 41.5793 47.6592 44.7544 43.7343 44.7508C39.7847 44.7468 36.6055 41.5447 36.6244 37.587C36.6397 33.6851 39.8508 30.5225 43.7788 30.5342Z" fill="#E33C5C"/>
<path d="M38.6552 21.7773C38.6552 20.9678 38.6628 20.2356 38.6552 19.5048C38.6444 18.72 38.2691 18.3477 37.4793 18.3391C36.6536 18.3297 35.827 18.3207 35.0017 18.3445C34.6655 18.3544 34.5809 18.2505 34.5814 17.9209C34.5922 13.4559 34.5922 8.99073 34.5814 4.52545C34.5814 4.20434 34.6525 4.09685 34.9963 4.09775C42.1746 4.10765 49.3533 4.10615 56.5322 4.09326C56.9984 4.09326 56.9696 4.31228 56.9696 4.62664C56.9648 9.02866 56.9672 13.4304 56.9768 17.8318C56.9768 18.2546 56.8576 18.3481 56.4521 18.3458C53.1275 18.3297 49.8025 18.3486 46.4784 18.3265C45.8463 18.3178 45.2221 18.4678 44.6631 18.7628C42.6953 19.7742 40.7108 20.7492 38.6552 21.7773ZM45.8394 8.17102C43.8714 8.17102 41.9036 8.17102 39.9359 8.17102C39.1259 8.17102 38.6696 8.53485 38.6588 9.16943C38.648 9.80401 39.1088 10.2011 39.9026 10.2038C43.817 10.2065 47.7319 10.2065 51.6475 10.2038C52.4386 10.2038 52.9043 9.80941 52.894 9.17258C52.8836 8.53575 52.4251 8.17372 51.6173 8.17282C49.6908 8.16952 47.7648 8.16892 45.8394 8.17102ZM45.7944 14.2708C47.7411 14.2708 49.6878 14.2708 51.6344 14.2708C52.4336 14.2708 52.8944 13.8885 52.8917 13.2508C52.889 12.6131 52.4278 12.2402 51.6263 12.2398C47.733 12.2374 43.8398 12.2374 39.9467 12.2398C39.1317 12.2398 38.6759 12.5946 38.6583 13.2292C38.6399 13.8836 39.1164 14.2721 39.9548 14.273C41.9018 14.2736 43.8484 14.2729 45.7948 14.2708H45.7944Z" fill="#EDEDED"/>
<path d="M20.3448 54.2982C18.2001 53.2292 16.1553 52.2196 14.1222 51.1883C13.6912 50.9661 13.2122 50.8532 12.7273 50.8596C9.35903 50.8726 5.99125 50.8569 2.62347 50.8776C2.15817 50.8802 2.02183 50.7773 2.02408 50.2929C2.04538 45.9323 2.04538 41.5718 2.02408 37.2114C2.02183 36.7248 2.15907 36.6268 2.62392 36.6268C9.69817 36.642 16.7729 36.6413 23.848 36.6245C24.3489 36.6245 24.4267 36.7819 24.4249 37.2321C24.4084 41.5927 24.4084 45.9534 24.4249 50.314C24.4249 50.7507 24.3282 50.9023 23.871 50.8794C23.0889 50.8402 22.3036 50.8609 21.5202 50.8713C20.7286 50.8811 20.3592 51.2517 20.3502 52.0406C20.3367 52.7592 20.3448 53.4784 20.3448 54.2982ZM13.2938 40.7009C11.3053 40.7009 9.31673 40.6978 7.32819 40.7009C6.57264 40.7009 6.12175 41.0787 6.1078 41.693C6.0934 42.3303 6.56004 42.7306 7.34709 42.731C11.2609 42.7346 15.1743 42.7346 19.0875 42.731C19.8818 42.731 20.3475 42.3411 20.3403 41.7056C20.3331 41.0702 19.875 40.7014 19.0686 40.7C17.1441 40.6979 15.2192 40.6982 13.2938 40.7009ZM13.2173 44.7674C11.2499 44.7674 9.28253 44.7737 7.31514 44.7634C6.74139 44.7602 6.3157 44.9595 6.14245 45.5248C5.9278 46.2246 6.47815 46.7984 7.36014 46.7993C11.2526 46.8023 15.1449 46.8023 19.0371 46.7993C19.8786 46.7993 20.3556 46.4135 20.3421 45.7605C20.3277 45.1277 19.8701 44.771 19.0574 44.7679C17.1104 44.7652 15.1637 44.765 13.2173 44.7674Z" fill="#EDEDED"/>
<path d="M45.8394 8.17066C47.7645 8.17066 49.6899 8.17066 51.6156 8.17066C52.4256 8.17066 52.8823 8.5363 52.8922 9.17042C52.9021 9.80455 52.4368 10.2012 51.6457 10.2017C47.7316 10.2044 43.8167 10.2044 39.9008 10.2017C39.1061 10.2017 38.6458 9.8104 38.657 9.16727C38.6683 8.52415 39.125 8.16976 39.9341 8.16886C41.9033 8.16796 43.8717 8.16856 45.8394 8.17066Z" fill="#010101"/>
<path d="M45.7948 14.2704C43.8481 14.2704 41.9016 14.2704 39.9552 14.2704C39.1169 14.2704 38.6403 13.8809 38.6588 13.2266C38.6763 12.5938 39.1322 12.2372 39.9471 12.2372C43.8399 12.2348 47.7331 12.2348 51.6268 12.2372C52.4282 12.2372 52.8895 12.6127 52.8922 13.2482C52.8949 13.8836 52.4341 14.2668 51.6349 14.2682C49.6882 14.273 47.7415 14.2737 45.7948 14.2704Z" fill="#010101"/>
<path d="M13.2938 40.7009C15.2189 40.7009 17.1438 40.7009 19.0686 40.7009C19.875 40.7009 20.334 41.071 20.3403 41.7065C20.3466 42.342 19.8818 42.731 19.0875 42.7319C15.1743 42.7346 11.2609 42.7346 7.3471 42.7319C6.56005 42.7319 6.09341 42.3312 6.10781 41.6939C6.12176 41.0796 6.57265 40.7045 7.3282 40.7018C9.31674 40.6977 11.3053 40.7009 13.2938 40.7009Z" fill="#010101"/>
<path d="M13.2173 44.7672C15.1634 44.7672 17.1095 44.7672 19.0556 44.7672C19.8683 44.7672 20.3259 45.127 20.3403 45.7598C20.3556 46.4128 19.8786 46.7982 19.0353 46.7987C15.1432 46.8005 11.2508 46.8005 7.35837 46.7987C6.47638 46.7987 5.92603 46.2239 6.14068 45.5241C6.31393 44.9588 6.73963 44.7596 7.31338 44.7627C9.28256 44.7735 11.2499 44.7672 13.2173 44.7672Z" fill="#010101"/>
</g>
<defs>
<clipPath id="clip0_428_2127">
<rect width="59" height="59" fill="white"/>
</clipPath>
</defs>
</svg>
