<svg width="116" height="115" viewBox="0 0 116 115" fill="none" xmlns="http://www.w3.org/2000/svg">
<path d="M15.3169 36.4623H45.9449V40.2336H15.3169V96.7162C15.3169 99.1897 14.8288 99.6802 12.3923 99.6844C11.4029 99.6844 10.4061 99.6654 9.41421 99.6926C6.2918 99.7751 3.8801 102.249 3.85949 105.355C3.83888 108.481 6.20439 110.994 9.30125 111.133C9.68877 111.15 10.078 111.144 10.4663 111.144H93.8876V63.3114H97.6474C97.6737 63.7674 97.7232 64.2184 97.7232 64.6743C97.7271 80.513 97.7271 96.3517 97.7232 112.19C97.7232 114.478 97.1996 114.994 94.9092 114.994C66.6846 114.994 38.4589 114.994 10.2321 114.994C4.04831 114.994 0 110.963 0 104.805C0 80.2901 0 55.7771 0 31.2663C0 25.1749 4.04668 21.0969 10.1093 21.0689C11.0591 21.0689 12.0056 21.0524 12.958 21.0689C14.663 21.1051 15.3029 21.7408 15.3086 23.4335C15.3202 27.232 15.3128 31.0297 15.3128 34.8273L15.3169 36.4623ZM11.4219 25.0092C6.84835 24.2762 3.77624 27.2353 3.8018 31.6052C3.9263 53.0925 3.85784 74.5807 3.85784 96.0681V97.4483C5.16221 96.9577 6.32562 96.3765 7.55661 96.097C8.78761 95.8175 10.0986 95.8298 11.4219 95.7103V25.0092Z" fill="#004999"/>
<path d="M90.0973 56.3222C90.0973 58.5228 90.1097 60.6352 90.0932 62.7475C90.08 64.4848 89.4023 65.1683 87.642 65.1774C84.1466 65.1966 80.6509 65.1966 77.155 65.1774C75.3898 65.1666 74.7804 64.5177 74.764 62.7162C74.7499 60.8611 74.8018 59.0059 74.726 57.1508C74.7095 56.76 74.3501 56.1944 74.0013 56.0377C71.0833 54.7268 71.0734 54.7507 68.7747 57.0511C67.9502 57.8756 67.1438 58.7174 66.297 59.5163C65.2557 60.4983 64.2737 60.4934 63.2414 59.4743C60.6613 56.9271 58.0954 54.3662 55.5438 51.7915C54.4249 50.6636 54.4522 49.7196 55.5982 48.5587C56.9323 47.2073 58.3191 45.9021 59.6037 44.5104C59.8651 44.2284 59.9978 43.5729 59.8601 43.2159C58.7132 40.2254 58.6901 40.2345 55.4597 40.2345C54.2947 40.2345 53.1288 40.2568 51.9646 40.2246C50.5539 40.1867 49.8481 39.5592 49.8324 38.1749C49.7912 34.4635 49.7912 30.7533 49.8324 27.0441C49.8464 25.621 50.5943 24.9342 52.0429 24.9119C53.9393 24.8822 55.8415 24.8757 57.7387 24.9177C58.4362 24.9334 58.7116 24.6753 59.076 24.0627C60.3128 21.9874 60.0424 20.4085 58.0264 18.9978C57.0519 18.3151 56.2793 17.3356 55.4465 16.4608C54.4901 15.4557 54.4629 14.4894 55.43 13.5082C58.0355 10.8654 60.6613 8.24241 63.3074 5.63918C64.3463 4.61597 65.2813 4.63823 66.3581 5.68123C67.7193 7.00043 69.0633 8.34767 70.3743 9.72129C70.8467 10.216 71.2128 10.2449 71.9111 10.0833C74.3806 9.51187 75.1721 8.06569 74.7969 5.64907C74.6147 4.46921 74.7367 3.23659 74.7796 2.02951C74.825 0.730097 75.5117 0.0300943 76.8079 0.0202003C80.5193 -0.00673344 84.2296 -0.00673344 87.9387 0.0202003C89.3561 0.0292698 90.061 0.754007 90.0874 2.20431C90.1209 4.10341 90.1209 6.00224 90.0874 7.90079C90.0742 8.58266 90.2259 8.96275 90.9408 9.23566C93.8406 10.343 93.8266 10.3743 96.0461 8.13248C96.8962 7.27335 97.7306 6.40103 98.6129 5.57653C99.5751 4.67534 100.531 4.65391 101.473 5.57653C104.15 8.20834 106.804 10.8643 109.434 13.5445C110.388 14.5191 110.341 15.4755 109.345 16.502C107.993 17.8965 106.616 19.266 105.214 20.6105C104.738 21.0648 104.772 21.4235 104.91 22.0517C105.451 24.5252 106.91 25.3176 109.323 24.9375C110.46 24.7586 111.65 24.8823 112.814 24.9144C114.255 24.9548 114.979 25.6565 114.988 27.0754C115.011 30.7439 115.011 34.4124 114.988 38.0809C114.979 39.5197 114.284 40.2065 112.829 40.2304C110.933 40.2625 109.031 40.2765 107.133 40.2238C106.353 40.2023 106.099 40.5659 105.715 41.1884C104.453 43.2324 104.817 44.7429 106.753 46.1214C107.759 46.8379 108.571 47.8372 109.426 48.75C110.333 49.7154 110.361 50.6777 109.441 51.6135C106.809 54.2914 104.152 56.9444 101.47 59.5724C100.513 60.5123 99.4984 60.4719 98.5106 59.5138C97.1172 58.1617 95.7897 56.741 94.3551 55.4326C94.0517 55.1547 93.3748 55.0615 92.9534 55.1811C92.0069 55.4441 91.1139 55.9001 90.0973 56.3222ZM99.7663 55.4705L105.229 49.9356C104.03 48.75 102.708 47.4505 101.395 46.1429C100.047 44.7998 100.036 44.4065 100.833 42.7484C101.503 41.3528 102.095 39.9215 102.608 38.461C103.219 36.7229 103.515 36.4459 105.399 36.4401C107.283 36.4344 109.167 36.4401 111.041 36.4401V28.7566C108.965 28.7566 106.984 28.7401 105.004 28.7624C103.798 28.7756 103.134 28.2223 102.732 27.0771C102.16 25.4097 101.482 23.7803 100.704 22.1985C100.098 20.9873 100.274 20.101 101.216 19.2022C102.646 17.8369 104.019 16.4179 105.324 15.1201L99.8711 9.6471C98.5123 11.0306 97.0908 12.4694 95.6784 13.918C94.8457 14.7722 93.9766 14.8835 92.88 14.3377C91.4174 13.6092 89.9121 12.9696 88.3725 12.4224C86.5585 11.7809 86.2485 11.4602 86.246 9.57124C86.2436 7.6823 86.246 5.80986 86.246 3.92339H78.5608C78.5608 5.99784 78.5484 8.01375 78.5649 10.0297C78.5748 11.2318 78.0281 11.893 76.8681 12.2863C75.2363 12.8306 73.6454 13.4905 72.1074 14.261C70.8657 14.8918 69.9348 14.7697 68.999 13.7663C67.6624 12.33 66.2674 10.9473 65.0957 9.74603L59.5715 15.238C60.8767 16.5201 62.2768 17.9202 63.704 19.2913C64.6175 20.1694 64.6761 21.0681 64.1162 22.201C63.3807 23.7078 62.731 25.2552 62.1704 26.8355C61.6138 28.3847 61.223 28.7525 59.5608 28.7574C57.6323 28.764 55.7038 28.7574 53.7373 28.7574V36.4418C55.7607 36.4418 57.695 36.483 59.6268 36.4269C61.0062 36.3874 61.7449 36.9728 62.1712 38.2878C62.6733 39.8371 63.3255 41.3476 64.0181 42.8226C64.7338 44.3397 64.7272 44.8517 63.5597 46.0316C62.2026 47.4035 60.8289 48.7607 59.5781 50.009L65.0199 55.4779C66.3548 54.1166 67.7737 52.6746 69.1845 51.2292C69.9834 50.4047 70.8335 50.3289 71.8814 50.8071C73.5593 51.5755 75.2743 52.2698 77.0008 52.9244C78.0117 53.3078 78.5723 53.9212 78.5633 55.0261C78.5517 56.3634 78.5633 57.7016 78.5633 59.0389C78.5633 59.7901 78.5633 60.5412 78.5633 61.2775H86.2468C86.2468 59.2673 86.2897 57.333 86.232 55.402C86.1916 54.0284 86.7556 53.2748 88.0732 52.8403C89.6677 52.3207 91.2206 51.681 92.7184 50.9266C93.9552 50.2967 94.8968 50.4023 95.8326 51.4057C97.1518 52.8156 98.5189 54.1843 99.7663 55.4705Z" fill="#E33C5C"/>
<path d="M46.0159 92.0685C46.0159 93.7414 46.0233 95.3665 46.0159 96.9933C46.0051 99.0702 45.3909 99.6803 43.295 99.6812C36.1322 99.6856 28.9695 99.6856 21.8067 99.6812C19.7907 99.6812 19.1682 99.0603 19.1682 97.0667C19.1649 92.4066 19.1649 87.7465 19.1682 83.0864C19.1682 81.1249 19.7586 80.5205 21.6879 80.5197C28.9799 80.5148 36.2721 80.5148 43.5646 80.5197C45.3579 80.5197 45.987 81.1356 46.0093 82.9166C46.0316 84.5928 46.0142 86.269 46.0142 88.045H61.3501V84.7032C61.3501 80.5181 61.3501 80.5181 65.6013 80.5181H72.7539V69.074H76.6406V80.5181C79.6336 80.5181 82.4691 80.5181 85.3054 80.5181C87.6964 80.5181 88.1417 80.9699 88.1425 83.4038C88.1425 87.9776 88.1425 92.5514 88.1425 97.1252C88.1384 99.0537 87.5126 99.6746 85.5791 99.6762C78.3729 99.6823 71.167 99.6823 63.9613 99.6762C61.9512 99.6762 61.3583 99.0686 61.3526 97.0469C61.3526 95.4152 61.3526 93.7843 61.3526 92.0636L46.0159 92.0685ZM23.1168 84.4171V95.7244H42.0871V84.4171H23.1168ZM84.2871 84.4303H65.2517V95.7376H84.2871V84.4303Z" fill="#004999"/>
<path d="M46.0159 53.6319H53.5313V57.4716H46.0167C46.0167 59.1964 46.0209 60.8141 46.0167 62.431C46.0085 64.6159 45.4396 65.1807 43.2373 65.1823C36.1235 65.1862 29.0096 65.1862 21.8957 65.1823C19.7273 65.1823 19.1707 64.6052 19.1699 62.398C19.1699 57.7846 19.1699 53.1715 19.1699 48.5587C19.1699 46.6236 19.7677 46.0242 21.7209 46.0225C28.9645 46.0159 36.2078 46.0159 43.4509 46.0225C45.4082 46.0225 45.9986 46.6162 46.0134 48.5661C46.0266 50.1986 46.0159 51.8312 46.0159 53.6319ZM42.1333 49.9092H23.0921V61.256H42.1333V49.9092Z" fill="#004999"/>
<path d="M65.1849 32.5221C65.2204 23.0098 72.9246 15.3123 82.4056 15.3189C91.9081 15.3246 99.7063 23.1516 99.6766 32.6483C99.6478 42.1746 91.8265 49.8944 82.2844 49.8144C80.0256 49.8038 77.7911 49.3479 75.7087 48.4728C73.6262 47.5977 71.7369 46.3205 70.1486 44.7143C68.5604 43.1081 67.3044 41.2045 66.4527 39.1125C65.601 37.0204 65.1702 34.7809 65.1849 32.5221ZM82.4172 19.1709C75.0197 19.1709 68.9925 25.1807 68.9818 32.5749C68.9711 39.9443 75.0304 46.0143 82.3982 46.0143C89.766 46.0143 95.8195 39.9698 95.8261 32.5897C95.8344 25.1964 89.8163 19.1734 82.4188 19.1709H82.4172Z" fill="#E33C5C"/>
<path d="M82.4691 40.2304C81.4658 40.2449 80.4696 40.0604 79.5381 39.6874C78.6066 39.3145 77.7583 38.7606 77.0422 38.0577C76.3262 37.3548 75.7566 36.517 75.3664 35.5926C74.9762 34.6682 74.7731 33.6756 74.769 32.6722C74.7245 28.3963 78.1709 24.8972 82.4204 24.9021C86.5999 24.9079 90.076 28.3757 90.0941 32.5584C90.1123 36.7535 86.6906 40.1966 82.4691 40.2304ZM86.2429 32.6071C86.2439 32.099 86.1441 31.5958 85.9494 31.1264C85.7548 30.6571 85.469 30.2311 85.1086 29.8729C84.7483 29.5147 84.3205 29.2314 83.8501 29.0396C83.3796 28.8477 82.8757 28.751 82.3677 28.755C80.3006 28.7748 78.5881 30.4914 78.57 32.5617C78.5518 34.6321 80.2446 36.3676 82.3198 36.4245C84.4256 36.4822 86.2297 34.7252 86.2429 32.6071Z" fill="#E33C5C"/>
</svg>
