<svg width="658" height="622" viewBox="0 0 658 622" fill="none" xmlns="http://www.w3.org/2000/svg">
<path d="M79.9572 84.3877C84.4626 83.2649 88.9458 82.0758 93.4071 80.8204C141.522 67.3868 365.467 7.96293 439.13 45.015C521.844 86.4963 614.245 423.2 540.038 488.95C465.831 554.699 183.714 617.544 129.093 574.127C74.4712 530.71 -9.05096 225.846 0.847656 161.197C9.23566 106.004 64.1088 88.3661 79.9572 84.3877Z" fill="#F8F8F8"/>
<path d="M167.813 444.896C176.513 448.132 185.817 449.419 195.068 448.665C204.319 447.91 213.291 445.133 221.353 440.53C229.415 435.926 236.369 429.609 241.724 422.022C247.08 414.436 250.707 405.766 252.349 396.623C253.991 387.481 253.608 378.09 251.228 369.112C248.847 360.134 244.527 351.788 238.572 344.663C232.617 337.538 225.172 331.808 216.763 327.877C208.353 323.945 199.184 321.909 189.903 321.911C186.167 321.909 182.438 322.233 178.758 322.879C165.861 325.181 153.991 331.422 144.78 340.746C135.569 350.069 129.467 362.018 127.314 374.951C125.161 387.884 127.061 401.167 132.753 412.976C138.446 424.785 147.652 434.541 159.107 440.904M137.335 340.41C146.524 329.642 158.79 321.952 172.481 318.376C186.171 314.801 200.628 315.511 213.903 320.411C227.178 325.311 238.633 334.167 246.724 345.783C254.815 357.4 259.153 371.219 259.153 385.379C259.16 396.543 256.469 407.542 251.312 417.441C246.155 427.34 238.683 435.844 229.534 442.23C220.384 448.616 209.828 452.694 198.764 454.117C187.7 455.54 176.456 454.265 165.99 450.402C155.525 446.539 146.147 440.201 138.657 431.929C131.166 423.656 125.785 413.695 122.97 402.892C120.156 392.09 119.993 380.767 122.494 369.888C124.995 359.009 130.087 348.896 137.335 340.41Z" stroke="#263238" stroke-linecap="round" stroke-linejoin="round"/>
<path d="M137.335 340.41C146.524 329.642 158.79 321.952 172.481 318.376C186.171 314.801 200.628 315.511 213.903 320.411C227.178 325.311 238.633 334.167 246.724 345.783C254.815 357.4 259.153 371.219 259.153 385.379C259.16 396.543 256.469 407.542 251.312 417.441C246.155 427.34 238.683 435.844 229.534 442.23C220.384 448.616 209.828 452.694 198.764 454.117C187.7 455.54 176.456 454.265 165.99 450.402C155.525 446.539 146.147 440.201 138.657 431.929C131.166 423.656 125.785 413.695 122.97 402.892C120.156 392.09 119.993 380.767 122.494 369.888C124.995 359.009 130.087 348.896 137.335 340.41Z" stroke="#263238" stroke-linecap="round" stroke-linejoin="round"/>
<path d="M138.66 320.306C139.8 319.418 140.966 318.542 142.158 317.654C152.085 310.606 163.449 305.847 175.432 303.716C180.243 302.849 185.12 302.405 190.008 302.39C208.893 302.387 227.212 308.843 241.929 320.686C256.645 332.529 266.876 349.05 270.926 367.509C274.976 385.969 272.602 405.259 264.196 422.183C255.791 439.107 241.859 452.648 224.71 460.563C207.561 468.478 188.225 470.291 169.905 465.701C151.586 461.112 135.383 450.396 123.983 435.329C112.583 420.262 106.669 401.748 107.223 382.857C107.776 363.966 114.763 345.832 127.026 331.459C128.112 330.133 129.239 328.953 130.391 327.746M190.022 454.55C203.707 454.55 217.085 450.489 228.464 442.88C239.844 435.272 248.713 424.457 253.951 411.804C259.189 399.151 260.56 385.227 257.891 371.794C255.222 358.362 248.633 346.022 238.957 336.337C229.28 326.652 216.952 320.055 203.53 317.382C190.107 314.708 176.195 316.077 163.55 321.317C150.906 326.556 140.098 335.43 132.492 346.817C124.887 358.203 120.827 371.591 120.824 385.286C120.78 394.392 122.537 403.417 125.994 411.84C129.45 420.263 134.538 427.919 140.964 434.365C147.39 440.812 155.027 445.923 163.435 449.403C171.843 452.883 180.857 454.664 189.955 454.643L190.022 454.55Z" stroke="#263238" stroke-linecap="round" stroke-linejoin="round"/>
<path d="M236.957 307.084C222.769 298.536 206.516 294.032 189.955 294.062V302.483C202.981 302.459 215.827 305.521 227.443 311.421" stroke="#263238" stroke-linecap="round" stroke-linejoin="round"/>
<path d="M236.136 316.553C245.239 322.673 253.038 330.542 259.079 339.701C265.121 348.861 269.286 359.13 271.332 369.912C273.378 380.695 273.265 391.777 270.999 402.515C268.734 413.254 264.36 423.435 258.133 432.47L265.063 437.257C278.573 417.671 283.909 393.581 279.934 370.117C275.959 346.652 262.987 325.668 243.782 311.633" stroke="#263238" stroke-linecap="round" stroke-linejoin="round"/>
<path d="M189.955 316.128V321.91C201.522 321.909 212.869 325.074 222.767 331.062C232.666 337.05 240.74 345.634 246.116 355.883C251.491 366.133 253.963 377.658 253.264 389.213C252.566 400.767 248.723 411.91 242.152 421.436L246.909 424.725C254.081 414.329 258.275 402.168 259.037 389.558C259.799 376.948 257.099 364.369 251.23 353.184C245.362 341.999 236.548 332.634 225.742 326.103C214.937 319.571 202.552 316.122 189.929 316.128H189.955Z" stroke="#263238" stroke-linecap="round" stroke-linejoin="round"/>
<path d="M150.003 328.793L153.343 333.528C160.939 328.125 169.637 324.475 178.812 322.839L177.804 317.15C167.792 318.931 158.298 322.907 150.003 328.793Z" stroke="#263238" stroke-linecap="round" stroke-linejoin="round"/>
<path d="M137.268 310.824L142.132 317.694C152.059 310.646 163.422 305.886 175.405 303.756L173.934 295.468C160.728 297.812 148.206 303.056 137.268 310.824Z" stroke="#263238" stroke-linecap="round" stroke-linejoin="round"/>
<path d="M195.64 476.537C212.449 475.518 228.644 469.843 242.417 460.146L237.58 453.25C221.073 464.836 200.909 469.999 180.87 467.77C160.83 465.541 142.291 456.075 128.728 441.144C115.165 426.214 107.509 406.845 107.196 386.67C106.882 366.494 113.933 346.897 127.026 331.552L120.639 326.075C109.556 339.056 102.332 354.886 99.7858 371.769C97.24 388.652 99.4749 405.911 106.237 421.586C112.998 437.262 124.016 450.727 138.039 460.452C152.062 470.177 168.529 475.772 185.57 476.604" stroke="#263238" stroke-linecap="round" stroke-linejoin="round"/>
<path d="M109.746 476.352C109.355 471.136 107.824 466.07 105.262 461.511C102.7 456.952 99.1688 453.011 94.9187 449.967C90.6685 446.923 85.8025 444.85 80.6641 443.894C75.5257 442.937 70.2403 443.121 65.1808 444.433C60.1212 445.744 55.411 448.151 51.3825 451.484C47.3541 454.816 44.1057 458.993 41.8665 463.719C39.6273 468.445 38.452 473.605 38.4235 478.836C38.395 484.066 39.514 489.239 41.7015 493.989C42.5812 495.9 43.6232 497.733 44.8157 499.466C47.8127 503.78 51.7271 507.376 56.2779 509.995C58.8383 511.481 61.5766 512.635 64.4273 513.43C69.5178 514.87 74.8642 515.159 80.0803 514.278C85.2963 513.397 90.2515 511.368 94.588 508.336C98.9246 505.305 102.534 501.347 105.155 496.749C107.777 492.151 109.345 487.027 109.746 481.749M63.5395 516.56C54.863 514.111 47.3042 508.726 42.1522 501.323C40.8471 499.435 39.7076 497.439 38.7465 495.355C35.0305 487.278 34.184 478.172 36.3475 469.548C38.511 460.923 43.5545 453.297 50.642 447.934C57.7295 442.571 66.4355 439.793 75.317 440.06C84.1984 440.327 92.7219 443.624 99.4749 449.403C106.228 455.182 110.805 463.097 112.447 471.836C114.089 480.575 112.698 489.613 108.504 497.453C104.31 505.292 97.5649 511.462 89.3871 514.939C81.2092 518.417 72.0895 518.993 63.5395 516.573V516.56Z" stroke="#263238" stroke-linecap="round" stroke-linejoin="round"/>
<path d="M63.5395 516.56C54.863 514.111 47.3042 508.726 42.1522 501.323C40.8471 499.435 39.7076 497.439 38.7465 495.355C35.0305 487.278 34.184 478.172 36.3475 469.548C38.511 460.923 43.5545 453.297 50.642 447.934C57.7295 442.571 66.4355 439.793 75.317 440.06C84.1984 440.327 92.7219 443.624 99.4749 449.403C106.228 455.182 110.805 463.097 112.447 471.836C114.089 480.575 112.698 489.613 108.504 497.453C104.31 505.292 97.5649 511.462 89.3871 514.939C81.2092 518.417 72.0895 518.993 63.5395 516.573V516.56Z" stroke="#263238" stroke-linecap="round" stroke-linejoin="round"/>
<path d="M52.9646 520.631C52.2358 520.26 51.5203 519.875 50.8047 519.464C44.8685 516.041 39.7638 511.345 35.8575 505.712C31.9673 500.11 29.3506 493.724 28.1918 487.002C27.0329 480.279 27.36 473.385 29.1499 466.803C30.9398 460.22 34.149 454.111 38.5519 448.903C42.9548 443.696 48.4442 439.517 54.6343 436.66C61.4597 433.517 68.9431 432.07 76.4474 432.444C83.9516 432.818 91.2545 435.001 97.7343 438.807C104.214 442.613 109.679 447.93 113.664 454.305C117.648 460.68 120.034 467.924 120.619 475.42C121.204 482.916 119.97 490.443 117.023 497.36C114.075 504.276 109.501 510.378 103.69 515.144C97.8793 519.911 91.0035 523.202 83.6481 524.737C76.2927 526.271 68.6757 526.005 61.4454 523.96C60.5443 523.694 59.6565 523.416 58.7952 523.111M109.507 462.732C107.389 458.048 104.366 453.83 100.612 450.32C96.8587 446.81 92.4484 444.078 87.6353 442.281C82.8223 440.483 77.7016 439.656 72.5679 439.847C67.4342 440.038 62.3889 441.243 57.7225 443.393C53.0561 445.544 48.8607 448.596 45.3777 452.375C41.8948 456.154 39.1929 460.586 37.428 465.414C35.663 470.242 34.8697 475.372 35.0937 480.508C35.3176 485.644 36.5544 490.686 38.7329 495.342C39.694 497.425 40.8335 499.422 42.1385 501.309C47.6985 509.315 56.0537 514.945 65.5569 517.09C75.0601 519.236 85.0215 517.74 93.4771 512.898C101.933 508.056 108.269 500.219 111.236 490.933C114.203 481.647 113.587 471.586 109.507 462.732Z" stroke="#263238" stroke-linecap="round" stroke-linejoin="round"/>
<path d="M23.0704 473.421C22.0356 482.697 23.5569 492.08 27.4697 500.553L31.7764 498.564C28.7106 491.925 27.2533 484.655 27.5228 477.346" stroke="#263238" stroke-linecap="round" stroke-linejoin="round"/>
<path d="M28.0928 471.617C29.0779 465.517 31.2635 459.673 34.5227 454.425C37.7819 449.177 42.0498 444.628 47.0791 441.043C52.1084 437.459 57.7989 434.909 63.8204 433.542C69.842 432.175 76.0749 432.018 82.1575 433.08L82.9658 428.399C69.7778 426.104 56.2157 429.048 45.1621 436.603C34.1085 444.159 26.4352 455.73 23.7729 468.859" stroke="#263238" stroke-linecap="round" stroke-linejoin="round"/>
<path d="M38.7463 495.355L41.7013 494.029C38.9745 488.11 37.9183 481.557 38.647 475.08C39.3757 468.604 41.8615 462.45 45.8351 457.286C49.8088 452.122 55.1188 448.145 61.1897 445.786C67.2605 443.426 73.8609 442.775 80.2755 443.901L80.832 440.678C73.8322 439.456 66.6315 440.172 60.0092 442.75C53.3869 445.328 47.5953 449.669 43.2611 455.304C38.9268 460.939 36.215 467.653 35.4193 474.72C34.6235 481.786 35.774 488.935 38.7463 495.395V495.355Z" stroke="#263238" stroke-linecap="round" stroke-linejoin="round"/>
<path d="M54.6474 512.807L56.2773 509.995C51.7266 507.375 47.8122 503.78 44.8151 499.466L42.1649 501.322C45.4318 506.022 49.6937 509.943 54.6474 512.807Z" stroke="#263238" stroke-linecap="round" stroke-linejoin="round"/>
<path d="M48.4328 523.562L50.8047 519.464C44.8685 516.041 39.7638 511.344 35.8575 505.712L31.9616 508.364C36.2643 514.584 41.8893 519.774 48.4328 523.562Z" stroke="#263238" stroke-linecap="round" stroke-linejoin="round"/>
<path d="M119.393 454.775C114.917 446.41 108.205 439.454 100.007 434.685L97.6218 438.782C107.438 444.499 114.832 453.605 118.416 464.39C122 475.176 121.528 486.9 117.087 497.361C112.647 507.823 104.544 516.303 94.2994 521.21C84.0548 526.117 72.3727 527.114 61.446 524.013L60.1209 528.574C69.3627 531.188 79.1515 531.156 88.3764 528.484C97.6012 525.811 105.893 520.604 112.31 513.454C118.728 506.304 123.014 497.497 124.683 488.032C126.352 478.567 125.337 468.824 121.752 459.908" stroke="#263238" stroke-linecap="round" stroke-linejoin="round"/>
<path d="M12.7739 280.787C12.7651 279.007 13.1814 277.25 13.9881 275.663C14.7948 274.076 15.9686 272.705 17.4119 271.664H30.4775C31.8469 272.634 32.9801 273.901 33.793 275.371C34.606 276.84 35.0778 278.473 35.1733 280.15C35.2688 281.827 34.9855 283.503 34.3446 285.055C33.7037 286.608 32.7216 287.995 31.4713 289.115C30.207 290.507 29.1169 292.048 28.2249 293.704L24.2495 323.436L19.9561 293.956C19.0173 292.226 17.8689 290.618 16.5372 289.168C15.3537 288.117 14.4064 286.826 13.7578 285.382C13.1091 283.937 12.7738 282.371 12.7739 280.787ZM23.9976 286.264C24.7 286.264 28.6621 281.092 28.6488 278.52C28.6356 275.947 26.5287 271.889 23.9448 271.889C21.3608 271.889 19.2803 276 19.2936 278.52C19.3068 281.039 23.5074 286.264 24.0507 286.264H23.9976Z" stroke="#263238" stroke-linecap="round" stroke-linejoin="round"/>
<path d="M109.919 280.416C109.91 278.633 110.326 276.875 111.133 275.286C111.939 273.697 113.113 272.323 114.557 271.279H127.622C128.989 272.251 130.121 273.519 130.932 274.988C131.744 276.457 132.215 278.09 132.31 279.766C132.405 281.442 132.123 283.117 131.484 284.669C130.844 286.221 129.864 287.609 128.616 288.731C127.362 290.128 126.277 291.668 125.383 293.319L121.407 321.499L117.035 293.571C116.103 291.84 114.959 290.231 113.629 288.784C112.453 287.732 111.514 286.442 110.874 284.999C110.234 283.557 109.909 281.994 109.919 280.416ZM121.142 285.879C121.845 285.879 125.794 280.708 125.78 278.135C125.767 275.562 123.673 271.504 121.089 271.504C118.505 271.504 116.425 275.629 116.438 278.214C116.451 280.8 120.586 285.879 121.142 285.879Z" stroke="#263238" stroke-linecap="round" stroke-linejoin="round"/>
<path d="M54.4097 283.32C54.3937 280.584 55.011 277.882 56.2134 275.425C57.4158 272.967 59.1705 270.822 61.34 269.157L82.7539 269.078C84.8435 270.647 86.5599 272.66 87.7799 274.971C88.9998 277.283 89.693 279.837 89.8095 282.449C89.9261 285.06 89.4631 287.666 88.454 290.077C87.4449 292.489 85.9145 294.647 83.973 296.396V296.462C83.973 296.462 77.9172 302.828 76.3006 310.4L72.4843 351.616L67.9921 309.803C66.1369 302.549 60.3594 296.542 60.3594 296.542C58.486 294.887 56.9865 292.853 55.9606 290.573C54.9346 288.293 54.406 285.821 54.4097 283.32ZM72.153 291.993C73.2661 291.993 79.5206 283.811 79.4941 279.726C79.4941 277.764 78.7151 275.882 77.3284 274.494C75.9417 273.106 74.061 272.327 72.1 272.327C70.1389 272.327 68.2582 273.106 66.8715 274.494C65.4848 275.882 64.7058 277.764 64.7058 279.726C64.7323 283.864 71.2784 291.993 72.153 291.993Z" stroke="#263238" stroke-linecap="round" stroke-linejoin="round"/>
<path d="M116.438 278.175C116.438 280.748 120.586 285.88 121.142 285.88C121.699 285.88 125.793 280.708 125.78 278.135C125.767 275.562 123.673 271.504 121.089 271.504C118.505 271.504 116.425 275.589 116.438 278.175Z" stroke="#263238" stroke-linecap="round" stroke-linejoin="round"/>
<path d="M19.3994 278.546C19.3994 281.119 23.5604 286.264 24.1037 286.264C24.647 286.264 28.7681 281.092 28.7549 278.52C28.7416 275.947 26.6346 271.889 24.0506 271.889C21.4666 271.889 19.3332 275.96 19.3994 278.546Z" stroke="#263238" stroke-linecap="round" stroke-linejoin="round"/>
<path d="M92.4537 222.889L112.158 240.062L113.02 255.008L91.1551 244.783L92.4537 222.889Z" stroke="#263238" stroke-linecap="round" stroke-linejoin="round"/>
<path d="M110.647 215.065L112.158 240.062L113.019 255.008L113.271 259.437H128.854L131.081 215.051C131.114 214.645 131.114 214.237 131.081 213.831C130.656 211.067 129.987 208.347 129.08 205.702L112.675 205.768C111.779 208.418 111.127 211.143 110.727 213.911C110.67 214.293 110.644 214.679 110.647 215.065Z" stroke="#263238" stroke-linecap="round" stroke-linejoin="round"/>
<path d="M112.621 205.702L129 205.635C129 205.635 129 205.503 129 205.45C128.708 204.614 128.404 203.766 128.072 202.93L127.715 202.028C127.595 201.776 127.489 201.524 127.383 201.286C126.973 200.34 126.508 199.419 125.992 198.527L125.475 197.665C125.223 197.268 124.972 196.896 124.72 196.538L124.402 196.14C124.147 195.823 123.868 195.526 123.567 195.252C123.052 194.737 122.433 194.339 121.752 194.085L121.341 193.979H121.261C120.963 193.926 120.658 193.926 120.36 193.979C120.348 193.973 120.334 193.97 120.32 193.97C120.307 193.97 120.293 193.973 120.281 193.979L119.87 194.085C119.191 194.336 118.575 194.735 118.068 195.252C117.778 195.537 117.503 195.838 117.246 196.154L116.928 196.551C116.676 196.923 116.425 197.294 116.173 197.692L115.656 198.554C115.179 199.416 114.715 200.344 114.331 201.326C114.225 201.564 114.119 201.816 114.026 202.068L113.668 202.97C113.337 203.805 113.032 204.654 112.767 205.503C112.661 205.569 112.635 205.635 112.621 205.702Z" fill="#E43C5C" stroke="#263238" stroke-linecap="round" stroke-linejoin="round"/>
<path d="M129.014 205.636L128.947 205.45C128.947 205.45 128.947 205.57 128.947 205.636H129.014Z" stroke="#263238" stroke-linecap="round" stroke-linejoin="round"/>
<path d="M112.608 205.702C112.608 205.636 112.608 205.569 112.608 205.516V205.702Z" stroke="#263238" stroke-linecap="round" stroke-linejoin="round"/>
<path d="M113.218 259.423L113.907 271.279L128.205 271.226L128.802 259.37L113.218 259.423Z" fill="#004999" stroke="#263238" stroke-linecap="round" stroke-linejoin="round"/>
<path d="M32.1343 240.38L51.2028 223.419L52.7002 245.141L31.326 255.326L32.1343 240.38Z" stroke="#263238" stroke-linecap="round" stroke-linejoin="round"/>
<path d="M12.999 215.449L15.5829 259.834H31.1663L31.3784 255.405L32.1336 240.46L33.3793 215.449C33.4191 215.043 33.4191 214.634 33.3793 214.229C32.963 211.463 32.2932 208.742 31.3784 206.1H14.9734C14.0845 208.751 13.4325 211.476 13.0254 214.242C12.9841 214.643 12.9754 215.046 12.999 215.449Z" stroke="#263238" stroke-linecap="round" stroke-linejoin="round"/>
<path d="M15.5699 259.808L16.259 271.664L30.5703 271.61L31.1533 259.755L15.5699 259.808Z" fill="#004999" stroke="#263238" stroke-linecap="round" stroke-linejoin="round"/>
<path d="M14.9741 206.087H31.3525C31.3525 206.087 31.3525 205.954 31.3525 205.901C30.8755 204.575 30.3455 203.076 29.7359 201.737L29.3383 200.862C29.0998 200.358 28.848 199.88 28.5962 199.416C28.4767 199.175 28.344 198.94 28.1988 198.713C27.4478 197.272 26.3838 196.016 25.0848 195.04C24.9647 194.948 24.836 194.868 24.7004 194.801C24.4987 194.686 24.2856 194.593 24.0644 194.523L23.6933 194.43H23.6139C23.3159 194.377 23.0108 194.377 22.7127 194.43H22.6332C22.5059 194.451 22.3815 194.487 22.2622 194.536C22.0411 194.606 21.8279 194.7 21.6262 194.815C21.4907 194.881 21.3619 194.961 21.2419 195.053C19.9585 196.05 18.9053 197.312 18.1544 198.753L17.7833 199.456C17.5316 199.92 17.2797 200.411 17.0412 200.915L16.6438 201.79C16.0607 203.116 15.5306 204.575 15.0801 205.967C15.0138 205.954 14.9874 206.02 14.9741 206.087Z" fill="#E43C5C" stroke="#263238" stroke-linecap="round" stroke-linejoin="round"/>
<path d="M31.3262 206.021V205.834C31.3262 205.834 31.3262 205.954 31.3262 206.021Z" stroke="#263238" stroke-linecap="round" stroke-linejoin="round"/>
<path d="M14.9609 206.087C14.9609 206.087 14.9609 205.954 14.9609 205.901V206.087Z" stroke="#263238" stroke-linecap="round" stroke-linejoin="round"/>
<path d="M64.7058 279.726C64.7058 283.811 71.3314 291.94 72.1529 291.94C73.266 291.94 79.5206 283.758 79.4941 279.673C79.4941 277.711 78.715 275.829 77.3284 274.441C75.9417 273.053 74.061 272.273 72.1 272.273C70.1389 272.273 68.2581 273.053 66.8715 274.441C65.4848 275.829 64.7058 277.711 64.7058 279.673V279.726Z" stroke="#263238" stroke-linecap="round" stroke-linejoin="round"/>
<path d="M44.8024 126.837C45.3987 120.949 48.3668 108.59 52.8325 97.3706C52.6867 97.7684 52.5278 98.1663 52.382 98.5774L90.3201 98.4182C93.9752 107.495 96.5892 116.958 98.1118 126.625C98.231 127.687 98.231 128.759 98.1118 129.821L92.427 222.889L91.1019 244.783L90.6911 250.79L53.1903 250.936L52.7398 245.141L51.2026 223.419L44.7493 130.033C44.6676 128.968 44.6854 127.899 44.8024 126.837Z" stroke="#263238" stroke-linecap="round" stroke-linejoin="round"/>
<path d="M53.1901 250.936L58.8616 269.157L85.2182 269.065L90.6777 250.791L53.1901 250.936Z" fill="#004999" stroke="#263238" stroke-linecap="round" stroke-linejoin="round"/>
<path d="M52.3822 98.5772L90.3203 98.418C90.2408 98.1926 90.148 97.9804 90.0685 97.755C87.9639 91.9827 85.1745 86.4841 81.76 81.3773C78.5267 76.8419 74.9887 73.8979 71.2519 73.9112C64.295 73.9112 58.0007 84.2815 53.3495 96.0443C53.164 96.4819 52.9917 96.9195 52.8327 97.3704C52.6737 97.8213 52.528 98.1661 52.3822 98.5772Z" fill="#E43C5C" stroke="#263238" stroke-linecap="round" stroke-linejoin="round"/>
<path d="M96.8525 211.497L96.8128 212.226" stroke="#263238" stroke-linecap="round" stroke-linejoin="round"/>
<path d="M96.8525 211.683L96.8128 212.226" stroke="#263238" stroke-linecap="round" stroke-linejoin="round"/>
<path d="M96.8262 212.001L96.8129 212.227" stroke="#263238" stroke-linecap="round" stroke-linejoin="round"/>
<path d="M56.0386 148.289C52.6494 140.364 56.3216 131.189 64.2406 127.798C72.1596 124.406 81.3267 128.081 84.7159 136.006C88.1051 143.931 84.4329 153.105 76.5139 156.497C68.5949 159.889 59.4278 156.214 56.0386 148.289Z" fill="#004999" stroke="#263238" stroke-linecap="round" stroke-linejoin="round"/>
<path d="M61.313 142.194C61.3209 143.985 61.8594 145.734 62.8604 147.219C63.8614 148.704 65.28 149.859 66.9368 150.537C68.5935 151.215 70.4141 151.386 72.1682 151.029C73.9223 150.672 75.5311 149.802 76.7913 148.53C78.0515 147.258 78.9063 145.64 79.2478 143.882C79.5893 142.123 79.4021 140.303 78.7098 138.651C78.0176 136.999 76.8514 135.589 75.3587 134.601C73.866 133.612 72.1138 133.088 70.3238 133.096C67.9246 133.11 65.6288 134.076 63.9397 135.781C62.2506 137.486 61.306 139.792 61.313 142.194Z" fill="#E43C5C" stroke="#263238" stroke-linecap="round" stroke-linejoin="round"/>
<path d="M54.8235 182.955C54.601 174.338 61.4012 167.172 70.0121 166.949C78.623 166.726 85.7839 173.532 86.0064 182.149C86.2288 190.767 79.4287 197.933 70.8177 198.156C62.2068 198.378 55.046 191.573 54.8235 182.955Z" fill="#004999" stroke="#263238" stroke-linecap="round" stroke-linejoin="round"/>
<path d="M61.4722 182.574C61.4774 184.366 62.0137 186.116 63.0131 187.603C64.0126 189.09 65.4302 190.247 67.0868 190.927C68.7433 191.607 70.5643 191.781 72.3192 191.425C74.0742 191.069 75.6843 190.201 76.9458 188.929C78.2073 187.657 79.0635 186.039 79.4061 184.281C79.7486 182.522 79.5622 180.701 78.8703 179.048C78.1784 177.395 77.0122 175.985 75.5192 174.996C74.0262 174.006 72.2735 173.482 70.4829 173.49C68.0849 173.501 65.7891 174.463 64.0996 176.167C62.4101 177.87 61.4651 180.174 61.4722 182.574Z" fill="#E43C5C" stroke="#263238" stroke-linecap="round" stroke-linejoin="round"/>
<path d="M167.68 56.4858H301.014V137.274H167.68V56.4858Z" stroke="#263238" stroke-linecap="round" stroke-linejoin="round"/>
<path d="M167.68 127.129H301.014V137.261H167.68V127.129Z" stroke="#263238" stroke-linecap="round" stroke-linejoin="round"/>
<path d="M167.68 130.617H301.014V133.786H167.68V130.617Z" stroke="#263238" stroke-linecap="round" stroke-linejoin="round"/>
<path d="M248 92.5L227 80V105L248 92.5Z" fill="#E43C5C" stroke="#263238" stroke-linecap="round" stroke-linejoin="round"/>
<path d="M167.521 123.084V137.287H229.271V181.354H133.094V123.084H167.521Z" stroke="#263238" stroke-linecap="round" stroke-linejoin="round"/>
<path d="M133.094 174.047H229.271V181.354H133.094V174.047Z" stroke="#263238" stroke-linecap="round" stroke-linejoin="round"/>
<path d="M133.094 176.554H229.271V178.848H133.094V176.554Z" stroke="#263238" stroke-linecap="round" stroke-linejoin="round"/>
<path d="M191 153L175 144V162L191 153Z" fill="#004999" stroke="#263238" stroke-linecap="round" stroke-linejoin="round"/>
<path d="M435.579 362.755H589.412V416.662H435.579V362.755Z" stroke="#263238" stroke-linecap="round" stroke-linejoin="round"/>
<path d="M577.235 368.378H584.284V375.433H577.235V368.378Z" stroke="#263238" stroke-linecap="round" stroke-linejoin="round"/>
<path d="M566.475 368.378H573.524V375.433H566.475V368.378Z" stroke="#263238" stroke-linecap="round" stroke-linejoin="round"/>
<path d="M555.728 368.378H562.777V375.433H555.728V368.378Z" stroke="#263238" stroke-linecap="round" stroke-linejoin="round"/>
<path d="M544.981 368.378H552.03V375.433H544.981V368.378Z" stroke="#263238" stroke-linecap="round" stroke-linejoin="round"/>
<path d="M534.221 368.378H541.271V375.433H534.221V368.378Z" stroke="#263238" stroke-linecap="round" stroke-linejoin="round"/>
<path d="M523.475 368.378H530.524V375.433H523.475V368.378Z" stroke="#263238" stroke-linecap="round" stroke-linejoin="round"/>
<path d="M512.728 368.378H519.777V375.433H512.728V368.378Z" stroke="#263238" stroke-linecap="round" stroke-linejoin="round"/>
<path d="M501.968 368.378H509.018V375.433H501.968V368.378Z" stroke="#263238" stroke-linecap="round" stroke-linejoin="round"/>
<path d="M491.221 368.378H498.271V375.433H491.221V368.378Z" stroke="#263238" stroke-linecap="round" stroke-linejoin="round"/>
<path d="M480.475 368.378H487.524V375.433H480.475V368.378Z" stroke="#263238" stroke-linecap="round" stroke-linejoin="round"/>
<path d="M469.714 368.378H476.764V375.433H469.714V368.378Z" stroke="#263238" stroke-linecap="round" stroke-linejoin="round"/>
<path d="M577.235 378.576H584.284V385.631H577.235V378.576Z" stroke="#263238" stroke-linecap="round" stroke-linejoin="round"/>
<path d="M566.475 378.576H573.524V385.631H566.475V378.576Z" stroke="#263238" stroke-linecap="round" stroke-linejoin="round"/>
<path d="M555.728 378.576H562.777V385.631H555.728V378.576Z" stroke="#263238" stroke-linecap="round" stroke-linejoin="round"/>
<path d="M544.981 378.576H552.03V385.631H544.981V378.576Z" stroke="#263238" stroke-linecap="round" stroke-linejoin="round"/>
<path d="M534.221 378.576H541.271V385.631H534.221V378.576Z" stroke="#263238" stroke-linecap="round" stroke-linejoin="round"/>
<path d="M523.475 378.576H530.524V385.631H523.475V378.576Z" stroke="#263238" stroke-linecap="round" stroke-linejoin="round"/>
<path d="M512.728 378.576H519.777V385.631H512.728V378.576Z" stroke="#263238" stroke-linecap="round" stroke-linejoin="round"/>
<path d="M501.968 378.576H509.018V385.631H501.968V378.576Z" stroke="#263238" stroke-linecap="round" stroke-linejoin="round"/>
<path d="M491.221 378.576H498.271V385.631H491.221V378.576Z" stroke="#263238" stroke-linecap="round" stroke-linejoin="round"/>
<path d="M480.475 378.576H487.524V385.631H480.475V378.576Z" stroke="#263238" stroke-linecap="round" stroke-linejoin="round"/>
<path d="M469.714 378.576H476.764V385.631H469.714V378.576Z" stroke="#263238" stroke-linecap="round" stroke-linejoin="round"/>
<path d="M577.235 388.774H584.284V395.829H577.235V388.774Z" stroke="#263238" stroke-linecap="round" stroke-linejoin="round"/>
<path d="M566.475 388.774H573.524V395.829H566.475V388.774Z" stroke="#263238" stroke-linecap="round" stroke-linejoin="round"/>
<path d="M555.728 388.774H562.777V395.829H555.728V388.774Z" stroke="#263238" stroke-linecap="round" stroke-linejoin="round"/>
<path d="M544.981 388.774H552.03V395.829H544.981V388.774Z" stroke="#263238" stroke-linecap="round" stroke-linejoin="round"/>
<path d="M534.221 388.774H541.271V395.829H534.221V388.774Z" stroke="#263238" stroke-linecap="round" stroke-linejoin="round"/>
<path d="M523.475 388.774H530.524V395.829H523.475V388.774Z" stroke="#263238" stroke-linecap="round" stroke-linejoin="round"/>
<path d="M512.728 388.774H519.777V395.829H512.728V388.774Z" stroke="#263238" stroke-linecap="round" stroke-linejoin="round"/>
<path d="M501.968 388.774H509.018V395.829H501.968V388.774Z" stroke="#263238" stroke-linecap="round" stroke-linejoin="round"/>
<path d="M491.221 388.774H498.271V395.829H491.221V388.774Z" stroke="#263238" stroke-linecap="round" stroke-linejoin="round"/>
<path d="M480.475 388.774H487.524V395.829H480.475V388.774Z" stroke="#263238" stroke-linecap="round" stroke-linejoin="round"/>
<path d="M469.714 388.774H476.764V395.829H469.714V388.774Z" stroke="#263238" stroke-linecap="round" stroke-linejoin="round"/>
<path d="M577.235 398.985H584.284V406.04H577.235V398.985Z" stroke="#263238" stroke-linecap="round" stroke-linejoin="round"/>
<path d="M566.475 398.985H573.524V406.04H566.475V398.985Z" stroke="#263238" stroke-linecap="round" stroke-linejoin="round"/>
<path d="M514.954 398.985H519.777H523.488H530.524H534.234H541.271H544.981H552.031H562.777V406.04H552.031H544.981H541.271H534.234H530.524H523.488H519.777H514.954H512.728V398.985H514.954Z" stroke="#263238" stroke-linecap="round" stroke-linejoin="round"/>
<path d="M501.968 398.985H509.018V406.04H501.968V398.985Z" stroke="#263238" stroke-linecap="round" stroke-linejoin="round"/>
<path d="M491.221 398.985H498.271V406.04H491.221V398.985Z" stroke="#263238" stroke-linecap="round" stroke-linejoin="round"/>
<path d="M480.475 398.985H487.524V406.04H480.475V398.985Z" stroke="#263238" stroke-linecap="round" stroke-linejoin="round"/>
<path d="M469.714 398.985H476.764V406.04H469.714V398.985Z" stroke="#263238" stroke-linecap="round" stroke-linejoin="round"/>
<path d="M439.634 367.264H465.951V382.846H439.634V367.264Z" stroke="#263238" stroke-linecap="round" stroke-linejoin="round"/>
<path d="M442.046 397.314C442.046 395.184 442.677 393.102 443.859 391.332C445.041 389.561 446.722 388.181 448.688 387.366C450.654 386.551 452.817 386.337 454.905 386.753C456.992 387.168 458.909 388.194 460.414 389.7C461.919 391.206 462.944 393.124 463.359 395.213C463.774 397.302 463.561 399.467 462.746 401.435C461.932 403.402 460.553 405.084 458.783 406.267C457.014 407.451 454.934 408.082 452.805 408.082C451.392 408.084 449.992 407.807 448.686 407.266C447.379 406.726 446.193 405.932 445.193 404.932C444.194 403.932 443.401 402.744 442.861 401.437C442.321 400.13 442.044 398.729 442.046 397.314Z" stroke="#263238" stroke-linecap="round" stroke-linejoin="round"/>
<path d="M500.086 447.097H589.412V453.794H500.086V447.097Z" fill="#E43C5C" stroke="#263238" stroke-linecap="round" stroke-linejoin="round"/>
<path d="M526.376 459.006H589.412V465.703H526.376V459.006Z" fill="white" stroke="#263238" stroke-linecap="round" stroke-linejoin="round"/>
<path d="M526.376 494.731H589.412V501.428H526.376V494.731Z" fill="#E43C5C" stroke="#263238" stroke-linecap="round" stroke-linejoin="round"/>
<path d="M482.356 470.915H589.412V477.611H482.356V470.915Z" fill="#004999" stroke="#263238" stroke-linecap="round" stroke-linejoin="round"/>
<path d="M459.749 482.823H589.412V489.52H459.749V482.823Z" fill="white" stroke="#263238" stroke-linecap="round" stroke-linejoin="round"/>
<path d="M588.18 519.093H514.821" stroke="#263238" stroke-miterlimit="10"/>
<path d="M588.18 531.067H486.119" stroke="#263238" stroke-miterlimit="10"/>
<path d="M113.258 567.377C137.401 550.137 211.952 537.552 300.205 537.552C388.458 537.552 463.009 550.124 487.166 567.377H495.408V579.431C495.408 602.559 407.95 621.324 300.218 621.324C192.486 621.324 105.029 602.559 105.029 579.431V567.35L113.258 567.377Z" fill="#263238" stroke="#263238" stroke-linecap="round" stroke-linejoin="round"/>
<path d="M300.192 609.269C192.392 609.269 105.002 590.513 105.002 567.377C105.002 544.24 192.392 525.484 300.192 525.484C407.992 525.484 495.382 544.24 495.382 567.377C495.382 590.513 407.992 609.269 300.192 609.269Z" fill="white" stroke="#263238" stroke-linecap="round" stroke-linejoin="round"/>
<path d="M284.078 377.383C284.078 377.383 284.264 416.092 281.203 432.735C278.142 449.378 273.756 483.526 273.252 488.778C272.748 494.029 270.191 518.987 269.754 525.551C269.421 529.625 268.052 533.547 265.778 536.943L266.216 542.247C266.56 542.188 266.913 542.198 267.254 542.277C267.595 542.355 267.917 542.5 268.201 542.703C268.486 542.907 268.727 543.164 268.912 543.462C269.096 543.759 269.22 544.09 269.277 544.435C269.566 546.611 269.712 548.804 269.714 550.999C269.714 550.999 280.209 559.328 284.158 564.579C288.107 569.83 282.409 571.581 273.212 572.894C264.016 574.207 259.219 569.393 254.409 565.892C249.599 562.391 245.213 561.078 244.338 558.015C243.739 554.984 243.446 551.901 243.463 548.811V540.444C243.463 536.465 244.338 527.739 244.338 527.739C244.338 527.739 247.399 465.57 247.836 460.756C248.274 455.943 249.161 436.674 248.711 434.486C248.26 432.298 248.274 413.467 248.274 413.467C248.274 413.467 239.528 470.822 238.216 475.198C236.904 479.574 236.03 498.405 232.531 510.234C229.033 522.063 226.833 543.507 226.833 543.507C226.833 543.507 229.033 547.883 228.596 550.946C228.158 554.01 226.396 561.025 226.396 561.025C226.396 561.025 218.962 565.401 215.464 570.215C211.965 575.029 198.833 577.655 193.586 576.342C188.338 575.029 190.088 566.714 193.149 561.9C195.561 558.381 198.19 555.015 201.02 551.822C202.345 550.071 202.782 547.445 203.22 544.382C203.657 541.319 205.87 539.078 206.281 537.818C207.582 534.166 208.175 530.3 208.03 526.426C207.592 521.612 208.904 449.365 209.779 440.228C210.653 431.091 208.454 391.625 214.152 374.558L280.209 369.731L284.078 377.383Z" fill="#004999" stroke="#263238" stroke-linecap="round" stroke-linejoin="round"/>
<path d="M271.768 266.001C271.768 266.001 284.887 272.632 289.101 274.435C293.314 276.239 298.986 279.302 302.219 285.946C305.452 292.59 302.219 302.151 301.411 304.751C300.603 307.35 296.23 322.255 296.23 322.255C296.23 322.255 298.019 335.225 296.389 340.092C294.759 344.959 291.539 346.417 288.292 346.417C286.063 346.271 283.923 345.484 282.13 344.15C282.13 344.15 281.653 361.655 283.111 366.694C284.569 371.733 285.377 376.096 284.078 377.396C282.78 378.695 261.233 386.48 244.06 384.69C226.886 382.899 214.907 380.711 212.959 378.536C211.011 376.361 210.852 377.078 211.184 374.638C211.515 372.197 212.509 370.593 212.509 368.962C212.509 367.331 216.882 337.997 216.709 336.22C216.537 334.443 217.041 328.263 217.041 327.785C217.041 327.308 207.314 318.874 206.44 318.874C205.565 318.874 197.164 320.651 197.164 320.651C197.164 320.651 195.839 315.346 196.687 312.389C197.08 310.748 198.054 309.306 199.43 308.331C199.43 308.331 198.462 305.904 199.112 304.764C199.761 303.623 202.676 302.496 203.167 302.337C204.783 300.687 206.097 298.766 207.049 296.661C207.208 295.521 214.019 270.139 217.412 264.834C220.804 259.53 226.118 255.856 233.697 256.599C241.277 257.341 249.082 260.975 251.361 261.625C253.64 262.275 260.107 264.874 260.107 264.874L271.768 266.001Z" fill="#E43C5C" stroke="#263238" stroke-linecap="round" stroke-linejoin="round"/>
<path d="M199.509 308.318C199.509 308.318 198.542 305.891 199.191 304.75C199.841 303.61 202.756 302.483 203.246 302.324C204.862 300.674 206.177 298.753 207.129 296.648C207.288 295.507 214.099 270.125 217.491 264.821C220.883 259.516 226.118 255.856 233.697 256.599C241.277 257.341 249.082 260.975 251.361 261.625C253.64 262.274 260.107 264.874 260.107 264.874L271.768 266.001C271.768 266.001 284.887 272.632 289.101 274.435C293.314 276.239 298.986 279.302 302.219 285.946C305.452 292.59 302.219 302.151 301.411 304.75C300.603 307.35 296.23 322.255 296.23 322.255C296.23 322.255 298.019 335.225 296.389 340.092C294.759 344.959 291.539 346.417 288.292 346.417C286.063 346.271 283.923 345.484 282.13 344.15C282.428 339.064 283.195 334.016 284.423 329.072C286.198 322.905 291.552 303.875 291.552 302.483C291.552 301.09 286.251 289.022 281.176 281.265C277.957 276.385 274.087 271.968 269.674 268.136L254.449 265.218C247.429 269.688 240.958 274.967 235.168 280.946C226.263 290.349 224.157 291.648 223.825 295.865C223.494 300.082 217.027 327.798 217.027 327.798C217.027 327.308 207.301 318.887 206.426 318.887C205.552 318.887 197.151 320.664 197.151 320.664C197.151 320.664 195.826 315.359 196.674 312.402C197.084 310.738 198.094 309.283 199.509 308.318Z" fill="#004999" stroke="#263238" stroke-linecap="round" stroke-linejoin="round"/>
<path d="M230.809 377.754C228.344 377.369 225.76 376.905 223.083 376.348" stroke="#263238" stroke-linecap="round" stroke-linejoin="round"/>
<path d="M274.127 376.043C274.127 376.043 260.518 381.679 234.373 378.258" stroke="#263238" stroke-linecap="round" stroke-linejoin="round"/>
<path d="M225.496 369.996C225.496 369.996 234.255 373.974 250.858 375.738" stroke="#263238" stroke-linecap="round" stroke-linejoin="round"/>
<path d="M277.599 250.114C277.599 250.114 275.174 260.975 275.651 265.842C276.128 270.709 274.193 281.238 264.639 281.079C255.085 280.92 250.712 269.568 250.712 266.81C250.712 264.051 252.488 251.573 252.488 251.573C252.488 251.573 253.137 254.49 261.074 253.363C269.012 252.236 277.599 250.114 277.599 250.114Z" fill="white" stroke="#263238" stroke-linecap="round" stroke-linejoin="round"/>
<path d="M265.898 254.795L275.121 261.97L277.917 251.891L265.898 254.795Z" fill="#263238" stroke="#263238" stroke-linecap="round" stroke-linejoin="round"/>
<path d="M291.896 240.38C291.188 242.103 290.189 243.691 288.941 245.075C287.166 246.865 283.919 246.401 283.919 246.401C283.919 246.401 280.037 252.726 276.79 255.326C273.544 257.925 264.639 262.46 258.967 262.46C253.296 262.46 250.553 257.752 249.572 253.867C248.144 248.932 247.116 243.889 246.498 238.789C246.008 233.113 250.381 221.92 252.819 218.685L257.192 212.85C257.192 212.85 270.801 211.391 275.174 213.009C279.546 214.627 283.601 217.226 284.569 219.162C285.734 221.39 286.5 223.805 286.835 226.297C286.835 228.087 285.059 235.062 285.059 235.58C285.059 236.097 284.728 236.906 285.218 237.197C285.708 237.489 284.158 241.587 284.158 241.587L287.643 236.879L291.698 237.529L291.896 240.38Z" fill="white" stroke="#263238" stroke-linecap="round" stroke-linejoin="round"/>
<path d="M252.488 251.573C254.437 252.274 256.539 252.433 258.571 252.034C260.604 251.634 262.49 250.691 264.029 249.305" stroke="#263238" stroke-linecap="round" stroke-linejoin="round"/>
<path d="M283.92 230.978C283.92 230.978 283.602 226.111 282.462 224.652C281.323 223.193 277.162 220.926 275.333 219.348C274.275 218.381 273.492 217.15 273.067 215.78L262.373 216.908L247.956 221.774C249.124 220.356 250.367 219.002 251.68 217.717C253.005 216.589 254.118 215.449 254.118 215.449C254.118 215.449 245.849 215.608 243.517 216.908C242.482 217.541 241.396 218.087 240.27 218.539C240.27 218.539 243.358 211.908 248.857 208.487C252.394 206.374 256.295 204.944 260.359 204.27L256.158 202.161C256.158 202.161 261.459 198.753 271.702 199.403C281.945 200.052 289.207 204.588 292.122 208.314C295.037 212.041 297.674 214.746 298.337 218.724C299 222.703 296.23 228.776 294.613 230.394C292.876 232.339 291.244 234.375 289.724 236.495L283.575 234.054L283.92 230.978Z" fill="#263238" stroke="#263238" stroke-linecap="round" stroke-linejoin="round"/>
<path d="M268.23 240.791C268.23 240.791 283.204 241.945 284.132 241.52C285.059 241.096 286.08 232.238 286.133 231.124C286.186 230.01 271.967 222.53 271.967 222.53L268.23 240.791Z" fill="#9C9C9C" stroke="#263238" stroke-linecap="round" stroke-linejoin="round"/>
<path d="M243.093 218.725C241.12 220.049 239.749 222.098 239.277 224.427C238.216 228.631 239.409 233.484 243.57 235.606C247.731 237.728 250.275 237.463 252.448 236.8C254.621 236.137 254.807 235.275 255.734 235.633C256.662 235.991 257.166 237.251 258.994 238.497C260.759 239.946 262.921 240.824 265.196 241.017C268.111 241.229 272.457 241.202 274.472 238.046C275.596 236.368 276.258 234.423 276.393 232.407C276.528 230.391 276.13 228.375 275.24 226.562C273.2 222.915 268.972 222.027 265.315 220.846C259.494 219.378 253.597 218.227 247.651 217.398C246.025 217.31 244.418 217.777 243.093 218.725Z" fill="white" stroke="#263238" stroke-linecap="round" stroke-linejoin="round"/>
<path d="M259.696 221.563C259.696 221.563 249.824 218.685 245.875 219.613C241.926 220.541 239.647 226.018 241.648 230.938C243.649 235.858 250.354 235.049 252.448 233.843C253.196 233.382 254.079 233.191 254.951 233.299C255.823 233.407 256.632 233.81 257.245 234.439C259.312 236.561 262.36 240.062 269.303 238.418C276.247 236.773 275.16 228.286 272.311 225.554C269.462 222.822 259.696 221.563 259.696 221.563Z" fill="#E43C5C" stroke="#263238" stroke-linecap="round" stroke-linejoin="round"/>
<path d="M284.701 232.331L293.314 236.004L291.897 240.38L283.601 238.351L284.701 232.331Z" fill="#595959" stroke="#263238" stroke-linecap="round" stroke-linejoin="round"/>
<path d="M253.787 237.291L250.712 241.667C250.712 241.667 251.68 243.444 252.819 243.775C253.959 244.107 254.926 243.934 255.47 244.584L255.96 245.234" stroke="#263238" stroke-linecap="round" stroke-linejoin="round"/>
<path d="M253.945 285.23L253.442 289.632C253.594 290.024 253.845 290.371 254.17 290.638C254.495 290.905 254.883 291.084 255.297 291.157C256.622 291.33 260.398 292.006 263.433 290.826C266.468 289.646 267.673 288.28 269.37 288.28C271.066 288.28 271.397 290.998 270.549 292.51C269.701 294.022 264.387 296.793 261.167 297.125C258.579 297.575 256.064 298.379 253.693 299.512C251.928 300.625 250.071 301.583 248.141 302.376C246.647 302.923 245.213 303.62 243.861 304.458C243.861 304.458 239.462 307.336 236.414 307.681C236.414 307.681 224.488 321.871 219.413 326.737C214.337 331.604 211.117 336.219 203.167 338.765C199.019 340.092 193.891 340.29 191.983 335.715C190.853 332.731 190.438 329.523 190.772 326.35C191.106 323.176 192.179 320.125 193.904 317.441C197.323 312.561 203.697 311.275 208.891 309.206C215.677 306.288 222.172 302.736 228.291 298.597C231.63 296.475 232.969 295.786 233.591 291.966C233.883 290.163 233.962 286.662 235.672 285.521C236.19 285.054 236.872 284.809 237.569 284.842C238.266 284.874 238.922 285.18 239.395 285.694C239.912 286.198 240.588 287.02 240.588 287.02C240.588 287.02 239.263 280.893 240.23 279.368C241.198 277.843 249.731 280.575 250.579 280.575C251.427 280.575 253.945 285.23 253.945 285.23Z" fill="white" stroke="#263238" stroke-linecap="round" stroke-linejoin="round"/>
<path d="M247.174 276.889L245.544 280.947L249.599 284.501L251.321 281.159L247.174 276.889Z" fill="white" stroke="#263238" stroke-linecap="round" stroke-linejoin="round"/>
<path d="M251.521 276.862C251.521 276.862 255.138 274.674 256.728 274.78C258.318 274.886 262.373 277.207 264.109 278.122C265.845 279.037 264.401 279.846 261.79 279.846C260.027 279.805 258.277 279.538 256.582 279.05L253.256 280.376L251.521 276.862Z" fill="white" stroke="#263238" stroke-linecap="round" stroke-linejoin="round"/>
<path d="M247.32 279.793C249.555 281.576 251.91 283.202 254.37 284.659C255.523 285.283 256.914 285.084 256.689 283.174C256.503 281.662 252.395 277.87 250.633 276.345C250.352 276.099 250.023 275.915 249.667 275.806C249.311 275.696 248.936 275.663 248.566 275.708C247.082 275.907 245.094 276.716 247.32 279.793Z" fill="white" stroke="#263238" stroke-linecap="round" stroke-linejoin="round"/>
<path d="M244.14 277.565C244.14 277.565 253.257 285.203 252.727 287.06C252.197 288.917 250.077 287.604 249.427 287.484C246.616 286.167 243.952 284.558 241.477 282.684C239.992 281.265 239.701 279.196 240.35 278.56C240.806 278.028 241.413 277.648 242.09 277.471C242.767 277.293 243.482 277.326 244.14 277.565Z" fill="white" stroke="#263238" stroke-linecap="round" stroke-linejoin="round"/>
<path d="M236.573 287.577C237.998 288.578 239.56 289.369 241.211 289.925C242.191 290.203 245.001 291.317 244.855 289.5C244.709 287.683 239.395 284.196 239.395 284.196C239.006 283.884 238.541 283.681 238.048 283.606C237.554 283.531 237.05 283.589 236.586 283.771C236.102 283.868 235.668 284.133 235.36 284.518C235.052 284.904 234.891 285.386 234.903 285.88" fill="white"/>
<path d="M236.573 287.577C237.998 288.578 239.56 289.369 241.211 289.925C242.191 290.203 245.001 291.317 244.855 289.5C244.709 287.683 239.395 284.196 239.395 284.196C239.006 283.884 238.541 283.681 238.048 283.606C237.554 283.531 237.05 283.589 236.586 283.771C236.102 283.868 235.668 284.133 235.36 284.518C235.052 284.904 234.891 285.386 234.903 285.88" stroke="#263238" stroke-linecap="round" stroke-linejoin="round"/>
<path d="M241.41 290.243C241.127 290.931 240.651 291.522 240.04 291.945C239.429 292.369 238.708 292.607 237.965 292.63" fill="white"/>
<path d="M241.41 290.243C241.127 290.931 240.651 291.522 240.04 291.945C239.429 292.369 238.708 292.607 237.965 292.63" stroke="#263238" stroke-linecap="round" stroke-linejoin="round"/>
<path d="M246.273 294.99C246.273 294.99 245.611 302.509 240.536 304.499C235.46 306.488 235.235 305.374 235.235 305.374" fill="white"/>
<path d="M246.273 294.99C246.273 294.99 245.611 302.509 240.536 304.499C235.46 306.488 235.235 305.374 235.235 305.374" stroke="#263238" stroke-linecap="round" stroke-linejoin="round"/>
<path d="M295.992 326.234C298.362 328.982 299.796 332.415 300.086 336.034C300.259 341.564 294.203 346.378 289.578 346.908C287.78 347.116 285.965 346.72 284.416 345.784C282.867 344.849 281.672 343.425 281.018 341.736C280.575 339.264 280.631 336.728 281.181 334.278C281.732 331.827 282.767 329.512 284.225 327.467C285.633 325.759 287.655 324.673 289.856 324.442C292.057 324.211 294.26 324.855 295.992 326.234Z" fill="white" stroke="#263238" stroke-linecap="round" stroke-linejoin="round"/>
<path d="M288.756 313.582C288.756 313.582 289.114 318.768 290.081 320.213C291.049 321.659 297.224 318.781 298.482 318.25C299.741 317.72 300.444 320.213 299.728 322.229C299.013 324.245 298.655 328.143 297.767 330.464C296.674 332.558 295.291 334.486 293.659 336.193C293.659 336.193 292.944 337.625 292.4 337.798C291.575 338.608 290.597 339.246 289.523 339.677C288.45 340.107 287.302 340.32 286.146 340.304C282.17 340.132 280.607 336.007 281.322 334.575C282.038 333.143 283.456 329.509 283.456 329.509C282.112 328.067 281.352 326.176 281.322 324.205C281.322 320.982 283.469 317.402 283.469 316.686C283.469 315.969 287.153 313.039 288.756 313.582Z" fill="white" stroke="#263238" stroke-linecap="round" stroke-linejoin="round"/>
<path d="M302.709 314.471C302.709 314.471 303.783 318.94 302.709 320.2C301.636 321.46 295.024 321.446 293.593 321.274C293.242 321.191 292.914 321.03 292.634 320.803C292.353 320.576 292.127 320.289 291.972 319.964C291.817 319.638 291.737 319.282 291.738 318.921C291.738 318.56 291.82 318.204 291.976 317.879C292.692 316.553 297.515 315.015 299.304 314.298C301.093 313.582 301.649 313.755 302.709 314.471Z" fill="white" stroke="#263238" stroke-linecap="round" stroke-linejoin="round"/>
<path d="M303.067 323.489C303.067 325.995 303.067 327.242 301.451 327.467C299.834 327.693 293.765 328.541 292.519 327.825C291.274 327.109 290.73 324.245 292.334 323.701C295.156 322.784 298.021 322.01 300.921 321.38C302.352 321.088 303.067 322.163 303.067 323.489Z" fill="white" stroke="#263238" stroke-linecap="round" stroke-linejoin="round"/>
<path d="M299.662 329.337C300.169 329.394 300.649 329.596 301.044 329.919C301.439 330.242 301.733 330.672 301.889 331.158C302.046 331.644 302.059 332.165 301.928 332.658C301.796 333.151 301.525 333.596 301.146 333.939C299.543 335.371 294.362 333.222 292.745 331.963C291.129 330.703 291.142 329.111 293.103 328.753C295.304 328.699 297.505 328.895 299.662 329.337Z" fill="white" stroke="#263238" stroke-linecap="round" stroke-linejoin="round"/>
<path d="M294.282 334.204C294.718 334.258 295.129 334.435 295.467 334.716C295.805 334.997 296.055 335.369 296.188 335.788C296.321 336.208 296.33 336.656 296.215 337.081C296.101 337.505 295.866 337.887 295.541 338.182C294.215 339.416 289.736 337.572 288.372 336.511C287.007 335.451 287.047 334.058 288.676 333.753C290.556 333.69 292.436 333.842 294.282 334.204Z" fill="white" stroke="#263238" stroke-linecap="round" stroke-linejoin="round"/>
<path d="M285.894 312.323C285.894 312.323 288.756 311.434 288.756 313.583C288.756 315.731 289.114 320.213 287.683 321.446C286.252 322.68 283.933 322.521 283.575 321.632C282.97 319.393 282.493 317.122 282.144 314.829C281.773 312.681 284.423 312.88 285.894 312.323Z" fill="white" stroke="#263238" stroke-linecap="round" stroke-linejoin="round"/>
<path d="M347.22 381.096C347.113 375.274 348.185 369.49 350.374 364.095L414.96 360.687L416.669 366.521V381.109C417.485 393.083 417.485 405.099 416.669 417.074C415.212 433.358 410.349 456.924 410.11 460.332C409.872 463.74 410.11 479.282 407.924 494.811C405.737 510.34 407.195 532.473 407.195 534.9C407.447 537.533 407.935 540.138 408.652 542.684C408.652 542.684 409.858 544.382 417.637 548.519C425.415 552.657 430.994 557.02 427.827 559.447C424.66 561.873 416.908 563.823 408.891 560.905C400.874 557.988 398.701 552.882 395.534 551.914C392.367 550.946 390.233 552.405 388.007 548.519C385.781 544.634 389.955 536.849 389.955 533.693C389.955 530.537 388.736 503.312 386.55 495.541C384.363 487.769 383.157 460.796 383.157 460.796C383.157 460.796 376.532 488.499 373.206 498.935C372.45 501.23 371.615 504.054 370.754 507.144L365.917 537.818V540.974L367.786 544.17L366.182 552.949L365.798 553.068C366.156 553.89 366.527 554.792 366.885 555.72C369.071 561.555 373.934 564.234 373.444 568.358C372.954 572.483 364.698 574.193 359.597 572.734C354.495 571.276 351.341 567.151 351.103 564.473C350.864 561.794 350.864 553.532 349.884 550.376C348.903 547.22 350.864 537.99 350.374 531.187C349.884 524.384 348.439 503.232 349.884 490.077C351.328 476.922 351.341 457.759 352.799 448.516C354.256 439.273 354.018 417.657 352.799 413.042C351.58 408.427 347.459 390.577 347.22 381.096Z" fill="#004999" stroke="#263238" stroke-linecap="round" stroke-linejoin="round"/>
<path d="M385.41 445.771C384.88 449.749 384.363 453.37 383.886 456.38" stroke="#9C9C9C" stroke-linecap="round" stroke-linejoin="round"/>
<path d="M402.822 388.389L390.896 398.348C390.896 398.348 388.604 420.362 386.232 439.22" stroke="#9C9C9C" stroke-linecap="round" stroke-linejoin="round"/>
<path d="M416.935 356.562C416.935 356.562 417.902 364.095 416.696 366.522C415.49 368.949 409.647 372.105 393.864 373.815C378.082 375.526 359.411 371.627 355.436 370.407C351.461 369.187 349.115 367.98 348.4 365.554C347.684 363.127 350.096 357.769 350.096 357.769C350.096 357.769 365.149 362.875 386.762 361.655C408.374 360.435 416.935 356.562 416.935 356.562Z" fill="#004999" stroke="#263238" stroke-linecap="round" stroke-linejoin="round"/>
<path d="M447.85 267.579C447.85 267.579 429.802 270.231 418.697 269.144C407.593 268.056 394.845 263.349 392.645 263.349C390.446 263.349 369.244 264.012 360.843 265.351C352.441 266.69 344.795 270.032 341.231 282.962C337.666 295.892 346.174 311.315 349.288 323.807C351.145 331.688 351.362 339.868 349.924 347.836C349.924 347.836 347.923 356.085 348.598 358.313C349.274 360.541 348.598 360.103 352.388 362.291C356.178 364.479 361.068 366.521 378.665 366.972C396.263 367.423 406.745 365.407 412.747 363.405C418.75 361.403 418.551 353.154 418.551 353.154C418.551 353.154 418.763 349.348 416.179 340.118C413.291 329.761 413.728 323.515 413.728 316.606C413.728 309.697 413.291 297.881 413.291 297.881C413.291 297.881 435.95 295.441 446.22 291.834C451.11 290.123 462.241 288.81 464.652 287.63C464.652 287.63 472.007 283.652 470.668 277.353C469.33 271.053 464.652 268.879 461.989 267.539C459.325 266.2 447.85 267.579 447.85 267.579Z" fill="#E43C5C" stroke="#263238" stroke-linecap="round" stroke-linejoin="round"/>
<path d="M444.498 273.6C444.498 273.6 445.611 282.074 448.738 285.641" stroke="#263238" stroke-linecap="round" stroke-linejoin="round"/>
<path d="M443.609 276.278C443.405 279.767 443.938 283.26 445.173 286.529" stroke="#263238" stroke-linecap="round" stroke-linejoin="round"/>
<path d="M359.637 304.817C359.637 304.817 353.621 312.164 348.718 313.954" stroke="#263238" stroke-linecap="round" stroke-linejoin="round"/>
<path d="M421.347 242.316C420.162 240.685 418.492 239.469 416.577 238.842C413.33 237.767 412.456 237.98 411.157 236.468C409.858 234.956 406.678 231.574 406.678 231.574L405.048 230.381C405.302 229.968 405.659 229.628 406.084 229.395C406.51 229.163 406.988 229.045 407.473 229.055C409.209 229.055 411.382 230.792 412.031 231.004C412.681 231.216 413.754 231.442 413.754 231.442C413.022 229.396 412.08 227.432 410.945 225.58C409.62 223.843 403.445 213.221 403.445 213.221C403.445 213.221 403.988 212.186 405.962 213.446C407.937 214.706 417.663 217.557 420.698 220.17C423.732 222.782 426.33 230.779 427.403 232.741C428.476 234.704 429.788 237.29 430.875 238.152C431.961 239.014 452.527 254.848 460.769 263.083C469.012 271.319 467.912 278.042 462.28 280.429C456.648 282.816 453.004 281.941 450.579 280.429C448.154 278.917 421.347 242.316 421.347 242.316Z" fill="white" stroke="#263238" stroke-linecap="round" stroke-linejoin="round"/>
<path d="M423.07 238.192C421.903 236.995 420.953 235.604 420.261 234.081C419.386 231.906 420.036 225.846 419.612 224.971C418.583 223.68 417.336 222.58 415.928 221.722" stroke="#263238" stroke-linecap="round" stroke-linejoin="round"/>
<path d="M384.363 259.556C384.363 259.556 396.833 260.445 399.284 263.8C401.736 267.155 404.187 269.807 403.511 278.281C402.835 286.755 403.736 292.099 402.398 292.776C401.06 293.452 376.333 277.393 370.767 273.374C365.202 269.356 351.686 268.746 353.541 266.16C355.396 263.574 360.524 260.007 367.428 259.331C373.071 258.99 378.731 259.065 384.363 259.556Z" fill="#E43C5C" stroke="#263238" stroke-linecap="round" stroke-linejoin="round"/>
<path d="M365.812 201.021C365.812 201.021 360.432 195.637 351.381 198.475C342.331 201.313 337.229 214.388 336.951 221.695C336.672 229.002 341.191 235.288 342.039 239.81C342.503 242.896 342.409 246.04 341.761 249.093C343.581 249.98 345.62 250.318 347.63 250.066C349.639 249.814 351.531 248.983 353.077 247.674C359.027 243.139 361.28 232.662 360.723 224.732C360.167 216.802 365.812 203.222 365.812 203.222V201.021Z" fill="#263238" stroke="#263238" stroke-linecap="round" stroke-linejoin="round"/>
<path d="M401.59 209.72C401.59 209.72 404.731 223.764 405.009 230.381C405.287 236.998 402.173 243.788 400.755 246.944C399.338 250.101 396.78 256.095 393.984 256.413C392.035 256.578 390.073 256.471 388.154 256.095L389.73 262.248C389.73 262.248 389.412 264.449 393.507 270.443C396.249 274.292 398.229 278.632 399.338 283.227C399.497 284.553 401.855 287.007 399.497 286.848C397.138 286.688 382.164 271.862 376.015 267.287C369.867 262.712 365.931 259.874 365.931 259.874C365.931 259.874 368.926 255.617 367.813 251.679C366.533 247.9 365.006 244.21 363.241 240.632C363.241 240.632 356.788 237.33 355.834 232.436C354.88 227.543 354.111 229.121 353.634 224.48C353.157 219.838 353.793 215.966 358.206 209.189C362.619 202.413 369.549 197.52 381.687 197.52C393.825 197.52 403.419 202.042 404.837 204.15C406.255 206.259 403.008 209.097 401.59 209.72Z" fill="white" stroke="#263238" stroke-linecap="round" stroke-linejoin="round"/>
<path d="M396.938 244.465C395.696 245.166 394.285 245.516 392.859 245.476C391.433 245.437 390.044 245.009 388.842 244.239" stroke="#263238" stroke-linecap="round" stroke-linejoin="round"/>
<path d="M381.726 197.586C393.864 197.586 403.458 202.108 404.876 204.217C406.294 206.325 403.008 209.15 401.59 209.773C399.914 209.655 398.265 209.284 396.7 208.672C394.575 207.861 392.563 206.783 390.711 205.463C390.741 207.274 390.33 209.065 389.516 210.682C388.701 212.299 387.506 213.694 386.033 214.746C380.984 218.22 372.119 221.509 370.131 223.724C368.144 225.939 368.396 228.299 368.237 231.296C368.104 233.948 367.945 240.115 363.811 241.547L363.347 240.592C363.347 240.592 356.893 237.29 355.939 232.397C354.985 227.503 354.217 229.081 353.74 224.44C353.263 219.799 353.899 215.926 358.311 209.15C362.724 202.373 369.588 197.586 381.726 197.586Z" fill="#263238" stroke="#263238" stroke-linecap="round" stroke-linejoin="round"/>
<path d="M398.596 235.964C398.558 236.648 398.31 237.303 397.885 237.84C397.46 238.376 396.88 238.768 396.224 238.961C395.558 239.073 394.874 239.01 394.24 238.777C393.606 238.545 393.043 238.151 392.606 237.635" stroke="#263238" stroke-linecap="round" stroke-linejoin="round"/>
<path d="M388.18 256.095L378.666 252.938L389.757 262.248L388.18 256.095Z" fill="#263238" stroke="#263238" stroke-linecap="round" stroke-linejoin="round"/>
<path d="M381.806 235.633C381.806 235.633 366.792 236.11 365.904 235.633C365.016 235.155 364.394 226.204 364.394 225.156C364.394 224.109 378.97 217.2 378.97 217.2L381.806 235.633Z" fill="#9C9C9C" stroke="#263238" stroke-linecap="round" stroke-linejoin="round"/>
<path d="M407.938 214.746C409.847 216.161 411.123 218.272 411.489 220.621C412.35 224.864 410.932 229.652 406.679 231.588C402.425 233.524 399.894 233.126 397.761 232.357C395.627 231.588 395.482 230.739 394.528 231.031C393.573 231.323 393.03 232.583 391.135 233.683C389.313 235.068 387.113 235.863 384.828 235.964C381.912 236.044 377.566 235.805 375.684 232.569C374.637 230.841 374.063 228.867 374.022 226.846C373.98 224.825 374.471 222.829 375.446 221.058C377.645 217.504 381.912 216.802 385.623 215.754C391.514 214.585 397.463 213.731 403.446 213.195C405.076 213.182 406.662 213.73 407.938 214.746Z" fill="white" stroke="#263238" stroke-linecap="round" stroke-linejoin="round"/>
<path d="M391.215 216.828C391.215 216.828 401.219 214.415 405.115 215.502C409.011 216.59 411.038 222.133 408.826 227C406.613 231.867 399.921 230.713 397.893 229.413C397.168 228.915 396.294 228.68 395.416 228.748C394.539 228.815 393.711 229.181 393.07 229.785C390.91 231.814 387.769 235.169 380.839 233.126C373.909 231.084 375.539 222.743 378.427 220.144C381.316 217.544 391.215 216.828 391.215 216.828Z" fill="#E43C5C" stroke="#263238" stroke-linecap="round" stroke-linejoin="round"/>
<path d="M365.732 226.429L354.681 228.883L355.144 233.882L366.554 232.49L365.732 226.429Z" fill="#595959" stroke="#263238" stroke-linecap="round" stroke-linejoin="round"/>
<path d="M345.379 274.422C348.784 270.643 358.842 264.171 365.123 267.234C369.044 269.272 372.197 272.53 374.107 276.517C374.107 276.517 378.242 280.297 378.772 280.297C379.28 280.149 379.813 280.105 380.338 280.167C380.864 280.228 381.372 280.394 381.833 280.655C383.078 281.557 393.11 283.904 393.11 283.904C395.065 284.107 397.037 284.107 398.993 283.904C400.656 283.69 402.339 283.69 404.002 283.904C404.002 283.904 414.404 297.656 413.675 299.99C412.947 302.324 399.841 308.265 395.362 309.167C390.883 310.068 379.819 309.167 379.289 308.477C378.759 307.787 374.823 309.405 372.663 308.862C370.865 308.174 369.222 307.138 367.826 305.811C367.826 305.811 363.149 304.366 361.002 303.477C358.855 302.589 353.992 304.552 347.897 301.502" fill="#E43C5C"/>
<path d="M345.379 274.422C348.784 270.643 358.842 264.171 365.123 267.234C369.044 269.272 372.197 272.53 374.107 276.517C374.107 276.517 378.242 280.297 378.772 280.297C379.28 280.149 379.813 280.105 380.338 280.167C380.864 280.228 381.372 280.394 381.833 280.655C383.078 281.557 393.11 283.904 393.11 283.904C395.065 284.107 397.037 284.107 398.993 283.904C400.656 283.69 402.339 283.69 404.002 283.904C404.002 283.904 414.404 297.656 413.675 299.99C412.947 302.324 399.841 308.265 395.362 309.167C390.883 310.068 379.819 309.167 379.289 308.477C378.759 307.787 374.823 309.405 372.663 308.862C370.865 308.174 369.222 307.138 367.826 305.811C367.826 305.811 363.149 304.366 361.002 303.477C358.855 302.589 353.992 304.552 347.897 301.502" stroke="#263238" stroke-linecap="round" stroke-linejoin="round"/>
<path d="M394.567 286.198C393.2 287.159 392.112 288.465 391.413 289.984C390.715 291.503 390.432 293.18 390.592 294.844C390.95 300.905 393.017 302.801 393.017 302.801" stroke="#263238" stroke-linecap="round" stroke-linejoin="round"/>
<path d="M386.788 295.361C386.441 297.461 386.869 299.616 387.994 301.422" stroke="#263238" stroke-linecap="round" stroke-linejoin="round"/>
<path d="M375.207 279.965C375.207 279.965 367.773 279.965 364.315 284.289" stroke="#263238" stroke-linecap="round" stroke-linejoin="round"/>
<path d="M438.256 263.548C438.256 263.548 445.836 250.976 447.36 246.852C448.884 242.727 451.958 237.065 453.031 237.065C453.689 237.059 454.323 236.819 454.82 236.388C454.982 235.249 455.389 234.159 456.013 233.192C456.336 232.69 456.788 232.285 457.322 232.019C457.856 231.753 458.452 231.636 459.047 231.681C459.047 231.681 462.731 230.593 462.731 234.068C463.315 234.703 463.753 235.458 464.017 236.28C464.28 237.102 464.361 237.972 464.255 238.829C463.818 241.653 459.697 251.188 459.047 253.787C458.398 256.386 457.974 258.986 457.974 258.986C457.974 258.986 463.168 257.474 465.328 255.524C467.488 253.575 470.536 253.575 470.536 255.962C470.536 258.349 464.255 261.598 461.87 263.322C459.485 265.046 457.099 267.659 454.939 268.746C453.017 269.565 450.959 270.015 448.87 270.072C448.221 270.072 437.819 281.132 437.819 281.132C437.819 281.132 424.396 297.165 415.517 299.99C406.639 302.814 400.941 303.026 398.185 301.316C395.428 299.605 393.428 297.815 397.323 291.091C401.219 284.368 404.399 283.837 410.469 280.363C416.538 276.888 426.781 270.961 431.538 268.428C434.015 267.156 436.281 265.51 438.256 263.548Z" fill="white" stroke="#263238" stroke-linecap="round" stroke-linejoin="round"/>
<path d="M462.731 234.068C462.731 234.068 460.081 243.351 457.537 248.151" stroke="#263238" stroke-linecap="round" stroke-linejoin="round"/>
<path d="M459.047 231.681C459.047 231.681 456.648 243.165 454.488 248.231" stroke="#263238" stroke-linecap="round" stroke-linejoin="round"/>
<path d="M454.82 236.389C454.82 236.389 452.316 245.128 450.249 250.711" stroke="#263238" stroke-linecap="round" stroke-linejoin="round"/>
<path d="M449.32 259.384C449.32 259.384 448.075 265.484 445.093 266.624C444.352 266.977 443.545 267.168 442.725 267.184C441.904 267.2 441.09 267.041 440.336 266.717" stroke="#263238" stroke-linecap="round" stroke-linejoin="round"/>
<path d="M458.014 258.986C458.014 258.986 454.939 259.185 454.211 259.291" stroke="#263238" stroke-linecap="round" stroke-linejoin="round"/>
<path opacity="0.34" d="M454.269 133.836L467.547 139.783L471.199 145.744L477.147 148.048L477.811 154.34L475.501 157.969L470.853 158.963L460.908 154.989V153.664L466.525 151.36L464.546 144.419L455.597 141.055L451.613 135.757L454.269 133.836ZM537.828 286.635L527.205 282.33L514.326 277.707H504.048L494.435 275.72L483.813 278.038L477.838 278.369H474.199L467.228 282.343L460.589 284.992L451.64 279.376L453.964 270.104L448.32 267.786H441.681L440.686 264.806L441.349 258.859L439.026 255.548L434.379 256.21L433.051 259.508L427.421 259.839L422.442 253.892L420.45 245.945L425.429 236.673L435.042 237.335L437.698 239.653H441.681L446.608 236.686L450.923 238.011L456.885 248.263L459.208 247.932L458.558 240.395L456.566 236.421L457.23 230.13L469.499 224.832L471.185 212.58L476.497 208.275L480.799 200.659L484.118 199.997L491.753 195.016L492.085 192.367L486.774 192.698L485.778 190.049H482.126L476.497 191.374L479.152 187.082L490.757 183.771L493.413 180.791L498.06 188.076L501.048 191.056L505.695 189.732L503.703 185.427L496.746 180.46L488.779 171.532L480.493 165.916L472.526 164.592L468.543 160.618L463.232 159.294L462.568 160.618L461.904 170.208L463.232 173.519L460.244 184.115L453.605 178.817L454.574 174.168L447.617 170.857L444.629 167.228L446.289 158.949L455.902 152.022L456.566 144.075L452.928 144.406L450.591 141.439L449.595 136.472L447.272 136.141L445.944 141.439L442.306 142.101L440.646 130.525L437.99 128.869L433.33 126.882L428.018 129.531L434.657 135.757L435.985 141.386L424.035 132.459L415.816 123.571L415.152 114.644L406.535 111.995L399.895 116.299C398.291 117.273 396.633 118.158 394.93 118.948C392.31 119.582 389.647 120.025 386.963 120.273L385.635 125.889L378 126.22L378.664 129.862L390.933 131.849L397.24 138.79V150.327L393.588 160.578L394.252 171.493L384.958 187.705L382.966 211.851L385.98 225.825L390.282 236.421L395.261 237.07L393.602 231.772L390.946 227.799L389.286 220.527L392.274 219.865L396.921 231.786L400.227 242.382V250.978L406.535 258.594L417.808 266.859L435.069 271.482L440.38 276.449L444.364 281.747L450.339 285.389L457.628 287.376L464.931 287.045C464.931 287.045 464.599 290.357 464.599 292.012C464.599 293.668 459.952 299.284 459.952 299.284L456.301 305.907L458.956 313.192L466.246 316.158L476.536 326.755L481.17 328.728V333.695L481.755 336C507.546 331.843 531.644 320.528 551.292 303.35L551.464 300.953L560.414 284.74L556.112 281.76L537.828 286.635ZM572.351 155.996L568.699 149.704L564.025 142.379L562.698 132.459L568.659 133.452L568.991 130.141L564.689 129.81L568.327 128.154L572.311 125.836V122.591L568.327 117.293L567.438 110.18C548.169 86.6691 521.733 70.0763 492.146 62.9233C462.56 55.7703 431.442 58.4481 403.52 70.5498L411.169 75.9539L406.535 81.901L400.227 83.2256L399.564 92.153L396.908 93.1464L393.588 96.7888L393.92 102.736L399.55 103.398L397.24 109.028H402.87L412.483 96.7888L413.479 91.4907L422.774 90.8284L425.097 86.8548L434.71 85.8614L435.706 80.2321L442.677 79.901C442.677 79.901 447.643 77.2519 448.639 77.2519C450.553 77.6628 452.435 78.2118 454.269 78.8944L459.248 82.868H466.206L472.181 79.2255L479.803 79.8878C480.896 80.615 482.148 81.0692 483.454 81.2123C485.114 81.2123 490.093 78.8944 490.093 78.8944L499.707 84.8548L503.69 87.835V92.7887L508.669 93.451L510.342 90.4973L514.644 92.4841L514.312 95.1332L504.367 97.7822L510.01 105.054L521.961 111.677L526.927 118.299L534.216 118.962L535.836 115.637L538.492 114.975L529.874 108.352L524.563 107.69L528.878 106.365L524.895 100.736L530.538 100.418L537.828 104.392L539.488 112.339L543.139 116.644L546.113 126.233L553.416 131.531V142.379L561.038 147.333L560.706 150.976L559.71 155.28L561.702 161.228L562.366 164.208L567.995 165.201L570.651 159.572L572.351 155.996ZM576.666 122.67V124.564L575.006 129.862L576.002 134.498L579.64 135.823V142.114L575.657 140.459L574.635 158.274L570.651 165.559L573.307 174.83L577.622 178.804V196.685L581.924 210.58L586.571 221.176L594.193 223.163L596.849 216.54L597.924 215.706C598.639 209.954 598.998 204.163 599 198.367C599.048 171.506 591.275 145.209 576.626 122.67H576.666ZM500.025 120.604L478.143 111.014L468.53 111.345L466.206 117.624L462.223 113.319L454.933 114.975L454.269 125.889L460.244 130.194L464.56 123.902L469.526 128.869L479.803 137.796L481.794 147.386L490.425 158.274L504.354 155.969L504.022 151.002L501.048 145.413L500.384 132.167L503.703 126.551L500.025 120.604ZM517.937 127.876L512.958 126.551L508.656 130.194L510.966 139.73H515.282L517.937 127.876ZM548.769 134.167L537.496 128.207L535.172 124.233L532.517 125.227L534.827 131.849L536.819 140.446L541.811 142.379L542.807 141.055L539.82 136.088L548.437 139.399L548.769 134.167ZM451.919 253.561L450.591 254.885L460.536 257.866L464.52 262.488L470.813 263.151L473.137 259.508L465.502 258.184L451.919 253.561ZM481.423 259.839L474.465 261.826L475.461 264.475H484.078L485.738 261.826L482.75 262.157L481.423 259.839Z" fill="white" stroke="#263238" stroke-linecap="round" stroke-linejoin="round"/>
<path d="M361.336 296.489C306.891 242.003 306.891 153.662 361.336 99.1755C415.781 44.6888 504.054 44.6888 558.499 99.1755C612.944 153.662 612.945 242.003 558.499 296.489C504.054 350.976 415.781 350.976 361.336 296.489Z" stroke="#263238" stroke-linecap="round" stroke-linejoin="round"/>
</svg>
