<svg width="87" height="97" viewBox="0 0 87 97" fill="none" xmlns="http://www.w3.org/2000/svg">
<path d="M44.4779 65.7576C47.7333 62.6191 50.9196 59.5684 54.082 56.4963C56.6332 54.0196 56.2957 54.2322 58.892 56.1801C59.5005 56.5812 60.0796 57.0252 60.6247 57.5088C62.3175 59.2069 64.3797 59.8102 66.7369 59.9005C68.9532 59.9909 71.1643 60.2859 73.3806 60.5437C78.0391 61.0751 82.1502 65.4387 82.2114 70.1983C82.3203 77.3548 82.2751 84.5167 82.23 91.6759C82.23 94.2245 80.2342 96.0422 77.6246 96.0448C68.5892 96.0554 59.5538 96.0554 50.5183 96.0448H11.8256C8.38944 96.0448 6.72852 94.3733 6.72852 90.9159C6.72852 84.3112 6.72852 77.7074 6.72852 71.1044C6.72852 65.4148 10.8875 60.9715 16.5426 60.5091C19.3807 60.2779 22.211 59.9617 25.0465 59.6401C25.4507 59.5634 25.829 59.386 26.1467 59.1246C27.874 57.8383 29.5748 56.5149 31.2942 55.2181C32.3333 54.4208 32.6947 54.4394 33.6381 55.343C36.9794 58.5319 40.311 61.7351 43.6328 64.9524C43.88 65.1969 44.1351 65.4281 44.4779 65.7576ZM49.8938 93.6611H71.3928C73.3753 93.6611 75.3577 93.6876 77.3376 93.6611C79.0064 93.6318 79.7532 92.8479 79.7559 91.2002C79.7559 84.3865 79.7718 77.5727 79.7559 70.759C79.7451 68.8453 79.0378 67.0011 77.7662 65.5711C76.4946 64.141 74.7457 63.2229 72.8464 62.9885C69.7744 62.6324 66.6997 62.3056 63.6197 62.0318C63.4 62.0335 63.1831 62.0818 62.9834 62.1734C62.7837 62.265 62.6056 62.3979 62.461 62.5633C61.7541 63.5041 61.1615 64.5325 60.5237 65.5264C58.4793 68.7154 56.4348 71.9043 54.3903 75.0933C53.4602 76.5416 52.8702 76.6267 51.584 75.5238C51.2624 75.2581 50.9356 74.9923 50.4546 74.5778C50.4546 76.05 50.4546 77.2645 50.4546 78.4763C50.4546 79.4888 50.3031 80.6023 49.4075 81.0673C48.1319 81.745 48.302 82.6857 48.496 83.746C48.5571 84.0862 48.5997 84.4317 48.6475 84.7745C49.0621 87.7004 49.4687 90.6209 49.8938 93.6611ZM38.1531 74.9286C37.8449 75.1199 37.6987 75.1943 37.5738 75.29C35.8305 76.7064 35.5249 76.6559 34.3051 74.7585C31.7805 70.8068 29.2559 66.8631 26.7446 62.8982C26.3513 62.2763 25.9872 61.9973 25.1767 62.1009C22.2136 62.465 19.2372 62.7254 16.2635 63.0151C12.5617 63.3739 9.26375 66.7621 9.22389 70.4773C9.14948 77.3867 9.17605 84.2961 9.18403 91.2268C9.18403 92.9117 9.98126 93.6611 11.7352 93.6637C20.3188 93.6637 28.9051 93.6637 37.4914 93.6823C38.1053 93.6823 38.3471 93.4804 38.4268 92.8851C38.8892 89.3374 39.3862 85.795 39.8433 82.2552C39.8605 82.1109 39.8455 81.9647 39.7996 81.8269C39.7537 81.689 39.6778 81.5631 39.5775 81.458C38.4003 80.6607 38.1106 79.51 38.1478 78.1893C38.177 77.1502 38.1531 76.1217 38.1531 74.9365V74.9286ZM36.2398 73.1826L42.7001 67.4876L32.3492 57.5194L28.2168 60.6765L36.2398 73.1826ZM60.7337 60.6579L56.5721 57.5194L46.2318 67.4956L52.6709 73.1985C55.3815 68.9811 58.0124 64.878 60.7337 60.6659V60.6579ZM44.4753 69.2336C43.2741 70.2833 42.1287 71.2373 41.0498 72.2578C40.7808 72.5571 40.6272 72.9424 40.6166 73.3447C40.5714 75.0056 40.6166 76.6719 40.59 78.3354C40.5767 79.1725 40.9275 79.526 41.7726 79.5127C43.4362 79.4808 45.0998 79.4702 46.7633 79.5127C47.6642 79.5393 48.0177 79.1805 48.0017 78.2929C47.9752 76.5257 48.0017 74.7585 47.9751 72.978C47.9636 72.609 47.8203 72.2564 47.5712 71.9841C46.5986 71.0726 45.5648 70.2036 44.4753 69.2416V69.2336ZM47.3985 93.5893C46.867 89.6802 46.3355 85.8561 45.804 82.016H42.3626C41.8311 85.8667 41.3208 89.6935 40.792 93.5893H47.3985Z" fill="#004999"/>
<path d="M34.531 40.8968C34.1457 38.5502 33.1863 36.4827 32.0383 34.4976C30.8212 32.3955 29.4101 30.3918 28.3471 28.2153C23.2687 17.8166 29.8645 5.09528 41.273 3.13407C50.8745 1.49441 59.9125 7.50827 61.9083 16.9954C62.9713 21.9862 61.9429 26.6421 59.1259 30.9179C57.4252 33.4983 55.7137 36.0841 54.8448 39.103C54.6747 39.6903 54.5365 40.2882 54.3877 40.8728C55.9821 41.4043 55.9981 41.4282 55.9981 43.0573C55.9981 44.0299 56.0114 45.0025 55.9981 45.9805C55.9556 48.6167 54.292 50.3228 51.6425 50.4397C51.1615 50.461 50.6778 50.4397 50.1251 50.4397C50.0454 50.9526 49.9603 51.3858 49.9098 51.8243C49.7105 53.5623 48.7591 54.4552 47.0318 54.4818C45.3655 54.4977 43.6966 54.4818 42.0278 54.4818C40.0453 54.4818 39.0408 53.6367 38.9238 51.6409C38.8627 50.6018 38.4747 50.4158 37.534 50.4264C34.64 50.461 32.8515 48.6513 32.817 45.7652C32.817 44.8617 32.817 43.9582 32.817 43.0546C32.8249 41.5399 32.9684 41.3485 34.531 40.8968ZM39.4447 40.8728C39.0726 38.3031 38.7059 35.7652 38.3392 33.2273C37.9565 30.5804 37.5738 27.9336 37.1912 25.2868C37.0928 24.5985 37.1088 23.9155 37.8927 23.6285C38.6767 23.3415 39.2055 23.7242 39.6015 24.4098C39.8325 24.7937 40.1062 25.1503 40.4173 25.4728C41.6451 26.8015 42.0995 26.8015 43.3618 25.4728C44.1431 24.6569 44.8181 24.6569 45.5675 25.4728C46.7873 26.8015 47.3586 26.8015 48.5784 25.4435C48.8616 25.1369 49.1102 24.8 49.3199 24.439C49.7052 23.7481 50.2473 23.3521 51.0233 23.6418C51.8445 23.9394 51.8445 24.6676 51.7382 25.3957C51.2208 28.939 50.7026 32.4779 50.1835 36.0123C49.947 37.6467 49.7291 39.2837 49.4846 41.0296C50.1357 41.0296 50.6699 41.112 51.1615 41.0004C51.4724 40.926 51.9056 40.6018 51.9587 40.3227C52.6045 37.1736 54.0289 34.3753 55.7058 31.6727C56.7289 30.0224 57.869 28.4066 58.629 26.6235C62.6843 17.022 56.2878 6.42668 45.8731 5.37698C35.0944 4.29007 26.4895 14.7791 29.8167 25.1273C30.5368 27.3649 31.9187 29.4085 33.1305 31.4627C34.5975 33.9554 36.0086 36.4561 36.7234 39.2863C37.1885 41.1466 37.1885 41.1466 39.1152 40.9924C39.2284 40.9627 39.3387 40.9227 39.4447 40.8728ZM53.5293 43.5569H35.2964C35.2964 44.4285 35.2725 45.2284 35.2964 46.023C35.3416 47.187 36.0245 47.8832 37.1885 47.9683C37.8449 48.0108 38.5172 47.9683 39.1683 47.9816C40.6884 47.9816 40.9967 48.2473 41.1588 49.7328C41.1955 50.2878 41.2674 50.8399 41.374 51.3858C41.4325 51.6196 41.7089 51.9731 41.9055 51.9784C43.7312 52.0236 45.5595 52.005 47.4145 52.005C47.5287 51.0244 47.6191 50.1979 47.7174 49.3714C47.829 48.4307 48.3233 47.9391 49.3119 47.9763C50.0772 48.0028 50.8426 48.0055 51.6053 47.9763C52.8118 47.9205 53.4655 47.2747 53.5373 46.0974C53.5692 45.2949 53.5373 44.4976 53.5373 43.5569H53.5293ZM46.9786 41.0429C47.5792 36.8654 48.1665 32.7808 48.7777 28.5368C47.0716 29.2783 45.7163 28.9833 44.4487 27.9655C43.1864 29.0418 41.7912 29.2278 40.1356 28.5209C40.7256 32.6081 41.2784 36.5093 41.8736 40.4051C41.9218 40.5524 42.0062 40.6853 42.119 40.7916C42.2318 40.8979 42.3695 40.9743 42.5194 41.0137C43.9677 41.0562 45.4213 41.0429 46.9786 41.0429Z" fill="#E43C5C"/>
<path d="M13.8241 3.09162C14.8525 3.30687 16.4417 2.73818 16.463 4.38847C16.4869 6.19555 14.7728 5.39033 13.8241 5.7172C13.4972 6.68187 14.2599 8.31621 12.5565 8.37468C10.7361 8.42782 11.5148 6.71641 11.1826 5.73049C10.2206 5.41691 8.50384 6.17429 8.5251 4.40175C8.54902 2.77006 10.1408 3.31219 11.1587 3.09693C11.5413 2.16416 10.7149 0.439462 12.5405 0.476666C14.1961 0.505899 13.5451 2.0552 13.8241 3.09162Z" fill="#004999"/>
<path d="M2.62293 19.6797C1.6184 19.414 -0.00265421 20.0996 3.26327e-06 18.3935C3.26327e-06 16.7406 1.59448 17.2694 2.60964 17.0648C2.98168 16.1267 2.17382 14.4073 3.97824 14.4339C5.68434 14.4605 4.94821 16.0948 5.27508 17.0515C6.26632 17.3173 7.93256 16.6688 7.9113 18.4281C7.88206 20.1368 6.24506 19.3848 5.28571 19.6771C4.90835 20.6205 5.74014 22.3346 3.94103 22.3346C2.2057 22.3399 2.9498 20.7055 2.62293 19.6797Z" fill="#004999"/>
<path d="M16.2691 32.8047C15.2779 32.5389 13.7232 33.2139 13.6595 31.5823C13.5877 29.7805 15.254 30.4502 16.2664 30.1871C16.5163 29.1666 15.8705 27.5084 17.6457 27.5562C19.288 27.5987 18.6369 29.1507 18.8761 30.1393C19.7876 30.5485 21.592 29.6875 21.5336 31.561C21.4831 33.2804 19.8514 32.4885 18.892 32.81C18.5678 33.7587 19.3837 35.4675 17.5633 35.4489C15.8705 35.425 16.5083 33.8358 16.2691 32.8047Z" fill="#004999"/>
<path d="M70.2159 38.1464C72.4269 38.3164 72.8919 38.5503 72.8893 39.4565C72.8866 40.3627 72.4561 40.5487 70.2318 40.74C69.8917 41.6834 70.7235 43.4613 68.8499 43.3975C67.1997 43.339 67.8374 41.7499 67.6142 40.756C66.6177 40.4637 64.9355 41.2157 64.9567 39.4273C64.986 37.7451 66.5725 38.3802 67.5797 38.157C67.8454 37.1631 67.1811 35.4995 68.9323 35.4995C70.6836 35.4995 69.9262 37.1312 70.2159 38.1464Z" fill="#004999"/>
<path d="M83.902 27.6469C83.5405 28.6089 84.2873 30.3363 82.552 30.331C80.8166 30.3257 81.5926 28.5877 81.2232 27.6443C80.2373 27.3652 78.603 28.0588 78.5923 26.3687C78.5817 24.6785 80.2612 25.3057 81.2498 25.0001C81.5474 24.0301 80.8538 22.3984 82.5413 22.3772C84.2288 22.3559 83.6043 23.9716 83.8701 24.9868C84.8321 25.3402 86.602 24.628 86.5089 26.4564C86.4239 28.0402 84.8533 27.3679 83.902 27.6469Z" fill="#004999"/>
<path d="M75.3289 11.0429C77.524 11.2688 78.1352 11.5585 78.0289 12.4195C77.811 14.1495 76.3148 13.3549 75.3555 13.6738C74.9489 14.6039 75.7939 16.3552 74.0267 16.3685C72.2595 16.3818 73.0222 14.6624 72.698 13.6924C71.7333 13.3337 69.9927 14.1601 70.0405 12.3637C70.083 10.7453 71.6908 11.3007 72.682 11.0509C73.0328 10.1101 72.2941 8.45454 74.0108 8.43859C75.7275 8.42265 75.0206 10.057 75.3289 11.0429Z" fill="#004999"/>
</svg>
