<svg width="138" height="95" viewBox="0 0 138 95" fill="none" xmlns="http://www.w3.org/2000/svg">
<path d="M95.4196 86.0483C95.4196 85.0904 95.2756 84.1057 95.4458 83.1793C95.9932 80.1996 94.95 77.7399 93.4932 75.1904C80.9173 53.1958 68.3958 31.17 55.9287 9.113C55.1402 7.72339 54.3672 6.32532 53.5572 4.94877C50.7938 0.247618 45.2271 -1.35015 40.6567 1.23011C36.0423 3.83648 34.5178 9.5109 37.2773 14.2889C43.6025 25.2383 49.9931 36.1508 56.3583 47.0771C63.7581 59.7774 71.1543 72.4813 78.5468 85.1888C79.1301 86.2202 79.9632 87.0894 80.9699 87.7168C84.4093 89.8869 87.8102 92.1191 91.2318 94.3176C93.4108 95.718 95 94.9168 95.0716 92.3381C95.1301 90.2433 95.0839 88.1447 95.0839 86.0476L95.4196 86.0483ZM52.2706 11.5542C52.7703 11.7355 52.9282 12.1841 53.1453 12.5674C65.7212 34.7125 78.2971 56.8589 90.873 79.0066C91.1425 79.4813 91.442 79.9468 91.4182 80.5306C91.3165 82.9888 91.2041 85.453 91.1263 87.915C91.0894 89.0849 90.6367 89.0811 89.7936 88.5195C87.7778 87.1783 85.7467 85.8578 83.6909 84.5788C82.844 84.0534 82.2465 83.3736 81.7522 82.5217C76.8296 74.033 71.8942 65.5515 66.946 57.0771C59.3881 44.1018 51.82 31.1321 44.2416 18.1681C43.524 16.9467 43.6918 16.4267 44.8922 15.7868C47.0673 14.6269 49.1546 13.3025 51.2828 12.0535C51.5938 11.8715 51.9288 11.727 52.2706 11.5542ZM45.1101 4.12608C47.2713 4.14451 49.1284 5.30059 49.9931 6.98518C50.2687 7.52289 50.2857 7.88393 49.7067 8.21962C47.1782 9.68476 44.6594 11.1658 42.1504 12.6627C41.5252 13.0368 41.1779 12.8739 40.8414 12.2786C39.8128 10.4757 39.6557 8.64748 40.6874 6.81388C41.6969 5.03865 43.2883 4.1906 45.1154 4.12608H45.1101Z" fill="#E33C5C"/>
<path d="M108.464 81.5046C109.465 81.5046 110.001 80.7987 110.568 80.1404L131.776 55.5538C133.268 53.8247 134.772 52.1063 136.242 50.3626C137.32 49.0889 137.336 48.2363 136.242 46.9703C127.296 36.6539 118.339 26.3457 109.371 16.0457C108.355 14.8788 107.209 14.7106 106.251 15.4941C105.255 16.3099 105.281 17.5935 106.382 18.8625C114.643 28.3831 122.918 37.8914 131.208 47.3875C132.107 48.4114 132.055 48.9883 131.198 49.9754C123.345 59.0029 115.522 68.0574 107.731 77.1392C107.346 77.5878 106.928 78.0318 106.647 78.5441C106.471 78.8523 106.381 79.202 106.387 79.5566C106.392 79.9112 106.493 80.2578 106.679 80.5602C106.865 80.8626 107.128 81.1098 107.442 81.2759C107.756 81.442 108.109 81.521 108.464 81.5046Z" fill="#E33C5C"/>
<path d="M29.5423 81.5092C31.0561 81.5384 32.0747 80.0197 31.4033 78.6539C31.1477 78.1331 30.7258 77.6853 30.3408 77.2374C22.5006 68.1393 14.6491 59.0512 6.78631 49.973C5.89856 48.9537 5.93937 48.3522 6.8071 47.3613C14.8711 38.1556 22.9056 28.9238 30.9105 19.666C31.2994 19.2181 31.709 18.7826 32.0508 18.2994C32.7269 17.3453 32.6553 16.4028 31.8199 15.5809C31.0222 14.792 29.8996 14.8396 28.9802 15.6577C28.7488 15.8784 28.5315 16.1134 28.3296 16.3613C19.5522 26.4611 10.7768 36.5614 2.00339 46.6623C0.578972 48.3031 0.578955 49.0121 2.02339 50.6882C10.4898 60.513 18.9593 70.335 27.4319 80.1542C28.0009 80.8132 28.5414 81.5207 29.5423 81.5092Z" fill="#E33C5C"/>
<path d="M96.0048 51.6662C99.2055 51.6662 102.406 51.6762 105.608 51.6662C107.266 51.6585 108.187 50.9457 108.226 49.6966C108.263 48.4153 107.272 47.5803 105.587 47.5757C99.1393 47.5604 92.6917 47.5604 86.2441 47.5757C84.5902 47.5803 83.6062 48.4845 83.7032 49.7842C83.7872 50.8996 84.6411 51.6447 85.9916 51.6554C89.3293 51.6816 92.6678 51.6639 96.0063 51.6639L96.0048 51.6662Z" fill="#004999"/>
<path d="M40.5172 51.6654C43.7633 51.6654 47.0102 51.6769 50.2563 51.6608C51.8732 51.6523 52.8157 50.8742 52.8026 49.6228C52.7895 48.3715 51.8378 47.5787 50.2286 47.5741C43.7826 47.5557 37.336 47.5557 30.8889 47.5741C29.195 47.578 28.2418 48.4076 28.2903 49.7204C28.3365 50.9725 29.2404 51.6592 30.9159 51.6654C34.1166 51.6738 37.3173 51.6654 40.5172 51.6654Z" fill="#004999"/>
<path d="M55.3328 74.731C57.8945 74.731 60.4569 74.7518 63.0185 74.7226C64.6747 74.7041 65.5532 73.9544 65.5409 72.6747C65.5286 71.3949 64.6439 70.6336 62.9954 70.6267C57.8721 70.6052 52.7486 70.6052 47.6248 70.6267C45.9779 70.6344 45.1001 71.4026 45.104 72.6962C45.1078 73.9898 45.9648 74.7049 47.6448 74.7226C50.2095 74.7518 52.7712 74.731 55.3328 74.731Z" fill="#004999"/>
<path d="M34.6933 39.904C37.3451 39.904 39.9975 39.9171 42.65 39.904C44.3724 39.8933 45.3172 39.1236 45.2833 37.8139C45.251 36.5694 44.3124 35.8128 42.6816 35.8089C37.3315 35.7936 31.9813 35.7936 26.6312 35.8089C25.0235 35.8143 24.0703 36.6078 24.0541 37.8507C24.0379 39.0936 24.9873 39.8871 26.5996 39.8994C29.2975 39.9186 31.9954 39.9033 34.6933 39.904Z" fill="#004999"/>
<path d="M79.8734 28.1258C82.0201 28.1258 84.1675 28.1435 86.3141 28.122C87.8809 28.1051 88.7494 27.3968 88.7933 26.1701C88.8387 24.8965 87.9179 24.0446 86.3295 24.0354C81.99 24.0082 77.6503 24.0082 73.3103 24.0354C71.7812 24.0454 70.9235 24.835 70.9127 26.0802C70.9034 27.3377 71.7542 28.0959 73.2926 28.1151C75.4878 28.1443 77.6798 28.1243 79.8734 28.1258Z" fill="#004999"/>
<path d="M84.3188 39.9032C86.2853 39.9032 88.2517 39.9209 90.2174 39.8979C91.8489 39.8787 92.746 39.1197 92.7283 37.8392C92.7121 36.6101 91.8235 35.8228 90.3006 35.8128C86.3687 35.7856 82.4365 35.7856 78.5041 35.8128C76.9842 35.8228 76.0819 36.6094 76.0557 37.8238C76.0287 39.099 76.9403 39.8794 78.558 39.8979C80.4783 39.9209 82.3985 39.9032 84.3188 39.9032Z" fill="#004999"/>
<path d="M53.2495 63.1617C54.5708 63.1617 55.8928 63.1948 57.2125 63.1518C58.5214 63.1088 59.3684 62.3006 59.3845 61.1776C59.4007 60.0545 58.5661 59.1358 57.2887 59.1035C54.6031 59.04 51.9162 59.04 49.2281 59.1035C47.9484 59.132 47.1061 60.0568 47.1222 61.1668C47.1384 62.2768 47.9923 63.1095 49.2873 63.1541C50.607 63.1979 51.9291 63.1625 53.2495 63.1617Z" fill="#004999"/>
<path d="M96.5297 59.0744C95.4325 59.0744 94.3338 59.0345 93.239 59.0821C91.8084 59.1443 90.9776 59.9309 90.9753 61.1323C90.973 62.3337 91.8145 63.138 93.2313 63.1572C95.471 63.1871 97.7116 63.1894 99.9506 63.1518C101.273 63.1288 102.129 62.3306 102.17 61.2083C102.213 60.0507 101.323 59.155 99.9576 59.0882C98.8173 59.0337 97.6723 59.0782 96.5297 59.0744Z" fill="#004999"/>
<path d="M30.4699 63.158C31.6125 63.158 32.7574 63.1964 33.8977 63.1472C35.0588 63.0973 35.7717 62.4643 35.8888 61.2883C35.9981 60.179 35.2559 59.1843 34.0609 59.1374C31.6887 59.0414 29.3072 59.0421 26.935 59.1374C25.7177 59.1858 25.014 60.136 25.0771 61.2629C25.1402 62.3898 25.9033 63.1065 27.1783 63.1572C28.2739 63.2002 29.3727 63.1664 30.4699 63.1664V63.158Z" fill="#004999"/>
<path d="M99.8544 28.1174C100.768 28.1174 101.682 28.1573 102.593 28.1081C103.825 28.0421 104.643 27.2632 104.692 26.1877C104.744 25.0747 103.911 24.1137 102.645 24.0661C100.684 23.9893 98.718 23.9892 96.7585 24.076C95.5312 24.1306 94.7951 25.0247 94.8182 26.134C94.8413 27.2547 95.6035 28.0382 96.8424 28.1043C97.8433 28.1573 98.8535 28.1174 99.8544 28.1174Z" fill="#004999"/>
<path d="M117.234 51.6531C118.192 51.6531 119.153 51.7007 120.108 51.6408C121.268 51.5678 121.973 50.9172 122.037 49.7365C122.101 48.5559 121.439 47.7547 120.309 47.6517C118.173 47.4464 116.022 47.4507 113.888 47.6648C112.822 47.7769 112.173 48.5689 112.204 49.6682C112.237 50.8204 112.922 51.5433 114.087 51.6278C115.13 51.7046 116.184 51.6439 117.234 51.6439V51.6531Z" fill="#004999"/>
<path d="M20.2488 51.653C21.0188 51.653 21.7987 51.6891 22.5702 51.6446C23.7251 51.577 24.4581 50.9471 24.5467 49.7841C24.6352 48.6211 23.9846 47.8022 22.8612 47.6617C21.0973 47.4383 19.312 47.4401 17.5486 47.667C16.4806 47.8061 15.8508 48.6004 15.8947 49.6888C15.9401 50.8319 16.6215 51.5424 17.7903 51.6338C18.6049 51.6968 19.428 51.6454 20.248 51.6454L20.2488 51.653Z" fill="#004999"/>
<path d="M35.8136 28.1089C36.5428 28.1089 37.2766 28.1565 37.9996 28.0982C39.1545 28.0044 39.8682 27.3607 39.9244 26.1885C39.9806 25.0163 39.3146 24.2335 38.1867 24.106C36.5143 23.9178 34.8119 23.8948 33.1427 24.1252C32.0817 24.2719 31.4326 25.0324 31.4688 26.134C31.5073 27.2862 32.1933 27.9883 33.3537 28.0897C34.1675 28.1604 34.9929 28.1035 35.8129 28.1035L35.8136 28.1089Z" fill="#004999"/>
<path d="M100.47 39.8856C101.199 39.8856 101.933 39.9279 102.657 39.8764C103.863 39.7904 104.712 38.9684 104.684 37.8992C104.654 36.7354 103.991 35.9526 102.859 35.8743C101.223 35.7539 99.5811 35.758 97.9461 35.8866C96.8204 35.9803 96.1536 36.7876 96.216 37.9675C96.2783 39.1474 96.9944 39.785 98.1462 39.8741C98.9177 39.934 99.6961 39.8856 100.47 39.8856Z" fill="#004999"/>
<path d="M109.941 63.1555C110.67 63.1555 111.404 63.1993 112.127 63.1455C113.282 63.0595 113.99 62.4235 114.059 61.2474C114.129 60.0598 113.467 59.2909 112.342 59.1557C110.668 58.9421 108.973 58.9452 107.3 59.1649C106.177 59.3185 105.524 60.1389 105.618 61.2981C105.705 62.3735 106.38 63.0464 107.482 63.1332C108.297 63.197 109.121 63.1455 109.941 63.1455V63.1555Z" fill="#004999"/>
<path d="M111.927 39.8641C112.519 39.8641 113.12 39.9325 113.697 39.8495C114.717 39.7043 115.341 39.0813 115.426 38.0374C115.516 36.9297 114.968 36.1416 113.904 35.9257C112.604 35.6684 111.267 35.6668 109.966 35.9211C108.956 36.1132 108.389 36.8644 108.415 37.8907C108.441 38.9738 109.058 39.6843 110.152 39.8441C110.731 39.9286 111.333 39.8595 111.923 39.8595L111.927 39.8641Z" fill="#004999"/>
<path d="M39.8322 70.5607C39.2932 70.6375 38.7335 70.6375 38.2268 70.808C37.3029 71.1153 36.8478 71.8197 36.8994 72.7968C36.951 73.7739 37.49 74.4437 38.4393 74.6235C39.1438 74.7579 39.8899 74.7356 40.6137 74.7003C41.8187 74.6411 42.5832 74.0205 42.6756 72.7753C42.7603 71.63 41.9442 70.7934 40.6591 70.6452C40.3896 70.6144 40.114 70.6406 39.8407 70.6406C39.8376 70.6137 39.8353 70.5876 39.8322 70.5607Z" fill="#004999"/>
<path d="M41.7759 63.131C42.1855 63.131 42.6036 63.1833 43.0078 63.121C44.0404 62.9605 44.6455 62.3083 44.7318 61.2913C44.8134 60.3334 44.3638 59.5829 43.4321 59.2733C42.387 58.9165 41.252 58.9211 40.2098 59.2864C39.2928 59.609 38.8386 60.3618 38.931 61.3205C39.0234 62.2791 39.5954 62.9075 40.5532 63.1065C40.9498 63.1894 41.3702 63.1618 41.779 63.1833C41.7752 63.1664 41.7759 63.1456 41.7759 63.131Z" fill="#004999"/>
</svg>
