<svg width="78" height="78" viewBox="0 0 78 78" fill="none" xmlns="http://www.w3.org/2000/svg">
<path d="M46.8489 69.0847C45.5823 69.2871 44.375 69.4691 43.1767 69.6921C43.0052 69.7241 42.7756 69.9971 42.7562 70.1791C42.5241 72.2999 42.3267 74.4259 42.1203 76.5493C42.0984 76.7838 42.07 77.017 42.0507 77.2502C42.0107 77.7628 41.7476 78.005 41.2123 77.9973C40.0733 77.9807 38.9331 77.9781 37.7942 77.9973C37.2215 78.0089 36.9738 77.741 36.9248 77.2054C36.7107 74.9103 36.476 72.6177 36.2864 70.32C36.2477 69.8446 36.1096 69.6793 35.6156 69.6216C34.6349 69.5092 33.6618 69.338 32.7019 69.109C32.2594 69.0039 32.1034 69.1321 31.9279 69.4935C30.9554 71.5605 29.9622 73.6185 28.9742 75.6791C28.6298 76.3955 28.4583 76.4711 27.7192 76.2122C26.708 75.8547 25.7032 75.4831 24.6906 75.1294C24.1244 74.9308 23.9464 74.6078 24.1141 73.9991C24.7177 71.7976 25.2594 69.5793 25.8631 67.3765C25.9921 66.9126 25.8928 66.6986 25.4761 66.4794C24.4701 65.9566 23.4937 65.3748 22.4334 64.7764C22.0542 65.1403 21.6388 65.5324 21.2313 65.9297C19.8838 67.2479 18.5376 68.5678 17.1927 69.8894C16.5801 70.4905 16.4189 70.493 15.7352 69.9356C14.9729 69.3102 14.2055 68.6913 13.447 68.0621C12.7376 67.4751 12.7299 67.2868 13.2703 66.5243C14.6599 64.55 16.0422 62.5739 17.4172 60.5962L14.7536 57.445C13.2058 58.149 11.6499 58.8551 10.0857 59.5633C9.34404 59.8991 8.59334 60.2181 7.85942 60.5731C7.37057 60.8102 7.03649 60.6718 6.78368 60.2348C6.19293 59.2186 5.59961 58.2037 5.01918 57.1823C4.72896 56.6697 4.99338 56.3622 5.40613 56.07C7.32542 54.7373 9.2331 53.3879 11.1434 52.0436C11.2478 51.9706 11.3484 51.8911 11.449 51.8155C11.0234 50.6186 10.6184 49.4333 10.1592 48.2671C10.1012 48.1197 9.75936 47.9903 9.55814 48.0031C7.71495 48.1313 5.87433 48.2812 4.03242 48.426C3.51648 48.467 3.00055 48.4875 2.49106 48.5465C1.98157 48.6054 1.70555 48.3799 1.62042 47.9057C1.40888 46.7293 1.21283 45.5504 1.01032 44.374C0.914872 43.8217 1.2528 43.6051 1.71199 43.477C3.86603 42.8977 6.01494 42.298 8.17801 41.7508C8.75844 41.6034 8.9661 41.383 8.91709 40.7615C8.86277 39.8225 8.86277 38.8812 8.91709 37.9423C8.93128 37.5578 8.82809 37.3759 8.43727 37.2721C6.29999 36.7095 4.17173 36.111 2.03574 35.5446C1.01418 35.2729 0.890356 35.0794 1.09802 34.0671C1.28634 33.1483 1.43081 32.2205 1.58688 31.2952C1.71586 30.4969 1.95448 30.3111 2.74774 30.3816C5.03593 30.5828 7.32282 30.7903 9.6123 30.9646C9.72298 30.9541 9.82947 30.9171 9.92267 30.8568C10.0159 30.7966 10.093 30.7149 10.1476 30.6186C10.5436 29.6306 10.8635 28.6106 11.2672 27.6251C11.4323 27.2214 11.3484 27.0305 11.0092 26.7947C9.15829 25.5132 7.32543 24.2074 5.48224 22.9157C4.81926 22.4518 4.77411 22.266 5.18428 21.556C5.71828 20.6308 6.25357 19.7056 6.77209 18.7714C7.04941 18.2716 7.40151 18.1307 7.94067 18.3869C10.0225 19.3506 12.1185 20.2848 14.1938 21.2626C14.6079 21.4574 14.7885 21.4087 15.0684 21.0358C15.6836 20.2156 16.3724 19.4493 17.0612 18.6881C17.2985 18.4318 17.3708 18.246 17.1463 17.9307C15.81 16.047 14.5021 14.1427 13.1633 12.2615C12.8202 11.7797 12.8602 11.4157 13.3103 11.0492C14.141 10.3726 14.9587 9.68061 15.7842 8.99886C16.4446 8.45167 16.6433 8.46833 17.2456 9.06422C18.8734 10.6763 20.5042 12.2863 22.138 13.8941C22.2128 13.9671 22.2967 14.0325 22.3547 14.0838C23.504 13.443 24.6313 12.8305 25.729 12.1705C25.858 12.0923 25.9134 11.7322 25.858 11.5298C25.3188 9.42303 24.7512 7.32141 24.1915 5.21979C23.9257 4.22024 24.0186 4.06646 25.0118 3.73456C25.9663 3.41163 26.9169 3.0746 27.8559 2.70938C28.4144 2.49281 28.7304 2.653 28.9768 3.18224C29.9339 5.2326 30.9296 7.26759 31.8802 9.32179C32.0608 9.70624 32.2556 9.80106 32.6632 9.70624C33.8163 9.45635 34.9785 9.24875 36.2283 9.00655C36.3134 8.23766 36.4128 7.4188 36.494 6.59866C36.654 4.98571 36.8075 3.3719 36.9545 1.75724C37.0035 1.21134 37.2602 0.9717 37.8303 0.988359C38.9473 1.01143 40.0656 0.988359 41.1839 0.988359C41.9139 0.988359 42.0597 1.16777 42.1229 1.8918C42.3306 4.2715 42.5615 6.64864 42.7833 9.03218C44.1015 9.28079 45.3798 9.53708 46.667 9.73955C46.8141 9.76262 47.0837 9.50889 47.1727 9.32564C48.1117 7.38292 49.0236 5.42867 49.9459 3.47955C50.4012 2.51588 50.5405 2.47615 51.5207 2.85162C52.4017 3.18865 53.2956 3.49236 54.1856 3.80376C55.0278 4.0985 55.1039 4.22408 54.8859 5.05576C54.2823 7.36242 53.6761 9.66907 53.066 12.0014L56.8246 14.1606C58.0693 12.8907 59.3398 11.5977 60.6142 10.297C61.0656 9.83951 61.5312 9.39996 61.9827 8.93863C62.3696 8.54394 62.7476 8.55419 63.1642 8.90788C63.9949 9.6191 64.841 10.3085 65.6768 11.0146C66.2327 11.4836 66.2611 11.7041 65.8381 12.3153C64.5353 14.1948 63.23 16.0743 61.9221 17.9538C61.8498 18.0576 61.7841 18.1678 61.7144 18.2767L64.4231 21.5035L70.6763 18.6625C71.8371 18.1345 71.8371 18.1358 72.473 19.2225C72.9451 20.0349 73.4004 20.8589 73.8919 21.6573C74.2208 22.1852 74.1279 22.5402 73.6197 22.8926C71.7868 24.1626 69.972 25.4556 68.1507 26.7447C67.9779 26.8729 67.8141 27.001 67.667 27.1112C68.0991 28.3363 68.5016 29.5281 68.9569 30.6994C69.0162 30.8544 69.3438 31.0133 69.5283 31.0005C71.436 30.8724 73.3411 30.7147 75.2475 30.5622C77.5615 30.3777 77.1939 30.2701 77.5847 32.3332C77.7137 33.0252 77.8233 33.7224 77.9626 34.4118C78.0826 35.0038 77.8762 35.328 77.2751 35.487C75.1172 36.0546 72.9709 36.6659 70.8117 37.2298C70.319 37.3579 70.1332 37.5245 70.1668 38.0845C70.2403 39.2301 70.1887 40.3822 70.1887 41.6034L74.9895 42.9375C75.7544 43.1489 76.5154 43.3808 77.288 43.5641C77.8594 43.6922 78.08 44.0024 77.9704 44.5777C77.7597 45.6884 77.5593 46.8015 77.3693 47.9173C77.279 48.4452 76.9759 48.6234 76.4664 48.5798C74.1756 48.385 71.8823 48.212 69.5928 48.0083C69.1671 47.9698 68.9479 48.0429 68.8086 48.4965C68.4539 49.6127 68.023 50.7058 67.6026 51.8655C67.7109 51.9526 67.8515 52.0757 68.0037 52.1833C69.8568 53.4972 71.7111 54.8103 73.5668 56.1226C74.2117 56.5852 74.2453 56.7389 73.8416 57.4399C73.3394 58.3113 72.8351 59.1802 72.3286 60.0464C71.8913 60.7974 71.7198 60.8525 70.9368 60.4975L64.3147 57.486L61.6164 60.6577L65.286 65.9515C65.4692 66.2154 65.6394 66.4884 65.8393 66.7396C66.2018 67.1958 66.1631 67.5713 65.7 67.9442C64.8315 68.6438 63.9755 69.3576 63.132 70.0855C62.6754 70.4802 62.3181 70.4084 61.9105 70.0048C60.2995 68.4042 58.6665 66.8242 57.0503 65.23C56.9198 65.078 56.8053 64.9131 56.7085 64.7379L53.0041 66.8549C53.431 68.5029 53.8618 70.1714 54.2939 71.8373C54.4706 72.519 54.6564 73.1982 54.8344 73.8787C55.0588 74.7309 54.9853 74.8769 54.1752 75.1742C53.2698 75.5057 52.3634 75.8363 51.4563 76.1661C50.5056 76.5083 50.3908 76.4621 49.9639 75.5702L47.1262 69.6152C47.0308 69.4422 46.9431 69.273 46.8489 69.0847ZM39.5355 63.0259C52.6029 63.0733 63.2055 52.5562 63.3216 39.4326C63.4338 26.6794 52.7113 15.8753 39.894 15.8253C26.5983 15.774 15.8668 26.1642 15.8113 39.1481C15.7533 52.3819 26.2797 62.9784 39.5355 63.0259Z" fill="#E33B5C"/>
<path d="M20.0072 38.2718C20.0072 36.5867 20.0149 34.9028 20.0072 33.2177C20.0072 32.7051 20.1878 32.3642 20.7243 32.3629C22.3108 32.3629 23.9102 32.2668 25.48 32.4309C27.6327 32.6538 28.7266 33.993 28.7317 36.0856C28.7317 38.3359 27.545 39.8224 25.4516 40.1582C25.0283 40.2325 24.5994 40.2711 24.1695 40.2735C23.602 40.2735 23.4085 40.5298 23.4266 41.059C23.4524 41.8049 23.4266 42.552 23.4562 43.2978C23.4781 43.8808 23.2524 44.182 22.641 44.1781C22.147 44.1781 21.6543 44.2153 21.1603 44.2166C20.3322 44.2166 20.1594 44.041 20.1491 43.1914C20.1387 42.3418 20.131 41.5255 20.1271 40.6964C20.1271 39.8865 20.1271 39.0753 20.1271 38.2616L20.0072 38.2718ZM23.3711 36.2702H23.3879C23.3879 36.4406 23.3879 36.6098 23.3879 36.7827C23.4111 37.4965 23.6703 37.6913 24.3591 37.5222C24.6959 37.4411 24.9887 37.2353 25.1779 36.9468C25.367 36.6584 25.4382 36.3091 25.3768 35.9703C25.2711 35.2386 24.8609 34.9759 23.9902 35.0092C23.237 35.0361 23.393 35.5718 23.3698 36.0177C23.3672 36.0997 23.3711 36.1856 23.3711 36.2702Z" fill="#E33B5C"/>
<path d="M54.0295 44.0165C53.1137 43.8178 52.1953 43.632 51.2821 43.4167C50.8771 43.3219 50.6785 43.0451 50.6901 42.6184C50.7017 42.1916 50.6746 41.7636 50.6901 41.3369C50.7081 40.6821 51.0086 40.5039 51.6665 40.6654C52.4752 40.8628 53.293 41.0332 54.1172 41.178C54.4131 41.2415 54.7211 41.2211 55.0059 41.119C55.2871 40.9909 55.625 40.7346 55.6921 40.4783C55.7475 40.2643 55.487 39.9106 55.278 39.7094C55.0691 39.5082 54.7621 39.4121 54.49 39.2853C53.9276 39.0213 53.3484 38.788 52.7964 38.5048C51.0989 37.6334 50.4192 36.3071 50.7249 34.5105C50.9609 33.1265 52.1566 32.1039 53.8786 31.8194C55.2862 31.5943 56.7282 31.7265 58.0706 32.2038C58.7632 32.4371 58.869 32.6767 58.6226 33.3572C58.0487 34.9487 58.0512 34.9346 56.3938 34.5476C55.9175 34.42 55.4233 34.3716 54.9311 34.4041C54.6009 34.4374 54.1507 34.645 54.0153 34.909C53.7857 35.3563 54.201 35.6356 54.5828 35.8266C55.5399 36.3058 56.546 36.7082 57.454 37.2657C59.4172 38.4702 59.5952 41.2318 57.859 42.7542C56.9974 43.509 55.9526 43.7935 54.8382 43.8832C54.5802 43.9037 54.3223 43.8832 54.0643 43.8832L54.0295 44.0165Z" fill="#E33B5C"/>
<path d="M35.3319 38.0821C35.2377 37.2171 34.9643 36.9185 34.2303 36.9929C33.6352 37.063 33.0498 37.1993 32.4852 37.3991C31.9305 37.5862 31.6029 37.467 31.3527 36.9313C30.7 35.5435 30.7594 35.2654 32.2724 34.9873C33.4665 34.7568 34.6857 34.6814 35.8994 34.7631C37.5117 34.8912 38.5462 36.0715 38.6081 37.672C38.6842 39.5045 38.6777 41.3396 38.7048 43.1734C38.7126 43.6963 38.4469 43.95 37.9219 43.9833C37.0061 44.0435 36.0877 44.1281 35.8929 42.8082C35.7033 42.9697 35.5898 43.0517 35.4944 43.1503C34.42 44.2665 33.0927 44.4152 31.6932 44.0333C30.602 43.736 30.077 42.88 29.9455 41.8048C29.8049 40.6387 29.9455 39.5058 31.1167 38.9279C31.8841 38.5434 32.7715 38.3897 33.6228 38.209C34.1659 38.0949 34.7334 38.1206 35.3319 38.0821ZM34.1014 41.8317C34.8017 41.8317 35.3486 41.3832 35.3641 40.7514C35.3706 40.5272 35.2932 40.2094 35.1345 40.0915C34.674 39.7455 33.5364 40.1517 33.3158 40.6912C33.0514 41.3499 33.3881 41.8394 34.1014 41.8317Z" fill="#E33B5C"/>
<path d="M46.1872 42.5519C45.2456 43.7847 44.1157 44.1038 42.8233 44.0397C41.5309 43.9757 40.6434 43.2632 40.3261 42.024C39.9611 40.6028 40.3971 39.3547 41.487 38.7126C42.5473 38.0873 43.7391 38.0642 44.9154 37.9796C45.1476 37.963 45.3798 37.9514 45.6081 37.9386C45.6081 37.1275 45.3333 36.7853 44.5968 36.8532C43.981 36.9128 43.3747 37.0462 42.7911 37.2505C42.2248 37.4414 41.9165 37.2992 41.665 36.7738C41.0097 35.4026 41.0575 35.1335 42.5343 34.858C43.7487 34.6155 44.9903 34.5358 46.2259 34.6209C47.8653 34.7619 48.8559 35.9113 48.9243 37.5414C49.0016 39.3739 48.9771 41.2115 49.0017 43.0517C49.0081 43.5528 48.7605 43.7886 48.2664 43.8206C47.3468 43.8885 46.4413 43.9577 46.1872 42.5519ZM44.3814 41.6882C45.0908 41.6972 45.6571 41.273 45.6855 40.6387C45.6958 40.3991 45.6081 40.0531 45.4365 39.9249C44.9541 39.5661 43.7688 40.0441 43.5946 40.6169C43.405 41.2282 43.7365 41.6831 44.3763 41.6831L44.3814 41.6882Z" fill="#E33B5C"/>
</svg>
