<svg width="149" height="171" viewBox="0 0 149 171" fill="none" xmlns="http://www.w3.org/2000/svg">
<g clip-path="url(#clip0_360_121)">
<path d="M53.9799 145.35C53.9799 142.83 53.8299 140.35 53.9799 137.79C54.4399 131.27 51.7999 126.1 47.2399 121.73C43.1599 117.84 38.9699 114.06 34.9899 110.07C29.8953 104.998 26.1189 98.7566 23.9899 91.8901C22.0236 85.2589 21.245 78.3323 21.6899 71.4301C22.0562 63.3427 24.3426 55.4587 28.3599 48.4301C32.1061 41.7981 37.2521 36.0617 43.4399 31.6201C48.2617 28.0783 53.6814 25.4328 59.4399 23.8101C66.402 21.8024 73.6984 21.2241 80.8899 22.1101C89.3407 23.1108 97.4186 26.1627 104.42 31.0001C111.988 36.1902 118.052 43.2858 122 51.5701C123.845 55.3911 125.225 59.42 126.11 63.5701C126.959 67.8483 127.294 72.2124 127.11 76.5701C127.023 80.8875 126.449 85.1813 125.4 89.3701C123.76 96.2071 120.447 102.53 115.76 107.77C111.93 111.93 107.71 115.77 103.63 119.66C100.92 122.26 98.2499 124.87 96.5099 128.26C95.2972 130.696 94.6934 133.39 94.7499 136.11C94.7499 142.87 94.7499 149.63 94.7499 156.39C94.7499 158.9 93.9699 159.67 91.4699 159.67C90.6305 159.715 89.7893 159.715 88.9499 159.67C87.7799 159.55 87.2299 160.06 86.9499 161.15C85.967 164.38 83.7793 167.109 80.8399 168.77C74.7499 172.42 66.0099 169.86 62.8399 163.46C62.4573 162.637 62.1234 161.792 61.8399 160.93C61.7712 160.537 61.552 160.187 61.2289 159.954C60.9057 159.72 60.5043 159.622 60.1099 159.68C59.1099 159.74 58.0299 159.68 56.9899 159.68C54.9899 159.68 54.0699 158.8 54.0599 156.77C53.9699 152.95 53.9799 149.15 53.9799 145.35ZM74.2999 133.18H88.4599C89.4599 133.18 90.1299 133.05 90.2799 131.81C90.4955 130.632 90.8305 129.48 91.2799 128.37C92.6663 124.673 94.9033 121.353 97.8099 118.68C101.32 115.24 104.97 111.95 108.54 108.58C113.54 103.996 117.355 98.2697 119.66 91.8901C120.752 88.2882 121.505 84.5921 121.91 80.8501C122.826 74.3531 122.362 67.7361 120.55 61.4301C118.596 54.2903 114.969 47.7189 109.97 42.2601C102.752 34.1944 92.9779 28.8589 82.2899 27.1501C75.4156 25.9795 68.3688 26.3207 61.6399 28.1501C56.7489 29.435 52.108 31.5308 47.9099 34.3501C35.1599 43.0001 28.0599 55.0401 26.4899 70.3501C25.9642 75.8948 26.3459 81.4882 27.6199 86.9101C29.2035 94.2644 32.8289 101.023 38.0799 106.41C41.9799 110.41 46.1699 114.1 50.1899 117.98C54.2099 121.86 57.2999 126.04 58.3199 131.54C58.5899 132.97 59.2299 133.25 60.4799 133.24C65.0999 133.16 69.6999 133.18 74.2999 133.18ZM74.4699 138.06H60.4699C59.0899 138.06 58.7999 138.36 58.7699 139.75C58.7699 140.63 58.7699 141.51 58.7699 142.39C58.7699 143.48 59.2299 144.01 60.3499 143.99C62.0299 143.99 63.7099 143.99 65.3499 143.99H88.1499C89.7099 143.99 89.9499 143.73 89.9799 142.16C89.9799 141.36 89.9799 140.56 89.9799 139.76C89.9799 138.37 89.6599 138.08 88.2699 138.07L74.4699 138.06ZM74.4699 148.86H60.4699C59.1399 148.86 58.8499 149.16 58.7999 150.46C58.7999 151.1 58.7999 151.74 58.7999 152.38C58.7999 154.71 58.8799 154.78 61.1499 154.78H88.6199C88.81 154.809 89.0042 154.794 89.1874 154.735C89.3706 154.677 89.5379 154.577 89.6762 154.444C89.8146 154.31 89.9203 154.147 89.9851 153.966C90.0499 153.785 90.0721 153.591 90.0499 153.4C90.0499 152.56 90.0499 151.72 90.0499 150.88C90.0499 149.08 89.8299 148.88 88.0499 148.88L74.4699 148.86ZM74.3599 159.66C72.3599 159.66 70.4399 159.66 68.4799 159.66C68.0599 159.66 67.3599 159.88 67.2799 160.14C67.1888 160.413 67.1526 160.7 67.1732 160.987C67.1938 161.274 67.2708 161.553 67.3999 161.81C68.1564 162.978 69.1933 163.938 70.4159 164.603C71.6386 165.268 73.0082 165.616 74.3999 165.616C75.7916 165.616 77.1612 165.268 78.3838 164.603C79.6065 163.938 80.6433 162.978 81.3999 161.81C81.531 161.574 81.6088 161.312 81.6278 161.042C81.6468 160.773 81.6066 160.502 81.5099 160.25C81.3699 159.93 80.6899 159.71 80.2399 159.7C78.2499 159.63 76.2899 159.66 74.3299 159.66H74.3599Z" fill="#004999"/>
<path d="M121.03 114.93C121.735 115.267 122.405 115.672 123.03 116.14C125.33 118.38 127.58 120.66 129.83 122.95C130.079 123.163 130.284 123.424 130.431 123.718C130.579 124.011 130.667 124.33 130.69 124.658C130.714 124.985 130.672 125.314 130.567 125.625C130.462 125.936 130.297 126.223 130.08 126.47C129.855 126.728 129.576 126.933 129.262 127.07C128.949 127.208 128.609 127.274 128.266 127.265C127.924 127.255 127.588 127.17 127.283 127.015C126.978 126.86 126.71 126.64 126.5 126.37C124.13 124.04 121.79 121.67 119.5 119.31C119.129 118.966 118.887 118.505 118.816 118.004C118.745 117.503 118.849 116.993 119.11 116.56C119.658 115.916 120.306 115.366 121.03 114.93Z" fill="#E33C5C"/>
<path d="M127.42 20.17C127.139 20.8765 126.777 21.5477 126.34 22.17C124.06 24.53 121.747 26.8633 119.4 29.17C119.192 29.4421 118.926 29.6649 118.622 29.8222C118.318 29.9795 117.983 30.0675 117.641 30.08C117.298 30.0924 116.958 30.0289 116.643 29.8941C116.328 29.7592 116.047 29.5563 115.82 29.3C115.431 28.7785 115.239 28.1362 115.277 27.4867C115.315 26.8371 115.582 26.2221 116.03 25.75C118.39 23.52 120.62 21.15 122.93 18.88C123.233 18.4715 123.674 18.1873 124.171 18.0806C124.668 17.9738 125.186 18.0518 125.63 18.3C126.294 18.8547 126.895 19.4819 127.42 20.17Z" fill="#E33C5C"/>
<path d="M20.2699 127.53C19.5234 127.134 18.8476 126.617 18.2699 126C17.991 125.6 17.8587 125.116 17.8951 124.629C17.9315 124.143 18.1345 123.684 18.4699 123.33C20.9199 120.79 23.3999 118.33 25.9399 115.85C26.1661 115.636 26.4331 115.47 26.7251 115.361C27.0171 115.253 27.328 115.205 27.639 115.22C27.9501 115.235 28.2549 115.313 28.5352 115.448C28.8154 115.584 29.0653 115.775 29.2699 116.01C29.671 116.485 29.8783 117.093 29.8505 117.714C29.8227 118.335 29.5619 118.923 29.1199 119.36C26.8199 121.7 24.5099 124.04 22.1199 126.36C21.5448 126.812 20.9248 127.204 20.2699 127.53Z" fill="#E33C5C"/>
<path d="M28.9099 27.58C29.3099 27.45 29.9099 27.43 30.0699 27.16C30.1983 26.9395 30.2758 26.693 30.2966 26.4386C30.3173 26.1842 30.2809 25.9285 30.1899 25.69C29.5363 24.7891 28.8141 23.9399 28.0299 23.15C27.9199 23.04 27.6499 23.08 27.1299 23L28.9299 25.12C29.9599 26.34 29.9599 26.34 28.9099 27.58Z" fill="black"/>
<path d="M6.00007 76.86C4.84007 76.86 3.69004 76.86 2.53004 76.86C1.88942 76.8845 1.26489 76.6559 0.791452 76.2237C0.318018 75.7914 0.0337565 75.1902 6.97291e-05 74.55C-0.0317706 74.2394 0.00105762 73.9257 0.0965053 73.6285C0.191953 73.3312 0.347943 73.057 0.554635 72.8231C0.761327 72.5891 1.01424 72.4005 1.29743 72.2692C1.58063 72.1379 1.88792 72.0666 2.20002 72.06C4.70669 71.94 7.21672 71.94 9.73005 72.06C10.043 72.0659 10.3511 72.1376 10.6345 72.2705C10.9178 72.4033 11.17 72.5944 11.3747 72.8311C11.5794 73.0679 11.7319 73.345 11.8225 73.6446C11.913 73.9442 11.9394 74.2595 11.9 74.57C11.8613 75.2102 11.572 75.8095 11.0948 76.2381C10.6176 76.6666 9.99077 76.89 9.35005 76.86C8.23005 76.88 7.11007 76.86 6.00007 76.86Z" fill="#E33C5C"/>
<path d="M136.91 74.1501C136.9 73.8135 136.97 73.4795 137.115 73.1753C137.259 72.8711 137.473 72.6054 137.74 72.4001C138.279 72.0977 138.894 71.9587 139.51 72.0001C141.67 72.0001 143.82 72.0001 145.98 72.0001C147.7 72.0001 148.76 73.0001 148.72 74.4901C148.68 75.9801 147.61 76.8601 145.88 76.8701C143.68 76.8701 141.49 76.8701 139.3 76.8701C138.949 76.9 138.596 76.8472 138.269 76.7157C137.942 76.5843 137.651 76.378 137.418 76.1134C137.186 75.8488 137.019 75.5332 136.93 75.1922C136.842 74.8512 136.835 74.4943 136.91 74.1501Z" fill="#E33C5C"/>
<path d="M71.9899 6.03C71.9899 4.88 71.9899 3.72001 71.9899 2.57001C71.9723 2.24132 72.0215 1.91247 72.1343 1.60327C72.2472 1.29407 72.4214 1.01091 72.6466 0.770813C72.8717 0.530714 73.1431 0.338644 73.4444 0.206177C73.7457 0.0737091 74.0707 0.00357841 74.3999 0C74.72 0.0139861 75.0342 0.0916884 75.3239 0.228546C75.6137 0.365404 75.8733 0.558649 76.0874 0.797028C76.3016 1.03541 76.4661 1.31411 76.5713 1.61682C76.6764 1.91953 76.7201 2.24018 76.6999 2.56C76.7499 4.87 76.7499 7.19 76.6999 9.5C76.7132 9.8272 76.6612 10.1538 76.5467 10.4606C76.4322 10.7674 76.2576 11.0482 76.0331 11.2867C75.8086 11.5251 75.5388 11.7163 75.2395 11.8491C74.9401 11.9819 74.6173 12.0536 74.2899 12.06C73.6479 12.0187 73.0476 11.7276 72.6177 11.2491C72.1878 10.7706 71.9624 10.1427 71.9899 9.5C71.9099 8.35 71.9899 7.19 71.9899 6.03Z" fill="#E33C5C"/>
<path d="M33.3599 26.89C33.1099 25.97 29.5799 22.71 29.2899 22.39C28.0999 21.12 26.8799 19.86 25.5899 18.69C25.2795 18.3727 24.8807 18.1563 24.4454 18.0689C24.0102 17.9815 23.5588 18.0272 23.1499 18.2C22.7219 18.3129 22.3434 18.5646 22.0737 18.9157C21.8041 19.2667 21.6586 19.6973 21.6599 20.14C21.6807 20.8698 21.9407 21.5725 22.3999 22.14C24.6199 24.51 26.9399 26.79 29.2399 29.08C30.3899 30.22 31.4099 30.33 32.5399 29.52C32.9487 29.2345 33.2511 28.8212 33.3995 28.3452C33.5479 27.8691 33.534 27.3573 33.3599 26.89Z" fill="#E33C5C"/>
<path d="M43.7901 92.0601C42.3901 91.7901 40.8801 92.5901 39.7901 91.4201C39.0802 90.6507 38.5266 89.7507 38.1601 88.7701C37.3801 86.5701 36.7501 84.3101 36.1601 82.0601C36.006 81.5155 36.0478 80.9341 36.278 80.417C36.5082 79.9 36.9123 79.48 37.4201 79.2301C38.5501 78.4901 39.6401 77.7001 40.7601 76.9601C41.1542 76.6884 41.4776 76.3263 41.7032 75.9041C41.9288 75.4819 42.0501 75.0118 42.0569 74.5331C42.0638 74.0545 41.956 73.5811 41.7426 73.1526C41.5291 72.7241 41.2163 72.353 40.8301 72.0701C39.9564 71.4482 39.052 70.8708 38.1201 70.3401C37.7027 70.1754 37.3223 69.9289 37.0014 69.6153C36.6805 69.3016 36.4255 68.9269 36.2513 68.5134C36.0771 68.0998 35.9873 67.6556 35.9871 67.2068C35.9869 66.7581 36.0763 66.3138 36.2501 65.9001C37.0601 63.4501 37.9301 61.0201 38.8001 58.5901C38.9852 58.0751 39.3413 57.6393 39.8091 57.3554C40.2768 57.0714 40.8279 56.9566 41.3701 57.0301C42.8801 57.0301 44.3701 57.1201 45.9201 57.1201C47.6601 57.1201 49.2201 54.7601 48.6201 53.1201C48.1501 51.8501 47.7301 50.5601 47.2301 49.3001C46.9538 48.7824 46.8725 48.1827 47.0009 47.6101C47.1294 47.0375 47.4591 46.5301 47.9301 46.1801C50.2601 44.4001 52.6301 42.6601 55.0601 41.0301C55.5156 40.7306 56.058 40.5917 56.6013 40.6351C57.1447 40.6786 57.658 40.902 58.0601 41.2701C59.3101 42.2701 60.5801 43.2201 61.9001 44.0901C62.3719 44.3299 62.9055 44.4206 63.4301 44.3501C66.4301 44.1401 66.5901 41.6501 67.1301 39.5701C67.8201 36.8701 68.2801 36.3501 71.0801 36.2201C73.1087 36.1151 75.1415 36.1151 77.1701 36.2201C80.3901 36.4001 80.6601 36.6901 81.5001 39.7301C81.7233 40.7472 82.0105 41.7492 82.3601 42.7301C82.663 43.2075 83.0922 43.5917 83.6001 43.8401C85.4501 44.9801 86.9401 44.1901 88.3401 42.9001C88.9501 42.3401 89.6701 41.9001 90.3401 41.3701C90.7887 40.9273 91.3804 40.6589 92.009 40.6131C92.6377 40.5673 93.262 40.747 93.7701 41.1201C96.1301 42.7201 98.4501 44.3901 100.7 46.1201C101.174 46.439 101.512 46.9235 101.647 47.4785C101.782 48.0336 101.705 48.6191 101.43 49.1201C100.832 50.5081 100.327 51.9346 99.9201 53.3901C99.818 53.9049 99.8883 54.4391 100.12 54.9101C100.404 55.6765 100.966 56.3079 101.694 56.6785C102.422 57.0492 103.264 57.1319 104.05 56.9101C104.964 56.8179 105.882 56.7812 106.8 56.8001C107.494 56.6656 108.213 56.7965 108.815 57.1669C109.417 57.5372 109.858 58.1201 110.05 58.8001C110.93 61.4301 111.79 64.0601 112.59 66.7201C112.762 67.2811 112.729 67.8851 112.496 68.4238C112.263 68.9625 111.846 69.4008 111.32 69.6601C110.19 70.3901 109.08 71.1601 107.95 71.9101C107.564 72.188 107.249 72.5537 107.033 72.9771C106.816 73.4005 106.702 73.8694 106.702 74.3451C106.702 74.8208 106.816 75.2897 107.033 75.7131C107.249 76.1365 107.564 76.5022 107.95 76.7801C108.835 77.4501 109.768 78.0551 110.74 78.5901C111.158 78.7559 111.538 79.0047 111.858 79.3215C112.177 79.6383 112.429 80.0165 112.598 80.4333C112.767 80.8501 112.85 81.2969 112.842 81.7466C112.834 82.1963 112.734 82.6398 112.55 83.0501C111.77 85.4701 110.92 87.8601 110.03 90.2401C109.806 90.8274 109.383 91.3175 108.835 91.6246C108.287 91.9317 107.648 92.0363 107.03 91.9201C105.71 91.8601 104.39 91.7601 103.08 91.7401C102.609 91.7676 102.151 91.9002 101.738 92.128C101.325 92.3559 100.969 92.6732 100.694 93.0567C100.42 93.4403 100.235 93.8803 100.153 94.3447C100.071 94.809 100.094 95.2858 100.22 95.7401C100.69 97.0501 101.17 98.3601 101.63 99.6701C101.856 100.185 101.903 100.761 101.761 101.306C101.62 101.85 101.299 102.331 100.85 102.67C98.5801 104.38 96.2601 106.03 93.9101 107.67C93.4206 108.028 92.8204 108.203 92.215 108.163C91.6097 108.122 91.0379 107.87 90.6001 107.45C89.4201 106.52 88.2201 105.59 86.9601 104.77C86.4585 104.522 85.8949 104.429 85.3401 104.5C82.4101 104.69 82.2801 107.15 81.6701 109.18C81.0601 111.21 81.0501 112.53 78.0401 112.59C75.3001 112.59 72.5501 112.59 69.8101 112.46C69.3472 112.435 68.9059 112.256 68.5562 111.952C68.2066 111.648 67.9685 111.235 67.8801 110.78C67.4601 109.25 66.9701 107.78 66.4801 106.22C66.4027 105.958 66.2696 105.716 66.0901 105.51C65.4705 105.014 64.7203 104.708 63.9304 104.63C63.1404 104.552 62.3448 104.705 61.6401 105.07C60.6401 105.83 59.5801 106.56 58.6401 107.4C58.1798 107.887 57.5567 108.188 56.8892 108.245C56.2216 108.302 55.5564 108.112 55.0201 107.71C52.6601 106.12 50.3401 104.47 48.0901 102.71C47.6445 102.391 47.3292 101.922 47.2024 101.389C47.0756 100.856 47.1458 100.295 47.4001 99.8101C47.994 98.3829 48.4984 96.9201 48.9101 95.4301C49.0003 94.9486 48.9337 94.4509 48.7201 94.0101C47.7101 91.7101 45.7401 91.7201 43.7901 92.0601ZM102.28 87.0001C103.52 87.0001 104.36 87.0001 105.2 87.0001C105.49 87.0001 105.97 86.9101 106.04 86.7301C106.578 85.4237 107.042 84.0883 107.43 82.7301C107.49 82.5101 107.07 82.0601 106.77 81.8501C105.62 81.0101 104.45 80.1901 103.25 79.4201C102.811 79.1479 102.46 78.7552 102.238 78.2888C102.017 77.8225 101.934 77.3022 102 76.7901C102.09 75.2747 102.09 73.7554 102 72.2401C101.895 71.6107 101.989 70.9644 102.269 70.3909C102.548 69.8174 103 69.3452 103.56 69.0401C104.687 68.3752 105.766 67.6335 106.79 66.8201C106.988 66.6283 107.142 66.3956 107.24 66.1382C107.338 65.8808 107.379 65.605 107.36 65.3301C107.159 64.4388 106.874 63.5683 106.51 62.7301C106.423 62.4003 106.215 62.1151 105.929 61.9301C105.642 61.7452 105.297 61.6738 104.96 61.7301C103.49 61.7901 101.96 61.7301 100.53 61.8001C100.07 61.8233 99.6127 61.7245 99.2036 61.5137C98.7944 61.303 98.4481 60.9878 98.2001 60.6001C97.2001 59.2401 96.2501 57.8001 95.2001 56.5001C94.8647 56.1037 94.6415 55.6249 94.5536 55.1132C94.4657 54.6015 94.5162 54.0756 94.7001 53.5901C94.9501 52.7601 95.3101 51.9601 95.6201 51.1401C96.6201 48.4501 96.3701 48.5701 94.5101 47.2301C94.1294 46.8808 93.6935 46.5969 93.2201 46.3901C92.7049 46.2142 92.1432 46.232 91.6401 46.4401C90.4248 47.1915 89.2682 48.0339 88.1801 48.9601C87.7331 49.3204 87.1922 49.5449 86.6214 49.607C86.0506 49.669 85.474 49.566 84.9601 49.3101C83.6401 48.8601 82.3201 48.4401 80.9601 48.1001C80.3444 48.0243 79.7655 47.7656 79.2985 47.3573C78.8314 46.9491 78.4975 46.4101 78.3401 45.8101C78.0701 44.7001 77.5601 43.6301 77.3401 42.5101C77.3288 42.2664 77.2665 42.0279 77.1572 41.81C77.0478 41.592 76.8938 41.3994 76.7053 41.2448C76.5167 41.0901 76.2977 40.9769 76.0625 40.9123C75.8273 40.8478 75.5812 40.8334 75.3401 40.8701C71.3401 40.9601 72.0101 40.2501 70.7701 44.3901C70.3201 45.9201 70.0801 47.6201 68.0401 48.0801C66.5401 48.4201 65.0901 49.0001 63.6201 49.4601C63.1088 49.6887 62.5436 49.7696 61.9887 49.6936C61.4338 49.6176 60.9112 49.3877 60.4801 49.0301C59.4201 48.1401 58.2501 47.3901 57.1501 46.5401C56.902 46.3 56.5703 46.1657 56.2251 46.1657C55.8799 46.1657 55.5482 46.3 55.3001 46.5401C54.3001 47.3901 52.7101 47.7001 52.4601 49.3301C52.4719 49.4906 52.5161 49.6471 52.5901 49.7901L54.0601 53.7901C54.2471 54.1896 54.3163 54.6342 54.2596 55.0716C54.203 55.5091 54.0228 55.9214 53.7401 56.2601C52.9586 57.0395 52.2859 57.9208 51.7401 58.8801C50.5401 61.5901 48.4801 62.0001 45.8101 61.8201C42.5101 61.6001 42.8101 61.2101 41.5801 64.7601C41.4618 64.9881 41.391 65.2377 41.3719 65.4939C41.3528 65.75 41.3858 66.0074 41.469 66.2504C41.5522 66.4934 41.6838 66.7171 41.8559 66.9078C42.028 67.0985 42.2369 67.2524 42.4701 67.3601C43.5401 68.0301 44.5701 68.7701 45.6401 69.4501C46.0623 69.7141 46.3999 70.0938 46.6127 70.5441C46.8254 70.9943 46.9043 71.4962 46.8401 71.9901C46.7601 73.5857 46.7601 75.1844 46.8401 76.7801C46.9026 77.3542 46.7982 77.9342 46.5392 78.4504C46.2802 78.9666 45.8777 79.397 45.3801 79.6901C44.231 80.3877 43.1195 81.1454 42.0501 81.9601C41.8495 82.1538 41.6915 82.3873 41.5865 82.6456C41.4814 82.9039 41.4316 83.1813 41.4401 83.4601C41.6416 84.3514 41.9262 85.2219 42.2901 86.0601C42.3968 86.403 42.6261 86.6945 42.9341 86.879C43.2422 87.0635 43.6075 87.1279 43.9601 87.0601C45.3901 86.9801 46.8301 86.9801 48.2701 86.9401C48.7493 86.931 49.2224 87.0481 49.642 87.2798C50.0615 87.5115 50.4126 87.8496 50.6601 88.2601C51.5901 89.5401 52.4901 90.8401 53.5101 92.0501C53.9301 92.5041 54.2042 93.0737 54.2969 93.6852C54.3896 94.2967 54.2966 94.922 54.0301 95.4801C53.6301 96.4801 53.2801 97.4801 52.8901 98.4801C52.7672 98.7065 52.6909 98.9553 52.6657 99.2117C52.6405 99.4681 52.6669 99.727 52.7433 99.973C52.8198 100.219 52.9447 100.447 53.1107 100.644C53.2768 100.841 53.4805 101.003 53.7101 101.12C54.2687 101.611 54.8712 102.05 55.5101 102.43C55.7794 102.535 56.0674 102.584 56.3563 102.574C56.6452 102.563 56.929 102.494 57.1901 102.37C58.4209 101.567 59.6029 100.693 60.7301 99.7501C61.1251 99.4473 61.5937 99.2552 62.0876 99.1937C62.5815 99.1321 63.0829 99.2034 63.5401 99.4001C64.9401 99.8401 66.3201 100.35 67.7301 100.72C68.4048 100.808 69.0351 101.105 69.532 101.569C70.029 102.034 70.3676 102.643 70.5001 103.31C70.7001 104.31 71.2201 105.26 71.4001 106.31C71.4046 106.558 71.4619 106.803 71.5682 107.027C71.6744 107.251 71.8273 107.451 72.0164 107.611C72.2056 107.772 72.4268 107.891 72.6653 107.96C72.9039 108.028 73.1544 108.046 73.4001 108.01C77.5901 107.91 76.7701 108.53 78.0101 104.54C78.4601 103.08 78.5801 101.36 80.6101 100.89C82.2601 100.5 83.8201 99.7101 85.4701 99.3701C86.3871 99.2905 87.3093 99.4454 88.1501 99.8201C88.7532 100.121 89.309 100.508 89.8001 100.97C92.8001 103.21 92.8001 103.22 95.6501 100.77C95.6501 100.77 95.7401 100.77 95.7501 100.72C95.8901 100.15 96.2601 99.5301 96.1301 99.0301C95.7585 97.6907 95.2975 96.3777 94.7501 95.1001C94.548 94.6887 94.4705 94.2271 94.5274 93.7722C94.5843 93.3174 94.7729 92.8891 95.0701 92.5401C95.8811 91.7209 96.5958 90.8117 97.2001 89.8301C98.3501 87.4301 100.05 86.3501 102.28 87.0001Z" fill="#E33C5C"/>
<path d="M74.3601 86.4301C77.3991 86.4379 80.3279 85.2924 82.5552 83.2247C84.7825 81.1571 86.1423 78.3213 86.3601 75.2901C86.3601 75.0501 86.3601 74.8101 86.3601 74.5701C86.5201 73.0101 87.54 71.9501 88.82 72.0301C90.1 72.1101 91.1301 73.2101 91.0901 74.8801C91.0438 78.7377 89.6258 82.4527 87.0901 85.3601C85.539 87.2145 83.5991 88.7051 81.4079 89.7264C79.2166 90.7477 76.8276 91.2747 74.4101 91.2701C70.7231 91.2857 67.1336 90.0864 64.1964 87.8578C61.2592 85.6291 59.1378 82.4951 58.1601 78.9401C57.057 74.9337 57.4779 70.6607 59.3415 66.9466C61.205 63.2324 64.379 60.3407 68.2501 58.8301C70.4748 57.9348 72.8687 57.538 75.2633 57.6675C77.6579 57.7971 79.995 58.45 82.1101 59.5801C83.9401 60.5201 84.11 61.8401 83.63 63.0801C83.15 64.3201 81.5201 64.7001 80.0201 63.8901C77.4696 62.5138 74.5073 62.107 71.6802 62.7448C68.8532 63.3826 66.3525 65.022 64.6401 67.3601C63.5548 68.8477 62.8265 70.565 62.5114 72.3793C62.1963 74.1935 62.303 76.0559 62.8232 77.8223C63.3433 79.5886 64.263 81.2116 65.511 82.5656C66.759 83.9195 68.3018 84.9681 70.0201 85.6301C70.6419 85.8892 71.2842 86.0965 71.9401 86.2501C72.7601 86.3601 73.5701 86.3401 74.3601 86.4301Z" fill="#E33C5C"/>
</g>
<defs>
<clipPath id="clip0_360_121">
<rect width="148.71" height="170.42" fill="white"/>
</clipPath>
</defs>
</svg>
