<svg width="70" height="62" viewBox="0 0 70 62" fill="none" xmlns="http://www.w3.org/2000/svg">
<path d="M70 0.073286C69.5294 0.778465 69.1378 1.53007 68.714 2.26346C61.2257 15.303 53.7386 28.3437 46.2526 41.3856C42.5699 47.8004 38.8871 54.2156 35.2043 60.6312C35.1371 60.7487 35.0675 60.8662 34.9705 61.0255C34.8939 60.8985 34.8349 60.8045 34.7793 60.7076L8.60483 15.1112C5.7728 10.1773 2.94155 5.24284 0.111081 0.307761C0.0596396 0.217851 -0.0280453 0.137343 0.00878236 0.0139364H13.9606C14.6812 1.27582 15.4021 2.5375 16.1235 3.79899C17.3078 5.8632 18.4933 7.92683 19.68 9.98987C20.7533 11.859 21.825 13.7289 22.8951 15.5996C24.0752 17.6548 25.2564 19.7096 26.4388 21.764C27.5689 23.7342 28.6991 25.7054 29.8292 27.6775L33.2373 33.6163C33.7663 34.5389 34.2977 35.4598 34.8214 36.3847C34.9348 36.5845 35.0126 36.584 35.1207 36.3847C35.2961 36.0586 35.4837 35.7383 35.6679 35.4169C36.798 33.4455 37.9292 31.4745 39.0613 29.504C40.2468 27.4401 41.4325 25.3765 42.6184 23.3131C43.6916 21.4436 44.7633 19.5739 45.8335 17.7039C47.0135 15.6484 48.1945 13.5933 49.3765 11.5389C50.5067 9.56872 51.6369 7.59755 52.767 5.6254C53.8399 3.7555 54.9116 1.8854 55.9821 0.0151092C60.5643 0.0151092 65.1468 0.0162844 69.7294 0.018635C69.8212 0.018635 69.9381 -0.0489451 70 0.073286Z" fill="#E43C5C"/>
<path d="M55.9903 0.0148447C54.9182 1.88475 53.8465 3.75484 52.7751 5.62514C51.645 7.5969 50.5148 9.56807 49.3847 11.5387C48.2042 13.5943 47.0232 15.6493 45.8416 17.7037C44.7684 19.5728 43.6967 21.4425 42.6265 23.3128C41.4418 25.3766 40.2561 27.4403 39.0694 29.5037C37.9393 31.4739 36.8081 33.4449 35.676 35.4166C35.4919 35.7381 35.3048 36.0583 35.1289 36.3845C35.0207 36.5849 34.943 36.5855 34.8296 36.3845C34.3034 35.4595 33.7773 34.5387 33.2454 33.6161L29.8374 27.6773C28.7072 25.7063 27.5771 23.7351 26.4469 21.7638C25.2665 19.7082 24.0852 17.6533 22.9032 15.5993C21.83 13.7298 20.7583 11.8599 19.6881 9.98961C18.5034 7.92578 17.3179 5.86215 16.1316 3.79872C15.4087 2.53802 14.6878 1.27633 13.9688 0.0136719H26.9198C26.8993 0.0918293 26.959 0.141777 26.9911 0.198191C29.6131 4.76815 32.2374 9.33693 34.8641 13.9045C34.8945 13.9574 34.9032 14.0403 35.0067 14.042C35.0435 13.9833 35.0833 13.9157 35.1236 13.8499C37.6158 9.51068 40.1066 5.17108 42.5961 0.831091C42.7498 0.563123 42.9322 0.309845 43.0363 0.0148447H55.9903Z" fill="#F45D81"/>
</svg>
