<svg width="73" height="73" viewBox="0 0 73 73" fill="none" xmlns="http://www.w3.org/2000/svg">
<path d="M37.1747 38.9023V48.1667H61.6929C63.0357 48.1667 63.3214 48.4457 63.3233 49.767C63.3233 51.9433 63.3233 54.1183 63.3233 56.292V57.1657H64.1648C66.3218 57.1657 68.4788 57.1657 70.6378 57.1657C71.5414 57.1657 71.9981 57.5881 71.9981 58.4909C72.0097 62.5748 72.0097 66.6594 71.9981 70.7447C71.9981 71.6301 71.6288 71.9885 70.7563 71.9904C64.797 71.9982 58.8331 71.9982 52.8646 71.9904C51.9552 71.9904 51.584 71.6146 51.5821 70.7059C51.5743 65.7269 51.5743 60.7479 51.5821 55.7689C51.5821 54.8312 51.9707 54.4496 52.9113 54.4418C54.7282 54.4263 56.5471 54.4205 58.3641 54.4418C58.7216 54.4689 59.0684 54.5762 59.3785 54.7557C59.909 55.0346 60.4045 55.3776 60.9953 55.7418V50.3269H10.9542V54.5464C10.9542 55.054 10.9542 55.5616 10.9542 56.0692C10.9542 56.8674 11.2515 57.1502 12.1202 57.1522C14.3743 57.1522 16.6305 57.1522 18.8847 57.1522C20.1206 57.1522 20.4237 57.4544 20.4257 58.6904C20.4257 62.6065 20.4257 66.5219 20.4257 70.4366C20.4257 71.6766 20.1245 71.9865 18.8885 71.9865C13.0937 71.9865 7.29956 71.9865 1.50603 71.9865C0.299263 71.9865 0.00194327 71.694 0 70.4889C0 65.6778 0 60.868 0 56.0595C0 54.8661 0.318698 54.5581 1.50798 54.5561C3.20445 54.5561 4.90285 54.5077 6.59738 54.5794C7.26004 54.6065 7.91299 54.901 8.63006 55.0889C8.65186 54.9374 8.66483 54.7847 8.66891 54.6317C8.66891 52.9636 8.66891 51.2955 8.66891 49.6275C8.66891 48.4844 8.99928 48.157 10.1361 48.157H34.8156V38.8577C33.6146 38.7337 32.4137 38.6446 31.2225 38.4857C23.669 37.4744 17.1143 34.301 11.4575 29.2716C9.97673 27.9562 8.64559 26.4741 7.27947 25.0366C6.69649 24.4166 6.70817 23.8529 7.2484 23.231C12.8042 16.8202 19.559 12.2481 27.9131 10.3785C39.0325 7.89096 49.1414 10.3127 58.2378 17.0818C60.6012 18.86 62.7591 20.8944 64.6719 23.1477C65.2879 23.8664 65.3074 24.3682 64.6953 25.0656C58.6828 31.9161 51.3528 36.5542 42.2972 38.2513C40.6396 38.5729 38.9431 38.6872 37.1747 38.9023ZM23.6962 24.1783C23.7048 27.4174 24.9959 30.5221 27.2885 32.8172C29.5811 35.1122 32.6899 36.4121 35.9388 36.4341C39.2014 36.4428 42.3342 35.1615 44.6507 32.871C46.9671 30.5805 48.278 27.4677 48.296 24.2151C48.3271 17.477 42.7791 11.9226 36.0107 11.9168C32.7478 11.9224 29.62 13.2166 27.312 15.5161C25.004 17.8156 23.7039 20.9331 23.6962 24.1861V24.1783ZM18.2201 69.7314V59.3898C16.8598 59.3898 15.5539 59.2852 14.2636 59.4131C11.9589 59.6417 9.92037 59.1283 8.12868 57.6559C7.26393 56.9429 6.27287 56.7221 5.15549 56.8093C4.20718 56.8848 3.2472 56.8248 2.3086 56.8248V69.7314H18.2201ZM69.4543 69.7314V59.3898C68.4613 59.3898 67.5111 59.291 66.5841 59.4092C63.6692 59.7773 61.1041 59.0372 58.8343 57.1967C58.6401 57.014 58.3948 56.8944 58.1309 56.8538C56.6871 56.8209 55.2432 56.8383 53.7761 56.8383V69.7314H69.4543ZM45.5211 35.2794C52.307 33.1096 57.8336 29.3336 62.5227 24.19C57.8861 18.9591 52.3458 15.2142 45.5288 13.1005C47.1001 14.4925 48.3576 16.2006 49.2185 18.1124C50.0794 20.0242 50.5241 22.0961 50.5234 24.1917C50.5227 26.2873 50.0765 28.3589 49.2142 30.2701C48.352 32.1812 47.0933 33.8885 45.5211 35.2794ZM26.3371 35.1709C23.1832 32.1389 21.442 28.518 21.4517 24.1415C21.4517 19.796 23.2201 16.1983 26.3371 13.1993C19.6639 15.2684 14.112 18.9785 9.47732 24.188C14.1625 29.3375 19.6659 33.1444 26.3371 35.1709Z" fill="#E43B5C"/>
<path d="M36.1446 71.9979C33.2375 71.9979 30.3304 71.9979 27.4232 71.9979C26.2767 71.9979 25.958 71.6743 25.958 70.5332C25.958 65.704 25.958 60.8735 25.958 56.0418C25.958 54.8987 26.2845 54.5694 27.4174 54.5674C29.1372 54.5674 30.857 54.5423 32.5768 54.5849C33.0257 54.6187 33.4629 54.744 33.8613 54.953C34.3669 55.1868 34.8441 55.4774 35.2837 55.819C36.7179 56.9678 38.3211 57.334 40.1419 57.1926C41.6829 57.0705 43.2395 57.1635 44.7902 57.1674C45.8552 57.1674 46.3643 57.6556 46.3662 58.696C46.3662 62.6585 46.3662 66.6198 46.3662 70.5797C46.3662 71.6821 46.0456 71.994 44.934 71.9959C42.0062 72.0024 39.0764 72.003 36.1446 71.9979ZM28.0256 69.735H43.735V59.3895C42.7381 59.3895 41.7918 59.2907 40.8571 59.4089C39.4805 59.6081 38.0771 59.5137 36.7398 59.1319C35.4026 58.7502 34.1618 58.0899 33.0995 57.1945C32.9049 57.0127 32.6597 56.8938 32.3961 56.8535C30.9503 56.8225 29.5045 56.838 28.0256 56.838V69.735Z" fill="#E43B5C"/>
<path d="M42.9826 1.36208C42.7708 2.7376 42.561 4.24099 42.2967 5.7347C42.2725 5.89038 42.2173 6.03965 42.1342 6.17368C42.0512 6.3077 41.942 6.42375 41.8132 6.51497C41.6844 6.60619 41.5385 6.67072 41.3842 6.70475C41.23 6.73877 41.0704 6.7416 40.915 6.71306C40.3437 6.61038 39.9861 6.09505 40.0833 5.39372C40.288 3.91358 40.5134 2.43667 40.7596 0.962983C40.882 0.228724 41.325 -0.071558 42.0401 0.0156231C42.6717 0.0834307 43.0157 0.532888 42.9826 1.36208Z" fill="#E43B5C"/>
<path d="M30.2707 0.0175781C30.5508 0.0432365 30.8134 0.164725 31.0138 0.361417C31.2143 0.558109 31.3404 0.817891 31.3706 1.09669C31.6018 2.52646 31.8311 3.95623 32.0313 5.38794C32.0593 5.69112 31.9746 5.994 31.7934 6.23903C31.6121 6.48405 31.3468 6.65413 31.048 6.71697C30.4009 6.80802 29.882 6.42055 29.781 5.72116C29.5672 4.33983 29.3535 2.95655 29.1708 1.5694C29.0562 0.705342 29.5148 0.0388891 30.2707 0.0175781Z" fill="#E43B5C"/>
<path d="M51.0999 9.62476C50.9196 9.62236 50.7426 9.5757 50.5847 9.48892C50.4267 9.40213 50.2926 9.27789 50.1942 9.12717C50.0959 8.97644 50.0363 8.80389 50.0207 8.62475C50.0051 8.44561 50.0341 8.2654 50.105 8.10006C50.6737 6.76974 51.2515 5.4433 51.8383 4.12073C52.1629 3.39035 52.7769 3.11524 53.4046 3.39034C53.9682 3.63832 54.1722 4.28928 53.8691 5.00223C53.323 6.28863 52.7498 7.56535 52.1998 8.84982C51.988 9.34578 51.6674 9.63638 51.0999 9.62476Z" fill="#E43B5C"/>
<path d="M19.3509 3.23535C19.5239 3.39034 19.9475 3.60538 20.1127 3.94442C20.7404 5.24632 21.302 6.57923 21.8616 7.91601C22.1376 8.58439 21.8811 9.22178 21.3214 9.44071C20.7268 9.67319 20.1302 9.44071 19.8348 8.78782C19.2421 7.4956 18.6552 6.20144 18.1034 4.88985C17.7477 4.05872 18.2763 3.24116 19.3509 3.23535Z" fill="#E43B5C"/>
<path d="M60.5699 14.9737C60.2162 14.7122 59.7809 14.5397 59.6235 14.2298C59.4661 13.9198 59.4291 13.3541 59.6235 13.1022C60.4008 12.0541 61.2558 11.0622 62.1303 10.0954C62.2243 9.98285 62.3411 9.89136 62.473 9.82696C62.6049 9.76257 62.749 9.72672 62.8959 9.72178C63.0427 9.71684 63.1888 9.74292 63.3248 9.7983C63.4608 9.85368 63.5836 9.93711 63.6849 10.0431C64.1474 10.4829 64.1882 11.0564 63.7451 11.593C62.9678 12.5462 62.1718 13.4877 61.3569 14.4177C61.1781 14.6288 60.9022 14.7451 60.5699 14.9737Z" fill="#E43B5C"/>
<path d="M12.5496 13.7767C12.3106 14.0634 12.1027 14.5303 11.7723 14.6504C11.442 14.7705 10.824 14.6834 10.6064 14.4412C9.71103 13.4569 8.8734 12.4219 8.09762 11.3414C7.72452 10.83 8.01211 10.3107 8.45323 9.93877C8.89435 9.56679 9.5201 9.65204 9.94567 10.1538C10.7424 11.0934 11.5003 12.066 12.264 13.0366C12.3825 13.2032 12.4136 13.4338 12.5496 13.7767Z" fill="#E43B5C"/>
<path d="M29.6935 24.2093C29.6886 23.3808 29.848 22.5596 30.1624 21.7927C30.4769 21.0259 30.9402 20.3285 31.5258 19.7408C32.1114 19.153 32.8078 18.6863 33.5748 18.3677C34.3419 18.049 35.1645 17.8845 35.9955 17.8838C36.8264 17.883 37.6494 18.046 38.4169 18.3635C39.1844 18.6809 39.8815 19.1465 40.4679 19.7334C41.0543 20.3204 41.5185 21.0172 41.8338 21.7836C42.1491 22.5501 42.3094 23.3712 42.3053 24.1996C42.3068 25.8604 41.6486 27.4542 40.4745 28.6323C39.3003 29.8105 37.706 30.4771 36.0402 30.4863C35.2092 30.4924 34.3853 30.3346 33.6158 30.022C32.8463 29.7093 32.1465 29.248 31.5566 28.6646C30.9666 28.0811 30.4983 27.3871 30.1786 26.6225C29.8588 25.8578 29.694 25.0377 29.6935 24.2093ZM35.9702 20.1544C35.4363 20.1541 34.9077 20.2594 34.4149 20.4644C33.9222 20.6693 33.4751 20.9696 33.0997 21.3481C32.7243 21.7265 32.4279 22.1755 32.2278 22.669C32.0277 23.1624 31.9279 23.6906 31.934 24.2228C31.9366 24.7547 32.0447 25.2807 32.2521 25.7707C32.4595 26.2607 32.7622 26.7049 33.1426 27.0777C33.5231 27.4505 33.9738 27.7445 34.4687 27.9428C34.9637 28.1411 35.4932 28.2398 36.0266 28.2332C36.5602 28.2322 37.0883 28.1259 37.5806 27.9206C38.0729 27.7152 38.5195 27.4149 38.8948 27.0367C39.2702 26.6585 39.5668 26.2101 39.7675 25.7172C39.9683 25.2243 40.0693 24.6967 40.0647 24.1647C40.0629 23.6325 39.9553 23.1059 39.748 22.6155C39.5408 22.125 39.238 21.6804 38.8572 21.3074C38.4764 20.9344 38.0251 20.6405 37.5295 20.4426C37.034 20.2446 36.504 20.1467 35.9702 20.1544Z" fill="#E43B5C"/>
<path d="M15.0657 63.1191C16.0023 63.1191 16.4998 63.5299 16.4746 64.2816C16.4512 64.9984 15.9712 65.3645 15.0599 65.3645C14.1485 65.3645 13.6763 65.0003 13.6568 64.2757C13.6374 63.5124 14.1174 63.1191 15.0657 63.1191Z" fill="#E43B5C"/>
<path d="M10.2861 63.121C11.18 63.1307 11.6211 63.522 11.5997 64.2834C11.5783 65.0448 11.1178 65.3838 10.1287 65.3625C9.24641 65.3451 8.76837 64.9305 8.80141 64.2001C8.83445 63.4697 9.30472 63.1074 10.2861 63.121Z" fill="#E43B5C"/>
<path d="M5.49571 65.3724C4.54157 65.3724 4.06547 65.0024 4.06936 64.2448C4.07325 63.4873 4.5338 63.1328 5.42965 63.1309C6.32549 63.1289 6.87543 63.5474 6.87737 64.2681C6.87931 64.9888 6.38961 65.3569 5.49571 65.3724Z" fill="#E43B5C"/>
<path d="M66.493 65.3724C65.5952 65.3724 65.1152 64.9734 65.1152 64.2527C65.1152 63.532 65.6108 63.1251 66.561 63.1309C67.4666 63.1309 67.9213 63.5184 67.9213 64.2488C67.9213 64.9792 67.4491 65.3724 66.493 65.3724Z" fill="#E43B5C"/>
<path d="M56.914 63.1191C57.8177 63.1191 58.3521 63.5454 58.3463 64.268C58.3404 64.9906 57.8604 65.3607 56.9568 65.3626C56.0182 65.3626 55.5169 64.9654 55.5285 64.2254C55.5402 63.4853 56.0104 63.123 56.914 63.1191Z" fill="#E43B5C"/>
<path d="M61.7585 62.9565C62.1472 63.222 62.6369 63.4176 62.8973 63.776C63.0722 64.0143 63.0197 64.5258 62.8973 64.8455C62.6933 65.3569 61.6109 65.5604 60.9288 65.2756C60.3769 65.0431 60.2234 64.5781 60.3011 64.024C60.3827 63.406 60.8219 63.1193 61.7585 62.9565Z" fill="#E43B5C"/>
<path d="M40.6976 65.3722C39.827 65.3509 39.3373 64.9169 39.3839 64.1904C39.4306 63.4639 39.9319 63.0958 40.9638 63.1307C41.7819 63.1578 42.2405 63.5937 42.2036 64.3105C42.1667 65.0274 41.6692 65.3858 40.6976 65.3722Z" fill="#E43B5C"/>
<path d="M31.1561 63.1191C32.0636 63.1191 32.6058 63.5337 32.6136 64.2506C32.6214 64.9674 32.1278 65.3549 31.2339 65.3626C30.2875 65.3626 29.792 64.9868 29.79 64.2428C29.7881 63.4989 30.2661 63.125 31.1561 63.1191Z" fill="#E43B5C"/>
<path d="M35.8945 65.3721C34.9714 65.3605 34.5342 64.9847 34.5342 64.2349C34.5342 63.4851 35.0219 63.1112 35.9936 63.1306C36.8214 63.1461 37.3442 63.6169 37.3228 64.3279C37.3014 65.0389 36.8506 65.3721 35.8945 65.3721Z" fill="#E43B5C"/>
</svg>
