<svg width="88" height="97" viewBox="0 0 88 97" fill="none" xmlns="http://www.w3.org/2000/svg">
<path d="M12.805 82.9882V83.3694C12.805 85.0968 12.805 86.824 12.805 88.551C12.805 92.391 15.4415 95.5246 19.249 96.1978C19.6432 96.2647 20.0425 96.2973 20.4425 96.2954C36.4907 96.3005 52.5385 96.3015 68.586 96.2981C72.5163 96.2981 75.9354 93.1557 76.1442 89.2691C76.2497 87.307 76.1804 85.3349 76.1905 83.3694C76.1905 83.2586 76.1905 83.1478 76.1905 82.991H82.3621C83.8504 82.9951 85.2797 82.4132 86.3365 81.373C87.3934 80.3327 87.9916 78.9189 88 77.4415C88 77.2386 88 77.0353 88 76.8319V6.39669C88 3.19831 85.5494 0.737471 82.3291 0.704224C82.0969 0.704224 81.8641 0.704224 81.6314 0.704224H6.83103C4.70983 0.704224 3.03519 1.55426 1.86295 3.32412C1.2718 4.21791 0.995506 5.21588 0.995506 6.28754C0.995506 10.3053 0.995506 14.323 0.995506 18.3407C0.995506 38.0305 0.995506 57.7213 0.995506 77.4132C0.995575 78.1472 1.14159 78.874 1.42519 79.5518C1.70879 80.2297 2.1244 80.8453 2.64819 81.3634C3.17197 81.8815 3.79362 82.2918 4.4775 82.571C5.16138 82.8501 5.89403 82.9924 6.63344 82.9899C8.56857 82.9876 10.5037 82.9876 12.4388 82.9899L12.805 82.9882ZM3.17978 19.9039H85.8146V20.1998C85.8146 39.2541 85.8146 58.3085 85.8146 77.3628C85.8146 79.3138 84.2924 80.8177 82.3241 80.8188C80.389 80.8188 78.4538 80.8188 76.5187 80.8188H76.1905V80.4592C76.1905 77.5597 76.1905 74.6598 76.1905 71.7595C76.186 67.4928 72.7513 64.0872 68.4498 64.0866H51.9563V47.6193C52.5363 47.6193 53.0939 47.6254 53.651 47.6193C54.84 47.6043 55.8459 47.1594 56.6442 46.2894C58.4622 44.309 58.5002 41.1317 56.7329 39.1047C53.774 35.7113 50.8116 32.3208 47.8456 28.9333C45.9957 26.8132 43.0255 26.8071 41.1711 28.9277C38.2312 32.2894 35.2913 35.6511 32.3514 39.0127C31.0116 40.5421 30.6683 42.2959 31.2115 44.2131C31.643 45.7347 32.5601 46.8729 34.1108 47.4187C34.7561 47.6465 35.4276 47.6293 36.0975 47.6237C36.4101 47.6237 36.7227 47.6237 37.0465 47.6237V64.0861H20.4888C19.2965 64.0861 18.1505 64.3249 17.0993 64.8796C14.3083 66.3519 12.8463 68.6692 12.8089 71.8138C12.7743 74.6952 12.8017 77.5767 12.8017 80.4581V80.8066C12.6861 80.8122 12.6219 80.8177 12.5577 80.8177C10.5482 80.8177 8.5386 80.8177 6.52905 80.8177C6.42671 80.8176 6.32451 80.8106 6.22314 80.7966C4.38105 80.5418 3.17699 79.1343 3.17699 77.2215C3.17699 58.2336 3.17699 39.244 3.17699 20.2525L3.17978 19.9039ZM44.4969 94.1348C36.5524 94.1348 28.6072 94.1348 20.6613 94.1348C20.3917 94.1402 20.122 94.1278 19.8541 94.0977C17.0033 93.7176 14.991 91.4346 14.9899 88.5798C14.9899 82.9736 14.9899 77.3676 14.9899 71.7617C14.9889 71.4848 15.0098 71.2082 15.0524 70.9344C15.4917 68.1893 17.7742 66.2588 20.5787 66.2582C30.83 66.2582 41.0825 66.2582 51.3361 66.2582C57.0388 66.2582 62.7413 66.2593 68.4436 66.2615C68.7599 66.2596 69.0757 66.285 69.3876 66.3375C72.1055 66.8112 73.9956 69.0471 73.9978 71.7905C74.0012 77.4149 74.0012 83.0392 73.9978 88.6635C74.0003 88.9219 73.9826 89.1802 73.9448 89.4359C73.5049 92.2159 71.2324 94.1365 68.3889 94.1365L44.4969 94.1348ZM3.17978 17.6941V17.3516C3.17978 16.1422 3.17978 14.9324 3.17978 13.7222C3.17978 11.2652 3.17252 8.80878 3.17978 6.35237C3.18703 4.39079 4.68695 2.88137 6.62562 2.88082C31.8746 2.88082 57.1235 2.88082 82.3721 2.88082C82.8247 2.87928 83.2732 2.96675 83.6916 3.13818C84.11 3.30962 84.49 3.56162 84.8098 3.87964C85.1295 4.19767 85.3827 4.57541 85.5546 4.99107C85.7264 5.40673 85.8137 5.85209 85.8113 6.3014C85.8146 9.99553 85.8146 13.6897 85.8113 17.3838V17.6941H3.17978ZM39.2497 64.0766V63.701C39.2497 58.0212 39.2497 52.3417 39.2497 46.6623C39.2497 45.8893 38.8171 45.4577 38.044 45.4571C37.1883 45.4571 36.3325 45.4544 35.4762 45.4571C34.8181 45.4599 34.2867 45.2034 33.8708 44.703C32.9062 43.5393 32.9285 41.6697 33.9199 40.5327C34.2057 40.2046 34.4923 39.877 34.7796 39.5497L42.882 30.2809C43.2091 29.9063 43.6077 29.6459 44.1023 29.5561C44.9535 29.4015 45.6262 29.7085 46.1805 30.3435C49.1353 33.7281 52.0919 37.1108 55.0505 40.4917C56.0435 41.6271 56.1139 43.4174 55.2073 44.6221C54.7892 45.1762 54.2383 45.4643 53.5327 45.4582C52.7049 45.451 51.877 45.4582 51.0492 45.4582C50.1561 45.4582 49.7508 45.8567 49.7508 46.7383V64.0778L39.2497 64.0766Z" fill="#004999"/>
<path d="M19.7699 27.0171C23.2498 27.0171 26.7293 27.0171 30.2084 27.0171C31.0251 27.0171 31.5565 26.3522 31.3338 25.6202C31.2709 25.4106 31.1451 25.225 30.9733 25.0881C30.8015 24.9512 30.5917 24.8695 30.372 24.8538C30.2983 24.8483 30.2235 24.85 30.1487 24.85H9.41116C8.72623 24.85 8.28581 25.1907 8.19483 25.7864C8.1735 25.9306 8.18196 26.0776 8.21968 26.2185C8.25741 26.3594 8.3236 26.4911 8.41426 26.6058C8.50491 26.7205 8.61812 26.8156 8.74699 26.8855C8.87586 26.9553 9.01769 26.9984 9.16387 27.0121C9.26547 27.021 9.36818 27.0171 9.47033 27.0171H19.7699Z" fill="#E33C5C"/>
<path d="M19.7811 32.394C23.2699 32.394 26.7588 32.394 30.2476 32.394C30.688 32.394 31.0246 32.2183 31.2401 31.8398C31.4556 31.4614 31.4338 31.094 31.2127 30.7316C31.0196 30.418 30.7254 30.2578 30.3603 30.2251C30.2588 30.2163 30.1555 30.2196 30.0533 30.2196H9.51115C9.41793 30.2196 9.32471 30.2196 9.23205 30.2229C8.61802 30.2623 8.15973 30.7499 8.17871 31.3351C8.19769 31.9329 8.6649 32.3846 9.28619 32.3879C11.5935 32.3919 13.9007 32.3919 16.208 32.3879L19.7811 32.394Z" fill="#E33C5C"/>
<path d="M69.2572 27.0172C72.7278 27.0172 76.198 27.0172 79.6679 27.0172C80.1853 27.0172 80.566 26.7689 80.7407 26.3284C80.9049 25.9139 80.8133 25.4141 80.4533 25.1459C80.2359 24.9946 79.9851 24.8974 79.722 24.8622C79.3943 24.8146 79.0522 24.8506 78.7172 24.8506C72.1214 24.8506 65.5254 24.8506 58.9292 24.8506C58.7807 24.8449 58.6321 24.8539 58.4854 24.8777C58.2176 24.93 57.9796 25.0809 57.8191 25.3001C57.6586 25.5193 57.5876 25.7906 57.6202 26.0597C57.6476 26.3199 57.7706 26.5611 57.9657 26.7371C58.1608 26.9131 58.4144 27.0116 58.678 27.0139C59.6638 27.0233 60.6502 27.0172 61.6365 27.0172H69.2572Z" fill="#E33C5C"/>
<path d="M69.2289 32.3939C72.7088 32.3939 76.1883 32.3939 79.6675 32.3939C80.2787 32.3939 80.7219 32.0282 80.8017 31.4669C80.8236 31.3202 80.8148 31.1706 80.7758 31.0274C80.7369 30.8843 80.6686 30.7507 80.5752 30.6349C80.4819 30.5191 80.3654 30.4237 80.2333 30.3546C80.1011 30.2856 79.956 30.2443 79.807 30.2334C79.7149 30.2245 79.6211 30.2268 79.5279 30.2268C72.6623 30.2268 65.7963 30.2268 58.9299 30.2268C58.7629 30.2215 58.596 30.2362 58.4325 30.2705C58.1766 30.3325 57.9524 30.4857 57.8027 30.7009C57.653 30.9161 57.5881 31.1785 57.6203 31.4381C57.6473 31.6983 57.7703 31.9395 57.9655 32.1152C58.1608 32.2909 58.4146 32.3888 58.6781 32.39C60.1016 32.3972 61.525 32.3928 62.9485 32.3928L69.2289 32.3939Z" fill="#E33C5C"/>
<path d="M72.4587 37.7781C74.8493 37.7781 77.2401 37.7781 79.6311 37.7781C80.378 37.7781 80.8837 37.2545 80.8067 36.579C80.7805 36.319 80.6598 36.0773 80.4672 35.8992C80.2746 35.721 80.0232 35.6186 79.7601 35.611C79.6211 35.6054 79.481 35.611 79.3414 35.611C74.6524 35.611 69.9635 35.611 65.2745 35.611C64.4372 35.611 63.8924 36.3136 64.1508 37.0517C64.3077 37.5016 64.7018 37.7721 65.2287 37.7759C66.0845 37.7815 66.9408 37.7759 67.7965 37.7759L72.4587 37.7781Z" fill="#E33C5C"/>
<path d="M16.5566 37.7789C18.9383 37.7789 21.32 37.7789 23.7017 37.7789C24.218 37.7789 24.6093 37.5894 24.8181 37.1107C25.1151 36.4352 24.6445 35.6755 23.8987 35.6101C23.8524 35.6062 23.8055 35.6073 23.7592 35.6073C18.9496 35.6073 14.1399 35.6073 9.32995 35.6073C8.80747 35.6073 8.41003 35.875 8.24647 36.3244C8.17203 36.53 8.16155 36.7531 8.21639 36.9648C8.27124 37.1764 8.38888 37.3668 8.55405 37.5113C8.80803 37.7329 9.11225 37.7789 9.4388 37.7784C11.8112 37.7765 14.1838 37.7767 16.5566 37.7789Z" fill="#E33C5C"/>
<path d="M25.3127 80.1921L28.2154 77.8327C30.5409 75.9431 32.8668 74.0536 35.1931 72.164C35.7334 71.7246 35.8261 71.0669 35.4219 70.5754C35.0178 70.0839 34.3479 70.0451 33.8076 70.484C30.1997 73.413 26.5927 76.343 22.9867 79.2739C22.3168 79.8175 22.3168 80.5673 22.9867 81.1098C26.5927 84.041 30.1995 86.9712 33.807 89.9003C34.344 90.3364 35.0195 90.2959 35.4225 89.81C35.8255 89.324 35.7368 88.6635 35.1936 88.2219C31.9984 85.623 28.8027 83.0255 25.6063 80.4293C25.5154 80.36 25.4305 80.2891 25.3127 80.1921Z" fill="#E33C5C"/>
<path d="M63.6762 80.1911C63.5858 80.2681 63.5087 80.3341 63.4339 80.3972C60.2242 83.0064 57.0145 85.6161 53.8048 88.2264C53.1907 88.7251 53.174 89.5347 53.7668 89.9852C54.1888 90.3066 54.7376 90.2739 55.202 89.8965C56.3977 88.9261 57.5926 87.9551 58.7868 86.9835C61.1916 85.0304 63.5967 83.0777 66.0023 81.1253C66.2814 80.8993 66.4806 80.6377 66.5046 80.2681C66.5298 79.8431 66.3372 79.5306 66.014 79.2707C63.4551 77.1976 60.8987 75.1222 58.3447 73.0446C57.2938 72.1909 56.2431 71.3365 55.1925 70.4813C54.8855 70.2303 54.5461 70.1139 54.1559 70.2186C53.7356 70.3294 53.4615 70.6026 53.366 71.0298C53.2678 71.4687 53.409 71.8361 53.7523 72.1181C54.6192 72.8302 55.4928 73.535 56.3636 74.2426L63.4043 79.9628C63.4875 80.0298 63.5712 80.1024 63.6762 80.1911Z" fill="#E33C5C"/>
<path d="M40.5969 69.865C40.6109 69.9315 40.6304 70.0595 40.6639 70.1842C42.5187 77.0553 44.3741 83.9264 46.2304 90.7975C46.385 91.3682 46.8187 91.7034 47.3569 91.6791C47.6059 91.6713 47.8444 91.5772 48.0307 91.413C48.217 91.2487 48.3395 91.0248 48.3767 90.7803C48.3999 90.5977 48.3863 90.4123 48.3365 90.235C46.484 83.3529 44.6276 76.4714 42.7672 69.5908C42.5998 68.9762 42.1147 68.6393 41.5297 68.7241C40.9905 68.805 40.5897 69.2671 40.5969 69.865Z" fill="#E33C5C"/>
<path d="M22.8355 9.21294C19.014 9.21294 15.1923 9.21294 11.3704 9.21294C10.8094 9.21294 10.4187 9.45841 10.2479 9.91168C10.1883 10.0677 10.1659 10.2352 10.1823 10.4012C10.1988 10.5672 10.2536 10.7272 10.3426 10.8687C10.4316 11.0102 10.5523 11.1294 10.6954 11.2169C10.8384 11.3045 10.9999 11.3581 11.1672 11.3734C11.2508 11.3796 11.3347 11.3817 11.4184 11.3796C19.0339 11.3796 26.6496 11.3796 34.2655 11.3796C35.0693 11.3796 35.5884 10.8254 35.4667 10.1051C35.4273 9.8661 35.3069 9.64763 35.1254 9.48581C34.9439 9.32399 34.7122 9.22851 34.4687 9.21516C34.3391 9.2074 34.2085 9.21183 34.0779 9.21183L22.8355 9.21294Z" fill="#004999"/>
<path d="M44.4873 10.3007C44.4862 11.6001 45.0048 12.8467 45.9291 13.7667C46.8535 14.6868 48.1079 15.2049 49.4168 15.2074C50.0673 15.2078 50.7115 15.0809 51.3126 14.8341C51.9138 14.5873 52.46 14.2253 52.9201 13.7689C53.3803 13.3125 53.7454 12.7705 53.9945 12.174C54.2436 11.5775 54.3719 10.9381 54.3721 10.2924C54.3702 8.99314 53.8497 7.74758 52.9246 6.82845C51.9995 5.90932 50.7452 5.39152 49.4364 5.38845C48.786 5.38669 48.1417 5.51253 47.5405 5.75877C46.9393 6.00501 46.393 6.36677 45.9331 6.82326C45.4732 7.27975 45.1087 7.82198 44.8605 8.41876C44.6124 9.01554 44.4856 9.6551 44.4873 10.3007ZM46.6643 10.2946C46.6652 9.93383 46.7377 9.57674 46.8777 9.2438C47.0178 8.91086 47.2226 8.60858 47.4804 8.35428C47.7382 8.09999 48.044 7.89866 48.3803 7.7618C48.7166 7.62494 49.0768 7.55525 49.4403 7.55671C50.1696 7.56311 50.867 7.85444 51.3814 8.36762C51.8959 8.8808 52.186 9.57451 52.1889 10.2985C52.1839 11.0271 51.8888 11.7243 51.368 12.2378C50.8473 12.7513 50.1431 13.0396 49.409 13.0397C48.6801 13.0314 47.9839 12.7385 47.471 12.2245C46.958 11.7104 46.6696 11.0165 46.6682 10.2929L46.6643 10.2946Z" fill="#E33C5C"/>
<path d="M56.7054 10.3116C56.7076 10.9574 56.8381 11.5963 57.0894 12.1919C57.3407 12.7875 57.7079 13.3281 58.1699 13.7826C58.632 14.2372 59.1798 14.5968 59.782 14.8408C60.3843 15.0849 61.0291 15.2087 61.6796 15.205C64.3976 15.1901 66.6103 12.973 66.5986 10.2784C66.5915 8.97427 66.0629 7.72636 65.129 6.80911C64.1951 5.89186 62.9325 5.38037 61.6188 5.38715C60.3098 5.39477 59.0573 5.91755 58.1362 6.84077C57.2151 7.76398 56.7005 9.01223 56.7054 10.3116ZM58.893 10.3116C58.8908 9.95092 58.9603 9.59333 59.0975 9.25936C59.2348 8.92539 59.4372 8.62162 59.6931 8.36549C59.9489 8.10936 60.2532 7.90589 60.5884 7.76678C60.9237 7.62767 61.2833 7.55567 61.6467 7.55487C62.376 7.55686 63.0753 7.84364 63.5934 8.35326C64.1115 8.86288 64.4068 9.5544 64.4154 10.2784C64.4288 11.7789 63.17 13.0368 61.6534 13.0379C60.924 13.0369 60.2246 12.7498 59.7076 12.2391C59.1905 11.7284 58.8977 11.0356 58.893 10.3116Z" fill="#E33C5C"/>
<path d="M68.9323 10.3005C68.9321 10.9462 69.0603 11.5856 69.3095 12.182C69.5588 12.7784 69.9243 13.32 70.3849 13.7759C70.8455 14.2318 71.3923 14.5929 71.9939 14.8385C72.5954 15.0841 73.2399 15.2095 73.8903 15.2073C76.6077 15.2017 78.8199 12.9963 78.8193 10.2939C78.8176 8.99457 78.2972 7.7489 77.3723 6.82958C76.4473 5.91026 75.1931 5.39219 73.8842 5.38882C73.2337 5.38692 72.5892 5.51264 71.9878 5.75876C71.3864 6.00488 70.8399 6.36653 70.3798 6.82295C69.9196 7.27937 69.5549 7.82157 69.3065 8.41837C69.0581 9.01517 68.9309 9.6548 68.9323 10.3005ZM71.1143 10.3005C71.1131 9.57708 71.3999 8.88244 71.9122 8.36788C72.4245 7.85332 73.1208 7.56052 73.8496 7.55321C74.5837 7.55011 75.2891 7.83602 75.8112 8.34829C76.3333 8.86057 76.6296 9.55743 76.635 10.2861C76.6445 11.7873 75.383 13.039 73.8641 13.0368C73.1353 13.0314 72.4381 12.7412 71.9234 12.229C71.4087 11.7168 71.118 11.024 71.1143 10.3005Z" fill="#E33C5C"/>
<path d="M43.4047 54.4573C43.4047 56.3871 43.4047 58.3171 43.4047 60.2473C43.4047 61.0347 44.0433 61.56 44.7651 61.3727C45.2116 61.2569 45.4824 60.9632 45.5706 60.5122C45.5877 60.4121 45.5954 60.3106 45.5935 60.2091C45.5935 56.3491 45.5935 52.4887 45.5935 48.628C45.5935 47.7109 44.7249 47.1629 43.9613 47.594C43.5454 47.8289 43.403 48.2074 43.403 48.6662C43.4071 50.5971 43.4077 52.5275 43.4047 54.4573Z" fill="#004999"/>
</svg>
