<svg width="80" height="96" viewBox="0 0 80 96" fill="none" xmlns="http://www.w3.org/2000/svg">
<path d="M0 47.5728V6.25253C0 2.19088 2.17951 0 6.22072 0H73.5318C77.5753 0 79.7503 2.18634 79.7503 6.2548V89.1223C79.7503 93.1158 77.5685 95.309 73.5863 95.309H6.1685C2.18859 95.309 0.00681546 93.1158 0.00454512 89.1223L0 47.5728ZM3.04224 20.2401V21.3912C3.04224 44.0113 3.04224 66.63 3.04224 89.2472C3.04224 91.4244 3.95038 92.3099 6.17305 92.3099C28.6404 92.3099 51.1076 92.3099 73.575 92.3099C75.8453 92.3099 76.7126 91.429 76.7126 89.1314V20.2401H3.04224ZM76.7103 17.1138V6.46594C76.7103 3.77331 75.9838 3.04226 73.2799 3.04226H31.5055C22.9918 3.04226 14.4787 3.04226 5.96647 3.04226C3.94132 3.04226 3.04677 3.9504 3.03542 5.93695C3.03542 7.79182 3.03542 9.64442 3.03542 11.4993V17.1138H76.7103Z" fill="#004999"/>
<path d="M60.7274 56.8812C59.3266 56.8812 57.9281 56.8994 56.5273 56.8812C55.1265 56.863 54.484 56.2909 54.484 54.8856C54.3773 47.3639 47.8251 39.9512 38.662 40.3349C31.1698 40.6505 24.6448 47.1619 24.4337 54.654C24.3883 56.3045 23.8071 56.8789 22.127 56.8857C19.442 56.8948 16.7554 56.8948 14.0673 56.8857C12.3532 56.8857 11.7652 56.2568 11.7765 54.5314C11.8583 41.9764 21.7456 30.4658 34.4073 28.1545C38.0701 27.4767 41.8321 27.5453 45.4678 28.3563C49.1035 29.1673 52.538 30.7039 55.5656 32.8742C58.5931 35.0444 61.1514 37.8035 63.087 40.9862C65.0226 44.1688 66.2957 47.7095 66.8301 51.396C66.9935 52.5568 67.08 53.727 67.0889 54.8992C67.1071 56.25 66.4963 56.8426 65.1546 56.8676C63.6789 56.9016 62.2031 56.8789 60.7274 56.8812ZM21.396 53.7935C22.8354 41.3066 35.4494 33.9189 46.7966 38.7661C47.7615 36.8636 48.7286 34.9565 49.7594 32.9177C41.0821 29.3714 32.8612 29.9322 25.2397 35.2857C18.91 39.731 15.4886 45.9677 14.8211 53.7935H21.396ZM52.3771 34.4956L49.412 40.2986C51.6662 41.7986 53.5516 43.7895 54.9267 46.122C56.3454 48.451 57.1919 51.0832 57.3968 53.8026H63.9422C63.9535 46.8281 59.1177 38.2076 52.3771 34.4933V34.4956Z" fill="#E33C5C"/>
<path d="M39.5425 70.5804H64.4005C64.7774 70.5804 65.2791 70.4555 65.5062 70.6485C65.9761 71.0413 66.4983 71.5566 66.6414 72.1197C66.8184 72.8598 66.269 73.3911 65.5062 73.5341C65.1306 73.5901 64.7505 73.6106 64.371 73.5954H15.2067C14.6395 73.6136 14.0716 73.5977 13.5062 73.5477C12.6912 73.4478 12.1917 72.9642 12.1826 72.1174C12.1826 71.2252 12.673 70.7189 13.5448 70.6031C13.8844 70.572 14.2257 70.5637 14.5665 70.5781L39.5425 70.5804Z" fill="#E33C5C"/>
<path d="M39.3153 80.8423H14.3415C14.001 80.8423 13.5424 80.9491 13.3472 80.772C12.8931 80.3588 12.2483 79.798 12.2619 79.3121C12.2756 78.8263 12.943 78.295 13.4198 77.9023C13.6264 77.732 14.0759 77.85 14.4165 77.85H64.4684C64.7712 77.8294 65.0751 77.8362 65.3766 77.8705C66.178 78.018 66.6684 78.4857 66.6729 79.3348C66.6775 80.1839 66.2484 80.697 65.4129 80.8128C65.0359 80.8525 64.6565 80.8646 64.2777 80.8492H39.3153V80.8423Z" fill="#E33C5C"/>
<path d="M39.6808 63.3722C36.5386 63.3722 34.2319 61.0201 34.266 58.1504C34.3001 55.2807 36.7021 52.9422 39.5627 53.1556C40.732 53.2442 41.3063 52.8582 41.8557 51.9274C42.698 50.4993 43.672 49.1462 44.5801 47.7681C45.2613 46.7714 46.04 46.533 46.8641 47.0575C47.6883 47.5819 47.7723 48.4401 47.1116 49.43C46.0355 51.0669 44.9117 52.6766 43.8832 54.343C43.7896 54.5378 43.7398 54.7508 43.7375 54.967C43.7351 55.1831 43.7802 55.3971 43.8696 55.594C44.8049 57.3376 44.8571 59.0585 43.8854 60.7749C43.4804 61.5439 42.8769 62.1904 42.1374 62.6471C41.398 63.1039 40.5497 63.3542 39.6808 63.3722ZM41.5447 58.2071C41.5334 57.6322 41.2958 57.085 40.8835 56.6842C40.4712 56.2834 39.9175 56.0613 39.3425 56.0662C38.2823 56.0662 37.2992 57.1401 37.3128 58.2593C37.3174 58.8142 37.5387 59.3452 37.9293 59.7392C38.3199 60.1332 38.849 60.359 39.4038 60.3685C39.6875 60.3716 39.969 60.3176 40.2315 60.2099C40.494 60.1021 40.7322 59.9427 40.9319 59.7411C41.1316 59.5395 41.2887 59.2998 41.394 59.0363C41.4992 58.7728 41.5505 58.4908 41.5447 58.2071Z" fill="#004999"/>
<path d="M23.932 11.0385C19.8878 11.0385 15.8451 11.0385 11.8038 11.0385C10.4416 11.0385 9.72192 10.5004 9.73554 9.51278C9.74916 8.52518 10.4348 8.02117 11.7357 8.0189C19.859 8.00981 27.9816 8.00981 36.1033 8.0189C37.3702 8.0189 38.0603 8.58421 38.0467 9.55819C38.0331 10.5322 37.3497 11.0475 36.0579 11.0498C32.0152 11.0468 27.9732 11.043 23.932 11.0385Z" fill="#004999"/>
<path d="M60.139 11.0339C59.7389 11.0396 59.3517 10.8925 59.0564 10.6225C58.761 10.3524 58.5798 9.97989 58.5498 9.58085C58.5489 9.18202 58.6997 8.79777 58.9716 8.50602C59.2436 8.21427 59.6163 8.03686 60.0142 8.00977C60.4136 8.00885 60.7985 8.15989 61.0906 8.43225C61.3828 8.70461 61.5605 9.0779 61.5876 9.47641C61.5981 9.87396 61.4523 10.2598 61.1814 10.551C60.9106 10.8422 60.5363 11.0156 60.139 11.0339Z" fill="#E33C5C"/>
<path d="M70.5279 9.47417C70.5402 9.6713 70.5124 9.86887 70.4461 10.0549C70.3799 10.241 70.2765 10.4117 70.1424 10.5566C70.0082 10.7016 69.8461 10.8178 69.6657 10.8983C69.4853 10.9788 69.2905 11.0218 69.093 11.0248C68.8958 11.0349 68.6985 11.0052 68.513 10.9375C68.3274 10.8699 68.1574 10.7656 68.0129 10.6309C67.8685 10.4962 67.7526 10.3338 67.6722 10.1534C67.5917 9.97306 67.5484 9.77835 67.5447 9.58088C67.5327 9.38339 67.5607 9.18551 67.627 8.99908C67.6933 8.81266 67.7965 8.64153 67.9304 8.49591C68.0644 8.3503 68.2263 8.2332 68.4066 8.15163C68.5869 8.07005 68.7817 8.02568 68.9795 8.02115C69.3772 8.00952 69.7634 8.15584 70.0536 8.42812C70.3437 8.70041 70.5143 9.0765 70.5279 9.47417Z" fill="#E33C5C"/>
<path d="M51.121 8.01206C51.5188 8.0257 51.8954 8.19522 52.1693 8.48406C52.4433 8.77289 52.5927 9.15786 52.5853 9.55589C52.583 9.75315 52.5416 9.94799 52.4637 10.1292C52.3857 10.3104 52.2727 10.4744 52.1311 10.6118C51.9895 10.7492 51.8221 10.8572 51.6387 10.9296C51.4552 11.0021 51.2592 11.0375 51.0619 11.0339C50.8647 11.031 50.67 10.9887 50.4894 10.9094C50.3088 10.8301 50.1458 10.7155 50.0102 10.5722C49.8745 10.429 49.769 10.26 49.6997 10.0753C49.6304 9.89066 49.5988 9.69397 49.6067 9.49686C49.6044 9.29875 49.6423 9.10223 49.718 8.91912C49.7936 8.73602 49.9056 8.57013 50.047 8.43141C50.1885 8.2927 50.3566 8.18405 50.5411 8.11198C50.7257 8.03991 50.9229 8.00592 51.121 8.01206Z" fill="#E33C5C"/>
</svg>
