<svg width="63" height="68" viewBox="0 0 63 68" fill="none" xmlns="http://www.w3.org/2000/svg">
<path d="M0 0H63C62.8606 1.31734 62.7104 2.63402 62.5832 3.95267C62.2915 6.96447 62.0209 9.97628 61.7231 12.9881C61.4267 15.9757 61.0972 18.96 60.8014 21.9482C60.503 24.96 60.2398 27.9718 59.9407 30.9836C59.5976 34.4321 59.2227 37.878 58.8803 41.3285C58.5812 44.3403 58.3193 47.3521 58.0202 50.3639C57.6758 53.834 57.2928 57.3042 56.9721 60.7743C56.9294 61.2326 56.7372 61.3636 56.359 61.4657C51.6474 62.7084 46.9367 63.9544 42.2269 65.2036C39.1168 66.029 36.0086 66.8629 32.9021 67.7054C32.7587 67.7447 32.4048 67.6144 32.5299 68H32.1178L32.1057 67.9208L31.9805 68H30.8829C30.9012 67.9876 30.9208 67.9758 30.9384 67.9614C30.956 67.947 30.9783 67.926 30.9749 67.9208C30.8247 67.672 30.5351 67.7047 30.3077 67.6445C26.6987 66.6899 23.0858 65.7438 19.4691 64.8062C15.1951 63.6879 10.9214 62.5681 6.64784 61.4467C6.35415 61.3695 6.05438 61.3537 6.02325 60.9007C5.93122 59.5768 5.76679 58.2588 5.63686 56.9375C5.20604 52.5564 4.77611 48.1751 4.34708 43.7936C3.86618 38.9468 3.38167 34.1008 2.89355 29.2558C2.41355 24.4107 1.93827 19.5671 1.46774 14.7251C0.982778 9.81673 0.493534 4.90837 0 0ZM30.9032 10.9099V10.9184C24.6357 10.9184 18.3674 10.9289 12.0999 10.9034C11.4395 10.9034 11.3359 11.0998 11.4273 11.6648C11.5552 12.4505 11.6073 13.2467 11.6926 14.0389C12.468 21.1883 13.2395 28.3376 14.0069 35.4869C14.0691 36.0709 14.2261 36.2981 14.8967 36.2962C22.4682 36.2733 30.0404 36.2864 37.6119 36.2909C38.4828 36.2909 38.4848 36.2909 38.4354 37.1238C38.3001 39.3532 38.1573 41.5825 38.0436 43.8132C38.0247 44.1792 37.8596 44.2925 37.5375 44.3914C35.6937 44.9588 33.854 45.5389 32.0184 46.1317C31.7606 46.2169 31.4808 46.2155 31.2239 46.1278C29.3292 45.5542 27.4344 44.9774 25.5255 44.4379C25.0592 44.3069 24.9199 44.0902 24.9442 43.6424C24.9808 42.9582 24.9293 42.2674 24.9618 41.5845C24.9828 41.1432 24.8204 41.0267 24.3745 41.0286C21.1033 41.0457 17.8326 41.0457 14.5624 41.0286C14.0813 41.0286 13.9433 41.1642 13.946 41.6251C13.9636 44.8346 13.9636 48.0429 13.946 51.2498C13.946 51.6708 14.0705 51.8685 14.5035 51.9968C20.07 53.6555 25.6322 55.3258 31.1901 57.0076C31.4865 57.0966 31.7639 57.1307 32.0603 57.0469C37.2623 55.5829 42.4642 54.1206 47.6662 52.6601C48.016 52.5619 48.1554 52.4172 48.1825 52.0309C48.3483 49.6273 48.558 47.2271 48.7529 44.8287C48.9672 42.1849 49.182 39.5413 49.3971 36.8979C49.5609 34.8931 49.7294 32.8889 49.8884 30.8834C50.0055 29.407 50.0962 27.9286 50.2309 26.4541C50.2721 25.9958 50.105 25.8858 49.6665 25.9048C48.9817 25.9349 48.2948 25.9126 47.6087 25.9126C39.9684 25.9126 32.3278 25.9172 24.6871 25.9264C24.0882 25.9264 23.9021 25.764 23.8751 25.1957C23.8263 24.1141 23.7526 23.0266 23.576 21.9587C23.4521 21.2116 23.7472 21.1416 24.3981 21.1435C32.7702 21.1728 41.142 21.188 49.5135 21.1894C50.3865 21.1894 50.3865 21.1894 50.3865 20.3218C50.3865 17.4226 50.3689 14.5228 50.402 11.6243C50.4088 11.0304 50.2356 10.8962 49.6381 10.8981C43.3929 10.9184 37.1484 10.9099 30.9032 10.9099Z" fill="#E43C5C"/>
</svg>
