<svg width="80" height="52" viewBox="0 0 80 52" fill="none" xmlns="http://www.w3.org/2000/svg">
<g clip-path="url(#clip0_364_231)">
<path d="M-0.000158129 49.8455C0.428821 48.919 1.15686 48.5904 2.14477 48.6064C4.30689 48.6431 6.46743 48.6175 8.62955 48.6175H9.65814C8.73599 47.9653 8.77044 47.1998 8.77044 46.4263C8.77775 38.8223 8.77775 31.2178 8.77044 23.6127V22.6558C9.42487 22.4421 9.81003 22.6558 10.3126 23.0705C11.1345 23.7467 11.2316 24.5233 11.2269 25.4866C11.1987 32.2422 11.2128 38.9993 11.2128 45.7565V46.7612H68.5427V7.52916H67.5829C55.0068 7.52916 42.4297 7.53341 29.8515 7.54191C29.2691 7.54191 28.9028 7.42071 28.6194 6.85137C28.372 6.3522 27.9415 5.94553 27.4812 5.35705C27.8601 5.32356 28.0964 5.28369 28.3344 5.28369C41.9271 5.28369 55.5204 5.28369 69.1141 5.28369C70.3431 5.28369 70.8222 5.76212 70.8222 7.00606C70.8222 20.3088 70.8175 33.6105 70.8081 46.9111C70.8081 47.4438 70.5435 47.978 70.3869 48.5665C70.5059 48.5665 70.7736 48.5984 71.0398 48.5984C73.3841 48.5984 75.7278 48.5984 78.071 48.5984C78.8538 48.5984 79.5067 48.8488 79.8495 49.6302C79.9495 49.8538 79.9988 50.0975 79.9938 50.3431C79.9888 50.5887 79.9296 50.8301 79.8206 51.0493C79.7116 51.2684 79.5556 51.4598 79.3641 51.6092C79.1726 51.7586 78.9506 51.8622 78.7145 51.9124C78.4042 51.9657 78.0895 51.9865 77.7751 51.9746C52.5937 51.9746 27.4123 51.9799 2.23085 51.9905C1.22729 51.9905 0.452294 51.7386 -0.0126953 50.7897L-0.000158129 49.8455ZM39.9795 49.2475C39.2547 49.2475 38.5298 49.2363 37.8049 49.2475C37.2694 49.2587 36.8796 49.5122 36.8999 50.0991C36.9171 50.6477 37.307 50.8614 37.8049 50.863C39.2557 50.8694 40.7065 50.8694 42.1573 50.863C42.6896 50.863 43.0966 50.6509 43.0966 50.0656C43.0966 49.4803 42.6771 49.2571 42.1573 49.2491C41.4308 49.2379 40.706 49.2475 39.9795 49.2475Z" fill="#E33C5C"/>
<path d="M19.055 17.4072C18.4381 17.64 17.8933 17.8171 17.3798 18.0579C17.2929 18.1125 17.2181 18.185 17.1602 18.2707C17.1022 18.3563 17.0624 18.4533 17.0432 18.5554C17.0134 18.8985 17.0071 19.2433 17.0244 19.5873C17.0072 20.2539 16.6518 20.6303 16.013 20.6638C15.3382 20.7004 14.6587 20.6957 13.9777 20.6638C13.3734 20.6383 12.8911 20.2651 12.9976 19.6702C13.245 18.2891 12.5874 17.648 11.421 17.2987C11.2548 17.2263 11.1022 17.1248 10.9702 16.9989C10.7001 17.3869 10.4095 17.7596 10.0997 18.1153C9.59553 18.6416 9.04282 18.6368 8.52303 18.1153C8.07527 17.6698 7.63586 17.2174 7.20479 16.7581C6.7539 16.2797 6.66938 15.6864 7.19386 15.3005C8.25535 14.519 8.34147 13.6419 7.70896 12.5734C7.64849 12.4349 7.59975 12.2913 7.56333 12.1443C7.15313 12.1443 6.73983 12.1539 6.3265 12.1443C5.47324 12.122 5.13197 11.7951 5.11162 10.9546C5.09596 10.3167 5.10066 9.67879 5.11162 9.04087C5.12258 8.40296 5.48262 7.93887 6.07285 8.04572C7.42085 8.29132 8.06743 7.64862 8.40248 6.45092C8.47141 6.28293 8.55148 6.11987 8.64206 5.96291C8.34146 5.70614 7.96099 5.43025 7.63847 5.09694C7.09834 4.53876 7.09678 4.0683 7.60874 3.50214C8.03458 3.03646 8.48235 2.59152 8.93324 2.15135C9.43424 1.65856 9.94305 1.67291 10.4409 2.16889C10.4581 2.18803 10.4769 2.20716 10.4957 2.22471C11.6668 3.32671 11.7608 3.34106 13.1855 2.60108C13.2549 2.55658 13.3147 2.49813 13.3613 2.42931C13.4079 2.36049 13.4402 2.28274 13.4563 2.20078C13.4809 1.9107 13.4866 1.61929 13.4735 1.32843C13.4939 0.322113 13.7961 0.0143223 14.7997 -0.0016257C15.3727 -0.0111945 15.9457 -0.0143927 16.5218 0.00952932C17.1309 0.0366409 17.6021 0.384319 17.4925 0.998316C17.2451 2.38101 17.9121 3.02052 19.0816 3.36818C19.2421 3.43377 19.3989 3.50829 19.5513 3.59144C19.8284 3.26451 20.1243 2.86741 20.4671 2.51814C20.929 2.04927 21.4426 2.04928 21.9201 2.50539C22.3976 2.96151 22.8595 3.424 23.3025 3.90723C23.7456 4.39045 23.7722 4.88961 23.3197 5.38878L23.2132 5.5052C22.1862 6.63113 22.1361 6.94053 22.8484 8.24507C22.9712 8.3945 23.1466 8.48897 23.3369 8.50822C23.6496 8.53069 23.9632 8.53548 24.2763 8.52256C24.9981 8.53692 25.3926 8.91967 25.4224 9.63892C25.449 10.2768 25.449 10.9148 25.4224 11.5527C25.3926 12.2305 25.0544 12.6387 24.3452 12.6419C24.292 12.6419 24.2403 12.6419 24.1886 12.6419C23.7283 12.6722 23.1005 12.5255 22.8453 12.7727C22.4429 13.1666 22.2739 13.8173 22.0484 14.3787C22.0015 14.4951 22.1064 14.7215 22.205 14.8459C22.4007 15.0899 22.6496 15.2909 22.861 15.5237C23.4136 16.1314 23.4324 16.6066 22.8939 17.1919C22.468 17.656 22.0187 18.0993 21.5616 18.5315C21.1044 18.9637 20.5814 18.994 20.1086 18.5315C19.736 18.1727 19.3994 17.7708 19.055 17.4072ZM11.2269 10.2992C11.2155 10.8434 11.3117 11.3843 11.5096 11.8899C11.7076 12.3955 12.0034 12.8554 12.3794 13.2422C12.7553 13.629 13.2037 13.9349 13.6981 14.1416C14.1924 14.3484 14.7225 14.4518 15.2568 14.4456C15.7846 14.4496 16.3079 14.3477 16.797 14.1457C17.2861 13.9436 17.7314 13.6454 18.1073 13.268C18.4833 12.8907 18.7826 12.4416 18.9882 11.9465C19.1938 11.4513 19.3016 10.9197 19.3055 10.3821C19.3128 9.8374 19.2132 9.2967 19.0126 8.79173C18.812 8.28675 18.5144 7.82766 18.1373 7.44142C17.7602 7.05519 17.3111 6.74958 16.8165 6.54252C16.3218 6.33546 15.7916 6.23112 15.2568 6.23563C14.7292 6.22886 14.2057 6.32905 13.7165 6.53037C13.2273 6.73169 12.7823 7.03011 12.4074 7.40827C12.0325 7.78643 11.7352 8.23676 11.5328 8.73307C11.3304 9.22938 11.227 9.76175 11.2285 10.2992H11.2269Z" fill="#E33C5C"/>
<path d="M28.5729 19.557C28.5667 19.5314 28.5561 19.5071 28.5416 19.4852C27.5256 18.3114 27.5882 17.7868 28.9393 16.9208C29.1507 16.7852 29.7018 16.8123 29.8176 16.9718C30.4439 17.8474 31.1186 17.5539 31.8278 17.1616C31.8403 17.1398 31.8493 17.1161 31.8544 17.0914C31.9625 15.5189 32.3524 15.1952 33.907 15.5572C34.1669 15.6178 34.4925 16.0771 34.5129 16.3706C34.5536 16.9654 34.5802 17.3992 35.2691 17.6257C35.6996 17.766 35.936 17.7947 36.2601 17.4502C36.8864 16.7884 37.0758 16.8123 37.7271 17.4502C37.8759 17.5986 38.0136 17.7596 38.1717 17.8968C38.7401 18.3928 38.7401 18.9143 38.1405 19.3321C37.5408 19.75 37.8273 20.1933 37.9588 20.6989C38.106 21.2491 38.4723 21.2076 38.8606 21.1853C39.4868 21.147 39.7827 21.4372 39.7702 22.072C39.7702 22.3909 39.7702 22.7099 39.7702 23.0289C39.7702 23.6668 39.4572 24.0017 38.8481 23.8996C38.1013 23.7752 37.9087 24.2505 37.6363 24.7879C37.3639 25.3254 37.7929 25.4944 38.0262 25.7448C38.4207 26.177 38.4379 26.5709 38.0262 26.9824C37.8587 27.1418 37.6942 27.3189 37.5283 27.4847C36.8128 28.1976 36.6359 28.2407 35.9627 27.456C35.4805 26.8962 35.1063 27.2965 34.6554 27.3843C34.1638 27.4847 34.2045 27.8228 34.2279 28.1625C34.2827 28.9089 33.9665 29.2549 33.2228 29.1928C32.9894 29.1736 32.7549 29.1736 32.5214 29.1928C31.8247 29.247 31.4428 28.9312 31.568 28.2215C31.7026 27.4608 31.1923 27.3332 30.71 27.0573C30.1871 26.7575 30.0039 27.153 29.7519 27.4129C29.3104 27.8659 28.9033 27.8563 28.4837 27.3938C28.3121 27.1953 28.1285 27.0079 27.9341 26.8325C27.3627 26.3365 27.3674 25.8357 27.9577 25.3971C28.4743 25.0112 28.3412 24.6316 28.1752 24.1085C27.9952 23.5424 27.6586 23.544 27.2281 23.5615C26.6097 23.587 26.3169 23.2697 26.3263 22.6461C26.3263 22.2761 26.2449 21.8726 26.3623 21.5457C26.4656 21.265 26.832 20.8472 27.0277 20.8743C28.0688 21.0242 28.3412 20.34 28.5729 19.557ZM33.06 25.0734C33.4103 25.0734 33.7572 25.0029 34.0807 24.8661C34.4042 24.7293 34.698 24.5287 34.9453 24.2759C35.1926 24.0232 35.3884 23.7232 35.5216 23.3931C35.6549 23.0631 35.7228 22.7095 35.7216 22.3527C35.7154 21.6298 35.4284 20.9388 34.9235 20.4307C34.4186 19.9227 33.7368 19.6389 33.0271 19.6415C32.3177 19.647 31.6391 19.9376 31.1389 20.4501C30.6387 20.9626 30.3574 21.6555 30.3562 22.3782C30.3582 22.7365 30.4299 23.0909 30.5672 23.4208C30.7046 23.7507 30.9048 24.0497 31.1562 24.3003C31.4076 24.5509 31.7053 24.7483 32.0321 24.881C32.3589 25.0137 32.7083 25.0791 33.06 25.0734Z" fill="#E33C5C"/>
<path d="M49.1087 17.8985L45.4546 21.4549L43.2627 19.2221L48.9897 13.5813C50.618 15.2718 52.2165 16.9304 53.7398 18.5141L58.3192 14.0486L55.8425 11.7425L55.9395 11.5225H62.9238V18.8314L60.7695 16.2909L53.9402 23.0672L49.1087 17.8985Z" fill="#E33C5C"/>
<path d="M35.0123 32.6934C37.5252 32.6934 39.9691 32.6184 42.4052 32.7236C43.7344 32.7795 44.6378 33.7922 44.8335 35.0345C45.073 36.5639 44.4561 37.8908 43.2114 38.5032C42.9813 38.6164 42.7418 38.6962 42.4286 38.8222C44.3356 39.8955 44.644 42.0118 45.848 43.7788C44.4671 43.7788 43.2897 43.7963 42.1124 43.7565C41.9558 43.7565 41.7805 43.4646 41.674 43.278C41.1026 42.2398 40.5515 41.1873 39.991 40.1443C39.6653 39.5398 39.2082 39.173 38.3831 39.2831V43.7485H35.0107L35.0123 32.6934ZM38.4003 37.1923C39.2332 37.1109 39.9988 37.1349 40.6924 36.9212C41.0165 36.8223 41.3828 36.2673 41.3969 35.9053C41.411 35.5863 40.9977 35.0281 40.7018 34.9739C39.9644 34.8384 39.1862 34.9292 38.4003 34.9292V37.1923Z" fill="#E33C5C"/>
<path d="M33.2612 43.7437H24.1289V32.6216H33.0889V34.9564H27.5263V36.7665H32.7069V39.0151H27.5404V41.2287H33.2534L33.2612 43.7437Z" fill="#E33C5C"/>
<path d="M50.003 39.7026V43.7278H46.6416V32.5531C47.5512 32.5531 48.453 32.5435 49.3548 32.5531C50.576 32.569 51.8034 32.526 53.0152 32.6408C54.9175 32.8242 55.9054 33.982 55.9367 35.8942C55.968 37.8845 54.9691 39.2209 53.1404 39.4889C52.1447 39.642 51.1271 39.6372 50.003 39.7026ZM50.05 34.8751V37.3375C50.9298 37.2864 51.8786 37.6006 52.4344 36.6996C52.6223 36.3965 52.6113 35.765 52.4203 35.4588C51.8567 34.5577 50.9095 34.9437 50.05 34.8815V34.8751Z" fill="#E33C5C"/>
</g>
<defs>
<clipPath id="clip0_364_231">
<rect width="80" height="52" fill="white"/>
</clipPath>
</defs>
</svg>
