<svg width="92" height="91" viewBox="0 0 92 91" fill="none" xmlns="http://www.w3.org/2000/svg">
<path d="M71.2818 79.6523C71.2818 79.1159 71.2661 78.5767 71.2818 78.0432C71.3292 76.6809 71.3994 75.5193 69.8477 74.6015C68.1417 73.5933 67.8327 71.2436 68.648 69.418C69.0422 68.5502 69.6971 67.8269 70.5215 67.3487C71.346 66.8705 72.2991 66.6612 73.2481 66.7499C75.2071 66.937 76.8041 68.3812 77.2465 70.3652C77.6617 72.2252 76.7883 74.2688 75.0522 75.1808C74.4363 75.5042 74.295 75.8634 74.3036 76.4858C74.333 78.662 74.3194 80.839 74.3129 83.0159C74.3093 84.2155 73.7579 84.9089 72.8193 84.9239C71.8806 84.939 71.2919 84.2392 71.2833 83.0596C71.2754 81.9231 71.2818 80.7873 71.2818 79.6523ZM72.7612 69.7686C72.366 69.7824 71.9915 69.9488 71.7166 70.233C71.4416 70.5172 71.2876 70.8969 71.2869 71.2923C71.2931 71.6877 71.453 72.0651 71.7325 72.3448C72.0121 72.6245 72.3895 72.7845 72.7849 72.7909C72.9886 72.79 73.1901 72.7483 73.3776 72.6684C73.5651 72.5885 73.7347 72.4719 73.8765 72.3256C74.0183 72.1793 74.1294 72.0061 74.2034 71.8162C74.2774 71.6263 74.3127 71.4236 74.3072 71.2199C74.2876 70.8249 74.1155 70.453 73.8271 70.1823C73.5388 69.9116 73.1567 69.7633 72.7612 69.7686Z" fill="#004999"/>
<path d="M59.1515 54.8378L59.1465 54.5718C59.1465 54.6607 59.1465 54.7496 59.1465 54.8392L59.1515 54.8378Z" fill="black"/>
<path d="M54.784 87.9149H47.3264C49.5981 75.6471 51.8583 63.4424 54.1695 50.9638C55.8374 51.8013 57.3741 52.5613 58.8936 53.3558C59.0191 53.4217 59.1087 53.6555 59.1295 53.8412L59.0578 49.9119C54.7962 47.5772 50.0305 47.0989 45.4979 45.7889V45.2504C45.4979 44.618 45.4441 43.9798 45.5194 43.3574C45.5588 43.0369 45.7517 42.6404 46.0041 42.4554C50.7863 38.8989 53.1154 34.1377 53.0817 28.1985C53.0745 26.9129 53.0817 25.6279 53.0817 24.2684C53.5585 24.2684 53.9307 24.2742 54.3007 24.2684C55.4258 24.2483 56.0991 23.7493 56.0934 22.7626C56.0776 19.954 56.1845 17.126 55.8955 14.3418C55.1519 7.19145 48.9241 0.965416 41.759 0.22113C38.9122 -0.0742893 36.0224 0.00601688 33.1476 0.0217917C25.9295 0.0669651 19.5389 4.90194 17.4135 11.802C16.2884 15.4553 16.7681 19.1983 16.7172 22.9096C16.7065 23.7263 17.331 24.2003 18.1643 24.2591C18.6562 24.2942 19.1531 24.2656 19.7139 24.2656C19.7139 25.6093 19.7261 26.8354 19.7139 28.0615C19.6422 34.0761 21.9691 38.901 26.8388 42.474C27.0403 42.6217 27.264 42.8935 27.2762 43.1193C27.3264 44.0221 27.297 44.9292 27.297 45.8341C25.0439 46.374 22.902 46.9096 20.7493 47.3986C8.1675 50.251 0.00215123 60.4667 0 73.3741C0 78.9029 0 84.432 0 89.9613V90.9974H58.4282C57.7606 90.9372 56.8062 90.7106 55.983 89.9548C55.3922 89.4069 54.9754 88.6976 54.784 87.9149ZM47.5508 49.5383L43.6385 55.4108L39.0671 51.7604C39.9398 51.2262 40.7257 50.7436 41.513 50.2632C41.7819 50.099 42.0953 49.9836 42.3183 49.7727C43.9798 48.2039 45.7237 48.9381 47.5508 49.5383ZM37.0478 49.4322C36.5853 49.719 36.2303 49.7297 35.7571 49.4322C34.3717 48.5545 32.9533 47.7292 31.5471 46.8852C30.1847 46.0671 30.1847 46.0685 30.4256 44.3864C34.3989 45.8735 38.3816 45.8642 42.3563 44.3957C42.631 46.0628 42.631 46.0628 41.2571 46.8888C39.8559 47.7342 38.4375 48.5624 37.0478 49.4322ZM38.2826 56.4541C38.2733 56.9145 37.1145 57.5297 36.3315 57.4924C35.3455 57.4429 34.4972 56.8893 34.5258 56.3143C34.5832 55.167 35.6925 53.5938 36.4232 53.6204C37.2134 53.6498 38.3049 55.3126 38.2826 56.4541ZM19.4851 21.1988C19.7404 18.3916 19.6601 15.6253 20.294 13.0339C21.7425 7.11258 27.1608 3.07781 33.2495 3.04984C35.9923 3.03694 38.7616 2.93297 41.4743 3.24846C47.7789 3.98056 52.8041 9.59281 53.058 15.9508C53.1297 17.6767 53.068 19.4076 53.068 21.1601C50.7863 21.4698 48.9154 20.9858 47.5136 19.0721C46.377 17.5204 45.1243 16.0526 43.9146 14.5547C42.9185 13.3214 41.9949 13.3357 40.986 14.5891C40.2538 15.4991 39.5354 16.4197 38.7932 17.3218C36.9159 19.6034 34.4907 21.0289 31.56 21.1572C27.6584 21.3279 23.7439 21.1988 19.4851 21.1988ZM22.7543 29.003C22.7378 27.4628 22.7543 25.9198 22.7543 24.2706C24.4201 24.2706 26.0199 24.305 27.6175 24.2612C29.5063 24.2103 31.4231 24.2713 33.2746 23.9615C36.6104 23.403 39.2836 21.6061 41.3832 18.9588C41.6772 18.588 41.977 18.2216 42.2775 17.856C42.3147 17.8101 42.375 17.7842 42.5148 17.6824C43.5739 18.991 44.623 20.3161 45.7044 21.6139C46.8158 22.9469 48.2658 23.7357 50.0613 24.1451C49.9487 27.0003 50.3216 29.8097 49.5235 32.5724C47.6828 38.9462 41.2836 43.2707 34.9253 42.3959C27.8714 41.4164 22.8289 35.8737 22.7543 29.003ZM28.2392 48.7345C28.4106 48.6943 28.6415 48.6965 28.7857 48.7811C30.4034 49.7333 32.0089 50.7049 33.7414 51.746L29.165 55.4137L25.2211 49.496C26.2924 49.2221 27.2619 48.9661 28.2392 48.7345ZM18.2001 87.8948V72.3415C18.2001 72.1522 18.2001 71.9629 18.2001 71.7736C18.193 70.483 17.6688 69.7846 16.7015 69.7724C15.7341 69.7602 15.1691 70.4665 15.1684 71.7356C15.165 75.8098 15.165 79.8838 15.1684 83.9575V87.9012H3.0813C3.06552 87.6861 3.03609 87.4768 3.03609 87.266C3.03609 82.2761 2.99452 77.2862 3.04758 72.2963C3.14438 63.1391 9.18003 54.6113 17.7477 51.4391C18.008 51.3431 18.2776 51.2706 18.6627 51.1523C20.9344 63.4137 23.1946 75.6184 25.4699 87.9005L18.2001 87.8948ZM28.9807 87.9306C28.7935 87.9264 28.5002 87.509 28.45 87.2466C27.5537 82.5715 26.6758 77.8928 25.8162 73.2106C24.4504 65.8327 23.088 58.4544 21.7289 51.0756C21.6851 50.8383 21.6679 50.5966 21.8443 50.2152C22.0673 50.4504 22.3284 50.6597 22.5069 50.925C24.0558 53.2289 25.5903 55.5435 27.1278 57.8531C28.1862 59.4413 28.8387 59.5445 30.3238 58.3679C30.5898 58.1564 30.8644 57.9563 31.3349 57.5985C31.0201 60.4624 30.7347 63.0932 30.4407 65.7233C29.911 70.4557 29.3758 75.1882 28.8351 79.9206C28.7469 80.6864 29.0345 81.2443 29.563 81.7691C31.5966 83.7862 33.6073 85.8261 35.7298 87.9608C33.423 87.9615 31.2008 87.978 28.9807 87.9306ZM36.3981 84.3132C34.9439 82.8519 33.5341 81.4608 32.1674 80.0289C31.9967 79.8503 31.9874 79.4467 32.0182 79.1591C32.6077 73.6671 33.2076 68.1762 33.8181 62.6866C33.9113 61.8427 34.0225 61.0001 34.1544 59.9167C35.6875 60.8244 37.1417 60.7355 38.6533 59.9475C38.9631 62.6809 39.2593 65.2479 39.544 67.8163C39.9613 71.5807 40.3872 75.3452 40.7587 79.1132C40.7974 79.5083 40.6016 80.0389 40.3284 80.3322C39.0821 81.668 37.7692 82.9372 36.3981 84.3132ZM37.0887 87.9278C39.1345 85.8756 41.1043 83.8579 43.1272 81.8925C43.8342 81.2055 44.03 80.4813 43.916 79.5169C43.1516 72.9374 42.4331 66.3528 41.7009 59.7697C41.6292 59.1172 41.5575 58.4647 41.4621 57.5662C42.0544 58.0359 42.418 58.3313 42.7887 58.6174C43.8486 59.437 44.6639 59.3251 45.4111 58.2159C47.0489 55.7822 48.6645 53.3336 50.2994 50.8978C50.4701 50.644 50.7096 50.436 50.9175 50.2073L51.2008 50.3442C48.8827 62.8661 46.5641 75.394 44.2451 87.9278H37.0887Z" fill="#E33C5C"/>
<path d="M59.1379 53.909C59.1375 53.8862 59.1358 53.8634 59.1328 53.8408L59.1464 54.5715C59.1457 54.3485 59.1457 54.1334 59.1379 53.909Z" stroke="black" stroke-miterlimit="10"/>
<path d="M90.9959 86.1585C91.0036 78.2601 91.0036 70.3617 90.9959 62.4633C91.0072 62.054 90.9699 61.6448 90.8848 61.2443C90.3284 58.962 88.7622 57.8498 86.4511 57.5731C86.4511 54.5801 86.4669 51.6145 86.4432 48.6488C86.4332 47.4205 86.4274 46.18 86.2675 44.9654C85.407 38.4195 79.56 33.3888 72.8582 33.3702C66.0918 33.3522 60.1982 38.3629 59.3377 44.9425C59.1283 46.5479 59.1512 48.1842 59.0609 49.9137L59.1326 53.843C59.1356 53.8656 59.1373 53.8884 59.1376 53.9111C59.1419 54.132 59.1441 54.3521 59.1462 54.5737L59.1513 54.8397C59.157 55.7296 59.1513 56.6266 59.1513 57.5494C58.7604 57.6326 58.3998 57.6928 58.0455 57.786C56.0556 58.2951 54.6243 59.9888 54.6179 62.0309C54.5906 70.2051 54.6035 78.3865 54.6136 86.5643C54.6136 86.9996 54.7226 87.4348 54.7871 87.9152C54.9791 88.6976 55.3965 89.4064 55.9875 89.9538C56.8107 90.7067 57.7651 90.9361 58.4327 90.9964H86.2073C89.0921 90.9928 90.9931 89.0697 90.9959 86.1585ZM62.1938 46.8914C62.2691 41.5086 66.1212 37.2594 71.5875 36.4663C76.4077 35.7672 81.3226 38.9308 82.8843 43.7679C83.1152 44.485 83.3411 45.24 83.3505 45.98C83.3963 49.8262 83.372 53.6724 83.372 57.586H81.8998C81.8998 54.2976 81.9099 51.053 81.8927 47.8092C81.8884 47.0204 81.8604 46.2274 81.7328 45.4544C80.9698 40.8396 76.7605 37.5799 72.0715 37.9398C67.5066 38.2898 63.8115 42.1252 63.7205 46.7071C63.6552 49.9581 63.7025 53.212 63.7004 56.4645C63.7004 56.8087 63.7004 57.1522 63.7004 57.563H62.183C62.183 57.1658 62.183 56.7657 62.183 56.3649C62.1838 53.2085 62.1493 50.0506 62.1938 46.8914ZM78.8658 57.5896H66.872C66.8297 57.5329 66.7616 57.4842 66.7616 57.4354C66.753 53.8065 66.6612 50.1747 66.7752 46.55C66.8735 43.4044 69.6536 40.9414 72.8223 40.9507C75.9911 40.96 78.6457 43.4517 78.8508 46.5974C78.8673 46.849 78.8651 47.0993 78.8651 47.3546C78.8651 50.7318 78.8651 54.1069 78.8651 57.591L78.8658 57.5896ZM59.7091 87.9611C58.1036 87.9611 57.6339 87.4857 57.6332 85.866C57.6332 78.1568 57.6332 70.4482 57.6332 62.74C57.6332 61.1317 58.105 60.6649 59.7264 60.6606C64.0862 60.6606 68.4462 60.6606 72.8065 60.6606C77.1668 60.6606 81.5269 60.6606 85.8868 60.6606C87.4937 60.6606 87.9663 61.1346 87.9663 62.7537C87.9663 70.4623 87.9663 78.1709 87.9663 85.8796C87.9663 87.4843 87.4887 87.959 85.871 87.959C77.1499 87.9628 68.4293 87.964 59.7091 87.9626V87.9611Z" fill="#004999"/>
</svg>
