<svg width="65" height="66" viewBox="0 0 65 66" fill="none" xmlns="http://www.w3.org/2000/svg">
<path d="M52.6063 42.1655C52.1686 41.5869 51.8667 41.1711 51.5429 40.7715C51.3899 40.6061 51.2261 40.4508 51.0528 40.3068C49.8755 39.202 49.8303 39.0194 50.4632 37.5006C50.5079 37.4186 50.5683 37.3463 50.6409 37.2876C50.7135 37.229 50.7969 37.1852 50.8864 37.1588C51.5375 36.978 52.2012 36.8442 52.8577 36.6851C53.818 36.4537 53.9826 36.2548 54.0676 35.2639C54.0838 35.0632 54.1109 34.8643 54.1435 34.5859C55.5903 34.5859 57.028 34.566 58.4621 34.6094C58.6429 34.6094 58.8238 34.9349 58.9559 35.1518C59.3427 35.8091 59.9492 36.3088 60.6684 36.5628C61.3877 36.8168 62.1735 36.8089 62.8875 36.5405C63.6004 36.2703 64.1958 35.7584 64.5699 35.0943C64.944 34.4301 65.0731 33.6557 64.9346 32.9061C64.7926 32.1442 64.3816 31.4586 63.7765 30.9741C63.1714 30.4896 62.4125 30.2384 61.6378 30.2663C61.0802 30.2701 60.5345 30.4271 60.0602 30.7201C59.5859 31.0132 59.2013 31.4311 58.9486 31.928C58.7262 32.3402 58.4892 32.4415 58.0624 32.4324C56.8236 32.4071 55.5812 32.4216 54.3406 32.418C54.2795 32.408 54.2191 32.3941 54.1598 32.3764C54.1345 32.1956 54.0946 32.0147 54.0766 31.8177C53.9771 30.7147 53.8234 30.5357 52.7365 30.2862C52.5219 30.2186 52.3016 30.1708 52.0782 30.1433C50.9118 30.0963 50.2481 29.5666 50.1215 28.3461C50.0781 27.9157 50.0112 27.6029 50.4018 27.2992C50.8462 26.9518 51.2589 26.5658 51.6351 26.1456C51.9685 25.7294 52.2783 25.2947 52.5629 24.8438C53.2863 24.8438 54.2393 24.8166 55.1797 24.8673C55.3606 24.8781 55.565 25.171 55.6879 25.3771C56.0315 25.9656 56.5502 26.4321 57.1717 26.7115C57.7932 26.9909 58.4865 27.0693 59.1548 26.9357C59.8444 26.7902 60.4685 26.4256 60.9339 25.8964C61.3993 25.3672 61.6811 24.7018 61.7373 23.9994C61.785 23.3083 61.611 22.6201 61.2405 22.0347C60.8701 21.4494 60.3225 20.9975 59.6774 20.7447C58.9487 20.4469 58.135 20.4318 57.3957 20.7023C56.6565 20.9729 56.0448 21.5097 55.6807 22.2075C55.6151 22.3684 55.4976 22.5028 55.3469 22.5893C55.1961 22.6758 55.0208 22.7094 54.8488 22.6849C53.8107 22.6595 52.7709 22.7029 51.7346 22.6577C51.4488 22.618 51.1878 22.4737 51.0022 22.2527C50.6983 21.8612 50.421 21.4499 50.1721 21.0214C49.8104 20.479 49.3312 20.3144 48.7127 20.5133C48.0471 20.7249 47.3853 20.9563 46.7053 21.1082C46.4398 21.1408 46.1713 21.0766 45.9493 20.9274C44.8733 20.2312 44.6979 19.3416 45.1916 18.1338C45.4683 17.4522 45.7341 17.2298 46.4575 17.246C49.9786 17.2858 53.4979 17.246 57.0189 17.2732C57.2886 17.2869 57.5579 17.2412 57.8079 17.1393C58.0579 17.0375 58.2825 16.8819 58.4657 16.6837C59.7316 15.3909 61.0374 14.1524 62.2635 12.8306C62.5793 12.4682 62.7696 12.0135 62.806 11.5342C62.8802 10.3191 62.8422 9.09867 62.826 7.88C62.826 7.51837 62.8965 7.29235 63.2672 7.09527C63.919 6.76807 64.4365 6.22421 64.7309 5.55707C65.0252 4.88993 65.0781 4.14113 64.8804 3.43926C64.6989 2.74639 64.2929 2.13316 63.7258 1.69545C63.1588 1.25774 62.4627 1.02021 61.7463 1.02C61.03 1.02091 60.3342 1.25921 59.7678 1.69761C59.2013 2.13601 58.7962 2.74977 58.6158 3.44287C58.4196 4.14492 58.4736 4.89334 58.7685 5.55997C59.0635 6.22661 59.581 6.76999 60.2326 7.09708C60.6088 7.29597 60.6775 7.51838 60.6703 7.88362C60.654 8.87627 60.692 9.87254 60.6486 10.8616C60.6319 11.1838 60.5092 11.4915 60.2995 11.7367C59.323 12.7673 58.3102 13.7708 57.2866 14.7527C57.061 14.9536 56.7729 15.0705 56.471 15.0835C52.4092 15.1028 48.348 15.1028 44.2873 15.0835C44 15.0725 43.7188 14.9971 43.4645 14.8629C42.7031 14.476 41.9616 14.0529 41.1695 13.619C41.1695 12.2195 41.1695 10.7766 41.1804 9.33372C41.195 9.13878 41.2776 8.95515 41.4137 8.81479C42.4717 7.72992 43.5115 6.63239 44.6382 5.62708C44.9275 5.36852 45.499 5.39745 45.9457 5.35405C46.3924 5.31066 46.7866 5.30704 47.0814 5.89649C47.7578 7.22365 49.3004 7.78779 50.7237 7.38638C51.4 7.19086 51.9947 6.78138 52.4186 6.21936C52.8424 5.65735 53.0727 4.97307 53.0747 4.26918C53.0746 3.55318 52.8373 2.85738 52.3998 2.29048C51.9624 1.72358 51.3494 1.31752 50.6568 1.13572C49.9774 0.944758 49.2534 0.988481 48.602 1.25983C47.9506 1.53118 47.4098 2.01429 47.067 2.63103C46.8228 3.07402 46.566 3.26929 46.0795 3.18612C44.5568 2.92756 43.4175 3.49351 42.4355 4.67421C41.5566 5.72653 40.4751 6.60708 39.5528 7.62867C39.2383 7.99231 39.0515 8.44892 39.0211 8.9287C38.965 10.8688 38.9994 12.8089 38.9958 14.7508C38.9958 15.72 38.4912 15.9822 37.549 15.8574C36.4187 15.7091 35.9756 15.1125 35.9014 14.08C35.8996 14.0575 35.896 14.0351 35.8906 14.0131C35.406 12.0423 35.661 12.0965 33.5903 11.8434C33.5903 10.4204 33.5722 8.98657 33.6138 7.55273C33.6138 7.38096 33.9356 7.1911 34.1454 7.0555C34.804 6.67014 35.3052 6.06459 35.5607 5.34571C35.8161 4.62683 35.8093 3.84083 35.5416 3.12645C35.2727 2.41307 34.7619 1.81668 34.0983 1.44131C33.4346 1.06593 32.6603 0.935378 31.9102 1.07243C31.1478 1.21397 30.4614 1.62428 29.9759 2.22881C29.4904 2.83335 29.2379 3.59198 29.2644 4.36683C29.3168 5.58731 29.9227 6.48593 30.9644 7.11878C31.1579 7.2345 31.3948 7.4804 31.402 7.66121C31.4418 8.85638 31.4219 10.0534 31.4219 11.2485V11.8325C31.2031 11.8669 31.0132 11.9085 30.8197 11.9248C29.7111 12.0242 29.5411 12.1689 29.2843 13.2591C29.2223 13.4524 29.1781 13.6509 29.1523 13.8522C29.1053 15.0691 28.5609 15.758 27.2805 15.8954C26.5933 15.9695 26.0146 15.6296 26.0146 14.8901C26.0055 12.9265 25.9929 10.9628 26.0146 9.00103C26.0269 8.72146 25.9769 8.44264 25.8684 8.18469C25.7599 7.92673 25.5955 7.69607 25.387 7.50934C24.141 6.2979 22.9076 5.0738 21.7032 3.82077C21.242 3.34343 20.7465 3.09752 20.0864 3.17165C19.9055 3.19154 19.7247 3.159 19.5438 3.17165C18.7517 3.25121 18.1821 3.12645 17.6938 2.30376C16.9704 1.07786 15.3717 0.712616 14.0353 1.21889C13.3858 1.46248 12.8311 1.90714 12.4521 2.48805C12.0731 3.06895 11.8896 3.75572 11.9284 4.44819C11.9725 5.15046 12.2431 5.81952 12.6995 6.3551C13.156 6.89069 13.7738 7.26395 14.4603 7.41893C15.1253 7.56763 15.8204 7.5022 16.4461 7.23199C17.0717 6.96179 17.5958 6.50065 17.9434 5.91457C18.0808 5.69398 18.305 5.37214 18.4986 5.37214C19.1243 5.37214 19.9255 5.29077 20.3414 5.6307C21.5061 6.58177 22.5116 7.72269 23.5749 8.80213C23.7142 8.93996 23.8007 9.12237 23.8191 9.31745C23.839 10.7639 23.8299 12.2104 23.8299 13.6081C23.0215 14.0511 22.2602 14.485 21.4789 14.8828C21.2436 15.006 20.9831 15.0734 20.7175 15.0799C16.6557 15.092 12.5939 15.092 8.5321 15.0799C8.23074 15.0697 7.9421 14.956 7.71467 14.7581C6.66938 13.7624 5.6482 12.7414 4.65113 11.6951C4.46645 11.4843 4.35812 11.2174 4.34366 10.9375C4.3093 9.96837 4.35453 8.9956 4.32017 8.02645C4.30209 7.55092 4.41603 7.2797 4.87176 7.03018C5.54054 6.66125 6.05259 6.06209 6.31271 5.34406C6.57283 4.62604 6.56334 3.838 6.286 3.12645C6.0178 2.4124 5.50726 1.81521 4.84355 1.43913C4.17984 1.06306 3.40509 0.931995 2.65458 1.06882C1.89229 1.20954 1.20583 1.61906 0.719963 2.22295C0.2341 2.82685 -0.0189209 3.585 0.00695038 4.35959C0.0121918 4.92776 0.174858 5.48337 0.476868 5.9647C0.77887 6.44603 1.20844 6.83424 1.7178 7.08623C1.8694 7.14712 1.99631 7.25682 2.07853 7.39797C2.16074 7.53912 2.19357 7.70366 2.17173 7.86553C2.15184 9.10771 2.12468 10.3499 2.18617 11.5884C2.2148 12.0262 2.3856 12.4427 2.67263 12.7746C3.96027 14.1343 5.28045 15.465 6.65127 16.7524C7.02084 17.0627 7.48534 17.2375 7.96784 17.2479C11.7801 17.2858 15.5924 17.2695 19.4806 17.2695C19.7121 18.0145 19.9598 18.754 20.1569 19.5062C20.1619 19.6008 20.1472 19.6953 20.1139 19.784C20.0806 19.8727 20.0294 19.9535 19.9634 20.0215C18.7988 21.2872 18.7952 21.2872 17.1314 20.7845C15.3103 20.2421 15.2415 20.2276 14.2758 21.8694C13.9141 22.4932 13.5253 22.7626 12.7947 22.6993C11.9612 22.6469 11.1252 22.6469 10.2917 22.6993C9.79984 22.7174 9.50866 22.6053 9.24101 22.1189C8.86904 21.4517 8.26524 20.9441 7.54398 20.6921C6.82272 20.4402 6.03411 20.4615 5.3275 20.752C4.61543 21.0262 4.02304 21.543 3.6548 22.2111C3.28656 22.8793 3.16609 23.6561 3.31465 24.4044C3.46376 25.1648 3.88097 25.8464 4.49033 26.3253C5.0997 26.8041 5.86076 27.0483 6.63502 27.0135C7.1922 27.0023 7.73576 26.8393 8.2071 26.542C8.67844 26.2447 9.05969 25.8245 9.30975 25.3265C9.37397 25.1645 9.49113 25.029 9.64217 24.942C9.79321 24.855 9.96922 24.8216 10.1416 24.8474C10.9536 24.8781 11.7692 24.8474 12.6192 24.8474C12.753 26.0552 13.8255 26.5126 14.5435 27.2449C14.9051 27.621 14.916 27.9139 14.8617 28.4057C14.7261 29.628 14.0371 30.0801 12.9249 30.1397C12.7914 30.1603 12.66 30.193 12.5324 30.2374C11.0567 30.5899 11.0567 30.5899 10.8958 32.0816C10.8958 32.1702 10.865 32.2625 10.8343 32.427C9.40197 32.427 7.96604 32.4469 6.53373 32.4035C6.35289 32.4035 6.163 32.0798 6.0364 31.8719C5.6518 31.2132 5.04638 30.7118 4.32741 30.4566C3.60845 30.2015 2.82236 30.209 2.10842 30.4778C1.39487 30.747 0.798485 31.2581 0.423355 31.922C0.0482178 32.5859 -0.081871 33.3604 0.0557861 34.1103C0.19812 34.8724 0.60907 35.5582 1.21398 36.0433C1.81889 36.5283 2.57767 36.7804 3.35262 36.7538C4.57153 36.6996 5.47218 36.0957 6.10153 35.0506C6.21727 34.8571 6.46319 34.622 6.65489 34.6166C7.87199 34.5768 9.09274 34.5967 10.3098 34.5967H10.8307C10.865 34.8155 10.9048 35.0072 10.9229 35.2006C11.0205 36.2855 11.1616 36.4663 12.1888 36.7177C12.3807 36.7834 12.5789 36.8288 12.7802 36.8533C14.0986 36.8912 14.8364 37.5385 14.8889 38.8729C14.9028 39.1319 14.8261 39.3876 14.6718 39.5962C14.2668 40.0482 13.7676 40.4153 13.3607 40.8619C13.0442 41.209 12.8073 41.6285 12.4312 42.1637C11.7078 42.1637 10.7583 42.1908 9.8179 42.1402C9.63705 42.1293 9.42911 41.8382 9.30794 41.6339C8.96712 41.0431 8.44927 40.5743 7.82752 40.2936C7.20578 40.013 6.51153 39.9347 5.84289 40.0699C5.15477 40.2159 4.53215 40.5799 4.06753 41.108C3.60291 41.636 3.3211 42.2999 3.26401 43.0009C3.21598 43.6915 3.38948 44.3794 3.75926 44.9647C4.12904 45.55 4.67587 46.0022 5.32026 46.2555C6.04902 46.5529 6.86256 46.5678 7.60173 46.2973C8.3409 46.0268 8.9525 45.4903 9.31695 44.7927C9.3825 44.6317 9.49992 44.4971 9.65061 44.4103C9.80129 44.3235 9.97664 44.2895 10.1489 44.3136C11.1851 44.3407 12.225 44.2955 13.2612 44.3407C13.5474 44.3797 13.809 44.5234 13.9955 44.7439C14.2977 45.1361 14.5744 45.5474 14.8238 45.9752C15.1855 46.5177 15.6665 46.6822 16.2868 46.4851C16.9523 46.2736 17.6142 46.0421 18.2924 45.8902C18.5585 45.8575 18.8275 45.9217 19.0501 46.071C20.1244 46.769 20.3161 47.6658 19.8007 48.8646C19.5366 49.483 19.3467 49.7686 18.6089 49.756C15.0679 49.7072 11.5233 49.7433 7.98232 49.7253C7.71272 49.7117 7.44344 49.7574 7.19345 49.8593C6.94347 49.9611 6.71887 50.1166 6.53555 50.3147C5.26962 51.6075 3.96209 52.8461 2.73776 54.1678C2.42183 54.5309 2.23155 54.9862 2.19522 55.466C2.12107 56.6793 2.15903 57.9016 2.1753 59.1202C2.1753 59.4819 2.10478 59.7061 1.73043 59.9031C1.07951 60.2316 0.563118 60.7761 0.269791 61.4435C-0.0235367 62.1109 -0.0755157 62.8595 0.122719 63.561C0.304771 64.2535 0.710907 64.8664 1.27783 65.304C1.84475 65.7416 2.54059 65.9794 3.25681 65.9802C3.9733 65.9777 4.66877 65.7381 5.23474 65.2988C5.80071 64.8595 6.20531 64.2453 6.38543 63.5519C6.58035 62.8496 6.52577 62.1015 6.23098 61.4348C5.9362 60.7682 5.41943 60.2244 4.76867 59.8959C4.44314 59.7151 4.31837 59.5469 4.32741 59.1727C4.35273 58.1348 4.31654 57.0951 4.34909 56.0591C4.36123 55.7786 4.46767 55.5104 4.65113 55.2979C5.64941 54.2552 6.67058 53.2348 7.71467 52.2367C7.93982 52.0353 8.22834 51.9188 8.53029 51.9077C12.5704 51.8872 16.6093 51.8872 20.647 51.9077C20.9557 51.9164 21.2585 51.9942 21.5332 52.1355C22.2963 52.517 23.036 52.9401 23.8299 53.3722C23.8299 54.7735 23.8408 56.2164 23.8173 57.6593C23.7913 57.8748 23.6916 58.0747 23.5352 58.2252C22.5134 59.292 21.5006 60.3588 20.4155 61.3352C20.1081 61.6064 19.5204 61.5757 19.0574 61.6588C18.5239 61.7528 18.1839 61.5829 17.8909 61.0549C17.1675 59.7675 15.69 59.2269 14.274 59.6265C13.5974 59.8221 13.0025 60.2319 12.5786 60.7942C12.1546 61.3566 11.9246 62.0413 11.923 62.7455C11.925 63.4494 12.1552 64.1337 12.5791 64.6957C13.003 65.2577 13.5977 65.6672 14.274 65.8627C14.9499 66.0713 15.6767 66.0431 16.3343 65.7827C16.992 65.5223 17.5411 65.0454 17.8909 64.4307C18.1658 63.9407 18.466 63.7382 18.9905 63.8286C20.4716 64.0835 21.5639 63.5212 22.5188 62.3821C23.3995 61.3316 24.4321 60.4058 25.4232 59.4511C25.6227 59.2691 25.7789 59.0446 25.8803 58.7943C25.9817 58.544 26.0257 58.2742 26.0091 58.0046C25.9856 56.0862 25.9983 54.1678 26.0091 52.2494C26.0091 51.3055 26.5137 51.0181 27.4053 51.1338C28.5771 51.2875 29.0239 51.9076 29.1342 53.0016C29.2662 54.2998 29.6677 55.4064 31.4219 55.0556C31.4219 56.5907 31.4364 58.0281 31.4002 59.4638C31.4002 59.6211 31.1054 59.8055 30.9137 59.9176C30.3018 60.2665 29.8196 60.8044 29.5395 61.4506C29.2594 62.0967 29.1965 62.8163 29.3602 63.5013C29.5274 64.1962 29.9193 64.8164 30.4753 65.2657C31.0312 65.7149 31.72 65.968 32.4346 65.9856C33.1509 65.9973 33.8511 65.7724 34.4265 65.3458C35.002 64.9192 35.4206 64.3147 35.6175 63.6261C35.8227 62.9388 35.787 62.2021 35.5164 61.5379C35.2457 60.8737 34.7563 60.3219 34.1292 59.9737C33.6825 59.7296 33.5559 59.4674 33.5685 58.9828C33.6047 57.7171 33.5812 56.4605 33.5812 55.1568C33.8073 55.1243 34.0008 55.0863 34.1943 55.0682C35.2793 54.9724 35.4602 54.8241 35.7044 53.7899C35.7802 53.5543 35.8341 53.3122 35.8653 53.0667C35.9105 51.8968 36.4531 51.2585 37.6629 51.1121C38.4442 51.0126 38.9921 51.3453 38.9958 52.1825C38.9958 54.1009 39.0193 56.0193 38.9849 57.9359C38.9709 58.2378 39.0249 58.539 39.1429 58.8172C39.2609 59.0954 39.4399 59.3435 39.6667 59.5433C40.8856 60.7186 42.0822 61.915 43.2565 63.1324C43.7285 63.6242 44.2295 63.9135 44.9239 63.8268C45.1229 63.8014 45.3308 63.8394 45.5315 63.8268C46.2766 63.7526 46.812 63.8756 47.2677 64.6495C47.9911 65.879 49.5735 66.2768 50.9117 65.8085C51.5656 65.5749 52.1284 65.1395 52.5185 64.5652C52.9086 63.9908 53.1059 63.3073 53.0819 62.6135C53.0524 61.9213 52.802 61.2567 52.3672 60.7172C51.9324 60.1777 51.3361 59.7916 50.6658 59.6157C49.9963 59.4358 49.2866 59.4771 48.6426 59.7336C47.9986 59.99 47.4547 60.4478 47.0923 61.0386C46.9404 61.2773 46.6872 61.6389 46.4991 61.6299C45.8372 61.5919 45.1156 61.9445 44.5206 61.3225C43.5368 60.2955 42.5078 59.3119 41.5149 58.2957C41.3392 58.1332 41.2238 57.9158 41.1876 57.6792C41.1587 56.2327 41.1732 54.7952 41.1732 53.3921C41.9815 52.9473 42.7411 52.5098 43.5242 52.1084C43.7619 51.9901 44.0236 51.9282 44.2891 51.9275C48.351 51.9155 52.4128 51.9155 56.4746 51.9275C56.7766 51.9393 57.0653 52.0549 57.292 52.2548C58.3349 53.2505 59.3561 54.2709 60.3556 55.3159C60.5403 55.5272 60.6475 55.795 60.6594 56.0754C60.6938 57.0897 60.6594 58.1059 60.6847 59.1202C60.6992 59.5415 60.5545 59.7368 60.1856 59.9375C59.5025 60.3042 58.9769 60.9076 58.7075 61.6344C58.4381 62.3613 58.4434 63.1615 58.7226 63.8846C58.9918 64.598 59.503 65.1943 60.167 65.5693C60.831 65.9444 61.6056 66.0745 62.3557 65.9368C63.118 65.7956 63.8041 65.3852 64.2891 64.7805C64.7741 64.1758 65.0257 63.417 64.9979 62.6424C64.9938 62.0738 64.8309 61.5176 64.5277 61.0365C64.2245 60.5554 63.793 60.1685 63.2817 59.9194C62.92 59.726 62.8296 59.509 62.8332 59.1365C62.8513 57.8961 62.8802 56.6522 62.8169 55.4154C62.7887 54.9774 62.6164 54.561 62.3268 54.2311C61.0609 52.8858 59.7498 51.5732 58.4006 50.3075C58.0421 49.9843 57.5841 49.793 57.1022 49.765C53.4925 49.7228 49.8821 49.7228 46.2712 49.765C45.6473 49.765 45.358 49.5842 45.2802 48.9966C45.2684 48.9303 45.2515 48.865 45.2295 48.8013C44.7196 47.1125 44.7123 47.1035 46.0542 45.9915C46.1518 45.9312 46.2607 45.8914 46.3741 45.8743C46.4875 45.8572 46.6032 45.8632 46.7143 45.892C47.369 46.0548 48.0128 46.2663 48.6548 46.4761C49.2968 46.6858 49.8502 46.552 50.2227 45.9336C50.2785 45.8629 50.3287 45.7879 50.3728 45.7094C50.8466 44.5161 51.7147 44.0821 52.9626 44.3226C53.232 44.3588 53.5051 44.3588 53.7746 44.3226C54.7276 44.2467 55.4872 44.3063 56.1111 45.3207C56.8544 46.5267 58.4422 46.7816 59.7497 46.2374C60.3892 45.9709 60.9269 45.5073 61.2847 44.9142C61.6425 44.321 61.8016 43.6292 61.7391 42.9394C61.6723 42.2609 61.3941 41.6204 60.9437 41.1085C60.4933 40.5966 59.8935 40.239 59.2289 40.0862C58.567 39.918 57.868 39.9734 57.2409 40.2439C56.6139 40.5144 56.0939 40.9847 55.7621 41.5815C55.4998 42.0606 55.2195 42.1944 54.7168 42.1691C53.9464 42.1384 53.1796 42.1655 52.6063 42.1655ZM49.9298 24.7732C49.3058 25.3591 48.7253 25.9232 48.1213 26.4638C47.6402 26.896 47.5516 27.3769 47.7596 27.9863C48.0364 28.7246 48.2429 29.4874 48.3763 30.2645C48.5119 31.2915 49.0545 31.711 50.0274 31.8918C52.1614 32.2968 52.1542 32.333 51.9607 34.5208C51.9438 34.5763 51.9195 34.6292 51.8883 34.6781C51.1017 34.8589 50.2951 35.065 49.4831 35.2458C48.9062 35.3724 48.6096 35.7232 48.4794 36.2909C48.2714 37.195 48.0598 38.0991 47.7723 38.9651C47.5534 39.636 47.6674 40.135 48.1936 40.5924C48.785 41.1078 49.3402 41.6647 49.9334 42.2198C49.6042 42.7893 49.2914 43.3046 49.0038 43.8471C48.832 44.1671 48.6421 44.2195 48.2913 44.0966C47.633 43.8651 46.9512 43.7024 46.2875 43.4872C45.7685 43.3191 45.3742 43.4872 45.0107 43.8489C44.3018 44.5721 43.5851 45.2893 42.8605 46.0005C42.4879 46.3622 42.3306 46.7617 42.4988 47.2789C42.7194 47.9641 42.9328 48.653 43.1064 49.3528C43.1258 49.449 43.1219 49.5486 43.0948 49.643C43.0677 49.7374 43.0184 49.8239 42.9509 49.8952C42.3975 50.2659 41.8079 50.5823 41.2256 50.9186C40.6415 50.2966 40.0971 49.7542 39.598 49.1756C39.1386 48.644 38.6359 48.5373 37.9704 48.7579C37.1143 49.0364 36.2437 49.2682 35.3625 49.4522C34.7332 49.586 34.3715 49.9006 34.2395 50.5371C34.0713 51.3435 33.8561 52.1409 33.6626 52.9401H31.3423C31.1398 52.0975 30.9336 51.2947 30.7582 50.4829C30.6334 49.9043 30.297 49.5987 29.7274 49.4649C28.8086 49.2479 27.8882 49.0219 26.9875 48.7416C26.3763 48.5518 25.9024 48.635 25.4666 49.1177C24.924 49.7198 24.3616 50.2984 23.7757 50.9258C23.1807 50.5769 22.6056 50.2695 22.0667 49.9061C21.9977 49.8354 21.9465 49.7494 21.9172 49.6551C21.888 49.5608 21.8816 49.4609 21.8985 49.3636C22.0793 48.6657 22.2837 47.975 22.508 47.2897C22.6761 46.7744 22.5314 46.3748 22.1589 46.0078C21.4174 45.2845 20.7266 44.5016 19.9381 43.838C19.647 43.5921 19.1478 43.5397 18.7337 43.5071C18.4624 43.4854 18.1731 43.6536 17.8946 43.7404C16.1385 44.2828 16.153 44.2702 15.2958 42.632C15.1149 42.2704 15.1819 42.0787 15.4585 41.8382C15.9541 41.4097 16.4116 40.9342 16.9053 40.5057C17.399 40.0771 17.4479 39.6251 17.267 39.0411C16.9884 38.1852 16.7542 37.3156 16.5653 36.4356C16.4279 35.7503 16.1186 35.3507 15.4151 35.2187C14.6248 35.0687 13.8508 34.8463 13.0279 34.6456C13.0279 34.0109 13.046 33.4269 13.0279 32.8374C13.0098 32.4541 13.1401 32.2715 13.5271 32.1992C14.2125 32.069 14.887 31.8809 15.5688 31.7309C15.8036 31.689 16.0203 31.5772 16.1904 31.41C16.3605 31.2429 16.476 31.0282 16.5219 30.7943C16.7841 29.7944 17.1115 28.8053 17.2941 27.791C17.3628 27.4113 17.1567 26.9484 16.9795 26.5705C16.8619 26.3228 16.5726 26.1564 16.3592 25.9557C14.9775 24.6629 14.9684 24.6557 16.0553 23.1224C16.1364 23.039 16.2359 22.9756 16.3457 22.9374C16.4556 22.8991 16.5729 22.8869 16.6883 22.9018C17.3683 23.0555 18.0338 23.2635 18.6975 23.4859C19.24 23.6667 19.6524 23.5021 20.0339 23.1061C20.7212 22.3925 21.4223 21.691 22.1372 21.0015C22.5315 20.6218 22.7105 20.2096 22.517 19.6689C22.4266 19.4158 22.3597 19.1518 22.2801 18.8932C21.7249 17.0851 21.7213 17.0851 23.4357 16.2805C23.5471 16.2473 23.6647 16.2408 23.7791 16.2615C23.8935 16.2822 24.0014 16.3296 24.094 16.3998C24.5913 16.8573 25.0416 17.3654 25.4937 17.8698C25.9025 18.3273 26.3654 18.4267 26.955 18.2495C27.8791 17.9693 28.8195 17.7342 29.7599 17.5046C30.3024 17.3744 30.6388 17.0887 30.7618 16.5391C30.9191 15.8357 31.0747 15.1306 31.2718 14.438C31.3188 14.2717 31.5213 14.0384 31.6642 14.0294C32.3333 13.9842 33.0061 14.0095 33.6807 14.0095C33.8923 14.8991 34.093 15.7073 34.2721 16.521C34.3143 16.7649 34.4302 16.99 34.6041 17.1661C34.778 17.3422 35.0016 17.461 35.245 17.5064C36.2095 17.7475 37.1662 18.0018 38.1151 18.2694C38.6431 18.4195 39.0862 18.3544 39.466 17.9349C39.9525 17.4015 40.4407 16.8681 40.9471 16.3546C41.4896 15.8122 41.8513 16.4541 42.213 16.6494C42.5747 16.8446 43.2764 16.8537 43.1371 17.5878C43.1061 17.7193 43.0681 17.8491 43.0232 17.9765C42.8785 18.4502 42.7592 18.9348 42.5783 19.3941C42.2908 20.1282 42.468 20.6706 43.0721 21.1805C43.7089 21.7201 44.2998 22.3116 44.8389 22.9488C45.3344 23.5274 45.8589 23.6938 46.5696 23.4298C47.1611 23.2131 47.765 23.032 48.3781 22.8874C48.4764 22.8719 48.577 22.8803 48.6714 22.9117C48.7658 22.9432 48.8513 22.9969 48.9207 23.0682C49.2769 23.6034 49.5843 24.1784 49.9316 24.7732H49.9298ZM60.6648 4.22398C60.6771 3.93924 60.7999 3.67052 61.0073 3.475C61.2147 3.27947 61.4902 3.17258 61.7752 3.17708C62.0605 3.18747 62.3302 3.30982 62.5259 3.51763C62.7215 3.72543 62.8274 4.00195 62.8205 4.28727C62.8106 4.57248 62.6887 4.84229 62.4812 5.03825C62.2737 5.23421 61.9973 5.34052 61.712 5.33417C61.4276 5.32105 61.1595 5.19786 60.9645 4.99066C60.7694 4.78347 60.6626 4.50851 60.6667 4.22398H60.6648ZM49.814 3.17708C50.099 3.17705 50.3726 3.28911 50.5756 3.48906C50.7786 3.689 50.8948 3.96078 50.8991 4.24568C50.8992 4.5303 50.7873 4.80354 50.5877 5.00648C50.3881 5.20942 50.1167 5.3258 49.8321 5.33055C49.5471 5.33058 49.2736 5.21852 49.0706 5.01857C48.8675 4.81863 48.7513 4.54685 48.747 4.26195C48.747 3.97641 48.8596 3.70237 49.0604 3.49927C49.2611 3.29618 49.5339 3.18041 49.8195 3.17708H49.814ZM32.4979 5.33417C32.2117 5.33418 31.9371 5.22112 31.7338 5.01962C31.5306 4.81812 31.4152 4.54449 31.4129 4.25833C31.4128 3.97248 31.5257 3.69817 31.7268 3.49503C31.928 3.29188 32.2012 3.17632 32.4871 3.17346C32.7749 3.17346 33.0509 3.28777 33.2544 3.49122C33.4578 3.69467 33.5722 3.97061 33.5722 4.25833C33.5698 4.54169 33.4567 4.8129 33.257 5.01395C33.0572 5.215 32.7868 5.32992 32.5034 5.33417H32.4979ZM15.1366 5.33417C14.852 5.32104 14.5837 5.1976 14.3885 4.99001C14.1934 4.78243 14.0868 4.50702 14.0913 4.22218C14.1017 3.93697 14.2241 3.66734 14.4319 3.47172C14.6398 3.2761 14.9163 3.17023 15.2017 3.17708C15.487 3.18747 15.7567 3.30982 15.9523 3.51763C16.148 3.72543 16.2539 4.00195 16.247 4.28727C16.2371 4.5728 16.1149 4.84288 15.907 5.03889C15.6991 5.2349 15.4223 5.341 15.1366 5.33417ZM3.2622 5.33417C2.9766 5.33418 2.70251 5.22162 2.49938 5.0209C2.29625 4.82018 2.18045 4.54748 2.17712 4.26195C2.17709 3.97672 2.28943 3.70295 2.4898 3.4999C2.69017 3.29686 2.96249 3.18089 3.24776 3.17708C3.53305 3.17706 3.80688 3.28937 4.00996 3.48971C4.21304 3.69004 4.32904 3.96227 4.33284 4.24749C4.33334 4.53303 4.2212 4.80727 4.02077 5.0107C3.82035 5.21414 3.54778 5.33036 3.2622 5.33417ZM57.4187 23.7553C57.4186 23.4694 57.5315 23.1951 57.7326 22.992C57.9338 22.7888 58.207 22.6733 58.4929 22.6704C58.7788 22.6704 59.0531 22.7832 59.2563 22.9843C59.4595 23.1854 59.5751 23.4586 59.578 23.7444C59.578 24.0303 59.4651 24.3046 59.264 24.5077C59.0628 24.7109 58.7896 24.8264 58.5037 24.8293C58.2178 24.8293 57.9434 24.7165 57.7403 24.5154C57.5371 24.3143 57.4215 24.0411 57.4187 23.7553ZM6.4849 22.6704C6.77022 22.6675 7.0452 22.777 7.25032 22.9753C7.45544 23.1736 7.5742 23.4447 7.58084 23.7299C7.58379 24.0149 7.47447 24.2896 7.2765 24.4946C7.07854 24.6996 6.80782 24.8186 6.52287 24.8257C6.23755 24.8286 5.96257 24.719 5.75745 24.5207C5.55233 24.3224 5.43362 24.0513 5.42698 23.7661C5.42501 23.4809 5.53547 23.2063 5.73449 23.0019C5.93352 22.7975 6.20507 22.6797 6.49033 22.674L6.4849 22.6704ZM61.7228 32.418C62.0081 32.414 62.2835 32.5227 62.4893 32.7203C62.6951 32.918 62.8148 33.1887 62.8223 33.4739C62.8267 33.7592 62.7186 34.0347 62.5212 34.2408C62.3239 34.4469 62.0532 34.567 61.768 34.575C61.483 34.5771 61.2085 34.4679 61.0028 34.2707C60.7971 34.0735 60.6765 33.8038 60.6667 33.5191C60.6632 33.2341 60.7721 32.9593 60.9697 32.7539C61.1673 32.5485 61.4378 32.4291 61.7228 32.4216V32.418ZM2.17712 33.5028C2.1771 33.217 2.28993 32.9427 2.49108 32.7395C2.69223 32.5364 2.96548 32.4208 3.25138 32.418C3.5376 32.4179 3.8122 32.531 4.01543 32.7325C4.21867 32.934 4.33408 33.2076 4.33646 33.4938C4.33648 33.7796 4.22365 34.0539 4.0225 34.2571C3.82135 34.4602 3.5481 34.5758 3.2622 34.5787C2.97598 34.5787 2.70138 34.4656 2.49815 34.2641C2.29491 34.0626 2.1795 33.789 2.17712 33.5028ZM58.4929 44.3262C58.207 44.3234 57.9338 44.2078 57.7326 44.0047C57.5315 43.8015 57.4186 43.5272 57.4187 43.2413C57.4215 42.9555 57.5371 42.6823 57.7403 42.4812C57.9434 42.2801 58.2178 42.1673 58.5037 42.1673C58.7896 42.1702 59.0628 42.2857 59.264 42.4889C59.4651 42.692 59.578 42.9663 59.578 43.2522C59.5751 43.538 59.4595 43.8112 59.2563 44.0123C59.0531 44.2134 58.7788 44.3262 58.4929 44.3262ZM5.42698 43.301C5.41465 43.0156 5.5154 42.7369 5.70739 42.5253C5.89936 42.3137 6.16706 42.1864 6.45236 42.1709C6.73751 42.1591 7.01583 42.2601 7.22705 42.452C7.43828 42.6439 7.5654 42.9112 7.58084 43.1961C7.59084 43.4806 7.48953 43.7578 7.2984 43.9688C7.10728 44.1798 6.84142 44.308 6.55727 44.3262C6.27254 44.3357 5.99529 44.234 5.7843 44.0426C5.5733 43.8513 5.44515 43.5853 5.42698 43.301ZM60.6667 62.722C60.6765 62.4373 60.7971 62.1676 61.0028 61.9704C61.2085 61.7732 61.483 61.664 61.768 61.6661C62.0532 61.6741 62.3239 61.7942 62.5212 62.0003C62.7186 62.2064 62.8267 62.4819 62.8223 62.7672C62.8148 63.0524 62.6951 63.3231 62.4893 63.5208C62.2835 63.7184 62.0081 63.827 61.7228 63.8231C61.438 63.8133 61.1683 63.6927 60.971 63.487C60.7738 63.2814 60.6646 63.0069 60.6667 62.722ZM48.7524 62.7328C48.7572 62.4483 48.8736 62.1769 49.0766 61.9774C49.2796 61.7778 49.5528 61.666 49.8375 61.6661C50.1222 61.6708 50.3935 61.7872 50.5931 61.9901C50.7927 62.1931 50.9046 62.4663 50.9045 62.7509C50.9003 63.0358 50.784 63.3076 50.581 63.5076C50.378 63.7075 50.1044 63.8196 49.8195 63.8195C49.5345 63.8148 49.2629 63.6981 49.0632 63.4948C48.8636 63.2915 48.7519 63.0178 48.7524 62.7328ZM32.5106 61.6661C32.7952 61.6708 33.0666 61.7872 33.2662 61.9901C33.4658 62.1931 33.5776 62.4663 33.5776 62.7509C33.5728 63.0355 33.4564 63.3068 33.2535 63.5064C33.0505 63.7059 32.7772 63.8178 32.4925 63.8177C32.2079 63.813 31.9365 63.6966 31.7369 63.4936C31.5373 63.2907 31.4254 63.0175 31.4255 62.7328C31.4302 62.4483 31.5467 62.1769 31.7496 61.9774C31.9526 61.7778 32.2259 61.666 32.5106 61.6661ZM15.1493 61.6661C15.4342 61.666 15.7078 61.7781 15.9108 61.978C16.1139 62.178 16.2301 62.4498 16.2343 62.7347C16.2344 63.0193 16.1226 63.2925 15.923 63.4955C15.7234 63.6984 15.452 63.8148 15.1674 63.8195C14.8824 63.8196 14.6088 63.7075 14.4058 63.5076C14.2028 63.3076 14.0866 63.0358 14.0823 62.7509C14.0823 62.4648 14.1954 62.1902 14.3969 61.987C14.5984 61.7838 14.8721 61.6684 15.1583 61.6661H15.1493ZM3.22242 61.6661C3.50806 61.6617 3.78394 61.7701 3.99013 61.9678C4.19632 62.1655 4.31621 62.4365 4.32379 62.722C4.32585 63.0069 4.21665 63.2814 4.01941 63.487C3.82217 63.6927 3.55243 63.8133 3.26763 63.8231C2.9823 63.827 2.70691 63.7184 2.50111 63.5208C2.2953 63.3231 2.17569 63.0524 2.16811 62.7672C2.16376 62.4798 2.27367 62.2024 2.47373 61.9959C2.67379 61.7895 2.94761 61.6708 3.23509 61.6661H3.22242Z" fill="#E43B5C"/>
<path d="M22.7528 34.0652C22.7528 36.6147 22.7872 39.1641 22.7366 41.7118C22.7113 43.0064 23.2574 43.9104 24.2846 44.6048C25.5849 45.4763 27.0534 45.8976 28.5725 46.1543C32.1424 46.7582 35.6708 46.666 39.1068 45.4166C39.7152 45.1823 40.2947 44.8789 40.8339 44.5125C41.8032 43.8779 42.2698 42.9847 42.2626 41.7787C42.2301 36.634 42.2301 31.4905 42.2626 26.3482C42.2626 25.1133 41.7761 24.2309 40.7995 23.5565C39.4703 22.6398 37.9585 22.2058 36.3959 21.94C32.9599 21.3578 29.569 21.4536 26.2414 22.5512C25.6865 22.7404 25.1512 22.9826 24.6427 23.2744C23.3768 23.9977 22.6787 25.0084 22.7293 26.5688C22.8125 29.0568 22.7528 31.561 22.7528 34.0652ZM32.4933 28.1563C31.3521 28.0406 30.2038 27.9755 29.0716 27.7947C27.7569 27.5886 26.4602 27.2631 25.3534 26.4639C24.7874 26.0571 24.7765 25.7606 25.3534 25.379C25.8341 25.046 26.3587 24.7813 26.9123 24.5925C30.5455 23.4363 34.4482 23.4363 38.0814 24.5925C38.6909 24.7733 39.2497 25.1585 39.7995 25.4966C40.1612 25.7244 40.1612 26.0824 39.7995 26.3211C39.3401 26.6424 38.8486 26.9151 38.3328 27.1347C36.4647 27.8779 34.4934 28.0677 32.4933 28.1563ZM40.0888 28.8199V29.7547C40.0888 31.872 39.9568 32.051 37.8915 32.729C37.8065 32.758 37.7233 32.7923 37.6365 32.8176C35.0272 33.5722 32.2811 33.7274 29.6033 33.2715C28.2886 33.0527 27.0136 32.5645 25.7495 32.1143C25.4203 31.9986 25.0116 31.599 24.9682 31.2844C24.8561 30.4798 24.9302 29.6571 24.9302 28.8434C30.0138 30.7311 35.0161 30.7564 40.0816 28.8199H40.0888ZM40.0888 34.2443V35.1483C40.0888 37.3018 39.9532 37.4862 37.859 38.1679C37.7523 38.204 37.6456 38.2348 37.5371 38.2673C34.9475 39.0069 32.2243 39.1522 29.5708 38.6922C28.256 38.468 26.9811 37.978 25.7187 37.5242C25.3968 37.4085 25.0098 36.9962 24.9646 36.6762C24.8561 35.8878 24.9302 35.0742 24.9302 34.2587C29.9831 36.1572 34.9853 36.1645 40.0816 34.2406L40.0888 34.2443ZM24.9248 39.6686C30.0156 41.5834 35.0378 41.5852 40.0599 39.6686C40.2408 42.5851 40.0002 42.9684 37.5281 43.6772C34.9818 44.4038 32.3057 44.5551 29.6938 44.1202C28.3356 43.8996 27.019 43.3861 25.7061 42.9359C25.1382 42.7406 24.8489 42.2741 24.914 41.6015C24.9664 40.9759 24.9176 40.3394 24.9176 39.6632L24.9248 39.6686Z" fill="#E43B5C"/>
</svg>
