<svg width="75" height="66" viewBox="0 0 75 66" fill="none" xmlns="http://www.w3.org/2000/svg">
<g clip-path="url(#clip0_696_131)">
<path d="M15.1758 54.4873C15.1489 51.7603 15.4492 49.04 16.0701 46.3857C16.2157 45.7416 16.088 45.4634 15.4211 45.2508C11.937 44.1417 8.59737 42.7028 5.60905 40.5373C4.29056 39.5827 3.08577 38.5006 2.15951 37.1326C0.195825 34.2276 0.361905 31.1875 2.62966 28.4861C4.54607 26.2098 6.95053 24.6034 9.59518 23.3732C11.5231 22.4715 13.5276 21.7436 15.5194 20.9952C16.0445 20.7981 16.1391 20.5791 16.0305 20.0587C15.2869 16.498 14.781 12.913 15.1477 9.25962C15.3444 7.30283 15.7545 5.40529 16.7447 3.67394C18.2855 0.979008 20.6746 0.0669685 23.6131 0.400614C26.4954 0.732972 29.0595 1.96321 31.4065 3.58635C33.3152 4.90418 35.1039 6.40108 36.9142 7.85805C37.3422 8.20329 37.5824 8.25739 38.013 7.85805C40.8237 5.26102 43.83 2.93966 47.3766 1.4724C48.7081 0.907046 50.1105 0.529068 51.5442 0.349083C55.0831 -0.0502615 57.6306 1.67851 58.852 5.06005C59.8946 7.94692 60.0619 10.9381 59.786 13.9487C59.5969 16.0098 59.22 18.0709 58.8814 20.1192C58.7997 20.6113 58.9109 20.8007 59.3721 20.9437C62.7437 21.9923 65.9658 23.3784 68.9017 25.3764C70.3186 26.3412 71.6179 27.4491 72.6425 28.8468C74.8145 31.8097 74.7097 34.989 72.3436 37.8102C70.4923 40.0169 68.1709 41.6052 65.6017 42.8007C63.6163 43.7243 61.558 44.4934 59.5151 45.2856C59.0168 45.4776 58.8764 45.6592 58.9965 46.2105C59.7732 49.8175 60.2344 53.4438 59.8678 57.1384C59.7042 58.7899 59.3567 60.4002 58.64 61.9125C57.2832 64.7942 55.0128 66.1391 51.8597 65.906C49.2674 65.714 46.9741 64.6512 44.7562 63.3823C42.3556 62.0091 40.1849 60.3177 38.1574 58.4421C37.7025 58.0208 37.4508 57.9912 36.9756 58.4292C34.2479 60.9476 31.303 63.1634 27.9046 64.6963C26.42 65.3662 24.8792 65.8402 23.2438 65.9704C20.1942 66.2125 17.7885 64.811 16.4904 62.0194C15.6651 60.243 15.3022 58.3545 15.177 56.4144C15.1387 55.7768 15.1758 55.1314 15.1758 54.4873ZM37.4662 45.2534C39.4771 45.1594 41.5379 45.0537 43.5987 44.9726C43.809 44.9749 44.0163 44.9216 44.1999 44.8181C44.3834 44.7146 44.5369 44.5645 44.6451 44.3826C46.9779 40.9208 49.0385 37.2804 50.8082 33.4947C50.9062 33.2683 50.9131 33.0124 50.8274 32.781C49.0347 28.9352 46.9144 25.2534 44.4905 21.7771C44.314 21.5498 44.0571 21.4003 43.7737 21.3597C39.615 21.0119 35.4349 21.0119 31.2762 21.3597C30.9488 21.4012 30.6506 21.5705 30.4457 21.8312C28.0566 25.3055 25.9645 28.978 24.1918 32.8093C24.0958 33.036 24.0912 33.2916 24.1791 33.5217C25.9612 37.3484 28.069 41.012 30.479 44.4715C30.6966 44.7413 31.0111 44.9135 31.3541 44.9507C33.3702 45.0847 35.3913 45.1619 37.4649 45.2534H37.4662ZM18.2203 53.9771L18.4311 54.0029C18.4311 54.6895 18.3877 55.3787 18.4388 56.064C18.5768 57.9139 18.8297 59.7406 19.8825 61.3367C20.0886 61.6633 20.3586 61.944 20.6761 62.1617C20.9935 62.3795 21.3517 62.5296 21.7286 62.603C22.9462 62.8606 24.1139 62.6107 25.2395 62.2165C28.9445 60.9103 31.9763 58.5194 34.8484 55.9043C34.9544 55.8077 34.9557 55.4135 34.8484 55.286C32.9745 52.9852 31.0807 50.6991 29.1668 48.4275C28.9877 48.2287 28.7498 48.0932 28.4884 48.0411C25.6419 47.5258 22.7903 47.0543 19.9451 46.5378C19.5401 46.4643 19.3523 46.5133 19.2884 46.9422C18.9396 49.2842 18.5768 51.6287 18.219 53.9771H18.2203ZM71.1005 33.1906L70.9599 33.1005C70.9157 32.8264 70.8565 32.555 70.7824 32.2876C70.3582 30.9994 69.4677 30.0423 68.4609 29.2036C65.5045 26.7444 62.0397 25.2901 58.4432 24.0998C57.9948 23.9516 57.913 24.1951 57.7903 24.5352C56.7964 27.2726 55.7794 29.9997 54.7931 32.7398C54.7153 32.9951 54.7216 33.269 54.811 33.5204C55.8075 36.2553 56.8373 38.9785 57.8262 41.716C57.9897 42.1707 58.1775 42.2944 58.6106 42.1025C60.8171 41.1543 63.0695 40.299 65.2248 39.2452C67.1054 38.3228 68.8199 37.0862 70.0554 35.3342C70.5064 34.6965 70.7517 33.9107 71.0992 33.1906H71.1005ZM4.04142 33.2576C4.11223 33.5914 4.20309 33.9205 4.31354 34.2431C4.77092 35.4179 5.62054 36.2965 6.55958 37.0772C9.49808 39.5247 12.9476 40.9688 16.516 42.1591C16.866 42.2751 17.0411 42.1926 17.1765 41.8152C18.1756 39.0365 19.2053 36.2669 20.2095 33.4895C20.2806 33.2764 20.2806 33.0457 20.2095 32.8325C19.1977 30.0577 18.1564 27.2932 17.1535 24.5146C16.9976 24.0817 16.8226 23.9825 16.4138 24.1448C14.8116 24.7799 13.1648 25.3171 11.6074 26.0475C9.28983 27.1361 7.06552 28.4088 5.34713 30.3875C4.66234 31.1707 4.12063 32.0351 4.04014 33.2576H4.04142ZM55.561 19.8036C55.6248 19.6104 55.6887 19.4751 55.7155 19.3334C56.2764 16.7029 56.6457 14.0517 56.6009 11.3465C56.5716 9.55847 56.4029 7.78977 55.7424 6.1048C54.9541 4.09777 53.7097 3.2862 51.6029 3.66622C50.3485 3.89142 49.127 4.27398 47.9669 4.80499C45.0565 6.14988 42.5792 8.15433 40.2003 10.2876C39.8528 10.5993 39.9729 10.781 40.2156 11.0708C42.0656 13.2853 43.8925 15.5203 45.7514 17.7257C45.9821 17.9857 46.29 18.1633 46.6292 18.232C48.7462 18.6004 50.8734 18.9121 52.993 19.2625C53.8451 19.4158 54.6896 19.622 55.5596 19.8036H55.561ZM39.9614 55.5552C40.0012 55.6347 40.0491 55.7099 40.1045 55.7793C42.6354 58.0981 45.3324 60.1773 48.4651 61.6136C49.7108 62.1856 51.0101 62.5837 52.3963 62.6249C53.7544 62.6661 54.8646 62.1753 55.4076 60.891C55.8612 59.8179 56.2649 58.683 56.4387 57.5416C56.9868 53.9488 56.5 50.4011 55.7526 46.8791C55.6402 46.351 55.3463 46.4695 54.9963 46.5326C52.2124 47.026 49.4233 47.4962 46.6432 48.0127C46.2849 48.0957 45.9631 48.2937 45.7259 48.577C44.7038 49.8162 43.7622 51.1122 42.7465 52.3514C41.8535 53.4348 40.903 54.4744 39.9614 55.5552ZM35.0732 10.6998C34.9864 10.5857 34.8934 10.4764 34.7947 10.3726C32.6598 8.42484 30.3959 6.64841 27.8458 5.2842C26.1082 4.35411 24.3068 3.59149 22.2742 3.65848C21.1959 3.69455 20.2849 4.0939 19.7828 5.06521C19.3446 5.91156 18.937 6.81202 18.7428 7.73695C17.9137 11.6621 18.4413 15.5422 19.2667 19.403C19.3689 19.8822 19.6499 19.7894 19.9834 19.7263C22.766 19.2303 25.555 18.7601 28.3351 18.2487C28.6748 18.1824 28.9843 18.0076 29.2179 17.7502C30.6744 15.9892 32.0862 14.1909 33.5299 12.4196C34.0102 11.8283 34.5456 11.2821 35.0719 10.6998H35.0732ZM37.5007 12.9774C36.0248 14.478 34.6584 16.0843 33.4123 17.7837H41.6529L37.5007 12.9774ZM41.5712 48.6143L41.4587 48.4675H33.3178L37.5403 53.3472L41.5712 48.6143ZM22.1234 28.9177L22.3253 28.897L26.3472 21.8274L20.1163 23.0486C20.8177 25.0968 21.4718 27.0072 22.1247 28.9177H22.1234ZM48.6235 44.4521L54.8698 43.1987C54.1581 41.1376 53.4976 39.2194 52.7834 37.1441L48.6235 44.4521ZM54.8238 23.0383L48.621 21.8299L52.7885 29.0594L54.8238 23.0383ZM22.3061 37.4018L22.1183 37.3812C21.5263 39.1847 20.9339 40.9912 20.3411 42.8007C20.221 43.1678 20.4612 43.2451 20.7244 43.3044C21.491 43.4731 22.2575 43.6612 23.0318 43.8106C24.0871 44.0129 25.1488 44.1868 26.3459 44.3968C24.9482 41.9685 23.6284 39.6858 22.3074 37.4018H22.3061Z" fill="#E43C5C"/>
<path d="M37.4575 39.986C35.6569 39.9822 33.9311 39.2594 32.6577 37.9758C31.3844 36.6921 30.6672 34.9521 30.6632 33.1366C30.6465 29.3763 33.7524 26.2588 37.5137 26.2627C41.2315 26.2627 44.2978 29.3686 44.2953 33.1275C44.2978 34.032 44.1224 34.9279 43.7793 35.7636C43.4361 36.5992 42.9319 37.3579 42.296 37.9957C41.6601 38.6336 40.905 39.1379 40.0745 39.4795C39.2439 39.8212 38.3544 39.9933 37.4575 39.986Z" fill="#E43C5C"/>
</g>
<defs>
<clipPath id="clip0_696_131">
<rect width="73.4062" height="65.7063" fill="white" transform="translate(0.796875 0.293945)"/>
</clipPath>
</defs>
</svg>
