<svg width="131" height="131" viewBox="0 0 131 131" fill="none" xmlns="http://www.w3.org/2000/svg">
<path d="M64.1642 57.6484C57.7229 57.6015 51.2779 57.6232 44.8366 57.6232H43.2876V92.161H60.4957C60.4957 95.1198 60.4958 97.9811 60.4633 100.839C60.4633 101.077 60.0408 101.315 59.8098 101.56C58.8385 102.531 57.8744 103.505 56.8887 104.447C56.6035 104.721 56.2533 105.136 55.9284 105.136C47.4218 105.176 38.9115 105.169 30.2533 105.169V96.563H21.6745V83.5735H30.1558V61.9927H21.6565V49.0031H30.1956V40.4119H38.8213V48.8877H60.4416V27.4729H38.9188V35.9414H30.2931V27.4548H8.67993V48.931H17.1793V61.9205H8.70523V83.5049H17.154V96.4945H8.68355V118.036H30.1956V109.488H31.517C39.4603 109.488 47.3748 109.488 55.3037 109.488C56.145 109.488 56.636 109.65 57.0765 110.487C57.6974 111.647 58.6647 112.585 59.8437 113.17C61.0227 113.756 62.3549 113.959 63.655 113.753C65.0205 113.526 66.2802 112.876 67.2554 111.894C68.2306 110.912 68.8721 109.649 69.089 108.283C69.2821 106.982 69.0667 105.653 68.4724 104.479C67.8781 103.306 66.9343 102.345 65.7709 101.73C65.4485 101.602 65.1784 101.369 65.0037 101.07C64.829 100.77 64.7597 100.421 64.8069 100.077C64.8574 97.5156 64.8249 94.9538 64.8249 92.2007H82.098V62.9056C80.0905 63.6272 80.0797 63.4685 77.6714 64.2839H77.7328V87.8059H47.6023V62.0216H64.9332L64.9802 62.0937C65.0343 61.0277 65.1549 59.966 65.3412 58.9149C65.4917 58.0434 65.6856 57.1799 65.9225 56.3278L65.8901 56.436C65.5795 57.3634 65.1426 57.6556 64.1642 57.6484ZM43.2804 31.7594H56.0727V44.6047H43.2804V31.7594ZM13.0199 44.5506V31.7486H25.8267V44.5506H13.0199ZM12.9947 79.1895V66.3767H25.8015V79.175L12.9947 79.1895ZM25.7906 113.727H12.9802V100.918H25.7906V113.727ZM62.7308 105.19C63.1603 105.201 63.5769 105.338 63.9279 105.586C64.2789 105.833 64.5484 106.18 64.702 106.581C64.8556 106.982 64.8863 107.419 64.7905 107.838C64.6946 108.256 64.4765 108.637 64.1636 108.931C63.8508 109.225 63.4575 109.42 63.0337 109.49C62.6099 109.561 62.1748 109.503 61.7836 109.326C61.3924 109.149 61.0627 108.859 60.8366 108.494C60.6105 108.129 60.4982 107.705 60.5138 107.276C60.5308 106.704 60.7735 106.162 61.1889 105.769C61.6042 105.375 62.1586 105.162 62.7308 105.176V105.19Z" fill="#E43C5C"/>
<path d="M58.0441 78.2587L53.5057 73.3155L50.5811 76.2598L58.38 84.0644L74.8227 67.6361L73.0824 65.832C71.9631 66.063 71.9234 65.9619 70.0314 66.3227C66.1356 70.1908 62.2 74.1201 58.0441 78.2587Z" fill="#004999"/>
<path d="M86.2501 61.2098L86.3404 61.1737V126.699H4.37962V18.8132H86.4487C86.4487 21.9524 86.4776 25.0879 86.4126 28.2198C86.3856 28.4648 86.2834 28.6955 86.1201 28.8801C87.8112 27.487 89.3605 25.9303 90.7453 24.2328V14.4797H0V131H90.7814V129.297C90.7814 105.439 90.7742 81.583 90.7598 57.7279C90.7413 57.1726 90.8736 56.6228 91.1425 56.1366C90.6515 56.9088 89.2289 59.5572 86.2501 61.2098Z" fill="#004999"/>
<path d="M127.083 19.0551C127.534 18.6041 127.992 18.1566 128.404 17.6731C129.386 16.5367 130.117 15.206 130.549 13.7679C130.981 12.3299 131.104 10.817 130.911 9.32801C130.718 7.83905 130.212 6.40761 129.427 5.12727C128.643 3.84693 127.596 2.74653 126.357 1.898C122.064 -1.086 116.449 -0.519508 112.517 3.38458C105.433 10.4182 98.3686 17.4723 91.3231 24.5468C91.0162 24.8535 90.684 25.1349 90.1713 25.604C88.8614 27.2063 87.3968 28.6759 85.7988 29.9916C85.6633 30.1649 85.5161 30.3289 85.3584 30.4823C80.5635 35.2993 75.736 40.0874 70.9592 44.9152C70.3815 45.5191 69.9386 46.2385 69.6595 47.026C68.6244 49.9559 67.6459 52.9098 66.724 55.8878C66.4991 56.6908 66.3159 57.505 66.1752 58.3269C66.0051 59.319 65.8942 60.3202 65.843 61.3254C67.6194 64.2372 67.6483 64.248 70.6198 65.2944C72.4071 64.9552 72.4432 65.049 73.5083 64.8326L77.8411 63.3893C80.1157 62.6171 80.123 62.7542 82.0185 62.0867L85.9325 60.4883C88.7451 58.9259 90.0846 56.429 90.5395 55.7146C90.6438 55.5353 90.7647 55.3662 90.9006 55.2094C91.181 54.8683 91.4915 54.5531 91.8285 54.2677C103.594 42.5386 115.346 30.801 127.083 19.0551ZM116.518 5.37271C119.045 3.1717 122.963 3.78149 125.248 6.32167C126.335 7.51275 126.938 9.06661 126.938 10.6786C126.938 12.2906 126.335 13.8444 125.248 15.0355C123.19 17.2365 120.973 19.286 118.858 21.3752L109.788 12.3185C111.976 10.0417 114.066 7.49795 116.518 5.37271ZM106.462 15.4108L115.583 24.6478L112.694 27.4334L103.563 18.1999L106.462 15.4108ZM100.642 21.5448L103.314 24.2906L77.8772 49.6997L75.1801 46.9899C83.5374 38.6309 92.0248 30.1455 100.642 21.5339V21.5448ZM71.7175 61.0872C70.7101 61.4011 69.5909 60.5712 69.8544 59.6439C70.6993 56.6816 71.7103 53.7697 72.6237 50.9337C75.1512 53.4594 77.5739 55.8914 80.0183 58.345C77.3103 59.2434 74.5229 60.2176 71.7175 61.0872ZM84.1019 55.8878C83.1848 54.9965 82.1449 53.979 81.1881 53.0445L106.607 27.6462L109.524 30.4895L84.1019 55.8878Z" fill="#004999"/>
</svg>
