<svg width="68" height="68" viewBox="0 0 68 68" fill="none" xmlns="http://www.w3.org/2000/svg">
<g clip-path="url(#clip0_789_1077)">
<path d="M17.4894 35.4924H13.5803V36.3559C13.5803 41.0571 13.5803 45.7584 13.5803 50.4596C13.5803 52.65 12.9093 53.7438 10.8905 54.5151C10.0482 54.8375 9.65982 55.2491 9.50849 56.1932C9.35272 57.1003 8.89349 57.9264 8.20722 58.5338C7.52094 59.1413 6.649 59.4936 5.73649 59.532C4.82119 59.5978 3.90966 59.3601 3.14088 58.8551C2.3721 58.3501 1.78824 57.6055 1.47835 56.7349C1.16845 55.8642 1.14952 54.9153 1.42442 54.0328C1.69933 53.1504 2.25298 52.3827 3.00099 51.8469C3.7512 51.3014 4.66102 51.0249 5.58533 51.0614C6.50965 51.0979 7.39521 51.4454 8.10077 52.0484C8.23729 52.2018 8.42371 52.3008 8.62636 52.3278C8.82901 52.3547 9.03454 52.3077 9.20581 52.1952C9.50849 52.0369 9.8797 51.9793 10.1281 51.7692C10.3765 51.5591 10.7335 51.1936 10.7335 50.8856C10.7706 45.8399 10.7592 40.8115 10.7535 35.7515C10.737 35.6529 10.7102 35.5565 10.6735 35.4636C9.95109 35.4344 9.22765 35.444 8.50625 35.4924C8.28638 35.5154 8.05508 35.8522 7.90946 36.094C6.95575 37.6569 5.58514 38.4628 3.7691 38.2671C2.02729 38.0771 0.822303 37.0755 0.236941 35.4089C-0.0962976 34.4251 -0.0570012 33.3519 0.347279 32.3955C0.751559 31.4391 1.49228 30.6672 2.42704 30.228C3.35493 29.7647 4.42283 29.6744 5.41433 29.9753C6.40582 30.2762 7.24675 30.9458 7.76669 31.8485C8.14646 32.5306 8.56335 32.6976 9.24579 32.6342C9.71123 32.5882 10.1852 32.6342 10.7706 32.6342V31.8341C10.7706 27.0791 10.7563 22.3357 10.7877 17.5721C10.7877 16.8093 10.5022 16.4466 9.83973 16.1329C9.05163 15.776 8.47768 15.7012 7.68958 16.3114C6.20477 17.4627 4.09462 17.2238 2.68404 15.9717C1.99773 15.369 1.52408 14.5579 1.33432 13.6605C1.14456 12.7631 1.24893 11.8279 1.63175 10.9954C2.01457 10.1629 2.65515 9.47823 3.45717 9.04425C4.25918 8.61027 5.17929 8.45048 6.07914 8.58888C7.00851 8.72079 7.86575 9.16728 8.51019 9.85506C9.15462 10.5428 9.54794 11.431 9.62557 12.3738C9.67126 12.9265 9.86828 13.1654 10.3423 13.3122C10.6278 13.4043 10.9134 13.5568 11.1989 13.6777C12.8151 14.3455 13.5775 15.5832 13.5775 17.3216C13.5775 22.1035 13.5775 26.8834 13.5775 31.6614V32.568H17.4865V31.6355C17.4865 22.3903 17.5322 13.1452 17.458 3.9001C17.438 1.56004 18.8857 -0.0201534 21.3271 -0.00576188C31.2068 0.0546826 41.0838 0.0201506 50.9635 0.0201506H51.8887V1.05922C51.8887 4.25701 51.8887 7.45193 51.8887 10.6469C51.8887 13.9799 53.8703 15.9487 57.1826 15.9487H67.0595C67.0738 16.3027 67.0995 16.5848 67.0995 16.864C67.0995 32.6352 67.0995 48.4045 67.0995 64.1719C67.0995 66.6961 65.8317 67.9914 63.3418 67.9914C49.2988 67.9914 35.2549 67.9914 21.21 67.9914C18.7601 67.9914 17.498 66.6932 17.498 64.2237C17.498 54.9785 17.498 45.7344 17.498 36.4912L17.4894 35.4924ZM51.7002 54.5123C51.546 54.4921 51.4689 54.4691 51.3918 54.4691C44.4037 54.5075 37.4164 54.5477 30.4302 54.59C30.0919 54.5947 29.7591 54.6764 29.4565 54.8289C28.3857 55.3844 27.3349 55.9802 26.2869 56.5702C25.673 56.9214 25.6902 57.1891 26.3383 57.5517C27.1891 58.0684 28.0659 58.5402 28.9653 58.965C29.6182 59.2761 30.3256 59.4541 31.0469 59.4888C36.8806 59.4888 42.7171 59.4457 48.5535 59.414C49.5901 59.414 50.6266 59.414 51.6945 59.414L51.7002 54.5123ZM42.3658 35.5989C47.4713 35.5989 52.5778 35.5989 57.6852 35.5989C58.6731 35.5989 59.3242 34.9973 59.3013 34.1597C59.2785 33.3222 58.6532 32.7983 57.7052 32.7667C57.5738 32.7667 57.4425 32.7667 57.3111 32.7667H27.2978C27.0116 32.7515 26.7247 32.765 26.4412 32.8069C26.2287 32.8473 26.0285 32.9369 25.8564 33.0687C25.6842 33.2005 25.5449 33.3709 25.4493 33.5663C25.3538 33.7618 25.3046 33.9769 25.3058 34.1948C25.3069 34.4127 25.3584 34.6273 25.456 34.8218C25.7901 35.4694 26.3755 35.6047 27.0494 35.6018C32.151 35.5941 37.2565 35.5922 42.3658 35.596V35.5989ZM42.3658 39.3839H27.3634C27.1007 39.3839 26.838 39.3839 26.5782 39.3839C26.2509 39.4096 25.9435 39.5522 25.7112 39.7859C25.4788 40.0197 25.3368 40.3293 25.3106 40.6591C25.2845 40.989 25.3759 41.3174 25.5685 41.5854C25.7611 41.8534 26.0421 42.0434 26.3612 42.1211C26.6951 42.1856 27.0351 42.2126 27.3749 42.2017H57.2283C57.5138 42.2017 57.8508 42.2679 58.0849 42.1413C58.4932 41.9139 58.9844 41.6376 59.1757 41.2519C59.6468 40.2963 58.8902 39.3752 57.6966 39.3724C52.5835 39.3743 47.4742 39.3772 42.3687 39.381L42.3658 39.3839ZM42.283 28.9961H57.2083C58.636 28.9961 59.3242 28.5096 59.3013 27.5569C59.2785 26.6042 58.616 26.1839 57.2283 26.1839H27.3777C27.0919 26.1751 26.8057 26.1847 26.5211 26.2127C26.192 26.2445 25.886 26.3974 25.6617 26.6422C25.4373 26.8869 25.3102 27.2064 25.3047 27.5396C25.2886 27.886 25.4034 28.2257 25.626 28.4901C25.8485 28.7545 26.1623 28.924 26.504 28.9644C26.8161 28.9952 27.1299 29.0057 27.4434 28.9961H42.283ZM42.283 48.8074H57.2083C58.636 48.8074 59.3213 48.321 59.2985 47.3683C59.2756 46.4156 58.6075 45.9953 57.2226 45.9953H27.3777C27.0919 45.9864 26.8057 45.996 26.5211 46.0241C26.1855 46.0621 25.8755 46.2234 25.6504 46.4772C25.4252 46.731 25.3008 47.0595 25.3008 47.4C25.3008 47.7404 25.4252 48.0689 25.6504 48.3227C25.8755 48.5765 26.1855 48.7378 26.5211 48.7758C26.8332 48.8075 27.147 48.8191 27.4605 48.8103L42.283 48.8074ZM42.9598 14.3167C42.303 13.9368 41.7005 13.5741 41.0866 13.2344C40.2557 12.7739 39.459 12.9466 39.045 13.6691C38.6309 14.3915 38.8708 15.1629 39.6989 15.6839C40.5269 16.2049 41.455 16.7316 42.3344 17.2468C43.5051 17.9347 44.0962 17.7994 44.8186 16.6568C46.096 14.6343 47.3695 12.6079 48.6392 10.5778C49.3588 9.42646 49.3188 8.59175 48.5193 8.0938C47.7197 7.59585 47.0002 7.88943 46.2549 9.07817C45.1727 10.8023 44.0848 12.535 42.9655 14.3138L42.9598 14.3167ZM30.9898 15.7875C32.4175 15.7875 33.8196 15.7875 35.2358 15.7875C36.181 15.7875 36.812 15.2118 36.832 14.4002C36.852 13.5885 36.1953 12.961 35.2101 12.961C32.4309 12.9495 29.6535 12.9495 26.878 12.961C25.9215 12.961 25.3075 13.5367 25.2933 14.3512C25.279 15.1658 25.9015 15.7904 26.9037 15.7904C28.2715 15.7933 29.6335 15.7846 30.9955 15.7846L30.9898 15.7875ZM31.0384 22.4076C32.4804 22.4076 33.9224 22.4364 35.3615 22.4076C35.5525 22.4134 35.7428 22.3804 35.921 22.3107C36.0992 22.241 36.2617 22.1359 36.3988 22.0017C36.536 21.8675 36.645 21.7068 36.7194 21.5294C36.7938 21.3519 36.8321 21.1611 36.832 20.9685C36.832 20.1827 36.2038 19.5984 35.3186 19.5955C32.4632 19.5955 29.6078 19.5955 26.7524 19.5955C26.0014 19.5955 25.5017 19.9495 25.3247 20.7008C25.1162 21.6449 25.7673 22.3932 26.8637 22.4278C28.2686 22.422 29.6564 22.399 31.0441 22.399L31.0384 22.4076ZM31.0384 9.1674C32.4261 9.1674 33.8138 9.1674 35.2016 9.1674C36.2095 9.1674 36.8492 8.59175 36.8406 7.75704C36.832 6.92233 36.2238 6.36394 35.2587 6.35819C32.4547 6.339 29.6516 6.339 26.8495 6.35819C25.8872 6.35819 25.2904 6.95975 25.299 7.79734C25.3075 8.63493 25.91 9.17317 26.8752 9.18181C28.26 9.17605 29.6478 9.1674 31.0355 9.1674H31.0384ZM54.5956 54.4604V59.3823C55.4208 59.3823 56.1804 59.4198 56.9342 59.3823C57.549 59.3366 58.1236 59.0574 58.542 58.601C58.9604 58.1446 59.1913 57.5451 59.188 56.9237C59.1848 56.3023 58.9476 55.7053 58.5245 55.2534C58.1013 54.8015 57.5237 54.5284 56.9085 54.4892C56.1632 54.4259 55.4037 54.4604 54.5956 54.4604Z" fill="#E33B5C"/>
<path d="M66.303 13.1193H60.989C59.6013 13.1193 58.2107 13.1337 56.823 13.1193C55.5866 13.0992 54.7471 12.3594 54.7271 11.1275C54.6814 7.8549 54.7071 4.57939 54.71 1.30675C54.71 1.23479 54.7671 1.16571 54.8356 1.01892L66.303 13.1193Z" fill="#E33B5C"/>
</g>
<defs>
<clipPath id="clip0_789_1077">
<rect width="67.1053" height="68" fill="white"/>
</clipPath>
</defs>
</svg>
