<svg width="91" height="92" viewBox="0 0 91 92" fill="none" xmlns="http://www.w3.org/2000/svg">
<path d="M80.7111 91.003H0.0896477C0.0674097 90.5315 0.0251761 90.06 0.0251761 89.5885C0.0251761 66.7118 0.0251761 43.8358 0.0251761 20.9605C0.0251761 18.9944 -0.172743 19.1923 1.7753 19.1923C22.8435 19.1923 43.9118 19.1923 64.98 19.1923C66.5789 19.1923 66.5789 19.1923 66.9548 17.68C69.0918 9.06171 79.408 5.50098 86.3774 10.9722C88.9169 12.9738 90.3491 15.616 90.9984 18.7342V80.7034C90.6448 82.1735 90.2312 83.6169 89.4551 84.9291C87.4715 88.3141 84.4916 90.2357 80.7111 91.003ZM41.9281 88.1585C53.9366 88.1585 65.9511 88.1585 77.9714 88.1585C78.8589 88.1937 79.7476 88.1476 80.6266 88.0206C84.6784 87.2733 88.4611 83.3167 88.1431 78.1235C87.8073 72.6056 81.9365 68.282 76.6216 69.7966C76.0011 69.9745 75.7565 70.2858 75.7788 70.9286C75.8166 71.9939 75.7788 73.0593 75.7788 74.1246C75.7788 77.9433 75.7654 81.7598 75.7899 85.5785C75.7899 86.3258 75.5675 86.6639 74.7758 86.6305C73.4416 86.5749 72.1073 86.4192 70.9131 85.7787C67.9999 84.2219 66.5945 81.7754 66.5945 78.4882C66.5945 60.1975 66.5945 41.9075 66.5945 23.6182C66.5945 22.1081 66.5945 22.1059 65.0667 22.1059H4.53059C2.94947 22.1059 2.94725 22.1059 2.94725 23.6627C2.94725 44.6475 2.94725 65.6279 2.94725 86.6038C2.94725 88.1407 2.94723 88.1429 4.46386 88.1429L41.9281 88.1585ZM88.023 70.655C88.2076 70.2102 88.1364 69.8099 88.1364 69.4318C88.1364 55.7909 88.1364 42.1499 88.1364 28.509C88.1364 25.7289 88.1764 22.9488 88.1097 20.1643C87.9741 14.6041 82.6147 10.3984 77.1553 11.4148C73.1147 12.1687 69.4587 15.9741 69.4899 21.0428C69.5877 37.2584 69.5255 53.4741 69.5321 69.692C69.5321 69.9945 69.412 70.337 69.6811 70.6106C74.8514 65.2483 82.8705 65.295 88.023 70.655ZM72.7678 71.7515C70.5128 73.8755 69.432 76.2552 69.5544 79.1465C69.63 80.8791 70.4706 82.1668 71.9494 83.0387C72.7122 83.4835 72.8389 83.4078 72.8389 82.5116C72.8389 79.2036 72.8389 75.8964 72.8389 72.59C72.8456 72.3898 72.81 72.1919 72.7678 71.7515Z" fill="#004999"/>
<path d="M35.8664 0.0139199H61.2577C64.1197 0.0139199 65.6586 1.41286 65.8921 4.23965C66.0026 5.56743 65.9862 6.90273 65.8432 8.2274C65.7353 9.1776 65.2982 10.06 64.6076 10.7214C63.917 11.3829 63.0166 11.7815 62.0627 11.8482C61.7091 11.8704 61.3511 11.8615 60.9975 11.8615C44.1308 11.8615 27.2633 11.8652 10.3951 11.8726C9.59796 11.8874 8.8103 11.6983 8.10676 11.3233C5.70357 10.0482 3.28631 8.79825 0.85496 7.57353C0.252311 7.26883 -0.0189845 6.89296 0.00102967 6.1946C0.0210438 5.49625 0.0944031 4.98026 0.808242 4.60217C3.36561 3.23882 5.89409 1.81541 8.42254 0.39646C8.9422 0.114392 9.52855 -0.0216453 10.1193 0.00279889C18.7032 0.0161433 27.2855 0.0198507 35.8664 0.0139199ZM33.031 8.93466H37.2896C42.3747 8.93466 47.4613 8.93466 52.5493 8.93466C53.6167 8.93466 53.7146 8.83012 53.7257 7.76257C53.7368 6.69502 53.7257 5.63192 53.7257 4.56881C53.7257 2.92967 53.7257 2.92745 52.1157 2.92745H13.9687C13.733 2.92745 13.495 2.94079 13.2593 2.92745C12.6166 2.90076 12.3564 3.2099 12.3698 3.84154C12.3853 5.08479 12.3698 6.32805 12.3698 7.56908C12.3698 8.92354 12.3698 8.93466 13.7797 8.93466H33.031ZM56.6411 5.86099C56.6411 6.6283 56.6411 7.3956 56.6411 8.1629C56.6411 8.66999 56.8635 8.93021 57.3905 8.92798C58.836 8.92798 60.2815 8.92798 61.7291 8.91019C62.4652 8.91019 62.8855 8.46538 62.9656 7.76702C63.0934 6.56274 63.0934 5.3483 62.9656 4.14401C62.8877 3.35225 62.4096 2.93634 61.5957 2.93634C60.2081 2.93634 58.8204 2.93634 57.435 2.93634C56.879 2.93634 56.6211 3.18989 56.6277 3.74368C56.6455 4.44871 56.6389 5.15374 56.6411 5.86767V5.86099ZM4.27071 6.0367L8.89841 8.42979C9.20974 8.59215 9.42323 8.541 9.42545 8.14956C9.42545 6.67574 9.42545 5.20193 9.42545 3.72811C9.42545 3.42786 9.29202 3.25883 8.98069 3.42786C7.46629 4.26411 5.95634 5.10926 4.27071 6.04337V6.0367Z" fill="#004999"/>
<path d="M8.95616 59.7724C8.95616 53.9424 8.95616 48.1131 8.95616 42.2846C8.95616 40.8656 8.95617 40.8634 10.3883 40.8634C15.7743 40.8634 21.1596 40.8634 26.5442 40.8634C26.9356 40.8634 27.4982 41.0369 27.6338 40.5298C27.8073 39.887 27.8807 39.1709 27.556 38.5437C27.3892 38.219 26.9667 38.3413 26.6509 38.3391C23.2196 38.3391 19.7883 38.3391 16.3547 38.3391C15.1272 38.3391 15.1205 38.3391 15.1183 37.1047C15.1183 33.9399 15.1405 30.7728 15.105 27.608C15.105 26.7828 15.3273 26.467 16.2013 26.4692C24.8697 26.4959 33.5387 26.4959 42.2086 26.4692C43.0558 26.4692 43.2738 26.8051 43.2693 27.5702C43.2493 30.7951 43.2427 34.02 43.2693 37.2449C43.2693 38.1011 42.9624 38.3569 42.1241 38.3569C38.6616 38.3213 35.1992 38.3413 31.739 38.3569C31.3676 38.3569 30.8494 38.2346 30.7427 38.7083C30.5937 39.3577 30.4803 40.0739 30.8472 40.6877C31.0496 41.0258 31.501 40.8812 31.8457 40.8812C37.0538 40.8812 42.2612 40.8812 47.4679 40.8812C48.7888 40.8812 48.8021 40.8812 48.8021 42.2156C48.8021 43.2209 48.8399 44.2173 48.8021 45.2337C48.7666 46.0255 49.1023 46.259 49.8518 46.2523C53.2542 46.2279 56.6566 46.2523 60.059 46.2523C61.3933 46.2523 61.4177 46.2723 61.4177 47.5712C61.4177 50.7361 61.4 53.9031 61.4311 57.068C61.4311 57.882 61.2087 58.2378 60.3392 58.2356C51.6708 58.2148 43.0017 58.2148 34.3319 58.2356C33.5869 58.2356 33.2623 57.9865 33.2667 57.2103C33.2889 53.895 33.2889 50.5804 33.2667 47.2665C33.2667 46.4859 33.5958 46.2412 34.3363 46.2457C37.7699 46.2657 41.2012 46.2568 44.6325 46.2457C45.0261 46.2457 45.5598 46.4147 45.7444 45.9454C45.9601 45.3582 45.9601 44.7134 45.7444 44.1261C45.6755 43.9037 45.4442 43.8548 45.2285 43.8481C44.9327 43.8481 44.637 43.8303 44.339 43.8303H13.3615C11.8716 43.8303 11.8694 43.8303 11.8694 45.2782C11.8694 50.8413 11.8694 56.4015 11.8694 61.9587C11.8694 63.0841 11.9449 63.1619 13.0813 63.1664C14.887 63.1664 16.6905 63.1864 18.4962 63.1664C19.2279 63.1664 19.5503 63.4043 19.5259 64.2006C19.4636 66.3312 19.6993 66.0488 17.6779 66.0666C16.0501 66.0821 14.4223 66.0888 12.7967 66.0666C12.1095 66.0554 11.8515 66.3134 11.8582 67.0073C11.8819 69.6095 11.8819 72.2131 11.8582 74.8183C11.8582 75.5055 12.1273 75.7791 12.8033 75.7746C14.638 75.759 16.4726 75.7746 18.305 75.7746C19.4725 75.7746 19.5148 75.8258 19.5103 76.9689C19.5103 78.8794 19.6726 78.6637 17.7824 78.6726C15.2384 78.6726 12.6921 78.6726 10.1481 78.6726C9.00285 78.6726 8.95396 78.6303 8.95173 77.4649C8.95025 71.5607 8.95171 65.6632 8.95616 59.7724ZM47.3189 55.2487C50.6924 55.2487 54.0659 55.2331 57.4371 55.262C58.2066 55.262 58.5001 55.004 58.4779 54.2323C58.4379 52.8422 58.4512 51.45 58.4779 50.0599C58.4779 49.4283 58.2555 49.1503 57.5884 49.1503C50.7539 49.1636 43.9187 49.1636 37.0827 49.1503C36.4378 49.1503 36.1777 49.3927 36.1932 50.0399C36.2199 51.3744 36.1932 52.7088 36.1932 54.0432C36.1932 55.2309 36.2155 55.2554 37.3718 55.2554L47.3189 55.2487ZM29.1505 35.4011C32.5195 35.4011 35.8885 35.3855 39.2576 35.4145C40.0559 35.4145 40.3695 35.152 40.3428 34.3313C40.2939 32.9969 40.3072 31.6624 40.3428 30.3436C40.3584 29.6586 40.0871 29.3872 39.4066 29.3895C32.6092 29.3998 25.8118 29.3998 19.0144 29.3895C18.3473 29.3895 18.0448 29.643 18.0582 30.3325C18.0849 31.6313 18.0582 32.9324 18.0582 34.2335C18.0582 35.3299 18.1271 35.3989 19.2168 35.3989C22.5287 35.4004 25.84 35.4011 29.1505 35.4011Z" fill="#E43C5C"/>
<path d="M37.4099 66.0422C33.5694 66.0422 29.7267 66.0199 25.8862 66.06C24.9967 66.06 24.6142 65.7842 24.7232 64.8946C24.7298 64.7768 24.7298 64.6587 24.7232 64.5409C24.7232 63.1865 24.7543 63.1442 26.1108 63.1442C33.7043 63.1442 41.2986 63.1442 48.8936 63.1442C49.3384 63.1442 49.9677 62.9618 50.1056 63.5712C50.2746 64.3096 50.3591 65.1147 50.01 65.8264C49.8365 66.1801 49.3651 66.0311 49.0226 66.0311C45.1532 66.0444 41.2823 66.0481 37.4099 66.0422Z" fill="#E43C5C"/>
<path d="M37.4013 78.6458C33.5586 78.6458 29.7181 78.6213 25.8754 78.6636C24.9725 78.6636 24.6189 78.3678 24.7212 77.4915C24.7312 77.3137 24.7312 77.1355 24.7212 76.9577C24.7212 75.8457 24.799 75.7478 25.9354 75.7456C33.6208 75.7456 41.3048 75.7456 48.9872 75.7456C50.0991 75.7456 50.1748 75.8457 50.1881 76.9777C50.1881 77.0089 50.1881 77.0378 50.1881 77.0667C50.1881 78.6436 50.1881 78.6458 48.6537 78.6458H37.4013Z" fill="#E43C5C"/>
<path d="M28.4166 71.5066C27.4714 71.5066 26.5263 71.5066 25.5812 71.5066C24.9897 71.5066 24.754 71.2509 24.7184 70.657C24.5961 68.5798 24.5939 68.5664 26.6375 68.5664C28.1742 68.5664 29.7086 68.5842 31.2452 68.5664C31.8879 68.5664 32.1348 68.8066 32.1348 69.456C32.0992 71.729 32.3571 71.4933 30.1956 71.5155C29.6063 71.5155 29.0148 71.5155 28.4166 71.5155V71.5066Z" fill="#E43C5C"/>
<path d="M28.452 81.1835C29.426 81.1835 30.4001 81.1835 31.3741 81.1835C31.8856 81.1835 32.1302 81.3814 32.1302 81.9152C32.1302 84.4373 32.3681 84.0926 30.0776 84.117C28.601 84.1326 27.1244 84.117 25.6478 84.117C25.0252 84.117 24.7583 83.8746 24.7249 83.2274C24.6293 81.1724 24.6093 81.1724 26.6797 81.1724H28.4587L28.452 81.1835Z" fill="#E43C5C"/>
<path d="M36.1669 68.571C37.5946 68.571 37.5946 68.571 37.5901 70.09C37.5901 71.5067 37.5901 71.5156 36.0579 71.5134C34.6503 71.5134 34.6503 71.5134 34.6525 69.981C34.6547 68.5687 34.6547 68.5687 36.1669 68.571Z" fill="#E43C5C"/>
<path d="M42.945 70.0964C42.945 71.5198 42.945 71.5198 41.435 71.5175C40.0296 71.5175 40.0096 71.4931 40.014 69.9829C40.014 68.5796 40.0274 68.5707 41.5484 68.5751C42.9472 68.5729 42.9472 68.5729 42.945 70.0964Z" fill="#E43C5C"/>
<path d="M34.6518 82.5512C34.6518 81.1679 34.6518 81.1679 36.1929 81.1701C37.5939 81.1701 37.5939 81.1701 37.5895 82.7136C37.5895 84.1036 37.5717 84.117 36.0328 84.1103C34.6474 84.1081 34.6474 84.1081 34.6518 82.5512Z" fill="#E43C5C"/>
<path d="M42.945 82.7094C42.945 84.1217 42.945 84.1217 41.4217 84.1173C40.0296 84.1173 40.0096 84.0928 40.014 82.5604C40.014 81.1704 40.0273 81.1615 41.5707 81.1659C42.9472 81.1793 42.9472 81.1793 42.945 82.7094Z" fill="#E43C5C"/>
</svg>
