<svg width="74" height="73" viewBox="0 0 74 73" fill="none" xmlns="http://www.w3.org/2000/svg">
<path d="M44.4776 60.97L47.3753 70.6232H51.2487V73.0001H22.3535V70.6351C23.4026 70.6351 24.474 70.6003 25.5394 70.6499C26.1017 70.6751 26.3077 70.4721 26.4596 69.9483C27.319 66.9847 28.2214 64.0322 29.1409 60.97H28.1962C20.3426 60.97 12.4904 60.97 4.63927 60.97C2.01277 60.97 0.564251 59.5297 0.560547 56.9217C0.560547 39.4809 0.560547 22.0396 0.560547 4.59772C0.560547 2.02827 2.01867 0.561279 4.57256 0.561279C26.0662 0.561279 47.5597 0.561279 69.0533 0.561279C71.5724 0.561279 73.0542 2.02974 73.0542 4.53696C73.0542 22.0292 73.0542 39.5211 73.0542 57.0129C73.0542 59.4801 71.5724 60.9678 69.1126 60.9693C61.2343 60.9723 53.356 60.9723 45.4778 60.9693L44.4776 60.97ZM70.6418 51.2731V50.59C70.6418 35.2642 70.6418 19.9388 70.6418 4.61401C70.6418 3.34855 70.2573 2.97661 68.957 2.97661H4.7104C3.32861 2.97661 2.98259 3.32632 2.98259 4.71996C2.98259 19.9697 2.98259 35.2197 2.98259 50.47V51.2731H70.6418ZM2.98187 53.7462V56.7587C2.98187 58.2339 3.30781 58.5532 4.81184 58.5532H68.8207C69.0719 58.5532 69.386 58.6392 69.5616 58.5221C69.9491 58.2628 70.5329 57.9242 70.567 57.573C70.6885 56.3135 70.6144 55.0339 70.6144 53.747L2.98187 53.7462ZM28.7875 70.5899H44.8414C43.9271 67.5522 43.0136 64.579 42.1504 61.5924C41.9978 61.0641 41.7607 60.9545 41.2614 60.9589C38.52 60.9819 35.7787 60.97 33.0373 60.97C31.6704 60.97 31.6681 60.97 31.2844 62.2488C30.4553 65.0109 29.6299 67.7737 28.7875 70.5899Z" fill="white"/>
<path d="M46.4352 48.8875C40.5474 48.8875 34.66 48.8875 28.7728 48.8875C26.2004 48.8875 24.7312 47.4316 24.7305 44.8807C24.7305 36.6814 24.7305 28.4793 24.7305 20.2746C24.7305 17.7214 26.1982 16.2678 28.7698 16.267C33.0219 16.267 37.2739 16.2804 41.526 16.2574C42.7596 16.2515 43.7753 16.6501 44.6318 17.5332C45.595 18.5268 46.5997 19.4796 47.5577 20.4783C47.9918 20.9295 48.4697 21.1103 49.095 21.1088C54.1272 21.0918 59.1594 21.0977 64.1916 21.0999C66.7596 21.0999 68.2237 22.5558 68.2244 25.1141C68.2244 31.7062 68.2244 38.2983 68.2244 44.8903C68.2244 47.4094 66.7559 48.8853 64.2487 48.8867C58.3106 48.8897 52.3727 48.89 46.4352 48.8875ZM46.3989 46.4714C52.3128 46.4714 58.2267 46.4714 64.1406 46.4714C65.4282 46.4714 65.8076 46.0943 65.8083 44.8155C65.8083 38.2723 65.8083 31.7294 65.8083 25.1867C65.8083 23.8954 65.4334 23.5175 64.1561 23.5168C59.072 23.5168 53.9885 23.5182 48.9054 23.5212C47.7577 23.5212 46.7975 23.1426 45.9936 22.3298C45.0023 21.3274 43.9865 20.3501 43.0114 19.3321C42.5595 18.8602 42.0638 18.6698 41.4089 18.6727C37.2317 18.6935 33.0545 18.6831 28.8766 18.6838C27.4933 18.6838 27.1465 19.0328 27.1465 20.4257C27.1465 28.5292 27.1465 36.6325 27.1465 44.7355C27.1465 46.1217 27.497 46.4714 28.8839 46.4721L46.3989 46.4714Z" fill="white"/>
<path d="M43.704 12.93L41.9748 14.7415C41.345 14.0702 40.7249 13.4479 40.1514 12.7847C39.8217 12.4032 39.5283 12.3321 39.0542 12.5425C37.9295 13.0404 36.7855 13.5012 35.6267 13.9124C35.2638 14.0336 34.8716 14.0349 34.508 13.9161C33.3966 13.5131 32.3097 13.0522 31.2376 12.561C30.9333 12.4135 30.6855 12.1705 30.5323 11.869C29.9899 10.7095 29.4861 9.52996 29.0134 8.33933C28.846 7.91628 28.6185 7.78291 28.1792 7.79921C27.3012 7.83181 26.421 7.80885 25.5186 7.80885C24.934 9.1736 24.3828 10.522 23.7701 11.8423C23.606 12.1651 23.3408 12.4253 23.0151 12.5832C21.9452 13.0789 20.8516 13.5293 19.7462 13.9413C19.4276 14.0491 19.0824 14.0491 18.7638 13.9413C17.5613 13.5019 16.3758 13.0129 15.1956 12.5165C14.8014 12.3506 14.5244 12.355 14.2154 12.7055C13.6345 13.3641 12.6447 13.8976 12.4869 14.6259C12.3291 15.3542 12.8913 16.3011 13.3166 17.0509C14.1642 18.5453 13.9605 19.8774 13.3226 21.4266C12.692 22.9588 11.906 24.0294 10.2708 24.4747C9.43137 24.7029 8.65264 25.1519 7.81542 25.512C7.81542 26.4796 7.78951 27.4383 7.83618 28.3874C7.84582 28.583 8.08736 28.8483 8.28666 28.9401C9.45136 29.4728 10.6487 29.9359 11.8045 30.4856C12.1482 30.6613 12.4266 30.9425 12.5987 31.288C13.0885 32.3335 13.5323 33.4041 13.9235 34.4902C14.0412 34.8542 14.0391 35.2463 13.9175 35.609C13.5056 36.7685 13.0462 37.9125 12.5476 39.0372C12.3364 39.5136 12.4179 39.8062 12.7913 40.1359C13.4307 40.6997 13.9568 41.6533 14.6651 41.8014C15.3734 41.9496 16.2951 41.4058 17.0197 40.9865C18.5622 40.0885 20.0196 40.1337 21.5163 41.0391C21.8763 41.2569 22.2934 41.3799 22.7661 41.5814L21.8534 43.793C21.1399 43.5033 20.4863 43.1907 19.8025 42.978C19.4565 42.8721 19.0164 42.8461 18.6845 42.9654C17.3375 43.45 16.0066 43.9772 14.6918 44.5472C14.1931 44.7621 13.8968 44.6702 13.5345 44.2931C12.3668 43.0775 11.175 41.8852 9.9589 40.716C9.60401 40.3737 9.50543 40.1055 9.71659 39.6225C10.2812 38.3348 10.748 37.0049 11.3051 35.7135C11.5148 35.2289 11.4259 34.8385 11.2969 34.3591C10.9265 32.9714 10.0907 32.1571 8.71043 31.7511C7.75393 31.4696 6.86633 30.9576 5.92908 30.5975C5.50158 30.433 5.38304 30.1937 5.38896 29.7559C5.41267 28.0199 5.41564 26.2833 5.38896 24.5473C5.38155 24.0768 5.51419 23.8316 5.96244 23.6523C7.26791 23.1292 8.54526 22.5358 9.85073 22.0127C10.3316 21.8193 10.5708 21.4941 10.822 21.0606C11.537 19.8204 11.5251 18.6534 10.8554 17.3917C10.3871 16.5093 10.11 15.5268 9.7129 14.6044C9.54545 14.2154 9.53509 13.9539 9.87591 13.6257C11.1636 12.3874 12.4273 11.1246 13.6671 9.83744C13.9709 9.52329 14.2169 9.51959 14.5836 9.67222C15.9061 10.2212 17.2508 10.7191 18.5637 11.2866C19.046 11.4948 19.4373 11.4148 19.9181 11.2866C21.3029 10.9125 22.1156 10.0782 22.5239 8.70014C22.815 7.71919 23.287 6.78715 23.7397 5.86324C23.8479 5.64097 24.1998 5.41128 24.4435 5.40609C26.2543 5.36757 28.0658 5.36757 29.878 5.40609C30.1181 5.41128 30.4648 5.65948 30.5693 5.88471C31.1709 7.18277 31.734 8.50084 32.2674 9.82928C32.4601 10.3094 32.7779 10.5509 33.2158 10.8021C34.4835 11.5289 35.6734 11.503 36.9559 10.8191C37.8591 10.3375 38.8504 10.0167 39.8158 9.65963C40.0054 9.58924 40.3403 9.59739 40.4663 9.71742C41.5717 10.7843 42.6475 11.8757 43.704 12.93Z" fill="white"/>
<path d="M22.8258 35.8544L21.8004 37.8904C18.0573 36.4879 15.0908 31.7558 15.0656 27.2215C15.0404 22.613 17.9551 17.8861 21.8011 16.385C21.9745 16.7288 22.1538 17.0792 22.3287 17.4319C22.4939 17.7638 22.6554 18.0987 22.8161 18.4254C15.7657 22.1559 15.6969 32.0284 22.8258 35.8544Z" fill="white"/>
<path d="M38.518 27.6711L39.9998 29.1841L34.8617 34.2785L40.1125 39.5041L38.375 41.1134L31.7158 34.4489L38.518 27.6711Z" fill="white"/>
<path d="M53.1123 39.4273L58.0645 34.4974C56.2752 32.7096 54.5615 30.9988 52.833 29.2725L54.4852 27.6255L61.2512 34.404L54.643 40.9854L53.1123 39.4273Z" fill="white"/>
<path d="M45.1283 41.0353L43.0205 39.8588L49.0603 28.9905L51.1689 30.167L45.1283 41.0353Z" fill="white"/>
</svg>
