<svg width="66" height="61" viewBox="0 0 66 61" fill="none" xmlns="http://www.w3.org/2000/svg">
<g clip-path="url(#clip0_735_1182)">
<path d="M65.999 6.14903V54.8463C63.8191 59.6045 60.0533 61.0637 54.978 61.001C39.78 60.7974 24.5775 60.9384 9.37729 60.9193C3.2477 60.9115 0.00793919 57.6316 0.00459579 51.4724C-0.00283401 37.6657 -0.00283401 23.859 0.00459579 10.0522C0.00459579 3.18917 3.08945 0.0771176 9.89328 0.0759986C24.923 0.0759986 39.9539 0.211402 54.9791 0.00549852C60.0555 -0.0672391 63.818 1.39087 65.999 6.14903ZM5.53348 14.0013V16.7866C5.53348 28.1785 5.53348 39.5703 5.53348 50.9621C5.53348 54.7176 6.15647 55.3667 9.82864 55.3689C25.2886 55.3778 40.7485 55.3778 56.2084 55.3689C59.7892 55.3689 60.4557 54.7053 60.459 51.177C60.4694 39.6136 60.4694 28.0501 60.459 16.4867C60.459 15.6687 60.3776 14.8518 60.3319 14.0036L5.53348 14.0013Z" fill="#E43C5C"/>
<path d="M32.9921 24.9455C37.2873 24.9455 41.5869 24.8336 45.8776 24.9723C53.067 25.2118 58.2705 31.239 57.7021 38.4859C57.1594 45.4105 51.2772 50.5939 44.5157 49.6136C42.1965 49.2779 39.9464 47.8388 37.8779 46.5687C36.0413 45.4429 29.8627 45.2326 28.182 46.6157C23.6328 50.3488 18.3268 50.8479 13.9001 47.9585C9.33079 44.9763 7.24339 39.277 8.75016 33.8877C10.2268 28.6081 14.7683 25.0652 20.3696 24.9589C24.5723 24.8794 28.7827 24.9432 32.9921 24.9455ZM23.4077 34.6878C22.564 33.3058 21.8552 30.8652 20.8522 30.7365C17.5612 30.3146 19.1248 33.6673 18.2789 35.15C16.576 35.5909 14.0082 34.567 13.9057 37.2885C13.7864 40.5225 16.9114 38.844 18.4472 39.7772C18.8595 41.4099 17.7729 44.1739 20.6137 44.2008C23.6094 44.2288 22.2141 41.1693 22.8638 39.6989C24.57 39.0431 27.2392 40.3121 27.3473 37.5526C27.4699 34.4204 24.4731 35.7543 23.4065 34.6878H23.4077ZM49.4862 37.406C49.4862 35.1959 47.6262 33.2879 45.443 33.2566C43.1449 33.2241 41.1935 35.2149 41.2603 37.5246C41.276 38.6209 41.7248 39.6661 42.5079 40.4302C43.291 41.1943 44.3444 41.6148 45.4363 41.599C46.5281 41.5833 47.569 41.1327 48.33 40.3464C49.091 39.56 49.5097 38.5023 49.494 37.406H49.4862Z" fill="#E43C5C"/>
</g>
<defs>
<clipPath id="clip0_735_1182">
<rect width="66" height="61" fill="white"/>
</clipPath>
</defs>
</svg>
