<svg width="111" height="111" viewBox="0 0 111 111" fill="none" xmlns="http://www.w3.org/2000/svg">
<g clip-path="url(#clip0_331_339)">
<path d="M81.4026 77.728C81.4026 78.8559 81.3985 79.9837 81.3902 81.1116C72.5407 76.7844 63.6965 76.7352 54.8646 81.1609C54.4263 81.3827 53.9844 81.3915 53.5232 81.3915C49.2841 81.3915 45.0463 81.3915 40.8096 81.3915C39.0976 81.357 37.4293 81.9337 36.1041 83.0181C33.7134 84.9792 32.9353 87.5459 33.4758 90.6865C31.2172 89.6514 29.0625 88.6603 26.9042 87.6744C26.2001 87.3488 26.6349 87.0072 26.9042 86.7238C27.9798 85.6218 29.0361 84.4933 30.1786 83.4635C31.1098 82.6255 31.4777 81.6925 31.4689 80.425C31.4196 72.7989 31.4496 65.1727 31.439 57.5395C31.4208 56.1145 31.5464 54.6913 31.814 53.2916C33.7504 43.7413 39.3625 37.4337 48.5782 34.316C50.49 33.6682 50.8667 32.6753 49.8316 30.9078C48.661 28.9168 47.4938 26.9257 46.3108 24.9453C45.9587 24.3502 45.8302 24.0334 46.7738 24.0386C52.5902 24.0692 58.4071 24.0692 64.2246 24.0386C65.2069 24.0386 65.0027 24.3907 64.67 24.9541C63.5081 26.9046 62.3545 28.8604 61.2091 30.8215C60.1018 32.7298 60.4539 33.6946 62.5364 34.3618C72.9051 37.7066 79.5365 46.7939 79.5489 57.6733C79.5489 63.681 79.5489 69.6899 79.5489 75.7C79.5489 77.6435 79.5489 77.6435 81.4026 77.728ZM53.6517 64.7396C53.6517 65.7395 53.62 66.743 53.6622 67.7323C53.6939 68.4365 53.3876 68.5017 52.8278 68.3415C51.6501 68.0035 50.5657 67.3574 50.314 66.1832C50.0129 64.7748 49.2577 64.5812 48.0871 64.7291C47.781 64.7704 47.4707 64.7704 47.1646 64.7291C46.3496 64.6129 46.1612 64.9879 46.2985 65.7149C46.8425 68.6354 48.4462 70.6582 51.2487 71.7373C52.0286 72.0366 53.1975 71.7461 53.5478 72.4221C53.8981 73.0981 53.6728 74.1526 53.6429 75.0364C53.6235 75.6032 53.7608 75.8303 54.3963 75.8567C57.308 75.9747 57.308 75.9975 57.3556 73.0911C57.3608 73.0143 57.3608 72.9372 57.3556 72.8605C57.2834 72.3323 57.514 72.1792 58.0597 72.0964C62.128 71.4821 64.7774 68.5281 64.7615 64.7027C64.7457 60.9266 62.0752 57.9743 58.0914 57.3846C57.5915 57.3106 57.3432 57.2314 57.3538 56.654C57.3837 54.6524 57.3872 52.6508 57.3538 50.6492C57.3432 49.945 57.6319 49.8887 58.1935 50.0383C59.3888 50.357 60.4644 51.0418 60.695 52.2037C61.0013 53.7405 61.8991 53.7616 63.0469 53.6525C63.3153 53.6208 63.5865 53.6208 63.8549 53.6525C64.6718 53.7722 64.8548 53.3919 64.7193 52.6649C64.1595 49.7514 62.5663 47.7234 59.7497 46.6442C58.9716 46.345 57.8027 46.6442 57.4612 45.963C57.1197 45.2817 57.3379 44.2325 57.3679 43.3487C57.3872 42.7783 57.2464 42.5548 56.6109 42.5301C53.701 42.4122 53.7027 42.3893 53.6534 45.2975C53.6482 45.3743 53.6482 45.4513 53.6534 45.5281C53.7256 46.0668 53.4897 46.2077 52.9493 46.2869C48.8898 46.8907 46.2351 49.85 46.2492 53.6895C46.2633 57.4673 48.9285 60.4248 52.9194 61.0005C53.5373 61.0903 53.6781 61.291 53.657 61.8525C53.6253 62.8137 53.6517 63.7767 53.6517 64.7396ZM35.1675 56.1981C35.1429 59.1908 35.1429 59.1908 37.3328 59.1908C37.45 59.1807 37.5678 59.1807 37.6849 59.1908C38.6373 59.3668 38.9313 58.9919 38.8908 58.0148C38.7447 54.4112 39.7023 51.0981 41.6845 48.0737C42.1176 47.4118 43.1069 46.8062 42.9168 46.1267C42.7267 45.4471 41.7585 44.9577 41.181 44.3434C40.6036 43.729 40.2427 43.8628 39.7446 44.4842C36.7765 48.1688 35.2802 52.3551 35.1622 56.1981H35.1675ZM48.0941 42.039L47.7244 41.2767C46.559 38.8737 46.5855 38.916 44.2899 40.3542C43.3798 40.9246 43.4238 41.3278 44.0364 42.1023C45.6507 44.1427 45.6208 44.1673 47.7579 42.6305C47.941 42.4967 48.1663 42.4051 48.0888 42.039H48.0941Z" fill="#FFC627"/>
<path d="M81.4026 77.7278C79.5419 77.6433 79.5419 77.6433 79.5419 75.6998C79.5419 69.6908 79.5419 63.6819 79.5419 57.673C79.5295 46.7936 72.8981 37.7116 62.5294 34.3615C60.4539 33.6943 60.1018 32.7296 61.2197 30.823C62.3698 28.8643 63.5228 26.9084 64.6788 24.9555C65.0116 24.3957 65.2069 24.0348 64.2334 24.0401C58.4171 24.0706 52.6002 24.0706 46.7827 24.0401C45.8391 24.0401 45.9623 24.3517 46.3197 24.9467C47.5062 26.9272 48.6733 28.9183 49.8405 30.9093C50.8809 32.6697 50.4989 33.6696 48.5871 34.3175C39.3714 37.4352 33.754 43.7428 31.8228 53.2931C31.5553 54.6928 31.4296 56.116 31.4478 57.541C31.4584 65.1689 31.4285 72.7951 31.4778 80.4265C31.4866 81.694 31.1257 82.627 30.1874 83.465C29.0449 84.4948 27.9887 85.6233 26.9131 86.7253C26.6367 87.0087 26.1931 87.3502 26.9131 87.6759C29.0713 88.6618 31.226 89.6529 33.4846 90.688C32.9442 87.5474 33.7223 84.9807 36.1129 83.0196C37.4382 81.9352 39.1064 81.3585 40.8184 81.393C45.0551 81.4 49.293 81.4 53.532 81.393C53.9932 81.393 54.4351 81.3842 54.8734 81.1624C63.7053 76.7366 72.5496 76.7859 81.3991 81.1131C82.2036 81.6553 83.1155 81.4035 83.9605 81.3613C84.9216 81.3102 85.2807 81.5919 85.11 82.5408C85.0934 82.7691 85.1005 82.9986 85.1311 83.2256C85.0325 84.1498 85.5043 85.4595 83.6735 85.1339C83.0908 85.0282 83.2633 85.662 83.2633 86.0053C83.2528 92.7811 83.2633 99.5605 83.2387 106.333C83.2387 107.092 83.4623 107.306 84.2139 107.303C89.7205 107.274 95.2264 107.274 100.732 107.303C101.538 107.303 101.776 107.086 101.767 106.273C101.726 102.309 101.749 98.3511 101.749 94.3761C101.749 92.5294 101.749 92.5294 103.619 92.4607C105.451 92.5312 105.451 92.5312 105.451 94.3514C105.451 99.0905 105.451 103.83 105.451 108.569C105.451 110.373 104.835 110.986 103.02 110.986C93.3874 110.986 83.7539 110.986 74.1198 110.986C72.2116 110.986 72.2116 110.986 72.1165 109.141C72.1488 108.951 72.1594 108.759 72.1482 108.567C71.9722 107.53 72.3594 107.195 73.4262 107.257C75.1162 107.356 76.8185 107.229 78.5103 107.306C79.3905 107.347 79.5788 107.088 79.5753 106.233C79.5366 99.2589 79.5366 92.2859 79.5753 85.3134C79.5753 84.516 79.2954 84.185 78.6071 83.8804C71.4212 80.7117 64.2722 80.7557 57.2007 84.1674C55.9387 84.8076 54.5403 85.132 53.1254 85.1127C49.1592 85.0494 45.1895 85.0881 41.2216 85.0916C38.6796 85.0916 36.9966 86.5915 37.0142 88.8202C37.0318 90.9961 38.7148 92.4836 41.1776 92.4854C45.6842 92.4854 50.1914 92.4854 54.6992 92.4854C57.375 92.4854 57.3292 92.4854 57.3838 95.156C57.4031 96.0538 57.1285 96.2122 56.2958 96.2122C50.2471 96.1758 44.1984 96.1758 38.1497 96.2122C37.1143 96.2176 36.0911 95.9883 35.157 95.5415C28.6699 92.5488 22.1635 89.5877 15.6694 86.6056C14.6642 86.1443 13.6538 85.8556 12.5447 86.1303C10.7491 86.5739 9.49747 87.9629 9.28798 89.7497C9.1617 90.7119 9.34233 91.6893 9.80415 92.5428C10.266 93.3963 10.9854 94.0822 11.8599 94.5028C18.7642 97.9603 25.6843 101.388 32.5798 104.865C35.7389 106.483 39.2405 107.319 42.7901 107.303C50.6872 107.271 58.5861 107.292 66.4832 107.292C68.3915 107.292 68.3915 107.292 68.4848 109.15C68.3915 110.994 68.3915 110.994 66.4868 110.994C58.6372 110.994 50.7858 110.966 42.9344 111.005C38.7689 111.044 34.6554 110.077 30.9426 108.188C24.2672 104.815 17.6763 101.254 10.8459 98.2121C4.86059 95.5485 3.3484 87.1566 9.58724 83.2784C11.837 82.2661 14.1273 81.9158 16.4739 82.9263C17.8822 83.5319 19.2624 84.1832 20.6549 84.817C22.8694 85.8275 22.8677 85.8292 24.3517 83.9368C25.371 82.9474 26.3691 81.9352 27.4183 80.9757C27.8355 80.592 27.7528 80.1501 27.7528 79.7047C27.7528 72.6525 27.7299 65.602 27.7616 58.5515C27.8214 45.8764 33.5339 36.8419 45.1525 31.6416C45.788 31.3564 45.6806 31.1294 45.399 30.6593C43.9907 28.3215 42.6105 25.9678 41.2321 23.6176C40.1196 21.7164 40.8976 20.3626 43.1087 20.3608C51.3931 20.3608 59.6776 20.3608 67.962 20.3608C70.0885 20.3608 70.8719 21.7287 69.7981 23.5701C68.2894 26.1562 66.7561 28.7281 65.221 31.3265C72.3594 34.203 77.5773 39.0055 80.7671 45.938C82.4131 49.5152 83.2601 53.4079 83.2493 57.3456C83.2598 63.6637 83.2193 69.9837 83.2827 76.3018C83.2933 77.4496 83.0327 77.9232 81.8744 77.6978C81.7165 77.6876 81.5579 77.6977 81.4026 77.7278Z" fill="#030302"/>
<path d="M68.4901 109.143C68.3968 107.28 68.3968 107.28 66.4886 107.28C58.5914 107.28 50.6925 107.259 42.7954 107.291C39.2458 107.307 35.7442 106.471 32.5851 104.852C25.6826 101.381 18.7625 97.9499 11.867 94.4959C10.9925 94.0753 10.273 93.3894 9.81123 92.5359C9.34941 91.6824 9.16877 90.7049 9.29506 89.7428C9.50454 87.9559 10.7562 86.574 12.5518 86.1233C13.6608 85.8487 14.6643 86.1374 15.6765 86.5986C22.1706 89.5808 28.677 92.5383 35.1641 95.5345C36.0982 95.9813 37.1213 96.2106 38.1568 96.2053C44.2055 96.1724 50.2542 96.1724 56.3029 96.2053C57.1356 96.2053 57.4102 96.0521 57.3908 95.149C57.3363 92.4785 57.3908 92.4785 54.7062 92.4785C50.1996 92.4785 45.6924 92.4785 41.1846 92.4785C38.7201 92.4785 37.0389 90.9891 37.0213 88.8133C37.0019 86.5846 38.6866 85.0864 41.2286 85.0847C45.1966 85.0847 49.1663 85.0424 53.1324 85.1058C54.5473 85.1251 55.9458 84.8007 57.2077 84.1604C64.2793 80.7487 71.4282 80.7012 78.6142 83.8735C79.3025 84.1781 79.5877 84.509 79.5824 85.3065C79.5436 92.2789 79.5436 99.252 79.5824 106.226C79.5824 107.081 79.3958 107.34 78.5173 107.299C76.8256 107.222 75.1233 107.349 73.4333 107.25C72.3665 107.189 71.9792 107.523 72.1553 108.56C72.1665 108.752 72.1558 108.944 72.1236 109.134L68.4901 109.143Z" fill="#FBC7A1"/>
<path d="M108.979 51.7583C110.949 51.783 110.94 51.7847 110.984 53.8708C111.181 63.025 109.337 71.725 105.289 79.9427C104.953 80.6257 105.103 80.9338 105.663 81.3176C106.576 81.9478 107.456 82.652 108.337 83.321C108.977 83.8016 109.278 84.4353 109.136 85.2292C108.993 86.0232 108.46 86.4897 107.698 86.7098C106.333 87.1041 104.973 87.5037 103.61 87.8998C99.2864 89.1321 94.9647 90.3785 90.6358 91.5967C88.6536 92.1548 87.6819 91.4083 87.6713 89.3715C87.6608 87.3347 87.6555 85.2891 87.6485 83.2488C87.6977 79.5143 87.7482 75.7805 87.7999 72.0472C87.7999 71.4715 87.7752 70.8941 88.1519 70.3906C88.8719 69.4559 89.8947 69.4101 91.0918 70.285C92.574 71.3677 92.574 71.3677 93.2043 69.646C101.82 46.4084 87.8791 21.0583 63.5962 16.0481C52.6571 13.793 42.4204 15.8721 33.0621 22.0336C30.9866 23.412 30.3511 23.3081 29.0167 21.1956C27.2399 18.4047 25.466 15.6139 23.695 12.823C22.7638 11.3531 22.9398 10.5186 24.3992 9.54335C57.1901 -12.3563 100.976 5.29369 109.646 43.3752C109.697 43.6005 109.773 43.8206 109.822 44.0459C110.197 45.8574 110.196 45.8574 108.402 46.2781C108.25 46.2665 108.097 46.2766 107.948 46.308C106.868 46.7235 106.474 46.3732 106.236 45.2148C103.742 33.1207 97.7496 23.0669 88.1396 15.3246C76.697 6.10877 63.5645 2.41892 48.9602 4.14238C41.5173 5.02259 34.6289 7.53823 28.2421 11.4569C27.6102 11.8442 27.6049 12.1189 27.9798 12.6892C29.0871 14.3564 30.1803 16.034 31.1943 17.7575C31.6151 18.4757 31.9566 18.3543 32.5287 18.0075C41.0719 12.8037 50.3281 10.7035 60.269 11.7932C70.636 12.9304 79.5823 17.1748 86.8158 24.6795C96.9117 35.154 100.934 47.7111 98.9748 62.1413C98.3556 66.5287 97.0336 70.7878 95.0597 74.7547C94.3943 76.1155 93.4366 76.4078 92.141 75.7001C91.965 75.605 91.8206 75.3357 91.4051 75.6455C91.4051 79.2702 91.4051 83.0023 91.4051 86.7362C91.4051 87.1604 91.4051 87.5442 92.0178 87.3699L103.205 84.1431C102.871 83.8649 102.645 83.666 102.409 83.4847C100.383 81.9267 100.315 81.6292 101.473 79.3741C105.622 71.3008 107.53 62.7205 107.282 53.6543C107.229 51.9326 107.236 51.9326 108.979 51.7583Z" fill="#030302"/>
<path d="M108.979 51.7583C107.236 51.9343 107.229 51.9343 107.277 53.6525C107.523 62.7187 105.615 71.299 101.467 79.3723C100.309 81.6274 100.378 81.9249 102.404 83.4829C102.64 83.6589 102.865 83.8631 103.2 84.1413L92.0123 87.3681C91.405 87.5442 91.3997 87.1586 91.3997 86.7344C91.3997 83.0005 91.3997 79.2684 91.3997 75.6437C91.8151 75.3339 91.9595 75.6032 92.1355 75.6983C93.4312 76.4024 94.3888 76.1137 95.0543 74.7529C97.0282 70.786 98.3501 66.5269 98.9694 62.1395C100.929 47.704 96.9062 35.1522 86.8103 24.6777C79.5769 17.173 70.6305 12.9286 60.2636 11.7914C50.3226 10.7017 41.0753 12.8019 32.5233 18.0057C31.9511 18.3577 31.6096 18.4739 31.1889 17.7557C30.1749 16.0322 29.0764 14.3545 27.9744 12.6874C27.5994 12.1223 27.6047 11.8477 28.2367 11.4551C34.6234 7.53642 41.5118 5.01902 48.9548 4.14057C63.5661 2.41711 76.6898 6.10696 88.1342 15.3228C97.7442 23.0686 103.737 33.1189 106.231 45.213C106.469 46.3714 106.863 46.7217 107.942 46.3062C108.091 46.2747 108.244 46.2647 108.396 46.2763C108.579 48.1089 108.947 49.9151 108.979 51.7583Z" fill="#E33C5C"/>
<path d="M24.3514 83.9353C22.8674 85.8313 22.8692 85.8296 20.6546 84.8155C19.2621 84.1818 17.8784 83.5304 16.4737 82.9249C14.127 81.9126 11.8368 82.2629 9.58698 83.2769L7.61181 79.58C9.13984 78.6611 9.12928 78.6664 8.37935 76.9922C3.6122 66.3381 2.46618 55.3161 5.0346 43.9209C5.45357 42.0672 5.46062 42.0689 3.7055 41.4563C4.17494 39.9881 4.64438 38.5211 5.11382 37.0553C5.33812 37.0984 5.55709 37.1657 5.76692 37.2559C6.61191 37.7313 7.01152 37.476 7.32663 36.5659C8.00438 34.603 8.95324 32.751 9.91442 30.9096C10.5464 29.6967 10.3563 28.9221 9.29828 28.0929C8.82473 27.718 8.33886 27.3624 7.76673 26.9275C8.11881 26.7902 8.32478 26.6899 8.54307 26.6283C11.8667 25.6759 15.2026 24.7657 18.5104 23.757C19.447 23.4701 19.5315 23.7799 19.5209 24.5703C19.4786 27.9979 19.4822 31.4254 19.4575 34.853C19.4575 35.0906 19.5755 35.3811 19.3114 35.5695C17.3873 34.5132 16.6039 34.7544 15.7132 36.7665C9.31119 51.1973 10.1415 65.2109 18.2041 78.8072C19.2604 80.5782 19.2903 80.5571 20.9803 79.5501C21.9009 81.1644 23.2213 82.4795 24.3514 83.9353Z" fill="#E33C5C"/>
<path d="M20.9858 79.5503C19.2959 80.5572 19.2606 80.5783 18.2097 78.8074C10.1459 65.2192 9.31382 51.1981 15.7134 36.7438C16.6042 34.7316 17.3876 34.4975 19.3117 35.5467C19.5758 35.3566 19.456 35.0679 19.4578 34.8302C19.4825 31.4027 19.4789 27.9751 19.5212 24.5476C19.5317 23.7571 19.4472 23.4473 18.5107 23.7343C15.2029 24.743 11.867 25.6531 8.54335 26.6055C8.32506 26.6671 8.1191 26.7675 7.76702 26.9048C8.33915 27.3396 8.82326 27.6952 9.29856 28.0702C10.3548 28.9064 10.5467 29.681 9.9147 30.8869C8.95353 32.7283 8.00467 34.5838 7.32692 36.5431C7.01181 37.4532 6.6122 37.7085 5.76721 37.2332C5.55738 37.1429 5.3384 37.0757 5.11411 37.0325C3.40476 36.279 3.39244 36.2738 4.1318 34.5257C4.62471 33.3603 5.09826 32.179 5.6968 31.0682C6.05768 30.3975 5.89924 30.0788 5.33415 29.6915C4.41523 29.0631 3.54911 28.3554 2.65483 27.6899C1.9718 27.1812 1.65668 26.5298 1.83272 25.6883C2.00876 24.8838 2.55273 24.4824 3.3185 24.2624C9.07675 22.6146 14.8262 20.9422 20.5845 19.2998C22.1688 18.8473 23.2251 19.5937 23.2251 21.2151C23.2251 27.2991 23.194 33.3826 23.1318 39.4654C23.1142 41.092 21.558 41.8173 20.162 40.9406C19.5863 40.5886 19.0177 39.6661 18.5019 39.8967C17.8893 40.1678 17.8171 41.1853 17.5759 41.9001C13.4308 54.1514 14.6965 65.8154 21.3731 76.892C22.3185 78.4694 22.3413 78.4553 20.9858 79.5503Z" fill="#030302"/>
<path d="M87.6516 83.247C87.6516 85.2873 87.6622 87.3277 87.6745 89.3698C87.6869 91.4119 88.6568 92.153 90.639 91.5949C94.9678 90.3785 99.2896 89.1303 103.613 87.898C103.613 89.4237 103.613 90.9442 103.613 92.4593C101.744 92.528 101.744 92.528 101.744 94.3746C101.744 98.3409 101.721 102.307 101.761 106.272C101.77 107.085 101.532 107.307 100.726 107.301C95.2196 107.269 89.7137 107.269 84.2083 107.301C83.4566 107.301 83.2313 107.09 83.2331 106.331C83.2612 99.5556 83.2471 92.7762 83.2577 86.0038C83.2577 85.6676 83.0817 85.0268 83.6679 85.1324C85.4987 85.4581 85.0269 84.1483 85.1255 83.2241L87.6516 83.247ZM94.3412 99.9464C94.3489 99.456 94.2589 98.9691 94.0766 98.5138C93.8943 98.0585 93.6232 97.6441 93.2791 97.2947C92.9351 96.9452 92.5249 96.6677 92.0726 96.4783C91.6202 96.2889 91.1347 96.1913 90.6443 96.1914C89.6738 96.1913 88.7422 96.5728 88.0506 97.2536C87.359 97.9344 86.9627 98.8598 86.9475 99.8302C86.9395 100.321 87.0293 100.808 87.2115 101.263C87.3938 101.719 87.6648 102.133 88.0089 102.483C88.353 102.833 88.7632 103.11 89.2156 103.3C89.6681 103.489 90.1538 103.587 90.6443 103.587C91.6152 103.585 92.5468 103.203 93.2392 102.523C93.9316 101.842 94.3298 100.917 94.3482 99.9464H94.3412Z" fill="#004999"/>
<path d="M3.71111 41.4402C5.47151 42.0599 5.45918 42.0582 5.04021 43.9048C2.46651 55.3001 3.61253 66.3221 8.38496 76.9762C9.13489 78.6503 9.14545 78.645 7.61742 79.564C5.85703 80.3122 5.83943 80.3174 5.02964 78.5253C-0.279709 66.7692 -1.33595 54.61 1.63912 42.0687C1.82572 41.2853 2.07922 40.9016 2.92245 41.3047C3.15482 41.4156 3.44705 41.4015 3.71111 41.4402Z" fill="#030302"/>
<path d="M53.6516 64.7397C53.6516 63.7767 53.6251 62.8138 53.6621 61.8526C53.6832 61.291 53.5424 61.0903 52.9245 61.0005C48.9337 60.4249 46.2685 57.4674 46.2544 53.6895C46.2403 49.85 48.895 46.8908 52.9544 46.2869C53.4826 46.2077 53.7255 46.0669 53.6586 45.5282C53.6533 45.4514 53.6533 45.3743 53.6586 45.2976C53.7079 42.3893 53.7061 42.4122 56.6161 42.5302C57.2516 42.5548 57.3924 42.7784 57.373 43.3488C57.3431 44.229 57.1037 45.2606 57.4663 45.963C57.829 46.6654 58.9856 46.345 59.7549 46.6443C62.5715 47.7234 64.1558 49.7514 64.7068 52.6685C64.8424 53.3955 64.6593 53.7758 63.8425 53.6561C63.5741 53.6244 63.3029 53.6244 63.0345 53.6561C61.8867 53.7652 60.9889 53.7441 60.6826 52.2072C60.452 51.0453 59.3764 50.3605 58.1811 50.0419C57.6195 49.8923 57.3308 49.9539 57.3413 50.6528C57.3766 52.6544 57.373 54.656 57.3413 56.6576C57.3308 57.235 57.579 57.3142 58.079 57.3882C62.0627 57.9779 64.7333 60.9301 64.7491 64.7062C64.7649 68.5387 62.1085 71.4927 58.0473 72.1C57.5103 72.1828 57.2797 72.3271 57.3431 72.864C57.3484 72.9408 57.3484 73.0179 57.3431 73.0947C57.2956 76.0011 57.2956 75.9782 54.3839 75.8603C53.7484 75.8339 53.6111 75.6068 53.6304 75.0399C53.6604 74.1597 53.8998 73.1263 53.5354 72.4257C53.171 71.725 52.0162 72.0402 51.2363 71.7409C48.4337 70.6618 46.8353 68.639 46.2861 65.7185C46.1488 64.9914 46.3371 64.6165 47.1522 64.7326C47.4583 64.774 47.7685 64.774 48.0746 64.7326C49.2365 64.5848 50.0005 64.7749 50.3015 66.1868C50.5533 67.361 51.6377 68.007 52.8154 68.345C53.3752 68.5052 53.6815 68.4331 53.6498 67.7359C53.6199 66.743 53.6516 65.7343 53.6516 64.7397ZM53.6516 53.6085C53.6516 52.6086 53.6251 51.6052 53.6621 50.6158C53.6832 49.9961 53.4227 49.9116 52.8946 50.0243C51.2328 50.357 49.9424 51.9502 49.9582 53.6913C49.9741 55.4323 51.3384 57.0361 52.9703 57.3054C53.4579 57.3846 53.6744 57.2808 53.6604 56.7368C53.6287 55.6894 53.6516 54.6437 53.6516 53.6085ZM57.3484 64.6992C57.3484 65.6604 57.4012 66.6269 57.3325 67.5845C57.2692 68.4876 57.6406 68.5193 58.3501 68.301C59.133 68.0733 59.8202 67.5963 60.3073 66.9424C60.7944 66.2885 61.0547 65.4934 61.0487 64.6781C61.0218 63.8647 60.7331 63.0818 60.2257 62.4456C59.7182 61.8094 59.0191 61.3538 58.2321 61.1467C57.6001 60.9812 57.3044 61.0657 57.3519 61.8068C57.3924 62.7698 57.3554 63.7327 57.3554 64.6957L57.3484 64.6992Z" fill="#030302"/>
<path d="M35.1622 56.1982C35.2872 52.3587 36.7765 48.1689 39.7252 44.4949C40.2234 43.8734 40.586 43.7414 41.1617 44.354C41.7373 44.9667 42.695 45.4349 42.8974 46.1373C43.0999 46.8397 42.1052 47.4224 41.6651 48.0844C39.6829 51.1088 38.7253 54.4219 38.8714 58.0255C38.9119 59.0025 38.6179 59.3687 37.6655 59.2014C37.5484 59.1913 37.4306 59.1913 37.3134 59.2014C35.1376 59.1979 35.1376 59.1979 35.1622 56.1982Z" fill="#030302"/>
<path d="M48.0887 42.0388C48.1661 42.4049 47.9408 42.4876 47.7525 42.6232C45.6083 44.1671 45.64 44.1424 44.031 42.0951C43.4184 41.3205 43.3744 40.9174 44.2845 40.347C46.573 38.9087 46.5536 38.8665 47.719 41.2694L48.0887 42.0388Z" fill="#030302"/>
<path d="M94.3482 99.9464C94.3299 100.916 93.9327 101.84 93.2418 102.52C92.5509 103.201 91.6211 103.583 90.6514 103.587C90.1609 103.587 89.6752 103.489 89.2227 103.3C88.7703 103.11 88.3601 102.833 88.016 102.483C87.6719 102.133 87.4008 101.719 87.2186 101.263C87.0364 100.808 86.9466 100.321 86.9546 99.8302C86.9698 98.8598 87.366 97.9344 88.0577 97.2536C88.7493 96.5728 89.6809 96.1913 90.6514 96.1914C91.1418 96.1913 91.6273 96.2889 92.0797 96.4783C92.532 96.6677 92.9422 96.9452 93.2862 97.2947C93.6303 97.6441 93.9014 98.0585 94.0837 98.5138C94.266 98.9691 94.356 99.456 94.3482 99.9464Z" fill="#030302"/>
<path d="M53.6515 53.6086C53.6515 54.649 53.6287 55.6894 53.6515 56.728C53.6674 57.272 53.4491 57.3759 52.9615 57.2967C51.3296 57.0308 49.9688 55.4095 49.9494 53.6825C49.9301 51.9555 51.224 50.3483 52.8858 50.0155C53.4139 49.9099 53.6744 49.9874 53.6533 50.607C53.6251 51.6052 53.6515 52.6086 53.6515 53.6086Z" fill="#FFC627"/>
<path d="M57.3555 64.6958C57.3555 63.7328 57.3924 62.7699 57.3449 61.8087C57.3062 61.0675 57.6019 60.983 58.2251 61.1485C59.0121 61.3557 59.7112 61.8112 60.2186 62.4474C60.7261 63.0836 61.0147 63.8666 61.0417 64.6799C61.047 65.4935 60.7871 66.2866 60.3015 66.9394C59.8159 67.5921 59.1308 68.0689 58.3501 68.2976C57.6459 68.5159 57.2692 68.4842 57.3326 67.5811C57.4083 66.6234 57.3555 65.657 57.3555 64.6958Z" fill="#FFC627"/>
</g>
<defs>
<clipPath id="clip0_331_339">
<rect width="111" height="111" fill="white"/>
</clipPath>
</defs>
</svg>
