<svg width="95" height="49" viewBox="0 0 95 49" fill="none" xmlns="http://www.w3.org/2000/svg">
<g clip-path="url(#clip0_749_441)">
<path d="M48.5116 0C49.5331 0.0409762 51.5481 0.0958173 53.5608 0.20866C55.7584 0.33474 57.9473 0.567994 60.1263 0.882565C65.9984 1.72983 71.7306 3.12932 77.2376 5.40886C80.2426 6.65264 83.122 8.14229 85.7972 10.0209C88.0908 11.6316 90.1727 13.4787 91.8648 15.7506C93.1096 17.4225 94.0673 19.2431 94.587 21.2849C95.3332 24.2296 95.0597 27.0903 93.865 29.866C92.8894 32.1317 91.436 34.0519 89.7111 35.771C87.5816 37.8942 85.155 39.5963 82.5602 41.0575C79.1061 43.0061 75.4533 44.468 71.6786 45.6242C68.8745 46.4772 66.0236 47.1615 63.1406 47.6736C61.1443 48.0325 59.1379 48.3187 57.1214 48.5322C54.7084 48.7844 52.2924 48.9735 49.8678 48.9931C47.7593 49.0095 45.6501 49.0013 43.5429 48.9426C41.25 48.8796 38.9645 48.6684 36.6859 48.3948C33.0338 47.9662 29.4151 47.2815 25.8556 46.3454C21.1869 45.1054 16.6766 43.4455 12.4423 41.0575C9.75282 39.5446 7.24525 37.7706 5.0693 35.5459C3.38707 33.8274 1.98325 31.9091 1.04778 29.6592C0.30535 27.8651 -0.065869 25.9953 0.00961176 24.0448C0.0949917 21.805 0.740909 19.7285 1.81929 17.7849C3.10247 15.4726 4.8379 13.5543 6.82391 11.8591C9.19104 9.84186 11.8131 8.22487 14.5824 6.85122C18.1522 5.07979 21.883 3.7572 25.7189 2.7328C28.1956 2.06111 30.7071 1.52992 33.2416 1.14166C34.9772 0.882774 36.7172 0.656036 38.4615 0.461452C41.4702 0.133012 44.4944 0.0163905 48.5116 0ZM18.1801 12.8142C16.491 21.6626 14.8034 30.5042 13.1173 39.3391C13.1754 39.3435 13.2051 39.3479 13.2355 39.3479C15.0408 39.3479 16.8468 39.3479 18.6521 39.3517C18.7808 39.3517 18.8006 39.2956 18.821 39.189C19.1601 37.3987 19.502 35.6085 19.8468 33.8186C19.944 33.3143 20.0405 32.81 20.1395 32.2912C20.4915 32.2912 20.8306 32.2962 21.169 32.2912C23.2639 32.2584 25.3613 32.3826 27.4531 32.1764C28.3638 32.0938 29.2642 31.9185 30.1407 31.6532C32.1205 31.0367 33.726 29.8401 35.0581 28.2572C37.2328 25.6726 38.0606 22.6384 37.8385 19.2834C37.7669 18.1646 37.4094 17.0843 36.8015 16.1497C35.8815 14.7231 34.5656 13.8487 32.9904 13.3475C31.7097 12.9403 30.3919 12.8117 29.0567 12.8123H18.1801V12.8142ZM57.4251 39.3378C57.4752 39.3435 57.4994 39.3479 57.5235 39.3479C59.335 39.3479 61.1466 39.3479 62.9587 39.3517C63.0868 39.3517 63.1066 39.2968 63.127 39.189C63.5533 36.9473 63.9852 34.7069 64.4083 32.4639C64.4356 32.317 64.4894 32.288 64.623 32.2886C66.2057 32.293 67.7889 32.2886 69.3715 32.2886C70.5586 32.2982 71.7444 32.2072 72.9166 32.0163C74.1949 31.7988 75.4273 31.4262 76.5218 30.7114C80.667 28.0006 82.4928 24.0858 82.1129 19.1315C81.9273 16.736 80.6732 14.9708 78.5616 13.867C77.1813 13.1477 75.6878 12.8501 74.1577 12.8356C70.3119 12.7991 66.4655 12.8167 62.6197 12.8085C62.5028 12.8085 62.4731 12.8609 62.4545 12.9579C62.1336 14.6499 61.8117 16.3415 61.4887 18.0327C61.0107 20.5404 60.5322 23.048 60.0533 25.5553C59.6302 27.7718 59.2066 29.9883 58.7825 32.2048C58.4385 34.0077 58.0943 35.8105 57.7499 37.613C57.6398 38.1835 57.534 38.7509 57.4251 39.3378ZM56.3566 32.2836C56.3696 32.2332 56.3851 32.1865 56.3944 32.1386C56.6076 31.0207 56.8209 29.9028 57.0341 28.7849C57.5588 26.03 58.0838 23.2755 58.6093 20.5215C58.7949 19.569 58.962 18.6158 58.9187 17.6387C58.8729 16.6439 58.6458 15.709 58.0215 14.9116C57.4759 14.2143 56.7464 13.792 55.9384 13.4938C54.6627 13.0229 53.3318 12.8571 51.988 12.8338C50.0961 12.801 48.2035 12.8174 46.3109 12.813H46.0925C46.5429 10.454 46.989 8.11518 47.4363 5.76882C47.3862 5.76315 47.3559 5.75684 47.3262 5.75684C45.532 5.75684 43.7377 5.75684 41.9435 5.75306C41.8148 5.75306 41.7944 5.81043 41.7746 5.91697C41.4286 7.74514 41.0804 9.57331 40.7303 11.4015C40.0291 15.0633 39.3279 18.7253 38.6267 22.3875C38.0736 25.2836 37.5211 28.1799 36.9692 31.0764C36.8937 31.4748 36.8201 31.8732 36.744 32.2817H42.3741L45.2715 17.1003C45.3167 17.0947 45.3333 17.0909 45.3531 17.0909C46.9364 17.0909 48.5196 17.0865 50.1022 17.0978C50.6842 17.093 51.2634 17.1781 51.8204 17.35C52.4861 17.5649 52.9074 18.005 52.9773 18.7192C53.0232 19.1385 53.0184 19.5619 52.9631 19.98C52.8394 20.8197 52.6686 21.6512 52.5096 22.4852C51.9544 25.4074 51.3976 28.3282 50.8391 31.2478C50.7735 31.5895 50.7104 31.9318 50.6442 32.2836H56.3566Z" fill="#E43C5C"/>
<path d="M20.9395 28.0964C21.0267 27.6343 21.1108 27.1848 21.1962 26.736C21.6751 24.2282 22.1542 21.7205 22.6334 19.2127C22.7634 18.5338 22.8933 17.8549 23.017 17.1746C23.0399 17.0486 23.0826 16.9988 23.2193 17C24.716 17.0107 26.2126 16.9962 27.7092 17.0252C28.5884 17.0423 29.4539 17.1797 30.2768 17.5296C31.2543 17.9469 31.766 18.7109 31.9095 19.758C32.0611 20.8638 31.9052 21.9474 31.6286 23.0103C31.4662 23.6426 31.2518 24.2598 30.9877 24.8555C30.2972 26.4 29.0963 27.3317 27.4927 27.7509C26.4848 28.0138 25.4603 28.1027 24.4246 28.1033C23.3051 28.1033 22.1859 28.1033 21.0669 28.1033C21.031 28.1052 20.9951 28.1002 20.9395 28.0964Z" fill="#E43C5C"/>
<path d="M65.2422 28.0933C65.9479 24.395 66.6528 20.7014 67.3569 17.0127C67.4157 17.009 67.4584 17.0039 67.5004 17.0039C69.0026 17.0083 70.5048 17.0039 72.007 17.0234C72.6994 17.0361 73.3872 17.1408 74.053 17.3349C75.3461 17.7049 76.1436 18.5326 76.2277 19.9195C76.357 22.0421 75.9227 24.0417 74.7274 25.8176C74.0202 26.8691 72.9771 27.4327 71.7898 27.7523C70.7844 28.0227 69.7587 28.1041 68.7236 28.1047C67.6099 28.1047 66.4963 28.1047 65.3826 28.1047C65.3449 28.1047 65.3016 28.0984 65.2422 28.0933Z" fill="#E43C5C"/>
</g>
<defs>
<clipPath id="clip0_749_441">
<rect width="95" height="49" fill="white"/>
</clipPath>
</defs>
</svg>
