<svg width="68" height="72" viewBox="0 0 68 72" fill="none" xmlns="http://www.w3.org/2000/svg">
<g clip-path="url(#clip0_735_1474)">
<path d="M42.3946 11.668C50.4032 17.0958 55.2996 29.1283 50.5483 40.8286C45.5245 53.1982 31.4697 59.6401 18.2647 55.6664C5.31269 51.7689 -2.44796 38.6003 0.697669 25.6155C4.06385 11.7233 16.9698 5.65938 26.0273 6.09456C25.0863 7.24868 24.1894 8.35042 23.1846 9.58167H28.2212V12.7669C26.742 12.7669 25.2461 12.6298 23.7845 12.7898C15.6877 13.6716 8.93079 19.6154 7.31044 27.3381C5.39307 36.4749 9.38759 45.7564 20.8987 49.4054C29.4945 52.1307 42.2329 47.9028 45.1187 35.3122C46.2391 30.4044 45.3951 25.765 42.6308 21.4809C42.4779 21.2428 42.3436 20.9438 42.3417 20.6715C42.3221 17.7443 42.3309 14.8171 42.3338 11.8899C42.3452 11.8139 42.3656 11.7395 42.3946 11.668Z" fill="#E43C5C"/>
<path d="M40.8965 56.1396C45.3213 53.5829 48.8463 50.2091 51.6391 45.7383C51.8998 46.4448 52.0694 46.9533 52.2762 47.4523C52.4311 47.8208 52.5428 48.2693 52.8271 48.515C57.1873 52.2802 61.5628 56.0276 65.9537 59.7572C68.4425 61.8759 68.7091 66.3896 66.4859 69.1977C63.5452 72.9115 57.946 72.9515 54.7563 69.2634C51.9292 65.9934 49.1345 62.6977 46.3261 59.4134C45.6399 58.6078 44.9684 57.7841 44.2421 57.0119C44.0745 56.8348 43.6902 56.7367 43.4304 56.7738C42.5237 56.8967 41.6856 56.8738 40.8965 56.1396Z" fill="#E43C5C"/>
<path d="M31.4974 46.218V45.1115C31.4974 32.9476 31.4974 20.784 31.4974 8.62065C31.4974 7.28751 31.2239 6.90661 29.8555 6.44097L35.3164 0C37.1544 2.17111 38.9375 4.27842 40.7921 6.46763C39.3276 6.72188 39.1335 7.66745 39.1375 8.85776C39.1639 19.222 39.1473 29.5862 39.1659 39.9513C39.1832 40.5364 38.964 41.1049 38.5552 41.5349C36.6564 43.6717 34.3764 45.242 31.4974 46.218Z" fill="#E43C5C"/>
<path d="M20.6302 22.4775H28.2398V46.9425C25.7657 47.333 23.3582 47.0463 21.0095 46.2674C20.8086 46.1998 20.6478 45.718 20.6458 45.4285C20.6223 41.4833 20.6302 37.5373 20.6302 33.5921V22.4775Z" fill="#E43C5C"/>
<path d="M10.5664 35.4741H17.3772V44.5823C13.9434 42.3265 11.7035 39.364 10.5664 35.4741Z" fill="#E43C5C"/>
</g>
<defs>
<clipPath id="clip0_735_1474">
<rect width="68" height="72" fill="white"/>
</clipPath>
</defs>
</svg>
