<svg width="83" height="75" viewBox="0 0 83 75" fill="none" xmlns="http://www.w3.org/2000/svg">
<g clip-path="url(#clip0_800_59)">
<path d="M0.0043335 33.4877C0.437516 31.8933 0.716949 30.2353 1.33423 28.7175C2.89369 24.9001 5.6335 22.1689 9.32422 20.3949C9.69598 20.2141 9.99011 19.9027 10.1517 19.5188C13.0605 10.8261 22.7443 7.19697 30.5394 11.8993C30.6737 11.9803 30.8101 12.0591 30.8837 12.1008C31.8931 10.6947 32.7595 9.22945 33.8684 7.98763C40.0521 1.07985 47.7498 -1.50455 56.6409 0.827977C65.6013 3.17802 71.0962 9.27982 73.1018 18.4391C73.3877 19.7422 73.8599 20.4957 75.0381 21.1637C81.0204 24.5496 84.0613 31.5713 82.6621 38.4222C81.9705 41.7039 80.2801 44.6843 77.8282 46.9452C75.3764 49.2061 72.286 50.6341 68.9908 51.0287C67.4853 51.1668 65.9728 51.2107 64.462 51.1601C63.8339 51.1601 63.5956 51.3419 63.4201 51.9508C60.6998 61.8255 54.7947 69.0261 45.7051 73.5524C45.0034 73.9006 44.241 74.1262 43.5566 74.4985C42.1465 75.2695 40.8231 75.0789 39.3893 74.4766C29.1604 70.1708 22.5493 62.6352 19.556 51.8698C19.4001 51.3069 19.1705 51.158 18.6182 51.1711C15.9151 51.2346 13.2034 51.2631 10.6281 50.2468C4.68916 47.9107 1.19562 43.5639 0.147318 37.2066C0.111081 37.0535 0.0632574 36.9034 0.0043335 36.7576V33.4877ZM64.4771 47.9099C65.3305 47.9099 66.3268 47.9231 67.3209 47.9099C75.9153 47.7785 81.9431 39.0135 79.0407 30.8267C77.7412 27.1866 75.3132 24.6022 71.7589 23.1611C70.8189 22.7778 70.3099 22.1996 70.2428 21.168C70.1999 20.459 70.1058 19.7541 69.9613 19.0589C68.1787 10.4253 61.4058 4.24901 52.5364 3.40142C44.5919 2.64362 36.7252 7.07871 33.2424 15.0093C32.5472 16.5994 31.5097 16.8359 30.1972 15.7211C24.0611 10.5173 15.0358 13.428 13.0475 21.2754C12.9672 21.6867 12.7794 22.0688 12.5036 22.3819C12.2278 22.695 11.8741 22.9278 11.4793 23.056C5.78299 25.2768 2.54276 30.7894 3.39397 36.9328C4.29932 43.4552 10.1364 48.9963 18.7005 47.7961C18.6268 46.6243 18.499 45.4548 18.4839 44.2918C18.4579 39.6486 18.4666 35.0033 18.4688 30.3602C18.4688 29.0942 19.0124 28.5357 20.2535 28.389C21.6744 28.2247 23.0973 28.0539 24.5073 27.8196C30.0489 26.8825 35.4458 25.2178 40.5611 22.8676C41.1235 22.6317 41.7535 22.6199 42.3242 22.8347C48.8479 25.8308 55.8163 27.7164 62.9479 28.4153C63.9031 28.5095 64.5009 29.1402 64.5009 30.0908C64.5139 35.9954 64.4901 41.8914 64.4728 47.9099H64.4771ZM21.7284 31.5428C21.7284 34.3572 21.6895 37.1124 21.7393 39.8655C21.7891 42.4937 21.6721 45.1416 22.075 47.7106C23.8727 59.2112 30.2427 67.1155 40.8903 71.4958C41.3107 71.6461 41.7694 71.6461 42.1898 71.4958C53.4331 67.2973 61.1502 56.215 61.278 44.075C61.3213 40.113 61.2889 36.151 61.2889 32.1889C61.2889 31.9699 61.2564 31.7684 61.2391 31.5713C59.8811 31.3523 58.5707 31.1749 57.269 30.9449C52.0298 30.0087 46.9196 28.4441 42.0469 26.2843C41.7368 26.1506 41.3887 26.1381 41.0701 26.2492C34.916 28.9721 28.3963 30.7561 21.7241 31.5428H21.7284Z" fill="#E33B5C"/>
<path d="M34.5399 42.4518C34.2974 39.7842 34.7674 37.3334 36.8683 35.4608C38.162 34.2705 39.8609 33.6324 41.6094 33.6802C43.8468 33.7262 45.6641 34.6768 47.0568 36.4508C48.4495 38.2248 48.614 40.288 48.4797 42.4606C48.757 42.5263 48.9844 42.5854 49.214 42.6358C50.585 42.9293 51.5337 43.9872 51.5424 45.3889C51.5705 49.3202 51.577 53.2516 51.5424 57.1829C51.5272 58.8715 50.2428 59.9995 48.4061 60.0082C44.6526 60.0235 40.8991 60.0082 37.1434 60.0082C36.251 60.0082 35.3608 60.0279 34.4706 60.0082C32.6079 59.9513 31.4579 58.762 31.4535 56.8872C31.4449 53.237 31.4449 49.5786 31.4535 45.9123C31.4535 43.9171 32.2224 42.9709 34.1609 42.5679C34.2627 42.5351 34.3623 42.4978 34.5399 42.4518ZM37.6762 42.4978H45.2569C45.2569 41.8233 45.2764 41.2013 45.2569 40.5815C45.2226 39.6897 44.8778 38.8388 44.2833 38.1792C43.6888 37.5195 42.883 37.0935 42.008 36.9764C40.2883 36.7202 38.4602 37.8131 37.9902 39.5477C37.7216 40.4566 37.7693 41.4575 37.6762 42.4891V42.4978ZM43.3076 55.1198C43.3076 54.2437 43.2815 53.3939 43.3227 52.5573C43.3385 52.216 43.4398 51.8844 43.6172 51.5936C44.4013 50.3649 44.267 48.9654 43.2165 48.0412C42.7546 47.6333 42.1637 47.4058 41.5505 47.3997C40.9373 47.3937 40.342 47.6096 39.8723 48.0083C38.8154 48.9128 38.6573 50.3211 39.4284 51.5564C39.6056 51.8491 39.7083 52.1817 39.7272 52.5244C39.7684 53.3852 39.7425 54.2503 39.7425 55.1198H43.3076Z" fill="#E33B5C"/>
</g>
<defs>
<clipPath id="clip0_800_59">
<rect width="83" height="75" fill="white"/>
</clipPath>
</defs>
</svg>
