<svg width="61" height="61" viewBox="0 0 61 61" fill="none" xmlns="http://www.w3.org/2000/svg">
<g clip-path="url(#clip0_735_1459)">
<path d="M47.1295 41.2319C45.976 41.2334 44.8487 41.5769 43.8901 42.2189C42.9315 42.8609 42.1845 43.7726 41.7434 44.839C41.3023 45.9054 41.1869 47.0787 41.4118 48.2107C41.6366 49.3427 42.1917 50.3826 43.0068 51.1992C43.822 52.0159 44.8607 52.5725 45.9918 52.799C47.1229 53.0255 48.2958 52.9115 49.3622 52.4716C50.4287 52.0317 51.341 51.2855 51.9839 50.3273C52.6268 49.369 52.9715 48.2417 52.9745 47.0875C52.975 45.5357 52.3596 44.0472 51.2636 42.9491C50.1675 41.8511 48.6806 41.2335 47.1295 41.2319ZM47.1295 51.3062C46.2894 51.305 45.4684 51.0551 44.7701 50.5878C44.0717 50.1205 43.5273 49.4569 43.2054 48.6805C42.8834 47.9041 42.7984 47.0497 42.9611 46.2251C43.1238 45.4005 43.5268 44.6425 44.1194 44.0466C44.712 43.4508 45.4676 43.0439 46.291 42.8771C47.1144 42.7103 47.9688 42.7911 48.7463 43.1094C49.5239 43.4276 50.1899 43.9691 50.6604 44.6655C51.1308 45.3618 51.3847 46.182 51.39 47.0225C51.3915 48.1554 50.9438 49.2427 50.1451 50.0458C49.3464 50.8488 48.2619 51.3021 47.1295 51.3062Z" fill="#E43C5C"/>
<path d="M47.2018 43.5097C46.5005 43.4984 45.8117 43.6959 45.2229 44.0772C44.6341 44.4586 44.172 45.0065 43.8952 45.6513C43.6185 46.2961 43.5397 47.0087 43.6688 47.6984C43.798 48.3882 44.1292 49.0239 44.6204 49.5248C45.1116 50.0257 45.7406 50.3692 46.4274 50.5115C47.1142 50.6538 47.8278 50.5885 48.4774 50.324C49.1271 50.0594 49.6834 49.6076 50.0757 49.0259C50.468 48.4442 50.6785 47.7589 50.6805 47.0571C50.6817 46.1275 50.3176 45.2346 49.6669 44.571C49.0161 43.9075 48.1308 43.5263 47.2018 43.5097Z" fill="#E43C5C"/>
<path d="M47.1639 33.3267C44.4285 33.3278 41.7548 34.1405 39.4809 35.6619C37.2071 37.1834 35.4353 39.3453 34.3895 41.8742C33.3437 44.4032 33.071 47.1856 33.6057 49.8696C34.1405 52.5537 35.4588 55.0188 37.3939 56.9532C39.329 58.8876 41.7939 60.2045 44.477 60.7374C47.1602 61.2702 49.941 60.995 52.4678 59.9466C54.9946 58.8982 57.1539 57.1237 58.6727 54.8475C60.1915 52.5712 61.0016 49.8955 61.0005 47.1587C60.9909 43.4912 59.5296 39.9768 56.9365 37.3845C54.3434 34.7923 50.8296 33.3332 47.1639 33.3267ZM56.6463 49.8838C56.1925 49.9154 55.7649 50.108 55.4402 50.4269C54.2533 51.5016 53.3377 52.802 52.4145 54.0947C52.082 54.574 51.934 55.1575 51.9978 55.7374C52.0013 55.8088 51.9891 55.88 51.962 55.9461C51.9349 56.0122 51.8936 56.0715 51.8411 56.1199C51.225 56.5774 50.5003 56.8661 49.7386 56.9575C49.6857 56.9599 49.633 56.9503 49.5843 56.9294C49.5357 56.9086 49.4924 56.877 49.4576 56.837C48.9931 56.1868 48.3318 55.9191 47.5749 55.8025C46.3516 55.6112 45.134 55.399 43.9108 55.2288C43.2718 55.1361 42.622 55.2959 42.0988 55.6743C42.0296 55.7172 41.9514 55.7431 41.8704 55.7501C41.7893 55.7571 41.7078 55.7449 41.6324 55.7145C41.0857 55.332 40.5544 54.9132 40.0478 54.4734C39.9932 54.405 39.9558 54.3245 39.9388 54.2386C39.9219 54.1527 39.9258 54.064 39.9504 53.98C40.2299 53.3268 40.2456 52.5907 39.9943 51.9261C39.5968 50.7959 39.1782 49.6696 38.7309 48.5585C38.5988 48.198 38.3904 47.8703 38.1198 47.598C37.8493 47.3257 37.5231 47.1151 37.1636 46.9808C37.0614 46.9462 36.9754 46.8753 36.9219 46.7816C36.8684 46.6879 36.851 46.5778 36.873 46.4721C36.9571 45.8181 37.0642 45.166 37.2113 44.5215C37.2506 44.4482 37.3064 44.385 37.3745 44.3372C37.4426 44.2893 37.5209 44.2582 37.6032 44.2462C38.5092 44.1524 39.1954 43.6916 39.7478 43.0031C40.3594 42.2382 40.9749 41.4847 41.5655 40.7083C42.0969 40.0103 42.3989 39.2377 42.2823 38.3294C42.284 38.2362 42.3084 38.1448 42.3534 38.0632C42.3983 37.9815 42.4625 37.9121 42.5403 37.8608C43.1177 37.5965 43.7099 37.366 44.3141 37.1705C44.401 37.1581 44.4896 37.1671 44.5722 37.1968C44.6548 37.2264 44.7289 37.2758 44.7881 37.3407C45.287 38.075 46.0095 38.381 46.8447 38.4996C47.9075 38.6487 48.9721 38.7921 50.0368 38.9375C50.8013 39.0427 51.5391 38.9681 52.1565 38.4345C52.382 38.2433 52.598 38.337 52.7719 38.4632C53.2555 38.817 53.7276 39.1861 54.1768 39.5858C54.239 39.654 54.2838 39.7362 54.3074 39.8254C54.331 39.9146 54.3328 40.0082 54.3125 40.0983C54.1662 40.4118 54.0838 40.7513 54.07 41.0971C54.0562 41.4428 54.1114 41.7878 54.2322 42.112C54.6833 43.3416 55.1726 44.5598 55.6906 45.7646C55.8237 46.077 56.0175 46.3598 56.2606 46.5968C56.5037 46.8338 56.7914 47.0202 57.107 47.1453C57.5122 47.3136 57.365 47.6865 57.4587 48.0861C57.3688 48.4954 57.2675 48.9964 57.1509 49.4917C57.1263 49.606 57.0622 49.7079 56.9699 49.7796C56.8777 49.8513 56.7631 49.8882 56.6463 49.8838Z" fill="#E43C5C"/>
<path d="M2.62426 28.496C4.55668 30.2687 6.85034 31.418 9.28162 32.3207C12.8922 33.6593 16.6385 34.3516 20.469 34.6518C25.534 35.0698 30.6331 34.7158 35.5919 33.6019C35.8875 33.5461 36.1665 33.4238 36.408 33.2443C38.5999 31.4809 41.2109 30.3154 43.9867 29.8614C44.8205 29.7321 45.5927 29.3441 46.1943 28.7522C46.4753 28.4922 46.7582 28.234 47.022 27.9567C48.4115 26.4957 49.1856 24.8051 49.1245 22.736C49.0652 20.5005 49.1111 18.2611 49.1111 16.0256C49.1111 15.9242 49.1111 15.8229 49.1111 15.7234C49.1111 15.624 49.0996 15.5647 49.0939 15.4844C48.5989 17.4331 47.4425 18.896 45.942 20.118C43.3464 22.233 40.3187 23.4684 37.1324 24.3251C29.917 26.2757 22.6231 26.4287 15.291 25.0901C11.6881 24.4341 8.21889 23.369 5.0632 21.4413C2.80202 20.0625 0.858142 18.3816 0.0190432 15.6833C0.0190432 17.9781 0.0897633 20.2729 -7.18818e-05 22.5677C-0.0822615 25.0193 0.892548 26.9087 2.62426 28.496Z" fill="#E43C5C"/>
<path d="M29.7812 49.9411C29.72 49.5318 29.5385 49.4764 29.181 49.5127C28.2808 49.6045 27.3767 49.6867 26.4726 49.725C23.0697 49.8786 19.66 49.6729 16.3002 49.1111C12.6131 48.4839 9.03693 47.5086 5.74361 45.6689C3.20338 44.2423 0.976613 42.504 0.0266536 39.5303C0.0266536 41.8251 0.0973738 44.1199 0.0075386 46.4147C-0.0899421 48.853 0.903977 50.7385 2.63378 52.3239C4.48974 54.0239 6.67446 55.1752 9.01399 56.03C16.6882 58.8278 24.5708 59.1968 32.5852 57.994C33.0688 57.9213 33.1682 57.8601 32.8452 57.4107C31.2389 55.2032 30.188 52.6411 29.7812 49.9411Z" fill="#E43C5C"/>
<path d="M2.13703 39.9185C4.10193 41.9456 6.54851 43.1886 9.14417 44.1754C12.7643 45.5503 16.5336 46.2407 20.3774 46.5601C23.2294 46.78 26.0941 46.78 28.9461 46.5601C29.3609 46.5314 29.5616 46.4396 29.5865 45.9424C29.6654 44.5751 29.9139 43.2229 30.3262 41.9169C30.8459 40.2645 31.5934 38.6927 32.5472 37.2469C32.2376 37.268 32.0579 37.2699 31.8801 37.2967C25.6174 38.2746 19.2237 38.0114 13.0625 36.5222C9.72141 35.7132 6.52176 34.5276 3.7254 32.4527C2.2479 31.3569 1.0074 30.0603 0.349887 28.2933C0.267698 28.0715 0.27152 27.8057 0.0268625 27.5552C0.0268625 29.9934 0.0746439 32.3494 0.0115681 34.7016C-0.0438621 36.7842 0.73216 38.467 2.13703 39.9185Z" fill="#E43C5C"/>
<path d="M49.1149 29.3755C49.1149 28.7585 49.1149 28.1408 49.1149 27.5225C48.8348 28.2045 48.5157 28.8698 48.1592 29.5151L48.8224 29.5801C48.9849 29.5954 49.1149 29.5744 49.1149 29.3755Z" fill="#E43C5C"/>
<path d="M9.10404 20.3435C13.9112 22.1468 18.9133 22.8487 24.0224 22.8965C29.5004 22.9481 34.8676 22.275 40.0265 20.3435C42.6298 19.3682 45.0782 18.1118 47.024 16.0675C48.5187 14.4955 49.419 12.6807 49.0061 10.4299C48.7424 8.99372 47.9816 7.81762 46.9858 6.78687C45.2159 4.95484 43.0331 3.7558 40.7012 2.82067C35.5232 0.741946 30.1044 0.0286416 24.5748 -4.36087e-05C20.8259 -0.0339339 17.0865 0.383404 13.4372 1.24298C9.99666 2.07103 6.69187 3.25285 3.78847 5.35643C3.14946 5.81596 2.55725 6.33736 2.02044 6.91308C-0.655505 9.77013 -0.640213 13.1837 2.06249 16.0216C4.02548 18.0888 6.48352 19.3605 9.10404 20.3435Z" fill="#E43C5C"/>
</g>
<defs>
<clipPath id="clip0_735_1459">
<rect width="61" height="61" fill="white"/>
</clipPath>
</defs>
</svg>
