<svg width="55" height="64" viewBox="0 0 55 64" fill="none" xmlns="http://www.w3.org/2000/svg">
<path d="M4.43403 56.5569C3.69442 56.5569 3.06512 56.5678 2.44486 56.5569C0.907768 56.5262 0.00180834 55.622 0 54.1012C0 49.4308 0 44.7605 0 40.0902C0 38.6091 0.927666 37.6869 2.40689 37.6688C3.05608 37.6688 3.70709 37.6688 4.44308 37.6688V1.69009C4.44308 0.2615 4.69444 0.013754 6.14292 0.013754C16.3902 0.013754 26.6338 0.00953324 36.8738 0.00109433C37.1727 -0.00863797 37.47 0.0466405 37.7454 0.163099C38.0208 0.279557 38.2676 0.454414 38.4688 0.675601C42.2796 4.45744 46.109 8.2212 49.9572 11.9669C50.1596 12.1561 50.3175 12.3879 50.4195 12.6456C50.5214 12.9033 50.5649 13.1804 50.5467 13.4569C50.5262 21.3522 50.522 29.2486 50.534 37.1462C50.534 37.2981 50.563 37.4518 50.5847 37.6688C51.2628 37.6688 51.912 37.6688 52.5594 37.6688C54.0386 37.6851 54.9735 38.6091 54.9753 40.0829C54.9753 44.7762 54.9753 49.4682 54.9753 54.159C54.9753 55.5695 54.0712 56.4936 52.6733 56.5515C51.9988 56.5804 51.3243 56.5515 50.5684 56.5515C50.5539 56.8372 50.534 57.0741 50.534 57.311C50.534 58.7992 50.534 60.2893 50.534 61.7776C50.534 62.7161 50.1543 63.0941 49.2212 63.0941C34.7364 63.0941 20.2516 63.0941 5.76677 63.0941C4.83005 63.0941 4.45394 62.7197 4.45032 61.783C4.42862 60.0777 4.43403 58.3652 4.43403 56.5569ZM48.3224 37.6272V14.1043H37.816C36.523 14.1043 36.2445 13.8222 36.2445 12.5058C36.2445 9.32429 36.2445 6.14342 36.2445 2.96316V2.23982H6.63479V37.6344L48.3224 37.6272ZM52.7619 39.8822H2.19711V54.3489H52.7619V39.8822ZM6.62936 60.8969H48.3152V56.622H6.62936V60.8969ZM46.7745 11.909L38.4561 3.74074V11.909H46.7745Z" fill="#E33C5C"/>
<path d="M38.8357 25.891L35.7326 22.636C35.5723 22.4781 35.4202 22.3121 35.2769 22.1387C35.0996 21.9316 35.0068 21.6654 35.0168 21.393C35.0269 21.1206 35.1391 20.8619 35.3312 20.6685C35.4286 20.5649 35.5465 20.4827 35.6774 20.4269C35.8083 20.3712 35.9493 20.3433 36.0915 20.3448C36.2338 20.3463 36.3741 20.3773 36.5037 20.4358C36.6334 20.4943 36.7495 20.5791 36.8448 20.6848C37.3981 21.2146 37.9135 21.7806 38.4433 22.3358C39.3005 23.24 40.1649 24.1206 41.0076 25.0302C41.5754 25.6432 41.5772 26.1496 41.0076 26.7517C39.6622 28.1779 38.3077 29.5957 36.9442 31.005C36.4216 31.5475 35.7941 31.5692 35.333 31.1207C34.8718 30.6722 34.8954 30.0357 35.4035 29.4932C36.5319 28.3033 37.6657 27.1188 38.8357 25.891Z" fill="#E33C5C"/>
<path d="M16.1269 25.9003L19.2246 29.1553C19.3656 29.3036 19.5103 29.4464 19.6387 29.6019C20.0491 30.0974 20.0401 30.7177 19.6224 31.1227C19.5247 31.2259 19.4067 31.3077 19.2758 31.363C19.1448 31.4182 19.0039 31.4457 18.8618 31.4436C18.7197 31.4416 18.5795 31.4101 18.4503 31.3511C18.321 31.2922 18.2053 31.207 18.1106 31.101C16.6772 29.6351 15.2595 28.1535 13.8574 26.6562C13.4017 26.1697 13.4017 25.629 13.8574 25.139C15.2571 23.6417 16.6736 22.1594 18.107 20.6922C18.2008 20.5849 18.3161 20.4985 18.4454 20.4386C18.5747 20.3787 18.7152 20.3466 18.8577 20.3444C19.0002 20.3421 19.1416 20.3699 19.2727 20.4257C19.4038 20.4816 19.5217 20.5644 19.6188 20.6687C19.7212 20.7665 19.803 20.8838 19.8594 21.0138C19.9157 21.1437 19.9454 21.2836 19.9467 21.4252C19.9481 21.5668 19.9211 21.7072 19.8672 21.8382C19.8134 21.9692 19.7338 22.088 19.6332 22.1877C18.6585 23.2492 17.6441 24.2836 16.6585 25.3288C16.494 25.5006 16.3294 25.6814 16.1269 25.9003Z" fill="#E33C5C"/>
<path d="M30.4504 20.5473C30.3944 20.7281 30.3275 20.9632 30.2479 21.1965C29.087 24.56 27.923 27.9223 26.756 31.2834C26.6493 31.5926 26.501 32.0067 26.2587 32.1206C25.868 32.2927 25.4276 32.3146 25.0218 32.1821C24.5245 31.9687 24.4142 31.4497 24.6041 30.9054C25.1972 29.2038 25.7813 27.5003 26.369 25.7969C27.0092 23.9451 27.6349 22.0916 28.2913 20.2435C28.5191 19.5943 29.0309 19.2706 29.5734 19.4098C30.1159 19.5491 30.3962 19.9234 30.4504 20.5473Z" fill="#E33C5C"/>
<path d="M20.0619 47.4484C19.7642 47.8845 19.4907 48.3367 19.2427 48.8028C18.5429 50.3019 17.3873 50.4737 16.5591 48.7775C16.3107 48.2754 15.9828 47.8168 15.588 47.4194C15.588 48.0523 15.588 48.6865 15.588 49.3218C15.588 49.9746 15.6061 50.6292 15.5772 51.282C15.55 51.8824 15.2155 52.2387 14.6061 52.3001C14.3332 52.3324 14.0586 52.2554 13.8421 52.086C13.6257 51.9167 13.4849 51.6686 13.4506 51.396C13.425 51.2163 13.4159 51.0347 13.4235 50.8535C13.4235 48.4411 13.4235 46.0288 13.4235 43.6201C13.4235 42.9926 13.5229 42.4302 14.2209 42.2277C14.9189 42.0251 15.3059 42.432 15.6278 42.9818C16.2517 44.0505 16.8937 45.1084 17.5374 46.168C17.6514 46.3489 17.7725 46.5297 17.9244 46.7793C18.7237 45.4483 19.4832 44.1988 20.2264 42.9384C20.5393 42.4085 20.9244 42.0342 21.5899 42.215C22.2554 42.3959 22.3856 42.9185 22.3838 43.5315C22.3747 46.0107 22.3838 48.4918 22.3838 50.971C22.3838 51.8408 21.9914 52.3056 21.2988 52.2983C20.6062 52.2911 20.2264 51.8173 20.2138 50.9475C20.2138 49.7902 20.2138 48.631 20.2138 47.4737L20.0619 47.4484Z" fill="#E33C5C"/>
<path d="M36.5178 48.1986C36.5178 49.1371 36.5287 50.0069 36.5178 50.884C36.5088 51.4265 36.2773 51.8568 35.7149 51.9979C35.2032 52.1281 34.7583 51.9762 34.5087 51.4934C34.4066 51.2701 34.3578 51.0262 34.3659 50.7809C34.349 48.2094 34.3418 45.638 34.3442 43.0665C34.3442 42.2962 34.8035 41.8603 35.5775 41.8658C36.4582 41.8658 37.337 41.8766 38.2176 41.8929C40.1345 41.9254 41.5649 43.3052 41.5342 45.0828C41.5034 46.8604 40.0875 48.1769 38.205 48.1968C37.6698 48.2022 37.1345 48.1986 36.5178 48.1986ZM36.5739 44.0647V46.0268C37.214 46.0268 37.7981 46.0521 38.3822 46.0268C38.5075 46.0289 38.6319 46.0063 38.7483 45.9603C38.8648 45.9142 38.971 45.8456 39.0609 45.7584C39.1508 45.6712 39.2225 45.5671 39.2721 45.4521C39.3217 45.3371 39.348 45.2135 39.3497 45.0882C39.4003 44.5674 38.979 44.1172 38.384 44.0792C37.7891 44.0412 37.2249 44.0647 36.5811 44.0647H36.5739Z" fill="#E33C5C"/>
<path d="M28.2824 48.5842C28.8628 47.3002 29.38 46.161 29.8954 45.0199C30.2191 44.2966 30.5265 43.5733 30.8683 42.8662C31.1703 42.2387 31.7544 42.0181 32.315 42.2713C32.4456 42.3282 32.5633 42.4108 32.6612 42.5143C32.759 42.6179 32.835 42.7401 32.8844 42.8736C32.9339 43.0072 32.9559 43.1494 32.9491 43.2917C32.9423 43.434 32.9068 43.5734 32.8448 43.7016C31.6603 46.378 30.4668 49.0489 29.2281 51.6981C29.1239 51.8598 28.9836 51.9951 28.8182 52.0933C28.6529 52.1915 28.4669 52.25 28.2751 52.2641C28.0833 52.245 27.8983 52.1822 27.7344 52.0807C27.5705 51.9791 27.432 51.8415 27.3294 51.6782C26.087 49.029 24.8935 46.3581 23.7127 43.68C23.6518 43.552 23.6176 43.4131 23.6121 43.2715C23.6066 43.13 23.6299 42.9888 23.6807 42.8566C23.7314 42.7243 23.8085 42.6037 23.9073 42.5022C24.006 42.4006 24.1244 42.3202 24.2552 42.2658C24.8248 42.0199 25.4089 42.2423 25.7019 42.8789C26.4379 44.4738 27.1485 46.0796 27.8719 47.68C27.9786 47.9259 28.0925 48.1701 28.2824 48.5842Z" fill="#E33C5C"/>
</svg>
