<svg width="76" height="76" viewBox="0 0 76 76" fill="none" xmlns="http://www.w3.org/2000/svg">
<g clip-path="url(#clip0_735_1468)">
<path d="M75.3094 44.4109C75.0338 44.2527 74.7487 44.1229 74.4732 43.971C69.4052 41.1637 64.3373 38.3538 59.2694 35.5412C58.5709 35.1519 57.9628 35.1471 57.2739 35.5554C55.6189 36.5334 53.937 37.4671 52.2677 38.4229C51.9715 38.5922 51.7245 38.7789 51.3396 38.5305C49.5975 37.4006 47.8237 36.3039 46.0642 35.1946L47.8459 34.1344C48.4145 34.6091 48.9878 34.9841 49.7654 34.5458C51.4853 33.5742 53.2105 32.6131 54.941 31.6625C55.1906 31.5412 55.3989 31.3491 55.5397 31.1101C55.6806 30.8711 55.7478 30.596 55.7329 30.319C55.7329 23.6821 55.7329 17.0441 55.7329 10.4051C55.7329 9.81011 55.4447 9.40975 54.9569 9.12807C54.6607 8.95558 54.3519 8.81157 54.0526 8.64224C49.0353 5.85708 44.018 3.07088 39.0008 0.283612C38.2659 -0.12625 37.6483 -0.0597894 36.9419 0.338995C31.6998 3.26658 26.4476 6.17676 21.1854 9.06952C20.5994 9.38602 20.2732 9.81012 20.2748 10.4938C20.2822 17.08 20.2822 23.6657 20.2748 30.251C20.2748 30.9393 20.5583 31.384 21.1553 31.7037C22.7106 32.5376 24.2737 33.3605 25.7893 34.2625C26.6604 34.7816 27.4396 34.8702 28.2441 34.2071C28.5403 33.0298 27.9163 32.4269 26.9344 31.9458C25.707 31.346 24.5303 30.6387 23.325 29.9898C23.0083 29.8174 22.8008 29.6465 22.8024 29.2192C22.8204 23.7407 22.8262 18.2621 22.8198 12.7836C22.8271 12.7295 22.8404 12.6765 22.8594 12.6253C23.1841 12.5383 23.3947 12.7836 23.6291 12.9244C27.7927 15.2981 31.9484 17.6719 36.1168 20.0456C36.5824 20.3098 36.7614 20.601 36.7503 21.1533C36.7266 26.3153 36.7361 31.479 36.7361 36.641V37.4591C35.2648 36.6363 33.8616 35.9241 32.536 35.0854C31.7125 34.5648 31.0156 34.4319 30.2586 35.1123C30.1905 35.1725 30.0654 35.1677 29.9656 35.193C29.9123 35.2815 29.8461 35.3615 29.7692 35.4304C28.119 36.4685 26.4592 37.4876 24.8169 38.5447C24.5002 38.7425 24.299 38.6444 24.025 38.4925C22.3495 37.543 20.6375 36.6647 18.9951 35.6662C18.1399 35.1471 17.432 35.1551 16.5736 35.6345C11.3283 38.5605 6.06239 41.4517 0.804413 44.3556C0.24694 44.6626 -0.00645917 45.112 -0.00487544 45.7703C0.00885022 52.3112 0.00885022 58.8479 -0.00487544 65.3803C-0.00487544 66.0925 0.267528 66.5735 0.88835 66.9169C6.14422 69.8255 11.3953 72.7441 16.6417 75.6728C17.4336 76.1143 18.0877 76.1 18.8589 75.6585C20.8687 74.5017 22.9085 73.3972 24.9373 72.2752C28.0493 70.5519 31.1566 68.8191 34.2813 67.1211C35.1444 66.6463 35.5388 66.0387 35.4849 65.029C35.4121 63.6618 35.4722 62.2882 35.4643 60.9146C35.4643 59.9651 35.165 59.628 34.1973 59.4191V56.903C36.044 56.903 37.8906 56.9315 39.7404 56.8777C40.4341 56.8587 40.5576 57.1056 40.5497 57.7338C40.5148 60.2658 40.5497 62.7977 40.5275 65.3297C40.5275 66.0703 40.7872 66.5735 41.4397 66.9343C46.7188 69.8524 51.9932 72.7805 57.2628 75.7187C57.958 76.1079 58.5662 76.119 59.263 75.7266C61.8793 74.2533 64.5147 72.8148 67.1421 71.3574C69.7695 69.8999 72.4349 68.4124 75.0845 66.9422C75.6277 66.6416 75.9967 66.2396 75.9967 65.5781C75.9967 58.9117 75.9967 52.2453 75.9967 45.5788C76.0092 45.3383 75.9507 45.0994 75.8285 44.8918C75.7064 44.6841 75.5258 44.517 75.3094 44.4109ZM24.6015 10.5697C24.4891 10.5064 24.3846 10.4289 24.1993 10.307C28.7319 7.79404 33.179 5.33171 37.6182 2.85672C37.7355 2.77887 37.8733 2.73736 38.0141 2.73736C38.155 2.73736 38.2927 2.77887 38.4101 2.85672C42.8445 5.33066 47.2879 7.79827 51.7403 10.2595C51.6405 10.5381 51.3871 10.5903 51.1939 10.701C47.0108 13.0969 42.8271 15.4912 38.6429 17.8839C38.2469 18.1118 37.9334 18.2004 37.4883 17.9472C33.2028 15.4754 28.8998 13.032 24.6015 10.5697ZM16.4707 72.1913C16.4663 72.2894 16.4562 72.3872 16.4406 72.4841C16.1761 72.5426 16.0193 72.3733 15.8435 72.2768C11.5822 69.9168 7.31987 67.5578 3.05648 65.1999C2.69697 65.0005 2.52751 64.7996 2.52909 64.3565C2.5481 58.9539 2.54176 53.5513 2.54176 48.1488C2.54176 48.0459 2.55601 47.943 2.56393 47.8418C2.81891 47.769 2.97253 47.9494 3.14674 48.0475C7.40486 50.4739 11.6619 52.8972 15.9179 55.3174C16.2537 55.5073 16.4865 55.6766 16.4849 56.1434C16.4643 61.4954 16.4722 66.8457 16.4707 72.1945V72.1913ZM58.8718 53.1383C58.5107 53.3456 58.2257 53.4706 57.7965 53.2238C53.4856 50.7372 49.1662 48.2653 44.8384 45.8083C44.7481 45.7561 44.6674 45.688 44.5106 45.5756C45.3262 45.1373 46.0737 44.6705 46.8719 44.3208C47.9441 43.846 48.6473 43.213 48.348 41.9344C47.4864 41.3014 46.6866 41.4596 45.8045 41.9803C44.3522 42.8301 42.8413 43.5833 41.3479 44.3635C40.8047 44.6483 40.5243 45.0519 40.5323 45.6817C40.5481 47.2357 40.5323 48.7897 40.5402 50.3437C40.5402 51.2931 40.849 51.6365 41.8072 51.8296C42.7669 51.6144 43.0551 51.2773 43.0662 50.3262C43.0757 49.4954 43.0662 48.6631 43.0662 47.7073L49.1367 51.1586C51.5851 52.5523 54.0336 53.9459 56.482 55.3395C56.7908 55.5152 57.0189 55.6671 57.0173 56.1039C56.9999 61.4843 57.0046 66.8536 57.003 72.2277C57.003 72.3227 56.984 72.4176 56.9619 72.6186C56.0861 72.1438 55.2831 71.7055 54.4865 71.2624C50.8946 69.2701 47.309 67.2651 43.7045 65.2949C43.2183 65.029 43.0567 64.741 43.0615 64.1982C43.0884 61.3798 43.0773 58.5599 43.0726 55.7399C43.0726 54.86 42.7273 54.4961 41.8151 54.3552C39.9146 54.3552 38.0141 54.3394 36.1247 54.3679C35.5974 54.3774 35.4596 54.2002 35.4643 53.6938C35.4865 51.0621 35.4643 48.4304 35.4849 45.7988C35.4928 45.0724 35.2157 44.6072 34.5885 44.2828C33.0697 43.4915 31.5335 42.743 30.0559 41.8853C29.2038 41.3916 28.4595 41.284 27.6803 41.9217C27.5219 43.3459 27.5758 43.4361 28.8633 44.1372C29.7201 44.5993 30.5754 45.0645 31.4496 45.5393C31.3894 45.7861 31.1645 45.8209 31.0045 45.9127C26.7813 48.3392 22.5522 50.7593 18.3173 53.1731C17.9562 53.3804 17.6838 53.4216 17.3132 53.2064C12.977 50.7103 8.63437 48.2252 4.28545 45.7513C4.19992 45.7022 4.12707 45.6358 3.97979 45.5329L7.73481 43.4472C10.8896 41.697 14.0507 39.9658 17.1944 38.1887C17.6189 37.9497 17.9182 37.956 18.3347 38.1982C20.1085 39.2315 21.9139 40.2127 23.694 41.2381C24.2594 41.5546 24.7742 41.5894 25.3142 41.227C25.5074 41.0988 25.6864 40.9279 25.9477 40.9501C26.9613 40.0243 28.2267 39.4752 29.34 38.6966C29.4342 38.6517 29.5243 38.5988 29.6093 38.5384C30.8763 37.2313 32.1147 37.5715 33.4657 38.4957C34.6313 39.2869 35.9363 39.8882 37.1652 40.6004C37.4187 40.7646 37.7144 40.852 38.0165 40.852C38.3186 40.852 38.6143 40.7646 38.8678 40.6004C40.6099 39.6208 42.3757 38.6887 44.1131 37.6997C44.566 37.4417 44.8954 37.4576 45.3246 37.7471C46.9305 38.8311 48.6631 39.7221 50.2009 40.9121C51.3666 41.8394 52.3833 41.3631 53.4713 40.6716C54.8682 39.7838 56.3505 39.0274 57.7854 38.195C58.1021 38.0083 58.354 37.937 58.7135 38.138C63.0814 40.5782 67.4546 43.0084 71.8331 45.4285C71.9122 45.4825 71.9864 45.5434 72.0548 45.6105C71.3786 46.0014 70.7229 46.3827 70.0641 46.7593C66.3286 48.8809 62.5978 51.0072 58.8718 53.1383Z" fill="#E43C5C"/>
</g>
<defs>
<clipPath id="clip0_735_1468">
<rect width="76" height="76" fill="white"/>
</clipPath>
</defs>
</svg>
