<svg width="68" height="69" viewBox="0 0 68 69" fill="none" xmlns="http://www.w3.org/2000/svg">
<g clip-path="url(#clip0_749_201)">
<path d="M35.3284 68.9995H32.672C32.3118 68.9584 31.9522 68.9035 31.5906 68.8785C29.8243 68.761 28.0721 68.4819 26.3554 68.0446C24.4827 67.5636 22.6791 66.8985 21.0098 65.8961C19.9553 65.2624 18.9932 64.5141 18.2205 63.5365C17.4176 62.5213 16.9929 61.3792 17.0062 60.0596C17.0274 57.9158 17.0062 55.7716 17.0141 53.6278C17.0208 52.0115 17.0301 50.3949 17.071 48.7793C17.1185 46.8934 17.2661 45.0145 17.6027 43.1559C17.8337 41.8834 18.1607 40.6396 18.7326 39.475C19.4216 38.0761 20.4468 37.0254 21.8858 36.4413C22.4812 36.2021 23.0941 36.0105 23.719 35.8682C25.2248 35.5201 26.7628 35.4263 28.3008 35.3963C30.5135 35.3552 32.7268 35.3492 34.9399 35.3367C37.4407 35.3229 39.9421 35.3336 42.4323 35.0498C43.6214 34.915 44.7945 34.6983 45.9328 34.3126C47.847 33.6641 49.3917 32.5319 50.4545 30.7673C50.9945 29.8706 51.3777 28.9052 51.6655 27.8991C52.2305 25.9262 52.4681 23.9 52.5804 21.8587C52.6595 20.4247 52.6738 18.9874 52.7177 17.5515C52.7207 17.4547 52.7313 17.358 52.7399 17.2404H53.0982C55.1789 17.2404 57.2593 17.2515 59.3397 17.236C60.4441 17.2279 61.4258 17.5646 62.3208 18.201C62.9329 18.6359 63.4597 19.162 63.9309 19.7469C64.8492 20.8872 65.5338 22.1664 66.0748 23.5252C67.2207 26.4045 67.8029 29.4061 67.9359 32.5025C67.9455 32.7237 67.9764 32.9438 67.997 33.1642V35.7914C67.9787 35.9215 67.9498 36.0516 67.9439 36.1824C67.9289 36.5077 67.9395 36.8343 67.9133 37.1582C67.7857 38.7479 67.5623 40.3231 67.1944 41.875C66.7292 43.8351 66.0854 45.7274 65.0934 47.4846C64.5019 48.5332 63.8033 49.4969 62.9024 50.2978C61.8289 51.2524 60.6023 51.7412 59.1507 51.7365C52.7223 51.7159 46.2937 51.7277 39.8654 51.7277C38.0508 51.7277 36.2362 51.7277 34.4214 51.7277C34.2931 51.7277 34.1649 51.7395 34.0296 51.7463V53.4445H42.5064C43.9228 53.4445 45.3391 53.4445 46.7553 53.4445C48.1667 53.4445 49.5781 53.4428 50.9905 53.4445C50.9989 53.549 51.0075 53.6046 51.0075 53.6598C51.0075 55.927 51.0069 58.1942 51.0058 60.4614C51.0058 61.0651 50.8576 61.6378 50.621 62.1886C50.2332 63.0902 49.6333 63.8318 48.9228 64.4878C47.9902 65.3493 46.9288 66.0134 45.7942 66.5588C42.8969 67.9509 39.8158 68.5984 36.6414 68.8637C36.2044 68.9038 35.7667 68.9551 35.3284 68.9995ZM40.2286 60.3367C40.2239 62.1043 41.6207 63.5355 43.3552 63.5389C43.7681 63.5404 44.1772 63.4592 44.5591 63.3C44.941 63.1409 45.2883 62.9069 45.5809 62.6115C45.8735 62.316 46.1058 61.9649 46.2644 61.5783C46.4231 61.1916 46.5049 60.777 46.5054 60.3582C46.5077 59.9395 46.4285 59.5243 46.2726 59.1366C46.1166 58.7488 45.8868 58.3961 45.5964 58.0984C45.3059 57.8008 44.9605 57.5641 44.5798 57.402C44.1991 57.2398 43.7907 57.1553 43.3778 57.1533C42.9649 57.1523 42.5559 57.2338 42.1741 57.3932C41.7923 57.5526 41.4452 57.7867 41.1528 58.0823C40.8603 58.3779 40.6281 58.729 40.4695 59.1157C40.311 59.5023 40.2291 59.9169 40.2286 60.3357V60.3367Z" fill="#E43C5C"/>
<path d="M33.997 17.241V15.5253H17.0427C17.0307 15.4127 17.0138 15.3274 17.0138 15.2422C17.0138 13.0309 17.0081 10.8197 17.0138 8.60849C17.0168 7.68725 17.2959 6.84355 17.7741 6.0649C18.278 5.24412 18.9373 4.56962 19.6844 3.97906C21.034 2.91221 22.5551 2.17065 24.1566 1.59223C26.1017 0.889425 28.1114 0.466729 30.1595 0.217292C31.9452 -0.000459719 33.7364 -0.0405864 35.528 0.0339077C38.6752 0.164694 41.746 0.712444 44.6845 1.90536C46.0776 2.47098 47.3923 3.17986 48.5578 4.14997C49.1942 4.67985 49.7602 5.27647 50.2059 5.98366C50.7376 6.82635 51.0177 7.73646 51.0134 8.74769C50.9985 12.2273 51.0154 15.707 50.9895 19.1863C50.9745 21.175 50.8436 23.1561 50.5325 25.1215C50.3395 26.3424 50.0573 27.5394 49.5967 28.6895C48.7622 30.772 47.277 32.1162 45.1584 32.7567C44.1159 33.0722 43.0494 33.2552 41.9697 33.3661C39.6101 33.6081 37.2416 33.6061 34.874 33.6203C33.2363 33.6304 31.5985 33.6284 29.9608 33.6341C28.4553 33.6391 26.9512 33.6917 25.453 33.8461C24.2746 33.9678 23.1111 34.1737 21.9805 34.5509C19.6857 35.3168 18.0503 36.8178 17.0513 39.0448C16.5119 40.2479 16.1743 41.5109 15.938 42.8046C15.619 44.5513 15.4591 46.3159 15.398 48.0893C15.3604 49.1885 15.3474 50.2884 15.3225 51.3879C15.3202 51.486 15.3106 51.5841 15.3019 51.7277H14.8998C12.8636 51.7277 10.8274 51.7119 8.79151 51.7334C7.49076 51.7469 6.36548 51.3121 5.36549 50.4977C4.65131 49.9169 4.05909 49.2232 3.54265 48.4608C2.50543 46.9294 1.79889 45.2407 1.26517 43.472C0.718131 41.658 0.359043 39.791 0.193725 37.9015C0.111307 36.9631 0.0451735 36.0219 0.0119402 35.0805C-0.0352511 33.744 0.0644464 32.4115 0.188074 31.0811C0.339487 29.4274 0.632831 27.7903 1.06477 26.1884C1.53203 24.4615 2.15815 22.7998 3.06442 21.256C3.6799 20.2076 4.40472 19.2497 5.34788 18.4781C6.06505 17.8916 6.858 17.4564 7.7769 17.3084C8.11618 17.259 8.45875 17.2364 8.80149 17.241C17.0345 17.2377 25.2674 17.2367 33.5001 17.2383L33.997 17.241ZM24.6544 11.808C26.3862 11.8144 27.8089 10.3839 27.8153 8.62972C27.8216 6.87557 26.4102 5.43019 24.681 5.42243C22.9519 5.41468 21.5269 6.84894 21.5219 8.60241C21.5166 10.3616 22.9236 11.8016 24.6544 11.808Z" fill="#E43C5C"/>
</g>
<defs>
<clipPath id="clip0_749_201">
<rect width="68" height="69" fill="white"/>
</clipPath>
</defs>
</svg>
