<svg width="92" height="37" viewBox="0 0 92 37" fill="none" xmlns="http://www.w3.org/2000/svg">
<g clip-path="url(#clip0_749_206)">
<path d="M90.5718 -0.0032659C85.862 0.0626232 81.1247 -0.00986229 76.4512 0.483207C70.7098 1.08939 68.2547 5.51056 66.5989 10.3249C64.6282 16.0528 62.9361 21.8763 61.081 27.6449C60.8971 28.2137 60.4204 28.6881 60.078 29.2054L59.5485 29.1362C58.7778 26.1712 58.0071 23.216 57.2475 20.251C55.9649 15.2226 55.0005 10.0756 52.2933 5.5358C50.5031 2.53346 47.8983 0.823629 44.2399 0.862064C38.1572 0.926855 32.0723 0.955422 25.9896 0.877453C22.9962 0.839018 20.529 1.98438 18.3865 3.86112C16.5898 5.43587 14.8558 7.11934 13.3222 8.94227C9.28397 13.7335 6.52282 19.289 4.06772 25.0005C3.35651 26.6554 2.70256 28.34 2.12897 30.0454C1.41336 32.1747 0.807841 34.3414 0.00195312 36.9923C5.24022 35.9491 10.1757 37.5568 14.858 35.1156C16.886 34.0592 18.6695 32.9193 19.5921 30.9338C20.8306 28.2719 21.925 25.4991 22.6747 22.667C23.9584 17.8472 25.9335 13.4809 29.5225 9.92841C30.367 9.09161 31.1497 8.19114 32.1296 7.13911C32.5116 7.88366 32.767 8.23727 32.8804 8.62491C34.7421 15.0776 36.5575 21.5435 38.4457 27.9875C39.5961 31.9156 42.5599 36.1138 48.1251 35.7844C53.6904 35.4549 59.2941 35.6976 64.8814 35.7218C67.3156 35.7328 69.5307 34.9531 71.0742 33.185C74.148 29.6644 77.1294 26.0372 79.8564 22.2497C81.728 19.6591 83.0899 16.7117 84.7148 13.9444C87.0268 10.0141 89.385 6.11674 91.675 2.17767C92.3785 0.975198 91.9117 -0.0175419 90.5718 -0.0032659Z" fill="#E43C5C"/>
</g>
<defs>
<clipPath id="clip0_749_206">
<rect width="92" height="37" fill="white"/>
</clipPath>
</defs>
</svg>
