<svg width="487" height="450" viewBox="0 0 487 450" fill="none" xmlns="http://www.w3.org/2000/svg">
<g clip-path="url(#clip0_735_990)">
<path d="M470.973 197.026C469.972 190.824 468.78 184.733 467.478 178.801C456.86 130.519 432.33 79.2913 384.251 59.7941C328.94 37.3712 250.431 43.5831 200.95 87.3768C162.887 121.041 85.7607 141.36 42.69 192.397C-1.95334 245.309 -11.2787 344.468 46.6966 384.495C87.9343 412.959 138.918 390.506 184.844 381.098C210.996 375.748 233.634 378.774 259.416 381.098C304.22 385.106 350.626 388.111 395.81 378.092C418.127 373.083 437.969 364.005 450.55 343.306C476.973 299.773 478.796 244.968 470.973 197.026Z" fill="#F2F2F2"/>
<path d="M203.654 8.51611C202.88 10.4906 202.499 12.5973 202.532 14.718C202.532 18.385 193.738 14.718 190.442 19.4771C187.147 24.2362 190.813 27.1718 186.436 28.6346C182.059 30.0974 181.678 26.4404 176.189 26.8011C170.7 27.1617 171.421 32.3016 169.598 33.7644C167.775 35.2272 167.765 34.4958 163.739 34.8665C159.712 35.2372 158.971 38.1628 158.971 38.1628H255.279C255.279 38.1628 258.083 29.7467 254.367 24.9475" stroke="#B2B2B2" stroke-linecap="round" stroke-linejoin="round"/>
<path d="M249.6 21.8215C245.593 20.6493 244.912 24.2161 240.585 22.3726C236.258 20.5291 235.577 17.1125 234.365 13.4555C234.234 13.0447 234.094 12.6239 233.944 12.2031C229.607 0.18016 212.959 -3.15622 205.808 4.93926" stroke="#B2B2B2" stroke-linecap="round" stroke-linejoin="round"/>
<path d="M237.73 34.1148C237.73 34.1148 239.733 27.943 234.825 23.4043C229.917 18.8656 224.809 21.4005 223.396 23.4043C221.984 25.4081 221.954 29.2154 219.59 29.5761C217.226 29.9368 217.777 25.5684 212.699 26.6705C207.62 27.7727 209.614 32.8423 207.26 33.9344C204.906 35.0265 204.906 31.0289 201.641 32.3013C198.375 33.5737 198.555 35.9282 198.555 35.9282" stroke="#B2B2B2" stroke-linecap="round" stroke-linejoin="round"/>
<path d="M211.677 21.7913C210.343 20.8387 208.778 20.2611 207.146 20.1183C205.513 19.9756 203.871 20.2731 202.392 20.9798C197.144 23.4044 199.568 28.4541 197.144 29.6664C194.72 30.8787 193.508 29.466 190.483 30.8787C187.458 32.2914 187.658 34.3052 187.658 34.3052" stroke="#B2B2B2" stroke-linecap="round" stroke-linejoin="round"/>
<path d="M421.021 128.295H459.174C459.174 128.295 462.84 117.274 456.249 113.266C449.659 109.259 449.659 114.729 444.53 112.535C440.293 110.721 439.522 107.275 438.32 103.618C438.18 103.207 438.039 102.786 437.889 102.365C437.486 101.227 436.955 100.138 436.307 99.1191" stroke="#B2B2B2" stroke-linecap="round" stroke-linejoin="round"/>
<path d="M431.829 94.36C422.273 87.3466 406.447 89.9817 406.447 104.85C406.447 108.517 397.663 104.85 394.367 109.609C391.072 114.368 394.728 117.304 390.361 118.767C385.993 120.229 385.603 116.572 380.104 116.933C374.605 117.294 375.346 122.434 373.513 123.896C371.68 125.359 371.68 124.628 367.653 124.999C363.627 125.369 362.896 128.295 362.896 128.295H414.3" stroke="#B2B2B2" stroke-linecap="round" stroke-linejoin="round"/>
<path d="M441.645 124.287C441.645 124.287 443.648 118.115 438.75 113.577C433.852 109.038 428.734 111.573 427.321 113.577C425.909 115.58 425.869 119.388 423.515 119.748C421.161 120.109 421.702 115.741 416.624 116.843C411.545 117.945 413.539 123.015 411.185 124.107C408.831 125.199 408.821 121.201 405.556 122.474C402.29 123.746 402.481 126.101 402.481 126.101" stroke="#B2B2B2" stroke-linecap="round" stroke-linejoin="round"/>
<path d="M415.603 111.964C414.269 111.011 412.704 110.433 411.071 110.291C409.438 110.148 407.797 110.445 406.318 111.152C401.059 113.577 403.483 118.626 401.059 119.839C398.635 121.051 397.433 119.638 394.398 121.051C391.363 122.464 391.573 124.478 391.573 124.478" stroke="#B2B2B2" stroke-linecap="round" stroke-linejoin="round"/>
<path d="M389.619 143.544C384.611 137.633 373.273 138.354 373.273 147.902C373.273 150.006 368.264 147.902 366.341 150.638C364.418 153.373 366.552 155.046 364.027 155.888C361.503 156.729 361.293 154.625 358.138 154.836C354.983 155.046 355.413 157.992 354.362 158.843C353.31 159.695 353.31 159.264 350.996 159.474C350.401 159.465 349.818 159.643 349.329 159.983C348.84 160.322 348.47 160.807 348.271 161.368H403.532C403.532 161.368 405.636 155.056 401.85 152.752C398.063 150.447 398.063 153.583 395.128 152.331C392.694 151.329 392.244 149.325 391.563 147.211" stroke="#B2B2B2" stroke-linecap="round" stroke-linejoin="round"/>
<path d="M393.466 159.054C393.774 157.976 393.782 156.834 393.489 155.752C393.196 154.67 392.613 153.688 391.803 152.912C388.999 150.307 386.084 151.77 385.253 152.912C384.421 154.054 384.421 156.249 383.069 156.449C381.717 156.649 382.067 154.165 379.113 154.786C376.158 155.407 377.34 158.323 375.987 158.954C374.635 159.585 374.635 157.281 372.762 158.012C370.889 158.743 370.989 160.096 370.989 160.096" stroke="#B2B2B2" stroke-linecap="round" stroke-linejoin="round"/>
<path d="M378.521 151.98C377.755 151.435 376.857 151.104 375.92 151.023C374.982 150.942 374.041 151.113 373.192 151.519C370.187 152.912 371.57 155.807 370.187 156.529C368.805 157.25 368.104 156.419 366.371 157.23C364.638 158.042 364.748 159.234 364.748 159.234" stroke="#B2B2B2" stroke-linecap="round" stroke-linejoin="round"/>
<path d="M47.5378 106.243C46.6529 105.751 45.6415 105.535 44.6331 105.621C41.4779 105.832 41.8986 108.777 40.8468 109.629C39.7951 110.481 39.8452 110.05 37.4913 110.26C36.8952 110.252 36.3114 110.43 35.8212 110.77C35.3311 111.109 34.959 111.593 34.7568 112.154H90.0176C90.0176 112.154 91.3798 108.066 89.9375 105.261" stroke="#B2B2B2" stroke-linecap="round" stroke-linejoin="round"/>
<path d="M88.3353 103.518C84.5591 101.213 84.5591 104.359 81.6143 103.097C79.1803 102.095 78.7295 100.091 78.0484 97.9873L77.808 97.2659C74.6128 88.3889 59.7784 87.7778 59.7784 98.6886C59.7784 100.793 54.7702 98.6886 52.847 101.424C50.9238 104.159 53.0573 105.832 50.5332 106.674" stroke="#B2B2B2" stroke-linecap="round" stroke-linejoin="round"/>
<path d="M79.9615 109.84C80.267 108.761 80.2737 107.62 79.9808 106.538C79.688 105.457 79.1065 104.475 78.2988 103.698C75.4842 101.093 72.5694 102.556 71.738 103.698C70.9067 104.84 70.9067 107.024 69.5544 107.235C68.2022 107.445 68.5528 104.95 65.598 105.571C62.6431 106.193 63.825 109.108 62.4728 109.709C61.1206 110.311 61.1206 108.036 59.2475 108.768C57.3744 109.499 57.4846 110.852 57.4846 110.852" stroke="#B2B2B2" stroke-linecap="round" stroke-linejoin="round"/>
<path d="M65.0167 102.766C64.2485 102.221 63.3486 101.89 62.41 101.809C61.4714 101.728 60.5282 101.899 59.6779 102.305C56.673 103.698 58.0553 106.593 56.673 107.315C55.2907 108.036 54.5796 107.204 52.8467 108.016C51.1139 108.828 51.2241 110.02 51.2241 110.02" stroke="#B2B2B2" stroke-linecap="round" stroke-linejoin="round"/>
<path d="M315.248 158.643V403.271C315.248 409.776 312.664 416.014 308.066 420.614C303.468 425.213 297.231 427.797 290.728 427.797H174.417C171.194 427.801 168.002 427.17 165.024 425.939C162.045 424.708 159.339 422.902 157.059 420.624C154.779 418.346 152.97 415.641 151.736 412.664C150.501 409.686 149.866 406.494 149.866 403.271V158.643C149.866 158.262 149.866 157.892 149.866 157.521C150.152 151.217 152.858 145.266 157.419 140.906C161.981 136.547 168.047 134.115 174.356 134.116H222.986L223.036 134.297C224.479 139.476 227.784 142.843 231.46 142.843H233.574C237.23 142.843 240.585 139.476 241.988 134.297L242.038 134.116H290.667C296.976 134.115 303.043 136.547 307.605 140.906C312.166 145.266 314.872 151.217 315.158 157.521C315.238 157.892 315.248 158.262 315.248 158.643Z" fill="#014999"/>
<path d="M315.218 157.521H149.946C150.232 151.217 152.938 145.266 157.499 140.906C162.061 136.547 168.128 134.115 174.437 134.116H223.066L223.116 134.297C224.559 139.476 227.864 142.843 231.54 142.843H233.654C237.31 142.843 240.665 139.476 242.068 134.297L242.118 134.116H290.748C297.053 134.12 303.114 136.554 307.672 140.913C312.229 145.272 314.932 151.22 315.218 157.521Z" fill="white" stroke="#263238" stroke-linecap="round" stroke-linejoin="round"/>
<path d="M325.765 223.928V192.868H322.951V153.042C322.952 149.821 322.319 146.63 321.087 143.653C319.855 140.676 318.049 137.971 315.772 135.693C313.495 133.414 310.792 131.607 307.816 130.373C304.84 129.14 301.651 128.505 298.43 128.505H166.714C163.492 128.504 160.302 129.138 157.325 130.37C154.348 131.603 151.644 133.41 149.365 135.689C147.087 137.968 145.28 140.673 144.048 143.651C142.816 146.628 142.182 149.82 142.184 153.042V420.754C142.182 423.977 142.816 427.168 144.048 430.145C145.28 433.123 147.087 435.828 149.365 438.107C151.644 440.386 154.348 442.193 157.325 443.426C160.302 444.658 163.492 445.292 166.714 445.291H298.43C301.651 445.291 304.84 444.656 307.816 443.423C310.792 442.19 313.495 440.382 315.772 438.104C318.049 435.825 319.855 433.12 321.087 430.143C322.319 427.166 322.952 423.976 322.951 420.754V250.428H325.765V232.043H322.951V223.928H325.765ZM315.248 403.27C315.248 409.775 312.664 416.014 308.066 420.614C303.468 425.213 297.231 427.797 290.728 427.797H174.417C171.194 427.801 168.002 427.17 165.024 425.939C162.045 424.708 159.339 422.902 157.059 420.624C154.779 418.346 152.97 415.641 151.736 412.663C150.501 409.686 149.866 406.494 149.866 403.27V158.643C149.866 152.138 152.45 145.9 157.048 141.3C161.646 136.7 167.883 134.116 174.386 134.116H223.016L223.066 134.296C224.499 139.476 227.814 142.843 231.48 142.843H233.594C237.27 142.843 240.605 139.476 242.018 134.296L242.068 134.116H290.698C297.201 134.116 303.438 136.7 308.036 141.3C312.634 145.9 315.218 152.138 315.218 158.643L315.248 403.27Z" fill="#707070" stroke="#263238" stroke-linecap="round" stroke-linejoin="round"/>
<path d="M294.103 131.892H171.001C164.113 131.892 157.506 134.629 152.636 139.501C147.765 144.373 145.028 150.981 145.028 157.871V415.924C145.028 422.815 147.765 429.423 152.636 434.295C157.506 439.167 164.113 441.904 171.001 441.904H294.103C297.52 441.913 300.905 441.248 304.064 439.947C307.223 438.645 310.095 436.733 312.514 434.32C314.933 431.906 316.853 429.039 318.162 425.883C319.472 422.726 320.146 419.342 320.146 415.924V157.871C320.146 154.454 319.472 151.07 318.162 147.913C316.853 144.757 314.933 141.889 312.514 139.476C310.095 137.063 307.223 135.151 304.064 133.849C300.905 132.548 297.52 131.882 294.103 131.892ZM315.248 403.27C315.248 409.775 312.665 416.014 308.066 420.613C303.468 425.213 297.231 427.797 290.728 427.797H174.417C171.194 427.801 168.002 427.17 165.024 425.939C162.045 424.708 159.339 422.902 157.059 420.624C154.779 418.346 152.97 415.641 151.736 412.663C150.502 409.686 149.866 406.494 149.866 403.27V158.643C149.866 152.138 152.45 145.899 157.048 141.3C161.647 136.7 167.883 134.116 174.387 134.116H223.016L223.067 134.296C224.499 139.476 227.814 142.843 231.48 142.843H233.594C237.27 142.843 240.605 139.476 242.018 134.296L242.068 134.116H290.698C297.201 134.116 303.438 136.7 308.036 141.3C312.635 145.899 315.218 152.138 315.218 158.643L315.248 403.27Z" fill="#263238" stroke="#263238" stroke-linecap="round" stroke-linejoin="round"/>
<path d="M234.365 135.288C234.365 134.833 234.23 134.387 233.977 134.008C233.724 133.629 233.364 133.334 232.943 133.159C232.522 132.985 232.059 132.939 231.612 133.028C231.165 133.117 230.755 133.337 230.433 133.659C230.11 133.981 229.891 134.392 229.802 134.839C229.713 135.286 229.759 135.749 229.933 136.17C230.108 136.591 230.403 136.951 230.782 137.204C231.161 137.458 231.606 137.593 232.062 137.593C232.673 137.593 233.259 137.35 233.691 136.918C234.123 136.486 234.365 135.899 234.365 135.288Z" fill="#707070"/>
<path d="M164.59 144.115C164.59 146.45 161.976 147.281 161.966 149.065V149.185H164.5V149.967H161.114V149.305C161.114 146.811 163.729 146.3 163.729 144.145C163.729 143.354 163.458 142.933 162.827 142.933C162.196 142.933 161.916 143.384 161.916 144.075V144.777H161.114V144.145C161.114 142.963 161.655 142.142 162.847 142.142C164.039 142.142 164.59 142.933 164.59 144.115Z" fill="#263238"/>
<path d="M168.817 144.105V144.306C168.852 144.637 168.779 144.971 168.61 145.258C168.44 145.545 168.183 145.769 167.876 145.899C168.186 146.024 168.446 146.248 168.616 146.536C168.786 146.824 168.857 147.16 168.817 147.492V148.093C168.817 149.275 168.266 150.047 167.074 150.047C165.882 150.047 165.342 149.275 165.342 148.093V147.562H166.143V148.143C166.143 148.844 166.433 149.265 167.054 149.265C167.675 149.265 167.956 148.854 167.956 148.073V147.472C167.956 146.71 167.635 146.35 166.954 146.33H166.493V145.548H166.994C167.128 145.551 167.261 145.525 167.383 145.471C167.505 145.417 167.615 145.338 167.703 145.238C167.792 145.138 167.858 145.019 167.896 144.891C167.935 144.763 167.945 144.628 167.926 144.496V144.135C167.926 143.344 167.645 142.933 167.024 142.933C166.403 142.933 166.113 143.364 166.113 144.065V144.456H165.312V144.105C165.312 142.923 165.862 142.162 167.044 142.162C168.226 142.162 168.817 142.923 168.817 144.105Z" fill="#263238"/>
<path d="M170.491 144.687V145.779H169.659V144.707L170.491 144.687ZM170.491 148.895V149.967H169.659V148.895H170.491Z" fill="#263238"/>
<path d="M172.233 145.388C172.343 145.184 172.509 145.016 172.711 144.903C172.913 144.789 173.143 144.735 173.374 144.746C174.376 144.746 174.817 145.478 174.817 146.58V148.093C174.817 149.275 174.246 150.047 173.064 150.047C171.882 150.047 171.331 149.275 171.331 148.093V147.572H172.142V148.143C172.142 148.844 172.433 149.265 173.044 149.265C173.655 149.265 173.955 148.844 173.955 148.143V146.64C173.955 145.949 173.665 145.528 173.044 145.528C172.932 145.524 172.82 145.542 172.715 145.582C172.61 145.622 172.514 145.683 172.433 145.76C172.352 145.838 172.287 145.931 172.242 146.034C172.197 146.136 172.174 146.247 172.172 146.36V146.53H171.371L171.581 142.242H174.586V143.013H172.313L172.233 145.388Z" fill="#263238"/>
<path d="M179.105 144.095V144.236H178.303V144.035C178.303 143.344 178.013 142.933 177.382 142.933C176.751 142.933 176.45 143.354 176.45 144.186V145.919C176.539 145.664 176.708 145.445 176.932 145.295C177.156 145.145 177.423 145.072 177.692 145.087C178.694 145.087 179.135 145.809 179.135 146.921V148.093C179.135 149.275 178.544 150.047 177.362 150.047C176.18 150.047 175.589 149.275 175.589 148.093V144.145C175.589 142.923 176.14 142.142 177.362 142.142C178.584 142.142 179.105 142.913 179.105 144.095ZM176.45 146.991V148.143C176.45 148.844 176.731 149.265 177.362 149.265C177.993 149.265 178.283 148.844 178.283 148.143V146.991C178.283 146.29 177.983 145.869 177.362 145.869C176.741 145.869 176.45 146.29 176.45 146.991Z" fill="#263238"/>
<path d="M263.463 144.436H261.279V149.896H263.463V144.436Z" fill="#263238"/>
<path d="M266.367 143.344H264.184V149.896H266.367V143.344Z" fill="#263238"/>
<path d="M269.282 142.562H267.099V149.886H269.282V142.562Z" fill="#263238"/>
<path d="M272.187 141.22H270.004V149.896H272.187V141.22Z" fill="#263238"/>
<path d="M299.191 149.786H286.09V141.771H299.181L299.191 149.786ZM286.821 149.064H298.46V142.512H286.821V149.064Z" fill="#263238"/>
<path d="M294.824 143.253H287.913V148.213H294.824V143.253Z" fill="#263238"/>
<path d="M300.373 144.796H298.73V146.68H300.373V144.796Z" fill="#263238"/>
<path d="M281.292 148.003C281.207 148 281.124 147.976 281.051 147.933C278.387 146.35 276.624 147.812 276.544 147.882C276.444 147.959 276.32 147.994 276.195 147.982C276.071 147.969 275.955 147.909 275.873 147.814C275.792 147.72 275.749 147.597 275.754 147.472C275.76 147.347 275.813 147.228 275.903 147.141C276.003 147.061 278.247 145.137 281.542 147.091C281.598 147.123 281.647 147.166 281.686 147.217C281.726 147.269 281.754 147.328 281.77 147.39C281.786 147.453 281.789 147.518 281.779 147.582C281.769 147.646 281.746 147.707 281.712 147.762C281.669 147.835 281.607 147.896 281.534 147.938C281.46 147.98 281.377 148.002 281.292 148.003Z" fill="#263238"/>
<path d="M282.284 146.36C282.196 146.357 282.11 146.333 282.034 146.29C278.177 143.995 275.593 146.209 275.563 146.229C275.471 146.321 275.347 146.372 275.217 146.372C275.088 146.372 274.964 146.321 274.872 146.229C274.79 146.13 274.749 146.002 274.758 145.874C274.767 145.745 274.826 145.625 274.922 145.538C274.922 145.538 278.077 142.833 282.535 145.488C282.646 145.555 282.726 145.663 282.758 145.788C282.79 145.914 282.771 146.048 282.705 146.159C282.656 146.224 282.592 146.276 282.519 146.311C282.446 146.346 282.365 146.363 282.284 146.36Z" fill="#263238"/>
<path d="M283.175 144.456C283.088 144.451 283.002 144.427 282.925 144.386C278.047 141.48 274.802 144.215 274.671 144.336C274.572 144.418 274.444 144.459 274.316 144.449C274.187 144.44 274.067 144.381 273.98 144.285C273.889 144.193 273.838 144.069 273.838 143.94C273.838 143.81 273.889 143.686 273.98 143.594C273.98 143.594 277.877 140.268 283.386 143.594C283.477 143.649 283.549 143.733 283.588 143.832C283.628 143.932 283.634 144.042 283.606 144.145C283.578 144.248 283.516 144.339 283.431 144.405C283.346 144.47 283.242 144.505 283.135 144.506L283.175 144.456Z" fill="#263238"/>
<path d="M279.829 148.784C279.831 149.029 279.761 149.268 279.626 149.472C279.492 149.676 279.301 149.835 279.076 149.93C278.851 150.025 278.603 150.051 278.363 150.004C278.123 149.958 277.903 149.841 277.73 149.669C277.556 149.497 277.438 149.278 277.39 149.038C277.341 148.799 277.365 148.551 277.458 148.325C277.551 148.099 277.709 147.906 277.912 147.77C278.115 147.635 278.353 147.562 278.597 147.562C278.922 147.562 279.234 147.69 279.465 147.919C279.696 148.148 279.827 148.459 279.829 148.784Z" fill="#263238"/>
<path opacity="0.3" d="M107.295 219.75L108.177 214.069C109.575 213.679 110.92 213.12 112.184 212.406L118.724 217.185L123.833 212.085L119.055 205.543C119.767 204.28 120.322 202.934 120.708 201.535L128.721 200.293V193.069L120.708 191.827C120.325 190.427 119.77 189.081 119.055 187.819L123.823 181.246L118.714 176.137L112.174 180.916C110.91 180.202 109.565 179.643 108.167 179.253L106.925 171.237H99.703L98.451 179.253C97.0544 179.647 95.7095 180.205 94.4444 180.916L93.5429 180.255M91.6097 178.842L87.9036 176.137L82.8053 181.246L87.5831 187.789C86.869 189.053 86.3107 190.398 85.9204 191.797L77.9072 193.039V200.263L85.9204 201.505C86.3132 202.902 86.8714 204.248 87.5831 205.513L82.8053 212.055L87.9036 217.155L94.4444 212.376C95.7095 213.087 97.0544 213.645 98.451 214.039L99.703 222.054H106.925M100.785 207.797C98.0185 207.163 95.5878 205.521 93.9672 203.19C92.3467 200.86 91.6526 198.009 92.0206 195.194C92.3885 192.379 93.7921 189.803 95.9572 187.967C98.1223 186.132 100.894 185.17 103.73 185.269C106.566 185.367 109.264 186.52 111.296 188.501C113.328 190.483 114.549 193.151 114.721 195.984C114.892 198.818 114.002 201.614 112.223 203.826C110.445 206.038 107.906 207.507 105.102 207.947" stroke="black" stroke-linecap="round" stroke-linejoin="round"/>
<path opacity="0.3" d="M67.4504 212.897C69.0748 213.584 70.4118 214.811 71.2348 216.371C72.0577 217.931 72.316 219.728 71.9658 221.457C71.6156 223.186 70.6785 224.74 69.3133 225.857C67.9482 226.973 66.239 227.583 64.4755 227.583C62.712 227.583 61.0028 226.973 59.6376 225.857C58.2725 224.74 57.3353 223.186 56.9851 221.457C56.6349 219.728 56.8932 217.931 57.7162 216.371C58.5392 214.811 59.8762 213.584 61.5006 212.897M81.4734 222.365V217.526L76.1146 216.694C75.8502 215.756 75.4771 214.851 75.0028 213.999L78.198 209.631L74.7423 206.204L70.3652 209.41C69.5359 208.933 68.6512 208.56 67.7308 208.298L66.8895 202.938H62.0515L61.2201 208.298C60.2787 208.554 59.3734 208.927 58.5257 209.41L54.1485 206.204L50.7029 209.631L53.8981 213.999C53.423 214.85 53.0531 215.755 52.7963 216.694L47.4375 217.526V222.365L52.7963 223.197C53.0547 224.133 53.4246 225.034 53.8981 225.882L50.7029 230.26L54.1185 233.677L58.4957 230.481C59.3474 230.955 60.2517 231.328 61.1901 231.593L62.0215 236.953H66.8494L67.6908 231.593C68.6253 231.326 69.5261 230.953 70.3752 230.481L74.7423 233.677L78.158 230.26L75.0028 225.932C75.4753 225.083 75.8484 224.182 76.1146 223.247L81.4734 222.365Z" stroke="black" stroke-linecap="round" stroke-linejoin="round"/>
<path opacity="0.3" d="M358.789 350.259L361.524 342.625L355.203 339.148L350.275 345.59C348.86 345.261 347.411 345.102 345.958 345.119L342.503 337.795L335.571 339.799L336.643 347.815C335.406 348.583 334.269 349.502 333.257 350.55L325.635 347.805L322.149 354.177L328.59 359.106C328.26 360.521 328.102 361.971 328.119 363.424L320.797 366.881L322.8 373.814L330.813 372.752C331.585 373.984 332.503 375.118 333.548 376.129L330.803 383.763L337.174 387.24L342.102 380.798C343.52 381.128 344.973 381.286 346.429 381.269L349.875 388.592L356.806 386.589L355.744 378.573C356.978 377.805 358.112 376.886 359.12 375.838L366.752 378.583L370.228 372.211L363.788 367.282C364.122 365.867 364.28 364.417 364.258 362.964L371.59 359.507L369.587 352.574L361.574 353.636C361.394 353.335 361.193 353.045 360.993 352.754M337.675 370.788C335.841 368.702 334.83 366.019 334.831 363.241C334.833 360.463 335.846 357.781 337.682 355.697C339.517 353.612 342.05 352.268 344.804 351.917C347.559 351.565 350.348 352.23 352.648 353.786C354.948 355.342 356.603 357.684 357.301 360.373C358 363.061 357.695 365.912 356.444 368.392C355.193 370.872 353.081 372.811 350.504 373.846C347.927 374.881 345.061 374.941 342.442 374.015" stroke="black" stroke-linecap="round" stroke-linejoin="round"/>
<path opacity="0.3" d="M346.579 325.262C344.885 325.777 343.064 325.688 341.428 325.01C339.792 324.331 338.442 323.106 337.61 321.542C336.777 319.979 336.513 318.175 336.863 316.438C337.213 314.701 338.155 313.14 339.528 312.021C340.901 310.903 342.619 310.295 344.39 310.304C346.161 310.312 347.874 310.935 349.237 312.067C350.6 313.198 351.527 314.768 351.861 316.508C352.194 318.248 351.913 320.049 351.066 321.605C350.851 321.999 350.603 322.374 350.325 322.727M334.098 331.724L338.335 334.039L341.641 329.73C342.587 329.948 343.555 330.052 344.526 330.041L346.839 334.95L351.477 333.578L350.766 328.207C351.589 327.691 352.346 327.075 353.02 326.374L358.128 328.207L360.442 323.969L356.135 320.673C356.357 319.724 356.461 318.752 356.445 317.777L361.353 315.463L359.991 310.824L354.612 311.536C354.096 310.714 353.484 309.958 352.789 309.281L354.622 304.171L350.375 301.857L347.08 306.165C346.131 305.943 345.159 305.839 344.185 305.855L341.871 300.945L337.244 302.308L337.955 307.688C337.129 308.202 336.369 308.815 335.691 309.512L330.583 307.678L328.269 311.926L332.576 315.223C332.359 316.172 332.255 317.144 332.265 318.118L327.357 320.433L328.73 325.061L334.098 324.35C334.612 325.179 335.228 325.939 335.932 326.614L334.098 331.724Z" stroke="black" stroke-linecap="round" stroke-linejoin="round"/>
<path d="M17.6494 445.351H465.385" stroke="#263238" stroke-linecap="round" stroke-linejoin="round"/>
<path d="M192.957 175.035H169.379C166.413 175.035 164.01 177.439 164.01 180.405V203.99C164.01 206.956 166.413 209.36 169.379 209.36H192.957C195.922 209.36 198.326 206.956 198.326 203.99V180.405C198.326 177.439 195.922 175.035 192.957 175.035Z" fill="white" stroke="#263238" stroke-linecap="round" stroke-linejoin="round"/>
<path d="M180.817 182.229V197.878C180.817 197.878 169.619 189.232 171.051 199.001C171.732 203.569 182.069 201.565 182.069 201.565V188.13C183.669 187.917 185.242 187.544 186.767 187.018C189.642 186.016 193.007 182.208 193.007 182.208L180.817 182.229Z" fill="#E43B5C"/>
<path d="M243.5 284.905H219.922C216.956 284.905 214.553 287.309 214.553 290.275V313.86C214.553 316.826 216.956 319.23 219.922 319.23H243.5C246.465 319.23 248.869 316.826 248.869 313.86V290.275C248.869 287.309 246.465 284.905 243.5 284.905Z" fill="white" stroke="#263238" stroke-linecap="round" stroke-linejoin="round"/>
<path d="M243.47 293.952H219.48V309.352H243.47V293.952Z" fill="#E43B5C"/>
<path d="M219.48 293.952L231.28 303.951L243.3 294.082" stroke="white" stroke-linecap="round" stroke-linejoin="round"/>
<path d="M219.48 309.341L228.075 301.546" stroke="white" stroke-linecap="round" stroke-linejoin="round"/>
<path d="M243.47 309.341L234.476 301.546" stroke="white" stroke-linecap="round" stroke-linejoin="round"/>
<path d="M293.302 175.035H269.723C266.758 175.035 264.354 177.439 264.354 180.405V203.99C264.354 206.956 266.758 209.36 269.723 209.36H293.302C296.267 209.36 298.671 206.956 298.671 203.99V180.405C298.671 177.439 296.267 175.035 293.302 175.035Z" fill="white" stroke="#263238" stroke-linecap="round" stroke-linejoin="round"/>
<path d="M288.998 200.291C293.453 196.161 293.718 189.201 289.59 184.744C285.461 180.288 278.503 180.023 274.047 184.153C269.592 188.282 269.327 195.243 273.456 199.699C277.584 204.156 284.543 204.42 288.998 200.291Z" stroke="#E43B5C" stroke-miterlimit="10"/>
<path d="M290.185 195.468C291.99 190.679 289.572 185.332 284.784 183.527C279.997 181.721 274.652 184.139 272.846 188.928C271.041 193.718 273.459 199.064 278.247 200.87C283.034 202.676 288.379 200.257 290.185 195.468Z" fill="#E43B5C"/>
<path d="M281.633 187.308C281.633 187.996 281.429 188.668 281.047 189.24C280.665 189.811 280.123 190.257 279.487 190.52C278.852 190.783 278.154 190.852 277.479 190.718C276.805 190.584 276.186 190.253 275.7 189.767C275.214 189.28 274.883 188.661 274.748 187.986C274.614 187.312 274.683 186.613 274.946 185.978C275.209 185.342 275.655 184.799 276.226 184.417C276.798 184.035 277.47 183.832 278.157 183.832C279.079 183.832 279.963 184.198 280.615 184.85C281.267 185.502 281.633 186.386 281.633 187.308Z" fill="white" stroke="#E43B5C" stroke-miterlimit="10"/>
<path d="M192.957 231.663H169.379C166.413 231.663 164.01 234.067 164.01 237.033V260.618C164.01 263.584 166.413 265.989 169.379 265.989H192.957C195.922 265.989 198.326 263.584 198.326 260.618V237.033C198.326 234.067 195.922 231.663 192.957 231.663Z" fill="white" stroke="#263238" stroke-linecap="round" stroke-linejoin="round"/>
<path d="M190.143 246.912L176.741 239.167C176.391 238.964 175.993 238.857 175.588 238.857C175.183 238.857 174.786 238.964 174.436 239.168C174.086 239.371 173.796 239.664 173.596 240.016C173.395 240.368 173.292 240.766 173.295 241.171V256.651C173.292 257.056 173.395 257.454 173.596 257.806C173.796 258.158 174.086 258.45 174.436 258.654C174.786 258.857 175.183 258.965 175.588 258.965C175.993 258.965 176.391 258.858 176.741 258.655L190.143 250.92C190.499 250.721 190.797 250.43 191.003 250.078C191.21 249.726 191.319 249.324 191.319 248.916C191.319 248.507 191.21 248.106 191.003 247.754C190.797 247.402 190.499 247.111 190.143 246.912Z" fill="#E43B5C"/>
<path d="M293.302 341.543H269.723C266.758 341.543 264.354 343.947 264.354 346.913V370.498C264.354 373.464 266.758 375.869 269.723 375.869H293.302C296.267 375.869 298.671 373.464 298.671 370.498V346.913C298.671 343.947 296.267 341.543 293.302 341.543Z" fill="white" stroke="#263238" stroke-linecap="round" stroke-linejoin="round"/>
<path d="M281.683 347.895C274.742 347.895 269.103 352.404 269.103 357.914C269.103 361.501 271.466 364.647 275.012 366.43L272.879 371.751L279.61 367.833C280.297 367.926 280.99 367.973 281.683 367.973C288.635 367.973 294.274 363.475 294.274 357.954C294.274 352.434 288.635 347.895 281.683 347.895Z" fill="#E43B5C"/>
<path d="M293.302 231.663H269.723C266.758 231.663 264.354 234.067 264.354 237.033V260.618C264.354 263.584 266.758 265.989 269.723 265.989H293.302C296.267 265.989 298.671 263.584 298.671 260.618V237.033C298.671 234.067 296.267 231.663 293.302 231.663Z" fill="white" stroke="#263238" stroke-linecap="round" stroke-linejoin="round"/>
<path d="M281.513 260.658C288.046 260.658 293.342 255.361 293.342 248.826C293.342 242.291 288.046 236.993 281.513 236.993C274.98 236.993 269.684 242.291 269.684 248.826C269.684 255.361 274.98 260.658 281.513 260.658Z" fill="#E43B5C"/>
<path d="M277.787 253.675L281.523 248.826V240.159" stroke="white" stroke-linecap="round" stroke-linejoin="round"/>
<path d="M192.957 283.662H169.379C166.413 283.662 164.01 286.066 164.01 289.032V312.617C164.01 315.583 166.413 317.988 169.379 317.988H192.957C195.922 317.988 198.326 315.583 198.326 312.617V289.032C198.326 286.066 195.922 283.662 192.957 283.662Z" fill="white" stroke="#263238" stroke-linecap="round" stroke-linejoin="round"/>
<path d="M177.612 299.713C177.68 299.65 177.764 299.609 177.855 299.594C177.946 299.58 178.04 299.593 178.123 299.633L183.131 302.148L188.069 295.234C188.134 295.143 188.231 295.079 188.34 295.055C188.449 295.031 188.563 295.049 188.66 295.104L192.567 297.338V291.106H169.699V307.277L177.612 299.713ZM174.207 292.199C174.738 292.199 175.257 292.356 175.698 292.651C176.139 292.946 176.484 293.365 176.687 293.856C176.89 294.347 176.943 294.887 176.839 295.408C176.736 295.928 176.48 296.407 176.105 296.782C175.729 297.158 175.251 297.414 174.73 297.517C174.21 297.621 173.67 297.568 173.179 297.364C172.689 297.161 172.27 296.817 171.975 296.375C171.68 295.934 171.522 295.415 171.522 294.884C171.522 294.172 171.805 293.489 172.308 292.985C172.812 292.481 173.495 292.199 174.207 292.199Z" fill="#E43B5C"/>
<path d="M192.557 298.371L188.55 296.096L183.622 302.989C183.559 303.077 183.467 303.14 183.362 303.165C183.258 303.191 183.147 303.178 183.051 303.13L177.973 300.595L169.669 308.53V311.235H192.547V298.381L192.557 298.371Z" fill="#E43B5C"/>
<path d="M270.004 175.035L281.793 164.004V76.6367" stroke="#263238" stroke-linecap="round" stroke-linejoin="round"/>
<path d="M281.793 164.003L294.604 175.034" stroke="#263238" stroke-linecap="round" stroke-linejoin="round"/>
<path d="M284.628 64.1826V69.9837L286.951 74.0415C286.951 75.3347 286.439 76.5753 285.527 77.4917C284.614 78.408 283.376 78.9255 282.083 78.9308C280.788 78.9282 279.546 78.4122 278.63 77.4958C277.714 76.5795 277.198 75.3374 277.195 74.0415V69.9837" stroke="#263238" stroke-width="3" stroke-linecap="round" stroke-linejoin="round"/>
<path d="M289.667 53.0415H279.891V63.9023H289.667V53.0415Z" fill="white" stroke="#263238" stroke-linecap="round" stroke-linejoin="round"/>
<path d="M293.282 38.4736H276.274V60.2853H293.282V38.4736Z" fill="white" stroke="#263238" stroke-linecap="round" stroke-linejoin="round"/>
<path d="M298.35 49.4248H271.386V56.1176H298.35V49.4248Z" fill="white" stroke="#263238" stroke-linecap="round" stroke-linejoin="round"/>
<path d="M284.778 49.4248H280.922L275.463 55.6166L276.034 56.1176H278.879L284.778 49.4248Z" fill="#263238"/>
<path d="M273.499 49.4248L271.386 51.8194V56.1176H271.456L277.366 49.4248H273.499Z" fill="#263238"/>
<path d="M292.2 49.4248H288.344L282.885 55.6166L283.456 56.1176H286.3L292.2 49.4248Z" fill="#263238"/>
<path d="M298.35 50.8575V49.4248H295.756L290.297 55.6166L290.878 56.1176H293.712L298.35 50.8575Z" fill="#263238"/>
<path d="M284.397 38.0929V24.9678" stroke="#263238" stroke-width="2" stroke-linecap="round" stroke-linejoin="round"/>
<path d="M485.998 24.6372H277.586V16.7722L313.245 1.65332H485.998" stroke="#263238" stroke-width="2" stroke-linecap="round" stroke-linejoin="round"/>
<path d="M313.245 24.6372V1.65332L336.824 24.6372V1.65332L313.245 24.6372Z" stroke="#263238" stroke-width="2" stroke-linecap="round" stroke-linejoin="round"/>
<path d="M336.794 24.6372V1.65332L360.363 24.6372V1.65332L336.794 24.6372Z" stroke="#263238" stroke-width="2" stroke-linecap="round" stroke-linejoin="round"/>
<path d="M360.332 24.6372V1.65332L383.911 24.6372V1.65332L360.332 24.6372Z" stroke="#263238" stroke-width="2" stroke-linecap="round" stroke-linejoin="round"/>
<path d="M383.881 24.6372V1.65332L407.45 24.6372V1.65332L383.881 24.6372Z" stroke="#263238" stroke-width="2" stroke-linecap="round" stroke-linejoin="round"/>
<path d="M407.42 24.6372V1.65332L430.999 24.6372V1.65332L407.42 24.6372Z" stroke="#263238" stroke-width="2" stroke-linecap="round" stroke-linejoin="round"/>
<path d="M430.969 24.6372V1.65332L454.537 24.6372V1.65332L430.969 24.6372Z" stroke="#263238" stroke-width="2" stroke-linecap="round" stroke-linejoin="round"/>
<path d="M454.507 24.6372V1.65332L478.086 24.6372V1.65332L454.507 24.6372Z" stroke="#263238" stroke-width="2" stroke-linecap="round" stroke-linejoin="round"/>
<path d="M192.957 283.441L181.168 272.41V116.021" stroke="#263238" stroke-linecap="round" stroke-linejoin="round"/>
<path d="M181.167 272.411L168.356 283.442" stroke="#263238" stroke-linecap="round" stroke-linejoin="round"/>
<path d="M178.324 104.269V110.07L176.01 114.078C176.01 115.375 176.525 116.618 177.441 117.535C178.358 118.452 179.601 118.967 180.898 118.967C182.192 118.964 183.433 118.448 184.348 117.532C185.262 116.615 185.776 115.373 185.776 114.078V110.07" stroke="#263238" stroke-width="3" stroke-linecap="round" stroke-linejoin="round"/>
<path d="M173.284 103.989H183.061V93.128H173.284V103.989Z" fill="white" stroke="#263238" stroke-linecap="round" stroke-linejoin="round"/>
<path d="M169.679 100.372H186.687V78.5599H169.679V100.372Z" fill="white" stroke="#263238" stroke-linecap="round" stroke-linejoin="round"/>
<path d="M164.601 96.2036H191.565V89.5108H164.601V96.2036Z" fill="white" stroke="#263238" stroke-linecap="round" stroke-linejoin="round"/>
<path d="M178.173 89.5112H182.039L187.498 95.7031L186.927 96.204H184.083L178.173 89.5112Z" fill="#263238"/>
<path d="M189.461 89.5112L191.575 91.9058V96.204H191.504L185.595 89.5112H189.461Z" fill="#263238"/>
<path d="M170.761 89.5112H174.617L180.076 95.7031L179.505 96.204H176.66L170.761 89.5112Z" fill="#263238"/>
<path d="M164.61 90.954V89.5112H167.195L172.654 95.7031L172.083 96.204H169.238L164.61 90.954Z" fill="#263238"/>
<path d="M178.563 78.1793V65.0542" stroke="#263238" stroke-width="2" stroke-linecap="round" stroke-linejoin="round"/>
<path d="M1.00195 64.7237H185.375V56.8586L149.716 41.7397H1.00195" stroke="#263238" stroke-width="2" stroke-linecap="round" stroke-linejoin="round"/>
<path d="M149.716 64.7237V41.7397L126.138 64.7237V41.7397L149.716 64.7237Z" stroke="#263238" stroke-width="2" stroke-linecap="round" stroke-linejoin="round"/>
<path d="M126.168 64.7237V41.7397L102.589 64.7237V41.7397L126.168 64.7237Z" stroke="#263238" stroke-width="2" stroke-linecap="round" stroke-linejoin="round"/>
<path d="M102.619 64.7237V41.7397L79.0498 64.7237V41.7397L102.619 64.7237Z" stroke="#263238" stroke-width="2" stroke-linecap="round" stroke-linejoin="round"/>
<path d="M79.0807 64.7237V41.7397L55.502 64.7237V41.7397L79.0807 64.7237Z" stroke="#263238" stroke-width="2" stroke-linecap="round" stroke-linejoin="round"/>
<path d="M55.5416 64.7237V41.7397L31.9629 64.7237V41.7397L55.5416 64.7237Z" stroke="#263238" stroke-width="2" stroke-linecap="round" stroke-linejoin="round"/>
<path d="M31.9928 64.7237V41.7397L8.41406 64.7237V41.7397L31.9928 64.7237Z" stroke="#263238" stroke-width="2" stroke-linecap="round" stroke-linejoin="round"/>
<path d="M44.2624 374.396C46.6262 375.398 52.4057 375.298 52.4158 375.298C52.4258 375.298 51.1737 371.51 51.0635 371.29C49.7914 368.635 45.7748 364.276 42.5095 364.687C41.9689 364.777 41.4533 364.979 40.996 365.281C40.5388 365.583 40.1501 365.978 39.8554 366.44C39.5607 366.902 39.3664 367.421 39.2853 367.963C39.2041 368.505 39.2379 369.058 39.3844 369.587C39.9252 371.831 42.2491 373.514 44.2624 374.396Z" fill="#014999"/>
<path d="M46.2557 391.158C48.7098 391.518 53.8682 390.025 54.2689 389.895C55.1235 392.853 56.1708 395.751 57.404 398.572C58.1152 400.215 58.8865 401.848 59.6678 403.471C59.197 402.79 58.7763 402.169 58.6661 402.089C56.7429 399.864 51.6546 396.698 48.6497 397.981C48.1499 398.208 47.7037 398.538 47.3403 398.949C46.9768 399.36 46.7044 399.844 46.5408 400.368C46.3772 400.892 46.3261 401.445 46.3909 401.99C46.4557 402.535 46.6349 403.06 46.9168 403.531C48.0387 405.535 50.7231 406.537 52.9267 406.898C55.1303 407.258 59.5576 406.026 60.7295 405.695C61.04 406.317 61.3405 406.948 61.651 407.559C63.1435 410.565 64.6559 413.51 66.0382 416.456C66.529 417.458 66.9698 418.54 67.4205 419.582C66.9998 418.971 66.6392 418.46 66.5791 418.39C64.6559 416.165 59.6277 412.989 56.5627 414.282C56.0654 414.51 55.6216 414.84 55.26 415.251C54.8985 415.662 54.6272 416.144 54.4639 416.666C54.3005 417.189 54.2487 417.74 54.3117 418.283C54.3747 418.827 54.5513 419.351 54.8298 419.822C55.9517 421.826 58.6361 422.828 60.8397 423.189C63.0433 423.55 67.0399 422.437 68.4321 422.047C68.8629 423.129 69.2936 424.211 69.6542 425.283C69.8845 426.014 70.165 426.706 70.3553 427.457C70.5456 428.208 70.766 428.92 70.9663 429.651C71.3069 431.054 71.6575 432.507 71.968 433.889C72.1783 434.891 72.3586 435.773 72.5489 436.695C72.0781 435.693 71.1065 433.629 71.0064 433.469C69.4338 430.984 64.9965 427.086 61.7512 427.898C61.2241 428.048 60.7346 428.307 60.3145 428.658C59.8943 429.01 59.5531 429.447 59.313 429.939C59.0729 430.432 58.9394 430.969 58.9211 431.517C58.9028 432.065 59.0003 432.61 59.207 433.118C59.9983 435.302 62.5024 436.705 64.6059 437.346C66.9197 438.057 72.0381 437.406 72.6791 437.346C72.9896 438.879 73.2701 440.352 73.5205 441.784C73.7008 442.786 73.8711 443.788 74.0213 444.79H76.0747C75.8844 443.708 75.674 442.586 75.4437 441.414C75.1332 439.861 74.7726 438.198 74.442 436.504C75.9837 435.883 77.4887 435.174 78.9494 434.38C80.6422 436.204 84.9593 438.388 85.5202 438.618C84.9293 440.071 84.3483 441.464 83.7673 442.786L82.8859 444.79H85.0495L85.5703 443.538C86.1713 442.075 86.7923 440.532 87.4033 438.869C88.0243 438.999 93.1027 440.031 95.4666 439.49C97.6101 439.009 100.204 437.797 101.166 435.673C101.409 435.182 101.546 434.645 101.568 434.098C101.589 433.551 101.496 433.005 101.293 432.497C101.089 431.988 100.781 431.528 100.388 431.146C99.9955 430.765 99.5266 430.47 99.0124 430.282C95.8873 429.23 91.1194 432.787 89.3665 435.152C89.2664 435.292 88.3649 436.935 87.7339 437.977C87.9843 437.316 88.2347 436.665 88.4851 435.973C88.9859 434.621 89.4867 433.248 89.9375 431.775C90.1478 431.054 90.3682 430.322 90.5886 429.591C90.8089 428.86 90.9792 428.068 91.1795 427.307C91.6002 425.523 91.9408 423.69 92.2513 421.846C93.4432 422.277 97.6902 423.76 99.8938 423.6C102.097 423.439 104.842 422.598 106.114 420.694C106.427 420.245 106.642 419.735 106.745 419.197C106.848 418.659 106.838 418.106 106.714 417.572C106.59 417.039 106.356 416.537 106.027 416.1C105.698 415.663 105.28 415.299 104.802 415.033C101.867 413.52 96.6185 416.306 94.535 418.39C94.4048 418.52 93.0726 420.173 92.3615 421.095C92.5317 419.983 92.712 418.871 92.8523 417.738C93.2629 414.472 93.5735 411.156 93.8539 407.84C93.9541 406.838 94.0643 405.836 94.1644 404.834C94.5851 404.994 99.6034 406.838 102.077 406.687C104.271 406.537 107.016 405.685 108.288 403.782C108.602 403.333 108.818 402.823 108.922 402.285C109.026 401.747 109.016 401.193 108.892 400.659C108.769 400.125 108.534 399.623 108.204 399.186C107.874 398.749 107.455 398.386 106.975 398.121C104.051 396.608 98.792 399.393 96.7086 401.467C96.5483 401.628 94.6452 404.022 94.1845 404.653C94.4249 402.419 94.6753 400.205 95.0158 398.031C95.464 395.091 96.0997 392.183 96.9189 389.324C97.1093 389.394 102.338 391.328 104.872 391.198C107.056 391.037 109.81 390.196 111.082 388.282C111.396 387.833 111.612 387.323 111.717 386.785C111.821 386.247 111.811 385.693 111.687 385.159C111.563 384.625 111.329 384.124 110.998 383.686C110.668 383.249 110.25 382.886 109.77 382.621C106.845 381.118 101.587 383.904 99.5032 385.978C99.3429 386.138 97.2896 388.713 96.949 389.204C96.949 389.044 97.0291 388.863 97.0792 388.703C97.9807 385.857 99.1338 383.098 100.525 380.457C101.276 378.994 102.077 377.632 102.879 376.329C103.82 376.79 108.117 378.884 110.411 378.974C112.705 379.065 115.419 378.564 116.902 376.76C117.265 376.35 117.537 375.868 117.7 375.345C117.864 374.822 117.915 374.271 117.851 373.727C117.787 373.183 117.608 372.659 117.327 372.189C117.046 371.719 116.669 371.313 116.221 370.999C113.476 369.176 107.957 371.36 105.653 373.203C105.523 373.304 104.361 374.456 103.53 375.307C103.91 374.726 104.281 374.115 104.652 373.564C106.024 371.49 107.416 369.667 108.658 368.074C109.379 367.162 110.041 366.36 110.662 365.619C111.823 365.619 116.481 365.459 118.524 364.497C120.568 363.535 122.791 361.822 123.272 359.547C123.404 359.015 123.422 358.461 123.325 357.921C123.229 357.381 123.019 356.868 122.711 356.414C122.403 355.961 122.004 355.577 121.538 355.288C121.072 354.999 120.55 354.812 120.007 354.738C116.731 354.387 112.835 358.876 111.643 361.571C111.533 361.802 110.331 365.579 110.391 365.579H110.461C109.84 366.28 109.189 367.052 108.458 367.893C107.176 369.466 105.743 371.26 104.311 373.314C102.746 375.512 101.312 377.8 100.014 380.167C98.5468 382.808 97.3166 385.574 96.338 388.432V388.543C96.338 387.541 96.338 384.866 96.338 384.665C95.9574 381.74 93.5134 376.319 90.268 375.728C89.7265 375.642 89.1728 375.67 88.6431 375.812C88.1134 375.955 87.6197 376.207 87.1942 376.553C86.7688 376.899 86.4212 377.331 86.1741 377.821C85.9271 378.311 85.7862 378.847 85.7606 379.395C85.5703 381.71 87.2531 384.034 88.8958 385.497C90.7488 387.15 95.9073 388.753 96.2879 388.883C95.3639 391.814 94.6378 394.803 94.1143 397.83C93.8038 399.604 93.5434 401.387 93.303 403.181C93.303 402.349 93.303 401.598 93.303 401.497C92.9324 398.572 90.4784 393.151 87.2931 392.55C86.742 392.451 86.1758 392.471 85.6332 392.61C85.0905 392.748 84.584 393.002 84.1479 393.354C83.7119 393.705 83.3565 394.146 83.1059 394.647C82.8554 395.148 82.7154 395.698 82.6956 396.257C82.5053 398.572 84.188 400.896 85.8207 402.359C87.4534 403.822 91.8306 405.305 92.9925 405.665C92.9024 406.357 92.8122 407.048 92.7321 407.739C92.3314 411.046 91.9608 414.352 91.48 417.578C91.3198 418.71 91.1094 419.832 90.9091 420.945C90.9091 420.203 90.9091 419.582 90.9091 419.482C90.5385 416.566 88.0844 411.146 84.8992 410.545C84.3584 410.46 83.8058 410.489 83.2773 410.632C82.7488 410.775 82.2564 411.028 81.8321 411.374C81.4077 411.72 81.0611 412.151 80.8146 412.64C80.5682 413.129 80.4275 413.665 80.4018 414.212C80.2115 416.536 81.8843 418.861 83.5269 420.323C85.1696 421.786 89.1161 423.119 90.4884 423.56C90.248 424.702 90.0076 425.834 89.7271 426.926C89.5168 427.667 89.3665 428.389 89.1061 429.13L88.415 431.294C87.9142 432.657 87.4133 434.06 86.8925 435.382C86.5419 436.294 86.1913 437.166 85.8408 438.037C86.021 436.905 86.3215 434.691 86.3215 434.5C86.296 431.911 85.6063 429.372 84.3182 427.126C84.3482 426.84 84.3482 426.551 84.3182 426.265C84.2501 425.722 84.0683 425.199 83.7847 424.73C83.501 424.262 83.122 423.859 82.6721 423.547C82.2223 423.235 81.7118 423.021 81.174 422.92C80.6361 422.819 80.0829 422.832 79.5504 422.958C76.3652 423.8 74.3419 429.401 74.1916 432.336C74.1916 432.507 74.3018 434.4 74.3919 435.593C74.2317 434.901 74.0814 434.23 73.9112 433.519C73.5706 432.106 73.2 430.713 72.7993 429.21L72.1382 427.026C71.9379 426.295 71.6274 425.543 71.367 424.802C70.746 423.079 70.0147 421.365 69.2535 419.652C70.4855 419.352 74.8527 418.239 76.6056 416.897C78.3585 415.554 80.1915 413.37 80.1815 411.036C80.1989 410.486 80.1 409.94 79.8914 409.432C79.6827 408.923 79.369 408.465 78.9708 408.087C78.5726 407.708 78.0989 407.418 77.5808 407.236C77.0627 407.053 76.5119 406.982 75.9645 407.028C72.6891 407.379 69.8445 412.599 69.2535 415.484C69.2535 415.664 69.0231 417.779 68.933 418.951C68.4622 417.949 68.0014 416.897 67.5006 415.875C66.0282 412.919 64.4957 409.984 62.9031 407.038C62.4223 406.146 61.9615 405.235 61.4907 404.333C61.9315 404.233 67.14 403.03 69.1033 401.517C70.8461 400.185 72.6992 397.991 72.6791 395.666C72.698 395.118 72.6005 394.571 72.393 394.063C72.1855 393.555 71.8727 393.096 71.4753 392.718C71.0779 392.339 70.6048 392.049 70.0872 391.866C69.5696 391.684 69.0192 391.613 68.4722 391.659C65.1968 392.019 62.3522 397.239 61.7512 400.125C61.7512 400.335 61.4307 403.381 61.4006 404.132C60.399 402.129 59.3973 400.125 58.3957 398.121C57.1405 395.427 56.0663 392.652 55.1804 389.815C55.3807 389.765 60.8297 388.523 62.843 386.98C64.5858 385.647 66.4389 383.453 66.4188 381.128C66.4331 380.58 66.3321 380.035 66.1224 379.528C65.9126 379.022 65.5989 378.564 65.2014 378.187C64.8038 377.809 64.3315 377.519 63.8148 377.335C63.2981 377.152 62.7486 377.079 62.2019 377.121C58.9265 377.481 56.0819 382.701 55.4909 385.587C55.4909 385.807 55.1503 389.094 55.1403 389.685C55.1403 389.525 55.0201 389.354 54.97 389.194C54.1527 386.324 53.5929 383.387 53.2973 380.417C53.117 378.784 53.0369 377.201 52.9868 375.668C53.9884 375.548 58.7663 374.917 60.7195 373.724C62.6727 372.532 64.7261 370.608 64.9264 368.294C64.9996 367.751 64.958 367.199 64.8042 366.674C64.6505 366.148 64.388 365.661 64.0339 365.243C63.6797 364.826 63.2418 364.487 62.7484 364.25C62.2551 364.013 61.7174 363.882 61.1702 363.865C57.8748 363.865 54.4792 368.735 53.5677 371.53C53.5177 371.69 53.1871 373.293 52.9667 374.466C52.9667 373.764 52.9667 373.053 52.9667 372.392C52.9667 369.897 53.127 367.613 53.2873 365.589C53.3774 364.447 53.4876 363.405 53.6078 362.443C54.6094 361.781 58.3756 359.096 59.5476 357.173C60.7195 355.249 61.621 352.584 60.7696 350.42C60.5861 349.904 60.2961 349.432 59.9186 349.035C59.5411 348.639 59.0843 348.326 58.5781 348.117C58.0718 347.908 57.5274 347.808 56.98 347.823C56.4326 347.839 55.8946 347.969 55.4007 348.206C52.4759 349.728 51.7047 355.62 52.1855 358.525C52.1855 358.776 53.3374 362.623 53.3874 362.593H53.4475C53.3173 363.525 53.1871 364.517 53.0669 365.599C52.8666 367.603 52.6663 369.907 52.6062 372.412C52.5084 375.108 52.572 377.808 52.7965 380.497C53.0282 383.508 53.5277 386.492 54.2889 389.414C54.2889 389.414 54.2889 389.484 54.2889 389.525C53.7681 388.703 52.2856 386.519 52.1053 386.318C50.1822 384.094 45.1539 380.928 42.0889 382.211C41.5905 382.438 41.1456 382.767 40.7831 383.178C40.4207 383.588 40.1488 384.071 39.9853 384.594C39.8218 385.116 39.7703 385.668 39.8342 386.212C39.8981 386.756 40.0759 387.28 40.356 387.751C41.3977 389.835 44.0822 390.847 46.2557 391.158Z" fill="#014999"/>
<path d="M102.789 375.668C102.839 375.668 103.841 371.821 103.881 371.57C104.281 368.655 103.35 362.784 100.385 361.351C99.885 361.127 99.3437 361.011 98.7962 361.01C98.2486 361.009 97.7069 361.124 97.2063 361.346C96.7058 361.568 96.2574 361.892 95.8905 362.299C95.5235 362.705 95.246 363.185 95.0761 363.705C94.2848 365.89 95.2865 368.575 96.4885 370.418C97.8807 372.582 102.789 375.668 102.789 375.668Z" fill="#014999"/>
<path d="M401.579 241.582C401.579 241.582 397.072 248.104 397.242 248.946C397.412 249.787 398.484 249.857 397.432 251.04C396.381 252.222 394.207 254.426 394.087 255.628C394.153 256.591 394.545 257.503 395.199 258.213C395.199 258.213 394.117 263.453 394.468 264.666C394.818 265.878 398.755 266.669 398.755 266.669L397.703 270.517L409.041 273.763L410.985 266.96L417.726 246.24L401.579 241.582Z" fill="white" stroke="#263238" stroke-linecap="round" stroke-linejoin="round"/>
<path d="M416.855 240.77C416.134 240.63 413.109 238.446 408.701 237.654C404.294 236.863 402.591 238.656 402.08 240.489C401.57 242.323 400.568 241.381 401.85 242.624C403.132 243.866 400.899 244.978 400.899 244.978C400.972 245.677 400.814 246.381 400.448 246.982C399.817 248.314 401.77 250.729 401.77 250.729C401.36 251.628 401.073 252.578 400.919 253.554C400.919 254.346 401.6 254.727 402.211 254.326C402.822 253.925 404.034 251.38 404.064 252.633C404.094 253.885 402.792 262.802 403.553 264.165C404.314 265.527 409.503 266.75 410.985 266.97C412.468 267.19 417.175 262.301 419.649 259.275C422.123 256.25 423.746 249.958 422.925 246.541C422.514 245.128 421.736 243.849 420.669 242.835C419.603 241.821 418.287 241.109 416.855 240.77Z" fill="#263238" stroke="#263238" stroke-linecap="round" stroke-linejoin="round"/>
<path d="M402.892 252.122C402.633 253.475 402.298 254.813 401.891 256.13C401.35 257.653 400.028 258.134 400.468 259.055C400.909 259.977 401.53 259.817 402.472 258.805C403.517 257.603 404.281 256.182 404.705 254.647C404.906 253.415 405.647 250.82 402.892 252.122Z" fill="white" stroke="#263238" stroke-linecap="round" stroke-linejoin="round"/>
<path d="M403.843 256.991C405.66 258.419 407.666 259.589 409.803 260.468C412.831 261.619 416.099 261.991 419.308 261.55C420.311 261.444 421.251 261.011 421.983 260.317C422.804 259.316 422.804 257.232 422.804 256.62C422.804 256.009 426.23 249.998 423.355 244.036C420.48 238.075 408.01 234.228 405.746 234.638C403.482 235.049 399.386 241.211 399.386 241.211C399.386 241.211 394.688 242.093 394.668 244.126C394.668 246.661 397.232 247.433 398.124 249.827C399.36 252.681 401.334 255.154 403.843 256.991Z" fill="white" stroke="#263238" stroke-linecap="round" stroke-linejoin="round"/>
<path d="M401.851 242.624C401.851 242.624 406.578 237.424 407.52 236.943C408.211 236.602 411.146 236.883 414.241 238.606" stroke="#263238" stroke-linecap="round" stroke-linejoin="round"/>
<path d="M396.481 270.407L393.266 276.288C393.266 276.288 401.359 273.934 405.776 273.934C408.883 273.99 411.981 274.288 415.041 274.825L412.978 269.084C412.978 269.084 401.78 267.902 396.481 270.407Z" fill="white" stroke="#263238" stroke-linecap="round" stroke-linejoin="round"/>
<path d="M426.932 348.005C426.947 350.463 426.8 352.92 426.491 355.359C426.05 357.563 423.116 360.95 421.934 361.541C420.752 362.132 419.289 362.272 418.989 361.541C418.688 360.809 418.258 361.1 418.698 357.273C419.139 353.445 420.762 346.091 420.762 346.091L426.932 348.005Z" fill="white" stroke="#263238" stroke-linecap="round" stroke-linejoin="round"/>
<path d="M427.963 343.296L426.961 348.005C425.706 348.266 424.416 348.314 423.145 348.146C422.598 348.062 422.086 347.824 421.67 347.461C421.253 347.097 420.948 346.622 420.791 346.092L421.232 341.964L427.963 343.296Z" fill="white" stroke="#263238" stroke-linecap="round" stroke-linejoin="round"/>
<path d="M427.241 279.975C427.241 279.975 429.305 292.479 430.627 301.747C431.744 309.196 432.184 316.731 431.939 324.26C431.639 328.678 429.876 342.855 429.285 343.877C428.694 344.899 424.727 345.35 423.115 344.619C421.502 343.887 420.761 342.996 420.761 340.2C420.761 337.405 422.223 311.315 422.223 311.315L427.241 279.975Z" fill="white" stroke="#263238" stroke-linecap="round" stroke-linejoin="round"/>
<path d="M395.46 441.524C394.88 441.527 394.309 441.671 393.797 441.945C392.926 442.416 389.139 443.448 386.706 444.309C382.899 445.662 379.934 444.94 380.235 445.932C380.535 446.924 386.475 448.938 389.911 448.938C393.346 448.938 394.999 448.137 396.642 448.167C398.285 448.197 397.073 448.988 399.797 449.299C402.521 449.609 403.423 449.619 404.375 448.127C405.326 446.634 405.867 446.253 405.566 444.359V444.349C405.417 443.535 404.984 442.8 404.344 442.276C403.704 441.751 402.898 441.47 402.071 441.484L395.46 441.524Z" fill="#263238" stroke="#263238" stroke-linecap="round" stroke-linejoin="round"/>
<path d="M416.714 439.7C416.208 439.693 415.711 439.832 415.282 440.101C414.531 440.572 411.275 441.564 409.182 442.416C405.907 443.738 403.302 442.857 403.603 443.939C403.903 445.021 407.409 446.483 410.404 446.654C412.022 446.752 413.646 446.692 415.252 446.473C418.477 446.293 416.424 447.475 417.586 447.906C418.398 448.163 419.248 448.285 420.1 448.267C423.505 448.447 423.926 448.718 424.707 447.145C425.489 445.572 425.939 445.141 425.619 443.137V443.077C425.536 442.266 425.179 441.508 424.607 440.927C424.036 440.346 423.283 439.977 422.474 439.881L416.714 439.7Z" fill="#263238" stroke="#263238" stroke-linecap="round" stroke-linejoin="round"/>
<path d="M386.185 332.996C386.185 332.996 386.776 353.596 386.776 360.509C386.776 367.422 388.538 398.672 390.892 410.004C392.724 419.697 393.952 429.494 394.568 439.34C394.568 441.103 393.987 441.544 395.159 442.716C396.331 443.888 400.748 446.103 402.371 445.371C403.994 444.64 404.865 441.834 404.865 441.834C404.865 441.834 404.865 426.535 405.316 416.526C405.767 406.517 405.016 393.432 405.016 393.432C405.016 393.432 410.755 419.913 412.368 425.213C413.98 430.513 415.312 440.121 415.613 442.025C415.913 443.928 417.196 444.029 418.838 444.029C420.842 444.029 423.255 443.768 424.137 442.295C425.018 440.823 423.135 425.373 423.135 419.201C423.135 413.029 418.307 374.636 418.698 365.198C419.089 355.76 421.933 339.449 421.052 334.59C420.523 331.709 420.228 328.791 420.17 325.863C420.17 325.863 389.861 322.396 386.185 332.996Z" fill="#5E5E5E" stroke="#263238" stroke-linecap="round" stroke-linejoin="round"/>
<path d="M353.35 236.953C353.35 236.953 353.921 235.951 354.773 234.258C355.381 232.68 355.621 230.983 355.474 229.298C355.474 228.166 356.746 227.745 356.746 226.473C356.746 225.2 354.913 225.331 353.921 226.182C352.93 227.034 352.639 229.589 352.639 229.589C352.639 229.589 351.077 226.934 350.235 225.05C349.484 223.367 348.442 220.461 347.03 220.041C345.618 219.62 345.678 221.363 345.818 221.784C346.053 222.609 346.348 223.416 346.7 224.199C347.03 224.85 347.701 226.753 347.701 226.753C347.701 226.753 345.698 225.19 345.007 225.19C344.823 225.186 344.642 225.233 344.483 225.325C344.324 225.417 344.193 225.551 344.106 225.713C344.018 225.874 343.976 226.057 343.985 226.24C343.993 226.424 344.052 226.601 344.155 226.753C344.155 226.753 342.453 227.465 342.883 228.597C343.314 229.729 343.444 230.15 343.444 230.15C343.444 230.15 343.024 230.721 343.444 232.154C343.865 233.587 345.718 235.981 346.449 237.163C346.857 237.826 347.387 238.404 348.012 238.867L353.35 236.953Z" fill="white" stroke="#263238" stroke-linecap="round" stroke-linejoin="round"/>
<path d="M344.186 226.703C344.638 227.4 345.166 228.045 345.758 228.627" stroke="#263238" stroke-linecap="round" stroke-linejoin="round"/>
<path d="M343.435 230.1C343.714 230.561 344.051 230.985 344.436 231.362" stroke="#263238" stroke-linecap="round" stroke-linejoin="round"/>
<path d="M348.953 244.277L346.459 238.827C346.952 238.118 347.585 237.517 348.319 237.062C349.053 236.607 349.872 236.308 350.726 236.182C353.811 235.591 354.252 236.182 354.252 236.182L355.874 241.772C355.874 241.772 350.576 242.213 348.953 244.277Z" fill="white" stroke="#263238" stroke-linecap="round" stroke-linejoin="round"/>
<path d="M383.58 273.182L363.958 254.276C363.958 254.276 359.401 246.481 358.229 243.686C357.057 240.89 355.434 240.149 352.78 240.449C350.125 240.75 347.771 243.535 347.771 245.599C347.771 246.772 350.776 253.835 353.521 259.937C353.661 260.368 357.528 272.31 359.701 273.182C361.875 274.054 384.892 297.939 384.892 297.939L393.266 276.288L383.58 273.182Z" fill="white" stroke="#263238" stroke-linecap="round" stroke-linejoin="round"/>
<path d="M381.246 293.782C382.468 305.394 381.977 335.862 381.977 337.936C381.977 340.441 381.827 340.581 382.708 341.322C383.59 342.064 391.954 342.324 400.047 342.214C408.14 342.104 418.277 340.401 419.018 340.401C419.613 340.358 420.189 340.176 420.701 339.87C421.212 339.564 421.644 339.141 421.963 338.637C422.444 337.906 427.232 307.879 428.634 294.092C429.796 282.69 427.131 280.236 427.202 279.975C427.352 279.384 415.572 275.116 414.541 274.825C413.509 274.535 407.629 270.557 394.388 275.557C394.388 275.557 388.949 273.833 386.976 274.685C386.976 274.685 390.792 282.32 387.927 289.644C385.062 296.968 381.246 293.782 381.246 293.782Z" fill="#E43B5C" stroke="#263238" stroke-linecap="round" stroke-linejoin="round"/>
<path d="M382.118 322.406C382.118 324.27 382.118 326.053 382.118 327.706C387.497 327.165 404.465 325.642 424.338 325.622C424.598 323.949 424.878 322.186 425.149 320.352C405.336 320.332 388.258 321.805 382.118 322.406Z" fill="white" stroke="#263238" stroke-linecap="round" stroke-linejoin="round"/>
<path d="M382.077 314.521C388.428 313.88 408.37 312.097 426.21 313.149C427.211 306.135 428.213 299.052 428.674 294.112C429.836 282.71 427.171 280.256 427.241 279.995C427.311 279.735 424.146 278.372 420.951 277.15C422.203 279.294 424.337 284.243 424.136 292.87C423.996 298.631 423.505 303.891 423.024 307.728C415.352 307.418 407.559 307.558 400.708 307.879C400.828 304.873 400.858 301.286 400.778 297.268C400.63 289.614 399.103 282.048 396.27 274.936C395.68 275.126 395.099 275.326 394.478 275.557C393.139 275.145 391.773 274.827 390.391 274.605C393.614 281.765 395.372 289.498 395.559 297.348C395.639 301.496 395.559 305.103 395.459 308.139C389.59 308.5 384.832 308.941 382.057 309.231C382.037 310.975 382.057 312.748 382.077 314.521Z" fill="white" stroke="#263238" stroke-linecap="round" stroke-linejoin="round"/>
<path d="M417.536 305.554C413.329 311.566 406.678 320.423 401.51 323.759" stroke="#263238" stroke-linecap="round" stroke-linejoin="round"/>
<path d="M421.632 299.392C421.632 299.392 420.871 300.614 419.629 302.528" stroke="#263238" stroke-linecap="round" stroke-linejoin="round"/>
<path d="M409.453 320.312C406.176 323.282 402.632 325.941 398.865 328.258" stroke="#263238" stroke-linecap="round" stroke-linejoin="round"/>
<path d="M417.666 416.296C419.236 417.947 421.088 419.304 423.135 420.303C423.135 419.873 423.135 419.472 423.135 419.101C423.135 412.919 418.277 374.606 418.718 365.188C418.798 363.475 418.958 361.531 419.159 359.467C418.998 359.053 418.801 358.654 418.568 358.275C416.17 354.537 414.009 350.652 412.097 346.643L419.74 353.957C419.8 353.406 419.87 352.845 419.93 352.293C417.927 348.637 415.222 343.617 415.042 342.084L406.027 346.943C406.027 346.943 404.845 381.87 405.026 393.352C405.026 393.352 405.897 397.36 407.029 402.56C409.813 408.912 414.782 413.34 417.666 416.296Z" fill="#263238" stroke="#263238" stroke-linecap="round" stroke-linejoin="round"/>
<path d="M397.442 437.065C397.637 439.324 397.61 441.595 397.362 443.848" stroke="#263238" stroke-linecap="round" stroke-linejoin="round"/>
<path d="M396.792 428.629C396.922 430.583 397.052 432.316 397.163 433.729" stroke="#263238" stroke-linecap="round" stroke-linejoin="round"/>
<path d="M392.985 352.113C393.346 366.861 394.227 399.253 394.989 406.477C395.56 411.707 396.08 418.94 396.511 425.082" stroke="#263238" stroke-linecap="round" stroke-linejoin="round"/>
</g>
<defs>
<clipPath id="clip0_735_990">
<rect width="487" height="450" fill="white"/>
</clipPath>
</defs>
</svg>
