<svg width="97" height="97" viewBox="0 0 97 97" fill="none" xmlns="http://www.w3.org/2000/svg">
<path d="M64.316 77.8549C67.1362 77.8549 69.9592 77.8782 72.7795 77.8219C73.1185 77.8219 73.5508 77.4418 73.7704 77.122C78.3651 70.4151 87.8868 69.7276 93.3174 75.7277C94.9804 77.5473 96.0628 79.8216 96.4264 82.2597C96.7899 84.6978 96.4179 87.1889 95.3581 89.4145C93.1911 93.9874 88.4962 96.7719 83.3675 96.5208C78.5106 96.2834 74.108 92.9896 72.409 88.3194C72.2717 87.9571 72.151 87.5934 72.0124 87.2036H31.2166V68.5116H32.2349C37.4601 68.5116 42.6838 68.5116 47.9062 68.5116C62.2821 68.491 73.8761 58.5178 76.0472 44.3108C78.2897 29.6358 67.618 15.1077 52.9361 12.8487C37.6161 10.4923 23.7713 20.1224 20.7411 35.275C20.5078 36.4388 20.4104 37.6314 20.2361 38.9091H25.1355L14.0122 52.2556L2.95215 38.9901H7.75553C8.60915 25.9523 14.0905 15.4494 24.5509 7.73106C32.0318 2.21129 40.5351 -0.219217 49.829 0.0154623C67.3654 0.458745 83.2166 13.3016 87.5506 30.5636C92.402 49.8992 82.422 70.0199 64.316 77.8549ZM34.3058 77.8247C34.5803 77.837 34.7738 77.8535 34.9632 77.8535C39.5704 77.8535 44.1788 77.9386 48.7818 77.8123C51.2443 77.7625 53.6974 77.4924 56.1118 77.0054C75.6684 72.8882 88.4522 53.9341 85.0981 34.1524C81.5066 12.9681 60.5323 -0.883455 39.6376 4.12853C23.9072 7.90124 12.3681 21.315 11.0643 37.3693C10.9381 38.9091 10.9065 40.4572 10.831 42.008L9.59589 42.0862C11.1193 43.9128 12.5493 45.6283 14.0219 47.3919L18.4396 42.0807L17.1619 41.9984C17.1619 40.9142 17.0905 39.8739 17.1784 38.8419C17.3156 37.2938 17.4611 35.7361 17.7699 34.2169C21.3697 16.4897 39.44 5.56679 56.8831 10.5445C75.0453 15.7239 84.6137 36.1355 76.6154 53.2396C71.108 65.0161 61.5341 71.1123 48.517 71.5913C44.1431 71.7518 39.7583 71.6187 35.379 71.6201H34.3004L34.3058 77.8247ZM84.1059 74.7437C82.2583 74.742 80.4518 75.2884 78.9148 76.3135C77.3777 77.3387 76.1792 78.7967 75.4709 80.5031C74.7625 82.2094 74.5761 84.0875 74.9353 85.8998C75.2944 87.7122 76.183 89.3773 77.4885 90.6845C78.7941 91.9918 80.458 92.8826 82.2699 93.2441C84.0817 93.6056 85.9601 93.4217 87.6674 92.7156C89.3747 92.0096 90.8342 90.813 91.8614 89.2773C92.8886 87.7416 93.4373 85.9358 93.4381 84.0883C93.4327 81.6126 92.4472 79.2397 90.6971 77.4886C88.947 75.7374 86.5747 74.7505 84.099 74.7437H84.1059ZM71.9739 81.0402H34.3058V84.0265H71.5595C71.6981 83.0096 71.8298 82.053 71.9671 81.0402H71.9739Z" fill="#004999"/>
<path d="M59.8843 22.0821L68.2216 30.4537C67.6493 31.4144 67.0262 32.4725 66.3414 33.6322C67.4256 33.9135 68.4549 34.1399 69.4499 34.468C69.7134 34.5544 70.0469 34.9579 70.0496 35.2186C70.0894 38.7196 70.0647 42.2179 70.0881 45.723C70.0881 46.2637 69.8794 46.4421 69.3881 46.5464C68.3876 46.7646 67.4023 47.0514 66.3428 47.3273L68.2271 50.5208L59.8555 58.8636L56.6757 56.9807C56.4012 58.0566 56.1638 59.0777 55.8522 60.0713C55.7713 60.3293 55.4405 60.6916 55.2154 60.693C51.4894 60.7314 47.7619 60.7205 43.9618 60.7205C43.6365 59.4853 43.3195 58.2707 42.9833 56.9876C42.0226 57.5598 41.1498 58.1239 40.2316 58.5919C39.9819 58.7195 39.4576 58.6907 39.271 58.5137C36.6291 55.9308 34.0243 53.3109 31.3578 50.6457L33.3216 47.3149L29.6395 46.3639C29.6203 46.0606 29.5873 45.7806 29.586 45.4993C29.586 42.1273 29.5956 38.7553 29.5723 35.3847C29.5723 34.8069 29.6958 34.5174 30.3216 34.4021C31.3028 34.2223 32.2608 33.9204 33.3299 33.6445C32.6615 32.5205 32.0398 31.472 31.4826 30.5333L39.8872 22.1425L42.9888 23.9733C43.2633 22.944 43.546 21.9915 43.7422 21.0212C43.8575 20.4462 44.0579 20.2184 44.6892 20.2252C48.1201 20.2582 51.5635 20.2527 55 20.2252C55.5613 20.2252 55.7946 20.3927 55.9044 20.9499C56.0992 21.9311 56.3874 22.8918 56.666 23.9774C57.7845 23.3227 58.8262 22.7052 59.8843 22.0821ZM53.2199 57.5763C53.2631 57.5157 53.299 57.4503 53.327 57.3814C53.5809 56.4098 53.8266 55.4381 54.0818 54.4678C54.3371 53.4976 55.8399 52.858 56.7004 53.3562C57.6226 53.8901 58.5311 54.4541 59.3353 54.9303C61.0083 53.2656 62.6291 51.6517 64.2924 50.0007L62.9434 47.7417C62.098 46.3309 62.6456 45.023 64.2595 44.6072C65.1557 44.3766 66.0546 44.1584 66.9233 43.9416V37.0453C66.76 36.9945 66.6379 36.9506 66.5116 36.919C65.6351 36.6912 64.7577 36.4625 63.8794 36.2328C62.8363 35.9652 62.1954 34.4927 62.732 33.5731C63.2686 32.6536 63.8299 31.752 64.3226 30.9203L59.4314 26.0236C59.3915 26.0243 59.3525 26.0347 59.3175 26.0538C58.4817 26.5492 57.6501 27.0515 56.8115 27.5429C55.8412 28.1138 54.3536 27.5044 54.0667 26.4216C53.7991 25.4019 53.5343 24.3822 53.2762 23.3941H46.395C46.3525 23.5313 46.3209 23.6219 46.2962 23.7166C46.0602 24.6251 45.8296 25.535 45.5908 26.4422C45.3164 27.4934 43.8534 28.1193 42.9243 27.5758C41.9951 27.0323 41.1031 26.4875 40.2811 25.9962L35.3404 30.9217C35.8482 31.7671 36.4383 32.6591 36.9214 33.6033C37.0861 33.9217 37.0847 34.3829 37.0202 34.7548C36.8501 35.7539 36.2517 36.2864 35.2018 36.4181C34.3784 36.521 33.5755 36.8134 32.7452 37.0261V43.9224C33.2942 44.0678 33.7924 44.1969 34.2933 44.3341C34.7942 44.4713 35.2979 44.5852 35.8029 44.7184C36.8446 44.9928 37.4676 46.4682 36.9255 47.3932C36.3834 48.3181 35.8386 49.2116 35.3541 50.0199L40.2838 54.9605C41.0743 54.4884 41.9306 53.9738 42.7925 53.4632C43.0359 53.3141 43.3101 53.2223 43.5943 53.1949C43.8784 53.1675 44.1651 53.2051 44.4325 53.305C44.7 53.4049 44.9412 53.5643 45.1378 53.7713C45.3345 53.9782 45.4814 54.2272 45.5675 54.4994C45.8763 55.5109 46.1164 56.5456 46.3909 57.5763H53.2199Z" fill="#E43C5C"/>
<path d="M28.027 76.3467C28.027 81.3413 28.027 86.335 28.027 91.3277C28.027 94.6434 26.1496 96.5428 22.8627 96.5428C16.9596 96.5428 11.0583 96.5428 5.15881 96.5428C1.91172 96.5428 0.00137239 94.6476 0 91.4252C0 81.3408 0 71.256 0 61.1708C0 57.9923 1.9131 56.0613 5.06549 56.0586C11.0327 56.0586 17.0003 56.0586 22.9684 56.0586C26.1249 56.0586 28.0284 57.9799 28.0311 61.1735C28.032 66.2303 28.0307 71.288 28.027 76.3467ZM3.10708 76.2973C3.10708 81.2928 3.10708 86.2883 3.10708 91.2838C3.10708 92.9389 3.5943 93.4247 5.2494 93.4247C11.0894 93.4247 16.9294 93.4247 22.7694 93.4247C24.4162 93.4247 24.9089 92.9375 24.9103 91.2824C24.9103 81.2914 24.9103 71.3004 24.9103 61.3094C24.9103 59.6556 24.4231 59.1698 22.7666 59.1698H5.2494C3.59293 59.1698 3.10983 59.6543 3.10846 61.3121C3.10754 66.3076 3.10708 71.3027 3.10708 76.2973Z" fill="#E43C5C"/>
<path d="M82.36 86.7892L89.1904 79.9121L91.4068 82.2122L82.7237 90.905L78.4692 86.6423L80.6651 84.5412L82.36 86.7892Z" fill="#E43C5C"/>
<path d="M60.7286 40.5327C60.7053 46.5232 55.7784 51.4048 49.781 51.3746C43.7836 51.3444 38.9075 46.423 38.9322 40.427C38.9569 34.431 43.8824 29.5563 49.8798 29.5851C52.7679 29.6054 55.5305 30.7685 57.5635 32.82C59.5965 34.8715 60.7345 37.6445 60.7286 40.5327ZM49.8619 32.7004C47.7978 32.6855 45.8123 33.4912 44.3422 34.9402C42.8721 36.3892 42.0378 38.3629 42.0229 40.427C42.0079 42.4911 42.8136 44.4767 44.2626 45.9468C45.7116 47.4169 47.6853 48.2512 49.7494 48.2661C54.0478 48.3018 57.5899 44.82 57.6132 40.5395C57.6234 38.4725 56.8129 36.486 55.3596 35.0162C53.9062 33.5464 51.9289 32.7135 49.8619 32.7004Z" fill="#E43C5C"/>
<path d="M21.7564 62.3306V65.3334H6.28125V62.3306H21.7564Z" fill="#004999"/>
<path d="M21.7513 68.564V71.5572H6.28711V68.564H21.7513Z" fill="#004999"/>
<path d="M21.7512 74.8066V77.8053H6.30078V74.8066H21.7512Z" fill="#004999"/>
<path d="M6.26367 84.0142V81.021H21.7484V84.0142H6.26367Z" fill="#004999"/>
<path d="M9.29386 87.2515V90.2447H6.28418V87.2515H9.29386Z" fill="#004999"/>
<path d="M15.5053 90.2917H12.5327V87.2725H15.5053V90.2917Z" fill="#004999"/>
<path d="M21.7595 87.2432V90.2487H18.7402V87.2432H21.7595Z" fill="#004999"/>
<path d="M54.4992 40.5011C54.4951 41.4258 54.2162 42.3285 53.6981 43.0944C53.18 43.8604 52.446 44.4551 51.5893 44.8032C50.7326 45.1512 49.7917 45.2368 48.8863 45.0492C47.9808 44.8615 47.1515 44.409 46.5036 43.7492C45.8557 43.0894 45.4185 42.2519 45.2475 41.3431C45.0765 40.4344 45.1793 39.4953 45.543 38.645C45.9067 37.7948 46.5148 37.0719 47.2901 36.5679C48.0654 36.0639 48.9729 35.8016 49.8976 35.8144C51.1254 35.8378 52.2952 36.3417 53.1555 37.218C54.0159 38.0943 54.4984 39.2731 54.4992 40.5011ZM51.3798 40.4943C51.3819 40.1879 51.2932 39.8877 51.1248 39.6318C50.9564 39.3758 50.7159 39.1755 50.4337 39.0562C50.1515 38.9369 49.8403 38.9039 49.5394 38.9615C49.2384 39.019 48.9613 39.1645 48.743 39.3795C48.5248 39.5945 48.3751 39.8694 48.3131 40.1695C48.251 40.4695 48.2793 40.7812 48.3944 41.0652C48.5094 41.3491 48.7061 41.5926 48.9595 41.7648C49.2129 41.937 49.5116 42.0303 49.818 42.0327C50.2279 42.0317 50.621 41.87 50.913 41.5824C51.205 41.2948 51.3726 40.9041 51.3798 40.4943Z" fill="#004999"/>
</svg>
