<svg width="67" height="72" viewBox="0 0 67 72" fill="none" xmlns="http://www.w3.org/2000/svg">
<path d="M11.9383 21.3272C12.7939 23.1901 12.7723 24.8699 12.7708 26.562C12.7584 39.1108 12.7559 51.659 12.7631 64.2068C12.7631 64.7269 12.7337 65.2485 12.7754 65.7592C12.9113 67.4545 14.1654 68.6856 15.7886 68.7414C16.5724 68.7573 17.3342 68.4803 17.9265 67.9641C18.5188 67.4479 18.8995 66.7292 18.9949 65.9471C19.0698 65.3658 19.0807 64.778 19.0273 64.1944C18.8636 62.3159 19.7486 61.6608 21.5494 61.6717C29.7629 61.7167 37.9778 61.6142 46.1897 61.7493C48.2685 61.7835 48.7504 61.1609 48.6824 59.18C48.528 54.8938 48.6299 50.5998 48.6423 46.3089C48.6423 45.5327 48.3334 44.491 49.8176 44.7658C50.7813 44.9427 51.9891 44.3249 51.9273 46.2654C51.7837 50.7473 51.9582 55.2384 51.8362 59.7218C51.7899 61.4016 52.3335 61.844 53.9104 61.726C55.7113 61.5925 57.5291 61.6934 59.3407 61.6996C60.6689 61.6996 61.3068 62.3206 61.381 63.7178C61.676 69.2817 59.1847 71.9891 53.6587 71.9922C41.3689 71.9922 29.0807 71.9922 16.7941 71.9922C12.0495 71.9922 9.56449 69.5456 9.55523 64.8355C9.5336 53.523 9.50578 42.2089 9.56601 30.8964C9.57373 29.344 9.14286 28.8565 7.6262 28.9667C5.88869 29.094 4.13417 28.9589 2.38893 29.0086C0.643698 29.0583 -0.113067 28.2697 0.0135784 26.5247C0.0738121 25.6849 -0.0142218 24.8326 0.0521898 23.9912C0.302391 20.7652 2.79515 18.1929 6.00916 18.168C15.9045 18.092 25.7998 18.168 35.6951 18.1075C37.6072 18.0966 36.7407 19.4628 36.9554 20.2809C37.2566 21.4219 36.4365 21.3319 35.7029 21.3319C28.5891 21.3257 21.4748 21.3257 14.36 21.3319L11.9383 21.3272Z" fill="#E33C5C"/>
<path d="M49.705 31.6605C46.8555 32.4709 44.4276 31.4835 43.3897 27.7375C43.1287 26.7937 42.2437 26.0299 41.663 25.1698C38.4583 20.4303 39.1749 14.441 43.3913 10.7043C47.3574 7.18962 53.4302 7.15392 57.435 10.622C61.741 14.3479 62.5657 20.2579 59.3625 25.0394C58.1702 26.8201 56.8682 28.5215 56.2288 30.6049C55.9786 31.4215 55.4473 31.6916 54.6256 31.6714C53.2047 31.631 51.7808 31.6605 49.705 31.6605ZM54.8851 19.3964C54.6905 20.3713 54.689 21.4797 56.0141 21.5309C57.2945 21.5791 57.3887 20.3915 57.4643 19.4057C57.7223 16.04 55.3639 12.7768 52.0958 12.0565C51.1908 11.8562 50.0124 11.4743 49.6247 12.7737C49.2061 14.1709 50.3707 14.2516 51.3236 14.4969C53.7468 15.1132 54.9917 16.8488 54.8851 19.3964Z" fill="#E33C5C"/>
<path d="M22.643 56.0924C21.48 56.0924 20.3108 56.0194 19.154 56.1094C17.3378 56.2507 16.7431 55.3239 16.7617 53.6721C16.7895 51.2674 16.8126 48.8596 16.7617 46.4596C16.7215 44.8124 17.5339 44.0316 19.0629 44.0021C21.6468 43.9524 24.2338 43.9819 26.8192 43.9928C28.2092 43.9928 28.7714 44.8901 28.793 46.1258C28.8393 48.7882 28.8084 51.4537 28.8038 54.1177C28.8038 55.5149 28.0424 56.1001 26.7203 56.0955C25.3581 56.0893 24.0005 56.0939 22.643 56.0924ZM22.0731 52.8835C23.2422 52.4861 23.9604 51.345 24.8206 50.4291C25.528 49.6746 27.2408 48.9341 26.0809 47.6813C24.8531 46.3571 24.1581 48.1595 23.3719 48.8053C22.5858 49.4511 22.0468 50.3981 20.8591 49.2337C20.4267 48.8099 19.3008 48.6019 19.1772 49.8811C19.1031 50.693 21.1371 52.8524 22.0731 52.8835Z" fill="#E33C5C"/>
<path d="M28.8055 33.6011C28.8055 34.8989 28.8055 36.1973 28.8055 37.4961C28.8055 38.8607 28.0781 39.5407 26.7684 39.5547C24.1212 39.5826 21.474 39.5873 18.8268 39.5547C17.5124 39.5391 16.7912 38.8033 16.7804 37.476C16.7588 34.8151 16.7588 32.1537 16.7804 29.4918C16.7912 28.1567 17.4985 27.4644 18.8422 27.4644C21.4894 27.4644 24.1366 27.4644 26.7838 27.4644C28.1244 27.4644 28.8101 28.1459 28.8055 29.5089C28.8008 30.8719 28.807 32.2381 28.8055 33.6011ZM26.4038 31.4851C26.3161 31.222 26.1345 31.0008 25.8942 30.8642C25.7042 30.7356 25.4771 30.674 25.2486 30.6889C25.02 30.7037 24.8027 30.7943 24.6308 30.9465C24.1391 31.3662 23.6705 31.8124 23.2269 32.2831C22.5505 32.9894 21.9589 33.8479 20.9504 32.6324C20.5797 32.1868 20.0083 32.2629 19.5743 32.6976C19.4047 32.8478 19.2872 33.0485 19.2389 33.2705C19.1906 33.4924 19.2139 33.7241 19.3055 33.9318C20.1009 36.1052 22.1242 36.6283 23.6949 35.0557C24.3806 34.3675 25.0638 33.6782 25.7444 32.9879C26.0625 32.6696 26.3992 32.3545 26.4038 31.4851Z" fill="#E33C5C"/>
<path d="M50.6531 34.3509H52.9698C56.0927 34.3509 56.4402 34.7701 55.9274 37.9215C55.8965 38.1109 55.8842 38.4571 55.8255 38.4649C53.8918 38.735 53.725 41.0434 52.1003 41.6877C50.4755 42.332 49.0824 42.0913 47.8159 40.9394C46.985 40.1818 46.6993 39.061 45.3572 38.5301C44.517 38.1994 44.9402 36.1347 45.1564 34.8989C45.3108 33.9846 46.3379 34.3913 46.9866 34.3633C48.2067 34.3121 49.4314 34.3509 50.6531 34.3509Z" fill="#E33C5C"/>
<path d="M38.1863 52.5838C39.6087 52.5838 41.0312 52.5699 42.4536 52.5838C43.4838 52.5978 44.2498 53.0341 44.273 54.1658C44.2961 55.2975 43.561 55.7787 42.5138 55.7834C39.5392 55.7979 36.5651 55.7979 33.5915 55.7834C32.532 55.7834 31.8231 55.2649 31.8725 54.1347C31.922 53.0046 32.6927 52.5916 33.7259 52.5823C35.2117 52.5761 36.699 52.5838 38.1863 52.5838Z" fill="#E33C5C"/>
<path d="M37.9796 47.509C36.622 47.509 35.2629 47.4982 33.9053 47.509C32.8242 47.5199 31.9084 47.2172 31.8759 45.9566C31.8435 44.696 32.662 44.2986 33.7941 44.3033C36.6406 44.3033 39.487 44.3033 42.3334 44.3033C43.4485 44.3033 44.3026 44.7162 44.2717 45.9535C44.2408 47.1908 43.345 47.5277 42.2485 47.5059C40.826 47.4935 39.4021 47.509 37.9796 47.509Z" fill="#E33C5C"/>
<path d="M37.5734 39.2408C36.2235 39.2408 34.8737 39.2749 33.5269 39.2299C32.5863 39.1988 31.9037 38.7223 31.8651 37.7085C31.8234 36.5908 32.5076 36.0505 33.5547 36.0366C36.1231 36.004 38.6947 36.0536 41.2631 36.004C42.752 35.976 42.2129 37.0487 42.2824 37.7675C42.355 38.5235 42.5172 39.3587 41.2337 39.2672C40.0198 39.1818 38.7935 39.2485 37.5734 39.2485V39.2408Z" fill="#E33C5C"/>
<path d="M41.967 30.9432C38.9275 30.9432 36.1691 30.9789 33.4138 30.9215C32.4655 30.9028 31.8354 30.3005 31.8539 29.2883C31.8724 28.2761 32.5458 27.7359 33.4849 27.7095C35.4927 27.649 37.5143 27.5077 39.4928 27.7328C41.065 27.9129 41.1701 29.591 41.967 30.9432Z" fill="#E33C5C"/>
<path d="M39.2025 11.6653C39.0589 12.5517 38.5245 13.1866 37.5036 12.7628C36.4258 12.3246 35.4121 11.7412 34.4904 11.0288C33.6842 10.3938 33.749 9.50739 34.6742 8.94385C35.5993 8.38032 39.1315 10.4373 39.2025 11.6653Z" fill="#E33C5C"/>
<path d="M60.5673 3.75989C60.0267 4.9832 59.4398 6.33537 58.3417 7.36463C57.8969 7.78223 57.3687 7.6332 56.9517 7.27303C56.5347 6.91287 56.2691 6.43007 56.544 5.9038C57.1077 4.82641 57.7023 3.75834 58.3665 2.7415C58.6584 2.29595 59.1974 2.14226 59.741 2.40307C60.2321 2.6437 60.5302 3.03491 60.5673 3.75989Z" fill="#E33C5C"/>
<path d="M44.5431 6.0764C44.506 7.27798 43.3677 7.95638 42.6218 7.33541C41.519 6.41793 40.9584 5.08284 40.4595 3.76483C40.2618 3.24322 40.6233 2.7837 41.0928 2.48253C41.519 2.2093 41.9978 2.18291 42.3422 2.51668C43.4187 3.56302 43.9346 4.95865 44.5431 6.0764Z" fill="#E33C5C"/>
<path d="M63.2805 12.8355C62.5608 12.8572 62.1114 12.643 61.8828 12.1105C61.6542 11.578 61.7191 11.0238 62.1917 10.7133C63.2075 10.0431 64.2582 9.42799 65.3393 8.87057C65.8382 8.61442 66.354 8.84573 66.7031 9.29748C67.0521 9.74924 67.1123 10.3112 66.7339 10.7257C65.7609 11.8 64.4404 12.3247 63.2805 12.8355Z" fill="#E33C5C"/>
<path d="M49.2289 2.60976C49.4049 1.69228 48.7192 0.0172077 50.4644 0.000130992C52.2097 -0.0169457 51.6151 1.6395 51.7479 2.6998C51.7726 2.89254 51.7726 3.08767 51.7479 3.28041C51.6089 4.24757 51.7695 5.59353 50.3702 5.56403C49.0127 5.53609 49.252 4.25999 49.2242 3.31456C49.2242 3.12672 49.2289 2.92646 49.2289 2.60976Z" fill="#E33C5C"/>
</svg>
