<svg width="68" height="54" viewBox="0 0 68 54" fill="none" xmlns="http://www.w3.org/2000/svg">
<path d="M67.498 3.64342V49.7142C66.5636 52.3921 64.6637 53.3688 61.8534 53.3603C43.1157 53.2974 24.3771 53.2974 5.63764 53.3603C2.83009 53.3688 0.921754 52.4146 0 49.7142V3.64342C0.903432 1.02051 2.72863 -0.0083587 5.50516 9.77583e-05C24.2898 0.059293 43.0744 0.059293 61.859 9.77583e-05C64.6736 -0.0111775 66.5735 0.951446 67.498 3.64342ZM2.98371 12.8046C2.95552 13.0865 2.92876 13.2274 2.92876 13.3528C2.92876 25.1759 2.92876 36.999 2.92876 48.822C2.92876 50.278 3.24166 50.5133 4.98369 50.5133H62.6666C64.5411 50.5133 64.8047 50.2441 64.8061 48.3344C64.8061 36.9576 64.8061 25.5813 64.8061 14.2055V12.806L2.98371 12.8046ZM45.5296 7.29379C45.4986 6.04365 44.402 5.00067 43.1914 5.0641C42.0314 5.1247 41.0039 6.19162 41.0025 7.33747C41.0025 8.6144 41.999 9.59253 43.3013 9.57703C44.6036 9.56153 45.562 8.60312 45.5296 7.29942V7.29379ZM60.8203 7.41218C60.8354 6.80725 60.6101 6.22099 60.1938 5.78189C59.7774 5.3428 59.2039 5.08671 58.599 5.06974C57.3883 5.05142 56.2806 6.1437 56.2848 7.35157C56.2865 7.9342 56.5162 8.49302 56.9248 8.90842C57.3333 9.32382 57.8883 9.56279 58.4708 9.57421C59.797 9.62776 60.7949 8.71025 60.8203 7.41782V7.41218ZM53.2207 7.39103C53.2376 6.18035 52.158 5.0796 50.9431 5.06833C50.3377 5.07317 49.7589 5.31814 49.334 5.74943C48.909 6.18071 48.6727 6.76303 48.6768 7.36848C48.6719 7.65717 48.7247 7.94394 48.832 8.21199C48.9394 8.48004 49.0991 8.72397 49.3019 8.92951C49.5047 9.13505 49.7464 9.29806 50.013 9.40901C50.2796 9.51995 50.5656 9.5766 50.8543 9.57562C52.151 9.60944 53.2038 8.63837 53.2207 7.39668V7.39103Z" fill="#E33C5C"/>
<path d="M43.8493 23.3189V31.8613H40.7627V19.3894C42.2778 19.3894 43.7774 19.3359 45.2658 19.4359C45.5561 19.4557 45.9423 20.0406 46.0522 20.4225C46.6287 22.4704 47.1318 24.538 47.8844 26.607C48.4257 24.5451 49.0204 22.4944 49.4827 20.4155C49.6702 19.5698 50.0296 19.3288 50.8372 19.3627C52.1254 19.4162 53.4178 19.3768 54.8103 19.3768V31.8655H51.7575V23.1272L51.4925 23.0976C50.7357 26.001 49.9803 28.9058 49.2375 31.7739C49.1466 31.8309 49.0478 31.8742 48.9443 31.9022C46.3848 32.0629 46.3919 32.0614 45.745 29.5442C45.2094 27.4541 44.6541 25.3696 44.1086 23.2836L43.8493 23.3189Z" fill="#E33C5C"/>
<path d="M27.0645 31.8739V19.5373C29.9988 19.5373 32.9205 19.433 35.8296 19.5838C37.1826 19.6529 38.0409 20.7283 38.2707 22.0743C38.5187 23.5189 38.1847 24.8297 36.8866 25.719C36.5957 25.9048 36.293 26.0715 35.9804 26.2179L39.542 31.9458C37.8887 31.9458 36.6611 31.9923 35.442 31.9134C35.1432 31.8936 34.781 31.5173 34.5963 31.2086C33.9607 30.1403 33.4688 28.9832 32.7712 27.9557C32.4075 27.4187 31.7465 27.0833 31.2208 26.6563L30.8374 26.9381V31.8711L27.0645 31.8739ZM30.8924 21.8981V24.552C31.7902 24.466 32.6443 24.5069 33.4068 24.2617C33.8367 24.1207 34.4498 23.447 34.3863 23.1341C34.2891 22.6648 33.7338 22.087 33.2588 21.9488C32.5696 21.7487 31.7775 21.8981 30.8924 21.8981Z" fill="#E33C5C"/>
<path d="M24.697 23.0328L21.5752 23.7516C21.4342 23.5585 21.2665 23.3654 21.1298 23.1554C20.5223 22.2238 19.6612 21.918 18.5929 22.097C17.4724 22.2844 16.8424 23.0469 16.6845 24.0701C16.549 25.0835 16.5381 26.1097 16.6521 27.1257C16.7634 28.3054 17.4428 29.113 18.6788 29.2539C19.874 29.3949 20.7521 28.8959 21.2158 27.7501C21.3158 27.5063 21.4201 27.2653 21.5878 26.8664L24.8295 27.8022C24.1248 31.1242 22.0657 32.3941 17.9741 32.077C14.7903 31.8289 12.7988 29.5978 12.5973 26.0504C12.3872 22.3394 14.2293 19.8039 17.5485 19.233C21.1072 18.6157 23.6977 19.9335 24.697 23.0328Z" fill="#E33C5C"/>
<path d="M24.6421 44.7672H13.7995C13.075 44.7672 12.2604 44.8306 12.2491 43.7806C12.2393 42.7602 13.0004 42.7405 13.7572 42.7405C21.12 42.7461 28.4823 42.7461 35.8441 42.7405C36.6164 42.7405 37.3493 42.794 37.3282 43.8003C37.3099 44.7334 36.5967 44.7714 35.8864 44.77C32.1411 44.7625 28.393 44.7616 24.6421 44.7672Z" fill="#E33C5C"/>
<path d="M24.7295 39.8625C21.0706 39.8625 17.4118 39.8625 13.753 39.8625C13.0131 39.8625 12.2182 39.9062 12.2407 38.8561C12.2633 37.8061 13.0863 37.8963 13.8051 37.8977C21.166 37.8977 28.5273 37.8977 35.8892 37.8977C36.6065 37.8977 37.3084 37.9189 37.3394 38.8435C37.3705 39.768 36.7235 39.8751 35.9723 39.8723C32.2247 39.854 28.4771 39.8625 24.7295 39.8625Z" fill="#E33C5C"/>
<path d="M49.2953 44.7585C47.7337 44.7585 46.1692 44.8248 44.6161 44.7162C44.1933 44.6866 43.8014 44.137 43.3955 43.8269C43.8042 43.4647 44.2045 42.8009 44.6231 42.7896C47.7873 42.7008 50.9556 42.7064 54.1197 42.7896C54.5073 42.7995 54.8794 43.421 55.2599 43.7607C54.8766 44.0933 54.5115 44.6853 54.1084 44.7134C52.5158 44.8262 50.9063 44.7585 49.2953 44.7585Z" fill="#E33C5C"/>
<path d="M49.0139 37.9019C50.5741 37.9019 52.1343 37.9089 53.6945 37.9019C54.4302 37.9019 55.0321 38.1908 54.8531 38.9547C54.7671 39.3296 54.0962 39.8144 53.6791 39.8243C50.5163 39.8967 47.3527 39.8967 44.1881 39.8243C43.8033 39.8159 43.4326 39.2154 43.0605 38.8885C43.4425 38.5615 43.8075 37.9822 44.2092 37.954C45.8047 37.8385 47.4142 37.9033 49.0139 37.9019Z" fill="#E33C5C"/>
</svg>
