<svg width="91" height="90" viewBox="0 0 91 90" fill="none" xmlns="http://www.w3.org/2000/svg">
<path d="M65.6199 82.8221C64.9666 87.5885 62.2245 89.9999 57.4984 89.9999C41.3522 89.9999 25.2047 89.9999 9.05585 89.9999C4.35798 89.9999 0.99083 86.6126 0.99083 81.8946C0.99083 61.318 0.99083 40.7401 0.99083 20.1609C0.975313 19.7911 1.04761 19.4229 1.20181 19.0865C1.35601 18.75 1.58772 18.4549 1.87796 18.2253C5.47093 15.1122 8.98324 11.9023 12.6569 8.88595C13.5004 8.22219 14.0923 7.29041 14.3344 6.24466C14.7658 4.73621 15.6761 3.40901 16.928 2.46336C18.1799 1.5177 19.7054 1.00493 21.2743 1.0024C37.9017 0.983577 54.5278 0.983577 71.1525 1.0024C73.0759 1.02463 74.9159 1.7909 76.2865 3.14046C77.6571 4.49001 78.4518 6.31795 78.5038 8.24075C78.5038 8.644 78.5038 9.07144 78.5038 9.5997C79.6893 9.5997 80.8184 9.66422 81.9354 9.5997C87.093 9.265 90.0368 13.5637 90.0005 17.6647C89.9481 27.1452 90.0005 36.6175 90.0005 46.1101C90.0005 55.6026 90.0005 65.1355 90.0005 74.6441C90.0616 76.4814 89.5207 78.2882 88.46 79.7896C87.8207 80.7373 86.9546 81.5101 85.9404 82.0376C84.9262 82.5651 83.7962 82.8306 82.6532 82.81H65.6441L65.6199 82.8221ZM15.3304 11.0433C15.3304 12.5475 15.2377 13.9548 15.3506 15.346C15.6692 19.3785 13.4593 21.3948 9.6244 21.1206C7.73316 20.9795 5.81773 21.0964 3.84987 21.0964V54.4695C3.84987 63.6098 3.84987 72.7623 3.84987 81.9269C3.84987 84.9432 5.93064 87.1328 8.83808 87.1328C25.1671 87.1328 41.4934 87.1328 57.817 87.1328C60.926 87.1328 62.7003 85.3021 62.7003 82.2051V16.6082C62.7003 13.0233 60.7244 11.0393 57.1718 11.0353H15.3304V11.0433ZM65.5715 74.2167H70.4105C73.7817 74.2167 75.6326 72.3779 75.6326 69.0228C75.6326 49.0431 75.6326 29.0633 75.6326 9.08354C75.6326 5.70833 73.7938 3.86547 70.4307 3.86547H21.972C21.6735 3.86547 21.3711 3.86547 21.0727 3.86547C19.9672 3.94054 18.928 4.41976 18.1531 5.21177C17.3782 6.00379 16.9217 7.05323 16.8708 8.16011H17.9394C31.037 8.16011 44.1347 8.16011 57.2323 8.16011C58.0967 8.15073 58.9592 8.2455 59.801 8.44237C63.3052 9.34566 65.5674 12.4749 65.5674 16.3542C65.5674 35.1994 65.5674 54.042 65.5674 72.8819L65.5715 74.2167ZM65.5715 79.9106C65.705 79.9338 65.8396 79.9499 65.9747 79.959C71.5638 79.959 77.1569 79.959 82.75 79.959C83.4763 79.9861 84.1944 79.7981 84.8142 79.4186C85.4341 79.0391 85.928 78.485 86.2341 77.8258C86.739 76.7849 87.014 75.6475 87.0406 74.4909C87.0863 55.651 87.0971 36.8084 87.0729 17.9631C87.0729 17.6647 87.0729 17.3663 87.0729 17.0679C86.9398 14.9347 85.6171 12.9588 83.738 12.6846C82.0282 12.4346 80.2579 12.6322 78.4715 12.6322V68.6841C78.4715 69.0873 78.4715 69.4624 78.4715 69.8495C78.3424 73.3578 75.8221 76.3983 72.3421 76.9064C70.467 77.1806 68.5274 77.0395 66.62 77.0838C66.2772 77.0838 65.9344 77.0838 65.5836 77.0838L65.5715 79.9106ZM12.4552 12.7733L6.24919 18.2091C8.0356 18.2091 9.55585 18.2414 11.0882 18.2091C11.2703 18.2153 11.4517 18.184 11.6211 18.117C11.7905 18.0501 11.9444 17.9489 12.073 17.8199C12.2016 17.6909 12.3023 17.5368 12.3687 17.3672C12.4352 17.1976 12.466 17.0161 12.4593 16.834C12.4875 15.5477 12.4552 14.2694 12.4552 12.7733Z" fill="#004999"/>
<path d="M21.9879 40.0532L24.2905 37.3918L26.46 39.2508L23.9679 42.1784C24.6755 43.2548 25.132 44.4765 25.3037 45.7532C25.4754 47.0298 25.3579 48.3287 24.9599 49.5538C24.3517 51.5177 23.0447 53.1906 21.2863 54.2558C19.5465 55.3255 17.4832 55.7419 15.4648 55.4306C13.4463 55.1193 11.6043 54.1007 10.2676 52.5566C8.93092 51.0125 8.18672 49.0435 8.16785 47.0013C8.14898 44.9591 8.8567 42.9767 10.1646 41.4082C12.7253 38.3676 17.5441 36.9966 21.9879 40.0532ZM12.8946 46.6222L15.0359 44.3842L16.5642 46.4004L20.0322 42.3437C17.9393 40.5775 14.5721 40.9001 12.6043 42.9929C11.6057 44.0518 11.0468 45.4506 11.0408 46.906C11.0348 48.3615 11.582 49.7648 12.5718 50.8319C13.5615 51.8991 14.9198 52.5502 16.3715 52.6536C17.8233 52.757 19.2601 52.3048 20.3911 51.3886C22.5041 49.703 23.113 46.348 21.8549 44.6543C21.6774 44.86 21.4959 45.0576 21.3225 45.2592C20.2136 46.5537 19.1168 47.8562 17.9998 49.1345C17.2779 49.941 16.4835 50.0458 15.7375 49.3603C14.7738 48.4691 13.8463 47.5416 12.8946 46.6222Z" fill="#E33C5C"/>
<path d="M21.9839 61.5868L24.2904 58.9334L26.464 60.7843L23.9719 63.7079C25.3954 66.075 25.8107 68.5872 24.9034 71.2447C24.2587 73.1955 22.9198 74.8416 21.1411 75.87C19.3887 76.9095 17.3242 77.2932 15.3154 76.9527C13.3066 76.6122 11.4838 75.5697 10.1719 74.0108C8.8599 72.452 8.1439 70.478 8.15143 68.4405C8.15895 66.4031 8.88952 64.4344 10.213 62.8853C12.8018 59.873 17.6045 58.5705 21.9839 61.5868ZM20.0644 63.845C18.919 63.0009 17.4971 62.6205 16.0832 62.7797C14.6694 62.939 13.3678 63.6262 12.4389 64.7039C11.5085 65.7804 11.0115 67.1643 11.0445 68.5867C11.0775 70.0091 11.6382 71.3685 12.6175 72.4006C13.5969 73.4327 14.9249 74.0639 16.3436 74.1715C17.7624 74.2791 19.1705 73.8554 20.2943 72.9827C22.4154 71.3294 23.1654 68.1759 21.879 66.1718C21.6774 66.4016 21.4758 66.6154 21.2822 66.8412C20.1934 68.1114 19.1127 69.3857 18.0159 70.6479C17.3344 71.4302 16.5601 71.6116 15.9069 71.0108C14.8786 70.0712 13.9471 69.0268 13.0841 68.1477L15.0237 65.9863L16.5964 67.8816L20.0644 63.845Z" fill="#E33C5C"/>
<path d="M54.3812 41.7631L56.6798 43.497C55.6757 44.8036 54.7764 46.1504 53.6998 47.3279C53.3647 47.6722 52.9621 47.9437 52.5173 48.1253C52.0725 48.3069 51.5951 48.3947 51.1148 48.3834C50.6344 48.372 50.1616 48.2617 49.7259 48.0593C49.2902 47.8568 48.9009 47.5667 48.5825 47.207C48.5172 47.1451 48.4591 47.0761 48.4091 47.0013C47.1993 45.0496 46.417 45.0254 44.6992 46.844C42.7071 48.953 39.6626 48.9006 37.61 46.844C37.3802 46.6142 37.1503 46.3763 36.9124 46.1504C36.7238 45.9383 36.4919 45.769 36.2324 45.6539C35.9729 45.5389 35.6918 45.4807 35.4079 45.4834C35.124 45.4861 34.8441 45.5495 34.5868 45.6694C34.3295 45.7894 34.1008 45.963 33.9162 46.1787C32.8597 47.2271 31.8153 48.2877 30.7265 49.3845L28.7788 47.2191C30.6418 45.8157 31.7347 43.2914 34.4485 42.747C36.1382 42.4083 37.6504 42.747 38.8843 44.0414C38.974 44.121 39.0588 44.2058 39.1384 44.2955C40.6062 46.1424 41.9853 45.6383 43.2354 44.3197C45.5903 41.8316 48.2518 42.0655 50.3528 44.8116C51.0705 45.7512 51.3972 45.7512 52.115 44.8116C52.8327 43.8721 53.5707 42.8397 54.3812 41.7631Z" fill="#E33C5C"/>
<path d="M54.377 66.1798L56.7119 67.9219C55.5989 69.305 54.6311 70.793 53.381 71.9866C53.0333 72.3003 52.6229 72.5365 52.177 72.6795C51.7312 72.8224 51.26 72.869 50.7948 72.816C50.3295 72.7629 49.8809 72.6116 49.4786 72.372C49.0763 72.1324 48.7295 71.81 48.4613 71.4261C46.9774 69.3131 46.2797 69.5994 44.6667 71.285C42.7069 73.3416 39.6503 73.3012 37.6421 71.285C37.4122 71.0511 37.1784 70.8172 36.9445 70.5874C35.9888 69.6518 34.8556 69.6558 33.8838 70.6196C32.8475 71.6479 31.8272 72.6923 30.7748 73.7529L28.9399 71.7165C30.0811 70.5067 31.2304 69.0832 32.6176 67.9259C34.3677 66.4621 37.2751 66.7161 38.8236 68.434C40.6988 70.5067 41.7754 70.2728 43.5094 68.434C45.4974 66.3331 48.3162 66.5911 50.0985 68.8856C50.2276 69.051 50.3445 69.2284 50.4776 69.3897C51.0422 70.0833 51.4131 70.0914 51.9656 69.3897C52.768 68.3412 53.5463 67.2686 54.377 66.1798Z" fill="#E33C5C"/>
<path d="M28.2508 23.9715C28.2508 24.8708 28.2508 25.766 28.2508 26.6653C28.2266 27.6814 27.7064 28.246 26.7144 28.2581C24.8594 28.2823 23.0059 28.2823 21.1536 28.2581C20.9498 28.2743 20.745 28.2458 20.5535 28.1743C20.362 28.1029 20.1884 27.9904 20.045 27.8448C19.9017 27.6991 19.792 27.5238 19.7236 27.3311C19.6553 27.1385 19.6299 26.9332 19.6494 26.7298C19.6494 24.8748 19.6252 23.0199 19.6494 21.1649C19.6331 20.9613 19.6617 20.7566 19.7331 20.5653C19.8045 20.3739 19.9171 20.2006 20.0629 20.0575C20.2086 19.9144 20.384 19.8051 20.5767 19.7373C20.7693 19.6694 20.9745 19.6447 21.1778 19.6648C23.0327 19.6406 24.8863 19.6406 26.7386 19.6648C27.6863 19.6648 28.2185 20.2334 28.2427 21.1972C28.2669 22.1609 28.2468 23.0441 28.2508 23.9715ZM25.3595 22.5964H22.569V25.3305H25.3595V22.5964Z" fill="#E33C5C"/>
<path d="M39.7312 23.9594C39.7312 24.8869 39.7312 25.8144 39.7312 26.7419C39.7463 26.9452 39.7173 27.1494 39.6462 27.3405C39.5751 27.5316 39.4635 27.7051 39.3192 27.849C39.1748 27.993 39.0011 28.1041 38.8098 28.1747C38.6185 28.2453 38.4142 28.2738 38.2109 28.2581C36.3559 28.2823 34.5023 28.2823 32.65 28.2581C32.4462 28.2753 32.2412 28.2478 32.0491 28.1774C31.8571 28.1071 31.6827 27.9956 31.5383 27.8507C31.3938 27.7059 31.2828 27.5313 31.2129 27.339C31.1431 27.1468 31.1161 26.9416 31.1339 26.7378C31.1097 24.8829 31.1097 23.0293 31.1339 21.177C31.116 20.9734 31.1429 20.7684 31.2128 20.5763C31.2827 20.3842 31.3938 20.2098 31.5384 20.0653C31.6829 19.9207 31.8573 19.8096 32.0494 19.7398C32.2414 19.6699 32.4464 19.6429 32.65 19.6608C34.505 19.6366 36.3586 19.6366 38.2109 19.6608C38.4143 19.6444 38.6189 19.6724 38.8105 19.7427C39.0021 19.8131 39.1762 19.9242 39.3207 20.0683C39.4652 20.2124 39.5768 20.3862 39.6476 20.5776C39.7185 20.769 39.747 20.9735 39.7312 21.177C39.7513 22.1045 39.7312 23.032 39.7312 23.9594ZM34.0332 25.3305H36.7995V22.5803H34.0332V25.3305Z" fill="#E33C5C"/>
<path d="M51.2159 23.9473C51.2159 24.8748 51.2361 25.8023 51.2159 26.7298C51.2326 26.933 51.2053 27.1374 51.1357 27.3291C51.0661 27.5207 50.956 27.6951 50.8127 27.8402C50.6695 27.9854 50.4966 28.0978 50.3059 28.17C50.1152 28.2421 49.9112 28.2722 49.7077 28.2581C47.8582 28.2823 46.0045 28.2823 44.1469 28.2581C43.9434 28.2771 43.7382 28.2512 43.5458 28.1823C43.3533 28.1135 43.1783 28.0033 43.033 27.8595C42.8877 27.7158 42.7757 27.5419 42.7048 27.3502C42.6339 27.1585 42.6059 26.9536 42.6226 26.7499C42.5984 24.895 42.5984 23.0414 42.6226 21.1891C42.6024 20.9855 42.6272 20.7799 42.6953 20.587C42.7634 20.394 42.8731 20.2184 43.0166 20.0725C43.1601 19.9267 43.334 19.8142 43.5258 19.7431C43.7177 19.6719 43.9228 19.6438 44.1268 19.6608C45.9817 19.6366 47.8353 19.6366 49.6876 19.6608C50.6796 19.6608 51.1998 20.2334 51.2199 21.2738C51.232 22.1529 51.2159 23.0521 51.2159 23.9473ZM48.2802 25.3547V22.5965H45.522V25.3547H48.2802Z" fill="#E33C5C"/>
</svg>
