<svg width="104" height="76" viewBox="0 0 104 76" fill="none" xmlns="http://www.w3.org/2000/svg">
<g clip-path="url(#clip0_735_1253)">
<path d="M104 48.3616C103.552 49.3833 102.786 49.9211 101.672 50.063C100.702 50.1862 99.7507 50.4618 98.7819 50.597C97.3894 50.7912 96.375 50.0742 96.1595 48.8224C95.9551 47.6274 96.7651 46.6108 98.1367 46.3285C98.4962 46.2538 98.8527 46.1679 99.2898 46.0686C96.651 32.2943 94.0234 18.576 91.3689 4.71949C89.5863 5.05186 87.8403 5.3678 86.0988 5.70241C65.4851 9.66546 44.8711 13.6285 24.2569 17.5915C23.7953 17.6804 23.3157 17.7693 22.8518 17.7409C22.3568 17.7076 21.8899 17.4989 21.5346 17.1523C21.1792 16.8056 20.9588 16.3436 20.9126 15.849C20.8007 14.7242 21.4063 13.7771 22.5706 13.5165C24.5158 13.0803 26.4818 12.7352 28.4396 12.3595C39.8929 10.1607 51.3461 7.96302 62.7993 5.76664C72.6912 3.86752 82.5831 1.96642 92.475 0.0633173C93.9458 -0.219011 94.9654 0.480827 95.257 1.99853C96.9575 10.8393 98.6526 19.6821 100.342 28.5269C101.507 34.6106 102.67 40.6946 103.833 46.7789C103.857 46.9059 103.942 47.0216 103.998 47.1426L104 48.3616Z" fill="#004999"/>
<path d="M42.814 25.1568H82.5206C84.8044 25.1568 85.4846 25.8365 85.4846 28.1213C85.4846 43.1041 85.4846 58.0871 85.4846 73.0704C85.4846 75.2641 84.7507 75.999 82.5669 75.999H2.84863C0.734156 75.999 0.000976562 75.2559 0.000976562 73.1168C0.000976562 58.0662 0.000976562 43.0152 0.000976562 27.9637C0.000976562 25.8657 0.707297 25.1576 2.80238 25.1576C16.1396 25.1561 29.4768 25.1559 42.814 25.1568ZM4.37015 71.5722H81.0558V29.5501H4.37015V71.5722Z" fill="#004999"/>
<path d="M90.7206 58.9433C89.249 44.9128 87.7901 31.0093 86.326 17.0505C83.3904 17.3559 80.5718 17.648 77.7525 17.9467C71.5277 18.597 65.3031 19.2483 59.0788 19.9006C53.0568 20.5335 47.0349 21.1689 41.0129 21.8067C34.8557 22.454 28.6987 23.1013 22.542 23.7486C20.5573 23.957 18.5749 24.2057 16.585 24.3499C15.0985 24.4575 14.0819 23.3789 14.2124 21.9822C14.3094 20.9411 15.0545 20.1994 16.2404 20.0672C19.939 19.6556 23.6399 19.2687 27.3401 18.8774C34.2367 18.1474 41.1335 17.4202 48.0306 16.6957C54.6592 15.9986 61.2873 15.3035 67.9148 14.6103C74.1725 13.9516 80.4299 13.2906 86.687 12.6273C87.1577 12.5773 87.6313 12.5317 88.1041 12.5235C89.3818 12.5003 90.2522 13.2151 90.3909 14.4789C90.8794 18.9237 91.3404 23.3715 91.808 27.8185C92.5295 34.6581 93.2505 41.4972 93.971 48.3358C94.3924 52.3452 94.8242 56.3538 95.2322 60.3609C95.3963 61.9682 94.6937 62.8533 93.0692 63.0729C91.6283 63.2686 90.1806 63.4217 88.7321 63.5532C87.503 63.6644 86.4685 62.8541 86.3178 61.7225C86.156 60.5081 86.8287 59.5333 88.0803 59.2861C88.9059 59.124 89.7502 59.0658 90.7206 58.9433Z" fill="#004999"/>
<path d="M42.8096 31.7072H68.5942C70.6968 31.7072 71.286 32.2383 71.5172 34.3259C71.6231 35.3284 72.0726 36.2633 72.7893 36.9714C73.5059 37.6795 74.4453 38.1171 75.4478 38.2097C77.3766 38.3927 77.9979 39.0687 77.9986 41.0054C77.9986 47.4103 77.9986 53.8147 77.9986 60.2186C77.9986 61.9925 77.393 62.6759 75.6604 62.8963C73.1061 63.2209 71.7166 64.6525 71.4919 67.1909C71.374 68.5423 70.6458 69.2815 69.3073 69.4085C69.1059 69.4271 68.9015 69.4271 68.6987 69.4271H16.8251C16.5881 69.4312 16.3512 69.4232 16.115 69.4032C14.812 69.2725 14.1214 68.5667 13.9968 67.2484C13.75 64.6343 12.3709 63.2204 9.75969 62.8925C8.11882 62.6856 7.48635 62.0104 7.48486 60.3777C7.4764 53.8374 7.4764 47.2973 7.48486 40.7574C7.48486 39.0971 8.18596 38.3718 9.86038 38.218C12.1994 38.0036 13.7514 36.4515 13.9856 34.0913C14.1549 32.3787 14.8807 31.7102 16.6192 31.7095C25.3496 31.7045 34.0797 31.7037 42.8096 31.7072ZM67.3427 65.0667C67.4345 64.9174 67.5075 64.8427 67.5381 64.7463C68.4607 61.9178 70.3313 60.0215 73.0977 58.9489C73.3751 58.8413 73.6563 58.3193 73.6585 57.9876C73.6943 53.0394 73.6735 48.0912 73.6958 43.143C73.6958 42.5455 73.5168 42.2632 72.9388 42.057C70.4775 41.1809 68.7084 39.5176 67.7925 37.0662C67.4814 36.2305 67.0608 36.0512 66.2523 36.0527C52.0036 36.0736 37.7548 36.0786 23.5056 36.0676C21.9826 36.0676 20.4588 36.0938 18.9366 36.0557C18.3093 36.0407 18.0177 36.2327 17.7492 36.8444C17.3188 37.8228 16.8497 38.8924 16.0927 39.5952C14.859 40.741 13.3808 41.6231 11.7876 42.7733C11.7876 47.6804 11.7772 52.9655 11.8175 58.2498C11.8175 58.5142 12.2105 58.9018 12.5037 59.0161C14.9724 59.9774 16.7714 61.6303 17.6873 64.1212C17.9767 64.9099 18.3727 65.0847 19.1514 65.0832C34.8892 65.0608 50.6266 65.0553 66.3634 65.0667H67.3427Z" fill="#E43C5C"/>
<path d="M30.8106 50.589C30.7986 43.9805 36.1202 38.6185 42.7068 38.6035C49.3344 38.5879 54.6679 43.9581 54.6582 50.6368C54.6485 57.1498 49.2419 62.5544 42.756 62.5349C39.5906 62.5355 36.5543 61.2777 34.3145 59.0377C32.0746 56.7978 30.8143 53.759 30.8106 50.589ZM42.6762 58.1596C46.9216 58.1753 50.345 54.7986 50.3502 50.5973C50.3555 46.3959 46.9619 42.9849 42.7366 42.9415C38.6233 42.899 35.1596 46.3354 35.1342 50.4852C35.1074 54.7381 38.4547 58.1454 42.6762 58.1619V58.1596Z" fill="#E43C5C"/>
</g>
<defs>
<clipPath id="clip0_735_1253">
<rect width="104" height="76" fill="white"/>
</clipPath>
</defs>
</svg>
