<svg width="94" height="94" viewBox="0 0 94 94" fill="none" xmlns="http://www.w3.org/2000/svg">
<path d="M68.2444 86.3964C67.5502 91.4327 64.6555 93.9738 59.6716 93.9738H8.51616C3.55845 93.9738 0.00226348 90.398 0.00226348 85.4141C0.00226348 63.6883 0.00226348 41.9604 0.00226348 20.2303C-0.014463 19.8399 0.0617013 19.4511 0.224513 19.0959C0.387324 18.7407 0.632088 18.4292 0.938748 18.187C4.73071 14.9124 8.44408 11.5134 12.3212 8.32399C13.2125 7.62658 13.8368 6.64381 14.0894 5.5406C14.5443 3.9469 15.5053 2.54443 16.8273 1.54493C18.1493 0.545436 19.7606 0.00317009 21.418 0C38.9784 0 56.5346 0 74.0863 0C76.1167 0.0246177 78.0587 0.834138 79.5054 2.25891C80.9522 3.68367 81.7913 5.61311 81.847 7.64287C81.847 8.08166 81.847 8.52046 81.847 9.08369C83.0979 9.08369 84.2898 9.14918 85.4752 9.08369C90.9175 8.73004 93.9891 13.2751 93.9891 17.5976C93.9302 27.6112 93.9891 37.6183 93.9891 47.632C93.9891 57.6457 93.9891 67.7183 93.9891 77.7581C94.0489 79.6968 93.4766 81.6024 92.3584 83.1874C91.6857 84.1901 90.7719 85.0077 89.7007 85.565C88.6296 86.1223 87.4356 86.4015 86.2284 86.3768H68.2706L68.2444 86.3964ZM15.1439 10.5703C15.1439 12.1618 15.0457 13.6484 15.1439 15.1155C15.4779 19.3593 13.1791 21.5074 9.09897 21.2127C7.13422 21.0621 5.07783 21.2127 3.00175 21.2127V56.4537C3.00175 66.1159 3.00175 75.7781 3.00175 85.4403C3.00175 88.6297 5.19571 90.935 8.24107 90.9416C25.4784 90.9416 42.7245 90.9416 59.9794 90.9416C63.254 90.9416 65.1336 89.0096 65.1336 85.7415V16.4515C65.1336 12.6726 63.0509 10.5573 59.2982 10.5573H15.1439V10.5703ZM68.192 77.2735H73.2807C76.8434 77.2735 78.8017 75.3087 78.8017 71.7918V8.50081C78.8017 4.93807 76.8369 2.99297 73.3003 2.99297H22.1515C21.8371 2.99297 21.4966 2.99297 21.2084 2.99297C20.0412 3.07202 18.9437 3.57747 18.1249 4.41314C17.3062 5.24881 16.8233 6.35637 16.7681 7.52499H17.8945C31.7263 7.52499 45.5559 7.52499 59.3834 7.52499C60.2962 7.51288 61.2069 7.61407 62.0947 7.82625C65.8016 8.77587 68.1855 12.0766 68.1855 16.1764C68.1855 36.0727 68.1855 55.9691 68.1855 75.8654L68.192 77.2735ZM68.192 83.2856C68.3394 83.3112 68.4881 83.3287 68.6374 83.338C74.5316 83.338 80.4258 83.338 86.3201 83.338C87.0865 83.3625 87.8433 83.1623 88.4973 82.762C89.1513 82.3617 89.6739 81.7788 90.0007 81.0851C90.525 79.9827 90.8107 78.782 90.839 77.5616C90.887 57.6653 90.887 37.7712 90.839 17.8792C90.839 17.5583 90.839 17.2243 90.839 16.9296C90.7015 14.6767 89.2999 12.594 87.3156 12.2993C85.5145 12.0373 83.6415 12.2469 81.7553 12.2469V71.4447C81.7553 71.8508 81.7553 72.2634 81.7553 72.676C81.7161 74.4774 81.0476 76.2084 79.8657 77.5685C78.6838 78.9286 77.0631 79.8321 75.2848 80.1224C73.2755 80.3072 71.2568 80.3706 69.2399 80.3123C68.8797 80.3123 68.5129 80.3123 68.1462 80.3123L68.192 83.2856ZM12.1051 12.391L5.55593 18.1346C7.44209 18.1346 9.04665 18.1674 10.6446 18.1346C10.837 18.1411 11.0286 18.1078 11.2075 18.0369C11.3865 17.966 11.5489 17.8591 11.6847 17.7227C11.8205 17.5863 11.9268 17.4233 11.9968 17.2441C12.0669 17.0648 12.0993 16.873 12.092 16.6807C12.1444 15.3316 12.1051 13.9825 12.1051 12.391Z" fill="#004999"/>
<path d="M22.1514 41.2073L24.5811 38.4043L26.8733 40.369L24.2536 43.4602C25.0031 44.5956 25.4866 45.8856 25.668 47.2339C25.8495 48.5822 25.7242 49.9541 25.3016 51.2472C24.6614 53.3212 23.2816 55.0878 21.4244 56.2114C19.5688 57.356 17.3628 57.7934 15.2108 57.4433C13.0589 57.0933 11.1052 55.9793 9.70799 54.3056C8.34196 52.668 7.59375 50.6029 7.59375 48.4703C7.59375 46.3377 8.34196 44.2727 9.70799 42.635C12.3931 39.4325 17.4818 37.9852 22.1514 41.2073ZM12.5503 48.1494L14.8098 45.7852L16.4209 47.9071L20.0884 43.624C17.8748 41.764 14.3186 42.098 12.2294 44.3116C11.1638 45.4327 10.5696 46.9204 10.5696 48.4671C10.5696 50.0138 11.1638 51.5014 12.2294 52.6225C13.278 53.7354 14.7086 54.4106 16.2343 54.5126C17.7599 54.6146 19.2677 54.136 20.4552 53.1726C22.6884 51.3978 23.3303 47.8482 22.0073 46.0668L21.4441 46.7217C20.2718 48.0905 19.1126 49.4658 17.9338 50.8149C17.1741 51.686 16.3358 51.7777 15.5499 51.0507C14.5544 50.1011 13.5785 49.1187 12.57 48.1494H12.5503Z" fill="#E43C5C"/>
<path d="M22.1511 63.9522C22.9632 63.0156 23.7491 62.1184 24.5874 61.1426L26.8862 63.1073L24.2665 66.192C25.0268 67.3553 25.5106 68.6773 25.6809 70.0566C25.8512 71.4359 25.7034 72.8359 25.2489 74.1492C24.5723 76.2107 23.1592 77.9502 21.2801 79.0349C19.419 80.1452 17.2209 80.5504 15.0862 80.1766C12.9514 79.8027 11.0219 78.6748 9.64883 76.9981C8.29682 75.3491 7.56556 73.2785 7.58231 71.1462C7.59906 69.0139 8.36277 66.955 9.74053 65.3275C12.4715 62.1642 17.5667 60.7627 22.1511 63.9522ZM20.1275 66.3295C18.9185 65.4377 17.4171 65.0359 15.9243 65.2047C14.4315 65.3735 13.0578 66.1005 12.0785 67.2398C11.0813 68.3795 10.5487 69.8522 10.5864 71.3661C10.624 72.88 11.229 74.3244 12.2816 75.4132C13.3195 76.4935 14.7215 77.15 16.216 77.2553C17.7104 77.3606 19.1907 76.9071 20.3698 75.983C22.6096 74.2343 23.402 70.9074 22.0463 68.7789C21.8302 69.0212 21.6141 69.2504 21.3914 69.4862C20.2453 70.8288 19.1058 72.1779 17.9466 73.5074C17.2261 74.3326 16.4076 74.5225 15.7199 73.8938C14.6327 72.8983 13.6503 71.798 12.7466 70.8681L14.7899 68.589L16.4534 70.5865L20.1275 66.3295Z" fill="#E43C5C"/>
<path d="M56.3771 43.0146L58.8003 44.8484C57.7393 46.2303 56.7963 47.6515 55.6567 48.8892C55.3037 49.2538 54.8789 49.5415 54.4094 49.7341C53.9398 49.9267 53.4354 50.02 52.928 50.0084C52.4205 49.9967 51.921 49.8802 51.4608 49.6662C51.0006 49.4522 50.5896 49.1453 50.2537 48.7648C50.1854 48.6992 50.1239 48.6268 50.0703 48.5487C48.7605 46.4857 47.9615 46.4595 46.1408 48.385C45.6653 48.9041 45.087 49.3187 44.4426 49.6023C43.7982 49.8859 43.102 50.0323 42.398 50.0323C41.694 50.0323 40.9977 49.8859 40.3533 49.6023C39.7089 49.3187 39.1306 48.9041 38.6551 48.385L37.9216 47.6515C37.7243 47.425 37.4807 47.2435 37.2074 47.1191C36.934 46.9947 36.6371 46.9304 36.3367 46.9304C36.0364 46.9304 35.7395 46.9947 35.4661 47.1191C35.1927 47.2435 34.9492 47.425 34.7518 47.6515C33.6385 48.7517 32.5382 49.8782 31.3855 51.0308L29.3291 48.7452C31.2938 47.265 32.4465 44.5995 35.315 44.0232C36.1454 43.8069 37.0189 43.82 37.8424 44.061C38.6659 44.3021 39.4085 44.7621 39.9911 45.392C40.0763 45.4837 40.1745 45.5623 40.2531 45.6605C41.8053 47.6253 43.2592 47.0817 44.5821 45.6605C47.0708 43.0409 49.8804 43.2766 52.094 46.1779C52.8537 47.1668 53.2008 47.1668 53.954 46.1779C54.7071 45.189 55.5519 44.1542 56.3771 43.0146Z" fill="#E43C5C"/>
<path d="M56.3709 68.7988L58.84 70.6391C57.7598 72.1421 56.5851 73.5749 55.3231 74.9288C54.9549 75.2592 54.5208 75.5078 54.0495 75.658C53.5782 75.8083 53.0805 75.8569 52.589 75.8006C52.0975 75.7442 51.6236 75.5843 51.1985 75.3313C50.7734 75.0783 50.4069 74.738 50.123 74.3329C48.5578 72.1061 47.8243 72.4074 46.1215 74.1888C45.6466 74.6974 45.0722 75.103 44.434 75.3803C43.7957 75.6576 43.1073 75.8007 42.4114 75.8007C41.7156 75.8007 41.0271 75.6576 40.3888 75.3803C39.7506 75.103 39.1762 74.6974 38.7013 74.1888L37.9678 73.4553C37.7669 73.2216 37.5173 73.0347 37.2365 72.9076C36.9558 72.7804 36.6507 72.7162 36.3425 72.7193C36.0344 72.7224 35.7307 72.7928 35.4526 72.9256C35.1745 73.0584 34.9287 73.2503 34.7325 73.488C33.6388 74.5752 32.5582 75.6754 31.4579 76.7953L29.4932 74.6472C30.7076 73.2379 32.0045 71.9017 33.3768 70.6457C34.3409 69.9077 35.5447 69.554 36.7548 69.6533C37.9649 69.7525 39.095 70.2975 39.926 71.1827C41.8907 73.3701 43.0499 73.1475 44.8771 71.1827C46.9794 68.9626 49.9527 69.218 51.8323 71.6608C51.9699 71.8376 52.0944 72.021 52.2319 72.1913C52.8279 72.9248 53.2207 72.9313 53.8036 72.1913C54.6747 71.0779 55.4933 69.9646 56.3709 68.7988Z" fill="#E43C5C"/>
<path d="M28.7861 24.2319C28.7861 25.1815 28.7861 26.1246 28.7861 27.0742C28.812 27.2964 28.7883 27.5216 28.7167 27.7335C28.6451 27.9455 28.5274 28.1389 28.372 28.2999C28.2167 28.4609 28.0276 28.5854 27.8183 28.6645C27.6091 28.7436 27.3849 28.7753 27.1619 28.7573C25.2059 28.7835 23.2411 28.7835 21.2677 28.7573C21.0529 28.7746 20.8369 28.7446 20.635 28.6694C20.433 28.5941 20.25 28.4755 20.0989 28.3219C19.9478 28.1683 19.8323 27.9834 19.7604 27.7803C19.6884 27.5771 19.6619 27.3607 19.6827 27.1462C19.6565 25.1859 19.6565 23.2211 19.6827 21.252C19.6643 21.0369 19.6935 20.8205 19.7683 20.618C19.8431 20.4155 19.9617 20.2321 20.1156 20.0807C20.2694 19.9293 20.4548 19.8138 20.6585 19.7423C20.8621 19.6708 21.0791 19.6451 21.2938 19.6671C23.2498 19.6409 25.2146 19.6409 27.188 19.6671C27.4031 19.6521 27.619 19.6839 27.8206 19.7603C28.0223 19.8367 28.2051 19.9558 28.3563 20.1095C28.5075 20.2632 28.6236 20.4479 28.6967 20.6507C28.7698 20.8536 28.798 21.0699 28.7795 21.2848C28.8057 22.2737 28.7795 23.2495 28.7861 24.2319ZM26.2778 22.2671H22.2435V26.1966H26.2778V22.2671Z" fill="#E43C5C"/>
<path d="M40.9084 24.2185C40.9084 25.1943 40.9084 26.1832 40.9084 27.1525C40.9251 27.3675 40.8951 27.5835 40.8204 27.7858C40.7457 27.988 40.6281 28.1717 40.4756 28.3242C40.3231 28.4767 40.1394 28.5943 39.9372 28.669C39.7349 28.7437 39.5188 28.7738 39.3038 28.757C37.3478 28.7832 35.3831 28.7832 33.4096 28.757C33.1946 28.7751 32.9784 28.7459 32.7759 28.6715C32.5734 28.5971 32.3896 28.4794 32.2374 28.3266C32.0851 28.1737 31.9682 27.9894 31.8946 27.7866C31.8211 27.5838 31.7928 27.3674 31.8116 27.1525C31.7854 25.1965 31.7854 23.2317 31.8116 21.2583C31.7926 21.0436 31.8209 20.8274 31.8945 20.6249C31.968 20.4224 32.0851 20.2385 32.2375 20.0861C32.3899 19.9337 32.5737 19.8166 32.7763 19.7431C32.9788 19.6695 33.195 19.6412 33.4096 19.6603C35.37 19.6341 37.3347 19.6341 39.3038 19.6603C39.5185 19.6425 39.7344 19.6716 39.9367 19.7456C40.139 19.8195 40.3228 19.9365 40.4754 20.0885C40.628 20.2405 40.7457 20.4238 40.8205 20.6258C40.8952 20.8277 40.9253 21.0435 40.9084 21.2583C40.9281 22.2603 40.9084 23.2361 40.9084 24.2185ZM34.2807 26.288H38.4263V22.162H34.2807V26.288Z" fill="#E43C5C"/>
<path d="M53.031 24.1795C53.031 25.1553 53.031 26.1443 53.031 27.1135C53.0495 27.3284 53.0213 27.5447 52.9482 27.7475C52.8751 27.9504 52.7589 28.1351 52.6077 28.2888C52.4565 28.4425 52.2738 28.5616 52.0722 28.638C51.8705 28.7144 51.6547 28.7461 51.4396 28.7312C49.4748 28.7312 47.5101 28.7312 45.5453 28.7312C45.3308 28.7511 45.1145 28.7237 44.9117 28.651C44.7088 28.5782 44.5244 28.4619 44.3714 28.3101C44.2184 28.1584 44.1006 27.975 44.0262 27.7727C43.9518 27.5705 43.9226 27.3544 43.9408 27.1397C43.9408 25.175 43.9408 23.2102 43.9408 21.2455C43.921 21.0307 43.9484 20.8141 44.0211 20.611C44.0938 20.4079 44.21 20.2231 44.3616 20.0697C44.5132 19.9162 44.6966 19.7977 44.8988 19.7225C45.101 19.6473 45.3172 19.6173 45.5322 19.6344C47.4926 19.6082 49.4573 19.6082 51.4264 19.6344C51.6489 19.6174 51.8724 19.6499 52.0808 19.7295C52.2892 19.809 52.4775 19.9337 52.6321 20.0946C52.7867 20.2554 52.9038 20.4485 52.9751 20.6599C53.0463 20.8713 53.0699 21.0959 53.0441 21.3175C53.0507 22.313 53.031 23.2561 53.031 24.1795ZM50.634 26.3669V22.051H46.3247V26.3669H50.634Z" fill="#E43C5C"/>
</svg>
