<svg width="61" height="56" viewBox="0 0 61 56" fill="none" xmlns="http://www.w3.org/2000/svg">
<g clip-path="url(#clip0_735_1453)">
<path d="M56.0145 0C56.1412 0.492791 56.377 0.985582 56.3781 1.47837C56.4002 9.85905 56.4039 18.2394 56.3892 26.6193C56.3892 26.8502 56.3517 27.0821 56.323 27.416H51.5678V25.959C51.5678 19.3878 51.5678 12.8169 51.5678 6.24632C51.5678 4.37715 51.4753 4.28696 49.6007 4.28696C35.2315 4.28696 20.8623 4.30092 6.49419 4.26227C5.1343 4.26227 4.60533 4.58436 4.61305 6.00798C4.66594 16.5788 4.66594 27.1493 4.61305 37.7195C4.60644 39.1066 5.05385 39.5092 6.45562 39.4963C13.1019 39.4362 19.7493 39.4695 26.3955 39.4695H28.0882V43.7436H26.6082C18.3982 43.7436 10.1874 43.7393 1.97592 43.7307C1.31471 43.7307 0.653497 43.5342 0 43.429V0H56.0145Z" fill="#E43C5C"/>
<path d="M58.3559 56.0002L50.5415 48.6996C47.9054 50.2155 44.8716 50.8179 41.5953 49.756C39.1245 48.9562 37.239 47.4606 35.8791 45.3435C33.1417 41.079 34.0729 35.6025 38.0721 32.1948C41.7936 29.0223 47.6784 28.9654 51.5167 32.0875C55.2978 35.157 56.9486 40.7763 53.5224 45.8728L61.0007 53.4289V56.0056L58.3559 56.0002ZM44.8672 47.714C49.2003 47.714 52.7818 44.2258 52.7763 40.0151C52.7763 35.8366 49.1298 32.2925 44.8473 32.3001C40.5649 32.3076 36.9447 35.843 36.9481 40.0301C36.9558 44.257 40.5241 47.7162 44.8716 47.714H44.8672Z" fill="#E43C5C"/>
<path d="M29.5932 22.9163L34.6415 28.6516C32.3405 29.4815 30.4142 29.0639 28.9176 27.4384C27.9765 26.4163 27.0618 25.3728 25.8805 24.0544V28.8921H22.1094V13.8818C24.8247 14.015 27.5478 13.9967 30.2224 14.3328C32.0397 14.5604 33.4018 15.6522 33.8492 17.5826C34.3583 19.7814 33.556 21.439 31.4247 22.3065C30.8936 22.5223 30.3293 22.6726 29.5932 22.9163ZM25.9312 20.2913C26.8249 20.2913 27.6426 20.3558 28.4471 20.2774C29.8455 20.1421 30.3525 19.3251 29.9557 17.9938C29.5513 16.6378 28.1286 16.1976 25.9312 16.7527V20.2913Z" fill="#E43C5C"/>
<path d="M12.136 26.4645H19.2485V28.8715H8.26465V14.0942H19.2661V16.4841H12.1096V20.5231H16.6003V23.0568H12.136V26.4645Z" fill="#E43C5C"/>
<path d="M37.3203 14.0084C39.5883 14.0084 41.7284 13.9268 43.8707 14.0288C46.3271 14.1469 48.2788 15.6844 48.7383 17.6523C49.3995 20.4888 47.6032 22.6189 44.3192 22.8443C43.3131 22.913 42.2981 22.8551 41.1234 22.8551V28.892H37.3203V14.0084ZM41.2159 20.6563C42.5075 20.2913 43.7164 20.1367 44.6697 19.5709C44.9782 19.3873 44.8901 17.9529 44.5055 17.4011C43.7396 16.292 42.4403 16.4574 41.2159 16.6495V20.6563Z" fill="#E43C5C"/>
</g>
<defs>
<clipPath id="clip0_735_1453">
<rect width="61" height="56" fill="white"/>
</clipPath>
</defs>
</svg>
