<svg width="80" height="61" viewBox="0 0 80 61" fill="none" xmlns="http://www.w3.org/2000/svg">
<path d="M45.2557 60.9971H35.6286C32.984 60.9476 31.8439 59.1739 32.9271 56.7203C33.2304 55.9571 33.7544 55.3033 34.4312 54.844C35.108 54.3846 35.9061 54.1408 36.7221 54.1444C38.555 54.0844 40.3905 54.1079 42.2234 54.1444C43.4694 54.1626 44.4699 54.7278 45.3256 55.642C45.5719 55.8939 45.9009 56.0467 46.2511 56.0718C48.6734 56.1187 51.0983 56.0718 53.5206 56.1395C56.8503 56.215 59.438 54.7096 61.4467 52.2144C64.3777 48.5779 66.3412 44.2493 67.1521 39.6366C69.2823 27.9445 64.5256 16.8306 54.6399 10.3373C50.9069 7.88634 46.7965 6.37306 42.3423 6.04748C30.4505 5.17754 21.1775 9.82678 15.1464 20.1411C9.88297 29.1452 10.0122 38.5427 14.756 47.8464C15.1438 48.607 15.6375 49.3206 15.4023 50.2557C15.279 50.7246 15.0264 51.1486 14.6736 51.4787C14.3208 51.8088 13.8824 52.0313 13.4091 52.1206C12.3751 52.2977 11.5453 51.9617 10.9946 51.0605C10.6069 50.425 10.3095 49.7347 9.92435 49.0966C9.86233 48.9976 9.77904 48.9139 9.6806 48.8517C9.58216 48.7895 9.47109 48.7503 9.35562 48.7372C5.10044 49.0679 1.01844 45.9554 0.214457 41.6057C0.0999762 40.9794 0.0420246 40.3439 0.0412715 39.707C0.0412715 35.8365 -0.0543921 31.9608 0.0929622 28.0956C0.271338 23.3552 4.36106 19.6722 9.07123 19.8285C9.27804 19.8645 9.49083 19.8267 9.67296 19.7216C9.85509 19.6165 9.99521 19.4508 10.0691 19.2529C14.8775 10.0013 22.328 4.06275 32.4308 1.80194C39.553 0.187563 47.0064 1.01632 53.6078 4.15666C60.2092 7.29699 65.5803 12.5689 68.8687 19.1357C69.1272 19.6566 69.4012 19.8389 70.001 19.8233C74.6956 19.6983 78.7388 23.3682 78.9043 28.0904C79.0465 32.2421 79.0387 36.4069 78.9043 40.5587C78.7492 45.0803 74.7034 48.8388 70.2285 48.7242C69.3443 48.7033 69.029 48.9846 68.7006 49.6957C67.6666 51.9278 66.467 54.0714 64.7918 55.9077C62.3308 58.6035 59.3889 60.398 55.7438 60.8903C55.0504 60.9698 54.3527 61.0037 53.6549 60.9919C50.8397 61.0049 48.0503 60.9971 45.2557 60.9971Z" fill="#E43C5C"/>
<path d="M63.6881 35.2504C63.626 38.2978 63.2977 40.9806 62.3955 43.5695C62.1942 44.1229 61.9647 44.6654 61.7079 45.1948C60.9995 46.7055 59.8802 47.6093 58.1507 47.3827C55.7439 47.0676 53.3267 46.768 50.9458 46.2992C46.688 45.4605 42.4433 44.6401 38.0692 44.8224C34.6619 44.9656 31.3477 45.6767 28.0077 46.307C25.681 46.7472 23.3544 47.065 21.0123 47.3879C19.5025 47.5963 18.471 46.7915 17.6877 45.5855C16.6304 43.955 16.0772 42.124 15.754 40.2357C14.3141 31.8305 16.4908 24.4621 22.0618 18.0625C23.8249 16.0335 26.0352 15.3459 28.5739 15.7731C30.8074 16.1481 33.0126 16.7081 35.2203 17.2264C38.5655 18.0078 41.859 17.7474 45.1551 16.8982C47.3473 16.3304 49.5344 15.6741 51.8352 15.6767C52.729 15.6576 53.6164 15.8321 54.4375 16.1884C55.2586 16.5448 55.9942 17.0746 56.5944 17.7421C60.5988 22.0814 62.9798 27.1735 63.5382 33.1094C63.6261 33.9194 63.6571 34.7503 63.6881 35.2504ZM52.0367 27.0901C51.4499 27.0843 50.8679 27.1957 50.3241 27.418C49.7803 27.6403 49.2857 27.969 48.8688 28.3851C48.4519 28.8013 48.121 29.2966 47.8954 29.8424C47.6697 30.3882 47.5537 30.9736 47.5541 31.5649C47.5609 32.7597 48.0352 33.9035 48.874 34.7481C49.7127 35.5927 50.8484 36.0699 52.0342 36.0761C53.2078 36.0581 54.3286 35.5818 55.1605 34.7475C55.9923 33.9133 56.4703 32.7863 56.4936 31.6039C56.4957 31.0126 56.3819 30.4266 56.1589 29.8796C55.936 29.3325 55.6081 28.8351 55.1942 28.4159C54.7802 27.9966 54.2883 27.6638 53.7465 27.4363C53.2047 27.2088 52.6237 27.0911 52.0367 27.0901ZM26.9607 27.0901C26.3737 27.087 25.792 27.2007 25.2488 27.4246C24.7056 27.6486 24.2116 27.9783 23.7951 28.395C23.3786 28.8117 23.048 29.3071 22.8219 29.8529C22.5959 30.3986 22.479 30.984 22.478 31.5753C22.4929 32.7697 22.9725 33.9105 23.8138 34.7523C24.655 35.594 25.7906 36.0693 26.9762 36.0761C28.15 36.0585 29.2708 35.5804 30.1002 34.7433C30.9295 33.9062 31.4022 32.7762 31.4175 31.5935C31.4213 31.0033 31.3091 30.4181 31.0874 29.8717C30.8657 29.3253 30.5389 28.8285 30.1258 28.4099C29.7128 27.9914 29.2217 27.6592 28.6806 27.4327C28.1396 27.2062 27.5595 27.0898 26.9736 27.0901H26.9607Z" fill="#E43C5C"/>
</svg>
