<svg width="69" height="73" viewBox="0 0 69 73" fill="none" xmlns="http://www.w3.org/2000/svg">
<g clip-path="url(#clip0_696_125)">
<path d="M34.2256 0C36.7694 0.252919 39.013 1.44923 41.372 2.2611C49.9714 5.22278 58.5271 8.30334 67.1341 11.2372C68.7795 11.7961 69.1466 12.6485 68.9566 14.2292C67.4164 26.9283 65.9533 39.6349 64.4644 52.3391C64.3233 53.5505 64.1667 54.757 64.064 55.971C63.9998 56.6994 63.7354 57.2356 63.0577 57.6048C53.6284 62.7273 44.2008 67.8522 34.775 72.9798C34.6543 73.0455 34.4284 72.9216 34.2616 72.8887C34.2855 63.6319 34.3078 54.3759 34.3283 45.1207C35.5656 45.0955 36.8054 45.0423 38.0401 45.0525C39.8935 45.0676 42.1806 44.491 43.4769 45.3484C44.7733 46.2058 45.0428 48.5124 45.7641 50.1842C46.5342 51.9824 46.8448 54.4838 48.2233 55.3893C49.6017 56.2947 52.0737 55.5992 54.058 55.7509C55.7881 55.8875 56.0192 55.4297 55.3158 53.892C50.282 42.8672 45.3457 31.797 40.3093 20.7596C38.3764 16.5257 36.7464 12.1603 34.3822 8.11364L34.2256 0Z" fill="#E43C5C"/>
<path d="M34.2254 0L34.3718 8.12629C27.8004 22.6776 21.2289 37.2263 14.6575 51.7725C12.8606 55.7282 12.8606 55.7231 17.3246 55.7231C20.9928 55.7231 20.9645 55.7231 22.2865 52.5313C23.3133 50.0501 23.57 46.5523 25.6235 45.3711C27.6771 44.19 30.9654 45.0702 33.7121 45.055C33.9169 45.0644 34.121 45.0863 34.323 45.1207C34.3025 54.3742 34.2802 63.6302 34.2563 72.8887C24.8663 67.805 15.4747 62.7264 6.08128 57.6529C5.21878 57.1875 5.05447 56.497 4.96719 55.6523C3.35 41.7165 1.72426 27.7815 0.0899577 13.8473C-0.0306897 12.8154 -0.19754 12.0086 1.24766 11.5154C12.2548 7.73932 23.2337 3.85196 34.2254 0Z" fill="#E43C5C"/>
<path d="M34.2461 24.4874C34.9007 23.152 34.9828 24.6569 35.0162 24.715C36.3099 27.6725 37.5729 30.6426 38.805 33.6254C39.416 35.11 39.9576 36.6199 40.53 38.1197L40.127 38.4157H34.3283C34.2975 33.7704 34.2701 29.1276 34.2461 24.4874Z" fill="#E43C5C"/>
<path d="M34.2462 24.4878C34.2719 29.1263 34.2967 33.7632 34.3206 38.3983H28.5732C28.6862 36.4837 29.7514 34.8929 30.4522 33.1857C31.6561 30.267 32.9755 27.3862 34.2462 24.4878Z" fill="#E43C5C"/>
<path d="M40.1191 38.416L40.5221 38.1201C40.5452 38.2086 40.5657 38.2997 40.5889 38.3882L40.1191 38.416Z" fill="#E43C5C"/>
</g>
<defs>
<clipPath id="clip0_696_125">
<rect width="69" height="73" fill="white"/>
</clipPath>
</defs>
</svg>
