<svg width="68" height="75" viewBox="0 0 68 75" fill="none" xmlns="http://www.w3.org/2000/svg">
<g clip-path="url(#clip0_735_1504)">
<path d="M52.6616 0C60.0813 0.0324435 66.4752 5.18342 67.7733 12.2903C68.3783 15.6018 67.7531 18.7645 66.0925 21.7064C63.289 26.6743 59.7188 31.1185 56.0684 35.5041C55.4206 36.2822 54.7555 37.047 54.0821 37.8036C53.2197 38.7717 52.1434 38.8157 51.3095 37.8551C46.934 32.8148 42.6702 27.6945 39.3544 21.8993C33.7736 12.1454 40.5734 1.46343 50.6415 0.17844C51.3113 0.0932759 51.9882 0.0585141 52.6616 0ZM52.828 6.53852C48.2154 6.35255 44.1638 10.1415 43.9724 14.8174C43.7876 19.378 47.6234 23.3176 52.4197 23.4827C57.0901 23.6461 61.166 19.9006 61.3538 15.2745C61.5428 10.6206 57.7527 6.73723 52.828 6.53852Z" fill="#E43C5C"/>
<path d="M14.4178 32.8188C13.2119 36.9003 12.6425 41.1492 12.4946 45.4862H0.000976562C0.357579 39.3996 2.41696 33.9833 6.13514 29.2686L14.4178 32.8188Z" fill="#E43C5C"/>
<path d="M6.1308 64.5579C2.42372 59.8548 0.379796 54.4615 -0.000976562 48.3779H12.4849C12.6519 52.6651 13.2028 56.9331 14.4254 61.0239L6.1308 64.5579Z" fill="#E43C5C"/>
<path d="M53.072 64.5609L44.7881 61.0176C45.9601 56.9622 46.5836 52.6976 46.69 48.3433H59.1853C58.8573 54.4287 56.7747 59.8294 53.072 64.5609Z" fill="#E43C5C"/>
<path d="M41.9723 33.4253C43.1396 37.3544 43.7137 41.3502 43.8112 45.4717H31.0645V34.7537C32.914 34.6025 34.7363 34.5093 36.5425 34.2903C38.3279 34.073 40.0978 33.7295 41.9723 33.4253Z" fill="#E43C5C"/>
<path d="M42.0049 60.2879L31.084 58.9623V48.3452H43.8076C43.7261 52.4586 43.1354 56.4648 42.0049 60.2879Z" fill="#E43C5C"/>
<path d="M28.1086 45.4824H15.3779C15.4867 41.376 16.0543 37.3825 17.1913 33.5386L28.1086 34.8711V45.4824Z" fill="#E43C5C"/>
<path d="M15.375 48.354H28.1123V59.08C26.2591 59.2301 24.4351 59.3199 22.6283 59.5389C20.8453 59.7556 19.0783 60.1037 17.2329 60.4079C16.0401 56.4892 15.5022 52.4761 15.375 48.354Z" fill="#E43C5C"/>
<path d="M31.0879 74.3387V61.9482C34.4615 62.0078 37.8195 62.4121 41.1067 63.1544C38.9581 67.9115 36.6931 72.446 31.0879 74.3387Z" fill="#E43C5C"/>
<path d="M31.0801 19.605C32.6509 19.8947 33.918 20.6426 35.0693 21.6031C37.5471 23.6708 39.1286 26.3457 40.4385 29.1996C40.6525 29.6665 40.8308 30.1491 41.0483 30.6804C37.7699 31.441 34.4732 31.7892 31.0801 31.89V19.605Z" fill="#E43C5C"/>
<path d="M46.9216 45.4742C46.3956 41.6378 45.8726 37.8268 45.3662 34.1323C45.9962 34.8791 46.7469 35.7788 47.5094 36.6681C48.5703 37.9056 49.6241 39.1495 50.7117 40.3638C51.9004 41.6882 53.4754 41.665 54.6593 40.3348C55.5764 39.3047 56.4845 38.2671 57.48 37.138C58.4788 39.8167 59.0565 42.6272 59.1935 45.4742H46.9216Z" fill="#E43C5C"/>
<path d="M28.1101 19.4966V31.879C24.7467 31.8066 21.4464 31.4364 18.0967 30.6722C20.2458 25.8995 22.5126 21.3656 28.1101 19.4966Z" fill="#E43C5C"/>
<path d="M28.096 74.2287C26.5287 73.9205 25.2556 73.172 24.1068 72.201C21.2403 69.7747 19.5577 66.6045 18.1426 63.1522C21.4275 62.3869 24.713 62.0358 28.096 61.9448V74.2287Z" fill="#E43C5C"/>
<path d="M8.03906 27.0928C12.3219 22.7923 17.1919 20.0966 22.9147 18.8359C19.2435 21.7935 17.0356 25.685 15.2894 30.1066L8.03906 27.0928Z" fill="#E43C5C"/>
<path d="M22.9287 74.9986C17.1921 73.749 12.3293 71.026 8.18555 66.8744C10.4209 65.5048 12.8255 64.6688 15.3426 63.8618C17.0299 68.1183 19.2343 72.0405 22.9287 74.9986Z" fill="#E43C5C"/>
<path d="M36.2979 75.0001C39.9726 72.0385 42.1764 68.1384 43.9143 63.7231L51.1581 66.7392C46.9104 71.0073 42.0398 73.7337 36.2979 75.0001Z" fill="#E43C5C"/>
</g>
<defs>
<clipPath id="clip0_735_1504">
<rect width="68" height="75" fill="white"/>
</clipPath>
</defs>
</svg>
