<svg width="95" height="96" viewBox="0 0 95 96" fill="none" xmlns="http://www.w3.org/2000/svg">
<g clip-path="url(#clip0_323_200)">
<path d="M1.4031 24.3418V25.1501C1.4031 35.5797 1.4031 46.0094 1.4031 56.439C1.4031 56.696 1.47567 56.9993 1.36618 57.1985C1.23886 57.4388 0.944761 57.7408 0.729595 57.7395C0.51443 57.7382 0.277624 57.4054 0.112112 57.1728C0.0306289 57.0571 0.0866467 56.84 0.0866467 56.669C0.0866467 43.8183 0.0866467 30.9676 0.0866467 18.1169C0.0866467 17.946 0.0866467 17.7738 0.0866467 17.6029C0.11211 17.1467 0.341282 16.8896 0.808535 16.8896C1.02115 16.8896 1.2325 16.8896 1.44512 16.8896H93.5538C93.7231 16.8896 93.8924 16.8896 94.063 16.8896C94.7353 16.9051 94.9109 17.0837 94.9326 17.7789C94.9326 17.8869 94.9326 17.9935 94.9326 18.1002V70.4026C94.9326 71.3587 94.7836 71.5078 93.8186 71.5078H32.8338C32.6645 71.5078 32.4417 71.5656 32.3373 71.4808C32.1145 71.2983 31.828 71.0516 31.8089 70.8087C31.7911 70.6262 32.1157 70.3679 32.3385 70.2227C32.476 70.134 32.7103 70.1906 32.9013 70.1906H93.5767V24.3418H1.4031ZM93.5869 18.2377H1.45148V22.9256H93.5869V18.2377Z" fill="#E33C5C"/>
<path d="M32.5256 71.59C32.4463 71.5963 32.3672 71.575 32.3015 71.5296C32.0291 71.306 31.7732 71.0644 31.7502 70.8139C31.7273 70.5633 32.1322 70.2818 32.3092 70.1713C32.4451 70.109 32.597 70.0915 32.7433 70.1212C32.7993 70.1212 32.8541 70.1289 32.9063 70.1289H93.518V24.4061H1.46793V56.439C1.46793 56.5097 1.46793 56.583 1.47939 56.6614C1.49467 56.8618 1.50995 57.07 1.42337 57.2294C1.29606 57.462 0.986675 57.8038 0.726949 57.8038C0.496505 57.8038 0.269881 57.5095 0.0585353 57.2101C-0.000135543 57.0907 -0.0167507 56.9547 0.0114287 56.8246C0.0114287 56.7732 0.0203418 56.7218 0.0203418 56.6742C0.0203418 43.8235 0.0203418 30.9728 0.0203418 18.1221V18.0064C0.0203418 17.8779 0.0203403 17.7391 0.0267061 17.6042C0.055989 17.0979 0.3259 16.8331 0.809704 16.8331H93.6873C93.8146 16.8331 93.942 16.8331 94.0693 16.8331C94.7784 16.8498 94.9783 17.0542 95.0012 17.7854C95.0012 17.8625 95.0012 17.9396 95.0012 18.0167V70.4026C95.0012 71.3973 94.8255 71.572 93.8223 71.572H32.8375C32.7917 71.572 32.7395 71.572 32.6886 71.581C32.6376 71.59 32.5791 71.59 32.5256 71.59ZM32.5689 70.2356C32.5028 70.2309 32.4367 70.2447 32.3779 70.2754C32.0723 70.4733 31.8686 70.6892 31.8776 70.8023C31.8979 71.0336 32.2251 71.3009 32.3868 71.4294C32.4416 71.4744 32.5702 71.4628 32.6835 71.4525C32.7395 71.4525 32.7942 71.4423 32.8439 71.4423H93.8287C94.7632 71.4423 94.8803 71.3253 94.8803 70.4013V18.0115C94.8803 17.9357 94.8803 17.8599 94.8803 17.7841C94.8599 17.1261 94.7084 16.9706 94.0731 16.9565C93.9458 16.9565 93.8185 16.9565 93.6912 16.9565H0.807159C0.390833 16.9565 0.170576 17.1698 0.151478 17.6093C0.143839 17.7378 0.14511 17.874 0.14511 18.0038V18.1195C0.14511 30.9702 0.14511 43.8209 0.14511 56.6716C0.14511 56.723 0.145113 56.777 0.136201 56.8323C0.113851 56.9343 0.121822 57.0407 0.159117 57.1381C0.286434 57.3257 0.541067 57.6766 0.724404 57.6779C0.905194 57.6779 1.17765 57.4106 1.30879 57.1638C1.37754 57.0353 1.36353 56.8503 1.34953 56.6691C1.34953 56.592 1.33807 56.5123 1.33807 56.4365V24.2776H93.6428V70.2536H32.9063C32.8515 70.2536 32.793 70.2536 32.7344 70.2446C32.6758 70.2356 32.6211 70.2317 32.5689 70.2317V70.2356ZM93.6504 22.9899H1.38772V18.1735H93.6504V22.9899ZM1.51504 22.8614H93.5231V18.302H1.51504V22.8614Z" fill="#E33C5C"/>
<path d="M7.59301 62.3761C6.88767 62.3761 6.19252 62.3761 5.49228 62.3761C5.01229 62.3761 4.61379 62.2399 4.6278 61.6796C4.64053 61.1527 5.03903 61.0371 5.48464 61.0371H7.63884C7.85528 58.864 8.59881 56.9403 10.0871 55.1874C9.53841 54.6734 9.0075 54.1928 8.48295 53.7006C8.15066 53.3883 7.97369 53.0182 8.34418 52.643C8.71467 52.2677 9.07625 52.4129 9.39454 52.7509C9.8898 53.2765 10.3825 53.8047 10.9032 54.3611C12.5239 52.9466 14.552 52.0952 16.6885 51.9323V50.38C16.6885 49.172 16.8069 48.8918 17.3175 48.879C17.8535 48.8661 17.9808 49.1604 17.9808 50.4121V51.8963L19.9364 52.2407C20.028 52.075 20.1312 51.8963 20.2292 51.7139C20.5361 51.112 20.9602 50.5789 21.4761 50.1463C21.9919 49.7137 22.5889 49.3907 23.2313 49.1964C23.6655 49.0679 23.8781 48.8829 24.0131 48.4254C24.6369 46.3294 26.5963 44.8259 28.6779 44.7732C29.121 44.7616 29.5246 44.8233 29.5692 45.3592C29.6112 45.9233 29.2356 46.057 28.7467 46.0904C27.0305 46.2086 25.6478 47.3408 25.2862 48.8893C28.5379 50.006 29.4291 50.9004 29.9868 53.6543C31.2026 53.54 32.4694 52.206 32.7343 50.7552C32.7773 50.5234 32.8058 50.289 32.8196 50.0536C32.8425 49.6243 33.0449 49.3378 33.4765 49.3493C33.9412 49.3609 34.1386 49.6847 34.1195 50.1345C34.0596 51.5687 33.5682 52.846 32.4784 53.7674C31.8418 54.302 31.0295 54.6156 30.3012 55.0383C30.1344 55.136 29.8862 55.2427 29.848 55.3905C29.3998 57.1304 28.3202 58.3114 26.7109 59.0503C26.8204 59.7032 26.9248 60.3354 27.0445 61.0435H29.1287C29.5883 61.0435 30.0339 61.1232 30.039 61.686C30.039 62.2861 29.5946 62.3812 29.1019 62.3748C28.4259 62.3645 27.7498 62.3748 27.0216 62.3748C26.848 64.5313 25.9965 66.5754 24.5911 68.209C25.1424 68.7231 25.6707 69.2165 26.1953 69.7126C26.5288 70.0287 26.6791 70.3975 26.3162 70.7728C25.9534 71.148 25.5829 70.9797 25.2697 70.652C24.7719 70.1315 24.2791 69.6033 23.7597 69.0508C22.0549 70.4978 20.1706 71.2984 17.9821 71.4693C17.9821 72.248 17.9719 72.9702 17.9821 73.6924C17.991 74.1628 17.8433 74.5303 17.3327 74.5303C16.8222 74.5303 16.6732 74.1666 16.6834 73.6924C16.6974 72.9869 16.6834 72.2789 16.6834 71.5335C11.4418 70.7599 8.42184 67.731 7.59301 62.3761ZM17.3722 53.2418C15.7104 53.2337 14.0836 53.7235 12.6978 54.6493C11.312 55.5751 10.2296 56.8952 9.58775 58.4424C8.94586 59.9896 8.77333 61.6943 9.09203 63.3405C9.41073 64.9868 10.2063 66.5005 11.378 67.69C12.5497 68.8795 14.0448 69.6913 15.6739 70.0224C17.303 70.3536 18.9929 70.1893 20.5294 69.5504C22.066 68.9114 23.3801 67.8266 24.3053 66.4332C25.2305 65.0398 25.7252 63.4007 25.7267 61.7233C25.7314 60.6123 25.5189 59.5112 25.1013 58.4833C24.6837 57.4553 24.0692 56.5206 23.2932 55.7327C22.5171 54.9448 21.5946 54.3192 20.5786 53.8918C19.5625 53.4644 18.473 53.2435 17.3722 53.2418ZM26.2195 57.7537C27.0355 57.4451 27.7215 56.8624 28.162 56.1034C28.6025 55.3445 28.7708 54.4556 28.6385 53.5862C28.5064 52.689 28.0672 51.8668 27.3972 51.2624C26.7271 50.6579 25.8686 50.3093 24.9705 50.2772C23.2797 50.2039 21.6348 51.3052 21.2948 52.7586C23.4936 53.7492 25.2488 55.5296 26.2195 57.7537Z" fill="#E33C5C"/>
<path d="M17.3342 74.6009C17.2412 74.6067 17.148 74.5931 17.0604 74.5611C16.9728 74.529 16.8927 74.4792 16.8249 74.4146C16.6798 74.2643 16.6085 74.0291 16.6161 73.6975C16.6263 73.2054 16.6238 72.7196 16.6161 72.2056C16.6161 72.0051 16.6161 71.8021 16.6161 71.5964C14.024 71.1968 11.9436 70.2317 10.44 68.7179C8.93637 67.2041 7.95858 65.0914 7.53844 62.4403H6.96297C6.47025 62.4403 5.98135 62.4403 5.49245 62.4403C5.13724 62.4403 4.89279 62.3671 4.74129 62.2103C4.67691 62.1388 4.62794 62.0546 4.59747 61.963C4.56701 61.8714 4.55572 61.7745 4.56432 61.6783C4.58087 60.9753 5.25946 60.9779 5.48481 60.9779H7.58045C7.81472 58.7483 8.60535 56.8567 9.99947 55.1951L9.55386 54.7826C9.17191 54.4356 8.80778 54.0938 8.44111 53.7545C8.2043 53.5322 8.08081 53.3124 8.07699 53.1017C8.07747 53.008 8.09705 52.9153 8.1345 52.8296C8.17196 52.7438 8.22648 52.6667 8.2947 52.6031C8.35706 52.5314 8.43327 52.4734 8.51865 52.4325C8.60404 52.3916 8.6968 52.3688 8.79124 52.3653C9.00131 52.3653 9.21775 52.4836 9.42782 52.7123C9.7754 53.0798 10.1217 53.45 10.4769 53.8303L10.8958 54.2775C12.5035 52.8896 14.5038 52.0487 16.6123 51.8745V50.3799C16.6123 49.2233 16.7129 48.8288 17.3036 48.8147C17.3874 48.8043 17.4723 48.8117 17.553 48.8365C17.6337 48.8613 17.7084 48.9029 17.7722 48.9586C17.9631 49.1475 18.0268 49.5279 18.0268 50.412V51.8423L19.8856 52.1713L19.9531 52.0505C20.0193 51.9323 20.0881 51.8089 20.1555 51.6843C20.4663 51.0749 20.8958 50.535 21.4182 50.0972C21.9407 49.6593 22.5453 49.3324 23.1959 49.136C23.6326 49.001 23.8108 48.825 23.9343 48.4125C24.5556 46.3204 26.543 44.7629 28.659 44.7089C29.1046 44.6973 29.5668 44.7654 29.6101 45.3514C29.6239 45.4447 29.6187 45.5398 29.5946 45.6308C29.5705 45.7219 29.5281 45.807 29.47 45.8809C29.2943 46.0865 28.9811 46.1379 28.729 46.1507C27.0739 46.2651 25.7167 47.3446 25.3399 48.8494C28.5623 49.961 29.4535 50.8618 30.02 53.5849C31.2003 53.4384 32.397 52.1533 32.653 50.7449C32.6962 50.5161 32.7247 50.2847 32.7383 50.0522C32.765 49.5536 33.0285 49.2812 33.4601 49.2812C33.5546 49.2791 33.6485 49.2965 33.736 49.3323C33.8236 49.3681 33.903 49.4216 33.9694 49.4894C34.0418 49.5783 34.096 49.681 34.1288 49.7913C34.1616 49.9016 34.1723 50.0174 34.1604 50.1319C34.0955 51.6958 33.5353 52.9334 32.4964 53.8111C32.0648 54.176 31.544 54.442 31.0411 54.699C30.7979 54.8275 30.5471 54.9561 30.3103 55.0846L30.2123 55.1385C30.0786 55.2118 29.9118 55.3017 29.8876 55.3955C29.4497 57.0931 28.4273 58.2972 26.7582 59.0773L27.0981 60.9792H29.1288C29.5757 60.9792 30.0977 61.0563 30.1028 61.6911C30.1097 61.787 30.0971 61.8834 30.0658 61.9742C30.0345 62.065 29.9851 62.1484 29.9207 62.2193C29.7145 62.4262 29.3758 62.448 29.1008 62.4442C28.631 62.4442 28.1663 62.4442 27.6736 62.4442H27.079C26.8943 64.5712 26.0546 66.5866 24.6778 68.2077L25.1234 68.6241C25.5054 68.9775 25.8708 69.3219 26.2375 69.6688C26.4654 69.886 26.5838 70.1019 26.5889 70.3114C26.5881 70.4083 26.5675 70.504 26.5282 70.5925C26.489 70.681 26.4321 70.7603 26.361 70.8254C26.3003 70.8965 26.2258 70.9543 26.1422 70.9951C26.0585 71.036 25.9675 71.0592 25.8746 71.0631C25.6658 71.0631 25.4532 70.9462 25.224 70.7059C24.8726 70.3384 24.525 69.9683 24.1686 69.5879L23.7548 69.1484C22.0551 70.5774 20.1899 71.3587 18.0459 71.5373C18.0459 71.7532 18.0459 71.964 18.0459 72.1722C18.0459 72.699 18.0459 73.2002 18.0459 73.7001C18.0459 74.0317 17.9835 74.2668 17.8358 74.4185C17.7688 74.4816 17.6898 74.5304 17.6036 74.5617C17.5173 74.5931 17.4257 74.6064 17.3342 74.6009ZM6.33656 62.3169H7.64538L7.65429 62.3709C8.4844 67.722 11.442 70.6995 16.6938 71.4757L16.7485 71.4834V71.5386C16.7485 71.7648 16.7485 71.9858 16.7485 72.2043C16.7485 72.7183 16.7485 73.2054 16.7485 73.6988C16.7485 73.9893 16.7995 74.1987 16.9204 74.3234C16.9757 74.3753 17.0409 74.4154 17.1121 74.441C17.1832 74.4666 17.2588 74.4773 17.3342 74.4724C17.409 74.4777 17.4841 74.4674 17.5548 74.4422C17.6256 74.417 17.6904 74.3774 17.7454 74.3259C17.8651 74.1974 17.9237 73.9918 17.9186 73.6988C17.9097 73.1951 17.9122 72.6965 17.9186 72.1683C17.9186 71.9421 17.9186 71.7108 17.9186 71.4757V71.4165H17.9771C20.1339 71.2482 22.0118 70.463 23.7179 69.0135L23.7637 68.9749L24.2602 69.5031C24.618 69.8822 24.9656 70.2523 25.3157 70.6198C25.5207 70.8331 25.6976 70.9372 25.8746 70.9372C25.9504 70.9335 26.0245 70.914 26.0924 70.8799C26.1604 70.8458 26.2206 70.798 26.2693 70.7393C26.3276 70.6867 26.3748 70.6227 26.4078 70.5511C26.4409 70.4795 26.4591 70.4019 26.4615 70.3229C26.4615 70.1482 26.352 69.9631 26.1496 69.7704C25.7842 69.4234 25.415 69.079 25.0369 68.7269L24.5009 68.2257L24.5416 68.1794C25.9379 66.5553 26.7853 64.5243 26.9606 62.3812V62.3234H27.6698C28.1625 62.3234 28.6285 62.3234 29.0983 62.3234C29.4713 62.3234 29.6928 62.2707 29.8265 62.1357C29.8791 62.0771 29.9191 62.0081 29.944 61.9332C29.969 61.8582 29.9784 61.7789 29.9717 61.7001C29.9717 61.1861 29.563 61.1141 29.125 61.1154H26.9912L26.6398 59.0207L26.6843 59.0002C28.3395 58.2381 29.358 57.0546 29.7871 55.3814C29.8252 55.2336 30.0111 55.1321 30.1754 55.0434L30.2696 54.9908C30.5102 54.852 30.7623 54.7222 31.0068 54.5975C31.5033 54.3405 32.0164 54.0835 32.4365 53.725C33.4474 52.8717 33.9923 51.6688 34.056 50.1396C34.0673 50.0418 34.0593 49.9427 34.0324 49.8481C34.0055 49.7535 33.9603 49.6652 33.8994 49.5883C33.8436 49.5326 33.7771 49.489 33.7039 49.4603C33.6308 49.4316 33.5526 49.4183 33.4742 49.4213H33.4512C33.0107 49.4213 32.8987 49.7708 32.8834 50.0638C32.8695 50.3019 32.8406 50.5388 32.7968 50.7731C32.5269 52.2561 31.2436 53.608 29.9959 53.7288H29.9386L29.9271 53.6723C29.3707 50.9466 28.4986 50.0651 25.2635 48.9561L25.2087 48.9381L25.2227 48.8815C25.592 47.297 27.0052 46.1533 28.7405 46.0325C29.0792 46.0094 29.2816 45.94 29.3949 45.8076C29.4415 45.7461 29.4752 45.6756 29.4938 45.6005C29.5124 45.5253 29.5156 45.4471 29.5031 45.3707C29.47 44.9158 29.1632 44.8323 28.6819 44.8438C26.6194 44.8965 24.6829 46.4155 24.0756 48.4562C23.9483 48.9072 23.7268 49.1193 23.2532 49.2658C22.6187 49.4577 22.029 49.7769 21.5195 50.2041C21.01 50.6314 20.5912 51.158 20.2879 51.7524C20.2205 51.8809 20.1517 52.0004 20.0842 52.1199L19.9735 52.3204L17.9198 51.9567V50.4146C17.9198 49.5806 17.86 49.2118 17.6996 49.0537C17.6468 49.01 17.5856 48.9778 17.5199 48.9592C17.4541 48.9407 17.3852 48.9361 17.3176 48.9458C16.8784 48.9561 16.7511 49.1462 16.7511 50.3825V51.9914H16.6925C14.569 52.1558 12.5537 53.0035 10.9429 54.4099L10.8971 54.4497L10.3954 53.9126L9.34761 52.7946C9.15918 52.5992 8.9733 52.4977 8.80397 52.4977C8.72662 52.5014 8.65083 52.521 8.58123 52.5553C8.51162 52.5895 8.44965 52.6377 8.3991 52.6969C8.34204 52.7475 8.29597 52.8095 8.26376 52.8789C8.23156 52.9484 8.21391 53.0238 8.21194 53.1004C8.21194 53.2752 8.32398 53.4641 8.53533 53.662C8.902 54.0051 9.27122 54.3469 9.6468 54.69L10.1841 55.1874L10.1446 55.2349C8.7314 56.8978 7.93567 58.7997 7.71031 61.0486V61.1064H5.48354C4.94627 61.1064 4.70055 61.2825 4.69163 61.6808C4.68343 61.7599 4.69165 61.8398 4.71576 61.9155C4.73988 61.9912 4.77935 62.0609 4.83168 62.1203C4.959 62.2488 5.16907 62.3118 5.47845 62.3118H6.33784L6.33656 62.3169ZM17.3342 70.2523C16.2147 70.2646 15.104 70.0525 14.0663 69.6283C13.0287 69.2041 12.0848 68.5762 11.2893 67.7811C10.4939 66.9859 9.86277 66.0393 9.43251 64.9961C9.00226 63.9529 8.78145 62.8338 8.78288 61.7038C8.78432 60.5738 9.00796 59.4554 9.44086 58.4133C9.87376 57.3712 10.5073 56.4262 11.3047 55.6331C12.1022 54.84 13.0477 54.2145 14.0864 53.793C15.1251 53.3715 16.2364 53.1623 17.3558 53.1775H17.3698C19.5952 53.2072 21.7193 54.1208 23.2818 55.7205C24.8442 57.3201 25.7192 59.4768 25.717 61.7231C25.7149 63.9695 24.8357 66.1245 23.2701 67.721C21.7045 69.3175 19.5787 70.227 17.3533 70.2523H17.3342ZM17.3558 53.306C16.2532 53.2909 15.1585 53.4969 14.1354 53.912C13.1122 54.3271 12.1808 54.9431 11.3953 55.7242C10.6097 56.5054 9.98565 57.4362 9.5592 58.4626C9.13275 59.4891 8.91242 60.5908 8.91098 61.7038C8.90955 62.8169 9.12705 63.9191 9.55086 64.9467C9.97466 65.9743 10.5964 66.9067 11.3799 67.6899C12.1634 68.4732 13.0932 69.0916 14.1153 69.5094C15.1374 69.9272 16.2315 70.136 17.3342 70.1238H17.3533C19.5451 70.0987 21.6387 69.2029 23.1806 67.6304C24.7225 66.0579 25.5883 63.9355 25.5905 61.7231C25.5927 59.5107 24.731 57.3866 23.1922 55.8111C21.6535 54.2355 19.5616 53.3355 17.3698 53.306H17.3558ZM26.184 57.8359L26.1585 57.7806C25.1916 55.5701 23.4457 53.8009 21.2594 52.8164L21.211 52.7946L21.2237 52.7432C21.5662 51.2743 23.2442 50.137 24.9656 50.2129C25.8769 50.2497 26.7471 50.6054 27.4271 51.219C28.107 51.8326 28.5542 52.6659 28.6921 53.5759C28.8245 54.4593 28.6532 55.3617 28.2069 56.1333C27.7605 56.9048 27.066 57.4988 26.2387 57.8166L26.184 57.8359ZM21.3625 52.7226C23.5371 53.7141 25.2767 55.475 26.2527 57.6727C27.0376 57.3563 27.6935 56.7815 28.1141 56.0416C28.5347 55.3017 28.6953 54.4401 28.5699 53.5964C28.4362 52.7156 28.003 51.909 27.3447 51.3152C26.6864 50.7213 25.844 50.377 24.9617 50.3414C23.3181 50.2707 21.7177 51.3411 21.3625 52.7226Z" fill="#E33C5C"/>
<path d="M47.447 95.8703C38.7682 95.8703 30.0894 95.8703 21.4107 95.8703C18.816 95.8703 16.8171 94.4567 16.155 92.1436C16.0221 91.6928 15.951 91.2259 15.9437 90.7557C15.9259 87.2641 15.9335 83.7739 15.9348 80.2823C15.9348 80.1333 15.8877 79.9277 15.9641 79.8454C16.1487 79.6475 16.3855 79.3931 16.6146 79.3802C16.8005 79.3699 17.0577 79.6372 17.1825 79.8506C17.278 80.0112 17.2232 80.2682 17.2232 80.4815C17.2232 83.7807 17.2232 87.0791 17.2232 90.3766C17.2232 92.9095 18.8542 94.5441 21.3712 94.5441H73.6348C76.1811 94.5441 77.7891 92.9146 77.7904 90.3213C77.7904 86.0592 77.7904 81.797 77.7904 77.5349C77.7904 77.3203 77.7229 77.062 77.8171 76.9026C77.9597 76.661 78.2182 76.3333 78.4282 76.332C78.6383 76.3308 78.9019 76.6507 79.0648 76.8846C79.1552 77.0131 79.0916 77.2586 79.0916 77.4513C79.0916 81.7143 79.0916 85.9765 79.0916 90.2378C79.0916 93.7191 76.9412 95.878 73.482 95.878L47.447 95.8703Z" fill="#004999"/>
<path d="M63.55 96H38.9282C33.0895 96 27.2503 96 21.4107 96C18.7676 96 16.7076 94.5338 16.0328 92.1757C15.8963 91.7133 15.8235 91.2342 15.8164 90.7518C15.8024 87.9889 15.8037 85.1797 15.8062 82.4644V80.2798C15.8062 80.2425 15.8062 80.2014 15.8062 80.1603C15.7948 80.0176 15.782 79.8557 15.8762 79.7542C16.0685 79.5486 16.3308 79.2658 16.6121 79.2491C16.8668 79.2363 17.1634 79.5601 17.2971 79.7824C17.3709 79.9479 17.394 80.1318 17.3633 80.3106C17.3633 80.3684 17.3557 80.425 17.3557 80.4789V84.7377C17.3557 86.6165 17.3557 88.4952 17.3557 90.374C17.3557 92.8272 18.9369 94.413 21.3763 94.413H73.6399C76.1238 94.413 77.6669 92.8439 77.6682 90.3187C77.6682 87.6689 77.6682 85.0195 77.6682 82.3706V77.5271C77.6682 77.4693 77.6682 77.4063 77.6567 77.3408C77.6218 77.1678 77.6414 76.988 77.7127 76.8268C77.8006 76.679 78.1125 76.1958 78.4334 76.1932C78.6485 76.1932 78.8892 76.3924 79.1718 76.8011C79.2454 76.9479 79.2665 77.1158 79.2316 77.2766C79.2316 77.3331 79.2215 77.3896 79.2215 77.441V80.2309C79.2215 83.5636 79.2215 86.8957 79.2215 90.2275C79.2215 93.7859 77.0214 95.9962 73.4846 95.9962L63.55 96ZM47.447 95.743H73.4807C76.8597 95.743 78.9554 93.6304 78.963 90.2314C78.963 86.8996 78.963 83.5674 78.963 80.2348V77.4436C78.963 77.3845 78.963 77.3151 78.9745 77.256C78.995 77.1544 78.9898 77.0492 78.9592 76.9501C78.7046 76.5839 78.5199 76.4528 78.4295 76.4528C78.3137 76.4528 78.0972 76.6726 77.9203 76.9668C77.8834 77.0818 77.8768 77.2045 77.9012 77.3228C77.9012 77.3922 77.9126 77.4629 77.9126 77.5323V82.3706C77.9126 85.0187 77.9126 87.6681 77.9126 90.3187C77.9126 93.002 76.2702 94.67 73.6297 94.67H21.3725C18.7778 94.67 17.0998 92.984 17.0972 90.374C17.0972 88.4952 17.0972 86.6165 17.0972 84.7377V80.4738C17.0972 80.4147 17.0972 80.3517 17.1049 80.2888C17.1274 80.1619 17.1169 80.0312 17.0743 79.9097C16.947 79.6976 16.7293 79.4933 16.6223 79.501C16.4428 79.5113 16.2124 79.758 16.0583 79.9251C16.0471 79.9944 16.0471 80.0652 16.0583 80.1346C16.0583 80.1834 16.0659 80.2309 16.0659 80.2746V82.4592C16.0659 85.1746 16.0659 87.9851 16.0761 90.7454C16.0842 91.2038 16.1536 91.6589 16.2824 92.0986C16.919 94.3423 18.8911 95.7366 21.4158 95.7379C27.2562 95.7379 33.0954 95.7379 38.9333 95.7379L47.447 95.743Z" fill="#004999"/>
<path d="M47.508 0.129761C56.2046 0.129761 64.9012 0.129761 73.5978 0.129761C76.493 0.129761 78.7006 1.93786 79.0342 4.66349C79.1615 5.69798 79.0864 6.75816 79.0928 7.80678C79.1004 8.91965 79.0928 10.0325 79.0928 11.148C79.0928 11.6466 79.0062 12.1041 78.4167 12.0963C77.8655 12.0886 77.7802 11.6491 77.7802 11.1737C77.7903 9.3116 77.7878 7.44696 77.7802 5.58618C77.7802 3.12912 76.1365 1.46367 73.7187 1.46367H21.2948C18.8757 1.46367 17.2308 3.12526 17.2206 5.5759C17.2206 7.43796 17.213 9.3026 17.2206 11.1634C17.2206 11.6363 17.1481 12.0796 16.5955 12.0925C16.0022 12.1053 15.9182 11.6504 15.922 11.1493C15.9322 9.20108 15.922 7.25292 15.922 5.30475C15.9283 4.00754 16.4163 2.75986 17.2896 1.80816C18.1629 0.856463 19.3581 0.269947 20.6391 0.16446C20.9561 0.137474 21.2757 0.131047 21.5927 0.131047L47.508 0.129761Z" fill="#004999"/>
<path d="M16.579 12.2249C16.482 12.2306 16.3847 12.2166 16.2931 12.1837C16.2015 12.1508 16.1173 12.0997 16.0456 12.0335C15.8279 11.8176 15.7998 11.4667 15.8024 11.1519C15.8024 10.1791 15.8024 9.18831 15.8024 8.23094C15.8024 7.27356 15.8024 6.28148 15.8024 5.3074C15.806 3.97642 16.3056 2.69554 17.202 1.71935C18.0984 0.743169 19.3259 0.143165 20.6404 0.0386018C20.9893 0.00776005 21.3394 0.00390625 21.6042 0.00390625H53.8867C60.4562 0.00390625 67.0258 0.00390625 73.5953 0.00390625C76.5822 0.00390625 78.8153 1.8724 79.1591 4.64944C79.233 5.39874 79.2555 6.1523 79.2266 6.90474C79.2266 7.20159 79.2164 7.50872 79.2176 7.80429C79.2176 8.31061 79.2176 8.81564 79.2176 9.32196C79.2176 9.91952 79.2176 10.5364 79.2176 11.1442C79.2176 11.4359 79.196 11.8009 78.9745 12.0245C78.8986 12.0938 78.8097 12.1471 78.713 12.1811C78.6163 12.2151 78.5139 12.2291 78.4117 12.2224C77.6478 12.2108 77.6478 11.4513 77.6555 11.1699C77.6657 9.31425 77.6631 7.46889 77.6555 5.58369C77.6555 3.19474 76.0704 1.58968 73.7214 1.58968H21.2948C18.942 1.58968 17.3582 3.19217 17.348 5.57341C17.348 7.65265 17.3404 9.39778 17.348 11.1609C17.348 11.4719 17.348 12.2018 16.5981 12.2185L16.579 12.2249ZM47.5081 0.258348H21.6068C21.3521 0.258348 21.0046 0.258349 20.6646 0.291761C19.4146 0.392046 18.2475 0.963058 17.3952 1.89147C16.5428 2.81987 16.0674 4.03781 16.0634 5.30354C16.0634 6.27763 16.0634 7.26713 16.0634 8.22579C16.0634 9.18446 16.0634 10.174 16.0634 11.148C16.0634 11.3935 16.0787 11.6955 16.2302 11.8446C16.2823 11.8899 16.3431 11.9238 16.4089 11.9442C16.4746 11.9645 16.5438 11.9708 16.6121 11.9628C16.9801 11.9538 17.1214 11.7379 17.1125 11.1635C17.1023 9.40035 17.1049 7.65394 17.1125 5.57469C17.1125 3.03539 18.8045 1.33395 21.3139 1.33395H73.7354C76.2359 1.33395 77.919 3.04181 77.9241 5.58369C77.9241 7.46889 77.9317 9.31039 77.9241 11.1737C77.9241 11.7456 78.0578 11.9615 78.4334 11.9666H78.4474C78.5137 11.971 78.5802 11.9619 78.643 11.9398C78.7057 11.9177 78.7635 11.8831 78.8128 11.8381C78.9681 11.6814 78.9834 11.3665 78.9808 11.1429C78.9808 10.5338 78.9808 9.91566 78.9808 9.31811C78.9808 8.81179 78.9808 8.30675 78.9808 7.80172C78.9808 7.49844 78.9808 7.19002 78.9897 6.89189C79.018 6.15189 78.9959 5.4108 78.9235 4.67386C78.5989 2.03046 76.465 0.254496 73.6131 0.25321C67.0436 0.25321 60.4741 0.25321 53.9045 0.25321L47.5081 0.258348Z" fill="#004999"/>
<path d="M23.2747 82.3191H71.7404V81.5403C71.7404 80.042 71.7404 78.5436 71.7404 77.0426C71.7404 76.6314 71.9212 76.3152 72.3617 76.296C72.8391 76.2741 73.0543 76.5954 73.0568 77.0336C73.067 79.004 73.067 80.9745 73.0568 82.9449C73.0568 83.4281 72.778 83.6903 72.2929 83.7006C72.1236 83.7006 71.9543 83.7006 71.7836 83.7006H23.2237C22.0562 83.7006 21.9582 83.6003 21.9595 82.4155C21.9595 81.1947 21.9595 79.9743 21.9595 78.7543C21.9595 78.2955 22.0066 77.8419 22.5782 77.8201C23.1919 77.7956 23.2734 78.2608 23.2747 78.7479V82.3191Z" fill="#004999"/>
<path d="M72.0463 83.8252H23.2241C22.6639 83.8252 22.2794 83.8098 22.063 83.59C21.8465 83.3703 21.8325 82.9835 21.8325 82.4167V81.913C21.8325 80.8609 21.8325 79.808 21.8325 78.7543C21.8325 78.4189 21.8325 77.7262 22.5748 77.6915C22.6786 77.6805 22.7837 77.6914 22.8831 77.7235C22.9826 77.7556 23.0745 77.8081 23.1528 77.8779C23.3718 78.0899 23.4074 78.4369 23.4074 78.7479V82.1906H71.6185V80.3002C71.6185 79.2131 71.6185 78.1255 71.6185 77.0374C71.6185 76.5016 71.8922 76.1829 72.362 76.1623C72.4672 76.1522 72.5734 76.1642 72.6737 76.1976C72.7741 76.231 72.8665 76.285 72.9451 76.3563C73.0289 76.4458 73.0938 76.5515 73.1358 76.667C73.1778 76.7826 73.1961 76.9055 73.1896 77.0284C73.1998 79.0511 73.1998 81.0391 73.1896 82.9398C73.1896 83.4885 72.8624 83.8098 72.2984 83.8226L72.0463 83.8252ZM22.6244 77.9421H22.5837C22.1623 77.9588 22.0846 78.2261 22.0872 78.7479C22.0872 79.8008 22.0872 80.8537 22.0872 81.9066V82.409C22.0872 82.9732 22.1101 83.2649 22.2438 83.4011C22.3774 83.5373 22.6664 83.5605 23.2241 83.5605H71.9164C72.0437 83.5605 72.171 83.5605 72.292 83.5605C72.716 83.5515 72.9286 83.3394 72.9286 82.9333C72.94 81.034 72.94 79.046 72.9286 77.022C72.9345 76.9336 72.9229 76.8449 72.8945 76.761C72.8661 76.6772 72.8214 76.5999 72.7631 76.5337C72.7094 76.486 72.6465 76.4499 72.5784 76.4278C72.5102 76.4057 72.4383 76.398 72.3671 76.4052C72.0374 76.4193 71.8693 76.6275 71.8668 77.0246C71.8617 78.1117 71.8617 79.1989 71.8668 80.2861V82.4334H23.1477V78.7479C23.1477 78.5063 23.1273 78.2094 22.9758 78.0629C22.8792 77.9772 22.7528 77.9338 22.6244 77.9421Z" fill="#004999"/>
<path d="M71.7407 7.55747H23.3183C23.3043 7.79392 23.2813 8.01881 23.2801 8.24241C23.2801 9.29231 23.2801 10.3409 23.2686 11.3908C23.2622 11.8098 23.0369 12.1053 22.6078 12.0989C22.1788 12.0925 21.9712 11.8008 21.9712 11.3754C21.9712 9.89758 21.9623 8.41975 21.9712 6.9432C21.9712 6.48443 22.2259 6.23384 22.6931 6.22742C22.8625 6.22742 23.0318 6.22742 23.2024 6.22742H71.8374C72.9833 6.22742 73.08 6.32637 73.0813 7.46109C73.0813 8.70247 73.0813 9.94513 73.0813 11.1878C73.0813 11.6646 72.9642 12.0873 72.4193 12.0976C71.8743 12.1079 71.7483 11.6774 71.7496 11.1981C71.7432 10.003 71.7407 8.80527 71.7407 7.55747Z" fill="#004999"/>
<path d="M22.619 12.2287H22.6062C22.1339 12.2287 21.8423 11.8972 21.8423 11.378C21.8423 9.80508 21.8334 8.38636 21.8423 6.94323C21.8423 6.41506 22.1555 6.10793 22.689 6.10022H71.8333C73.0492 6.10022 73.2032 6.25314 73.2045 7.46239C73.2045 7.94686 73.2045 8.43262 73.2045 8.91838C73.2045 9.67529 73.2045 10.4309 73.2045 11.1878C73.2045 11.8715 72.9422 12.2159 72.4164 12.2262H72.4037C72.3057 12.2314 72.2077 12.2166 72.1156 12.1826C72.0235 12.1486 71.9391 12.0961 71.8677 12.0283C71.6983 11.8599 71.613 11.5888 71.613 11.2007C71.613 10.3525 71.613 9.50437 71.613 8.63695V7.68857H23.4376L23.43 7.79394C23.4185 7.95072 23.4083 8.0985 23.4071 8.24629C23.4071 8.64723 23.4071 9.04946 23.4071 9.4504C23.4071 10.0929 23.4071 10.747 23.3982 11.3947C23.388 11.9087 23.0913 12.2287 22.619 12.2287ZM22.9831 6.35466H22.689C22.2918 6.35466 22.097 6.55256 22.0932 6.94194C22.083 8.38508 22.0932 9.80251 22.0932 11.3742C22.0932 11.5939 22.1619 11.964 22.6101 11.9691C23.0811 11.9781 23.1397 11.5643 23.1422 11.387C23.1512 10.7445 23.1512 10.0827 23.1512 9.44655C23.1512 9.04432 23.1512 8.64209 23.1512 8.24115C23.1512 8.08437 23.1626 7.93273 23.1741 7.77081C23.1741 7.69756 23.1855 7.62431 23.1894 7.54849L23.197 7.4277H71.8664V8.6331C71.8664 9.50052 71.8664 10.3487 71.8664 11.1968C71.8664 11.5129 71.9224 11.7237 72.0395 11.8393C72.0884 11.8858 72.1465 11.9213 72.2099 11.9434C72.2733 11.9656 72.3407 11.9739 72.4075 11.9679C72.7894 11.9679 72.946 11.7301 72.9435 11.1878C72.9435 10.4309 72.9435 9.674 72.9435 8.91709C72.9435 8.43134 72.9435 7.94687 72.9435 7.46111C72.9435 6.39707 72.9015 6.35595 71.8269 6.35595H22.9831V6.35466Z" fill="#004999"/>
<path d="M79.182 63.8912C77.1895 63.8912 75.197 63.8912 73.2045 63.8912C71.7594 63.8912 71.0083 63.133 70.9968 61.6821C70.9968 60.6541 70.9853 59.626 70.9968 58.598C71.0146 57.2602 71.7849 56.4815 73.0962 56.4802C77.1653 56.475 81.2343 56.475 85.3034 56.4802C86.5855 56.4802 87.3634 57.2679 87.371 58.5543C87.3786 59.6449 87.3786 60.7359 87.371 61.8274C87.3621 63.0777 86.5969 63.8732 85.3467 63.8835C83.293 63.904 81.2369 63.8912 79.182 63.8912ZM79.1603 62.5663C81.1732 62.5663 83.1861 62.5663 85.199 62.5663C85.8941 62.5663 86.0762 62.3799 86.0826 61.6937C86.0919 60.6879 86.0919 59.6826 86.0826 58.6776C86.0826 58.0056 85.8712 57.7909 85.2053 57.7897C81.2 57.7845 77.1946 57.7845 73.1892 57.7897C72.5246 57.7897 72.3171 58.0043 72.312 58.6725C72.3031 59.635 72.312 60.6001 72.312 61.5613C72.312 62.4211 72.4597 62.5663 73.3152 62.5676L79.1603 62.5663Z" fill="#E33C5C"/>
<path d="M82.8145 63.9605H81.0461H79.1822H77.5041C76.0722 63.9605 74.6391 63.9605 73.2047 63.9605C71.7303 63.9605 70.9448 63.1702 70.9333 61.6873C70.9333 60.7029 70.9219 59.6478 70.9333 58.6031C70.9511 57.2396 71.7596 56.4185 73.0977 56.4185C77.182 56.4185 81.2905 56.4185 85.3061 56.4185C86.6111 56.4185 87.4285 57.2396 87.4361 58.5568C87.4438 59.707 87.4438 60.7787 87.4361 61.8299C87.4272 63.1265 86.6277 63.9387 85.3481 63.9503C84.5078 63.958 83.6586 63.9605 82.8145 63.9605ZM79.27 63.832H81.0525C82.4631 63.832 83.9209 63.832 85.3545 63.8243C86.5564 63.814 87.3075 63.0533 87.3165 61.8312C87.3241 60.78 87.3241 59.7095 87.3165 58.5594C87.3088 57.3026 86.5602 56.5521 85.3125 56.5495C81.2969 56.5495 77.1897 56.5495 73.1053 56.5495C71.8322 56.5495 71.0861 57.3 71.0683 58.6056C71.0543 59.6478 71.0594 60.7016 71.0683 61.6898C71.0785 63.1098 71.8003 63.832 73.2136 63.8359C74.6268 63.8397 76.0782 63.8359 77.5118 63.8359H79.2777L79.27 63.832ZM82.5586 62.6369H73.3116C72.4204 62.6369 72.2485 62.466 72.2447 61.5665V61.5369C72.2447 60.6001 72.2447 59.6311 72.2447 58.6776C72.251 57.9708 72.4879 57.7318 73.1856 57.7305C77.3272 57.7305 81.3695 57.7305 85.2017 57.7305C85.8981 57.7305 86.1362 57.9721 86.1426 58.6815C86.1515 59.7005 86.1515 60.7157 86.1426 61.6988C86.1349 62.4223 85.9236 62.6331 85.1954 62.6356C84.3232 62.6305 83.4371 62.6318 82.5586 62.6318V62.6369ZM79.1605 62.5084H80.8653C82.2862 62.5084 83.7554 62.5084 85.1941 62.5084C85.8549 62.5084 86.0076 62.3542 86.014 61.6988C86.0216 60.717 86.0216 59.7031 86.014 58.684C86.014 58.0415 85.8256 57.8616 85.2004 57.8603C81.3682 57.8603 77.3259 57.8603 73.1856 57.8603C72.5592 57.8603 72.3758 58.0454 72.3707 58.6802C72.3618 59.6324 72.3707 60.6078 72.3707 61.5369V61.5665C72.3707 62.394 72.4879 62.5084 73.3103 62.5097H79.1593L79.1605 62.5084Z" fill="#E33C5C"/>
<path d="M56.5606 56.4814C58.5748 56.4814 60.5885 56.4814 62.6018 56.4814C63.9666 56.4814 64.7356 57.2358 64.7573 58.6108C64.7751 59.6586 64.7751 60.7068 64.7573 61.7554C64.7344 63.1278 63.9679 63.886 62.6005 63.8886C58.5739 63.8963 54.5473 63.8963 50.5207 63.8886C49.1508 63.8886 48.3856 63.1176 48.3729 61.7528C48.3627 60.6836 48.3614 59.6145 48.3729 58.5401C48.3894 57.2551 49.1648 56.484 50.4558 56.484C52.4916 56.4814 54.5261 56.4814 56.5606 56.4814ZM56.595 57.7845C54.5821 57.7845 52.5692 57.7845 50.5551 57.7845C49.8828 57.7845 49.6817 57.9927 49.6766 58.6648C49.6677 59.6928 49.6766 60.7209 49.6766 61.749C49.6766 62.3157 49.9389 62.5675 50.4901 62.5675C54.5371 62.5675 58.585 62.5675 62.6336 62.5675C63.2295 62.5675 63.465 62.2861 63.4523 61.6937C63.4294 60.7325 63.4523 59.7661 63.4523 58.8061C63.4523 57.9567 63.288 57.7884 62.4579 57.7871C60.499 57.7837 58.5446 57.7828 56.595 57.7845Z" fill="#004999"/>
<path d="M56.4128 64.0223H50.5206C49.0883 64.0223 48.2582 63.1947 48.2454 61.7592C48.234 60.5371 48.2352 59.5168 48.2454 58.5466C48.2633 57.1805 49.0895 56.3619 50.4557 56.3619C51.857 56.3619 53.2575 56.3619 54.6571 56.3619H58.1876C59.6568 56.3619 61.1261 56.3619 62.5953 56.3619C64.0442 56.3619 64.8552 57.1664 64.8781 58.6172C64.8959 59.689 64.8959 60.7479 64.8781 61.7657C64.8539 63.1998 64.0213 64.0235 62.594 64.0261C60.5926 64.021 58.525 64.0223 56.4128 64.0223ZM52.9676 56.61C52.1307 56.61 51.2942 56.61 50.4582 56.61C49.2309 56.61 48.5179 57.3193 48.5013 58.5466C48.4899 59.5129 48.4886 60.532 48.5013 61.7515C48.5128 63.0443 49.2309 63.7575 50.5219 63.7601C54.6928 63.7601 58.758 63.7601 62.6017 63.7601C63.9067 63.7601 64.6095 63.0636 64.6311 61.7528C64.6489 60.7376 64.6489 59.6813 64.6311 58.6121C64.6107 57.3052 63.9079 56.6125 62.6017 56.61C61.1341 56.61 59.6653 56.61 58.1952 56.61H52.9753H52.9676ZM50.4811 62.6961C50.1628 62.6961 49.9311 62.6177 49.772 62.4557C49.6128 62.2938 49.5402 62.0702 49.5428 61.7477C49.5428 61.2144 49.5428 60.6708 49.5428 60.1465C49.5428 59.653 49.5428 59.1595 49.5428 58.6674C49.5492 57.9259 49.8114 57.6624 50.5486 57.6599C51.9936 57.6599 53.4641 57.6599 54.885 57.6599H58.3849C59.7353 57.6599 61.0866 57.6599 62.4387 57.6599C63.3376 57.6599 63.5578 57.886 63.5604 58.8074C63.5604 59.1338 63.5604 59.459 63.5604 59.7854C63.5604 60.4112 63.554 61.0576 63.568 61.6924C63.5769 62.0394 63.5018 62.2887 63.3401 62.4557C63.1784 62.6228 62.9492 62.6973 62.6246 62.6973C58.2958 62.6973 54.06 62.6973 50.4811 62.6973V62.6961ZM53.1955 57.913C52.317 57.913 51.4322 57.913 50.555 57.913C49.9566 57.913 49.8089 58.0634 49.8038 58.6661C49.8038 59.157 49.8038 59.6492 49.8038 60.1413C49.8038 60.6669 49.8038 61.2105 49.8038 61.7464C49.7938 61.84 49.8024 61.9347 49.8291 62.025C49.8558 62.1152 49.9 62.1992 49.9591 62.272C50.0322 62.3329 50.1165 62.3787 50.2072 62.4067C50.2979 62.4347 50.3931 62.4444 50.4875 62.4352C54.0676 62.4352 58.3098 62.4352 62.6322 62.4352C62.8869 62.4352 63.0587 62.3812 63.1657 62.2707C63.2726 62.1602 63.3274 61.9674 63.321 61.6937C63.307 61.0512 63.3096 60.4086 63.3134 59.7789C63.3134 59.4534 63.3134 59.1283 63.3134 58.8036C63.3134 58.021 63.2052 57.913 62.4464 57.9117C61.0951 57.9117 59.7438 57.9117 58.3926 57.9117H53.1955V57.913Z" fill="#004999"/>
<path d="M67.8471 39.5185C61.7359 39.5185 55.6247 39.5185 49.5134 39.5185C49.3021 39.5185 49.0398 39.584 48.8909 39.4825C48.6757 39.3373 48.4083 39.0648 48.4121 38.8502C48.416 38.6356 48.7024 38.3992 48.9214 38.2398C49.0322 38.1563 49.2512 38.2167 49.4205 38.2167C61.7227 38.2167 74.0262 38.2167 86.3309 38.2167C86.5003 38.2167 86.7129 38.1563 86.8287 38.2385C87.0426 38.3966 87.338 38.6356 87.338 38.8464C87.338 39.0571 87.0834 39.336 86.8644 39.4825C86.718 39.584 86.4544 39.5185 86.2418 39.5185C80.1111 39.5185 73.9795 39.5185 67.8471 39.5185Z" fill="#004999"/>
<path d="M86.6176 39.6676C86.5514 39.6676 86.4826 39.6676 86.4151 39.6573C86.3476 39.647 86.2954 39.647 86.2381 39.647H49.5187C49.4627 39.647 49.4028 39.647 49.3417 39.6573C49.1584 39.6714 48.9687 39.6869 48.8248 39.5892C48.6237 39.453 48.285 39.1446 48.2901 38.8477C48.2901 38.5843 48.588 38.3337 48.8452 38.1371C48.9758 38.0651 49.128 38.0441 49.273 38.078C49.3239 38.078 49.3736 38.0882 49.4194 38.0882C61.7216 38.0882 74.0251 38.0882 86.3298 38.0882C86.3757 38.0882 86.4253 38.0882 86.4762 38.078C86.621 38.0431 86.7734 38.0637 86.904 38.1358C87.1587 38.326 87.4566 38.5791 87.4617 38.8439C87.4617 39.1407 87.1319 39.4517 86.9333 39.5892C86.8382 39.6466 86.7282 39.6739 86.6176 39.6676ZM86.2356 39.39C86.298 39.39 86.3629 39.39 86.4317 39.4003C86.5497 39.4245 86.672 39.416 86.7856 39.3759C87.0186 39.2165 87.2058 38.9801 87.2032 38.849C87.2032 38.7706 87.1217 38.619 86.7487 38.3427C86.6658 38.3188 86.5784 38.3157 86.4941 38.3337C86.4355 38.3337 86.3769 38.3453 86.3235 38.3453C74.0162 38.3453 61.7127 38.3453 49.413 38.3453C49.3564 38.3445 49.2999 38.3406 49.2437 38.3337C49.1594 38.3158 49.072 38.3189 48.9891 38.3427C48.6173 38.6215 48.5384 38.7745 48.5371 38.8567C48.5371 38.9852 48.7242 39.2217 48.9598 39.381C49.0734 39.4212 49.1957 39.4296 49.3137 39.4054C49.3812 39.4054 49.4487 39.3952 49.5111 39.3952C54.7472 39.3952 59.9837 39.3952 65.2207 39.3952H70.4661C75.7218 39.3952 80.9766 39.3952 86.2305 39.3952L86.2356 39.39Z" fill="#004999"/>
<path d="M67.9426 30.5859H80.0377C80.2287 30.5859 80.4197 30.5859 80.6094 30.5859C81.0219 30.5975 81.3312 30.7748 81.3427 31.2182C81.3542 31.6911 81.0486 31.8967 80.6043 31.9147C80.4566 31.9147 80.3076 31.9147 80.1587 31.9147H55.5916C55.4006 31.9147 55.1575 31.9828 55.0301 31.8903C54.787 31.7129 54.4801 31.4598 54.4483 31.2053C54.4254 31.0293 54.7895 30.7517 55.034 30.6104C55.1944 30.5165 55.4477 30.5808 55.6604 30.5808L67.9426 30.5859Z" fill="#004999"/>
<path d="M55.2276 32.0728C55.1314 32.0786 55.0358 32.0529 54.9552 31.9995C54.6802 31.8004 54.3606 31.5305 54.3186 31.2285C54.2766 30.9265 54.8533 30.5718 54.9679 30.505C55.1283 30.4355 55.3056 30.4158 55.4772 30.4485C55.5383 30.4485 55.6045 30.4587 55.658 30.4587H80.1232C80.2849 30.4587 80.4465 30.4587 80.6082 30.4587C81.1404 30.4729 81.4523 30.7492 81.4651 31.2156C81.4778 31.7194 81.1646 32.0214 80.6044 32.0445C80.5 32.0445 80.3943 32.0445 80.2887 32.0445H55.5892C55.533 32.0455 55.4769 32.0493 55.4212 32.0561C55.3588 32.0651 55.2926 32.0728 55.2276 32.0728ZM55.2747 30.6926C55.2135 30.6886 55.1522 30.7001 55.0965 30.726C54.7744 30.9137 54.5707 31.1295 54.5732 31.1951C54.6025 31.4264 54.9794 31.7014 55.1029 31.7914C55.1995 31.823 55.3026 31.8288 55.4021 31.8081C55.4657 31.8081 55.5294 31.7952 55.5943 31.7952H80.2938C80.3944 31.7952 80.4962 31.7952 80.5968 31.7952C81.227 31.7695 81.2168 31.3634 81.213 31.2298C81.2092 31.0961 81.2003 30.7402 80.6044 30.7235C80.4453 30.7235 80.2849 30.7235 80.127 30.7235H55.6567C55.5918 30.7235 55.5294 30.7235 55.4555 30.7119C55.3817 30.7003 55.3346 30.6926 55.2747 30.6926Z" fill="#004999"/>
<path d="M17.9961 29.6697C17.6981 32.0998 17.4269 34.305 17.1558 36.5089C16.9521 38.1204 16.7509 39.7306 16.5612 41.3433C16.4504 42.2763 16.2327 42.6284 15.7565 42.5667C15.2804 42.505 15.1442 42.1452 15.2613 41.2045C15.7332 37.4102 16.2 33.6149 16.6618 29.8188C16.7242 29.3048 16.9648 28.9668 17.4817 29.1262C17.7338 29.202 17.8955 29.5554 17.9961 29.6697Z" fill="#004999"/>
<path d="M15.8548 42.7016C15.8165 42.7015 15.7782 42.6989 15.7402 42.6939C15.6486 42.688 15.5591 42.6633 15.4772 42.6213C15.3953 42.5793 15.3228 42.5209 15.264 42.4497C15.0896 42.2171 15.0514 41.8573 15.1342 41.1891C15.5836 37.5909 16.0649 33.7125 16.5423 29.8046C16.5869 29.4397 16.7103 29.1878 16.9102 29.0567C17.0022 29.0019 17.1054 28.9687 17.2119 28.9598C17.3184 28.9509 17.4255 28.9665 17.5252 29.0053C17.7493 29.0734 17.8995 29.3022 18.009 29.4692C18.0346 29.5096 18.0622 29.5486 18.0917 29.5862L18.1299 29.6299L17.9453 31.1334L17.282 36.5307C17.2175 37.0619 17.1517 37.593 17.0847 38.1242C16.9573 39.1857 16.8147 40.2831 16.6874 41.3626C16.6085 42.0321 16.4761 42.3906 16.2469 42.577C16.1342 42.6627 15.9958 42.7067 15.8548 42.7016ZM17.2553 29.2161C17.1843 29.2139 17.1142 29.2332 17.0541 29.2713C16.9268 29.3574 16.8338 29.5528 16.7995 29.8355C16.322 33.7434 15.8408 37.6166 15.399 41.2199C15.3264 41.7982 15.3506 42.1285 15.4766 42.2917C15.5151 42.336 15.5622 42.3719 15.615 42.3971C15.6678 42.4223 15.7251 42.4363 15.7835 42.4382C15.8384 42.4496 15.8951 42.4494 15.9499 42.4374C16.0047 42.4255 16.0564 42.4021 16.1018 42.3688C16.2686 42.2403 16.3781 41.9062 16.4455 41.3279C16.5728 40.2471 16.7103 39.1433 16.8428 38.0869L17.0414 36.4934L17.7047 31.0961L17.8753 29.7031L17.8091 29.6042C17.72 29.4757 17.599 29.2868 17.4628 29.2443C17.3938 29.2237 17.3221 29.2141 17.2502 29.2161H17.2553Z" fill="#004999"/>
<path d="M53.1817 51.71C51.8894 51.71 50.5972 51.71 49.3049 51.71C48.8122 51.71 48.3704 51.6213 48.3882 51.0109C48.406 50.4249 48.8593 50.3954 49.3113 50.3954C51.9179 50.4005 54.5232 50.4005 57.1272 50.3954C57.5894 50.3954 58.0325 50.4494 58.0465 51.0186C58.0605 51.6188 57.6161 51.7152 57.1209 51.7113C55.8082 51.7036 54.4943 51.71 53.1817 51.71Z" fill="#004999"/>
<path d="M57.1476 51.8411H57.1209C56.1762 51.8411 55.2111 51.8411 54.2855 51.8411H52.0689C51.148 51.8411 50.2271 51.8411 49.3062 51.8411C49.0171 51.8411 48.6696 51.8166 48.4506 51.5956C48.3813 51.516 48.3288 51.423 48.2962 51.3223C48.2636 51.2215 48.2515 51.1152 48.2609 51.0096C48.2838 50.2681 48.9268 50.2707 49.3125 50.2694C51.6513 50.2694 54.4052 50.2771 57.1272 50.2694C57.4595 50.2694 58.156 50.2694 58.1738 51.0173C58.1832 51.1223 58.171 51.2281 58.1379 51.3281C58.1048 51.428 58.0516 51.52 57.9815 51.5982C57.7715 51.8089 57.4302 51.8411 57.1476 51.8411ZM55.425 51.584C55.989 51.584 56.5581 51.584 57.1221 51.584C57.4786 51.584 57.6823 51.5339 57.7995 51.4131C57.8442 51.3604 57.8778 51.299 57.8984 51.2327C57.919 51.1665 57.926 51.0967 57.9191 51.0276C57.909 50.6074 57.6327 50.5303 57.1272 50.5303C54.409 50.538 51.6526 50.5303 49.3112 50.5303H49.3023C48.7689 50.5303 48.5282 50.6035 48.5155 51.0212C48.5071 51.0921 48.5132 51.1641 48.5333 51.2326C48.5535 51.3011 48.5873 51.3647 48.6327 51.4195C48.7803 51.5712 49.0706 51.5905 49.3049 51.5879C50.2267 51.5879 51.1484 51.5879 52.0702 51.5879H55.425V51.584Z" fill="#004999"/>
<path d="M68.0866 50.4019C69.3993 50.4019 70.7132 50.4096 72.0258 50.4019C72.5071 50.4019 72.903 50.5072 72.889 51.0778C72.8763 51.6021 72.4943 51.7203 72.0424 51.7203C69.395 51.7203 66.7481 51.7203 64.1016 51.7203C63.6165 51.7203 63.2244 51.5828 63.232 51.0341C63.241 50.5201 63.6293 50.4006 64.0851 50.4044C65.4193 50.4134 66.7524 50.4044 68.0866 50.4044V50.4019Z" fill="#004999"/>
<path d="M64.095 51.8411C63.7246 51.8411 63.4648 51.7602 63.3006 51.5918C63.2312 51.5157 63.1781 51.426 63.1444 51.3283C63.1106 51.2306 63.0971 51.127 63.1045 51.0238C63.1173 50.2605 63.8442 50.2669 64.0861 50.2682C65.0448 50.2682 66.0201 50.2682 66.9635 50.2682H68.0864H68.2137H69.2055C70.1286 50.2682 71.0847 50.2682 72.0243 50.2682C72.2866 50.2682 72.6189 50.29 72.8277 50.5047C72.8965 50.5817 72.9487 50.6723 72.9812 50.7707C73.0136 50.8691 73.0255 50.9732 73.0161 51.0765C72.997 51.8476 72.2764 51.8373 72.0422 51.8386C69.0668 51.8386 66.4695 51.8386 64.1014 51.8386L64.095 51.8411ZM64.0594 50.5252C63.5641 50.5252 63.3604 50.6717 63.3541 51.0277C63.3482 51.0973 63.3565 51.1674 63.3784 51.2337C63.4003 51.3 63.4353 51.361 63.4814 51.4132C63.596 51.5301 63.8022 51.5841 64.1001 51.5854C66.4682 51.5854 69.0655 51.5854 72.0409 51.5854C72.54 51.5854 72.7475 51.4376 72.7564 51.0714C72.7638 51.0025 72.7574 50.9329 72.7375 50.8667C72.7175 50.8004 72.6846 50.7389 72.6406 50.6858C72.5323 50.574 72.3337 50.5239 72.0205 50.5265C71.0809 50.5342 70.1248 50.5265 69.1992 50.5265H68.0813H67.954H66.9584C66.015 50.5265 65.0385 50.5265 64.0785 50.5265L64.0594 50.5252Z" fill="#004999"/>
<path d="M8.49442 35.8226C9.0788 36.3765 9.57024 36.8442 10.063 37.3094C10.4042 37.6307 10.641 37.9995 10.2501 38.4107C9.85925 38.822 9.49512 38.6151 9.16028 38.2694C8.56698 37.6577 7.95841 37.0627 7.36512 36.4523C6.88259 35.9563 6.87622 35.6813 7.34347 35.2032C7.9495 34.5761 8.57207 33.9644 9.18192 33.3398C9.50021 33.0147 9.85671 32.8258 10.2285 33.1998C10.6308 33.5969 10.4322 33.9708 10.0859 34.3011C9.58043 34.7817 9.07625 35.2649 8.49442 35.8226Z" fill="#004999"/>
<path d="M9.80356 38.7668C9.498 38.7668 9.23828 38.5342 9.06895 38.3594C8.76212 38.0433 8.44637 37.7258 8.14081 37.4187C7.83525 37.1116 7.56024 36.8366 7.27505 36.5423C6.7416 35.9936 6.73651 35.6427 7.25214 35.1133C7.58698 34.7676 7.93201 34.4206 8.27067 34.0852C8.54568 33.8077 8.82195 33.5301 9.09568 33.2499C9.54257 32.7937 9.95507 32.7449 10.3217 33.1086C10.4011 33.1774 10.4654 33.2623 10.5103 33.3576C10.5553 33.453 10.5799 33.5569 10.5827 33.6625C10.5827 33.8976 10.4478 34.1366 10.1766 34.3949C9.82267 34.7252 9.48019 35.0555 9.10969 35.4063L8.67681 35.8214L9.08168 36.2069L10.1473 37.217C10.3281 37.3879 10.5687 37.65 10.5777 37.9597C10.5763 38.0617 10.5546 38.1623 10.5136 38.2555C10.4727 38.3487 10.4135 38.4326 10.3396 38.502C10.2732 38.581 10.1916 38.6453 10.0996 38.6911C10.0076 38.7368 9.90727 38.763 9.80484 38.768L9.80356 38.7668ZM9.80356 33.1266C9.64569 33.1266 9.47509 33.2268 9.27648 33.4311C9.00147 33.7113 8.72519 33.9889 8.44892 34.2677C8.11535 34.6018 7.77032 34.9488 7.43675 35.2958C7.02042 35.7276 7.02424 35.9165 7.45839 36.365C7.74528 36.658 8.03344 36.9492 8.32287 37.2388C8.62843 37.5459 8.94673 37.8646 9.25356 38.182C9.46873 38.4044 9.64951 38.5123 9.80611 38.5123C9.8745 38.5071 9.94109 38.4878 10.0018 38.4555C10.0624 38.4232 10.1159 38.3787 10.1588 38.3247C10.2107 38.28 10.2529 38.225 10.2827 38.1631C10.3125 38.1011 10.3292 38.0337 10.3319 37.9649C10.3319 37.803 10.2161 37.6243 9.98309 37.4033C9.63678 37.0769 9.29303 36.7505 8.91617 36.3932L8.31523 35.8227L8.93145 35.2238L9.99581 34.2073C10.2135 34.0004 10.3205 33.8218 10.3217 33.6599C10.3179 33.5889 10.2996 33.5194 10.2678 33.4559C10.236 33.3924 10.1915 33.3363 10.1371 33.2911C10.0947 33.2426 10.0431 33.2031 9.98539 33.1749C9.9277 33.1466 9.86504 33.1302 9.80102 33.1266H9.80356Z" fill="#004999"/>
<path d="M24.6675 35.8162C24.05 35.2289 23.542 34.7483 23.0378 34.2638C22.7055 33.9464 22.5527 33.5763 22.9194 33.2075C23.2861 32.8387 23.6476 33.0019 23.9685 33.336C24.5932 33.9734 25.2213 34.6087 25.8528 35.2418C26.2411 35.6273 26.2475 36.0128 25.8528 36.4061C25.2047 37.0486 24.5631 37.704 23.9201 38.3542C23.6069 38.6716 23.2517 38.7693 22.9168 38.4339C22.582 38.0985 22.6749 37.7323 22.9932 37.4225C23.5114 36.9124 24.0372 36.4176 24.6675 35.8162Z" fill="#004999"/>
<path d="M23.3575 38.7642C23.2574 38.7613 23.1589 38.7381 23.0679 38.6959C22.9769 38.6537 22.8953 38.5935 22.8279 38.5187C22.752 38.4503 22.6908 38.3668 22.6481 38.2735C22.6054 38.1803 22.5821 38.0791 22.5796 37.9764C22.5889 37.8528 22.6225 37.7324 22.6785 37.622C22.7345 37.5117 22.8116 37.4138 22.9055 37.3339C23.2646 36.9843 23.635 36.6322 24.0272 36.2596L24.4817 35.8265L24.0399 35.4063C23.658 35.0375 23.3002 34.7033 22.9501 34.3679C22.7069 34.1353 22.5821 33.9015 22.5796 33.6727C22.5823 33.5689 22.6064 33.4667 22.6502 33.3727C22.694 33.2787 22.7567 33.1949 22.8342 33.1266C22.9012 33.0514 22.9825 32.9907 23.0733 32.9481C23.1641 32.9055 23.2625 32.8818 23.3626 32.8785C23.5892 32.8785 23.8184 33.007 24.0616 33.2486C24.623 33.8205 25.2214 34.4271 25.9458 35.1544C26.0428 35.2392 26.122 35.3426 26.1789 35.4587C26.2357 35.5748 26.269 35.7011 26.2769 35.8303C26.2688 35.9589 26.2352 36.0845 26.1781 36.1998C26.121 36.315 26.0416 36.4175 25.9446 36.5012C25.4353 37.0049 24.926 37.5215 24.4371 38.0201L24.0132 38.4493C23.9298 38.5428 23.8289 38.6187 23.7164 38.6727C23.6039 38.7267 23.4819 38.7578 23.3575 38.7642ZM23.3575 33.1253C23.2907 33.1289 23.2254 33.1461 23.1654 33.1759C23.1055 33.2057 23.0521 33.2475 23.0086 33.2988C22.9564 33.3435 22.9138 33.3987 22.8835 33.4608C22.8533 33.523 22.8361 33.5907 22.8329 33.6599C22.8329 33.8166 22.9323 33.9876 23.1232 34.1739C23.4733 34.5093 23.8248 34.8421 24.2131 35.2109L24.8497 35.8188L24.7516 35.9126L24.2016 36.4343C23.8107 36.807 23.4377 37.1578 23.0812 37.5074C22.9421 37.6258 22.8536 37.7938 22.8342 37.9764C22.8375 38.0455 22.8545 38.1132 22.8842 38.1754C22.914 38.2377 22.9559 38.2933 23.0074 38.3388C23.099 38.4313 23.3804 38.7141 23.8298 38.2604L24.2538 37.8312C24.7478 37.3313 25.2571 36.8147 25.7638 36.311C25.8363 36.2508 25.8963 36.1766 25.94 36.0928C25.9837 36.0089 26.0104 35.9171 26.0184 35.8226C26.0104 35.7275 25.9838 35.6349 25.9401 35.5502C25.8964 35.4655 25.8364 35.3903 25.7638 35.3292C25.0381 34.6005 24.4397 33.9953 23.8782 33.4221C23.6872 33.2281 23.5128 33.1291 23.36 33.1278L23.3575 33.1253Z" fill="#004999"/>
<path d="M63.8685 45.6008C63.2549 45.6008 62.6412 45.6008 62.0275 45.6008C61.6061 45.6008 61.3082 45.417 61.2917 44.9826C61.2751 44.5136 61.5807 44.2951 62.0263 44.2926C63.2536 44.2874 64.4809 44.2874 65.7083 44.2926C66.1552 44.2926 66.4607 44.5162 66.4454 44.9814C66.4314 45.4131 66.1335 45.6046 65.7096 45.602C65.0959 45.5982 64.4822 45.6008 63.8685 45.6008Z" fill="#004999"/>
<path d="M65.7145 45.7306C65.308 45.7306 64.9018 45.7306 64.4961 45.7306H63.3859C62.9352 45.7306 62.4858 45.7306 62.0351 45.7306H62.0223C61.4965 45.7306 61.1859 45.4607 61.168 44.9891C61.1587 44.8842 61.1711 44.7786 61.2044 44.6788C61.2378 44.579 61.2913 44.4873 61.3616 44.4095C61.4507 44.3255 61.5557 44.2605 61.6704 44.2185C61.785 44.1765 61.9069 44.1585 62.0287 44.1654C63.1746 44.1654 64.3739 44.1654 65.712 44.1654C65.8339 44.1585 65.956 44.1766 66.0709 44.2186C66.1858 44.2605 66.291 44.3255 66.3804 44.4095C66.4508 44.4871 66.5045 44.5785 66.5383 44.678C66.572 44.7775 66.585 44.883 66.5765 44.9878C66.5574 45.453 66.2378 45.7306 65.7145 45.7306ZM64.9315 45.4736H65.7145C66.0965 45.4736 66.3027 45.3065 66.3142 44.9775C66.32 44.9079 66.3118 44.8378 66.2899 44.7715C66.268 44.7053 66.2329 44.6442 66.1869 44.592C66.1209 44.533 66.0438 44.488 65.9603 44.4595C65.8768 44.431 65.7884 44.4197 65.7005 44.4262C64.3637 44.4262 63.1542 44.4262 62.0198 44.4262C61.9322 44.4199 61.8442 44.4312 61.7609 44.4595C61.6777 44.4877 61.6008 44.5323 61.5347 44.5907C61.4881 44.6441 61.4528 44.7065 61.4309 44.7741C61.409 44.8417 61.401 44.9131 61.4074 44.984C61.4201 45.3142 61.6251 45.4826 62.016 45.4774C62.4667 45.4774 62.9174 45.4774 63.3694 45.4774H64.9239L64.9315 45.4736Z" fill="#004999"/>
<path d="M83.2347 44.2913C83.8483 44.2913 84.4633 44.2913 85.0769 44.2913C85.5225 44.2913 85.8268 44.5046 85.8141 44.9788C85.8014 45.4209 85.5022 45.5982 85.0833 45.5969C83.8543 45.5969 82.6265 45.5969 81.4 45.5969C80.9773 45.5969 80.6743 45.4093 80.6603 44.9801C80.6438 44.5213 80.9404 44.2887 81.3937 44.2861C82.0112 44.2874 82.621 44.2913 83.2347 44.2913Z" fill="#004999"/>
<path d="M81.3951 45.7319C80.8705 45.7319 80.5484 45.4556 80.5332 44.9904C80.5249 44.885 80.538 44.779 80.5717 44.6789C80.6055 44.5788 80.6591 44.4867 80.7292 44.4082C80.8177 44.3244 80.9221 44.2595 81.0361 44.2176C81.1501 44.1756 81.2714 44.1574 81.3925 44.1641C81.8331 44.1641 82.2736 44.1641 82.7141 44.1641H83.8154C84.2368 44.1641 84.6569 44.1641 85.0771 44.1641C85.1991 44.1575 85.3212 44.1755 85.4362 44.2172C85.5512 44.2589 85.6568 44.3234 85.7468 44.4069C85.8166 44.4843 85.8699 44.5753 85.9034 44.6744C85.937 44.7734 85.9499 44.8783 85.9416 44.9827C85.9276 45.4556 85.6156 45.7267 85.0835 45.7267C83.8561 45.7267 82.6288 45.7267 81.4014 45.7267L81.3951 45.7319ZM82.117 44.4185C81.8763 44.4185 81.6357 44.4185 81.3951 44.4185C81.3078 44.4122 81.2201 44.4237 81.1372 44.4521C81.0543 44.4806 80.9779 44.5255 80.9126 44.5843C80.8652 44.6377 80.8294 44.7004 80.8074 44.7686C80.7855 44.8368 80.778 44.9088 80.7852 44.9801C80.7954 45.3065 81.0004 45.4723 81.3913 45.4723C82.6195 45.4671 83.8476 45.4671 85.0758 45.4723C85.6653 45.4723 85.6755 45.1009 85.6793 44.9788C85.6852 44.9092 85.6769 44.8391 85.655 44.7728C85.6331 44.7065 85.5981 44.6454 85.552 44.5933C85.4175 44.4754 85.2421 44.4162 85.0644 44.4288C84.6442 44.4288 84.2241 44.4288 83.8052 44.4288H82.1055L82.117 44.4185Z" fill="#004999"/>
<path d="M50.91 45.5994H49.1352C48.696 45.5994 48.379 45.4324 48.3853 44.9402C48.3853 44.4917 48.6833 44.2977 49.0945 44.2977C50.3405 44.2899 51.5874 44.2899 52.8351 44.2977C53.2565 44.2977 53.5264 44.5264 53.5226 44.9633C53.5188 45.4002 53.2361 45.5994 52.8121 45.5981H50.91V45.5994Z" fill="#004999"/>
<path d="M50.3565 45.7281H49.1355C48.83 45.7281 48.5995 45.6509 48.4506 45.4993C48.3825 45.4238 48.3303 45.335 48.2973 45.2385C48.2642 45.1419 48.251 45.0396 48.2583 44.9377C48.2647 44.4584 48.5766 44.1667 49.0935 44.1667C50.3374 44.159 51.5966 44.1603 52.8354 44.1667C52.9472 44.1613 53.059 44.1785 53.1642 44.2174C53.2693 44.2562 53.3658 44.3159 53.4478 44.3929C53.5175 44.4693 53.5713 44.559 53.6061 44.6568C53.6408 44.7546 53.6558 44.8584 53.6502 44.9621C53.6502 45.4466 53.3408 45.7242 52.8137 45.7242H51.4743L50.3565 45.7281ZM50.8492 44.4173C50.2636 44.4173 49.6788 44.4173 49.0948 44.4173C48.7128 44.4173 48.5168 44.5946 48.513 44.9313C48.5064 44.999 48.5137 45.0673 48.5342 45.1321C48.5548 45.1968 48.5883 45.2566 48.6326 45.3078C48.7737 45.4238 48.9545 45.4788 49.1355 45.4608H50.3565H51.4743H52.8137C53.202 45.4608 53.393 45.295 53.3956 44.9544C53.4007 44.8849 53.3921 44.815 53.3702 44.7488C53.3484 44.6826 53.3137 44.6215 53.2682 44.5689C53.1496 44.4635 52.9944 44.4099 52.8366 44.4198C52.1759 44.4198 51.5125 44.4173 50.8492 44.4173Z" fill="#004999"/>
<path d="M57.3361 45.5995H55.5536C55.1335 45.5995 54.8381 45.4106 54.833 44.9698C54.833 44.4982 55.1322 44.2925 55.5791 44.2913C56.8051 44.2913 58.0312 44.2913 59.2573 44.2913C59.6749 44.2913 59.9651 44.4904 59.9753 44.9338C59.9881 45.417 59.6774 45.602 59.2331 45.602L57.3361 45.5995Z" fill="#004999"/>
<path d="M59.2392 45.7293H55.5598C55.0263 45.7293 54.7182 45.453 54.7118 44.9724C54.7056 44.8684 54.7204 44.7642 54.7552 44.6662C54.79 44.5681 54.8441 44.4782 54.9143 44.4018C55.0044 44.3189 55.1101 44.2552 55.2252 44.2146C55.3403 44.1739 55.4623 44.1572 55.5839 44.1653C56.8227 44.1653 58.0348 44.1653 59.2647 44.1653C59.7816 44.1653 60.0973 44.4532 60.1088 44.9287C60.1174 45.0315 60.1049 45.1351 60.0721 45.2328C60.0392 45.3305 59.9867 45.4204 59.9178 45.4967C59.8261 45.5797 59.7187 45.6431 59.6021 45.6831C59.4855 45.7231 59.362 45.7388 59.2392 45.7293ZM57.3358 45.4722H59.2392C59.328 45.4807 59.4177 45.4713 59.5029 45.4446C59.5881 45.4179 59.6672 45.3745 59.7357 45.3168C59.7807 45.2642 59.8144 45.2028 59.8348 45.1365C59.8551 45.0701 59.8617 45.0003 59.8541 44.9312C59.8465 44.592 59.6466 44.4172 59.2634 44.4172C58.0348 44.4172 56.8227 44.4172 55.5852 44.4172C55.4074 44.403 55.2312 44.4602 55.0951 44.5766C55.0494 44.6289 55.0145 44.6901 54.9927 44.7563C54.9708 44.8225 54.9623 44.8925 54.9677 44.9621C54.9677 45.2949 55.1714 45.4645 55.561 45.4645L57.3358 45.4722Z" fill="#004999"/>
<path d="M70.3566 45.5982C69.72 45.5982 69.0834 45.5982 68.4545 45.5982C68.0343 45.5982 67.7504 45.4003 67.7529 44.9557C67.7555 44.511 68.0343 44.3003 68.4519 44.2977C69.6979 44.2883 70.9448 44.2883 72.1925 44.2977C72.6114 44.2977 72.8927 44.511 72.8915 44.9518C72.8902 45.3926 72.6292 45.6021 72.1963 45.6008C71.5826 45.5965 70.9694 45.5956 70.3566 45.5982Z" fill="#004999"/>
<path d="M69.1826 45.7279C68.9394 45.7279 68.6962 45.7279 68.4543 45.7279C67.9247 45.7279 67.623 45.4427 67.6255 44.9569C67.6281 44.4711 67.9362 44.1743 68.4505 44.1704C69.6091 44.1614 70.8339 44.1614 72.1936 44.1704C72.7118 44.1704 73.0199 44.466 73.0186 44.9531C73.0249 45.0614 73.0077 45.1697 72.9684 45.2707C72.929 45.3716 72.8684 45.4628 72.7907 45.5378C72.6239 45.6738 72.4129 45.7425 72.1987 45.7305C71.6046 45.7305 71.0075 45.7305 70.4074 45.7305H69.1851L69.1826 45.7279ZM70.3055 44.4172C69.6689 44.4172 69.0489 44.4172 68.4518 44.4236C68.1972 44.4236 67.8814 44.5187 67.8801 44.9543C67.8801 45.2975 68.066 45.4684 68.4556 45.4684C68.9432 45.4684 69.4296 45.4684 69.9172 45.4684H70.4036C70.9977 45.4684 71.5952 45.4684 72.1962 45.4684C72.348 45.4798 72.4986 45.434 72.6189 45.3399C72.6691 45.2887 72.7078 45.2272 72.7324 45.1595C72.757 45.0919 72.7669 45.0197 72.7615 44.9479C72.7615 44.5161 72.4508 44.4236 72.1898 44.4223C71.5341 44.4185 70.9077 44.4172 70.3055 44.4172Z" fill="#004999"/>
<path d="M76.7911 45.6008H74.9578C74.5122 45.6008 74.2066 45.4209 74.2155 44.9326C74.2244 44.4866 74.5173 44.29 74.931 44.29C76.1558 44.284 77.381 44.284 78.6067 44.29C79.0485 44.29 79.3578 44.4879 79.3489 44.9673C79.34 45.4466 79.0064 45.6021 78.571 45.5982C77.979 45.5957 77.387 45.5995 76.7911 45.6008Z" fill="#004999"/>
<path d="M78.5861 45.7293H78.5734C78.1507 45.7293 77.7293 45.7293 77.3002 45.7293H74.9525C74.8308 45.7387 74.7084 45.7233 74.5927 45.684C74.477 45.6447 74.3703 45.5823 74.279 45.5005C74.2104 45.4234 74.1579 45.3332 74.1247 45.2351C74.0914 45.1371 74.0781 45.0333 74.0855 44.93C74.0957 44.4468 74.4025 44.1679 74.927 44.1653C76.036 44.1589 77.2047 44.1589 78.6052 44.1653C78.7271 44.1569 78.8494 44.1735 78.9647 44.2141C79.0801 44.2548 79.186 44.3186 79.2762 44.4018C79.3456 44.4787 79.3989 44.5691 79.4328 44.6674C79.4667 44.7656 79.4806 44.8698 79.4735 44.9737C79.4646 45.3193 79.3106 45.7293 78.5861 45.7293ZM77.8655 45.4723H78.5721H78.5874C79.1374 45.4723 79.224 45.2152 79.224 44.9685C79.2298 44.8989 79.2216 44.8288 79.1997 44.7625C79.1778 44.6962 79.1427 44.6351 79.0967 44.583C78.9592 44.4692 78.7839 44.4127 78.6065 44.4249C77.206 44.4249 76.0385 44.4249 74.9309 44.4249C74.5489 44.4249 74.3503 44.5997 74.3427 44.939C74.3368 45.0086 74.3451 45.0787 74.367 45.145C74.3889 45.2112 74.4239 45.2723 74.47 45.3245C74.6076 45.4385 74.7842 45.493 74.9614 45.4761H77.8719L77.8655 45.4723Z" fill="#004999"/>
<path d="M60.622 50.412C60.8766 50.412 61.1643 50.3349 61.3693 50.4339C61.5743 50.5328 61.8786 50.8078 61.8786 51.0147C61.8786 51.2216 61.6239 51.6161 61.4355 51.6573C60.9186 51.7517 60.389 51.7517 59.8721 51.6573C59.6645 51.6187 59.4023 51.2281 59.3908 50.9852C59.3819 50.804 59.704 50.5431 59.9319 50.43C60.1203 50.3375 60.3877 50.412 60.622 50.412Z" fill="#004999"/>
<path d="M60.6218 51.8552C60.3656 51.8556 60.1099 51.8324 59.8579 51.7858C59.5791 51.7318 59.2863 51.2872 59.2723 50.9929C59.2583 50.6986 59.7217 50.3966 59.8847 50.3157C60.0556 50.2522 60.2404 50.2367 60.4194 50.2707C60.4879 50.2789 60.5567 50.2836 60.6257 50.2848C60.697 50.2848 60.7721 50.2848 60.8523 50.2707C61.0441 50.2361 61.2415 50.2525 61.4252 50.3182C61.6557 50.4287 62.0007 50.7256 62.0121 51.0109C62.0223 51.2679 61.7308 51.7305 61.4647 51.7819C61.1865 51.8317 60.9044 51.8562 60.6218 51.8552ZM60.1813 50.5136C60.1168 50.5102 60.0524 50.5216 59.9929 50.547C59.7459 50.6755 59.518 50.8952 59.5231 50.98C59.5333 51.1857 59.7777 51.5082 59.905 51.5326C60.4068 51.6225 60.9206 51.6199 61.4214 51.5249C61.5385 51.5044 61.7664 51.1895 61.7601 51.0212C61.7601 50.8927 61.5322 50.6536 61.3183 50.5508C61.1751 50.5069 61.0235 50.4985 60.8765 50.5264C60.7937 50.5341 60.7097 50.5393 60.6218 50.5418C60.5454 50.5418 60.4678 50.5341 60.3914 50.5277C60.3204 50.5189 60.249 50.5137 60.1775 50.5123L60.1813 50.5136Z" fill="#004999"/>
<path d="M75.4953 50.4095C75.727 50.4095 76.0046 50.3311 76.179 50.4288C76.4196 50.5573 76.7405 50.8259 76.7405 51.0341C76.7405 51.2422 76.4375 51.6149 76.2096 51.6676C75.7575 51.7736 75.2877 51.7762 74.8345 51.6753C74.5901 51.6162 74.2947 51.2821 74.24 51.0238C74.1572 50.6383 74.4691 50.4198 74.8638 50.4044C75.0739 50.3954 75.2852 50.4044 75.5004 50.4044L75.4953 50.4095Z" fill="#004999"/>
<path d="M75.499 51.877C75.2655 51.878 75.0328 51.8521 74.8051 51.7999C74.5186 51.7318 74.1825 51.3681 74.115 51.0507C74.0937 50.9667 74.0914 50.879 74.1084 50.794C74.1254 50.7089 74.1612 50.6289 74.2131 50.5598C74.2941 50.4684 74.3938 50.3958 74.5051 50.3468C74.6165 50.2977 74.7371 50.2736 74.8586 50.2758C75.0063 50.2758 75.1552 50.2758 75.3004 50.2758H75.6225L75.704 50.2681C75.8835 50.2311 76.0699 50.2481 76.24 50.3169C76.4577 50.4352 76.8676 50.7372 76.8676 51.0353C76.8676 51.3334 76.5264 51.7267 76.2387 51.7948C75.996 51.85 75.7478 51.8776 75.499 51.877ZM75.103 50.5277C75.0241 50.5277 74.9464 50.5277 74.8688 50.5277C74.7844 50.5249 74.7004 50.5399 74.6221 50.5718C74.5439 50.6036 74.4731 50.6517 74.4142 50.7127C74.3855 50.7526 74.366 50.7985 74.3574 50.847C74.3488 50.8956 74.3513 50.9455 74.3646 50.9929C74.4104 51.2114 74.6714 51.5069 74.8637 51.5455C75.2979 51.6422 75.7481 51.6401 76.1814 51.539C76.3507 51.4992 76.6143 51.1908 76.613 51.025C76.613 50.9081 76.3775 50.6742 76.119 50.5328C75.993 50.4925 75.8588 50.4858 75.7294 50.5136C75.6518 50.5213 75.5728 50.529 75.4952 50.529H75.3678V50.5213H75.103V50.5277Z" fill="#004999"/>
<path d="M23.4007 56.2823C23.2505 56.5265 23.1627 56.7501 23.0086 56.9069C19.5337 60.4254 16.0537 63.9401 12.5686 67.4509C12.2605 67.7619 11.9078 67.8981 11.5628 67.5652C11.1923 67.2093 11.3184 66.8353 11.6468 66.5025C15.1268 62.99 18.6119 59.4817 22.1021 55.9778C22.2854 55.7953 22.6687 55.7387 22.9462 55.7619C23.1028 55.7747 23.2327 56.0767 23.4007 56.2823Z" fill="#E33C5C"/>
<path d="M11.9871 67.8222C11.8101 67.8162 11.6424 67.7406 11.5198 67.6114C11.4471 67.5494 11.3878 67.4729 11.3458 67.3866C11.3037 67.3004 11.2797 67.2063 11.2754 67.1103C11.2754 66.8995 11.3823 66.6798 11.6039 66.4575L13.5289 64.5131C16.3197 61.6963 19.206 58.7817 22.0591 55.9314C22.2565 55.7348 22.6499 55.6744 22.9503 55.6975C23.0853 55.7091 23.1833 55.8582 23.2967 56.0304C23.3417 56.1035 23.3911 56.1739 23.4443 56.2411L23.4736 56.2771L23.4494 56.3157C23.3998 56.3966 23.3578 56.475 23.3221 56.5483C23.2521 56.6947 23.1621 56.8305 23.0547 56.9518C20.2856 59.7558 17.4668 62.6061 14.7397 65.3536L12.6237 67.4971C12.3805 67.7361 12.1692 67.8222 11.9871 67.8222ZM22.823 55.8209C22.5786 55.8209 22.2921 55.88 22.1495 56.024C19.2951 58.873 16.4101 61.7862 13.6193 64.6044L11.6943 66.5474C11.4982 66.7453 11.4002 66.9329 11.4027 67.109C11.4073 67.1879 11.4281 67.2651 11.4635 67.3356C11.499 67.4062 11.5485 67.4686 11.609 67.5189C11.8852 67.7862 12.1857 67.7489 12.5244 67.4058L14.648 65.2636C17.3739 62.511 20.1939 59.6646 22.9618 56.8618C23.0608 56.7488 23.144 56.6225 23.2088 56.4866C23.2432 56.4223 23.2801 56.3581 23.3208 56.2874C23.275 56.2283 23.233 56.1589 23.1935 56.1023C23.1108 55.9738 23.0166 55.8325 22.9389 55.8261C22.9071 55.8222 22.8676 55.8209 22.8256 55.8209H22.823Z" fill="#E33C5C"/>
<path d="M60.6956 89.459C60.6956 88.4562 59.8902 87.6432 58.8966 87.6432C57.9031 87.6432 57.0977 88.4562 57.0977 89.459C57.0977 90.4618 57.9031 91.2748 58.8966 91.2748C59.8902 91.2748 60.6956 90.4618 60.6956 89.459Z" fill="#E33C5C"/>
<path d="M58.8966 91.3378C58.5281 91.338 58.1678 91.2279 57.8613 91.0214C57.5548 90.815 57.3159 90.5213 57.1747 90.1778C57.0336 89.8342 56.9966 89.456 57.0684 89.0912C57.1403 88.7264 57.3177 88.3913 57.5783 88.1283C57.8388 87.8653 58.1708 87.6862 58.5323 87.6137C58.8937 87.5412 59.2683 87.5785 59.6088 87.721C59.9492 87.8635 60.2401 88.1046 60.4446 88.414C60.6492 88.7234 60.7583 89.087 60.758 89.459C60.7573 89.9571 60.561 90.4345 60.2121 90.7867C59.8631 91.1389 59.3901 91.3371 58.8966 91.3378ZM58.8966 87.7074C58.5534 87.7072 58.2177 87.8097 57.9322 88.002C57.6467 88.1943 57.424 88.4678 57.2925 88.7878C57.161 89.1078 57.1264 89.4601 57.1932 89.7999C57.26 90.1398 57.4252 90.452 57.6678 90.6971C57.9105 90.9422 58.2197 91.1091 58.5563 91.1768C58.893 91.2445 59.242 91.2099 59.5592 91.0773C59.8763 90.9448 60.1474 90.7203 60.3381 90.4322C60.5289 90.1442 60.6307 89.8055 60.6307 89.459C60.63 88.995 60.4471 88.5502 60.1221 88.2221C59.797 87.894 59.3563 87.7094 58.8966 87.7087V87.7074Z" fill="#E33C5C"/>
<path d="M50.6849 89.459C50.6849 88.4562 49.8795 87.6432 48.8859 87.6432C47.8923 87.6432 47.0869 88.4562 47.0869 89.459C47.0869 90.4618 47.8923 91.2748 48.8859 91.2748C49.8795 91.2748 50.6849 90.4618 50.6849 89.459Z" fill="#E33C5C"/>
<path d="M48.8846 91.3378C48.5162 91.3378 48.156 91.2275 47.8497 91.0208C47.5433 90.8142 47.3046 90.5205 47.1636 90.1769C47.0227 89.8333 46.9859 89.4552 47.0579 89.0904C47.1298 88.7257 47.3074 88.3907 47.568 88.1278C47.8286 87.865 48.1606 87.686 48.522 87.6136C48.8834 87.5412 49.258 87.5786 49.5983 87.7211C49.9386 87.8636 50.2295 88.1048 50.434 88.4141C50.6385 88.7235 50.7475 89.0871 50.7473 89.459C50.7466 89.9573 50.5501 90.435 50.2009 90.7872C49.8517 91.1394 49.3783 91.3374 48.8846 91.3378ZM48.8846 87.7074C48.5414 87.7074 48.2059 87.8102 47.9205 88.0026C47.6351 88.1951 47.4127 88.4686 47.2814 88.7887C47.15 89.1087 47.1157 89.4609 47.1826 89.8007C47.2496 90.1405 47.4149 90.4526 47.6576 90.6975C47.9002 90.9425 48.2095 91.1093 48.5461 91.1769C48.8827 91.2445 49.2316 91.2098 49.5487 91.0772C49.8658 90.9446 50.1368 90.7201 50.3275 90.4321C50.5182 90.1441 50.6199 89.8054 50.6199 89.459C50.6193 88.9948 50.4362 88.5498 50.1109 88.2217C49.7855 87.8935 49.3445 87.7091 48.8846 87.7087V87.7074Z" fill="#E33C5C"/>
<path d="M40.6727 89.459C40.6727 88.4562 39.8672 87.6432 38.8737 87.6432C37.8801 87.6432 37.0747 88.4562 37.0747 89.459C37.0747 90.4618 37.8801 91.2748 38.8737 91.2748C39.8672 91.2748 40.6727 90.4618 40.6727 89.459Z" fill="#E33C5C"/>
<path d="M38.8724 91.3378C38.504 91.3378 38.1438 91.2275 37.8374 91.0208C37.5311 90.8142 37.2924 90.5205 37.1514 90.1769C37.0105 89.8333 36.9737 89.4552 37.0456 89.0904C37.1176 88.7257 37.2951 88.3907 37.5558 88.1278C37.8164 87.865 38.1484 87.686 38.5098 87.6136C38.8712 87.5412 39.2458 87.5786 39.5861 87.7211C39.9264 87.8636 40.2172 88.1048 40.4218 88.4141C40.6263 88.7235 40.7353 89.0871 40.7351 89.459C40.7344 89.9573 40.5379 90.435 40.1887 90.7872C39.8395 91.1394 39.3661 91.3374 38.8724 91.3378ZM38.8724 87.7074C38.5292 87.7074 38.1937 87.8102 37.9083 88.0026C37.6229 88.1951 37.4005 88.4686 37.2692 88.7887C37.1378 89.1087 37.1035 89.4609 37.1704 89.8007C37.2374 90.1405 37.4027 90.4526 37.6453 90.6975C37.888 90.9425 38.1972 91.1093 38.5339 91.1769C38.8705 91.2445 39.2194 91.2098 39.5365 91.0772C39.8536 90.9446 40.1246 90.7201 40.3153 90.4321C40.506 90.1441 40.6077 89.8054 40.6077 89.459C40.6067 88.9949 40.4235 88.5501 40.0983 88.222C39.773 87.894 39.3322 87.7094 38.8724 87.7087V87.7074Z" fill="#E33C5C"/>
</g>
<defs>
<clipPath id="clip0_323_200">
<rect width="95" height="96" fill="white"/>
</clipPath>
</defs>
</svg>
