<svg width="123" height="113" viewBox="0 0 123 113" fill="none" xmlns="http://www.w3.org/2000/svg">
<g clip-path="url(#clip0_322_84)">
<path d="M79.6409 92.4652V110.508H85.6944C88.2253 110.508 90.7563 110.449 93.2807 110.554C93.8939 110.554 94.481 111.149 95.0811 111.47C94.4614 111.856 93.8483 112.555 93.222 112.568C88.7798 112.666 84.331 112.627 79.8888 112.627H30.9197C30.4671 112.704 30.0038 112.69 29.5564 112.588C28.9801 112.263 28.44 111.877 27.9451 111.437C28.48 111.13 29.0084 110.561 29.5498 110.554C33.5289 110.476 37.5146 110.515 41.5002 110.515H43.9594V92.4718H7.96482C2.70066 92.4718 0.332764 90.1567 0.332764 84.9641C0.332764 63.3961 0.332764 41.8324 0.332764 20.2731C0.332764 15.3749 2.77893 12.9421 7.69085 12.9029C9.83695 12.9029 11.9896 12.844 14.1292 12.9617C14.6836 12.9617 15.2055 13.5699 15.7469 13.8969C15.1729 14.2631 14.6184 14.8975 14.0248 14.9367C12.0679 15.0675 10.0457 14.9825 8.05614 14.989C3.75088 14.989 2.30927 16.4343 2.30275 20.829C2.30275 29.6642 2.30275 38.4863 2.30275 47.3345C2.30275 58.1382 2.19838 68.9156 2.16576 79.7324C2.16576 81.727 2.23099 83.7216 2.32232 85.7162C2.46582 88.6199 4.03137 90.2548 6.8885 90.4706C8.03657 90.5556 9.19116 90.4706 10.3392 90.4706H114.253C119.432 90.4706 120.724 89.1627 120.724 83.9309C120.724 62.9645 120.724 41.9959 120.724 21.0252C120.724 16.3428 119.373 14.9956 114.703 14.9956H93.3068C92.6977 15.0497 92.0841 15.0277 91.4804 14.9302C91.1216 14.8386 90.5476 14.2762 90.6063 14.1062C90.6732 13.8742 90.7878 13.6589 90.9429 13.4742C91.098 13.2895 91.2899 13.1394 91.5065 13.0336C92.1021 12.8916 92.7175 12.8518 93.3264 12.9159C100.606 12.9159 107.886 12.9159 115.166 12.9159C120.234 12.9159 122.667 15.3291 122.667 20.3581C122.667 41.9436 122.667 63.5247 122.667 85.1015C122.667 90.0324 120.26 92.4587 115.368 92.4652C104.409 92.4652 93.4503 92.4652 82.4915 92.4652H79.6409ZM46.3338 110.391H77.41V92.6352H46.3338V110.391Z" fill="#004999"/>
<path d="M30.0521 113C29.8286 113.01 29.6058 112.969 29.3998 112.882C28.9617 112.658 28.554 112.379 28.1865 112.052C28.0364 111.934 27.8864 111.81 27.7298 111.699L27.3254 111.398L27.7624 111.149C27.919 111.058 28.0756 110.94 28.2386 110.822C28.5999 110.49 29.0563 110.279 29.5433 110.221C32.57 110.162 35.6554 110.168 38.6365 110.175H43.6332V92.7988H7.96477C2.53753 92.7988 0.00656122 90.3072 0.00656122 84.9511C-0.0108338 63.3962 -0.0195312 41.8347 -0.0195312 20.2666C-0.0195312 15.1983 2.58972 12.6086 7.66471 12.5694H8.46053C10.3327 12.5694 12.27 12.5301 14.1683 12.6348C14.6583 12.7178 15.1126 12.9455 15.4729 13.2887C15.6259 13.4129 15.7872 13.5265 15.9556 13.6288L16.3992 13.9035L15.9556 14.1847C15.786 14.2959 15.6229 14.4332 15.4533 14.564C15.0806 14.9335 14.6055 15.1819 14.09 15.2768C12.6679 15.3684 11.2263 15.3553 9.83038 15.3357H8.05609C3.90739 15.3357 2.63538 16.6436 2.62886 20.8487C2.62886 24.9077 2.62886 28.9667 2.62886 33.0257C2.62886 37.7997 2.62886 42.5758 2.62886 47.3542C2.62886 52.9043 2.60494 58.4587 2.5571 64.0174C2.53101 69.2492 2.50927 74.4963 2.49187 79.7586C2.49187 81.8905 2.57015 83.9702 2.64843 85.7228C2.77889 88.4695 4.21397 89.9605 6.91455 90.1633C7.71037 90.2221 8.52576 90.2091 9.32158 90.1633H114.239C119.236 90.1633 120.384 88.9927 120.384 83.9244V21.0122C120.384 16.5324 119.158 15.3095 114.69 15.3095H93.3068H92.8371C92.3547 15.3475 91.8693 15.3167 91.3955 15.218C90.9715 15.0668 90.6092 14.7794 90.3649 14.4005C90.3242 14.341 90.2967 14.2734 90.2843 14.2023C90.2719 14.1312 90.2749 14.0583 90.2931 13.9885C90.3709 13.7032 90.5099 13.4384 90.7003 13.2125C90.8907 12.9866 91.128 12.8051 91.3955 12.6805C91.8881 12.5345 92.4043 12.4857 92.9154 12.5367H95.3094C101.933 12.5367 108.551 12.5367 115.166 12.5367C120.43 12.5367 122.994 15.0872 122.994 20.3059C122.994 41.8913 122.994 63.4725 122.994 85.0492C122.994 90.1502 120.43 92.7334 115.368 92.7399H79.967V110.129H85.6943H87.7295C89.556 110.129 91.4412 110.129 93.2937 110.188C93.809 110.263 94.2939 110.478 94.6962 110.809C94.8789 110.927 95.055 111.045 95.2376 111.143L95.7334 111.411L95.2507 111.712C95.0582 111.836 94.8731 111.971 94.6962 112.117C94.315 112.529 93.8118 112.806 93.2611 112.908C89.8104 112.987 86.301 112.98 82.9089 112.974H30.9196C30.7892 112.974 30.6522 112.974 30.5152 112.974C30.3782 112.974 30.2021 113 30.0521 113ZM28.4996 111.457L28.617 111.548C28.9455 111.836 29.3068 112.084 29.6933 112.287C29.9444 112.346 30.2054 112.346 30.4565 112.287C30.6106 112.274 30.7655 112.274 30.9196 112.287H82.8763C86.2683 112.287 89.7712 112.287 93.2155 112.222C93.6228 112.125 93.9954 111.917 94.2918 111.62L94.4875 111.47L94.3374 111.372C94.0281 111.116 93.6606 110.941 93.2676 110.862C91.4281 110.783 89.5495 110.796 87.736 110.803H85.6943H79.3147V92.1383H115.368C120.058 92.1383 122.341 89.8363 122.341 85.1015C122.341 63.5161 122.341 41.9349 122.341 20.3582C122.341 15.5123 120.058 13.2495 115.166 13.243C108.547 13.243 101.928 13.243 95.3094 13.243H92.9024C92.4647 13.199 92.0228 13.2344 91.5977 13.3476C91.2934 13.5222 91.0619 13.8008 90.9454 14.1324C91.1063 14.3451 91.32 14.512 91.5651 14.6163C91.9773 14.6975 92.3988 14.7217 92.8176 14.6882H93.3133H114.696C119.562 14.6882 121.043 16.1728 121.043 21.0449V83.9505C121.043 89.3589 119.582 90.8369 114.246 90.8434H9.32158C8.51271 90.8434 7.67775 90.8434 6.85584 90.8434C3.81607 90.6145 2.1331 88.8815 1.98959 85.7751C1.90479 84.0159 1.81999 81.9298 1.82651 79.7782C1.82651 74.5464 1.84826 69.2994 1.89174 64.0371C1.92219 58.4521 1.93741 52.8825 1.93741 47.328C1.93741 42.554 1.93741 37.7779 1.93741 32.9995C1.93741 28.9405 1.93741 24.8815 1.93741 20.8225C1.93741 16.2774 3.53557 14.6621 8.01043 14.6555H9.75863C11.1415 14.6555 12.5701 14.6555 13.966 14.5967C14.3482 14.5009 14.6989 14.3071 14.9837 14.0343L15.1533 13.8969L15.0163 13.7923C14.7544 13.5444 14.4331 13.3687 14.0835 13.2822C12.2048 13.1776 10.2805 13.1972 8.41487 13.2168H7.69732C2.96154 13.2626 0.632781 15.5646 0.632781 20.2666C0.632781 41.8303 0.632781 63.394 0.632781 84.9577C0.632781 89.9867 2.81803 92.1514 7.93868 92.1514H44.2855V110.842H38.6365C35.6554 110.842 32.5765 110.842 29.5563 110.888C29.2148 110.962 28.8995 111.127 28.6431 111.365L28.4996 111.457ZM77.7361 110.718H46.0076V92.2887H77.7361V110.718ZM46.6599 110.064H77.0838V92.9427H46.6599V110.064Z" fill="#004999"/>
<path d="M92.2761 36.3479C92.8738 35.8632 93.5839 35.5375 94.3406 35.4013C95.0973 35.265 95.8761 35.3224 96.6047 35.5683C97.3333 35.8142 97.9883 36.2406 98.5087 36.8078C99.0292 37.3751 99.3984 38.065 99.582 38.8134C99.6864 39.1666 99.7973 39.7421 99.6146 39.9252C97.0054 42.5803 99.732 44.758 100.13 47.1189C103.907 47.6355 103.926 47.6617 103.809 52.3899C103.744 54.7442 103.424 55.0058 100.319 55.2739C99.7059 56.68 99.0145 58.1056 98.4861 59.6098C98.4381 59.9139 98.4558 60.2248 98.5379 60.5216C98.6201 60.8183 98.7648 61.0939 98.9623 61.3297C100.058 62.6769 99.9212 63.841 98.7079 64.9593C97.9125 65.7839 97.0386 66.5286 96.0987 67.1828C95.5377 67.5163 94.2852 67.719 94.0569 67.4247C92.5175 65.4628 91.0824 66.7708 89.4907 67.222C87.586 67.7648 87.0511 68.7785 87.162 70.6684C87.3446 73.8075 87.2337 76.9597 87.3381 80.1053C87.4425 83.0547 87.0315 83.5713 83.9722 83.5713C63.533 83.5713 43.0787 83.5713 22.6091 83.5713C19.9673 83.5713 19.5498 83.1397 19.5498 80.465C19.5498 54.8118 19.5498 29.1564 19.5498 3.49887C19.5498 0.660623 19.9021 0.320557 22.7396 0.320557H84.1026C87.0837 0.320557 87.3185 0.575606 87.3185 3.68198C87.3185 12.9749 87.3838 22.2679 87.2729 31.5609C87.2729 33.5228 87.5599 34.7522 89.6603 35.1642C90.5725 35.4625 91.4496 35.8594 92.2761 36.3479ZM21.5589 81.3217H85.2833V2.62254H21.5589V81.3217ZM97.5337 63.1281C95.5768 60.7477 95.5768 60.7477 96.9532 57.9814C97.1696 57.5765 97.3466 57.1516 97.4816 56.7127C98.0491 54.5088 98.5383 52.2526 101.702 53.2204V49.2966C99.008 49.9506 97.9512 48.5772 97.6772 46.2491C97.6048 45.78 97.4288 45.3332 97.1619 44.9411C95.903 42.9792 94.7418 41.0173 97.0967 39.7944L94.9897 36.5768C93.5285 39.1535 91.9434 38.9377 90.1039 37.5839C89.3733 37.0542 88.3883 36.8711 87.2859 36.4395C87.1934 37.9648 87.2131 39.4949 87.3446 41.0173C87.4688 42.0036 87.9298 42.9164 88.6492 43.6005C93.8286 47.6355 93.8677 54.8423 88.6492 58.8119C88.0337 59.2084 87.5855 59.8184 87.3903 60.5253C87.2207 62.2518 87.3316 64.011 87.3316 65.8421C90.0191 66.3326 92.3935 60.9831 95.0093 65.7898L97.5337 63.1281ZM87.3903 57.0069C91.552 53.6717 91.4607 47.9952 87.3903 45.7782V57.0069Z" fill="#004999"/>
<path d="M50.2542 83.9047H22.5701C19.7521 83.9047 19.1846 83.3227 19.1846 80.4714C19.1846 54.8182 19.1846 29.1628 19.1846 3.50529C19.1846 0.490479 19.6803 0 22.7005 0H84.0635C87.2403 0 87.6056 0.379304 87.6056 3.68841C87.6056 5.86832 87.6056 8.06131 87.6056 10.2674C87.6056 17.2518 87.6056 24.4717 87.5469 31.5738C87.5469 33.5357 87.8339 34.4905 89.6669 34.8437C90.3147 35.0054 90.9363 35.2586 91.513 35.5958C91.7413 35.7135 91.9696 35.8377 92.2174 35.9554C92.8366 35.4912 93.5578 35.1825 94.3204 35.055C95.0831 34.9276 95.8651 34.9852 96.601 35.223C97.3875 35.4923 98.0962 35.9509 98.6648 36.5586C99.2334 37.1663 99.6447 37.9046 99.8625 38.7087C100.065 39.4215 100.052 39.8989 99.8104 40.1409C98.1665 41.8281 98.8319 43.2276 99.6016 44.8495C99.9547 45.4849 100.235 46.1585 100.437 46.8572C104.187 47.3803 104.292 47.6223 104.168 52.429C104.103 54.9272 103.659 55.3523 100.574 55.6204L100.123 56.6144C99.6351 57.6332 99.1997 58.6766 98.8189 59.7404C98.7904 59.9929 98.8127 60.2486 98.8844 60.4923C98.9561 60.7361 99.0758 60.9629 99.2363 61.1596C100.417 62.6048 100.326 63.9782 98.9558 65.2338C98.7862 65.3908 98.6166 65.5477 98.4536 65.7112C97.793 66.3781 97.065 66.9743 96.2814 67.49C95.6943 67.8497 94.2135 68.144 93.8156 67.66C92.7589 66.3129 91.8261 66.6922 90.6389 67.1827C90.2931 67.32 89.9344 67.4639 89.5691 67.5685C87.9122 68.0394 87.3643 68.8764 87.4751 70.6814C87.586 72.4864 87.586 74.3175 87.5926 76.0898C87.5926 77.3977 87.5926 78.7841 87.6513 80.1248C87.71 81.6682 87.6513 82.6164 87.0577 83.2115C86.4641 83.8066 85.4856 83.9309 83.9592 83.9309L50.2542 83.9047ZM34.964 0.653973H22.7071C20.0587 0.653973 19.8434 0.869783 19.8434 3.50529C19.8434 29.1628 19.8434 54.8182 19.8434 80.4714C19.8434 82.963 20.1239 83.2442 22.5766 83.2508C43.0157 83.2508 63.4701 83.2508 83.9396 83.2508C85.4921 83.2508 86.2031 83.1069 86.5489 82.7276C86.8946 82.3483 87.0055 81.4196 86.9598 80.1117C86.9141 78.8038 86.9076 77.3781 86.9011 76.0505C86.9011 74.2848 86.9011 72.4668 86.7837 70.6814C86.6598 68.5495 87.4034 67.4508 89.3538 66.9014C89.6929 66.7978 90.0261 66.6756 90.3518 66.5352C91.5586 66.0382 92.9285 65.4758 94.2657 67.1892C94.8224 67.2413 95.3822 67.1299 95.8769 66.8687C96.6206 66.3747 97.3114 65.8049 97.9382 65.1684L98.4536 64.6845C99.5625 63.6643 99.6277 62.6833 98.6688 61.5062C98.4383 61.2261 98.2711 60.8992 98.1787 60.5481C98.0864 60.197 98.0711 59.8299 98.1339 59.4723C98.5102 58.3854 98.9458 57.32 99.4386 56.2809L99.9604 55.1103L100.039 54.9337H100.234C103.274 54.6787 103.365 54.476 103.424 52.3636C103.535 47.9035 103.535 47.9035 100.026 47.4261L99.7843 47.3934L99.7451 47.1515C99.5861 46.4443 99.3315 45.7622 98.9884 45.1241C98.2253 43.5154 97.3511 41.6908 99.3211 39.6765C99.3374 39.408 99.2997 39.1389 99.2102 38.8852C99.0257 38.1795 98.6684 37.5311 98.1706 36.9989C97.6728 36.4667 97.0503 36.0676 96.3596 35.8377C95.6964 35.6299 94.9923 35.5892 94.3096 35.7192C93.6269 35.8493 92.9868 36.146 92.4458 36.5833L92.2892 36.7075L92.1066 36.629C91.7869 36.4786 91.4869 36.3217 91.1933 36.1713C90.6731 35.8649 90.1134 35.6317 89.5299 35.478C87.0446 34.9941 86.8554 33.3461 86.8815 31.5542C86.9663 24.4521 86.9533 17.2322 86.9402 10.2543C86.9402 8.06349 86.9402 5.86614 86.9402 3.67533C86.9402 0.732449 86.8554 0.647433 84.0505 0.640893L34.964 0.653973ZM85.6095 81.6485H21.2328V2.29545H85.6095V81.6485ZM21.8851 80.9946H84.9572V2.94942H21.8851V80.9946ZM94.9441 66.339L94.7289 65.9466C94.1548 64.8872 93.5743 64.2986 92.9546 64.1417C92.1522 63.9324 91.2977 64.4883 90.3975 65.0769C89.4973 65.6654 88.4014 66.3848 87.2794 66.1625L87.012 66.1167V65.8224C87.012 65.2992 87.012 64.7891 87.012 64.279C86.9691 63.0098 86.9952 61.7392 87.0903 60.4729C87.1751 59.6358 88.0818 58.8576 88.4667 58.5633C89.6137 57.726 90.5517 56.6336 91.207 55.3719C91.8623 54.1102 92.2171 52.7134 92.2435 51.2911C92.2307 49.8474 91.8841 48.4264 91.231 47.1396C90.5779 45.8528 89.6362 44.7354 88.4797 43.8751C87.7062 43.1325 87.2091 42.1472 87.0707 41.0826C86.9466 40.0827 86.916 39.0734 86.9794 38.0678C86.9794 37.5642 87.012 37.0345 87.012 36.4655V36.0012L87.4556 36.1778C87.8143 36.3217 88.1601 36.4328 88.4862 36.5375C89.1454 36.7151 89.7728 36.9954 90.3453 37.368C91.3694 38.1135 92.1653 38.3948 92.8502 38.2509C93.5351 38.107 94.1548 37.5184 94.7549 36.459L95.0224 35.9947L97.6316 39.9643L97.312 40.1343C97.0481 40.2439 96.8105 40.4084 96.6148 40.6169C96.4191 40.8255 96.2699 41.0734 96.177 41.3442C95.9356 42.2663 96.601 43.4107 97.4816 44.8102C97.7702 45.2339 97.9618 45.7162 98.0426 46.2228C98.1926 47.4915 98.5645 48.3221 99.1842 48.7537C99.5574 48.9691 99.9725 49.1016 100.401 49.1422C100.83 49.1828 101.263 49.1306 101.669 48.9891L102.074 48.8976V53.6585L101.65 53.5342C101.298 53.3837 100.92 53.306 100.538 53.306C100.155 53.306 99.7771 53.3837 99.4255 53.5342C98.4796 54.0509 98.1796 55.3 97.8273 56.6668L97.7817 56.8237C97.665 57.2319 97.5053 57.6265 97.3055 58.0009L97.2337 58.1578C95.9813 60.7737 95.9813 60.7737 97.7752 62.9514L97.9578 63.1803L94.9441 66.339ZM87.6643 65.5477C88.4601 65.5477 89.2233 65.0572 90.0387 64.5275C91.0237 63.8735 92.0348 63.2196 93.1176 63.5073C93.9713 63.8091 94.6735 64.4334 95.0746 65.2469L97.1294 63.1084C95.3094 60.8522 95.3355 60.6233 96.6793 57.8766L96.7575 57.7066C96.9385 57.3714 97.085 57.0186 97.1946 56.6537L97.2337 56.4967C97.5925 55.0907 97.9643 53.6323 99.0863 53.0045C99.8062 52.6481 100.635 52.5825 101.402 52.8214V49.7085C100.961 49.8155 100.503 49.8335 100.055 49.7617C99.6076 49.6898 99.1784 49.5295 98.7928 49.29C98.0165 48.7406 97.5599 47.7662 97.3838 46.3013C97.3124 45.892 97.152 45.5036 96.9141 45.1634C96.1052 43.8947 95.1789 42.4494 95.5116 41.1807C95.6952 40.5672 96.1091 40.049 96.6662 39.7354L95.0354 37.2307C94.8168 37.6297 94.5216 37.9814 94.1666 38.2654C93.8117 38.5494 93.4042 38.76 92.9676 38.8852C92.087 39.0814 91.1281 38.761 89.9409 37.8912C89.4216 37.5646 88.8566 37.3177 88.2644 37.1587C88.0622 37.0933 87.8535 37.028 87.6447 36.9495C87.6447 37.3549 87.6447 37.7342 87.6121 38.107C87.5495 39.0711 87.5779 40.0389 87.6969 40.9976C87.8079 41.9002 88.2193 42.7388 88.8646 43.378C90.0989 44.3013 91.1034 45.4985 91.7994 46.8759C92.4953 48.2532 92.8639 49.7733 92.8763 51.3173C92.8491 52.8393 92.471 54.3344 91.7717 55.6856C91.0723 57.0368 90.0706 58.2075 88.845 59.1061C88.3114 59.4417 87.9139 59.9561 87.723 60.5579C87.6277 61.798 87.6016 63.0425 87.6447 64.2856C87.6187 64.7041 87.6317 65.1226 87.6317 65.5477H87.6643ZM87.0772 57.7V45.2746L87.5599 45.5361C88.4663 46.0186 89.2371 46.7219 89.8014 47.5813C90.3656 48.4407 90.7052 49.4286 90.7889 50.454C90.8648 51.7721 90.6139 53.0886 90.0584 54.2857C89.5029 55.4828 88.6602 56.5233 87.6056 57.3142L87.0772 57.7ZM87.7295 46.3732V56.3071C88.547 55.5835 89.1893 54.6827 89.6075 53.6731C90.0257 52.6634 90.2089 51.5714 90.1431 50.4802C90.0739 49.6524 89.8177 48.8512 89.3939 48.1374C88.9701 47.4235 88.3898 46.8158 87.6969 46.3601L87.7295 46.3732Z" fill="#004999"/>
<path d="M92.8894 80.6088C92.4654 78.6468 93.5417 78.5749 94.6702 78.5945C97.5795 78.6338 100.489 78.7776 103.392 78.6926C104.09 78.6926 104.833 77.9929 105.427 77.4697C106.02 76.9465 106.262 76.0506 106.875 75.7432C109.034 74.6445 109.041 72.8396 109.034 70.7795C108.982 57.578 108.995 44.3765 109.073 31.1749C109.073 29.867 108.943 29.0037 107.508 28.3432C105.27 27.3099 104.429 24.8314 105.081 22.4902C105.361 21.3642 106.018 20.369 106.944 19.6722C107.869 18.9755 109.006 18.6196 110.163 18.6644C111.281 18.6708 112.368 19.0371 113.262 19.7094C114.157 20.3817 114.813 21.3244 115.133 22.3986C115.49 23.5045 115.446 24.701 115.009 25.7776C114.573 26.8543 113.771 27.7419 112.746 28.2844C111.272 28.9907 111.095 29.9193 111.102 31.3057C111.141 42.4363 111.141 53.567 111.102 64.6976C111.102 67.3789 110.932 70.0667 111.05 72.748C111.105 73.1891 111.249 73.6143 111.473 73.9978C111.697 74.3812 111.997 74.7148 112.354 74.978C114.357 76.286 115.655 78.516 115.172 80.7919C114.92 81.8079 114.37 82.7247 113.592 83.4237C112.814 84.1226 111.845 84.5715 110.81 84.7124C109.776 84.8533 108.722 84.6796 107.787 84.2139C106.852 83.7481 106.077 83.0116 105.564 82.0998C104.911 80.7919 104.155 80.563 102.902 80.5826C99.5625 80.648 96.2162 80.6088 92.8894 80.6088ZM113.3 23.8439C113.264 22.9932 112.907 22.1878 112.302 21.5906C111.697 20.9934 110.888 20.6488 110.039 20.6263C109.186 20.6737 108.386 21.0544 107.811 21.6865C107.235 22.3187 106.929 23.1519 106.96 24.0074C106.949 24.4143 107.023 24.819 107.176 25.1959C107.329 25.5729 107.558 25.914 107.849 26.1978C108.141 26.4816 108.487 26.702 108.867 26.845C109.247 26.988 109.653 27.0505 110.058 27.0287C110.481 27.0374 110.901 26.9615 111.294 26.8053C111.687 26.6492 112.045 26.416 112.347 26.1194C112.649 25.8227 112.889 25.4687 113.052 25.078C113.216 24.6872 113.3 24.2677 113.3 23.8439ZM110.039 82.8192C110.918 82.7878 111.756 82.4321 112.39 81.8203C113.024 81.2085 113.411 80.3836 113.476 79.5035C113.535 78.0648 111.95 76.3645 110.463 76.2729C109.579 76.2818 108.731 76.6227 108.086 77.2281C107.441 77.8336 107.046 78.6595 106.979 79.5428C106.953 80.381 107.257 81.1959 107.826 81.8105C108.395 82.4252 109.183 82.79 110.019 82.8257L110.039 82.8192Z" fill="#E33C5C"/>
<path d="M109.921 85.1734C108.947 85.1894 107.989 84.9218 107.163 84.4029C106.338 83.8841 105.68 83.1362 105.27 82.2501C104.709 81.0926 104.057 80.8964 102.909 80.9422C100.515 80.9879 98.0816 80.9422 95.7333 80.9422H92.6087L92.5565 80.6871C92.4483 80.3809 92.4108 80.054 92.447 79.7311C92.4831 79.4082 92.592 79.0978 92.7653 78.8233C93.1958 78.2936 93.9394 78.2609 94.6635 78.2739L97.2728 78.3263C99.2688 78.3786 101.33 78.4309 103.352 78.372C103.907 78.372 104.579 77.7638 105.12 77.293L105.192 77.2276C105.41 77.0091 105.599 76.7628 105.753 76.4951C105.969 76.0676 106.299 75.7079 106.705 75.4553C108.662 74.4482 108.662 72.8394 108.662 70.786C108.616 59.4003 108.63 47.1841 108.701 31.1814C108.701 29.8734 108.571 29.2194 107.325 28.6439C105.055 27.5976 103.985 25.034 104.716 22.4116C105.008 21.2123 105.707 20.1517 106.691 19.4102C107.676 18.6686 108.886 18.2918 110.117 18.3439C111.311 18.3435 112.474 18.7287 113.432 19.4425C114.391 20.1563 115.095 21.1607 115.44 22.3069C115.828 23.489 115.783 24.771 115.313 25.9228C114.843 27.0747 113.979 28.0209 112.876 28.5916C111.624 29.1933 111.415 29.8996 111.421 31.3187C111.461 42.4362 111.454 53.4426 111.421 64.7106C111.421 65.6981 111.421 66.6725 111.376 67.6665C111.337 69.3341 111.297 71.0606 111.376 72.7413C111.425 73.1285 111.551 73.5018 111.747 73.8388C111.943 74.1759 112.205 74.4699 112.517 74.7033C114.787 76.2074 115.948 78.6271 115.472 80.8571C115.281 81.9118 114.765 82.8802 113.998 83.627C113.231 84.3738 112.25 84.8619 111.193 85.0229C110.775 85.1156 110.349 85.166 109.921 85.1734ZM103.046 80.262C103.636 80.1929 104.233 80.3225 104.741 80.6302C105.25 80.938 105.643 81.4066 105.857 81.9624C106.301 82.9201 107.068 83.6898 108.023 84.135C108.978 84.5802 110.059 84.6724 111.076 84.3951C112.007 84.2553 112.872 83.8272 113.549 83.1707C114.227 82.5141 114.682 81.6618 114.853 80.7329C115.27 78.771 114.2 76.6194 112.178 75.2657C111.78 74.9729 111.446 74.6001 111.199 74.1712C110.952 73.7422 110.797 73.2664 110.743 72.774C110.665 71.0672 110.71 69.3276 110.743 67.6534C110.743 66.6725 110.789 65.6915 110.789 64.7106C110.789 53.4426 110.789 42.4166 110.789 31.3579C110.789 30.05 110.919 28.8467 112.615 28.0357C113.58 27.5316 114.334 26.6985 114.741 25.6865C115.147 24.6746 115.18 23.5503 114.833 22.5162C114.531 21.5117 113.915 20.6306 113.077 20.0022C112.239 19.3737 111.222 19.0309 110.175 19.024C109.088 18.97 108.015 19.2995 107.144 19.9553C106.273 20.6111 105.659 21.5518 105.407 22.6143C105.06 23.6444 105.097 24.7657 105.51 25.7707C105.924 26.7758 106.687 27.5967 107.658 28.0815C109.295 28.8336 109.419 29.8538 109.412 31.2075C109.341 47.2102 109.327 59.4264 109.373 70.8056C109.373 72.8983 109.373 74.8733 107.038 76.0374C106.743 76.2472 106.504 76.5254 106.34 76.8483C106.153 77.1708 105.923 77.4657 105.655 77.7246L105.59 77.7835C104.97 78.3263 104.2 78.9999 103.411 79.026C101.369 79.0849 99.3014 79.026 97.2923 78.9802L94.6831 78.9279C94.1221 78.9279 93.5481 78.9279 93.3002 79.2353C93.211 79.3938 93.1541 79.5685 93.1328 79.7493C93.1115 79.93 93.1263 80.1132 93.1762 80.2882H95.7529C98.1012 80.2882 100.528 80.2882 102.928 80.2882L103.046 80.262ZM110.097 83.146H110.006C109.554 83.1291 109.11 83.0228 108.699 82.8331C108.288 82.6434 107.919 82.3742 107.612 82.0408C107.293 81.7026 107.046 81.3038 106.883 80.868C106.721 80.4322 106.647 79.9682 106.666 79.5034C106.697 79.0108 106.825 78.5293 107.044 78.087C107.262 77.6446 107.566 77.2502 107.938 76.9268C108.278 76.601 108.679 76.3465 109.118 76.1781C109.557 76.0096 110.025 75.9307 110.495 75.9458C112.145 76.0439 113.881 77.9077 113.815 79.5165C113.745 80.4724 113.328 81.3693 112.643 82.0379C111.958 82.7066 111.052 83.1007 110.097 83.146ZM110.025 82.4921C110.822 82.4664 111.581 82.1451 112.154 81.5905C112.728 81.0359 113.076 80.2875 113.13 79.4903C113.183 78.1824 111.741 76.6783 110.423 76.5998C110.04 76.5884 109.658 76.6543 109.301 76.7936C108.943 76.9329 108.618 77.1427 108.342 77.4107C108.032 77.6793 107.779 78.0075 107.597 78.3759C107.416 78.7444 107.31 79.1455 107.286 79.5557C107.269 79.9354 107.328 80.3146 107.46 80.6708C107.593 81.0269 107.795 81.3527 108.055 81.6288C108.306 81.9005 108.609 82.1196 108.944 82.2734C109.28 82.4272 109.643 82.5126 110.012 82.5248L110.025 82.4921ZM110.195 27.3621H110.052C109.606 27.3819 109.162 27.3099 108.745 27.1508C108.329 26.9916 107.95 26.7485 107.63 26.4366C107.311 26.1247 107.059 25.7505 106.89 25.3372C106.721 24.9238 106.638 24.4801 106.646 24.0334C106.606 23.0931 106.936 22.1745 107.566 21.4767C108.196 20.7789 109.075 20.3582 110.012 20.3058C110.466 20.3003 110.915 20.3854 111.335 20.556C111.755 20.7267 112.137 20.9795 112.459 21.2998C112.813 21.6243 113.098 22.0165 113.299 22.4534C113.5 22.8903 113.611 23.3631 113.626 23.8438C113.627 24.3192 113.531 24.7897 113.345 25.2269C113.159 25.6641 112.886 26.059 112.543 26.3877C111.922 26.9986 111.091 27.3473 110.221 27.3621H110.195ZM110.11 20.9467H110.032C109.273 20.9923 108.562 21.334 108.051 21.8987C107.54 22.4634 107.27 23.2062 107.299 23.968C107.416 25.6945 108.356 26.5839 110.084 26.6886C110.452 26.7045 110.819 26.6455 111.163 26.5151C111.507 26.3847 111.822 26.1856 112.087 25.9299C112.366 25.6643 112.588 25.3449 112.74 24.9909C112.893 24.6368 112.972 24.2555 112.974 23.8699C112.941 23.0749 112.597 22.325 112.015 21.7838C111.51 21.2715 110.828 20.972 110.11 20.9467Z" fill="#E33C5C"/>
<path d="M11.722 18.6709C12.8388 18.6332 13.9377 18.9595 14.8539 19.6009C15.7701 20.2424 16.4542 21.1643 16.8035 22.2285C17.5471 24.6351 16.686 27.2314 14.416 28.3366C13.0657 28.9906 12.7917 29.7819 12.7917 31.1487C12.7917 44.8952 12.7526 58.6417 12.6743 72.3883C12.6743 73.6962 12.87 74.566 14.2921 75.22C16.6665 76.3056 17.4884 78.4898 16.9013 80.9815C16.6108 82.0654 15.9803 83.027 15.1028 83.7242C14.2254 84.4213 13.1475 84.8171 12.0285 84.853C10.9111 84.8853 9.81206 84.5632 8.88793 83.9326C7.96379 83.302 7.26174 82.3951 6.8818 81.3412C6.14468 79.098 6.8818 76.3317 8.97572 75.2984C10.7109 74.4417 10.8739 73.2973 10.8674 71.6689C10.837 58.2363 10.8479 44.8015 10.9 31.3645C10.9 29.965 10.7304 29.0364 9.23664 28.3301C7.0253 27.2837 6.20339 24.8379 6.82309 22.4443C7.11461 21.3642 7.75187 20.41 8.63692 19.7283C9.52198 19.0465 10.6058 18.675 11.722 18.6709ZM15.1923 79.4904C15.1191 78.5989 14.7076 77.7696 14.0425 77.1733C13.3774 76.5771 12.5094 76.2595 11.6176 76.2859C10.1107 76.3971 8.56476 78.1759 8.55824 79.8109C8.55171 81.4458 10.2934 82.9238 11.9698 82.8322C12.8142 82.7459 13.6 82.3596 14.185 81.7431C14.77 81.1266 15.1157 80.3206 15.1596 79.4708L15.1923 79.4904ZM11.722 27.0483C12.5608 27.0581 13.3711 26.7435 13.9846 26.1699C14.5981 25.5963 14.9675 24.8077 15.0161 23.9681C15.0028 23.1242 14.6769 22.3154 14.1019 21.6989C13.5268 21.0825 12.7436 20.7025 11.9046 20.6328C11.0623 20.6393 10.2536 20.9653 9.64125 21.5453C9.0289 22.1252 8.65827 22.9161 8.6039 23.7588C8.58803 24.6079 8.9063 25.4292 9.48985 26.0448C10.0734 26.6604 10.8753 27.0209 11.722 27.0483Z" fill="#E33C5C"/>
<path d="M11.7807 85.1864C10.6325 85.1739 9.51586 84.8077 8.58233 84.1373C7.64881 83.467 6.94353 82.525 6.56218 81.4392C5.81854 79.1895 6.45781 76.1681 8.81918 75.0041C10.4173 74.2127 10.5348 73.2187 10.5282 71.6688C10.4956 59.0079 10.5282 45.8238 10.5609 31.3644C10.5609 29.9257 10.3586 29.226 9.08663 28.6243C6.84267 27.5649 5.82506 25.0471 6.47738 22.3527C6.79286 21.2058 7.47333 20.1935 8.4153 19.4699C9.35727 18.7463 10.5092 18.3509 11.6959 18.3438C12.882 18.3078 14.048 18.657 15.0201 19.3393C15.9923 20.0217 16.7184 21.0006 17.0905 22.1303C17.9189 24.8247 16.8687 27.4929 14.5334 28.6308C13.3006 29.2325 13.0918 29.893 13.0918 31.1486C13.0918 43.888 13.0592 57.373 12.9744 72.3882C12.9744 73.6961 13.1636 74.3501 14.403 74.919C16.8035 76.0243 17.8472 78.3197 17.1818 81.0599C16.879 82.2157 16.2105 83.242 15.2767 83.9848C14.3429 84.7277 13.1941 85.147 12.0025 85.1799L11.7807 85.1864ZM11.722 18.9978C10.6823 19.0087 9.67444 19.3585 8.85066 19.9944C8.02687 20.6303 7.43194 21.5178 7.15578 22.5227C6.53609 24.8966 7.43628 27.1005 9.39321 28.0357C11.1023 28.8466 11.2393 29.9976 11.2393 31.3644C11.1871 45.8238 11.174 59.0079 11.2066 71.6688C11.2066 73.3103 11.0631 74.6444 9.13229 75.5926C7.09055 76.5998 6.52304 79.2549 7.17535 81.2364C7.54033 82.2174 8.20159 83.0597 9.06692 83.6459C9.93224 84.232 10.9585 84.5328 12.0025 84.5063C13.0521 84.4789 14.0645 84.1109 14.8878 83.4576C15.7111 82.8044 16.3009 81.9011 16.5686 80.8833C17.1623 78.4374 16.2751 76.469 14.1486 75.4945C12.6156 74.7948 12.3351 73.8531 12.3417 72.362C12.4265 57.3206 12.4656 43.8684 12.4591 31.1617C12.4591 29.7557 12.7526 28.7943 14.266 28.0553C16.3077 27.0613 17.221 24.7135 16.4904 22.3396C16.1579 21.3437 15.515 20.4813 14.6564 19.8796C13.7978 19.2779 12.7691 18.9688 11.722 18.9978ZM11.859 83.1395C10.907 83.1107 10.0008 82.7231 9.32146 82.0539C9.00001 81.7677 8.73999 81.4189 8.5572 81.0288C8.37441 80.6387 8.27268 80.2154 8.25819 79.7846C8.25819 77.9666 9.93463 76.057 11.6176 75.9327C12.5957 75.9077 13.5462 76.259 14.274 76.9145C15.0018 77.57 15.4518 78.48 15.5315 79.4576C15.5967 81.2168 13.8616 83.0349 12.0351 83.1329L11.859 83.1395ZM11.859 76.5998H11.6894C10.3521 76.6978 8.93659 78.3459 8.93007 79.8042C8.94386 80.1416 9.02484 80.4727 9.16823 80.7782C9.31163 81.0837 9.51454 81.3574 9.76503 81.583C10.0559 81.872 10.4012 82.1001 10.7809 82.2539C11.1605 82.4077 11.5669 82.4842 11.9764 82.479C12.7313 82.4004 13.4342 82.0566 13.9607 81.5084C14.4871 80.9603 14.8032 80.2431 14.8531 79.4838C14.7859 78.7151 14.4427 77.997 13.8872 77.463C13.3317 76.9289 12.6017 76.6152 11.8329 76.5801L11.859 76.5998ZM11.859 27.3948H11.7546C10.8188 27.3546 9.93599 26.9485 9.29537 26.2635C8.98117 25.9315 8.73578 25.5403 8.57342 25.1126C8.41106 24.6849 8.33496 24.2292 8.34951 23.7718C8.40025 22.8196 8.8247 21.9262 9.5302 21.2867C10.1718 20.666 11.0261 20.315 11.9177 20.3058C12.842 20.3761 13.7064 20.7912 14.3404 21.4691C14.9744 22.1471 15.3319 23.0387 15.3423 23.968C15.2836 24.8793 14.8856 25.7353 14.2272 26.3663C13.5688 26.9974 12.6979 27.3574 11.7872 27.3752L11.859 27.3948ZM11.7742 26.7409C12.5171 26.725 13.2275 26.4321 13.7666 25.9194C14.3058 25.4067 14.635 24.711 14.69 23.968C14.6737 23.2101 14.3792 22.4848 13.8629 21.931C13.3466 21.3772 12.6447 21.0337 11.8916 20.9663C11.1518 20.9585 10.4382 21.24 9.90202 21.751C9.32305 22.2711 8.97351 23.0002 8.93007 23.7784C8.91896 24.1494 8.98126 24.5191 9.11337 24.8659C9.24549 25.2127 9.44479 25.5299 9.6998 25.7991C9.95974 26.0787 10.2722 26.304 10.6192 26.4623C10.9662 26.6205 11.341 26.7085 11.722 26.7212L11.7742 26.7409Z" fill="#E33C5C"/>
<path d="M39.341 39.9512C39.3881 39.7574 39.423 39.5608 39.4454 39.3626C39.2888 31.7438 41.3632 32.9014 46.386 32.8883C51.0565 32.8883 55.7336 32.8883 60.4042 32.8883C64.8986 32.8883 65.1661 33.1106 65.9684 37.6034C68.819 37.6034 71.7218 37.695 74.605 37.5184C75.153 37.5184 76.0662 36.3936 76.0792 35.7723C76.1901 29.4746 76.1445 23.1768 76.151 16.879C76.151 15.715 75.8118 14.9629 74.455 14.9825C71.637 15.0218 68.8125 14.9825 65.6814 14.9825C65.6814 16.8987 65.6814 18.6317 65.6814 20.3713C65.6357 23.0852 64.4485 24.4586 61.8327 24.4847C55.701 24.5458 49.5714 24.5458 43.4441 24.4847C40.8348 24.4455 39.5693 23.0591 39.5302 20.404C39.491 17.7488 39.4845 15.0218 39.5302 12.3339C39.5758 9.6461 40.9131 8.22043 43.6463 8.20082C49.6215 8.16158 55.5988 8.16158 61.5783 8.20082C64.3441 8.20082 65.2509 9.20139 66.001 12.916C68.4537 12.916 70.9586 12.916 73.47 12.916C77.286 12.916 78.1014 13.7203 78.1079 17.448C78.1079 23.2902 78.1079 29.128 78.1079 34.9614C78.1079 38.9572 77.4556 39.5784 73.3787 39.585H65.6814C65.6814 41.3899 65.6814 43.0445 65.6814 44.6991C65.6814 48.1651 64.7616 49.1068 61.3892 49.1134C55.5705 49.1134 49.7476 49.1134 43.9202 49.1134C40.5608 49.1134 39.5302 48.0866 39.5041 44.7514C39.5041 43.9208 39.5041 43.0968 39.5041 42.0439C36.5687 42.0439 33.8355 42.0439 31.0958 42.0439C29.5368 42.0439 29.191 42.9072 29.1976 44.2674C29.2367 49.0349 29.1976 53.7958 29.1976 58.5567C29.1976 59.093 29.1976 59.6358 29.1976 60.1721C28.9758 64.7106 28.9758 64.7499 33.5159 64.8022C35.4076 64.8022 37.3058 64.5798 39.491 64.4425C39.491 63.3765 39.4454 62.3236 39.491 61.2773C39.615 58.8968 40.8935 57.53 43.2288 57.5104C49.5127 57.4624 55.7945 57.4624 62.0741 57.5104C64.3507 57.5104 65.6031 58.8183 65.6553 61.1269C65.7205 64.0436 65.7205 66.9668 65.6553 69.8836C65.6553 72.3098 64.6833 73.4477 62.185 73.5131C57.0122 73.6439 51.8263 73.5523 46.6534 73.5523C45.4988 73.5523 44.3508 73.5523 43.2027 73.5523C40.6391 73.4543 39.3671 71.9828 39.5041 69.3735C39.5432 68.5429 39.5041 67.7058 39.5041 66.666C36.7448 66.666 34.0181 66.666 31.2915 66.666C28.4148 66.666 27.2863 65.7962 27.2145 62.9122C27.0384 56.464 27.0254 50.0093 27.071 43.5611C27.071 41.3049 28.4735 40.0558 30.7435 40.0035C33.6137 39.9054 36.4317 39.9512 39.341 39.9512ZM52.5308 47.073C55.5184 47.073 58.4994 47.0337 61.487 47.073C62.9873 47.073 63.7832 46.6217 63.744 44.9737C63.6788 42.2924 63.7049 39.6046 63.744 36.9168C63.744 35.4911 63.2287 34.811 61.7218 34.8241C55.6771 34.8589 49.6301 34.8589 43.581 34.8241C42.0416 34.8241 41.585 35.478 41.6241 36.9168C41.6828 39.6046 41.7154 42.2924 41.6241 44.9737C41.5589 46.661 42.3351 47.0991 43.8289 47.073C46.7121 47.0337 49.6215 47.073 52.5308 47.073ZM63.731 66.0709C63.731 64.3117 63.731 62.9318 63.731 61.5519C63.731 60.1721 63.1308 59.59 61.774 59.59C55.6553 59.59 49.5367 59.5442 43.418 59.675C43.013 59.8009 42.6461 60.0268 42.3509 60.3319C42.0557 60.637 41.8417 61.0115 41.7285 61.4211C41.5458 64.1548 41.7285 66.9145 41.6698 69.6612C41.6372 71.3681 42.3873 71.924 44.0442 71.8782C48.6952 71.7605 53.3527 71.7343 58.0037 71.7212C63.9593 71.7081 63.9593 71.7081 63.731 66.0709ZM52.6417 22.4313C55.551 22.4313 58.4538 22.4313 61.3566 22.4313C62.8373 22.4313 63.6984 21.9081 63.6918 20.332C63.6918 17.6507 63.6918 14.9694 63.6918 12.2881C63.6918 10.8494 62.9417 10.2739 61.5196 10.2805C55.5662 10.3066 49.6062 10.3066 43.6398 10.2805C42.172 10.2805 41.5784 10.9344 41.598 12.3666C41.598 14.9825 41.6502 17.5984 41.598 20.2143C41.5589 21.9146 42.3156 22.5228 43.9529 22.4901C46.8687 22.392 49.7715 22.4378 52.6743 22.4313H52.6417Z" fill="#E33C5C"/>
<path d="M55.7074 73.899C54.1723 73.899 52.6502 73.899 51.1412 73.899H46.6859H45.7792C44.9508 73.899 44.0897 73.899 43.2352 73.899C42.6699 73.9124 42.1078 73.8116 41.5822 73.6026C41.0566 73.3936 40.5783 73.0808 40.1759 72.6826C39.8087 72.2282 39.5354 71.705 39.3719 71.1436C39.2084 70.5823 39.1579 69.9939 39.2235 69.4127C39.2235 68.8634 39.2235 68.3206 39.2235 67.6862C39.2235 67.477 39.2235 67.2677 39.2235 67.0323H37.0252C35.1204 67.0323 33.2353 67.0323 31.3435 67.0323C28.1733 67.0323 27.0187 65.9467 26.9404 62.958C26.7252 55.7774 26.7643 48.8191 26.7969 43.5219C26.7969 41.148 28.3038 39.6962 30.7891 39.6373C32.746 39.5981 34.703 39.6373 36.7121 39.6373H39.0669C39.0669 39.5916 39.0669 39.5458 39.0669 39.5131C39.0729 39.4675 39.0729 39.4213 39.0669 39.3758C39.0017 36.034 39.3474 34.2944 40.2672 33.3788C41.1869 32.4633 42.622 32.4894 44.579 32.5417C45.1204 32.5417 45.7009 32.5417 46.3272 32.5417C49.5887 32.5417 52.7851 32.5417 56.0075 32.5417H60.3519C64.9181 32.5417 65.3877 32.8556 66.2227 37.2569H68.1796C70.2801 37.2569 72.4523 37.2569 74.5853 37.1588C74.8725 37.0235 75.1262 36.826 75.3281 36.5806C75.53 36.3353 75.6751 36.048 75.753 35.7397C75.8312 31.1292 75.8312 26.4336 75.8247 21.8951V16.8725C75.8792 16.4186 75.7552 15.9612 75.479 15.5973C75.3373 15.483 75.1744 15.3981 74.9997 15.3476C74.825 15.297 74.642 15.2819 74.4614 15.303C72.5045 15.303 70.4953 15.303 68.4014 15.303H66.0074V16.7744C66.0074 18.0235 66.0074 19.2138 66.0074 20.404C65.9618 23.36 64.5984 24.8118 61.8326 24.8379C55.603 24.8968 49.4387 24.8903 43.4439 24.8379C40.6716 24.7987 39.243 23.3207 39.1974 20.4302C39.1517 17.6704 39.1517 14.9499 39.1974 12.3601C39.2496 9.42379 40.7434 7.91965 43.6396 7.90003C49.4191 7.8608 55.453 7.8608 61.5717 7.90003C64.4419 7.90003 65.4856 8.93985 66.2553 12.6152H73.4307C77.4164 12.6152 78.3883 13.5831 78.3948 17.4742C78.3948 23.3164 78.3948 29.1542 78.3948 34.9876C78.3948 39.1469 77.5925 39.9316 73.3394 39.9382H65.9683V41.2461C65.9683 42.4298 65.9683 43.5612 65.9683 44.6926C65.9683 48.3221 64.8789 49.4273 61.3499 49.4339C55.5313 49.4339 49.7083 49.4339 43.881 49.4339C40.365 49.4339 39.1648 48.2502 39.1387 44.7449C39.1387 44.189 39.1387 43.6331 39.1387 43.0118V42.3579H36.9143C34.9574 42.3579 33.0004 42.3579 31.0891 42.3579C30.8802 42.3317 30.6681 42.349 30.4661 42.4086C30.264 42.4682 30.0765 42.5689 29.915 42.7045C29.5874 43.1451 29.4446 43.6966 29.5171 44.2413C29.5171 47.6943 29.5171 51.2127 29.5171 54.6068V59.0473C29.5171 59.42 29.5171 59.7928 29.5171 60.159C29.4127 62.2844 29.3605 63.4289 29.8106 63.9324C30.2607 64.436 31.324 64.4295 33.5092 64.4491C34.8138 64.4491 36.0663 64.3575 37.4231 64.2463C37.9776 64.2006 38.5516 64.1483 39.1517 64.109C39.1517 63.8801 39.1517 63.6512 39.1517 63.455C39.1517 62.7357 39.1517 61.9967 39.1517 61.2708C39.2822 58.6549 40.7238 57.2096 43.2156 57.19C49.8953 57.1377 56.0597 57.1442 62.0675 57.19C64.4875 57.19 65.9096 58.6483 65.9813 61.1138C66.04 63.8605 66.0531 66.7249 65.9813 69.8836C65.9813 72.5518 64.7811 73.7682 62.1914 73.8074C60.0714 73.8794 57.8796 73.899 55.7074 73.899ZM46.699 73.245H51.1608C54.7876 73.245 58.5384 73.2843 62.2501 73.1927C64.4875 73.1404 65.3682 72.2117 65.4008 69.8836C65.4399 66.738 65.4008 63.8801 65.4008 61.14C65.3486 59.008 64.2266 57.8701 62.1392 57.8701C56.1379 57.8178 49.9736 57.8113 43.3004 57.8701C41.1739 57.8701 39.9932 59.0865 39.8823 61.3296C39.8823 62.0359 39.8823 62.7357 39.8823 63.4681C39.8823 63.8017 39.8823 64.1221 39.8823 64.4752V64.7826H39.5757L37.5536 64.933C36.1772 65.0507 34.8726 65.1554 33.581 65.1423C31.3044 65.1423 30.0585 65.1423 29.4062 64.4229C28.7539 63.7036 28.8256 62.546 28.9365 60.1656C28.9365 59.8124 28.9365 59.4527 28.9365 59.0996V54.6133C28.9365 51.2192 28.9365 47.7074 28.9365 44.2544C28.8604 43.5297 29.0712 42.804 29.5236 42.2336C29.9789 41.848 30.5663 41.6556 31.1609 41.6974C33.0787 41.6974 34.9965 41.6974 36.986 41.6974H39.8954V43.0053C39.8954 43.6593 39.8954 44.1825 39.8954 44.7383C39.8954 47.9036 40.7956 48.7733 43.9854 48.7733C49.8127 48.7733 55.6357 48.7733 61.4543 48.7733C64.631 48.7733 65.4138 47.969 65.4203 44.686C65.4203 43.5546 65.4203 42.4167 65.4203 41.2396V39.2777H73.4438C77.3577 39.2777 77.8469 38.7937 77.8469 34.9811C77.8469 29.1476 77.8469 23.312 77.8469 17.4742C77.8469 13.9035 77.1946 13.2692 73.5351 13.2626H65.7204L65.6682 13.001C64.9507 9.43687 64.1418 8.56055 61.5587 8.54747C55.4465 8.50823 49.4191 8.50823 43.6396 8.54747C41.0956 8.54747 39.8888 9.77694 39.8432 12.3601C39.7975 14.9433 39.7975 17.6573 39.8432 20.4171C39.8823 22.948 41.0304 24.1447 43.4439 24.1774C49.4126 24.2494 55.5965 24.2559 61.8196 24.1774C64.2201 24.1774 65.3094 22.9872 65.3486 20.3844C65.3486 19.2007 65.3486 18.017 65.3486 16.7679V14.6752H68.3949C70.4888 14.6752 72.4653 14.6752 74.4483 14.6752C74.716 14.6514 74.9856 14.6819 75.2412 14.7651C75.4968 14.8482 75.733 14.9823 75.9356 15.1591C76.3336 15.6468 76.5256 16.2711 76.4705 16.8987V21.9408C76.4705 26.4794 76.4705 31.1815 76.3988 35.7985C76.3988 36.5441 75.3877 37.8193 74.6179 37.8651C72.4653 37.9959 70.2801 37.9763 68.1666 37.9632H65.9618H65.6878L65.6421 37.695C64.8724 33.3723 64.7224 33.248 60.4236 33.248H56.0792C52.8568 33.248 49.6279 33.248 46.4054 33.248C45.7531 33.248 45.1791 33.248 44.6377 33.248C42.7721 33.1957 41.5392 33.163 40.7956 33.902C40.0519 34.641 39.7062 36.2498 39.7714 39.3561C39.7743 39.4493 39.7611 39.5422 39.7323 39.6308C39.7323 39.7158 39.6931 39.8335 39.6605 40.0101L39.6083 40.2782H36.7121C34.6769 40.2782 32.7591 40.2782 30.8021 40.2782C28.6495 40.3306 27.4623 41.475 27.4492 43.5089C27.4492 48.793 27.3971 55.7578 27.5928 62.8468C27.658 65.4627 28.5386 66.2737 31.3501 66.2867C33.2353 66.2867 35.1204 66.2867 37.0252 66.2867H39.8823V66.6137C39.8823 66.9538 39.8823 67.2677 39.8823 67.5751C39.8823 68.1898 39.8823 68.7718 39.8823 69.3408C39.817 69.8403 39.8527 70.3478 39.9872 70.8332C40.1217 71.3185 40.3522 71.7718 40.6651 72.166C41.0093 72.5022 41.4181 72.7649 41.8666 72.938C42.3151 73.1111 42.7941 73.1911 43.2743 73.1731C44.1093 73.1731 44.9638 73.1731 45.7923 73.1731L46.699 73.245ZM43.8484 72.2444C43.4986 72.2816 43.1449 72.2474 42.8086 72.144C42.4723 72.0406 42.1603 71.8701 41.8914 71.6428C41.6628 71.3745 41.4921 71.0617 41.3899 70.7241C41.2878 70.3864 41.2564 70.0312 41.2978 69.6809C41.2978 68.6476 41.2978 67.5882 41.2978 66.5614C41.2978 64.8807 41.2587 63.1346 41.3696 61.4277C41.4283 60.5906 42.6285 59.3808 43.4113 59.3612C47.8927 59.2631 52.4524 59.2696 56.862 59.2762H61.787C62.0967 59.2355 62.4116 59.2674 62.707 59.3692C63.0023 59.471 63.2702 59.6401 63.4895 59.8631C63.7087 60.0861 63.8735 60.357 63.9708 60.6546C64.0682 60.9521 64.0954 61.2682 64.0505 61.5781C64.0505 62.5199 64.0505 63.4616 64.0505 64.5276V66.0906C64.1679 68.968 64.2266 70.4133 63.4438 71.2308C62.6611 72.0482 61.1086 72.0679 58.0427 72.0744H57.9775C53.4961 72.0744 48.7277 72.0744 44.018 72.2314L43.8484 72.2444ZM53.8548 59.9301C50.4041 59.9301 46.8947 59.9301 43.4178 60.0217C42.9743 60.0217 42.048 60.9961 42.0154 61.4735C41.9045 63.1608 41.9241 64.8872 41.9436 66.5614C41.9436 67.5882 41.9436 68.6541 41.9436 69.7005C41.9087 69.9614 41.9265 70.2268 41.9959 70.4807C42.0654 70.7346 42.1852 70.9719 42.3481 71.1785C42.8167 71.5248 43.4031 71.6706 43.9788 71.5839C48.6951 71.4597 53.47 71.4401 57.9514 71.427H58.0362C60.9259 71.427 62.374 71.427 62.9742 70.773C63.5743 70.119 63.5025 68.7261 63.3982 66.1167V64.5145C63.3982 63.4485 63.3982 62.5068 63.3982 61.5651C63.4204 61.3396 63.3979 61.112 63.3318 60.8953C63.2658 60.6787 63.1575 60.4773 63.0133 60.3029C62.8452 60.1593 62.65 60.0511 62.4393 59.9848C62.2286 59.9185 62.0067 59.8955 61.787 59.917H53.8548V59.9301ZM61.6043 47.4523H61.4804C59.3734 47.4131 57.2208 47.4523 55.1464 47.4523H50.1562C48.0754 47.4523 45.9227 47.4523 43.8092 47.4523C43.4515 47.4977 43.0883 47.4682 42.7425 47.3658C42.3967 47.2634 42.0758 47.0902 41.8001 46.8572C41.5896 46.6006 41.434 46.3032 41.3431 45.9837C41.2522 45.6642 41.2279 45.3293 41.2717 44.9999C41.3761 42.2271 41.3304 39.4019 41.2717 36.9626C41.2328 36.6289 41.2613 36.2908 41.3554 35.9683C41.4496 35.6459 41.6075 35.3457 41.8197 35.0857C42.0626 34.8822 42.3433 34.7289 42.6456 34.6347C42.9478 34.5404 43.2657 34.507 43.5809 34.5364C49.1451 34.5821 55.0812 34.5821 61.7152 34.5364C62.036 34.5053 62.3597 34.5398 62.6669 34.6375C62.9741 34.7353 63.2584 34.8944 63.5025 35.1053C63.7175 35.3601 63.8782 35.6564 63.9746 35.9758C64.0711 36.2952 64.1014 36.631 64.0635 36.9626C64.0635 39.5066 64.0048 42.2402 64.0635 45.0065C64.1014 45.335 64.071 45.6678 63.9745 45.984C63.878 46.3003 63.7173 46.5931 63.5025 46.8441C63.2407 47.0626 62.9377 47.2261 62.6117 47.3249C62.2856 47.4238 61.943 47.456 61.6043 47.4196V47.4523ZM57.7491 46.7984C58.9951 46.7984 60.2475 46.7984 61.4934 46.7984C61.7661 46.8368 62.0436 46.8207 62.3101 46.7511C62.5765 46.6815 62.8266 46.5598 63.0459 46.3929C63.1968 46.2034 63.3076 45.985 63.3715 45.7511C63.4354 45.5173 63.4512 45.2728 63.4177 45.0326C63.3525 42.2598 63.3786 39.5196 63.4177 36.9626C63.4809 36.4714 63.3472 35.9752 63.0459 35.5827C62.6781 35.2884 62.2091 35.1521 61.7413 35.2034C55.1008 35.2426 49.1647 35.2361 43.594 35.2034C43.3636 35.1719 43.1292 35.1876 42.9049 35.2494C42.6807 35.3112 42.4713 35.4179 42.2893 35.5631C41.9919 35.9645 41.8652 36.4677 41.9371 36.9626C41.9893 39.4085 42.0349 42.2467 41.9371 45.0392C41.899 45.2796 41.91 45.5253 41.9694 45.7614C42.0288 45.9975 42.1355 46.219 42.2828 46.4125C42.7227 46.7395 43.274 46.8783 43.8158 46.7984C45.9358 46.7591 48.0884 46.7984 50.1758 46.7984H57.7491ZM43.8288 22.7845C43.4777 22.8189 43.1232 22.7816 42.7868 22.6749C42.4505 22.5681 42.1392 22.394 41.8719 22.1632C41.6409 21.8897 41.4684 21.5715 41.3652 21.2284C41.262 20.8852 41.2302 20.5245 41.2717 20.1686C41.337 17.5004 41.3109 14.8518 41.2717 12.3732C41.2384 12.0454 41.2715 11.7142 41.369 11.3996C41.4666 11.0849 41.6265 10.7932 41.8392 10.5421C42.0836 10.3242 42.3703 10.1594 42.6812 10.0581C42.9922 9.95685 43.3208 9.92122 43.6462 9.95351C49.804 9.98621 55.8183 9.99275 61.5195 9.95351C61.8613 9.92439 62.2055 9.96312 62.5323 10.0675C62.8591 10.1718 63.1622 10.3398 63.4243 10.5617C63.6351 10.7939 63.7965 11.0667 63.8986 11.3636C64.0007 11.6605 64.0412 11.9751 64.0179 12.2882C64.0179 13.9493 64.0179 15.6126 64.0179 17.278V20.3321C64.0436 20.6579 64.0024 20.9856 63.897 21.2949C63.7915 21.6042 63.624 21.8886 63.4047 22.1305C63.1241 22.3731 62.7973 22.5562 62.4442 22.6686C62.091 22.781 61.7187 22.8204 61.3499 22.7845C59.3017 22.7518 57.2143 22.7845 55.1921 22.7845H52.6481C51.7153 22.7845 50.7955 22.7845 49.8627 22.7845C47.9058 22.7845 45.9488 22.7845 43.9397 22.7845H43.8288ZM43.6396 10.6075C43.1704 10.5634 42.7025 10.7041 42.335 10.9999C42.0345 11.3853 41.8985 11.8744 41.9567 12.3601C41.9567 14.8518 42.0089 17.5069 41.9567 20.2078C41.9249 20.4721 41.946 20.7401 42.0188 20.9962C42.0916 21.2522 42.2146 21.4911 42.3807 21.6989C42.6071 21.8746 42.8662 22.0034 43.1429 22.0775C43.4196 22.1516 43.7082 22.1696 43.9919 22.1305C45.9488 22.0847 47.984 22.0912 49.9344 22.1305H55.2573C57.2795 22.1305 59.3669 22.1305 61.4282 22.1305C61.9935 22.1997 62.5633 22.0423 63.0133 21.6923C63.3183 21.3282 63.4682 20.8584 63.4308 20.3844V17.2911C63.4308 15.63 63.4308 13.9624 63.4308 12.3013C63.4516 12.0749 63.4272 11.8467 63.3588 11.6299C63.2905 11.4132 63.1797 11.2123 63.0329 11.0391C62.8319 10.8777 62.6011 10.7576 62.3537 10.6858C62.1063 10.6139 61.8472 10.5918 61.5913 10.6206C55.8901 10.6206 49.8496 10.6206 43.7049 10.6206L43.6396 10.6075Z" fill="#E33C5C"/>
</g>
<defs>
<clipPath id="clip0_322_84">
<rect width="123" height="113" fill="white"/>
</clipPath>
</defs>
</svg>
