<svg width="89" height="94" viewBox="0 0 89 94" fill="none" xmlns="http://www.w3.org/2000/svg">
<g clip-path="url(#clip0_323_260)">
<path d="M23.9753 83.6488C21.9737 81.5865 21.3263 78.2431 24.1416 75.1108C21.6213 71.7454 21.6213 69.4022 24.001 66.5807C23.4269 65.3115 22.6329 64.1897 22.4073 62.9463C21.7341 59.2761 24.3871 56.2753 28.216 56.2255C31.4747 56.1817 34.7355 56.2155 37.9962 56.2155H38.9643C38.6911 53.7468 38.3229 51.3637 38.2021 48.9687C38.1271 47.284 38.2306 45.5961 38.511 43.9335C38.998 41.0025 41.6173 38.9522 44.4048 39.1315C47.3904 39.3168 49.5879 41.4827 49.9285 44.4974C50.1383 46.3306 50.2136 48.2255 50.7461 49.9689C52.7418 56.4945 58.7247 60.8761 65.5135 60.9538C68.3129 60.9837 71.1124 60.9538 73.9118 60.9538C75.4956 60.9538 75.9272 61.3662 75.9272 62.9244C75.9272 71.406 75.9272 79.8889 75.9272 88.3731C75.9272 89.9492 75.5055 90.3657 73.9474 90.3657C72.3893 90.3657 70.849 90.4254 69.3048 90.3537C65.6038 90.1627 61.9176 90.9514 58.6139 92.6411C56.6657 93.6255 54.6028 94 52.4151 93.9881C44.3138 93.9443 36.2124 93.9881 28.1111 93.9622C24.3871 93.9522 21.746 90.9096 22.4112 87.2593C22.625 86.0618 23.3912 84.9519 23.9753 83.6488ZM73.1575 63.7553C72.8902 63.7414 72.7001 63.7194 72.5081 63.7194C70.1026 63.7194 67.6972 63.7533 65.2937 63.6975C61.2942 63.6094 57.4316 62.2145 54.2889 59.7233C51.1461 57.2321 48.8937 53.7798 47.8715 49.8872C47.4616 48.3032 47.3904 46.6235 47.2399 44.9796C47.0815 43.2441 45.9253 41.947 44.3494 41.8732C42.7735 41.7995 41.354 43.0508 41.1302 44.7564C40.6785 48.2817 40.8955 51.8612 41.7697 55.3049C41.9301 55.9585 42.2013 56.2654 42.918 56.3869C45.5254 56.8312 47.4458 59.2103 47.4894 61.8624C47.521 63.6736 46.737 65.1102 45.5234 66.3476C48.1744 69.3583 48.1764 71.6398 45.565 75.1347C48.1764 78.1952 48.1843 80.2974 45.5947 83.9138C47.6596 86.0179 48.0299 88.4249 46.7172 91.2085C48.8317 91.2085 50.8372 91.3241 52.8249 91.1706C54.2861 91.0305 55.7271 90.7264 57.1211 90.264C59.0296 89.6663 60.8491 88.7756 62.7655 88.2117C65.7491 87.337 68.8435 87.6279 71.9003 87.6C72.3121 87.6 72.7239 87.6 73.1555 87.6L73.1575 63.7553ZM34.8483 82.4712C37.0558 82.4712 39.2613 82.4712 41.4688 82.4712C43.4743 82.4573 44.7632 81.2418 44.7374 79.4266C44.7117 77.6832 43.3892 76.4876 41.447 76.4856C37.0677 76.4777 32.6877 76.4777 28.3071 76.4856C26.3985 76.4856 25.0384 77.725 25.0127 79.4446C24.9869 81.204 26.3471 82.4573 28.3288 82.4692C30.4947 82.4812 32.6686 82.4712 34.8424 82.4712H34.8483ZM34.8305 91.2085C37.0697 91.2085 39.3088 91.2185 41.548 91.2085C43.4308 91.1985 44.7157 90.013 44.7355 88.2934C44.7632 86.526 43.4664 85.2408 41.5678 85.2329C37.1211 85.213 32.6752 85.213 28.2299 85.2329C26.3451 85.2329 24.9889 86.5579 25.0166 88.2775C25.0444 89.997 26.3629 91.1985 28.212 91.2105C30.4116 91.2185 32.6171 91.2085 34.8246 91.2085H34.8305ZM34.8483 64.9668C37.0875 64.9668 39.3266 64.9787 41.5658 64.9668C43.4426 64.9508 44.7216 63.7513 44.7335 62.0298C44.7493 60.2704 43.4446 58.9931 41.542 58.9872C37.0954 58.9672 32.6494 58.9672 28.2041 58.9872C26.3669 58.9872 25.0364 60.2584 25.0067 61.9481C24.977 63.6716 26.3253 64.9528 28.2219 64.9668C30.4274 64.9767 32.6349 64.9648 34.8424 64.9668H34.8483ZM34.8741 73.718C37.0815 73.718 39.287 73.73 41.4945 73.718C43.4426 73.706 44.7315 72.5225 44.7374 70.7531C44.7434 68.9837 43.4328 67.7424 41.5203 67.7364C37.1079 67.7231 32.695 67.7231 28.2813 67.7364C26.3807 67.7364 25.0226 69.0056 25.0127 70.7252C25.0028 72.4448 26.3411 73.704 28.2556 73.714C30.4552 73.7319 32.6626 73.718 34.8681 73.718H34.8741Z" fill="#004999"/>
<path d="M24.2564 18.0086C24.1495 19.6942 24.0763 21.3819 23.9199 23.0636C23.8565 23.7371 24.0584 24.1237 24.589 24.5421C26.685 26.1946 28.7519 27.8862 30.7898 29.6171C32.1321 30.7628 31.8945 31.9205 30.1958 32.4465C27.6221 33.2435 25.0266 33.9748 22.4271 34.6801C22.177 34.7242 21.9443 34.8385 21.7558 35.0098C21.5674 35.1811 21.4309 35.4025 21.362 35.6485C20.4196 38.2209 19.4475 40.7853 18.4101 43.3218C17.7686 44.8859 16.5886 45.0015 15.6126 43.6027C14.0624 41.385 12.5598 39.1295 11.0868 36.858C10.7443 36.3299 10.4176 36.1128 9.77021 36.0908C7.04205 35.9972 4.31388 35.8477 1.59165 35.6604C0.0573059 35.5548 -0.467342 34.4231 0.459205 33.1718C2.09254 30.98 3.7833 28.8141 5.49385 26.6741C5.68137 26.4776 5.81001 26.2318 5.86499 25.965C5.91997 25.6981 5.89906 25.4211 5.80467 25.1657C5.05234 22.4957 4.34886 19.8118 3.69421 17.1139C3.35566 15.7331 4.26439 14.8603 5.59679 15.3206C8.23983 16.2232 10.8611 17.1896 13.4724 18.1839C13.7028 18.2924 13.9586 18.334 14.2111 18.304C14.4636 18.2741 14.7029 18.1739 14.9019 18.0145C17.145 16.5082 19.4039 15.0257 21.6946 13.5971C23.1893 12.6666 24.1317 13.2424 24.1792 15.0297C24.1931 15.5278 24.2089 16.026 24.2148 16.5201C24.2208 17.0143 24.2148 17.5164 24.2148 18.0105L24.2564 18.0086ZM21.5758 17.096L21.2451 16.9226C19.4415 18.1919 17.6003 19.4113 15.8482 20.7483C14.9434 21.4397 14.1753 21.5154 13.1398 21.0432C11.1224 20.1246 9.03571 19.3535 6.9787 18.5206L6.7332 18.7438C7.41227 20.9774 8.06165 23.219 8.78427 25.4387C9.06541 26.2955 8.9288 26.9351 8.33882 27.6126C6.97474 29.1827 5.67203 30.8006 4.35348 32.4166C4.15295 32.7138 3.96984 33.0225 3.80507 33.3411C6.33724 33.3411 8.60213 33.371 10.865 33.3272C11.7936 33.3112 12.4489 33.6022 12.8646 34.457C13.1018 34.9317 13.3662 35.392 13.6566 35.8358C14.6108 37.3581 15.5889 38.8724 16.7332 40.6498C17.5251 38.3544 18.3289 36.3897 18.8714 34.3693C19.2535 32.9386 19.9939 32.3269 21.4114 32.0699C23.4546 31.6973 25.4542 31.0736 27.4716 30.5655L27.531 30.2447C25.6957 28.85 23.8803 27.4412 22.0153 26.0963C21.2234 25.5244 20.962 24.8908 21.067 23.9045C21.3065 21.637 21.4134 19.3635 21.5738 17.096H21.5758Z" fill="#E33C5C"/>
<path d="M81.0985 36.2024C78.9049 35.3536 77.8655 36.7663 76.8479 38.5935C75.858 40.3728 74.5691 41.9948 73.3654 43.6506C72.4012 44.9776 71.2292 44.87 70.6135 43.3716C69.5741 40.8371 68.5941 38.2747 67.6556 35.7003C67.4339 35.0886 67.133 34.8376 66.5291 34.6742C63.9554 33.9788 61.3975 33.2575 58.8574 32.4684C57.0934 31.9145 56.8558 30.7827 58.2496 29.5872C60.2809 27.8604 62.3465 26.1694 64.4464 24.5142C64.6715 24.3649 64.8505 24.155 64.9632 23.9085C65.0758 23.662 65.1177 23.3887 65.0839 23.1194C64.9651 20.3717 64.872 17.632 64.8423 14.8783C64.8225 13.3002 65.8481 12.6985 67.1825 13.5154C69.4262 14.8876 71.6397 16.3156 73.8227 17.7994C74.5196 18.2736 75.0304 18.3971 75.858 18.0584C78.2931 17.0741 80.7797 16.2053 83.2683 15.3625C84.8027 14.8424 85.6698 15.6614 85.2818 17.2494C84.6271 19.9128 83.9309 22.5642 83.1931 25.2036C83.1038 25.4436 83.0831 25.7039 83.1335 25.9551C83.1839 26.2062 83.3033 26.4381 83.4782 26.6243C85.1868 28.7663 86.8795 30.9222 88.5128 33.122C89.4829 34.4291 88.9583 35.513 87.3626 35.6665C85.3313 35.8557 83.298 36.0171 81.0985 36.2024ZM67.7823 16.9266L67.4359 17.088C67.6022 19.3854 67.7309 21.6868 67.9526 23.9782C68.0397 24.8749 67.8536 25.5324 67.0795 26.0086C66.6873 26.2534 66.3086 26.5195 65.9451 26.8056C64.4484 27.9653 62.9576 29.1369 61.2193 30.4978C63.8128 31.1434 66.0678 31.7392 68.3466 32.2512C69.192 32.4405 69.7008 32.849 69.8987 33.6859C69.9908 34.0724 70.1038 34.4535 70.2373 34.8276C70.8867 36.6687 71.5459 38.5078 72.2013 40.3489L72.5022 40.3589C73.5871 38.6294 74.777 36.9576 75.7213 35.1544C76.4479 33.7596 77.327 33.2196 78.9128 33.3232C80.9302 33.4547 82.9674 33.2734 85.1709 33.2236C85.0244 32.9568 84.8638 32.6981 84.6898 32.4485C83.3495 30.8146 82.025 29.1668 80.6451 27.5668C80.0848 26.9152 79.9245 26.2876 80.2254 25.4786C80.5936 24.4823 80.9203 23.4861 81.2153 22.4639C81.5756 21.2166 81.8805 19.9553 82.2844 18.419C79.9938 19.3516 77.9605 20.1067 75.9906 21.0093C74.8997 21.5095 74.0741 21.4617 73.104 20.7045C71.3757 19.3655 69.5602 18.176 67.7823 16.9266Z" fill="#E33C5C"/>
<path d="M34.0861 28.5073C34.4939 25.9608 34.8483 23.4104 35.3433 20.8739C35.5175 19.9792 35.3215 19.4631 34.6781 18.8375C32.7854 17.0004 30.9659 15.0835 29.1703 13.1488C28.1526 12.0529 28.5387 10.8892 29.9978 10.6103C32.7082 10.0962 35.4304 9.64192 38.1566 9.21551C38.4115 9.19469 38.6558 9.10326 38.8623 8.95133C39.0688 8.7994 39.2295 8.59292 39.3266 8.35474C40.5541 5.9079 41.8014 3.46504 43.112 1.06005C43.8841 -0.356644 45.1175 -0.352659 45.8956 1.06005C47.1785 3.40527 48.4218 5.7744 49.5978 8.17541C49.9344 8.85885 50.3066 9.12186 51.049 9.23145C53.6795 9.618 56.3021 10.0663 58.9168 10.5764C60.5164 10.8912 60.8807 12.0409 59.774 13.2225C57.9077 15.2323 55.9992 17.1976 54.0484 19.1184C53.8544 19.2836 53.71 19.5 53.6313 19.7432C53.5527 19.9863 53.5428 20.2468 53.603 20.4953C54.0306 23.2397 54.4338 25.9874 54.8126 28.7384C55.0106 30.2248 54.0663 30.97 52.7061 30.3324C50.2056 29.1608 47.7368 27.9175 45.2839 26.6482C44.7236 26.3573 44.3395 26.3354 43.7614 26.6383C41.4028 27.8803 39.0211 29.0758 36.6163 30.2248C34.9473 31.0079 34.1118 30.3842 34.0861 28.5073ZM51.6885 26.9969L51.9558 26.8116C51.5895 24.7733 51.3163 22.711 50.8233 20.7045C50.4749 19.2798 50.7184 18.3234 51.8786 17.3371C53.4624 15.9822 54.8344 14.3682 56.4321 12.7303C54.0702 12.4195 51.8291 12.0668 49.5781 11.8496C48.5565 11.752 47.9942 11.3455 47.5864 10.4031C46.8934 8.76121 46.0837 7.16917 45.3096 5.56319C45.0898 5.1069 44.8245 4.67452 44.4424 3.96916C43.3318 6.32234 42.3161 8.39259 41.3817 10.4987C40.9976 11.3635 40.4512 11.7341 39.5187 11.8297C37.2399 12.0668 34.9651 12.4076 32.5161 12.7323C32.8784 13.1627 33.0665 13.4277 33.2962 13.6509C34.7157 15.0297 36.1114 16.4405 37.5884 17.7555C38.3288 18.4151 38.5783 19.1065 38.3051 20.035C38.2001 20.3831 38.1155 20.737 38.0516 21.095C37.7217 22.9999 37.3957 24.9061 37.0736 26.8136L37.3409 26.989C39.2395 25.9528 41.1817 24.9964 43.0229 23.8547C44.0979 23.1952 44.9354 23.1972 46.0085 23.8547C47.8457 25.0044 49.7958 25.9608 51.6885 26.9969Z" fill="#E33C5C"/>
</g>
<defs>
<clipPath id="clip0_323_260">
<rect width="89" height="94" fill="white"/>
</clipPath>
</defs>
</svg>
