<svg width="55" height="95" viewBox="0 0 55 95" fill="none" xmlns="http://www.w3.org/2000/svg">
<g clip-path="url(#clip0_322_131)">
<path d="M47.4652 0H7.48768C5.50421 0.00776135 3.6042 0.799564 2.20166 2.20287C0.799127 3.60617 0.0077571 5.50722 0 7.49178V87.4905C0.00155759 89.4822 0.792609 91.392 2.19963 92.8009C3.60665 94.2098 5.51475 95.0028 7.50535 95.0059H47.4652C49.4558 95.0028 51.3639 94.2098 52.7709 92.8009C54.1779 91.392 54.969 89.4822 54.9705 87.4905V7.49178C54.9628 5.50417 54.169 3.60045 52.7626 2.19665C51.3563 0.792844 49.4517 0.00310015 47.4652 0ZM2.10315 13.1091H52.8851V80.3053H2.10315V13.1091ZM7.49947 2.11019H47.4652C48.8965 2.10705 50.2706 2.67172 51.2865 3.68046C52.3024 4.6892 52.8773 6.05975 52.8851 7.49178V11.0284H2.10315V7.49178C2.11093 6.06281 2.68333 4.69494 3.69543 3.6867C4.70753 2.67846 6.07715 2.11173 7.50535 2.11019H7.49947ZM47.477 92.8839H7.49947C6.06821 92.8808 4.69655 92.3101 3.68505 91.297C2.67355 90.2838 2.1047 88.9108 2.10315 87.4787V82.4155H52.8851V87.4787C52.8858 88.1908 52.7461 88.8961 52.474 89.554C52.2018 90.212 51.8025 90.8097 51.299 91.3129C50.7955 91.8162 50.1976 92.215 49.5398 92.4866C48.8819 92.7582 48.1769 92.8972 47.4652 92.8957L47.477 92.8839Z" fill="#004999"/>
<path d="M27.5002 89.7658C28.6649 89.7658 29.6092 88.821 29.6092 87.6556C29.6092 86.4902 28.6649 85.5454 27.5002 85.5454C26.3354 85.5454 25.3911 86.4902 25.3911 87.6556C25.3911 88.821 26.3354 89.7658 27.5002 89.7658Z" fill="#E33C5C"/>
<path d="M29.7918 7.65683H18.1273C17.8476 7.65683 17.5794 7.54566 17.3816 7.34779C17.1839 7.14993 17.0728 6.88156 17.0728 6.60173C17.0728 6.3219 17.1839 6.05353 17.3816 5.85566C17.5794 5.65779 17.8476 5.54663 18.1273 5.54663H29.7918C30.0715 5.54663 30.3397 5.65779 30.5375 5.85566C30.7352 6.05353 30.8463 6.3219 30.8463 6.60173C30.8463 6.88156 30.7352 7.14993 30.5375 7.34779C30.3397 7.54566 30.0715 7.65683 29.7918 7.65683Z" fill="#E33C5C"/>
<path d="M34.7698 8.18144C35.645 8.18144 36.3545 7.47155 36.3545 6.59585C36.3545 5.72015 35.645 5.01025 34.7698 5.01025C33.8946 5.01025 33.1851 5.72015 33.1851 6.59585C33.1851 7.47155 33.8946 8.18144 34.7698 8.18144Z" fill="#E33C5C"/>
<path d="M15.865 33.5745H9.54961C8.81574 33.5729 8.11238 33.2806 7.59346 32.7614C7.07454 32.2421 6.78232 31.5384 6.78076 30.8041V24.4853C6.78232 23.7511 7.07454 23.0473 7.59346 22.5281C8.11238 22.0089 8.81574 21.7165 9.54961 21.715H15.865C16.5988 21.7165 17.3022 22.0089 17.8211 22.5281C18.34 23.0473 18.6322 23.7511 18.6338 24.4853V30.8041C18.6322 31.5384 18.34 32.2421 17.8211 32.7614C17.3022 33.2806 16.5988 33.5729 15.865 33.5745ZM9.54961 23.8252C9.37462 23.8252 9.20679 23.8947 9.08305 24.0185C8.95931 24.1423 8.8898 24.3102 8.8898 24.4853V30.8041C8.89134 30.9787 8.96135 31.1458 9.08476 31.2692C9.20816 31.3927 9.37509 31.4628 9.54961 31.4643H15.865C16.0395 31.4628 16.2064 31.3927 16.3298 31.2692C16.4532 31.1458 16.5232 30.9787 16.5248 30.8041V24.4853C16.5248 24.3102 16.4552 24.1423 16.3315 24.0185C16.2078 23.8947 16.0399 23.8252 15.865 23.8252H9.54961Z" fill="#004999"/>
<path d="M30.6517 33.5745H24.3423C23.9764 33.5776 23.6135 33.5083 23.2745 33.3705C22.9355 33.2328 22.6271 33.0293 22.3671 32.7718C22.107 32.5143 21.9004 32.2079 21.7591 31.8702C21.6178 31.5325 21.5447 31.1702 21.5439 30.8041V24.4853C21.5455 23.75 21.8385 23.0454 22.3587 22.526C22.8789 22.0067 23.5838 21.715 24.3187 21.715H30.6281C31.362 21.7165 32.0654 22.0089 32.5843 22.5281C33.1032 23.0473 33.3954 23.7511 33.397 24.4853V30.8041C33.3955 31.5343 33.1065 32.2346 32.5927 32.7531C32.0788 33.2716 31.3815 33.5667 30.6517 33.5745ZM24.3423 23.8252C24.2556 23.8252 24.1698 23.8422 24.0898 23.8754C24.0097 23.9086 23.937 23.9572 23.8757 24.0185C23.8144 24.0798 23.7658 24.1526 23.7327 24.2327C23.6995 24.3128 23.6824 24.3986 23.6824 24.4853V30.8041C23.6824 30.8908 23.6995 30.9767 23.7327 31.0568C23.7658 31.1369 23.8144 31.2096 23.8757 31.2709C23.937 31.3322 24.0097 31.3809 24.0898 31.414C24.1698 31.4472 24.2556 31.4643 24.3423 31.4643H30.6517C30.8267 31.4643 30.9945 31.3947 31.1183 31.2709C31.242 31.1471 31.3115 30.9792 31.3115 30.8041V24.4853C31.3115 24.3102 31.242 24.1423 31.1183 24.0185C30.9945 23.8947 30.8267 23.8252 30.6517 23.8252H24.3423Z" fill="#E33C5C"/>
<path d="M45.4387 33.5745H39.1292C38.3953 33.5729 37.692 33.2806 37.173 32.7614C36.6541 32.2421 36.3619 31.5384 36.3604 30.8041V24.4853C36.3619 23.7511 36.6541 23.0473 37.173 22.5281C37.692 22.0089 38.3953 21.7165 39.1292 21.715H45.4387C46.1735 21.715 46.8784 22.0067 47.3986 22.526C47.9188 23.0454 48.2118 23.75 48.2134 24.4853V30.8041C48.2118 31.5394 47.9188 32.2441 47.3986 32.7634C46.8784 33.2828 46.1735 33.5745 45.4387 33.5745ZM39.1292 23.8252C38.9542 23.8252 38.7864 23.8947 38.6626 24.0185C38.5389 24.1423 38.4694 24.3102 38.4694 24.4853V30.8041C38.4694 30.9792 38.5389 31.1471 38.6626 31.2709C38.7864 31.3947 38.9542 31.4643 39.1292 31.4643H45.4387C45.6136 31.4643 45.7815 31.3947 45.9052 31.2709C46.0289 31.1471 46.0985 30.9792 46.0985 30.8041V24.4853C46.0985 24.3102 46.0289 24.1423 45.9052 24.0185C45.7815 23.8947 45.6136 23.8252 45.4387 23.8252H39.1292Z" fill="#004999"/>
<path d="M15.865 50.4619H9.54961C8.81574 50.4604 8.11238 50.168 7.59346 49.6488C7.07454 49.1296 6.78232 48.4258 6.78076 47.6916V41.3787C6.78076 40.6434 7.07229 39.9381 7.59138 39.4176C8.11047 38.8972 8.81473 38.604 9.54961 38.6024H15.865C16.5998 38.604 17.3041 38.8972 17.8232 39.4176C18.3423 39.9381 18.6338 40.6434 18.6338 41.3787V47.6916C18.6322 48.4258 18.34 49.1296 17.8211 49.6488C17.3022 50.168 16.5988 50.4604 15.865 50.4619ZM9.54961 40.7126C9.37408 40.7142 9.20627 40.785 9.08269 40.9098C8.95912 41.0345 8.88979 41.203 8.8898 41.3787V47.6916C8.8898 47.7783 8.90687 47.8641 8.94003 47.9442C8.97318 48.0243 9.02178 48.0971 9.08305 48.1584C9.14432 48.2197 9.21706 48.2683 9.29711 48.3015C9.37717 48.3347 9.46296 48.3518 9.54961 48.3518H15.865C15.9516 48.3518 16.0374 48.3347 16.1174 48.3015C16.1975 48.2683 16.2702 48.2197 16.3315 48.1584C16.3928 48.0971 16.4414 48.0243 16.4745 47.9442C16.5077 47.8641 16.5248 47.7783 16.5248 47.6916V41.3787C16.5248 41.203 16.4554 41.0345 16.3319 40.9098C16.2083 40.785 16.0405 40.7142 15.865 40.7126H9.54961Z" fill="#E33C5C"/>
<path d="M30.6517 50.4619H24.3423C23.9764 50.4651 23.6135 50.3957 23.2745 50.258C22.9355 50.1202 22.6271 49.9167 22.3671 49.6593C22.107 49.4018 21.9004 49.0954 21.7591 48.7577C21.6178 48.42 21.5447 48.0577 21.5439 47.6916V41.3787C21.5439 40.6424 21.8363 39.9362 22.3566 39.4156C22.877 38.8949 23.5828 38.6024 24.3187 38.6024H30.6281C31.363 38.604 32.0673 38.8972 32.5864 39.4176C33.1055 39.9381 33.397 40.6434 33.397 41.3787V47.6916C33.3955 48.4218 33.1065 49.122 32.5927 49.6405C32.0788 50.1591 31.3815 50.4542 30.6517 50.4619ZM24.3423 40.7126C24.1667 40.7142 23.9989 40.785 23.8753 40.9098C23.7518 41.0345 23.6824 41.203 23.6824 41.3787V47.6916C23.6824 47.7783 23.6995 47.8641 23.7327 47.9442C23.7658 48.0243 23.8144 48.0971 23.8757 48.1584C23.937 48.2197 24.0097 48.2683 24.0898 48.3015C24.1698 48.3347 24.2556 48.3518 24.3423 48.3518H30.6517C30.7383 48.3518 30.8241 48.3347 30.9042 48.3015C30.9843 48.2683 31.057 48.2197 31.1183 48.1584C31.1795 48.0971 31.2281 48.0243 31.2613 47.9442C31.2944 47.8641 31.3115 47.7783 31.3115 47.6916V41.3787C31.3115 41.203 31.2422 41.0345 31.1186 40.9098C30.995 40.785 30.8272 40.7142 30.6517 40.7126H24.3423Z" fill="#004999"/>
<path d="M45.4387 50.4619H39.1292C38.3953 50.4604 37.692 50.168 37.173 49.6488C36.6541 49.1296 36.3619 48.4258 36.3604 47.6916V41.3787C36.3603 40.6434 36.6519 39.9381 37.171 39.4176C37.6901 38.8972 38.3943 38.604 39.1292 38.6024H45.4387C46.1746 38.6024 46.8803 38.8949 47.4007 39.4156C47.9211 39.9362 48.2134 40.6424 48.2134 41.3787V47.6916C48.2118 48.4269 47.9188 49.1315 47.3986 49.6509C46.8784 50.1703 46.1735 50.4619 45.4387 50.4619ZM39.1292 40.7126C38.9537 40.7142 38.7859 40.785 38.6623 40.9098C38.5387 41.0345 38.4694 41.203 38.4694 41.3787V47.6916C38.4694 47.7783 38.4865 47.8641 38.5196 47.9442C38.5528 48.0243 38.6014 48.0971 38.6626 48.1584C38.7239 48.2197 38.7967 48.2683 38.8767 48.3015C38.9568 48.3347 39.0426 48.3518 39.1292 48.3518H45.4387C45.5253 48.3518 45.6111 48.3347 45.6911 48.3015C45.7712 48.2683 45.8439 48.2197 45.9052 48.1584C45.9665 48.0971 46.0151 48.0243 46.0482 47.9442C46.0814 47.8641 46.0985 47.7783 46.0985 47.6916V41.3787C46.0985 41.203 46.0291 41.0345 45.9056 40.9098C45.782 40.785 45.6142 40.7142 45.4387 40.7126H39.1292Z" fill="#E33C5C"/>
<path d="M15.865 67.3553H9.54961C8.8152 67.3521 8.11185 67.0585 7.59309 66.5383C7.07434 66.0182 6.78231 65.3138 6.78076 64.579V58.2661C6.78232 57.5318 7.07454 56.8281 7.59346 56.3089C8.11238 55.7897 8.81574 55.4973 9.54961 55.4957H15.865C16.5988 55.4973 17.3022 55.7897 17.8211 56.3089C18.34 56.8281 18.6322 57.5318 18.6338 58.2661V64.579C18.6323 65.3138 18.3402 66.0182 17.8215 66.5383C17.3027 67.0585 16.5994 67.3521 15.865 67.3553ZM9.54961 57.5941C9.37462 57.5941 9.20679 57.6637 9.08305 57.7875C8.95931 57.9113 8.8898 58.0792 8.8898 58.2543V64.5672C8.88582 64.6563 8.89994 64.7454 8.93131 64.8289C8.96268 64.9124 9.01065 64.9887 9.07232 65.0532C9.134 65.1176 9.20809 65.1689 9.29012 65.2039C9.37215 65.2389 9.46043 65.2569 9.54961 65.2568H15.865C16.0399 65.2568 16.2078 65.1873 16.3315 65.0635C16.4552 64.9397 16.5248 64.7718 16.5248 64.5967V58.2661C16.5263 58.1784 16.5104 58.0913 16.478 58.0098C16.4455 57.9284 16.3972 57.8542 16.3357 57.7916C16.2743 57.7291 16.201 57.6794 16.1202 57.6455C16.0394 57.6116 15.9526 57.5941 15.865 57.5941H9.54961Z" fill="#004999"/>
<path d="M30.6517 67.3553H24.3423C23.9761 67.3576 23.6131 67.2875 23.2741 67.1491C22.9351 67.0107 22.6267 66.8067 22.3667 66.5487C22.1067 66.2908 21.9002 65.984 21.759 65.646C21.6178 65.3079 21.5447 64.9453 21.5439 64.579V58.2661C21.5455 57.5308 21.8385 56.8262 22.3587 56.3068C22.8789 55.7874 23.5838 55.4957 24.3187 55.4957H30.6281C31.362 55.4973 32.0654 55.7897 32.5843 56.3089C33.1032 56.8281 33.3954 57.5318 33.397 58.2661V64.579C33.3955 65.3098 33.1067 66.0106 32.593 66.5301C32.0793 67.0496 31.382 67.346 30.6517 67.3553ZM24.3423 57.5941C24.2556 57.5941 24.1698 57.6112 24.0898 57.6444C24.0097 57.6776 23.937 57.7262 23.8757 57.7875C23.8144 57.8488 23.7658 57.9216 23.7327 58.0017C23.6995 58.0818 23.6824 58.1676 23.6824 58.2543V64.5672C23.6785 64.6563 23.6926 64.7454 23.724 64.8289C23.7553 64.9124 23.8033 64.9887 23.865 65.0532C23.9266 65.1176 24.0007 65.1689 24.0828 65.2039C24.1648 65.2389 24.2531 65.2569 24.3423 65.2568H30.6517C30.8267 65.2568 30.9945 65.1873 31.1183 65.0635C31.242 64.9397 31.3115 64.7718 31.3115 64.5967V58.2661C31.3131 58.1784 31.2972 58.0913 31.2647 58.0098C31.2323 57.9284 31.1839 57.8542 31.1225 57.7916C31.061 57.7291 30.9878 57.6794 30.907 57.6455C30.8261 57.6116 30.7393 57.5941 30.6517 57.5941H24.3423Z" fill="#E33C5C"/>
<path d="M45.4387 67.3553H39.1292C38.3948 67.3521 37.6914 67.0585 37.1727 66.5383C36.6539 66.0182 36.3619 65.3138 36.3604 64.579V58.2661C36.3619 57.5318 36.6541 56.8281 37.173 56.3089C37.692 55.7897 38.3953 55.4973 39.1292 55.4957H45.4387C46.1735 55.4957 46.8784 55.7874 47.3986 56.3068C47.9188 56.8262 48.2118 57.5308 48.2134 58.2661V64.579C48.2118 65.3148 47.919 66.0201 47.399 66.5404C46.8789 67.0607 46.1741 67.3537 45.4387 67.3553ZM39.1292 57.5941C38.9542 57.5941 38.7864 57.6637 38.6626 57.7875C38.5389 57.9113 38.4694 58.0792 38.4694 58.2543V64.5672C38.4654 64.6563 38.4795 64.7454 38.5109 64.8289C38.5423 64.9124 38.5902 64.9887 38.6519 65.0532C38.7136 65.1176 38.7877 65.1689 38.8697 65.2039C38.9517 65.2389 39.04 65.2569 39.1292 65.2568H45.4387C45.6136 65.2568 45.7815 65.1873 45.9052 65.0635C46.0289 64.9397 46.0985 64.7718 46.0985 64.5967V58.2661C46.1 58.1784 46.0841 58.0913 46.0517 58.0098C46.0192 57.9284 45.9708 57.8542 45.9094 57.7916C45.848 57.7291 45.7747 57.6794 45.6939 57.6455C45.6131 57.6116 45.5263 57.5941 45.4387 57.5941H39.1292Z" fill="#004999"/>
</g>
<defs>
<clipPath id="clip0_322_131">
<rect width="55" height="95" fill="white"/>
</clipPath>
</defs>
</svg>
