<svg width="102" height="98" viewBox="0 0 102 98" fill="none" xmlns="http://www.w3.org/2000/svg">
<g clip-path="url(#clip0_322_65)">
<path d="M67.4587 55.052C66.5263 54.5741 65.654 54.0539 64.6915 53.6426C62.8023 52.8142 60.7669 52.3761 58.706 52.3541C58.3301 52.3308 57.9593 52.2533 57.6052 52.1243C55.7343 51.5194 53.8635 50.9145 51.9866 50.3096C51.8784 50.2733 51.7641 50.2491 51.6317 50.2128C50.9339 51.9368 50.2421 53.6305 49.5624 55.3303C49.2255 56.1529 48.9007 56.9816 48.5638 57.8104C48.2991 58.4636 48.0886 58.5665 47.4148 58.3669C44.6075 57.5603 41.8183 56.7538 39.0472 55.9473C38.655 55.8271 38.2362 55.8271 37.8441 55.9473C35.0408 56.782 32.2255 57.5865 29.4223 58.3669C28.8568 58.5302 28.6462 58.4274 28.3936 57.8708C27.2386 55.3121 26.0836 52.7594 24.9166 50.1644L22.6908 50.8419L18.125 52.2513C17.9387 52.302 17.7466 52.3284 17.5535 52.3299C13.7851 52.3868 10.1542 53.7632 7.28625 56.2221C4.41826 58.6809 2.49261 62.0683 1.84086 65.8011C1.60976 67.403 1.5292 69.0232 1.60024 70.6403C1.60024 70.9065 1.60024 71.1787 1.60024 71.4448V91.7876C1.60024 93.5358 1.60024 95.284 1.60024 97.0321C1.58798 97.15 1.55238 97.2643 1.49556 97.3682C1.43875 97.4721 1.36184 97.5635 1.26937 97.637C1.17545 97.6822 1.07268 97.7056 0.968596 97.7056C0.864509 97.7056 0.76174 97.6822 0.667818 97.637C0.583102 97.5739 0.512927 97.4931 0.462061 97.4002C0.411194 97.3073 0.380838 97.2044 0.373061 97.0987C0.373061 96.1913 0.373061 95.284 0.373061 94.3827C0.373061 93.7778 0.373061 93.1729 0.373061 92.568C0.373061 87.386 0.373061 82.2 0.373061 77.0099C0.373061 74.306 0.373061 71.6021 0.373061 68.9042C0.318536 64.6879 1.77359 60.5924 4.47265 57.3653C7.17172 54.1382 10.9348 51.9946 15.0751 51.3258C15.8992 51.1867 16.7474 51.1746 17.5776 51.096C17.735 51.0838 17.8904 51.0534 18.0408 51.0052C19.8996 50.4366 21.7584 49.868 23.6112 49.2813C24.9166 48.8699 26.2159 48.4344 27.5153 47.9989C27.6102 47.9512 27.6879 47.8751 27.7379 47.7811C28.3851 46.6851 28.8142 45.4729 29.0012 44.2122C29.0067 43.9944 28.9741 43.7774 28.9049 43.571C28.605 42.1915 27.9683 40.9089 27.0521 39.8387C26.8115 39.5182 26.5588 39.2036 26.3062 38.8891C26.0725 38.6134 25.9062 38.2865 25.8206 37.9347C25.7349 37.5828 25.7323 37.2157 25.8129 36.8626C25.8416 36.7128 25.8204 36.5576 25.7528 36.4211C24.7343 34.5182 23.9832 32.4824 23.521 30.372C23.4067 29.8579 23.3766 29.3256 23.2322 28.8235C23.0397 28.1581 22.781 27.5169 22.5284 26.8757C21.8058 24.9808 21.2679 23.0198 20.9222 21.0203C20.5262 18.9343 20.6565 16.7818 21.3012 14.7596C20.6516 14.3543 20.6094 14.2454 20.808 13.5074C21.1791 12.2586 21.8674 11.1287 22.8051 10.2288C23.0331 10.0147 23.1816 9.72876 23.2262 9.41828C23.3909 8.31768 23.784 7.26421 24.3799 6.3263C24.9758 5.38838 25.7612 4.58699 26.6852 3.97417C27.5485 3.34209 28.5016 2.84451 29.5125 2.49821C29.6404 2.42671 29.7843 2.38918 29.9306 2.38918C30.0769 2.38918 30.2208 2.42671 30.3486 2.49821C30.3931 2.51842 30.4413 2.52888 30.49 2.52888C30.5388 2.52888 30.587 2.51842 30.6314 2.49821C33.1579 1.18562 35.9408 0.448342 38.7825 0.338717C39.8232 0.284275 40.8699 0.308472 41.9166 0.338717C42.5181 0.338717 42.5542 0.417354 42.837 1.00411C43.7694 1.00411 44.7439 0.93152 45.7124 1.00411C47.766 1.11193 49.7348 1.86276 51.343 3.15151C51.5633 3.3322 51.7649 3.53487 51.9445 3.75641C52.0481 3.8589 52.1084 3.99753 52.113 4.14354C52.0408 4.51253 52.2754 4.65166 52.51 4.82708C54.6426 6.26735 56.1735 8.44632 56.8111 10.9487C56.8111 11.0213 56.8111 11.0939 56.8532 11.1664C56.9675 11.8379 56.9014 11.971 56.3118 12.2553C56.579 14.9383 56.3152 17.6479 55.5358 20.2279C55.475 20.4508 55.3986 20.6691 55.3073 20.8812C55.0426 21.4861 54.8079 21.5949 54.2244 21.4861C54.0319 22.6959 53.8515 23.942 53.6229 25.1639C53.5266 25.7204 53.3763 26.2648 53.2559 26.8092C52.9491 28.2549 52.6544 29.7006 52.3356 31.1403C51.871 33.0354 51.1717 34.8644 50.2542 36.5844C50.118 36.8499 50.0479 37.1446 50.0496 37.4433C50.0751 38.1017 49.8613 38.7468 49.4481 39.258C48.8142 40.007 48.2561 40.8176 47.7818 41.6776C47.4302 42.4789 47.1464 43.3085 46.9336 44.1577C46.9046 44.2378 46.9046 44.3256 46.9336 44.4057C47.3306 45.3857 47.7276 46.3656 48.1367 47.3395C48.2068 47.4623 48.3175 47.5565 48.4495 47.6057C51.6738 48.9607 55.0245 49.9285 58.3391 51.0052C58.7668 51.0896 59.203 51.1221 59.6385 51.102C62.738 51.3151 65.7208 52.3755 68.2648 54.1688C68.3743 54.2653 68.5118 54.3238 68.6569 54.3358C68.802 54.3478 68.9471 54.3126 69.0709 54.2354C73.9159 51.9095 79.4219 51.3781 84.6185 52.7348C89.815 54.0915 94.3685 57.2493 97.4764 61.6515C100.274 65.6212 101.732 70.3882 101.637 75.2526C101.541 80.117 99.8977 84.8225 96.947 88.6785C94.1867 92.325 90.3831 95.0353 86.0468 96.4454C82.2701 97.7358 78.2161 97.972 74.3164 97.1289C71.1337 96.5043 68.1248 95.1891 65.4994 93.2752C62.874 91.3613 60.6952 88.8946 59.1151 86.0471C56.7908 82.0712 55.7818 77.4559 56.2336 72.8663C56.4741 69.7583 57.3576 66.735 58.8275 63.9902C60.2975 61.2454 62.3214 58.8397 64.7697 56.9272C65.642 56.286 66.5263 55.7174 67.4587 55.052ZM100.43 74.8504C100.451 70.5772 99.2113 66.3938 96.8666 62.8299C94.5219 59.266 91.1781 56.4819 87.2587 54.8303C83.3394 53.1787 79.0208 52.7339 74.8498 53.5521C70.6788 54.3703 66.8432 56.4148 63.8285 59.4267C60.8139 62.4385 58.756 66.2823 57.9154 70.471C57.0748 74.6598 57.4893 79.0052 59.1064 82.957C60.7236 86.9087 63.4706 90.289 66.9996 92.6697C70.5286 95.0504 74.6808 96.3244 78.9304 96.3305C84.6129 96.3449 90.0688 94.0909 94.0999 90.0635C98.131 86.0361 100.408 80.5645 100.43 74.8504ZM49.4902 35.2234C50.1458 33.9293 50.6562 32.5659 51.0121 31.1584C51.3008 30.2668 51.4311 29.3311 51.3971 28.394C51.2046 26.3858 51.1445 24.3714 51.0001 22.345C50.9919 21.4527 50.885 20.5641 50.6813 19.6955C50.2602 18.3103 49.6586 16.9856 49.1232 15.6367C49.0792 15.523 49.0091 15.4215 48.9187 15.3403C48.3068 14.7491 47.573 14.3007 46.7693 14.0268C45.9657 13.7529 45.1119 13.6602 44.2687 13.7554C43.1647 13.9283 42.0704 14.1584 40.9902 14.445C39.4134 14.8215 37.7787 14.8852 36.1777 14.6325C34.9445 14.4148 33.7174 14.1547 32.4721 14.0276C30.642 13.79 28.789 14.2402 27.2687 15.2919C27.0678 15.4034 26.8998 15.5661 26.7814 15.7637C26.1137 17.2941 25.3497 18.7882 25.2715 20.5122C25.1873 22.4055 25.079 24.2928 24.9286 26.1801C24.8564 27.154 25.0008 28.1581 24.5978 29.1018C24.5978 29.1562 24.5978 29.2409 24.6278 29.3135C24.9203 30.9811 25.4153 32.6063 26.1016 34.1527C26.246 34.4793 26.3964 34.7999 26.5588 35.1568L27.1243 34.5943C28.3648 33.2536 29.7816 32.0896 31.3352 31.1342C33.2241 30.0394 35.1551 29.7853 37.1763 30.7773C37.3948 30.8875 37.6358 30.9448 37.8801 30.9448C38.1245 30.9448 38.3655 30.8875 38.584 30.7773C39.9054 30.1145 41.4333 30.0015 42.837 30.4628C44.3828 31.001 45.8018 31.8534 47.0058 32.9671C47.8299 33.6567 48.636 34.437 49.4902 35.2234ZM54.5072 19.1995C55.0356 17.1476 55.2226 15.0219 55.0606 12.9086C54.9778 12.1686 54.837 11.4364 54.6395 10.7188C54.4651 10.1139 54.441 9.96269 54.9644 9.54531C54.7478 9.18842 54.5433 8.81338 54.3026 8.46254C53.082 6.77151 51.4412 5.43238 49.5443 4.57907C49.2863 4.46538 49.0742 4.26706 48.9428 4.01651C48.8646 3.8169 49.033 3.5205 49.1172 3.1757C48.4284 2.91442 47.7254 2.69228 47.0118 2.51031C44.9259 2.12323 42.7873 2.12323 40.7014 2.51031C39.9675 2.62524 39.6848 2.37118 39.739 1.60901C39.6548 1.60307 39.5704 1.60307 39.4863 1.60901C38.1268 1.78443 36.7552 1.88121 35.4138 2.15342C33.2075 2.58174 31.1348 3.53364 29.3681 4.92991C28.7665 5.41384 28.3996 5.34125 28.0627 4.62746C26.0235 5.88566 24.7 7.65197 24.4534 10.0716C24.4198 10.3846 24.2745 10.6747 24.0443 10.8882C23.5811 11.36 23.148 11.8681 22.6728 12.4004C23.539 12.6001 23.6834 13.0053 23.2382 13.6828C23.165 13.7956 23.0987 13.9128 23.0397 14.0337C22.1781 15.8128 21.838 17.8018 22.0592 19.7681C22.2479 21.3828 22.5925 22.9751 23.0879 24.5227C23.2322 25.055 23.4067 25.5752 23.5691 26.1075H23.7014C23.7014 25.9139 23.7014 25.7143 23.7014 25.5026C23.8418 23.1112 23.9822 20.7198 24.1225 18.3285C24.1965 17.2324 24.6302 16.192 25.3557 15.3705C26.0428 14.5898 26.8798 13.9569 27.8165 13.5099C28.7531 13.0629 29.7699 12.8111 30.8058 12.7694C32.3012 12.6781 33.8017 12.8127 35.2573 13.1687C36.5142 13.5132 37.8246 13.6158 39.1194 13.4711C40.2864 13.2836 41.4474 13.0658 42.5843 12.7815C43.9333 12.3857 45.3641 12.3669 46.723 12.7271C49.2135 13.4711 51.0242 14.9894 51.6738 17.5663C51.956 18.9635 52.1449 20.3781 52.2393 21.8006C52.3356 22.6475 52.3656 23.5064 52.4378 24.4622C52.4726 24.3792 52.5027 24.2944 52.528 24.2081C52.8396 22.4886 52.9686 20.7407 52.913 18.9939C52.8883 18.8462 52.9189 18.6946 52.9989 18.5684C53.0789 18.4421 53.2027 18.3502 53.3462 18.3103C53.4856 18.261 53.6379 18.2625 53.7764 18.3144C53.9149 18.3664 54.0308 18.4655 54.1041 18.5946L54.5072 19.1995ZM38.223 46.9161C38.596 46.9161 39.2457 46.8737 39.8833 46.8012C41.3633 46.6757 42.7993 46.2322 44.0942 45.5006C44.5924 45.2298 45.0246 44.851 45.3596 44.3918C45.6946 43.9326 45.924 43.4043 46.0312 42.8451C46.1655 42.2065 46.4012 41.5938 46.729 41.0304C47.1867 40.1947 47.7225 39.4048 48.3292 38.6713C48.5316 38.4317 48.6742 38.147 48.7454 37.8409C48.8165 37.5348 48.8141 37.216 48.7382 36.911C48.7246 36.6124 48.6288 36.3234 48.4615 36.0763C47.7998 35.3867 47.09 34.7273 46.3681 34.0922C45.3299 33.1278 44.1331 32.3521 42.8309 31.7996C42.2396 31.5546 41.603 31.4398 40.9638 31.4627C40.3247 31.4857 39.6978 31.6459 39.1254 31.9327C38.7138 32.1373 38.2597 32.2408 37.8006 32.2345C37.3415 32.2281 36.8904 32.1123 36.4845 31.8964C35.937 31.6333 35.3406 31.4891 34.734 31.473C33.644 31.4693 32.5799 31.8077 31.6901 32.4408C30.3462 33.3318 29.1036 34.3684 27.9845 35.5319C27.5573 35.9271 27.2559 36.4407 27.1183 37.0078C27.059 37.1877 27.0462 37.3797 27.0809 37.5659C27.1156 37.7521 27.1968 37.9264 27.3168 38.0724C27.6176 38.4535 27.9184 38.8346 28.2131 39.2278C29.0793 40.2554 29.697 41.4707 30.0178 42.7786C30.1301 43.4051 30.3919 43.9949 30.7806 44.4974C31.1693 45 31.6733 45.4002 32.2496 45.6639C34.0542 46.6076 35.9792 46.8798 38.223 46.9161ZM29.3681 47.3516L29.8794 47.7569C32.6526 49.9769 35.3476 52.3118 38.3854 54.187C38.4818 54.2798 38.61 54.3316 38.7434 54.3316C38.8768 54.3316 39.005 54.2798 39.1013 54.187C40.4909 53.0377 41.8985 51.9126 43.3122 50.7814C44.4672 49.8559 45.6282 48.9667 46.7772 48.0049C46.8196 47.969 46.8527 47.9232 46.8736 47.8716C46.8946 47.82 46.9028 47.764 46.8975 47.7085C46.6087 47.0371 46.2959 46.3717 45.9831 45.6821C44.959 46.6245 43.7191 47.2978 42.3738 47.642C39.9625 48.3193 37.4281 48.427 34.9686 47.9565C33.4562 47.7212 32.0164 47.1442 30.7577 46.2688C30.499 46.0813 30.2584 45.8575 30.0118 45.6639L29.3681 47.3516ZM26.1137 49.7712C27.1845 52.1545 28.2372 54.4894 29.2839 56.8244C29.3862 57.0542 29.5125 57.0119 29.6929 56.9635L33.7535 55.7537L36.653 54.9189C36.653 54.8705 36.653 54.8403 36.6108 54.8282C34.1405 52.8119 31.6661 50.8137 29.1876 48.8336C29.1401 48.8026 29.0862 48.7827 29.03 48.7753C28.9738 48.768 28.9166 48.7735 28.8628 48.7913C27.9544 49.124 27.0521 49.4446 26.1137 49.7773V49.7712ZM40.1781 54.925L47.481 57.0421L50.4286 49.747C49.6586 49.4506 48.9067 49.1421 48.1668 48.8639C48.0678 48.8182 47.9575 48.8036 47.8502 48.822C47.7429 48.8403 47.6436 48.8907 47.5652 48.9667C46.0854 50.1765 44.5935 51.3863 43.1077 52.5961L40.1781 54.925Z" fill="#004999"/>
<path d="M0.96848 98.006C0.84519 98.0118 0.722033 97.9922 0.606514 97.9485C0.490995 97.9048 0.385539 97.8379 0.296593 97.7519C0.207648 97.6658 0.137079 97.5625 0.0891838 97.4481C0.0412884 97.3337 0.0170778 97.2107 0.018028 97.0866C0.018028 96.4817 0.018028 95.9191 0.018028 95.3384C0.018028 95.0118 0.018028 94.6912 0.018028 94.3645C0.018028 94.0379 0.018028 93.7596 0.018028 93.433C0.018028 93.1063 0.018028 92.8281 0.018028 92.5317C0.018028 87.8699 0.018028 83.2041 0.018028 78.5343V74.3C0.018028 72.4853 0.018028 70.6706 0.018028 68.8559C-0.0359705 64.5681 1.44473 60.4036 4.19004 57.1223C6.93535 53.8409 10.7623 51.6613 14.9727 50.981C15.5308 50.895 16.0931 50.8384 16.6571 50.8117C16.9398 50.8117 17.2165 50.7754 17.4993 50.7451C17.6361 50.7342 17.7713 50.7078 17.9023 50.6665L18.8107 50.3882C20.3627 49.9104 21.9147 49.4325 23.4667 48.9425C24.7721 48.5312 26.0654 48.0957 27.3648 47.6662C27.3648 47.6662 27.3648 47.6662 27.431 47.5694C28.0806 46.523 28.5237 45.3606 28.7364 44.1457C28.7374 44.0433 28.7232 43.9414 28.6942 43.8432C28.6705 43.766 28.6524 43.6872 28.6401 43.6073C28.3448 42.2666 27.7249 41.0199 26.8354 39.9779C26.5948 39.6573 26.3482 39.373 26.0955 39.0342C25.8333 38.7248 25.6467 38.3579 25.5506 37.963C25.4545 37.5681 25.4516 37.1561 25.5421 36.7598C25.5537 36.6799 25.5433 36.5983 25.512 36.5239C24.4805 34.6046 23.7192 32.5505 23.2502 30.4205C23.202 30.2087 23.172 29.9849 23.1359 29.7672C23.104 29.4879 23.0538 29.211 22.9855 28.9384C22.8231 28.3759 22.6005 27.8133 22.3839 27.2689L22.2877 27.0149C21.5532 25.1038 21.0091 23.1241 20.6635 21.105C20.2764 19.0463 20.3857 16.9243 20.9823 14.9168C20.3807 14.5176 20.3386 14.2394 20.5552 13.459C20.9387 12.159 21.6542 10.9828 22.6306 10.0474C22.8126 9.8796 22.9298 9.65248 22.9614 9.40619C23.127 8.26113 23.5315 7.16422 24.1484 6.18742C24.7652 5.21061 25.5805 4.37598 26.5407 3.73827C27.4302 3.087 28.4115 2.5732 29.4522 2.21392C29.6146 2.13559 29.7924 2.09492 29.9725 2.09492C30.1527 2.09492 30.3305 2.13559 30.4929 2.21392C33.0702 0.88211 35.9051 0.13075 38.8004 0.0120813C39.7749 -0.0363108 40.7615 -0.0242128 41.7119 0.0120813H41.9526C42.1855 -0.0264715 42.4245 0.0192116 42.6271 0.141022C42.8298 0.262833 42.9829 0.452893 43.0594 0.677473H43.7392C44.4164 0.638264 45.0953 0.638264 45.7725 0.677473C47.8875 0.790371 49.9148 1.56434 51.5715 2.89141C51.7908 3.08649 51.9921 3.30109 52.173 3.53261C52.2529 3.61796 52.3144 3.71894 52.3537 3.82926C52.3931 3.93958 52.4094 4.05687 52.4016 4.1738C52.4016 4.31293 52.4016 4.34922 52.6302 4.51859L52.6843 4.55489C54.875 6.03769 56.4466 8.27903 57.0998 10.8519C57.0998 10.9305 57.1299 11.0092 57.1479 11.0878C57.2682 11.8137 57.1479 12.098 56.6245 12.4005C56.8595 15.049 56.5879 17.7183 55.8245 20.2642C55.7558 20.5015 55.6714 20.7339 55.5718 20.9598C55.3071 21.5647 55.0124 21.8006 54.471 21.7764L54.3507 22.5567C54.2123 23.4278 54.08 24.3049 53.9296 25.176C53.8694 25.5268 53.7852 25.8776 53.707 26.2224L53.5626 26.8273L53.2558 28.2973C53.0573 29.253 52.8588 30.2087 52.6543 31.1584C52.1835 33.0714 51.4741 34.9169 50.5428 36.6509C50.4319 36.8723 50.3742 37.1168 50.3744 37.3647C50.406 38.0958 50.1731 38.8136 49.7187 39.3851C49.0946 40.1336 48.5484 40.9444 48.0885 41.8047C47.8325 42.3499 47.631 42.9193 47.4869 43.5045C47.4147 43.7525 47.3425 43.9944 47.2643 44.2364C47.2643 44.2364 47.2643 44.2364 47.2643 44.2787L47.3185 44.4058C47.6974 45.3434 48.0764 46.281 48.4734 47.2065C48.5138 47.2547 48.5655 47.2921 48.6238 47.3153C51.1323 48.3679 53.7671 49.2026 56.3177 50.0132L58.4773 50.727C58.8843 50.7992 59.2975 50.8296 59.7105 50.8177C62.8618 51.0331 65.8946 52.1103 68.4812 53.933C68.5475 53.9983 68.6347 54.0379 68.7272 54.0445C68.8198 54.0512 68.9117 54.0245 68.9865 53.9692C73.8963 51.6161 79.4742 51.0801 84.7383 52.4554C90.0024 53.8308 94.6154 57.0294 97.765 61.4882C100.602 65.5093 102.081 70.3396 101.984 75.2688C101.888 80.1981 100.221 84.9661 97.2296 88.872C94.9092 91.899 91.8812 94.303 88.4147 95.8704C84.9482 97.4377 81.1504 98.1201 77.3586 97.8568C73.5668 97.5934 69.8983 96.3926 66.679 94.3609C63.4596 92.3292 60.7891 89.5295 58.9044 86.2105C56.5471 82.1802 55.5233 77.5012 55.9809 72.8482C56.2294 69.6995 57.1281 66.6374 58.6196 63.8576C60.1111 61.0777 62.1627 58.6412 64.6433 56.7034C65.2027 56.2497 65.7862 55.8505 66.4059 55.421L66.8811 55.0883L66.454 54.8645C65.8103 54.5197 65.2088 54.1991 64.5711 53.9148C62.7164 53.1079 60.7206 52.6802 58.6999 52.6566C58.2896 52.6327 57.8847 52.5512 57.4968 52.4147L53.4483 51.1141L51.8783 50.606H51.794L49.3517 56.655L48.8524 57.9132C48.5276 58.7117 48.1606 58.8931 47.3365 58.6512L45.3032 58.0463L38.9688 56.2316C38.6263 56.1226 38.2587 56.1226 37.9161 56.2316C35.7425 56.8768 33.5669 57.5099 31.3892 58.131L29.4823 58.6814C29.3501 58.7462 29.2052 58.7802 29.0582 58.781C28.9111 58.7818 28.7658 58.7493 28.633 58.686C28.5001 58.6227 28.3831 58.5302 28.2906 58.4152C28.1982 58.3003 28.1326 58.1659 28.0987 58.0221L24.724 50.5516L24.4051 50.6483L22.7509 51.1565L21.3192 51.598L18.1911 52.5659C17.9772 52.6239 17.7569 52.6544 17.5354 52.6566C13.8377 52.7156 10.276 54.0678 7.46231 56.481C4.64863 58.8941 2.75874 62.2174 2.11746 65.8797C1.88575 67.4572 1.80517 69.0534 1.87684 70.6464V70.846C1.87684 71.0517 1.87684 71.2573 1.87684 71.4509V92.9249C1.87684 94.2798 1.87684 95.6409 1.87684 97.0019C1.86482 97.1702 1.81794 97.334 1.73921 97.483C1.66047 97.632 1.55162 97.7627 1.41965 97.8669C1.28692 97.9585 1.12947 98.0071 0.96848 98.006ZM29.9756 2.70389C29.8535 2.71251 29.7336 2.74112 29.6206 2.78858C28.6381 3.1282 27.7115 3.61344 26.8715 4.22824C25.9764 4.81793 25.2159 5.59196 24.6404 6.49916C24.0648 7.40636 23.6874 8.42607 23.5329 9.49088C23.4824 9.8652 23.3062 10.2109 23.0336 10.4708C22.1301 11.3326 21.4665 12.417 21.1086 13.6163C20.9522 14.2212 20.9522 14.2212 21.4696 14.5358L21.6741 14.6567L21.6019 14.8866C20.9705 16.8596 20.8443 18.961 21.2349 20.9961C21.5706 22.9762 22.1026 24.9176 22.8231 26.791L22.9193 27.0512C23.1359 27.6077 23.3645 28.1823 23.5209 28.7691C23.6027 29.0814 23.6649 29.3986 23.7073 29.7188C23.7073 29.9244 23.7675 30.1301 23.8156 30.3237C24.2726 32.3985 25.0136 34.3997 26.0173 36.2698C26.1161 36.468 26.1478 36.6931 26.1076 36.911C26.0339 37.2198 26.0348 37.5418 26.1102 37.8501C26.1855 38.1584 26.3331 38.4441 26.5407 38.6834C26.7933 38.9979 27.046 39.2883 27.2926 39.6452C28.2367 40.755 28.892 42.0832 29.1995 43.5105C29.1995 43.571 29.1996 43.6315 29.2417 43.692C29.3057 43.8721 29.3263 44.0649 29.3018 44.2545C29.0706 45.5426 28.5969 46.7745 27.9062 47.8839C27.8194 48.0349 27.6865 48.1537 27.5272 48.2227C26.2279 48.6582 24.9225 49.0937 23.6171 49.5111C22.0651 50.0011 20.507 50.479 18.955 50.9568L18.0467 51.2351C17.8763 51.2879 17.7009 51.3224 17.5233 51.3379L16.6691 51.4045C16.1277 51.4408 15.5743 51.4771 15.0449 51.5617C10.9785 52.2227 7.28366 54.3309 4.63361 57.5019C1.98357 60.673 0.554754 64.696 0.607542 68.8377C0.607542 70.6524 0.607542 72.4671 0.607542 74.2818V78.5161C0.607542 83.1819 0.607542 87.8477 0.607542 92.5135C0.607542 92.8099 0.607542 93.1184 0.607542 93.4027C0.607542 93.687 0.607542 94.0076 0.607542 94.3464C0.607542 94.6851 0.607542 94.9997 0.607542 95.3263C0.607542 95.9312 0.607542 96.4817 0.607542 97.0563C0.619034 97.1641 0.670618 97.2635 0.751928 97.3346C0.847887 97.3791 0.955976 97.3898 1.05871 97.3648C1.16908 97.2666 1.23974 97.131 1.25723 96.9837C1.25723 95.6288 1.25723 94.2738 1.25723 92.9188V71.463C1.25723 71.2634 1.25723 71.0637 1.25723 70.8581V70.6585C1.18239 69.0251 1.26499 67.3882 1.50387 65.7709C2.17023 61.9707 4.13201 58.5226 7.05212 56.019C9.97223 53.5153 13.6683 52.1126 17.5053 52.0517C17.6719 52.0516 17.8378 52.0292 17.9986 51.9852L21.1267 51.0234L22.5584 50.5758L24.2127 50.0737L25.0368 49.8196L28.6461 57.7741C28.8386 58.2096 28.9048 58.2217 29.3138 58.1007L31.2208 57.5503C33.3984 56.9252 35.5741 56.2921 37.7477 55.6509C38.2008 55.5135 38.6842 55.5135 39.1373 55.6509L45.4657 57.4656L47.5049 58.0705C48.0343 58.2278 48.1065 58.2036 48.293 57.6894L48.8163 56.3828L51.4572 49.8438L51.8422 49.9467C51.9264 49.9467 52.0046 49.989 52.0828 50.0192L53.6529 50.5213C55.0084 50.9649 56.3578 51.3984 57.7013 51.8218C58.028 51.9434 58.3704 52.0167 58.718 52.0396C60.818 52.0632 62.8921 52.5095 64.8177 53.3522C65.4734 53.6426 66.1171 53.9571 66.7427 54.314C67.0255 54.4713 67.3142 54.6225 67.603 54.7677L68.0421 54.9976L67.6391 55.2879L66.7487 55.8928C66.1472 56.3163 65.5456 56.7155 65.0283 57.151C62.6149 59.0403 60.6196 61.4146 59.1695 64.1225C57.7195 66.8304 56.8466 69.8124 56.6065 72.8785C56.1597 77.4073 57.1561 81.9617 59.4519 85.8838C61.2865 89.1129 63.8854 91.8366 67.0181 93.8133C70.1507 95.7901 73.7201 96.9586 77.4097 97.2153C81.0992 97.4721 84.7947 96.809 88.1682 95.2849C91.5417 93.7609 94.489 91.4231 96.7484 88.4788C99.1112 85.3837 100.632 81.7235 101.162 77.8581C101.692 73.9927 101.212 70.0551 99.7705 66.4326C98.3285 62.81 95.9738 59.6272 92.9379 57.197C89.902 54.7668 86.2895 53.1729 82.4554 52.5719C77.9523 51.8176 73.3274 52.4898 69.2211 54.4955C69.0491 54.5947 68.8513 54.6391 68.6537 54.6229C68.4561 54.6067 68.268 54.5306 68.1143 54.4048C65.6165 52.6418 62.6884 51.5963 59.6444 51.3803C59.1825 51.4007 58.7198 51.3642 58.2668 51.2714L56.1012 50.5758C53.5385 49.7652 50.8917 48.9244 48.3591 47.8658C48.1526 47.7847 47.9833 47.6295 47.8839 47.4303C47.4869 46.5048 47.1019 45.5611 46.7229 44.6235L46.6688 44.4965C46.6086 44.351 46.596 44.19 46.6327 44.0368C46.7109 43.8009 46.7771 43.5649 46.8492 43.323C47.009 42.6982 47.2286 42.0905 47.5049 41.5083C47.9847 40.6199 48.5531 39.7828 49.2013 39.01C49.5669 38.5498 49.753 37.9712 49.7247 37.3829C49.72 37.0332 49.8027 36.6879 49.9653 36.3787C50.8716 34.6888 51.5609 32.8899 52.0166 31.0254C52.2392 30.0817 52.4377 29.132 52.6182 28.1763C52.7204 27.6863 52.8227 27.1963 52.931 26.7064C52.9731 26.4946 53.0212 26.289 53.0693 26.1015C53.1536 25.7627 53.2318 25.43 53.2919 25.0913C53.4363 24.2202 53.5746 23.3492 53.707 22.4781L53.9175 21.111L54.2183 21.1655C54.6514 21.2381 54.7657 21.2078 54.9763 20.7299C55.0641 20.5343 55.1365 20.3321 55.1928 20.125C55.9635 17.5807 56.2232 14.9076 55.9568 12.2613V12.0436L56.1493 11.9528C56.6185 11.729 56.6185 11.729 56.5283 11.1846L56.4922 10.991C55.8634 8.55417 54.3644 6.43536 52.2813 5.03881C52.0996 4.95412 51.9505 4.81178 51.8571 4.63365C51.7636 4.45552 51.7309 4.25146 51.764 4.05282C51.764 4.05282 51.7219 3.99233 51.6617 3.91974C51.4961 3.71634 51.3129 3.52808 51.1143 3.35718C49.5513 2.10918 47.6394 1.38375 45.6461 1.28237C44.993 1.24311 44.3382 1.24311 43.6851 1.28237H42.8008H42.6083L42.5241 1.10695C42.2955 0.623031 42.2954 0.623031 41.8744 0.616982H41.6277C40.6893 0.616982 39.7088 0.616982 38.7583 0.616982C35.9826 0.735989 33.2673 1.46921 30.8057 2.76438C30.7143 2.81747 30.6105 2.84542 30.5049 2.84542C30.3993 2.84542 30.2956 2.81747 30.2042 2.76438C30.1354 2.72237 30.056 2.70135 29.9756 2.70389ZM78.9303 96.6269C73.2371 96.5373 67.807 94.2016 63.8105 90.1235C59.814 86.0454 57.5713 80.5514 57.5658 74.8259C57.5602 69.1004 59.7924 63.602 63.781 59.5161C67.7696 55.4302 73.1952 53.084 78.8882 52.9833H78.9303C84.7018 52.9864 90.2367 55.2896 94.3229 59.3882C98.409 63.4869 100.713 69.0469 100.731 74.8504C100.693 80.6392 98.3789 86.1778 94.2947 90.2576C90.2104 94.3373 84.6872 96.627 78.9303 96.6269ZM78.8822 53.5882C73.3478 53.6883 68.0742 55.9709 64.1979 59.9441C60.3215 63.9173 58.1528 69.2629 58.1591 74.8288C58.1654 80.3948 60.3462 85.7355 64.2316 89.6997C68.117 93.664 73.3958 95.9346 78.9303 96.022C81.7311 96.0695 84.5133 95.5559 87.1146 94.511C89.716 93.4661 92.0844 91.9108 94.0819 89.936C96.0793 87.9611 97.6657 85.6061 98.7486 83.0083C99.8315 80.4105 100.389 77.6218 100.389 74.8051C100.389 71.9883 99.8315 69.1997 98.7486 66.6019C97.6657 64.0041 96.0793 61.6491 94.0819 59.6742C92.0844 57.6993 89.716 56.1441 87.1146 55.0992C84.5133 54.0543 81.7311 53.5406 78.9303 53.5882H78.8822ZM47.6493 57.4111L39.5343 55.0581L44.0339 51.4287C45.1408 50.5334 46.2537 49.614 47.3546 48.7429C47.4759 48.6289 47.6285 48.5541 47.7926 48.5282C47.9566 48.5024 48.1247 48.5266 48.2749 48.5977C48.7983 48.8155 49.3337 49.0212 49.8751 49.2026L50.8195 49.5656L47.6493 57.4111ZM40.8156 54.804L47.2944 56.6792L50.0555 49.9285L49.6826 49.7833C49.1352 49.5777 48.5998 49.372 48.0704 49.1784C48.0213 49.1471 47.9625 49.1347 47.905 49.1436C47.8475 49.1525 47.7951 49.1821 47.7576 49.2268C46.6507 50.1342 45.5439 51.0415 44.437 51.9186L40.8156 54.804ZM29.4943 57.3083C29.3869 57.3079 29.2823 57.2739 29.195 57.2111C29.1077 57.1482 29.042 57.0596 29.0071 56.9575C28.205 55.1186 27.3768 53.2756 26.5226 51.4287L25.7045 49.614L26.6369 49.2873L28.7664 48.5433C28.8674 48.5126 28.9741 48.5054 29.0783 48.5222C29.1825 48.5389 29.2815 48.5793 29.368 48.6401C31.7742 50.5556 34.1584 52.4792 36.5205 54.4108L36.8574 54.683L37.0258 55.1125L36.7311 55.2516L33.0074 56.3284C31.9306 56.6369 30.8478 56.9333 29.771 57.272C29.6808 57.2964 29.5878 57.3086 29.4943 57.3083ZM26.5226 49.9588L27.07 51.1686C27.9062 53.0196 28.7303 54.8524 29.5485 56.6853H29.6026L32.851 55.7416L36.0693 54.8101C33.7112 52.9026 31.3551 51.0012 29.001 49.1058C29.001 49.1058 28.971 49.1058 28.9529 49.1058C28.2551 49.3418 27.5513 49.5898 26.8354 49.8438L26.5226 49.9588ZM38.7463 54.6165C38.5605 54.6102 38.3806 54.5492 38.2289 54.4411C35.8119 52.8836 33.5008 51.1659 31.311 49.2994C30.7756 48.8639 30.2342 48.4223 29.6928 47.9928L29.001 47.4545L29.8914 45.1256L30.4508 45.5914C30.6132 45.7305 30.7756 45.8696 30.9441 45.9967C32.1613 46.8438 33.5537 47.4022 35.0166 47.6299C37.4297 48.0937 39.9167 47.9902 42.2834 47.3274C43.5775 46.9958 44.7699 46.3474 45.7544 45.4401L46.0612 45.1498L46.4402 45.9785C46.6868 46.5108 46.9274 47.0371 47.156 47.5633C47.1909 47.6809 47.1895 47.8063 47.1519 47.9229C47.1143 48.0396 47.0423 48.142 46.9455 48.2166C46.2898 48.749 45.6281 49.2752 44.9664 49.8015L43.4805 51.0113L43.1918 51.2472C41.8864 52.2937 40.581 53.3462 39.2877 54.4108C39.1373 54.542 38.9453 54.6149 38.7463 54.6165ZM29.7229 47.2548L30.0598 47.515C30.6072 47.9505 31.1426 48.3921 31.684 48.8336C33.855 50.6798 36.1438 52.3811 38.5357 53.9269C38.7342 54.0479 38.7583 54.0418 38.9027 53.9269C40.196 52.8562 41.5074 51.8037 42.8128 50.7572L43.1076 50.5213L44.5934 49.3115C45.2551 48.7852 45.9168 48.259 46.5725 47.7267C46.356 47.2246 46.1274 46.7286 45.8988 46.2205L45.8627 46.1479C44.862 46.9709 43.6966 47.5672 42.4458 47.896C39.9931 48.583 37.416 48.6927 34.9143 48.2166C33.3631 47.972 31.8867 47.3786 30.5952 46.4806C30.4402 46.3702 30.2915 46.251 30.15 46.1237L29.7229 47.2548ZM38.2229 47.2548C35.5881 47.2125 33.7654 46.8254 32.1412 45.9664C31.521 45.6842 30.9781 45.255 30.5591 44.7156C30.14 44.1762 29.8572 43.5427 29.7349 42.8693C29.4202 41.6027 28.8145 40.428 27.9664 39.4395C27.6776 39.0524 27.3648 38.6773 27.0761 38.2963C26.9262 38.1148 26.8244 37.8982 26.7802 37.6666C26.7361 37.4349 26.7509 37.1958 26.8234 36.9715C26.9773 36.334 27.3166 35.757 27.7979 35.3141L27.9062 35.2113C28.9944 34.072 30.2049 33.0576 31.5155 32.1868C32.4566 31.5232 33.5785 31.1683 34.7279 31.1705C35.3781 31.1884 36.0174 31.343 36.6047 31.6242C36.9682 31.8203 37.373 31.9259 37.7854 31.9322C38.1978 31.9385 38.6056 31.8453 38.9748 31.6605C39.5846 31.3554 40.2523 31.1851 40.933 31.1611C41.6137 31.1371 42.2916 31.2599 42.9211 31.5214C44.2516 32.0851 45.4733 32.8795 46.5304 33.8684C47.3185 34.5519 48.0102 35.2052 48.6479 35.8646C48.8504 36.1323 48.9697 36.4543 48.9908 36.7901V36.8566C49.0733 37.2064 49.0733 37.5707 48.9907 37.9204C48.9082 38.2702 48.7455 38.5957 48.5156 38.8709C47.9215 39.5866 47.3977 40.3584 46.9515 41.1756C46.6344 41.7172 46.4087 42.3079 46.2838 42.9238C46.1673 43.5244 45.9203 44.0918 45.5605 44.5853C45.2007 45.0789 44.737 45.4864 44.2024 45.7789C42.8791 46.5271 41.4132 46.9847 39.9013 47.1218C39.4381 47.1702 38.9628 47.2004 38.5959 47.2186L38.2229 47.2548ZM34.5113 31.7815C33.542 31.8317 32.6062 32.1544 31.8103 32.713C30.5353 33.5717 29.3555 34.5654 28.2912 35.677L28.1889 35.7799C27.8028 36.1357 27.5306 36.5989 27.4069 37.1107C27.3584 37.2453 27.3456 37.3903 27.3698 37.5314C27.3941 37.6725 27.4546 37.8048 27.5453 37.9152C27.8521 38.2963 28.1468 38.6774 28.4476 39.0766C29.3521 40.1379 29.997 41.3975 30.3305 42.7544C30.4343 43.3369 30.6783 43.8851 31.0411 44.3511C31.4038 44.8171 31.8745 45.1868 32.4119 45.428C33.9458 46.2386 35.6783 46.6016 38.2109 46.6378H38.5718C38.9267 46.6378 39.3839 46.5955 39.8411 46.5411C41.269 46.4209 42.6541 45.9917 43.9016 45.2829C44.3681 45.0382 44.7731 44.6898 45.0858 44.2643C45.3984 43.8388 45.6106 43.3472 45.7063 42.827C45.8448 42.1355 46.0948 41.4715 46.4462 40.861C46.912 40.0043 47.4579 39.1941 48.0764 38.4414C48.2497 38.2341 48.3713 37.9882 48.4309 37.7241C48.4905 37.46 48.4866 37.1854 48.4193 36.9231V36.8506C48.4049 36.6371 48.341 36.4299 48.2328 36.2456C47.6313 35.5984 46.9334 34.9512 46.1574 34.2797C45.1475 33.3367 43.9808 32.5792 42.7105 32.0416C42.1571 31.8115 41.5612 31.7027 40.9627 31.7225C40.3642 31.7423 39.7767 31.8903 39.2395 32.1565C38.7908 32.3875 38.2939 32.5079 37.7898 32.5079C37.2857 32.5079 36.7888 32.3875 36.34 32.1565C35.8295 31.9074 35.2712 31.7733 34.7038 31.7633L34.5113 31.7815ZM49.5803 35.7436L49.2855 35.4774C49.0148 35.2294 48.7502 34.9875 48.4915 34.7394C47.8899 34.2011 47.3606 33.6869 46.777 33.1909C45.6033 32.1154 44.2237 31.2921 42.7226 30.7713C41.3911 30.3333 39.942 30.4376 38.6861 31.0616C38.431 31.203 38.1456 31.2801 37.8544 31.2864C37.5632 31.2927 37.2748 31.2281 37.0138 31.0979C35.2091 30.2087 33.4044 30.3237 31.4554 31.4427C29.9354 32.3909 28.5477 33.5382 27.3287 34.8544L26.4625 35.7254L26.1316 34.927C26.0294 34.6911 25.9211 34.4672 25.8248 34.2434C25.1314 32.6814 24.6304 31.0401 24.333 29.3558C24.2879 29.2308 24.2879 29.0938 24.333 28.9687C24.5507 28.3417 24.6447 27.678 24.6097 27.0149C24.6097 26.7245 24.6097 26.41 24.6398 26.1438C24.7661 24.4803 24.8744 22.6838 24.9766 20.488C25.1291 18.9961 25.5619 17.5469 26.2519 16.2174L26.5106 15.6125C26.6488 15.3566 26.8577 15.1465 27.1121 15.0076C28.693 13.9104 30.6202 13.4367 32.5262 13.6768C33.4766 13.7736 34.4331 13.949 35.3535 14.1244L36.2197 14.3603C37.7831 14.6043 39.3787 14.5406 40.9179 14.1728C41.2548 14.1002 41.5916 14.0155 41.9225 13.9369C42.6806 13.7373 43.45 13.5837 44.2264 13.4772C45.1131 13.3772 46.0107 13.4743 46.8558 13.7618C47.701 14.0492 48.4729 14.52 49.1171 15.1407C49.2403 15.2528 49.3369 15.3913 49.3998 15.5459C49.5442 15.921 49.7006 16.296 49.857 16.6711C50.248 17.6328 50.6571 18.6188 50.9639 19.629C51.1506 20.3443 51.2516 21.0794 51.2647 21.8188C51.2647 22.0002 51.2647 22.1757 51.2947 22.345C51.3489 23.1072 51.391 23.8694 51.4331 24.6315C51.4993 25.8414 51.5715 27.1358 51.6918 28.3759C51.7382 29.2411 51.6302 30.1077 51.3729 30.9346L51.3008 31.2431C50.9392 32.6717 50.4206 34.0553 49.7548 35.3685L49.5803 35.7436ZM41.0322 29.8458C41.6647 29.8489 42.2932 29.9467 42.897 30.1362C44.4791 30.6906 45.9323 31.5633 47.1681 32.7009C47.7696 33.203 48.311 33.7172 48.9005 34.2676L49.3938 34.7273C49.9558 33.5656 50.3992 32.3496 50.7173 31.0979L50.7894 30.7894C51.0291 30.0295 51.1309 29.2325 51.0902 28.4364C50.9699 27.1842 50.8977 25.9018 50.8316 24.6678C50.7894 23.9057 50.7473 23.1495 50.6932 22.3874C50.6932 22.2119 50.6932 22.0365 50.6631 21.8551C50.6485 21.1652 50.5556 20.4792 50.3864 19.8105C50.0856 18.8245 49.6886 17.8506 49.2976 16.9009C49.1412 16.5259 48.9908 16.1508 48.8404 15.7698C48.8132 15.7 48.7699 15.6378 48.7141 15.5883C48.1333 15.0247 47.4357 14.5973 46.6712 14.3369C45.9068 14.0765 45.0945 13.9895 44.2926 14.0821C43.5421 14.1814 42.7987 14.3289 42.0669 14.5237L41.0502 14.7656C39.434 15.1518 37.7581 15.2155 36.1175 14.9531L35.2151 14.7898C34.3068 14.6204 33.3623 14.445 32.4359 14.3543C30.6784 14.1269 28.8992 14.5575 27.437 15.5641C27.2846 15.6486 27.153 15.7664 27.052 15.9089L26.7873 16.5138C26.1328 17.773 25.7244 19.1467 25.5842 20.5606C25.4819 22.7685 25.3737 24.5711 25.2413 26.2406C25.2413 26.5188 25.2413 26.791 25.2413 27.0693C25.2721 27.7921 25.1681 28.5143 24.9345 29.1986C24.941 29.2325 24.941 29.2674 24.9345 29.3014C25.2256 30.9379 25.7145 32.5326 26.3903 34.0499C26.4745 34.2495 26.5647 34.4491 26.661 34.6548L26.9197 34.3947C28.1748 33.0408 29.6053 31.8627 31.1727 30.8923C33.2901 29.6825 35.2933 29.5373 37.2965 30.5233C37.4758 30.6094 37.6729 30.6516 37.8716 30.6464C38.0703 30.6411 38.2649 30.5886 38.4395 30.493C39.2424 30.0788 40.1298 29.8573 41.0322 29.8458ZM23.3524 26.4221L23.1238 25.6962C23.0095 25.3272 22.8952 24.9642 22.793 24.5953L22.6967 24.2686C22.2512 22.8133 21.945 21.3184 21.7824 19.8044C21.554 17.7812 21.9068 15.7346 22.799 13.9067C22.8627 13.7769 22.935 13.6516 23.0155 13.5316C23.2261 13.1989 23.2201 13.0537 23.196 12.9933C23.172 12.9328 23.0817 12.8118 22.6245 12.7029L22.1313 12.588L22.8832 11.7411C23.208 11.3782 23.5209 11.0273 23.8517 10.6886C24.0351 10.5251 24.151 10.2985 24.1766 10.0534C24.4052 7.63383 25.6323 5.78284 27.9182 4.36737L28.207 4.19195L28.3514 4.4944C28.4717 4.75451 28.592 4.91178 28.6942 4.93598C28.8833 4.91522 29.0596 4.8298 29.1935 4.69402C30.9986 3.27046 33.1139 2.29814 35.3655 1.85703C36.31 1.66346 37.2845 1.55458 38.2229 1.45175L39.4621 1.30657C39.5342 1.30054 39.6066 1.30054 39.6787 1.30657H40.0757V1.63322C40.0757 1.90542 40.0757 2.09899 40.1659 2.16553C40.2562 2.23207 40.4246 2.25021 40.6893 2.20787C42.8104 1.80868 44.9868 1.80868 47.1079 2.20787C47.6247 2.32737 48.1331 2.48095 48.6298 2.6676L49.2314 2.87931L49.4961 2.964L49.4299 3.2362C49.403 3.35317 49.3689 3.46833 49.3277 3.581C49.2855 3.68533 49.2591 3.79544 49.2495 3.90764C49.3567 4.08632 49.5195 4.22451 49.7126 4.30083C51.6574 5.17524 53.3382 6.55031 54.5853 8.28713C54.7537 8.52909 54.9041 8.7892 55.0545 9.0372L55.3974 9.60581L55.1928 9.77518C54.8078 10.0776 54.8078 10.0776 54.9703 10.6281C55.17 11.3616 55.3108 12.1101 55.3913 12.8662C55.5613 15.0116 55.3743 17.1705 54.8379 19.254L54.6935 19.9436L54.1521 19.1511L53.8935 18.7761C53.7371 18.5523 53.6047 18.5644 53.4784 18.6067C53.3521 18.6491 53.2378 18.7338 53.2498 18.9818C53.3076 20.751 53.1765 22.5214 52.8588 24.2626C52.8472 24.3268 52.829 24.3896 52.8047 24.4501L52.2332 25.8535L52.1369 24.4622C52.1369 24.1597 52.0948 23.8573 52.0768 23.579C52.0407 22.9741 52.0046 22.3692 51.9384 21.8067C51.8963 21.4437 51.8662 21.0808 51.8301 20.7178C51.7591 19.6694 51.6083 18.6279 51.379 17.6026C50.7774 15.2979 49.2073 13.7433 46.6387 12.9751C45.3306 12.6298 43.9535 12.6507 42.6564 13.0356C41.6458 13.2897 40.5329 13.5074 39.1674 13.7312C37.8344 13.8788 36.4857 13.7742 35.1911 13.4227C33.7647 13.0751 32.2949 12.9426 30.8298 13.0295C29.8299 13.0736 28.8493 13.3215 27.9476 13.7583C27.0458 14.195 26.2418 14.8114 25.5842 15.5701C24.8997 16.3417 24.4911 17.321 24.4232 18.3527C24.3029 20.369 24.1866 22.3692 24.0743 24.3533L24.0021 25.5268C24.0021 25.6518 24.0021 25.7788 24.0021 25.9079V26.3797L23.3524 26.4221ZM23.196 12.2492C23.431 12.3405 23.6211 12.5207 23.7254 12.7513C23.7783 12.9386 23.784 13.1362 23.742 13.3263C23.6999 13.5164 23.6115 13.6929 23.4848 13.8401C23.4188 13.9456 23.3585 14.0547 23.3043 14.1668C22.4767 15.8936 22.1574 17.8225 22.3839 19.7258C22.5523 21.2082 22.8625 22.6707 23.3103 24.0932L23.4005 24.4198L23.4727 24.6739V24.2868C23.589 22.2704 23.7053 20.2682 23.8216 18.2801C23.9012 17.1195 24.3602 16.0178 25.127 15.1467C26.4805 13.5498 28.3273 12.6666 30.7756 12.4428C32.3011 12.3522 33.8316 12.4888 35.3174 12.8481C36.5414 13.181 37.8161 13.2836 39.0771 13.1505C40.4246 12.9328 41.5134 12.715 42.512 12.467C43.9113 12.0505 45.3979 12.0317 46.8071 12.4126C49.5984 13.2473 51.3308 14.9471 51.9625 17.4756C52.199 18.5288 52.3559 19.5985 52.4317 20.6755C52.4618 21.0384 52.4979 21.4014 52.54 21.7583V21.7885C52.631 20.862 52.6551 19.93 52.6122 18.9999C52.5874 18.7873 52.6377 18.5728 52.7543 18.3937C52.8708 18.2146 53.0462 18.0823 53.2498 18.02C53.4503 17.9485 53.6692 17.9485 53.8696 18.0201C54.0701 18.0917 54.24 18.2305 54.3507 18.4132C54.776 16.6137 54.9121 14.7574 54.7537 12.9146C54.6774 12.1906 54.5406 11.4742 54.3446 10.7733C54.1702 10.1684 54.1401 9.85987 54.5732 9.45459L54.495 9.32756C54.3507 9.0856 54.2063 8.83759 54.0499 8.60772C52.8651 6.95188 51.2618 5.64455 49.4059 4.82104C49.0753 4.67537 48.8052 4.4188 48.6419 4.09516C48.5822 3.85205 48.6077 3.5957 48.7141 3.36928V3.33904L48.3652 3.21806C47.8927 3.03722 47.4083 2.88967 46.9154 2.77648C44.8679 2.39008 42.7669 2.39008 40.7194 2.77648C40.5445 2.8242 40.3611 2.83157 40.183 2.79805C40.0049 2.76454 39.8366 2.69099 39.6907 2.58291C39.5129 2.39739 39.4119 2.15091 39.408 1.89332L38.247 2.0264C37.3206 2.13528 36.3641 2.23812 35.4437 2.42564C33.2845 2.84673 31.2557 3.77762 29.5244 5.14164C29.3932 5.27335 29.2343 5.37379 29.0594 5.43556C28.8845 5.49732 28.6981 5.51884 28.5138 5.49853C28.2591 5.42752 28.0427 5.25784 27.9122 5.02671C27.0207 5.55568 26.2667 6.28994 25.7125 7.1691C25.1582 8.04825 24.8194 9.04717 24.724 10.0837C24.6861 10.4688 24.5083 10.8263 24.2247 11.0878C23.9059 11.4145 23.6231 11.7653 23.2802 12.1222L23.196 12.2492Z" fill="#004999"/>
<path d="M38.572 83.8635H28.3997C28.0276 83.8912 27.654 83.8382 27.3041 83.7081C26.9542 83.578 26.6361 83.3739 26.3714 83.1095C26.1068 82.8451 25.9017 82.5266 25.7701 82.1756C25.6384 81.8245 25.5833 81.4492 25.6085 81.0749C25.6085 77.3426 25.6085 73.6104 25.6085 69.8782C25.6011 69.4853 25.6727 69.095 25.8188 68.7306C25.9649 68.3662 26.1827 68.0351 26.459 67.7573C26.7353 67.4794 27.0645 67.2605 27.4269 67.1135C27.7893 66.9666 28.1774 66.8947 28.5681 66.9021C32.5565 66.9021 36.5448 66.9021 40.5391 66.9021C40.6897 66.8772 40.8443 66.9036 40.9783 66.977C41.1123 67.0504 41.2181 67.1666 41.279 67.3073C41.3406 67.4228 41.3586 67.5567 41.3299 67.6845C41.3012 67.8123 41.2276 67.9253 41.1226 68.003C40.9155 68.1334 40.6752 68.2007 40.4308 68.1965C37.7519 68.1965 35.075 68.1965 32.4 68.1965H28.532C28.3093 68.1767 28.0849 68.2058 27.8744 68.2816C27.6638 68.3575 27.4722 68.4784 27.3126 68.6359C27.1531 68.7935 27.0294 68.984 26.9502 69.1943C26.871 69.4046 26.838 69.6297 26.8537 69.854C26.8537 73.314 26.8537 76.7801 26.8537 80.2401C26.8537 80.5849 26.8537 80.9297 26.8537 81.2685C26.8526 81.4439 26.8872 81.6177 26.9554 81.7793C27.0235 81.9408 27.1237 82.0866 27.2499 82.2078C27.376 82.329 27.5255 82.4231 27.6891 82.4841C27.8527 82.5452 28.0269 82.572 28.2012 82.5629C30.1382 82.5629 32.0752 82.5629 34.0062 82.5629H48.7504C48.9514 82.5894 49.1559 82.5692 49.348 82.5039C49.5402 82.4387 49.7149 82.3301 49.8589 82.1865C50.0029 82.0429 50.1123 81.868 50.1787 81.6754C50.2452 81.4827 50.2669 81.2773 50.2422 81.0749V69.5818C50.2422 68.6442 49.8271 68.2086 48.9007 68.1965C47.9743 68.1844 47.0961 68.1965 46.1697 68.1965C46.0853 68.2059 45.9999 68.1973 45.9191 68.1711C45.8383 68.1449 45.7639 68.1019 45.7009 68.0447C45.6378 67.9876 45.5875 67.9177 45.5532 67.8396C45.5189 67.7615 45.5014 67.677 45.502 67.5916C45.502 67.4312 45.5653 67.2774 45.6782 67.1639C45.791 67.0505 45.944 66.9867 46.1035 66.9867C47.1623 66.9867 48.221 66.9504 49.2797 66.9867C49.8924 67.0415 50.4619 67.3268 50.8745 67.7854C51.2871 68.244 51.5125 68.8424 51.5055 69.4608C51.5055 71.4146 51.5055 73.3745 51.5055 75.3344C51.5055 77.2943 51.5055 79.2239 51.5055 81.1656C51.5292 81.5338 51.4747 81.9028 51.3457 82.2482C51.2167 82.5936 51.0161 82.9074 50.7573 83.1689C50.4984 83.4303 50.1872 83.6334 49.8443 83.7646C49.5014 83.8959 49.1346 83.9522 48.7684 83.93L38.572 83.8635Z" fill="#E33C5C"/>
<path d="M44.5633 84.0208H28.3995C28.0072 84.0492 27.6134 83.9928 27.2446 83.8555C26.8758 83.7182 26.5405 83.503 26.2612 83.2245C25.982 82.946 25.7653 82.6106 25.6257 82.2409C25.4861 81.8711 25.4268 81.4756 25.4519 81.0809C25.4519 79.8711 25.4519 78.7037 25.4519 77.5181C25.4519 75.0138 25.4519 72.4309 25.4519 69.8903C25.4446 69.4788 25.5195 69.0701 25.672 68.6882C25.8245 68.3063 26.0516 67.9591 26.3399 67.667C26.6281 67.3749 26.9717 67.1438 27.3502 66.9875C27.7288 66.8312 28.1347 66.7528 28.5439 66.7569C31.8164 66.7569 35.161 66.7569 38.3733 66.7569H40.5149C40.695 66.7323 40.8781 66.7675 41.0366 66.857C41.1951 66.9465 41.3203 67.0855 41.3931 67.2529C41.4687 67.4001 41.489 67.5698 41.4503 67.7309C41.4117 67.8919 41.3166 68.0336 41.1826 68.13C40.9638 68.2655 40.7117 68.3367 40.4547 68.3357C38.3613 68.3357 36.2438 68.3357 34.1684 68.3357H28.5559C28.3527 68.3145 28.1473 68.3387 27.9544 68.4064C27.7615 68.4742 27.5859 68.5839 27.44 68.7277C27.294 68.8716 27.1815 69.046 27.1103 69.2386C27.0391 69.4311 27.011 69.6371 27.028 69.8419C27.028 72.3341 27.028 74.8263 27.028 77.3185V80.228C27.028 80.3309 27.028 80.4337 27.028 80.5365C27.028 80.7724 27.028 81.0144 27.028 81.2443C27.0252 81.4014 27.0548 81.5575 27.1149 81.7026C27.1751 81.8476 27.2646 81.9786 27.3776 82.0872C27.4907 82.1957 27.6249 82.2795 27.7718 82.3333C27.9187 82.3871 28.0751 82.4097 28.2311 82.3996C29.6327 82.3996 31.0404 82.3996 32.442 82.3996H48.7742C48.9546 82.4218 49.1377 82.4026 49.3097 82.3434C49.4816 82.2843 49.638 82.1867 49.7671 82.0581C49.8962 81.9294 49.9946 81.773 50.055 81.6007C50.1154 81.4283 50.1362 81.2444 50.1157 81.0628V69.5697C50.1157 68.7168 49.7608 68.3599 48.9126 68.3599C48.0644 68.3599 47.2042 68.3599 46.35 68.3599H46.1755C46.0711 68.3648 45.9668 68.3484 45.8689 68.3118C45.7709 68.2751 45.6813 68.219 45.6055 68.1466C45.5296 68.0743 45.4691 67.9874 45.4275 67.891C45.3859 67.7946 45.3641 67.6907 45.3634 67.5856C45.3587 67.4829 45.3743 67.3802 45.4094 67.2836C45.4445 67.187 45.4984 67.0984 45.568 67.023C45.7133 66.8771 45.91 66.7945 46.1154 66.7932H46.7169C47.5651 66.7932 48.4374 66.7932 49.2976 66.7932C49.9491 66.8465 50.5566 67.1454 50.9983 67.63C51.44 68.1146 51.6835 68.749 51.6798 69.4063C51.6798 70.7936 51.6798 72.1808 51.6798 73.5681V76.9918C51.6798 78.3629 51.6798 79.736 51.6798 81.1112C51.7024 81.499 51.6433 81.8872 51.5063 82.2504C51.3694 82.6136 51.1576 82.9437 50.8851 83.2189C50.6125 83.4942 50.2851 83.7084 49.9245 83.8476C49.5638 83.9869 49.178 84.0479 48.7923 84.0268L44.5633 84.0208ZM38.5478 83.7123H48.7742C49.1219 83.7398 49.4714 83.691 49.7985 83.5692C50.1256 83.4474 50.4224 83.2556 50.6684 83.0071C50.9145 82.7585 51.1038 82.4591 51.2234 82.1297C51.343 81.8002 51.3899 81.4486 51.361 81.0991C51.361 79.7239 51.361 78.3508 51.361 76.9797V73.556C51.361 72.1647 51.361 70.7775 51.361 69.3942C51.3693 68.8145 51.1595 68.2529 50.7735 67.8222C50.3875 67.3914 49.8539 67.1232 49.2796 67.0714C48.4253 67.0714 47.5531 67.0714 46.7109 67.0714H46.1094C46.0475 67.0695 45.986 67.0809 45.9289 67.1049C45.8719 67.1289 45.8206 67.165 45.7785 67.2106C45.7123 67.2822 45.669 67.3721 45.654 67.4687C45.639 67.5653 45.6532 67.6642 45.6946 67.7527C45.736 67.8412 45.8028 67.9152 45.8863 67.9651C45.9699 68.0151 46.0664 68.0389 46.1635 68.0332H46.3319C47.1922 68.0332 48.0464 68.0332 48.9006 68.0332C49.106 68.0064 49.3148 68.028 49.5105 68.0963C49.7062 68.1646 49.8834 68.2777 50.0281 68.4268C50.1728 68.5758 50.2811 68.7567 50.3443 68.955C50.4075 69.1534 50.424 69.3638 50.3924 69.5697V81.0628C50.4165 81.285 50.3905 81.5099 50.3163 81.7206C50.2421 81.9314 50.1216 82.1226 49.9639 82.2801C49.8061 82.4376 49.615 82.5573 49.4049 82.6304C49.1948 82.7034 48.971 82.7279 48.7502 82.7021H32.436C31.0343 82.7021 29.6267 82.7021 28.2251 82.7021C28.0318 82.7111 27.8388 82.6805 27.6577 82.6121C27.4766 82.5437 27.3113 82.439 27.1717 82.3044C27.0321 82.1697 26.9213 82.0079 26.8459 81.8287C26.7705 81.6496 26.7322 81.4569 26.7332 81.2624C26.7332 81.0205 26.7332 80.7724 26.7332 80.5365C26.7332 80.4337 26.7332 80.3309 26.7332 80.228V77.3185C26.7332 74.8263 26.7332 72.3341 26.7332 69.8419C26.7182 69.5997 26.7547 69.357 26.8401 69.13C26.9255 68.903 27.0579 68.6969 27.2285 68.5253C27.3992 68.3537 27.6042 68.2205 27.8299 68.1346C28.0557 68.0488 28.297 68.0121 28.5379 68.0272H34.1504C36.2498 68.0272 38.3613 68.0272 40.4367 68.0272C40.6333 68.0285 40.8266 67.9762 40.9961 67.876C41.07 67.8156 41.1206 67.7312 41.1393 67.6374C41.158 67.5435 41.1435 67.4461 41.0984 67.3618C41.0081 67.138 40.8217 67.0593 40.4968 67.0533H38.3553C35.1309 67.0533 31.7983 67.0533 28.5198 67.0533C28.1494 67.0467 27.7814 67.1153 27.438 67.255C27.0945 67.3947 26.7826 67.6027 26.5209 67.8664C26.2592 68.1301 26.0531 68.4442 25.9149 68.7899C25.7767 69.1355 25.7092 69.5057 25.7166 69.8782C25.7166 72.4248 25.7166 75.0077 25.7166 77.512C25.7166 78.7218 25.7166 79.8893 25.7166 81.0749C25.6942 81.4292 25.7475 81.7842 25.8729 82.116C25.9983 82.4478 26.193 82.7488 26.4437 82.9986C26.6945 83.2485 26.9956 83.4415 27.3267 83.5646C27.6578 83.6877 28.0113 83.738 28.3634 83.7123H38.5478Z" fill="#E33C5C"/>
<path d="M41.9226 75.9998C41.1285 75.4675 40.3585 74.9594 39.6006 74.4331C39.4291 74.3242 39.2916 74.1691 39.2035 73.9855C39.1515 73.8664 39.1416 73.733 39.1756 73.6075C39.2095 73.482 39.2852 73.372 39.39 73.2959C39.4953 73.1979 39.6321 73.1409 39.7755 73.1354C39.9189 73.1298 40.0595 73.176 40.172 73.2656C40.9721 73.7979 41.7662 74.3424 42.5783 74.8807C42.849 75.0622 43.1317 75.2376 43.3964 75.4251C43.504 75.4795 43.5944 75.5629 43.6576 75.666C43.7209 75.769 43.7543 75.8878 43.7543 76.0089C43.7543 76.13 43.7209 76.2487 43.6576 76.3517C43.5944 76.4548 43.504 76.5382 43.3964 76.5926C42.3437 77.3064 41.2969 78.0081 40.2442 78.7097C40.1753 78.7704 40.0943 78.8156 40.0067 78.8426C39.9192 78.8696 39.8269 78.8776 39.736 78.8662C39.6451 78.8547 39.5577 78.8241 39.4794 78.7763C39.4011 78.7285 39.3337 78.6646 39.2817 78.5888C39.2316 78.5116 39.198 78.4248 39.1831 78.334C39.1681 78.2431 39.172 78.15 39.1946 78.0608C39.2172 77.9715 39.258 77.8879 39.3145 77.8153C39.3709 77.7427 39.4417 77.6827 39.5223 77.6391L41.7 76.1752L41.9226 75.9998Z" fill="#E33C5C"/>
<path d="M30.98 76.0118L33.3863 77.633C33.505 77.6953 33.6023 77.7921 33.6656 77.9107C33.7288 78.0294 33.7552 78.1644 33.7412 78.2984C33.7382 78.4086 33.7053 78.516 33.646 78.6088C33.5867 78.7017 33.5033 78.7764 33.4048 78.825C33.3063 78.8736 33.1964 78.8942 33.0871 78.8845C32.9778 78.8749 32.8733 78.8353 32.7847 78.7702C31.6538 78.0322 30.5289 77.2821 29.422 76.5139C29.3351 76.4574 29.2642 76.3794 29.216 76.2873C29.1679 76.1952 29.1442 76.0922 29.1472 75.9882C29.1503 75.8842 29.1799 75.7827 29.2333 75.6936C29.2867 75.6045 29.3621 75.5308 29.4521 75.4795C30.5409 74.7234 31.6478 73.9854 32.7546 73.2535C32.8255 73.1984 32.9071 73.1588 32.9941 73.1372C33.081 73.1156 33.1715 73.1125 33.2598 73.1281C33.348 73.1437 33.4321 73.1776 33.5065 73.2277C33.581 73.2779 33.6442 73.3431 33.6921 73.4192C33.7401 73.4953 33.7717 73.5807 33.7849 73.6698C33.7982 73.7589 33.7928 73.8498 33.7691 73.9367C33.7454 74.0236 33.7039 74.1045 33.6473 74.1744C33.5907 74.2442 33.5203 74.3014 33.4404 74.3423L31.2928 75.7941L30.98 76.0118Z" fill="#E33C5C"/>
<path d="M34.7581 79.98C34.645 79.9796 34.534 79.9493 34.4363 79.892C34.3386 79.8348 34.2576 79.7527 34.2015 79.6539C34.1454 79.5552 34.1161 79.4433 34.1167 79.3296C34.1173 79.2159 34.1476 79.1043 34.2047 79.0061C34.5235 78.2379 34.8544 77.4757 35.1852 76.7136C35.7868 75.2679 36.4365 73.8282 37.0561 72.3825C37.2004 72.0437 37.411 71.8139 37.796 71.8623C37.8995 71.8756 37.9982 71.9143 38.0834 71.9749C38.1687 72.0355 38.2378 72.1163 38.2847 72.2101C38.3316 72.3038 38.3549 72.4078 38.3526 72.5127C38.3502 72.6176 38.3223 72.7204 38.2712 72.812C37.7659 74.0218 37.2486 75.1892 36.7372 76.3748C36.2861 77.4153 35.8289 78.4557 35.3837 79.5022C35.3392 79.6358 35.2557 79.7528 35.1442 79.838C35.0326 79.9233 34.8981 79.9728 34.7581 79.98Z" fill="#004999"/>
<path d="M47.9501 73.7918C47.7788 73.7903 47.6147 73.722 47.4924 73.6013C47.3701 73.4806 47.2991 73.3169 47.2944 73.1446C47.2942 72.9806 47.3564 72.8228 47.4683 72.7036C47.5802 72.5843 47.7332 72.5127 47.896 72.5034C48.0648 72.4951 48.23 72.5539 48.3561 72.6671C48.4821 72.7802 48.5589 72.9387 48.5697 73.1083C48.5763 73.2812 48.515 73.4498 48.3991 73.5776C48.2832 73.7055 48.1219 73.7824 47.9501 73.7918Z" fill="#004999"/>
<path d="M48.5878 75.7518C48.5727 75.9186 48.4955 76.0735 48.3717 76.1857C48.2479 76.2978 48.0867 76.3589 47.9201 76.3567C47.7536 76.3428 47.5987 76.2656 47.4869 76.1409C47.3751 76.0161 47.3149 75.8531 47.3185 75.6852C47.3351 75.5168 47.4144 75.3609 47.5404 75.2488C47.6665 75.1366 47.83 75.0764 47.9983 75.0803C48.1609 75.1009 48.3106 75.1805 48.4191 75.3041C48.5276 75.4277 48.5876 75.5869 48.5878 75.7518Z" fill="#004999"/>
<path d="M48.5639 70.6162C48.5532 70.7691 48.4851 70.9123 48.3735 71.0168C48.2618 71.1212 48.1148 71.1791 47.9623 71.1787C47.7923 71.1646 47.6325 71.0918 47.5097 70.9728C47.3869 70.8538 47.3088 70.6957 47.2886 70.5254C47.2994 70.3547 47.377 70.1953 47.5044 70.082C47.6317 69.9686 47.7985 69.9106 47.9683 69.9205C48.1352 69.9428 48.2881 70.026 48.3979 70.1542C48.5078 70.2825 48.5668 70.4469 48.5639 70.6162Z" fill="#004999"/>
<path d="M74.7192 73.2293V71.4146C74.7192 70.9125 74.9599 70.6827 75.4652 70.6766C76.2893 70.6766 77.1194 70.6766 77.9436 70.6766C78.112 70.6766 78.3767 70.5677 78.4188 70.4528C78.4341 70.3575 78.4286 70.2599 78.4026 70.167C78.3766 70.074 78.3308 69.9878 78.2684 69.9144C77.6669 69.2732 77.0352 68.6623 76.4216 68.0392C76.3323 67.9782 76.2592 67.8962 76.2086 67.8002C76.1581 67.7043 76.1317 67.5974 76.1317 67.4888C76.1317 67.3802 76.1581 67.2733 76.2086 67.1773C76.2592 67.0814 76.3323 66.9993 76.4216 66.9383C77.2758 66.0673 78.1361 65.2002 79.0023 64.3372C79.0627 64.2547 79.1415 64.1876 79.2324 64.1414C79.3233 64.0951 79.4238 64.071 79.5257 64.071C79.6276 64.071 79.728 64.0951 79.8189 64.1414C79.9098 64.1876 79.9887 64.2547 80.049 64.3372C80.5182 64.797 80.9634 65.2809 81.4446 65.7285C81.5135 65.7949 81.5962 65.8451 81.6867 65.8755C81.7772 65.9058 81.8733 65.9155 81.968 65.9039C82.0457 65.8483 82.1092 65.7748 82.1531 65.6896C82.1971 65.6044 82.2202 65.5099 82.2207 65.414C82.2567 64.8575 82.2207 64.2888 82.2207 63.7263C82.206 63.6284 82.214 63.5283 82.2442 63.4341C82.2744 63.3398 82.3259 63.2538 82.3947 63.1829C82.4634 63.112 82.5476 63.0581 82.6406 63.0254C82.7335 62.9926 82.8328 62.982 82.9305 62.9944H86.7504C86.8455 62.9879 86.9409 63.0022 87.03 63.0363C87.1191 63.0704 87.1998 63.1234 87.2667 63.1918C87.3335 63.2601 87.3849 63.3422 87.4172 63.4324C87.4496 63.5225 87.4622 63.6187 87.4542 63.7142C87.4542 64.2888 87.4542 64.8635 87.4542 65.4382C87.4571 65.5275 87.4797 65.615 87.5202 65.6945C87.5608 65.774 87.6184 65.8434 87.6888 65.8979C87.7761 65.9154 87.8663 65.9119 87.952 65.8877C88.0377 65.8635 88.1166 65.8194 88.1821 65.7588C88.6693 65.3172 89.1205 64.8393 89.5897 64.3735C89.6504 64.2837 89.732 64.2102 89.8274 64.1594C89.9228 64.1085 90.0292 64.082 90.1371 64.082C90.2451 64.082 90.3515 64.1085 90.4469 64.1594C90.5423 64.2102 90.6239 64.2837 90.6846 64.3735C91.5388 65.2244 92.391 66.0794 93.2412 66.9383C93.6262 67.3315 93.6442 67.6037 93.2412 68.009C92.6396 68.6139 92.0742 69.1825 91.4967 69.7632C91.3102 69.9568 91.0816 70.1261 91.2139 70.4528C91.3463 70.7794 91.611 70.725 91.8636 70.725H94.3059C94.8413 70.725 95.0819 70.9609 95.0819 71.5053C95.0819 72.7151 95.0819 73.9128 95.0819 75.0984C95.0819 75.7033 94.8353 75.9211 94.2578 75.9211C93.6803 75.9211 93.163 75.9211 92.6156 75.9211C92.5258 75.9278 92.4387 75.9546 92.3606 75.9996C92.2825 76.0446 92.2155 76.1067 92.1644 76.1812C92.1103 76.2901 92.2065 76.532 92.3088 76.647C92.6577 77.0402 93.0427 77.3971 93.4096 77.7721C93.4882 77.8325 93.5519 77.9103 93.5957 77.9995C93.6395 78.0887 93.6623 78.1868 93.6623 78.2863C93.6623 78.3857 93.6395 78.4839 93.5957 78.573C93.5519 78.6622 93.4882 78.74 93.4096 78.8004C92.5313 79.6957 91.641 80.6151 90.7507 81.468C90.6916 81.5435 90.6162 81.6046 90.5303 81.6465C90.4443 81.6885 90.35 81.7103 90.2545 81.7103C90.1589 81.7103 90.0646 81.6885 89.9786 81.6465C89.8926 81.6046 89.8173 81.5435 89.7582 81.468C89.2408 80.9478 88.7415 80.4155 88.2062 79.9195C88.1344 79.8554 88.0505 79.8063 87.9596 79.7751C87.8687 79.7439 87.7726 79.7313 87.6768 79.738C87.4241 79.738 87.4241 80.0163 87.4241 80.234V82.6173C87.4241 83.2222 87.1955 83.4642 86.594 83.4642H83.0929C82.4914 83.4642 82.2507 83.2464 82.2507 82.6294C82.2507 81.837 82.2507 81.0386 82.2507 80.2461C82.2507 80.0102 82.2507 79.7562 81.974 79.7259C81.7802 79.7203 81.592 79.7921 81.4507 79.9255C80.9333 80.4095 80.4461 80.9236 79.9468 81.4196C79.8855 81.5058 79.8047 81.576 79.7111 81.6245C79.6175 81.6729 79.5137 81.6982 79.4084 81.6982C79.3031 81.6982 79.1993 81.6729 79.1056 81.6245C79.012 81.576 78.9312 81.5058 78.87 81.4196C78.0158 80.5647 77.1656 79.7078 76.3194 78.8488C76.2238 78.7854 76.1454 78.6992 76.0911 78.5979C76.0369 78.4965 76.0085 78.3832 76.0085 78.2681C76.0085 78.153 76.0369 78.0397 76.0911 77.9384C76.1454 77.837 76.2238 77.7508 76.3194 77.6874C76.6442 77.3547 76.9931 77.0462 77.2999 76.7014C77.4327 76.556 77.5076 76.3665 77.5105 76.1691C77.4804 75.9029 77.2217 75.8969 76.9871 75.8969C76.5059 75.8969 76.0186 75.8969 75.5313 75.8969C75.0441 75.8969 74.7253 75.661 74.7253 75.0984L74.7192 73.2293ZM86.1488 64.2828H83.5441V65.4926C83.5662 65.8377 83.4784 66.1808 83.2934 66.4723C83.1084 66.7638 82.8359 66.9885 82.5154 67.1137C82.201 67.2541 81.8508 67.2917 81.514 67.2211C81.1773 67.1506 80.871 66.9755 80.6386 66.7205C80.2897 66.3697 79.9528 66.0068 79.5979 65.6378C79.5346 65.6799 79.4743 65.7264 79.4174 65.7769C78.8579 66.3334 78.2925 66.8899 77.6849 67.5009C78.2022 68.009 78.7136 68.4748 79.1888 68.9829C79.4108 69.2038 79.5867 69.467 79.7062 69.7572C79.7919 70.0103 79.816 70.2804 79.7763 70.5448C79.7366 70.8092 79.6344 71.0601 79.4781 71.2765C79.3219 71.4929 79.1163 71.6684 78.8785 71.7882C78.6408 71.908 78.3779 71.9687 78.112 71.965C77.4383 71.965 76.7585 71.965 76.0607 71.965V74.5843C76.4517 74.5843 76.8126 74.5843 77.1736 74.5843C77.5107 74.5787 77.8414 74.6779 78.1203 74.8685C78.3991 75.0591 78.6127 75.3316 78.7316 75.6489C78.866 75.9609 78.8994 76.3076 78.827 76.6398C78.7547 76.9719 78.5803 77.2728 78.3286 77.4999C78.0759 77.7418 77.8112 77.9717 77.5766 78.1834L79.4475 80.0889C79.8144 79.7199 80.1754 79.3448 80.5483 78.9758C80.781 78.6912 81.0988 78.4896 81.4545 78.4011C81.8102 78.3126 82.1849 78.3418 82.5227 78.4845C82.8606 78.6272 83.1436 78.8757 83.3298 79.1931C83.516 79.5105 83.5953 79.8798 83.5561 80.2461C83.5561 80.851 83.5561 81.4862 83.5561 82.1092H86.1187C86.1315 82.08 86.1416 82.0496 86.1488 82.0185C86.1488 81.4136 86.1488 80.8087 86.1488 80.2038C86.1194 79.8467 86.2046 79.4895 86.3919 79.1847C86.5792 78.8798 86.8587 78.6434 87.1895 78.5101C87.5158 78.3652 87.8802 78.3311 88.2275 78.413C88.5748 78.4948 88.8862 78.6882 89.1145 78.9637L90.1853 80.1252L92.0982 78.2137C91.8757 78.002 91.629 77.7842 91.4004 77.5483C91.1388 77.315 90.9567 77.0049 90.8801 76.6618C90.8034 76.3188 90.836 75.9602 90.9733 75.6368C91.109 75.3132 91.3407 75.0397 91.6368 74.8535C91.9329 74.6673 92.2789 74.5775 92.6276 74.5964H93.7826V71.9771C93.0306 71.9771 92.3027 71.9771 91.5749 71.9771C91.2658 71.9708 90.9646 71.8784 90.7046 71.7103C90.4446 71.5422 90.236 71.3049 90.102 71.0248C89.968 70.7447 89.9139 70.4327 89.9456 70.1235C89.9772 69.8143 90.0935 69.52 90.2815 69.2732C90.4019 69.1192 90.5304 68.9718 90.6665 68.8317L92.0922 67.5009L90.1311 65.6136L89.0724 66.7266C88.8365 66.9752 88.5316 67.1464 88.1974 67.2178C87.8631 67.2892 87.5153 67.2574 87.1993 67.1266C86.8834 66.9959 86.614 66.7723 86.4266 66.485C86.2392 66.1978 86.1423 65.8603 86.1488 65.5168C86.1488 65.0934 86.1488 64.7062 86.1488 64.2828Z" fill="#E33C5C"/>
<path d="M83.093 83.5671C82.3892 83.5671 82.1065 83.2827 82.1065 82.5811V82.2242C82.1065 81.5467 82.1065 80.8692 82.1065 80.1978C82.1065 79.8953 82.0584 79.8348 81.9621 79.8227C81.8114 79.8264 81.6676 79.8868 81.5591 79.9921C81.2222 80.3006 80.8973 80.6333 80.5785 80.9539L80.0552 81.4801C79.9793 81.5793 79.8818 81.6596 79.7702 81.7148C79.6586 81.7701 79.5359 81.7988 79.4115 81.7988C79.2871 81.7988 79.1644 81.7701 79.0528 81.7148C78.9412 81.6596 78.8437 81.5793 78.7678 81.4801L76.2172 78.9093C76.108 78.831 76.0189 78.7275 75.9574 78.6076C75.896 78.4876 75.8639 78.3547 75.8639 78.2197C75.8639 78.0848 75.896 77.9518 75.9574 77.8319C76.0189 77.7119 76.108 77.6085 76.2172 77.5301L76.5601 77.1974C76.7767 76.9918 76.9932 76.774 77.1917 76.5502C77.2971 76.4386 77.359 76.2926 77.3662 76.1389C77.3662 76.0421 77.294 75.9997 76.9993 75.9997C76.5902 75.9997 76.1872 75.9997 75.7961 75.9997H75.5495C75.4201 76.0213 75.2875 76.0118 75.1625 75.9719C75.0375 75.932 74.9237 75.8629 74.8304 75.7702C74.737 75.6776 74.6669 75.564 74.6256 75.4388C74.5844 75.3136 74.5732 75.1804 74.593 75.05V71.3843C74.5793 71.2632 74.5931 71.1404 74.6335 71.0254C74.6739 70.9104 74.7397 70.8061 74.8261 70.7205C74.9124 70.6348 75.017 70.57 75.1319 70.531C75.2468 70.4919 75.369 70.4797 75.4893 70.4951H76.3135C76.8609 70.4951 77.4143 70.4951 77.9678 70.4951C78.0882 70.4871 78.2035 70.4429 78.2986 70.3681C78.3064 70.3001 78.3003 70.2312 78.2806 70.1657C78.261 70.1002 78.2282 70.0394 78.1843 69.987C77.7753 69.5575 77.3482 69.1281 76.9391 68.7167C76.7346 68.5171 76.5361 68.3175 76.3375 68.1118C76.2355 68.0359 76.1526 67.937 76.0955 67.823C76.0384 67.709 76.0087 67.5831 76.0087 67.4555C76.0087 67.3279 76.0384 67.202 76.0955 67.088C76.1526 66.9741 76.2355 66.8751 76.3375 66.7992L78.9182 64.2042C78.9924 64.1075 79.0877 64.0292 79.1966 63.9754C79.3056 63.9215 79.4254 63.8935 79.5468 63.8935C79.6683 63.8935 79.7881 63.9215 79.8971 63.9754C80.006 64.0292 80.1013 64.1075 80.1755 64.2042C80.362 64.3856 80.5484 64.5732 80.7289 64.7607C80.9094 64.9482 81.2824 65.3232 81.5711 65.5954C81.6709 65.6885 81.8019 65.7403 81.938 65.7406C82.0332 65.6458 82.0891 65.5183 82.0945 65.3837C82.0945 65.0208 82.0945 64.6518 82.0945 64.2949C82.0945 64.0953 82.0945 63.9017 82.0945 63.69C82.0815 63.5724 82.0947 63.4534 82.1331 63.3416C82.1715 63.2298 82.2341 63.1279 82.3164 63.0434C82.3987 62.9589 82.4987 62.8938 82.6091 62.8529C82.7194 62.812 82.8375 62.7963 82.9547 62.8068H86.7505C86.8648 62.8007 86.9791 62.8189 87.086 62.8602C87.1928 62.9016 87.2897 62.9652 87.3704 63.0469C87.451 63.1286 87.5136 63.2265 87.554 63.3342C87.5944 63.4419 87.6117 63.557 87.6047 63.6719V64.3252C87.6047 64.676 87.6047 65.0389 87.6047 65.3898C87.6088 65.5181 87.6628 65.6398 87.7551 65.7285C87.8738 65.7318 87.9895 65.6909 88.0799 65.6136C88.4228 65.299 88.7597 64.9603 89.0785 64.6337L89.4816 64.2284C89.557 64.1246 89.6556 64.0402 89.7696 63.9821C89.8835 63.9239 90.0095 63.8935 90.1373 63.8935C90.265 63.8935 90.391 63.9239 90.505 63.9821C90.6189 64.0402 90.7176 64.1246 90.793 64.2284C91.6472 65.0813 92.4954 65.9402 93.3496 66.7992C93.4514 66.8712 93.5344 66.9668 93.5918 67.0779C93.6491 67.1889 93.679 67.3122 93.679 67.4374C93.679 67.5625 93.6491 67.6858 93.5918 67.7969C93.5344 67.908 93.4514 68.0035 93.3496 68.0755C92.9766 68.4627 92.5976 68.8438 92.2186 69.2188L91.6171 69.8237L91.563 69.8842C91.3825 70.0596 91.2983 70.1564 91.3765 70.35C91.4547 70.5435 91.5569 70.5314 91.7976 70.5254H92.6578H94.3241C94.4498 70.5069 94.578 70.5183 94.6985 70.5587C94.8189 70.599 94.9283 70.6672 95.0178 70.7578C95.1073 70.8484 95.1745 70.9589 95.2138 71.0803C95.2532 71.2017 95.2637 71.3307 95.2445 71.4569C95.2445 72.6667 95.2445 73.8644 95.2445 75.05C95.2445 75.7154 94.9377 76.0239 94.27 76.0239H93.8188C93.4278 76.0239 93.0247 76.0239 92.6157 76.0239C92.4887 76.0374 92.3721 76.1004 92.2908 76.1994C92.2977 76.3087 92.34 76.4128 92.4112 76.4958C92.6277 76.7438 92.8683 76.9797 93.1029 77.2095L93.506 77.6148C93.5987 77.689 93.6736 77.7833 93.7251 77.8907C93.7766 77.998 93.8033 78.1157 93.8033 78.2348C93.8033 78.354 93.7766 78.4717 93.7251 78.579C93.6736 78.6864 93.5987 78.7807 93.506 78.8549C92.6237 79.7501 91.7374 80.6413 90.8471 81.5285C90.7743 81.6183 90.6826 81.6907 90.5785 81.7404C90.4745 81.7901 90.3607 81.8159 90.2455 81.8159C90.1303 81.8159 90.0166 81.7901 89.9125 81.7404C89.8085 81.6907 89.7168 81.6183 89.644 81.5285L89.1567 81.0386C88.8138 80.6877 88.4529 80.3248 88.092 79.986C87.9774 79.8904 87.8317 79.8408 87.6829 79.8469C87.5927 79.8469 87.5626 79.9074 87.5626 80.1917V82.575C87.5626 83.2767 87.2739 83.5731 86.5821 83.5731L83.093 83.5671ZM81.938 79.5203H82.0042C82.4133 79.5687 82.4133 80.0042 82.4133 80.1917C82.4133 80.8692 82.4133 81.5406 82.4133 82.2121V82.575C82.4133 83.1073 82.5637 83.2585 83.099 83.2585H86.6061C87.1295 83.2585 87.2919 83.0952 87.2859 82.5629V80.1796C87.2859 79.9679 87.2859 79.5747 87.6709 79.5324C87.9083 79.5179 88.1418 79.5984 88.3206 79.7562C88.6875 80.101 89.0484 80.4639 89.3973 80.8148L89.8786 81.3047C89.9233 81.366 89.9817 81.4158 90.0491 81.4501C90.1165 81.4845 90.191 81.5024 90.2666 81.5024C90.3422 81.5024 90.4167 81.4845 90.4841 81.4501C90.5515 81.4158 90.6099 81.366 90.6546 81.3047C91.5509 80.4216 92.4593 79.5324 93.3195 78.6371C93.383 78.5898 93.4345 78.5283 93.47 78.4574C93.5055 78.3865 93.524 78.3082 93.524 78.2288C93.524 78.1494 93.5055 78.0711 93.47 78.0002C93.4345 77.9293 93.383 77.8678 93.3195 77.8205L92.9225 77.4213C92.6819 77.1853 92.4412 76.9494 92.2186 76.6954C92.1383 76.6132 92.0805 76.5115 92.051 76.4002C92.0215 76.2888 92.0212 76.1717 92.0502 76.0602C92.1164 75.9592 92.2054 75.8753 92.3099 75.8154C92.4145 75.7554 92.5316 75.7212 92.6518 75.7154C93.0488 75.7154 93.4579 75.7154 93.8549 75.7154H94.3061C94.8053 75.7154 94.9798 75.54 94.9798 75.044C94.9798 73.8342 94.9798 72.6365 94.9798 71.4509C94.9798 70.9912 94.8114 70.846 94.3782 70.846H92.718H91.8577C91.715 70.8825 91.5639 70.8651 91.4331 70.7971C91.3022 70.7291 91.2008 70.6152 91.1479 70.477C91.0958 70.3349 91.0931 70.1794 91.14 70.0355C91.187 69.8917 91.2809 69.768 91.4065 69.6846L91.4607 69.6301L92.0622 69.0252C92.4412 68.6441 92.8202 68.2691 93.1872 67.888C93.5541 67.5069 93.512 67.3678 93.1872 67.0291L90.6366 64.4582C90.3117 64.1376 90.0831 64.1437 89.7463 64.4582L89.3492 64.8575C89.0244 65.1902 88.6875 65.5289 88.3386 65.8495C88.2509 65.9284 88.1452 65.9846 88.0309 66.013C87.9166 66.0415 87.7972 66.0414 87.6829 66.0128C87.584 65.9461 87.5028 65.8561 87.4462 65.7507C87.3896 65.6453 87.3593 65.5277 87.3581 65.4079C87.3581 65.045 87.3581 64.676 87.3581 64.3191V63.6779C87.3664 63.6022 87.3579 63.5257 87.3332 63.4537C87.3085 63.3818 87.2682 63.3162 87.2153 63.2618C87.1623 63.2074 87.098 63.1655 87.027 63.1391C86.956 63.1128 86.88 63.1026 86.8046 63.1093H83.0449C82.6539 63.1093 82.4855 63.2847 82.4855 63.7142C82.4855 63.9078 82.4855 64.1013 82.4855 64.3191C82.4855 64.682 82.4855 65.0571 82.4855 65.4321C82.4795 65.5536 82.4448 65.6719 82.3841 65.7772C82.3234 65.8824 82.2385 65.9715 82.1365 66.037C82.0156 66.0604 81.8909 66.0544 81.7727 66.0197C81.6545 65.985 81.5462 65.9225 81.4568 65.8374C81.162 65.5591 80.8552 65.2688 80.6026 64.9905C80.4221 64.803 80.2416 64.6216 80.0552 64.4401C80.0088 64.3715 79.9465 64.3153 79.8737 64.2765C79.8008 64.2376 79.7196 64.2173 79.6371 64.2173C79.5546 64.2173 79.4734 64.2376 79.4005 64.2765C79.3276 64.3153 79.2653 64.3715 79.219 64.4401L76.524 67.017C76.1932 67.3497 76.1932 67.5735 76.524 67.9062L77.1256 68.5111C77.5407 68.9224 77.9678 69.3519 78.3768 69.7874C78.458 69.8804 78.5165 69.9911 78.5479 70.1108C78.5792 70.2305 78.5824 70.3559 78.5573 70.477C78.4851 70.6948 78.1182 70.7976 77.9557 70.8036C77.4023 70.8036 76.8489 70.8036 76.2894 70.8036H75.4713C75.0502 70.8036 74.8697 70.9791 74.8697 71.4085V75.0742C74.8697 75.5582 75.0382 75.7215 75.5254 75.7215H75.7721C76.1751 75.7215 76.5782 75.7215 76.9752 75.7215C77.1737 75.7215 77.5767 75.7215 77.6489 76.1328C77.6516 76.3705 77.5633 76.6 77.4023 76.774C77.1918 77.0099 76.9692 77.2277 76.7526 77.4394L76.4158 77.7661C76.0608 78.1229 76.0548 78.371 76.4158 78.7157L78.9724 81.2866C79.2731 81.5951 79.5198 81.589 79.8326 81.2866C80.007 81.1172 80.1815 80.9418 80.3499 80.7664C80.6687 80.4458 80.9996 80.107 81.3425 79.7925C81.5027 79.6337 81.7137 79.5373 81.938 79.5203ZM86.1068 82.2423H83.3938V81.5043C83.3938 81.0688 83.3938 80.6393 83.3938 80.2099C83.4305 79.8773 83.3603 79.5417 83.1936 79.2522C83.0269 78.9627 82.7724 78.7344 82.4674 78.6008C82.1572 78.477 81.8162 78.4541 81.4924 78.5355C81.1687 78.6169 80.8785 78.7984 80.6627 79.0545L79.9048 79.8227L79.4596 80.2703L77.3722 78.1471L77.7091 77.8386C77.8835 77.6874 78.064 77.5301 78.2385 77.3608C78.4672 77.1519 78.6254 76.8765 78.6912 76.5729C78.7569 76.2693 78.727 75.9527 78.6054 75.667C78.4941 75.3806 78.2986 75.1351 78.0449 74.9632C77.7913 74.7914 77.4916 74.7014 77.1857 74.7052H75.9225V71.7836H76.7225C77.1917 71.7836 77.655 71.7836 78.1242 71.7836C78.3761 71.7823 78.6241 71.7201 78.8471 71.6022C79.0701 71.4843 79.2617 71.3141 79.4055 71.1061C79.5384 70.9156 79.6231 70.6955 79.6525 70.4647C79.6818 70.2339 79.6549 69.9993 79.5739 69.7814C79.4658 69.5082 79.3019 69.2609 79.0927 69.0555C78.7558 68.6986 78.4069 68.3659 78.0399 68.009L77.5948 67.5795L77.4805 67.4706L79.3213 65.6559L79.4356 65.5652L79.622 65.4261L80.0431 65.8616C80.2838 66.1157 80.5184 66.3637 80.759 66.5996C80.9697 66.8329 81.2482 66.9935 81.5549 67.0586C81.8615 67.1238 82.1808 67.0902 82.4674 66.9625C82.7611 66.8492 83.0108 66.644 83.1798 66.3772C83.3488 66.1104 83.428 65.796 83.4058 65.4805V64.1437H86.3114V64.6881C86.3114 64.9603 86.3114 65.2265 86.3114 65.4926C86.3025 65.807 86.389 66.1167 86.5594 66.3804C86.7299 66.6442 86.9762 66.8495 87.2655 66.969C87.5548 67.0885 87.8735 67.1166 88.1791 67.0496C88.4847 66.9825 88.7628 66.8234 88.9763 66.5935C89.2109 66.3576 89.4395 66.1157 89.6801 65.8616L90.1433 65.3777L92.3269 67.4827L91.7615 68.0029L90.7809 68.9164C90.6686 69.0318 90.5621 69.1529 90.4621 69.2793L90.408 69.3458C90.2247 69.5639 90.1117 69.8327 90.0838 70.1168C90.0558 70.4009 90.1143 70.6868 90.2516 70.9367C90.3581 71.2019 90.5437 71.4274 90.7828 71.5823C91.0219 71.7372 91.3029 71.8138 91.587 71.8017H93.9451V74.7234H92.6397C92.3202 74.7036 92.0026 74.7845 91.7309 74.9547C91.4592 75.1249 91.247 75.376 91.1238 75.6731C90.9985 75.9679 90.9688 76.295 91.039 76.6078C91.1092 76.9205 91.2757 77.2031 91.5148 77.4152C91.6773 77.5785 91.8397 77.7298 92.0021 77.881L92.3269 78.1895L90.1673 80.2945L89.7342 79.8227L88.9943 79.0182C88.7861 78.7647 88.5011 78.5867 88.1828 78.5114C87.8646 78.436 87.5306 78.4674 87.2317 78.6008C86.9289 78.7232 86.6733 78.9405 86.5032 79.2206C86.333 79.5007 86.2573 79.8286 86.2873 80.1554V81.9701C86.2941 82.002 86.2941 82.035 86.2873 82.0669L86.2512 82.1758L86.1068 82.2423ZM83.7006 81.9399H85.9865V80.1675C85.9597 79.7828 86.0554 79.3995 86.2598 79.0732C86.4643 78.7469 86.7668 78.4945 87.1235 78.3528C87.4784 78.2001 87.8727 78.1659 88.2484 78.2551C88.6241 78.3444 88.9614 78.5525 89.2109 78.8488L89.9568 79.6533L90.1794 79.8953L91.8698 78.2076L91.7735 78.1169C91.6111 77.9657 91.4426 77.8084 91.2802 77.6451C91.0015 77.3877 90.8085 77.0501 90.7274 76.6784C90.6463 76.3067 90.6811 75.9189 90.8271 75.5678C90.973 75.2167 91.2231 74.9194 91.5431 74.7164C91.8632 74.5133 92.2377 74.4144 92.6157 74.433H93.6203V72.1163H91.563C91.223 72.1154 90.8903 72.018 90.603 71.8352C90.3157 71.6525 90.0856 71.3919 89.9391 71.0835C89.7926 70.775 89.7358 70.4312 89.7751 70.0917C89.8144 69.7522 89.9483 69.4307 90.1613 69.1644L90.2095 69.1039C90.3176 68.9657 90.4341 68.8344 90.5583 68.7107C90.8712 68.4082 91.196 68.1058 91.5389 67.7973L91.8698 67.4888L90.1252 65.7769L89.8726 66.0431C89.632 66.2971 89.4034 66.5391 89.1687 66.775C88.9139 67.0479 88.5827 67.2368 88.2188 67.3165C87.855 67.3962 87.4757 67.3631 87.131 67.2216C86.7863 67.0801 86.4924 66.8367 86.288 66.5237C86.0837 66.2107 85.9786 65.8427 85.9865 65.4684C85.9865 65.2023 85.9865 64.9301 85.9865 64.6518V64.4159H83.6826V65.4503C83.7124 65.8306 83.6224 66.2108 83.4251 66.5367C83.2278 66.8626 82.9334 67.1177 82.5837 67.2658C82.2339 67.4138 81.8467 67.4472 81.4771 67.3613C81.1074 67.2754 80.774 67.0744 80.5244 66.7871C80.2777 66.5451 80.0431 66.2971 79.8025 66.0431L79.5679 65.7951L79.5077 65.8435L77.8896 67.4525C78.0039 67.5674 78.1121 67.6763 78.2264 67.7791C78.5934 68.136 78.9423 68.4748 79.2852 68.8317C79.5235 69.0686 79.7099 69.3529 79.8326 69.6664C79.9281 69.9293 79.96 70.2113 79.9255 70.489C79.8909 70.7668 79.7911 71.0322 79.6341 71.2634C79.4619 71.5109 79.2334 71.7136 78.9677 71.8546C78.7019 71.9956 78.4066 72.0708 78.1061 72.0739C77.6369 72.0739 77.1737 72.0739 76.6985 72.0739H76.1992V74.3847H77.1617C77.5293 74.3808 77.8893 74.49 78.1936 74.6976C78.4978 74.9051 78.7318 75.2011 78.8641 75.5461C79.0028 75.887 79.0351 76.2622 78.9567 76.622C78.8783 76.9818 78.6928 77.3091 78.425 77.5604C78.2445 77.7298 78.064 77.8931 77.8836 78.0504L77.7813 78.1411L79.4356 79.8227L79.6702 79.5868C79.9228 79.3327 80.1695 79.0726 80.4281 78.8186C80.6872 78.5134 81.0364 78.2994 81.425 78.208C81.8135 78.1166 82.2209 78.1525 82.5877 78.3105C82.9463 78.4673 83.2461 78.7346 83.4439 79.0738C83.6417 79.4129 83.7274 79.8065 83.6886 80.1978C83.6886 80.6272 83.6886 81.0567 83.6886 81.4862L83.7006 81.9399Z" fill="#E33C5C"/>
<path d="M68.7818 85.2668H84.9878C85.4931 85.2668 85.7818 85.5149 85.7698 85.9322C85.7698 86.0927 85.7064 86.2465 85.5936 86.36C85.4808 86.4734 85.3278 86.5371 85.1682 86.5371C84.8193 86.5371 84.4644 86.5371 84.1095 86.5371H68.7758V87.0453C68.7758 87.7772 68.7156 88.5152 68.7758 89.241C68.8781 90.2452 69.4796 90.7049 70.5023 90.6988C72.7401 90.6988 74.9779 90.6626 77.2156 90.6565C79.0865 90.6565 80.9633 90.6565 82.8342 90.6565C83.038 90.6849 83.2455 90.6692 83.4429 90.6107C83.6403 90.5522 83.823 90.4521 83.9789 90.317C84.1348 90.182 84.2604 90.0151 84.3472 89.8275C84.434 89.6399 84.4801 89.4359 84.4825 89.2289C84.5426 88.7995 84.8013 88.5454 85.1622 88.5757C85.2542 88.5819 85.3439 88.6075 85.4254 88.6509C85.5068 88.6943 85.5783 88.7545 85.6351 88.8276C85.6918 88.9007 85.7326 88.985 85.7548 89.075C85.777 89.165 85.78 89.2587 85.7638 89.3499C85.7331 90.0412 85.4406 90.6946 84.9462 91.176C84.4518 91.6573 83.793 91.9303 83.1049 91.9389C81.3002 91.9389 79.4534 91.9389 77.6307 91.9389H71.4949C71.0377 91.9389 70.5745 91.9389 70.1113 91.9389C69.4248 91.9142 68.7738 91.6257 68.2926 91.1328C67.8113 90.6399 67.5365 89.9801 67.5246 89.2894C67.5246 86.8053 67.5246 84.3212 67.5246 81.8371C67.5246 78.3044 67.5246 74.7658 67.5246 71.2331V61.0708C67.5067 60.6966 67.5665 60.3228 67.7002 59.9731C67.8339 59.6235 68.0386 59.3057 68.3012 59.0399C68.5638 58.7742 68.8785 58.5663 69.2254 58.4296C69.5722 58.2929 69.9436 58.2304 70.3158 58.2459H83.0568C83.7578 58.2342 84.4357 58.4984 84.9458 58.982C85.456 59.4656 85.7581 60.1305 85.7878 60.8349C85.8041 60.9262 85.8011 61.0199 85.7789 61.1099C85.7567 61.1999 85.7159 61.2841 85.6591 61.3572C85.6024 61.4303 85.5309 61.4905 85.4494 61.5339C85.368 61.5773 85.2783 61.603 85.1863 61.6092C84.8314 61.6092 84.5847 61.3733 84.5125 60.9498C84.5112 60.7491 84.468 60.5509 84.3856 60.368C84.3033 60.1851 84.1837 60.0217 84.0346 59.8883C83.8854 59.7548 83.7101 59.6544 83.5199 59.5934C83.3297 59.5324 83.1289 59.5123 82.9304 59.5344H71.5971C71.17 59.5344 70.7489 59.5344 70.3218 59.5344C70.1136 59.5157 69.9039 59.5433 69.7075 59.6153C69.5111 59.6872 69.3328 59.8017 69.1853 59.9506C69.0378 60.0995 68.9246 60.2792 68.8539 60.477C68.7831 60.6747 68.7565 60.8857 68.7758 61.095V68.1421C68.7758 73.7435 68.7758 79.3428 68.7758 84.9402L68.7818 85.2668Z" fill="#E33C5C"/>
<path d="M80.6507 92.1082H77.6429H74.4065H70.9295C70.6588 92.1082 70.3821 92.1082 70.1114 92.1082C69.386 92.0806 68.6985 91.7752 68.1896 91.2546C67.6808 90.7339 67.3891 90.0374 67.3743 89.3076V86.4524C67.3743 84.922 67.3743 83.3856 67.3743 81.8552V61.0829C67.3556 60.6886 67.4187 60.2947 67.5597 59.9264C67.7007 59.558 67.9164 59.2231 68.1931 58.9432C68.4698 58.6632 68.8015 58.4443 69.1669 58.3003C69.5324 58.1563 69.9237 58.0904 70.3159 58.1068H83.0569C83.7968 58.0951 84.512 58.3743 85.0502 58.885C85.5884 59.3957 85.9071 60.0975 85.9383 60.8409C85.9567 61.0503 85.8916 61.2584 85.7573 61.4195C85.6231 61.5806 85.4307 61.6814 85.2225 61.6999C85.0143 61.7183 84.8073 61.6529 84.6471 61.5179C84.4869 61.3829 84.3866 61.1894 84.3683 60.98C84.3687 60.7978 84.3307 60.6176 84.2567 60.4513C84.1827 60.285 84.0745 60.1363 83.9392 60.0151C83.8039 59.8939 83.6446 59.8029 83.4718 59.7482C83.2989 59.6935 83.1165 59.6763 82.9366 59.6977H70.3219C70.1335 59.6787 69.9431 59.7021 69.7648 59.7663C69.5865 59.8305 69.4246 59.9338 69.291 60.0688C69.1573 60.2038 69.0553 60.367 68.9922 60.5466C68.9291 60.7262 68.9066 60.9176 68.9263 61.1071V85.1337H84.9819C85.1153 85.1252 85.2491 85.1438 85.3752 85.1885C85.5013 85.2332 85.6172 85.303 85.7158 85.3938C85.7851 85.4692 85.8384 85.5579 85.8726 85.6546C85.9067 85.7513 85.9209 85.854 85.9143 85.9564C85.9098 86.1545 85.8299 86.3433 85.6912 86.4839C85.5524 86.6246 85.3653 86.7064 85.1684 86.7125C84.9037 86.7125 84.639 86.7125 84.3803 86.7125H68.9203V87.0694C68.9203 87.2932 68.9203 87.5231 68.9203 87.753C68.8902 88.2505 68.8902 88.7495 68.9203 89.2471C68.9206 89.4453 68.9643 89.641 69.048 89.8205C69.1318 89.9999 69.2537 90.1587 69.4052 90.2856C69.5566 90.4125 69.7339 90.5044 69.9245 90.5549C70.1151 90.6054 70.3145 90.6132 70.5084 90.5779C72.7462 90.5779 74.984 90.5416 77.2218 90.5355C78.3888 90.5355 79.5558 90.5355 80.7229 90.5355H82.8403C83.0258 90.5643 83.2153 90.5524 83.3958 90.5006C83.5763 90.4487 83.7434 90.3582 83.8858 90.2352C84.0281 90.1121 84.1423 89.9596 84.2204 89.788C84.2985 89.6164 84.3387 89.4298 84.3382 89.241C84.3396 89.133 84.3629 89.0264 84.4065 88.9276C84.4501 88.8289 84.5131 88.7401 84.5919 88.6665C84.6706 88.593 84.7634 88.5363 84.8645 88.4999C84.9657 88.4635 85.0732 88.4481 85.1804 88.4547C85.2905 88.4641 85.3974 88.4962 85.4947 88.549C85.5919 88.6018 85.6772 88.6741 85.7455 88.7615C85.8138 88.8488 85.8634 88.9494 85.8914 89.0568C85.9194 89.1643 85.9252 89.2764 85.9083 89.3862C85.876 90.1166 85.567 90.8068 85.0446 91.3153C84.5222 91.8237 83.826 92.1118 83.099 92.1203L80.6507 92.1082ZM71.4769 91.7877H74.3945H77.6308H78.3287C79.9228 91.7877 81.5169 91.7877 83.111 91.7877C83.7568 91.7808 84.3757 91.5268 84.8417 91.0773C85.3077 90.6278 85.5859 90.0165 85.6195 89.368C85.6195 88.9991 85.4691 88.7631 85.1684 88.7631C84.8676 88.7631 84.6991 88.9386 84.645 89.2894C84.6421 89.5155 84.5913 89.7384 84.496 89.9432C84.4007 90.148 84.2631 90.33 84.0923 90.4771C83.9215 90.6242 83.7216 90.7331 83.5057 90.7963C83.2898 90.8596 83.063 90.8758 82.8403 90.844H80.7349C79.5679 90.844 78.4008 90.844 77.2338 90.844C74.996 90.844 72.7582 90.844 70.5265 90.8863C69.4016 90.8863 68.782 90.348 68.6737 89.2894C68.6437 88.7797 68.6437 88.2687 68.6737 87.759C68.6737 87.5291 68.6737 87.3053 68.6737 87.0815V86.4222H84.4345C84.6931 86.4222 84.9458 86.4222 85.2044 86.4222C85.3268 86.4206 85.4437 86.371 85.5303 86.284C85.6168 86.197 85.6661 86.0795 85.6677 85.9564C85.6746 85.8329 85.6336 85.7114 85.5534 85.6177C85.4824 85.5566 85.4002 85.5102 85.3115 85.4812C85.2227 85.4521 85.1291 85.4409 85.036 85.4483H68.6316V61.1071C68.6125 60.8779 68.6433 60.6474 68.7217 60.4314C68.8001 60.2154 68.9243 60.0192 69.0857 59.8563C69.2471 59.6935 69.4418 59.5678 69.6563 59.4882C69.8709 59.4086 70.1 59.3769 70.328 59.3952H82.9185C83.1343 59.3744 83.352 59.3985 83.5581 59.4661C83.7641 59.5337 83.9541 59.6433 84.1161 59.788C84.2782 59.9328 84.4088 60.1096 84.4998 60.3074C84.5908 60.5052 84.6402 60.7198 84.645 60.9377C84.6871 61.2825 84.8796 61.4821 85.1563 61.464C85.433 61.4458 85.6255 61.2099 85.6135 60.8591C85.5793 60.198 85.291 59.5761 84.8096 59.1247C84.3281 58.6733 83.691 58.4276 83.0328 58.4395H70.2919C69.9396 58.4248 69.5882 58.484 69.26 58.6134C68.9317 58.7428 68.6339 58.9396 68.3855 59.1911C68.1371 59.4426 67.9434 59.7434 67.817 60.0743C67.6905 60.4053 67.634 60.759 67.651 61.1131V81.8794C67.651 83.4118 67.651 84.9442 67.651 86.4766V89.3318C67.6644 89.9829 67.9247 90.6042 68.3787 91.0687C68.8328 91.5331 69.4461 91.8054 70.0933 91.83C70.358 91.83 70.6348 91.83 70.8934 91.83L71.4769 91.7877Z" fill="#E33C5C"/>
<path d="M71.9943 62.5044H71.0438C70.8764 62.5095 70.7136 62.4495 70.5891 62.3368C70.4647 62.2241 70.3884 62.0674 70.3761 61.8995C70.3689 61.8124 70.3806 61.7248 70.4103 61.6426C70.44 61.5605 70.4871 61.4858 70.5482 61.4237C70.6094 61.3616 70.6832 61.3136 70.7646 61.283C70.846 61.2523 70.9331 61.2398 71.0198 61.2462C71.6875 61.2462 72.3612 61.2462 73.029 61.2462C73.1885 61.2462 73.3415 61.3099 73.4543 61.4234C73.5671 61.5368 73.6305 61.6907 73.6305 61.8511C73.6408 61.9364 73.6328 62.0229 73.6072 62.1049C73.5816 62.1869 73.5389 62.2625 73.482 62.3266C73.4251 62.3907 73.3553 62.4418 73.2771 62.4767C73.199 62.5115 73.1144 62.5292 73.029 62.5286C72.674 62.5165 72.3131 62.5044 71.9943 62.5044Z" fill="#004999"/>
<path d="M76.8972 88.0615C77.21 88.0615 77.5288 88.0615 77.8416 88.0615C77.931 88.0528 78.0211 88.063 78.1063 88.0914C78.1915 88.1198 78.2699 88.1658 78.3364 88.2265C78.4028 88.2871 78.456 88.3611 78.4923 88.4436C78.5287 88.5262 78.5474 88.6154 78.5474 88.7057C78.5474 88.796 78.5287 88.8853 78.4923 88.9678C78.456 89.0503 78.4028 89.1243 78.3364 89.185C78.2699 89.2456 78.1915 89.2917 78.1063 89.3201C78.0211 89.3485 77.931 89.3587 77.8416 89.3499C77.236 89.3499 76.6345 89.3499 76.0369 89.3499C75.9482 89.3608 75.8583 89.3537 75.7723 89.329C75.6864 89.3043 75.6063 89.2625 75.5368 89.2061C75.4672 89.1497 75.4096 89.0798 75.3674 89.0006C75.3252 88.9214 75.2992 88.8345 75.291 88.745C75.2937 88.6503 75.316 88.5572 75.3564 88.4716C75.3968 88.3859 75.4545 88.3097 75.5258 88.2477C75.597 88.1857 75.6803 88.1393 75.7704 88.1114C75.8605 88.0835 75.9553 88.0748 76.049 88.0857H76.9273L76.8972 88.0615Z" fill="#004999"/>
<path d="M30.6796 38.4293C30.6865 38.063 30.8058 37.7077 31.0212 37.4121C31.2365 37.1165 31.5374 36.895 31.8827 36.778C33.125 36.3757 34.2604 35.6953 35.2033 34.7878C36.8516 33.2635 38.7826 33.2816 40.4128 34.8241C41.401 35.7523 42.6079 36.4122 43.9198 36.7417C44.2345 36.8072 44.5261 36.9561 44.7645 37.1729C45.0028 37.3898 45.1792 37.6666 45.2755 37.975C45.3718 38.2833 45.3844 38.6119 45.3121 38.9268C45.2398 39.2417 45.0852 39.5315 44.8643 39.7662C44.3109 40.3711 43.7815 41.0607 43.1739 41.6414C42.1031 42.6757 41.1407 42.6213 40.1661 41.478C39.7548 40.9498 39.3828 40.3918 39.0532 39.8085C39.0178 39.7267 38.9572 39.6584 38.8803 39.6138C38.8034 39.5692 38.7144 39.5505 38.6261 39.5605C38.1601 39.4872 37.6845 39.5036 37.2245 39.6089C36.8756 39.7904 36.7312 40.3469 36.4545 40.7038C36.1262 41.1557 35.7555 41.575 35.3477 41.9559C35.0928 42.2099 34.7539 42.3607 34.3956 42.3796C34.0373 42.3986 33.6846 42.2844 33.4046 42.0587C33.0531 41.8161 32.732 41.5318 32.4482 41.2119C31.953 40.6912 31.4909 40.1396 31.0646 39.5605C30.858 39.212 30.6925 38.8405 30.5713 38.4535L30.6796 38.4293ZM37.9584 34.9633C37.2855 34.9582 36.6375 35.2188 36.1538 35.6891C35.6848 36.1364 35.1775 36.5413 34.6378 36.8989C33.9164 37.2921 33.1733 37.6435 32.4121 37.9515C31.997 38.139 31.8105 38.4354 32.0571 38.7257C32.6226 39.4153 33.1941 40.0989 33.8077 40.7401C34.2468 41.1998 34.4634 41.1937 34.8423 40.6917C35.2851 40.0947 35.6871 39.4682 36.0455 38.8165C36.114 38.6419 36.2362 38.4938 36.3941 38.3938C36.552 38.2937 36.7375 38.2468 36.9237 38.26C37.6697 38.26 38.4096 38.26 39.1495 38.26C39.33 38.2436 39.5109 38.2867 39.665 38.3827C39.8191 38.4787 39.9379 38.6224 40.0037 38.7923C40.3486 39.4363 40.7386 40.0549 41.1707 40.6433C41.5858 41.1937 41.8144 41.1937 42.2896 40.7038C42.8551 40.0989 43.3905 39.494 43.9198 38.8891C43.9946 38.8235 44.0485 38.7373 44.0749 38.6412C44.1012 38.545 44.0989 38.4432 44.0681 38.3484C44.0373 38.2536 43.9794 38.17 43.9017 38.108C43.824 38.046 43.7299 38.0084 43.6311 37.9999C42.0574 37.5953 40.6161 36.7842 39.4503 35.6468C39.0587 35.2348 38.5245 34.9901 37.9584 34.9633Z" fill="#E33C5C"/>
<path d="M84.9037 76.1147C84.3267 76.1135 83.763 75.9402 83.2838 75.6169C82.8047 75.2935 82.4317 74.8345 82.212 74.298C81.9923 73.7615 81.9357 73.1715 82.0494 72.6026C82.1632 72.0338 82.4421 71.5116 82.851 71.1021C83.2598 70.6927 83.7803 70.4144 84.3465 70.3023C84.9126 70.1903 85.4991 70.2496 86.0318 70.4728C86.5645 70.6959 87.0193 71.0729 87.3389 71.556C87.6585 72.0391 87.8285 72.6067 87.8273 73.1869C87.8273 73.5724 87.7516 73.9541 87.6045 74.3101C87.4574 74.6661 87.2419 74.9894 86.9703 75.2614C86.6986 75.5335 86.3762 75.7489 86.0216 75.8953C85.667 76.0417 85.2871 76.1163 84.9037 76.1147ZM84.9037 71.5416C84.6801 71.528 84.4561 71.5605 84.2454 71.6372C84.0348 71.7139 83.8419 71.8331 83.6788 71.9875C83.5157 72.1419 83.3857 72.3282 83.2968 72.535C83.208 72.7418 83.1621 72.9647 83.1621 73.19C83.1621 73.4152 83.208 73.6381 83.2968 73.8449C83.3857 74.0517 83.5157 74.2381 83.6788 74.3925C83.8419 74.5469 84.0348 74.6661 84.2454 74.7428C84.4561 74.8194 84.6801 74.8519 84.9037 74.8383C85.3259 74.8269 85.7284 74.6564 86.0314 74.3606C86.3345 74.0648 86.516 73.6654 86.54 73.2414C86.5439 73.0221 86.5049 72.8042 86.4252 72.6001C86.3454 72.3961 86.2264 72.2098 86.075 72.0519C85.9236 71.8941 85.7428 71.7678 85.5429 71.6802C85.3429 71.5926 85.1278 71.5455 84.9097 71.5416H84.9037Z" fill="#004999"/>
</g>
<defs>
<clipPath id="clip0_322_65">
<rect width="102" height="98" fill="white"/>
</clipPath>
</defs>
</svg>
