<svg width="94" height="87" viewBox="0 0 94 87" fill="none" xmlns="http://www.w3.org/2000/svg">
<g clip-path="url(#clip0_20_2156)">
<path d="M36.1725 61.2985C37.673 63.8053 37.5063 65.0723 35.5792 66.9919C33.2528 69.3095 30.9263 71.627 28.5999 73.9445C28.0803 74.466 27.5065 74.9024 26.859 74.2574C26.2114 73.6123 26.6108 73.0407 27.142 72.5115C29.546 70.1283 31.9694 67.7567 34.3191 65.3194C34.769 64.8549 35.0266 64.2383 35.0403 63.5929C34.9899 62.7779 34.2377 62.4998 33.4312 62.3298C30.9574 61.82 29.4917 60.275 28.9295 57.8107C28.8209 57.3317 28.4215 56.6519 28.0299 56.5631C27.7446 56.5183 27.4529 56.5359 27.175 56.6146C26.8972 56.6933 26.6398 56.8312 26.4208 57.0188C19.9585 63.3946 13.5245 69.7987 7.11906 76.2311C6.2893 77.0616 6.29705 77.7762 7.11906 78.6028C9.02675 80.5263 10.9461 82.4383 12.877 84.3386C13.7572 85.2038 14.428 85.1923 15.3314 84.3077C17.8595 81.8048 20.372 79.2864 22.8924 76.7796C23.1289 76.5402 23.3654 76.1887 23.6678 76.1384C23.8651 76.09 24.0704 76.0828 24.2706 76.1174C24.4708 76.152 24.6616 76.2275 24.8311 76.3393C25.0521 76.571 25.0017 77.1118 24.959 77.4981C24.9396 77.6873 24.6721 77.8573 24.5054 78.0234C21.9644 80.5649 19.4247 83.1026 16.8863 85.6364C15.0871 87.4209 13.1368 87.4364 11.3532 85.6751C9.47394 83.8211 7.60245 81.9567 5.73871 80.0821C4.0753 78.4058 4.06367 76.4011 5.73871 74.717C9.77638 70.6768 13.8283 66.6353 17.8944 62.5925C18.1503 62.3337 18.3984 62.0633 18.7241 61.7234C17.2585 60.8466 16.9987 59.4716 17.0646 58.0038C17.1499 56.2386 16.4985 55.1648 14.8971 54.1412C13.1019 52.9825 11.6905 52.8357 9.81386 53.7009C7.41375 54.8095 6.3746 54.3807 4.83915 52.1829C2.4274 48.7066 2.40413 48.3745 5.25015 45.2304C6.14971 44.2338 6.54521 43.3223 5.94033 42.0747C5.79406 41.7668 5.71856 41.4303 5.71932 41.0897C5.71932 39.3979 4.89343 38.4168 3.27655 37.9997C2.75875 37.8344 2.25973 37.6156 1.78763 37.3469C1.16634 37.059 0.658216 36.5744 0.342565 35.9686C0.0269133 35.3627 -0.0784959 34.6699 0.0427955 33.9981C0.190137 33.0633 0.364621 32.1325 0.558491 31.2054C0.656086 30.4932 1.00356 29.8384 1.53937 29.357C2.07518 28.8756 2.76474 28.5985 3.48593 28.575C4.43202 28.4862 5.38198 28.4167 6.32807 28.3896C6.63207 28.3897 6.9294 28.3008 7.18309 28.1339C7.43677 27.967 7.63564 27.7296 7.75496 27.4511C8.24739 26.5704 8.91818 25.7747 9.35633 24.8747C9.60863 24.3596 9.68749 23.7772 9.58122 23.2138C9.30425 22.3107 8.9807 21.4224 8.61186 20.5525C8.08454 19.0075 8.49554 17.7561 9.80223 16.8059C10.5415 16.2677 11.2937 15.7462 12.0589 15.2415C12.6404 14.8172 13.3521 14.6078 14.0717 14.6494C14.7913 14.691 15.4739 14.9809 16.0022 15.4694C16.7312 16.072 17.3864 16.7788 18.1697 17.3041C18.6336 17.5885 19.1789 17.712 19.7206 17.6556C20.7966 17.5187 21.8581 17.286 22.8924 16.9604C23.3801 16.7993 23.7993 16.4796 24.0827 16.0527C24.5596 15.2454 24.8582 14.3338 25.2459 13.4764C25.9322 11.997 27.204 11.3095 28.7977 11.5953C30.1896 11.8425 31.57 12.1515 33.1442 12.4721C33.6211 11.9352 34.2493 11.1975 34.9046 10.4867C39.7988 5.20142 46.312 1.67906 53.4275 0.469516C60.5429 -0.740029 67.8602 0.431302 74.237 3.80067L74.5976 3.9938C75.2645 4.34143 75.7608 4.81266 75.3072 5.59676C74.8806 6.32292 74.2447 6.12207 73.6244 5.78216C69.5895 3.5186 65.0689 2.25107 60.4412 2.08571C48.809 1.7458 39.7242 6.43107 33.2218 15.9909C29.6313 21.2594 28.1114 27.1923 28.2509 33.5616C28.2509 34.3341 28.4836 35.2225 27.3397 35.3809C26.5992 35.4851 26.2657 34.9174 26.2386 33.5925C26.2386 33.0904 26.2386 32.5921 26.2386 32.117C24.3386 31.6651 22.2603 32.6616 21.1979 34.4577C20.6553 35.3818 20.4157 36.4515 20.5123 37.5177C20.6089 38.584 21.037 39.5936 21.7369 40.406C22.4261 41.2247 23.3621 41.8 24.4058 42.0463C25.4494 42.2927 26.5451 42.1969 27.5297 41.7734C27.3824 41.1785 27.2312 40.5644 27.0877 39.9541C26.9132 39.2357 26.7349 38.4554 27.712 38.2198C28.6891 37.9842 28.9023 38.7181 29.0691 39.4597C29.8877 43.0602 31.3665 46.4792 33.4312 49.5448C36.7473 54.4771 41.4386 58.3359 46.9278 60.6466C52.417 62.9572 58.4646 63.6188 64.3263 62.55C76.4936 60.275 86.3423 50.9122 88.723 38.9885C91.1037 27.0648 87.5598 16.972 78.3393 8.93786C78.1609 8.78336 77.8662 8.6559 77.8236 8.4705C77.7267 8.05334 77.5754 7.47396 77.7732 7.20744C77.9709 6.94093 78.5797 6.92548 79.0062 6.92934C79.2233 6.92934 79.4521 7.21131 79.6537 7.38898C89.8009 16.2728 93.7016 27.4163 90.4019 40.4215C87.1022 53.4267 78.3199 61.5535 65.0902 64.3693C56.2148 66.2696 47.8978 64.4233 40.3833 59.317C39.4915 58.7145 38.9216 58.9308 38.2702 59.4445C37.5179 60.0625 36.8316 60.7114 36.1725 61.2985ZM31.9073 14.2334C30.7208 14.0055 29.6972 13.8472 28.693 13.6077C28.5323 13.5515 28.3618 13.5285 28.1919 13.54C28.022 13.5515 27.8562 13.5973 27.7046 13.6746C27.553 13.7519 27.4188 13.8591 27.3101 13.9897C27.2013 14.1203 27.1204 14.2716 27.0722 14.4343C26.6612 15.3613 26.258 16.2922 25.8276 17.2076C25.6159 17.6689 25.2925 18.0707 24.8864 18.3767C24.4803 18.6828 24.0043 18.8836 23.5011 18.9612C22.3728 19.1852 21.2483 19.4247 20.1316 19.6951C19.5943 19.8595 19.0233 19.8827 18.4743 19.7622C17.9253 19.6417 17.4169 19.3817 16.9987 19.0075C16.262 18.3548 15.5137 17.7213 14.7769 17.0762C14.5662 16.8508 14.2759 16.7155 13.9671 16.699C13.6583 16.6824 13.3551 16.7858 13.1213 16.9874C12.4854 17.4393 11.8573 17.899 11.1826 18.3161C11.0214 18.393 10.8778 18.5022 10.7607 18.6368C10.6437 18.7714 10.5557 18.9285 10.5022 19.0984C10.4487 19.2684 10.431 19.4474 10.45 19.6245C10.4689 19.8016 10.5243 19.9728 10.6126 20.1277C10.981 20.9967 11.3028 21.889 11.6285 22.7774C11.8335 23.2827 11.9055 23.8318 11.8377 24.3726C11.7698 24.9134 11.5643 25.4279 11.2407 25.8674C10.5868 26.8124 9.96508 27.7781 9.37571 28.7643C9.12955 29.2298 8.76662 29.6238 8.32224 29.9081C7.87787 30.1924 7.36719 30.3572 6.83989 30.3866C5.85891 30.4522 4.87792 30.5295 3.89694 30.5797C3.7268 30.5687 3.55615 30.5913 3.39479 30.6462C3.23343 30.701 3.08453 30.7871 2.95664 30.8994C2.82875 31.0117 2.72439 31.1481 2.64954 31.3007C2.57469 31.4533 2.53082 31.6192 2.52046 31.7887C2.43659 32.4941 2.30708 33.1934 2.13272 33.8822C1.85354 34.871 2.24904 35.4272 3.1486 35.7594C3.92408 36.0645 4.69956 36.4469 5.47504 36.783C6.03523 36.9974 6.52338 37.3648 6.88345 37.843C7.24352 38.3213 7.46092 38.891 7.51068 39.4867C7.61156 40.3597 7.79592 41.2211 8.06127 42.0592C8.61574 43.6737 8.24351 44.9561 7.11131 46.2346C4.49406 49.1895 4.59875 48.2006 6.91356 51.619L6.97172 51.704C7.11961 51.9549 7.35882 52.1394 7.63968 52.2193C7.92055 52.2991 8.2215 52.2681 8.48003 52.1327C9.41837 51.7465 10.3722 51.3988 11.3299 51.0551C11.8403 50.8545 12.394 50.7886 12.9374 50.8638C13.4808 50.9389 13.9956 51.1524 14.4319 51.4838C15.3049 52.1156 16.2109 52.7009 17.146 53.2374C17.6813 53.4978 18.133 53.9018 18.4501 54.4041C18.7673 54.9064 18.9374 55.4869 18.9413 56.0802C18.955 57.0263 19.0275 57.9705 19.1584 58.9076C19.2009 59.1268 19.2877 59.3351 19.4137 59.5198C19.5397 59.7044 19.7022 59.8615 19.8912 59.9814C20.1239 60.1011 20.6939 59.8231 20.9614 59.5681C22.3146 58.2858 23.6252 56.9609 24.9319 55.636C26.0951 54.4464 27.4367 54.203 29.0303 54.6936C29.3087 54.7585 29.5974 54.767 29.8791 54.7186C30.1609 54.6701 30.43 54.5658 30.6704 54.4116C31.441 53.801 32.1666 53.1363 32.8418 52.4224C31.981 51.0473 31.0543 49.7186 30.2711 48.2895C29.4878 46.8603 28.8558 45.3887 28.154 43.9364C22.7915 44.6626 19.236 42.6077 18.5574 38.3357C18.3848 37.4179 18.3989 36.475 18.5987 35.5628C18.7985 34.6505 19.18 33.7874 19.7206 33.0247C21.3143 30.7728 23.5748 29.8497 26.3471 29.9347C26.8246 24.3151 28.7359 18.9103 31.8996 14.2334H31.9073ZM34.1446 60.4102C34.3122 60.3782 34.4701 60.3081 34.606 60.2054C35.3923 59.519 36.1211 58.7697 36.7851 57.9652C36.8832 57.7405 36.9263 57.4959 36.9107 57.2515C36.8952 57.007 36.8216 56.7697 36.6959 56.5592C36.202 55.9201 35.6375 55.3384 35.0131 54.8249C34.7781 54.589 34.4833 54.4208 34.1601 54.3382C33.5358 54.2224 30.9225 56.7832 30.9612 57.409C31.0427 58.8149 32.5238 60.275 34.1446 60.4102Z" fill="#004999"/>
<path d="M58.8707 6.32684C64.0854 6.34441 69.1781 7.89995 73.5064 10.7973C77.8347 13.6946 81.2048 17.8039 83.1915 22.6068C85.1783 27.4098 85.6927 32.6913 84.6699 37.7851C83.6471 42.879 81.1329 47.557 77.4445 51.2292C73.756 54.9013 69.0585 57.4032 63.9444 58.419C58.8304 59.4349 53.5289 58.9194 48.7086 56.9375C43.8883 54.9555 39.7652 51.596 36.8593 47.2825C33.9534 42.9691 32.3948 37.895 32.3802 32.7003C32.3513 29.2276 33.0168 25.7838 34.338 22.57C35.6592 19.3562 37.6096 16.4366 40.0755 13.9816C42.5414 11.5267 45.4733 9.58543 48.7003 8.27117C51.9272 6.95692 55.3846 6.29595 58.8707 6.32684ZM71.6661 34.0097C71.1427 34.5003 70.9178 34.7011 70.7045 34.9097C65.5347 40.0726 60.3532 45.2356 55.16 50.3985C54.1868 51.368 53.768 51.368 52.8025 50.3985C51.0461 48.6565 49.2819 46.9222 47.5603 45.1532C47.2926 44.8127 47.0734 44.4371 46.9089 44.0369L41.3836 49.5372C48.836 57.6485 62.9924 59.966 73.6087 51.8199C78.6994 47.9758 82.0677 42.291 82.9859 35.9936C83.9041 29.6962 82.2986 23.2917 78.5161 18.1637C74.7336 13.0357 69.0778 9.59584 62.7705 8.58728C56.4633 7.57871 50.0109 9.08237 44.8073 12.7734C42.2051 14.5716 39.9851 16.8642 38.275 19.5196C36.5649 22.175 35.3984 25.1409 34.8424 28.2468C34.0258 32.428 34.3744 36.7521 35.8505 40.7499C36.215 40.4022 36.4632 40.1743 36.7036 39.9387C39.6297 37.0238 42.5571 34.1089 45.4859 31.1939C46.3079 30.3789 46.7111 30.3789 47.5332 31.1939C48.6964 32.3334 49.8596 33.4767 50.9879 34.6354C51.9573 35.6204 52.9034 36.6247 53.7254 37.4783L64.0742 27.2078C63.482 26.6595 62.9177 26.0819 62.3836 25.4773C62.1355 25.1761 61.8834 24.6199 61.9959 24.3418C62.1064 24.1509 62.2592 23.9877 62.4427 23.8645C62.6261 23.7413 62.8353 23.6615 63.0544 23.631C66.9086 23.3375 70.7666 23.1057 74.6246 22.8585C75.5319 22.8006 75.9507 23.2448 75.8925 24.137C75.6521 27.8489 75.4233 31.5609 75.1403 35.265C75.1132 35.6513 74.8224 36.1998 74.5354 36.2886C74.3168 36.3288 74.0919 36.3205 73.8768 36.2644C73.6617 36.2084 73.4617 36.1058 73.2908 35.9642C72.6996 35.3499 72.1504 34.697 71.6468 34.0097H71.6661ZM65.3537 25.4658C65.6251 25.7709 65.7415 25.9215 65.8849 26.0529C67.0675 27.2348 67.0753 27.4241 65.9082 28.5906C62.2893 32.1956 58.6704 35.8006 55.0515 39.4057C54.1713 40.2825 53.8068 40.2863 52.9344 39.425C51.6122 38.1156 50.2861 36.8062 48.9794 35.4813C48.1846 34.6702 47.4285 33.8282 46.5793 32.9398C43.2951 36.2229 40.1855 39.3323 37.0874 42.4571C36.9284 42.6155 36.7733 42.994 36.8548 43.1369C37.7776 44.7553 38.7431 46.3467 39.7745 48.0732C41.8721 45.972 43.7449 44.1141 45.5906 42.2331C46.2536 41.5571 46.8507 41.5726 47.5021 42.2331C48.6886 43.442 49.9061 44.6201 51.0965 45.8252C52.0387 46.7793 52.9654 47.7565 54.055 48.8805C54.2793 48.5406 54.5254 48.2155 54.7917 47.9071C59.7703 42.927 64.754 37.9521 69.7429 32.9823C71.2939 31.4373 71.3133 31.4373 72.9689 32.8355C73.0349 32.8896 73.1512 32.8857 73.3102 32.9282C73.4769 30.2746 73.6436 27.6597 73.8181 24.9289L65.3537 25.4658Z" fill="#E43C5D"/>
<path d="M93.9961 71.9283V83.6936C93.9961 85.0262 93.7402 85.2773 92.3831 85.2811C89.8745 85.2811 87.3658 85.2811 84.8532 85.2811C83.7481 85.2811 83.4418 84.9876 83.4418 83.9177C83.4418 75.9067 83.4418 67.8958 83.4418 59.8849C83.4418 58.9347 83.8528 58.5407 84.795 58.5446C87.4045 58.5639 90.0179 58.5446 92.6274 58.5446C93.7014 58.5446 94 58.8575 94.0039 59.9544C94.0039 63.9483 94.0013 67.9396 93.9961 71.9283ZM85.5201 60.5956V83.1799H91.8946V60.5956H85.5201Z" fill="#F95069"/>
<path d="M69.7856 75.5823C69.7856 72.8785 69.7856 70.1747 69.7856 67.4709C69.7856 66.1693 70.0493 65.8989 71.3094 65.895C73.8168 65.895 76.3255 65.895 78.8355 65.895C80.0452 65.895 80.336 66.1886 80.3399 67.386C80.3399 72.8631 80.3399 78.3376 80.3399 83.8095C80.3399 84.9992 80.053 85.2734 78.8238 85.2773H71.29C70.0725 85.2773 69.7895 84.9992 69.7856 83.7902C69.7779 81.0555 69.7856 78.3208 69.7856 75.5823ZM78.2422 83.2263V68.0001H71.8794V83.2456L78.2422 83.2263Z" fill="#004999"/>
<path d="M66.3541 78.9543C66.3541 80.6075 66.3308 82.2645 66.3541 83.9177C66.3735 84.8447 66.0051 85.2928 65.0474 85.285C62.5064 85.2696 59.9667 85.2696 57.4283 85.285C56.5365 85.285 56.1332 84.8988 56.1332 83.995C56.1487 80.6474 56.1487 77.2999 56.1332 73.9523C56.1332 73.0446 56.5753 72.6893 57.4516 72.6931C59.9926 72.7086 62.5323 72.7086 65.0707 72.6931C65.9625 72.6931 66.3696 73.0794 66.3541 73.9716C66.327 75.648 66.3541 77.3012 66.3541 78.9543ZM58.2115 83.2031H64.2603V74.8175H58.1844L58.2115 83.2031Z" fill="#E43C5D"/>
</g>
<defs>
<clipPath id="clip0_20_2156">
<rect width="94" height="87" fill="white"/>
</clipPath>
</defs>
</svg>
