<svg width="103" height="99" viewBox="0 0 103 99" fill="none" xmlns="http://www.w3.org/2000/svg">
<g clip-path="url(#clip0_25_14)">
<path d="M65.9397 0C66.3055 0.0773132 66.6755 0.133424 67.0479 0.168049C68.4468 0.433141 69.5978 1.0509 70.2556 2.36926C70.7084 3.28051 70.8109 4.26277 70.8109 5.2687C70.8109 12.4167 70.8109 19.5639 70.8109 26.7104V44.3248C70.8109 44.765 70.8109 44.765 71.266 44.765C74.7264 44.765 78.1867 44.765 81.6471 44.765C84.7619 44.765 87.8838 44.6893 90.9962 44.8053C94.4446 44.9354 97.1733 46.4384 98.9035 49.4965C99.6963 50.9194 100.107 52.5212 100.095 54.1474C100.15 64.9665 100.109 75.7855 100.112 86.607C100.112 86.9028 100.198 87.0188 100.479 87.0803C100.973 87.1818 101.449 87.3557 101.892 87.5963C102.226 87.7644 102.507 88.0218 102.702 88.3396C102.898 88.6573 103 89.0229 102.998 89.3952C103.095 91.5054 102.438 93.5817 101.144 95.2579C99.404 97.5325 97.0756 98.7609 94.2039 98.9716C94.142 98.9716 94.0681 98.9456 94.0252 99.0189H37.1154C37.0797 98.9574 37.0177 98.9763 36.9629 98.9716C35.8122 98.9026 34.6828 98.6326 33.6265 98.174C31.9144 97.4526 30.4658 96.2277 29.4756 94.6642C28.4855 93.1006 28.0012 91.2734 28.088 89.4283C28.1429 88.2164 28.6362 87.5892 29.8063 87.2602C30.0815 87.1841 30.3608 87.1233 30.6428 87.078C30.8072 87.0519 30.8811 87.007 30.9049 86.8223C30.941 86.4748 30.9593 86.1256 30.9598 85.7762C30.9598 81.5844 30.9168 77.3926 30.9835 73.2009C31.0114 72.7566 31.001 72.3108 30.9526 71.8683C30.8763 71.3689 30.6666 71.1583 30.1542 71.1038C29.3464 71.0569 28.5366 71.0513 27.7282 71.0872C23.6609 71.0999 19.5921 71.1054 15.5217 71.1038C11.9112 71.1038 8.29833 71.1038 4.68785 71.1038C4.10636 71.1038 3.52723 71.1227 2.94574 71.0683C1.43006 70.931 0.388619 70.0292 0.0859579 68.5736C0.0645095 68.4766 0.105034 68.3606 0.00732422 68.2848V12.438C0.0835852 12.4001 0.0549873 12.3244 0.0669031 12.2629C0.142095 11.7246 0.372423 11.2195 0.730155 10.8083C1.08789 10.3972 1.55774 10.0976 2.08304 9.94568C2.58266 9.78567 3.10477 9.70577 3.62971 9.70899C4.65923 9.70899 5.69193 9.70899 6.72781 9.70899C17.5029 9.70899 28.2787 9.70899 39.0553 9.70899C39.3103 9.70899 39.3961 9.65455 39.3913 9.38473C39.377 8.0143 39.3913 6.6415 39.3913 5.2687C39.3849 4.75818 39.4168 4.24789 39.4867 3.74206C39.7369 2.04499 40.5806 0.823677 42.2941 0.307695C42.8991 0.137723 43.5241 0.0485756 44.1529 0.0426041C44.751 0.0260359 45.3445 0.0733737 45.9474 0H65.9397ZM51.443 46.4834C50.8424 46.455 50.2514 46.4834 49.6437 46.4834C46.8506 46.4834 44.0584 46.4834 41.2669 46.4834C40.5998 46.4818 39.9333 46.5253 39.2722 46.6136C37.6755 46.8125 36.1879 47.5238 35.0356 48.6393C33.8832 49.7548 33.129 51.2134 32.8877 52.7935C32.7425 53.8815 32.6875 54.9795 32.7233 56.0764C32.7233 65.5045 32.7233 74.9327 32.7233 84.3608C32.7233 85.1253 32.7066 85.8922 32.7733 86.659C32.8162 87.1324 32.7733 87.0827 33.2214 87.0827H97.843C97.9193 87.0827 97.9955 87.0827 98.0813 87.0827C98.2124 87.0827 98.2672 87.0354 98.272 86.9028C98.2863 86.4957 98.3244 86.091 98.3244 85.6839C98.3244 75.339 98.3244 64.9925 98.3244 54.6444C98.3318 53.8212 98.2382 53.0002 98.0456 52.1994C97.445 49.7923 96.0414 48.055 93.7011 47.113C92.5618 46.6749 91.3479 46.4603 90.1264 46.481H70.227C70.0936 46.481 69.9601 46.481 69.829 46.4621C68.9996 46.4621 68.1608 46.4384 67.3434 46.4408L55.4014 46.455C54.0645 46.4716 52.7489 46.4787 51.443 46.4834ZM62.3435 44.7366L65.9183 44.7485C66.507 44.799 67.0981 44.8187 67.6889 44.8076C68.7256 44.7863 69.0783 44.4408 69.0783 43.4135V43.2999C69.064 40.9165 69.0783 38.5306 69.0592 36.1472C69.0402 27.7329 69.0592 19.3186 69.0592 10.9043C69.0592 10.5753 69.0283 10.2439 69.0307 9.91254C69.0307 9.63088 68.9305 9.54331 68.6326 9.54331C59.645 9.55278 50.6581 9.55278 41.672 9.54331C41.2311 9.54331 41.2788 9.48887 41.2788 9.93621C41.2788 21.3715 41.2788 32.8051 41.2788 44.2372C41.2824 44.2837 41.2824 44.3304 41.2788 44.3769C41.2502 44.5804 41.3431 44.6301 41.5386 44.6301C42.5371 44.6301 43.538 44.6301 44.539 44.6301H49.7128C49.8098 44.6708 49.917 44.6815 50.0202 44.6609C51.8155 44.6609 53.6108 44.6656 55.4061 44.6751L58.235 44.6893L62.3435 44.7366ZM33.1666 18.0973C33.0535 18.0835 32.9397 18.0756 32.8257 18.0736C29.9969 18.0854 27.1681 18.0736 24.337 18.0878C17.2113 18.1115 10.0833 18.0878 2.95529 18.0878C2.77467 18.0862 2.59408 18.0941 2.41431 18.1115C2.02823 18.1517 1.86617 18.289 1.8042 18.6677C1.77363 18.8825 1.7609 19.0994 1.76609 19.3162C1.76609 33.0679 1.76609 46.8187 1.76609 60.5688C1.75738 60.9181 1.7725 61.2676 1.81136 61.6149C1.92099 62.3937 2.20696 62.6587 3.00294 62.699C3.69644 62.7345 4.39232 62.7274 5.0882 62.699H8.14578C8.47704 62.699 8.81069 62.7226 9.14434 62.7226C10.9817 62.7226 12.8215 62.7037 14.6589 62.7013H28.5647C29.2796 62.7013 29.9731 62.7132 30.6786 62.654C30.9169 62.6351 30.9764 62.5664 30.9741 62.3392C30.9741 60.1333 30.9502 57.9297 30.9598 55.7237C30.9295 54.6966 30.9693 53.6686 31.0789 52.6468C31.5389 49.4586 33.2928 47.2029 36.1645 45.7828C37.094 45.3213 38.0711 45.0065 39.0506 44.6372C39.1575 44.6108 39.2507 44.5457 39.312 44.4546C39.3732 44.3636 39.3981 44.2532 39.3818 44.1449C39.3818 36.3736 39.3818 28.6039 39.3818 20.8358C39.3818 20.4286 39.3961 20.0239 39.4056 19.6168C39.4389 19.3534 39.4228 19.0862 39.358 18.8286C39.246 18.5162 39.1196 18.1588 38.7264 18.1422C37.48 18.0878 36.2313 18.0996 34.9849 18.1257C34.3798 18.0826 33.7727 18.0732 33.1666 18.0973ZM65.5393 88.8815H31.3386C31.0999 88.8763 30.8611 88.8866 30.6237 88.9123C29.9969 89.0023 29.7992 89.2389 29.8325 89.8591C29.8823 91.3435 30.3704 92.7806 31.2362 93.9917C32.821 96.1645 35.0492 97.1609 37.685 97.1633C56.2895 97.1822 74.8948 97.1822 93.5009 97.1633C94.5704 97.1882 95.6328 96.9847 96.6163 96.5666C97.5997 96.1484 98.4813 95.5254 99.2014 94.7396C100.519 93.3337 101.127 91.6366 101.213 89.7384C101.237 89.2176 101.051 89.0283 100.534 88.9312C100.261 88.8903 99.9847 88.8753 99.709 88.8863L65.5393 88.8815ZM20.4977 16.2677C26.6462 16.2677 32.794 16.2677 38.9409 16.2677C39.2007 16.2677 39.2984 16.2298 39.2936 15.9387C39.277 14.5375 39.2793 13.1363 39.2936 11.7351C39.2936 11.4984 39.2293 11.4416 38.9934 11.4416C27.308 11.4416 15.6234 11.4416 3.93953 11.4416C3.51038 11.4303 3.08263 11.4952 2.67645 11.6333C2.4019 11.7076 2.16181 11.8742 1.99711 12.1047C1.8324 12.3352 1.75327 12.6153 1.77322 12.8972C1.77322 13.9008 1.77323 14.9043 1.75655 15.9079C1.75655 16.1966 1.82805 16.2653 2.11641 16.2653C8.2443 16.2621 14.3722 16.2629 20.5 16.2677H20.4977ZM55.1154 7.56222H68.6398C68.7161 7.56222 68.7923 7.56222 68.8781 7.56222C69.014 7.56222 69.0616 7.51488 69.0592 7.37997C69.033 6.35037 69.1117 5.31841 68.9806 4.29118C68.8162 2.99885 68.2037 2.29825 66.9335 1.98582C66.2571 1.82306 65.5632 1.74357 64.8673 1.74913C58.7108 1.74913 52.5551 1.74913 46.4002 1.74913C45.3905 1.71558 44.3798 1.77342 43.3807 1.92192C42.0509 2.1586 41.1882 2.7527 41.2359 4.38822C41.2597 5.33497 41.2573 6.28173 41.2359 7.22849C41.2359 7.50305 41.3003 7.56932 41.5767 7.56932C46.0888 7.55985 50.6025 7.55749 55.1178 7.56222H55.1154ZM16.0126 64.4576C11.3639 64.4576 6.71432 64.4576 2.06399 64.4576C1.82567 64.4576 1.75179 64.4955 1.75655 64.744C1.77562 65.5014 1.75655 66.2588 1.75655 67.0162C1.74611 67.4418 1.78854 67.8671 1.88287 68.2825C1.9287 68.5015 2.03606 68.7031 2.19254 68.864C2.34903 69.0248 2.54822 69.1383 2.76701 69.1914C3.18257 69.297 3.61075 69.3456 4.03961 69.3357H23.6482C23.7626 69.3357 23.8865 69.3215 23.9914 69.3215C25.0193 69.3215 26.0473 69.3215 27.0752 69.3215C28.0857 69.3215 29.0961 69.3547 30.1042 69.3357C30.7095 69.3215 30.9907 68.9878 30.9859 68.389C30.9859 68.0671 30.9502 67.7476 30.9311 67.4257C30.8906 66.744 30.9716 66.0671 30.9859 65.3854C30.9859 64.8221 30.7166 64.531 30.1518 64.467C30.0102 64.4516 29.8678 64.4445 29.7253 64.4457C28.9818 64.4457 28.2382 64.4576 27.4946 64.4576H16.0126Z" fill="#E33E5D"/>
<path d="M49.7007 44.6467H50.4156C50.387 44.5095 50.287 44.4787 50.2179 44.4243C49.7937 44.1 49.3861 43.7544 48.9405 43.4775C47.6464 42.6349 47.1746 41.3994 47.177 39.9272C47.177 36.8502 47.2008 33.7945 47.2079 30.7294C47.2079 29.0726 47.1936 27.4371 47.2079 25.7897C47.2147 25.7497 47.2132 25.7087 47.2035 25.6692C47.1938 25.6297 47.1762 25.5926 47.1517 25.5601C47.1272 25.5276 47.0963 25.5003 47.061 25.48C47.0256 25.4597 46.9863 25.4467 46.9457 25.4418C45.7923 25.1057 44.8248 24.495 44.2337 23.4228C43.9555 22.9044 43.7986 22.3303 43.7748 21.7433C43.751 21.1564 43.8608 20.5716 44.096 20.0326C44.3313 19.4936 44.6859 19.0143 45.1336 18.6303C45.5812 18.2463 46.1104 17.9676 46.6815 17.8148C47.2527 17.6621 47.8512 17.6393 48.4324 17.7482C49.0137 17.857 49.5627 18.0947 50.0387 18.4435C50.5146 18.7923 50.9051 19.2433 51.1813 19.7628C51.4574 20.2823 51.612 20.857 51.6335 21.4441C51.693 22.6275 51.1735 23.624 50.3203 24.443C50.1498 24.6073 49.9683 24.7599 49.777 24.8998C49.5257 25.0739 49.3226 25.3081 49.1864 25.5807C49.0502 25.8532 48.9853 26.1555 48.9977 26.4595C48.9977 28.6087 48.9977 30.7555 49.0263 32.9046C49.0382 34.4573 48.9786 36.0052 48.8976 37.5555C48.7689 39.9674 49.6602 41.9248 51.5357 43.4538C51.8589 43.7176 52.1954 43.9648 52.5438 44.1947C53.1569 44.5857 53.8851 44.7593 54.61 44.687C54.8744 44.6562 55.1415 44.6562 55.406 44.687C53.6091 44.687 51.8138 44.6823 50.0201 44.6728C49.9135 44.6974 49.8018 44.6883 49.7007 44.6467ZM47.6631 23.695C48.2249 23.6831 48.7607 23.4575 49.1598 23.0646C49.559 22.6717 49.7909 22.1416 49.8079 21.5837C49.808 21.0245 49.5866 20.4876 49.1916 20.0891C48.7965 19.6905 48.2595 19.4622 47.6965 19.4535C47.1275 19.4596 46.5832 19.6853 46.1789 20.0829C45.7746 20.4805 45.5419 21.0188 45.5302 21.5837C45.5548 22.137 45.7877 22.661 46.1826 23.052C46.5776 23.443 47.1059 23.6724 47.6631 23.695Z" fill="#024A99"/>
<path d="M5.09277 62.7037C5.69095 62.467 5.7934 62.299 5.67186 61.6434C5.17617 58.9711 6.1485 56.8622 8.21232 55.1888C9.26827 54.29 10.2627 53.3221 11.1889 52.2918C11.6063 51.8421 11.9292 51.3143 12.1387 50.7393C12.3482 50.1642 12.4401 49.5534 12.4091 48.9426C12.3948 48.1284 12.3852 47.3142 12.3423 46.5047C12.327 46.2529 12.2511 46.0083 12.1209 45.7917C11.9907 45.5751 11.81 45.3926 11.594 45.2597C10.7861 44.7059 10.1236 44.0289 9.78519 43.0917C8.98922 40.8928 10.4835 37.8845 13.5982 37.9342C14.4722 37.9427 15.3174 38.2456 15.9954 38.7935C16.6734 39.3413 17.1441 40.1015 17.3303 40.9496C17.7211 42.8999 16.8727 44.571 15.0877 45.3733C14.94 45.4396 14.7875 45.4988 14.6469 45.5745C14.4866 45.6506 14.3519 45.7711 14.2588 45.9214C14.1658 46.0717 14.1185 46.2455 14.1225 46.4219C14.1225 47.0941 14.1488 47.7663 14.1512 48.4361C14.1946 49.4093 14.1507 50.3843 14.0201 51.3497C13.9113 51.9005 13.6449 52.4084 13.2527 52.8125C11.9864 54.2237 10.6334 55.5556 9.20133 56.8007C7.64513 58.1214 7.13038 59.8232 7.45449 61.8019C7.5236 62.228 7.6928 62.5783 8.16944 62.7037H5.09277ZM13.5006 43.9153C14.064 43.9191 14.606 43.7011 15.0079 43.309C15.4099 42.9169 15.6391 42.3826 15.6454 41.823C15.6325 41.264 15.4017 40.7319 15.0016 40.3385C14.6015 39.9452 14.0635 39.7213 13.5006 39.7141C12.9423 39.7178 12.4081 39.9397 12.0134 40.3317C11.6186 40.7238 11.3952 41.2544 11.3914 41.8088C11.3863 42.0858 11.4373 42.3611 11.5413 42.6182C11.6453 42.8753 11.8003 43.109 11.997 43.3055C12.1937 43.502 12.4282 43.6572 12.6865 43.762C12.9447 43.8667 13.2216 43.9189 13.5006 43.9153Z" fill="#024A99"/>
<path d="M62.3362 44.7366C61.6476 43.9778 60.9206 43.2542 60.158 42.5686C59.8027 42.2783 59.5195 41.9105 59.3306 41.4939C59.1417 41.0772 59.0522 40.6228 59.0689 40.1662C59.0689 38.9188 59.1094 37.6691 59.1118 36.4218C59.1118 34.3294 59.0975 32.2395 59.0951 30.1495C59.0951 29.6193 59.0951 29.0891 59.1166 28.5613C59.1532 28.2208 59.0759 27.8778 58.8967 27.5852C58.7176 27.2926 58.4465 27.0667 58.1252 26.9423C57.5768 26.6918 57.1016 26.3068 56.7443 25.8236C56.387 25.3404 56.1594 24.7749 56.0828 24.1802C55.9846 23.5925 56.0235 22.9902 56.1967 22.4198C56.3698 21.8494 56.6725 21.3261 57.0814 20.8902C57.4903 20.4544 57.9946 20.1176 58.5553 19.9058C59.1159 19.6941 59.7181 19.613 60.3153 19.6689C61.8143 19.8156 62.9487 20.5541 63.554 21.9364C63.8596 22.579 63.9769 23.2939 63.8926 23.9996C63.8083 24.7053 63.5258 25.3732 63.0774 25.927C62.7279 26.3921 62.2621 26.7584 61.7261 26.9897C61.0874 27.269 60.8253 27.74 60.8324 28.424C60.8578 30.7799 60.8714 33.1349 60.873 35.4892C60.873 36.604 60.8277 37.7188 60.8015 38.8336C60.7681 40.2135 61.1947 41.3804 62.3577 42.2159C62.6255 42.4128 62.8583 42.6528 63.0464 42.926C63.3618 43.3953 63.7707 43.7956 64.2478 44.1021C64.7249 44.4086 65.26 44.6149 65.8204 44.7082C65.8466 44.7175 65.8714 44.7302 65.8942 44.7461L62.3362 44.7366ZM59.9983 21.4038C59.4361 21.4094 58.8985 21.634 58.5014 22.0293C58.1043 22.4246 57.8793 22.959 57.8749 23.5175C57.8676 23.7948 57.9163 24.0708 58.0182 24.3291C58.1201 24.5874 58.2732 24.8228 58.4682 25.0214C58.6633 25.22 58.8964 25.3777 59.1539 25.4853C59.4114 25.5929 59.688 25.6481 59.9674 25.6477C60.2468 25.6505 60.5241 25.5985 60.7833 25.4946C61.0424 25.3908 61.2784 25.2372 61.4777 25.0426C61.6769 24.848 61.8355 24.6162 61.9444 24.3606C62.0533 24.105 62.1103 23.8305 62.1122 23.553C62.1087 22.9926 61.8864 22.4554 61.4921 22.0545C61.0979 21.6536 60.5623 21.4204 59.9983 21.4038Z" fill="#024A99"/>
<path d="M34.9727 18.1115C34.9727 19.5861 35.0347 21.0606 34.9442 22.5352C34.9249 22.8753 34.8566 23.2108 34.7416 23.5317C34.6303 23.845 34.4259 24.1174 34.1553 24.3127C32.2893 25.6855 31.6006 27.553 31.8318 29.8039C31.8822 30.1399 31.8958 30.4804 31.8723 30.8193C31.8168 31.1604 31.8719 31.5101 32.0295 31.8181C32.1871 32.1261 32.4392 32.3764 32.7493 32.533C34.1148 33.2785 34.7702 34.8407 34.4771 36.4738C34.3455 37.233 33.9839 37.9343 33.4406 38.4841C32.8972 39.0338 32.198 39.406 31.4362 39.5508C30.6061 39.7283 29.7405 39.6354 28.9678 39.2858C28.1951 38.9362 27.5564 38.3485 27.1465 37.6099C26.3386 36.133 26.6198 34.1306 27.7947 32.985C28.1263 32.6714 28.52 32.4297 28.9506 32.275C29.4749 32.0714 29.9038 31.7756 30.0587 31.1886C30.1032 30.9546 30.1176 30.716 30.1016 30.4785C30.1016 29.7235 30.0253 28.9708 29.9872 28.2158C29.8895 26.3601 30.6688 24.9021 32.132 23.7897C32.3151 23.6539 32.4894 23.5069 32.6539 23.3494C33.1306 22.895 33.1473 22.308 33.152 21.7186C33.152 20.5092 33.152 19.2973 33.152 18.0855C33.759 18.0617 34.3667 18.0704 34.9727 18.1115ZM32.7207 35.7567C32.7229 35.4787 32.6698 35.203 32.5646 34.9455C32.4594 34.6879 32.3041 34.4534 32.1075 34.2556C31.9109 34.0577 31.677 33.9003 31.4191 33.7923C31.1612 33.6844 30.8843 33.628 30.6045 33.6265C30.0356 33.6265 29.49 33.8509 29.0878 34.2504C28.6856 34.6499 28.4596 35.1917 28.4596 35.7567C28.4596 36.3216 28.6856 36.8635 29.0878 37.263C29.49 37.6624 30.0356 37.8869 30.6045 37.8869C31.1683 37.8794 31.7065 37.6517 32.1026 37.253C32.4987 36.8543 32.7207 36.3167 32.7207 35.7567Z" fill="#024A99"/>
<path d="M54.9604 50.0503C55.1582 50.0148 55.4036 50.1142 55.5013 49.8136C55.5395 49.6929 55.5371 49.6266 55.4442 49.5485C54.5338 48.7627 53.6306 47.9674 52.7726 47.1248C52.4042 46.7793 51.9372 46.5553 51.4357 46.4834C52.7488 46.4834 54.0571 46.4715 55.375 46.4692L67.3171 46.455C68.144 46.455 68.9733 46.4692 69.8027 46.4763C68.9852 46.4928 68.1678 46.5165 67.3504 46.5212C67.2624 46.5185 67.1753 46.5389 67.0978 46.5805C67.0204 46.6221 66.9554 46.6833 66.9095 46.7579C66.8022 46.9094 66.8285 46.9946 66.9643 47.094C67.5982 47.61 68.2536 48.0976 68.8422 48.6609C69.0472 48.8574 69.2426 49.0656 69.4476 49.2621C69.9058 49.6916 70.4809 49.978 71.1015 50.0858H66.7498L67.5029 49.939C67.4719 49.8917 67.46 49.8656 67.4433 49.8467L64.4978 46.8739C64.37 46.7467 64.2169 46.6474 64.0482 46.5826C63.8795 46.5178 63.6989 46.4888 63.5183 46.4976C61.2423 46.4976 58.9665 46.4976 56.6929 46.4834C56.2163 46.4834 55.723 46.5047 55.2368 46.4834C54.9985 46.4834 54.9794 46.6751 54.8889 46.8029C54.7983 46.9307 54.9556 46.9804 55.0176 47.0396C55.835 47.7875 56.662 48.5284 57.4841 49.2739C57.9727 49.7165 58.5065 50.055 59.1952 50.0739C58.2634 50.0739 57.3316 50.0976 56.3974 50.0739C55.9184 50.0905 55.437 50.1591 54.9604 50.0503Z" fill="#024A99"/>
<path d="M54.9604 50.0503C55.437 50.1592 55.9136 50.0905 56.3903 50.1C57.3244 50.1166 58.2563 50.1 59.1881 50.1H71.1039L73.3345 50.1166C73.6262 50.1568 73.9222 50.1568 74.2139 50.1166C75.1195 50.1166 76.0227 50.0976 76.9283 50.0976C80.7413 50.0976 84.5544 50.0976 88.3674 50.1118C89.5896 50.0807 90.7996 50.3602 91.8826 50.9237C93.4245 51.7734 94.2372 53.1273 94.5946 54.7983C94.7158 55.4276 94.7709 56.0677 94.7591 56.7084C94.7734 63.4382 94.7734 70.1673 94.7591 76.8956C94.78 78.0355 94.5302 79.1642 94.0298 80.1903C93.1981 81.8471 91.7706 82.6684 90.0237 83.0519C89.4276 83.1706 88.8204 83.2245 88.2125 83.2128H42.842C41.6879 83.2508 40.5397 83.035 39.4794 82.5809C37.8946 81.8471 36.9723 80.5761 36.5409 78.9216C36.3521 78.1254 36.2656 77.3087 36.2835 76.4908C36.2835 69.8635 36.2835 63.2362 36.2835 56.6089C36.2489 55.3937 36.5123 54.1882 37.051 53.0965C37.8898 51.4917 39.272 50.6325 41.0141 50.2751C41.6091 50.159 42.2143 50.1027 42.8206 50.1071C46.4811 50.1071 50.1392 50.1071 53.7997 50.1071C54.1875 50.1332 54.577 50.1141 54.9604 50.0503ZM78.1342 81.3998C78.7228 81.414 79.3257 81.4377 79.9024 81.44C82.4381 81.44 84.9715 81.4637 87.5047 81.44C88.237 81.4554 88.9695 81.4222 89.6972 81.3406C90.1636 81.2741 90.6121 81.1167 91.017 80.8775C91.4219 80.6382 91.7752 80.3218 92.0565 79.9465C92.7238 79.0944 92.9478 78.0719 92.955 77.0116C92.9788 73.5299 92.9336 70.0482 92.9789 66.5641C92.9931 65.4777 92.9598 64.3889 92.9598 63.3025C92.9598 61.0934 92.9598 58.8843 92.9598 56.6752C92.9722 55.9488 92.8726 55.2249 92.6643 54.5285C92.4992 53.9893 92.208 53.4965 91.8146 53.0905C91.4211 52.6845 90.9364 52.3767 90.4003 52.1923C89.6904 51.9456 88.9402 51.8332 88.1887 51.861C82.5573 51.861 76.9259 51.8184 71.2969 51.8894C71.2206 51.8894 71.1468 51.8681 71.0586 51.8681H61.9382C61.862 51.8681 61.7881 51.8823 61.7142 51.8894H57.4865L56.3235 51.8728C56.1996 51.8728 56.0852 51.8468 55.9541 51.8468C51.6104 51.8468 47.2659 51.8468 42.9206 51.8468C42.3726 51.8423 41.8256 51.8939 41.2882 52.0006C40.006 52.2704 39.0504 52.9474 38.507 54.1616C38.2091 54.8733 38.0661 55.6396 38.0876 56.4101C38.0876 62.9128 38.0876 69.4146 38.0876 75.9157C38.0702 76.4896 38.0837 77.064 38.1281 77.6364C38.1825 78.2208 38.3441 78.7903 38.6047 79.3169C39.3197 80.7229 40.5923 81.2814 42.0889 81.4187C42.5799 81.4661 43.0803 81.4353 43.576 81.4353C54.4623 81.3998 65.3509 81.5063 76.2396 81.3808C76.8699 81.4312 77.503 81.4375 78.1342 81.3998Z" fill="#E33E5D"/>
<path d="M74.2115 50.1071C73.9198 50.1473 73.6239 50.1473 73.3322 50.1071H74.2115Z" fill="#024A99"/>
<path d="M23.1548 13.0155C23.8698 13.0155 24.823 13.0274 25.7763 13.0463C25.9466 13.0519 26.114 13.0918 26.2684 13.1634C26.4228 13.2349 26.561 13.3368 26.6747 13.4629L27.0775 13.8534C26.9512 13.9788 26.8129 14.0901 26.6985 14.2345C26.5492 14.4132 26.3597 14.5547 26.1453 14.6476C25.931 14.7405 25.6976 14.7822 25.4641 14.7694C23.7792 14.7694 22.0943 14.7694 20.4094 14.7694C20.1662 14.7833 19.9227 14.7462 19.6949 14.6606C19.467 14.5749 19.2598 14.4427 19.0868 14.2723C18.9862 14.1773 18.9142 14.0564 18.8788 13.923C18.8435 13.7897 18.8461 13.6492 18.8866 13.5173C18.9255 13.3991 18.9988 13.2949 19.0972 13.2178C19.1955 13.1408 19.3146 13.0943 19.4395 13.0842C19.6441 13.0424 19.8526 13.0218 20.0615 13.0226C21.0171 13.0132 21.9609 13.0155 23.1548 13.0155Z" fill="#024A99"/>
<path d="M55.1224 5.61425C54.2851 5.62846 53.447 5.62057 52.6081 5.59059C52.4524 5.5774 52.3012 5.53207 52.1641 5.45748C52.0271 5.38289 51.9072 5.2807 51.8122 5.15744C51.4643 4.79531 51.4976 4.81424 51.774 4.40714C52.11 3.91719 52.5891 3.80595 53.1182 3.82252C54.6219 3.86512 56.1257 3.77045 57.6271 3.85802C58.1633 3.89116 58.4111 4.3172 58.7567 4.61306C58.7641 4.61881 58.7701 4.62618 58.7743 4.63458C58.7784 4.64299 58.7805 4.65222 58.7805 4.66158C58.7805 4.67094 58.7784 4.68017 58.7743 4.68858C58.7701 4.69699 58.7641 4.70435 58.7567 4.7101L58.6805 4.79531C57.8702 5.74207 58.1514 5.53851 56.9503 5.60715C56.3426 5.64266 55.7325 5.61425 55.1224 5.61425Z" fill="#024A99"/>
<path d="M22.9569 67.8185C22.4803 67.8185 21.987 67.8185 21.5032 67.8185C21.2719 67.8317 21.0411 67.786 20.8326 67.6858C20.624 67.5855 20.4448 67.4341 20.3117 67.2457C20.0733 66.9049 20.0614 66.931 20.3117 66.583C20.4159 66.4281 20.558 66.3021 20.7247 66.2168C20.8915 66.1315 21.0774 66.0897 21.2649 66.0954C22.5042 66.0552 23.7386 66.0552 24.9754 66.1167C25.1789 66.1382 25.3715 66.2182 25.5299 66.3468C25.6882 66.4755 25.8053 66.6472 25.8667 66.841C25.8815 66.9149 25.8793 66.9911 25.8603 67.0641C25.8414 67.137 25.8061 67.2048 25.7571 67.2623C25.4568 67.7073 25.0041 67.8043 24.5107 67.8091H22.9688L22.9569 67.8185Z" fill="#024A99"/>
<path d="M76.2419 81.4046C76.3683 81.0423 76.3915 80.6524 76.3086 80.2779C76.0703 78.8744 76.218 77.5465 77.0402 76.3418C77.364 75.857 77.7666 75.429 78.2318 75.0755C78.7828 74.6562 79.2877 74.1801 79.738 73.6554C80.1669 73.1654 80.7222 72.8199 81.1893 72.3749C82.5954 71.0257 83.0816 69.376 82.8003 67.4872C82.6935 66.5565 82.6855 65.6172 82.7765 64.6848C82.8171 64.3654 82.756 64.0414 82.6017 63.7582C82.4474 63.4751 82.2077 63.247 81.9162 63.1061C80.36 62.2185 79.7093 60.6043 80.1359 58.8244C80.5268 57.1889 81.9352 56.041 83.725 55.9202C86.1391 55.7593 88.1004 57.7806 87.824 60.3014C87.6643 61.7665 86.8421 62.7629 85.498 63.3523C84.7092 63.7002 84.5448 64.015 84.5662 64.8718C84.6457 66.7057 84.6322 68.5423 84.5257 70.3749C84.4566 71.2979 83.9371 72.0033 83.3055 72.6518C81.8756 74.1311 80.3886 75.5631 78.9253 77.014C78.6684 77.2393 78.4643 77.5177 78.3272 77.8297C78.1901 78.1417 78.1234 78.4796 78.1317 78.8199C78.1603 79.6791 78.1317 80.5407 78.1317 81.4022C77.5026 81.4468 76.8711 81.4476 76.2419 81.4046ZM83.9228 57.6978C83.5054 57.7034 83.099 57.8315 82.7547 58.0659C82.4104 58.3003 82.1437 58.6306 81.9879 59.0153C81.8322 59.3999 81.7945 59.8217 81.8795 60.2276C81.9646 60.6335 82.1686 61.0053 82.4659 61.2964C82.7632 61.5874 83.1405 61.7846 83.5504 61.8631C83.9602 61.9417 84.3844 61.8981 84.7694 61.7378C85.1543 61.5776 85.483 61.3079 85.714 60.9625C85.945 60.6172 86.0681 60.2118 86.0676 59.7972C86.0553 59.239 85.8243 58.7075 85.4239 58.3155C85.0235 57.9235 84.485 57.702 83.9228 57.6978Z" fill="#024A99"/>
<path d="M57.496 51.9107C57.5981 51.936 57.7029 51.9487 57.8082 51.9486C58.1227 51.9131 58.1561 52.0669 58.1704 52.3391C58.3253 55.2007 58.4993 58.0599 58.6685 60.9191C58.7066 61.5598 58.7495 62.2012 58.7972 62.8434C58.8353 63.3168 59.1809 63.5866 59.5598 63.7902C60.2027 64.1271 60.7594 64.6055 61.1875 65.189C62.8342 67.5559 61.3949 70.7867 58.4969 71.2364C57.74 71.349 56.9663 71.2391 56.2715 70.9203C55.5767 70.6014 54.9911 70.0874 54.5869 69.4419C54.1827 68.7963 53.9776 68.0474 53.997 67.2874C54.0163 66.5275 54.2592 65.7898 54.6958 65.1653C55.0664 64.6326 55.5742 64.2084 56.1662 63.9369C56.7739 63.66 57.0122 63.2268 56.9717 62.557C56.7667 59.3783 56.5856 56.1972 56.3974 53.0161C56.3735 52.6397 56.3545 52.261 56.333 51.8823L57.496 51.9107ZM57.9726 65.2931C57.4106 65.288 56.8691 65.502 56.4644 65.8894C56.0598 66.2767 55.8243 66.8062 55.8087 67.3642C55.8203 67.9255 56.05 68.4607 56.4497 68.8577C56.8495 69.2548 57.3883 69.4829 57.9536 69.4944C58.5037 69.479 59.0263 69.2519 59.4109 68.861C59.7956 68.47 60.0122 67.9459 60.015 67.3993C60.0178 66.8527 59.8065 66.3265 59.4259 65.9317C59.0452 65.5369 58.5249 65.3045 57.975 65.2837L57.9726 65.2931Z" fill="#024A99"/>
<path d="M71.2945 51.8988C70.5796 51.9367 70.5796 51.9367 70.5796 52.6491C70.5796 55.2716 70.5795 57.8918 70.5629 60.5119C70.5328 60.8363 70.6095 61.1615 70.7813 61.439C70.9532 61.7164 71.211 61.9309 71.5161 62.0504C72.2167 62.3848 72.7961 62.9262 73.1749 63.6003C73.5537 64.2744 73.7135 65.0483 73.6324 65.8161C73.5499 66.631 73.216 67.4008 72.6764 68.0202C72.1368 68.6395 71.4178 69.0783 70.6177 69.2765C69.8229 69.4624 68.9897 69.3987 68.233 69.094C67.4763 68.7894 66.8336 68.2588 66.3936 67.5758C65.9536 66.8927 65.738 66.0908 65.7766 65.2808C65.8152 64.4708 66.1061 63.6927 66.6092 63.054C66.9779 62.5912 67.456 62.2262 68.001 61.9912C68.6134 61.7285 68.8518 61.2693 68.8494 60.6232C68.8494 58.1261 68.8494 55.629 68.8327 53.1296C68.8327 52.8006 68.7684 52.4716 68.7493 52.1426C68.7493 51.9769 68.6611 51.9319 68.511 51.9461C68.4443 51.9497 68.3775 51.9497 68.3108 51.9461L61.7142 51.8964C61.7881 51.8964 61.862 51.8751 61.9382 51.8751H71.0586C71.1444 51.8799 71.223 51.8988 71.2945 51.8988ZM71.8307 65.4777C71.8307 64.9202 71.6078 64.3856 71.2109 63.9915C70.814 63.5973 70.2757 63.3759 69.7144 63.3759C69.1532 63.3759 68.6149 63.5973 68.218 63.9915C67.8212 64.3856 67.5982 64.9202 67.5982 65.4777C67.5982 66.0351 67.8212 66.5697 68.218 66.9639C68.6149 67.358 69.1532 67.5795 69.7144 67.5795C70.2757 67.5795 70.814 67.358 71.2109 66.9639C71.6078 66.5697 71.8307 66.0351 71.8307 65.4777Z" fill="#024A99"/>
</g>
<defs>
<clipPath id="clip0_25_14">
<rect width="103" height="99" fill="white"/>
</clipPath>
</defs>
</svg>
