<svg width="73" height="65" viewBox="0 0 73 65" fill="none" xmlns="http://www.w3.org/2000/svg">
<g clip-path="url(#clip0_325_284)">
<path d="M0.000175395 31.4991C1.11741 26.9264 4.63196 24.6686 8.49798 22.8366C10.6539 21.8149 12.9383 21.0647 15.2828 20.1473C15.1799 19.6672 15.0485 19.0541 14.9185 18.4325C14.237 15.2145 13.7298 11.9721 14.137 8.67688C14.2799 7.38402 14.5763 6.1128 15.0199 4.89008C16.5229 0.930381 20.0075 -0.737238 24.3178 0.334497C27.3023 1.07614 29.8897 2.62086 32.2841 4.47854C33.7285 5.59457 35.0929 6.81206 36.5402 8.02241C37.3388 7.30792 38.1546 6.56056 39.0032 5.84464C41.5206 3.71975 44.2008 1.8435 47.3367 0.740327C49.0826 0.123008 50.8784 -0.218519 52.7257 0.168735C55.4074 0.740327 57.0718 2.48225 58.0319 4.9601C58.9519 7.33221 59.1962 9.81863 58.9348 12.3236C58.6791 14.7729 58.2019 17.1993 57.8204 19.6357C57.7876 19.8415 57.749 20.0458 57.7247 20.1787C59.8449 20.9818 61.9279 21.6992 63.9538 22.558C66.3711 23.584 68.607 24.9344 70.4528 26.8449C71.9144 28.3582 72.9259 30.1001 72.9959 32.2608C73.0716 34.5971 72.0358 36.4805 70.4671 38.1096C68.3241 40.3274 65.6725 41.7449 62.8622 42.8852C61.1964 43.5611 59.4791 44.1127 57.719 44.7429C57.9804 46.0661 58.2905 47.4237 58.5148 48.7969C59.0534 52.0979 59.3148 55.4102 58.4476 58.6983C57.6461 61.7435 55.9974 64.0513 52.7457 64.8029C50.5956 65.3002 48.5425 64.8029 46.561 63.9813C43.0364 62.5323 40.0919 60.2188 37.3217 57.658C37.0616 57.418 36.8073 57.1722 36.5087 56.8892C35.8587 57.4808 35.2401 58.0624 34.6015 58.6197C31.9212 60.959 29.0796 63.0496 25.6893 64.2642C23.9478 64.8872 22.1519 65.2288 20.3032 64.8215C17.6373 64.2342 15.9414 62.5223 14.9771 60.043C14.0441 57.648 13.797 55.1344 14.0641 52.6123C14.3241 50.163 14.8042 47.7366 15.1899 45.3016C15.2185 45.1159 15.2556 44.9301 15.2971 44.6972C14.3156 44.3785 13.3455 44.0841 12.3883 43.7498C9.8938 42.8809 7.48361 41.8292 5.27343 40.3631C2.73038 38.6783 0.701646 36.5906 -0.0126953 33.504L0.000175395 31.4991ZM36.5145 20.6089C34.4657 20.7046 32.4513 20.8161 30.4354 20.8818C30.2252 20.8769 30.0181 20.933 29.8391 21.0433C29.6602 21.1537 29.5169 21.3134 29.4268 21.5034C27.4266 24.9758 25.4212 28.4444 23.4106 31.9092C23.2969 32.0734 23.2349 32.2678 23.2326 32.4674C23.2303 32.6671 23.2878 32.8629 23.3977 33.0296C25.4388 36.5334 27.4699 40.042 29.491 43.5554C29.7053 43.9284 29.9797 44.0456 30.4011 44.0756C34.4531 44.3599 38.5201 44.3599 42.5721 44.0756C43.0235 44.0427 43.3093 43.9198 43.5393 43.5211C45.5461 40.0277 47.5639 36.5391 49.5926 33.0553C49.7013 32.8893 49.761 32.696 49.7651 32.4977C49.7691 32.2993 49.7173 32.1038 49.6155 31.9335C47.8178 28.2943 45.7823 24.7776 43.5222 21.4062C43.4301 21.2451 43.2963 21.1118 43.1349 21.0203C42.9735 20.9288 42.7904 20.8824 42.6049 20.8861C40.5648 20.8132 38.526 20.7075 36.5145 20.6089ZM16.1486 23.181C14.797 23.6383 13.4812 24.0384 12.2054 24.5271C9.45234 25.5974 6.78498 26.8335 4.68768 29.0084C2.50036 31.2748 2.51322 33.6969 4.70625 35.9775C6.02492 37.3479 7.61791 38.3282 9.30376 39.167C11.4863 40.2391 13.7695 41.0926 16.12 41.7149C16.1655 41.6645 16.2061 41.61 16.2414 41.552C17.363 38.6583 18.493 35.7675 19.586 32.8624C19.686 32.5966 19.6289 32.215 19.5203 31.9364C18.7459 29.9744 17.923 28.031 17.1501 26.069C16.7801 25.1502 16.4943 24.1999 16.1486 23.181ZM56.8561 23.2182C56.7603 23.4783 56.6846 23.6969 56.6017 23.9127C55.6402 26.4119 54.7216 28.9284 53.6929 31.3991C53.3629 32.1922 53.2872 32.8281 53.7144 33.5883C54.0654 34.2608 54.3667 34.9581 54.6159 35.6746C55.3802 37.6623 56.126 39.6572 56.8932 41.6863C56.996 41.6737 57.0981 41.6555 57.1989 41.632C60.0792 40.8032 62.8737 39.7643 65.4496 38.2025C66.7968 37.3865 68.0484 36.4462 68.9856 35.1544C70.2714 33.3797 70.3043 31.582 68.9856 29.8315C68.4418 29.1126 67.8069 28.4675 67.0969 27.9124C64.0738 25.5517 60.5235 24.3099 56.8561 23.2239V23.2182ZM18.263 19.3942C21.5176 18.9398 24.6621 18.5083 27.8009 18.0453C28.0367 18.0095 28.2881 17.7781 28.4495 17.5737C29.7768 15.9004 31.0697 14.2013 32.4013 12.5323C33.017 11.762 33.6871 11.0404 34.3714 10.2645C33.8285 9.75719 33.3514 9.26419 32.8213 8.82692C31.6469 7.86522 30.484 6.88351 29.2496 6.00326C27.4466 4.71718 25.5179 3.65116 23.3177 3.18102C20.5404 2.58657 18.5631 3.71689 17.6773 6.41052C17.5615 6.74697 17.4661 7.09006 17.3915 7.43795C16.5986 11.5277 17.3458 15.5003 18.263 19.3942ZM54.7902 45.4874C54.676 45.4816 54.5615 45.4816 54.4473 45.4874C51.3756 45.9604 48.304 46.4277 45.2351 46.925C44.971 46.9962 44.7392 47.1555 44.5779 47.3765C43.8022 48.3668 43.085 49.4057 42.292 50.3845C41.1162 51.8406 39.8962 53.2596 38.6032 54.8058C40.1462 56.0719 41.6506 57.3779 43.2336 58.5854C44.9966 59.9301 46.8924 61.0961 49.0755 61.6063C50.0755 61.8378 51.1656 61.9435 52.1628 61.7806C53.9215 61.4948 54.8116 60.1402 55.3302 58.5483C56.1874 55.9032 56.0446 53.1953 55.6902 50.5003C55.4659 48.8169 55.0916 47.1522 54.7859 45.4874H54.7902ZM38.7361 10.1687C40.7448 12.7409 42.6978 15.2445 44.678 17.7295C44.8394 17.931 45.1951 18.0353 45.4752 18.0739C46.8853 18.2725 48.3054 18.4025 49.7126 18.6183C51.3713 18.8727 53.0186 19.1899 54.7516 19.4985C55.0216 18.1496 55.3231 16.8335 55.5417 15.4974C55.9703 12.7823 56.1803 10.0673 55.6017 7.35222C54.8373 3.73404 52.5314 2.31792 48.9869 3.37965C44.858 4.62001 41.7206 7.38508 38.7361 10.1687ZM18.3059 45.4645C17.5044 48.6283 16.9158 51.7749 17.1087 55.0044C17.169 56.2349 17.3757 57.4538 17.7244 58.6354C18.5488 61.2905 20.5489 62.4037 23.2634 61.7635C27.7738 60.7032 31.0726 57.7195 34.28 54.8101C32.2641 52.2379 30.3083 49.7286 28.3281 47.2365C28.1852 47.0493 27.8609 46.9392 27.6052 46.9035C25.8908 46.6549 24.1678 46.4605 22.4548 46.2005C21.079 45.9961 19.7131 45.7189 18.3016 45.4631L18.3059 45.4645ZM21.449 28.8884L25.8565 21.2605L19.0774 22.4422C19.8874 24.6572 20.6418 26.7092 21.4447 28.8969L21.449 28.8884ZM47.1553 21.2633L51.5628 28.8969C52.3671 26.6963 53.1229 24.6272 53.9258 22.4351L47.1553 21.2633ZM21.439 36.0761L19.0731 42.5394L25.8479 43.6997L21.439 36.0761ZM51.5585 36.0876C50.057 38.6826 48.6426 41.1276 47.1482 43.7083L53.9315 42.5294C53.1229 40.3202 52.3643 38.2668 51.5613 36.089L51.5585 36.0876ZM40.9091 17.668L36.5016 12.3922L32.0927 17.6695L40.9091 17.668ZM40.9091 47.2879H32.0655L36.4945 52.5751L40.9091 47.2879Z" fill="#E33C5C"/>
<path d="M36.4069 39.0068C32.8037 38.9139 29.9335 35.9759 29.9921 32.4335C30.0521 28.8153 33.0395 25.8988 36.5969 25.9845C40.2243 26.0731 43.1345 29.0854 43.0088 32.6235C42.8802 36.2489 39.9329 39.0968 36.4069 39.0068Z" fill="#E33C5C"/>
</g>
<defs>
<clipPath id="clip0_325_284">
<rect width="73" height="65" fill="white"/>
</clipPath>
</defs>
</svg>
