<svg width="133" height="130" viewBox="0 0 133 130" fill="none" xmlns="http://www.w3.org/2000/svg">
<path d="M101.62 72.1987C101.335 75.7843 101.334 75.7249 97.6548 75.8103C95.8977 75.8499 94.0891 75.3649 92.3759 76.1595C92.1247 77.1768 91.4134 78.0309 91.3422 79.1122C90.2707 80.4421 90.5219 81.5326 91.8296 82.5682C92.5152 83.1111 93.0403 83.8554 93.6457 84.5097C91.6782 87.1024 89.5594 89.5914 87.3755 92.0073C86.7186 92.7332 86.2359 92.7698 85.5442 92.0622C84.7966 91.2996 83.7795 90.7704 83.156 89.927C80.9887 87.0094 78.6263 87.1817 75.8915 89.0729C75.0803 89.6357 74.6943 90.0505 74.8169 91.0845C75.0712 93.2197 75.1302 95.3641 75.336 97.4993C75.4223 98.4007 75.1453 98.7408 74.2358 98.8018C70.5717 99.0458 66.9061 99.3066 63.2512 99.6589C62.0919 99.7702 61.6651 99.2898 61.6439 98.271C61.6045 96.3371 61.1641 94.4353 61.2534 92.4892C61.2807 91.8792 61.4986 91.0037 60.8236 90.7246C59.2557 90.0764 57.6197 89.5899 55.9927 89.0958C55.6007 88.9753 55.3676 89.3901 55.1179 89.6799C53.6559 91.3865 52.1667 93.0672 50.7032 94.7708C50.2174 95.3382 49.7255 95.5822 49.0808 95.0225C46.3031 92.6127 43.5249 90.2051 40.7463 87.7994C41.1216 86.3536 42.402 85.6642 43.3267 84.6896C44.4557 83.4909 46.0327 82.469 46.5821 81.0445C47.0361 79.8473 45.4743 78.5006 45.1867 77.0914C44.9521 75.949 44.3619 75.5754 43.2858 75.8484C42.2824 75.824 41.2775 75.8484 40.2786 75.763C38.7152 75.6333 37.114 76.1244 35.5869 75.4686C35.6248 74.883 35.6929 74.2973 35.6944 73.7101C35.6944 70.3304 35.7368 66.9507 35.6717 63.5725C35.6475 62.3021 36.0788 61.84 37.3365 61.9238C38.7667 62.0184 40.212 61.9498 41.6468 61.9513C44.5692 61.9513 44.5647 61.9513 45.6665 59.3082C45.8812 58.7597 46.1341 58.2271 46.4232 57.7145C46.8636 56.9809 46.6729 56.4791 46.0826 55.9102C44.4693 54.353 42.9044 52.7394 41.3471 51.1274C41.0111 50.7812 40.4163 50.4472 41.0444 49.8249C43.5507 47.3603 45.839 44.6714 48.5692 42.4386C49.5242 42.4844 50.0282 43.2546 50.6048 43.828C51.6082 44.8301 52.6238 45.466 54.0267 44.6638C55.1028 45.0832 55.581 46.8097 56.5769 46.6465C58.3022 46.3582 59.9382 45.4691 61.5712 44.7401C61.9662 44.5632 61.7725 43.9531 61.7756 43.5383C61.7877 41.4549 61.8407 39.367 61.7544 37.2852C61.706 36.1139 62.0268 35.6807 63.2497 35.7189C65.6863 35.7936 68.126 35.7189 70.5657 35.6945C71.5282 35.789 72.4907 35.8897 73.4503 35.6624C75.2967 35.4382 75.7749 36.3777 75.5419 38.0508C75.4556 38.6609 75.616 39.3014 75.6645 39.9298C75.2346 40.9852 75.3451 42.065 75.5449 43.1417C75.2195 44.3512 75.6418 45.0329 76.8797 45.3456C77.7521 45.5711 78.5891 45.9181 79.3663 46.3765C80.3289 46.9424 80.9782 46.7121 81.7182 45.9663C83.433 44.2398 85.01 42.3654 86.9426 40.8632C89.1553 41.9064 90.5946 43.8555 92.2866 45.5057C92.7195 45.9282 92.2457 46.1691 92.0293 46.4208C90.7656 47.862 89.5412 49.3414 88.1958 50.7019C87.1848 51.7252 86.646 52.6403 87.7054 53.9733C88.1967 54.6065 88.557 55.3325 88.7648 56.1085C89.0842 57.3027 89.8242 57.5757 90.8927 57.4399C92.0399 61.936 92.0399 61.9391 96.4576 61.9559C97.2008 61.9559 97.9438 61.9193 98.6854 61.8994C101.352 62.4912 101.302 62.4927 101.382 65.3569C101.469 67.637 101.104 69.9339 101.62 72.1987ZM80.8102 58.1171C80.6901 58.0202 80.5801 57.9114 80.4818 57.7922C76.9569 52.4695 72.1472 49.5855 65.6727 49.6617C54.0676 49.7959 46.3959 61.9223 50.9923 72.8118C52.4391 76.2358 54.9787 78.6775 57.6953 81.0079C58.4384 82.0954 59.519 82.7969 60.6344 83.378C68.6738 87.5783 77.585 85.2997 82.5143 77.674C86.3993 71.6817 85.8424 63.4566 80.8102 58.1171Z" fill="#E43C5C"/>
<path d="M73.4656 35.6653C72.5061 35.8925 71.5435 35.7919 70.5795 35.6988C70.5457 35.2721 70.5391 34.8437 70.5598 34.4162C70.7111 32.9932 70.189 32.6241 68.7437 32.7767C65.2098 33.1534 61.6577 33.3532 58.1087 33.5606C57.0901 33.6201 56.7345 33.9144 56.8707 35.011C57.128 37.0776 57.1734 39.17 57.4019 41.2412C57.5245 42.3484 57.3066 43.0164 56.1382 43.3764C55.3709 43.6097 54.487 43.8339 54.033 44.6728C52.63 45.475 51.6115 44.839 50.6111 43.837C50.0345 43.2635 49.5305 42.4933 48.574 42.4491C48.2713 41.229 47.0272 40.9133 46.328 40.0744C45.7938 39.4339 45.3851 39.6703 44.9281 40.2132C42.4127 43.1979 39.8929 46.1781 37.3336 49.1246C36.807 49.7347 36.9008 50.0626 37.4698 50.5308C38.8319 51.6503 40.138 52.8338 41.4805 53.9746C43.51 55.6965 43.5115 55.6888 42.6549 58.1245C42.4597 58.6796 42.1827 59.2363 42.1403 59.8022C42.0465 61.0863 41.3215 61.2892 40.2182 61.3273C38.2008 61.3974 36.1895 61.6735 34.1645 61.7742C33.0975 61.8275 32.76 62.1051 32.8902 63.2993C33.2665 66.7644 33.5288 70.2402 33.6771 73.7267C33.7377 75.142 34.0676 75.8497 35.575 75.4715C37.1036 76.1273 38.7048 75.6362 40.2667 75.7658C41.2656 75.8482 42.2705 75.8268 43.2739 75.8512C43.7279 76.8151 44.0533 77.8736 44.6663 78.7215C45.4003 79.7358 45.1324 80.3794 44.3939 81.1923C42.9954 82.7311 41.7423 84.4073 40.3242 85.9202C39.4343 86.8765 39.74 87.3599 40.7343 87.7946C43.513 90.2013 46.2912 92.609 49.0689 95.0177C49.7136 95.5774 50.2055 95.3334 50.6913 94.766C52.1548 93.0624 53.644 91.3817 55.106 89.6751C55.3557 89.3853 55.5888 88.9705 55.9808 89.091C57.6077 89.5851 59.2437 90.0716 60.8117 90.7198C61.4867 90.9989 61.2657 91.882 61.2415 92.4844C61.1522 94.4305 61.5926 96.3323 61.632 98.2662C61.6532 99.285 62.086 99.7654 63.2393 99.6541C66.8942 99.3018 70.5598 99.044 74.2238 98.797C75.1319 98.736 75.4104 98.3959 75.3241 97.4945C75.1183 95.3593 75.0593 93.2089 74.805 91.0798C74.6824 90.0457 75.0683 89.6309 75.8795 89.0681C78.6037 87.1708 80.9738 87.0046 83.1441 89.9222C83.7676 90.761 84.7847 91.2948 85.5323 92.0574C86.2239 92.762 86.7067 92.7284 87.3636 92.0025C89.5535 89.5866 91.6618 87.1037 93.6323 84.5049C93.9077 84.2624 94.1756 84.0107 94.4586 83.7789C95.5029 82.9248 95.3667 82.2309 94.2861 81.4805C93.2494 80.7652 92.3186 79.905 91.3303 79.1074C91.4014 78.0261 92.1128 77.172 92.364 76.1547C93.994 77.5365 95.6588 78.8786 97.2433 80.3107C98.6206 81.5568 98.6766 82.9507 97.6066 84.4698C95.0836 88.0478 92.2853 91.3985 89.3628 94.6486C87.698 96.5047 86.5357 96.613 84.5667 95.0055C83.4074 94.0599 82.2602 93.0899 81.1842 92.0497C80.4032 91.2872 79.7116 91.0813 78.6552 91.5724C77.5988 92.0635 77.844 92.826 77.8849 93.5886C77.956 94.9292 78.1058 96.2652 78.1875 97.6043C78.3389 100.371 77.1962 101.834 74.4781 101.885C70.4221 101.965 66.3887 102.334 62.3448 102.566C60.1776 102.691 59.1454 101.692 58.9713 99.4467C58.8291 97.6257 58.6777 95.8046 58.5627 93.9836C58.5219 93.3309 58.3402 92.9023 57.6425 92.6888C56.9448 92.4753 56.4545 92.4737 55.9551 93.0899C54.7746 94.5449 53.5441 95.9602 52.3152 97.374C50.9168 98.9785 49.4669 99.1645 47.8672 97.8132C44.4771 94.949 41.1183 92.0477 37.7907 89.1093C36.3499 87.8373 36.3015 86.3838 37.544 84.8389C38.6882 83.4235 39.8838 82.0509 41.0643 80.6661C41.5183 80.1338 41.9527 79.7113 41.538 78.8466C41.1051 77.9437 40.4786 77.9574 39.7219 78.0123C37.9148 78.145 36.1077 78.3174 34.2977 78.3845C32.2908 78.4638 31.2708 77.6509 31.0937 75.6545C30.679 71.1634 30.3259 66.6668 30.0343 62.1646C29.9087 60.2917 30.9878 59.1768 32.9098 59.0091C34.6624 58.8566 36.418 58.7483 38.1736 58.6217C38.9197 58.5683 39.5735 58.5668 39.8974 57.58C40.2107 56.6253 39.7854 56.2074 39.1906 55.7163C37.8376 54.5831 36.4891 53.4454 35.1709 52.271C33.6272 50.8984 33.4789 49.3427 34.8032 47.7627C37.5869 44.4369 40.3973 41.1324 43.2345 37.8493C44.6617 36.1975 46.1207 36.1243 47.8233 37.5442C49.0946 38.6118 50.3402 39.7008 51.5857 40.7943C52.2395 41.3678 52.7889 41.8924 53.809 41.3174C54.7398 40.7897 54.4674 40.0973 54.4144 39.3866C54.2888 37.6723 54.1329 35.9611 54.0118 34.2454C53.8695 32.2429 54.8079 31.0426 56.7829 30.8672C61.1901 30.4869 65.6007 30.1488 70.0149 29.8529C71.9824 29.7203 72.9768 30.5927 73.2522 32.5891C73.3854 33.6201 73.3975 34.6465 73.4656 35.6653Z" fill="#020202"/>
<path d="M101.319 114.808L101.048 115.093C101.03 115.089 101.012 115.089 100.994 115.094C100.976 115.098 100.96 115.106 100.945 115.117C100.931 115.128 100.919 115.142 100.911 115.158C100.902 115.174 100.897 115.192 100.897 115.211C100.843 115.292 100.771 115.36 100.688 115.409L100.591 115.505C90.9441 124.021 79.6508 126.966 67.071 125.571C56.8417 124.435 47.876 120.538 40.4844 113.208C38.9301 111.657 37.5122 109.973 36.2467 108.175C35.0254 106.453 35.1707 104.481 36.5827 103.244C37.9448 102.052 40.0031 102.19 41.462 103.684C46.9241 109.279 53.4879 112.709 61.2201 113.617C72.1033 114.895 81.7076 112.194 89.3701 103.9C89.4523 103.833 89.5428 103.776 89.6395 103.732C89.9649 104.704 91.2165 104.768 91.5601 105.715C90.708 106.598 89.9195 107.557 88.9872 108.35C79.8415 116.173 69.2792 118.198 57.7346 115.918C52.3225 114.851 47.3872 112.644 43.1284 109.055C41.8661 107.987 40.6781 106.831 39.4673 105.7C39.1752 105.428 38.8816 105.172 38.5214 105.514C38.3232 105.701 38.5774 105.889 38.6728 106.066C38.5411 106.676 38.9649 107.022 39.2902 107.452C41.1942 109.988 43.425 112.142 45.8995 114.144C52.9112 119.816 60.984 122.365 69.7983 122.848C77.3655 123.263 84.5226 121.537 91.2604 118.142C95.1697 116.179 98.6726 113.485 101.582 110.202C104.135 107.338 103.123 107.495 106.448 109.319C106.763 109.493 107.071 109.677 107.382 109.856C107.963 110.219 108.493 110.682 109.198 110.806C109.237 110.702 109.257 110.592 109.258 110.481C108.173 105.23 107.071 99.982 105.998 94.7294C105.809 93.8006 105.279 94.0233 104.701 94.2185C102.027 95.1183 99.3528 96.0161 96.6801 96.9119C94.2828 97.7157 91.884 98.5148 89.3505 99.3613C90.9547 100.63 92.736 101.182 94.0951 102.412C92.7387 102.923 91.3277 103.274 89.8908 103.456C89.579 102.585 88.6921 102.445 88.0368 102.056C86.9078 101.387 86.2767 100.461 86.372 99.1737C86.4674 97.8865 87.2453 97.0659 88.4984 96.6511C93.856 94.8774 99.1954 93.0396 104.559 91.2872C106.787 90.5597 108.161 91.4214 108.654 93.7274C109.815 99.1264 110.975 104.527 112.099 109.934C112.704 112.877 111.17 114.366 108.249 113.72C107.341 113.19 106.41 112.694 105.525 112.119C104.78 111.633 104.163 111.662 103.569 112.333C103.161 112.79 102.71 113.214 102.277 113.653L102.036 113.891C101.993 113.898 101.954 113.922 101.927 113.958C101.901 113.993 101.89 114.038 101.897 114.082L101.817 114.176C101.523 114.279 101.385 114.515 101.319 114.808Z" fill="#020202"/>
<path d="M51.8307 25.4806L50.7592 25.6117C48.6737 26.1242 46.4171 26.0525 44.5828 27.4327C40.7523 28.7855 37.1291 30.5257 33.9706 33.1505C24.6311 40.9104 19.5626 50.6896 19.9894 63.0844C20.0503 64.2614 20.2614 65.4255 20.6174 66.548C20.6068 66.8149 20.5372 67.094 20.5962 67.3442C20.8475 68.4224 20.7355 69.7127 22.6681 69.0874C23.9167 68.6848 23.5762 69.9796 23.3825 70.5836C22.0204 74.8997 20.5993 79.196 19.1948 83.4969C17.1259 82.4064 15.0298 81.3617 12.9897 80.2118C10.8709 79.01 8.59009 78.0857 6.65137 76.5652C7.02367 75.4808 8.84132 75.7599 8.78229 74.2698C10.2957 73.768 10.771 72.9475 10.4395 71.1951C9.75847 67.5958 9.90829 63.9187 10.4289 60.2904C13.1804 41.0736 28.9157 25.9289 48.1667 23.928C49.362 24.1474 50.5877 24.1371 51.7792 23.8975C52.5647 23.9798 53.3532 24.05 54.1387 24.1476C54.4732 24.1857 54.7592 24.3138 54.7441 24.7256C54.729 25.1374 54.4535 25.3021 54.1387 25.3357C53.3532 25.4134 52.5617 25.4363 51.7732 25.4882L51.8307 25.4806Z" fill="#004999"/>
<path d="M89.0828 31.1221C87.6223 33.117 85.8062 33.2573 84.1807 31.4271C80.4476 27.2258 76.7371 23.0063 73.0493 18.7684C71.6116 17.1167 71.8295 15.3963 73.6365 14.0954C78.1466 10.8514 82.687 7.65014 87.2046 4.41837C88.2761 3.65579 89.3749 3.25773 90.6159 3.96082C91.8569 4.66391 92.1626 5.79099 92.0098 7.12396C91.9492 7.65776 91.8917 8.19157 91.8584 8.72842C91.8161 9.53979 91.1532 10.6897 92.0098 11.0787C93.1555 11.6033 94.4313 12.8082 96.0552 11.1656C95.8131 12.2423 95.9281 12.7792 96.7241 13.2047C111.592 21.1354 119.274 33.8932 121.218 50.4654C121.131 53.5691 121.286 56.6789 120.821 59.778C119.913 65.7946 118.148 71.4621 114.616 76.4767C112.986 77.6114 111.523 77.6826 110.227 76.6902C108.853 75.6425 108.597 74.0975 109.354 72.037C114.425 58.2162 111.701 45.9403 102.009 35.1195C99.739 32.5938 96.9451 30.7103 93.9167 29.1958C93.9377 29.1674 93.9491 29.1329 93.9491 29.0974C93.9491 29.062 93.9377 29.0275 93.9167 28.9991L93.9001 29.0143C95.7783 29.0021 97.3522 29.9294 98.955 30.724C103.243 32.8592 106.91 35.7204 109.384 39.945C109.384 40.3065 109.478 40.5551 109.908 40.3293L109.879 40.2973C109.511 40.9729 110.135 41.3649 110.366 41.8224C113.749 48.6017 115.288 55.7211 114.478 63.3269C114.103 66.7426 113.255 70.0883 111.957 73.2663C111.792 73.6766 111.603 74.1509 112.057 74.4147C112.538 74.6938 112.814 74.2622 113.038 73.8794C115.347 69.7402 117.293 65.4728 117.681 60.6488C118.472 58.2787 118.516 55.7912 118.445 53.3632C118.206 45.1274 116.043 37.4255 111.557 30.4861C109.778 27.7408 108.076 24.8522 105.09 23.1562C105.199 22.5172 104.726 22.229 104.355 21.8507C103.553 21.0317 102.568 20.443 101.694 19.7155C99.7465 18.1004 97.6701 16.618 95.2274 15.799C93.9773 15.0105 92.6848 14.3226 91.2077 14.0756C90.8293 13.891 90.4676 13.6058 90.0711 13.5402C88.7513 13.3252 88.4063 12.7319 88.659 11.3425C88.9238 9.88599 89.2326 8.36695 89.0601 6.61456C84.5046 9.85854 80.1807 12.9683 75.8159 16.0216C74.8791 16.6774 75.3831 17.1319 75.8386 17.652C77.9514 20.0648 80.0702 22.472 82.1951 24.8735C83.5738 26.4353 84.9632 27.9864 86.466 29.6747L86.8459 27.9971C87.7297 28.9335 88.7982 29.7433 89.0828 31.1221Z" fill="#020202"/>
<path d="M109.379 39.9465C106.905 35.7218 103.238 32.8622 98.9502 30.7255C97.3475 29.9263 95.772 29.0036 93.8954 29.0158L93.7849 28.9243L93.912 29.0005C93.933 29.029 93.9444 29.0635 93.9444 29.0989C93.9444 29.1344 93.933 29.1689 93.912 29.1973C93.1553 28.9899 92.7225 29.1866 92.5893 30.0483C92.3956 31.3111 92.105 32.5587 91.8326 33.9572C90.5855 33.2206 90.2328 31.7626 89.0856 31.122C88.8011 29.7494 87.7371 28.9334 86.8457 27.997C85.635 25.7932 83.9097 23.9599 82.481 21.9132C81.2339 20.1257 81.2369 20.1181 83.0455 19.0154C85.7636 17.3642 88.4838 15.7171 91.206 14.074C92.6831 14.321 93.9756 15.0089 95.2257 15.7974C94.8201 17.1975 95.4784 17.8228 96.7391 18.3078C99.766 19.4669 102.522 21.1522 105.083 23.1516C108.07 24.8476 109.774 27.727 111.55 30.4814C116.036 37.4208 118.198 45.1228 118.437 53.3586C118.508 55.7866 118.465 58.2741 117.673 60.6442C117.33 58.0392 117.012 55.4251 116.26 52.898C114.897 48.3088 113.099 43.9301 109.871 40.2957L109.9 40.3278C109.912 39.9465 109.59 40.0258 109.379 39.9465Z" fill="#004999"/>
<path d="M51.7851 23.8975C50.5936 24.1371 49.3679 24.1474 48.1725 23.928C48.5812 23.8273 49.1139 23.7633 48.9611 23.1791C48.8354 22.7033 48.3254 22.6545 47.8895 22.6636C45.5422 22.7079 43.1979 22.8451 40.8974 23.3393C20.4341 27.7302 6.17446 46.6648 7.51991 67.7209C7.66066 69.9354 7.78931 72.2018 8.78818 74.2699C8.8472 75.7599 7.02955 75.4808 6.65875 76.5652C5.25276 76.4051 4.29173 77.375 2.92055 77.9378C7.95578 80.1783 12.7776 82.2875 17.5601 84.4822C18.7709 85.0358 19.1992 84.7552 19.1946 83.497C20.5991 79.1961 22.0232 74.8997 23.3823 70.5836C23.573 69.9735 23.9166 68.6848 22.668 69.0874C20.7353 69.7127 20.8519 68.4225 20.5961 67.3442C20.5371 67.0941 20.6067 66.815 20.6173 66.5481C21.3604 66.2568 22.105 65.9731 22.8435 65.6726C23.968 65.2151 25.0486 65.2395 25.9794 66.0768C26.9102 66.9141 27.1432 67.9405 26.7634 69.1454C25.0259 74.6664 23.3293 80.2011 21.5647 85.713C20.9593 87.5889 19.4459 88.3637 17.66 87.5935C12.2767 85.2768 6.92966 82.8656 1.58871 80.4604C0.54595 79.9876 -0.0215922 79.0603 -0.000403981 77.8677C0.0207842 76.675 0.604975 75.827 1.64622 75.3054C2.87817 74.6954 4.67311 74.3904 5.19979 73.4082C5.72647 72.426 4.98943 70.7453 4.85019 69.3665C2.42868 45.5362 19.2279 23.6885 42.7241 20.1716C44.4136 19.9369 46.1175 19.8233 47.8229 19.8315C50.591 19.8223 51.7201 21.0379 51.7851 23.8975Z" fill="#020202"/>
<path d="M91.5724 105.729C91.2288 104.776 89.9772 104.712 89.6518 103.746L89.9001 103.47C91.3368 103.288 92.7477 102.937 94.1044 102.427C97.7064 101.559 101.311 100.711 104.904 99.8068C105.743 99.5963 106.215 99.697 106.322 100.655C106.666 103.729 107.035 106.801 107.394 109.874C107.091 109.696 106.775 109.511 106.46 109.337C103.131 107.507 104.148 107.355 101.594 110.22C98.6849 113.503 95.182 116.198 91.2727 118.16C84.5349 121.555 77.3748 123.282 69.8106 122.867C60.9963 122.383 52.9236 119.835 45.9118 114.163C43.4373 112.16 41.2065 110.007 39.3026 107.471C38.9772 107.041 38.5458 106.708 38.6851 106.083C39.3661 106.254 39.6719 106.873 40.0805 107.339C42.84 110.471 46.1403 113.072 49.821 115.017C57.2202 118.97 65.1295 120.28 73.3642 118.931C80.9314 117.692 87.5724 114.543 92.535 108.387C93.6322 107.01 93.552 106.734 91.5724 105.729Z" fill="#004999"/>
<path d="M75.5601 43.1447C75.3604 42.0649 75.2498 40.9882 75.6797 39.9328C76.9752 38.4381 78.2813 36.9511 79.5647 35.4458C81.3733 33.3259 82.7641 33.2023 84.8481 35.0051C87.8003 37.5581 90.7531 40.1112 93.7063 42.6643C95.8872 44.5479 96.0052 45.2845 94.5463 47.8498C94.4892 48.0003 94.455 48.1587 94.4449 48.3195C92.8225 49.3322 91.9099 51.0099 90.6885 52.3978C90.401 52.7242 90.5523 53.0841 90.6643 53.4654C91.0941 54.9051 92.1944 54.4506 93.1585 54.3988C94.743 54.2722 96.3246 54.1166 97.9122 54.0266C99.8479 53.9153 101.074 54.9417 101.231 56.8786C101.582 61.1872 101.893 65.4987 102.206 69.8118C102.268 70.6644 102.312 71.5322 101.62 72.2063C101.104 69.9399 101.469 67.6431 101.405 65.363C101.325 62.4988 101.375 62.4973 98.7083 61.9055C98.6159 60.5329 98.4873 59.1602 98.4449 57.7785C98.4207 56.9839 98.1119 56.8283 97.3688 56.9061C95.2228 57.1303 93.0677 57.2721 90.9155 57.446C89.8561 57.5817 89.0994 57.3087 88.7876 56.1145C88.5797 55.3386 88.2195 54.6125 87.7282 53.9793C86.6688 52.6464 87.2076 51.7313 88.2186 50.7079C89.564 49.3475 90.7914 47.8681 92.0521 46.4268C92.2686 46.1798 92.7423 45.9388 92.3094 45.5118C90.6174 43.8616 89.1781 41.9124 86.9654 40.8692C85.9787 39.3776 84.3684 38.5571 83.1697 37.2973C82.5068 36.6019 82.1027 36.8276 81.567 37.491C80.1322 39.2678 78.59 40.9546 77.1644 42.7375C76.6634 43.3521 76.2185 43.5016 75.5601 43.1447Z" fill="#020202"/>
<path d="M114.62 76.4781C118.151 71.4634 119.917 65.8021 120.825 59.7793C121.29 56.6802 121.128 53.5705 121.222 50.4668C122.862 60.5495 121.356 70.0084 115.755 78.6606C115.407 79.1974 115.085 79.751 114.741 80.2894C114.523 80.6295 114.217 80.8995 113.815 80.6829C113.361 80.4297 113.417 80.0408 113.612 79.5772C114.031 78.5752 114.898 77.7119 114.62 76.4781Z" fill="#004999"/>
<path d="M93.1579 54.3927C92.1939 54.4445 91.0936 54.899 90.6638 53.4593C90.5518 53.0856 90.4004 52.7257 90.688 52.3917C91.9093 51.0038 92.822 49.3262 94.4444 48.3135C94.7107 48.466 95.0089 48.5895 95.2359 48.7908C96.7766 50.1528 96.7493 50.2916 95.3585 51.7557C94.5715 52.5884 93.5348 53.2138 93.1579 54.3927Z" fill="#E43C5C"/>
<path d="M108.217 18.8323C107.059 18.8003 105.271 17.0022 105.303 15.8598C105.339 14.626 106.083 14.0083 107.233 13.9626C108.31 13.9214 110.179 15.8827 110.184 16.9442C110.187 17.9752 109.264 18.8567 108.217 18.8323Z" fill="#004999"/>
<path d="M42.4562 118.792C42.4139 119.788 41.7555 120.408 40.681 120.506C39.499 120.614 37.5027 118.691 37.5845 117.55C37.6738 116.374 38.3412 115.697 39.5519 115.708C40.7627 115.719 42.4774 117.465 42.4562 118.792Z" fill="#004999"/>
<path d="M115.106 21.9866C115.061 23.0542 114.349 23.6643 113.196 23.7253C112.162 23.7848 110.283 21.7533 110.366 20.6613C110.454 19.5144 111.061 18.7533 112.287 18.7442C113.447 18.7365 115.089 20.5606 115.106 21.9866Z" fill="#004999"/>
<path d="M114.854 26.06C114.984 24.8826 115.61 24.1963 116.81 24.1796C117.87 24.1628 119.494 26.1043 119.444 27.3747C119.395 28.5796 118.654 29.2262 117.507 29.2842C116.432 29.3376 114.858 27.3534 114.854 26.06Z" fill="#004999"/>
<path d="M43.2959 121.56C43.3595 120.492 43.9966 119.809 45.1816 119.763C46.406 119.716 48.3735 121.392 48.3493 122.454C48.3236 123.561 47.6834 124.256 46.6103 124.4C45.4314 124.557 43.3262 122.78 43.2959 121.56Z" fill="#004999"/>
<path d="M59.4185 130C57.6372 129.956 56.0435 128.809 56.1934 127.589C56.3326 126.456 56.9834 125.742 58.2138 125.777C59.9815 125.829 61.5177 126.973 61.4602 128.182C61.4117 129.207 60.487 130.027 59.4185 130Z" fill="#004999"/>
<path d="M54.55 125.722C54.4894 126.695 53.937 127.423 52.7066 127.456C51.2855 127.494 49.4285 126.084 49.4375 124.946C49.4466 123.75 50.1473 123.047 51.3021 122.971C52.6082 122.884 54.5091 124.439 54.55 125.722Z" fill="#004999"/>
<path d="M37.0698 113.664C36.9305 114.732 36.3569 115.459 35.128 115.441C33.9854 115.426 32.2525 113.576 32.31 112.404C32.3645 111.203 33.0168 110.548 34.2396 110.574C35.3989 110.591 37.097 112.411 37.0698 113.664Z" fill="#004999"/>
<path d="M120.323 30.5852C121.652 30.5974 123.083 32.3666 123.032 33.8154C122.99 34.9883 122.345 35.7127 121.139 35.7417C120.005 35.7707 118.558 33.9558 118.601 32.4977C118.634 31.3203 119.31 30.6554 120.323 30.5852Z" fill="#004999"/>
<path d="M100.872 9.61288C102.613 9.59916 104.47 11.1258 104.458 12.259C104.445 13.4578 103.81 14.1517 102.605 14.199C101.358 14.2493 99.3738 12.625 99.4268 11.5437C99.4919 10.4151 100.062 9.64339 100.872 9.61288Z" fill="#004999"/>
<path d="M102.287 113.658C102.72 113.219 103.171 112.798 103.58 112.337C104.185 111.663 104.79 111.637 105.535 112.124C106.414 112.699 107.351 113.191 108.259 113.725C107.975 114.66 108.542 115.613 108.165 116.669C106.69 116.034 105.493 114.991 104.179 114.14C103.571 113.752 103.026 113.386 102.287 113.658Z" fill="#004999"/>
<path d="M17.8705 94.4399C18.5107 94.4399 20.6643 96.6376 20.6734 97.2919C20.6895 97.482 20.6462 97.6724 20.5496 97.8365C20.453 98.0005 20.3079 98.1301 20.1346 98.207C19.7668 98.3869 19.4036 98.4022 19.0979 98.1002C18.4138 97.4246 17.7267 96.7505 17.0759 96.0428C16.9419 95.9073 16.8578 95.7296 16.8377 95.5393C16.8176 95.349 16.8627 95.1575 16.9655 94.9965C17.0466 94.8254 17.1753 94.6817 17.336 94.5828C17.4966 94.484 17.6824 94.4343 17.8705 94.4399Z" fill="#E43C5C"/>
<path d="M17.7373 106.222C17.0925 106.078 16.5734 105.653 16.9639 104.901C17.5043 103.912 18.3037 103.091 19.2749 102.528C20.0316 102.07 20.6158 102.543 20.6703 103.434C20.7112 104.095 18.4743 106.247 17.7373 106.222Z" fill="#E43C5C"/>
<path d="M27.6187 106.229C26.9482 106.196 24.7946 104.128 24.7719 103.507C24.7386 102.581 25.2986 102.134 26.0901 102.5C27.1117 102.972 27.879 103.891 28.4617 104.82C28.9097 105.534 28.4254 106.138 27.6187 106.229Z" fill="#E43C5C"/>
<path d="M28.5927 95.4723C28.57 96.0595 26.3724 98.3015 25.7852 98.3259C25.5994 98.3352 25.4148 98.2902 25.2537 98.1964C25.0926 98.1025 24.9618 97.9637 24.8772 97.7966C24.7608 97.6156 24.7098 97.3996 24.733 97.1852C24.7562 96.9707 24.852 96.7708 25.0043 96.6192C25.6233 95.968 26.2514 95.3229 26.9021 94.7037C27.0543 94.5517 27.2525 94.4552 27.4652 94.4295C27.6779 94.4038 27.8931 94.4504 28.0766 94.5618C28.2448 94.642 28.3846 94.7723 28.4769 94.9352C28.5692 95.098 28.6096 95.2855 28.5927 95.4723Z" fill="#E43C5C"/>
<path d="M73.1398 2.66447C72.4088 2.20693 71.6157 1.64568 71.366 0.663486C71.2782 0.321854 71.7096 -0.131113 72.1031 0.0534291C72.9748 0.459117 73.7467 1.0768 73.9933 2.06509C74.0917 2.45553 73.7149 2.72395 73.1398 2.66447Z" fill="#E43C5C"/>
<path d="M14.4442 26.7876C14.0811 27.6849 13.3951 28.411 12.5236 28.8206C12.4247 28.8635 12.316 28.8782 12.2094 28.863C12.1027 28.8479 12.0023 28.8035 11.919 28.7347C11.8357 28.6659 11.7728 28.5754 11.7372 28.473C11.7016 28.3706 11.6945 28.2602 11.7169 28.1541C12.009 27.2161 12.7491 26.5634 13.633 26.1714C14.0249 26.025 14.2701 26.42 14.4442 26.7876Z" fill="#E43C5C"/>
<path d="M74.0389 6.40544C73.6639 7.24424 72.9952 7.9143 72.1607 8.28747C71.6976 8.49336 71.2315 8.00989 71.3722 7.60268C71.5332 7.15702 71.789 6.7522 72.1215 6.41657C72.454 6.08094 72.8553 5.8226 73.2973 5.65964C73.6454 5.52238 73.9738 5.85791 74.0389 6.40544Z" fill="#E43C5C"/>
<path d="M103.83 124.874C103.464 125.706 102.808 126.375 101.986 126.751C101.553 126.96 101.096 126.599 101.23 126.076C101.472 125.103 102.21 124.488 103.094 124.134C103.42 124.002 103.798 124.267 103.83 124.874Z" fill="#E43C5C"/>
<path d="M125.508 66.1621C125.018 66.0767 124.6 65.7961 124.764 65.4285C125.156 64.5455 125.772 63.7631 126.749 63.4931C126.843 63.4692 126.941 63.4712 127.034 63.499C127.127 63.5268 127.211 63.5794 127.276 63.6511C127.342 63.7228 127.387 63.811 127.407 63.9064C127.427 64.0018 127.421 64.1009 127.389 64.1931C127.056 65.1311 126.309 65.7229 125.508 66.1621Z" fill="#E43C5C"/>
<path d="M12.5478 31.7871C13.2727 32.2797 14.0748 32.8166 14.3639 33.7698C14.4774 34.1404 14.1384 34.4546 13.701 34.4835C13.2122 34.5171 11.611 32.9111 11.6851 32.4368C11.7547 32.0296 12.0256 31.7963 12.5478 31.7871Z" fill="#E43C5C"/>
<path d="M109.411 119.167C109.067 120.049 108.393 120.761 107.535 121.15C107.162 121.319 106.825 121.055 106.739 120.62C106.646 120.163 108.117 118.525 108.644 118.485C109.121 118.433 109.266 118.754 109.411 119.167Z" fill="#E43C5C"/>
<path d="M132.174 57.8091C132.605 57.9021 132.952 58.0074 132.999 58.4771C133.049 58.9758 131.556 60.5604 131.031 60.5391C130.6 60.5223 130.282 60.2554 130.379 59.839C130.615 58.8385 131.468 58.3581 132.174 57.8091Z" fill="#E43C5C"/>
<path d="M8.79423 27.9969C8.77607 28.5383 8.5309 28.9531 8.14649 28.8418C7.1915 28.5627 6.53921 27.8321 6.17901 26.9186C6.14792 26.8272 6.14118 26.7291 6.15948 26.6342C6.17778 26.5394 6.22048 26.451 6.2833 26.378C6.34611 26.3049 6.42686 26.2498 6.51745 26.2181C6.60804 26.1864 6.7053 26.1792 6.79952 26.1972C7.80596 26.4305 8.30236 27.2816 8.79423 27.9969Z" fill="#E43C5C"/>
<path d="M78.734 0C79.3046 0.0381285 79.6527 0.326379 79.5407 0.713765C79.2622 1.67765 78.5569 2.33957 77.6337 2.6629C77.5418 2.69045 77.4443 2.69313 77.351 2.67066C77.2577 2.6482 77.1719 2.60137 77.1023 2.53491C77.0327 2.46844 76.9816 2.38466 76.9543 2.29201C76.927 2.19936 76.9243 2.1011 76.9466 2.00709C77.216 1.0249 78.0802 0.5399 78.734 0Z" fill="#E43C5C"/>
<path d="M127.462 59.7307C127.444 60.2462 127.135 60.6213 126.795 60.5298C125.84 60.2721 125.204 59.5156 124.796 58.6661C124.587 58.233 125.068 57.7388 125.486 57.8685C126.422 58.1567 126.973 58.9681 127.462 59.7307Z" fill="#E43C5C"/>
<path d="M8.81989 32.5175C8.49904 33.3685 7.79529 34.0061 6.97501 34.4453C6.8775 34.4934 6.76827 34.5122 6.66044 34.4994C6.5526 34.4866 6.45073 34.4427 6.36702 34.373C6.28332 34.3033 6.22135 34.2107 6.18852 34.1064C6.1557 34.0021 6.15342 33.8905 6.18196 33.7849C6.43622 32.8287 7.15057 32.1835 8.05561 31.8327C8.47332 31.668 8.73816 31.973 8.81989 32.5175Z" fill="#E43C5C"/>
<path d="M109.382 125.949C109.364 126.482 109.119 126.883 108.721 126.755C108.268 126.605 107.856 126.354 107.515 126.02C107.174 125.685 106.913 125.277 106.753 124.825C106.721 124.733 106.715 124.634 106.735 124.539C106.756 124.444 106.801 124.356 106.868 124.286C106.934 124.215 107.019 124.164 107.112 124.138C107.205 124.113 107.303 124.113 107.396 124.14C108.377 124.397 108.917 125.187 109.382 125.949Z" fill="#E43C5C"/>
<path d="M132.981 65.2334C132.963 65.9761 132.609 66.2583 132.247 66.1103C131.339 65.7397 130.616 65.0809 130.36 64.1002C130.255 63.6945 130.649 63.3574 131.082 63.5039C132.04 63.8287 132.547 64.6355 132.981 65.2334Z" fill="#E43C5C"/>
<path d="M77.6861 5.62622C78.4701 6.08376 79.239 6.65112 79.5326 7.6089C79.6582 8.01764 79.301 8.43553 78.8939 8.29369C78.4433 8.139 78.0336 7.88276 77.6961 7.54447C77.3586 7.20618 77.102 6.79476 76.9461 6.34151C76.7917 5.92362 77.1852 5.69943 77.6861 5.62622Z" fill="#E43C5C"/>
<path d="M101.855 118.414C102.692 118.906 103.451 119.481 103.798 120.419C103.949 120.836 103.545 121.261 103.193 121.156C102.245 120.877 101.581 120.163 101.225 119.245C101.063 118.83 101.438 118.587 101.855 118.414Z" fill="#E43C5C"/>
<path d="M44.583 27.4328C46.4173 26.0602 48.6693 26.1243 50.7594 25.6118C50.2963 26.3622 49.5244 26.5696 48.751 26.7175C47.3662 26.9829 45.9724 27.198 44.583 27.4328Z" fill="#3E3837"/>
<path d="M101.318 114.808C101.385 114.515 101.523 114.279 101.827 114.181C101.739 114.459 101.71 114.788 101.318 114.808Z" fill="#004999"/>
<path d="M51.8302 25.479H51.7803L51.803 25.6163L51.8302 25.479Z" fill="#3E3837"/>
<path d="M101.907 114.087C101.901 114.043 101.912 113.998 101.938 113.962C101.964 113.927 102.003 113.903 102.046 113.896C102.051 113.94 102.04 113.984 102.014 114.019C101.988 114.054 101.95 114.078 101.907 114.087Z" fill="#004999"/>
<path d="M100.896 115.215C100.897 115.197 100.902 115.179 100.911 115.163C100.919 115.147 100.931 115.133 100.945 115.122C100.96 115.11 100.976 115.102 100.994 115.098C101.012 115.094 101.03 115.094 101.048 115.098C101.093 115.263 101.037 115.295 100.896 115.215Z" fill="#004999"/>
<path d="M100.591 115.51L100.688 115.414L100.706 115.534L100.591 115.51Z" fill="#004999"/>
<path d="M57.7026 81.0079C54.986 78.6775 52.4464 76.2357 50.9996 72.8118C46.3957 61.9222 54.0673 49.7958 65.68 49.6616C72.1545 49.5854 76.9642 52.4694 80.489 57.7922C80.5873 57.9113 80.6974 58.0202 80.8174 58.117C81.3169 58.6798 81.0399 59.421 81.2942 60.0829C83.7444 66.4489 82.7879 72.3298 78.2219 77.3582C73.7027 82.3363 68.0334 83.7882 61.5195 82.1807C60.2089 81.8589 59.0511 81.1268 57.7026 81.0079ZM66.1128 79.9555C73.6013 79.9555 79.7686 73.7528 79.758 66.2292C79.7474 58.8689 73.6422 52.5182 66.5911 52.535C59.888 52.5502 52.516 59.7993 52.5281 66.3741C52.5387 73.8306 58.6712 79.954 66.1128 79.9555Z" fill="#020202"/>
<path d="M109.379 39.9465C109.589 40.0258 109.912 39.9465 109.903 40.3309C109.473 40.5551 109.385 40.308 109.379 39.9465Z" fill="#FDFDFD"/>
<path d="M93.9123 29.0006L93.7852 28.9243L93.8956 29.0158L93.9123 29.0006Z" fill="#3E3837"/>
</svg>
