<svg width="26" height="43" viewBox="0 0 26 43" fill="none" xmlns="http://www.w3.org/2000/svg">
<g clip-path="url(#clip0_27_84)">
<path d="M22.8951 43C23.1922 42.9223 23.4845 42.8275 23.7705 42.7162C25.0354 42.1474 25.7854 41.185 25.9582 39.7997C25.9849 39.5636 25.997 39.3261 25.9943 39.0885C25.9943 27.3591 25.9962 15.6296 26 3.90017C26 2.31967 25.407 1.08578 23.9489 0.381336C23.4683 0.149614 22.9425 0.0248182 22.4083 0.0156541C16.1361 -0.00827587 9.86352 -0.0120122 3.59054 0.00443969C2.69965 0.0045232 1.84101 0.335606 1.18348 0.932594C0.525942 1.52958 0.117069 2.34928 0.0372581 3.2305C0.0149498 3.45416 0.00403976 3.67879 0.00452805 3.90353C0.00452805 15.6322 0.00452805 27.3613 0.00452805 39.0908C0.00452805 40.337 0.343353 41.4385 1.37793 42.1878C1.88393 42.5558 2.52885 42.7352 3.11052 42.9988L22.8951 43ZM18.7625 1.47052C18.8139 1.45573 18.8664 1.44486 18.9195 1.438C20.0049 1.438 21.0891 1.43239 22.1745 1.438C23.6575 1.438 24.5464 2.31069 24.5464 3.78576C24.5464 15.6012 24.5464 27.4125 24.5464 39.2198C24.5464 40.6982 23.6575 41.5754 22.1745 41.5754C16.0574 41.5754 9.94068 41.5754 3.82432 41.5754C3.64119 41.5805 3.45797 41.5704 3.27655 41.5451C2.09853 41.3409 1.44458 40.4694 1.44458 39.1065C1.44458 27.3793 1.44458 15.6517 1.44458 3.92373C1.44285 3.71385 1.45415 3.50406 1.47844 3.29556C1.52757 2.87539 1.70565 2.48038 1.98851 2.16414C2.27138 1.84789 2.64534 1.62571 3.05968 1.52773C3.41895 1.46138 3.78433 1.43318 4.14961 1.4436C5.16047 1.43351 6.17134 1.4436 7.23076 1.4436C7.23076 1.72067 7.23076 1.95511 7.23076 2.18955C7.26465 3.3853 8.15576 4.29277 9.35411 4.2995C11.7915 4.31371 14.2296 4.31371 16.6684 4.2995C17.2179 4.29431 17.7435 4.07624 18.1334 3.69175C18.5233 3.30726 18.7466 2.78676 18.7557 2.24115C18.7704 1.98203 18.7625 1.73301 18.7625 1.47052ZM8.67644 1.46379H17.3235C17.3235 1.60401 17.3235 1.71506 17.3235 1.82611C17.3235 2.66628 17.1315 2.8637 16.2878 2.86482H12.991C11.822 2.86482 10.653 2.86482 9.48967 2.86482C8.94866 2.86482 8.69904 2.60122 8.68322 2.06392C8.67193 1.86874 8.67644 1.6758 8.67644 1.46492V1.46379Z" fill="#F95069"/>
<path d="M3.61877 18.6586C3.64249 19.0848 3.94178 19.2733 4.33935 19.3877C6.17584 19.916 8.01007 20.4522 9.84656 20.9839L21.1467 24.2526C21.8244 24.4478 22.2288 24.3031 22.3586 23.823C22.4772 23.3855 22.2141 23.0669 21.5782 22.8818L4.77081 18.0136C4.10782 17.8218 3.62329 18.082 3.61877 18.6586Z" fill="#F95069"/>
<path d="M13.7386 10.5409C13.7386 11.3945 13.7025 12.2504 13.7477 13.1018C13.8222 14.5297 14.9088 15.601 16.3782 15.7602C17.6793 15.9016 18.985 15.0154 19.3667 13.7142C19.4463 13.4463 19.4892 13.169 19.4943 12.8898C19.5068 11.2655 19.5169 9.63678 19.4842 8.01926C19.4756 7.87879 19.4387 7.74146 19.3756 7.61544C19.3126 7.48941 19.2247 7.37726 19.1171 7.28566C18.6529 6.94914 18.0678 7.3294 18.0633 7.95084C18.052 9.43487 18.0633 10.9178 18.0633 12.4018C18.0633 12.5835 18.0712 12.7664 18.0633 12.947C18.0046 13.7546 17.3698 14.3547 16.595 14.339C16.4071 14.338 16.2212 14.3001 16.0481 14.2274C15.8749 14.1548 15.718 14.0488 15.5862 13.9157C15.4545 13.7826 15.3505 13.6249 15.2804 13.4517C15.2103 13.2785 15.1753 13.0932 15.1776 12.9066C15.1595 11.4371 15.1708 9.96656 15.1708 8.49711C15.1708 8.32998 15.1708 8.1606 15.1708 7.99346C15.1504 7.49205 14.8726 7.17685 14.4525 7.17236C14.0323 7.16787 13.7364 7.48083 13.7307 7.98224C13.7194 8.83587 13.7307 9.6895 13.7307 10.5431L13.7386 10.5409Z" fill="#F95069"/>
<path d="M13.7409 29.9117C13.7409 30.7654 13.7037 31.6201 13.7488 32.4715C13.7908 33.1415 14.0722 33.7747 14.5425 34.2569C15.0127 34.7392 15.6409 35.0388 16.3138 35.1019C16.9933 35.1701 17.6752 34.9968 18.2381 34.6127C18.801 34.2286 19.2085 33.6587 19.3882 33.0043C19.4588 32.7483 19.4968 32.4845 19.5011 32.2191C19.5117 30.6106 19.5117 29.0028 19.5011 27.3957C19.5006 27.1999 19.4513 27.0072 19.3577 26.8348C19.1905 26.5466 18.8946 26.4692 18.584 26.5544C18.4303 26.5886 18.2939 26.6762 18.1994 26.8015C18.105 26.9267 18.0587 27.0814 18.069 27.2375C18.069 28.0631 18.069 28.8887 18.069 29.7143C18.069 30.5399 18.0758 31.3374 18.069 32.1484C18.0588 33.0458 17.4478 33.6796 16.621 33.6796C15.7943 33.6796 15.1911 33.0604 15.1855 32.1484C15.1765 30.6375 15.1855 29.1254 15.1855 27.6144C15.1902 27.4745 15.1865 27.3344 15.1742 27.1949C15.1211 26.7754 14.8354 26.5219 14.4446 26.5297C14.3524 26.5277 14.2608 26.5444 14.1754 26.5787C14.0899 26.613 14.0124 26.6643 13.9476 26.7294C13.8828 26.7945 13.832 26.8721 13.7984 26.9573C13.7648 27.0426 13.7491 27.1337 13.7522 27.2252C13.733 28.1226 13.7522 29.02 13.7522 29.9117H13.7409Z" fill="#F95069"/>
<path d="M9.39139 10.0709L8.68096 8.89867C8.42006 8.46793 8.16594 8.0327 7.89713 7.60533C7.62832 7.17795 7.21946 7.07363 6.85578 7.29461C6.49209 7.51559 6.42545 7.91043 6.65134 8.32211C6.74509 8.49373 6.85127 8.65862 6.95292 8.82688C7.40471 9.5818 7.85648 10.3434 8.32859 11.0871C8.50027 11.3552 8.52058 11.5527 8.33987 11.8353C7.77514 12.7204 7.23866 13.6234 6.70781 14.5275C6.59677 14.7028 6.5355 14.9048 6.53048 15.1119C6.53334 15.2613 6.58937 15.4048 6.68859 15.5171C6.78782 15.6294 6.92386 15.7032 7.07262 15.7255C7.22432 15.7658 7.38535 15.7536 7.52909 15.6907C7.67284 15.6279 7.79071 15.5183 7.86324 15.38C8.28792 14.689 8.7047 13.9913 9.12599 13.2981C9.20392 13.1679 9.28862 13.0423 9.39592 12.874C9.90982 13.7209 10.3966 14.5207 10.8789 15.3228C11.0607 15.6245 11.3069 15.8118 11.6695 15.749C12.2037 15.6593 12.424 15.1175 12.1213 14.6071C11.5656 13.6671 11.0031 12.7305 10.4271 11.8028C10.2724 11.5549 10.2667 11.3788 10.4271 11.1298C11.0088 10.2055 11.5645 9.26547 12.1213 8.32547C12.3031 8.02148 12.3257 7.71413 12.0852 7.42809C11.9956 7.30786 11.8662 7.22275 11.7198 7.18768C11.5734 7.15261 11.4193 7.16982 11.2844 7.23628C11.102 7.33673 10.9506 7.48444 10.8461 7.66366C10.3684 8.44213 9.90417 9.22397 9.39139 10.0709Z" fill="#F95069"/>
<path d="M10.1357 33.682V27.9612C10.5694 27.9612 10.9873 27.9612 11.4052 27.9612C11.9462 27.9533 12.2625 27.6875 12.267 27.2467C12.2715 26.8058 11.9598 26.5332 11.4188 26.531C10.0634 26.531 8.71034 26.531 7.35951 26.531C6.8298 26.531 6.49547 26.8204 6.50338 27.2489C6.51129 27.6774 6.84786 27.9522 7.37758 27.9612C7.77175 27.9679 8.16822 27.969 8.56127 27.9758C8.58499 27.9758 8.60868 27.9982 8.65386 28.0206V33.6865C8.23484 33.6865 7.81922 33.6865 7.40245 33.6865C6.84563 33.6865 6.49889 33.9736 6.49889 34.4122C6.49889 34.8508 6.83771 35.1155 7.41373 35.1166C8.73895 35.1166 10.0638 35.1166 11.3883 35.1166C11.9406 35.1166 12.2501 34.8654 12.2614 34.4245C12.2726 33.9635 11.953 33.6921 11.386 33.6865C10.9851 33.6786 10.5785 33.682 10.1357 33.682Z" fill="#F95069"/>
<path d="M13.009 38.7061C11.3612 38.7061 9.71442 38.7061 8.06655 38.7061C7.66898 38.7061 7.37307 38.8407 7.259 39.2333C7.1325 39.6662 7.43067 40.0768 7.90165 40.1306C8.09862 40.1443 8.29619 40.1473 8.49348 40.1396H17.7008C17.8273 40.1441 17.954 40.1419 18.0803 40.1329C18.5095 40.088 18.7817 39.7795 18.7579 39.3746C18.7376 38.9876 18.4632 38.7173 18.0328 38.7139C16.8356 38.7027 15.6395 38.7083 14.4423 38.7083L13.009 38.7061Z" fill="#F95069"/>
</g>
<defs>
<clipPath id="clip0_27_84">
<rect width="26" height="43" fill="white" transform="matrix(-1 0 0 1 26 0)"/>
</clipPath>
</defs>
</svg>
