<svg width="442" height="510" viewBox="0 0 442 510" fill="none" xmlns="http://www.w3.org/2000/svg">
<g clip-path="url(#clip0_119_88)">
<path opacity="0.77" d="M276.088 163.081H262.415V176.077H276.088V163.081Z" fill="url(#paint0_linear_119_88)"/>
<path opacity="0.77" d="M345.758 469.231H325.252V488.723H345.758V469.231Z" fill="url(#paint1_linear_119_88)"/>
<path d="M107.702 483.079H88.86V500.988H107.702V483.079Z" fill="url(#paint2_linear_119_88)"/>
<path d="M34.3806 127.505H20.7073V140.501H34.3806V127.505Z" fill="url(#paint3_linear_119_88)"/>
<path opacity="0.77" d="M31.3718 322.387H17.6985V335.384H31.3718V322.387Z" fill="url(#paint4_linear_119_88)"/>
<path d="M327.144 151.781H317.576V160.876H327.144V151.781Z" fill="url(#paint5_linear_119_88)"/>
<path d="M398.941 351.011H389.373V360.106H398.941V351.011Z" fill="url(#paint6_linear_119_88)"/>
<path d="M193.58 59.3069H184.012V68.4012H193.58V59.3069Z" fill="url(#paint7_linear_119_88)"/>
<path opacity="0.27" d="M206.177 334.323H426.561V203.183L206.177 203.183L206.177 334.323Z" fill="#A6F3F4"/>
<path d="M415.803 324.002H189.474V188.826H415.803V324.002ZM190.872 322.68H414.413V190.154H190.872V322.68Z" fill="#5B4F78"/>
<path d="M195.412 319.229H409.879V199.236L195.412 199.236L195.412 319.229Z" fill="#004999"/>
<g style="mix-blend-mode:multiply" opacity="0.29">
<path d="M275.553 199.23H195.405V319.229H335.428C313.145 280.315 293.156 240.253 275.553 199.23Z" fill="#1B0A43"/>
</g>
<path d="M261.612 230.218C261.893 230.218 262.04 230.11 262.04 229.9C262.04 229.105 262.04 228.661 262.04 228.572C262.03 228.27 262.142 227.976 262.354 227.752C262.457 227.649 262.582 227.567 262.72 227.513C262.858 227.458 263.007 227.431 263.157 227.434H263.351C263.404 227.441 263.456 227.456 263.504 227.479C263.532 227.493 263.557 227.513 263.576 227.537C263.596 227.561 263.61 227.589 263.618 227.618C263.634 227.707 263.634 227.797 263.618 227.885C263.634 227.971 263.634 228.06 263.618 228.146C263.61 228.176 263.596 228.205 263.577 228.23C263.557 228.255 263.533 228.276 263.504 228.292C263.458 228.315 263.409 228.332 263.357 228.343C263.293 228.351 263.228 228.351 263.163 228.343C263.07 228.343 263.023 228.432 263.023 228.597V229.703C263.025 229.883 262.991 230.062 262.923 230.23C262.879 230.354 262.81 230.468 262.722 230.567L262.622 230.663L262.662 230.694C262.698 230.725 262.732 230.759 262.762 230.796C262.81 230.855 262.85 230.919 262.883 230.987C262.925 231.083 262.957 231.183 262.976 231.285C263.009 231.421 263.025 231.559 263.023 231.698C263.023 232.124 263.023 232.436 263.023 232.645V232.804C263.021 232.848 263.035 232.89 263.063 232.925C263.063 232.925 263.103 232.969 263.117 232.969H263.177H263.371C263.422 232.98 263.471 232.997 263.518 233.02C263.547 233.033 263.573 233.051 263.594 233.074C263.615 233.097 263.63 233.124 263.638 233.154C263.654 233.242 263.654 233.332 263.638 233.421C263.651 233.509 263.651 233.599 263.638 233.688C263.629 233.717 263.613 233.745 263.593 233.769C263.572 233.793 263.547 233.813 263.518 233.827C263.472 233.853 263.422 233.87 263.371 233.878H263.183C263.032 233.882 262.882 233.854 262.744 233.797C262.605 233.74 262.481 233.655 262.381 233.548C262.163 233.321 262.048 233.022 262.06 232.715V232.309C262.06 232.194 262.06 232.086 262.06 231.984C262.06 231.705 262.06 231.514 262.06 231.412C262.06 231.203 261.92 231.101 261.652 231.101H261.605H261.498C261.461 231.092 261.427 231.074 261.398 231.05C261.354 231.014 261.323 230.965 261.311 230.91C261.267 230.735 261.267 230.552 261.311 230.377C261.323 230.322 261.354 230.273 261.398 230.237C261.429 230.215 261.463 230.198 261.498 230.186L261.612 230.218Z" fill="#EC89CA"/>
<path d="M260.709 304.301C260.676 304.377 260.649 304.428 260.629 304.466C260.6 304.504 260.564 304.536 260.522 304.561C260.475 304.598 260.416 304.616 260.355 304.612C260.111 304.583 259.879 304.491 259.686 304.345C259.661 304.323 259.641 304.297 259.628 304.267C259.614 304.238 259.607 304.206 259.606 304.174C259.619 304.065 259.645 303.958 259.686 303.856L261.886 299.483C261.886 299.426 261.94 299.388 261.953 299.363C261.971 299.328 261.993 299.296 262.02 299.267C262.046 299.234 262.081 299.208 262.12 299.191C262.162 299.184 262.205 299.184 262.247 299.191C262.381 299.203 262.51 299.239 262.628 299.299C262.876 299.413 262.996 299.534 262.996 299.668C262.98 299.779 262.949 299.888 262.903 299.992L260.709 304.301Z" fill="#EC89CA"/>
<path d="M266.099 302.006H266.206C266.242 302.014 266.276 302.029 266.306 302.051C266.352 302.089 266.385 302.14 266.399 302.197C266.411 302.286 266.411 302.375 266.399 302.464C266.406 302.573 266.385 302.682 266.339 302.782C266.299 302.858 266.259 302.902 266.219 302.915C266.168 302.922 266.116 302.922 266.065 302.915H266.025C265.751 302.915 265.617 303.023 265.617 303.233C265.617 303.334 265.617 303.525 265.617 303.798V304.123C265.617 304.237 265.617 304.332 265.617 304.409V304.529C265.63 304.838 265.515 305.14 265.296 305.368C265.194 305.473 265.07 305.556 264.932 305.612C264.793 305.668 264.644 305.695 264.494 305.692C264.432 305.7 264.369 305.7 264.307 305.692C264.255 305.685 264.206 305.67 264.16 305.648C264.103 305.617 264.06 305.567 264.039 305.508C264.015 305.419 264.004 305.327 264.006 305.235C264.004 305.147 264.015 305.059 264.039 304.974C264.049 304.944 264.064 304.917 264.085 304.893C264.105 304.869 264.131 304.849 264.16 304.834C264.205 304.81 264.255 304.793 264.307 304.783H264.541C264.541 304.783 264.541 304.784 264.601 304.739C264.628 304.704 264.64 304.661 264.634 304.618V303.512C264.625 303.296 264.661 303.08 264.741 302.877C264.781 302.75 264.849 302.633 264.942 302.534L265.049 302.457C265.005 302.423 264.965 302.384 264.929 302.343C264.851 302.247 264.791 302.139 264.748 302.025C264.672 301.859 264.633 301.679 264.634 301.498V300.392C264.648 300.333 264.648 300.273 264.634 300.214C264.627 300.186 264.611 300.162 264.588 300.144H264.514H264.32C264.268 300.132 264.219 300.113 264.173 300.087C264.118 300.055 264.078 300.005 264.059 299.947C264.036 299.86 264.025 299.77 264.026 299.68C264.024 299.592 264.035 299.505 264.059 299.42C264.068 299.39 264.082 299.363 264.101 299.339C264.121 299.315 264.145 299.295 264.173 299.28C264.219 299.256 264.269 299.238 264.32 299.229H264.521C264.67 299.225 264.818 299.251 264.955 299.305C265.092 299.36 265.216 299.443 265.316 299.547C265.425 299.656 265.509 299.785 265.564 299.926C265.619 300.067 265.644 300.217 265.637 300.367V301.688C265.637 301.905 265.778 302.006 266.065 302.006H266.099Z" fill="#EC89CA"/>
<path d="M356.216 229.048H270.264V232.442H356.216V229.048Z" fill="#F77796"/>
<path d="M255.354 229.048H232.46V232.442H255.354V229.048Z" fill="#2FE3E6"/>
<path d="M356.216 262.254H270.264V265.648H356.216V262.254Z" fill="#FFF05F"/>
<path d="M255.354 262.254H232.46V265.648H255.354V262.254Z" fill="#2FE3E6"/>
<path d="M356.216 273.516H284.406V276.91H356.216V273.516Z" fill="#E43C5C"/>
<path d="M356.216 284.777H284.406V288.171H356.216V284.777Z" fill="#F77796"/>
<path d="M205.007 98.0037H57.3077C55.4613 98.0037 53.9646 99.4263 53.9646 101.181V374.843C53.9646 376.598 55.4613 378.021 57.3077 378.021H205.007C206.853 378.021 208.35 376.598 208.35 374.843V101.181C208.35 99.4263 206.853 98.0037 205.007 98.0037Z" fill="#1B0A43"/>
<path d="M202.232 105.229H60.7444C60.0059 105.229 59.4072 105.799 59.4072 106.501V361.396C59.4072 362.098 60.0059 362.667 60.7444 362.667H202.232C202.97 362.667 203.569 362.098 203.569 361.396V106.501C203.569 105.799 202.97 105.229 202.232 105.229Z" fill="url(#paint8_linear_119_88)"/>
<path d="M166.447 146.138H125.42V152.195H166.447V146.138Z" fill="#FEFEFE"/>
<path d="M188.799 159.967H125.42V162.236H188.799V159.967Z" fill="#FEFEFE"/>
<path d="M188.799 168.75H125.42V171.019H188.799V168.75Z" fill="#FEFEFE"/>
<path d="M180.702 177.539H125.42V179.808H180.702V177.539Z" fill="#FEFEFE"/>
<path d="M188.799 196.236H74.1771V197.088H188.799V196.236Z" fill="#FEFEFE"/>
<path opacity="0.57" d="M116.461 143.024H74.859V182.566H116.461V143.024Z" fill="url(#paint9_linear_119_88)"/>
<path style="mix-blend-mode:multiply" opacity="0.39" d="M126.403 105.236H62.1418C61.4166 105.236 60.721 105.51 60.2081 105.997C59.6953 106.485 59.4072 107.146 59.4072 107.835V360.074C59.4072 360.763 59.6953 361.424 60.2081 361.912C60.721 362.399 61.4166 362.673 62.1418 362.673H194.904C170.289 277.297 147.456 191.485 126.403 105.236Z" fill="url(#paint10_linear_119_88)"/>
<g style="mix-blend-mode:soft-light">
<path d="M149.731 114.299H178.556C181.197 114.299 181.197 110.403 178.556 110.403H149.731C147.09 110.403 147.057 114.299 149.731 114.299Z" fill="#BCA2E6"/>
</g>
<g style="mix-blend-mode:soft-light">
<path d="M186.419 114.267L186.519 114.311C188.164 114.947 193.038 115.353 192.911 112.64C192.851 111.369 191.574 110.835 190.417 110.689C188.826 110.498 184.988 109.774 184.908 112.201C184.941 112.643 185.098 113.068 185.364 113.432C185.63 113.795 185.995 114.084 186.419 114.267Z" fill="#BCA2E6"/>
</g>
<g style="mix-blend-mode:soft-light">
<path d="M191.534 224.543C192.287 236.473 192.421 248.413 191.935 260.361C191.835 262.871 195.947 262.871 196.04 260.361C196.531 248.426 196.395 236.486 195.632 224.543C195.472 222.051 191.373 222.032 191.534 224.543Z" fill="#BCA2E6"/>
</g>
<g style="mix-blend-mode:soft-light">
<path d="M191.554 269.957C191.708 271.813 191.266 273.573 191.293 275.391C191.293 276.363 191.668 277.361 192.757 277.596C193.847 277.831 195.077 277.31 195.278 276.236C195.653 274.266 196.174 271.584 195.599 269.62C195.521 269.321 195.38 269.04 195.186 268.794C194.992 268.547 194.748 268.34 194.469 268.184C193.239 267.574 191.44 268.622 191.554 269.957Z" fill="#BCA2E6"/>
</g>
<path d="M413.229 17.7817H257.6C254.265 17.7817 251.066 19.0412 248.707 21.283C246.349 23.5249 245.024 26.5655 245.024 29.7359V130.466C245.024 131.21 245.245 131.939 245.662 132.569C246.079 133.198 246.675 133.703 247.381 134.025C248.087 134.346 248.875 134.472 249.652 134.386C250.43 134.301 251.166 134.008 251.777 133.542L275.212 115.652H413.229C416.565 115.652 419.765 114.393 422.125 112.151C424.484 109.91 425.811 106.869 425.813 103.698V29.755C425.814 28.1832 425.49 26.6266 424.859 25.174C424.227 23.7214 423.3 22.4014 422.132 21.2894C420.963 20.1774 419.575 19.2953 418.048 18.6934C416.52 18.0915 414.883 17.7817 413.229 17.7817Z" fill="url(#paint11_linear_119_88)"/>
<path d="M400.532 1.43628H244.897C243.245 1.43628 241.61 1.74548 240.084 2.34624C238.558 2.94699 237.171 3.82753 236.003 4.93758C234.836 6.04762 233.909 7.36544 233.277 8.81579C232.645 10.2661 232.32 11.8206 232.32 13.3904V114.121C232.32 114.865 232.541 115.594 232.958 116.223C233.376 116.853 233.972 117.358 234.678 117.679C235.384 118.001 236.171 118.126 236.948 118.041C237.726 117.955 238.463 117.663 239.073 117.197L262.508 99.3067H400.532C403.868 99.305 407.067 98.0441 409.426 95.8013C411.784 93.5584 413.109 90.5172 413.109 87.3461V13.3904C413.109 10.22 411.784 7.17942 409.425 4.93758C407.066 2.69573 403.868 1.43628 400.532 1.43628Z" fill="#FEFEFE"/>
<path d="M236.485 119.51C234.983 119.505 233.544 118.935 232.482 117.926C231.42 116.916 230.821 115.548 230.815 114.121V13.3905C230.817 9.83954 232.301 6.43426 234.94 3.92159C237.58 1.40892 241.161 -0.0059641 244.897 -0.0126953H400.532C404.269 -0.00764544 407.851 1.40649 410.492 3.91934C413.134 6.43219 414.618 9.83844 414.62 13.3905V87.3525C414.613 90.9012 413.126 94.3026 410.485 96.8113C407.845 99.32 404.266 100.732 400.532 100.737H263.036L240.016 118.315C239.017 119.085 237.771 119.507 236.485 119.51ZM244.897 2.87257C241.963 2.87594 239.15 3.98515 237.076 5.95691C235.001 7.92867 233.834 10.602 233.831 13.3905V114.121C233.843 114.59 233.991 115.046 234.259 115.44C234.527 115.834 234.904 116.149 235.349 116.352C235.794 116.555 236.29 116.636 236.78 116.588C237.271 116.54 237.738 116.363 238.13 116.078L261.532 98.1882C261.805 97.9696 262.151 97.8522 262.508 97.8577H400.532C403.466 97.8577 406.28 96.7517 408.357 94.7823C410.434 92.813 411.604 90.141 411.611 87.3525V13.3905C411.609 10.6015 410.443 7.92717 408.368 5.95505C406.293 3.98293 403.48 2.87426 400.545 2.87257H244.897Z" fill="#E43C5C"/>
<path d="M385.441 31.6235H260.068V37.8707H385.441V31.6235Z" fill="#E43C5C"/>
<path d="M385.441 57.7561H260.068V64.0033H385.441V57.7561Z" fill="#E43C5C"/>
<path d="M34.414 193.186H2.82827V196.579H34.414V193.186Z" fill="#004999"/>
<path d="M34.414 204.791H2.82827V208.184H34.414V204.791Z" fill="#004999"/>
<path d="M34.414 216.376H2.82827V219.77H34.414V216.376Z" fill="#004999"/>
<path opacity="0.77" d="M77.8812 42.5672C83.433 42.566 88.7873 44.5252 92.9052 48.0645V41.8554C92.9052 34.6769 95.9054 27.7923 101.246 22.7163C106.586 17.6403 113.829 14.7886 121.382 14.7886C128.934 14.7886 136.177 17.6403 141.518 22.7163C146.858 27.7923 149.858 34.6769 149.858 41.8554V67.2446H55.3754V63.9589C55.3754 58.2855 57.7465 52.8444 61.9672 48.8327C66.1878 44.821 71.9123 42.5672 77.8812 42.5672Z" fill="url(#paint12_linear_119_88)"/>
<path opacity="0.77" d="M160.015 76.8471H64.1611V72.9132C64.1558 68.7745 65.3781 64.7182 67.6877 61.2096C69.9974 57.7011 73.3008 54.8824 77.2189 53.0771C81.1371 51.2717 85.5114 50.5527 89.8399 51.0026C94.1684 51.4525 98.2758 53.0531 101.691 55.6207V50.8288C101.807 43.5502 104.93 36.607 110.387 31.4987C115.843 26.3904 123.194 23.5271 130.853 23.5271C138.512 23.5271 145.863 26.3904 151.319 31.4987C156.776 36.607 159.899 43.5502 160.015 50.8288V76.8471ZM65.5317 75.5443H158.644V50.8288C158.531 43.894 155.553 37.2796 150.354 32.4135C145.154 27.5474 138.15 24.8199 130.853 24.8199C123.556 24.8199 116.552 27.5474 111.352 32.4135C106.153 37.2796 103.175 43.894 103.062 50.8288V58.4551L101.918 57.4828C98.7868 54.7977 94.903 53.034 90.7378 52.4057C86.5726 51.7773 82.305 52.3114 78.4529 53.9429C74.6007 55.5745 71.3294 58.2335 69.0359 61.5975C66.7423 64.9614 65.5251 68.8856 65.5317 72.8942V75.5443Z" fill="url(#paint13_linear_119_88)"/>
<path opacity="0.77" d="M421.948 158.753C417.007 158.755 412.242 160.498 408.576 163.647V158.118C408.63 154.919 408.014 151.741 406.764 148.771C405.514 145.8 403.655 143.096 401.294 140.816C398.933 138.535 396.119 136.724 393.014 135.488C389.91 134.251 386.577 133.615 383.211 133.615C379.845 133.615 376.513 134.251 373.408 135.488C370.304 136.724 367.489 138.535 365.129 140.816C362.768 143.096 360.908 145.8 359.658 148.771C358.408 151.741 357.792 154.919 357.847 158.118V180.736H441.993V177.812C441.992 172.759 439.879 167.913 436.121 164.34C432.362 160.766 427.264 158.757 421.948 158.753Z" fill="url(#paint14_linear_119_88)"/>
<path opacity="0.77" d="M436.751 185.928H351.555V162.821C351.555 156.296 354.282 150.039 359.136 145.425C363.99 140.811 370.573 138.219 377.438 138.219C384.302 138.219 390.885 140.811 395.739 145.425C400.593 150.039 403.32 156.296 403.32 162.821V167.269C406.341 164.954 409.99 163.5 413.845 163.075C417.699 162.65 421.601 163.272 425.1 164.868C428.598 166.464 431.549 168.969 433.611 172.094C435.673 175.218 436.762 178.833 436.751 182.522V185.928ZM352.592 184.924H435.722V182.49C435.728 178.902 434.639 175.389 432.587 172.377C430.534 169.366 427.606 166.985 424.158 165.524C420.71 164.064 416.89 163.586 413.161 164.148C409.433 164.71 405.956 166.289 403.153 168.693L402.29 169.43V162.821C402.345 159.686 401.742 156.573 400.517 153.662C399.293 150.752 397.471 148.102 395.158 145.867C392.845 143.632 390.088 141.858 387.046 140.646C384.004 139.435 380.739 138.811 377.441 138.811C374.143 138.811 370.878 139.435 367.836 140.646C364.795 141.858 362.037 143.632 359.724 145.867C357.411 148.102 355.589 150.752 354.365 153.662C353.14 156.573 352.538 159.686 352.592 162.821V184.924Z" fill="url(#paint15_linear_119_88)"/>
<g style="mix-blend-mode:multiply" opacity="0.24">
<path d="M271.066 381.021L269.582 345.158C269.128 341.8 267.556 338.667 265.097 336.217C262.637 333.766 259.419 332.127 255.91 331.539C252.401 330.95 248.787 331.442 245.593 332.943C242.4 334.444 239.794 336.876 238.157 339.883C237.213 336.073 234.936 332.681 231.698 330.262C228.461 327.843 224.455 326.541 220.337 326.569C216.219 326.597 212.233 327.954 209.032 330.416C205.832 332.879 203.606 336.302 202.72 340.125C201.181 337.274 198.839 334.885 195.954 333.227C193.069 331.569 189.756 330.706 186.385 330.735C183.014 330.764 179.718 331.684 176.865 333.392C174.012 335.099 171.715 337.527 170.231 340.405L163.365 289.893C162.744 285.342 160.247 281.212 156.422 278.412C152.598 275.611 147.76 274.369 142.972 274.959C138.184 275.549 133.839 277.922 130.892 281.557C127.945 285.192 126.638 289.791 127.259 294.342L138.626 377.792L271.066 381.021Z" fill="#2FE3E6"/>
</g>
<path style="mix-blend-mode:multiply" d="M106.458 253.56H6.83332C5.02101 253.56 3.28293 254.245 2.00143 255.463C0.719935 256.681 -4.35793e-06 258.333 -4.35793e-06 260.055V300.252C-0.000882957 301.106 0.175217 301.951 0.518231 302.74C0.861244 303.528 1.36444 304.245 1.99907 304.849C2.63369 305.453 3.38728 305.932 4.21678 306.258C5.04627 306.585 5.9354 306.753 6.83332 306.753H96.8902L109.627 316.477C109.959 316.73 110.359 316.889 110.781 316.935C111.203 316.981 111.63 316.913 112.013 316.738C112.396 316.563 112.72 316.289 112.946 315.947C113.172 315.605 113.292 315.209 113.291 314.806V260.043C113.288 258.322 112.566 256.673 111.285 255.458C110.004 254.243 108.268 253.56 106.458 253.56Z" fill="url(#paint16_linear_119_88)"/>
<path d="M114.622 243.093H14.9972C13.1849 243.093 11.4468 243.778 10.1653 244.996C8.88382 246.214 8.16389 247.866 8.16389 249.588V289.785C8.16566 291.507 8.88616 293.158 10.1673 294.376C11.4484 295.594 13.1854 296.278 14.9972 296.28H105.054L117.791 306.004C118.123 306.258 118.523 306.419 118.946 306.466C119.369 306.513 119.798 306.445 120.182 306.27C120.567 306.095 120.891 305.82 121.117 305.477C121.344 305.134 121.463 304.737 121.462 304.332V249.588C121.462 248.735 121.285 247.89 120.941 247.101C120.597 246.313 120.094 245.597 119.458 244.993C118.823 244.39 118.069 243.912 117.239 243.586C116.409 243.26 115.52 243.092 114.622 243.093Z" fill="#FEFEFE"/>
<path d="M119.195 307.262C118.499 307.263 117.822 307.039 117.276 306.626L104.767 297.094H14.9972C13.9895 297.092 12.9921 296.901 12.0618 296.533C11.1316 296.165 10.2869 295.626 9.57587 294.947C8.86489 294.269 8.3016 293.463 7.91821 292.577C7.53482 291.692 7.33884 290.743 7.34147 289.785V249.588C7.34501 247.659 8.15273 245.81 9.58769 244.447C11.0227 243.083 12.9679 242.315 14.9972 242.312H114.622C116.652 242.313 118.598 243.08 120.034 244.445C121.469 245.809 122.276 247.659 122.278 249.588V304.338C122.274 305.114 121.948 305.856 121.371 306.404C120.793 306.952 120.011 307.26 119.195 307.262ZM14.9972 243.869C13.4012 243.869 11.8706 244.471 10.7421 245.544C9.6136 246.616 8.97961 248.071 8.97961 249.588V289.785C8.97961 291.302 9.6136 292.757 10.7421 293.829C11.8706 294.902 13.4012 295.505 14.9972 295.505H105.054C105.24 295.504 105.421 295.562 105.569 295.67L118.306 305.4C118.517 305.56 118.771 305.66 119.04 305.689C119.308 305.718 119.579 305.675 119.823 305.564C120.066 305.453 120.272 305.279 120.416 305.063C120.561 304.846 120.638 304.595 120.64 304.338V249.588C120.64 248.071 120.006 246.616 118.877 245.544C117.749 244.471 116.218 243.869 114.622 243.869H14.9972Z" fill="#522D82"/>
<path d="M79.7734 259.471C79.7629 259.324 79.7993 259.177 79.8781 259.05C79.9569 258.923 80.0742 258.821 80.2147 258.759C82.7154 257.354 84.2733 256.471 84.8951 256.122C84.9928 256.062 85.0957 256.011 85.2027 255.969C85.2915 255.942 85.3837 255.927 85.4768 255.925C85.5936 255.927 85.7055 255.97 85.791 256.045C85.9116 256.161 86.0151 256.291 86.0986 256.433C86.1865 256.562 86.252 256.704 86.2925 256.852C86.319 256.96 86.3023 257.073 86.2457 257.17C86.1982 257.251 86.1372 257.324 86.0652 257.386L85.7843 257.577C83.6136 258.797 82.4836 259.433 82.3944 259.483L85.7843 261.39L86.0852 261.574C86.155 261.636 86.2158 261.707 86.2658 261.784C86.2943 261.832 86.3126 261.885 86.3195 261.939C86.3264 261.994 86.3218 262.049 86.3059 262.102C86.2636 262.256 86.1935 262.402 86.0986 262.534C86.0137 262.673 85.9079 262.799 85.7843 262.909C85.6981 262.984 85.5867 263.026 85.4701 263.03C85.3764 263.033 85.283 263.018 85.196 262.985L84.8951 262.833L80.2147 260.195C80.0743 260.129 79.9575 260.025 79.879 259.896C79.8005 259.767 79.7638 259.619 79.7734 259.471Z" fill="#1B0A43"/>
<path d="M89.7092 263.15C89.649 263.265 89.6022 263.354 89.5688 263.405C89.5284 263.47 89.4736 263.526 89.4083 263.57C89.3294 263.621 89.2361 263.647 89.1408 263.646C88.9308 263.629 88.7264 263.573 88.5391 263.481C88.3681 263.418 88.2098 263.328 88.071 263.214C88.0319 263.179 88.0005 263.136 87.9787 263.09C87.9569 263.043 87.9451 262.992 87.944 262.941C87.9658 262.767 88.0107 262.596 88.0777 262.432L91.6014 255.442L91.7017 255.251C91.732 255.195 91.7702 255.144 91.8153 255.098C91.8564 255.048 91.909 255.006 91.9691 254.978C92.0346 254.951 92.1052 254.938 92.1764 254.94C92.3864 254.957 92.5908 255.013 92.7781 255.105C93.1726 255.289 93.3732 255.486 93.3732 255.702C93.3477 255.88 93.2959 256.053 93.2194 256.217L89.7092 263.15Z" fill="#1B0A43"/>
<path d="M101.544 259.471C101.557 259.62 101.524 259.77 101.448 259.901C101.372 260.032 101.256 260.139 101.116 260.208L96.4355 262.845C96.3386 262.908 96.2356 262.961 96.128 263.004C96.0394 263.031 95.9468 263.044 95.8538 263.042C95.737 263.04 95.6251 262.997 95.5396 262.922C95.4161 262.812 95.3102 262.686 95.2253 262.547C95.1305 262.415 95.0603 262.269 95.018 262.115C95.0006 262.062 94.9951 262.006 95.002 261.952C95.0089 261.897 95.0281 261.844 95.0582 261.797C95.1082 261.719 95.1689 261.649 95.2387 261.587C95.3345 261.519 95.4351 261.458 95.5396 261.403L98.9429 259.496L95.5529 257.59C95.4495 257.534 95.351 257.47 95.2587 257.399C95.1867 257.337 95.1257 257.264 95.0782 257.183C95.0485 257.136 95.0291 257.083 95.021 257.028C95.013 256.974 95.0165 256.918 95.0314 256.865C95.0688 256.715 95.1345 256.573 95.2253 256.446C95.3089 256.304 95.4123 256.173 95.5329 256.058C95.6184 255.982 95.7303 255.939 95.8471 255.937C95.9402 255.94 96.0325 255.955 96.1213 255.982C96.2282 256.024 96.3311 256.075 96.4288 256.134L101.109 258.772C101.246 258.834 101.361 258.934 101.438 259.059C101.515 259.183 101.552 259.326 101.544 259.471Z" fill="#1B0A43"/>
<path d="M99.9123 270.98H27.5406V274.374H99.9123V270.98Z" fill="#004999"/>
<path d="M99.9123 281.345H79.6798V284.739H99.9123V281.345Z" fill="#E43C5C"/>
<path d="M428.668 419.877L393.558 383.703C393.025 383.152 392.377 382.713 391.656 382.413C390.935 382.113 390.156 381.958 389.369 381.958C388.582 381.958 387.803 382.113 387.082 382.413C386.361 382.713 385.714 383.152 385.18 383.703L350.098 419.877C349.348 420.648 348.851 421.611 348.666 422.646C348.482 423.682 348.618 424.746 349.059 425.71C349.5 426.673 350.226 427.493 351.149 428.071C352.072 428.649 353.151 428.96 354.257 428.964H363.524V462.755C363.523 463.466 363.67 464.171 363.955 464.828C364.241 465.486 364.661 466.083 365.19 466.586C365.719 467.089 366.348 467.488 367.039 467.759C367.731 468.031 368.472 468.171 369.22 468.17H409.518C410.267 468.171 411.008 468.031 411.699 467.759C412.391 467.488 413.019 467.089 413.548 466.586C414.077 466.083 414.497 465.486 414.783 464.828C415.069 464.171 415.216 463.466 415.215 462.755V428.964H424.482C425.591 428.967 426.676 428.662 427.605 428.087C428.534 427.511 429.265 426.69 429.71 425.725C430.155 424.76 430.293 423.692 430.108 422.653C429.922 421.614 429.422 420.649 428.668 419.877Z" fill="url(#paint17_linear_119_88)"/>
<path style="mix-blend-mode:multiply" opacity="0.35" d="M387.106 382.406C386.378 382.698 385.722 383.131 385.18 383.677L350.098 419.877C349.348 420.648 348.851 421.611 348.666 422.646C348.482 423.682 348.618 424.746 349.059 425.71C349.5 426.673 350.226 427.494 351.149 428.072C352.072 428.649 353.151 428.96 354.257 428.965H363.524V462.755C363.523 463.467 363.67 464.171 363.955 464.828C364.241 465.486 364.661 466.083 365.19 466.586C365.719 467.089 366.348 467.488 367.039 467.759C367.731 468.031 368.472 468.171 369.22 468.17H389.399C387.628 439.603 387.18 411.011 387.106 382.406Z" fill="url(#paint18_linear_119_88)"/>
<g style="mix-blend-mode:soft-light">
<path d="M394.053 395.968C394.822 397.805 396.185 399.363 397.944 400.417C399.536 401.268 401.903 400.76 401.361 398.51C400.933 396.782 398.907 394.417 397.483 393.343C395.123 391.577 392.89 393.223 394.053 395.968Z" fill="#EF99D1"/>
</g>
<g style="mix-blend-mode:soft-light">
<path d="M402.919 406.333C406.825 410.699 410.979 414.86 415.362 418.796C415.769 419.146 416.302 419.335 416.851 419.322C417.4 419.309 417.923 419.096 418.312 418.727C418.7 418.358 418.924 417.861 418.938 417.339C418.951 416.817 418.753 416.31 418.384 415.923C413.991 411.994 409.828 407.837 405.914 403.474C405.512 403.096 404.969 402.885 404.403 402.885C403.838 402.885 403.295 403.096 402.892 403.474C402.505 403.861 402.289 404.375 402.289 404.91C402.289 405.444 402.505 405.959 402.892 406.346L402.919 406.333Z" fill="#EF99D1"/>
</g>
<path d="M365.215 344.936H305.668C304.191 344.936 302.993 346.074 302.993 347.478V374.939C302.993 376.343 304.191 377.481 305.668 377.481H365.215C366.692 377.481 367.89 376.343 367.89 374.939V347.478C367.89 346.074 366.692 344.936 365.215 344.936Z" fill="#004998"/>
<g style="mix-blend-mode:multiply" opacity="0.35">
<path d="M333.844 344.936H308.436C306.985 344.936 305.594 345.483 304.568 346.458C303.543 347.433 302.966 348.756 302.966 350.134V372.282C302.966 373.661 303.543 374.983 304.568 375.958C305.594 376.933 306.985 377.481 308.436 377.481H335.482C335.076 366.626 334.53 355.778 333.844 344.936Z" fill="#7039CA"/>
</g>
<path d="M317.696 362.311C317.68 362.074 317.739 361.837 317.865 361.632C317.991 361.427 318.179 361.263 318.405 361.161C322.47 358.881 325 357.451 325.994 356.871C326.152 356.775 326.32 356.694 326.495 356.629C326.638 356.585 326.787 356.562 326.937 356.559C327.126 356.557 327.309 356.625 327.445 356.75C327.643 356.938 327.812 357.152 327.946 357.386C328.092 357.595 328.198 357.828 328.261 358.072C328.307 358.246 328.28 358.43 328.187 358.587C328.113 358.716 328.015 358.832 327.899 358.93C327.752 359.045 327.596 359.15 327.431 359.241C323.901 361.224 322.065 362.26 321.922 362.349L327.431 365.463C327.602 365.55 327.765 365.65 327.92 365.762C328.037 365.859 328.137 365.976 328.214 366.105C328.263 366.181 328.296 366.266 328.308 366.355C328.321 366.444 328.314 366.534 328.287 366.62C328.215 366.869 328.099 367.105 327.946 367.319C327.809 367.554 327.635 367.768 327.431 367.954C327.295 368.076 327.117 368.146 326.93 368.151C326.777 368.155 326.624 368.129 326.482 368.075C326.313 368.007 326.15 367.926 325.994 367.834L318.385 363.506C318.158 363.395 317.97 363.222 317.848 363.009C317.725 362.796 317.672 362.553 317.696 362.311Z" fill="#FEFEFE"/>
<path d="M333.83 368.291C333.737 368.482 333.663 368.622 333.61 368.717C333.54 368.821 333.449 368.909 333.342 368.977C333.215 369.063 333.063 369.107 332.907 369.105C332.566 369.075 332.235 368.982 331.931 368.831C331.655 368.73 331.4 368.583 331.176 368.399C331.112 368.342 331.061 368.273 331.025 368.196C330.99 368.12 330.971 368.038 330.968 367.954C331.002 367.671 331.074 367.394 331.182 367.128L336.906 355.759C336.979 355.619 337.033 355.517 337.08 355.447C337.127 355.358 337.185 355.275 337.253 355.199C337.322 355.116 337.412 355.051 337.514 355.009C337.619 354.963 337.733 354.942 337.849 354.945C338.19 354.971 338.523 355.064 338.825 355.218C339.493 355.511 339.788 355.854 339.788 356.178C339.747 356.469 339.663 356.754 339.54 357.023L333.83 368.291Z" fill="#FEFEFE"/>
<path d="M353.066 362.311C353.094 362.552 353.045 362.795 352.926 363.009C352.806 363.223 352.623 363.398 352.398 363.512L344.809 367.802C344.653 367.906 344.485 367.991 344.307 368.056C344.163 368.101 344.012 368.123 343.859 368.12C343.671 368.114 343.49 368.044 343.351 367.923C343.148 367.736 342.974 367.522 342.836 367.287C342.683 367.073 342.568 366.837 342.495 366.588C342.471 366.502 342.465 366.412 342.478 366.324C342.491 366.235 342.522 366.15 342.569 366.073C342.648 365.945 342.747 365.829 342.863 365.73C343.017 365.619 343.181 365.519 343.351 365.431L348.881 362.317L343.371 359.21C343.202 359.119 343.041 359.015 342.89 358.898C342.77 358.802 342.671 358.686 342.596 358.555C342.506 358.398 342.48 358.215 342.522 358.04C342.585 357.796 342.691 357.564 342.836 357.354C342.973 357.12 343.144 356.906 343.345 356.718C343.41 356.655 343.488 356.606 343.574 356.573C343.661 356.54 343.753 356.525 343.846 356.528C343.998 356.531 344.149 356.554 344.294 356.598C344.466 356.664 344.632 356.745 344.789 356.839L352.378 361.129C352.605 361.236 352.793 361.407 352.916 361.618C353.039 361.829 353.092 362.071 353.066 362.311Z" fill="#FEFEFE"/>
<g style="mix-blend-mode:soft-light">
<path d="M345.023 350.992C347.965 351.196 350.92 351.266 353.869 351.196C354.277 351.196 354.668 351.042 354.956 350.767C355.245 350.493 355.407 350.122 355.407 349.734C355.407 349.346 355.245 348.974 354.956 348.7C354.668 348.426 354.277 348.272 353.869 348.272C350.92 348.342 347.965 348.272 345.023 348.069C344.616 348.071 344.225 348.225 343.937 348.499C343.649 348.773 343.487 349.143 343.485 349.531C343.494 349.916 343.658 350.283 343.945 350.555C344.231 350.828 344.618 350.984 345.023 350.992Z" fill="#BCA2E6"/>
</g>
<g style="mix-blend-mode:soft-light">
<path d="M360.067 351.215C361.103 351.38 362.962 350.808 362.915 349.556C362.915 348.768 362.14 348.425 361.444 348.234C360.441 347.961 358.77 348.336 358.549 349.505C358.507 349.735 358.525 349.97 358.601 350.192C358.676 350.413 358.808 350.614 358.984 350.776C359.293 351.019 359.669 351.171 360.067 351.215Z" fill="#BCA2E6"/>
</g>
<path d="M283.269 355.632C282.808 352.226 281.214 349.049 278.72 346.565C276.225 344.08 272.961 342.419 269.403 341.822C265.845 341.225 262.18 341.725 258.942 343.247C255.703 344.77 253.062 347.237 251.402 350.287C250.445 346.426 248.136 342.988 244.855 340.536C241.573 338.085 237.513 336.766 233.339 336.795C229.165 336.823 225.126 338.199 221.882 340.695C218.638 343.191 216.382 346.661 215.484 350.535C213.925 347.646 211.552 345.227 208.629 343.546C205.707 341.866 202.35 340.992 198.935 341.021C195.52 341.05 192.18 341.981 189.29 343.711C186.399 345.44 184.072 347.9 182.568 350.814L175.587 299.636C174.896 295.081 172.347 290.968 168.491 288.185C164.636 285.401 159.783 284.171 154.982 284.761C150.18 285.35 145.815 287.711 142.83 291.334C139.844 294.957 138.478 299.55 139.027 304.123L153.523 410.566C154.051 418.192 153.402 424.789 149.177 423.378C148.755 423.232 148.347 423.111 147.946 422.997L128.188 410.229C125.786 408.677 123.086 407.59 120.241 407.031C117.397 406.471 114.465 406.449 111.611 406.966C108.758 407.483 106.04 408.529 103.612 410.045C101.185 411.561 99.0946 413.516 97.4619 415.8C94.1644 420.411 92.9294 426.079 94.0284 431.556C95.1275 437.033 98.4706 441.871 103.322 445.005C103.322 445.005 141.501 469.155 148.836 475.199C160.055 484.433 178.362 505.767 183.25 509.352C188.137 512.936 271.327 500.696 275.299 500.213C279.09 499.743 298.193 480.588 292.422 422.972L283.269 355.632Z" fill="#FAAA98"/>
<g style="mix-blend-mode:multiply" opacity="0.18">
<path d="M205.307 491.208C173.421 426.639 164.314 354.958 157.882 284.39C155.216 284.293 152.559 284.751 150.099 285.733C147.639 286.715 145.434 288.196 143.64 290.073C141.846 291.95 140.505 294.177 139.711 296.599C138.918 299.02 138.691 301.577 139.047 304.091L153.523 410.566C154.051 418.192 153.402 424.789 149.177 423.378C148.755 423.232 148.347 423.111 147.946 422.997L128.188 410.229C125.786 408.677 123.086 407.59 120.241 407.031C117.397 406.471 114.465 406.449 111.611 406.966C108.758 407.483 106.04 408.529 103.612 410.045C101.185 411.561 99.0946 413.516 97.4619 415.8C94.1644 420.411 92.9294 426.079 94.0284 431.556C95.1275 437.033 98.4706 441.871 103.322 445.005C103.322 445.005 141.501 469.155 148.836 475.199C160.055 484.433 178.362 505.767 183.25 509.352C185.108 510.718 198.38 509.777 214.3 508.081C211.131 502.535 208.133 496.91 205.307 491.208Z" fill="#FAAA98"/>
</g>
<g style="mix-blend-mode:multiply" opacity="0.57">
<path d="M217.249 365.825C217.249 365.825 214.889 352.48 215.484 350.535C216.079 348.59 218.252 364.586 217.249 365.825Z" fill="#FAAA98"/>
</g>
<g style="mix-blend-mode:multiply" opacity="0.57">
<path d="M252.372 361.23C252.372 361.23 250.58 352.06 251.175 350.115C251.77 348.171 253.375 359.991 252.372 361.23Z" fill="#FAAA98"/>
</g>
<g style="mix-blend-mode:multiply" opacity="0.5">
<path d="M185.964 378.548C185.964 378.548 181.899 352.632 182.494 350.681C183.089 348.73 188.01 376.032 185.964 378.548Z" fill="#FAAA98"/>
</g>
<g style="mix-blend-mode:soft-light" opacity="0.55">
<path d="M166.226 302.699C166.027 303.448 165.972 304.226 166.066 304.993C166.28 306.76 166.373 309.073 167.59 310.529C167.761 310.749 167.979 310.931 168.23 311.064C168.482 311.197 168.76 311.277 169.047 311.299C169.333 311.321 169.621 311.283 169.891 311.19C170.162 311.097 170.408 310.949 170.613 310.757C172.425 308.965 170.679 304.923 170.753 302.724C170.757 302.219 170.563 301.73 170.208 301.354C169.853 300.978 169.363 300.741 168.834 300.691C167.35 300.506 166.574 301.504 166.226 302.699Z" fill="#FDD7CF"/>
</g>
<g style="mix-blend-mode:soft-light" opacity="0.55">
<path d="M168.159 317.666C168.774 325.165 169.587 332.645 170.599 340.106C170.753 341.231 171.509 342.209 172.812 342.209C173.889 342.209 175.173 341.243 175.019 340.106C174.011 332.645 173.198 325.165 172.578 317.666C172.563 317.113 172.325 316.587 171.913 316.196C171.501 315.806 170.947 315.581 170.365 315.568C169.781 315.572 169.222 315.794 168.809 316.186C168.396 316.579 168.162 317.11 168.159 317.666Z" fill="#FDD7CF"/>
</g>
<g style="mix-blend-mode:soft-light" opacity="0.55">
<path d="M197.652 348.59C199.087 348.575 200.513 348.812 201.857 349.289C203.088 349.779 204.532 350.198 205.314 348.819C205.598 348.334 205.674 347.764 205.526 347.227C205.378 346.691 205.017 346.229 204.518 345.94C203.341 345.222 202.026 344.734 200.648 344.505C199.27 344.276 197.859 344.31 196.495 344.605C195.931 344.757 195.453 345.113 195.164 345.597C194.875 346.081 194.798 346.654 194.95 347.192C195.094 347.616 195.383 347.982 195.77 348.232C196.158 348.482 196.623 348.601 197.09 348.571L197.652 348.59Z" fill="#FDD7CF"/>
</g>
<g style="mix-blend-mode:soft-light" opacity="0.55">
<path d="M229.819 346.054C231.13 345.818 232.465 345.731 233.797 345.794C235.135 345.902 236.472 346.785 237.809 346.429C238.37 346.286 238.85 345.939 239.146 345.463C239.655 344.555 239.487 343.061 238.357 342.591C236.189 341.662 233.805 341.283 231.437 341.491C229.766 341.65 226.336 342.279 227.138 344.669C227.593 346.08 228.662 346.22 229.819 346.054Z" fill="#FDD7CF"/>
</g>
<g style="mix-blend-mode:soft-light" opacity="0.55">
<path d="M241.861 350.554L243.198 352.517C244.656 354.704 248.44 352.727 247.016 350.395C246.582 349.759 246.147 349.086 245.679 348.437C245.542 348.183 245.352 347.958 245.12 347.775C244.888 347.593 244.619 347.458 244.331 347.377C244.042 347.297 243.739 347.273 243.441 347.308C243.142 347.343 242.854 347.435 242.594 347.579C242.334 347.723 242.108 347.916 241.929 348.146C241.75 348.376 241.623 348.638 241.554 348.916C241.485 349.195 241.477 349.484 241.53 349.765C241.583 350.047 241.695 350.315 241.861 350.554Z" fill="#FDD7CF"/>
</g>
<g style="mix-blend-mode:soft-light" opacity="0.55">
<path d="M271.869 351.939C272.285 353.167 272.779 354.371 273.347 355.543C273.761 356.477 273.848 357.754 274.684 358.453C274.932 358.641 275.22 358.776 275.527 358.849C275.835 358.923 276.155 358.934 276.468 358.881C276.78 358.828 277.077 358.713 277.339 358.543C277.601 358.372 277.821 358.151 277.987 357.894C278.256 357.395 278.334 356.822 278.207 356.274C277.823 353.983 276.954 351.791 275.653 349.829C275.353 349.358 274.875 349.012 274.316 348.863C273.741 348.718 273.128 348.793 272.611 349.073C271.561 349.74 271.555 350.853 271.869 351.939Z" fill="#FDD7CF"/>
</g>
<g style="mix-blend-mode:soft-light" opacity="0.55">
<path d="M275.279 365.342C276.536 374.79 277.797 384.243 279.063 393.699C279.082 394.252 279.321 394.777 279.732 395.167C280.143 395.558 280.695 395.785 281.276 395.803C282.353 395.803 283.637 394.831 283.49 393.699L279.698 365.342C279.68 364.79 279.441 364.265 279.03 363.874C278.619 363.483 278.066 363.256 277.485 363.239C276.409 363.239 275.125 364.217 275.279 365.342Z" fill="#FDD7CF"/>
</g>
</g>
<defs>
<linearGradient id="paint0_linear_119_88" x1="269.255" y1="176.077" x2="269.255" y2="163.081" gradientUnits="userSpaceOnUse">
<stop stop-color="white"/>
<stop offset="0.04" stop-color="#FEFFFF" stop-opacity="0.94"/>
<stop offset="0.25" stop-color="#FBFFFF" stop-opacity="0.66"/>
<stop offset="0.45" stop-color="#F8FFFF" stop-opacity="0.43"/>
<stop offset="0.63" stop-color="#F6FFFF" stop-opacity="0.24"/>
<stop offset="0.78" stop-color="#F4FFFF" stop-opacity="0.11"/>
<stop offset="0.91" stop-color="#F3FFFF" stop-opacity="0.03"/>
<stop offset="1" stop-color="#F3FFFF" stop-opacity="0"/>
</linearGradient>
<linearGradient id="paint1_linear_119_88" x1="335.508" y1="488.723" x2="335.508" y2="469.231" gradientUnits="userSpaceOnUse">
<stop stop-color="white"/>
<stop offset="0.04" stop-color="#FEFFFF" stop-opacity="0.94"/>
<stop offset="0.25" stop-color="#FBFFFF" stop-opacity="0.66"/>
<stop offset="0.45" stop-color="#F8FFFF" stop-opacity="0.43"/>
<stop offset="0.63" stop-color="#F6FFFF" stop-opacity="0.24"/>
<stop offset="0.78" stop-color="#F4FFFF" stop-opacity="0.11"/>
<stop offset="0.91" stop-color="#F3FFFF" stop-opacity="0.03"/>
<stop offset="1" stop-color="#F3FFFF" stop-opacity="0"/>
</linearGradient>
<linearGradient id="paint2_linear_119_88" x1="98.2742" y1="500.988" x2="98.2742" y2="483.079" gradientUnits="userSpaceOnUse">
<stop stop-color="#004998"/>
<stop offset="1" stop-color="#004998" stop-opacity="0"/>
</linearGradient>
<linearGradient id="paint3_linear_119_88" x1="27.5406" y1="140.501" x2="27.5406" y2="127.505" gradientUnits="userSpaceOnUse">
<stop stop-color="#E43C5C"/>
<stop offset="1" stop-color="#FFA5FF" stop-opacity="0"/>
</linearGradient>
<linearGradient id="paint4_linear_119_88" x1="24.7658" y1="321.777" x2="24.355" y2="335.62" gradientUnits="userSpaceOnUse">
<stop stop-color="white"/>
<stop offset="0.04" stop-color="#FEFFFF" stop-opacity="0.94"/>
<stop offset="0.25" stop-color="#FBFFFF" stop-opacity="0.66"/>
<stop offset="0.45" stop-color="#F8FFFF" stop-opacity="0.43"/>
<stop offset="0.63" stop-color="#F6FFFF" stop-opacity="0.24"/>
<stop offset="0.78" stop-color="#F4FFFF" stop-opacity="0.11"/>
<stop offset="0.91" stop-color="#F3FFFF" stop-opacity="0.03"/>
<stop offset="1" stop-color="#F3FFFF" stop-opacity="0"/>
</linearGradient>
<linearGradient id="paint5_linear_119_88" x1="322.357" y1="160.876" x2="322.357" y2="151.781" gradientUnits="userSpaceOnUse">
<stop stop-color="#E43C5C"/>
<stop offset="1" stop-color="#FFA5FF" stop-opacity="0"/>
</linearGradient>
<linearGradient id="paint6_linear_119_88" x1="394.514" y1="349.639" x2="393.898" y2="360.891" gradientUnits="userSpaceOnUse">
<stop stop-color="#E43C5C"/>
<stop offset="1" stop-color="#FFA5FF" stop-opacity="0"/>
</linearGradient>
<linearGradient id="paint7_linear_119_88" x1="188.94" y1="59.1416" x2="188.71" y2="67.8235" gradientUnits="userSpaceOnUse">
<stop stop-color="#E43C5C"/>
<stop offset="1" stop-color="#FFA5FF" stop-opacity="0"/>
</linearGradient>
<linearGradient id="paint8_linear_119_88" x1="169.081" y1="66.8122" x2="96.2446" y2="425.272" gradientUnits="userSpaceOnUse">
<stop stop-color="#004999"/>
<stop offset="1" stop-color="#E43C5C"/>
</linearGradient>
<linearGradient id="paint9_linear_119_88" x1="95.2654" y1="144.505" x2="95.8937" y2="177" gradientUnits="userSpaceOnUse">
<stop stop-color="#FFA5FF" stop-opacity="0"/>
<stop offset="1" stop-color="#FFA5FF"/>
</linearGradient>
<linearGradient id="paint10_linear_119_88" x1="165.116" y1="66.3165" x2="92.4132" y2="424.144" gradientUnits="userSpaceOnUse">
<stop stop-color="#7039CA"/>
<stop offset="1" stop-color="#DC259D"/>
</linearGradient>
<linearGradient id="paint11_linear_119_88" x1="329.491" y1="151.26" x2="335.347" y2="58.7716" gradientUnits="userSpaceOnUse">
<stop stop-color="#E43C5C"/>
<stop offset="1" stop-color="#FFA5FF" stop-opacity="0"/>
</linearGradient>
<linearGradient id="paint12_linear_119_88" x1="100.862" y1="8.3698" x2="102.868" y2="66.4131" gradientUnits="userSpaceOnUse">
<stop stop-color="white"/>
<stop offset="0.04" stop-color="#FEFFFF" stop-opacity="0.94"/>
<stop offset="0.25" stop-color="#FBFFFF" stop-opacity="0.66"/>
<stop offset="0.45" stop-color="#F8FFFF" stop-opacity="0.43"/>
<stop offset="0.63" stop-color="#F6FFFF" stop-opacity="0.24"/>
<stop offset="0.78" stop-color="#F4FFFF" stop-opacity="0.11"/>
<stop offset="0.91" stop-color="#F3FFFF" stop-opacity="0.03"/>
<stop offset="1" stop-color="#F3FFFF" stop-opacity="0"/>
</linearGradient>
<linearGradient id="paint13_linear_119_88" x1="110.564" y1="23.7747" x2="112.454" y2="78.4874" gradientUnits="userSpaceOnUse">
<stop stop-color="white"/>
<stop offset="0.04" stop-color="#FEFFFF" stop-opacity="0.94"/>
<stop offset="0.25" stop-color="#FBFFFF" stop-opacity="0.66"/>
<stop offset="0.45" stop-color="#F8FFFF" stop-opacity="0.43"/>
<stop offset="0.63" stop-color="#F6FFFF" stop-opacity="0.24"/>
<stop offset="0.78" stop-color="#F4FFFF" stop-opacity="0.11"/>
<stop offset="0.91" stop-color="#F3FFFF" stop-opacity="0.03"/>
<stop offset="1" stop-color="#F3FFFF" stop-opacity="0"/>
</linearGradient>
<linearGradient id="paint14_linear_119_88" x1="399.723" y1="186.919" x2="400.267" y2="131.139" gradientUnits="userSpaceOnUse">
<stop stop-color="white"/>
<stop offset="0.04" stop-color="#FEFFFF" stop-opacity="0.94"/>
<stop offset="0.25" stop-color="#FBFFFF" stop-opacity="0.66"/>
<stop offset="0.45" stop-color="#F8FFFF" stop-opacity="0.43"/>
<stop offset="0.63" stop-color="#F6FFFF" stop-opacity="0.24"/>
<stop offset="0.78" stop-color="#F4FFFF" stop-opacity="0.11"/>
<stop offset="0.91" stop-color="#F3FFFF" stop-opacity="0.03"/>
<stop offset="1" stop-color="#F3FFFF" stop-opacity="0"/>
</linearGradient>
<linearGradient id="paint15_linear_119_88" x1="400.198" y1="138.791" x2="393.772" y2="179.481" gradientUnits="userSpaceOnUse">
<stop stop-color="white"/>
<stop offset="0.04" stop-color="#FEFFFF" stop-opacity="0.94"/>
<stop offset="0.25" stop-color="#FBFFFF" stop-opacity="0.66"/>
<stop offset="0.45" stop-color="#F8FFFF" stop-opacity="0.43"/>
<stop offset="0.63" stop-color="#F6FFFF" stop-opacity="0.24"/>
<stop offset="0.78" stop-color="#F4FFFF" stop-opacity="0.11"/>
<stop offset="0.91" stop-color="#F3FFFF" stop-opacity="0.03"/>
<stop offset="1" stop-color="#F3FFFF" stop-opacity="0"/>
</linearGradient>
<linearGradient id="paint16_linear_119_88" x1="-4.35795e-06" y1="285.247" x2="113.291" y2="285.247" gradientUnits="userSpaceOnUse">
<stop stop-color="#004998" stop-opacity="0"/>
<stop offset="0.14" stop-color="#004998" stop-opacity="0.03"/>
<stop offset="0.3" stop-color="#004998" stop-opacity="0.13"/>
<stop offset="0.49" stop-color="#004998" stop-opacity="0.29"/>
<stop offset="0.68" stop-color="#004999" stop-opacity="0.51"/>
<stop offset="0.88" stop-color="#004999" stop-opacity="0.8"/>
<stop offset="1" stop-color="#004999"/>
</linearGradient>
<linearGradient id="paint17_linear_119_88" x1="387.721" y1="474.455" x2="390.125" y2="392.275" gradientUnits="userSpaceOnUse">
<stop stop-color="#7039CA"/>
<stop offset="1" stop-color="#DC259D"/>
</linearGradient>
<linearGradient id="paint18_linear_119_88" x1="368.064" y1="473.877" x2="370.468" y2="391.703" gradientUnits="userSpaceOnUse">
<stop stop-color="#7039CA"/>
<stop offset="1" stop-color="#DC259D"/>
</linearGradient>
<clipPath id="clip0_119_88">
<rect width="442" height="510" fill="white"/>
</clipPath>
</defs>
</svg>
