<svg width="41" height="39" viewBox="0 0 41 39" fill="none" xmlns="http://www.w3.org/2000/svg">
<g clip-path="url(#clip0_27_106)">
<path d="M41.001 29.8102C40.6662 30.7261 40.0575 31.2653 39.0358 31.2557C38.9652 31.2557 38.8711 31.3624 38.8283 31.4382C38.7587 31.5653 38.7395 31.7201 38.6689 31.846C38.38 32.3521 38.2848 32.7652 38.7534 33.3033C39.2498 33.8734 39.1 34.7872 38.579 35.3637C38.1972 35.7912 37.791 36.1965 37.3627 36.5776C36.5967 37.2523 35.6371 37.1466 34.7042 36.3107C34.2581 36.4858 33.8002 36.6555 33.3541 36.8541C33.2835 36.8851 33.2386 37.0431 33.2322 37.1445C33.1573 38.3113 32.4352 38.9957 31.2637 38.9999C30.8497 38.9999 30.4368 38.9999 30.0228 38.9999C28.969 38.9903 28.2212 38.3113 28.157 37.2619C28.1388 36.9566 28.0501 36.79 27.7484 36.7495C27.7221 36.7442 27.6971 36.7341 27.6746 36.7196C27.1033 36.4078 26.6155 36.2488 25.9982 36.7922C25.4633 37.264 24.5625 37.074 24.0073 36.5712C23.5907 36.1968 23.1932 35.8017 22.8166 35.3872C22.5049 35.0588 22.3333 34.6224 22.3378 34.17C22.3424 33.7177 22.5229 33.2848 22.8412 32.9627C23.0434 32.7492 23.0766 32.5934 22.9257 32.3499C22.81 32.1706 22.726 31.9727 22.6775 31.7649C22.5898 31.3379 22.363 31.2311 21.9287 31.2311C19.8875 31.2578 17.8453 31.245 15.8041 31.2418C15.2585 31.2418 14.9172 30.9567 14.8851 30.4998C14.8509 29.9895 15.1922 29.6458 15.7549 29.6393C17.1456 29.6393 18.531 29.6393 19.9185 29.6393H20.3625C20.3625 29.129 20.3625 28.654 20.3625 28.18C20.3689 26.9597 21.0044 26.2775 22.2197 26.1697C22.3405 26.159 22.4604 26.0298 22.5609 25.9338C22.6123 25.8846 22.6101 25.7843 22.6465 25.7138C22.93 25.1555 23.1055 24.6783 22.5727 24.074C22.087 23.5231 22.2667 22.6125 22.7813 22.0531C23.16 21.641 23.5569 21.2428 23.9699 20.867C24.6706 20.2264 25.6815 20.2414 26.4004 20.9022C26.6026 21.088 26.7428 21.1157 26.9856 20.9876C27.3365 20.8019 27.7163 20.6673 28.0779 20.5211C28.1153 20.2521 28.1175 19.9798 28.1934 19.73C28.4159 19.004 28.9091 18.5332 29.673 18.4564C30.2841 18.4018 30.8987 18.3957 31.5109 18.4382C31.9439 18.4511 32.3559 18.6274 32.6639 18.9315C32.9718 19.2356 33.1527 19.645 33.1701 20.077C33.1969 20.425 33.3049 20.6108 33.6483 20.6705C33.7142 20.6819 33.7773 20.7054 33.8345 20.7399C34.3415 21.0463 34.7855 21.151 35.2948 20.6513C35.5344 20.4165 36.004 20.4154 36.4234 20.2926V12.3017H1.62926C1.62284 12.4427 1.61109 12.5836 1.61109 12.7288C1.61109 17.3899 1.61109 22.0516 1.61109 26.7142C1.61109 27.423 1.75015 28.0892 2.15988 28.6806C2.59957 29.3148 3.19009 29.6586 3.97854 29.6532C5.47625 29.6436 6.96757 29.6468 8.46315 29.6532C8.96702 29.6532 9.30187 29.9564 9.32648 30.4059C9.35001 30.8233 9.05796 31.2343 8.63004 31.2365C6.85632 31.2493 5.07401 31.3304 3.31205 31.182C1.65173 31.0411 0.360489 29.5497 0.083411 27.7764C0.0314199 27.448 0.00495373 27.116 0.00424699 26.7836C-3.22001e-05 19.3524 -3.22001e-05 11.9213 0.00424699 4.4902C0.00424699 3.03188 0.472825 1.77321 1.61537 0.816648C2.2295 0.291435 3.01359 0.00620352 3.82235 0.0138206C13.9647 0.0138206 24.1068 0.0138206 34.2485 0.0138206C36.0201 0.0138206 37.5445 1.34936 37.9457 3.24753C38.0405 3.73026 38.0854 4.22146 38.0794 4.71334C38.089 10.1869 38.0794 15.6604 38.0933 21.1339C38.0875 21.3388 38.1512 21.5397 38.2741 21.704C39.2808 22.8068 39.3033 23.5744 38.318 24.7146C38.4913 25.1501 38.6625 25.5932 38.8529 26.0288C38.8724 26.0673 38.9007 26.1007 38.9354 26.1265C38.9701 26.1522 39.0104 26.1696 39.0529 26.1772C40.0575 26.1601 40.6523 26.7024 41.0085 27.581L41.001 29.8102ZM36.4597 10.6267C36.4597 10.0139 36.4597 9.44274 36.4597 8.87158C36.4597 7.2702 36.4876 5.67416 36.4362 4.07705C36.3859 2.53759 35.3664 1.6056 33.8366 1.6056H22.9461C16.6464 1.6056 10.3467 1.6056 4.04702 1.6056C3.36235 1.6056 2.79429 1.81911 2.34605 2.33582C1.82506 2.93901 1.61322 3.65428 1.61109 4.43682C1.61109 6.39478 1.61109 8.35202 1.61109 10.3085C1.61109 10.4153 1.6282 10.5135 1.6389 10.6288L36.4597 10.6267ZM25.1958 22.0253C25.1413 22.0403 25.0889 22.0392 25.0664 22.0627C24.8981 22.2143 24.7337 22.3694 24.5732 22.5281C23.8757 23.221 23.8768 23.2221 24.5508 23.9235C24.9594 24.3505 24.9712 24.6078 24.7166 25.1405C24.4255 25.7357 24.1698 26.3474 23.9506 26.9725C23.7367 27.6013 23.5398 27.7914 22.8637 27.7956C21.9886 27.8031 21.9843 27.8031 21.9897 28.6988C21.995 29.7803 21.8677 29.6276 22.9193 29.6383C23.5537 29.6447 23.7463 29.8251 23.9463 30.4198C24.1458 31.0239 24.3878 31.6133 24.6706 32.1834C25.0012 32.8432 24.9979 33.0738 24.4823 33.5894C23.7869 34.2855 23.8115 34.1019 24.4823 34.7862C25.1531 35.4705 25.1723 35.4758 25.8795 34.7958C26.2871 34.404 26.563 34.3901 27.0669 34.6335C27.6474 34.9262 28.2463 35.1808 28.8599 35.3958C29.6088 35.6456 29.7585 35.7908 29.7607 36.5808C29.7607 37.4882 29.6751 37.3911 30.5748 37.3932C31.5964 37.3932 31.5964 37.3932 31.6125 36.3961C31.621 35.8335 31.8029 35.636 32.3346 35.4492C32.9634 35.2378 33.5786 34.9883 34.1768 34.7018C34.8433 34.3698 35.0476 34.3698 35.5857 34.8983C36.2822 35.5815 36.0907 35.5687 36.785 34.8855C37.4793 34.2022 37.4771 34.1958 36.785 33.488C36.3945 33.0866 36.3838 32.8101 36.6299 32.304C36.9212 31.7236 37.1752 31.1252 37.3905 30.5126C37.6365 29.7835 37.7777 29.6404 38.5491 29.6404C39.4787 29.6404 39.3803 29.7098 39.3824 28.7992C39.3824 27.8244 39.3824 27.8244 38.4025 27.7967C37.8376 27.7807 37.6312 27.5832 37.4397 27.0302C37.2186 26.3912 36.9596 25.7659 36.6641 25.1576C36.3763 24.5704 36.3806 24.326 36.8545 23.8487C37.4814 23.2157 37.4814 23.2157 36.8545 22.5933C36.1848 21.926 36.1848 21.926 35.5119 22.5783C35.0637 23.0128 34.8026 23.0128 34.2281 22.7342C33.6183 22.4407 32.991 22.1851 32.3496 21.9687C31.7698 21.7712 31.5761 21.563 31.5676 20.9332C31.5569 20.0407 31.5569 20.0407 30.6828 20.0407C29.7264 20.0407 29.7264 20.0407 29.72 20.978C29.7136 21.5865 29.5285 21.7883 28.9562 21.9794C28.3748 22.1637 27.8077 22.3903 27.2595 22.6573C26.455 23.0651 26.3095 23.0694 25.6623 22.4278C25.5681 22.3338 25.4772 22.2356 25.3777 22.147C25.32 22.1023 25.2592 22.0617 25.1958 22.0253Z" fill="#E33E5D"/>
<path d="M18.0592 20.9493C17.4173 20.2244 16.8022 19.5412 16.1946 18.8536C15.8094 18.4191 15.7977 17.9451 16.1539 17.6184C16.5101 17.2918 16.999 17.3451 17.381 17.7679C18.0942 18.5579 18.8027 19.3518 19.5067 20.1497C19.9592 20.6653 19.9667 21.2173 19.5206 21.7308C18.8024 22.5521 18.0763 23.3663 17.3425 24.1734C17.0001 24.5513 16.5112 24.5898 16.1657 24.293C15.8073 23.9834 15.7934 23.4923 16.1485 23.0887C16.7754 22.3788 17.4099 21.6785 18.0592 20.9493Z" fill="#E33E5D"/>
<path d="M6.35565 20.9492C6.97399 21.6432 7.57092 22.3051 8.15717 22.9776C8.29696 23.1187 8.4062 23.287 8.47811 23.4719C8.53665 23.6379 8.53462 23.8192 8.47239 23.9838C8.41016 24.1484 8.29172 24.2859 8.13792 24.3719C7.97766 24.4718 7.78706 24.5115 7.60013 24.4842C7.4132 24.4568 7.24209 24.364 7.11733 24.2224C6.66267 23.7356 6.22512 23.2328 5.78116 22.7353C5.47947 22.3979 5.17245 22.0638 4.88039 21.7179C4.46317 21.2247 4.45246 20.6781 4.86969 20.1987C5.59572 19.3653 6.33176 18.5397 7.07776 17.7219C7.42224 17.3419 7.909 17.3088 8.25454 17.6152C8.60009 17.9216 8.61613 18.4094 8.28021 18.7895C7.65545 19.4995 7.02106 20.2019 6.35565 20.9492Z" fill="#E33E5D"/>
<path d="M13.8432 17.5627C13.6431 18.4168 13.4656 19.1748 13.2837 19.9381C12.9381 21.3868 12.6011 22.8377 12.2321 24.28C12.1603 24.5443 12.014 24.7826 11.8106 24.9665C11.5602 25.18 11.2307 25.1426 10.9547 24.9483C10.8168 24.8629 10.7104 24.7351 10.6515 24.5842C10.5927 24.4332 10.5846 24.2673 10.6284 24.1113C10.9137 22.9071 11.199 21.7036 11.4843 20.5007C11.7218 19.5047 11.9528 18.5076 12.201 17.5115C12.3722 16.8272 13.074 16.5592 13.5361 17.0076C13.6923 17.1624 13.7597 17.4079 13.8432 17.5627Z" fill="#E33E5D"/>
<path d="M12.1347 29.6404C12.2415 29.64 12.3472 29.6613 12.4455 29.7028C12.5439 29.7443 12.6327 29.8052 12.7068 29.8819C12.7809 29.9587 12.8386 30.0495 12.8765 30.1491C12.9145 30.2487 12.9318 30.3549 12.9274 30.4614C12.9216 30.6699 12.8347 30.8679 12.6852 31.0135C12.5356 31.1592 12.3351 31.2411 12.1262 31.2418C11.9105 31.2405 11.7039 31.1551 11.5504 31.0039C11.397 30.8528 11.3087 30.6477 11.3046 30.4326C11.3065 30.326 11.3296 30.2209 11.3724 30.1233C11.4153 30.0257 11.4771 29.9375 11.5543 29.8639C11.6314 29.7903 11.7225 29.7326 11.8221 29.6942C11.9217 29.6559 12.028 29.6376 12.1347 29.6404Z" fill="#E33E5D"/>
<path d="M27.5923 8.86423C26.378 8.86423 25.1638 8.88238 23.9496 8.86423C23.3987 8.85163 22.8649 8.67092 22.42 8.34644C21.9752 8.02197 21.6405 7.5693 21.4612 7.04934C21.2811 6.53692 21.2612 5.98194 21.4043 5.458C21.5474 4.93406 21.8467 4.4659 22.2625 4.1156C22.7498 3.68962 23.3767 3.45678 24.0245 3.46117C26.3994 3.45369 28.7744 3.44302 31.1493 3.46117C32.7241 3.47505 33.8955 4.67502 33.8805 6.20167C33.8677 7.69629 32.6791 8.84608 31.114 8.87063H27.5923V8.86423ZM27.6286 5.07216C26.4411 5.07216 25.2537 5.06042 24.0673 5.07216C23.3933 5.08177 22.9215 5.55257 22.9247 6.15896C22.9279 6.76535 23.3997 7.2447 24.0694 7.24791C26.423 7.26072 28.7647 7.25645 31.1119 7.24791C31.5901 7.24791 31.9677 7.04293 32.172 6.59668C32.5133 5.85791 31.9838 5.08284 31.1097 5.06896C29.949 5.05721 28.7883 5.0711 27.6286 5.07216Z" fill="#E33E5D"/>
<path d="M17.2194 6.14811C17.2206 6.50433 17.1513 6.85727 17.0155 7.18672C16.8798 7.51618 16.6802 7.81568 16.4283 8.06806C16.1764 8.32044 15.8771 8.52075 15.5475 8.65752C15.2179 8.7943 14.8645 8.86484 14.5075 8.86512C13.7934 8.85956 13.1099 8.57442 12.6043 8.07107C12.0987 7.56772 11.8114 6.88639 11.8041 6.17373C11.8055 5.45429 12.092 4.76461 12.6011 4.25519C13.1102 3.74577 13.8005 3.45797 14.5214 3.45459C15.2355 3.4599 15.9188 3.74542 16.4237 4.24944C16.9286 4.75346 17.2144 5.43548 17.2194 6.14811ZM15.6094 6.17373C15.6097 5.88386 15.4949 5.60568 15.2903 5.40002C15.0856 5.19435 14.8076 5.07794 14.5171 5.07625C14.2338 5.0745 13.9611 5.18402 13.758 5.38116C13.5548 5.5783 13.4375 5.84724 13.4313 6.12995C13.4267 6.27336 13.4507 6.41625 13.5017 6.5504C13.5527 6.68454 13.6298 6.80729 13.7285 6.91158C13.8272 7.01587 13.9456 7.09963 14.077 7.15805C14.2083 7.21648 14.3499 7.2484 14.4936 7.25199C14.7838 7.25294 15.0628 7.14075 15.2713 6.93932C15.4797 6.73789 15.601 6.46317 15.6094 6.17373Z" fill="#E33E5D"/>
<path d="M10.1952 6.15238C10.197 6.50869 10.1281 6.86183 9.99252 7.19143C9.85689 7.52104 9.65721 7.82058 9.40499 8.07278C9.15277 8.32497 8.853 8.52483 8.52298 8.66082C8.19297 8.79682 7.83922 8.86626 7.48218 8.86513C6.76825 8.8609 6.08498 8.57513 5.58135 8.07014C5.07773 7.56516 4.79462 6.88193 4.79379 6.16947C4.79224 5.81323 4.86125 5.4602 4.99688 5.13067C5.13251 4.80115 5.3321 4.50162 5.58412 4.24933C5.83615 3.99703 6.13565 3.79694 6.46543 3.66055C6.7952 3.52416 7.14876 3.45417 7.50574 3.45459C8.21978 3.45993 8.90284 3.74632 9.40646 4.25149C9.91007 4.75666 10.1935 5.4398 10.1952 6.15238ZM8.57768 6.14171C8.57647 5.99805 8.54646 5.85607 8.48945 5.72415C8.43244 5.59223 8.34956 5.47303 8.24569 5.37355C8.14182 5.27407 8.01906 5.19632 7.88463 5.1449C7.7502 5.09348 7.60682 5.06942 7.46293 5.07413C7.17971 5.08137 6.91057 5.1989 6.71305 5.40159C6.51553 5.60429 6.40533 5.87605 6.40598 6.15878C6.40823 6.4482 6.52473 6.72506 6.73021 6.92932C6.93569 7.13357 7.21357 7.24875 7.50359 7.24987C7.79302 7.24425 8.06843 7.12454 8.26969 6.9169C8.47095 6.70926 8.58169 6.43057 8.57768 6.14171Z" fill="#E33E5D"/>
<path d="M25.7618 28.7138C25.7609 28.0672 25.8879 27.4267 26.1355 26.8292C26.3832 26.2317 26.7467 25.6889 27.2051 25.2319C27.6635 24.7749 28.2079 24.4128 28.8069 24.1663C29.4059 23.9198 30.0478 23.7937 30.6958 23.7954C32.0042 23.7985 33.258 24.319 34.1826 25.2429C35.1072 26.1668 35.6272 27.4188 35.6286 28.7245C35.6163 30.0231 35.0939 31.2651 34.1737 32.1835C33.2534 33.1018 32.0089 33.6231 30.7075 33.6354C29.3983 33.6351 28.1427 33.1169 27.2156 32.1944C26.2886 31.2719 25.7658 30.0203 25.7618 28.7138ZM27.3804 28.7138C27.3804 29.5888 27.7276 30.4281 28.3461 31.0483C28.9646 31.6685 29.804 32.0191 30.6808 32.0233C31.558 32.0209 32.399 31.674 33.022 31.0577C33.645 30.4414 33.9999 29.6052 34.01 28.7298C34.0116 28.293 33.9264 27.8603 33.7596 27.4565C33.5928 27.0527 33.3475 26.6858 33.0379 26.3771C32.7283 26.0684 32.3606 25.8238 31.9558 25.6576C31.5511 25.4914 31.1174 25.4067 30.6797 25.4086C30.2452 25.4077 29.8149 25.4925 29.4133 25.6582C29.0118 25.8238 28.647 26.067 28.34 26.3737C28.0329 26.6804 27.7896 27.0447 27.624 27.4455C27.4584 27.8464 27.3738 28.276 27.3751 28.7095L27.3804 28.7138Z" fill="#E33E5D"/>
</g>
<defs>
<clipPath id="clip0_27_106">
<rect width="41" height="39" fill="white"/>
</clipPath>
</defs>
</svg>
