<svg width="638" height="487" viewBox="0 0 638 487" fill="none" xmlns="http://www.w3.org/2000/svg">
<path fill-rule="evenodd" clip-rule="evenodd" d="M91.0495 415.977C91.0495 434.844 61.5745 447.035 42.7581 447.035C38.2789 447.043 33.8419 446.167 29.701 444.455C25.5602 442.744 21.7968 440.232 18.6259 437.062C15.455 433.892 12.939 430.127 11.2216 425.982C9.50422 421.838 8.61918 417.394 8.61719 412.907C8.61719 394.055 23.8654 370.345 42.6971 370.345C61.5287 370.345 91.0495 397.125 91.0495 415.977Z" fill="white"/>
<path d="M369.377 467.094C489.154 467.094 586.253 369.812 586.253 249.809C586.253 129.806 489.154 32.5247 369.377 32.5247C249.599 32.5247 152.5 129.806 152.5 249.809C152.5 369.812 249.599 467.094 369.377 467.094Z" fill="#F2F2F2"/>
<path d="M439.64 487C438.664 487 437.673 487 436.591 487C413.398 486.099 394.658 478.017 380.919 462.954C367.562 448.166 359.327 427.053 356.415 400.807C342.583 403.071 328.972 406.526 315.733 411.134L314.772 408.583C328.236 403.89 342.083 400.384 356.156 398.103C355.256 387.969 355.082 377.784 355.637 367.626C356.339 353.785 349.736 343.182 336.043 336.094C293.348 314.019 186.61 332.351 139.218 369.917L137.541 367.778C159.605 350.271 197.009 335.483 237.555 328.211C279.594 320.664 315.946 322.65 337.294 333.68C352.024 341.319 359.114 352.761 358.352 367.763C357.81 377.728 357.973 387.718 358.84 397.66C382.292 393.978 411.858 392.695 439.244 401.159C475.382 412.357 488.282 436.678 484.989 455.804C481.695 474.931 464.083 487 439.64 487ZM359.114 400.395C361.859 426.091 369.94 446.745 383.008 461.06C396.076 475.374 414.328 483.349 436.774 484.22C461.278 485.167 479.179 473.846 482.336 455.377C485.385 437.411 473.004 414.511 438.436 403.801C411.461 395.445 382.2 396.759 359.114 400.395Z" fill="url(#paint0_linear_382_1718)"/>
<path fill-rule="evenodd" clip-rule="evenodd" d="M425.139 138.593L420.016 261.787L418.216 305.143C418.114 307.384 417.154 309.5 415.535 311.05C413.917 312.601 411.764 313.467 409.525 313.469H109.255C106.998 313.47 104.828 312.593 103.204 311.023C101.58 309.452 100.627 307.311 100.548 305.051L95.2573 138.532C95.2164 137.362 95.4108 136.196 95.829 135.103C96.2473 134.01 96.8808 133.013 97.6918 132.171C98.5028 131.328 99.4747 130.658 100.55 130.2C101.625 129.741 102.781 129.504 103.949 129.503H416.417C417.593 129.5 418.757 129.736 419.84 130.196C420.923 130.656 421.901 131.331 422.717 132.181C423.532 133.03 424.166 134.036 424.583 135.138C424.999 136.24 425.188 137.416 425.139 138.593Z" fill="url(#paint1_linear_382_1718)"/>
<path fill-rule="evenodd" clip-rule="evenodd" d="M107.273 139.051L109.942 292.982L409.678 292.692L415.167 138.425L107.273 139.051Z" fill="url(#paint2_linear_382_1718)"/>
<path fill-rule="evenodd" clip-rule="evenodd" d="M100.579 305.082V301.262L418.476 299.414L418.216 305.173C418.216 305.173 418.308 312.888 409.51 313.499H109.255C109.255 313.499 100.869 313.026 100.579 305.082Z" fill="url(#paint3_radial_382_1718)"/>
<path d="M390.434 309.054C391.866 309.054 393.026 307.891 393.026 306.456C393.026 305.022 391.866 303.859 390.434 303.859C389.002 303.859 387.842 305.022 387.842 306.456C387.842 307.891 389.002 309.054 390.434 309.054Z" fill="#FDFA3B"/>
<path fill-rule="evenodd" clip-rule="evenodd" d="M231.287 313.499L238.012 345.23H277.718L284.244 313.499H231.287Z" fill="url(#paint4_linear_382_1718)"/>
<g style="mix-blend-mode:multiply" opacity="0.5">
<path fill-rule="evenodd" clip-rule="evenodd" d="M233.635 324.529L280.981 329.357L284.244 313.499H231.287L233.635 324.529Z" fill="#3A1D36"/>
</g>
<path d="M305.166 345.229H208.232V351.294H305.166V345.229Z" fill="url(#paint5_radial_382_1718)"/>
<path fill-rule="evenodd" clip-rule="evenodd" d="M305.166 345.229L278.39 341.991H237.326L208.232 345.229H305.166Z" fill="url(#paint6_radial_382_1718)"/>
<g style="mix-blend-mode:soft-light" opacity="0.8">
<path fill-rule="evenodd" clip-rule="evenodd" d="M282.309 351.294V345.229H303.458L302.162 351.294H282.309Z" fill="#F9F8F9"/>
</g>
<g style="mix-blend-mode:soft-light" opacity="0.8">
<path fill-rule="evenodd" clip-rule="evenodd" d="M425.139 138.593L420.031 261.787L418.506 274.298L413.062 267.256L417.637 136.576H257.987L250.866 129.427H416.463C417.642 129.429 418.808 129.672 419.891 130.139C420.973 130.607 421.95 131.29 422.761 132.147C423.572 133.004 424.201 134.018 424.61 135.126C425.019 136.234 425.199 137.413 425.139 138.593Z" fill="#F9F8F9"/>
</g>
<g style="mix-blend-mode:soft-light" opacity="0.5">
<path fill-rule="evenodd" clip-rule="evenodd" d="M267.533 138.73L411.325 242.675L415.167 138.425L267.533 138.73Z" fill="#F9F8F9"/>
</g>
<g style="mix-blend-mode:soft-light" opacity="0.8">
<path fill-rule="evenodd" clip-rule="evenodd" d="M98.582 240.964L107.319 247.075L108.844 294.006H184.293L201.798 313.484H109.256C107.217 313.493 105.238 312.797 103.652 311.514C102.066 310.231 100.97 308.439 100.549 306.441L98.582 240.964Z" fill="#F9F8F9"/>
</g>
<g style="mix-blend-mode:soft-light" opacity="0.5">
<path fill-rule="evenodd" clip-rule="evenodd" d="M109.225 251.688L170.203 292.921L109.941 292.982L109.225 251.688Z" fill="#F9F8F9"/>
</g>
<path d="M311.356 266.37C283.909 266.37 265.291 246.51 248.838 228.911C235.633 214.779 223.175 201.412 209.025 201.412C203.163 201.565 197.593 204.005 193.501 208.213C189.409 212.421 187.119 218.063 187.119 223.938C187.119 229.813 189.409 235.455 193.501 239.663C197.593 243.87 203.163 246.311 209.025 246.464V266.324C185.695 266.324 166.711 254.484 166.711 231.11C166.711 202.573 185.695 181.521 209.025 181.521C231.775 181.521 247.801 198.693 263.324 215.283C278.298 231.309 292.448 246.448 311.311 246.448L311.356 266.37Z" fill="#C4234A"/>
<path d="M311.356 273.565C283.909 273.565 265.291 253.705 248.838 236.106C235.633 221.975 223.175 208.607 209.025 208.607C203.163 208.76 197.593 211.201 193.501 215.408C189.409 219.616 187.119 225.259 187.119 231.133C187.119 237.008 189.409 242.65 193.501 246.858C197.593 251.066 203.163 253.506 209.025 253.659V273.519C197.94 273.308 187.379 268.749 179.614 260.82C171.849 252.891 167.499 242.226 167.499 231.118C167.499 220.01 171.849 209.345 179.614 201.416C187.379 193.487 197.94 188.928 209.025 188.717C231.775 188.717 247.801 205.888 263.324 222.479C278.298 238.504 292.448 253.644 311.311 253.644L320.246 264.246L311.356 273.565Z" fill="#E33B5C"/>
<path d="M320.292 264.292L311.357 253.69V246.51C314.359 246.588 317.346 246.063 320.142 244.966C322.938 243.87 325.487 242.223 327.638 240.123C329.788 238.024 331.498 235.514 332.665 232.742C333.832 229.97 334.434 226.992 334.434 223.984C334.434 220.975 333.832 217.997 332.665 215.225C331.498 212.453 329.788 209.943 327.638 207.844C325.487 205.744 322.938 204.098 320.142 203.001C317.346 201.904 314.359 201.379 311.357 201.458C296.337 201.458 281.058 216.735 266.283 231.462C249.083 248.633 231.242 266.37 209.071 266.37V246.51C223.1 246.51 237.281 232.363 252.285 217.376C269.912 199.777 288.134 181.582 311.357 181.582C334.58 181.582 353.671 202.634 353.671 231.171C353.671 247.319 343.622 264.292 320.292 264.292Z" fill="#C4234A"/>
<path d="M311.357 273.565L320.292 264.292L311.357 253.69C314.359 253.768 317.346 253.243 320.142 252.147C322.938 251.05 325.487 249.403 327.638 247.304C329.788 245.204 331.498 242.694 332.665 239.922C333.832 237.15 334.434 234.172 334.434 231.164C334.434 228.155 333.832 225.177 332.665 222.405C331.498 219.633 329.788 217.124 327.638 215.024C325.487 212.925 322.938 211.278 320.142 210.181C317.346 209.084 314.359 208.56 311.357 208.638C296.337 208.638 281.058 223.915 266.283 238.642C249.083 255.813 231.303 273.565 209.071 273.565L200.608 264.109L209.071 253.69C223.1 253.69 237.281 239.543 252.285 224.557C269.912 206.957 288.134 188.763 311.357 188.763C322.442 188.973 333.002 193.533 340.768 201.462C348.533 209.391 352.883 220.056 352.883 231.164C352.883 242.272 348.533 252.937 340.768 260.866C333.002 268.794 322.442 273.354 311.357 273.565Z" fill="#F46789"/>
<g style="mix-blend-mode:multiply" opacity="0.5">
<path d="M266.496 253.827L278.908 238.321L280.31 232.394L276.361 228.758L258.566 246.265L266.496 253.827Z" fill="#541D36"/>
</g>
<path d="M301.384 189.893L304.876 182.056C312.311 180.952 319.907 181.935 326.818 184.897L328.068 192.23C328.068 192.23 318.279 186.425 301.384 189.893Z" fill="#D3406A"/>
<g style="mix-blend-mode:soft-light">
<path d="M197.421 190.412L203.962 181.934C213.058 181.001 222.228 182.737 230.357 186.929V194.109C230.357 194.109 214.362 186.578 197.421 190.412Z" fill="white"/>
</g>
<path d="M160.52 158.896H121.759V162.456H160.52V158.896Z" fill="white"/>
<path d="M180.236 165.435H121.759V168.994H180.236V165.435Z" fill="white"/>
<path d="M160.52 152.617H121.759V156.177H160.52V152.617Z" fill="white"/>
<path d="M145.012 145.483H121.759V149.042H145.012V145.483Z" fill="white"/>
<path d="M167.946 158.682H162.99V162.242H167.946V158.682Z" fill="white"/>
<path d="M160.52 178.756H121.759V182.316H160.52V178.756Z" fill="white"/>
<path d="M154.848 185.295H121.759V188.854H154.848V185.295Z" fill="white"/>
<path d="M189.019 185.295H155.931V188.854H189.019V185.295Z" fill="white"/>
<path d="M160.52 172.477H121.759V176.037H160.52V172.477Z" fill="white"/>
<path d="M167.946 178.542H162.99V182.102H167.946V178.542Z" fill="white"/>
<path d="M171.21 145.483H147.956V149.042H171.21V145.483Z" fill="white"/>
<path d="M160.52 205.781H121.759V209.341H160.52V205.781Z" fill="white"/>
<path d="M180.236 212.32H121.759V215.879H180.236V212.32Z" fill="white"/>
<path d="M160.52 199.502H121.759V203.062H160.52V199.502Z" fill="white"/>
<path d="M145.012 192.368H121.759V195.927H145.012V192.368Z" fill="white"/>
<path d="M167.946 205.567H162.99V209.127H167.946V205.567Z" fill="white"/>
<path d="M160.52 225.641H121.759V229.201H160.52V225.641Z" fill="white"/>
<path d="M154.848 232.18H121.759V235.739H154.848V232.18Z" fill="white"/>
<path d="M189.019 232.18H155.931V235.739H189.019V232.18Z" fill="white"/>
<path d="M160.52 219.362H121.759V222.922H160.52V219.362Z" fill="white"/>
<path d="M167.946 225.427H162.99V228.987H167.946V225.427Z" fill="white"/>
<path d="M160.52 272.419H121.759V275.979H160.52V272.419Z" fill="white"/>
<path d="M154.848 278.958H121.759V282.517H154.848V278.958Z" fill="white"/>
<path d="M189.019 278.958H155.931V282.517H189.019V278.958Z" fill="white"/>
<path d="M160.52 266.141H121.759V269.7H160.52V266.141Z" fill="white"/>
<path d="M167.946 272.205H162.99V275.765H167.946V272.205Z" fill="white"/>
<path d="M148.748 239.986H121.759V243.546H148.748V239.986Z" fill="white"/>
<path d="M141.139 253.308H121.759V256.867H141.139V253.308Z" fill="white"/>
<path d="M154.848 259.846H121.759V263.406H154.848V259.846Z" fill="white"/>
<path d="M189.019 259.846H155.931V263.406H189.019V259.846Z" fill="white"/>
<path d="M160.52 247.029H121.759V250.589H160.52V247.029Z" fill="white"/>
<path d="M167.946 253.094H144.997V256.654H167.946V253.094Z" fill="white"/>
<path d="M167.946 239.986H162.99V243.546H167.946V239.986Z" fill="white"/>
<path d="M171.21 192.368H147.956V195.927H171.21V192.368Z" fill="white"/>
<path d="M205.305 153.198L206.143 161.524L316.297 161.371L318.218 153.198H205.305Z" fill="white"/>
<g style="mix-blend-mode:multiply" opacity="0.3">
<path fill-rule="evenodd" clip-rule="evenodd" d="M421.48 226.542L420.397 252.483L411.324 251.597L414.511 226.695L421.48 226.542Z" fill="#803646"/>
</g>
<g style="mix-blend-mode:multiply" opacity="0.3">
<path fill-rule="evenodd" clip-rule="evenodd" d="M97.2402 195.805C107.485 197.803 116.805 203.081 123.798 210.844C130.79 218.607 135.077 228.435 136.012 238.85C136.948 249.265 134.482 259.702 128.986 268.591C123.489 277.481 115.259 284.341 105.535 288.139C103.709 288.857 101.84 289.459 99.9392 289.942L97.2402 195.805Z" fill="#490042"/>
</g>
<path d="M123.538 236.397C136.619 208.771 124.871 175.752 97.2973 162.646C69.7237 149.541 36.7666 161.311 23.6854 188.937C10.6043 216.562 22.3528 249.581 49.9264 262.687C77.5 275.793 110.457 264.022 123.538 236.397Z" fill="#771443"/>
<path d="M91.3229 262.224C120.038 251.969 135.213 220.88 125.217 192.786C115.221 164.692 83.8394 150.231 55.1239 160.487C26.4084 170.743 11.2333 201.831 21.2294 229.925C31.2254 258.019 62.6074 272.48 91.3229 262.224Z" fill="url(#paint7_linear_382_1718)"/>
<g style="mix-blend-mode:soft-light" opacity="0.5">
<path fill-rule="evenodd" clip-rule="evenodd" d="M62.5046 166.305L61.2695 158.789C61.2695 158.789 83.9894 152.449 102.852 165.404L97.4384 171.515L62.5046 166.305Z" fill="#F9F8F9"/>
</g>
<g style="mix-blend-mode:soft-light" opacity="0.5">
<path fill-rule="evenodd" clip-rule="evenodd" d="M45.2122 249.061L42.2998 256.776C46.7826 260.21 52.004 262.549 57.5481 263.605L59.7286 255.798L45.2122 249.061Z" fill="#F9F8F9"/>
</g>
<path d="M88.5474 254.51C112.987 245.781 125.907 219.332 117.404 195.435C108.901 171.537 82.1952 159.24 57.7553 167.968C33.3154 176.697 20.396 203.146 28.899 227.044C37.402 250.942 64.1075 263.239 88.5474 254.51Z" fill="#771443"/>
<path fill-rule="evenodd" clip-rule="evenodd" d="M117.764 196.462C126.075 219.821 112.992 245.837 88.5485 254.515C64.1055 263.192 37.5583 251.459 29.248 228.024C28.7393 226.597 28.3066 225.144 27.9518 223.67V223.365C27.9518 223.075 27.8146 222.8 27.7536 222.509C23.1791 200.709 36.0182 177.992 58.5399 169.941C66.971 166.834 76.1134 166.207 84.8886 168.134C93.6639 170.061 101.706 174.462 108.066 180.819C110.24 183.06 112.168 185.528 113.815 188.182C115.421 190.794 116.745 193.57 117.764 196.462Z" fill="url(#paint8_radial_382_1718)"/>
<path fill-rule="evenodd" clip-rule="evenodd" d="M76.4865 211.189C76.7272 211.777 76.7868 212.423 76.6575 213.045C76.5282 213.666 76.2159 214.235 75.761 214.677C75.306 215.119 74.7293 215.415 74.1051 215.525C73.481 215.636 72.8381 215.557 72.2593 215.298C71.6805 215.039 71.1925 214.612 70.8582 214.073C70.5238 213.533 70.3583 212.906 70.3833 212.271C70.4083 211.636 70.6225 211.024 70.9982 210.513C71.374 210.001 71.8941 209.614 72.4914 209.402C72.8703 209.25 73.2756 209.176 73.6835 209.184C74.0914 209.193 74.4935 209.283 74.866 209.449C75.2386 209.616 75.574 209.856 75.8523 210.155C76.1306 210.454 76.3462 210.805 76.4865 211.189Z" fill="#9F93CB"/>
<path d="M56.9383 175.227L60.7504 185.921L58.8596 186.593L55.6879 177.763L54.6205 178.145L53.9648 176.327L56.9383 175.227Z" fill="#290045"/>
<path d="M70.0674 180.589L70.723 182.407L63.2514 185.066L63.6326 184.271C64.3188 182.82 64.8525 181.643 65.1574 180.757C65.5082 179.921 65.7738 179.051 65.9503 178.16C66.1455 177.445 66.1455 176.691 65.9503 175.976C65.8748 175.721 65.744 175.486 65.5674 175.288C65.3908 175.09 65.1727 174.934 64.9287 174.83C64.6875 174.727 64.4282 174.675 64.1663 174.675C63.9043 174.675 63.645 174.727 63.4039 174.83C63.1536 174.899 62.9209 175.02 62.7211 175.186C62.5213 175.352 62.359 175.559 62.245 175.792C62.148 175.985 62.0901 176.195 62.0744 176.41C62.0587 176.625 62.0855 176.841 62.1535 177.045C62.2459 177.37 62.403 177.673 62.6153 177.935C62.8275 178.198 63.0905 178.415 63.3886 178.573L62.6109 180.1C62.079 179.986 61.601 179.695 61.2539 179.276C60.8594 178.878 60.5483 178.405 60.3389 177.885C60.1229 177.293 60.0807 176.652 60.217 176.037C60.3463 175.371 60.6638 174.755 61.1319 174.265C61.6656 173.698 62.3309 173.273 63.0684 173.027C63.7053 172.784 64.3976 172.726 65.066 172.859C65.7 172.972 66.2909 173.257 66.7738 173.684C67.2431 174.1 67.6042 174.625 67.8259 175.212C68.0419 175.85 68.1198 176.527 68.0546 177.198C67.9807 177.892 67.8429 178.577 67.6429 179.245C67.4294 179.917 67.1092 180.773 66.6975 181.873L70.0674 180.589Z" fill="#290045"/>
<path d="M84.6443 243.943C85.2666 244.076 85.8439 244.368 86.3196 244.791C86.7954 245.214 87.1534 245.754 87.3585 246.357C87.6113 247.03 87.6643 247.762 87.511 248.465C87.3532 249.138 87.0159 249.756 86.5351 250.252C86.0685 250.762 85.4811 251.146 84.8273 251.368C84.1229 251.639 83.3557 251.703 82.6163 251.551C81.8734 251.405 81.1895 251.044 80.6493 250.512C80.0196 249.908 79.5483 249.158 79.277 248.328C78.8178 247.017 78.8178 245.589 79.277 244.279C79.8338 242.74 80.6428 241.305 81.6709 240.032L83.4245 240.964C82.714 241.634 82.1212 242.419 81.6709 243.286C81.2973 244.016 81.0597 244.808 80.9695 245.624C81.3776 244.887 82.0558 244.339 82.8603 244.096C83.4307 243.886 84.0467 243.833 84.6443 243.943ZM85.3458 248.679C85.4593 248.424 85.5179 248.148 85.5179 247.869C85.5179 247.59 85.4593 247.314 85.3458 247.06C85.2712 246.804 85.1408 246.569 84.9641 246.371C84.7874 246.173 84.5688 246.017 84.3241 245.914C83.8337 245.723 83.2897 245.723 82.7993 245.914C82.2932 246.083 81.8652 246.431 81.5946 246.892C81.4679 247.089 81.3882 247.313 81.3618 247.546C81.3353 247.779 81.3629 248.015 81.4422 248.236L81.5489 248.572C81.6623 248.891 81.8632 249.172 82.1284 249.382C82.4074 249.611 82.7408 249.763 83.0962 249.825C83.4516 249.887 83.8168 249.855 84.1563 249.733C84.6758 249.552 85.1032 249.173 85.3458 248.679Z" fill="#290045"/>
<path d="M37.3902 218.461C38.0956 218.578 38.7581 218.878 39.3115 219.332C39.8859 219.803 40.3143 220.428 40.5466 221.135C40.9226 222.144 41.0175 223.237 40.8211 224.297C40.6433 225.319 40.2871 226.301 39.7689 227.199C39.1602 228.223 38.488 229.208 37.7561 230.148L36.0026 229.216C36.6627 228.56 37.26 227.844 37.7867 227.077C38.2274 226.453 38.5765 225.769 38.8235 225.045C38.4002 225.593 37.8204 225.998 37.1614 226.206C36.614 226.405 36.0214 226.442 35.4536 226.313C34.8504 226.186 34.2892 225.907 33.8222 225.504C33.3424 225.094 32.975 224.568 32.7548 223.976C32.4802 223.261 32.4115 222.483 32.5565 221.73C32.6966 221.042 33.0177 220.404 33.4866 219.882C33.9768 219.353 34.5889 218.952 35.2695 218.715C35.95 218.478 36.6782 218.412 37.3902 218.522V218.461ZM35.7129 224.312C36.2022 224.509 36.7485 224.509 37.2378 224.312C37.7541 224.144 38.1856 223.783 38.4423 223.304C38.567 223.085 38.6425 222.842 38.6636 222.592C38.6846 222.341 38.6508 222.089 38.5644 221.853L38.4423 221.516C38.3521 221.262 38.2108 221.03 38.0273 220.833C37.8437 220.636 37.6216 220.478 37.3749 220.371C37.1392 220.255 36.8825 220.189 36.6203 220.176C36.3582 220.162 36.0962 220.203 35.8501 220.294C35.5913 220.381 35.3526 220.519 35.1482 220.7C34.9438 220.881 34.7781 221.102 34.6608 221.348C34.5467 221.614 34.4878 221.9 34.4878 222.189C34.4878 222.478 34.5467 222.763 34.6608 223.029C34.7361 223.305 34.8687 223.562 35.05 223.783C35.2313 224.004 35.4572 224.185 35.7129 224.312Z" fill="#290045"/>
<path d="M109.073 197.776C109.818 198.244 110.362 198.974 110.597 199.823C110.855 200.511 110.913 201.258 110.765 201.977C110.624 202.647 110.302 203.265 109.835 203.765C109.355 204.276 108.759 204.664 108.097 204.895C107.539 205.093 106.949 205.182 106.358 205.155C105.829 205.127 105.31 204.992 104.834 204.758L105.23 202.848C105.558 203.037 105.921 203.157 106.297 203.199C106.691 203.265 107.096 203.228 107.472 203.092C107.724 203.009 107.956 202.875 108.155 202.699C108.355 202.523 108.516 202.309 108.63 202.069C108.744 201.806 108.803 201.523 108.803 201.236C108.803 200.95 108.744 200.666 108.63 200.404C108.555 200.158 108.431 199.93 108.266 199.733C108.101 199.537 107.898 199.375 107.67 199.258C107.429 199.155 107.169 199.102 106.907 199.102C106.645 199.102 106.386 199.155 106.145 199.258C105.916 199.341 105.692 199.438 105.474 199.548L104.91 199.915L105.779 195.622L102.729 196.691L102.089 194.858L107.792 192.826L106.907 197.577C107.629 197.375 108.4 197.445 109.073 197.776Z" fill="#290045"/>
<g style="mix-blend-mode:multiply" opacity="0.5">
<path fill-rule="evenodd" clip-rule="evenodd" d="M71.1348 213.756C71.83 214.58 72.7033 215.236 73.6887 215.673C74.674 216.109 75.7456 216.316 76.8224 216.276L89.4327 181.659C89.1497 181.349 88.806 181.101 88.4229 180.93C88.0399 180.759 87.6257 180.669 87.2064 180.666L71.1348 213.756Z" fill="#7D4270"/>
</g>
<path fill-rule="evenodd" clip-rule="evenodd" d="M70.2812 211.525C70.9743 212.354 71.8468 213.013 72.8324 213.452C73.8181 213.892 74.8907 214.1 75.9688 214.061L88.5334 179.444C88.2504 179.134 87.9067 178.885 87.5236 178.715C87.1406 178.544 86.7265 178.454 86.3072 178.451L70.2812 211.525Z" fill="url(#paint9_linear_382_1718)"/>
<path d="M71.2033 215.901L54.2598 245.244L55.3685 245.887L72.312 216.544L71.2033 215.901Z" fill="#DD504C"/>
<g style="mix-blend-mode:multiply" opacity="0.5">
<path fill-rule="evenodd" clip-rule="evenodd" d="M71.2266 212.259C72.2574 214.149 73.4244 215.962 74.7184 217.682L98.0788 208.836C98.1201 208.533 98.1009 208.224 98.0224 207.927C97.9439 207.631 97.8076 207.353 97.6214 207.11L71.2266 212.259Z" fill="#7D4270"/>
</g>
<path fill-rule="evenodd" clip-rule="evenodd" d="M71.2258 211.021C71.1376 213.175 71.701 215.305 72.8421 217.132L98.078 207.569C98.1193 207.265 98.1001 206.956 98.0216 206.66C97.9431 206.363 97.8068 206.085 97.6206 205.842L71.2258 211.021Z" fill="url(#paint10_linear_382_1718)"/>
<path fill-rule="evenodd" clip-rule="evenodd" d="M78.4236 211.052C78.7574 211.991 78.8059 213.008 78.5629 213.974C78.3199 214.941 77.7963 215.814 77.0583 216.482C76.3204 217.151 75.4012 217.585 74.4169 217.731C73.4326 217.876 72.4273 217.726 71.5282 217.299C70.6292 216.872 69.8766 216.188 69.3656 215.332C68.8546 214.477 68.6083 213.489 68.6575 212.494C68.7068 211.498 69.0496 210.539 69.6425 209.739C70.2354 208.938 71.0519 208.332 71.9887 207.996C73.2466 207.55 74.6297 207.621 75.8356 208.193C77.0415 208.766 77.972 209.794 78.4236 211.052Z" fill="url(#paint11_linear_382_1718)"/>
<path fill-rule="evenodd" clip-rule="evenodd" d="M75.9687 211.922C76.1274 212.382 76.146 212.878 76.022 213.347C75.898 213.817 75.6371 214.239 75.2726 214.56C74.9081 214.88 74.4566 215.085 73.9756 215.147C73.4946 215.209 73.0061 215.126 72.5723 214.909C72.1385 214.691 71.7792 214.35 71.5403 213.927C71.3013 213.504 71.1936 213.019 71.2308 212.535C71.268 212.051 71.4485 211.588 71.7492 211.207C72.0499 210.826 72.4571 210.543 72.919 210.395C73.5258 210.2 74.1845 210.251 74.7544 210.536C75.3243 210.822 75.7601 211.319 75.9687 211.922Z" fill="url(#paint12_radial_382_1718)"/>
<g style="mix-blend-mode:multiply" opacity="0.5">
<path fill-rule="evenodd" clip-rule="evenodd" d="M108.066 180.819C110.145 183.123 112.056 185.574 113.784 188.151C112.778 186.96 96.3557 167.925 63.7701 179.566C54.2571 182.787 45.8469 188.637 39.5094 196.44C33.1719 204.244 29.1653 213.684 27.9518 223.67V223.365C27.9518 223.182 27.8298 222.876 27.7536 222.509C23.1791 200.709 36.0182 177.992 58.5399 169.941C66.971 166.834 76.1134 166.207 84.8886 168.134C93.6639 170.061 101.706 174.462 108.066 180.819Z" fill="#7D4270"/>
</g>
<path fill-rule="evenodd" clip-rule="evenodd" d="M38.3965 390.083L103.156 370.33L395.207 347.659L480.384 358.246L38.3965 390.083Z" fill="#DD527A"/>
<path style="mix-blend-mode:screen" fill-rule="evenodd" clip-rule="evenodd" d="M395.222 364.998C395.222 372.636 392.889 378.747 390.022 378.747C387.155 378.747 384.822 372.636 384.822 364.998C384.822 357.359 387.14 351.249 390.022 351.249C392.904 351.249 395.222 357.405 395.222 364.998Z" fill="url(#paint13_radial_382_1718)"/>
<g style="mix-blend-mode:multiply" opacity="0.5">
<path fill-rule="evenodd" clip-rule="evenodd" d="M317.044 353.739L196.689 374.256L83.6836 376.272L103.156 370.33L317.044 353.739Z" fill="#932E42"/>
</g>
<path fill-rule="evenodd" clip-rule="evenodd" d="M42.9258 403.343L45.9754 409.882L480.384 386.187V377.922L42.9258 403.343Z" fill="url(#paint14_radial_382_1718)"/>
<path fill-rule="evenodd" clip-rule="evenodd" d="M138.867 382.841L465.867 355.679L480.383 358.245L138.867 382.841Z" fill="#D3406A"/>
<path fill-rule="evenodd" clip-rule="evenodd" d="M395.207 347.659V364.372L103.324 385.775L103.156 370.33L395.207 347.659Z" fill="#DD527A"/>
<path fill-rule="evenodd" clip-rule="evenodd" d="M42.9252 403.343L38.3965 390.083L480.384 358.245V377.922L42.9252 403.343Z" fill="#E33B5C"/>
<path fill-rule="evenodd" clip-rule="evenodd" d="M414.511 381.742L411.324 362.89L468.856 358.23L466.935 378.09L414.511 381.742Z" fill="#DD527A"/>
<path fill-rule="evenodd" clip-rule="evenodd" d="M57.4877 402.488L53.6299 388.983L92.3148 386.187L93.4584 400.41L57.4877 402.488Z" fill="#F46789"/>
<path style="mix-blend-mode:screen" d="M400.15 316.179C405.515 310.804 405.515 302.088 400.15 296.713C394.785 291.338 386.086 291.338 380.721 296.713C375.355 302.088 375.355 310.804 380.721 316.179C386.086 321.554 394.785 321.554 400.15 316.179Z" fill="url(#paint15_radial_382_1718)"/>
<path style="mix-blend-mode:screen" d="M446.598 446.295C447.111 438.711 430.152 431.382 408.718 429.925C387.285 428.469 369.493 433.437 368.979 441.021C368.466 448.606 385.425 455.935 406.859 457.391C428.293 458.848 446.085 453.88 446.598 446.295Z" fill="url(#paint16_radial_382_1718)"/>
<path style="mix-blend-mode:screen" fill-rule="evenodd" clip-rule="evenodd" d="M175.936 424.639C175.616 429.39 160.795 432.278 142.832 431.04C124.87 429.803 110.567 424.93 110.902 420.224C111.238 415.519 126.044 412.586 144.006 413.823C161.969 415.061 176.256 419.888 175.936 424.639Z" fill="url(#paint17_radial_382_1718)"/>
<path opacity="0.58" d="M602.004 437.579C602.467 437.579 602.842 437.203 602.842 436.739C602.842 436.275 602.467 435.898 602.004 435.898C601.54 435.898 601.165 436.275 601.165 436.739C601.165 437.203 601.54 437.579 602.004 437.579Z" fill="url(#paint18_linear_382_1718)"/>
<path fill-rule="evenodd" clip-rule="evenodd" d="M98.5209 427.129L95.7305 419.705L457.512 450.396L455.804 456.003L98.5209 427.129Z" fill="#014999"/>
<path fill-rule="evenodd" clip-rule="evenodd" d="M95.7305 419.705L164.82 391.549L413.2 410.019L457.512 450.396L95.7305 419.705Z" fill="#1569B5"/>
<path fill-rule="evenodd" clip-rule="evenodd" d="M110.765 417.536L446.197 445.783L448.042 437.93L408.777 407.942L169.638 390.159L111.405 408.904L110.765 417.536Z" fill="#014999"/>
<path fill-rule="evenodd" clip-rule="evenodd" d="M111.405 408.904L448.042 437.93L408.778 407.942L169.639 390.159L111.405 408.904Z" fill="#1569B5"/>
<path d="M438.74 430.826L124.519 404.688L126.303 404.107L437.673 430.002L438.74 430.826Z" fill="#E33B5C"/>
<path d="M429.287 423.601L138.38 400.227L140.011 399.692L428.22 422.791L429.287 423.601Z" fill="#E33B5C"/>
<path d="M423.035 418.972L147.925 397.141L149.587 396.606L422.165 418.177L423.035 418.972Z" fill="#E33B5C"/>
<path d="M416.646 413.151L157.974 393.917L159.803 393.321L415.777 412.357L416.646 413.151Z" fill="#E33B5C"/>
<path d="M413.2 410.019L166.757 391.076L168.053 390.663L411.339 409.515L413.2 410.019Z" fill="#E33B5C"/>
<path d="M158.4 401.861L158.126 401.204L166.086 397.92L166.07 398.302L166.208 398.607L158.4 401.861Z" fill="#E33B5C"/>
<path d="M180.879 391.833L174.319 394.57L174.595 395.232L181.154 392.495L180.879 391.833Z" fill="#E33B5C"/>
<path d="M136.565 410.982L134.827 410.921L146.95 405.864L147.239 406.536L136.565 410.982Z" fill="#E33B5C"/>
<path d="M197.865 391.87L196.003 392.818L196.328 393.458L198.19 392.51L197.865 391.87Z" fill="#E33B5C"/>
<path d="M167.534 408.262H167.443L167.458 407.865L167.306 407.575L176.851 402.671L176.958 402.686L176.943 403.053L177.095 403.374L167.534 408.262Z" fill="#E33B5C"/>
<path d="M183.621 400.028L183.53 400.013L183.545 399.646L183.393 399.325L190.59 395.659L190.925 396.3L183.621 400.028Z" fill="#E33B5C"/>
<path d="M411.211 417.466L410.725 417.993L415.773 422.672L416.26 422.145L411.211 417.466Z" fill="#E33B5C"/>
<path d="M401.936 408.761L401.449 409.288L404.428 412.046L404.915 411.519L401.936 408.761Z" fill="#E33B5C"/>
<path d="M430.324 436.678L423.142 429.436L423.63 428.917L432.077 436.739L430.324 436.678Z" fill="#E33B5C"/>
<path d="M392.533 410.81L392.001 411.291L397.058 416.905L397.59 416.424L392.533 410.81Z" fill="#E33B5C"/>
<path d="M407.237 428.092L401.184 421.401L401.443 421.171L401.458 420.805L401.611 420.82L401.717 420.927L407.771 427.603L407.237 428.092Z" fill="#E33B5C"/>
<path d="M388.375 406.153L387.844 406.635L389.472 408.435L390.003 407.952L388.375 406.153Z" fill="#E33B5C"/>
<path d="M387.445 420.377L387.232 420.362L384.487 415.779L385.112 415.397L387.766 419.827L387.461 420.026L387.445 420.377Z" fill="#E33B5C"/>
<path d="M381.239 410.355L379.607 407.621L380.217 407.254L381.864 409.989L381.239 410.355Z" fill="#E33B5C"/>
<path d="M394.917 433.363L391.028 426.702L391.654 426.335L395.923 433.439L394.917 433.363Z" fill="#E33B5C"/>
<path d="M369.147 406.765L368.461 405.1L369.132 404.825L369.818 406.49L369.147 406.765Z" fill="#E33B5C"/>
<path d="M374.828 418.988L374.164 419.259L376.745 425.596L377.409 425.325L374.828 418.988Z" fill="#E33B5C"/>
<path d="M372.715 415L372.471 414.984L370.245 409.485L370.916 409.225L373.051 414.495L372.731 414.633L372.715 415Z" fill="#E33B5C"/>
<path d="M360.234 413.544L359.553 413.767L360.957 418.08L361.639 417.858L360.234 413.544Z" fill="#E33B5C"/>
<path d="M357.863 408.553L356.994 405.818L357.68 405.589L358.565 408.323L357.863 408.553Z" fill="#E33B5C"/>
<path d="M365.106 430.765L363.002 424.303L363.688 424.074L366.174 430.872L365.106 430.765Z" fill="#E33B5C"/>
<path d="M346.61 412.662L345.573 407.59L346.29 407.453L347.312 412.509L346.61 412.662Z" fill="#E33B5C"/>
<path d="M345.588 404.274L344.887 404.422L345.006 404.99L345.708 404.842L345.588 404.274Z" fill="#E33B5C"/>
<path d="M348.188 416.69L347.485 416.833L348.736 423.001L349.438 422.858L348.188 416.69Z" fill="#E33B5C"/>
<path d="M333.678 403.931L332.962 403.965L333.09 406.727L333.806 406.694L333.678 403.931Z" fill="#E33B5C"/>
<path d="M334.557 421.787L333.841 421.821L334.139 428.169L334.854 428.136L334.557 421.787Z" fill="#E33B5C"/>
<path d="M334.052 411.61L333.336 411.644L333.533 415.81L334.249 415.776L334.052 411.61Z" fill="#E33B5C"/>
<path d="M212.165 393.071L206.052 396.877L206.43 397.487L212.543 393.68L212.165 393.071Z" fill="#E33B5C"/>
<path d="M186.255 409.213L177.85 414.446L178.228 415.056L186.633 409.822L186.255 409.213Z" fill="#E33B5C"/>
<path d="M199.875 400.608L194.281 404.093L194.66 404.702L200.254 401.218L199.875 400.608Z" fill="#E33B5C"/>
<path d="M221.845 398.152L216.563 402.121L216.993 402.696L222.276 398.727L221.845 398.152Z" fill="#E33B5C"/>
<path d="M225.874 395.873L225.737 395.857L225.752 395.491L225.554 395.201L225.767 395.048L226.194 395.628L225.874 395.873Z" fill="#E33B5C"/>
<path d="M205.365 411.318L204.893 410.768L211.77 405.589L212.197 406.169L205.365 411.318Z" fill="#E33B5C"/>
<path d="M238.051 396.411L234.812 399.055L235.264 399.612L238.503 396.968L238.051 396.411Z" fill="#E33B5C"/>
<path d="M218.924 411.86L213.355 417.385L213.86 417.896L219.429 412.37L218.924 411.86Z" fill="#E33B5C"/>
<path d="M229.831 403.118L225.386 406.746L225.838 407.303L230.283 403.675L229.831 403.118Z" fill="#E33B5C"/>
<path d="M246.158 399.806L242.105 403.997L242.62 404.497L246.673 400.305L246.158 399.806Z" fill="#E33B5C"/>
<path d="M233.483 414.037L232.965 413.518L233.346 413.136L238.53 407.789L239.049 408.293L233.483 414.037Z" fill="#E33B5C"/>
<path d="M255.831 405.123L253.015 408.926L253.59 409.354L256.407 405.551L255.831 405.123Z" fill="#E33B5C"/>
<path d="M248.899 414.679V414.663L249.616 414.725L248.899 414.679Z" fill="#E33B5C"/>
<path d="M259.65 401.296L259.07 400.868L261.159 398.057L261.48 398.225L261.754 398.455L259.65 401.296Z" fill="#E33B5C"/>
<path d="M280.563 392.602L280.516 392.681L281.132 393.054L281.179 392.976L280.563 392.602Z" fill="#E33B5C"/>
<path d="M268.052 410.268L265.053 415.642L265.678 415.993L268.677 410.619L268.052 410.268Z" fill="#E33B5C"/>
<path d="M270.811 406.719L270.186 406.368L272.671 401.922L273.296 402.274L270.811 406.719Z" fill="#E33B5C"/>
<path d="M282.705 411.684L282.019 411.425L283.528 407.468L284.214 407.712L282.705 411.684Z" fill="#E33B5C"/>
<path d="M285.953 403.16L285.282 402.915L286.395 399.952L287.051 400.257L287.005 400.364L285.953 403.16Z" fill="#E33B5C"/>
<path d="M297.292 403.872L296.078 408.543L296.772 408.724L297.985 404.052L297.292 403.872Z" fill="#E33B5C"/>
<path d="M296.546 395.86L296.504 396.023L297.198 396.202L297.24 396.04L296.546 395.86Z" fill="#E33B5C"/>
<path d="M294.202 418.498L293.501 418.391L295.011 412.509L295.712 412.677L294.202 418.498Z" fill="#E33B5C"/>
<path d="M310.016 401.824L309.794 404.825L310.509 404.878L310.731 401.877L310.016 401.824Z" fill="#E33B5C"/>
<path d="M309.454 409.619L309.151 413.702L309.866 413.755L310.168 409.672L309.454 409.619Z" fill="#E33B5C"/>
<path d="M322.485 402.796L322.482 403.025L323.199 403.035L323.202 402.806L322.485 402.796Z" fill="#E33B5C"/>
<path d="M322.375 414.844L322.281 420.587L322.998 420.599L323.092 414.856L322.375 414.844Z" fill="#E33B5C"/>
<path d="M322.337 405.767L322.265 410.639L322.981 410.65L323.053 405.777L322.337 405.767Z" fill="#E33B5C"/>
<path d="M114.669 417.872L114.684 420.026L440.556 447.631L442.248 445.492L114.669 417.872Z" fill="#F46789"/>
<g style="mix-blend-mode:soft-light" opacity="0.5">
<path fill-rule="evenodd" clip-rule="evenodd" d="M413.459 443.033L416.234 435.18L441.333 437.35L436.484 444.805L413.459 443.033Z" fill="#F9F8F9"/>
</g>
<g style="mix-blend-mode:soft-light" opacity="0.5">
<path fill-rule="evenodd" clip-rule="evenodd" d="M404.966 445.935L403.228 451.756L435.417 454.353L437.811 448.731L404.966 445.935Z" fill="#F9F8F9"/>
</g>
<path d="M467.04 89.0281C475.747 72.7587 469.641 52.4979 453.403 43.7743C437.164 35.0507 416.941 41.1676 408.234 57.4371C399.526 73.7066 405.632 93.9675 421.871 102.691C438.11 111.415 458.333 105.298 467.04 89.0281Z" fill="#5C90FB"/>
<path fill-rule="evenodd" clip-rule="evenodd" d="M430.568 110.544C438.307 112.146 446.346 111.413 453.67 108.438C460.993 105.463 467.272 100.38 471.712 93.8302C476.153 87.2809 478.555 79.5598 478.617 71.6427C478.678 63.7255 476.396 55.9678 472.058 49.3501C467.719 42.7324 461.52 37.5518 454.244 34.463C446.968 31.3742 438.941 30.5159 431.178 31.9966C423.415 33.4774 416.264 37.2307 410.63 42.7821C404.995 48.3335 401.13 55.4338 399.522 63.1856C398.454 68.3378 398.409 73.6504 399.392 78.8198C400.374 83.9891 402.364 88.9138 405.247 93.3122C408.13 97.7105 411.851 101.496 416.196 104.453C420.54 107.41 425.424 109.48 430.568 110.544ZM445.435 38.605C451.891 39.9462 457.806 43.1751 462.432 47.8834C467.057 52.5918 470.185 58.5683 471.421 65.0575C472.657 71.5468 471.945 78.2575 469.375 84.3414C466.805 90.4253 462.493 95.6094 456.983 99.2384C451.473 102.867 445.013 104.778 438.419 104.73C431.826 104.681 425.394 102.675 419.938 98.9656C414.482 95.2559 410.246 90.0089 407.766 83.8878C405.285 77.7667 404.672 71.0462 406.003 64.5759C406.889 60.2767 408.612 56.1947 411.074 52.5631C413.536 48.9315 416.688 45.8216 420.35 43.4112C424.012 41.0007 428.112 39.3369 432.417 38.5148C436.721 37.6928 441.144 37.7286 445.435 38.6202V38.605Z" fill="url(#paint19_linear_382_1718)"/>
<path style="mix-blend-mode:screen" d="M467.04 89.0281C475.747 72.7587 469.641 52.4979 453.403 43.7743C437.164 35.0507 416.941 41.1676 408.234 57.4371C399.526 73.7066 405.632 93.9675 421.871 102.691C438.11 111.415 458.333 105.298 467.04 89.0281Z" fill="url(#paint20_radial_382_1718)"/>
<path fill-rule="evenodd" clip-rule="evenodd" d="M473.308 52.4918L484.089 46.6254L477.99 38.605L468.993 45.9838C468.993 45.9838 469.496 50.9641 473.308 52.4918Z" fill="url(#paint21_linear_382_1718)"/>
<path fill-rule="evenodd" clip-rule="evenodd" d="M483.189 51.3765C483.189 51.3765 474.543 50.4599 473.049 38.7119L521.569 0L536.97 20.1198L483.189 51.3765Z" fill="url(#paint22_linear_382_1718)"/>
<path fill-rule="evenodd" clip-rule="evenodd" d="M536.97 20.1198C536.97 20.1198 537.443 7.71488 521.569 0C525.845 7.32373 531.019 14.0828 536.97 20.1198Z" fill="#771443"/>
<path fill-rule="evenodd" clip-rule="evenodd" d="M429.469 112.378C437.208 113.979 445.248 113.246 452.571 110.271C459.894 107.296 466.173 102.213 470.613 95.6635C475.054 89.1142 477.457 81.393 477.518 73.4759C477.58 65.5588 475.297 57.8011 470.959 51.1834C466.621 44.5656 460.422 39.385 453.145 36.2962C445.869 33.2074 437.842 32.3491 430.079 33.8299C422.316 35.3106 415.165 39.0639 409.531 44.6153C403.896 50.1667 400.031 57.2671 398.424 65.0189C397.355 70.171 397.311 75.4837 398.293 80.653C399.275 85.8224 401.265 90.747 404.148 95.1454C407.032 99.5438 410.752 103.33 415.097 106.286C419.441 109.243 424.325 111.313 429.469 112.378ZM444.321 40.4382C450.784 41.7746 456.706 45.0012 461.338 49.7098C465.97 54.4184 469.105 60.3976 470.345 66.8912C471.586 73.3848 470.876 80.1011 468.307 86.1906C465.737 92.2802 461.423 97.4695 455.909 101.102C450.395 104.735 443.93 106.648 437.331 106.599C430.733 106.551 424.296 104.543 418.837 100.829C413.377 97.1155 409.139 91.8632 406.659 85.7364C404.179 79.6097 403.569 72.8837 404.904 66.4091C406.695 57.7289 411.853 50.1166 419.245 45.2463C426.637 40.376 435.657 38.6465 444.321 40.4382Z" fill="url(#paint23_radial_382_1718)"/>
<g style="mix-blend-mode:soft-light" opacity="0.8">
<path fill-rule="evenodd" clip-rule="evenodd" d="M429.302 112.179C430.843 112.492 432.401 112.716 433.968 112.851L434.425 108.146C433.026 108.037 431.636 107.838 430.262 107.55C424.759 106.411 419.62 103.934 415.297 100.338C410.973 96.7413 407.598 92.1358 405.469 86.9261L401.229 88.9885C403.679 94.8464 407.514 100.019 412.405 104.059C417.296 108.1 423.095 110.887 429.302 112.179Z" fill="#F9F8F9"/>
</g>
<g style="mix-blend-mode:soft-light" opacity="0.8">
<path fill-rule="evenodd" clip-rule="evenodd" d="M464.983 101.882L461.933 98.2769C455.916 104.221 447.927 107.739 439.488 108.161L439.274 112.897C448.905 112.519 458.058 108.597 464.983 101.882Z" fill="#F9F8F9"/>
</g>
<path style="mix-blend-mode:screen" fill-rule="evenodd" clip-rule="evenodd" d="M524.115 12.3896L474.284 43.3255C473.857 42.6729 473.586 41.9307 473.491 41.1562L521.645 2.82623C522.052 6.10773 522.882 9.3224 524.115 12.3896Z" fill="url(#paint24_linear_382_1718)"/>
<path style="mix-blend-mode:screen" fill-rule="evenodd" clip-rule="evenodd" d="M459.585 98.3227L441.166 39.9799C434.881 39.297 428.533 40.4259 422.868 43.2339L420.55 101.928C420.55 101.928 431.483 108.849 443.422 106.114C455.362 103.379 459.585 98.3227 459.585 98.3227Z" fill="url(#paint25_linear_382_1718)"/>
<path d="M127.112 114.409L76.7922 124.706C75.1227 125.047 73.3864 124.727 71.9477 123.812C70.509 122.898 69.48 121.461 69.0765 119.802L58.4027 76.4155C58.1918 75.55 58.1571 74.6509 58.3008 73.7717C58.4445 72.8925 58.7635 72.0514 59.2388 71.2985C59.7142 70.5456 60.3362 69.8964 61.0675 69.3897C61.7989 68.883 62.6247 68.5291 63.4956 68.3493L116.88 57.4415C117.745 57.2628 118.638 57.2602 119.504 57.4341C120.37 57.608 121.193 57.9546 121.923 58.4535C122.652 58.9524 123.274 59.5932 123.752 60.338C124.23 61.0827 124.553 61.916 124.702 62.7884L132.326 106.817C132.618 108.514 132.235 110.258 131.261 111.676C130.287 113.095 128.798 114.076 127.112 114.409Z" fill="url(#paint26_radial_382_1718)"/>
<path d="M120.951 109.826L80.5429 118.091C79.2007 118.363 77.8054 118.105 76.6488 117.371C75.4922 116.636 74.6637 115.482 74.3368 114.15L65.7978 79.3487C65.6274 78.6548 65.5987 77.9336 65.7136 77.2284C65.8284 76.5231 66.0844 75.8484 66.4661 75.2448C66.8478 74.6412 67.3474 74.1211 67.9348 73.7159C68.5223 73.3106 69.1853 73.0285 69.8843 72.8865L112.763 64.1328C113.457 63.9894 114.174 63.9874 114.87 64.127C115.565 64.2666 116.226 64.5449 116.812 64.9454C117.398 65.3459 117.898 65.8604 118.281 66.4582C118.665 67.0561 118.924 67.7252 119.045 68.4256L125.144 103.731C125.377 105.094 125.069 106.495 124.285 107.633C123.502 108.772 122.305 109.559 120.951 109.826Z" fill="url(#paint27_linear_382_1718)"/>
<path d="M118.938 108.329L81.7783 115.968C80.5471 116.217 79.2675 115.979 78.2074 115.304C77.1472 114.629 76.3887 113.569 76.0907 112.347L68.2378 80.357C68.0785 79.7193 68.0501 79.0559 68.1542 78.4068C68.2583 77.7578 68.4928 77.1367 68.8435 76.5811C69.1942 76.0255 69.6538 75.547 70.1945 75.1745C70.7351 74.8021 71.3456 74.5434 71.9889 74.4143L111.406 66.3633C112.044 66.233 112.702 66.2322 113.341 66.3608C113.98 66.4895 114.587 66.7451 115.125 67.1124C115.664 67.4798 116.124 67.9515 116.477 68.4998C116.831 69.0481 117.072 69.6618 117.185 70.3048L122.75 102.768C122.958 104.009 122.676 105.283 121.965 106.32C121.254 107.357 120.169 108.077 118.938 108.329Z" fill="url(#paint28_linear_382_1718)"/>
<g style="mix-blend-mode:soft-light">
<path d="M63.4492 68.3493L69.8688 72.8865L112.762 64.1175L116.91 57.4262L63.4492 68.3493Z" fill="white"/>
</g>
<g style="mix-blend-mode:multiply" opacity="0.3">
<path d="M127.111 114.409L120.951 109.826L80.5425 118.076L76.7305 124.706L127.111 114.409Z" fill="#490042"/>
</g>
<path fill-rule="evenodd" clip-rule="evenodd" d="M111.024 90.119L109.911 84.0082L106.435 85.1234C105.921 83.9755 105.226 82.9181 104.376 81.9916L106.663 79.2571L101.525 75.6822L99.8474 78.9362C98.6768 78.4872 97.4404 78.2343 96.1878 78.1877L95.8675 74.6129L89.7682 75.7281L90.8814 79.2112C89.7656 79.7449 88.7373 80.4455 87.8317 81.2889L85.1022 78.9821L81.5342 84.1304L84.7821 85.8109C84.3339 86.9837 84.0815 88.2224 84.0349 89.4774L80.4668 89.7982L81.5799 95.909L85.0565 94.7938C85.5779 95.9412 86.2778 96.9982 87.1303 97.9255L84.8278 100.675L89.9665 104.235L91.6438 100.981C92.8157 101.428 94.0509 101.686 95.3034 101.745L95.6236 105.304L101.723 104.189L100.61 100.706C101.761 100.195 102.818 99.4924 103.736 98.6283L106.48 100.935L110.033 95.7868L106.785 94.1063C107.231 92.9322 107.489 91.6947 107.548 90.4398L111.024 90.119ZM96.9349 96.0465C95.7291 96.2938 94.4772 96.1772 93.3376 95.7114C92.1979 95.2457 91.2218 94.4517 90.5327 93.43C89.8435 92.4083 89.4723 91.2048 89.4661 89.9716C89.4599 88.7385 89.8189 87.5313 90.4977 86.5026C91.1765 85.474 92.1445 84.6702 93.2794 84.1929C94.4143 83.7156 95.665 83.5863 96.8732 83.8214C98.0815 84.0564 99.1929 84.6452 100.067 85.5134C100.941 86.3815 101.539 87.4899 101.784 88.6983C102.108 90.3164 101.78 91.9973 100.872 93.3741C99.9633 94.7509 98.548 95.7116 96.9349 96.0465Z" fill="#014999"/>
<g style="mix-blend-mode:multiply" opacity="0.3">
<path d="M350.773 159.629L297.221 147.408C295.444 147.008 293.891 145.932 292.889 144.407C291.888 142.883 291.517 141.028 291.854 139.235L300.576 92.2883C300.751 91.3527 301.113 90.4623 301.64 89.6702C302.167 88.8781 302.848 88.2007 303.642 87.6786C304.437 87.1566 305.328 86.8005 306.263 86.6318C307.198 86.4632 308.158 86.4853 309.084 86.697L365.93 99.6824C366.849 99.8931 367.717 100.287 368.482 100.84C369.246 101.393 369.892 102.094 370.382 102.902C370.871 103.709 371.193 104.607 371.329 105.542C371.466 106.477 371.413 107.43 371.175 108.344L359.16 154.542C358.698 156.317 357.564 157.842 355.998 158.792C354.431 159.742 352.557 160.043 350.773 159.629Z" fill="#490042"/>
</g>
<path d="M353.671 150.891L296.063 137.722C294.156 137.279 292.493 136.118 291.417 134.48C290.341 132.842 289.936 130.852 290.284 128.923L299.677 78.5085C299.869 77.504 300.26 76.5484 300.827 75.6982C301.395 74.8481 302.127 74.1208 302.98 73.5595C303.833 72.9981 304.79 72.6141 305.794 72.4303C306.799 72.2465 307.829 72.2666 308.826 72.4893L369.971 86.4525C370.96 86.6832 371.893 87.1093 372.715 87.7061C373.538 88.3028 374.233 89.0581 374.759 89.9276C375.286 90.797 375.635 91.7632 375.784 92.7693C375.933 93.7755 375.88 94.8013 375.628 95.7867L362.698 145.468C362.177 147.361 360.949 148.98 359.268 149.99C357.588 151 355.583 151.323 353.671 150.891Z" fill="url(#paint29_radial_382_1718)"/>
<path d="M349.386 143.161L303.168 132.604C301.648 132.239 300.326 131.303 299.475 129.99C298.624 128.677 298.308 127.086 298.594 125.546L306.126 85.0317C306.278 84.2254 306.591 83.4581 307.045 82.7755C307.499 82.0928 308.086 81.5088 308.771 81.0582C309.455 80.6077 310.223 80.2999 311.029 80.1532C311.835 80.0064 312.662 80.0238 313.461 80.2042L362.499 91.4175C363.295 91.5965 364.047 91.9336 364.711 92.4089C365.374 92.8841 365.936 93.4878 366.362 94.1843C366.789 94.8809 367.071 95.656 367.194 96.4639C367.316 97.2718 367.275 98.0961 367.074 98.888L356.705 138.746C356.305 140.295 355.314 141.626 353.946 142.451C352.577 143.277 350.94 143.532 349.386 143.161Z" fill="url(#paint30_linear_382_1718)"/>
<path d="M347.983 140.625L305.501 130.924C304.093 130.601 302.863 129.745 302.07 128.535C301.277 127.325 300.982 125.854 301.247 124.431L308.17 87.2011C308.307 86.4588 308.593 85.7519 309.01 85.1229C309.426 84.4939 309.965 83.9557 310.595 83.5405C311.224 83.1254 311.931 82.8418 312.672 82.7069C313.414 82.572 314.175 82.5886 314.909 82.7555L359.999 93.0675C360.729 93.2337 361.419 93.5452 362.027 93.9835C362.636 94.4218 363.15 94.978 363.539 95.6192C363.929 96.2603 364.186 96.9733 364.296 97.7159C364.405 98.4585 364.365 99.2155 364.177 99.9421L354.647 136.607C354.273 138.011 353.368 139.215 352.125 139.965C350.882 140.715 349.397 140.951 347.983 140.625Z" fill="url(#paint31_linear_382_1718)"/>
<g style="mix-blend-mode:soft-light">
<path d="M308.81 72.413L313.399 80.2042L362.453 91.4175L369.97 86.3761L308.81 72.413Z" fill="white"/>
</g>
<g style="mix-blend-mode:multiply" opacity="0.3">
<path d="M353.67 150.891L349.385 143.145L303.168 132.589L296.047 137.722L353.67 150.891Z" fill="#490042"/>
</g>
<path fill-rule="evenodd" clip-rule="evenodd" d="M327.84 95.8173L310.762 106.282L322.625 123.576L324.424 120.306L316.998 107.153L328.938 97.895L327.84 95.8173Z" fill="#014999"/>
<path fill-rule="evenodd" clip-rule="evenodd" d="M342.997 99.2852L353.854 116.12L335.678 126.555L335.479 122.827L347.861 114.196L341.106 100.675L342.997 99.2852Z" fill="#014999"/>
<path d="M55.7036 346.375L93.001 334.658C94.5075 334.349 96.0578 334.318 97.5755 334.566L141.384 347.521C141.813 347.596 142.206 347.812 142.5 348.135C142.793 348.458 142.972 348.869 143.007 349.305C143.042 349.74 142.931 350.175 142.693 350.541C142.454 350.906 142.101 351.182 141.689 351.325L97.6212 365.38C94.5567 366.404 91.2196 366.235 88.2739 364.906L55.3071 350.103C54.9278 349.933 54.612 349.647 54.4048 349.287C54.1975 348.926 54.1096 348.509 54.1537 348.095C54.1977 347.681 54.3714 347.292 54.6498 346.983C54.9282 346.674 55.2971 346.461 55.7036 346.375Z" fill="url(#paint32_linear_382_1718)"/>
<path fill-rule="evenodd" clip-rule="evenodd" d="M54.2393 347.475L63.495 329.112L137.205 329.601L142.984 349.232L96.6143 364.249L54.2393 347.475Z" fill="url(#paint33_linear_382_1718)"/>
<path d="M64.4408 328.532L94.9373 321.061C96.1677 320.84 97.4276 320.84 98.6579 321.061L135.955 329.173C137.617 329.448 137.755 331.114 136.154 331.648L98.5817 340.998C96.0802 341.817 93.3651 341.68 90.9576 340.616L64.0901 331.587C63.7814 331.444 63.5257 331.207 63.3592 330.91C63.1928 330.613 63.1241 330.271 63.1629 329.932C63.2018 329.594 63.3462 329.276 63.5756 329.025C63.805 328.774 64.1078 328.601 64.4408 328.532Z" fill="url(#paint34_linear_382_1718)"/>
<path d="M67.3231 328.471L95.0903 321.535C96.2048 321.336 97.3455 321.336 98.4601 321.535L132.449 329.173C133.973 329.418 134.065 330.823 132.616 331.312L98.4296 339.883C96.1496 340.641 93.6688 340.515 91.4764 339.531L67.0028 331.312C66.7267 331.171 66.5002 330.948 66.3534 330.675C66.2067 330.401 66.1467 330.089 66.1815 329.78C66.2163 329.472 66.3442 329.181 66.5482 328.947C66.7522 328.713 67.0224 328.547 67.3231 328.471Z" fill="url(#paint35_radial_382_1718)"/>
<g style="mix-blend-mode:multiply" opacity="0.3">
<path d="M89.2652 365.319L92.1472 341.044L64.0903 331.572L56.085 350.454L89.2652 365.319Z" fill="#490042"/>
</g>
<path d="M99.1454 326.607C98.7626 326.612 98.3805 326.642 98.0018 326.698C97.5596 326.698 96.9496 326.882 96.172 327.05L93.3358 327.707C92.3879 327.922 91.4241 328.06 90.4539 328.119C89.6209 328.165 88.7862 328.165 87.9532 328.119C88.2429 328.593 87.694 328.975 86.3216 329.296L83.0585 330.029C82.2808 330.212 81.7471 330.35 81.4574 330.457C81.1677 330.564 81.0457 330.64 81.0762 330.716C81.1067 330.793 81.3049 330.884 81.6404 330.991L82.6315 331.297L80.0393 331.877L78.4382 331.373C77.6758 331.129 77.1268 330.93 76.8219 330.793C76.5169 330.655 76.4407 330.487 76.6236 330.289C77.1771 329.938 77.8028 329.719 78.4535 329.647L82.4943 328.746C83.0419 328.659 83.5631 328.45 84.0191 328.135C84.2478 327.921 84.0191 327.722 83.3939 327.554L85.7575 327.035C86.5699 327.199 87.4005 327.256 88.2277 327.203C89.1256 327.162 90.0183 327.045 90.8961 326.851L94.9674 325.95C95.843 325.739 96.7364 325.611 97.6358 325.568C98.3262 325.519 99.0192 325.519 99.7096 325.568C100.289 325.568 101.051 325.767 102.012 325.95L104.01 326.317L101.402 326.912L100.228 326.683C99.8693 326.634 99.5076 326.608 99.1454 326.607Z" fill="#F46789"/>
<path d="M94.6015 334.765C95.0106 334.768 95.419 334.732 95.8214 334.658C96.3246 334.581 97.0107 334.429 97.8951 334.215L101.402 333.375C102.403 333.125 103.423 332.961 104.452 332.886C105.334 332.81 106.22 332.785 107.105 332.809C106.968 332.305 107.669 331.862 109.24 331.48L113.006 330.564C113.891 330.35 114.531 330.182 114.836 330.075C115.141 329.968 115.309 329.861 115.232 329.784C115.016 329.649 114.77 329.57 114.516 329.555L113.342 329.326L116.224 328.639L118.221 329.005C119.197 329.189 119.883 329.326 120.28 329.448C120.676 329.571 120.798 329.708 120.646 329.907C120.022 330.29 119.327 330.539 118.602 330.64L113.708 331.832C112.947 331.984 112.212 332.246 111.527 332.611C111.085 332.886 111.207 333.1 111.908 333.268L108.859 334.001C107.949 333.825 107.018 333.794 106.099 333.909C105.021 334.02 103.952 334.199 102.897 334.444L98.1543 335.605C97.1563 335.868 96.1348 336.032 95.1046 336.094C94.4471 336.144 93.7859 336.108 93.1376 335.987C92.503 335.85 91.8768 335.677 91.2621 335.467L89.7373 334.963L92.5887 334.291L93.5646 334.581C93.9011 334.687 94.2495 334.748 94.6015 334.765Z" fill="#F46789"/>
<path style="mix-blend-mode:screen" opacity="0.2" fill-rule="evenodd" clip-rule="evenodd" d="M97.0571 341.532L97.5756 365.38C94.8778 366.309 91.9478 366.309 89.25 365.38L92.1472 341.105C92.8952 341.502 93.7153 341.745 94.5588 341.818C95.4023 341.892 96.2519 341.795 97.0571 341.532Z" fill="url(#paint36_linear_382_1718)"/>
<path d="M520.853 118.427L490.356 158.438C489.661 160.045 489.253 161.761 489.151 163.51L496.699 214.749C496.662 215.256 496.799 215.761 497.085 216.18C497.372 216.6 497.793 216.909 498.278 217.058C498.763 217.207 499.284 217.187 499.757 217.001C500.229 216.814 500.624 216.473 500.877 216.032L531.77 170.125C533.666 166.938 534.298 163.154 533.539 159.522L525.107 118.931C525.02 118.459 524.785 118.027 524.436 117.699C524.086 117.37 523.641 117.163 523.165 117.106C522.69 117.05 522.208 117.148 521.792 117.386C521.376 117.623 521.047 117.988 520.853 118.427Z" fill="url(#paint37_linear_382_1718)"/>
<path fill-rule="evenodd" clip-rule="evenodd" d="M522.423 117.037L491.408 123.988L473.812 206.774L498.194 217.01L530.749 168.689L522.423 117.037Z" fill="url(#paint38_linear_382_1718)"/>
<path d="M490.539 124.92L474.681 157.277C474.117 158.589 473.786 159.99 473.705 161.417L473.598 205.262C473.492 207.187 475.306 207.737 476.297 206.087L496.12 166.366C497.687 163.765 498.231 160.671 497.645 157.689L494.153 125.332C494.154 124.881 493.989 124.446 493.69 124.108C493.391 123.771 492.978 123.557 492.53 123.506C492.083 123.455 491.632 123.571 491.265 123.832C490.898 124.093 490.639 124.48 490.539 124.92Z" fill="url(#paint39_linear_382_1718)"/>
<path d="M489.761 128.128L475.214 157.552C474.695 158.747 474.391 160.024 474.314 161.325L474.482 201.32C474.391 203.062 476.007 203.535 476.83 202.038L494.808 165.801C496.226 163.435 496.699 160.62 496.135 157.918L492.963 128.449C492.907 128.084 492.731 127.749 492.464 127.495C492.196 127.241 491.852 127.083 491.486 127.047C491.119 127.01 490.751 127.096 490.439 127.292C490.127 127.488 489.888 127.782 489.761 128.128Z" fill="url(#paint40_radial_382_1718)"/>
<g style="mix-blend-mode:multiply" opacity="0.3">
<path d="M533.737 160.714L497.69 159.064L494.016 125.271L525.305 119.848L533.737 160.714Z" fill="#490042"/>
</g>
<path d="M479.789 163.357C479.876 162.923 480.004 162.499 480.17 162.089C480.353 161.6 480.628 160.958 481.024 160.133L482.427 157.078C482.91 156.071 483.303 155.023 483.601 153.946C483.873 153.03 484.082 152.096 484.226 151.151C484.684 151.594 485.248 151.074 485.934 149.623L487.566 146.14C487.827 145.56 488.117 144.994 488.435 144.444C488.618 144.154 488.755 144.032 488.831 144.093C488.908 144.154 488.953 144.383 488.984 144.795L489.075 145.972L490.371 143.207L490.203 141.297C490.157 140.636 490.076 139.978 489.96 139.326C489.96 138.944 489.7 138.822 489.441 138.975C488.916 139.518 488.515 140.17 488.267 140.884L486.269 145.177C486.045 145.785 485.685 146.333 485.217 146.781C484.912 146.995 484.745 146.72 484.714 145.956L483.555 148.462C483.538 149.414 483.395 150.359 483.128 151.273C482.862 152.267 482.515 153.238 482.091 154.175L480.064 158.529C479.615 159.46 479.257 160.432 478.996 161.432C478.78 162.196 478.632 162.979 478.554 163.769C478.554 164.426 478.447 165.297 478.401 166.443L478.325 168.78L479.637 166V164.625C479.652 164.199 479.703 163.775 479.789 163.357Z" fill="white"/>
<path d="M490.066 160.256C489.978 160.717 489.84 161.168 489.655 161.6C489.441 162.15 489.106 162.883 488.648 163.83L486.849 167.543C486.332 168.607 485.898 169.711 485.553 170.843C485.253 171.816 485.008 172.805 484.821 173.806C484.292 173.531 483.621 174.219 482.808 175.869L480.856 179.871C480.399 180.819 480.063 181.399 479.85 181.811C479.637 182.224 479.499 182.27 479.438 182.178C479.35 181.902 479.319 181.611 479.347 181.323V179.948L477.822 183.003L477.73 185.34C477.73 186.471 477.73 187.281 477.73 187.754C477.73 188.228 477.913 188.396 478.157 188.274C478.401 188.151 478.859 187.449 479.484 186.181L482.015 180.987C482.38 180.174 482.852 179.413 483.418 178.726C483.83 178.298 484.059 178.481 484.074 179.306L485.599 176.144C485.622 175.1 485.817 174.068 486.178 173.088C486.556 171.902 487.014 170.744 487.55 169.62L490.02 164.594C490.548 163.545 490.982 162.451 491.317 161.325C491.517 160.597 491.64 159.849 491.683 159.095C491.683 158.514 491.683 157.766 491.561 156.849L491.378 154.939L489.853 157.995V159.171C489.965 159.523 490.037 159.887 490.066 160.256Z" fill="white"/>
<path style="mix-blend-mode:screen" opacity="0.2" fill-rule="evenodd" clip-rule="evenodd" d="M497.035 164.701L531.771 170.063C533.455 167.256 534.153 163.965 533.753 160.714L497.706 159.064C497.807 160.968 497.58 162.875 497.035 164.701Z" fill="url(#paint41_linear_382_1718)"/>
<path fill-rule="evenodd" clip-rule="evenodd" d="M252.742 27.5292L267.502 40.6827C268.013 41.2414 268.324 41.9549 268.384 42.7103C268.445 43.4656 268.253 44.2197 267.838 44.8533L255.044 76.2628C254.091 78.3293 252.534 80.0569 250.579 81.2164C248.624 82.376 246.363 82.9127 244.096 82.7555L186.854 78.6766C186.176 78.6243 185.516 78.4341 184.914 78.1177C184.312 77.8013 183.781 77.3653 183.353 76.8363C182.925 76.3073 182.609 75.6964 182.424 75.041C182.24 74.3855 182.19 73.6992 182.279 73.0241L185.207 51.071L252.742 27.5292Z" fill="url(#paint42_linear_382_1718)"/>
<path d="M186.366 49.6349L205.289 31.3025C206.745 29.8947 208.665 29.0689 210.687 28.9804L250.973 27.1014C253.656 26.9639 253.123 28.6291 251.811 30.9665L240.802 53.6069C240.171 54.5531 239.316 55.3276 238.312 55.8608C237.309 56.3941 236.189 56.6695 235.054 56.6623L188.546 55.5471C187.876 55.5159 187.23 55.2876 186.688 54.8906C186.146 54.4936 185.733 53.9455 185.501 53.3149C185.268 52.6842 185.226 51.9988 185.38 51.3444C185.534 50.6899 185.877 50.0954 186.366 49.6349Z" fill="url(#paint43_radial_382_1718)"/>
<path d="M187.891 48.3976L205.747 31.104C207.123 29.778 208.933 28.9965 210.84 28.9041L248.869 27.132C251.4 27.0097 250.897 28.568 249.647 30.7832L239.263 52.171C238.669 53.0676 237.862 53.8022 236.914 54.3089C235.967 54.8156 234.908 55.0784 233.834 55.0736L189.904 53.9584C189.281 53.9135 188.684 53.6888 188.186 53.3114C187.688 52.9341 187.31 52.4203 187.097 51.8321C186.884 51.244 186.846 50.6066 186.987 49.9971C187.128 49.3876 187.442 48.832 187.891 48.3976Z" fill="url(#paint44_radial_382_1718)"/>
<g style="mix-blend-mode:multiply" opacity="0.3">
<path fill-rule="evenodd" clip-rule="evenodd" d="M240.787 53.6223L255.09 76.3239L267.883 44.9144L251.796 30.9818L240.787 53.6223Z" fill="#490042"/>
</g>
<path style="mix-blend-mode:screen" opacity="0.2" d="M235.054 56.6929L244.203 82.8166C244.203 82.8166 250.302 84.5429 255.151 76.3239L240.863 53.6375C240.198 54.5637 239.327 55.3221 238.319 55.8524C237.31 56.3827 236.192 56.6705 235.054 56.6929Z" fill="url(#paint45_linear_382_1718)"/>
<path fill-rule="evenodd" clip-rule="evenodd" d="M197.787 47.374L206.799 48.0156L242.053 33.365L236.198 32.8303L197.787 47.374Z" fill="#F46789"/>
<path fill-rule="evenodd" clip-rule="evenodd" d="M598.634 264.567C592.687 265.27 589.379 238.917 590.126 231.172C591.041 221.746 593.587 211.311 599.534 210.655C605.481 209.998 612.19 225.29 613.258 235.098C614.325 244.906 604.596 263.864 598.634 264.567Z" fill="#F2F2F2"/>
<path fill-rule="evenodd" clip-rule="evenodd" d="M616.429 109.276C598.71 130.496 576.783 136.271 554.78 119.481C519.709 92.5633 504.583 58.3734 524.009 38.6966C541.438 21.067 591.437 17.1866 612.617 34.9385C633.797 52.6904 634.147 88.0719 616.429 109.276Z" fill="#F2F2F2"/>
<path fill-rule="evenodd" clip-rule="evenodd" d="M494.87 283.327L488.679 301.079C492.094 291.271 497.02 284.901 494.87 283.327ZM488.679 301.079L482.473 318.816C484.043 318.311 485.248 310.887 488.679 301.079ZM494.87 283.327L488.679 301.079C492.094 291.271 497.02 284.901 494.87 283.327ZM488.679 301.079L482.473 318.816C484.043 318.311 485.248 310.887 488.679 301.079ZM506.55 316.448L512.649 319.87L519.13 302.118L512.176 300.942C512.298 300.285 512.42 299.628 512.512 298.971C512.999 296.049 513.198 293.086 513.106 290.125L520.38 285.542L517.056 269.899L510.087 276.59C509.183 274.674 507.978 272.915 506.519 271.381C506.145 270.962 505.742 270.569 505.315 270.204L509.584 260.335L498.239 256.638L495.51 266.584C492.872 266.641 490.275 267.25 487.886 268.371L486.635 258.976L474.147 268.447L477.029 276.789C474.664 279.504 472.617 282.482 470.93 285.665L464.907 282.273L458.289 299.979L465.242 301.14C464.534 304.7 464.227 308.328 464.327 311.956L457.054 316.539L460.363 332.168L467.331 325.492C468.481 327.918 470.11 330.085 472.119 331.862L467.85 341.731L479.011 346.1L480.734 339.806L481.909 335.498C484.547 335.435 487.144 334.821 489.533 333.695L490.768 343.091L503.271 333.619L500.374 325.293C502.219 323.176 503.867 320.895 505.299 318.479C505.787 317.853 506.169 317.166 506.55 316.448ZM488.679 301.079C485.248 310.887 488.679 320.939 482.473 318.816C476.267 316.692 473.995 306.915 477.425 297.138C480.856 287.36 488.663 281.158 494.87 283.388C501.076 285.619 492.094 291.271 488.679 301.079ZM494.87 283.327L488.679 301.079C492.094 291.271 497.02 284.901 494.87 283.327ZM488.679 301.079L482.473 318.816C484.043 318.311 485.248 310.887 488.679 301.079Z" fill="#C4234A"/>
<path fill-rule="evenodd" clip-rule="evenodd" d="M512.573 319.839L519.054 302.087L512.436 298.94L511.368 298.451L512.055 288.674L519.404 285.069L516.98 269.883L500.969 264.674L503.927 271.717L509.508 260.32L498.163 256.623L493.497 255.095L482.32 250.726L480.231 258.365L470.488 253.781L457.999 263.253L461.796 273.504L450.116 305.952L444.337 327.019L455.438 328.241L451.824 336.583L463.001 340.952L479.012 346.177L476.45 341.028L474.834 337.973L480.735 339.913L490.844 343.198L503.348 333.726L495.617 324.56L505.376 318.541L512.573 319.839ZM477.502 297.107C480.933 287.299 488.74 281.127 494.946 283.358L488.755 301.11L482.549 318.846C476.267 316.631 473.995 306.915 477.426 297.138L477.502 297.107Z" fill="#E33B5C"/>
<path fill-rule="evenodd" clip-rule="evenodd" d="M496.562 314.63L503.043 296.878L496.089 295.717C496.794 292.162 497.106 288.54 497.02 284.916L504.293 280.333L500.969 264.704L494 271.381C492.867 268.944 491.242 266.77 489.228 264.995L493.497 255.126L482.32 250.757L479.423 261.359C476.784 261.421 474.187 262.035 471.799 263.162L470.564 253.766L458.06 263.238L460.942 271.564C458.583 274.295 456.538 277.283 454.843 280.47L448.835 277.064L442.339 294.815L449.292 295.977C448.585 299.536 448.278 303.164 448.378 306.793L441.089 311.376L444.413 327.019L451.381 320.343C452.529 322.767 454.152 324.933 456.154 326.714L451.9 336.583L463.077 340.952L465.974 330.35C468.613 330.287 471.21 329.673 473.598 328.547L474.833 337.942L487.322 328.471L484.44 320.145C486.809 317.421 488.855 314.432 490.539 311.238L496.562 314.63ZM466.462 313.591C460.241 311.406 457.984 301.69 461.415 291.898C464.846 282.105 472.653 275.933 478.859 278.148C485.065 280.363 487.337 290.049 483.921 299.842C480.506 309.634 472.683 315.76 466.462 313.591Z" fill="#F46789"/>
<path fill-rule="evenodd" clip-rule="evenodd" d="M520.288 285.558L504.293 280.333L497.004 284.901L513.015 290.125L520.288 285.558Z" fill="#C4234A"/>
<path fill-rule="evenodd" clip-rule="evenodd" d="M503.332 333.68L487.321 328.455L484.439 320.129L500.45 325.354L503.332 333.68Z" fill="#C4234A"/>
<g style="mix-blend-mode:multiply" opacity="0.5">
<path fill-rule="evenodd" clip-rule="evenodd" d="M489.228 264.995L497.995 267.531L500.969 264.689L506.794 266.599L509.493 260.351L493.497 255.126L489.228 264.995Z" fill="#541D36"/>
</g>
<g style="mix-blend-mode:multiply" opacity="0.5">
<path fill-rule="evenodd" clip-rule="evenodd" d="M465.913 330.334L474.284 333.833L473.598 328.532C473.598 328.532 469.115 330.93 465.913 330.334Z" fill="#541D36"/>
</g>
<g style="mix-blend-mode:multiply" opacity="0.5">
<path fill-rule="evenodd" clip-rule="evenodd" d="M467.194 282.242L481.314 289.728C482.363 288.302 483.582 287.009 484.943 285.878C484.943 285.878 481.314 270.281 467.194 282.242Z" fill="#541D36"/>
</g>
<path style="mix-blend-mode:screen" fill-rule="evenodd" clip-rule="evenodd" d="M623.535 176.312L626.585 179.077C630.966 175.437 634.703 171.083 637.64 166.198L634.865 163.067C631.473 167.798 627.683 172.23 623.535 176.312Z" fill="url(#paint46_linear_382_1718)"/>
<path fill-rule="evenodd" clip-rule="evenodd" d="M620.729 176.953L625.593 174.372C625.593 174.372 625.013 176.541 623.976 177.06C622.904 177.32 621.782 177.283 620.729 176.953Z" fill="white"/>
<defs>
<linearGradient id="paint0_linear_382_1718" x1="137.541" y1="405.36" x2="485.507" y2="405.36" gradientUnits="userSpaceOnUse">
<stop stop-color="#56337F"/>
<stop offset="0.99" stop-color="#291650"/>
</linearGradient>
<linearGradient id="paint1_linear_382_1718" x1="260.213" y1="313.499" x2="260.213" y2="129.457" gradientUnits="userSpaceOnUse">
<stop offset="0.01" stop-color="#291645"/>
<stop offset="1" stop-color="#4C247A"/>
</linearGradient>
<linearGradient id="paint2_linear_382_1718" x1="139.341" y1="326.76" x2="307.807" y2="170.547" gradientUnits="userSpaceOnUse">
<stop stop-color="#194B93"/>
<stop offset="1" stop-color="#308CEF"/>
</linearGradient>
<radialGradient id="paint3_radial_382_1718" cx="0" cy="0" r="1" gradientUnits="userSpaceOnUse" gradientTransform="translate(307.072 299.482) scale(90.0259 119.96)">
<stop stop-color="#E4D5E1"/>
<stop offset="0.98" stop-color="#B7ACCF"/>
</radialGradient>
<linearGradient id="paint4_linear_382_1718" x1="257.773" y1="345.23" x2="257.773" y2="313.499" gradientUnits="userSpaceOnUse">
<stop stop-color="#56337F"/>
<stop offset="0.99" stop-color="#291650"/>
</linearGradient>
<radialGradient id="paint5_radial_382_1718" cx="0" cy="0" r="1" gradientUnits="userSpaceOnUse" gradientTransform="translate(256.692 348.254) scale(34.3392 34.4038)">
<stop stop-color="#A4809A"/>
<stop offset="1" stop-color="#705CA1"/>
</radialGradient>
<radialGradient id="paint6_radial_382_1718" cx="0" cy="0" r="1" gradientUnits="userSpaceOnUse" gradientTransform="translate(256.692 343.61) scale(34.2934 34.3579)">
<stop stop-color="#E4D5E1"/>
<stop offset="0.98" stop-color="#B7ACCF"/>
</radialGradient>
<linearGradient id="paint7_linear_382_1718" x1="90.4348" y1="259.865" x2="54.2163" y2="158.455" gradientUnits="userSpaceOnUse">
<stop stop-color="#DB3662"/>
<stop offset="1" stop-color="#E03030"/>
</linearGradient>
<radialGradient id="paint8_radial_382_1718" cx="0" cy="0" r="1" gradientUnits="userSpaceOnUse" gradientTransform="translate(66.4683 195.188) rotate(-19.6441) scale(76.3034 76.4146)">
<stop stop-color="#F7F4F7"/>
<stop offset="0.98" stop-color="#CFC9DF"/>
</radialGradient>
<linearGradient id="paint9_linear_382_1718" x1="72.8376" y1="213.482" x2="88.1437" y2="179.088" gradientUnits="userSpaceOnUse">
<stop offset="0.01" stop-color="#291645"/>
<stop offset="1" stop-color="#4C247A"/>
</linearGradient>
<linearGradient id="paint10_linear_382_1718" x1="71.5222" y1="214.338" x2="98.1277" y2="207.337" gradientUnits="userSpaceOnUse">
<stop offset="0.01" stop-color="#291645"/>
<stop offset="1" stop-color="#4C247A"/>
</linearGradient>
<linearGradient id="paint11_linear_382_1718" x1="75.2948" y1="217.596" x2="71.9059" y2="208.102" gradientUnits="userSpaceOnUse">
<stop offset="0.01" stop-color="#291645"/>
<stop offset="1" stop-color="#4C247A"/>
</linearGradient>
<radialGradient id="paint12_radial_382_1718" cx="0" cy="0" r="1" gradientUnits="userSpaceOnUse" gradientTransform="translate(73.6061 212.847) rotate(-19.6442) scale(2.44023 2.4438)">
<stop stop-color="#F7F4F7"/>
<stop offset="0.98" stop-color="#CFC9DF"/>
</radialGradient>
<radialGradient id="paint13_radial_382_1718" cx="0" cy="0" r="1" gradientUnits="userSpaceOnUse" gradientTransform="translate(395.904 359.361) scale(5.22076 13.7646)">
<stop stop-color="#F9ED38"/>
<stop offset="0.22" stop-color="#B0A828"/>
<stop offset="0.42" stop-color="#726C1A"/>
<stop offset="0.61" stop-color="#413E0F"/>
<stop offset="0.78" stop-color="#1D1C07"/>
<stop offset="0.91" stop-color="#080702"/>
<stop offset="1"/>
</radialGradient>
<radialGradient id="paint14_radial_382_1718" cx="0" cy="0" r="1" gradientUnits="userSpaceOnUse" gradientTransform="translate(327.078 388.03) scale(124.228 165.534)">
<stop stop-color="#E4D5E1"/>
<stop offset="0.98" stop-color="#B7ACCF"/>
</radialGradient>
<radialGradient id="paint15_radial_382_1718" cx="0" cy="0" r="1" gradientUnits="userSpaceOnUse" gradientTransform="translate(390.433 306.451) scale(13.7387 13.7646)">
<stop stop-color="#E27D1D"/>
<stop offset="0.16" stop-color="#AF6117"/>
<stop offset="0.38" stop-color="#723F0F"/>
<stop offset="0.59" stop-color="#412408"/>
<stop offset="0.76" stop-color="#1D1004"/>
<stop offset="0.91" stop-color="#080401"/>
<stop offset="1"/>
</radialGradient>
<radialGradient id="paint16_radial_382_1718" cx="0" cy="0" r="1" gradientUnits="userSpaceOnUse" gradientTransform="translate(405.195 443.513) rotate(3.88728) scale(38.8809 13.7645)">
<stop stop-color="#5595FB"/>
<stop offset="0.22" stop-color="#3C69B1"/>
<stop offset="0.43" stop-color="#274372"/>
<stop offset="0.62" stop-color="#162641"/>
<stop offset="0.78" stop-color="#0A111D"/>
<stop offset="0.91" stop-color="#030508"/>
<stop offset="1"/>
</radialGradient>
<radialGradient id="paint17_radial_382_1718" cx="0" cy="0" r="1" gradientUnits="userSpaceOnUse" gradientTransform="translate(143.25 426.922) rotate(3.94217) scale(32.643 8.65255)">
<stop stop-color="#DB2E1B"/>
<stop offset="0.14" stop-color="#AF2516"/>
<stop offset="0.37" stop-color="#72180E"/>
<stop offset="0.58" stop-color="#410E08"/>
<stop offset="0.76" stop-color="#1D0604"/>
<stop offset="0.9" stop-color="#080201"/>
<stop offset="1"/>
</radialGradient>
<linearGradient id="paint18_linear_382_1718" x1="602.004" y1="435.898" x2="602.004" y2="437.579" gradientUnits="userSpaceOnUse">
<stop stop-color="#F4EFF2"/>
<stop offset="0.98" stop-color="#C9C2DB"/>
</linearGradient>
<linearGradient id="paint19_linear_382_1718" x1="446.555" y1="29.7474" x2="430.511" y2="108.216" gradientUnits="userSpaceOnUse">
<stop stop-color="#56337F"/>
<stop offset="0.99" stop-color="#291650"/>
</linearGradient>
<radialGradient id="paint20_radial_382_1718" cx="0" cy="0" r="1" gradientUnits="userSpaceOnUse" gradientTransform="translate(437.606 73.2117) rotate(-168.289) scale(33.3658 33.4234)">
<stop offset="0.23"/>
<stop offset="0.52" stop-color="#010102"/>
<stop offset="0.62" stop-color="#050509"/>
<stop offset="0.7" stop-color="#0B0D14"/>
<stop offset="0.76" stop-color="#141725"/>
<stop offset="0.81" stop-color="#20243B"/>
<stop offset="0.85" stop-color="#2F3557"/>
<stop offset="0.89" stop-color="#404977"/>
<stop offset="0.93" stop-color="#54609D"/>
<stop offset="0.97" stop-color="#6B7AC7"/>
<stop offset="1" stop-color="#879AFB"/>
</radialGradient>
<linearGradient id="paint21_linear_382_1718" x1="477.965" y1="36.1698" x2="475.052" y2="50.4205" gradientUnits="userSpaceOnUse">
<stop stop-color="#56337F"/>
<stop offset="0.99" stop-color="#291650"/>
</linearGradient>
<linearGradient id="paint22_linear_382_1718" x1="532.619" y1="34.7067" x2="478.905" y2="18.8156" gradientUnits="userSpaceOnUse">
<stop stop-color="#DB3662"/>
<stop offset="1" stop-color="#E06E30"/>
</linearGradient>
<radialGradient id="paint23_radial_382_1718" cx="0" cy="0" r="1" gradientUnits="userSpaceOnUse" gradientTransform="translate(437.474 70.8083) rotate(-168.444) scale(39.9767 40.046)">
<stop stop-color="#6449CD"/>
<stop offset="0.99" stop-color="#64388D"/>
</radialGradient>
<linearGradient id="paint24_linear_382_1718" x1="520.726" y1="25.2321" x2="477.833" y2="16.4947" gradientUnits="userSpaceOnUse">
<stop/>
<stop offset="1" stop-color="#B39D68"/>
</linearGradient>
<linearGradient id="paint25_linear_382_1718" x1="447.118" y1="38.8295" x2="433.749" y2="104.215" gradientUnits="userSpaceOnUse">
<stop/>
<stop offset="1" stop-color="#969D98"/>
</linearGradient>
<radialGradient id="paint26_radial_382_1718" cx="0" cy="0" r="1" gradientUnits="userSpaceOnUse" gradientTransform="translate(96.0325 91.1503) rotate(-11.5511) scale(31.4901 31.5446)">
<stop stop-color="#E4D5E1"/>
<stop offset="0.98" stop-color="#B7ACCF"/>
</radialGradient>
<linearGradient id="paint27_linear_382_1718" x1="100.665" y1="113.903" x2="91.369" y2="68.4197" gradientUnits="userSpaceOnUse">
<stop offset="0.02" stop-color="#EAE7F1"/>
<stop offset="1" stop-color="#EEE4EC"/>
</linearGradient>
<linearGradient id="paint28_linear_382_1718" x1="100.29" y1="112.062" x2="91.7438" y2="70.2454" gradientUnits="userSpaceOnUse">
<stop offset="0.02" stop-color="#CFC9DF"/>
<stop offset="1" stop-color="#EEE4EC"/>
</linearGradient>
<radialGradient id="paint29_radial_382_1718" cx="0" cy="0" r="1" gradientUnits="userSpaceOnUse" gradientTransform="translate(332.001 111.706) rotate(12.8634) scale(36.1876 36.2489)">
<stop stop-color="#E4D5E1"/>
<stop offset="0.98" stop-color="#B7ACCF"/>
</radialGradient>
<linearGradient id="paint30_linear_382_1718" x1="326.084" y1="137.713" x2="337.963" y2="85.694" gradientUnits="userSpaceOnUse">
<stop offset="0.02" stop-color="#EAE7F1"/>
<stop offset="1" stop-color="#EEE4EC"/>
</linearGradient>
<linearGradient id="paint31_linear_382_1718" x1="326.562" y1="135.612" x2="337.482" y2="87.7934" gradientUnits="userSpaceOnUse">
<stop offset="0.02" stop-color="#CFC9DF"/>
<stop offset="1" stop-color="#EEE4EC"/>
</linearGradient>
<linearGradient id="paint32_linear_382_1718" x1="54.1178" y1="350.225" x2="143" y2="350.225" gradientUnits="userSpaceOnUse">
<stop stop-color="#56337F"/>
<stop offset="0.99" stop-color="#291650"/>
</linearGradient>
<linearGradient id="paint33_linear_382_1718" x1="54.2393" y1="346.681" x2="142.984" y2="346.681" gradientUnits="userSpaceOnUse">
<stop stop-color="#56337F"/>
<stop offset="0.99" stop-color="#291650"/>
</linearGradient>
<linearGradient id="paint34_linear_382_1718" x1="100.213" y1="341.533" x2="100.213" y2="320.863" gradientUnits="userSpaceOnUse">
<stop stop-color="#6449CD"/>
<stop offset="0.99" stop-color="#64388D"/>
</linearGradient>
<radialGradient id="paint35_radial_382_1718" cx="0" cy="0" r="1" gradientUnits="userSpaceOnUse" gradientTransform="translate(99.8935 330.839) scale(24.7785 24.8252)">
<stop stop-color="#6449CD"/>
<stop offset="0.99" stop-color="#64388D"/>
</radialGradient>
<linearGradient id="paint36_linear_382_1718" x1="93.428" y1="366.052" x2="93.428" y2="341.044" gradientUnits="userSpaceOnUse">
<stop/>
<stop offset="1" stop-color="white"/>
</linearGradient>
<linearGradient id="paint37_linear_382_1718" x1="528.505" y1="109.374" x2="506.841" y2="210.279" gradientUnits="userSpaceOnUse">
<stop stop-color="#56337F"/>
<stop offset="0.99" stop-color="#291650"/>
</linearGradient>
<linearGradient id="paint38_linear_382_1718" x1="524.489" y1="108.64" x2="502.854" y2="209.411" gradientUnits="userSpaceOnUse">
<stop stop-color="#56337F"/>
<stop offset="0.99" stop-color="#291650"/>
</linearGradient>
<linearGradient id="paint39_linear_382_1718" x1="503.252" y1="161.091" x2="480.071" y2="156.133" gradientUnits="userSpaceOnUse">
<stop stop-color="#6449CD"/>
<stop offset="0.99" stop-color="#64388D"/>
</linearGradient>
<radialGradient id="paint40_radial_382_1718" cx="0" cy="0" r="1" gradientUnits="userSpaceOnUse" gradientTransform="translate(491.332 158.141) rotate(102.073) scale(28.5227 28.4736)">
<stop stop-color="#6449CD"/>
<stop offset="0.99" stop-color="#64388D"/>
</radialGradient>
<linearGradient id="paint41_linear_382_1718" x1="540.375" y1="159.322" x2="504.7" y2="151.691" gradientUnits="userSpaceOnUse">
<stop/>
<stop offset="1" stop-color="white"/>
</linearGradient>
<linearGradient id="paint42_linear_382_1718" x1="228.908" y1="78.4122" x2="226.158" y2="23.5073" gradientUnits="userSpaceOnUse">
<stop stop-color="#88699A"/>
<stop offset="1" stop-color="#6D4BA1"/>
</linearGradient>
<radialGradient id="paint43_radial_382_1718" cx="0" cy="0" r="1" gradientUnits="userSpaceOnUse" gradientTransform="translate(226.042 45.184) rotate(-92.857) scale(26.3856 26.3363)">
<stop stop-color="#D4C3D6"/>
<stop offset="1" stop-color="#AEA6E0"/>
</radialGradient>
<radialGradient id="paint44_radial_382_1718" cx="0" cy="0" r="1" gradientUnits="userSpaceOnUse" gradientTransform="translate(222.242 43.7663) rotate(-92.857) scale(33.3912 33.3288)">
<stop stop-color="#BEA4C2"/>
<stop offset="1" stop-color="#948CD1"/>
</radialGradient>
<linearGradient id="paint45_linear_382_1718" x1="250.368" y1="81.7352" x2="240.138" y2="53.8615" gradientUnits="userSpaceOnUse">
<stop/>
<stop offset="1" stop-color="white"/>
</linearGradient>
<linearGradient id="paint46_linear_382_1718" x1="633.397" y1="178.979" x2="646.33" y2="167.447" gradientUnits="userSpaceOnUse">
<stop stop-color="#5E3D55"/>
<stop offset="0.12" stop-color="#4F3347"/>
<stop offset="0.51" stop-color="#241721"/>
<stop offset="0.82" stop-color="#0A0609"/>
<stop offset="1"/>
</linearGradient>
</defs>
</svg>
